<svg class="main-svg" xmlns="http://www.w3.org/2000/svg" xmlns:xlink="http://www.w3.org/1999/xlink" width="1027" height="768" style="" viewBox="0 0 1027 768"><rect x="0" y="0" width="1027" height="768" style="fill: rgb(255, 255, 255); fill-opacity: 1;"/><defs id="defs-e3fbaf"><g class="clips"><clipPath id="clipe3fbafxyplot" class="plotclip"><rect width="933" height="703"/></clipPath><clipPath class="axesclip" id="clipe3fbafx"><rect x="60" y="0" width="933" height="768"/></clipPath><clipPath class="axesclip" id="clipe3fbafy"><rect x="0" y="25" width="1027" height="703"/></clipPath><clipPath class="axesclip" id="clipe3fbafxy"><rect x="60" y="25" width="933" height="703"/></clipPath></g><g class="gradients"/></defs><g class="bglayer"/><g class="layer-below"><g class="imagelayer"/><g class="shapelayer"/></g><g class="cartesianlayer"><g class="subplot xy"><g class="layer-subplot"><g class="shapelayer"/><g class="imagelayer"/></g><g class="gridlayer"><g class="x"><path class="xgrid crisp" transform="translate(121.25999999999999,0)" d="M0,25v703" style="stroke: rgb(238, 238, 238); stroke-opacity: 1; stroke-width: 1px;"/><path class="xgrid crisp" transform="translate(267.33000000000004,0)" d="M0,25v703" style="stroke: rgb(238, 238, 238); stroke-opacity: 1; stroke-width: 1px;"/><path class="xgrid crisp" transform="translate(408.7,0)" d="M0,25v703" style="stroke: rgb(238, 238, 238); stroke-opacity: 1; stroke-width: 1px;"/><path class="xgrid crisp" transform="translate(554.77,0)" d="M0,25v703" style="stroke: rgb(238, 238, 238); stroke-opacity: 1; stroke-width: 1px;"/><path class="xgrid crisp" transform="translate(696.14,0)" d="M0,25v703" style="stroke: rgb(238, 238, 238); stroke-opacity: 1; stroke-width: 1px;"/><path class="xgrid crisp" transform="translate(842.21,0)" d="M0,25v703" style="stroke: rgb(238, 238, 238); stroke-opacity: 1; stroke-width: 1px;"/><path class="xgrid crisp" transform="translate(988.29,0)" d="M0,25v703" style="stroke: rgb(238, 238, 238); stroke-opacity: 1; stroke-width: 1px;"/></g><g class="y"><path class="ygrid crisp" transform="translate(0,581.09)" d="M60,0h933" style="stroke: rgb(238, 238, 238); stroke-opacity: 1; stroke-width: 1px;"/><path class="ygrid crisp" transform="translate(0,469.66)" d="M60,0h933" style="stroke: rgb(238, 238, 238); stroke-opacity: 1; stroke-width: 1px;"/><path class="ygrid crisp" transform="translate(0,358.23)" d="M60,0h933" style="stroke: rgb(238, 238, 238); stroke-opacity: 1; stroke-width: 1px;"/><path class="ygrid crisp" transform="translate(0,246.8)" d="M60,0h933" style="stroke: rgb(238, 238, 238); stroke-opacity: 1; stroke-width: 1px;"/><path class="ygrid crisp" transform="translate(0,135.37)" d="M60,0h933" style="stroke: rgb(238, 238, 238); stroke-opacity: 1; stroke-width: 1px;"/></g></g><g class="zerolinelayer"><path class="yzl zl crisp" transform="translate(0,692.52)" d="M60,0h933" style="stroke: rgb(68, 68, 68); stroke-opacity: 1; stroke-width: 1px;"/></g><path class="xlines-below"/><path class="ylines-below"/><g class="overlines-below"/><g class="xaxislayer-below"/><g class="yaxislayer-below"/><g class="overaxes-below"/><g class="plot" transform="translate(60, 25)" clip-path="url('#clipe3fbafxyplot')"><g class="scatterlayer mlayer"><g class="trace scatter trace2f432f" style="stroke-miterlimit: 2; opacity: 1;"><g class="fills"/><g class="errorbars"/><g class="lines"><path class="js-line" d="M0,667.4L51.83,667.52L65.97,666.18L108.38,663.95L113.09,662.06L122.52,657.15L127.23,652.47L131.94,648.91L136.65,647.79L141.36,645.01L146.08,640.33L155.5,627.51L160.21,623.06L169.64,605.56L174.35,595.53L179.06,577.03L183.77,562.66L197.91,511.63L202.62,481.87L212.05,426.27L216.76,409.33L221.47,392.28L226.18,378.8L230.89,358.74L235.61,330.11L240.32,304.92L245.03,284.08L249.74,273.39L254.45,260.35L259.17,241.63L263.88,216.11L268.59,203.97L273.3,183.46L282.73,152.6L287.44,130.87L292.15,100.89L296.86,76.16L301.58,69.69L306.29,56.21L311,35.82L315.71,35.15L320.42,43.84L325.14,61.45L329.85,58.44L334.56,96.99L343.98,148.03L348.7,160.17L358.12,208.65L362.83,202.85L367.55,213.88L372.26,213.44L376.97,214.22L381.68,226.03L386.39,240.52L391.11,250.1L395.82,245.08L400.53,263.47L405.24,268.71L409.95,282.41L419.38,287.32L424.09,286.98L428.8,270.04L433.52,263.92L438.23,256.9L442.94,239.62L447.65,238.96L452.36,227.37L457.08,210.21L461.79,209.54L466.5,226.7L471.21,221.35L475.92,222.13L480.64,229.26L485.35,245.98L490.06,240.29L494.77,229.37L499.48,230.26L504.2,239.85L508.91,244.97L513.62,238.73L518.33,228.59L523.05,230.93L527.76,244.42L537.18,314.06L541.89,328.66L546.61,339.13L551.32,365.65L556.03,374.45L560.74,379.47L565.45,398.97L570.17,404.54L574.88,413.34L579.59,418.14L584.3,427.83L589.02,434.07L593.73,430.5L598.44,439.2L603.15,440.64L607.86,453.79L612.58,456.69L617.29,457.02L622,439.08L626.71,438.86L631.42,442.98L636.14,449.11L640.85,450.9L645.56,457.36L650.27,462.6L654.98,463.26L659.7,470.73L664.41,481.09L669.12,481.65L673.83,489.34L678.55,505.27L683.26,503.71L692.68,506.83L697.39,511.51L702.11,515.41L706.82,515.3L711.53,511.74L716.24,506.39L720.95,503.27L725.67,491.01L735.09,501.26L739.8,495.13L744.52,495.47L749.23,493.91L753.94,492.12L758.65,492.01L763.36,503.04L768.08,511.85L777.5,520.54L782.21,521.32L791.64,528.79L796.35,535.47L801.06,542.71L805.77,546.06L810.48,550.29L815.2,558.2L819.91,556.75L824.62,561.43L829.33,565.89L834.05,568.23L843.47,566.89L848.18,566.78L852.89,565L857.61,561.55L862.32,559.99L867.03,560.1L876.45,555.75L881.17,554.97L890.59,549.51L895.3,552.74L918.86,531.46L923.58,529.34L928.29,529.79L933,528.34" style="vector-effect: non-scaling-stroke; fill: none; stroke: rgb(31, 119, 180); stroke-opacity: 1; stroke-width: 2px; opacity: 1;"/></g><g class="points"/><g class="text"/></g></g></g><g class="overplot"/><path class="xlines-above crisp" d="M0,0" style="fill: none;"/><path class="ylines-above crisp" d="M0,0" style="fill: none;"/><g class="overlines-above"/><g class="xaxislayer-above"><g class="xtick"><text text-anchor="middle" x="0" y="741" transform="translate(121.25999999999999,0)" style="font-family: 'Open Sans', verdana, arial, sans-serif; font-size: 12px; fill: rgb(68, 68, 68); fill-opacity: 1; white-space: pre;">Mar 2020</text></g><g class="xtick"><text text-anchor="middle" x="0" y="741" transform="translate(267.33000000000004,0)" style="font-family: 'Open Sans', verdana, arial, sans-serif; font-size: 12px; fill: rgb(68, 68, 68); fill-opacity: 1; white-space: pre;">Apr 2020</text></g><g class="xtick"><text text-anchor="middle" x="0" y="741" transform="translate(408.7,0)" style="font-family: 'Open Sans', verdana, arial, sans-serif; font-size: 12px; fill: rgb(68, 68, 68); fill-opacity: 1; white-space: pre;">May 2020</text></g><g class="xtick"><text text-anchor="middle" x="0" y="741" transform="translate(554.77,0)" style="font-family: 'Open Sans', verdana, arial, sans-serif; font-size: 12px; fill: rgb(68, 68, 68); fill-opacity: 1; white-space: pre;">Jun 2020</text></g><g class="xtick"><text text-anchor="middle" x="0" y="741" transform="translate(696.14,0)" style="font-family: 'Open Sans', verdana, arial, sans-serif; font-size: 12px; fill: rgb(68, 68, 68); fill-opacity: 1; white-space: pre;">Jul 2020</text></g><g class="xtick"><text text-anchor="middle" x="0" y="741" transform="translate(842.21,0)" style="font-family: 'Open Sans', verdana, arial, sans-serif; font-size: 12px; fill: rgb(68, 68, 68); fill-opacity: 1; white-space: pre;">Aug 2020</text></g><g class="xtick"><text text-anchor="middle" x="0" y="741" transform="translate(988.29,0)" style="font-family: 'Open Sans', verdana, arial, sans-serif; font-size: 12px; fill: rgb(68, 68, 68); fill-opacity: 1; white-space: pre;">Sep 2020</text></g></g><g class="yaxislayer-above"><g class="ytick"><text text-anchor="end" x="59" y="4.199999999999999" transform="translate(0,692.52)" style="font-family: 'Open Sans', verdana, arial, sans-serif; font-size: 12px; fill: rgb(68, 68, 68); fill-opacity: 1; white-space: pre;">0</text></g><g class="ytick"><text text-anchor="end" x="59" y="4.199999999999999" transform="translate(0,581.09)" style="font-family: 'Open Sans', verdana, arial, sans-serif; font-size: 12px; fill: rgb(68, 68, 68); fill-opacity: 1; white-space: pre;">1000</text></g><g class="ytick"><text text-anchor="end" x="59" y="4.199999999999999" transform="translate(0,469.66)" style="font-family: 'Open Sans', verdana, arial, sans-serif; font-size: 12px; fill: rgb(68, 68, 68); fill-opacity: 1; white-space: pre;">2000</text></g><g class="ytick"><text text-anchor="end" x="59" y="4.199999999999999" transform="translate(0,358.23)" style="font-family: 'Open Sans', verdana, arial, sans-serif; font-size: 12px; fill: rgb(68, 68, 68); fill-opacity: 1; white-space: pre;">3000</text></g><g class="ytick"><text text-anchor="end" x="59" y="4.199999999999999" transform="translate(0,246.8)" style="font-family: 'Open Sans', verdana, arial, sans-serif; font-size: 12px; fill: rgb(68, 68, 68); fill-opacity: 1; white-space: pre;">4000</text></g><g class="ytick"><text text-anchor="end" x="59" y="4.199999999999999" transform="translate(0,135.37)" style="font-family: 'Open Sans', verdana, arial, sans-serif; font-size: 12px; fill: rgb(68, 68, 68); fill-opacity: 1; white-space: pre;">5000</text></g></g><g class="overaxes-above"/></g></g><g class="polarlayer"/><g class="ternarylayer"/><g class="geolayer"/><g class="funnelarealayer"/><g class="pielayer"/><g class="treemaplayer"/><g class="sunburstlayer"/><g class="glimages"/><defs id="topdefs-e3fbaf"><g class="clips"/></defs><g class="layer-above"><g class="imagelayer"/><g class="shapelayer"/></g><g class="infolayer"><g class="g-gtitle"><text class="gtitle" x="513.5" y="12.5" text-anchor="middle" dy="0em" style="font-family: 'Open Sans', verdana, arial, sans-serif; font-size: 17px; fill: rgb(68, 68, 68); opacity: 1; font-weight: normal; white-space: pre;">Number of active cases in Ontario (Sep 03, 2020)</text></g><g class="g-xtitle" transform="translate(0,-15)"><text class="xtitle" x="526.5" y="780" text-anchor="middle" style="font-family: 'Open Sans', verdana, arial, sans-serif; font-size: 14px; fill: rgb(68, 68, 68); opacity: 1; font-weight: normal; white-space: pre;">Date</text></g><g class="g-ytitle"><text class="ytitle" transform="rotate(-90,22,376.5)" x="22" y="376.5" text-anchor="middle" style="font-family: 'Open Sans', verdana, arial, sans-serif; font-size: 14px; fill: rgb(68, 68, 68); opacity: 1; font-weight: normal; white-space: pre;">Active cases</text></g></g></svg>