<svg class="main-svg" xmlns="http://www.w3.org/2000/svg" xmlns:xlink="http://www.w3.org/1999/xlink" width="1027" height="768" style="" viewBox="0 0 1027 768"><rect x="0" y="0" width="1027" height="768" style="fill: rgb(255, 255, 255); fill-opacity: 1;"/><defs id="defs-a0844e"><g class="clips"><clipPath id="clipa0844exyplot" class="plotclip"><rect width="839" height="703"/></clipPath><clipPath class="axesclip" id="clipa0844ex"><rect x="60" y="0" width="839" height="768"/></clipPath><clipPath class="axesclip" id="clipa0844ey"><rect x="0" y="25" width="1027" height="703"/></clipPath><clipPath class="axesclip" id="clipa0844exy"><rect x="60" y="25" width="839" height="703"/></clipPath></g><g class="gradients"/></defs><g class="bglayer"/><g class="layer-below"><g class="imagelayer"/><g class="shapelayer"/></g><g class="cartesianlayer"><g class="subplot xy"><g class="layer-subplot"><g class="shapelayer"/><g class="imagelayer"/></g><g class="gridlayer"><g class="x"><path class="xgrid crisp" transform="translate(130.37,0)" d="M0,25v703" style="stroke: rgb(238, 238, 238); stroke-opacity: 1; stroke-width: 1px;"/><path class="xgrid crisp" transform="translate(298.16999999999996,0)" d="M0,25v703" style="stroke: rgb(238, 238, 238); stroke-opacity: 1; stroke-width: 1px;"/><path class="xgrid crisp" transform="translate(460.55,0)" d="M0,25v703" style="stroke: rgb(238, 238, 238); stroke-opacity: 1; stroke-width: 1px;"/><path class="xgrid crisp" transform="translate(628.35,0)" d="M0,25v703" style="stroke: rgb(238, 238, 238); stroke-opacity: 1; stroke-width: 1px;"/><path class="xgrid crisp" transform="translate(790.74,0)" d="M0,25v703" style="stroke: rgb(238, 238, 238); stroke-opacity: 1; stroke-width: 1px;"/></g><g class="y"><path class="ygrid crisp" transform="translate(0,577.97)" d="M60,0h839" style="stroke: rgb(238, 238, 238); stroke-opacity: 1; stroke-width: 1px;"/><path class="ygrid crisp" transform="translate(0,463.07)" d="M60,0h839" style="stroke: rgb(238, 238, 238); stroke-opacity: 1; stroke-width: 1px;"/><path class="ygrid crisp" transform="translate(0,348.17)" d="M60,0h839" style="stroke: rgb(238, 238, 238); stroke-opacity: 1; stroke-width: 1px;"/><path class="ygrid crisp" transform="translate(0,233.26)" d="M60,0h839" style="stroke: rgb(238, 238, 238); stroke-opacity: 1; stroke-width: 1px;"/><path class="ygrid crisp" transform="translate(0,118.36)" d="M60,0h839" style="stroke: rgb(238, 238, 238); stroke-opacity: 1; stroke-width: 1px;"/></g></g><g class="zerolinelayer"><path class="yzl zl crisp" transform="translate(0,692.87)" d="M60,0h839" style="stroke: rgb(68, 68, 68); stroke-opacity: 1; stroke-width: 1px;"/></g><path class="xlines-below"/><path class="ylines-below"/><g class="overlines-below"/><g class="xaxislayer-below"/><g class="yaxislayer-below"/><g class="overaxes-below"/><g class="plot" transform="translate(60, 25)" clip-path="url('#clipa0844exyplot')"><g class="scatterlayer mlayer"><g class="trace scatter trace5fea5a" style="stroke-miterlimit: 2; opacity: 1;"><g class="fills"/><g class="errorbars"/><g class="lines"><path class="js-line" d="M0,664.68L81.19,660.4L86.61,659.74L124.5,654.39L129.91,653.22L151.56,647.42L156.97,645.66L173.21,639.44L178.63,637.02L194.86,628.55L200.28,625.27L216.52,613.86L221.93,609.48L232.75,599.75L238.17,594.37L248.99,582.51L254.41,575.99L265.23,561.73L270.65,553.97L286.88,528.05L292.3,518.53L308.54,487.4L313.95,476.21L330.19,440.48L335.6,427.95L362.66,362.39L368.08,349.01L395.14,283.44L400.55,270.9L416.79,235.16L422.21,223.96L438.45,192.82L443.86,183.29L460.1,157.36L465.51,149.59L481.75,128.8L487.16,122.67L503.4,106.51L508.81,101.81L525.05,89.54L530.46,86L546.7,76.85L552.12,74.24L568.35,67.51L573.77,65.59L595.42,59.3L600.83,58.03L622.48,53.84L627.9,52.99L654.96,49.67L660.37,49.15L698.26,46.55L703.68,46.29L757.81,44.6L763.22,44.5L839,43.7" style="vector-effect: non-scaling-stroke; fill: none; stroke: rgb(31, 119, 180); stroke-opacity: 1; stroke-width: 2px; opacity: 1;"/></g><g class="points"/><g class="text"/></g><g class="trace scatter trace33f62c" style="stroke-miterlimit: 2; opacity: 1;"><g class="fills"/><g class="errorbars"/><g class="lines"><path class="js-line" d="M0,667.83L119.08,667.16L124.5,667.02L140.74,665.62L146.15,664.66L167.8,662.1L173.21,660.73L189.45,656.64L194.86,654.73L200.28,652.54L205.69,648.68L216.52,642.2L221.93,628.67L227.34,622.69L232.75,612.9L254.41,575.08L259.82,567.98L265.23,559.27L270.65,546.63L281.47,524.54L286.88,515.1L297.71,496.21L303.12,485.11L313.95,461.94L319.36,448.98L324.77,437.84L330.19,424.78L341.01,398.2L346.43,386.48L357.25,357.2L362.66,346.26L373.49,326.47L378.9,314.41L384.32,306.44L389.73,295.89L395.14,286.21L400.55,274.47L411.38,255.99L416.79,247.1L433.03,217.5L438.45,209.55L449.27,195.71L454.68,187.42L470.92,164.09L476.34,155.11L487.16,140.31L492.57,130.5L503.4,112.04L508.81,101.91L525.05,72.59L530.46,65.99L535.88,59.28L541.29,50.48L552.12,35.15" style="vector-effect: non-scaling-stroke; fill: none; stroke: rgb(255, 127, 14); stroke-opacity: 1; stroke-width: 2px; opacity: 1;"/></g><g class="points"/><g class="text"/></g></g></g><g class="overplot"/><path class="xlines-above crisp" style="fill: none;" d="M0,0"/><path class="ylines-above crisp" style="fill: none;" d="M0,0"/><g class="overlines-above"/><g class="xaxislayer-above"><g class="xtick"><text text-anchor="middle" x="0" y="741" transform="translate(130.37,0)" style="font-family: 'Open Sans', verdana, arial, sans-serif; font-size: 12px; fill: rgb(68, 68, 68); fill-opacity: 1; white-space: pre;">Mar 2020</text></g><g class="xtick"><text text-anchor="middle" x="0" y="741" transform="translate(298.16999999999996,0)" style="font-family: 'Open Sans', verdana, arial, sans-serif; font-size: 12px; fill: rgb(68, 68, 68); fill-opacity: 1; white-space: pre;">Apr 2020</text></g><g class="xtick"><text text-anchor="middle" x="0" y="741" transform="translate(460.55,0)" style="font-family: 'Open Sans', verdana, arial, sans-serif; font-size: 12px; fill: rgb(68, 68, 68); fill-opacity: 1; white-space: pre;">May 2020</text></g><g class="xtick"><text text-anchor="middle" x="0" y="741" transform="translate(628.35,0)" style="font-family: 'Open Sans', verdana, arial, sans-serif; font-size: 12px; fill: rgb(68, 68, 68); fill-opacity: 1; white-space: pre;">Jun 2020</text></g><g class="xtick"><text text-anchor="middle" x="0" y="741" transform="translate(790.74,0)" style="font-family: 'Open Sans', verdana, arial, sans-serif; font-size: 12px; fill: rgb(68, 68, 68); fill-opacity: 1; white-space: pre;">Jul 2020</text></g></g><g class="yaxislayer-above"><g class="ytick"><text text-anchor="end" x="59" y="4.199999999999999" transform="translate(0,692.87)" style="font-family: 'Open Sans', verdana, arial, sans-serif; font-size: 12px; fill: rgb(68, 68, 68); fill-opacity: 1; white-space: pre;">0</text></g><g class="ytick"><text text-anchor="end" x="59" y="4.199999999999999" transform="translate(0,577.97)" style="font-family: 'Open Sans', verdana, arial, sans-serif; font-size: 12px; fill: rgb(68, 68, 68); fill-opacity: 1; white-space: pre;">5k</text></g><g class="ytick"><text text-anchor="end" x="59" y="4.199999999999999" transform="translate(0,463.07)" style="font-family: 'Open Sans', verdana, arial, sans-serif; font-size: 12px; fill: rgb(68, 68, 68); fill-opacity: 1; white-space: pre;">10k</text></g><g class="ytick"><text text-anchor="end" x="59" y="4.199999999999999" transform="translate(0,348.17)" style="font-family: 'Open Sans', verdana, arial, sans-serif; font-size: 12px; fill: rgb(68, 68, 68); fill-opacity: 1; white-space: pre;">15k</text></g><g class="ytick"><text text-anchor="end" x="59" y="4.199999999999999" transform="translate(0,233.26)" style="font-family: 'Open Sans', verdana, arial, sans-serif; font-size: 12px; fill: rgb(68, 68, 68); fill-opacity: 1; white-space: pre;">20k</text></g><g class="ytick"><text text-anchor="end" x="59" y="4.199999999999999" transform="translate(0,118.36)" style="font-family: 'Open Sans', verdana, arial, sans-serif; font-size: 12px; fill: rgb(68, 68, 68); fill-opacity: 1; white-space: pre;">25k</text></g></g><g class="overaxes-above"/></g></g><g class="polarlayer"/><g class="ternarylayer"/><g class="geolayer"/><g class="funnelarealayer"/><g class="pielayer"/><g class="treemaplayer"/><g class="sunburstlayer"/><g class="glimages"/><defs id="topdefs-a0844e"><g class="clips"/><clipPath id="legenda0844e"><rect width="101" height="48" x="0" y="0"/></clipPath></defs><g class="layer-above"><g class="imagelayer"/><g class="shapelayer"/></g><g class="infolayer"><g class="legend" pointer-events="all" transform="translate(915.78, 25)"><rect class="bg" shape-rendering="crispEdges" style="stroke: rgb(68, 68, 68); stroke-opacity: 1; fill: rgb(255, 255, 255); fill-opacity: 1; stroke-width: 0px;" width="101" height="48" x="0" y="0"/><g class="scrollbox" transform="translate(0, 0)" clip-path="url('#legenda0844e')"><g class="groups"><g class="traces" style="opacity: 1;" transform="translate(0, 14.5)"><text class="legendtext user-select-none" text-anchor="start" x="40" y="4.680000000000001" style="font-family: 'Open Sans', verdana, arial, sans-serif; font-size: 12px; fill: rgb(68, 68, 68); fill-opacity: 1; white-space: pre;">Predicted</text><g class="layers" style="opacity: 1;"><g class="legendfill"/><g class="legendlines"><path class="js-line" d="M5,0h30" style="fill: none; stroke: rgb(31, 119, 180); stroke-opacity: 1; stroke-width: 2px;"/></g><g class="legendsymbols"><g class="legendpoints"/></g></g><rect class="legendtoggle" pointer-events="all" x="0" y="-9.5" width="95.890625" height="19" style="cursor: pointer; fill: rgb(0, 0, 0); fill-opacity: 0;"/></g><g class="traces" style="opacity: 1;" transform="translate(0, 33.5)"><text class="legendtext user-select-none" text-anchor="start" x="40" y="4.680000000000001" style="font-family: 'Open Sans', verdana, arial, sans-serif; font-size: 12px; fill: rgb(68, 68, 68); fill-opacity: 1; white-space: pre;">Actual</text><g class="layers" style="opacity: 1;"><g class="legendfill"/><g class="legendlines"><path class="js-line" d="M5,0h30" style="fill: none; stroke: rgb(255, 127, 14); stroke-opacity: 1; stroke-width: 2px;"/></g><g class="legendsymbols"><g class="legendpoints"/></g></g><rect class="legendtoggle" pointer-events="all" x="0" y="-9.5" width="95.890625" height="19" style="cursor: pointer; fill: rgb(0, 0, 0); fill-opacity: 0;"/></g></g></g><rect class="scrollbar" rx="20" ry="3" width="0" height="0" style="fill: rgb(128, 139, 164); fill-opacity: 1;" x="0" y="0"/></g><g class="g-gtitle"><text class="gtitle" x="513.5" y="12.5" text-anchor="middle" dy="0em" style="font-family: 'Open Sans', verdana, arial, sans-serif; font-size: 17px; fill: rgb(68, 68, 68); opacity: 1; font-weight: normal; white-space: pre;">Forecasted # of COVID-19 cases in Ontario (May 30, 2020)</text></g><g class="g-xtitle" transform="translate(0,-15)"><text class="xtitle" x="479.5" y="780" text-anchor="middle" style="font-family: 'Open Sans', verdana, arial, sans-serif; font-size: 14px; fill: rgb(68, 68, 68); opacity: 1; font-weight: normal; white-space: pre;">Date (since Feb 18, 2020)</text></g><g class="g-ytitle"><text class="ytitle" transform="rotate(-90,22,376.5)" x="22" y="376.5" text-anchor="middle" style="font-family: 'Open Sans', verdana, arial, sans-serif; font-size: 14px; fill: rgb(68, 68, 68); opacity: 1; font-weight: normal; white-space: pre;"># of confirmed cases</text></g></g></svg>