<svg class="main-svg" xmlns="http://www.w3.org/2000/svg" xmlns:xlink="http://www.w3.org/1999/xlink" width="1027" height="768" style="" viewBox="0 0 1027 768"><rect x="0" y="0" width="1027" height="768" style="fill: rgb(255, 255, 255); fill-opacity: 1;"/><defs id="defs-2019f2"><g class="clips"><clipPath id="clip2019f2xyplot" class="plotclip"><rect width="838" height="703"/></clipPath><clipPath class="axesclip" id="clip2019f2x"><rect x="60" y="0" width="838" height="768"/></clipPath><clipPath class="axesclip" id="clip2019f2y"><rect x="0" y="25" width="1027" height="703"/></clipPath><clipPath class="axesclip" id="clip2019f2xy"><rect x="60" y="25" width="838" height="703"/></clipPath></g><g class="gradients"/></defs><g class="bglayer"/><g class="layer-below"><g class="imagelayer"/><g class="shapelayer"/></g><g class="cartesianlayer"><g class="subplot xy"><g class="layer-subplot"><g class="shapelayer"/><g class="imagelayer"/></g><g class="gridlayer"><g class="x"><path class="xgrid crisp" transform="translate(83.72,0)" d="M0,25v703" style="stroke: rgb(238, 238, 238); stroke-opacity: 1; stroke-width: 1px;"/><path class="xgrid crisp" transform="translate(204.28,0)" d="M0,25v703" style="stroke: rgb(238, 238, 238); stroke-opacity: 1; stroke-width: 1px;"/><path class="xgrid crisp" transform="translate(324.84,0)" d="M0,25v703" style="stroke: rgb(238, 238, 238); stroke-opacity: 1; stroke-width: 1px;"/><path class="xgrid crisp" transform="translate(447.38,0)" d="M0,25v703" style="stroke: rgb(238, 238, 238); stroke-opacity: 1; stroke-width: 1px;"/><path class="xgrid crisp" transform="translate(567.94,0)" d="M0,25v703" style="stroke: rgb(238, 238, 238); stroke-opacity: 1; stroke-width: 1px;"/><path class="xgrid crisp" transform="translate(688.5,0)" d="M0,25v703" style="stroke: rgb(238, 238, 238); stroke-opacity: 1; stroke-width: 1px;"/><path class="xgrid crisp" transform="translate(805.11,0)" d="M0,25v703" style="stroke: rgb(238, 238, 238); stroke-opacity: 1; stroke-width: 1px;"/></g><g class="y"><path class="ygrid crisp" transform="translate(0,561.26)" d="M60,0h838" style="stroke: rgb(238, 238, 238); stroke-opacity: 1; stroke-width: 1px;"/><path class="ygrid crisp" transform="translate(0,429.81)" d="M60,0h838" style="stroke: rgb(238, 238, 238); stroke-opacity: 1; stroke-width: 1px;"/><path class="ygrid crisp" transform="translate(0,298.35)" d="M60,0h838" style="stroke: rgb(238, 238, 238); stroke-opacity: 1; stroke-width: 1px;"/><path class="ygrid crisp" transform="translate(0,166.89)" d="M60,0h838" style="stroke: rgb(238, 238, 238); stroke-opacity: 1; stroke-width: 1px;"/><path class="ygrid crisp" transform="translate(0,35.44)" d="M60,0h838" style="stroke: rgb(238, 238, 238); stroke-opacity: 1; stroke-width: 1px;"/></g></g><g class="zerolinelayer"><path class="yzl zl crisp" transform="translate(0,692.72)" d="M60,0h838" style="stroke: rgb(68, 68, 68); stroke-opacity: 1; stroke-width: 1px;"/></g><path class="xlines-below"/><path class="ylines-below"/><g class="overlines-below"/><g class="xaxislayer-below"/><g class="yaxislayer-below"/><g class="overaxes-below"/><g class="plot" transform="translate(60, 25)" clip-path="url('#clip2019f2xyplot')"><g class="scatterlayer mlayer"><g class="trace scatter trace4442d1" style="stroke-miterlimit: 2; opacity: 1;"><g class="fills"/><g class="errorbars"/><g class="lines"><path class="js-line" d="M0,667.72L19.76,667.59L25.69,666.14L27.67,667.46L29.65,667.72L39.53,666.8L41.5,667.72L49.41,664.56L51.39,662.2L53.36,663.51L55.34,666.27L61.27,659.83L63.25,660.23L65.22,661.93L67.2,657.6L71.15,655.23L73.13,645.63L75.1,650.37L77.08,648L79.06,590.29L81.03,633.54L83.01,611.72L84.99,615L86.96,606.99L88.94,618.42L90.92,614.08L92.89,627.1L94.87,617.9L96.84,595.42L98.82,604.23L100.8,604.88L102.77,613.69L104.75,615L106.73,612.38L108.7,604.23L110.68,602.78L112.66,600.15L114.63,593.58L116.61,603.96L118.58,593.05L120.56,588.06L124.51,600.68L126.49,584.38L128.47,583.59L130.44,605.15L132.42,610.27L134.4,611.98L136.37,598.7L138.35,622.1L140.33,607.38L142.3,612.38L144.28,600.54L146.25,610.67L148.23,619.08L150.21,616.84L152.18,613.56L154.16,615.27L156.14,605.01L158.11,622.23L160.09,629.07L162.07,627.23L164.04,620.26L166.02,624.47L168,622.37L169.97,622.89L171.95,616.32L173.92,623.02L175.9,627.76L177.88,611.59L179.85,616.45L181.83,613.43L183.81,609.75L185.78,613.56L187.76,607.25L189.74,614.61L191.71,629.99L193.69,629.33L195.67,617.37L197.64,622.5L199.62,625.26L201.59,624.86L203.57,614.61L205.55,609.09L207.52,623.29L209.5,620.92L211.48,622.5L213.45,607.91L215.43,613.16L217.41,635.77L219.38,637.48L221.36,634.72L223.33,641.03L225.31,643.79L227.29,632.75L229.26,641.82L231.24,643.92L233.22,643.53L235.19,642.74L237.17,644.98L239.15,644.32L241.12,640.64L243.1,644.71L245.08,646.55L247.05,639.32L249.03,646.29L251,642.87L252.98,653.13L254.96,646.69L256.93,644.32L258.91,633.93L260.89,647.08L262.86,648.13L264.84,647.61L266.82,646.03L268.79,651.81L272.75,647.47L274.72,653L276.7,652.21L278.67,645.37L280.65,652.47L282.63,650.63L284.6,650.76L286.58,652.47L290.53,654.31L292.51,653.13L294.49,653.13L296.46,645.9L298.44,646.16L300.42,649.97L302.39,641.03L304.37,646.03L306.34,654.18L308.32,642.08L310.3,649.58L312.27,649.71L314.25,652.08L316.23,653.13L318.2,657.73L320.18,656.02L322.16,650.1L324.13,651.42L326.11,652.47L328.08,656.15L330.06,655.76L332.04,656.41L334.01,655.23L335.99,656.15L337.97,658.52L339.94,657.33L341.92,652.6L343.9,663.38L345.87,655.23L347.85,657.46L351.8,653.78L353.78,657.07L357.73,651.29L359.71,654.31L361.68,657.73L363.66,650.5L365.64,653.52L367.61,652.6L373.54,656.15L375.52,652.21L377.5,651.68L379.47,648.26L381.45,653L383.42,652.73L385.4,653L387.38,650.23L389.35,650.37L391.33,648.26L393.31,645.5L395.28,646.95L397.26,642.74L399.24,643.4L401.21,648.13L403.19,645.37L405.17,639.72L407.14,637.22L409.12,640.9L411.09,626.57L413.07,634.72L415.05,626.31L417.02,629.2L419,615L420.98,614.22L422.95,619.74L426.91,604.88L428.88,623.68L430.86,613.95L432.83,613.95L434.81,610.53L436.79,603.17L438.76,575.7L440.74,594.89L442.72,585.56L444.69,596.99L446.67,571.49L448.65,581.88L450.62,593.31L452.6,586.87L454.58,595.68L456.55,591.08L460.5,544.28L462.48,561.37L464.46,582.4L466.43,561.63L468.41,569.65L470.39,572.94L472.36,564.79L474.34,574.12L476.32,561.9L478.29,581.22L480.27,575.17L482.25,559.79L484.22,563.87L486.2,557.16L488.17,559.14L490.15,539.15L492.13,530.74L494.1,555.85L496.08,559L498.06,558.08L500.03,544.94L502.01,549.93L503.99,534.29L505.96,539.29L507.94,543.1L509.92,529.69L511.89,537.97L513.87,536.52L515.84,535.87L517.82,518.91L519.8,493.14L521.77,504.45L523.75,485.26L525.73,480.26L527.7,460.67L529.68,484.21L531.66,459.89L533.63,503.66L535.61,472.24L537.58,503.53L539.56,481.44L541.54,508.66L545.49,458.97L547.47,466.06L549.44,458.83L551.42,535.08L553.4,487.23L555.37,473.43L557.35,423.87L559.33,428.2L561.3,443.19L563.28,438.2L565.25,443.32L567.23,441.22L569.21,427.94L571.18,433.73L575.14,414.8L577.11,414.66L579.09,447.4L581.07,419.27L583.04,407.04L585.02,424.79L587,421.5L588.97,447.27L592.92,368.66L594.9,386.53L596.88,348.02L598.85,366.68L600.83,357.88L602.81,363.27L604.78,388.64L606.76,378.25L608.74,351.17L610.71,346.04L612.69,383.9L614.67,386.14L616.64,404.15L618.62,412.82L620.59,332.11L622.57,283.47L624.55,230.23L626.52,342.23L628.5,225.63L630.48,278.08L632.45,237.86L634.43,256.52L636.41,238.38L638.38,205.12L640.36,109.16L642.33,215.11L644.31,149.12L646.29,228.92L648.26,286.1L650.24,278.48L652.22,230.49L654.19,273.61L656.17,265.99L658.15,217.87L662.1,416.24L664.08,318.7L666.05,321.73L668.03,317.78L670,357.61L671.98,349.99L673.96,410.33L675.93,438.98L677.91,448.19L679.89,392.58L681.86,426.23L683.84,396.52L685.82,424.79L687.79,408.88L689.77,569.78L691.75,513.65L693.72,462.25L695.7,448.19L697.67,485.26L699.65,471.98L703.6,533.37L705.58,526.8L707.56,543.49L709.53,526.27L711.51,496.83L713.49,538.76L715.46,540.99L717.44,548.88L719.42,556.37L721.39,531.27L725.34,506.29L727.32,524.83L729.3,528.64L731.27,539.55L735.23,518.12L737.2,502.35L739.18,511.94L741.16,528.11L743.13,533.24L745.11,540.73L747.08,541.78L749.06,537.05L751.04,503.4L753.01,537.58L756.97,453.31L758.94,511.94L760.92,494.72L762.9,524.17L764.87,487.49L766.85,474.74L768.83,438.06L770.8,501.03L772.78,526.53L774.75,469.48L776.73,463.57L778.71,438.33L780.68,427.28L782.66,432.28L784.64,444.37L786.61,464.49L788.59,461.2L790.57,354.85L792.54,382.59L794.52,345.26L796.5,345.91L798.47,392.45L800.45,360.64L802.42,361.03L804.4,331.58L806.38,261.65L808.35,272.17L810.33,267.96L812.31,281.5L814.28,264.8L816.26,245.09L818.24,234.57L820.21,112.05L822.19,166.48L824.17,81.95L826.14,89.18L828.12,185.27L830.09,121.39L832.07,45.14L834.05,35.15L836.02,94.31L838,109.03" style="vector-effect: non-scaling-stroke; fill: none; stroke: rgb(31, 119, 180); stroke-opacity: 1; stroke-width: 2px; opacity: 1;"/></g><g class="points"/><g class="text"/></g><g class="trace scatter traced106bb" style="stroke-miterlimit: 2; opacity: 1;"><g class="fills"/><g class="errorbars"/><g class="lines"><path class="js-line" d="M0,667.72L77.08,667.72L79.06,612.11L81.03,654.18L83.01,647.34L84.99,649.05L86.96,642.48L88.94,641.95L90.92,637.48L92.89,644.71L94.87,644.32L96.84,631.96L98.82,637.35L100.8,632.36L102.77,630.38L106.73,636.69L108.7,639.98L110.68,623.81L112.66,629.33L114.63,620.13L116.61,625.78L118.58,623.81L120.56,627.49L122.54,629.46L124.51,613.16L126.49,607.38L128.47,614.22L130.44,612.24L132.42,603.17L134.4,598.7L136.37,610.01L138.35,582.53L140.33,589.76L142.3,586.22L144.28,593.45L146.25,586.87L148.23,601.99L150.21,631.7L152.18,609.48L154.16,622.1L156.14,612.38L158.11,616.06L160.09,616.58L162.07,620.53L164.04,633.54L166.02,608.04L168,620.53L169.97,610.27L171.95,617.9L173.92,623.02L175.9,631.17L177.88,633.54L179.85,629.33L181.83,625.78L183.81,633.8L185.78,617.9L187.76,624.21L189.74,638.67L191.71,633.54L193.69,613.3L195.67,628.15L197.64,626.97L199.62,619.08L201.59,607.64L203.57,622.63L205.55,624.21L207.52,624.73L209.5,615.53L211.48,618.42L213.45,619.87L215.43,627.62L217.41,636.17L219.38,623.42L221.36,595.29L223.33,601.33L225.31,628.02L227.29,621.58L229.26,612.11L231.24,634.59L233.22,639.06L235.19,621.31L237.17,638.8L239.15,635.38L241.12,639.06L243.1,634.72L247.05,644.85L249.03,637.62L251,642.48L252.98,638.01L254.96,644.32L256.93,644.71L258.91,656.02L260.89,648.26L264.84,640.9L266.82,644.19L268.79,644.85L270.77,643.66L272.75,646.69L274.72,644.45L276.7,641.16L278.67,645.11L280.65,644.32L282.63,632.62L284.6,653L286.58,650.76L288.56,651.68L290.53,649.97L292.51,649.18L294.49,654.44L296.46,650.37L298.44,652.86L300.42,653.78L302.39,655.62L304.37,640.51L306.34,647.87L308.32,649.71L310.3,649.31L314.25,654.31L316.23,653.78L318.2,644.85L320.18,646.03L322.16,645.63L324.13,646.29L326.11,651.68L328.08,651.16L330.06,652.47L332.04,648.53L334.01,646.82L335.99,652.21L337.97,653.65L339.94,648.26L341.92,654.31L343.9,657.86L345.87,650.1L347.85,654.7L349.83,656.81L351.8,654.44L353.78,657.2L355.75,656.81L357.73,655.89L359.71,656.02L361.68,657.73L363.66,653.78L365.64,655.89L367.61,653.52L369.59,657.46L371.57,657.86L373.54,652.6L375.52,657.6L377.5,656.81L379.47,654.18L381.45,657.46L383.42,658.12L385.4,655.62L387.38,649.71L389.35,652.08L391.33,652.47L393.31,653.78L395.28,653.13L397.26,652.08L399.24,652.08L401.21,649.84L403.19,649.05L405.17,651.42L407.14,652.08L411.09,650.23L413.07,652.34L417.02,644.19L419,644.58L420.98,644.45L422.95,642.61L424.93,644.32L426.91,641.95L428.88,633.8L430.86,630.12L432.83,630.52L434.81,623.29L436.79,629.73L438.76,624.21L440.74,625.26L442.72,607.64L444.69,600.02L446.67,611.46L448.65,610.53L450.62,597.52L454.58,595.94L456.55,574.78L458.53,576.36L460.5,572.54L462.48,575.7L464.46,575.04L468.41,585.69L470.39,564.79L472.36,565.31L474.34,573.99L476.32,578.07L478.29,577.67L480.27,587.92L482.25,585.16L484.22,573.2L486.2,570.31L488.17,571.36L490.15,585.56L492.13,570.97L494.1,578.46L496.08,576.88L498.06,566.1L500.03,559.92L502.01,563.08L503.99,562.82L505.96,554.14L507.94,559.14L509.92,557.69L511.89,543.49L513.87,543.1L515.84,542.97L517.82,555.72L519.8,552.43L521.77,559.79L523.75,565.05L525.73,551.25L527.7,547.17L529.68,533.9L531.66,535.87L533.63,528.11L535.61,537.31L537.58,518.52L539.56,471.19L541.54,486.83L543.51,481.71L545.49,488.54L549.44,472.64L551.42,525.48L553.4,473.69L555.37,488.28L559.33,469.22L561.3,478.03L563.28,494.2L565.25,487.23L567.23,446.08L569.21,465.14L571.18,463.57L573.16,454.23L575.14,460.81L577.11,482.1L579.09,464.09L581.07,414.8L583.04,430.57L585.02,437.28L587,415.59L588.97,447.13L590.95,465.93L592.92,429.78L594.9,399.15L596.88,403.62L598.85,405.86L600.83,422.55L602.81,413.88L604.78,450.29L606.76,417.95L608.74,372.86L610.71,403.1L612.69,373.65L614.67,416.24L616.64,404.15L618.62,384.96L620.59,374.18L622.57,373.65L624.55,376.81L626.52,344.34L628.5,397.71L630.48,381.8L632.45,395.08L634.43,402.83L636.41,272.69L638.38,302.8L640.36,307.79L642.33,284.52L644.31,339.6L646.29,305.42L648.26,226.94L650.24,221.82L652.22,195.4L656.17,245.48L658.15,263.1L660.12,296.22L662.1,290.04L664.08,179.49L666.05,274.66L668.03,224.05L670,270.06L675.93,370.5L677.91,309.5L679.89,340.26L681.86,286.49L687.79,387.45L689.77,365.76L691.75,438.33L693.72,410.59L695.7,374.18L697.67,431.62L699.65,413.09L701.63,444.24L703.6,485.26L705.58,443.06L707.56,491.04L709.53,481.71L711.51,479.21L713.49,505.37L717.44,521.54L719.42,476.32L721.39,499.85L723.37,502.74L725.34,495.12L727.32,517.86L729.3,525.35L731.27,536L733.25,498.01L735.23,523.91L737.2,535.34L739.18,538.37L741.16,532.45L743.13,544.28L745.11,539.02L747.08,524.43L749.06,526.8L751.04,515.36L753.01,516.28L754.99,522.46L756.97,537.05L758.94,539.94L760.92,508.39L762.9,521.8L764.87,519.96L766.85,516.41L768.83,514.31L770.8,521.28L772.78,525.09L774.75,472.11L776.73,505.24L778.71,497.35L780.68,501.95L782.66,489.86L784.64,513.26L786.61,500.64L788.59,466.46L790.57,493.01L792.54,447.53L794.52,473.03L796.5,464.88L798.47,467.38L800.45,473.56L802.42,408.35L804.4,429.26L806.38,414.66L808.35,428.6L810.33,418.08L812.31,436.22L814.28,407.96L816.26,351.3L818.24,329.09L820.21,320.54L822.19,349.33L824.17,323.7L826.14,346.31L828.12,329.48L830.09,252.32L832.07,250.48L834.05,253.5L836.02,193.03L838,228.92" style="vector-effect: non-scaling-stroke; fill: none; stroke: rgb(255, 127, 14); stroke-opacity: 1; stroke-width: 2px; opacity: 1;"/></g><g class="points"/><g class="text"/></g><g class="trace scatter tracea700c3" style="stroke-miterlimit: 2; opacity: 1;"><g class="fills"/><g class="errorbars"/><g class="lines"><path class="js-line" d="M0,667.72L79.06,667.19L81.03,666.4L83.01,667.19L84.99,665.62L86.96,665.88L88.94,664.17L90.92,664.43L92.89,666.01L94.87,664.96L96.84,664.96L98.82,664.3L100.8,664.83L102.77,663.64L104.75,664.96L106.73,665.48L108.7,662.07L110.68,661.01L112.66,662.72L114.63,660.49L116.61,662.99L118.58,662.59L120.56,663.64L122.54,662.72L124.51,662.85L126.49,660.62L128.47,661.15L130.44,661.41L132.42,664.56L134.4,660.23L136.37,659.96L138.35,661.8L140.33,656.41L142.3,662.59L144.28,660.49L146.25,662.46L148.23,656.68L150.21,659.7L152.18,658.78L154.16,661.41L156.14,659.44L158.11,659.96L160.09,663.12L162.07,663.12L164.04,660.36L166.02,662.46L168,663.38L169.97,664.17L171.95,663.38L173.92,664.7L175.9,664.7L177.88,665.75L179.85,662.07L181.83,663.64L183.81,664.04L189.74,663.91L191.71,664.96L193.69,663.51L195.67,663.25L197.64,662.33L199.62,665.48L201.59,665.22L203.57,666.4L207.52,665.22L209.5,661.8L211.48,665.75L213.45,663.12L215.43,665.22L217.41,664.56L219.38,665.88L221.36,666.27L229.26,666.14L231.24,666.67L235.19,666.14L237.17,667.32L239.15,666.27L241.12,663.64L243.1,666.27L245.08,667.32L249.03,666.14L251,666.4L252.98,667.32L254.96,666.67L262.86,667.19L264.84,667.19L272.75,667.72L274.72,667.46L276.7,666.54L278.67,667.32L282.63,666.93L284.6,667.32L288.56,667.59L290.53,666.54L292.51,667.06L294.49,666.54L296.46,667.46L298.44,667.32L306.34,667.72L308.32,667.32L314.25,667.59L316.23,667.19L320.18,667.32L322.16,667.32L335.99,667.72L337.97,667.59L345.87,667.59L347.85,667.72L357.73,667.19L359.71,667.85L365.64,667.59L367.61,667.72L377.5,666.93L379.47,667.72L389.35,667.72L391.33,667.85L403.19,667.59L405.17,667.85L413.07,667.19L415.05,667.46L426.91,667.32L428.88,667.32L434.81,667.72L436.79,667.46L444.69,667.32L446.67,657.73L450.62,666.8L452.6,667.06L454.58,666.8L456.55,667.59L462.48,666.8L464.46,667.59L468.41,666.54L470.39,667.72L476.32,666.4L478.29,667.06L482.25,667.32L484.22,666.54L498.06,667.06L500.03,666.4L507.94,666.8L509.92,665.88L513.87,666.01L515.84,665.88L519.8,666.01L521.77,666.14L529.68,665.22L531.66,665.09L533.63,663.91L535.61,666.4L537.58,666.14L539.56,663.51L541.54,664.04L543.51,666.67L545.49,664.96L547.47,665.88L549.44,665.22L551.42,665.88L553.4,663.12L555.37,664.96L557.35,665.09L559.33,663.91L561.3,664.56L563.28,666.67L565.25,666.8L567.23,663.12L569.21,665.88L571.18,664.43L575.14,665.75L577.11,664.3L579.09,666.4L581.07,664.04L585.02,661.8L587,665.48L588.97,665.62L590.95,664.7L592.92,665.09L594.9,662.07L596.88,664.7L598.85,662.46L600.83,664.17L602.81,664.43L604.78,665.48L606.76,664.96L608.74,662.33L610.71,661.28L614.67,662.72L616.64,665.35L618.62,662.85L620.59,662.33L622.57,665.22L624.55,660.36L628.5,661.93L630.48,664.43L632.45,663.91L634.43,661.01L636.41,662.85L638.38,656.02L640.36,664.3L642.33,662.46L644.31,659.7L646.29,663.91L648.26,662.33L650.24,657.99L652.22,659.57L654.19,654.57L656.17,661.01L658.15,658.65L660.12,664.56L662.1,661.67L664.08,656.02L666.05,661.67L668.03,656.28L670,660.88L673.96,662.07L675.93,659.44L677.91,661.28L679.89,660.36L681.86,660.09L683.84,658.12L685.82,662.07L687.79,662.99L689.77,665.88L691.75,658.91L693.72,656.15L695.7,661.8L697.67,661.8L699.65,664.83L701.63,663.38L703.6,665.48L705.58,662.33L707.56,665.35L711.51,665.22L713.49,662.2L715.46,666.01L717.44,666.01L719.42,666.4L721.39,661.93L723.37,661.54L725.34,664.04L727.32,666.01L729.3,666.27L733.25,666.54L735.23,664.7L737.2,664.04L739.18,665.62L741.16,665.09L743.13,666.93L747.08,665.48L749.06,666.4L751.04,664.83L753.01,666.93L754.99,665.75L756.97,666.4L758.94,666.93L760.92,665.62L762.9,666.4L764.87,665.35L766.85,666.27L768.83,665.75L770.8,666.54L772.78,666.27L776.73,665.75L778.71,666.4L780.68,666.27L782.66,665.35L784.64,667.32L786.61,666.54L788.59,666.4L790.57,665.48L792.54,666.14L794.52,665.62L796.5,665.22L798.47,666.4L806.38,664.7L808.35,665.62L814.28,666.67L816.26,665.48L824.17,664.96L826.14,665.75L828.12,665.75L830.09,664.04L834.05,664.43L836.02,663.25L838,665.35" style="vector-effect: non-scaling-stroke; fill: none; stroke: rgb(44, 160, 44); stroke-opacity: 1; stroke-width: 2px; opacity: 1;"/></g><g class="points"/><g class="text"/></g></g></g><g class="overplot"/><path class="xlines-above crisp" style="fill: none;" d="M0,0"/><path class="ylines-above crisp" style="fill: none;" d="M0,0"/><g class="overlines-above"/><g class="xaxislayer-above"><g class="xtick"><text text-anchor="middle" x="0" y="741" transform="translate(83.72,0)" style="font-family: 'Open Sans', verdana, arial, sans-serif; font-size: 12px; fill: rgb(68, 68, 68); fill-opacity: 1; white-space: pre;">Mar 2020</text></g><g class="xtick"><text text-anchor="middle" x="0" y="741" transform="translate(204.28,0)" style="font-family: 'Open Sans', verdana, arial, sans-serif; font-size: 12px; fill: rgb(68, 68, 68); fill-opacity: 1; white-space: pre;">May 2020</text></g><g class="xtick"><text text-anchor="middle" x="0" y="741" transform="translate(324.84,0)" style="font-family: 'Open Sans', verdana, arial, sans-serif; font-size: 12px; fill: rgb(68, 68, 68); fill-opacity: 1; white-space: pre;">Jul 2020</text></g><g class="xtick"><text text-anchor="middle" x="0" y="741" transform="translate(447.38,0)" style="font-family: 'Open Sans', verdana, arial, sans-serif; font-size: 12px; fill: rgb(68, 68, 68); fill-opacity: 1; white-space: pre;">Sep 2020</text></g><g class="xtick"><text text-anchor="middle" x="0" y="741" transform="translate(567.94,0)" style="font-family: 'Open Sans', verdana, arial, sans-serif; font-size: 12px; fill: rgb(68, 68, 68); fill-opacity: 1; white-space: pre;">Nov 2020</text></g><g class="xtick"><text text-anchor="middle" x="0" y="741" transform="translate(688.5,0)" style="font-family: 'Open Sans', verdana, arial, sans-serif; font-size: 12px; fill: rgb(68, 68, 68); fill-opacity: 1; white-space: pre;">Jan 2021</text></g><g class="xtick"><text text-anchor="middle" x="0" y="741" transform="translate(805.11,0)" style="font-family: 'Open Sans', verdana, arial, sans-serif; font-size: 12px; fill: rgb(68, 68, 68); fill-opacity: 1; white-space: pre;">Mar 2021</text></g></g><g class="yaxislayer-above"><g class="ytick"><text text-anchor="end" x="59" y="4.199999999999999" transform="translate(0,692.72)" style="font-family: 'Open Sans', verdana, arial, sans-serif; font-size: 12px; fill: rgb(68, 68, 68); fill-opacity: 1; white-space: pre;">0</text></g><g class="ytick"><text text-anchor="end" x="59" y="4.199999999999999" transform="translate(0,561.26)" style="font-family: 'Open Sans', verdana, arial, sans-serif; font-size: 12px; fill: rgb(68, 68, 68); fill-opacity: 1; white-space: pre;">1000</text></g><g class="ytick"><text text-anchor="end" x="59" y="4.199999999999999" transform="translate(0,429.81)" style="font-family: 'Open Sans', verdana, arial, sans-serif; font-size: 12px; fill: rgb(68, 68, 68); fill-opacity: 1; white-space: pre;">2000</text></g><g class="ytick"><text text-anchor="end" x="59" y="4.199999999999999" transform="translate(0,298.35)" style="font-family: 'Open Sans', verdana, arial, sans-serif; font-size: 12px; fill: rgb(68, 68, 68); fill-opacity: 1; white-space: pre;">3000</text></g><g class="ytick"><text text-anchor="end" x="59" y="4.199999999999999" transform="translate(0,166.89)" style="font-family: 'Open Sans', verdana, arial, sans-serif; font-size: 12px; fill: rgb(68, 68, 68); fill-opacity: 1; white-space: pre;">4000</text></g><g class="ytick"><text text-anchor="end" x="59" y="4.199999999999999" transform="translate(0,35.44)" style="font-family: 'Open Sans', verdana, arial, sans-serif; font-size: 12px; fill: rgb(68, 68, 68); fill-opacity: 1; white-space: pre;">5000</text></g></g><g class="overaxes-above"/></g></g><g class="polarlayer"/><g class="ternarylayer"/><g class="geolayer"/><g class="funnelarealayer"/><g class="pielayer"/><g class="treemaplayer"/><g class="sunburstlayer"/><g class="glimages"/><defs id="topdefs-2019f2"><g class="clips"/><clipPath id="legend2019f2"><rect width="102" height="67" x="0" y="0"/></clipPath></defs><g class="layer-above"><g class="imagelayer"/><g class="shapelayer"/></g><g class="infolayer"><g class="legend" pointer-events="all" transform="translate(914.76, 25)"><rect class="bg" shape-rendering="crispEdges" style="stroke: rgb(68, 68, 68); stroke-opacity: 1; fill: rgb(255, 255, 255); fill-opacity: 1; stroke-width: 0px;" width="102" height="67" x="0" y="0"/><g class="scrollbox" transform="translate(0, 0)" clip-path="url('#legend2019f2')"><g class="groups"><g class="traces" style="opacity: 1;" transform="translate(0, 14.5)"><text class="legendtext" text-anchor="start" x="40" y="4.680000000000001" style="font-family: 'Open Sans', verdana, arial, sans-serif; font-size: 12px; fill: rgb(68, 68, 68); fill-opacity: 1; white-space: pre;">positive</text><g class="layers" style="opacity: 1;"><g class="legendfill"/><g class="legendlines"><path class="js-line" d="M5,0h30" style="fill: none; stroke: rgb(31, 119, 180); stroke-opacity: 1; stroke-width: 2px;"/></g><g class="legendsymbols"><g class="legendpoints"/></g></g><rect class="legendtoggle" x="0" y="-9.5" width="96.109375" height="19" style="fill: rgb(0, 0, 0); fill-opacity: 0;"/></g><g class="traces" style="opacity: 1;" transform="translate(0, 33.5)"><text class="legendtext" text-anchor="start" x="40" y="4.680000000000001" style="font-family: 'Open Sans', verdana, arial, sans-serif; font-size: 12px; fill: rgb(68, 68, 68); fill-opacity: 1; white-space: pre;">resolved</text><g class="layers" style="opacity: 1;"><g class="legendfill"/><g class="legendlines"><path class="js-line" d="M5,0h30" style="fill: none; stroke: rgb(255, 127, 14); stroke-opacity: 1; stroke-width: 2px;"/></g><g class="legendsymbols"><g class="legendpoints"/></g></g><rect class="legendtoggle" x="0" y="-9.5" width="96.109375" height="19" style="fill: rgb(0, 0, 0); fill-opacity: 0;"/></g><g class="traces" style="opacity: 1;" transform="translate(0, 52.5)"><text class="legendtext" text-anchor="start" x="40" y="4.680000000000001" style="font-family: 'Open Sans', verdana, arial, sans-serif; font-size: 12px; fill: rgb(68, 68, 68); fill-opacity: 1; white-space: pre;">deceased</text><g class="layers" style="opacity: 1;"><g class="legendfill"/><g class="legendlines"><path class="js-line" d="M5,0h30" style="fill: none; stroke: rgb(44, 160, 44); stroke-opacity: 1; stroke-width: 2px;"/></g><g class="legendsymbols"><g class="legendpoints"/></g></g><rect class="legendtoggle" x="0" y="-9.5" width="96.109375" height="19" style="fill: rgb(0, 0, 0); fill-opacity: 0;"/></g></g></g><rect class="scrollbar" rx="20" ry="3" width="0" height="0" style="fill: rgb(128, 139, 164); fill-opacity: 1;" x="0" y="0"/></g><g class="g-gtitle"><text class="gtitle" x="513.5" y="12.5" text-anchor="middle" dy="0em" style="font-family: 'Open Sans', verdana, arial, sans-serif; font-size: 17px; fill: rgb(68, 68, 68); opacity: 1; font-weight: normal; white-space: pre;">Dynamics of new cases, resolved cases and deaths in Ontario (Apr 18, 2021)</text></g><g class="g-xtitle" transform="translate(0,-15)"><text class="xtitle" x="479" y="780" text-anchor="middle" style="font-family: 'Open Sans', verdana, arial, sans-serif; font-size: 14px; fill: rgb(68, 68, 68); opacity: 1; font-weight: normal; white-space: pre;">Date</text></g><g class="g-ytitle"><text class="ytitle" transform="rotate(-90,22,376.5)" x="22" y="376.5" text-anchor="middle" style="font-family: 'Open Sans', verdana, arial, sans-serif; font-size: 14px; fill: rgb(68, 68, 68); opacity: 1; font-weight: normal; white-space: pre;">Number of cases</text></g></g></svg>