<svg class="main-svg" xmlns="http://www.w3.org/2000/svg" xmlns:xlink="http://www.w3.org/1999/xlink" width="1027" height="768" style="" viewBox="0 0 1027 768"><rect x="0" y="0" width="1027" height="768" style="fill: rgb(255, 255, 255); fill-opacity: 1;"/><defs id="defs-87b8ff"><g class="clips"><clipPath id="clip87b8ffxyplot" class="plotclip"><rect width="838" height="687"/></clipPath><clipPath class="axesclip" id="clip87b8ffx"><rect x="60" y="0" width="838" height="768"/></clipPath><clipPath class="axesclip" id="clip87b8ffy"><rect x="0" y="25" width="1027" height="687"/></clipPath><clipPath class="axesclip" id="clip87b8ffxy"><rect x="60" y="25" width="838" height="687"/></clipPath></g><g class="gradients"/></defs><g class="bglayer"/><g class="layer-below"><g class="imagelayer"/><g class="shapelayer"/></g><g class="cartesianlayer"><g class="subplot xy"><g class="layer-subplot"><g class="shapelayer"/><g class="imagelayer"/></g><g class="gridlayer"><g class="x"><path class="xgrid crisp" transform="translate(143.11,0)" d="M0,25v687" style="stroke: rgb(238, 238, 238); stroke-opacity: 1; stroke-width: 1px;"/><path class="xgrid crisp" transform="translate(240.07,0)" d="M0,25v687" style="stroke: rgb(238, 238, 238); stroke-opacity: 1; stroke-width: 1px;"/><path class="xgrid crisp" transform="translate(337.02,0)" d="M0,25v687" style="stroke: rgb(238, 238, 238); stroke-opacity: 1; stroke-width: 1px;"/><path class="xgrid crisp" transform="translate(433.98,0)" d="M0,25v687" style="stroke: rgb(238, 238, 238); stroke-opacity: 1; stroke-width: 1px;"/><path class="xgrid crisp" transform="translate(530.94,0)" d="M0,25v687" style="stroke: rgb(238, 238, 238); stroke-opacity: 1; stroke-width: 1px;"/><path class="xgrid crisp" transform="translate(627.9,0)" d="M0,25v687" style="stroke: rgb(238, 238, 238); stroke-opacity: 1; stroke-width: 1px;"/><path class="xgrid crisp" transform="translate(724.86,0)" d="M0,25v687" style="stroke: rgb(238, 238, 238); stroke-opacity: 1; stroke-width: 1px;"/><path class="xgrid crisp" transform="translate(821.82,0)" d="M0,25v687" style="stroke: rgb(238, 238, 238); stroke-opacity: 1; stroke-width: 1px;"/></g><g class="y"><path class="ygrid crisp" transform="translate(0,581.43)" d="M60,0h838" style="stroke: rgb(238, 238, 238); stroke-opacity: 1; stroke-width: 1px;"/><path class="ygrid crisp" transform="translate(0,486.16)" d="M60,0h838" style="stroke: rgb(238, 238, 238); stroke-opacity: 1; stroke-width: 1px;"/><path class="ygrid crisp" transform="translate(0,390.89)" d="M60,0h838" style="stroke: rgb(238, 238, 238); stroke-opacity: 1; stroke-width: 1px;"/><path class="ygrid crisp" transform="translate(0,295.62)" d="M60,0h838" style="stroke: rgb(238, 238, 238); stroke-opacity: 1; stroke-width: 1px;"/><path class="ygrid crisp" transform="translate(0,200.35)" d="M60,0h838" style="stroke: rgb(238, 238, 238); stroke-opacity: 1; stroke-width: 1px;"/><path class="ygrid crisp" transform="translate(0,105.08)" d="M60,0h838" style="stroke: rgb(238, 238, 238); stroke-opacity: 1; stroke-width: 1px;"/></g></g><g class="zerolinelayer"><path class="yzl zl crisp" transform="translate(0,676.7)" d="M60,0h838" style="stroke: rgb(68, 68, 68); stroke-opacity: 1; stroke-width: 1px;"/></g><path class="xlines-below"/><path class="ylines-below"/><g class="overlines-below"/><g class="xaxislayer-below"/><g class="yaxislayer-below"/><g class="overaxes-below"/><g class="plot" transform="translate(60, 25)" clip-path="url('#clip87b8ffxyplot')"><g class="scatterlayer mlayer"><g class="trace scatter trace800737" style="stroke-miterlimit: 2; opacity: 1;"><g class="fills"/><g class="errorbars"/><g class="lines"><path class="js-line" d="M0,651.7L6.93,651.7L13.85,652.65L20.78,652.65L41.55,650.74L55.4,651.7L62.33,650.74L69.26,650.74L90.03,640.26L96.96,649.79L103.88,651.7L110.81,650.74L117.74,647.89L124.66,649.79L138.51,645.03L145.44,651.7L152.36,645.98L159.29,635.5L166.21,632.64L173.14,628.83L180.07,611.68L186.99,621.21L193.92,641.22L200.84,627.88L207.77,610.73L214.69,594.54L221.62,597.39L228.55,609.78L235.47,578.34L242.4,572.62L249.32,561.19L256.25,491.64L263.17,525.94L270.1,508.79L277.02,90.56L283.95,404L290.88,245.85L297.8,269.67L304.73,211.55L311.65,294.44L318.58,263L325.5,357.31L332.43,290.63L339.36,127.71L346.28,191.54L353.21,196.31L360.13,260.14L367.06,269.67L373.98,250.61L380.91,191.54L387.83,181.07L394.76,162.01L401.69,114.38L408.61,189.64L415.54,110.57L422.46,74.36L429.39,126.76L436.31,165.82L443.24,47.69L450.17,41.97L457.09,198.21L464.02,235.37L470.94,247.75L477.87,151.53L484.79,321.11L491.72,214.41L498.64,250.61L505.57,164.87L512.5,238.23L519.42,299.2L526.35,283L533.27,259.19L540.2,271.57L547.12,197.26L554.05,322.06L560.98,371.6L567.9,358.27L574.83,307.77L581.75,338.26L588.68,323.02L595.6,326.83L602.53,279.19L609.45,327.78L616.38,362.08L623.31,244.9L630.23,280.15L637.16,258.23L644.08,231.56L651.01,259.19L657.93,213.46L664.86,266.81L671.79,378.27L678.71,373.51L685.64,286.81L692.56,323.97L699.49,343.98L706.41,341.12L713.34,266.81L720.26,226.79L727.19,329.69L734.12,312.54L741.04,323.97L747.97,218.22L754.89,256.33L761.82,420.19L768.74,432.58L775.67,412.57L782.6,458.3L789.52,478.31L796.45,398.28L803.37,464.02L810.3,479.26L817.22,476.4L824.15,470.68L831.07,486.88L838,482.12" style="vector-effect: non-scaling-stroke; fill: none; stroke: rgb(31, 119, 180); stroke-opacity: 1; stroke-width: 2px; opacity: 1;"/></g><g class="points"/><g class="text"/></g><g class="trace scatter trace1d3dbd" style="stroke-miterlimit: 2; opacity: 1;"><g class="fills"/><g class="errorbars"/><g class="lines"><path class="js-line" d="M0,651.7L6.93,651.7L13.85,650.74L20.78,650.74L41.55,651.7L103.88,651.7L110.81,650.74L117.74,651.7L124.66,651.7L138.51,651.7L145.44,650.74L152.36,651.7L159.29,651.7L214.69,651.7L221.62,650.74L228.55,649.79L235.47,651.7L270.1,651.7L277.02,248.71L283.95,553.57L290.88,504.03L297.8,516.41L304.73,468.78L311.65,464.97L318.58,432.58L325.5,484.98L332.43,482.12L339.36,392.56L346.28,431.62L353.21,395.42L360.13,381.13L367.06,401.14L373.98,426.86L380.91,450.68L387.83,333.5L394.76,373.51L401.69,306.82L408.61,347.79L415.54,333.5L422.46,360.17L429.39,374.46L436.31,256.33L443.24,214.41L450.17,263.95L457.09,249.66L464.02,183.92L470.94,151.53L477.87,233.46L484.79,34.35L491.72,86.75L498.64,61.03L505.57,113.42L512.5,65.79L519.42,175.35L526.35,390.66L533.27,229.65L540.2,321.11L547.12,250.61L554.05,277.29L560.98,281.1L567.9,309.68L574.83,404L581.75,219.17L588.68,309.68L595.6,235.37L602.53,290.63L609.45,327.78L616.38,386.85L623.31,404L630.23,373.51L637.16,347.79L644.08,405.9L651.01,290.63L657.93,336.35L664.86,441.15L671.79,404L678.71,257.28L685.64,364.94L692.56,356.36L699.49,299.2L706.41,216.32L713.34,324.92L720.26,336.35L727.19,340.17L734.12,273.48L741.04,294.44L747.97,304.92L761.82,423.05L768.74,330.64L775.67,126.76L782.6,170.59L789.52,363.98L796.45,317.3L803.37,248.71L810.3,411.62L817.22,444.01L824.15,315.4L831.07,442.1L838,417.33" style="vector-effect: non-scaling-stroke; fill: none; stroke: rgb(255, 127, 14); stroke-opacity: 1; stroke-width: 2px; opacity: 1;"/></g><g class="points"/><g class="text"/></g><g class="trace scatter trace3013f7" style="stroke-miterlimit: 2; opacity: 1;"><g class="fills"/><g class="errorbars"/><g class="lines"><path class="js-line" d="M0,651.7L186.99,651.7L193.92,650.74L200.84,651.7L207.77,650.74L214.69,651.7L221.62,650.74L228.55,649.79L235.47,650.74L242.4,649.79L249.32,646.93L256.25,649.79L263.17,648.84L270.1,650.74L277.02,647.89L283.95,642.17L290.88,647.89L297.8,636.45L304.73,638.36L311.65,625.97L318.58,627.88L325.5,639.31L332.43,631.69L339.36,631.69L346.28,626.93L353.21,630.74L360.13,622.16L367.06,631.69L373.98,635.5L380.91,610.73L387.83,603.11L394.76,615.49L401.69,599.3L408.61,617.4L415.54,614.54L422.46,622.16L429.39,615.49L436.31,616.45L443.24,600.25L450.17,604.06L457.09,605.97L464.02,628.83L470.94,597.39L477.87,595.49L484.79,608.83L491.72,569.77L498.64,614.54L505.57,599.3L512.5,613.59L519.42,571.67L526.35,593.58L533.27,586.91L540.2,605.97L547.12,591.68L554.05,595.49L560.98,618.35L567.9,618.35L574.83,598.35L581.75,613.59L595.6,625.97L602.53,620.26L609.45,629.79L616.38,629.79L623.31,637.41L630.23,610.73L637.16,622.16L644.08,625.02L651.01,625.97L657.93,627.88L664.86,624.07L671.79,631.69L678.71,621.21L685.64,619.31L692.56,612.64L699.49,635.5L706.41,633.6L713.34,642.17L720.26,635.5L727.19,633.6L734.12,608.83L741.04,637.41L747.97,618.35L754.89,633.6L761.82,628.83L768.74,638.36L775.67,641.22L782.6,640.26L789.52,641.22L796.45,643.12L803.37,640.26L810.3,644.08L817.22,641.22L824.15,640.26L831.07,648.84L838,641.22" style="vector-effect: non-scaling-stroke; fill: none; stroke: rgb(44, 160, 44); stroke-opacity: 1; stroke-width: 2px; opacity: 1;"/></g><g class="points"/><g class="text"/></g></g></g><g class="overplot"/><path class="xlines-above crisp" style="fill: none;" d="M0,0"/><path class="ylines-above crisp" style="fill: none;" d="M0,0"/><g class="overlines-above"/><g class="xaxislayer-above"><g class="xtick"><text text-anchor="middle" x="0" y="725" transform="translate(143.11,0)" style="font-family: 'Open Sans', verdana, arial, sans-serif; font-size: 12px; fill: rgb(68, 68, 68); fill-opacity: 1; white-space: pre;"><tspan class="line" dy="0em" x="0" y="725">Mar 1</tspan><tspan class="line" dy="1.3em" x="0" y="725">2020</tspan></text></g><g class="xtick"><text text-anchor="middle" x="0" y="725" transform="translate(240.07,0)" style="font-family: 'Open Sans', verdana, arial, sans-serif; font-size: 12px; fill: rgb(68, 68, 68); fill-opacity: 1; white-space: pre;">Mar 15</text></g><g class="xtick"><text text-anchor="middle" x="0" y="725" transform="translate(337.02,0)" style="font-family: 'Open Sans', verdana, arial, sans-serif; font-size: 12px; fill: rgb(68, 68, 68); fill-opacity: 1; white-space: pre;">Mar 29</text></g><g class="xtick"><text text-anchor="middle" x="0" y="725" transform="translate(433.98,0)" style="font-family: 'Open Sans', verdana, arial, sans-serif; font-size: 12px; fill: rgb(68, 68, 68); fill-opacity: 1; white-space: pre;">Apr 12</text></g><g class="xtick"><text text-anchor="middle" x="0" y="725" transform="translate(530.94,0)" style="font-family: 'Open Sans', verdana, arial, sans-serif; font-size: 12px; fill: rgb(68, 68, 68); fill-opacity: 1; white-space: pre;">Apr 26</text></g><g class="xtick"><text text-anchor="middle" x="0" y="725" transform="translate(627.9,0)" style="font-family: 'Open Sans', verdana, arial, sans-serif; font-size: 12px; fill: rgb(68, 68, 68); fill-opacity: 1; white-space: pre;">May 10</text></g><g class="xtick"><text text-anchor="middle" x="0" y="725" transform="translate(724.86,0)" style="font-family: 'Open Sans', verdana, arial, sans-serif; font-size: 12px; fill: rgb(68, 68, 68); fill-opacity: 1; white-space: pre;">May 24</text></g><g class="xtick"><text text-anchor="middle" x="0" y="725" transform="translate(821.82,0)" style="font-family: 'Open Sans', verdana, arial, sans-serif; font-size: 12px; fill: rgb(68, 68, 68); fill-opacity: 1; white-space: pre;">Jun 7</text></g></g><g class="yaxislayer-above"><g class="ytick"><text text-anchor="end" x="59" y="4.199999999999999" transform="translate(0,676.7)" style="font-family: 'Open Sans', verdana, arial, sans-serif; font-size: 12px; fill: rgb(68, 68, 68); fill-opacity: 1; white-space: pre;">0</text></g><g class="ytick"><text text-anchor="end" x="59" y="4.199999999999999" transform="translate(0,581.43)" style="font-family: 'Open Sans', verdana, arial, sans-serif; font-size: 12px; fill: rgb(68, 68, 68); fill-opacity: 1; white-space: pre;">100</text></g><g class="ytick"><text text-anchor="end" x="59" y="4.199999999999999" transform="translate(0,486.16)" style="font-family: 'Open Sans', verdana, arial, sans-serif; font-size: 12px; fill: rgb(68, 68, 68); fill-opacity: 1; white-space: pre;">200</text></g><g class="ytick"><text text-anchor="end" x="59" y="4.199999999999999" transform="translate(0,390.89)" style="font-family: 'Open Sans', verdana, arial, sans-serif; font-size: 12px; fill: rgb(68, 68, 68); fill-opacity: 1; white-space: pre;">300</text></g><g class="ytick"><text text-anchor="end" x="59" y="4.199999999999999" transform="translate(0,295.62)" style="font-family: 'Open Sans', verdana, arial, sans-serif; font-size: 12px; fill: rgb(68, 68, 68); fill-opacity: 1; white-space: pre;">400</text></g><g class="ytick"><text text-anchor="end" x="59" y="4.199999999999999" transform="translate(0,200.35)" style="font-family: 'Open Sans', verdana, arial, sans-serif; font-size: 12px; fill: rgb(68, 68, 68); fill-opacity: 1; white-space: pre;">500</text></g><g class="ytick"><text text-anchor="end" x="59" y="4.199999999999999" transform="translate(0,105.08)" style="font-family: 'Open Sans', verdana, arial, sans-serif; font-size: 12px; fill: rgb(68, 68, 68); fill-opacity: 1; white-space: pre;">600</text></g></g><g class="overaxes-above"/></g></g><g class="polarlayer"/><g class="ternarylayer"/><g class="geolayer"/><g class="funnelarealayer"/><g class="pielayer"/><g class="treemaplayer"/><g class="sunburstlayer"/><g class="glimages"/><defs id="topdefs-87b8ff"><g class="clips"/><clipPath id="legend87b8ff"><rect width="102" height="67" x="0" y="0"/></clipPath></defs><g class="layer-above"><g class="imagelayer"/><g class="shapelayer"/></g><g class="infolayer"><g class="legend" pointer-events="all" transform="translate(914.76, 25)"><rect class="bg" shape-rendering="crispEdges" style="stroke: rgb(68, 68, 68); stroke-opacity: 1; fill: rgb(255, 255, 255); fill-opacity: 1; stroke-width: 0px;" width="102" height="67" x="0" y="0"/><g class="scrollbox" transform="translate(0, 0)" clip-path="url('#legend87b8ff')"><g class="groups"><g class="traces" style="opacity: 1;" transform="translate(0, 14.5)"><text class="legendtext user-select-none" text-anchor="start" x="40" y="4.680000000000001" style="font-family: 'Open Sans', verdana, arial, sans-serif; font-size: 12px; fill: rgb(68, 68, 68); fill-opacity: 1; white-space: pre;">positive</text><g class="layers" style="opacity: 1;"><g class="legendfill"/><g class="legendlines"><path class="js-line" d="M5,0h30" style="fill: none; stroke: rgb(31, 119, 180); stroke-opacity: 1; stroke-width: 2px;"/></g><g class="legendsymbols"><g class="legendpoints"/></g></g><rect class="legendtoggle" pointer-events="all" x="0" y="-9.5" width="96.109375" height="19" style="cursor: pointer; fill: rgb(0, 0, 0); fill-opacity: 0;"/></g><g class="traces" style="opacity: 1;" transform="translate(0, 33.5)"><text class="legendtext user-select-none" text-anchor="start" x="40" y="4.680000000000001" style="font-family: 'Open Sans', verdana, arial, sans-serif; font-size: 12px; fill: rgb(68, 68, 68); fill-opacity: 1; white-space: pre;">resolved</text><g class="layers" style="opacity: 1;"><g class="legendfill"/><g class="legendlines"><path class="js-line" d="M5,0h30" style="fill: none; stroke: rgb(255, 127, 14); stroke-opacity: 1; stroke-width: 2px;"/></g><g class="legendsymbols"><g class="legendpoints"/></g></g><rect class="legendtoggle" pointer-events="all" x="0" y="-9.5" width="96.109375" height="19" style="cursor: pointer; fill: rgb(0, 0, 0); fill-opacity: 0;"/></g><g class="traces" style="opacity: 1;" transform="translate(0, 52.5)"><text class="legendtext user-select-none" text-anchor="start" x="40" y="4.680000000000001" style="font-family: 'Open Sans', verdana, arial, sans-serif; font-size: 12px; fill: rgb(68, 68, 68); fill-opacity: 1; white-space: pre;">deceased</text><g class="layers" style="opacity: 1;"><g class="legendfill"/><g class="legendlines"><path class="js-line" d="M5,0h30" style="fill: none; stroke: rgb(44, 160, 44); stroke-opacity: 1; stroke-width: 2px;"/></g><g class="legendsymbols"><g class="legendpoints"/></g></g><rect class="legendtoggle" pointer-events="all" x="0" y="-9.5" width="96.109375" height="19" style="cursor: pointer; fill: rgb(0, 0, 0); fill-opacity: 0;"/></g></g></g><rect class="scrollbar" rx="20" ry="3" width="0" height="0" style="fill: rgb(128, 139, 164); fill-opacity: 1;" x="0" y="0"/></g><g class="g-gtitle"><text class="gtitle" x="513.5" y="12.5" text-anchor="middle" dy="0em" style="font-family: 'Open Sans', verdana, arial, sans-serif; font-size: 17px; fill: rgb(68, 68, 68); opacity: 1; font-weight: normal; white-space: pre;">Dynamics of new cases, resolved cases and deaths in Ontario (Jun 19, 2020)</text></g><g class="g-xtitle"><text class="xtitle" x="479" y="764" text-anchor="middle" style="font-family: 'Open Sans', verdana, arial, sans-serif; font-size: 14px; fill: rgb(68, 68, 68); opacity: 1; font-weight: normal; white-space: pre;">Date</text></g><g class="g-ytitle"><text class="ytitle" transform="rotate(-90,22,368.5)" x="22" y="368.5" text-anchor="middle" style="font-family: 'Open Sans', verdana, arial, sans-serif; font-size: 14px; fill: rgb(68, 68, 68); opacity: 1; font-weight: normal; white-space: pre;">Number of cases</text></g></g></svg>