<svg class="main-svg" xmlns="http://www.w3.org/2000/svg" xmlns:xlink="http://www.w3.org/1999/xlink" width="1027" height="768" style="" viewBox="0 0 1027 768"><rect x="0" y="0" width="1027" height="768" style="fill: rgb(255, 255, 255); fill-opacity: 1;"/><defs id="defs-03c4b5"><g class="clips"><clipPath id="clip03c4b5xyplot" class="plotclip"><rect width="838" height="703"/></clipPath><clipPath class="axesclip" id="clip03c4b5x"><rect x="60" y="0" width="838" height="768"/></clipPath><clipPath class="axesclip" id="clip03c4b5y"><rect x="0" y="25" width="1027" height="703"/></clipPath><clipPath class="axesclip" id="clip03c4b5xy"><rect x="60" y="25" width="838" height="703"/></clipPath></g><g class="gradients"/></defs><g class="bglayer"/><g class="layer-below"><g class="imagelayer"/><g class="shapelayer"/></g><g class="cartesianlayer"><g class="subplot xy"><g class="layer-subplot"><g class="shapelayer"/><g class="imagelayer"/></g><g class="gridlayer"><g class="x"><path class="xgrid crisp" transform="translate(105.3,0)" d="M0,25v703" style="stroke: rgb(238, 238, 238); stroke-opacity: 1; stroke-width: 1px;"/><path class="xgrid crisp" transform="translate(222.32,0)" d="M0,25v703" style="stroke: rgb(238, 238, 238); stroke-opacity: 1; stroke-width: 1px;"/><path class="xgrid crisp" transform="translate(335.56,0)" d="M0,25v703" style="stroke: rgb(238, 238, 238); stroke-opacity: 1; stroke-width: 1px;"/><path class="xgrid crisp" transform="translate(452.58,0)" d="M0,25v703" style="stroke: rgb(238, 238, 238); stroke-opacity: 1; stroke-width: 1px;"/><path class="xgrid crisp" transform="translate(565.8199999999999,0)" d="M0,25v703" style="stroke: rgb(238, 238, 238); stroke-opacity: 1; stroke-width: 1px;"/><path class="xgrid crisp" transform="translate(682.84,0)" d="M0,25v703" style="stroke: rgb(238, 238, 238); stroke-opacity: 1; stroke-width: 1px;"/><path class="xgrid crisp" transform="translate(799.86,0)" d="M0,25v703" style="stroke: rgb(238, 238, 238); stroke-opacity: 1; stroke-width: 1px;"/></g><g class="y"><path class="ygrid crisp" transform="translate(0,601.69)" d="M60,0h838" style="stroke: rgb(238, 238, 238); stroke-opacity: 1; stroke-width: 1px;"/><path class="ygrid crisp" transform="translate(0,511.43)" d="M60,0h838" style="stroke: rgb(238, 238, 238); stroke-opacity: 1; stroke-width: 1px;"/><path class="ygrid crisp" transform="translate(0,421.18)" d="M60,0h838" style="stroke: rgb(238, 238, 238); stroke-opacity: 1; stroke-width: 1px;"/><path class="ygrid crisp" transform="translate(0,330.92)" d="M60,0h838" style="stroke: rgb(238, 238, 238); stroke-opacity: 1; stroke-width: 1px;"/><path class="ygrid crisp" transform="translate(0,240.66)" d="M60,0h838" style="stroke: rgb(238, 238, 238); stroke-opacity: 1; stroke-width: 1px;"/><path class="ygrid crisp" transform="translate(0,150.41)" d="M60,0h838" style="stroke: rgb(238, 238, 238); stroke-opacity: 1; stroke-width: 1px;"/><path class="ygrid crisp" transform="translate(0,60.15)" d="M60,0h838" style="stroke: rgb(238, 238, 238); stroke-opacity: 1; stroke-width: 1px;"/></g></g><g class="zerolinelayer"><path class="yzl zl crisp" transform="translate(0,691.95)" d="M60,0h838" style="stroke: rgb(68, 68, 68); stroke-opacity: 1; stroke-width: 1px;"/></g><path class="xlines-below"/><path class="ylines-below"/><g class="overlines-below"/><g class="xaxislayer-below"/><g class="yaxislayer-below"/><g class="overaxes-below"/><g class="plot" transform="translate(60, 25)" clip-path="url('#clip03c4b5xyplot')"><g class="scatterlayer mlayer"><g class="trace scatter trace412d54" style="stroke-miterlimit: 2; opacity: 1;"><g class="fills"/><g class="errorbars"/><g class="lines"><path class="js-line" d="M0,666.95L3.77,666.95L7.55,667.85L11.32,667.85L22.65,666.04L30.2,666.95L33.97,666.04L37.75,666.04L49.07,656.12L52.85,665.14L56.62,666.95L60.4,666.04L64.17,663.34L67.95,665.14L75.5,660.63L79.27,666.95L83.05,661.53L86.82,651.6L90.59,648.9L94.37,645.29L98.14,629.04L101.92,638.07L105.69,657.02L109.47,644.38L113.24,628.14L117.02,612.79L120.79,615.5L124.57,627.23L128.34,597.45L132.12,592.03L135.89,581.2L139.67,515.32L143.44,547.81L147.22,531.56L150.99,135.34L154.77,432.28L158.54,282.45L162.32,305.02L166.09,249.96L169.86,328.48L173.64,298.7L177.41,388.05L181.19,324.87L184.96,170.54L188.74,231.01L192.51,235.52L196.29,295.99L200.06,305.02L203.84,286.97L207.61,231.01L211.39,221.08L215.16,203.03L218.94,157.9L222.71,229.2L226.49,154.29L230.26,119.99L234.04,169.63L237.81,206.64L241.59,94.72L245.36,89.3L249.14,237.33L252.91,272.53L256.68,284.26L260.46,193.1L264.23,353.76L268.01,252.67L271.78,286.97L275.56,205.74L279.33,275.23L283.11,333L286.88,317.65L290.66,295.09L294.43,306.82L298.21,236.42L301.98,354.66L305.76,401.59L309.53,388.96L313.31,341.12L317.08,370L320.86,355.56L324.63,359.17L328.41,314.04L332.18,360.07L335.95,392.57L339.73,281.55L343.5,314.95L347.28,294.19L351.05,268.92L354.83,295.09L358.6,251.77L362.38,302.31L366.15,407.91L369.93,403.4L373.7,321.26L377.48,356.46L381.25,375.42L385.03,372.71L388.8,302.31L392.58,264.4L396.35,361.88L400.13,345.63L403.9,356.46L407.68,256.28L411.45,292.38L415.23,447.62L419,459.36L422.77,440.4L426.55,483.73L430.32,502.68L434.1,426.86L437.87,489.14L441.65,503.58L445.42,500.87L449.2,495.46L452.97,510.8L456.75,506.29L460.52,481.02L464.3,509L468.07,521.63L471.85,471.99L475.62,519.83L479.4,496.36L483.17,566.76L486.95,522.54L490.72,506.29L494.5,434.99L498.27,525.24L502.05,532.46L505.82,528.85L509.59,518.02L513.37,557.74L520.92,527.95L524.69,565.86L528.47,560.44L532.24,513.51L536.02,562.25L539.79,549.61L543.57,550.52L547.34,562.25L551.12,566.76L554.89,574.89L558.67,566.76L562.44,566.76L566.22,517.12L569.99,518.93L573.77,545.1L577.54,483.73L581.32,518.02L585.09,573.98L588.86,490.95L592.64,542.39L596.41,543.3L600.19,559.54L603.96,566.76L607.74,598.35L611.51,586.62L615.29,546L622.84,562.25L626.61,587.52L630.39,584.81L634.16,589.33L637.94,581.2L641.71,587.52L645.49,603.77L649.26,595.64L653.04,563.15L656.81,637.16L660.59,581.2L664.36,596.55L671.91,571.28L675.68,593.84L679.46,577.59L683.23,554.13L690.78,598.35L694.56,548.71L698.33,569.47L702.11,563.15L705.88,572.18L709.66,576.69L713.43,587.52L717.21,560.44L720.98,556.83L724.76,533.37L728.53,565.86L732.31,564.05L736.08,565.86L739.86,546.91L743.63,547.81L747.41,533.37L751.18,514.41L754.95,524.34L758.73,495.46L762.5,499.97L766.28,532.46L770.05,513.51L773.83,474.7L777.6,457.55L781.38,482.82L785.15,384.44L788.93,440.4L792.7,382.64L796.48,402.5L800.25,305.02L804.03,299.6L807.8,337.51L815.35,235.52L819.13,364.59L822.9,297.8L826.68,297.8L830.45,274.33L834.23,223.79L838,35.15" style="vector-effect: non-scaling-stroke; fill: none; stroke: rgb(31, 119, 180); stroke-opacity: 1; stroke-width: 2px; opacity: 1;"/></g><g class="points"/><g class="text"/></g><g class="trace scatter tracee8465f" style="stroke-miterlimit: 2; opacity: 1;"><g class="fills"/><g class="errorbars"/><g class="lines"><path class="js-line" d="M0,666.95L3.77,666.95L7.55,666.04L11.32,666.04L22.65,666.95L56.62,666.95L60.4,666.04L64.17,666.95L67.95,666.95L75.5,666.95L79.27,666.04L83.05,666.95L86.82,666.95L117.02,666.95L120.79,666.04L124.57,665.14L128.34,666.95L147.22,666.95L150.99,285.16L154.77,573.98L158.54,527.05L162.32,538.78L166.09,493.65L169.86,490.04L173.64,459.36L177.41,509L181.19,506.29L184.96,421.45L188.74,458.45L192.51,424.16L196.29,410.62L200.06,429.57L203.84,453.94L207.61,476.51L211.39,365.49L215.16,403.4L218.94,340.22L222.71,379.03L226.49,365.49L230.26,390.76L234.04,404.3L237.81,292.38L241.59,252.67L245.36,299.6L249.14,286.06L252.91,223.79L256.68,193.1L260.46,270.72L264.23,82.08L268.01,131.72L271.78,107.36L275.56,157L279.33,111.87L283.11,215.66L286.88,419.64L290.66,267.11L294.43,353.76L298.21,286.97L301.98,312.24L305.76,315.85L309.53,342.93L313.31,432.28L317.08,257.18L320.86,342.93L324.63,272.53L328.41,324.87L332.18,360.07L335.95,416.03L339.73,432.28L347.28,379.03L351.05,434.08L354.83,324.87L358.6,368.2L362.38,467.48L366.15,432.28L369.93,293.28L373.7,395.27L377.48,387.15L381.25,333L385.03,254.47L388.8,357.37L392.58,368.2L396.35,371.81L400.13,308.63L403.9,328.48L407.68,338.41L411.45,391.66L415.23,450.33L419,362.78L422.77,169.63L426.55,211.15L430.32,394.37L434.1,350.15L437.87,285.16L441.65,439.5L445.42,470.19L449.2,348.34L452.97,468.38L456.75,444.92L460.52,470.19L464.3,440.4L471.85,509.9L475.62,460.26L479.4,493.65L483.17,462.97L486.95,506.29L490.72,509L494.5,586.62L498.27,533.37L502.05,502.68L505.82,482.82L509.59,505.39L513.37,509.9L517.14,501.78L520.92,522.54L524.69,507.19L528.47,484.63L532.24,511.71L536.02,506.29L539.79,425.96L543.57,565.86L547.34,550.52L551.12,556.83L554.89,545.1L558.67,539.69L562.44,575.79L566.22,547.81L569.99,564.96L573.77,571.28L577.54,583.91L581.32,480.12L585.09,530.66L588.86,543.3L592.64,540.59L596.41,559.54L600.19,574.89L603.96,571.28L607.74,509.9L611.51,518.02L615.29,515.32L619.06,519.83L622.84,556.83L626.61,553.22L630.39,562.25L634.16,535.17L637.94,523.44L641.71,560.44L645.49,570.37L649.26,533.37L653.04,574.89L656.81,599.25L660.59,546L664.36,577.59L668.14,592.03L671.91,575.79L675.68,594.74L679.46,592.03L683.23,585.72L687.01,586.62L690.78,598.35L694.56,571.28L698.33,585.72L702.11,569.47L705.88,596.55L709.66,599.25L713.43,563.15L717.21,597.45L720.98,592.03L724.76,573.98L728.53,596.55L732.31,601.06L736.08,583.91L739.86,543.3L743.63,559.54L747.41,562.25L751.18,571.28L754.95,566.76L758.73,559.54L762.5,559.54L766.28,544.2L770.05,538.78L773.83,555.03L777.6,559.54L781.38,555.03L785.15,546.91L788.93,561.35L792.7,527.95L796.48,505.39L800.25,508.1L804.03,507.19L807.8,494.56L811.58,506.29L815.35,490.04L819.13,434.08L822.9,408.81L826.68,411.52L830.45,361.88L834.23,406.11L838,368.2" style="vector-effect: non-scaling-stroke; fill: none; stroke: rgb(255, 127, 14); stroke-opacity: 1; stroke-width: 2px; opacity: 1;"/></g><g class="points"/><g class="text"/></g><g class="trace scatter trace1129bb" style="stroke-miterlimit: 2; opacity: 1;"><g class="fills"/><g class="errorbars"/><g class="lines"><path class="js-line" d="M0,666.95L101.92,666.95L105.69,666.04L109.47,666.95L113.24,666.04L117.02,666.95L120.79,666.04L124.57,665.14L128.34,666.04L132.12,665.14L135.89,662.43L139.67,665.14L143.44,664.24L147.22,666.04L150.99,663.34L154.77,657.92L158.54,663.34L162.32,652.51L166.09,654.31L169.86,642.58L173.64,644.38L177.41,655.21L181.19,647.99L184.96,647.99L188.74,643.48L192.51,647.09L196.29,638.97L200.06,647.99L203.84,651.6L207.61,628.14L211.39,620.92L215.16,632.65L218.94,617.31L222.71,634.45L226.49,631.75L230.26,638.97L234.04,632.65L237.81,633.55L241.59,618.21L245.36,621.82L249.14,623.62L252.91,645.29L256.68,615.5L260.46,613.7L264.23,626.33L268.01,589.33L271.78,631.75L275.56,617.31L279.33,630.84L283.11,591.13L286.88,611.89L290.66,605.57L294.43,623.62L298.21,610.09L301.98,613.7L305.76,635.36L309.53,635.36L313.31,616.4L317.08,630.84L324.63,642.58L328.41,637.16L332.18,646.19L335.95,646.19L339.73,653.41L343.5,628.14L347.28,638.97L351.05,641.68L354.83,642.58L358.6,644.38L362.38,640.77L366.15,647.99L369.93,638.07L373.7,636.26L377.48,629.94L381.25,651.6L385.03,649.8L388.8,657.92L392.58,651.6L396.35,649.8L400.13,626.33L403.9,653.41L407.68,635.36L411.45,649.8L415.23,645.29L419,654.31L422.77,657.02L426.55,656.12L430.32,657.02L434.1,658.82L437.87,656.12L441.65,659.73L445.42,657.02L449.2,656.12L452.97,664.24L456.75,657.02L460.52,638.97L464.3,657.02L468.07,664.24L471.85,657.92L475.62,656.12L479.4,657.92L483.17,664.24L486.95,659.73L490.72,661.53L494.5,660.63L498.27,660.63L502.05,663.34L505.82,663.34L509.59,665.14L513.37,662.43L517.14,665.14L520.92,666.95L524.69,665.14L528.47,658.82L532.24,664.24L536.02,660.63L539.79,661.53L543.57,664.24L547.34,664.24L551.12,666.04L554.89,658.82L558.67,662.43L562.44,658.82L566.22,665.14L569.99,664.24L573.77,666.04L577.54,666.04L581.32,665.14L585.09,666.95L588.86,664.24L592.64,666.04L596.41,663.34L600.19,666.04L603.96,663.34L607.74,666.04L611.51,664.24L615.29,664.24L626.61,666.95L630.39,663.34L634.16,666.95L637.94,666.04L641.71,666.95L645.49,666.04L649.26,665.14L653.04,666.95L656.81,666.95L660.59,666.04L664.36,666.95L668.14,666.04L671.91,666.04L675.68,666.95L679.46,666.95L683.23,663.34L687.01,667.85L690.78,666.04L694.56,664.24L698.33,666.04L702.11,666.95L705.88,666.04L709.66,665.14L713.43,665.14L717.21,666.04L720.98,661.53L724.76,666.95L728.53,666.04L736.08,666.04L739.86,666.95L743.63,666.95L747.41,667.85L751.18,666.95L754.95,665.14L758.73,666.95L762.5,666.95L766.28,666.95L770.05,666.04L773.83,667.85L777.6,666.04L785.15,666.04L788.93,663.34L792.7,665.14L796.48,664.24L800.25,666.95L804.03,666.04L807.8,666.04L811.58,665.14L815.35,664.24L819.13,664.24L822.9,666.04L826.68,666.04L830.45,666.95L834.23,665.14L838,666.04" style="vector-effect: non-scaling-stroke; fill: none; stroke: rgb(44, 160, 44); stroke-opacity: 1; stroke-width: 2px; opacity: 1;"/></g><g class="points"/><g class="text"/></g></g></g><g class="overplot"/><path class="xlines-above crisp" style="fill: none;" d="M0,0"/><path class="ylines-above crisp" style="fill: none;" d="M0,0"/><g class="overlines-above"/><g class="xaxislayer-above"><g class="xtick"><text text-anchor="middle" x="0" y="741" transform="translate(105.3,0)" style="font-family: 'Open Sans', verdana, arial, sans-serif; font-size: 12px; fill: rgb(68, 68, 68); fill-opacity: 1; white-space: pre;">Mar 2020</text></g><g class="xtick"><text text-anchor="middle" x="0" y="741" transform="translate(222.32,0)" style="font-family: 'Open Sans', verdana, arial, sans-serif; font-size: 12px; fill: rgb(68, 68, 68); fill-opacity: 1; white-space: pre;">Apr 2020</text></g><g class="xtick"><text text-anchor="middle" x="0" y="741" transform="translate(335.56,0)" style="font-family: 'Open Sans', verdana, arial, sans-serif; font-size: 12px; fill: rgb(68, 68, 68); fill-opacity: 1; white-space: pre;">May 2020</text></g><g class="xtick"><text text-anchor="middle" x="0" y="741" transform="translate(452.58,0)" style="font-family: 'Open Sans', verdana, arial, sans-serif; font-size: 12px; fill: rgb(68, 68, 68); fill-opacity: 1; white-space: pre;">Jun 2020</text></g><g class="xtick"><text text-anchor="middle" x="0" y="741" transform="translate(565.8199999999999,0)" style="font-family: 'Open Sans', verdana, arial, sans-serif; font-size: 12px; fill: rgb(68, 68, 68); fill-opacity: 1; white-space: pre;">Jul 2020</text></g><g class="xtick"><text text-anchor="middle" x="0" y="741" transform="translate(682.84,0)" style="font-family: 'Open Sans', verdana, arial, sans-serif; font-size: 12px; fill: rgb(68, 68, 68); fill-opacity: 1; white-space: pre;">Aug 2020</text></g><g class="xtick"><text text-anchor="middle" x="0" y="741" transform="translate(799.86,0)" style="font-family: 'Open Sans', verdana, arial, sans-serif; font-size: 12px; fill: rgb(68, 68, 68); fill-opacity: 1; white-space: pre;">Sep 2020</text></g></g><g class="yaxislayer-above"><g class="ytick"><text text-anchor="end" x="59" y="4.199999999999999" transform="translate(0,691.95)" style="font-family: 'Open Sans', verdana, arial, sans-serif; font-size: 12px; fill: rgb(68, 68, 68); fill-opacity: 1; white-space: pre;">0</text></g><g class="ytick"><text text-anchor="end" x="59" y="4.199999999999999" transform="translate(0,601.69)" style="font-family: 'Open Sans', verdana, arial, sans-serif; font-size: 12px; fill: rgb(68, 68, 68); fill-opacity: 1; white-space: pre;">100</text></g><g class="ytick"><text text-anchor="end" x="59" y="4.199999999999999" transform="translate(0,511.43)" style="font-family: 'Open Sans', verdana, arial, sans-serif; font-size: 12px; fill: rgb(68, 68, 68); fill-opacity: 1; white-space: pre;">200</text></g><g class="ytick"><text text-anchor="end" x="59" y="4.199999999999999" transform="translate(0,421.18)" style="font-family: 'Open Sans', verdana, arial, sans-serif; font-size: 12px; fill: rgb(68, 68, 68); fill-opacity: 1; white-space: pre;">300</text></g><g class="ytick"><text text-anchor="end" x="59" y="4.199999999999999" transform="translate(0,330.92)" style="font-family: 'Open Sans', verdana, arial, sans-serif; font-size: 12px; fill: rgb(68, 68, 68); fill-opacity: 1; white-space: pre;">400</text></g><g class="ytick"><text text-anchor="end" x="59" y="4.199999999999999" transform="translate(0,240.66)" style="font-family: 'Open Sans', verdana, arial, sans-serif; font-size: 12px; fill: rgb(68, 68, 68); fill-opacity: 1; white-space: pre;">500</text></g><g class="ytick"><text text-anchor="end" x="59" y="4.199999999999999" transform="translate(0,150.41)" style="font-family: 'Open Sans', verdana, arial, sans-serif; font-size: 12px; fill: rgb(68, 68, 68); fill-opacity: 1; white-space: pre;">600</text></g><g class="ytick"><text text-anchor="end" x="59" y="4.199999999999999" transform="translate(0,60.15)" style="font-family: 'Open Sans', verdana, arial, sans-serif; font-size: 12px; fill: rgb(68, 68, 68); fill-opacity: 1; white-space: pre;">700</text></g></g><g class="overaxes-above"/></g></g><g class="polarlayer"/><g class="ternarylayer"/><g class="geolayer"/><g class="funnelarealayer"/><g class="pielayer"/><g class="treemaplayer"/><g class="sunburstlayer"/><g class="glimages"/><defs id="topdefs-03c4b5"><g class="clips"/><clipPath id="legend03c4b5"><rect width="102" height="67" x="0" y="0"/></clipPath></defs><g class="layer-above"><g class="imagelayer"/><g class="shapelayer"/></g><g class="infolayer"><g class="legend" pointer-events="all" transform="translate(914.76, 25)"><rect class="bg" shape-rendering="crispEdges" style="stroke: rgb(68, 68, 68); stroke-opacity: 1; fill: rgb(255, 255, 255); fill-opacity: 1; stroke-width: 0px;" width="102" height="67" x="0" y="0"/><g class="scrollbox" transform="translate(0, 0)" clip-path="url('#legend03c4b5')"><g class="groups"><g class="traces" style="opacity: 1;" transform="translate(0, 14.5)"><text class="legendtext user-select-none" text-anchor="start" x="40" y="4.680000000000001" style="font-family: 'Open Sans', verdana, arial, sans-serif; font-size: 12px; fill: rgb(68, 68, 68); fill-opacity: 1; white-space: pre;">positive</text><g class="layers" style="opacity: 1;"><g class="legendfill"/><g class="legendlines"><path class="js-line" d="M5,0h30" style="fill: none; stroke: rgb(31, 119, 180); stroke-opacity: 1; stroke-width: 2px;"/></g><g class="legendsymbols"><g class="legendpoints"/></g></g><rect class="legendtoggle" pointer-events="all" x="0" y="-9.5" width="96.109375" height="19" style="cursor: pointer; fill: rgb(0, 0, 0); fill-opacity: 0;"/></g><g class="traces" style="opacity: 1;" transform="translate(0, 33.5)"><text class="legendtext user-select-none" text-anchor="start" x="40" y="4.680000000000001" style="font-family: 'Open Sans', verdana, arial, sans-serif; font-size: 12px; fill: rgb(68, 68, 68); fill-opacity: 1; white-space: pre;">resolved</text><g class="layers" style="opacity: 1;"><g class="legendfill"/><g class="legendlines"><path class="js-line" d="M5,0h30" style="fill: none; stroke: rgb(255, 127, 14); stroke-opacity: 1; stroke-width: 2px;"/></g><g class="legendsymbols"><g class="legendpoints"/></g></g><rect class="legendtoggle" pointer-events="all" x="0" y="-9.5" width="96.109375" height="19" style="cursor: pointer; fill: rgb(0, 0, 0); fill-opacity: 0;"/></g><g class="traces" style="opacity: 1;" transform="translate(0, 52.5)"><text class="legendtext user-select-none" text-anchor="start" x="40" y="4.680000000000001" style="font-family: 'Open Sans', verdana, arial, sans-serif; font-size: 12px; fill: rgb(68, 68, 68); fill-opacity: 1; white-space: pre;">deceased</text><g class="layers" style="opacity: 1;"><g class="legendfill"/><g class="legendlines"><path class="js-line" d="M5,0h30" style="fill: none; stroke: rgb(44, 160, 44); stroke-opacity: 1; stroke-width: 2px;"/></g><g class="legendsymbols"><g class="legendpoints"/></g></g><rect class="legendtoggle" pointer-events="all" x="0" y="-9.5" width="96.109375" height="19" style="cursor: pointer; fill: rgb(0, 0, 0); fill-opacity: 0;"/></g></g></g><rect class="scrollbar" rx="20" ry="3" width="0" height="0" style="fill: rgb(128, 139, 164); fill-opacity: 1;" x="0" y="0"/></g><g class="g-gtitle"><text class="gtitle" x="513.5" y="12.5" text-anchor="middle" dy="0em" style="font-family: 'Open Sans', verdana, arial, sans-serif; font-size: 17px; fill: rgb(68, 68, 68); opacity: 1; font-weight: normal; white-space: pre;">Dynamics of new cases, resolved cases and deaths in Ontario (Sep 28, 2020)</text></g><g class="g-xtitle" transform="translate(0,-15)"><text class="xtitle" x="479" y="780" text-anchor="middle" style="font-family: 'Open Sans', verdana, arial, sans-serif; font-size: 14px; fill: rgb(68, 68, 68); opacity: 1; font-weight: normal; white-space: pre;">Date</text></g><g class="g-ytitle"><text class="ytitle" transform="rotate(-90,22,376.5)" x="22" y="376.5" text-anchor="middle" style="font-family: 'Open Sans', verdana, arial, sans-serif; font-size: 14px; fill: rgb(68, 68, 68); opacity: 1; font-weight: normal; white-space: pre;">Number of cases</text></g></g></svg>