<svg class="main-svg" xmlns="http://www.w3.org/2000/svg" xmlns:xlink="http://www.w3.org/1999/xlink" width="1027" height="768" style="" viewBox="0 0 1027 768"><rect x="0" y="0" width="1027" height="768" style="fill: rgb(255, 255, 255); fill-opacity: 1;"/><defs id="defs-a404a7"><g class="clips"><clipPath id="clipa404a7xyplot" class="plotclip"><rect width="838" height="703"/></clipPath><clipPath class="axesclip" id="clipa404a7x"><rect x="60" y="0" width="838" height="768"/></clipPath><clipPath class="axesclip" id="clipa404a7y"><rect x="0" y="25" width="1027" height="703"/></clipPath><clipPath class="axesclip" id="clipa404a7xy"><rect x="60" y="25" width="838" height="703"/></clipPath></g><g class="gradients"/></defs><g class="bglayer"/><g class="layer-below"><g class="imagelayer"/><g class="shapelayer"/></g><g class="cartesianlayer"><g class="subplot xy"><g class="layer-subplot"><g class="shapelayer"/><g class="imagelayer"/></g><g class="gridlayer"><g class="x"><path class="xgrid crisp" transform="translate(93.97,0)" d="M0,25v703" style="stroke: rgb(238, 238, 238); stroke-opacity: 1; stroke-width: 1px;"/><path class="xgrid crisp" transform="translate(181.74,0)" d="M0,25v703" style="stroke: rgb(238, 238, 238); stroke-opacity: 1; stroke-width: 1px;"/><path class="xgrid crisp" transform="translate(266.66999999999996,0)" d="M0,25v703" style="stroke: rgb(238, 238, 238); stroke-opacity: 1; stroke-width: 1px;"/><path class="xgrid crisp" transform="translate(354.43,0)" d="M0,25v703" style="stroke: rgb(238, 238, 238); stroke-opacity: 1; stroke-width: 1px;"/><path class="xgrid crisp" transform="translate(439.36,0)" d="M0,25v703" style="stroke: rgb(238, 238, 238); stroke-opacity: 1; stroke-width: 1px;"/><path class="xgrid crisp" transform="translate(527.13,0)" d="M0,25v703" style="stroke: rgb(238, 238, 238); stroke-opacity: 1; stroke-width: 1px;"/><path class="xgrid crisp" transform="translate(614.89,0)" d="M0,25v703" style="stroke: rgb(238, 238, 238); stroke-opacity: 1; stroke-width: 1px;"/><path class="xgrid crisp" transform="translate(699.82,0)" d="M0,25v703" style="stroke: rgb(238, 238, 238); stroke-opacity: 1; stroke-width: 1px;"/><path class="xgrid crisp" transform="translate(787.59,0)" d="M0,25v703" style="stroke: rgb(238, 238, 238); stroke-opacity: 1; stroke-width: 1px;"/><path class="xgrid crisp" transform="translate(872.52,0)" d="M0,25v703" style="stroke: rgb(238, 238, 238); stroke-opacity: 1; stroke-width: 1px;"/></g><g class="y"><path class="ygrid crisp" transform="translate(0,533.0799999999999)" d="M60,0h838" style="stroke: rgb(238, 238, 238); stroke-opacity: 1; stroke-width: 1px;"/><path class="ygrid crisp" transform="translate(0,373.63)" d="M60,0h838" style="stroke: rgb(238, 238, 238); stroke-opacity: 1; stroke-width: 1px;"/><path class="ygrid crisp" transform="translate(0,214.18)" d="M60,0h838" style="stroke: rgb(238, 238, 238); stroke-opacity: 1; stroke-width: 1px;"/><path class="ygrid crisp" transform="translate(0,54.730000000000004)" d="M60,0h838" style="stroke: rgb(238, 238, 238); stroke-opacity: 1; stroke-width: 1px;"/></g></g><g class="zerolinelayer"><path class="yzl zl crisp" transform="translate(0,692.53)" d="M60,0h838" style="stroke: rgb(68, 68, 68); stroke-opacity: 1; stroke-width: 1px;"/></g><path class="xlines-below"/><path class="ylines-below"/><g class="overlines-below"/><g class="xaxislayer-below"/><g class="yaxislayer-below"/><g class="overaxes-below"/><g class="plot" transform="translate(60, 25)" clip-path="url('#clipa404a7xyplot')"><g class="scatterlayer mlayer"><g class="trace scatter trace02f7fb" style="stroke-miterlimit: 2; opacity: 1;"><g class="fills"/><g class="errorbars"/><g class="lines"><path class="js-line" d="M0,667.53L28.31,667.21L36.8,663.7L39.64,666.89L42.47,667.53L48.13,666.26L50.96,666.89L56.62,665.3L59.45,667.53L62.28,665.62L65.11,662.11L70.78,659.88L73.61,654.14L76.44,657.33L79.27,664.02L84.93,653.82L87.76,648.4L90.59,649.35L93.43,653.5L96.26,642.98L99.09,641.06L101.92,637.24L104.75,613.96L107.58,625.44L110.41,619.7L113.24,479.7L116.07,584.62L118.91,531.68L121.74,539.65L124.57,520.2L127.4,547.94L130.23,537.42L133.06,568.99L135.89,546.67L138.72,492.14L141.55,513.5L144.39,515.1L147.22,536.46L150.05,539.65L152.88,533.27L155.71,513.5L158.54,509.99L161.37,503.62L164.2,487.67L167.03,512.86L169.86,486.4L172.7,474.28L178.36,504.89L181.19,465.35L184.02,463.43L186.85,515.73L189.68,528.17L192.51,532.32L195.34,500.11L198.18,556.87L201.01,521.16L203.84,533.27L206.67,504.57L209.5,529.13L212.33,549.54L215.16,544.12L217.99,536.14L220.82,540.29L223.66,515.42L226.49,557.19L229.32,573.77L232.15,569.31L234.98,552.41L237.81,562.61L240.64,557.51L243.47,558.79L246.3,542.84L249.14,559.1L251.97,570.59L254.8,531.36L257.63,543.16L260.46,535.82L263.29,526.9L266.12,536.14L268.95,520.84L271.78,538.7L274.61,576.01L277.45,574.41L280.28,545.39L283.11,557.83L285.94,564.53L288.77,563.57L291.6,538.7L294.43,525.3L297.26,559.74L300.09,554L302.93,557.83L305.76,522.43L308.59,535.19L311.42,590.04L314.25,594.18L317.08,587.49L319.91,602.79L322.74,609.49L325.57,582.7L328.41,604.71L331.24,609.81L334.07,608.85L336.9,606.94L339.73,612.36L342.56,610.77L345.39,601.84L348.22,611.72L351.05,616.19L353.89,598.65L356.72,615.55L359.55,607.26L362.38,632.13L365.21,616.51L368.04,610.77L370.87,585.57L373.7,617.46L376.53,620.01L379.36,618.74L382.2,614.91L385.03,628.94L390.69,618.42L393.52,631.81L396.35,629.9L399.18,613.32L402.01,630.54L404.84,626.07L407.68,626.39L410.51,630.54L413.34,632.13L416.17,635L419,632.13L421.83,632.13L424.66,614.59L427.49,615.23L430.32,624.48L433.16,602.79L435.99,614.91L438.82,634.68L441.65,605.35L444.48,623.52L447.31,623.84L450.14,629.58L452.97,632.13L455.8,643.29L458.64,639.15L461.47,624.8L467.13,630.54L469.96,639.47L472.79,638.51L475.62,640.11L478.45,637.24L481.28,639.47L484.11,645.21L486.95,642.34L489.78,630.86L492.61,657.01L495.44,637.24L498.27,642.66L503.93,633.73L506.76,641.7L509.59,635.96L512.43,627.67L518.09,643.29L520.92,625.76L523.75,633.09L526.58,630.86L529.41,634.05L532.24,635.64L535.07,639.47L537.91,629.9L540.74,628.63L543.57,620.33L546.4,631.81L549.23,631.18L552.06,631.81L554.89,625.12L557.72,625.44L560.55,620.33L563.39,613.64L566.22,617.14L569.05,606.94L571.88,608.53L574.71,620.01L577.54,613.32L580.37,599.61L583.2,593.55L586.03,602.48L588.86,567.72L591.7,587.49L594.53,567.08L597.36,574.09L600.19,539.65L603.02,537.74L605.85,551.13L611.51,515.1L614.34,560.7L617.18,537.1L620.01,537.1L622.84,528.81L625.67,510.95L628.5,444.3L631.33,490.86L634.16,468.22L636.99,495.96L639.82,434.1L642.66,459.29L645.49,487.03L648.32,471.41L651.15,492.77L653.98,481.61L656.81,413.37L659.64,368.08L665.3,460.56L668.14,410.18L670.97,429.63L673.8,437.6L676.63,417.83L679.46,440.47L682.29,410.82L685.12,457.69L687.95,443.02L690.78,405.71L693.61,415.6L696.45,399.34L699.28,404.12L702.11,355.65L704.94,335.24L707.77,396.15L710.6,403.8L713.43,401.57L716.26,369.68L719.09,381.8L721.93,343.85L724.76,355.96L727.59,365.21L730.42,332.68L733.25,352.78L736.08,349.27L738.91,347.67L741.74,306.53L744.57,244.03L747.41,271.46L750.24,224.9L753.07,212.78L755.9,165.26L758.73,222.35L761.56,163.35L764.39,269.54L767.22,193.33L770.05,269.22L772.89,215.65L775.72,281.66L781.38,161.12L784.21,178.34L787.04,160.8L789.87,345.76L792.7,229.68L795.53,196.2L798.36,75.97L801.2,86.49L804.03,122.85L806.86,110.73L809.69,123.17L812.52,118.06L815.35,85.86L818.18,99.89L823.84,53.97L826.68,53.65L829.51,133.05L832.34,64.81L835.17,35.15L838,78.2" style="vector-effect: non-scaling-stroke; fill: none; stroke: rgb(31, 119, 180); stroke-opacity: 1; stroke-width: 2px; opacity: 1;"/></g><g class="points"/><g class="text"/></g><g class="trace scatter tracefd8b37" style="stroke-miterlimit: 2; opacity: 1;"><g class="fills"/><g class="errorbars"/><g class="lines"><path class="js-line" d="M0,667.53L110.41,667.53L113.24,532.64L116.07,634.68L118.91,618.1L121.74,622.25L124.57,606.3L127.4,605.03L130.23,594.18L133.06,611.72L135.89,610.77L138.72,580.79L141.55,593.86L144.39,581.75L147.22,576.96L152.88,592.27L155.71,600.24L158.54,561.02L161.37,574.41L164.2,552.09L167.03,565.8L169.86,561.02L172.7,569.95L175.53,574.73L178.36,535.19L181.19,521.16L184.02,537.74L186.85,532.95L189.68,510.95L192.51,500.11L195.34,527.53L198.18,460.88L201.01,478.42L203.84,469.81L206.67,487.35L209.5,471.41L212.33,508.08L215.16,580.15L217.99,526.26L220.82,556.87L223.66,533.27L226.49,542.2L229.32,543.48L232.15,553.05L234.98,584.62L237.81,522.75L240.64,553.05L243.47,528.17L246.3,546.67L249.14,559.1L251.97,578.88L254.8,584.62L257.63,574.41L260.46,565.8L263.29,585.25L266.12,546.67L268.95,561.97L271.78,597.05L274.61,584.62L277.45,535.51L280.28,571.54L283.11,568.67L285.94,549.54L288.77,521.79L291.6,558.15L294.43,561.97L297.26,563.25L300.09,540.93L302.93,547.94L305.76,551.45L308.59,570.27L311.42,590.99L314.25,560.06L317.08,491.82L319.91,506.49L322.74,571.22L325.57,555.6L328.41,532.64L331.24,587.17L334.07,598.01L336.9,554.96L339.73,597.37L342.56,589.08L345.39,598.01L348.22,587.49L353.89,612.04L356.72,594.5L359.55,606.3L362.38,595.46L365.21,610.77L368.04,611.72L370.87,639.15L373.7,620.33L376.53,609.49L379.36,602.48L382.2,610.45L385.03,612.04L387.86,609.17L390.69,616.51L393.52,611.09L396.35,603.11L399.18,612.68L402.01,610.77L404.84,582.38L407.68,631.81L410.51,626.39L413.34,628.63L416.17,624.48L419,622.57L421.83,635.32L424.66,625.44L427.49,631.5L430.32,633.73L433.16,638.19L435.99,601.52L438.82,619.38L441.65,623.84L444.48,622.88L447.31,629.58L450.14,635L452.97,633.73L455.8,612.04L458.64,614.91L461.47,613.96L464.3,615.55L467.13,628.63L469.96,627.35L472.79,630.54L475.62,620.97L478.45,616.83L481.28,629.9L484.11,633.41L486.95,620.33L489.78,635L492.61,643.61L495.44,624.8L498.27,635.96L501.1,641.06L503.93,635.32L506.76,642.02L509.59,641.06L512.43,638.83L515.26,639.15L518.09,643.29L520.92,633.73L523.75,638.83L526.58,633.09L529.41,642.66L532.24,643.61L535.07,630.86L537.91,642.98L540.74,641.06L543.57,634.68L546.4,642.66L549.23,644.25L552.06,638.19L554.89,623.84L557.72,629.58L560.55,630.54L563.39,633.73L566.22,632.13L569.05,629.58L571.88,629.58L574.71,624.16L577.54,622.25L580.37,627.99L583.2,629.58L586.03,627.99L588.86,625.12L591.7,630.22L594.53,618.42L597.36,610.45L600.19,611.4L603.02,611.09L605.85,606.62L608.68,610.77L611.51,605.03L614.34,585.25L617.18,576.33L620.01,577.28L622.84,559.74L625.67,575.37L628.5,561.97L631.33,564.53L634.16,521.79L636.99,503.3L639.82,531.04L642.66,528.81L645.49,497.24L651.15,493.41L653.98,442.07L656.81,445.89L659.64,436.65L662.47,444.3L665.3,442.71L670.97,468.54L673.8,417.83L676.63,419.11L679.46,440.15L682.29,450.04L685.12,449.08L687.95,473.96L690.78,467.26L693.61,438.24L696.45,431.23L699.28,433.78L702.11,468.22L704.94,432.82L707.77,451L710.6,447.17L713.43,421.02L716.26,406.03L719.09,413.69L721.93,413.05L724.76,392L727.59,404.12L730.42,400.61L733.25,366.17L736.08,365.21L738.91,364.89L741.74,395.83L744.57,387.85L747.41,405.71L750.24,418.47L753.07,384.98L755.9,375.1L758.73,342.89L761.56,347.67L764.39,328.86L767.22,351.18L770.05,305.58L772.89,190.77L775.72,228.72L778.55,216.29L781.38,232.87L787.04,194.28L789.87,322.48L792.7,196.83L795.53,232.23L798.36,204.81L801.2,185.99L804.03,207.36L806.86,246.58L809.69,229.68L812.52,129.86L815.35,176.1L818.18,172.28L821.01,149.64L823.84,165.58L826.68,217.24L829.51,173.55L832.34,53.97L835.17,92.23L838,108.5" style="vector-effect: non-scaling-stroke; fill: none; stroke: rgb(255, 127, 14); stroke-opacity: 1; stroke-width: 2px; opacity: 1;"/></g><g class="points"/><g class="text"/></g><g class="trace scatter trace100676" style="stroke-miterlimit: 2; opacity: 1;"><g class="fills"/><g class="errorbars"/><g class="lines"><path class="js-line" d="M0,667.53L99.09,666.89L101.92,665.94L104.75,666.89L107.58,666.57L110.41,667.21L113.24,666.26L116.07,664.34L118.91,666.26L121.74,662.43L124.57,663.07L127.4,658.92L130.23,659.56L133.06,663.39L135.89,660.83L138.72,660.83L141.55,659.24L144.39,660.52L147.22,657.65L150.05,660.83L152.88,662.11L155.71,653.82L158.54,651.27L161.37,655.41L164.2,649.99L167.03,656.05L169.86,655.09L172.7,657.65L175.53,655.41L178.36,655.73L181.19,650.31L186.85,652.22L189.68,659.88L192.51,649.35L195.34,648.72L198.18,653.18L201.01,640.11L203.84,655.09L206.67,649.99L209.5,654.78L212.33,640.74L215.16,648.08L217.99,645.85L220.82,652.22L223.66,647.44L226.49,648.72L229.32,656.37L232.15,656.37L234.98,649.67L237.81,654.78L240.64,657.01L243.47,658.92L246.3,657.01L249.14,660.2L251.97,660.2L254.8,662.75L257.63,653.82L260.46,657.65L263.29,658.6L268.95,659.56L271.78,658.28L274.61,660.83L277.45,657.33L280.28,656.69L283.11,654.46L285.94,662.11L288.77,661.47L291.6,664.34L294.43,662.11L297.26,661.47L300.09,653.18L302.93,662.75L305.76,656.37L308.59,661.47L311.42,659.88L314.25,663.07L317.08,664.02L322.74,664.02L325.57,664.66L328.41,663.7L331.24,664.98L336.9,663.7L339.73,666.57L342.56,664.02L345.39,657.65L348.22,664.02L351.05,666.57L353.89,664.34L356.72,663.7L359.55,664.34L362.38,666.57L365.21,664.98L368.04,665.62L373.7,665.3L376.53,666.26L382.2,666.89L385.03,665.94L390.69,667.53L393.52,666.89L396.35,664.66L399.18,666.57L402.01,665.3L404.84,665.62L407.68,666.57L410.51,666.57L413.34,667.21L416.17,664.66L419,665.94L421.83,664.66L424.66,666.89L427.49,666.57L433.16,667.21L435.99,666.89L438.82,667.53L441.65,666.57L444.48,667.21L447.31,666.26L450.14,667.21L452.97,666.26L455.8,667.21L458.64,666.57L467.13,667.21L469.96,667.53L472.79,666.26L475.62,667.53L486.95,666.89L489.78,667.53L509.59,667.53L512.43,666.26L515.26,667.85L518.09,667.21L520.92,666.57L523.75,667.21L529.41,667.21L532.24,666.89L537.91,667.21L540.74,665.62L543.57,667.53L546.4,667.21L563.39,667.53L566.22,666.89L571.88,667.53L574.71,667.53L577.54,667.21L580.37,667.85L586.03,667.21L588.86,667.21L591.7,666.26L594.53,666.89L597.36,666.57L600.19,667.53L614.34,666.57L617.18,667.21L628.5,667.21L631.33,666.26L636.99,666.57L639.82,643.29L645.49,665.3L648.32,665.94L651.15,665.3L653.98,667.21L659.64,665.94L662.47,665.3L665.3,667.21L668.14,666.57L670.97,664.66L673.8,667.53L679.46,664.66L682.29,664.34L685.12,665.94L687.95,666.26L690.78,666.57L693.61,664.66L699.28,664.66L702.11,665.62L707.77,665.62L710.6,666.26L713.43,665.94L716.26,664.34L727.59,665.3L730.42,663.07L733.25,662.43L736.08,663.39L738.91,663.07L741.74,664.02L744.57,663.39L747.41,663.7L750.24,662.75L753.07,662.75L758.73,661.47L761.56,661.15L764.39,658.28L767.22,664.34L770.05,663.7L772.89,657.33L775.72,658.6L778.55,664.98L781.38,660.83L784.21,663.07L787.04,661.47L789.87,663.07L792.7,656.37L795.53,660.83L798.36,661.15L801.2,658.28L804.03,659.88L806.86,664.98L809.69,665.3L812.52,656.37L815.35,663.07L818.18,659.56L823.84,662.75L826.68,659.24L829.51,664.34L832.34,658.6L835.17,656.37L838,653.18" style="vector-effect: non-scaling-stroke; fill: none; stroke: rgb(44, 160, 44); stroke-opacity: 1; stroke-width: 2px; opacity: 1;"/></g><g class="points"/><g class="text"/></g></g></g><g class="overplot"/><path class="xlines-above crisp" style="fill: none;" d="M0,0"/><path class="ylines-above crisp" style="fill: none;" d="M0,0"/><g class="overlines-above"/><g class="xaxislayer-above"><g class="xtick"><text text-anchor="middle" x="0" y="741" transform="translate(93.97,0)" style="font-family: 'Open Sans', verdana, arial, sans-serif; font-size: 12px; fill: rgb(68, 68, 68); fill-opacity: 1; white-space: pre;">Mar 2020</text></g><g class="xtick"><text text-anchor="middle" x="0" y="741" transform="translate(181.74,0)" style="font-family: 'Open Sans', verdana, arial, sans-serif; font-size: 12px; fill: rgb(68, 68, 68); fill-opacity: 1; white-space: pre;">Apr 2020</text></g><g class="xtick"><text text-anchor="middle" x="0" y="741" transform="translate(266.66999999999996,0)" style="font-family: 'Open Sans', verdana, arial, sans-serif; font-size: 12px; fill: rgb(68, 68, 68); fill-opacity: 1; white-space: pre;">May 2020</text></g><g class="xtick"><text text-anchor="middle" x="0" y="741" transform="translate(354.43,0)" style="font-family: 'Open Sans', verdana, arial, sans-serif; font-size: 12px; fill: rgb(68, 68, 68); fill-opacity: 1; white-space: pre;">Jun 2020</text></g><g class="xtick"><text text-anchor="middle" x="0" y="741" transform="translate(439.36,0)" style="font-family: 'Open Sans', verdana, arial, sans-serif; font-size: 12px; fill: rgb(68, 68, 68); fill-opacity: 1; white-space: pre;">Jul 2020</text></g><g class="xtick"><text text-anchor="middle" x="0" y="741" transform="translate(527.13,0)" style="font-family: 'Open Sans', verdana, arial, sans-serif; font-size: 12px; fill: rgb(68, 68, 68); fill-opacity: 1; white-space: pre;">Aug 2020</text></g><g class="xtick"><text text-anchor="middle" x="0" y="741" transform="translate(614.89,0)" style="font-family: 'Open Sans', verdana, arial, sans-serif; font-size: 12px; fill: rgb(68, 68, 68); fill-opacity: 1; white-space: pre;">Sep 2020</text></g><g class="xtick"><text text-anchor="middle" x="0" y="741" transform="translate(699.82,0)" style="font-family: 'Open Sans', verdana, arial, sans-serif; font-size: 12px; fill: rgb(68, 68, 68); fill-opacity: 1; white-space: pre;">Oct 2020</text></g><g class="xtick"><text text-anchor="middle" x="0" y="741" transform="translate(787.59,0)" style="font-family: 'Open Sans', verdana, arial, sans-serif; font-size: 12px; fill: rgb(68, 68, 68); fill-opacity: 1; white-space: pre;">Nov 2020</text></g><g class="xtick"><text text-anchor="middle" x="0" y="741" transform="translate(872.52,0)" style="font-family: 'Open Sans', verdana, arial, sans-serif; font-size: 12px; fill: rgb(68, 68, 68); fill-opacity: 1; white-space: pre;">Dec 2020</text></g></g><g class="yaxislayer-above"><g class="ytick"><text text-anchor="end" x="59" y="4.199999999999999" transform="translate(0,692.53)" style="font-family: 'Open Sans', verdana, arial, sans-serif; font-size: 12px; fill: rgb(68, 68, 68); fill-opacity: 1; white-space: pre;">0</text></g><g class="ytick"><text text-anchor="end" x="59" y="4.199999999999999" transform="translate(0,533.0799999999999)" style="font-family: 'Open Sans', verdana, arial, sans-serif; font-size: 12px; fill: rgb(68, 68, 68); fill-opacity: 1; white-space: pre;">500</text></g><g class="ytick"><text text-anchor="end" x="59" y="4.199999999999999" transform="translate(0,373.63)" style="font-family: 'Open Sans', verdana, arial, sans-serif; font-size: 12px; fill: rgb(68, 68, 68); fill-opacity: 1; white-space: pre;">1000</text></g><g class="ytick"><text text-anchor="end" x="59" y="4.199999999999999" transform="translate(0,214.18)" style="font-family: 'Open Sans', verdana, arial, sans-serif; font-size: 12px; fill: rgb(68, 68, 68); fill-opacity: 1; white-space: pre;">1500</text></g><g class="ytick"><text text-anchor="end" x="59" y="4.199999999999999" transform="translate(0,54.730000000000004)" style="font-family: 'Open Sans', verdana, arial, sans-serif; font-size: 12px; fill: rgb(68, 68, 68); fill-opacity: 1; white-space: pre;">2000</text></g></g><g class="overaxes-above"/></g></g><g class="polarlayer"/><g class="ternarylayer"/><g class="geolayer"/><g class="funnelarealayer"/><g class="pielayer"/><g class="treemaplayer"/><g class="sunburstlayer"/><g class="glimages"/><defs id="topdefs-a404a7"><g class="clips"/><clipPath id="legenda404a7"><rect width="102" height="67" x="0" y="0"/></clipPath></defs><g class="layer-above"><g class="imagelayer"/><g class="shapelayer"/></g><g class="infolayer"><g class="legend" pointer-events="all" transform="translate(914.76, 25)"><rect class="bg" shape-rendering="crispEdges" style="stroke: rgb(68, 68, 68); stroke-opacity: 1; fill: rgb(255, 255, 255); fill-opacity: 1; stroke-width: 0px;" width="102" height="67" x="0" y="0"/><g class="scrollbox" transform="translate(0, 0)" clip-path="url('#legenda404a7')"><g class="groups"><g class="traces" style="opacity: 1;" transform="translate(0, 14.5)"><text class="legendtext user-select-none" text-anchor="start" x="40" y="4.680000000000001" style="font-family: 'Open Sans', verdana, arial, sans-serif; font-size: 12px; fill: rgb(68, 68, 68); fill-opacity: 1; white-space: pre;">positive</text><g class="layers" style="opacity: 1;"><g class="legendfill"/><g class="legendlines"><path class="js-line" d="M5,0h30" style="fill: none; stroke: rgb(31, 119, 180); stroke-opacity: 1; stroke-width: 2px;"/></g><g class="legendsymbols"><g class="legendpoints"/></g></g><rect class="legendtoggle" pointer-events="all" x="0" y="-9.5" width="96.109375" height="19" style="cursor: pointer; fill: rgb(0, 0, 0); fill-opacity: 0;"/></g><g class="traces" style="opacity: 1;" transform="translate(0, 33.5)"><text class="legendtext user-select-none" text-anchor="start" x="40" y="4.680000000000001" style="font-family: 'Open Sans', verdana, arial, sans-serif; font-size: 12px; fill: rgb(68, 68, 68); fill-opacity: 1; white-space: pre;">resolved</text><g class="layers" style="opacity: 1;"><g class="legendfill"/><g class="legendlines"><path class="js-line" d="M5,0h30" style="fill: none; stroke: rgb(255, 127, 14); stroke-opacity: 1; stroke-width: 2px;"/></g><g class="legendsymbols"><g class="legendpoints"/></g></g><rect class="legendtoggle" pointer-events="all" x="0" y="-9.5" width="96.109375" height="19" style="cursor: pointer; fill: rgb(0, 0, 0); fill-opacity: 0;"/></g><g class="traces" style="opacity: 1;" transform="translate(0, 52.5)"><text class="legendtext user-select-none" text-anchor="start" x="40" y="4.680000000000001" style="font-family: 'Open Sans', verdana, arial, sans-serif; font-size: 12px; fill: rgb(68, 68, 68); fill-opacity: 1; white-space: pre;">deceased</text><g class="layers" style="opacity: 1;"><g class="legendfill"/><g class="legendlines"><path class="js-line" d="M5,0h30" style="fill: none; stroke: rgb(44, 160, 44); stroke-opacity: 1; stroke-width: 2px;"/></g><g class="legendsymbols"><g class="legendpoints"/></g></g><rect class="legendtoggle" pointer-events="all" x="0" y="-9.5" width="96.109375" height="19" style="cursor: pointer; fill: rgb(0, 0, 0); fill-opacity: 0;"/></g></g></g><rect class="scrollbar" rx="20" ry="3" width="0" height="0" style="fill: rgb(128, 139, 164); fill-opacity: 1;" x="0" y="0"/></g><g class="g-gtitle"><text class="gtitle" x="513.5" y="12.5" text-anchor="middle" dy="0em" style="font-family: 'Open Sans', verdana, arial, sans-serif; font-size: 17px; fill: rgb(68, 68, 68); opacity: 1; font-weight: normal; white-space: pre;">Dynamics of new cases, resolved cases and deaths in Ontario (Dec 11, 2020)</text></g><g class="g-xtitle" transform="translate(0,-15)"><text class="xtitle" x="479" y="780" text-anchor="middle" style="font-family: 'Open Sans', verdana, arial, sans-serif; font-size: 14px; fill: rgb(68, 68, 68); opacity: 1; font-weight: normal; white-space: pre;">Date</text></g><g class="g-ytitle"><text class="ytitle" transform="rotate(-90,22,376.5)" x="22" y="376.5" text-anchor="middle" style="font-family: 'Open Sans', verdana, arial, sans-serif; font-size: 14px; fill: rgb(68, 68, 68); opacity: 1; font-weight: normal; white-space: pre;">Number of cases</text></g></g></svg>