<svg class="main-svg" xmlns="http://www.w3.org/2000/svg" xmlns:xlink="http://www.w3.org/1999/xlink" width="1027" height="768" style="" viewBox="0 0 1027 768"><rect x="0" y="0" width="1027" height="768" style="fill: rgb(255, 255, 255); fill-opacity: 1;"/><defs id="defs-6d4677"><g class="clips"><clipPath id="clip6d4677xyplot" class="plotclip"><rect width="838" height="703"/></clipPath><clipPath class="axesclip" id="clip6d4677x"><rect x="60" y="0" width="838" height="768"/></clipPath><clipPath class="axesclip" id="clip6d4677y"><rect x="0" y="25" width="1027" height="703"/></clipPath><clipPath class="axesclip" id="clip6d4677xy"><rect x="60" y="25" width="838" height="703"/></clipPath></g><g class="gradients"/></defs><g class="bglayer"/><g class="layer-below"><g class="imagelayer"/><g class="shapelayer"/></g><g class="cartesianlayer"><g class="subplot xy"><g class="layer-subplot"><g class="shapelayer"/><g class="imagelayer"/></g><g class="gridlayer"><g class="x"><path class="xgrid crisp" transform="translate(124.88,0)" d="M0,25v703" style="stroke: rgb(238, 238, 238); stroke-opacity: 1; stroke-width: 1px;"/><path class="xgrid crisp" transform="translate(292.48,0)" d="M0,25v703" style="stroke: rgb(238, 238, 238); stroke-opacity: 1; stroke-width: 1px;"/><path class="xgrid crisp" transform="translate(454.67,0)" d="M0,25v703" style="stroke: rgb(238, 238, 238); stroke-opacity: 1; stroke-width: 1px;"/><path class="xgrid crisp" transform="translate(622.27,0)" d="M0,25v703" style="stroke: rgb(238, 238, 238); stroke-opacity: 1; stroke-width: 1px;"/><path class="xgrid crisp" transform="translate(784.46,0)" d="M0,25v703" style="stroke: rgb(238, 238, 238); stroke-opacity: 1; stroke-width: 1px;"/></g><g class="y"><path class="ygrid crisp" transform="translate(0,594.39)" d="M60,0h838" style="stroke: rgb(238, 238, 238); stroke-opacity: 1; stroke-width: 1px;"/><path class="ygrid crisp" transform="translate(0,496.9)" d="M60,0h838" style="stroke: rgb(238, 238, 238); stroke-opacity: 1; stroke-width: 1px;"/><path class="ygrid crisp" transform="translate(0,399.41)" d="M60,0h838" style="stroke: rgb(238, 238, 238); stroke-opacity: 1; stroke-width: 1px;"/><path class="ygrid crisp" transform="translate(0,301.92)" d="M60,0h838" style="stroke: rgb(238, 238, 238); stroke-opacity: 1; stroke-width: 1px;"/><path class="ygrid crisp" transform="translate(0,204.43)" d="M60,0h838" style="stroke: rgb(238, 238, 238); stroke-opacity: 1; stroke-width: 1px;"/><path class="ygrid crisp" transform="translate(0,106.94)" d="M60,0h838" style="stroke: rgb(238, 238, 238); stroke-opacity: 1; stroke-width: 1px;"/></g></g><g class="zerolinelayer"><path class="yzl zl crisp" transform="translate(0,691.88)" d="M60,0h838" style="stroke: rgb(68, 68, 68); stroke-opacity: 1; stroke-width: 1px;"/></g><path class="xlines-below"/><path class="ylines-below"/><g class="overlines-below"/><g class="xaxislayer-below"/><g class="yaxislayer-below"/><g class="overaxes-below"/><g class="plot" transform="translate(60, 25)" clip-path="url('#clip6d4677xyplot')"><g class="scatterlayer mlayer"><g class="trace scatter tracee11adf" style="stroke-miterlimit: 2; opacity: 1;"><g class="fills"/><g class="errorbars"/><g class="lines"><path class="js-line" d="M0,666.88L5.41,666.88L10.81,667.85L16.22,667.85L32.44,665.9L43.25,666.88L48.66,665.9L54.06,665.9L70.28,655.18L75.69,664.93L81.1,666.88L86.5,665.9L91.91,662.98L97.32,664.93L108.13,660.05L113.54,666.88L118.94,661.03L124.35,650.3L129.75,647.38L135.16,643.48L140.57,625.93L145.97,635.68L151.38,656.15L156.79,642.5L162.19,624.96L167.6,608.38L173.01,611.31L178.41,623.98L183.82,591.81L189.23,585.96L194.63,574.26L200.04,503.09L205.45,538.19L210.85,520.64L216.26,92.67L221.66,413.41L227.07,251.57L232.48,275.95L237.88,216.48L243.29,301.29L248.7,269.12L254.1,365.64L259.51,297.39L264.92,130.69L270.32,196.01L275.73,200.88L281.14,266.2L286.54,275.95L291.95,256.45L297.35,196.01L302.76,185.28L308.17,165.78L313.57,117.04L318.98,194.06L324.39,113.14L329.79,76.1L335.2,129.71L340.61,169.68L346.01,48.8L351.42,42.95L356.83,202.83L362.23,240.85L367.64,253.52L373.05,155.06L378.45,328.59L383.86,219.4L389.26,256.45L394.67,168.71L400.08,243.78L405.48,306.17L410.89,289.59L416.3,265.22L421.7,277.9L427.11,201.86L432.52,329.57L437.92,380.26L443.33,366.61L448.74,314.94L454.14,346.14L459.55,330.54L464.95,334.44L470.36,285.7L475.77,335.41L481.17,370.51L486.58,250.6L491.99,286.67L497.39,264.25L502.8,236.95L508.21,265.22L513.61,218.43L519.02,273.02L524.43,387.08L529.83,382.21L535.24,293.49L540.65,331.51L546.05,351.99L551.46,349.06L556.86,273.02L562.27,232.08L567.68,337.36L573.08,319.82L578.49,331.51L583.9,223.3L589.3,262.3L594.71,429.98L600.12,442.65L605.52,422.18L610.93,468.97L616.34,489.45L621.74,407.56L627.15,474.82L632.55,490.42L637.96,487.5L643.37,481.65L648.77,498.22L654.18,493.35L659.59,466.05L664.99,496.27L670.4,509.92L675.81,456.3L681.21,507.97L686.62,482.62L692.03,558.66L697.43,510.89L702.84,493.35L708.25,416.33L713.65,513.82L719.06,521.62L724.46,517.72L729.87,506.02L735.28,548.91L746.09,516.74L751.5,557.69L756.9,551.84L762.31,501.14L767.72,553.79L773.12,540.14L778.53,541.12L783.94,553.79L789.34,558.66L794.75,567.44L800.15,558.66L805.56,558.66L810.97,505.04L816.37,506.99L821.78,535.27L827.19,468.97L832.59,506.02L838,566.46" style="vector-effect: non-scaling-stroke; fill: none; stroke: rgb(31, 119, 180); stroke-opacity: 1; stroke-width: 2px; opacity: 1;"/></g><g class="points"/><g class="text"/></g><g class="trace scatter trace9117d8" style="stroke-miterlimit: 2; opacity: 1;"><g class="fills"/><g class="errorbars"/><g class="lines"><path class="js-line" d="M0,666.88L5.41,666.88L10.81,665.9L16.22,665.9L32.44,666.88L81.1,666.88L86.5,665.9L91.91,666.88L97.32,666.88L108.13,666.88L113.54,665.9L118.94,666.88L124.35,666.88L167.6,666.88L173.01,665.9L178.41,664.93L183.82,666.88L210.85,666.88L216.26,254.5L221.66,566.46L227.07,515.77L232.48,528.44L237.88,479.7L243.29,475.8L248.7,442.65L254.1,496.27L259.51,493.35L264.92,401.71L270.32,441.68L275.73,404.63L281.14,390.01L286.54,410.48L291.95,436.8L297.35,461.17L302.76,341.26L308.17,382.21L313.57,313.97L318.98,355.89L324.39,341.26L329.79,368.56L335.2,383.18L340.61,262.3L346.01,219.4L351.42,270.1L356.83,255.47L362.23,188.21L367.64,155.06L373.05,238.9L378.45,35.15L383.86,88.77L389.26,62.45L394.67,116.07L400.08,67.32L405.48,179.43L410.89,399.76L416.3,235L421.7,328.59L427.11,256.45L432.52,283.75L437.92,287.65L443.33,316.89L448.74,413.41L454.14,224.28L459.55,316.89L464.95,240.85L470.36,297.39L475.77,335.41L481.17,395.86L486.58,413.41L491.99,382.21L497.39,355.89L502.8,415.35L508.21,297.39L513.61,344.19L519.02,451.43L524.43,413.41L529.83,263.27L535.24,373.43L540.65,364.66L546.05,306.17L551.46,221.35L556.86,332.49L562.27,344.19L567.68,348.09L573.08,279.85L578.49,301.29L583.9,312.02L594.71,432.9L600.12,338.34L605.52,129.71L610.93,174.56L616.34,372.46L621.74,324.69L627.15,254.5L632.55,421.2L637.96,454.35L643.37,322.74L648.77,452.4L654.18,427.05L659.59,454.35L664.99,422.18L675.81,497.25L681.21,443.63L686.62,479.7L692.03,446.55L697.43,493.35L702.84,496.27L708.25,580.11L713.65,522.59L719.06,489.45L724.46,468L729.87,492.37L735.28,497.25L740.68,488.47L746.09,510.89L751.5,494.32L756.9,469.95L762.31,499.19L767.72,493.35L773.12,406.58L778.53,557.69L783.94,541.12L789.34,547.94L794.75,535.27L800.15,529.42L805.56,568.41L810.97,538.19L816.37,556.71L821.78,563.54L827.19,577.19L832.59,465.07L838,519.67" style="vector-effect: non-scaling-stroke; fill: none; stroke: rgb(255, 127, 14); stroke-opacity: 1; stroke-width: 2px; opacity: 1;"/></g><g class="points"/><g class="text"/></g><g class="trace scatter tracee55ee2" style="stroke-miterlimit: 2; opacity: 1;"><g class="fills"/><g class="errorbars"/><g class="lines"><path class="js-line" d="M0,666.88L145.97,666.88L151.38,665.9L156.79,666.88L162.19,665.9L167.6,666.88L173.01,665.9L178.41,664.93L183.82,665.9L189.23,664.93L194.63,662L200.04,664.93L205.45,663.95L210.85,665.9L216.26,662.98L221.66,657.13L227.07,662.98L232.48,651.28L237.88,653.23L243.29,640.55L248.7,642.5L254.1,654.2L259.51,646.4L264.92,646.4L270.32,641.53L275.73,645.43L281.14,636.65L286.54,646.4L291.95,650.3L297.35,624.96L302.76,617.16L308.17,629.83L313.57,613.26L318.98,631.78L324.39,628.85L329.79,636.65L335.2,629.83L340.61,630.8L346.01,614.23L351.42,618.13L356.83,620.08L362.23,643.48L367.64,611.31L373.05,609.36L378.45,623.01L383.86,583.04L389.26,628.85L394.67,613.26L400.08,627.88L405.48,584.98L410.89,607.41L416.3,600.58L421.7,620.08L427.11,605.46L432.52,609.36L437.92,632.75L443.33,632.75L448.74,612.28L454.14,627.88L464.95,640.55L470.36,634.7L475.77,644.45L481.17,644.45L486.58,652.25L491.99,624.96L497.39,636.65L502.8,639.58L508.21,640.55L513.61,642.5L519.02,638.6L524.43,646.4L529.83,635.68L535.24,633.73L540.65,626.9L546.05,650.3L551.46,648.35L556.86,657.13L562.27,650.3L567.68,648.35L573.08,623.01L578.49,652.25L583.9,632.75L589.3,648.35L594.71,643.48L600.12,653.23L605.52,656.15L610.93,655.18L616.34,656.15L621.74,658.1L627.15,655.18L632.55,659.08L637.96,656.15L643.37,655.18L648.77,663.95L654.18,656.15L659.59,636.65L664.99,656.15L670.4,663.95L675.81,657.13L681.21,655.18L686.62,657.13L692.03,663.95L697.43,659.08L702.84,661.03L708.25,660.05L713.65,660.05L719.06,662.98L724.46,662.98L729.87,664.93L735.28,662L740.68,664.93L746.09,666.88L751.5,664.93L756.9,658.1L762.31,663.95L767.72,660.05L773.12,661.03L778.53,663.95L783.94,663.95L789.34,665.9L794.75,658.1L800.15,662L805.56,658.1L810.97,664.93L816.37,663.95L821.78,665.9L827.19,665.9L832.59,664.93L838,666.88" style="vector-effect: non-scaling-stroke; fill: none; stroke: rgb(44, 160, 44); stroke-opacity: 1; stroke-width: 2px; opacity: 1;"/></g><g class="points"/><g class="text"/></g></g></g><g class="overplot"/><path class="xlines-above crisp" style="fill: none;" d="M0,0"/><path class="ylines-above crisp" style="fill: none;" d="M0,0"/><g class="overlines-above"/><g class="xaxislayer-above"><g class="xtick"><text text-anchor="middle" x="0" y="741" transform="translate(124.88,0)" style="font-family: 'Open Sans', verdana, arial, sans-serif; font-size: 12px; fill: rgb(68, 68, 68); fill-opacity: 1; white-space: pre;">Mar 2020</text></g><g class="xtick"><text text-anchor="middle" x="0" y="741" transform="translate(292.48,0)" style="font-family: 'Open Sans', verdana, arial, sans-serif; font-size: 12px; fill: rgb(68, 68, 68); fill-opacity: 1; white-space: pre;">Apr 2020</text></g><g class="xtick"><text text-anchor="middle" x="0" y="741" transform="translate(454.67,0)" style="font-family: 'Open Sans', verdana, arial, sans-serif; font-size: 12px; fill: rgb(68, 68, 68); fill-opacity: 1; white-space: pre;">May 2020</text></g><g class="xtick"><text text-anchor="middle" x="0" y="741" transform="translate(622.27,0)" style="font-family: 'Open Sans', verdana, arial, sans-serif; font-size: 12px; fill: rgb(68, 68, 68); fill-opacity: 1; white-space: pre;">Jun 2020</text></g><g class="xtick"><text text-anchor="middle" x="0" y="741" transform="translate(784.46,0)" style="font-family: 'Open Sans', verdana, arial, sans-serif; font-size: 12px; fill: rgb(68, 68, 68); fill-opacity: 1; white-space: pre;">Jul 2020</text></g></g><g class="yaxislayer-above"><g class="ytick"><text text-anchor="end" x="59" y="4.199999999999999" transform="translate(0,691.88)" style="font-family: 'Open Sans', verdana, arial, sans-serif; font-size: 12px; fill: rgb(68, 68, 68); fill-opacity: 1; white-space: pre;">0</text></g><g class="ytick"><text text-anchor="end" x="59" y="4.199999999999999" transform="translate(0,594.39)" style="font-family: 'Open Sans', verdana, arial, sans-serif; font-size: 12px; fill: rgb(68, 68, 68); fill-opacity: 1; white-space: pre;">100</text></g><g class="ytick"><text text-anchor="end" x="59" y="4.199999999999999" transform="translate(0,496.9)" style="font-family: 'Open Sans', verdana, arial, sans-serif; font-size: 12px; fill: rgb(68, 68, 68); fill-opacity: 1; white-space: pre;">200</text></g><g class="ytick"><text text-anchor="end" x="59" y="4.199999999999999" transform="translate(0,399.41)" style="font-family: 'Open Sans', verdana, arial, sans-serif; font-size: 12px; fill: rgb(68, 68, 68); fill-opacity: 1; white-space: pre;">300</text></g><g class="ytick"><text text-anchor="end" x="59" y="4.199999999999999" transform="translate(0,301.92)" style="font-family: 'Open Sans', verdana, arial, sans-serif; font-size: 12px; fill: rgb(68, 68, 68); fill-opacity: 1; white-space: pre;">400</text></g><g class="ytick"><text text-anchor="end" x="59" y="4.199999999999999" transform="translate(0,204.43)" style="font-family: 'Open Sans', verdana, arial, sans-serif; font-size: 12px; fill: rgb(68, 68, 68); fill-opacity: 1; white-space: pre;">500</text></g><g class="ytick"><text text-anchor="end" x="59" y="4.199999999999999" transform="translate(0,106.94)" style="font-family: 'Open Sans', verdana, arial, sans-serif; font-size: 12px; fill: rgb(68, 68, 68); fill-opacity: 1; white-space: pre;">600</text></g></g><g class="overaxes-above"/></g></g><g class="polarlayer"/><g class="ternarylayer"/><g class="geolayer"/><g class="funnelarealayer"/><g class="pielayer"/><g class="treemaplayer"/><g class="sunburstlayer"/><g class="glimages"/><defs id="topdefs-6d4677"><g class="clips"/><clipPath id="legend6d4677"><rect width="102" height="67" x="0" y="0"/></clipPath></defs><g class="layer-above"><g class="imagelayer"/><g class="shapelayer"/></g><g class="infolayer"><g class="legend" pointer-events="all" transform="translate(914.76, 25)"><rect class="bg" shape-rendering="crispEdges" style="stroke: rgb(68, 68, 68); stroke-opacity: 1; fill: rgb(255, 255, 255); fill-opacity: 1; stroke-width: 0px;" width="102" height="67" x="0" y="0"/><g class="scrollbox" transform="translate(0, 0)" clip-path="url('#legend6d4677')"><g class="groups"><g class="traces" style="opacity: 1;" transform="translate(0, 14.5)"><text class="legendtext user-select-none" text-anchor="start" x="40" y="4.680000000000001" style="font-family: 'Open Sans', verdana, arial, sans-serif; font-size: 12px; fill: rgb(68, 68, 68); fill-opacity: 1; white-space: pre;">positive</text><g class="layers" style="opacity: 1;"><g class="legendfill"/><g class="legendlines"><path class="js-line" d="M5,0h30" style="fill: none; stroke: rgb(31, 119, 180); stroke-opacity: 1; stroke-width: 2px;"/></g><g class="legendsymbols"><g class="legendpoints"/></g></g><rect class="legendtoggle" pointer-events="all" x="0" y="-9.5" width="96.109375" height="19" style="cursor: pointer; fill: rgb(0, 0, 0); fill-opacity: 0;"/></g><g class="traces" style="opacity: 1;" transform="translate(0, 33.5)"><text class="legendtext user-select-none" text-anchor="start" x="40" y="4.680000000000001" style="font-family: 'Open Sans', verdana, arial, sans-serif; font-size: 12px; fill: rgb(68, 68, 68); fill-opacity: 1; white-space: pre;">resolved</text><g class="layers" style="opacity: 1;"><g class="legendfill"/><g class="legendlines"><path class="js-line" d="M5,0h30" style="fill: none; stroke: rgb(255, 127, 14); stroke-opacity: 1; stroke-width: 2px;"/></g><g class="legendsymbols"><g class="legendpoints"/></g></g><rect class="legendtoggle" pointer-events="all" x="0" y="-9.5" width="96.109375" height="19" style="cursor: pointer; fill: rgb(0, 0, 0); fill-opacity: 0;"/></g><g class="traces" style="opacity: 1;" transform="translate(0, 52.5)"><text class="legendtext user-select-none" text-anchor="start" x="40" y="4.680000000000001" style="font-family: 'Open Sans', verdana, arial, sans-serif; font-size: 12px; fill: rgb(68, 68, 68); fill-opacity: 1; white-space: pre;">deceased</text><g class="layers" style="opacity: 1;"><g class="legendfill"/><g class="legendlines"><path class="js-line" d="M5,0h30" style="fill: none; stroke: rgb(44, 160, 44); stroke-opacity: 1; stroke-width: 2px;"/></g><g class="legendsymbols"><g class="legendpoints"/></g></g><rect class="legendtoggle" pointer-events="all" x="0" y="-9.5" width="96.109375" height="19" style="cursor: pointer; fill: rgb(0, 0, 0); fill-opacity: 0;"/></g></g></g><rect class="scrollbar" rx="20" ry="3" width="0" height="0" style="fill: rgb(128, 139, 164); fill-opacity: 1;" x="0" y="0"/></g><g class="g-gtitle"><text class="gtitle" x="513.5" y="12.5" text-anchor="middle" dy="0em" style="font-family: 'Open Sans', verdana, arial, sans-serif; font-size: 17px; fill: rgb(68, 68, 68); opacity: 1; font-weight: normal; white-space: pre;">Dynamics of new cases, resolved cases and deaths in Ontario (Jul 23, 2020)</text></g><g class="g-xtitle" transform="translate(0,-15)"><text class="xtitle" x="479" y="780" text-anchor="middle" style="font-family: 'Open Sans', verdana, arial, sans-serif; font-size: 14px; fill: rgb(68, 68, 68); opacity: 1; font-weight: normal; white-space: pre;">Date</text></g><g class="g-ytitle"><text class="ytitle" transform="rotate(-90,22,376.5)" x="22" y="376.5" text-anchor="middle" style="font-family: 'Open Sans', verdana, arial, sans-serif; font-size: 14px; fill: rgb(68, 68, 68); opacity: 1; font-weight: normal; white-space: pre;">Number of cases</text></g></g></svg>