<svg class="main-svg" xmlns="http://www.w3.org/2000/svg" xmlns:xlink="http://www.w3.org/1999/xlink" width="1027" height="768" style="" viewBox="0 0 1027 768"><rect x="0" y="0" width="1027" height="768" style="fill: rgb(255, 255, 255); fill-opacity: 1;"/><defs id="defs-415c52"><g class="clips"><clipPath id="clip415c52xyplot" class="plotclip"><rect width="838" height="703"/></clipPath><clipPath class="axesclip" id="clip415c52x"><rect x="60" y="0" width="838" height="768"/></clipPath><clipPath class="axesclip" id="clip415c52y"><rect x="0" y="25" width="1027" height="703"/></clipPath><clipPath class="axesclip" id="clip415c52xy"><rect x="60" y="25" width="838" height="703"/></clipPath></g><g class="gradients"/></defs><g class="bglayer"/><g class="layer-below"><g class="imagelayer"/><g class="shapelayer"/></g><g class="cartesianlayer"><g class="subplot xy"><g class="layer-subplot"><g class="shapelayer"/><g class="imagelayer"/></g><g class="gridlayer"><g class="x"><path class="xgrid crisp" transform="translate(115.87,0)" d="M0,25v703" style="stroke: rgb(238, 238, 238); stroke-opacity: 1; stroke-width: 1px;"/><path class="xgrid crisp" transform="translate(260.19,0)" d="M0,25v703" style="stroke: rgb(238, 238, 238); stroke-opacity: 1; stroke-width: 1px;"/><path class="xgrid crisp" transform="translate(399.86,0)" d="M0,25v703" style="stroke: rgb(238, 238, 238); stroke-opacity: 1; stroke-width: 1px;"/><path class="xgrid crisp" transform="translate(544.1800000000001,0)" d="M0,25v703" style="stroke: rgb(238, 238, 238); stroke-opacity: 1; stroke-width: 1px;"/><path class="xgrid crisp" transform="translate(683.84,0)" d="M0,25v703" style="stroke: rgb(238, 238, 238); stroke-opacity: 1; stroke-width: 1px;"/><path class="xgrid crisp" transform="translate(828.17,0)" d="M0,25v703" style="stroke: rgb(238, 238, 238); stroke-opacity: 1; stroke-width: 1px;"/></g><g class="y"><path class="ygrid crisp" transform="translate(0,594.39)" d="M60,0h838" style="stroke: rgb(238, 238, 238); stroke-opacity: 1; stroke-width: 1px;"/><path class="ygrid crisp" transform="translate(0,496.9)" d="M60,0h838" style="stroke: rgb(238, 238, 238); stroke-opacity: 1; stroke-width: 1px;"/><path class="ygrid crisp" transform="translate(0,399.41)" d="M60,0h838" style="stroke: rgb(238, 238, 238); stroke-opacity: 1; stroke-width: 1px;"/><path class="ygrid crisp" transform="translate(0,301.92)" d="M60,0h838" style="stroke: rgb(238, 238, 238); stroke-opacity: 1; stroke-width: 1px;"/><path class="ygrid crisp" transform="translate(0,204.43)" d="M60,0h838" style="stroke: rgb(238, 238, 238); stroke-opacity: 1; stroke-width: 1px;"/><path class="ygrid crisp" transform="translate(0,106.94)" d="M60,0h838" style="stroke: rgb(238, 238, 238); stroke-opacity: 1; stroke-width: 1px;"/></g></g><g class="zerolinelayer"><path class="yzl zl crisp" transform="translate(0,691.88)" d="M60,0h838" style="stroke: rgb(68, 68, 68); stroke-opacity: 1; stroke-width: 1px;"/></g><path class="xlines-below"/><path class="ylines-below"/><g class="overlines-below"/><g class="xaxislayer-below"/><g class="yaxislayer-below"/><g class="overaxes-below"/><g class="plot" transform="translate(60, 25)" clip-path="url('#clip415c52xyplot')"><g class="scatterlayer mlayer"><g class="trace scatter tracede5c97" style="stroke-miterlimit: 2; opacity: 1;"><g class="fills"/><g class="errorbars"/><g class="lines"><path class="js-line" d="M0,666.88L4.66,666.88L9.31,667.85L13.97,667.85L27.93,665.9L37.24,666.88L41.9,665.9L46.56,665.9L60.52,655.18L65.18,664.93L69.83,666.88L74.49,665.9L79.14,662.98L83.8,664.93L93.11,660.05L97.77,666.88L102.42,661.03L107.08,650.3L111.73,647.38L116.39,643.48L121.04,625.93L125.7,635.68L130.36,656.15L135.01,642.5L139.67,624.96L144.32,608.38L148.98,611.31L153.63,623.98L158.29,591.81L162.94,585.96L167.6,574.26L172.26,503.09L176.91,538.19L181.57,520.64L186.22,92.67L190.88,413.41L195.53,251.57L200.19,275.95L204.84,216.48L209.5,301.29L214.16,269.12L218.81,365.64L223.47,297.39L228.12,130.69L232.78,196.01L237.43,200.88L242.09,266.2L246.74,275.95L251.4,256.45L256.06,196.01L260.71,185.28L265.37,165.78L270.02,117.04L274.68,194.06L279.33,113.14L283.99,76.1L288.64,129.71L293.3,169.68L297.96,48.8L302.61,42.95L307.27,202.83L311.92,240.85L316.58,253.52L321.23,155.06L325.89,328.59L330.54,219.4L335.2,256.45L339.86,168.71L344.51,243.78L349.17,306.17L353.82,289.59L358.48,265.22L363.13,277.9L367.79,201.86L372.44,329.57L377.1,380.26L381.76,366.61L386.41,314.94L391.07,346.14L395.72,330.54L400.38,334.44L405.03,285.7L409.69,335.41L414.34,370.51L419,250.6L423.66,286.67L428.31,264.25L432.97,236.95L437.62,265.22L442.28,218.43L446.93,273.02L451.59,387.08L456.24,382.21L460.9,293.49L465.56,331.51L470.21,351.99L474.87,349.06L479.52,273.02L484.18,232.08L488.83,337.36L493.49,319.82L498.14,331.51L502.8,223.3L507.46,262.3L512.11,429.98L516.77,442.65L521.42,422.18L526.08,468.97L530.73,489.45L535.39,407.56L540.04,474.82L544.7,490.42L549.36,487.5L554.01,481.65L558.67,498.22L563.32,493.35L567.98,466.05L572.63,496.27L577.29,509.92L581.94,456.3L586.6,507.97L591.26,482.62L595.91,558.66L600.57,510.89L605.22,493.35L609.88,416.33L614.53,513.82L619.19,521.62L623.84,517.72L628.5,506.02L633.16,548.91L642.47,516.74L647.12,557.69L651.78,551.84L656.43,501.14L661.09,553.79L665.74,540.14L670.4,541.12L675.06,553.79L679.71,558.66L684.37,567.44L689.02,558.66L693.68,558.66L698.33,505.04L702.99,506.99L707.64,535.27L712.3,468.97L716.96,506.02L721.61,566.46L726.27,476.77L730.92,532.34L735.58,533.32L740.23,550.86L744.89,558.66L749.54,592.78L754.2,580.11L758.86,536.24L763.51,545.99L768.17,553.79L772.82,581.09L777.48,578.16L782.13,583.04L786.79,574.26L791.44,581.09L796.1,598.63L800.76,589.86L805.41,554.76L810.07,634.7L814.72,574.26L819.38,590.83L824.03,577.19L828.69,563.54L833.34,587.91L838,570.36" style="vector-effect: non-scaling-stroke; fill: none; stroke: rgb(31, 119, 180); stroke-opacity: 1; stroke-width: 2px; opacity: 1;"/></g><g class="points"/><g class="text"/></g><g class="trace scatter trace45fa89" style="stroke-miterlimit: 2; opacity: 1;"><g class="fills"/><g class="errorbars"/><g class="lines"><path class="js-line" d="M0,666.88L4.66,666.88L9.31,665.9L13.97,665.9L27.93,666.88L69.83,666.88L74.49,665.9L79.14,666.88L83.8,666.88L93.11,666.88L97.77,665.9L102.42,666.88L107.08,666.88L144.32,666.88L148.98,665.9L153.63,664.93L158.29,666.88L181.57,666.88L186.22,254.5L190.88,566.46L195.53,515.77L200.19,528.44L204.84,479.7L209.5,475.8L214.16,442.65L218.81,496.27L223.47,493.35L228.12,401.71L232.78,441.68L237.43,404.63L242.09,390.01L246.74,410.48L251.4,436.8L256.06,461.17L260.71,341.26L265.37,382.21L270.02,313.97L274.68,355.89L279.33,341.26L283.99,368.56L288.64,383.18L293.3,262.3L297.96,219.4L302.61,270.1L307.27,255.47L311.92,188.21L316.58,155.06L321.23,238.9L325.89,35.15L330.54,88.77L335.2,62.45L339.86,116.07L344.51,67.32L349.17,179.43L353.82,399.76L358.48,235L363.13,328.59L367.79,256.45L372.44,283.75L377.1,287.65L381.76,316.89L386.41,413.41L391.07,224.28L395.72,316.89L400.38,240.85L405.03,297.39L409.69,335.41L414.34,395.86L419,413.41L428.31,355.89L432.97,415.35L437.62,297.39L442.28,344.19L446.93,451.43L451.59,413.41L456.24,263.27L460.9,373.43L465.56,364.66L470.21,306.17L474.87,221.35L479.52,332.49L484.18,344.19L488.83,348.09L493.49,279.85L498.14,301.29L502.8,312.02L507.46,369.54L512.11,432.9L516.77,338.34L521.42,129.71L526.08,174.56L530.73,372.46L535.39,324.69L540.04,254.5L544.7,421.2L549.36,454.35L554.01,322.74L558.67,452.4L563.32,427.05L567.98,454.35L572.63,422.18L581.94,497.25L586.6,443.63L591.26,479.7L595.91,446.55L600.57,493.35L605.22,496.27L609.88,580.11L614.53,522.59L619.19,489.45L623.84,468L628.5,492.37L633.16,497.25L637.81,488.47L642.47,510.89L647.12,494.32L651.78,469.95L656.43,499.19L661.09,493.35L665.74,406.58L670.4,557.69L675.06,541.12L679.71,547.94L684.37,535.27L689.02,529.42L693.68,568.41L698.33,538.19L702.99,556.71L707.64,563.54L712.3,577.19L716.96,465.07L721.61,519.67L726.27,533.32L730.92,530.39L735.58,550.86L740.23,567.44L744.89,563.54L749.54,497.25L754.2,506.02L758.86,503.09L763.51,507.97L768.17,547.94L772.82,544.04L777.48,553.79L782.13,524.54L786.79,511.87L791.44,551.84L796.1,562.56L800.76,522.59L805.41,567.44L810.07,593.76L814.72,536.24L819.38,570.36L824.03,585.96L828.69,568.41L833.34,588.88L838,585.96" style="vector-effect: non-scaling-stroke; fill: none; stroke: rgb(255, 127, 14); stroke-opacity: 1; stroke-width: 2px; opacity: 1;"/></g><g class="points"/><g class="text"/></g><g class="trace scatter traced45556" style="stroke-miterlimit: 2; opacity: 1;"><g class="fills"/><g class="errorbars"/><g class="lines"><path class="js-line" d="M0,666.88L125.7,666.88L130.36,665.9L135.01,666.88L139.67,665.9L144.32,666.88L148.98,665.9L153.63,664.93L158.29,665.9L162.94,664.93L167.6,662L172.26,664.93L176.91,663.95L181.57,665.9L186.22,662.98L190.88,657.13L195.53,662.98L200.19,651.28L204.84,653.23L209.5,640.55L214.16,642.5L218.81,654.2L223.47,646.4L228.12,646.4L232.78,641.53L237.43,645.43L242.09,636.65L246.74,646.4L251.4,650.3L256.06,624.96L260.71,617.16L265.37,629.83L270.02,613.26L274.68,631.78L279.33,628.85L283.99,636.65L288.64,629.83L293.3,630.8L297.96,614.23L302.61,618.13L307.27,620.08L311.92,643.48L316.58,611.31L321.23,609.36L325.89,623.01L330.54,583.04L335.2,628.85L339.86,613.26L344.51,627.88L349.17,584.98L353.82,607.41L358.48,600.58L363.13,620.08L367.79,605.46L372.44,609.36L377.1,632.75L381.76,632.75L386.41,612.28L391.07,627.88L400.38,640.55L405.03,634.7L409.69,644.45L414.34,644.45L419,652.25L423.66,624.96L428.31,636.65L432.97,639.58L437.62,640.55L442.28,642.5L446.93,638.6L451.59,646.4L456.24,635.68L460.9,633.73L465.56,626.9L470.21,650.3L474.87,648.35L479.52,657.13L484.18,650.3L488.83,648.35L493.49,623.01L498.14,652.25L502.8,632.75L507.46,648.35L512.11,643.48L516.77,653.23L521.42,656.15L526.08,655.18L530.73,656.15L535.39,658.1L540.04,655.18L544.7,659.08L549.36,656.15L554.01,655.18L558.67,663.95L563.32,656.15L567.98,636.65L572.63,656.15L577.29,663.95L581.94,657.13L586.6,655.18L591.26,657.13L595.91,663.95L600.57,659.08L605.22,661.03L609.88,660.05L614.53,660.05L619.19,662.98L623.84,662.98L628.5,664.93L633.16,662L637.81,664.93L642.47,666.88L647.12,664.93L651.78,658.1L656.43,663.95L661.09,660.05L665.74,661.03L670.4,663.95L675.06,663.95L679.71,665.9L684.37,658.1L689.02,662L693.68,658.1L698.33,664.93L702.99,663.95L707.64,665.9L712.3,665.9L716.96,664.93L721.61,666.88L726.27,663.95L730.92,665.9L735.58,662.98L740.23,665.9L744.89,662.98L749.54,665.9L754.2,663.95L758.86,663.95L772.82,666.88L777.48,662.98L782.13,666.88L786.79,665.9L791.44,666.88L796.1,665.9L800.76,664.93L805.41,666.88L810.07,666.88L814.72,665.9L819.38,666.88L824.03,665.9L828.69,665.9L833.34,666.88L838,666.88" style="vector-effect: non-scaling-stroke; fill: none; stroke: rgb(44, 160, 44); stroke-opacity: 1; stroke-width: 2px; opacity: 1;"/></g><g class="points"/><g class="text"/></g></g></g><g class="overplot"/><path class="xlines-above crisp" style="fill: none;" d="M0,0"/><path class="ylines-above crisp" style="fill: none;" d="M0,0"/><g class="overlines-above"/><g class="xaxislayer-above"><g class="xtick"><text text-anchor="middle" x="0" y="741" transform="translate(115.87,0)" style="font-family: 'Open Sans', verdana, arial, sans-serif; font-size: 12px; fill: rgb(68, 68, 68); fill-opacity: 1; white-space: pre;">Mar 2020</text></g><g class="xtick"><text text-anchor="middle" x="0" y="741" transform="translate(260.19,0)" style="font-family: 'Open Sans', verdana, arial, sans-serif; font-size: 12px; fill: rgb(68, 68, 68); fill-opacity: 1; white-space: pre;">Apr 2020</text></g><g class="xtick"><text text-anchor="middle" x="0" y="741" transform="translate(399.86,0)" style="font-family: 'Open Sans', verdana, arial, sans-serif; font-size: 12px; fill: rgb(68, 68, 68); fill-opacity: 1; white-space: pre;">May 2020</text></g><g class="xtick"><text text-anchor="middle" x="0" y="741" transform="translate(544.1800000000001,0)" style="font-family: 'Open Sans', verdana, arial, sans-serif; font-size: 12px; fill: rgb(68, 68, 68); fill-opacity: 1; white-space: pre;">Jun 2020</text></g><g class="xtick"><text text-anchor="middle" x="0" y="741" transform="translate(683.84,0)" style="font-family: 'Open Sans', verdana, arial, sans-serif; font-size: 12px; fill: rgb(68, 68, 68); fill-opacity: 1; white-space: pre;">Jul 2020</text></g><g class="xtick"><text text-anchor="middle" x="0" y="741" transform="translate(828.17,0)" style="font-family: 'Open Sans', verdana, arial, sans-serif; font-size: 12px; fill: rgb(68, 68, 68); fill-opacity: 1; white-space: pre;">Aug 2020</text></g></g><g class="yaxislayer-above"><g class="ytick"><text text-anchor="end" x="59" y="4.199999999999999" transform="translate(0,691.88)" style="font-family: 'Open Sans', verdana, arial, sans-serif; font-size: 12px; fill: rgb(68, 68, 68); fill-opacity: 1; white-space: pre;">0</text></g><g class="ytick"><text text-anchor="end" x="59" y="4.199999999999999" transform="translate(0,594.39)" style="font-family: 'Open Sans', verdana, arial, sans-serif; font-size: 12px; fill: rgb(68, 68, 68); fill-opacity: 1; white-space: pre;">100</text></g><g class="ytick"><text text-anchor="end" x="59" y="4.199999999999999" transform="translate(0,496.9)" style="font-family: 'Open Sans', verdana, arial, sans-serif; font-size: 12px; fill: rgb(68, 68, 68); fill-opacity: 1; white-space: pre;">200</text></g><g class="ytick"><text text-anchor="end" x="59" y="4.199999999999999" transform="translate(0,399.41)" style="font-family: 'Open Sans', verdana, arial, sans-serif; font-size: 12px; fill: rgb(68, 68, 68); fill-opacity: 1; white-space: pre;">300</text></g><g class="ytick"><text text-anchor="end" x="59" y="4.199999999999999" transform="translate(0,301.92)" style="font-family: 'Open Sans', verdana, arial, sans-serif; font-size: 12px; fill: rgb(68, 68, 68); fill-opacity: 1; white-space: pre;">400</text></g><g class="ytick"><text text-anchor="end" x="59" y="4.199999999999999" transform="translate(0,204.43)" style="font-family: 'Open Sans', verdana, arial, sans-serif; font-size: 12px; fill: rgb(68, 68, 68); fill-opacity: 1; white-space: pre;">500</text></g><g class="ytick"><text text-anchor="end" x="59" y="4.199999999999999" transform="translate(0,106.94)" style="font-family: 'Open Sans', verdana, arial, sans-serif; font-size: 12px; fill: rgb(68, 68, 68); fill-opacity: 1; white-space: pre;">600</text></g></g><g class="overaxes-above"/></g></g><g class="polarlayer"/><g class="ternarylayer"/><g class="geolayer"/><g class="funnelarealayer"/><g class="pielayer"/><g class="treemaplayer"/><g class="sunburstlayer"/><g class="glimages"/><defs id="topdefs-415c52"><g class="clips"/><clipPath id="legend415c52"><rect width="102" height="67" x="0" y="0"/></clipPath></defs><g class="layer-above"><g class="imagelayer"/><g class="shapelayer"/></g><g class="infolayer"><g class="legend" pointer-events="all" transform="translate(914.76, 25)"><rect class="bg" shape-rendering="crispEdges" style="stroke: rgb(68, 68, 68); stroke-opacity: 1; fill: rgb(255, 255, 255); fill-opacity: 1; stroke-width: 0px;" width="102" height="67" x="0" y="0"/><g class="scrollbox" transform="translate(0, 0)" clip-path="url('#legend415c52')"><g class="groups"><g class="traces" style="opacity: 1;" transform="translate(0, 14.5)"><text class="legendtext user-select-none" text-anchor="start" x="40" y="4.680000000000001" style="font-family: 'Open Sans', verdana, arial, sans-serif; font-size: 12px; fill: rgb(68, 68, 68); fill-opacity: 1; white-space: pre;">positive</text><g class="layers" style="opacity: 1;"><g class="legendfill"/><g class="legendlines"><path class="js-line" d="M5,0h30" style="fill: none; stroke: rgb(31, 119, 180); stroke-opacity: 1; stroke-width: 2px;"/></g><g class="legendsymbols"><g class="legendpoints"/></g></g><rect class="legendtoggle" pointer-events="all" x="0" y="-9.5" width="96.109375" height="19" style="cursor: pointer; fill: rgb(0, 0, 0); fill-opacity: 0;"/></g><g class="traces" style="opacity: 1;" transform="translate(0, 33.5)"><text class="legendtext user-select-none" text-anchor="start" x="40" y="4.680000000000001" style="font-family: 'Open Sans', verdana, arial, sans-serif; font-size: 12px; fill: rgb(68, 68, 68); fill-opacity: 1; white-space: pre;">resolved</text><g class="layers" style="opacity: 1;"><g class="legendfill"/><g class="legendlines"><path class="js-line" d="M5,0h30" style="fill: none; stroke: rgb(255, 127, 14); stroke-opacity: 1; stroke-width: 2px;"/></g><g class="legendsymbols"><g class="legendpoints"/></g></g><rect class="legendtoggle" pointer-events="all" x="0" y="-9.5" width="96.109375" height="19" style="cursor: pointer; fill: rgb(0, 0, 0); fill-opacity: 0;"/></g><g class="traces" style="opacity: 1;" transform="translate(0, 52.5)"><text class="legendtext user-select-none" text-anchor="start" x="40" y="4.680000000000001" style="font-family: 'Open Sans', verdana, arial, sans-serif; font-size: 12px; fill: rgb(68, 68, 68); fill-opacity: 1; white-space: pre;">deceased</text><g class="layers" style="opacity: 1;"><g class="legendfill"/><g class="legendlines"><path class="js-line" d="M5,0h30" style="fill: none; stroke: rgb(44, 160, 44); stroke-opacity: 1; stroke-width: 2px;"/></g><g class="legendsymbols"><g class="legendpoints"/></g></g><rect class="legendtoggle" pointer-events="all" x="0" y="-9.5" width="96.109375" height="19" style="cursor: pointer; fill: rgb(0, 0, 0); fill-opacity: 0;"/></g></g></g><rect class="scrollbar" rx="20" ry="3" width="0" height="0" style="fill: rgb(128, 139, 164); fill-opacity: 1;" x="0" y="0"/></g><g class="g-gtitle"><text class="gtitle" x="513.5" y="12.5" text-anchor="middle" dy="0em" style="font-family: 'Open Sans', verdana, arial, sans-serif; font-size: 17px; fill: rgb(68, 68, 68); opacity: 1; font-weight: normal; white-space: pre;">Dynamics of new cases, resolved cases and deaths in Ontario (Aug 17, 2020)</text></g><g class="g-xtitle" transform="translate(0,-15)"><text class="xtitle" x="479" y="780" text-anchor="middle" style="font-family: 'Open Sans', verdana, arial, sans-serif; font-size: 14px; fill: rgb(68, 68, 68); opacity: 1; font-weight: normal; white-space: pre;">Date</text></g><g class="g-ytitle"><text class="ytitle" transform="rotate(-90,22,376.5)" x="22" y="376.5" text-anchor="middle" style="font-family: 'Open Sans', verdana, arial, sans-serif; font-size: 14px; fill: rgb(68, 68, 68); opacity: 1; font-weight: normal; white-space: pre;">Number of cases</text></g></g></svg>