<svg class="main-svg" xmlns="http://www.w3.org/2000/svg" xmlns:xlink="http://www.w3.org/1999/xlink" width="1027" height="768" style="" viewBox="0 0 1027 768"><rect x="0" y="0" width="1027" height="768" style="fill: rgb(255, 255, 255); fill-opacity: 1;"/><defs id="defs-4a795d"><g class="clips"><clipPath id="clip4a795dxyplot" class="plotclip"><rect width="838" height="703"/></clipPath><clipPath class="axesclip" id="clip4a795dx"><rect x="60" y="0" width="838" height="768"/></clipPath><clipPath class="axesclip" id="clip4a795dy"><rect x="0" y="25" width="1027" height="703"/></clipPath><clipPath class="axesclip" id="clip4a795dxy"><rect x="60" y="25" width="838" height="703"/></clipPath></g><g class="gradients"/></defs><g class="bglayer"/><g class="layer-below"><g class="imagelayer"/><g class="shapelayer"/></g><g class="cartesianlayer"><g class="subplot xy"><g class="layer-subplot"><g class="shapelayer"/><g class="imagelayer"/></g><g class="gridlayer"><g class="x"><path class="xgrid crisp" transform="translate(99.13,0)" d="M0,25v703" style="stroke: rgb(238, 238, 238); stroke-opacity: 1; stroke-width: 1px;"/><path class="xgrid crisp" transform="translate(200.21,0)" d="M0,25v703" style="stroke: rgb(238, 238, 238); stroke-opacity: 1; stroke-width: 1px;"/><path class="xgrid crisp" transform="translate(298.03,0)" d="M0,25v703" style="stroke: rgb(238, 238, 238); stroke-opacity: 1; stroke-width: 1px;"/><path class="xgrid crisp" transform="translate(399.11,0)" d="M0,25v703" style="stroke: rgb(238, 238, 238); stroke-opacity: 1; stroke-width: 1px;"/><path class="xgrid crisp" transform="translate(496.93,0)" d="M0,25v703" style="stroke: rgb(238, 238, 238); stroke-opacity: 1; stroke-width: 1px;"/><path class="xgrid crisp" transform="translate(598.02,0)" d="M0,25v703" style="stroke: rgb(238, 238, 238); stroke-opacity: 1; stroke-width: 1px;"/><path class="xgrid crisp" transform="translate(699.1,0)" d="M0,25v703" style="stroke: rgb(238, 238, 238); stroke-opacity: 1; stroke-width: 1px;"/><path class="xgrid crisp" transform="translate(796.92,0)" d="M0,25v703" style="stroke: rgb(238, 238, 238); stroke-opacity: 1; stroke-width: 1px;"/></g><g class="y"><path class="ygrid crisp" transform="translate(0,570.92)" d="M60,0h838" style="stroke: rgb(238, 238, 238); stroke-opacity: 1; stroke-width: 1px;"/><path class="ygrid crisp" transform="translate(0,449.6)" d="M60,0h838" style="stroke: rgb(238, 238, 238); stroke-opacity: 1; stroke-width: 1px;"/><path class="ygrid crisp" transform="translate(0,328.27)" d="M60,0h838" style="stroke: rgb(238, 238, 238); stroke-opacity: 1; stroke-width: 1px;"/><path class="ygrid crisp" transform="translate(0,206.95)" d="M60,0h838" style="stroke: rgb(238, 238, 238); stroke-opacity: 1; stroke-width: 1px;"/><path class="ygrid crisp" transform="translate(0,85.63)" d="M60,0h838" style="stroke: rgb(238, 238, 238); stroke-opacity: 1; stroke-width: 1px;"/></g></g><g class="zerolinelayer"><path class="yzl zl crisp" transform="translate(0,692.24)" d="M60,0h838" style="stroke: rgb(68, 68, 68); stroke-opacity: 1; stroke-width: 1px;"/></g><path class="xlines-below"/><path class="ylines-below"/><g class="overlines-below"/><g class="xaxislayer-below"/><g class="yaxislayer-below"/><g class="overaxes-below"/><g class="plot" transform="translate(60, 25)" clip-path="url('#clip4a795dxyplot')"><g class="scatterlayer mlayer"><g class="trace scatter trace717cb4" style="stroke-miterlimit: 2; opacity: 1;"><g class="fills"/><g class="errorbars"/><g class="lines"><path class="js-line" d="M0,667.24L9.78,667.85L19.56,666.64L26.09,667.24L29.35,666.64L32.61,666.64L42.39,659.96L45.65,666.03L48.91,667.24L52.17,666.64L55.43,664.82L58.69,666.03L65.21,663L68.47,667.24L71.74,663.6L75,656.93L78.26,655.11L81.52,652.68L84.78,641.77L88.04,647.83L91.3,660.57L94.56,652.08L97.82,641.16L101.08,630.85L104.34,632.67L107.6,640.55L110.86,620.53L114.12,616.89L117.39,609.61L120.65,565.33L123.91,587.17L127.17,576.25L130.43,309.95L133.69,509.52L136.95,408.83L140.21,423.99L143.47,386.99L146.73,439.76L149.99,419.74L153.25,479.8L156.51,437.34L159.77,333.6L163.04,374.25L166.3,377.28L169.56,417.92L172.82,423.99L176.08,411.86L179.34,374.25L182.6,367.58L185.86,355.44L189.12,325.11L192.38,373.03L195.64,322.69L198.9,299.63L202.16,333L205.42,357.87L208.68,282.65L211.95,279.01L215.21,378.49L218.47,402.15L221.73,410.04L224.99,348.77L228.25,456.75L231.51,388.81L234.77,411.86L238.03,357.26L241.29,403.97L244.55,442.8L247.81,432.48L251.07,417.32L254.33,425.2L257.6,377.89L260.86,457.35L264.12,488.9L267.38,480.41L270.64,448.26L273.9,467.67L277.16,457.96L280.42,460.39L283.68,430.06L286.94,460.99L290.2,482.83L293.46,408.22L296.72,430.66L299.98,416.71L303.25,399.73L306.51,417.32L309.77,388.2L313.03,422.17L316.29,493.14L319.55,490.11L322.81,434.91L326.07,458.57L329.33,471.31L332.59,469.49L335.85,422.17L339.11,396.69L342.37,462.21L345.63,451.29L348.89,458.57L352.16,391.23L355.42,415.5L358.68,519.84L361.94,527.72L365.2,514.98L368.46,544.1L371.72,556.84L374.98,505.88L378.24,547.74L381.5,557.45L384.76,555.63L388.02,551.99L391.28,562.3L394.54,559.27L397.81,542.28L401.07,561.09L404.33,569.58L407.59,536.21L410.85,568.37L414.11,552.59L417.37,599.91L420.63,570.18L423.89,559.27L427.15,511.34L430.41,572L433.67,576.86L436.93,574.43L440.19,567.15L443.46,593.84L449.98,573.82L453.24,599.3L456.5,595.66L459.76,564.12L463.02,596.88L466.28,588.38L469.54,588.99L472.8,596.88L476.06,599.91L479.32,605.37L482.58,599.91L485.84,599.91L489.11,566.55L492.37,567.76L495.63,585.35L498.89,544.1L502.15,567.15L505.41,604.76L508.67,548.95L511.93,583.53L515.19,584.14L518.45,595.06L521.71,599.91L524.97,621.14L528.23,613.25L531.49,585.96L538.02,596.88L541.28,613.86L544.54,612.04L547.8,615.07L551.06,609.61L554.32,613.86L557.58,624.78L560.84,619.32L564.1,597.48L567.36,647.23L570.62,609.61L573.88,619.93L580.4,602.94L583.67,618.11L586.93,607.19L590.19,591.42L596.71,621.14L599.97,587.78L603.23,601.73L606.49,597.48L609.75,603.55L613.01,606.58L616.27,613.86L619.53,595.66L622.79,593.24L626.05,577.46L629.32,599.3L632.58,598.09L635.84,599.3L639.1,586.56L642.36,587.17L645.62,577.46L648.88,564.73L652.14,571.4L655.4,551.99L658.66,555.02L661.92,576.86L665.18,564.12L668.44,538.03L671.7,526.51L674.96,543.49L678.23,477.37L681.49,514.98L684.75,476.16L688.01,489.51L691.27,423.99L694.53,420.35L697.79,445.83L704.31,377.28L707.57,464.03L710.83,419.14L714.09,419.14L717.35,403.37L720.61,369.4L723.88,242.61L727.14,331.18L730.4,288.11L733.66,340.88L736.92,223.2L740.18,271.12L743.44,323.9L746.7,294.17L749.96,334.82L753.22,313.59L756.48,183.77L759.74,97.63L763,176.49L766.26,273.55L769.53,177.7L772.79,214.71L776.05,229.87L779.31,192.26L782.57,235.33L785.83,178.92L789.09,268.09L792.35,240.19L795.61,169.21L798.87,188.02L802.13,157.08L805.39,166.18L808.65,73.97L811.91,35.15L815.18,151.01L818.44,165.57L821.7,161.33L824.96,100.66L828.22,123.72L831.48,51.53L834.74,74.58L838,92.17" style="vector-effect: non-scaling-stroke; fill: none; stroke: rgb(31, 119, 180); stroke-opacity: 1; stroke-width: 2px; opacity: 1;"/></g><g class="points"/><g class="text"/></g><g class="trace scatter trace92ec65" style="stroke-miterlimit: 2; opacity: 1;"><g class="fills"/><g class="errorbars"/><g class="lines"><path class="js-line" d="M0,667.24L104.34,666.64L107.6,666.03L110.86,667.24L114.12,667.24L127.17,667.24L130.43,410.65L133.69,604.76L136.95,573.22L140.21,581.1L143.47,550.77L146.73,548.35L149.99,527.72L153.25,561.09L156.51,559.27L159.77,502.24L163.04,527.12L166.3,504.06L169.56,494.96L172.82,507.7L176.08,524.08L179.34,539.25L182.6,464.63L185.86,490.11L189.12,447.65L192.38,473.73L195.64,464.63L198.9,481.62L202.16,490.72L205.42,415.5L208.68,388.81L211.95,420.35L215.21,411.25L218.47,369.4L221.73,348.77L224.99,400.94L228.25,274.16L231.51,307.52L234.77,291.14L238.03,324.51L241.29,294.17L244.55,363.94L247.81,501.03L251.07,398.51L254.33,456.75L257.6,411.86L260.86,428.84L264.12,431.27L267.38,449.47L270.64,509.52L273.9,391.84L277.16,449.47L280.42,402.15L283.68,437.34L286.94,460.99L290.2,498.6L293.46,509.52L299.98,473.73L303.25,510.74L306.51,437.34L309.77,466.45L313.03,533.18L316.29,509.52L319.55,416.1L322.81,484.65L326.07,479.19L329.33,442.8L332.59,390.02L335.85,459.17L339.11,466.45L342.37,468.88L345.63,426.42L348.89,439.76L352.16,446.44L355.42,482.23L358.68,521.66L361.94,462.81L365.2,333L368.46,360.9L371.72,484.05L374.98,454.32L378.24,410.65L381.5,514.38L384.76,535L388.02,453.11L391.28,533.79L394.54,518.02L397.81,535L401.07,514.98L407.59,561.69L410.85,528.33L414.11,550.77L417.37,530.15L420.63,559.27L423.89,561.09L427.15,613.25L430.41,577.46L433.67,556.84L436.93,543.49L440.19,558.66L443.46,561.69L446.72,556.23L449.98,570.18L453.24,559.87L456.5,544.71L459.76,562.91L463.02,559.27L466.28,505.28L469.54,599.3L472.8,588.99L476.06,593.24L479.32,585.35L482.58,581.71L485.84,605.98L489.11,587.17L492.37,598.7L495.63,602.94L498.89,611.43L502.15,541.67L505.41,575.64L508.67,584.14L511.93,582.32L515.19,595.06L518.45,605.37L521.71,602.94L524.97,561.69L528.23,567.15L531.49,565.33L534.75,568.37L538.02,593.24L541.28,590.81L544.54,596.88L547.8,578.68L551.06,570.79L554.32,595.66L557.58,602.34L560.84,577.46L564.1,605.37L567.36,621.75L570.62,585.96L573.88,607.19L577.14,616.89L580.4,605.98L583.67,618.71L586.93,616.89L590.19,612.65L593.45,613.25L596.71,621.14L599.97,602.94L603.23,612.65L606.49,601.73L609.75,619.93L613.01,621.75L616.27,597.48L619.53,620.53L622.79,616.89L626.05,604.76L629.32,619.93L632.58,622.96L635.84,611.43L639.1,584.14L642.36,595.06L645.62,596.88L648.88,602.94L652.14,599.91L655.4,595.06L658.66,595.06L661.92,584.74L665.18,581.1L668.44,592.02L671.7,595.06L674.96,592.02L678.23,586.56L681.49,596.27L684.75,573.82L688.01,558.66L691.27,560.48L694.53,559.87L697.79,551.38L701.05,559.27L704.31,548.35L707.57,510.74L710.83,493.75L714.09,495.57L717.35,462.21L720.61,491.93L723.88,466.45L727.14,471.31L730.4,390.02L733.66,354.84L736.92,407.61L740.18,403.37L743.44,343.31L749.96,336.03L753.22,238.37L756.48,245.65L759.74,228.05L763,242.61L766.26,239.58L772.79,288.72L776.05,192.26L779.31,194.69L782.57,234.73L785.83,253.53L789.09,251.71L792.35,299.03L795.61,286.29L798.87,231.09L802.13,217.74L805.39,222.59L808.65,288.11L811.91,220.77L815.18,255.35L818.44,248.07L821.7,198.33L824.96,169.82L828.22,184.38L831.48,183.16L834.74,143.13L838,166.18" style="vector-effect: non-scaling-stroke; fill: none; stroke: rgb(255, 127, 14); stroke-opacity: 1; stroke-width: 2px; opacity: 1;"/></g><g class="points"/><g class="text"/></g><g class="trace scatter trace281e15" style="stroke-miterlimit: 2; opacity: 1;"><g class="fills"/><g class="errorbars"/><g class="lines"><path class="js-line" d="M0,667.24L104.34,666.64L107.6,666.03L110.86,666.64L114.12,666.03L117.39,664.21L120.65,666.03L123.91,665.42L127.17,666.64L130.43,664.82L133.69,661.18L136.95,664.82L140.21,657.54L143.47,658.75L146.73,650.86L149.99,652.08L153.25,659.36L156.51,654.5L159.77,654.5L163.04,651.47L166.3,653.9L169.56,648.44L172.82,654.5L176.08,656.93L179.34,641.16L182.6,636.31L185.86,644.19L189.12,633.88L192.38,645.41L195.64,643.59L198.9,648.44L202.16,644.19L205.42,644.8L208.68,634.49L211.95,636.91L215.21,638.13L218.47,652.68L221.73,632.67L224.99,631.45L228.25,639.95L231.51,615.07L234.77,643.59L238.03,633.88L241.29,642.98L244.55,616.29L247.81,630.24L251.07,625.99L254.33,638.13L257.6,629.03L260.86,631.45L264.12,646.01L267.38,646.01L270.64,633.27L273.9,642.98L277.16,647.23L280.42,650.86L283.68,647.23L286.94,653.29L290.2,653.29L293.46,658.14L296.72,641.16L299.98,648.44L303.25,650.26L309.77,652.08L313.03,649.65L316.29,654.5L319.55,647.83L322.81,646.62L326.07,642.37L329.33,656.93L332.59,655.72L335.85,661.18L339.11,656.93L342.37,655.72L345.63,639.95L348.89,658.14L352.16,646.01L355.42,655.72L358.68,652.68L361.94,658.75L365.2,660.57L368.46,659.96L371.72,660.57L374.98,661.78L378.24,659.96L381.5,662.39L384.76,660.57L388.02,659.96L391.28,665.42L394.54,660.57L397.81,648.44L401.07,660.57L404.33,665.42L407.59,661.18L410.85,659.96L414.11,661.18L417.37,665.42L420.63,662.39L423.89,663.6L430.41,663L433.67,664.82L436.93,664.82L440.19,666.03L443.46,664.21L446.72,666.03L449.98,667.24L453.24,666.03L456.5,661.78L459.76,665.42L463.02,663L466.28,663.6L469.54,665.42L472.8,665.42L476.06,666.64L479.32,661.78L482.58,664.21L485.84,661.78L489.11,666.03L492.37,665.42L495.63,666.64L498.89,666.64L502.15,666.03L505.41,667.24L508.67,665.42L511.93,666.64L515.19,664.82L518.45,666.64L521.71,664.82L524.97,666.64L528.23,665.42L531.49,665.42L541.28,667.24L544.54,664.82L547.8,667.24L551.06,666.64L554.32,667.24L557.58,666.64L560.84,666.03L564.1,667.24L586.93,667.24L590.19,664.82L593.45,667.85L596.71,666.64L599.97,665.42L603.23,666.64L606.49,667.24L609.75,666.64L616.27,666.03L619.53,666.64L622.79,663.6L626.05,667.24L632.58,666.64L635.84,666.64L645.62,667.85L648.88,667.24L652.14,666.03L655.4,667.24L665.18,666.64L668.44,667.85L671.7,666.64L674.96,666.64L678.23,666.64L681.49,664.82L684.75,666.03L688.01,665.42L691.27,667.24L694.53,666.64L701.05,666.03L704.31,665.42L707.57,665.42L710.83,666.64L717.35,667.24L720.61,666.03L723.88,666.64L727.14,664.82L733.66,665.42L736.92,621.14L743.44,663L746.7,664.21L749.96,663L753.22,666.64L756.48,664.82L759.74,664.21L763,663L766.26,666.64L769.53,665.42L772.79,661.78L776.05,667.24L779.31,664.21L782.57,661.78L785.83,661.18L789.09,664.21L792.35,664.82L795.61,665.42L798.87,661.78L805.39,661.78L808.65,663.6L811.91,663L815.18,663.6L818.44,664.82L821.7,664.21L824.96,661.18L828.22,661.78L834.74,661.78L838,663" style="vector-effect: non-scaling-stroke; fill: none; stroke: rgb(44, 160, 44); stroke-opacity: 1; stroke-width: 2px; opacity: 1;"/></g><g class="points"/><g class="text"/></g></g></g><g class="overplot"/><path class="xlines-above crisp" style="fill: none;" d="M0,0"/><path class="ylines-above crisp" style="fill: none;" d="M0,0"/><g class="overlines-above"/><g class="xaxislayer-above"><g class="xtick"><text text-anchor="middle" x="0" y="741" transform="translate(99.13,0)" style="font-family: 'Open Sans', verdana, arial, sans-serif; font-size: 12px; fill: rgb(68, 68, 68); fill-opacity: 1; white-space: pre;">Mar 2020</text></g><g class="xtick"><text text-anchor="middle" x="0" y="741" transform="translate(200.21,0)" style="font-family: 'Open Sans', verdana, arial, sans-serif; font-size: 12px; fill: rgb(68, 68, 68); fill-opacity: 1; white-space: pre;">Apr 2020</text></g><g class="xtick"><text text-anchor="middle" x="0" y="741" transform="translate(298.03,0)" style="font-family: 'Open Sans', verdana, arial, sans-serif; font-size: 12px; fill: rgb(68, 68, 68); fill-opacity: 1; white-space: pre;">May 2020</text></g><g class="xtick"><text text-anchor="middle" x="0" y="741" transform="translate(399.11,0)" style="font-family: 'Open Sans', verdana, arial, sans-serif; font-size: 12px; fill: rgb(68, 68, 68); fill-opacity: 1; white-space: pre;">Jun 2020</text></g><g class="xtick"><text text-anchor="middle" x="0" y="741" transform="translate(496.93,0)" style="font-family: 'Open Sans', verdana, arial, sans-serif; font-size: 12px; fill: rgb(68, 68, 68); fill-opacity: 1; white-space: pre;">Jul 2020</text></g><g class="xtick"><text text-anchor="middle" x="0" y="741" transform="translate(598.02,0)" style="font-family: 'Open Sans', verdana, arial, sans-serif; font-size: 12px; fill: rgb(68, 68, 68); fill-opacity: 1; white-space: pre;">Aug 2020</text></g><g class="xtick"><text text-anchor="middle" x="0" y="741" transform="translate(699.1,0)" style="font-family: 'Open Sans', verdana, arial, sans-serif; font-size: 12px; fill: rgb(68, 68, 68); fill-opacity: 1; white-space: pre;">Sep 2020</text></g><g class="xtick"><text text-anchor="middle" x="0" y="741" transform="translate(796.92,0)" style="font-family: 'Open Sans', verdana, arial, sans-serif; font-size: 12px; fill: rgb(68, 68, 68); fill-opacity: 1; white-space: pre;">Oct 2020</text></g><g class="xtick"><text text-anchor="middle" x="0" y="741" transform="translate(898,0)" style="font-family: 'Open Sans', verdana, arial, sans-serif; font-size: 12px; fill: rgb(68, 68, 68); fill-opacity: 1; white-space: pre;">Nov 2020</text></g></g><g class="yaxislayer-above"><g class="ytick"><text text-anchor="end" x="59" y="4.199999999999999" transform="translate(0,692.24)" style="font-family: 'Open Sans', verdana, arial, sans-serif; font-size: 12px; fill: rgb(68, 68, 68); fill-opacity: 1; white-space: pre;">0</text></g><g class="ytick"><text text-anchor="end" x="59" y="4.199999999999999" transform="translate(0,570.92)" style="font-family: 'Open Sans', verdana, arial, sans-serif; font-size: 12px; fill: rgb(68, 68, 68); fill-opacity: 1; white-space: pre;">200</text></g><g class="ytick"><text text-anchor="end" x="59" y="4.199999999999999" transform="translate(0,449.6)" style="font-family: 'Open Sans', verdana, arial, sans-serif; font-size: 12px; fill: rgb(68, 68, 68); fill-opacity: 1; white-space: pre;">400</text></g><g class="ytick"><text text-anchor="end" x="59" y="4.199999999999999" transform="translate(0,328.27)" style="font-family: 'Open Sans', verdana, arial, sans-serif; font-size: 12px; fill: rgb(68, 68, 68); fill-opacity: 1; white-space: pre;">600</text></g><g class="ytick"><text text-anchor="end" x="59" y="4.199999999999999" transform="translate(0,206.95)" style="font-family: 'Open Sans', verdana, arial, sans-serif; font-size: 12px; fill: rgb(68, 68, 68); fill-opacity: 1; white-space: pre;">800</text></g><g class="ytick"><text text-anchor="end" x="59" y="4.199999999999999" transform="translate(0,85.63)" style="font-family: 'Open Sans', verdana, arial, sans-serif; font-size: 12px; fill: rgb(68, 68, 68); fill-opacity: 1; white-space: pre;">1000</text></g></g><g class="overaxes-above"/></g></g><g class="polarlayer"/><g class="ternarylayer"/><g class="geolayer"/><g class="funnelarealayer"/><g class="pielayer"/><g class="treemaplayer"/><g class="sunburstlayer"/><g class="glimages"/><defs id="topdefs-4a795d"><g class="clips"/><clipPath id="legend4a795d"><rect width="102" height="67" x="0" y="0"/></clipPath></defs><g class="layer-above"><g class="imagelayer"/><g class="shapelayer"/></g><g class="infolayer"><g class="legend" pointer-events="all" transform="translate(914.76, 25)"><rect class="bg" shape-rendering="crispEdges" style="stroke: rgb(68, 68, 68); stroke-opacity: 1; fill: rgb(255, 255, 255); fill-opacity: 1; stroke-width: 0px;" width="102" height="67" x="0" y="0"/><g class="scrollbox" transform="translate(0, 0)" clip-path="url('#legend4a795d')"><g class="groups"><g class="traces" style="opacity: 1;" transform="translate(0, 14.5)"><text class="legendtext user-select-none" text-anchor="start" x="40" y="4.680000000000001" style="font-family: 'Open Sans', verdana, arial, sans-serif; font-size: 12px; fill: rgb(68, 68, 68); fill-opacity: 1; white-space: pre;">positive</text><g class="layers" style="opacity: 1;"><g class="legendfill"/><g class="legendlines"><path class="js-line" d="M5,0h30" style="fill: none; stroke: rgb(31, 119, 180); stroke-opacity: 1; stroke-width: 2px;"/></g><g class="legendsymbols"><g class="legendpoints"/></g></g><rect class="legendtoggle" pointer-events="all" x="0" y="-9.5" width="96.109375" height="19" style="cursor: pointer; fill: rgb(0, 0, 0); fill-opacity: 0;"/></g><g class="traces" style="opacity: 1;" transform="translate(0, 33.5)"><text class="legendtext user-select-none" text-anchor="start" x="40" y="4.680000000000001" style="font-family: 'Open Sans', verdana, arial, sans-serif; font-size: 12px; fill: rgb(68, 68, 68); fill-opacity: 1; white-space: pre;">resolved</text><g class="layers" style="opacity: 1;"><g class="legendfill"/><g class="legendlines"><path class="js-line" d="M5,0h30" style="fill: none; stroke: rgb(255, 127, 14); stroke-opacity: 1; stroke-width: 2px;"/></g><g class="legendsymbols"><g class="legendpoints"/></g></g><rect class="legendtoggle" pointer-events="all" x="0" y="-9.5" width="96.109375" height="19" style="cursor: pointer; fill: rgb(0, 0, 0); fill-opacity: 0;"/></g><g class="traces" style="opacity: 1;" transform="translate(0, 52.5)"><text class="legendtext user-select-none" text-anchor="start" x="40" y="4.680000000000001" style="font-family: 'Open Sans', verdana, arial, sans-serif; font-size: 12px; fill: rgb(68, 68, 68); fill-opacity: 1; white-space: pre;">deceased</text><g class="layers" style="opacity: 1;"><g class="legendfill"/><g class="legendlines"><path class="js-line" d="M5,0h30" style="fill: none; stroke: rgb(44, 160, 44); stroke-opacity: 1; stroke-width: 2px;"/></g><g class="legendsymbols"><g class="legendpoints"/></g></g><rect class="legendtoggle" pointer-events="all" x="0" y="-9.5" width="96.109375" height="19" style="cursor: pointer; fill: rgb(0, 0, 0); fill-opacity: 0;"/></g></g></g><rect class="scrollbar" rx="20" ry="3" width="0" height="0" style="fill: rgb(128, 139, 164); fill-opacity: 1;" x="0" y="0"/></g><g class="g-gtitle"><text class="gtitle" x="513.5" y="12.5" text-anchor="middle" dy="0em" style="font-family: 'Open Sans', verdana, arial, sans-serif; font-size: 17px; fill: rgb(68, 68, 68); opacity: 1; font-weight: normal; white-space: pre;">Dynamics of new cases, resolved cases and deaths in Ontario (Nov 02, 2020)</text></g><g class="g-xtitle" transform="translate(0,-15)"><text class="xtitle" x="479" y="780" text-anchor="middle" style="font-family: 'Open Sans', verdana, arial, sans-serif; font-size: 14px; fill: rgb(68, 68, 68); opacity: 1; font-weight: normal; white-space: pre;">Date</text></g><g class="g-ytitle"><text class="ytitle" transform="rotate(-90,22,376.5)" x="22" y="376.5" text-anchor="middle" style="font-family: 'Open Sans', verdana, arial, sans-serif; font-size: 14px; fill: rgb(68, 68, 68); opacity: 1; font-weight: normal; white-space: pre;">Number of cases</text></g></g></svg>