<svg class="main-svg" xmlns="http://www.w3.org/2000/svg" xmlns:xlink="http://www.w3.org/1999/xlink" width="1027" height="768" style="" viewBox="0 0 1027 768"><rect x="0" y="0" width="1027" height="768" style="fill: rgb(255, 255, 255); fill-opacity: 1;"/><defs id="defs-22373f"><g class="clips"><clipPath id="clip22373fxyplot" class="plotclip"><rect width="838" height="703"/></clipPath><clipPath class="axesclip" id="clip22373fx"><rect x="60" y="0" width="838" height="768"/></clipPath><clipPath class="axesclip" id="clip22373fy"><rect x="0" y="25" width="1027" height="703"/></clipPath><clipPath class="axesclip" id="clip22373fxy"><rect x="60" y="25" width="838" height="703"/></clipPath></g><g class="gradients"/></defs><g class="bglayer"/><g class="layer-below"><g class="imagelayer"/><g class="shapelayer"/></g><g class="cartesianlayer"><g class="subplot xy"><g class="layer-subplot"><g class="shapelayer"/><g class="imagelayer"/></g><g class="gridlayer"><g class="x"><path class="xgrid crisp" transform="translate(109.05,0)" d="M0,25v703" style="stroke: rgb(238, 238, 238); stroke-opacity: 1; stroke-width: 1px;"/><path class="xgrid crisp" transform="translate(235.78,0)" d="M0,25v703" style="stroke: rgb(238, 238, 238); stroke-opacity: 1; stroke-width: 1px;"/><path class="xgrid crisp" transform="translate(358.41,0)" d="M0,25v703" style="stroke: rgb(238, 238, 238); stroke-opacity: 1; stroke-width: 1px;"/><path class="xgrid crisp" transform="translate(485.13,0)" d="M0,25v703" style="stroke: rgb(238, 238, 238); stroke-opacity: 1; stroke-width: 1px;"/><path class="xgrid crisp" transform="translate(607.77,0)" d="M0,25v703" style="stroke: rgb(238, 238, 238); stroke-opacity: 1; stroke-width: 1px;"/><path class="xgrid crisp" transform="translate(734.49,0)" d="M0,25v703" style="stroke: rgb(238, 238, 238); stroke-opacity: 1; stroke-width: 1px;"/><path class="xgrid crisp" transform="translate(861.21,0)" d="M0,25v703" style="stroke: rgb(238, 238, 238); stroke-opacity: 1; stroke-width: 1px;"/></g><g class="y"><path class="ygrid crisp" transform="translate(0,594.39)" d="M60,0h838" style="stroke: rgb(238, 238, 238); stroke-opacity: 1; stroke-width: 1px;"/><path class="ygrid crisp" transform="translate(0,496.9)" d="M60,0h838" style="stroke: rgb(238, 238, 238); stroke-opacity: 1; stroke-width: 1px;"/><path class="ygrid crisp" transform="translate(0,399.41)" d="M60,0h838" style="stroke: rgb(238, 238, 238); stroke-opacity: 1; stroke-width: 1px;"/><path class="ygrid crisp" transform="translate(0,301.92)" d="M60,0h838" style="stroke: rgb(238, 238, 238); stroke-opacity: 1; stroke-width: 1px;"/><path class="ygrid crisp" transform="translate(0,204.43)" d="M60,0h838" style="stroke: rgb(238, 238, 238); stroke-opacity: 1; stroke-width: 1px;"/><path class="ygrid crisp" transform="translate(0,106.94)" d="M60,0h838" style="stroke: rgb(238, 238, 238); stroke-opacity: 1; stroke-width: 1px;"/></g></g><g class="zerolinelayer"><path class="yzl zl crisp" transform="translate(0,691.88)" d="M60,0h838" style="stroke: rgb(68, 68, 68); stroke-opacity: 1; stroke-width: 1px;"/></g><path class="xlines-below"/><path class="ylines-below"/><g class="overlines-below"/><g class="xaxislayer-below"/><g class="yaxislayer-below"/><g class="overaxes-below"/><g class="plot" transform="translate(60, 25)" clip-path="url('#clip22373fxyplot')"><g class="scatterlayer mlayer"><g class="trace scatter tracea68848" style="stroke-miterlimit: 2; opacity: 1;"><g class="fills"/><g class="errorbars"/><g class="lines"><path class="js-line" d="M0,666.88L4.09,666.88L8.18,667.85L12.26,667.85L24.53,665.9L32.7,666.88L36.79,665.9L40.88,665.9L53.14,655.18L57.23,664.93L61.32,666.88L65.4,665.9L69.49,662.98L73.58,664.93L81.76,660.05L85.84,666.88L89.93,661.03L94.02,650.3L98.11,647.38L102.2,643.48L106.28,625.93L110.37,635.68L114.46,656.15L118.55,642.5L122.63,624.96L126.72,608.38L130.81,611.31L134.9,623.98L138.99,591.81L143.07,585.96L147.16,574.26L151.25,503.09L155.34,538.19L159.42,520.64L163.51,92.67L167.6,413.41L171.69,251.57L175.78,275.95L179.86,216.48L183.95,301.29L188.04,269.12L192.13,365.64L196.21,297.39L200.3,130.69L204.39,196.01L208.48,200.88L212.57,266.2L216.65,275.95L220.74,256.45L224.83,196.01L228.92,185.28L233,165.78L237.09,117.04L241.18,194.06L245.27,113.14L249.36,76.1L253.44,129.71L257.53,169.68L261.62,48.8L265.71,42.95L269.8,202.83L273.88,240.85L277.97,253.52L282.06,155.06L286.15,328.59L290.23,219.4L294.32,256.45L298.41,168.71L302.5,243.78L306.59,306.17L310.67,289.59L314.76,265.22L318.85,277.9L322.94,201.86L327.02,329.57L331.11,380.26L335.2,366.61L339.29,314.94L343.38,346.14L347.46,330.54L351.55,334.44L355.64,285.7L359.73,335.41L363.81,370.51L367.9,250.6L371.99,286.67L376.08,264.25L380.17,236.95L384.25,265.22L388.34,218.43L392.43,273.02L396.52,387.08L400.6,382.21L404.69,293.49L408.78,331.51L412.87,351.99L416.96,349.06L421.04,273.02L425.13,232.08L429.22,337.36L433.31,319.82L437.4,331.51L441.48,223.3L445.57,262.3L449.66,429.98L453.75,442.65L457.83,422.18L461.92,468.97L466.01,489.45L470.1,407.56L474.19,474.82L478.27,490.42L482.36,487.5L486.45,481.65L490.54,498.22L494.62,493.35L498.71,466.05L502.8,496.27L506.89,509.92L510.98,456.3L515.06,507.97L519.15,482.62L523.24,558.66L527.33,510.89L531.41,493.35L535.5,416.33L539.59,513.82L543.68,521.62L547.77,517.72L551.85,506.02L555.94,548.91L564.12,516.74L568.2,557.69L572.29,551.84L576.38,501.14L580.47,553.79L584.56,540.14L588.64,541.12L592.73,553.79L596.82,558.66L600.91,567.44L605,558.66L609.08,558.66L613.17,505.04L617.26,506.99L621.35,535.27L625.43,468.97L629.52,506.02L633.61,566.46L637.7,476.77L641.79,532.34L645.87,533.32L649.96,550.86L654.05,558.66L658.14,592.78L662.22,580.11L666.31,536.24L670.4,545.99L674.49,553.79L678.58,581.09L682.66,578.16L686.75,583.04L690.84,574.26L694.93,581.09L699.01,598.63L703.1,589.86L707.19,554.76L711.28,634.7L715.37,574.26L719.45,590.83L723.54,577.19L727.63,563.54L731.72,587.91L735.8,570.36L739.89,545.01L748.07,592.78L752.16,539.17L756.24,561.59L760.33,554.76L764.42,564.51L768.51,569.39L772.6,581.09L776.68,551.84L780.77,547.94L784.86,522.59L788.95,557.69L793.03,555.74L797.12,557.69L801.21,537.22L805.3,538.19L809.39,522.59L813.47,502.12L817.56,512.84L821.65,481.65L825.74,486.52L829.82,521.62L833.91,501.14L838,459.22" style="vector-effect: non-scaling-stroke; fill: none; stroke: rgb(31, 119, 180); stroke-opacity: 1; stroke-width: 2px; opacity: 1;"/></g><g class="points"/><g class="text"/></g><g class="trace scatter traced25c13" style="stroke-miterlimit: 2; opacity: 1;"><g class="fills"/><g class="errorbars"/><g class="lines"><path class="js-line" d="M0,666.88L4.09,666.88L8.18,665.9L12.26,665.9L24.53,666.88L61.32,666.88L65.4,665.9L69.49,666.88L73.58,666.88L81.76,666.88L85.84,665.9L89.93,666.88L94.02,666.88L126.72,666.88L130.81,665.9L134.9,664.93L138.99,666.88L159.42,666.88L163.51,254.5L167.6,566.46L171.69,515.77L175.78,528.44L179.86,479.7L183.95,475.8L188.04,442.65L192.13,496.27L196.21,493.35L200.3,401.71L204.39,441.68L208.48,404.63L212.57,390.01L216.65,410.48L220.74,436.8L224.83,461.17L228.92,341.26L233,382.21L237.09,313.97L241.18,355.89L245.27,341.26L249.36,368.56L253.44,383.18L257.53,262.3L261.62,219.4L265.71,270.1L269.8,255.47L273.88,188.21L277.97,155.06L282.06,238.9L286.15,35.15L290.23,88.77L294.32,62.45L298.41,116.07L302.5,67.32L306.59,179.43L310.67,399.76L314.76,235L318.85,328.59L322.94,256.45L327.02,283.75L331.11,287.65L335.2,316.89L339.29,413.41L343.38,224.28L347.46,316.89L351.55,240.85L355.64,297.39L359.73,335.41L363.81,395.86L367.9,413.41L376.08,355.89L380.17,415.35L384.25,297.39L388.34,344.19L392.43,451.43L396.52,413.41L400.6,263.27L404.69,373.43L408.78,364.66L412.87,306.17L416.96,221.35L421.04,332.49L425.13,344.19L429.22,348.09L433.31,279.85L437.4,301.29L441.48,312.02L445.57,369.54L449.66,432.9L453.75,338.34L457.83,129.71L461.92,174.56L466.01,372.46L470.1,324.69L474.19,254.5L478.27,421.2L482.36,454.35L486.45,322.74L490.54,452.4L494.62,427.05L498.71,454.35L502.8,422.18L510.98,497.25L515.06,443.63L519.15,479.7L523.24,446.55L527.33,493.35L531.41,496.27L535.5,580.11L539.59,522.59L543.68,489.45L547.77,468L551.85,492.37L555.94,497.25L560.03,488.47L564.12,510.89L568.2,494.32L572.29,469.95L576.38,499.19L580.47,493.35L584.56,406.58L588.64,557.69L592.73,541.12L596.82,547.94L600.91,535.27L605,529.42L609.08,568.41L613.17,538.19L617.26,556.71L621.35,563.54L625.43,577.19L629.52,465.07L633.61,519.67L637.7,533.32L641.79,530.39L645.87,550.86L649.96,567.44L654.05,563.54L658.14,497.25L662.22,506.02L666.31,503.09L670.4,507.97L674.49,547.94L678.58,544.04L682.66,553.79L686.75,524.54L690.84,511.87L694.93,551.84L699.01,562.56L703.1,522.59L707.19,567.44L711.28,593.76L715.37,536.24L719.45,570.36L723.54,585.96L727.63,568.41L731.72,588.88L735.8,585.96L739.89,579.14L743.98,580.11L748.07,592.78L752.16,563.54L756.24,579.14L760.33,561.59L764.42,590.83L768.51,593.76L772.6,554.76L776.68,591.81L780.77,585.96L784.86,566.46L788.95,590.83L793.03,595.71L797.12,577.19L801.21,533.32L805.3,550.86L809.39,553.79L813.47,563.54L817.56,558.66L821.65,550.86L825.74,550.86L829.82,534.29L833.91,528.44L838,545.99" style="vector-effect: non-scaling-stroke; fill: none; stroke: rgb(255, 127, 14); stroke-opacity: 1; stroke-width: 2px; opacity: 1;"/></g><g class="points"/><g class="text"/></g><g class="trace scatter trace3bbeba" style="stroke-miterlimit: 2; opacity: 1;"><g class="fills"/><g class="errorbars"/><g class="lines"><path class="js-line" d="M0,666.88L110.37,666.88L114.46,665.9L118.55,666.88L122.63,665.9L126.72,666.88L130.81,665.9L134.9,664.93L138.99,665.9L143.07,664.93L147.16,662L151.25,664.93L155.34,663.95L159.42,665.9L163.51,662.98L167.6,657.13L171.69,662.98L175.78,651.28L179.86,653.23L183.95,640.55L188.04,642.5L192.13,654.2L196.21,646.4L200.3,646.4L204.39,641.53L208.48,645.43L212.57,636.65L216.65,646.4L220.74,650.3L224.83,624.96L228.92,617.16L233,629.83L237.09,613.26L241.18,631.78L245.27,628.85L249.36,636.65L253.44,629.83L257.53,630.8L261.62,614.23L265.71,618.13L269.8,620.08L273.88,643.48L277.97,611.31L282.06,609.36L286.15,623.01L290.23,583.04L294.32,628.85L298.41,613.26L302.5,627.88L306.59,584.98L310.67,607.41L314.76,600.58L318.85,620.08L322.94,605.46L327.02,609.36L331.11,632.75L335.2,632.75L339.29,612.28L343.38,627.88L351.55,640.55L355.64,634.7L359.73,644.45L363.81,644.45L367.9,652.25L371.99,624.96L376.08,636.65L380.17,639.58L384.25,640.55L388.34,642.5L392.43,638.6L396.52,646.4L400.6,635.68L404.69,633.73L408.78,626.9L412.87,650.3L416.96,648.35L421.04,657.13L425.13,650.3L429.22,648.35L433.31,623.01L437.4,652.25L441.48,632.75L445.57,648.35L449.66,643.48L453.75,653.23L457.83,656.15L461.92,655.18L466.01,656.15L470.1,658.1L474.19,655.18L478.27,659.08L482.36,656.15L486.45,655.18L490.54,663.95L494.62,656.15L498.71,636.65L502.8,656.15L506.89,663.95L510.98,657.13L515.06,655.18L519.15,657.13L523.24,663.95L527.33,659.08L531.41,661.03L535.5,660.05L539.59,660.05L543.68,662.98L547.77,662.98L551.85,664.93L555.94,662L560.03,664.93L564.12,666.88L568.2,664.93L572.29,658.1L576.38,663.95L580.47,660.05L584.56,661.03L588.64,663.95L592.73,663.95L596.82,665.9L600.91,658.1L605,662L609.08,658.1L613.17,664.93L617.26,663.95L621.35,665.9L625.43,665.9L629.52,664.93L633.61,666.88L637.7,663.95L641.79,665.9L645.87,662.98L649.96,665.9L654.05,662.98L658.14,665.9L662.22,663.95L666.31,663.95L678.58,666.88L682.66,662.98L686.75,666.88L690.84,665.9L694.93,666.88L699.01,665.9L703.1,664.93L707.19,666.88L711.28,666.88L715.37,665.9L719.45,666.88L723.54,665.9L727.63,665.9L731.72,666.88L735.8,666.88L739.89,662.98L743.98,667.85L748.07,665.9L752.16,663.95L756.24,665.9L760.33,666.88L764.42,665.9L768.51,664.93L772.6,664.93L776.68,665.9L780.77,661.03L784.86,666.88L788.95,665.9L797.12,665.9L801.21,666.88L805.3,666.88L809.39,667.85L813.47,666.88L817.56,664.93L821.65,666.88L825.74,666.88L829.82,666.88L833.91,665.9L838,667.85" style="vector-effect: non-scaling-stroke; fill: none; stroke: rgb(44, 160, 44); stroke-opacity: 1; stroke-width: 2px; opacity: 1;"/></g><g class="points"/><g class="text"/></g></g></g><g class="overplot"/><path class="xlines-above crisp" style="fill: none;" d="M0,0"/><path class="ylines-above crisp" style="fill: none;" d="M0,0"/><g class="overlines-above"/><g class="xaxislayer-above"><g class="xtick"><text text-anchor="middle" x="0" y="741" transform="translate(109.05,0)" style="font-family: 'Open Sans', verdana, arial, sans-serif; font-size: 12px; fill: rgb(68, 68, 68); fill-opacity: 1; white-space: pre;">Mar 2020</text></g><g class="xtick"><text text-anchor="middle" x="0" y="741" transform="translate(235.78,0)" style="font-family: 'Open Sans', verdana, arial, sans-serif; font-size: 12px; fill: rgb(68, 68, 68); fill-opacity: 1; white-space: pre;">Apr 2020</text></g><g class="xtick"><text text-anchor="middle" x="0" y="741" transform="translate(358.41,0)" style="font-family: 'Open Sans', verdana, arial, sans-serif; font-size: 12px; fill: rgb(68, 68, 68); fill-opacity: 1; white-space: pre;">May 2020</text></g><g class="xtick"><text text-anchor="middle" x="0" y="741" transform="translate(485.13,0)" style="font-family: 'Open Sans', verdana, arial, sans-serif; font-size: 12px; fill: rgb(68, 68, 68); fill-opacity: 1; white-space: pre;">Jun 2020</text></g><g class="xtick"><text text-anchor="middle" x="0" y="741" transform="translate(607.77,0)" style="font-family: 'Open Sans', verdana, arial, sans-serif; font-size: 12px; fill: rgb(68, 68, 68); fill-opacity: 1; white-space: pre;">Jul 2020</text></g><g class="xtick"><text text-anchor="middle" x="0" y="741" transform="translate(734.49,0)" style="font-family: 'Open Sans', verdana, arial, sans-serif; font-size: 12px; fill: rgb(68, 68, 68); fill-opacity: 1; white-space: pre;">Aug 2020</text></g><g class="xtick"><text text-anchor="middle" x="0" y="741" transform="translate(861.21,0)" style="font-family: 'Open Sans', verdana, arial, sans-serif; font-size: 12px; fill: rgb(68, 68, 68); fill-opacity: 1; white-space: pre;">Sep 2020</text></g></g><g class="yaxislayer-above"><g class="ytick"><text text-anchor="end" x="59" y="4.199999999999999" transform="translate(0,691.88)" style="font-family: 'Open Sans', verdana, arial, sans-serif; font-size: 12px; fill: rgb(68, 68, 68); fill-opacity: 1; white-space: pre;">0</text></g><g class="ytick"><text text-anchor="end" x="59" y="4.199999999999999" transform="translate(0,594.39)" style="font-family: 'Open Sans', verdana, arial, sans-serif; font-size: 12px; fill: rgb(68, 68, 68); fill-opacity: 1; white-space: pre;">100</text></g><g class="ytick"><text text-anchor="end" x="59" y="4.199999999999999" transform="translate(0,496.9)" style="font-family: 'Open Sans', verdana, arial, sans-serif; font-size: 12px; fill: rgb(68, 68, 68); fill-opacity: 1; white-space: pre;">200</text></g><g class="ytick"><text text-anchor="end" x="59" y="4.199999999999999" transform="translate(0,399.41)" style="font-family: 'Open Sans', verdana, arial, sans-serif; font-size: 12px; fill: rgb(68, 68, 68); fill-opacity: 1; white-space: pre;">300</text></g><g class="ytick"><text text-anchor="end" x="59" y="4.199999999999999" transform="translate(0,301.92)" style="font-family: 'Open Sans', verdana, arial, sans-serif; font-size: 12px; fill: rgb(68, 68, 68); fill-opacity: 1; white-space: pre;">400</text></g><g class="ytick"><text text-anchor="end" x="59" y="4.199999999999999" transform="translate(0,204.43)" style="font-family: 'Open Sans', verdana, arial, sans-serif; font-size: 12px; fill: rgb(68, 68, 68); fill-opacity: 1; white-space: pre;">500</text></g><g class="ytick"><text text-anchor="end" x="59" y="4.199999999999999" transform="translate(0,106.94)" style="font-family: 'Open Sans', verdana, arial, sans-serif; font-size: 12px; fill: rgb(68, 68, 68); fill-opacity: 1; white-space: pre;">600</text></g></g><g class="overaxes-above"/></g></g><g class="polarlayer"/><g class="ternarylayer"/><g class="geolayer"/><g class="funnelarealayer"/><g class="pielayer"/><g class="treemaplayer"/><g class="sunburstlayer"/><g class="glimages"/><defs id="topdefs-22373f"><g class="clips"/><clipPath id="legend22373f"><rect width="102" height="67" x="0" y="0"/></clipPath></defs><g class="layer-above"><g class="imagelayer"/><g class="shapelayer"/></g><g class="infolayer"><g class="legend" pointer-events="all" transform="translate(914.76, 25)"><rect class="bg" shape-rendering="crispEdges" style="stroke: rgb(68, 68, 68); stroke-opacity: 1; fill: rgb(255, 255, 255); fill-opacity: 1; stroke-width: 0px;" width="102" height="67" x="0" y="0"/><g class="scrollbox" transform="translate(0, 0)" clip-path="url('#legend22373f')"><g class="groups"><g class="traces" style="opacity: 1;" transform="translate(0, 14.5)"><text class="legendtext user-select-none" text-anchor="start" x="40" y="4.680000000000001" style="font-family: 'Open Sans', verdana, arial, sans-serif; font-size: 12px; fill: rgb(68, 68, 68); fill-opacity: 1; white-space: pre;">positive</text><g class="layers" style="opacity: 1;"><g class="legendfill"/><g class="legendlines"><path class="js-line" d="M5,0h30" style="fill: none; stroke: rgb(31, 119, 180); stroke-opacity: 1; stroke-width: 2px;"/></g><g class="legendsymbols"><g class="legendpoints"/></g></g><rect class="legendtoggle" pointer-events="all" x="0" y="-9.5" width="96.109375" height="19" style="cursor: pointer; fill: rgb(0, 0, 0); fill-opacity: 0;"/></g><g class="traces" style="opacity: 1;" transform="translate(0, 33.5)"><text class="legendtext user-select-none" text-anchor="start" x="40" y="4.680000000000001" style="font-family: 'Open Sans', verdana, arial, sans-serif; font-size: 12px; fill: rgb(68, 68, 68); fill-opacity: 1; white-space: pre;">resolved</text><g class="layers" style="opacity: 1;"><g class="legendfill"/><g class="legendlines"><path class="js-line" d="M5,0h30" style="fill: none; stroke: rgb(255, 127, 14); stroke-opacity: 1; stroke-width: 2px;"/></g><g class="legendsymbols"><g class="legendpoints"/></g></g><rect class="legendtoggle" pointer-events="all" x="0" y="-9.5" width="96.109375" height="19" style="cursor: pointer; fill: rgb(0, 0, 0); fill-opacity: 0;"/></g><g class="traces" style="opacity: 1;" transform="translate(0, 52.5)"><text class="legendtext user-select-none" text-anchor="start" x="40" y="4.680000000000001" style="font-family: 'Open Sans', verdana, arial, sans-serif; font-size: 12px; fill: rgb(68, 68, 68); fill-opacity: 1; white-space: pre;">deceased</text><g class="layers" style="opacity: 1;"><g class="legendfill"/><g class="legendlines"><path class="js-line" d="M5,0h30" style="fill: none; stroke: rgb(44, 160, 44); stroke-opacity: 1; stroke-width: 2px;"/></g><g class="legendsymbols"><g class="legendpoints"/></g></g><rect class="legendtoggle" pointer-events="all" x="0" y="-9.5" width="96.109375" height="19" style="cursor: pointer; fill: rgb(0, 0, 0); fill-opacity: 0;"/></g></g></g><rect class="scrollbar" rx="20" ry="3" width="0" height="0" style="fill: rgb(128, 139, 164); fill-opacity: 1;" x="0" y="0"/></g><g class="g-gtitle"><text class="gtitle" x="513.5" y="12.5" text-anchor="middle" dy="0em" style="font-family: 'Open Sans', verdana, arial, sans-serif; font-size: 17px; fill: rgb(68, 68, 68); opacity: 1; font-weight: normal; white-space: pre;">Dynamics of new cases, resolved cases and deaths in Ontario (Sep 11, 2020)</text></g><g class="g-xtitle" transform="translate(0,-15)"><text class="xtitle" x="479" y="780" text-anchor="middle" style="font-family: 'Open Sans', verdana, arial, sans-serif; font-size: 14px; fill: rgb(68, 68, 68); opacity: 1; font-weight: normal; white-space: pre;">Date</text></g><g class="g-ytitle"><text class="ytitle" transform="rotate(-90,22,376.5)" x="22" y="376.5" text-anchor="middle" style="font-family: 'Open Sans', verdana, arial, sans-serif; font-size: 14px; fill: rgb(68, 68, 68); opacity: 1; font-weight: normal; white-space: pre;">Number of cases</text></g></g></svg>