<svg class="main-svg" xmlns="http://www.w3.org/2000/svg" xmlns:xlink="http://www.w3.org/1999/xlink" width="1027" height="768" style="" viewBox="0 0 1027 768"><rect x="0" y="0" width="1027" height="768" style="fill: rgb(255, 255, 255); fill-opacity: 1;"/><defs id="defs-743025"><g class="clips"><clipPath id="clip743025xyplot" class="plotclip"><rect width="838" height="703"/></clipPath><clipPath class="axesclip" id="clip743025x"><rect x="60" y="0" width="838" height="768"/></clipPath><clipPath class="axesclip" id="clip743025y"><rect x="0" y="25" width="1027" height="703"/></clipPath><clipPath class="axesclip" id="clip743025xy"><rect x="60" y="25" width="838" height="703"/></clipPath></g><g class="gradients"/></defs><g class="bglayer"/><g class="layer-below"><g class="imagelayer"/><g class="shapelayer"/></g><g class="cartesianlayer"><g class="subplot xy"><g class="layer-subplot"><g class="shapelayer"/><g class="imagelayer"/></g><g class="gridlayer"><g class="x"><path class="xgrid crisp" transform="translate(122.07,0)" d="M0,25v703" style="stroke: rgb(238, 238, 238); stroke-opacity: 1; stroke-width: 1px;"/><path class="xgrid crisp" transform="translate(282.43,0)" d="M0,25v703" style="stroke: rgb(238, 238, 238); stroke-opacity: 1; stroke-width: 1px;"/><path class="xgrid crisp" transform="translate(437.62,0)" d="M0,25v703" style="stroke: rgb(238, 238, 238); stroke-opacity: 1; stroke-width: 1px;"/><path class="xgrid crisp" transform="translate(597.98,0)" d="M0,25v703" style="stroke: rgb(238, 238, 238); stroke-opacity: 1; stroke-width: 1px;"/><path class="xgrid crisp" transform="translate(753.16,0)" d="M0,25v703" style="stroke: rgb(238, 238, 238); stroke-opacity: 1; stroke-width: 1px;"/></g><g class="y"><path class="ygrid crisp" transform="translate(0,594.39)" d="M60,0h838" style="stroke: rgb(238, 238, 238); stroke-opacity: 1; stroke-width: 1px;"/><path class="ygrid crisp" transform="translate(0,496.9)" d="M60,0h838" style="stroke: rgb(238, 238, 238); stroke-opacity: 1; stroke-width: 1px;"/><path class="ygrid crisp" transform="translate(0,399.41)" d="M60,0h838" style="stroke: rgb(238, 238, 238); stroke-opacity: 1; stroke-width: 1px;"/><path class="ygrid crisp" transform="translate(0,301.92)" d="M60,0h838" style="stroke: rgb(238, 238, 238); stroke-opacity: 1; stroke-width: 1px;"/><path class="ygrid crisp" transform="translate(0,204.43)" d="M60,0h838" style="stroke: rgb(238, 238, 238); stroke-opacity: 1; stroke-width: 1px;"/><path class="ygrid crisp" transform="translate(0,106.94)" d="M60,0h838" style="stroke: rgb(238, 238, 238); stroke-opacity: 1; stroke-width: 1px;"/></g></g><g class="zerolinelayer"><path class="yzl zl crisp" transform="translate(0,691.88)" d="M60,0h838" style="stroke: rgb(68, 68, 68); stroke-opacity: 1; stroke-width: 1px;"/></g><path class="xlines-below"/><path class="ylines-below"/><g class="overlines-below"/><g class="xaxislayer-below"/><g class="yaxislayer-below"/><g class="overaxes-below"/><g class="plot" transform="translate(60, 25)" clip-path="url('#clip743025xyplot')"><g class="scatterlayer mlayer"><g class="trace scatter tracee9aec1" style="stroke-miterlimit: 2; opacity: 1;"><g class="fills"/><g class="errorbars"/><g class="lines"><path class="js-line" d="M0,666.88L5.17,666.88L10.35,667.85L15.52,667.85L31.04,665.9L41.38,666.88L46.56,665.9L51.73,665.9L67.25,655.18L72.42,664.93L77.59,666.88L82.77,665.9L87.94,662.98L93.11,664.93L103.46,660.05L108.63,666.88L113.8,661.03L118.98,650.3L124.15,647.38L129.32,643.48L134.49,625.93L139.67,635.68L144.84,656.15L150.01,642.5L155.19,624.96L160.36,608.38L165.53,611.31L170.7,623.98L175.88,591.81L181.05,585.96L186.22,574.26L191.4,503.09L196.57,538.19L201.74,520.64L206.91,92.67L212.09,413.41L217.26,251.57L222.43,275.95L227.6,216.48L232.78,301.29L237.95,269.12L243.12,365.64L248.3,297.39L253.47,130.69L258.64,196.01L263.81,200.88L268.99,266.2L274.16,275.95L279.33,256.45L284.51,196.01L289.68,185.28L294.85,165.78L300.02,117.04L305.2,194.06L310.37,113.14L315.54,76.1L320.72,129.71L325.89,169.68L331.06,48.8L336.23,42.95L341.41,202.83L346.58,240.85L351.75,253.52L356.93,155.06L362.1,328.59L367.27,219.4L372.44,256.45L377.62,168.71L382.79,243.78L387.96,306.17L393.14,289.59L398.31,265.22L403.48,277.9L408.65,201.86L413.83,329.57L419,380.26L424.17,366.61L429.35,314.94L434.52,346.14L439.69,330.54L444.86,334.44L450.04,285.7L455.21,335.41L460.38,370.51L465.56,250.6L470.73,286.67L475.9,264.25L481.07,236.95L486.25,265.22L491.42,218.43L496.59,273.02L501.77,387.08L506.94,382.21L512.11,293.49L517.28,331.51L522.46,351.99L527.63,349.06L532.8,273.02L537.98,232.08L543.15,337.36L548.32,319.82L553.49,331.51L558.67,223.3L563.84,262.3L569.01,429.98L574.19,442.65L579.36,422.18L584.53,468.97L589.7,489.45L594.88,407.56L600.05,474.82L605.22,490.42L610.4,487.5L615.57,481.65L620.74,498.22L625.91,493.35L631.09,466.05L636.26,496.27L641.43,509.92L646.6,456.3L651.78,507.97L656.95,482.62L662.12,558.66L667.3,510.89L672.47,493.35L677.64,416.33L682.81,513.82L687.99,521.62L693.16,517.72L698.33,506.02L703.51,548.91L713.85,516.74L719.02,557.69L724.2,551.84L729.37,501.14L734.54,553.79L739.72,540.14L744.89,541.12L750.06,553.79L755.23,558.66L760.41,567.44L765.58,558.66L770.75,558.66L775.93,505.04L781.1,506.99L786.27,535.27L791.44,468.97L796.62,506.02L801.79,566.46L806.96,476.77L812.14,532.34L817.31,533.32L822.48,550.86L827.65,558.66L832.83,592.78L838,580.11" style="vector-effect: non-scaling-stroke; fill: none; stroke: rgb(31, 119, 180); stroke-opacity: 1; stroke-width: 2px; opacity: 1;"/></g><g class="points"/><g class="text"/></g><g class="trace scatter traced0ed2e" style="stroke-miterlimit: 2; opacity: 1;"><g class="fills"/><g class="errorbars"/><g class="lines"><path class="js-line" d="M0,666.88L5.17,666.88L10.35,665.9L15.52,665.9L31.04,666.88L77.59,666.88L82.77,665.9L87.94,666.88L93.11,666.88L103.46,666.88L108.63,665.9L113.8,666.88L118.98,666.88L160.36,666.88L165.53,665.9L170.7,664.93L175.88,666.88L201.74,666.88L206.91,254.5L212.09,566.46L217.26,515.77L222.43,528.44L227.6,479.7L232.78,475.8L237.95,442.65L243.12,496.27L248.3,493.35L253.47,401.71L258.64,441.68L263.81,404.63L268.99,390.01L274.16,410.48L279.33,436.8L284.51,461.17L289.68,341.26L294.85,382.21L300.02,313.97L305.2,355.89L310.37,341.26L315.54,368.56L320.72,383.18L325.89,262.3L331.06,219.4L336.23,270.1L341.41,255.47L346.58,188.21L351.75,155.06L356.93,238.9L362.1,35.15L367.27,88.77L372.44,62.45L377.62,116.07L382.79,67.32L387.96,179.43L393.14,399.76L398.31,235L403.48,328.59L408.65,256.45L413.83,283.75L419,287.65L424.17,316.89L429.35,413.41L434.52,224.28L439.69,316.89L444.86,240.85L450.04,297.39L455.21,335.41L460.38,395.86L465.56,413.41L470.73,382.21L475.9,355.89L481.07,415.35L486.25,297.39L491.42,344.19L496.59,451.43L501.77,413.41L506.94,263.27L512.11,373.43L517.28,364.66L522.46,306.17L527.63,221.35L532.8,332.49L537.98,344.19L543.15,348.09L548.32,279.85L553.49,301.29L558.67,312.02L569.01,432.9L574.19,338.34L579.36,129.71L584.53,174.56L589.7,372.46L594.88,324.69L600.05,254.5L605.22,421.2L610.4,454.35L615.57,322.74L620.74,452.4L625.91,427.05L631.09,454.35L636.26,422.18L646.6,497.25L651.78,443.63L656.95,479.7L662.12,446.55L667.3,493.35L672.47,496.27L677.64,580.11L682.81,522.59L687.99,489.45L693.16,468L698.33,492.37L703.51,497.25L708.68,488.47L713.85,510.89L719.02,494.32L724.2,469.95L729.37,499.19L734.54,493.35L739.72,406.58L744.89,557.69L750.06,541.12L755.23,547.94L760.41,535.27L765.58,529.42L770.75,568.41L775.93,538.19L781.1,556.71L786.27,563.54L791.44,577.19L796.62,465.07L801.79,519.67L806.96,533.32L812.14,530.39L817.31,550.86L822.48,567.44L827.65,563.54L832.83,497.25L838,506.02" style="vector-effect: non-scaling-stroke; fill: none; stroke: rgb(255, 127, 14); stroke-opacity: 1; stroke-width: 2px; opacity: 1;"/></g><g class="points"/><g class="text"/></g><g class="trace scatter trace7cfe0a" style="stroke-miterlimit: 2; opacity: 1;"><g class="fills"/><g class="errorbars"/><g class="lines"><path class="js-line" d="M0,666.88L139.67,666.88L144.84,665.9L150.01,666.88L155.19,665.9L160.36,666.88L165.53,665.9L170.7,664.93L175.88,665.9L181.05,664.93L186.22,662L191.4,664.93L196.57,663.95L201.74,665.9L206.91,662.98L212.09,657.13L217.26,662.98L222.43,651.28L227.6,653.23L232.78,640.55L237.95,642.5L243.12,654.2L248.3,646.4L253.47,646.4L258.64,641.53L263.81,645.43L268.99,636.65L274.16,646.4L279.33,650.3L284.51,624.96L289.68,617.16L294.85,629.83L300.02,613.26L305.2,631.78L310.37,628.85L315.54,636.65L320.72,629.83L325.89,630.8L331.06,614.23L336.23,618.13L341.41,620.08L346.58,643.48L351.75,611.31L356.93,609.36L362.1,623.01L367.27,583.04L372.44,628.85L377.62,613.26L382.79,627.88L387.96,584.98L393.14,607.41L398.31,600.58L403.48,620.08L408.65,605.46L413.83,609.36L419,632.75L424.17,632.75L429.35,612.28L434.52,627.88L444.86,640.55L450.04,634.7L455.21,644.45L460.38,644.45L465.56,652.25L470.73,624.96L475.9,636.65L481.07,639.58L486.25,640.55L491.42,642.5L496.59,638.6L501.77,646.4L506.94,635.68L512.11,633.73L517.28,626.9L522.46,650.3L527.63,648.35L532.8,657.13L537.98,650.3L543.15,648.35L548.32,623.01L553.49,652.25L558.67,632.75L563.84,648.35L569.01,643.48L574.19,653.23L579.36,656.15L584.53,655.18L589.7,656.15L594.88,658.1L600.05,655.18L605.22,659.08L610.4,656.15L615.57,655.18L620.74,663.95L625.91,656.15L631.09,636.65L636.26,656.15L641.43,663.95L646.6,657.13L651.78,655.18L656.95,657.13L662.12,663.95L667.3,659.08L672.47,661.03L677.64,660.05L682.81,660.05L687.99,662.98L693.16,662.98L698.33,664.93L703.51,662L708.68,664.93L713.85,666.88L719.02,664.93L724.2,658.1L729.37,663.95L734.54,660.05L739.72,661.03L744.89,663.95L750.06,663.95L755.23,665.9L760.41,658.1L765.58,662L770.75,658.1L775.93,664.93L781.1,663.95L786.27,665.9L791.44,665.9L796.62,664.93L801.79,666.88L806.96,663.95L812.14,665.9L817.31,662.98L822.48,665.9L827.65,662.98L832.83,665.9L838,663.95" style="vector-effect: non-scaling-stroke; fill: none; stroke: rgb(44, 160, 44); stroke-opacity: 1; stroke-width: 2px; opacity: 1;"/></g><g class="points"/><g class="text"/></g></g></g><g class="overplot"/><path class="xlines-above crisp" style="fill: none;" d="M0,0"/><path class="ylines-above crisp" style="fill: none;" d="M0,0"/><g class="overlines-above"/><g class="xaxislayer-above"><g class="xtick"><text text-anchor="middle" x="0" y="741" transform="translate(122.07,0)" style="font-family: 'Open Sans', verdana, arial, sans-serif; font-size: 12px; fill: rgb(68, 68, 68); fill-opacity: 1; white-space: pre;">Mar 2020</text></g><g class="xtick"><text text-anchor="middle" x="0" y="741" transform="translate(282.43,0)" style="font-family: 'Open Sans', verdana, arial, sans-serif; font-size: 12px; fill: rgb(68, 68, 68); fill-opacity: 1; white-space: pre;">Apr 2020</text></g><g class="xtick"><text text-anchor="middle" x="0" y="741" transform="translate(437.62,0)" style="font-family: 'Open Sans', verdana, arial, sans-serif; font-size: 12px; fill: rgb(68, 68, 68); fill-opacity: 1; white-space: pre;">May 2020</text></g><g class="xtick"><text text-anchor="middle" x="0" y="741" transform="translate(597.98,0)" style="font-family: 'Open Sans', verdana, arial, sans-serif; font-size: 12px; fill: rgb(68, 68, 68); fill-opacity: 1; white-space: pre;">Jun 2020</text></g><g class="xtick"><text text-anchor="middle" x="0" y="741" transform="translate(753.16,0)" style="font-family: 'Open Sans', verdana, arial, sans-serif; font-size: 12px; fill: rgb(68, 68, 68); fill-opacity: 1; white-space: pre;">Jul 2020</text></g></g><g class="yaxislayer-above"><g class="ytick"><text text-anchor="end" x="59" y="4.199999999999999" transform="translate(0,691.88)" style="font-family: 'Open Sans', verdana, arial, sans-serif; font-size: 12px; fill: rgb(68, 68, 68); fill-opacity: 1; white-space: pre;">0</text></g><g class="ytick"><text text-anchor="end" x="59" y="4.199999999999999" transform="translate(0,594.39)" style="font-family: 'Open Sans', verdana, arial, sans-serif; font-size: 12px; fill: rgb(68, 68, 68); fill-opacity: 1; white-space: pre;">100</text></g><g class="ytick"><text text-anchor="end" x="59" y="4.199999999999999" transform="translate(0,496.9)" style="font-family: 'Open Sans', verdana, arial, sans-serif; font-size: 12px; fill: rgb(68, 68, 68); fill-opacity: 1; white-space: pre;">200</text></g><g class="ytick"><text text-anchor="end" x="59" y="4.199999999999999" transform="translate(0,399.41)" style="font-family: 'Open Sans', verdana, arial, sans-serif; font-size: 12px; fill: rgb(68, 68, 68); fill-opacity: 1; white-space: pre;">300</text></g><g class="ytick"><text text-anchor="end" x="59" y="4.199999999999999" transform="translate(0,301.92)" style="font-family: 'Open Sans', verdana, arial, sans-serif; font-size: 12px; fill: rgb(68, 68, 68); fill-opacity: 1; white-space: pre;">400</text></g><g class="ytick"><text text-anchor="end" x="59" y="4.199999999999999" transform="translate(0,204.43)" style="font-family: 'Open Sans', verdana, arial, sans-serif; font-size: 12px; fill: rgb(68, 68, 68); fill-opacity: 1; white-space: pre;">500</text></g><g class="ytick"><text text-anchor="end" x="59" y="4.199999999999999" transform="translate(0,106.94)" style="font-family: 'Open Sans', verdana, arial, sans-serif; font-size: 12px; fill: rgb(68, 68, 68); fill-opacity: 1; white-space: pre;">600</text></g></g><g class="overaxes-above"/></g></g><g class="polarlayer"/><g class="ternarylayer"/><g class="geolayer"/><g class="funnelarealayer"/><g class="pielayer"/><g class="treemaplayer"/><g class="sunburstlayer"/><g class="glimages"/><defs id="topdefs-743025"><g class="clips"/><clipPath id="legend743025"><rect width="102" height="67" x="0" y="0"/></clipPath></defs><g class="layer-above"><g class="imagelayer"/><g class="shapelayer"/></g><g class="infolayer"><g class="legend" pointer-events="all" transform="translate(914.76, 25)"><rect class="bg" shape-rendering="crispEdges" style="stroke: rgb(68, 68, 68); stroke-opacity: 1; fill: rgb(255, 255, 255); fill-opacity: 1; stroke-width: 0px;" width="102" height="67" x="0" y="0"/><g class="scrollbox" transform="translate(0, 0)" clip-path="url('#legend743025')"><g class="groups"><g class="traces" style="opacity: 1;" transform="translate(0, 14.5)"><text class="legendtext user-select-none" text-anchor="start" x="40" y="4.680000000000001" style="font-family: 'Open Sans', verdana, arial, sans-serif; font-size: 12px; fill: rgb(68, 68, 68); fill-opacity: 1; white-space: pre;">positive</text><g class="layers" style="opacity: 1;"><g class="legendfill"/><g class="legendlines"><path class="js-line" d="M5,0h30" style="fill: none; stroke: rgb(31, 119, 180); stroke-opacity: 1; stroke-width: 2px;"/></g><g class="legendsymbols"><g class="legendpoints"/></g></g><rect class="legendtoggle" pointer-events="all" x="0" y="-9.5" width="96.109375" height="19" style="cursor: pointer; fill: rgb(0, 0, 0); fill-opacity: 0;"/></g><g class="traces" style="opacity: 1;" transform="translate(0, 33.5)"><text class="legendtext user-select-none" text-anchor="start" x="40" y="4.680000000000001" style="font-family: 'Open Sans', verdana, arial, sans-serif; font-size: 12px; fill: rgb(68, 68, 68); fill-opacity: 1; white-space: pre;">resolved</text><g class="layers" style="opacity: 1;"><g class="legendfill"/><g class="legendlines"><path class="js-line" d="M5,0h30" style="fill: none; stroke: rgb(255, 127, 14); stroke-opacity: 1; stroke-width: 2px;"/></g><g class="legendsymbols"><g class="legendpoints"/></g></g><rect class="legendtoggle" pointer-events="all" x="0" y="-9.5" width="96.109375" height="19" style="cursor: pointer; fill: rgb(0, 0, 0); fill-opacity: 0;"/></g><g class="traces" style="opacity: 1;" transform="translate(0, 52.5)"><text class="legendtext user-select-none" text-anchor="start" x="40" y="4.680000000000001" style="font-family: 'Open Sans', verdana, arial, sans-serif; font-size: 12px; fill: rgb(68, 68, 68); fill-opacity: 1; white-space: pre;">deceased</text><g class="layers" style="opacity: 1;"><g class="legendfill"/><g class="legendlines"><path class="js-line" d="M5,0h30" style="fill: none; stroke: rgb(44, 160, 44); stroke-opacity: 1; stroke-width: 2px;"/></g><g class="legendsymbols"><g class="legendpoints"/></g></g><rect class="legendtoggle" pointer-events="all" x="0" y="-9.5" width="96.109375" height="19" style="cursor: pointer; fill: rgb(0, 0, 0); fill-opacity: 0;"/></g></g></g><rect class="scrollbar" rx="20" ry="3" width="0" height="0" style="fill: rgb(128, 139, 164); fill-opacity: 1;" x="0" y="0"/></g><g class="g-gtitle"><text class="gtitle" x="513.5" y="12.5" text-anchor="middle" dy="0em" style="font-family: 'Open Sans', verdana, arial, sans-serif; font-size: 17px; fill: rgb(68, 68, 68); opacity: 1; font-weight: normal; white-space: pre;">Dynamics of new cases, resolved cases and deaths in Ontario (Jul 30, 2020)</text></g><g class="g-xtitle" transform="translate(0,-15)"><text class="xtitle" x="479" y="780" text-anchor="middle" style="font-family: 'Open Sans', verdana, arial, sans-serif; font-size: 14px; fill: rgb(68, 68, 68); opacity: 1; font-weight: normal; white-space: pre;">Date</text></g><g class="g-ytitle"><text class="ytitle" transform="rotate(-90,22,376.5)" x="22" y="376.5" text-anchor="middle" style="font-family: 'Open Sans', verdana, arial, sans-serif; font-size: 14px; fill: rgb(68, 68, 68); opacity: 1; font-weight: normal; white-space: pre;">Number of cases</text></g></g></svg>