<svg class="main-svg" xmlns="http://www.w3.org/2000/svg" xmlns:xlink="http://www.w3.org/1999/xlink" width="1027" height="768" style="" viewBox="0 0 1027 768"><rect x="0" y="0" width="1027" height="768" style="fill: rgb(255, 255, 255); fill-opacity: 1;"/><defs id="defs-ada5b2"><g class="clips"><clipPath id="clipada5b2xyplot" class="plotclip"><rect width="838" height="703"/></clipPath><clipPath class="axesclip" id="clipada5b2x"><rect x="60" y="0" width="838" height="768"/></clipPath><clipPath class="axesclip" id="clipada5b2y"><rect x="0" y="25" width="1027" height="703"/></clipPath><clipPath class="axesclip" id="clipada5b2xy"><rect x="60" y="25" width="838" height="703"/></clipPath></g><g class="gradients"/></defs><g class="bglayer"/><g class="layer-below"><g class="imagelayer"/><g class="shapelayer"/></g><g class="cartesianlayer"><g class="subplot xy"><g class="layer-subplot"><g class="shapelayer"/><g class="imagelayer"/></g><g class="gridlayer"><g class="x"><path class="xgrid crisp" transform="translate(79.05,0)" d="M0,25v703" style="stroke: rgb(238, 238, 238); stroke-opacity: 1; stroke-width: 1px;"/><path class="xgrid crisp" transform="translate(175.86,0)" d="M0,25v703" style="stroke: rgb(238, 238, 238); stroke-opacity: 1; stroke-width: 1px;"/><path class="xgrid crisp" transform="translate(272.66999999999996,0)" d="M0,25v703" style="stroke: rgb(238, 238, 238); stroke-opacity: 1; stroke-width: 1px;"/><path class="xgrid crisp" transform="translate(371.08,0)" d="M0,25v703" style="stroke: rgb(238, 238, 238); stroke-opacity: 1; stroke-width: 1px;"/><path class="xgrid crisp" transform="translate(467.89,0)" d="M0,25v703" style="stroke: rgb(238, 238, 238); stroke-opacity: 1; stroke-width: 1px;"/><path class="xgrid crisp" transform="translate(564.7,0)" d="M0,25v703" style="stroke: rgb(238, 238, 238); stroke-opacity: 1; stroke-width: 1px;"/><path class="xgrid crisp" transform="translate(658.34,0)" d="M0,25v703" style="stroke: rgb(238, 238, 238); stroke-opacity: 1; stroke-width: 1px;"/><path class="xgrid crisp" transform="translate(755.16,0)" d="M0,25v703" style="stroke: rgb(238, 238, 238); stroke-opacity: 1; stroke-width: 1px;"/><path class="xgrid crisp" transform="translate(851.97,0)" d="M0,25v703" style="stroke: rgb(238, 238, 238); stroke-opacity: 1; stroke-width: 1px;"/></g><g class="y"><path class="ygrid crisp" transform="translate(0,561.26)" d="M60,0h838" style="stroke: rgb(238, 238, 238); stroke-opacity: 1; stroke-width: 1px;"/><path class="ygrid crisp" transform="translate(0,429.81)" d="M60,0h838" style="stroke: rgb(238, 238, 238); stroke-opacity: 1; stroke-width: 1px;"/><path class="ygrid crisp" transform="translate(0,298.35)" d="M60,0h838" style="stroke: rgb(238, 238, 238); stroke-opacity: 1; stroke-width: 1px;"/><path class="ygrid crisp" transform="translate(0,166.89)" d="M60,0h838" style="stroke: rgb(238, 238, 238); stroke-opacity: 1; stroke-width: 1px;"/><path class="ygrid crisp" transform="translate(0,35.44)" d="M60,0h838" style="stroke: rgb(238, 238, 238); stroke-opacity: 1; stroke-width: 1px;"/></g></g><g class="zerolinelayer"><path class="yzl zl crisp" transform="translate(0,692.72)" d="M60,0h838" style="stroke: rgb(68, 68, 68); stroke-opacity: 1; stroke-width: 1px;"/></g><path class="xlines-below"/><path class="ylines-below"/><g class="overlines-below"/><g class="xaxislayer-below"/><g class="yaxislayer-below"/><g class="overaxes-below"/><g class="plot" transform="translate(60, 25)" clip-path="url('#clipada5b2xyplot')"><g class="scatterlayer mlayer"><g class="trace scatter trace0a4b93" style="stroke-miterlimit: 2; opacity: 1;"><g class="fills"/><g class="errorbars"/><g class="lines"><path class="js-line" d="M0,667.72L17.46,667.59L19.05,666.14L20.63,667.46L22.22,667.72L26.98,667.46L28.57,667.59L30.16,666.93L31.74,667.59L38.09,664.56L39.68,662.2L41.27,663.51L42.85,666.14L46.03,661.93L47.61,659.83L49.2,659.96L50.79,661.41L52.38,657.46L53.96,656.54L55.55,654.57L57.14,645.37L58.72,649.97L60.31,647.87L61.9,639.98L63.48,621.58L65.07,633.54L66.66,611.72L68.25,615L69.83,606.99L71.42,618.42L73.01,614.08L74.59,627.1L76.18,617.9L77.77,595.42L79.36,604.23L80.94,604.88L82.53,613.69L84.12,615L85.7,612.38L87.29,604.23L88.88,602.78L90.47,600.15L92.05,593.58L93.64,603.96L95.23,593.05L96.81,588.06L98.4,595.29L99.99,600.68L101.58,584.38L103.16,583.59L104.75,605.15L106.34,610.27L107.92,611.98L109.51,598.7L111.1,622.1L112.69,607.38L114.27,612.38L115.86,600.54L117.45,610.67L119.03,619.08L120.62,616.84L122.21,613.56L123.8,615.27L125.38,605.01L126.97,622.23L128.56,629.07L130.14,627.23L131.73,620.26L133.32,624.47L134.91,622.37L136.49,622.89L138.08,616.32L139.67,623.02L141.25,627.76L142.84,611.59L144.43,616.45L146.02,613.43L147.6,609.75L149.19,613.56L150.78,607.25L152.36,614.61L153.95,629.99L155.54,629.33L157.13,617.37L158.71,622.5L160.3,625.26L161.89,624.86L165.06,609.09L166.65,623.29L168.23,620.92L169.82,622.5L171.41,607.91L173,613.16L174.58,635.77L176.17,637.48L177.76,634.72L179.34,641.03L180.93,643.79L182.52,632.75L184.11,641.82L185.69,643.92L188.87,642.74L190.45,644.98L192.04,644.32L193.63,640.64L195.22,644.71L196.8,646.55L198.39,639.32L199.98,646.29L201.56,642.87L203.15,653.13L204.74,646.69L206.33,644.32L207.91,633.93L209.5,647.08L211.09,648.13L212.67,647.61L214.26,646.03L215.85,651.81L219.02,647.47L220.61,653L222.2,652.21L223.78,645.37L225.37,652.47L226.96,650.63L228.55,650.76L230.13,652.47L233.31,654.31L234.89,653.13L236.48,653.13L238.07,645.9L239.66,646.16L241.24,649.97L242.83,641.03L244.42,646.03L246,654.18L247.59,642.08L249.18,649.58L250.77,649.71L253.94,653.13L255.53,657.73L257.11,656.02L258.7,650.1L261.88,652.47L263.46,656.15L265.05,655.76L266.64,656.41L268.22,655.23L269.81,656.15L271.4,658.52L272.98,657.33L274.57,652.6L276.16,663.38L277.75,655.23L279.33,657.46L282.51,653.78L284.09,657.07L287.27,651.29L288.86,654.31L290.44,657.73L292.03,650.5L293.62,653.52L295.2,652.6L299.97,656.15L301.55,652.21L303.14,651.68L304.73,648.26L306.31,653L307.9,652.73L309.49,653L311.08,650.23L312.66,650.37L314.25,648.26L315.84,645.5L317.42,646.95L319.01,642.74L320.6,643.4L322.19,648.13L323.77,645.37L325.36,639.72L326.95,637.22L328.53,640.9L330.12,626.57L331.71,634.72L333.3,626.31L334.88,629.2L336.47,615L338.06,614.22L339.64,619.74L342.82,604.88L344.41,623.68L345.99,613.95L347.58,613.95L349.17,610.53L350.75,603.17L352.34,575.7L353.93,594.89L355.52,585.56L357.1,596.99L358.69,571.49L360.28,581.88L361.86,593.31L363.45,586.87L365.04,595.68L366.63,591.08L369.8,544.28L371.39,561.37L372.97,582.4L374.56,561.63L376.15,569.65L377.73,572.94L379.32,564.79L380.91,574.12L382.5,561.9L384.08,581.22L385.67,575.17L387.26,559.79L388.84,563.87L390.43,557.16L392.02,559.14L393.61,539.15L395.19,530.74L396.78,555.85L398.37,559L399.95,558.08L401.54,544.94L403.13,549.93L404.72,534.29L406.3,539.29L407.89,543.1L409.48,529.69L411.06,537.97L412.65,536.52L414.24,535.87L415.83,518.91L417.41,493.14L419,504.45L420.59,485.26L422.17,480.26L423.76,460.67L425.35,484.21L426.94,459.89L428.52,503.66L430.11,472.24L431.7,503.53L433.28,481.44L434.87,508.66L438.05,458.97L439.63,466.06L441.22,458.83L442.81,535.08L444.39,487.23L445.98,473.43L447.57,423.87L449.16,428.2L450.74,443.19L452.33,438.2L453.92,443.32L455.5,441.22L457.09,427.94L458.68,433.73L461.85,414.8L463.44,414.66L465.03,447.4L466.61,419.27L468.2,407.04L469.79,424.79L471.38,421.5L472.96,447.27L476.14,368.66L477.72,386.53L479.31,348.02L480.9,366.68L482.48,357.88L484.07,363.27L485.66,388.64L487.25,378.25L488.83,351.17L490.42,346.04L492.01,383.9L493.59,386.14L495.18,404.15L496.77,412.82L499.94,283.47L501.53,230.23L503.12,342.23L504.7,225.63L506.29,278.08L507.88,237.86L509.47,256.52L511.05,238.38L512.64,205.12L514.23,109.16L515.81,215.11L517.4,149.12L520.58,286.1L522.16,278.48L523.75,230.49L525.34,273.61L526.92,265.99L528.51,217.87L531.69,416.24L533.27,318.7L534.86,321.73L536.45,317.78L538.03,357.61L539.62,349.99L541.21,410.33L542.8,438.98L544.38,448.19L545.97,392.58L547.56,426.23L549.14,396.52L550.73,424.79L552.32,408.88L553.91,569.78L555.49,513.65L557.08,462.25L558.67,448.19L560.25,485.26L561.84,471.98L565.02,533.37L566.6,526.8L568.19,543.49L569.78,526.27L571.36,496.83L572.95,538.76L574.54,540.99L576.13,548.88L577.71,556.37L579.3,531.27L582.47,506.29L584.06,524.83L585.65,528.64L587.23,539.55L590.41,518.12L592,502.35L593.58,511.94L595.17,528.11L598.34,540.73L599.93,541.78L601.52,537.05L603.11,503.4L604.69,537.58L606.28,496.96L607.87,453.31L609.45,511.94L611.04,494.72L612.63,524.17L614.22,487.49L615.8,474.74L617.39,438.06L618.98,501.03L620.56,526.53L622.15,469.48L623.74,463.57L625.33,438.33L626.91,427.28L628.5,432.28L630.09,444.37L631.67,464.49L633.26,461.2L634.85,354.85L636.44,382.59L638.02,345.26L639.61,345.91L641.2,392.45L642.78,360.64L644.37,361.03L645.96,331.58L647.55,261.65L649.13,272.17L650.72,267.96L652.31,281.5L653.89,264.8L657.07,234.57L658.66,112.05L660.24,166.48L661.83,81.95L663.42,89.18L665,185.27L668.18,45.14L669.77,35.15L671.35,94.31L672.94,109.03L674.53,83.13L676.11,211.7L677.7,114.02L679.29,183.7L680.88,75.51L682.46,129.54L684.05,148.86L685.64,206.31L687.22,238.51L688.81,210.25L690.4,158.85L691.98,156.75L693.57,224.84L695.16,177.12L696.75,216.03L698.33,300.82L699.92,281.11L701.51,217.61L704.68,291.23L706.27,244.95L709.44,395.21L711.03,362.74L712.62,305.03L714.2,357.22L715.79,328.04L717.38,378.65L718.97,382.46L720.55,455.28L722.14,458.97L723.73,352.22L725.31,419.27L726.9,431.89L728.49,445.43L730.08,477.63L731.66,531.14L733.25,523.77L734.84,518.52L736.42,500.37L738.01,528.77L739.6,531.92L741.19,547.3L742.77,575.83L744.36,571.36L745.95,553.35L747.53,547.57L749.12,569.91L750.71,580.56L752.3,598.7L755.47,613.69L757.06,590.16L758.64,592.26L760.23,601.73L761.82,598.05L763.41,608.96L764.99,628.81L766.58,617.24L768.17,619.08L769.75,622.37L771.34,621.05L772.93,625.92L774.52,632.23L776.1,628.81L777.69,634.2L779.28,628.81L780.86,634.07L782.45,622.23L785.63,640.11L787.21,628.41L788.8,643.53L790.39,630.38L791.97,641.43L793.56,640.24L795.15,639.72L796.73,645.37L798.32,635.64L799.91,642.22L801.5,640.11L803.08,643.66L804.67,644.19L806.26,645.9L807.84,652.73L809.43,648.53L811.02,647.61L812.61,648.92L815.78,644.58L817.37,644.45L818.95,650.63L820.54,651.02L822.13,649.97L823.72,643.4L825.3,642.48L826.89,645.37L828.48,645.11L830.06,652.08L831.65,650.76L833.24,646.95L834.83,639.06L836.41,638.01L838,633.8" style="vector-effect: non-scaling-stroke; fill: none; stroke: rgb(31, 119, 180); stroke-opacity: 1; stroke-width: 2px; opacity: 1;"/></g><g class="points"/><g class="text"/></g><g class="trace scatter trace270127" style="stroke-miterlimit: 2; opacity: 1;"><g class="fills"/><g class="errorbars"/><g class="lines"><path class="js-line" d="M0,667.72L61.9,667.72L63.48,612.11L65.07,654.18L66.66,649.31L68.25,647.08L69.83,642.48L71.42,641.95L73.01,637.48L74.59,644.71L76.18,644.32L77.77,631.96L79.36,637.35L80.94,632.36L82.53,630.38L87.29,639.98L88.88,623.81L90.47,629.33L92.05,620.13L93.64,625.78L95.23,623.81L98.4,629.46L99.99,613.16L101.58,607.38L103.16,614.22L104.75,612.24L106.34,603.17L107.92,598.7L109.51,610.01L111.1,582.53L112.69,589.76L114.27,586.22L115.86,593.45L117.45,586.87L119.03,601.99L120.62,631.7L122.21,609.48L123.8,622.1L125.38,612.38L126.97,616.06L128.56,616.58L130.14,620.53L131.73,633.54L133.32,608.04L134.91,620.53L136.49,610.27L138.08,617.9L139.67,623.02L141.25,631.17L142.84,633.54L144.43,629.33L146.02,625.78L147.6,633.8L149.19,617.9L150.78,624.21L152.36,638.67L153.95,633.54L155.54,613.3L157.13,628.15L158.71,626.97L160.3,619.08L161.89,607.64L163.47,622.63L165.06,624.21L166.65,624.73L168.23,615.53L169.82,618.42L171.41,619.87L173,627.62L174.58,636.17L176.17,623.42L177.76,595.29L179.34,601.33L180.93,628.02L182.52,621.58L184.11,612.11L185.69,634.59L187.28,639.06L188.87,621.31L190.45,638.8L192.04,635.38L193.63,639.06L195.22,634.72L198.39,644.85L199.98,637.62L201.56,642.48L203.15,638.01L204.74,644.32L206.33,644.71L207.91,656.02L209.5,648.26L212.67,640.9L214.26,644.19L215.85,644.85L217.44,643.66L219.02,646.69L220.61,644.45L222.2,641.16L223.78,645.11L225.37,644.32L226.96,632.62L228.55,653L230.13,650.76L231.72,651.68L233.31,649.97L234.89,649.18L236.48,654.44L238.07,650.37L239.66,652.86L241.24,653.78L242.83,655.62L244.42,640.51L246,647.87L247.59,649.71L249.18,649.31L252.35,654.31L253.94,653.78L255.53,644.85L257.11,646.03L258.7,645.63L260.29,646.29L261.88,651.68L263.46,651.16L265.05,652.47L266.64,648.53L268.22,646.82L269.81,652.21L271.4,653.65L272.98,648.26L276.16,657.86L277.75,650.1L279.33,654.7L280.92,656.81L282.51,654.44L284.09,657.2L288.86,656.02L290.44,657.73L292.03,653.78L293.62,655.89L295.2,653.52L296.79,657.46L298.38,657.86L299.97,652.6L301.55,657.6L303.14,656.81L304.73,654.18L306.31,657.46L307.9,658.12L309.49,655.62L311.08,649.71L312.66,652.08L314.25,652.47L315.84,653.78L320.6,652.08L322.19,649.84L323.77,649.05L325.36,651.42L326.95,652.08L328.53,651.42L330.12,650.23L331.71,652.34L334.88,644.19L336.47,644.58L338.06,644.45L339.64,642.61L341.23,644.32L342.82,641.95L344.41,633.8L345.99,630.12L347.58,630.52L349.17,623.29L350.75,629.73L352.34,624.21L353.93,625.26L355.52,607.64L357.1,600.02L358.69,611.46L360.28,610.53L361.86,597.52L365.04,595.94L366.63,574.78L368.21,576.36L369.8,572.54L371.39,575.7L372.97,575.04L376.15,585.69L377.73,564.79L379.32,565.31L380.91,573.99L382.5,578.07L384.08,577.67L385.67,587.92L387.26,585.16L388.84,573.2L390.43,570.31L392.02,571.36L393.61,585.56L395.19,570.97L396.78,578.46L398.37,576.88L399.95,566.1L401.54,559.92L403.13,563.08L404.72,562.82L406.3,554.14L407.89,559.14L409.48,557.69L411.06,543.49L412.65,543.1L414.24,542.97L415.83,555.72L417.41,552.43L419,559.79L420.59,565.05L422.17,551.25L423.76,547.17L425.35,533.9L426.94,535.87L428.52,528.11L430.11,537.31L431.7,518.52L433.28,471.19L434.87,486.83L436.46,481.71L438.05,488.54L441.22,472.64L442.81,525.48L444.39,473.69L445.98,488.28L449.16,469.22L450.74,478.03L452.33,494.2L453.92,487.23L455.5,446.08L457.09,465.14L458.68,463.57L460.27,454.23L461.85,460.81L463.44,482.1L465.03,464.09L466.61,414.8L468.2,430.57L469.79,437.28L471.38,415.59L472.96,447.13L474.55,465.93L476.14,429.78L477.72,399.15L479.31,403.62L480.9,405.86L482.48,422.55L484.07,413.88L485.66,450.29L488.83,372.86L490.42,403.1L492.01,373.65L493.59,416.24L495.18,404.15L496.77,384.96L498.36,374.18L499.94,373.65L501.53,376.81L503.12,344.34L504.7,397.71L506.29,381.8L509.47,402.83L511.05,272.69L512.64,302.8L514.23,307.79L515.81,284.52L517.4,339.6L518.99,305.42L520.58,226.94L522.16,221.82L523.75,195.4L526.92,245.48L528.51,263.1L530.1,296.22L531.69,290.04L533.27,179.49L534.86,274.66L536.45,224.05L538.03,270.06L542.8,370.5L544.38,309.5L545.97,340.26L547.56,286.49L552.32,387.45L553.91,365.76L555.49,438.33L557.08,410.59L558.67,374.18L560.25,431.62L561.84,413.09L563.43,444.24L565.02,485.26L566.6,443.06L568.19,491.04L569.78,481.71L571.36,479.21L572.95,505.37L576.13,521.54L577.71,476.32L579.3,499.85L580.89,502.74L582.47,495.12L584.06,517.86L587.23,536L588.82,498.01L590.41,523.91L592,535.34L593.58,538.37L595.17,532.45L596.76,544.28L598.34,539.02L599.93,524.43L601.52,526.8L603.11,515.36L604.69,516.28L606.28,522.46L607.87,537.05L609.45,539.94L611.04,508.39L612.63,521.8L614.22,519.96L617.39,514.31L618.98,521.28L620.56,525.09L622.15,472.11L623.74,505.24L625.33,497.35L626.91,501.95L628.5,489.86L630.09,513.26L631.67,500.64L633.26,466.46L634.85,493.01L636.44,447.53L638.02,473.03L639.61,464.88L641.2,467.38L642.78,473.56L644.37,408.35L645.96,429.26L647.55,414.66L649.13,428.6L650.72,418.08L652.31,436.22L653.89,407.96L655.48,351.3L657.07,329.09L658.66,320.54L660.24,349.33L661.83,323.7L663.42,346.31L665,329.48L666.59,252.32L668.18,250.48L669.77,253.5L671.35,193.03L672.94,228.92L674.53,253.24L676.11,224.84L677.7,115.08L679.29,63.41L680.88,50.14L682.46,98.25L684.05,110.47L685.64,134.4L687.22,153.99L688.81,73.93L690.4,109.69L691.98,110.08L693.57,146.63L695.16,148.86L698.33,230.89L699.92,94.44L701.51,142.29L703.09,158.32L704.68,195L706.27,187.51L707.86,258.89L709.44,286.76L711.03,210.64L712.62,213.54L714.2,207.36L715.79,265.07L717.38,262.96L718.97,279.53L720.55,338.81L722.14,257.71L723.73,304.5L725.31,314.23L726.9,336.45L728.49,344.6L730.08,395.34L731.66,402.44L733.25,356.04L734.84,365.11L736.42,357.22L738.01,397.31L739.6,396L741.19,443.32L742.77,461.59L744.36,439.9L749.12,504.45L750.71,507.08L752.3,544.02L753.88,534.95L755.47,545.2L757.06,544.28L758.64,555.98L760.23,558.61L763.41,579.64L764.99,582.93L766.58,572.81L768.17,584.24L769.75,585.69L771.34,591.34L772.93,601.46L774.52,603.83L776.1,609.61L777.69,607.25L780.86,629.2L782.45,601.6L784.04,617.9L785.63,624.86L787.21,618.95L788.8,625.39L790.39,633.93L791.97,630.78L793.56,633.28L795.15,630.12L796.73,637.09L798.32,625.78L799.91,636.69L801.5,637.35L803.08,637.09L804.67,639.06L806.26,631.17L807.84,655.1L809.43,641.3L811.02,639.32L812.61,645.63L814.19,642.87L815.78,641.03L817.37,645.9L818.95,647.61L820.54,651.16L822.13,647.87L823.72,648.13L828.48,648.79L830.06,649.71L833.24,645.24L834.83,645.5L838,649.71" style="vector-effect: non-scaling-stroke; fill: none; stroke: rgb(255, 127, 14); stroke-opacity: 1; stroke-width: 2px; opacity: 1;"/></g><g class="points"/><g class="text"/></g><g class="trace scatter tracee62730" style="stroke-miterlimit: 2; opacity: 1;"><g class="fills"/><g class="errorbars"/><g class="lines"><path class="js-line" d="M44.44,667.72L55.55,667.06L57.14,667.46L61.9,667.19L63.48,667.72L65.07,666.4L66.66,667.19L68.25,665.62L69.83,665.88L71.42,664.17L73.01,664.43L74.59,666.01L76.18,664.96L80.94,664.83L82.53,663.64L85.7,665.48L87.29,662.07L88.88,661.01L90.47,662.72L92.05,660.49L93.64,662.99L95.23,662.59L96.81,663.64L98.4,662.72L99.99,662.85L101.58,660.62L103.16,661.15L104.75,661.41L106.34,664.56L107.92,660.23L109.51,659.96L111.1,661.8L112.69,656.41L114.27,662.59L115.86,660.49L117.45,662.46L119.03,656.68L120.62,659.7L122.21,658.78L123.8,661.41L125.38,659.44L126.97,659.96L128.56,663.12L130.14,663.12L131.73,660.36L134.91,663.38L136.49,664.17L138.08,663.38L139.67,664.7L141.25,664.7L142.84,665.75L144.43,662.07L146.02,663.64L150.78,664.43L152.36,663.91L153.95,664.96L155.54,663.51L158.71,662.33L160.3,665.48L161.89,665.22L163.47,666.4L166.65,665.22L168.23,661.8L169.82,665.75L171.41,663.12L173,665.22L174.58,664.56L177.76,666.27L179.34,666.14L187.28,666.27L188.87,666.14L190.45,667.32L192.04,666.27L193.63,663.64L195.22,666.27L196.8,667.32L198.39,666.4L201.56,666.4L203.15,667.32L204.74,666.67L206.33,666.93L211.09,667.19L212.67,667.19L219.02,667.72L220.61,667.46L222.2,666.54L223.78,667.32L226.96,666.93L228.55,667.32L231.72,667.59L233.31,666.54L234.89,667.06L236.48,666.54L238.07,667.46L239.66,667.32L246,667.72L247.59,667.32L252.35,667.59L253.94,667.19L257.11,667.32L258.7,667.32L269.81,667.72L271.4,667.59L277.75,667.59L279.33,667.72L287.27,667.19L288.86,667.85L293.62,667.59L295.2,667.72L303.14,666.93L304.73,667.72L312.66,667.72L314.25,667.85L323.77,667.59L325.36,667.85L331.71,667.19L333.3,667.46L342.82,667.32L344.41,667.32L349.17,667.72L350.75,667.46L357.1,667.32L358.69,657.73L361.86,666.8L363.45,667.06L365.04,666.8L366.63,667.59L371.39,666.8L372.97,667.59L376.15,666.54L377.73,667.72L382.5,666.4L384.08,667.06L387.26,667.32L388.84,666.54L399.95,667.06L401.54,666.4L407.89,666.8L409.48,665.88L412.65,666.01L414.24,665.88L417.41,666.01L419,666.14L425.35,665.22L426.94,665.09L428.52,663.91L430.11,666.4L431.7,666.14L433.28,663.51L434.87,664.04L436.46,666.67L438.05,664.96L439.63,665.88L441.22,665.22L442.81,665.88L444.39,663.12L445.98,664.96L447.57,665.09L449.16,663.91L450.74,664.56L452.33,666.67L453.92,666.8L455.5,663.12L457.09,665.88L458.68,664.43L461.85,665.75L463.44,664.3L465.03,666.4L466.61,664.04L469.79,661.8L471.38,665.48L472.96,665.62L474.55,664.7L476.14,665.09L477.72,662.07L479.31,664.7L480.9,662.46L482.48,664.17L484.07,664.43L485.66,665.48L487.25,664.96L488.83,662.33L490.42,661.28L493.59,662.72L495.18,665.35L496.77,662.85L498.36,662.33L499.94,665.22L501.53,660.36L504.7,661.93L506.29,664.43L507.88,663.91L509.47,661.01L511.05,662.85L512.64,656.02L514.23,664.3L515.81,662.46L517.4,659.7L518.99,663.91L520.58,662.33L522.16,657.99L523.75,659.57L525.34,654.57L526.92,661.01L528.51,658.65L530.1,664.56L531.69,661.67L533.27,656.02L534.86,661.67L536.45,656.28L538.03,660.88L541.21,662.07L542.8,659.44L544.38,661.28L545.97,660.36L547.56,660.09L549.14,658.12L550.73,662.07L552.32,662.99L553.91,665.88L555.49,658.91L557.08,656.15L558.67,661.8L560.25,661.8L561.84,664.83L563.43,663.38L565.02,665.48L566.6,662.33L568.19,665.35L571.36,665.22L572.95,662.2L574.54,666.01L576.13,666.01L577.71,666.4L579.3,661.93L580.89,661.54L582.47,664.04L584.06,666.01L585.65,666.27L588.82,666.54L590.41,664.7L592,664.04L593.58,665.62L595.17,665.09L596.76,666.93L599.93,665.48L601.52,666.4L603.11,664.83L604.69,666.93L606.28,665.75L607.87,666.4L609.45,666.93L611.04,665.62L612.63,666.4L614.22,665.35L615.8,666.27L617.39,665.75L618.98,666.54L620.56,666.27L623.74,665.75L625.33,666.4L626.91,666.27L628.5,665.35L630.09,667.32L631.67,666.54L633.26,666.4L634.85,665.48L636.44,666.14L638.02,665.62L639.61,665.22L641.2,666.4L647.55,664.7L649.13,665.62L653.89,666.67L655.48,665.48L661.83,664.96L663.42,665.75L665,665.75L666.59,664.04L669.77,664.43L671.35,663.25L672.94,665.35L674.53,665.22L676.11,664.83L677.7,663.51L679.29,662.46L680.88,663.25L682.46,664.56L684.05,664.56L688.81,664.56L690.4,662.33L691.98,664.96L693.57,663.91L696.75,665.62L698.33,664.43L699.92,661.93L701.51,664.3L704.68,664.43L706.27,661.54L707.86,665.22L709.44,665.75L711.03,663.51L712.62,663.64L715.79,664.56L717.38,663.77L718.97,667.19L720.55,665.48L722.14,665.22L723.73,664.17L725.31,664.17L726.9,665.09L730.08,666.67L731.66,663.38L734.84,665.22L736.42,665.88L739.6,665.35L741.19,666.01L742.77,666.54L744.36,664.43L745.95,666.4L747.53,665.22L749.12,664.56L750.71,666.4L753.88,665.35L755.47,663.38L757.06,666.27L758.64,667.19L760.23,665.75L761.82,666.8L763.41,667.19L764.99,666.01L768.17,666.8L769.75,667.59L771.34,666.01L772.93,666.14L774.52,667.32L776.1,659.83L777.69,666.27L779.28,666.93L780.86,667.46L782.45,666.01L784.04,666.14L785.63,667.32L787.21,664.43L788.8,665.88L790.39,665.22L791.97,666.54L795.15,666.54L796.73,667.59L798.32,666.54L799.91,667.72L804.67,666.67L806.26,666.93L807.84,667.72L809.43,666.8L814.19,666.4L815.78,667.32L817.37,666.93L818.95,667.72L823.72,666.8L825.3,667.59L831.65,667.06L833.24,667.19L834.83,667.32L836.41,666.27L838,666.93" style="vector-effect: non-scaling-stroke; fill: none; stroke: rgb(44, 160, 44); stroke-opacity: 1; stroke-width: 2px; opacity: 1;"/></g><g class="points"/><g class="text"/></g></g></g><g class="overplot"/><path class="xlines-above crisp" style="fill: none;" d="M0,0"/><path class="ylines-above crisp" style="fill: none;" d="M0,0"/><g class="overlines-above"/><g class="xaxislayer-above"><g class="xtick"><text text-anchor="middle" x="0" y="741" transform="translate(79.05,0)" style="font-family: 'Open Sans', verdana, arial, sans-serif; font-size: 12px; fill: rgb(68, 68, 68); fill-opacity: 1; white-space: pre;">Mar 2020</text></g><g class="xtick"><text text-anchor="middle" x="0" y="741" transform="translate(175.86,0)" style="font-family: 'Open Sans', verdana, arial, sans-serif; font-size: 12px; fill: rgb(68, 68, 68); fill-opacity: 1; white-space: pre;">May 2020</text></g><g class="xtick"><text text-anchor="middle" x="0" y="741" transform="translate(272.66999999999996,0)" style="font-family: 'Open Sans', verdana, arial, sans-serif; font-size: 12px; fill: rgb(68, 68, 68); fill-opacity: 1; white-space: pre;">Jul 2020</text></g><g class="xtick"><text text-anchor="middle" x="0" y="741" transform="translate(371.08,0)" style="font-family: 'Open Sans', verdana, arial, sans-serif; font-size: 12px; fill: rgb(68, 68, 68); fill-opacity: 1; white-space: pre;">Sep 2020</text></g><g class="xtick"><text text-anchor="middle" x="0" y="741" transform="translate(467.89,0)" style="font-family: 'Open Sans', verdana, arial, sans-serif; font-size: 12px; fill: rgb(68, 68, 68); fill-opacity: 1; white-space: pre;">Nov 2020</text></g><g class="xtick"><text text-anchor="middle" x="0" y="741" transform="translate(564.7,0)" style="font-family: 'Open Sans', verdana, arial, sans-serif; font-size: 12px; fill: rgb(68, 68, 68); fill-opacity: 1; white-space: pre;">Jan 2021</text></g><g class="xtick"><text text-anchor="middle" x="0" y="741" transform="translate(658.34,0)" style="font-family: 'Open Sans', verdana, arial, sans-serif; font-size: 12px; fill: rgb(68, 68, 68); fill-opacity: 1; white-space: pre;">Mar 2021</text></g><g class="xtick"><text text-anchor="middle" x="0" y="741" transform="translate(755.16,0)" style="font-family: 'Open Sans', verdana, arial, sans-serif; font-size: 12px; fill: rgb(68, 68, 68); fill-opacity: 1; white-space: pre;">May 2021</text></g><g class="xtick"><text text-anchor="middle" x="0" y="741" transform="translate(851.97,0)" style="font-family: 'Open Sans', verdana, arial, sans-serif; font-size: 12px; fill: rgb(68, 68, 68); fill-opacity: 1; white-space: pre;">Jul 2021</text></g></g><g class="yaxislayer-above"><g class="ytick"><text text-anchor="end" x="59" y="4.199999999999999" transform="translate(0,692.72)" style="font-family: 'Open Sans', verdana, arial, sans-serif; font-size: 12px; fill: rgb(68, 68, 68); fill-opacity: 1; white-space: pre;">0</text></g><g class="ytick"><text text-anchor="end" x="59" y="4.199999999999999" transform="translate(0,561.26)" style="font-family: 'Open Sans', verdana, arial, sans-serif; font-size: 12px; fill: rgb(68, 68, 68); fill-opacity: 1; white-space: pre;">1000</text></g><g class="ytick"><text text-anchor="end" x="59" y="4.199999999999999" transform="translate(0,429.81)" style="font-family: 'Open Sans', verdana, arial, sans-serif; font-size: 12px; fill: rgb(68, 68, 68); fill-opacity: 1; white-space: pre;">2000</text></g><g class="ytick"><text text-anchor="end" x="59" y="4.199999999999999" transform="translate(0,298.35)" style="font-family: 'Open Sans', verdana, arial, sans-serif; font-size: 12px; fill: rgb(68, 68, 68); fill-opacity: 1; white-space: pre;">3000</text></g><g class="ytick"><text text-anchor="end" x="59" y="4.199999999999999" transform="translate(0,166.89)" style="font-family: 'Open Sans', verdana, arial, sans-serif; font-size: 12px; fill: rgb(68, 68, 68); fill-opacity: 1; white-space: pre;">4000</text></g><g class="ytick"><text text-anchor="end" x="59" y="4.199999999999999" transform="translate(0,35.44)" style="font-family: 'Open Sans', verdana, arial, sans-serif; font-size: 12px; fill: rgb(68, 68, 68); fill-opacity: 1; white-space: pre;">5000</text></g></g><g class="overaxes-above"/></g></g><g class="polarlayer"/><g class="ternarylayer"/><g class="geolayer"/><g class="funnelarealayer"/><g class="pielayer"/><g class="treemaplayer"/><g class="sunburstlayer"/><g class="glimages"/><defs id="topdefs-ada5b2"><g class="clips"/><clipPath id="legendada5b2"><rect width="102" height="67" x="0" y="0"/></clipPath></defs><g class="layer-above"><g class="imagelayer"/><g class="shapelayer"/></g><g class="infolayer"><g class="legend" pointer-events="all" transform="translate(914.76, 25)"><rect class="bg" shape-rendering="crispEdges" style="stroke: rgb(68, 68, 68); stroke-opacity: 1; fill: rgb(255, 255, 255); fill-opacity: 1; stroke-width: 0px;" width="102" height="67" x="0" y="0"/><g class="scrollbox" transform="translate(0, 0)" clip-path="url('#legendada5b2')"><g class="groups"><g class="traces" style="opacity: 1;" transform="translate(0, 14.5)"><text class="legendtext" text-anchor="start" x="40" y="4.680000000000001" style="font-family: 'Open Sans', verdana, arial, sans-serif; font-size: 12px; fill: rgb(68, 68, 68); fill-opacity: 1; white-space: pre;">positive</text><g class="layers" style="opacity: 1;"><g class="legendfill"/><g class="legendlines"><path class="js-line" d="M5,0h30" style="fill: none; stroke: rgb(31, 119, 180); stroke-opacity: 1; stroke-width: 2px;"/></g><g class="legendsymbols"><g class="legendpoints"/></g></g><rect class="legendtoggle" x="0" y="-9.5" width="96.109375" height="19" style="fill: rgb(0, 0, 0); fill-opacity: 0;"/></g><g class="traces" style="opacity: 1;" transform="translate(0, 33.5)"><text class="legendtext" text-anchor="start" x="40" y="4.680000000000001" style="font-family: 'Open Sans', verdana, arial, sans-serif; font-size: 12px; fill: rgb(68, 68, 68); fill-opacity: 1; white-space: pre;">resolved</text><g class="layers" style="opacity: 1;"><g class="legendfill"/><g class="legendlines"><path class="js-line" d="M5,0h30" style="fill: none; stroke: rgb(255, 127, 14); stroke-opacity: 1; stroke-width: 2px;"/></g><g class="legendsymbols"><g class="legendpoints"/></g></g><rect class="legendtoggle" x="0" y="-9.5" width="96.109375" height="19" style="fill: rgb(0, 0, 0); fill-opacity: 0;"/></g><g class="traces" style="opacity: 1;" transform="translate(0, 52.5)"><text class="legendtext" text-anchor="start" x="40" y="4.680000000000001" style="font-family: 'Open Sans', verdana, arial, sans-serif; font-size: 12px; fill: rgb(68, 68, 68); fill-opacity: 1; white-space: pre;">deceased</text><g class="layers" style="opacity: 1;"><g class="legendfill"/><g class="legendlines"><path class="js-line" d="M5,0h30" style="fill: none; stroke: rgb(44, 160, 44); stroke-opacity: 1; stroke-width: 2px;"/></g><g class="legendsymbols"><g class="legendpoints"/></g></g><rect class="legendtoggle" x="0" y="-9.5" width="96.109375" height="19" style="fill: rgb(0, 0, 0); fill-opacity: 0;"/></g></g></g><rect class="scrollbar" rx="20" ry="3" width="0" height="0" style="fill: rgb(128, 139, 164); fill-opacity: 1;" x="0" y="0"/></g><g class="g-gtitle"><text class="gtitle" x="513.5" y="12.5" text-anchor="middle" dy="0em" style="font-family: 'Open Sans', verdana, arial, sans-serif; font-size: 17px; fill: rgb(68, 68, 68); opacity: 1; font-weight: normal; white-space: pre;">Dynamics of new cases, resolved cases and deaths in Ontario (Jul 31, 2021)</text></g><g class="g-xtitle" transform="translate(0,-15)"><text class="xtitle" x="479" y="780" text-anchor="middle" style="font-family: 'Open Sans', verdana, arial, sans-serif; font-size: 14px; fill: rgb(68, 68, 68); opacity: 1; font-weight: normal; white-space: pre;">Date</text></g><g class="g-ytitle"><text class="ytitle" transform="rotate(-90,22,376.5)" x="22" y="376.5" text-anchor="middle" style="font-family: 'Open Sans', verdana, arial, sans-serif; font-size: 14px; fill: rgb(68, 68, 68); opacity: 1; font-weight: normal; white-space: pre;">Number of cases</text></g></g></svg>