<svg class="main-svg" xmlns="http://www.w3.org/2000/svg" xmlns:xlink="http://www.w3.org/1999/xlink" width="1027" height="768" style="" viewBox="0 0 1027 768"><rect x="0" y="0" width="1027" height="768" style="fill: rgb(255, 255, 255); fill-opacity: 1;"/><defs id="defs-c7d55c"><g class="clips"><clipPath id="clipc7d55cxyplot" class="plotclip"><rect width="838" height="703"/></clipPath><clipPath class="axesclip" id="clipc7d55cx"><rect x="60" y="0" width="838" height="768"/></clipPath><clipPath class="axesclip" id="clipc7d55cy"><rect x="0" y="25" width="1027" height="703"/></clipPath><clipPath class="axesclip" id="clipc7d55cxy"><rect x="60" y="25" width="838" height="703"/></clipPath></g><g class="gradients"/></defs><g class="bglayer"/><g class="layer-below"><g class="imagelayer"/><g class="shapelayer"/></g><g class="cartesianlayer"><g class="subplot xy"><g class="layer-subplot"><g class="shapelayer"/><g class="imagelayer"/></g><g class="gridlayer"><g class="x"><path class="xgrid crisp" transform="translate(83.94,0)" d="M0,25v703" style="stroke: rgb(238, 238, 238); stroke-opacity: 1; stroke-width: 1px;"/><path class="xgrid crisp" transform="translate(205.65,0)" d="M0,25v703" style="stroke: rgb(238, 238, 238); stroke-opacity: 1; stroke-width: 1px;"/><path class="xgrid crisp" transform="translate(327.36,0)" d="M0,25v703" style="stroke: rgb(238, 238, 238); stroke-opacity: 1; stroke-width: 1px;"/><path class="xgrid crisp" transform="translate(451.07,0)" d="M0,25v703" style="stroke: rgb(238, 238, 238); stroke-opacity: 1; stroke-width: 1px;"/><path class="xgrid crisp" transform="translate(572.78,0)" d="M0,25v703" style="stroke: rgb(238, 238, 238); stroke-opacity: 1; stroke-width: 1px;"/><path class="xgrid crisp" transform="translate(694.49,0)" d="M0,25v703" style="stroke: rgb(238, 238, 238); stroke-opacity: 1; stroke-width: 1px;"/><path class="xgrid crisp" transform="translate(812.2,0)" d="M0,25v703" style="stroke: rgb(238, 238, 238); stroke-opacity: 1; stroke-width: 1px;"/></g><g class="y"><path class="ygrid crisp" transform="translate(0,621.73)" d="M60,0h838" style="stroke: rgb(238, 238, 238); stroke-opacity: 1; stroke-width: 1px;"/><path class="ygrid crisp" transform="translate(0,550.75)" d="M60,0h838" style="stroke: rgb(238, 238, 238); stroke-opacity: 1; stroke-width: 1px;"/><path class="ygrid crisp" transform="translate(0,479.77)" d="M60,0h838" style="stroke: rgb(238, 238, 238); stroke-opacity: 1; stroke-width: 1px;"/><path class="ygrid crisp" transform="translate(0,408.8)" d="M60,0h838" style="stroke: rgb(238, 238, 238); stroke-opacity: 1; stroke-width: 1px;"/><path class="ygrid crisp" transform="translate(0,337.82)" d="M60,0h838" style="stroke: rgb(238, 238, 238); stroke-opacity: 1; stroke-width: 1px;"/><path class="ygrid crisp" transform="translate(0,266.84000000000003)" d="M60,0h838" style="stroke: rgb(238, 238, 238); stroke-opacity: 1; stroke-width: 1px;"/><path class="ygrid crisp" transform="translate(0,195.86)" d="M60,0h838" style="stroke: rgb(238, 238, 238); stroke-opacity: 1; stroke-width: 1px;"/><path class="ygrid crisp" transform="translate(0,124.88)" d="M60,0h838" style="stroke: rgb(238, 238, 238); stroke-opacity: 1; stroke-width: 1px;"/><path class="ygrid crisp" transform="translate(0,53.9)" d="M60,0h838" style="stroke: rgb(238, 238, 238); stroke-opacity: 1; stroke-width: 1px;"/></g></g><g class="zerolinelayer"><path class="yzl zl crisp" transform="translate(0,692.71)" d="M60,0h838" style="stroke: rgb(68, 68, 68); stroke-opacity: 1; stroke-width: 1px;"/></g><path class="xlines-below"/><path class="ylines-below"/><g class="overlines-below"/><g class="xaxislayer-below"/><g class="yaxislayer-below"/><g class="overaxes-below"/><g class="plot" transform="translate(60, 25)" clip-path="url('#clipc7d55cxyplot')"><g class="scatterlayer mlayer"><g class="trace scatter trace5c8843" style="stroke-miterlimit: 2; opacity: 1;"><g class="fills"/><g class="errorbars"/><g class="lines"><path class="js-line" d="M0,667.71L19.95,667.57L25.94,666L27.93,667.42L29.93,667.71L39.9,666.71L41.9,667.71L49.88,664.3L51.88,661.75L53.87,663.17L55.87,666.15L61.85,659.19L63.85,659.62L65.84,661.46L67.84,656.78L69.83,655.93L71.83,654.22L73.82,643.86L75.82,648.97L77.81,646.41L79.81,584.1L81.8,630.8L83.8,607.23L85.8,610.78L87.79,602.12L89.79,614.47L91.78,609.79L93.78,623.84L95.77,613.91L97.77,589.63L99.76,599.14L101.76,599.85L103.75,609.36L105.75,610.78L107.74,607.94L109.74,599.14L111.73,597.58L113.73,594.74L115.72,587.64L117.72,598.86L119.71,587.08L121.71,581.68L123.7,589.49L125.7,595.31L127.7,577.71L129.69,576.86L131.69,600.14L133.68,605.67L135.68,607.52L137.67,593.18L139.67,618.45L141.66,602.55L143.66,607.94L145.65,595.17L147.65,606.1L149.64,615.18L151.64,612.77L153.63,609.22L155.63,611.07L157.62,599.99L159.62,618.59L161.61,625.97L163.61,623.99L165.6,616.46L167.6,621L169.6,618.73L171.59,619.3L173.59,612.2L175.58,619.44L177.58,624.55L179.57,607.09L181.57,612.35L183.56,609.08L185.56,605.11L187.55,609.22L189.55,602.41L191.54,610.36L193.54,626.97L195.53,626.26L197.53,613.34L199.52,618.88L201.52,621.86L203.51,621.43L205.51,610.36L207.5,604.4L209.5,619.73L211.5,617.17L213.49,618.88L215.49,603.12L217.48,608.8L219.48,633.21L221.47,635.06L223.47,632.08L225.46,638.89L227.46,641.87L229.45,629.95L231.45,639.74L233.44,642.01L235.44,641.59L237.43,640.74L239.43,643.15L241.42,642.44L243.42,638.47L245.41,642.87L247.41,644.85L249.4,637.05L251.4,644.57L253.4,640.88L255.39,651.95L257.39,645L259.38,642.44L261.38,631.23L263.37,645.42L265.37,646.56L267.36,645.99L269.36,644.29L271.35,650.53L275.34,645.85L277.34,651.81L279.33,650.96L281.33,643.58L283.32,651.24L285.32,649.25L287.31,649.4L289.31,651.24L293.3,653.23L295.3,651.95L297.29,651.95L299.29,644.14L301.28,644.43L303.28,648.54L305.27,638.89L307.27,644.29L309.26,653.09L311.26,640.03L313.25,648.12L315.25,648.26L317.24,650.82L319.24,651.95L321.23,656.92L323.23,655.07L325.22,648.69L327.22,650.11L329.21,651.24L331.21,655.22L333.2,654.79L335.2,655.5L337.2,654.22L339.19,655.22L341.19,657.77L343.18,656.49L345.18,651.38L347.17,663.02L349.17,654.22L351.16,656.64L355.15,652.66L357.15,656.21L361.14,649.96L363.13,653.23L365.13,656.92L367.12,649.11L369.12,652.38L371.11,651.38L377.1,655.22L379.1,650.96L381.09,650.39L383.09,646.7L385.08,651.81L387.08,651.53L389.07,651.81L391.07,648.83L393.06,648.97L395.06,646.7L397.05,643.72L399.05,645.28L401.04,640.74L403.04,641.45L405.03,646.56L407.03,643.58L409.02,637.47L411.02,634.77L413.01,638.75L415.01,623.28L417,632.08L419,622.99L421,626.11L422.99,610.78L424.99,609.93L426.98,615.89L430.97,599.85L432.97,620.15L434.96,609.65L436.96,609.65L438.95,605.96L440.95,598.01L442.94,568.34L444.94,589.06L446.93,578.99L448.93,591.34L450.92,563.8L452.92,575.01L454.91,587.36L456.91,580.4L458.9,589.92L460.9,584.95L464.89,534.41L466.89,552.87L468.88,575.58L470.88,553.15L472.87,561.81L474.87,565.36L476.86,556.56L478.86,566.64L480.85,553.43L482.85,574.3L484.84,567.77L486.84,551.16L488.83,555.56L490.83,548.32L492.82,550.45L494.82,528.87L496.81,519.79L498.81,546.9L500.8,550.31L502.8,549.32L504.8,535.12L506.79,540.52L508.79,523.62L510.78,529.02L512.78,533.13L514.77,518.65L516.77,527.6L518.76,526.04L520.76,525.33L522.75,507.01L524.75,479.19L526.74,491.4L528.74,470.67L530.73,465.28L532.73,444.13L534.72,469.54L536.72,443.27L538.71,490.55L540.71,456.62L542.7,490.4L544.7,466.56L546.7,495.94L550.69,442.28L552.68,449.95L554.68,442.14L556.67,524.47L558.67,472.8L560.66,457.9L562.66,404.38L564.65,409.06L566.65,425.25L568.64,419.85L570.64,425.39L572.63,423.12L574.63,408.78L576.62,415.03L580.61,394.58L582.61,394.44L584.6,429.79L586.6,399.41L588.6,386.21L590.59,405.37L592.59,401.82L594.58,429.65L598.57,344.76L600.57,364.06L602.56,322.47L604.56,342.63L606.55,333.12L608.55,338.94L610.54,366.33L612.54,355.12L614.53,325.88L616.53,320.34L618.52,361.22L620.52,363.64L622.51,383.09L624.51,392.45L626.5,305.29L628.5,252.77L630.5,195.28L632.49,316.22L634.49,190.31L636.48,246.95L638.48,203.51L640.47,223.67L642.47,204.08L644.46,168.16L646.46,64.53L648.45,178.95L650.45,107.69L652.44,193.86L654.44,255.61L656.43,247.37L658.43,195.56L660.42,242.12L662.42,233.89L664.41,181.93L668.4,396.15L670.4,290.81L672.4,294.08L674.39,289.82L676.39,332.83L678.38,324.6L680.38,389.76L682.37,420.7L684.37,430.64L686.36,370.59L688.36,406.93L690.35,374.85L692.35,405.37L694.34,388.2L696.34,561.95L698.33,501.34L700.33,445.83L702.32,430.64L704.32,470.67L706.31,456.33L710.3,522.63L712.3,515.53L714.3,533.56L716.29,514.96L718.29,483.16L720.28,528.45L722.28,530.86L724.27,539.38L726.27,547.47L728.26,520.36L732.25,493.39L734.25,513.4L736.24,517.52L738.24,529.3L742.23,506.16L744.22,489.13L746.22,499.49L748.21,516.95L750.21,522.49L752.2,530.58L754.2,531.71L756.2,526.6L758.19,490.26L760.19,527.17L764.18,436.18L766.17,499.49L768.17,480.89L770.16,512.69L772.16,473.09L774.15,459.32L776.15,419.71L778.14,487.71L780.14,515.25L782.13,453.64L784.13,447.25L786.12,419.99L788.12,408.07L790.11,413.46L792.11,426.52L794.1,448.24L796.1,444.69L798.1,329.85L800.09,359.8L802.09,319.49L804.08,320.2L806.08,370.45L808.07,336.1L810.07,336.52L812.06,304.73L814.06,229.2L816.05,240.56L818.05,236.02L820.04,250.64L822.04,232.61L824.03,211.32L826.03,199.96L828.02,67.66L830.02,126.43L832.01,35.15L834.01,42.96L836,146.73L838,77.74" style="vector-effect: non-scaling-stroke; fill: none; stroke: rgb(31, 119, 180); stroke-opacity: 1; stroke-width: 2px; opacity: 1;"/></g><g class="points"/><g class="text"/></g><g class="trace scatter tracec14412" style="stroke-miterlimit: 2; opacity: 1;"><g class="fills"/><g class="errorbars"/><g class="lines"><path class="js-line" d="M0,667.71L77.81,667.71L79.81,607.66L81.8,653.09L83.8,645.7L85.8,647.55L87.79,640.45L89.79,639.88L91.78,635.06L93.78,642.87L95.77,642.44L97.77,629.1L99.76,634.92L101.76,629.52L103.75,627.39L107.74,634.21L109.74,637.76L111.73,620.29L113.73,626.26L115.72,616.32L117.72,622.42L119.71,620.29L121.71,624.27L123.7,626.4L125.7,608.8L127.7,602.55L129.69,609.93L131.69,607.8L133.68,598.01L135.68,593.18L137.67,605.39L139.67,575.72L141.66,583.53L143.66,579.7L145.65,587.5L147.65,580.4L149.64,596.73L151.64,628.81L153.63,604.82L155.63,618.45L157.62,607.94L159.62,611.92L161.61,612.49L163.61,616.75L165.6,630.8L167.6,603.26L169.6,616.75L171.59,605.67L173.59,613.91L175.58,619.44L177.58,628.24L179.57,630.8L181.57,626.26L183.56,622.42L185.56,631.08L187.55,613.91L189.55,620.72L191.54,636.34L193.54,630.8L195.53,608.94L197.53,624.98L199.52,623.7L201.52,615.18L203.51,602.83L205.51,619.02L207.5,620.72L209.5,621.29L211.5,611.35L213.49,614.47L215.49,616.04L217.48,624.41L219.48,633.64L221.47,619.87L223.47,589.49L225.46,596.02L227.46,624.84L229.45,617.88L231.45,607.66L233.44,631.94L235.44,636.76L237.43,617.6L239.43,636.48L241.42,632.79L243.42,636.76L245.41,632.08L249.4,643.01L251.4,635.2L253.4,640.45L255.39,635.63L257.39,642.44L259.38,642.87L261.38,655.07L263.37,646.7L267.36,638.75L269.36,642.3L271.35,643.01L273.35,641.73L275.34,645L277.34,642.58L279.33,639.03L281.33,643.29L283.32,642.44L285.32,629.81L287.31,651.81L289.31,649.4L291.3,650.39L293.3,648.54L295.3,647.69L297.29,653.37L299.29,648.97L301.28,651.67L303.28,652.66L305.27,654.65L307.27,638.32L309.26,646.27L311.26,648.26L313.25,647.83L317.24,653.23L319.24,652.66L321.23,643.01L323.23,644.29L325.22,643.86L327.22,644.57L329.21,650.39L331.21,649.82L333.2,651.24L335.2,646.98L337.2,645.14L339.19,650.96L341.19,652.52L343.18,646.7L345.18,653.23L347.17,657.06L349.17,648.69L351.16,653.65L353.16,655.93L355.15,653.37L357.15,656.35L359.14,655.93L361.14,654.93L363.13,655.07L365.13,656.92L367.12,652.66L369.12,654.93L371.11,652.38L373.11,656.64L375.1,657.06L377.1,651.38L379.1,656.78L381.09,655.93L383.09,653.09L385.08,656.64L387.08,657.35L389.07,654.65L391.07,648.26L393.06,650.82L395.06,651.24L397.05,652.66L399.05,651.95L401.04,650.82L403.04,650.82L405.03,648.4L407.03,647.55L409.02,650.11L411.02,650.82L415.01,648.83L417,651.1L421,642.3L422.99,642.72L424.99,642.58L426.98,640.59L428.98,642.44L430.97,639.88L432.97,631.08L434.96,627.11L436.96,627.53L438.95,619.73L440.95,626.68L442.94,620.72L444.94,621.86L446.93,602.83L448.93,594.6L450.92,606.95L452.92,605.96L454.91,591.9L458.9,590.2L460.9,567.34L462.9,569.05L464.89,564.93L466.89,568.34L468.88,567.63L472.87,579.13L474.87,556.56L476.86,557.12L478.86,566.49L480.85,570.89L482.85,570.47L484.84,581.54L486.84,578.56L488.83,565.64L490.83,562.52L492.82,563.65L494.82,578.99L496.81,563.23L498.81,571.32L500.8,569.62L502.8,557.98L504.8,551.3L506.79,554.71L508.79,554.43L510.78,545.06L512.78,550.45L514.77,548.89L516.77,533.56L518.76,533.13L520.76,532.99L522.75,546.76L524.75,543.21L526.74,551.16L528.74,556.84L530.73,541.93L532.73,537.53L534.72,523.2L536.72,525.33L538.71,516.95L540.71,526.89L542.7,506.59L544.7,455.48L546.7,472.38L548.69,466.84L550.69,474.22L554.68,457.04L556.67,514.11L558.67,458.18L560.66,473.94L564.65,453.35L566.65,462.86L568.64,480.33L570.64,472.8L572.63,428.37L574.63,448.95L576.62,447.25L578.62,437.17L580.61,444.27L582.61,467.27L584.6,447.82L586.6,394.58L588.6,411.62L590.59,418.86L592.59,395.44L594.58,429.51L596.58,449.8L598.57,410.77L600.57,377.69L602.56,382.52L604.56,384.93L606.55,402.96L608.55,393.59L610.54,432.91L612.54,397.99L614.53,349.3L616.53,381.95L618.52,350.15L620.52,396.15L622.51,383.09L624.51,362.36L626.5,350.72L628.5,350.15L630.5,353.56L632.49,318.5L634.49,376.13L636.48,358.95L638.48,373.29L640.47,381.67L642.47,241.13L644.46,273.64L646.46,279.03L648.45,253.9L650.45,313.38L652.44,276.48L654.44,191.73L656.43,186.19L658.43,157.66L662.42,211.74L664.41,230.77L666.41,266.54L668.4,259.87L670.4,140.48L672.4,243.26L674.39,188.6L676.39,238.29L682.37,346.74L684.37,280.88L686.36,314.09L688.36,256.03L694.34,365.06L696.34,341.63L698.33,419.99L700.33,390.04L702.32,350.72L704.32,412.75L706.31,392.74L708.31,426.38L710.3,470.67L712.3,425.1L714.3,476.92L716.29,466.84L718.29,464.14L720.28,492.39L724.27,509.85L726.27,461.02L728.26,486.43L730.26,489.55L732.25,481.32L734.25,505.88L736.24,513.97L738.24,525.47L740.23,484.44L742.23,512.41L744.22,524.76L746.22,528.02L748.21,521.63L750.21,534.41L752.2,528.73L754.2,512.98L756.2,515.53L758.19,503.18L760.19,504.17L762.18,510.85L764.18,526.6L766.17,529.73L768.17,495.66L770.16,510.14L772.16,508.15L774.15,504.32L776.15,502.04L778.14,509.57L780.14,513.69L782.13,456.48L784.13,492.25L786.12,483.73L788.12,488.7L790.11,475.64L792.11,500.91L794.1,487.28L796.1,450.37L798.1,479.05L800.09,429.93L802.09,457.47L804.08,448.67L806.08,451.37L808.07,458.04L810.07,387.63L812.06,410.2L814.06,394.44L816.05,409.49L818.05,398.13L820.04,417.72L822.04,387.2L824.03,326.02L826.03,302.03L828.02,292.8L830.02,323.89L832.01,296.21L834.01,320.62L836,302.45L838,219.13" style="vector-effect: non-scaling-stroke; fill: none; stroke: rgb(255, 127, 14); stroke-opacity: 1; stroke-width: 2px; opacity: 1;"/></g><g class="points"/><g class="text"/></g><g class="trace scatter trace9e9915" style="stroke-miterlimit: 2; opacity: 1;"><g class="fills"/><g class="errorbars"/><g class="lines"><path class="js-line" d="M0,667.71L79.81,667.14L81.8,666.29L83.8,667.14L85.8,665.44L87.79,665.72L89.79,663.88L91.78,664.16L93.78,665.86L95.77,664.73L97.77,664.73L99.76,664.02L101.76,664.59L103.75,663.31L105.75,664.73L107.74,665.29L109.74,661.6L111.73,660.47L113.73,662.31L115.72,659.9L117.72,662.6L119.71,662.17L121.71,663.31L123.7,662.31L125.7,662.46L127.7,660.04L129.69,660.61L131.69,660.89L133.68,664.3L135.68,659.62L137.67,659.33L139.67,661.32L141.66,655.5L143.66,662.17L145.65,659.9L147.65,662.03L149.64,655.78L151.64,659.05L153.63,658.06L155.63,660.89L157.62,658.76L159.62,659.33L161.61,662.74L163.61,662.74L165.6,659.76L167.6,662.03L169.6,663.02L171.59,663.88L173.59,663.02L175.58,664.44L177.58,664.44L179.57,665.58L181.57,661.6L183.56,663.31L185.56,663.73L191.54,663.59L193.54,664.73L195.53,663.17L197.53,662.88L199.52,661.89L201.52,665.29L203.51,665.01L205.51,666.29L209.5,665.01L211.5,661.32L213.49,665.58L215.49,662.74L217.48,665.01L219.48,664.3L221.47,665.72L223.47,666.15L231.45,666L233.44,666.57L237.43,666L239.43,667.28L241.42,666.15L243.42,663.31L245.41,666.15L247.41,667.28L251.4,666L253.4,666.29L255.39,667.28L257.39,666.57L265.37,667.14L267.36,667.14L275.34,667.71L277.34,667.42L279.33,666.43L281.33,667.28L285.32,666.86L287.31,667.28L291.3,667.57L293.3,666.43L295.3,667L297.29,666.43L299.29,667.42L301.28,667.28L309.26,667.71L311.26,667.28L317.24,667.57L319.24,667.14L323.23,667.28L325.22,667.28L339.19,667.71L341.19,667.57L349.17,667.57L351.16,667.71L361.14,667.14L363.13,667.85L369.12,667.57L371.11,667.71L381.09,666.86L383.09,667.71L393.06,667.71L395.06,667.85L407.03,667.57L409.02,667.85L417,667.14L419,667.42L430.97,667.28L432.97,667.28L438.95,667.71L440.95,667.42L448.93,667.28L450.92,656.92L454.91,666.71L456.91,667L458.9,666.71L460.9,667.57L466.89,666.71L468.88,667.57L472.87,666.43L474.87,667.71L480.85,666.29L482.85,667L486.84,667.28L488.83,666.43L502.8,667L504.8,666.29L512.78,666.71L514.77,665.72L518.76,665.86L520.76,665.72L524.75,665.86L526.74,666L534.72,665.01L536.72,664.87L538.71,663.59L540.71,666.29L542.7,666L544.7,663.17L546.7,663.73L548.69,666.57L550.69,664.73L552.68,665.72L554.68,665.01L556.67,665.72L558.67,662.74L560.66,664.73L562.66,664.87L564.65,663.59L566.65,664.3L568.64,666.57L570.64,666.71L572.63,662.74L574.63,665.72L576.62,664.16L580.61,665.58L582.61,664.02L584.6,666.29L586.6,663.73L590.59,661.32L592.59,665.29L594.58,665.44L596.58,664.44L598.57,664.87L600.57,661.6L602.56,664.44L604.56,662.03L606.55,663.88L608.55,664.16L610.54,665.29L612.54,664.73L614.53,661.89L616.53,660.75L620.52,662.31L622.51,665.15L624.51,662.46L626.5,661.89L628.5,665.01L630.5,659.76L634.49,661.46L636.48,664.16L638.48,663.59L640.47,660.47L642.47,662.46L644.46,655.07L646.46,664.02L648.45,662.03L650.45,659.05L652.44,663.59L654.44,661.89L656.43,657.2L658.43,658.91L660.42,653.51L662.42,660.47L664.41,657.91L666.41,664.3L668.4,661.18L670.4,655.07L672.4,661.18L674.39,655.36L676.39,660.33L680.38,661.6L682.37,658.76L684.37,660.75L686.36,659.76L688.36,659.47L690.35,657.35L692.35,661.6L694.34,662.6L696.34,665.72L698.33,658.2L700.33,655.22L702.32,661.32L704.32,661.32L706.31,664.59L708.31,663.02L710.3,665.29L712.3,661.89L714.3,665.15L718.29,665.01L720.28,661.75L722.28,665.86L724.27,665.86L726.27,666.29L728.26,661.46L730.26,661.04L732.25,663.73L734.25,665.86L736.24,666.15L740.23,666.43L742.23,664.44L744.22,663.73L746.22,665.44L748.21,664.87L750.21,666.86L754.2,665.29L756.2,666.29L758.19,664.59L760.19,666.86L762.18,665.58L764.18,666.29L766.17,666.86L768.17,665.44L770.16,666.29L772.16,665.15L774.15,666.15L776.15,665.58L778.14,666.43L780.14,666.15L784.13,665.58L786.12,666.29L788.12,666.15L790.11,665.15L792.11,667.28L794.1,666.43L796.1,666.29L798.1,665.29L800.09,666L802.09,665.44L804.08,665.01L806.08,666.29L814.06,664.44L816.05,665.44L822.04,666.57L824.03,665.29L832.01,664.73L834.01,665.58L836,665.58L838,663.73" style="vector-effect: non-scaling-stroke; fill: none; stroke: rgb(44, 160, 44); stroke-opacity: 1; stroke-width: 2px; opacity: 1;"/></g><g class="points"/><g class="text"/></g></g></g><g class="overplot"/><path class="xlines-above crisp" style="fill: none;" d="M0,0"/><path class="ylines-above crisp" style="fill: none;" d="M0,0"/><g class="overlines-above"/><g class="xaxislayer-above"><g class="xtick"><text text-anchor="middle" x="0" y="741" transform="translate(83.94,0)" style="font-family: 'Open Sans', verdana, arial, sans-serif; font-size: 12px; fill: rgb(68, 68, 68); fill-opacity: 1; white-space: pre;">Mar 2020</text></g><g class="xtick"><text text-anchor="middle" x="0" y="741" transform="translate(205.65,0)" style="font-family: 'Open Sans', verdana, arial, sans-serif; font-size: 12px; fill: rgb(68, 68, 68); fill-opacity: 1; white-space: pre;">May 2020</text></g><g class="xtick"><text text-anchor="middle" x="0" y="741" transform="translate(327.36,0)" style="font-family: 'Open Sans', verdana, arial, sans-serif; font-size: 12px; fill: rgb(68, 68, 68); fill-opacity: 1; white-space: pre;">Jul 2020</text></g><g class="xtick"><text text-anchor="middle" x="0" y="741" transform="translate(451.07,0)" style="font-family: 'Open Sans', verdana, arial, sans-serif; font-size: 12px; fill: rgb(68, 68, 68); fill-opacity: 1; white-space: pre;">Sep 2020</text></g><g class="xtick"><text text-anchor="middle" x="0" y="741" transform="translate(572.78,0)" style="font-family: 'Open Sans', verdana, arial, sans-serif; font-size: 12px; fill: rgb(68, 68, 68); fill-opacity: 1; white-space: pre;">Nov 2020</text></g><g class="xtick"><text text-anchor="middle" x="0" y="741" transform="translate(694.49,0)" style="font-family: 'Open Sans', verdana, arial, sans-serif; font-size: 12px; fill: rgb(68, 68, 68); fill-opacity: 1; white-space: pre;">Jan 2021</text></g><g class="xtick"><text text-anchor="middle" x="0" y="741" transform="translate(812.2,0)" style="font-family: 'Open Sans', verdana, arial, sans-serif; font-size: 12px; fill: rgb(68, 68, 68); fill-opacity: 1; white-space: pre;">Mar 2021</text></g></g><g class="yaxislayer-above"><g class="ytick"><text text-anchor="end" x="59" y="4.199999999999999" transform="translate(0,692.71)" style="font-family: 'Open Sans', verdana, arial, sans-serif; font-size: 12px; fill: rgb(68, 68, 68); fill-opacity: 1; white-space: pre;">0</text></g><g class="ytick"><text text-anchor="end" x="59" y="4.199999999999999" transform="translate(0,621.73)" style="font-family: 'Open Sans', verdana, arial, sans-serif; font-size: 12px; fill: rgb(68, 68, 68); fill-opacity: 1; white-space: pre;">500</text></g><g class="ytick"><text text-anchor="end" x="59" y="4.199999999999999" transform="translate(0,550.75)" style="font-family: 'Open Sans', verdana, arial, sans-serif; font-size: 12px; fill: rgb(68, 68, 68); fill-opacity: 1; white-space: pre;">1000</text></g><g class="ytick"><text text-anchor="end" x="59" y="4.199999999999999" transform="translate(0,479.77)" style="font-family: 'Open Sans', verdana, arial, sans-serif; font-size: 12px; fill: rgb(68, 68, 68); fill-opacity: 1; white-space: pre;">1500</text></g><g class="ytick"><text text-anchor="end" x="59" y="4.199999999999999" transform="translate(0,408.8)" style="font-family: 'Open Sans', verdana, arial, sans-serif; font-size: 12px; fill: rgb(68, 68, 68); fill-opacity: 1; white-space: pre;">2000</text></g><g class="ytick"><text text-anchor="end" x="59" y="4.199999999999999" transform="translate(0,337.82)" style="font-family: 'Open Sans', verdana, arial, sans-serif; font-size: 12px; fill: rgb(68, 68, 68); fill-opacity: 1; white-space: pre;">2500</text></g><g class="ytick"><text text-anchor="end" x="59" y="4.199999999999999" transform="translate(0,266.84000000000003)" style="font-family: 'Open Sans', verdana, arial, sans-serif; font-size: 12px; fill: rgb(68, 68, 68); fill-opacity: 1; white-space: pre;">3000</text></g><g class="ytick"><text text-anchor="end" x="59" y="4.199999999999999" transform="translate(0,195.86)" style="font-family: 'Open Sans', verdana, arial, sans-serif; font-size: 12px; fill: rgb(68, 68, 68); fill-opacity: 1; white-space: pre;">3500</text></g><g class="ytick"><text text-anchor="end" x="59" y="4.199999999999999" transform="translate(0,124.88)" style="font-family: 'Open Sans', verdana, arial, sans-serif; font-size: 12px; fill: rgb(68, 68, 68); fill-opacity: 1; white-space: pre;">4000</text></g><g class="ytick"><text text-anchor="end" x="59" y="4.199999999999999" transform="translate(0,53.9)" style="font-family: 'Open Sans', verdana, arial, sans-serif; font-size: 12px; fill: rgb(68, 68, 68); fill-opacity: 1; white-space: pre;">4500</text></g></g><g class="overaxes-above"/></g></g><g class="polarlayer"/><g class="ternarylayer"/><g class="geolayer"/><g class="funnelarealayer"/><g class="pielayer"/><g class="treemaplayer"/><g class="sunburstlayer"/><g class="glimages"/><defs id="topdefs-c7d55c"><g class="clips"/><clipPath id="legendc7d55c"><rect width="102" height="67" x="0" y="0"/></clipPath></defs><g class="layer-above"><g class="imagelayer"/><g class="shapelayer"/></g><g class="infolayer"><g class="legend" pointer-events="all" transform="translate(914.76, 25)"><rect class="bg" shape-rendering="crispEdges" style="stroke: rgb(68, 68, 68); stroke-opacity: 1; fill: rgb(255, 255, 255); fill-opacity: 1; stroke-width: 0px;" width="102" height="67" x="0" y="0"/><g class="scrollbox" transform="translate(0, 0)" clip-path="url('#legendc7d55c')"><g class="groups"><g class="traces" style="opacity: 1;" transform="translate(0, 14.5)"><text class="legendtext" text-anchor="start" x="40" y="4.680000000000001" style="font-family: 'Open Sans', verdana, arial, sans-serif; font-size: 12px; fill: rgb(68, 68, 68); fill-opacity: 1; white-space: pre;">positive</text><g class="layers" style="opacity: 1;"><g class="legendfill"/><g class="legendlines"><path class="js-line" d="M5,0h30" style="fill: none; stroke: rgb(31, 119, 180); stroke-opacity: 1; stroke-width: 2px;"/></g><g class="legendsymbols"><g class="legendpoints"/></g></g><rect class="legendtoggle" x="0" y="-9.5" width="96.109375" height="19" style="fill: rgb(0, 0, 0); fill-opacity: 0;"/></g><g class="traces" style="opacity: 1;" transform="translate(0, 33.5)"><text class="legendtext" text-anchor="start" x="40" y="4.680000000000001" style="font-family: 'Open Sans', verdana, arial, sans-serif; font-size: 12px; fill: rgb(68, 68, 68); fill-opacity: 1; white-space: pre;">resolved</text><g class="layers" style="opacity: 1;"><g class="legendfill"/><g class="legendlines"><path class="js-line" d="M5,0h30" style="fill: none; stroke: rgb(255, 127, 14); stroke-opacity: 1; stroke-width: 2px;"/></g><g class="legendsymbols"><g class="legendpoints"/></g></g><rect class="legendtoggle" x="0" y="-9.5" width="96.109375" height="19" style="fill: rgb(0, 0, 0); fill-opacity: 0;"/></g><g class="traces" style="opacity: 1;" transform="translate(0, 52.5)"><text class="legendtext" text-anchor="start" x="40" y="4.680000000000001" style="font-family: 'Open Sans', verdana, arial, sans-serif; font-size: 12px; fill: rgb(68, 68, 68); fill-opacity: 1; white-space: pre;">deceased</text><g class="layers" style="opacity: 1;"><g class="legendfill"/><g class="legendlines"><path class="js-line" d="M5,0h30" style="fill: none; stroke: rgb(44, 160, 44); stroke-opacity: 1; stroke-width: 2px;"/></g><g class="legendsymbols"><g class="legendpoints"/></g></g><rect class="legendtoggle" x="0" y="-9.5" width="96.109375" height="19" style="fill: rgb(0, 0, 0); fill-opacity: 0;"/></g></g></g><rect class="scrollbar" rx="20" ry="3" width="0" height="0" style="fill: rgb(128, 139, 164); fill-opacity: 1;" x="0" y="0"/></g><g class="g-gtitle"><text class="gtitle" x="513.5" y="12.5" text-anchor="middle" dy="0em" style="font-family: 'Open Sans', verdana, arial, sans-serif; font-size: 17px; fill: rgb(68, 68, 68); opacity: 1; font-weight: normal; white-space: pre;">Dynamics of new cases, resolved cases and deaths in Ontario (Apr 14, 2021)</text></g><g class="g-xtitle" transform="translate(0,-15)"><text class="xtitle" x="479" y="780" text-anchor="middle" style="font-family: 'Open Sans', verdana, arial, sans-serif; font-size: 14px; fill: rgb(68, 68, 68); opacity: 1; font-weight: normal; white-space: pre;">Date</text></g><g class="g-ytitle"><text class="ytitle" transform="rotate(-90,22,376.5)" x="22" y="376.5" text-anchor="middle" style="font-family: 'Open Sans', verdana, arial, sans-serif; font-size: 14px; fill: rgb(68, 68, 68); opacity: 1; font-weight: normal; white-space: pre;">Number of cases</text></g></g></svg>