<svg class="main-svg" xmlns="http://www.w3.org/2000/svg" xmlns:xlink="http://www.w3.org/1999/xlink" width="1027" height="768" style="" viewBox="0 0 1027 768"><rect x="0" y="0" width="1027" height="768" style="fill: rgb(255, 255, 255); fill-opacity: 1;"/><defs id="defs-0a9e09"><g class="clips"><clipPath id="clip0a9e09xyplot" class="plotclip"><rect width="838" height="703"/></clipPath><clipPath class="axesclip" id="clip0a9e09x"><rect x="60" y="0" width="838" height="768"/></clipPath><clipPath class="axesclip" id="clip0a9e09y"><rect x="0" y="25" width="1027" height="703"/></clipPath><clipPath class="axesclip" id="clip0a9e09xy"><rect x="60" y="25" width="838" height="703"/></clipPath></g><g class="gradients"/></defs><g class="bglayer"/><g class="layer-below"><g class="imagelayer"/><g class="shapelayer"/></g><g class="cartesianlayer"><g class="subplot xy"><g class="layer-subplot"><g class="shapelayer"/><g class="imagelayer"/></g><g class="gridlayer"><g class="x"><path class="xgrid crisp" transform="translate(94.44,0)" d="M0,25v703" style="stroke: rgb(238, 238, 238); stroke-opacity: 1; stroke-width: 1px;"/><path class="xgrid crisp" transform="translate(183.4,0)" d="M0,25v703" style="stroke: rgb(238, 238, 238); stroke-opacity: 1; stroke-width: 1px;"/><path class="xgrid crisp" transform="translate(269.5,0)" d="M0,25v703" style="stroke: rgb(238, 238, 238); stroke-opacity: 1; stroke-width: 1px;"/><path class="xgrid crisp" transform="translate(358.47,0)" d="M0,25v703" style="stroke: rgb(238, 238, 238); stroke-opacity: 1; stroke-width: 1px;"/><path class="xgrid crisp" transform="translate(444.56,0)" d="M0,25v703" style="stroke: rgb(238, 238, 238); stroke-opacity: 1; stroke-width: 1px;"/><path class="xgrid crisp" transform="translate(533.53,0)" d="M0,25v703" style="stroke: rgb(238, 238, 238); stroke-opacity: 1; stroke-width: 1px;"/><path class="xgrid crisp" transform="translate(622.49,0)" d="M0,25v703" style="stroke: rgb(238, 238, 238); stroke-opacity: 1; stroke-width: 1px;"/><path class="xgrid crisp" transform="translate(708.59,0)" d="M0,25v703" style="stroke: rgb(238, 238, 238); stroke-opacity: 1; stroke-width: 1px;"/><path class="xgrid crisp" transform="translate(797.55,0)" d="M0,25v703" style="stroke: rgb(238, 238, 238); stroke-opacity: 1; stroke-width: 1px;"/><path class="xgrid crisp" transform="translate(883.65,0)" d="M0,25v703" style="stroke: rgb(238, 238, 238); stroke-opacity: 1; stroke-width: 1px;"/></g><g class="y"><path class="ygrid crisp" transform="translate(0,528.27)" d="M60,0h838" style="stroke: rgb(238, 238, 238); stroke-opacity: 1; stroke-width: 1px;"/><path class="ygrid crisp" transform="translate(0,364.02)" d="M60,0h838" style="stroke: rgb(238, 238, 238); stroke-opacity: 1; stroke-width: 1px;"/><path class="ygrid crisp" transform="translate(0,199.76)" d="M60,0h838" style="stroke: rgb(238, 238, 238); stroke-opacity: 1; stroke-width: 1px;"/><path class="ygrid crisp" transform="translate(0,35.51)" d="M60,0h838" style="stroke: rgb(238, 238, 238); stroke-opacity: 1; stroke-width: 1px;"/></g></g><g class="zerolinelayer"><path class="yzl zl crisp" transform="translate(0,692.52)" d="M60,0h838" style="stroke: rgb(68, 68, 68); stroke-opacity: 1; stroke-width: 1px;"/></g><path class="xlines-below"/><path class="ylines-below"/><g class="overlines-below"/><g class="xaxislayer-below"/><g class="yaxislayer-below"/><g class="overaxes-below"/><g class="plot" transform="translate(60, 25)" clip-path="url('#clip0a9e09xyplot')"><g class="scatterlayer mlayer"><g class="trace scatter trace18fc2d" style="stroke-miterlimit: 2; opacity: 1;"><g class="fills"/><g class="errorbars"/><g class="lines"><path class="js-line" d="M0,667.52L28.7,667.19L37.31,663.58L40.18,666.86L43.05,667.52L48.79,666.21L51.66,666.86L57.4,665.22L60.27,667.52L63.14,665.55L66.01,661.94L71.75,659.64L74.62,653.72L77.49,657.01L80.36,663.91L86.1,653.4L88.97,647.81L91.84,648.8L94.71,653.07L97.58,642.23L100.45,640.26L103.32,636.31L106.18,612.33L109.05,624.16L111.92,618.25L114.79,474.03L117.66,582.11L120.53,527.58L123.4,535.79L126.27,515.75L129.14,544.33L132.01,533.49L134.88,566.01L137.75,543.02L140.62,486.84L143.49,508.85L146.36,510.5L149.23,532.51L152.1,535.79L154.97,529.22L157.84,508.85L160.71,505.24L163.58,498.67L166.45,482.24L169.32,508.2L172.19,480.93L175.06,468.45L180.8,499.98L183.67,459.25L186.54,457.28L189.41,511.15L192.28,523.96L195.15,528.24L198.02,495.06L200.89,553.53L203.76,516.74L206.63,529.22L209.5,499.66L212.37,524.95L215.24,545.97L218.11,540.39L220.98,532.18L223.85,536.45L226.72,510.82L229.59,553.86L232.46,570.94L235.33,566.34L238.2,548.93L241.07,559.44L243.94,554.19L246.81,555.5L249.68,539.08L252.55,555.83L255.42,567.66L258.29,527.25L261.16,539.4L264.03,531.85L266.9,522.65L269.77,532.18L272.64,516.41L275.51,534.81L278.38,573.24L281.25,571.6L284.12,541.7L286.99,554.52L289.86,561.41L292.73,560.43L295.6,534.81L298.47,521.01L301.34,556.49L304.21,550.57L307.08,554.52L309.95,518.05L312.82,531.19L315.68,587.69L318.55,591.97L321.42,585.07L324.29,600.84L327.16,607.73L330.03,580.14L332.9,602.81L335.77,608.06L338.64,607.08L341.51,605.11L344.38,610.69L347.25,609.05L350.12,599.85L352.99,610.03L355.86,614.63L358.73,596.56L361.6,613.98L364.47,605.43L367.34,631.06L370.21,614.96L373.08,609.05L375.95,583.1L378.82,615.95L381.69,618.57L384.56,617.26L387.43,613.32L390.3,627.77L396.04,616.93L398.91,630.73L401.78,628.76L404.65,611.68L407.52,629.41L410.39,624.82L413.26,625.14L416.13,629.41L419,631.06L421.87,634.01L424.74,631.06L427.61,631.06L430.48,612.99L433.35,613.65L436.22,623.17L439.09,600.84L441.96,613.32L444.83,633.69L447.7,603.46L450.57,622.19L453.44,622.52L456.31,628.43L459.18,631.06L462.05,642.56L464.92,638.28L467.79,623.5L473.53,629.41L476.4,638.61L479.27,637.63L482.14,639.27L485.01,636.31L487.88,638.61L490.75,644.53L493.62,641.57L496.49,629.74L499.36,656.68L502.23,636.31L505.1,641.9L510.84,632.7L513.71,640.91L516.58,635L519.45,626.46L525.18,642.56L528.05,624.49L530.92,632.04L533.79,629.74L536.66,633.03L539.53,634.67L542.4,638.61L545.27,628.76L548.14,627.44L551.01,618.9L553.88,630.73L556.75,630.07L559.62,630.73L562.49,623.83L565.36,624.16L568.23,618.9L571.1,612L573.97,615.62L576.84,605.11L579.71,606.75L582.58,618.57L585.45,611.68L588.32,597.55L591.19,591.31L594.06,600.51L596.93,564.7L599.8,585.07L602.67,564.04L605.54,571.27L608.41,535.79L611.28,533.82L614.15,547.62L619.89,510.5L622.76,557.47L625.63,533.16L628.5,533.16L631.37,524.62L634.24,506.23L637.11,437.57L639.98,485.53L642.85,462.21L645.72,490.79L648.59,427.06L651.46,453.01L654.33,481.59L657.2,465.49L660.07,487.5L662.94,476L665.81,405.7L668.68,359.06L674.42,454.32L677.29,402.42L680.16,422.46L683.03,430.67L685.9,410.3L688.77,433.63L691.64,403.08L694.51,451.37L697.38,436.25L700.25,397.82L703.12,408L705.99,391.25L708.86,396.18L711.73,346.24L714.6,325.22L717.47,387.96L720.34,395.85L723.21,393.55L726.08,360.7L728.95,373.18L731.82,334.09L734.68,346.57L737.55,356.1L740.42,322.59L743.29,343.29L746.16,339.67L749.03,338.03L751.9,295.65L754.77,231.27L757.64,259.52L760.51,211.56L763.38,199.07L766.25,150.13L769.12,208.93L771.99,148.16L774.86,257.55L777.73,179.04L780.6,257.22L783.47,202.03L786.34,270.03L792.08,145.86L794.95,163.6L797.82,145.53L800.69,336.06L803.56,216.48L806.43,181.99L809.3,58.15L812.17,68.99L815.04,106.44L817.91,93.95L820.78,106.76L823.65,101.51L826.52,68.33L829.39,82.78L835.13,35.48L838,35.15" style="vector-effect: non-scaling-stroke; fill: none; stroke: rgb(31, 119, 180); stroke-opacity: 1; stroke-width: 2px; opacity: 1;"/></g><g class="points"/><g class="text"/></g><g class="trace scatter trace1ad059" style="stroke-miterlimit: 2; opacity: 1;"><g class="fills"/><g class="errorbars"/><g class="lines"><path class="js-line" d="M0,667.52L111.92,667.52L114.79,528.56L117.66,633.69L120.53,616.6L123.4,620.87L126.27,604.45L129.14,603.13L132.01,591.97L134.88,610.03L137.75,609.05L140.62,578.17L143.49,591.64L146.36,579.15L149.23,574.23L152.1,581.12L154.97,589.99L157.84,598.21L160.71,557.8L163.58,571.6L166.45,548.6L169.32,562.73L172.19,557.8L175.06,567L177.93,571.93L180.8,531.19L183.67,516.74L186.54,533.82L189.41,528.89L192.28,506.23L195.15,495.06L198.02,523.31L200.89,454.65L203.76,472.72L206.63,463.85L209.5,481.92L212.37,465.49L215.24,503.27L218.11,577.51L220.98,521.99L223.85,553.53L226.72,529.22L229.59,538.42L232.46,539.73L235.33,549.59L238.2,582.11L241.07,518.38L243.94,549.59L246.81,523.96L249.68,543.02L252.55,555.83L255.42,576.2L258.29,582.11L264.03,562.73L266.9,582.77L269.77,543.02L272.64,558.79L275.51,594.92L278.38,582.11L281.25,531.52L284.12,568.64L286.99,565.69L289.86,545.97L292.73,517.39L295.6,554.84L298.47,558.79L301.34,560.1L304.21,537.11L307.08,544.33L309.95,547.95L312.82,567.33L315.68,588.68L318.55,556.82L321.42,486.52L324.29,501.63L327.16,568.31L330.03,552.22L332.9,528.56L335.77,584.74L338.64,595.91L341.51,551.56L344.38,595.25L347.25,586.71L350.12,595.91L352.99,585.07L358.73,610.36L361.6,592.29L364.47,604.45L367.34,593.28L370.21,609.05L373.08,610.03L375.95,638.28L378.82,618.9L381.69,607.73L384.56,600.51L387.43,608.72L390.3,610.36L393.17,607.41L396.04,614.96L398.91,609.38L401.78,601.16L404.65,611.02L407.52,609.05L410.39,579.81L413.26,630.73L416.13,625.14L419,627.44L421.87,623.17L424.74,621.2L427.61,634.34L430.48,624.16L433.35,630.4L436.22,632.7L439.09,637.3L441.96,599.52L444.83,617.92L447.7,622.52L450.57,621.53L453.44,628.43L456.31,634.01L459.18,632.7L462.05,610.36L464.92,613.32L467.79,612.33L470.66,613.98L473.53,627.44L476.4,626.13L479.27,629.41L482.14,619.56L485.01,615.29L487.88,628.76L490.75,632.37L493.62,618.9L496.49,634.01L499.36,642.88L502.23,623.5L505.1,635L507.97,640.26L510.84,634.34L513.71,641.24L516.58,640.26L519.45,637.96L522.32,638.28L525.18,642.56L528.05,632.7L530.92,637.96L533.79,632.04L536.66,641.9L539.53,642.88L542.4,629.74L545.27,642.23L548.14,640.26L551.01,633.69L553.88,641.9L556.75,643.54L559.62,637.3L562.49,622.52L565.36,628.43L568.23,629.41L571.1,632.7L573.97,631.06L576.84,628.43L579.71,628.43L582.58,622.84L585.45,620.87L588.32,626.79L591.19,628.43L594.06,626.79L596.93,623.83L599.8,629.09L602.67,616.93L605.54,608.72L608.41,609.7L611.28,609.38L614.15,604.78L617.02,609.05L619.89,603.13L622.76,582.77L625.63,573.57L628.5,574.55L631.37,556.49L634.24,572.58L637.11,558.79L639.98,561.41L642.85,517.39L645.72,498.34L648.59,526.92L651.46,524.62L654.33,492.1L660.07,488.16L662.94,435.27L665.81,439.21L668.68,429.68L671.55,437.57L674.42,435.93L680.16,462.53L683.03,410.3L685.9,411.62L688.77,433.3L691.64,443.48L694.51,442.5L697.38,468.12L700.25,461.22L703.12,431.33L705.99,424.1L708.86,426.73L711.73,462.21L714.6,425.74L717.47,444.47L720.34,440.52L723.21,413.59L726.08,398.15L728.95,406.03L731.82,405.37L734.68,383.69L737.55,396.18L740.42,392.56L743.29,357.08L746.16,356.1L749.03,355.77L751.9,387.64L754.77,379.42L757.64,397.82L760.51,410.96L763.38,376.47L766.25,366.28L769.12,333.1L771.99,338.03L774.86,318.65L777.73,341.64L780.6,294.67L783.47,176.41L786.34,215.5L789.21,202.69L792.08,219.77L797.82,180.02L800.69,312.08L803.56,182.65L806.43,219.11L809.3,190.86L812.17,171.48L815.04,193.49L817.91,233.9L820.78,216.48L823.65,113.66L826.52,161.3L829.39,157.35L832.26,134.03L835.13,150.46L838,203.67" style="vector-effect: non-scaling-stroke; fill: none; stroke: rgb(255, 127, 14); stroke-opacity: 1; stroke-width: 2px; opacity: 1;"/></g><g class="points"/><g class="text"/></g><g class="trace scatter trace5e5b7d" style="stroke-miterlimit: 2; opacity: 1;"><g class="fills"/><g class="errorbars"/><g class="lines"><path class="js-line" d="M0,667.52L100.45,666.86L103.32,665.88L106.18,666.86L109.05,666.54L111.92,667.19L114.79,666.21L117.66,664.24L120.53,666.21L123.4,662.27L126.27,662.92L129.14,658.65L132.01,659.31L134.88,663.25L137.75,660.62L140.62,660.62L143.49,658.98L146.36,660.29L149.23,657.34L152.1,660.62L154.97,661.94L157.84,653.4L160.71,650.77L163.58,655.04L166.45,649.45L169.32,655.7L172.19,654.71L175.06,657.34L177.93,655.04L180.8,655.37L183.67,649.78L189.41,651.75L192.28,659.64L195.15,648.8L198.02,648.14L200.89,652.74L203.76,639.27L206.63,654.71L209.5,649.45L212.37,654.38L215.24,639.93L218.11,647.48L220.98,645.18L223.85,651.75L226.72,646.83L229.59,648.14L232.46,656.02L235.33,656.02L238.2,649.13L241.07,654.38L243.94,656.68L246.81,658.65L249.68,656.68L252.55,659.97L255.42,659.97L258.29,662.59L261.16,653.4L264.03,657.34L266.9,658.32L272.64,659.31L275.51,657.99L278.38,660.62L281.25,657.01L284.12,656.35L286.99,654.05L289.86,661.94L292.73,661.28L295.6,664.24L298.47,661.94L301.34,661.28L304.21,652.74L307.08,662.59L309.95,656.02L312.82,661.28L315.68,659.64L318.55,662.92L321.42,663.91L327.16,663.91L330.03,664.56L332.9,663.58L335.77,664.89L341.51,663.58L344.38,666.54L347.25,663.91L350.12,657.34L352.99,663.91L355.86,666.54L358.73,664.24L361.6,663.58L364.47,664.24L367.34,666.54L370.21,664.89L373.08,665.55L378.82,665.22L381.69,666.21L387.43,666.86L390.3,665.88L396.04,667.52L398.91,666.86L401.78,664.56L404.65,666.54L407.52,665.22L410.39,665.55L413.26,666.54L416.13,666.54L419,667.19L421.87,664.56L424.74,665.88L427.61,664.56L430.48,666.86L433.35,666.54L439.09,667.19L441.96,666.86L444.83,667.52L447.7,666.54L450.57,667.19L453.44,666.21L456.31,667.19L459.18,666.21L462.05,667.19L464.92,666.54L473.53,667.19L476.4,667.52L479.27,666.21L482.14,667.52L493.62,666.86L496.49,667.52L516.58,667.52L519.45,666.21L522.32,667.85L525.18,667.19L528.05,666.54L530.92,667.19L536.66,667.19L539.53,666.86L545.27,667.19L548.14,665.55L551.01,667.52L553.88,667.19L571.1,667.52L573.97,666.86L579.71,667.52L582.58,667.52L585.45,667.19L588.32,667.85L594.06,667.19L596.93,667.19L599.8,666.21L602.67,666.86L605.54,666.54L608.41,667.52L622.76,666.54L625.63,667.19L637.11,667.19L639.98,666.21L645.72,666.54L648.59,642.56L654.33,665.22L657.2,665.88L660.07,665.22L662.94,667.19L668.68,665.88L671.55,665.22L674.42,667.19L677.29,666.54L680.16,664.56L683.03,667.52L688.77,664.56L691.64,664.24L694.51,665.88L697.38,666.21L700.25,666.54L703.12,664.56L708.86,664.56L711.73,665.55L717.47,665.55L720.34,666.21L723.21,665.88L726.08,664.24L737.55,665.22L740.42,662.92L743.29,662.27L746.16,663.25L749.03,662.92L751.9,663.91L754.77,663.25L757.64,663.58L760.51,662.59L763.38,662.59L769.12,661.28L771.99,660.95L774.86,657.99L777.73,664.24L780.6,663.58L783.47,657.01L786.34,658.32L789.21,664.89L792.08,660.62L794.95,662.92L797.82,661.28L800.69,662.92L803.56,656.02L806.43,660.62L809.3,660.95L812.17,657.99L815.04,659.64L817.91,664.89L820.78,665.22L823.65,656.02L826.52,662.92L829.39,659.31L835.13,662.59L838,658.98" style="vector-effect: non-scaling-stroke; fill: none; stroke: rgb(44, 160, 44); stroke-opacity: 1; stroke-width: 2px; opacity: 1;"/></g><g class="points"/><g class="text"/></g></g></g><g class="overplot"/><path class="xlines-above crisp" style="fill: none;" d="M0,0"/><path class="ylines-above crisp" style="fill: none;" d="M0,0"/><g class="overlines-above"/><g class="xaxislayer-above"><g class="xtick"><text text-anchor="middle" x="0" y="741" transform="translate(94.44,0)" style="font-family: 'Open Sans', verdana, arial, sans-serif; font-size: 12px; fill: rgb(68, 68, 68); fill-opacity: 1; white-space: pre;">Mar 2020</text></g><g class="xtick"><text text-anchor="middle" x="0" y="741" transform="translate(183.4,0)" style="font-family: 'Open Sans', verdana, arial, sans-serif; font-size: 12px; fill: rgb(68, 68, 68); fill-opacity: 1; white-space: pre;">Apr 2020</text></g><g class="xtick"><text text-anchor="middle" x="0" y="741" transform="translate(269.5,0)" style="font-family: 'Open Sans', verdana, arial, sans-serif; font-size: 12px; fill: rgb(68, 68, 68); fill-opacity: 1; white-space: pre;">May 2020</text></g><g class="xtick"><text text-anchor="middle" x="0" y="741" transform="translate(358.47,0)" style="font-family: 'Open Sans', verdana, arial, sans-serif; font-size: 12px; fill: rgb(68, 68, 68); fill-opacity: 1; white-space: pre;">Jun 2020</text></g><g class="xtick"><text text-anchor="middle" x="0" y="741" transform="translate(444.56,0)" style="font-family: 'Open Sans', verdana, arial, sans-serif; font-size: 12px; fill: rgb(68, 68, 68); fill-opacity: 1; white-space: pre;">Jul 2020</text></g><g class="xtick"><text text-anchor="middle" x="0" y="741" transform="translate(533.53,0)" style="font-family: 'Open Sans', verdana, arial, sans-serif; font-size: 12px; fill: rgb(68, 68, 68); fill-opacity: 1; white-space: pre;">Aug 2020</text></g><g class="xtick"><text text-anchor="middle" x="0" y="741" transform="translate(622.49,0)" style="font-family: 'Open Sans', verdana, arial, sans-serif; font-size: 12px; fill: rgb(68, 68, 68); fill-opacity: 1; white-space: pre;">Sep 2020</text></g><g class="xtick"><text text-anchor="middle" x="0" y="741" transform="translate(708.59,0)" style="font-family: 'Open Sans', verdana, arial, sans-serif; font-size: 12px; fill: rgb(68, 68, 68); fill-opacity: 1; white-space: pre;">Oct 2020</text></g><g class="xtick"><text text-anchor="middle" x="0" y="741" transform="translate(797.55,0)" style="font-family: 'Open Sans', verdana, arial, sans-serif; font-size: 12px; fill: rgb(68, 68, 68); fill-opacity: 1; white-space: pre;">Nov 2020</text></g><g class="xtick"><text text-anchor="middle" x="0" y="741" transform="translate(883.65,0)" style="font-family: 'Open Sans', verdana, arial, sans-serif; font-size: 12px; fill: rgb(68, 68, 68); fill-opacity: 1; white-space: pre;">Dec 2020</text></g></g><g class="yaxislayer-above"><g class="ytick"><text text-anchor="end" x="59" y="4.199999999999999" transform="translate(0,692.52)" style="font-family: 'Open Sans', verdana, arial, sans-serif; font-size: 12px; fill: rgb(68, 68, 68); fill-opacity: 1; white-space: pre;">0</text></g><g class="ytick"><text text-anchor="end" x="59" y="4.199999999999999" transform="translate(0,528.27)" style="font-family: 'Open Sans', verdana, arial, sans-serif; font-size: 12px; fill: rgb(68, 68, 68); fill-opacity: 1; white-space: pre;">500</text></g><g class="ytick"><text text-anchor="end" x="59" y="4.199999999999999" transform="translate(0,364.02)" style="font-family: 'Open Sans', verdana, arial, sans-serif; font-size: 12px; fill: rgb(68, 68, 68); fill-opacity: 1; white-space: pre;">1000</text></g><g class="ytick"><text text-anchor="end" x="59" y="4.199999999999999" transform="translate(0,199.76)" style="font-family: 'Open Sans', verdana, arial, sans-serif; font-size: 12px; fill: rgb(68, 68, 68); fill-opacity: 1; white-space: pre;">1500</text></g><g class="ytick"><text text-anchor="end" x="59" y="4.199999999999999" transform="translate(0,35.51)" style="font-family: 'Open Sans', verdana, arial, sans-serif; font-size: 12px; fill: rgb(68, 68, 68); fill-opacity: 1; white-space: pre;">2000</text></g></g><g class="overaxes-above"/></g></g><g class="polarlayer"/><g class="ternarylayer"/><g class="geolayer"/><g class="funnelarealayer"/><g class="pielayer"/><g class="treemaplayer"/><g class="sunburstlayer"/><g class="glimages"/><defs id="topdefs-0a9e09"><g class="clips"/><clipPath id="legend0a9e09"><rect width="102" height="67" x="0" y="0"/></clipPath></defs><g class="layer-above"><g class="imagelayer"/><g class="shapelayer"/></g><g class="infolayer"><g class="legend" pointer-events="all" transform="translate(914.76, 25)"><rect class="bg" shape-rendering="crispEdges" style="stroke: rgb(68, 68, 68); stroke-opacity: 1; fill: rgb(255, 255, 255); fill-opacity: 1; stroke-width: 0px;" width="102" height="67" x="0" y="0"/><g class="scrollbox" transform="translate(0, 0)" clip-path="url('#legend0a9e09')"><g class="groups"><g class="traces" style="opacity: 1;" transform="translate(0, 14.5)"><text class="legendtext user-select-none" text-anchor="start" x="40" y="4.680000000000001" style="font-family: 'Open Sans', verdana, arial, sans-serif; font-size: 12px; fill: rgb(68, 68, 68); fill-opacity: 1; white-space: pre;">positive</text><g class="layers" style="opacity: 1;"><g class="legendfill"/><g class="legendlines"><path class="js-line" d="M5,0h30" style="fill: none; stroke: rgb(31, 119, 180); stroke-opacity: 1; stroke-width: 2px;"/></g><g class="legendsymbols"><g class="legendpoints"/></g></g><rect class="legendtoggle" pointer-events="all" x="0" y="-9.5" width="96.109375" height="19" style="cursor: pointer; fill: rgb(0, 0, 0); fill-opacity: 0;"/></g><g class="traces" style="opacity: 1;" transform="translate(0, 33.5)"><text class="legendtext user-select-none" text-anchor="start" x="40" y="4.680000000000001" style="font-family: 'Open Sans', verdana, arial, sans-serif; font-size: 12px; fill: rgb(68, 68, 68); fill-opacity: 1; white-space: pre;">resolved</text><g class="layers" style="opacity: 1;"><g class="legendfill"/><g class="legendlines"><path class="js-line" d="M5,0h30" style="fill: none; stroke: rgb(255, 127, 14); stroke-opacity: 1; stroke-width: 2px;"/></g><g class="legendsymbols"><g class="legendpoints"/></g></g><rect class="legendtoggle" pointer-events="all" x="0" y="-9.5" width="96.109375" height="19" style="cursor: pointer; fill: rgb(0, 0, 0); fill-opacity: 0;"/></g><g class="traces" style="opacity: 1;" transform="translate(0, 52.5)"><text class="legendtext user-select-none" text-anchor="start" x="40" y="4.680000000000001" style="font-family: 'Open Sans', verdana, arial, sans-serif; font-size: 12px; fill: rgb(68, 68, 68); fill-opacity: 1; white-space: pre;">deceased</text><g class="layers" style="opacity: 1;"><g class="legendfill"/><g class="legendlines"><path class="js-line" d="M5,0h30" style="fill: none; stroke: rgb(44, 160, 44); stroke-opacity: 1; stroke-width: 2px;"/></g><g class="legendsymbols"><g class="legendpoints"/></g></g><rect class="legendtoggle" pointer-events="all" x="0" y="-9.5" width="96.109375" height="19" style="cursor: pointer; fill: rgb(0, 0, 0); fill-opacity: 0;"/></g></g></g><rect class="scrollbar" rx="20" ry="3" width="0" height="0" style="fill: rgb(128, 139, 164); fill-opacity: 1;" x="0" y="0"/></g><g class="g-gtitle"><text class="gtitle" x="513.5" y="12.5" text-anchor="middle" dy="0em" style="font-family: 'Open Sans', verdana, arial, sans-serif; font-size: 17px; fill: rgb(68, 68, 68); opacity: 1; font-weight: normal; white-space: pre;">Dynamics of new cases, resolved cases and deaths in Ontario (Dec 07, 2020)</text></g><g class="g-xtitle" transform="translate(0,-15)"><text class="xtitle" x="479" y="780" text-anchor="middle" style="font-family: 'Open Sans', verdana, arial, sans-serif; font-size: 14px; fill: rgb(68, 68, 68); opacity: 1; font-weight: normal; white-space: pre;">Date</text></g><g class="g-ytitle"><text class="ytitle" transform="rotate(-90,22,376.5)" x="22" y="376.5" text-anchor="middle" style="font-family: 'Open Sans', verdana, arial, sans-serif; font-size: 14px; fill: rgb(68, 68, 68); opacity: 1; font-weight: normal; white-space: pre;">Number of cases</text></g></g></svg>