<svg class="main-svg" xmlns="http://www.w3.org/2000/svg" xmlns:xlink="http://www.w3.org/1999/xlink" width="1027" height="768" style="" viewBox="0 0 1027 768"><rect x="0" y="0" width="1027" height="768" style="fill: rgb(255, 255, 255); fill-opacity: 1;"/><defs id="defs-9f2275"><g class="clips"><clipPath id="clip9f2275xyplot" class="plotclip"><rect width="838" height="703"/></clipPath><clipPath class="axesclip" id="clip9f2275x"><rect x="60" y="0" width="838" height="768"/></clipPath><clipPath class="axesclip" id="clip9f2275y"><rect x="0" y="25" width="1027" height="703"/></clipPath><clipPath class="axesclip" id="clip9f2275xy"><rect x="60" y="25" width="838" height="703"/></clipPath></g><g class="gradients"/></defs><g class="bglayer"/><g class="layer-below"><g class="imagelayer"/><g class="shapelayer"/></g><g class="cartesianlayer"><g class="subplot xy"><g class="layer-subplot"><g class="shapelayer"/><g class="imagelayer"/></g><g class="gridlayer"><g class="x"><path class="xgrid crisp" transform="translate(94.09,0)" d="M0,25v703" style="stroke: rgb(238, 238, 238); stroke-opacity: 1; stroke-width: 1px;"/><path class="xgrid crisp" transform="translate(182.15,0)" d="M0,25v703" style="stroke: rgb(238, 238, 238); stroke-opacity: 1; stroke-width: 1px;"/><path class="xgrid crisp" transform="translate(267.37,0)" d="M0,25v703" style="stroke: rgb(238, 238, 238); stroke-opacity: 1; stroke-width: 1px;"/><path class="xgrid crisp" transform="translate(355.43,0)" d="M0,25v703" style="stroke: rgb(238, 238, 238); stroke-opacity: 1; stroke-width: 1px;"/><path class="xgrid crisp" transform="translate(440.65,0)" d="M0,25v703" style="stroke: rgb(238, 238, 238); stroke-opacity: 1; stroke-width: 1px;"/><path class="xgrid crisp" transform="translate(528.71,0)" d="M0,25v703" style="stroke: rgb(238, 238, 238); stroke-opacity: 1; stroke-width: 1px;"/><path class="xgrid crisp" transform="translate(616.77,0)" d="M0,25v703" style="stroke: rgb(238, 238, 238); stroke-opacity: 1; stroke-width: 1px;"/><path class="xgrid crisp" transform="translate(701.99,0)" d="M0,25v703" style="stroke: rgb(238, 238, 238); stroke-opacity: 1; stroke-width: 1px;"/><path class="xgrid crisp" transform="translate(790.05,0)" d="M0,25v703" style="stroke: rgb(238, 238, 238); stroke-opacity: 1; stroke-width: 1px;"/><path class="xgrid crisp" transform="translate(875.27,0)" d="M0,25v703" style="stroke: rgb(238, 238, 238); stroke-opacity: 1; stroke-width: 1px;"/></g><g class="y"><path class="ygrid crisp" transform="translate(0,533.0799999999999)" d="M60,0h838" style="stroke: rgb(238, 238, 238); stroke-opacity: 1; stroke-width: 1px;"/><path class="ygrid crisp" transform="translate(0,373.63)" d="M60,0h838" style="stroke: rgb(238, 238, 238); stroke-opacity: 1; stroke-width: 1px;"/><path class="ygrid crisp" transform="translate(0,214.18)" d="M60,0h838" style="stroke: rgb(238, 238, 238); stroke-opacity: 1; stroke-width: 1px;"/><path class="ygrid crisp" transform="translate(0,54.730000000000004)" d="M60,0h838" style="stroke: rgb(238, 238, 238); stroke-opacity: 1; stroke-width: 1px;"/></g></g><g class="zerolinelayer"><path class="yzl zl crisp" transform="translate(0,692.53)" d="M60,0h838" style="stroke: rgb(68, 68, 68); stroke-opacity: 1; stroke-width: 1px;"/></g><path class="xlines-below"/><path class="ylines-below"/><g class="overlines-below"/><g class="xaxislayer-below"/><g class="yaxislayer-below"/><g class="overaxes-below"/><g class="plot" transform="translate(60, 25)" clip-path="url('#clip9f2275xyplot')"><g class="scatterlayer mlayer"><g class="trace scatter trace093d65" style="stroke-miterlimit: 2; opacity: 1;"><g class="fills"/><g class="errorbars"/><g class="lines"><path class="js-line" d="M0,667.53L28.41,667.21L36.93,663.7L39.77,666.89L42.61,667.53L48.29,666.26L51.13,666.89L56.81,665.3L59.65,667.53L62.49,665.62L65.34,662.11L71.02,659.88L73.86,654.14L76.7,657.33L79.54,664.02L85.22,653.82L88.06,648.4L90.9,649.35L93.74,653.5L96.58,642.98L99.42,641.06L102.26,637.24L105.11,613.96L107.95,625.44L110.79,619.7L113.63,479.7L116.47,584.62L119.31,531.68L122.15,539.65L124.99,520.2L127.83,547.94L130.67,537.42L133.51,568.99L136.35,546.67L139.19,492.14L142.03,513.5L144.87,515.1L147.72,536.46L150.56,539.65L153.4,533.27L156.24,513.5L159.08,509.99L161.92,503.62L164.76,487.67L167.6,512.86L170.44,486.4L173.28,474.28L178.96,504.89L181.8,465.35L184.64,463.43L187.48,515.73L190.33,528.17L193.17,532.32L196.01,500.11L198.85,556.87L201.69,521.16L204.53,533.27L207.37,504.57L210.21,529.13L213.05,549.54L215.89,544.12L218.73,536.14L221.57,540.29L224.41,515.42L227.25,557.19L230.09,573.77L232.94,569.31L235.78,552.41L238.62,562.61L241.46,557.51L244.3,558.79L247.14,542.84L249.98,559.1L252.82,570.59L255.66,531.36L258.5,543.16L261.34,535.82L264.18,526.9L267.02,536.14L269.86,520.84L272.71,538.7L275.55,576.01L278.39,574.41L281.23,545.39L284.07,557.83L286.91,564.53L289.75,563.57L292.59,538.7L295.43,525.3L298.27,559.74L301.11,554L303.95,557.83L306.79,522.43L309.63,535.19L312.47,590.04L315.32,594.18L318.16,587.49L321,602.79L323.84,609.49L326.68,582.7L329.52,604.71L332.36,609.81L335.2,608.85L338.04,606.94L340.88,612.36L343.72,610.77L346.56,601.84L349.4,611.72L352.24,616.19L355.08,598.65L357.93,615.55L360.77,607.26L363.61,632.13L366.45,616.51L369.29,610.77L372.13,585.57L374.97,617.46L377.81,620.01L380.65,618.74L383.49,614.91L386.33,628.94L392.01,618.42L394.85,631.81L397.69,629.9L400.54,613.32L403.38,630.54L406.22,626.07L409.06,626.39L411.9,630.54L414.74,632.13L417.58,635L420.42,632.13L423.26,632.13L426.1,614.59L428.94,615.23L431.78,624.48L434.62,602.79L437.46,614.91L440.31,634.68L443.15,605.35L445.99,623.52L448.83,623.84L451.67,629.58L454.51,632.13L457.35,643.29L460.19,639.15L463.03,624.8L468.71,630.54L471.55,639.47L474.39,638.51L477.23,640.11L480.07,637.24L482.92,639.47L485.76,645.21L488.6,642.34L491.44,630.86L494.28,657.01L497.12,637.24L499.96,642.66L505.64,633.73L508.48,641.7L511.32,635.96L514.16,627.67L519.84,643.29L522.68,625.76L525.53,633.09L528.37,630.86L531.21,634.05L534.05,635.64L536.89,639.47L539.73,629.9L542.57,628.63L545.41,620.33L548.25,631.81L551.09,631.18L553.93,631.81L556.77,625.12L559.61,625.44L562.45,620.33L565.29,613.64L568.14,617.14L570.98,606.94L573.82,608.53L576.66,620.01L579.5,613.32L582.34,599.61L585.18,593.55L588.02,602.48L590.86,567.72L593.7,587.49L596.54,567.08L599.38,574.09L602.22,539.65L605.06,537.74L607.91,551.13L613.59,515.1L616.43,560.7L619.27,537.1L622.11,537.1L624.95,528.81L627.79,510.95L630.63,444.3L633.47,490.86L636.31,468.22L639.15,495.96L641.99,434.1L644.83,459.29L647.67,487.03L650.52,471.41L653.36,492.77L656.2,481.61L659.04,413.37L661.88,368.08L667.56,460.56L670.4,410.18L673.24,429.63L676.08,437.6L678.92,417.83L681.76,440.47L684.6,410.82L687.44,457.69L690.28,443.02L693.13,405.71L695.97,415.6L698.81,399.34L701.65,404.12L704.49,355.65L707.33,335.24L710.17,396.15L713.01,403.8L715.85,401.57L718.69,369.68L721.53,381.8L724.37,343.85L727.21,355.96L730.05,365.21L732.89,332.68L735.74,352.78L738.58,349.27L741.42,347.67L744.26,306.53L747.1,244.03L749.94,271.46L752.78,224.9L755.62,212.78L758.46,165.26L761.3,222.35L764.14,163.35L766.98,269.54L769.82,193.33L772.66,269.22L775.51,215.65L778.35,281.66L784.03,161.12L786.87,178.34L789.71,160.8L792.55,345.76L795.39,229.68L798.23,196.2L801.07,75.97L803.91,86.49L806.75,122.85L809.59,110.73L812.43,123.17L815.27,118.06L818.12,85.86L820.96,99.89L826.64,53.97L829.48,53.65L832.32,133.05L835.16,64.81L838,35.15" style="vector-effect: non-scaling-stroke; fill: none; stroke: rgb(31, 119, 180); stroke-opacity: 1; stroke-width: 2px; opacity: 1;"/></g><g class="points"/><g class="text"/></g><g class="trace scatter tracefce20e" style="stroke-miterlimit: 2; opacity: 1;"><g class="fills"/><g class="errorbars"/><g class="lines"><path class="js-line" d="M0,667.53L110.79,667.53L113.63,532.64L116.47,634.68L119.31,618.1L122.15,622.25L124.99,606.3L127.83,605.03L130.67,594.18L133.51,611.72L136.35,610.77L139.19,580.79L142.03,593.86L144.87,581.75L147.72,576.96L153.4,592.27L156.24,600.24L159.08,561.02L161.92,574.41L164.76,552.09L167.6,565.8L170.44,561.02L173.28,569.95L176.12,574.73L178.96,535.19L181.8,521.16L184.64,537.74L187.48,532.95L190.33,510.95L193.17,500.11L196.01,527.53L198.85,460.88L201.69,478.42L204.53,469.81L207.37,487.35L210.21,471.41L213.05,508.08L215.89,580.15L218.73,526.26L221.57,556.87L224.41,533.27L227.25,542.2L230.09,543.48L232.94,553.05L235.78,584.62L238.62,522.75L241.46,553.05L244.3,528.17L247.14,546.67L249.98,559.1L252.82,578.88L255.66,584.62L258.5,574.41L261.34,565.8L264.18,585.25L267.02,546.67L269.86,561.97L272.71,597.05L275.55,584.62L278.39,535.51L281.23,571.54L284.07,568.67L286.91,549.54L289.75,521.79L292.59,558.15L295.43,561.97L298.27,563.25L301.11,540.93L303.95,547.94L306.79,551.45L309.63,570.27L312.47,590.99L315.32,560.06L318.16,491.82L321,506.49L323.84,571.22L326.68,555.6L329.52,532.64L332.36,587.17L335.2,598.01L338.04,554.96L340.88,597.37L343.72,589.08L346.56,598.01L349.4,587.49L355.08,612.04L357.93,594.5L360.77,606.3L363.61,595.46L366.45,610.77L369.29,611.72L372.13,639.15L374.97,620.33L377.81,609.49L380.65,602.48L383.49,610.45L386.33,612.04L389.17,609.17L392.01,616.51L394.85,611.09L397.69,603.11L400.54,612.68L403.38,610.77L406.22,582.38L409.06,631.81L411.9,626.39L414.74,628.63L417.58,624.48L420.42,622.57L423.26,635.32L426.1,625.44L428.94,631.5L431.78,633.73L434.62,638.19L437.46,601.52L440.31,619.38L443.15,623.84L445.99,622.88L448.83,629.58L451.67,635L454.51,633.73L457.35,612.04L460.19,614.91L463.03,613.96L465.87,615.55L468.71,628.63L471.55,627.35L474.39,630.54L477.23,620.97L480.07,616.83L482.92,629.9L485.76,633.41L488.6,620.33L491.44,635L494.28,643.61L497.12,624.8L499.96,635.96L502.8,641.06L505.64,635.32L508.48,642.02L511.32,641.06L514.16,638.83L517,639.15L519.84,643.29L522.68,633.73L525.53,638.83L528.37,633.09L531.21,642.66L534.05,643.61L536.89,630.86L539.73,642.98L542.57,641.06L545.41,634.68L548.25,642.66L551.09,644.25L553.93,638.19L556.77,623.84L559.61,629.58L562.45,630.54L565.29,633.73L568.14,632.13L570.98,629.58L573.82,629.58L576.66,624.16L579.5,622.25L582.34,627.99L585.18,629.58L588.02,627.99L590.86,625.12L593.7,630.22L596.54,618.42L599.38,610.45L602.22,611.4L605.06,611.09L607.91,606.62L610.75,610.77L613.59,605.03L616.43,585.25L619.27,576.33L622.11,577.28L624.95,559.74L627.79,575.37L630.63,561.97L633.47,564.53L636.31,521.79L639.15,503.3L641.99,531.04L644.83,528.81L647.67,497.24L653.36,493.41L656.2,442.07L659.04,445.89L661.88,436.65L664.72,444.3L667.56,442.71L673.24,468.54L676.08,417.83L678.92,419.11L681.76,440.15L684.6,450.04L687.44,449.08L690.28,473.96L693.13,467.26L695.97,438.24L698.81,431.23L701.65,433.78L704.49,468.22L707.33,432.82L710.17,451L713.01,447.17L715.85,421.02L718.69,406.03L721.53,413.69L724.37,413.05L727.21,392L730.05,404.12L732.89,400.61L735.74,366.17L738.58,365.21L741.42,364.89L744.26,395.83L747.1,387.85L749.94,405.71L752.78,418.47L755.62,384.98L758.46,375.1L761.3,342.89L764.14,347.67L766.98,328.86L769.82,351.18L772.66,305.58L775.51,190.77L778.35,228.72L781.19,216.29L784.03,232.87L789.71,194.28L792.55,322.48L795.39,196.83L798.23,232.23L801.07,204.81L803.91,185.99L806.75,207.36L809.59,246.58L812.43,229.68L815.27,129.86L818.12,176.1L820.96,172.28L823.8,149.64L826.64,165.58L829.48,217.24L832.32,173.55L835.16,53.97L838,92.23" style="vector-effect: non-scaling-stroke; fill: none; stroke: rgb(255, 127, 14); stroke-opacity: 1; stroke-width: 2px; opacity: 1;"/></g><g class="points"/><g class="text"/></g><g class="trace scatter tracef13709" style="stroke-miterlimit: 2; opacity: 1;"><g class="fills"/><g class="errorbars"/><g class="lines"><path class="js-line" d="M0,667.53L99.42,666.89L102.26,665.94L105.11,666.89L107.95,666.57L110.79,667.21L113.63,666.26L116.47,664.34L119.31,666.26L122.15,662.43L124.99,663.07L127.83,658.92L130.67,659.56L133.51,663.39L136.35,660.83L139.19,660.83L142.03,659.24L144.87,660.52L147.72,657.65L150.56,660.83L153.4,662.11L156.24,653.82L159.08,651.27L161.92,655.41L164.76,649.99L167.6,656.05L170.44,655.09L173.28,657.65L176.12,655.41L178.96,655.73L181.8,650.31L187.48,652.22L190.33,659.88L193.17,649.35L196.01,648.72L198.85,653.18L201.69,640.11L204.53,655.09L207.37,649.99L210.21,654.78L213.05,640.74L215.89,648.08L218.73,645.85L221.57,652.22L224.41,647.44L227.25,648.72L230.09,656.37L232.94,656.37L235.78,649.67L238.62,654.78L241.46,657.01L244.3,658.92L247.14,657.01L249.98,660.2L252.82,660.2L255.66,662.75L258.5,653.82L261.34,657.65L264.18,658.6L269.86,659.56L272.71,658.28L275.55,660.83L278.39,657.33L281.23,656.69L284.07,654.46L286.91,662.11L289.75,661.47L292.59,664.34L295.43,662.11L298.27,661.47L301.11,653.18L303.95,662.75L306.79,656.37L309.63,661.47L312.47,659.88L315.32,663.07L318.16,664.02L323.84,664.02L326.68,664.66L329.52,663.7L332.36,664.98L338.04,663.7L340.88,666.57L343.72,664.02L346.56,657.65L349.4,664.02L352.24,666.57L355.08,664.34L357.93,663.7L360.77,664.34L363.61,666.57L366.45,664.98L369.29,665.62L374.97,665.3L377.81,666.26L383.49,666.89L386.33,665.94L392.01,667.53L394.85,666.89L397.69,664.66L400.54,666.57L403.38,665.3L406.22,665.62L409.06,666.57L411.9,666.57L414.74,667.21L417.58,664.66L420.42,665.94L423.26,664.66L426.1,666.89L428.94,666.57L434.62,667.21L437.46,666.89L440.31,667.53L443.15,666.57L445.99,667.21L448.83,666.26L451.67,667.21L454.51,666.26L457.35,667.21L460.19,666.57L468.71,667.21L471.55,667.53L474.39,666.26L477.23,667.53L488.6,666.89L491.44,667.53L511.32,667.53L514.16,666.26L517,667.85L519.84,667.21L522.68,666.57L525.53,667.21L531.21,667.21L534.05,666.89L539.73,667.21L542.57,665.62L545.41,667.53L548.25,667.21L565.29,667.53L568.14,666.89L573.82,667.53L576.66,667.53L579.5,667.21L582.34,667.85L588.02,667.21L590.86,667.21L593.7,666.26L596.54,666.89L599.38,666.57L602.22,667.53L616.43,666.57L619.27,667.21L630.63,667.21L633.47,666.26L639.15,666.57L641.99,643.29L647.67,665.3L650.52,665.94L653.36,665.3L656.2,667.21L661.88,665.94L664.72,665.3L667.56,667.21L670.4,666.57L673.24,664.66L676.08,667.53L681.76,664.66L684.6,664.34L687.44,665.94L690.28,666.26L693.13,666.57L695.97,664.66L701.65,664.66L704.49,665.62L710.17,665.62L713.01,666.26L715.85,665.94L718.69,664.34L730.05,665.3L732.89,663.07L735.74,662.43L738.58,663.39L741.42,663.07L744.26,664.02L747.1,663.39L749.94,663.7L752.78,662.75L755.62,662.75L761.3,661.47L764.14,661.15L766.98,658.28L769.82,664.34L772.66,663.7L775.51,657.33L778.35,658.6L781.19,664.98L784.03,660.83L786.87,663.07L789.71,661.47L792.55,663.07L795.39,656.37L798.23,660.83L801.07,661.15L803.91,658.28L806.75,659.88L809.59,664.98L812.43,665.3L815.27,656.37L818.12,663.07L820.96,659.56L826.64,662.75L829.48,659.24L832.32,664.34L835.16,658.6L838,656.37" style="vector-effect: non-scaling-stroke; fill: none; stroke: rgb(44, 160, 44); stroke-opacity: 1; stroke-width: 2px; opacity: 1;"/></g><g class="points"/><g class="text"/></g></g></g><g class="overplot"/><path class="xlines-above crisp" style="fill: none;" d="M0,0"/><path class="ylines-above crisp" style="fill: none;" d="M0,0"/><g class="overlines-above"/><g class="xaxislayer-above"><g class="xtick"><text text-anchor="middle" x="0" y="741" transform="translate(94.09,0)" style="font-family: 'Open Sans', verdana, arial, sans-serif; font-size: 12px; fill: rgb(68, 68, 68); fill-opacity: 1; white-space: pre;">Mar 2020</text></g><g class="xtick"><text text-anchor="middle" x="0" y="741" transform="translate(182.15,0)" style="font-family: 'Open Sans', verdana, arial, sans-serif; font-size: 12px; fill: rgb(68, 68, 68); fill-opacity: 1; white-space: pre;">Apr 2020</text></g><g class="xtick"><text text-anchor="middle" x="0" y="741" transform="translate(267.37,0)" style="font-family: 'Open Sans', verdana, arial, sans-serif; font-size: 12px; fill: rgb(68, 68, 68); fill-opacity: 1; white-space: pre;">May 2020</text></g><g class="xtick"><text text-anchor="middle" x="0" y="741" transform="translate(355.43,0)" style="font-family: 'Open Sans', verdana, arial, sans-serif; font-size: 12px; fill: rgb(68, 68, 68); fill-opacity: 1; white-space: pre;">Jun 2020</text></g><g class="xtick"><text text-anchor="middle" x="0" y="741" transform="translate(440.65,0)" style="font-family: 'Open Sans', verdana, arial, sans-serif; font-size: 12px; fill: rgb(68, 68, 68); fill-opacity: 1; white-space: pre;">Jul 2020</text></g><g class="xtick"><text text-anchor="middle" x="0" y="741" transform="translate(528.71,0)" style="font-family: 'Open Sans', verdana, arial, sans-serif; font-size: 12px; fill: rgb(68, 68, 68); fill-opacity: 1; white-space: pre;">Aug 2020</text></g><g class="xtick"><text text-anchor="middle" x="0" y="741" transform="translate(616.77,0)" style="font-family: 'Open Sans', verdana, arial, sans-serif; font-size: 12px; fill: rgb(68, 68, 68); fill-opacity: 1; white-space: pre;">Sep 2020</text></g><g class="xtick"><text text-anchor="middle" x="0" y="741" transform="translate(701.99,0)" style="font-family: 'Open Sans', verdana, arial, sans-serif; font-size: 12px; fill: rgb(68, 68, 68); fill-opacity: 1; white-space: pre;">Oct 2020</text></g><g class="xtick"><text text-anchor="middle" x="0" y="741" transform="translate(790.05,0)" style="font-family: 'Open Sans', verdana, arial, sans-serif; font-size: 12px; fill: rgb(68, 68, 68); fill-opacity: 1; white-space: pre;">Nov 2020</text></g><g class="xtick"><text text-anchor="middle" x="0" y="741" transform="translate(875.27,0)" style="font-family: 'Open Sans', verdana, arial, sans-serif; font-size: 12px; fill: rgb(68, 68, 68); fill-opacity: 1; white-space: pre;">Dec 2020</text></g></g><g class="yaxislayer-above"><g class="ytick"><text text-anchor="end" x="59" y="4.199999999999999" transform="translate(0,692.53)" style="font-family: 'Open Sans', verdana, arial, sans-serif; font-size: 12px; fill: rgb(68, 68, 68); fill-opacity: 1; white-space: pre;">0</text></g><g class="ytick"><text text-anchor="end" x="59" y="4.199999999999999" transform="translate(0,533.0799999999999)" style="font-family: 'Open Sans', verdana, arial, sans-serif; font-size: 12px; fill: rgb(68, 68, 68); fill-opacity: 1; white-space: pre;">500</text></g><g class="ytick"><text text-anchor="end" x="59" y="4.199999999999999" transform="translate(0,373.63)" style="font-family: 'Open Sans', verdana, arial, sans-serif; font-size: 12px; fill: rgb(68, 68, 68); fill-opacity: 1; white-space: pre;">1000</text></g><g class="ytick"><text text-anchor="end" x="59" y="4.199999999999999" transform="translate(0,214.18)" style="font-family: 'Open Sans', verdana, arial, sans-serif; font-size: 12px; fill: rgb(68, 68, 68); fill-opacity: 1; white-space: pre;">1500</text></g><g class="ytick"><text text-anchor="end" x="59" y="4.199999999999999" transform="translate(0,54.730000000000004)" style="font-family: 'Open Sans', verdana, arial, sans-serif; font-size: 12px; fill: rgb(68, 68, 68); fill-opacity: 1; white-space: pre;">2000</text></g></g><g class="overaxes-above"/></g></g><g class="polarlayer"/><g class="ternarylayer"/><g class="geolayer"/><g class="funnelarealayer"/><g class="pielayer"/><g class="treemaplayer"/><g class="sunburstlayer"/><g class="glimages"/><defs id="topdefs-9f2275"><g class="clips"/><clipPath id="legend9f2275"><rect width="102" height="67" x="0" y="0"/></clipPath></defs><g class="layer-above"><g class="imagelayer"/><g class="shapelayer"/></g><g class="infolayer"><g class="legend" pointer-events="all" transform="translate(914.76, 25)"><rect class="bg" shape-rendering="crispEdges" style="stroke: rgb(68, 68, 68); stroke-opacity: 1; fill: rgb(255, 255, 255); fill-opacity: 1; stroke-width: 0px;" width="102" height="67" x="0" y="0"/><g class="scrollbox" transform="translate(0, 0)" clip-path="url('#legend9f2275')"><g class="groups"><g class="traces" style="opacity: 1;" transform="translate(0, 14.5)"><text class="legendtext user-select-none" text-anchor="start" x="40" y="4.680000000000001" style="font-family: 'Open Sans', verdana, arial, sans-serif; font-size: 12px; fill: rgb(68, 68, 68); fill-opacity: 1; white-space: pre;">positive</text><g class="layers" style="opacity: 1;"><g class="legendfill"/><g class="legendlines"><path class="js-line" d="M5,0h30" style="fill: none; stroke: rgb(31, 119, 180); stroke-opacity: 1; stroke-width: 2px;"/></g><g class="legendsymbols"><g class="legendpoints"/></g></g><rect class="legendtoggle" pointer-events="all" x="0" y="-9.5" width="96.109375" height="19" style="cursor: pointer; fill: rgb(0, 0, 0); fill-opacity: 0;"/></g><g class="traces" style="opacity: 1;" transform="translate(0, 33.5)"><text class="legendtext user-select-none" text-anchor="start" x="40" y="4.680000000000001" style="font-family: 'Open Sans', verdana, arial, sans-serif; font-size: 12px; fill: rgb(68, 68, 68); fill-opacity: 1; white-space: pre;">resolved</text><g class="layers" style="opacity: 1;"><g class="legendfill"/><g class="legendlines"><path class="js-line" d="M5,0h30" style="fill: none; stroke: rgb(255, 127, 14); stroke-opacity: 1; stroke-width: 2px;"/></g><g class="legendsymbols"><g class="legendpoints"/></g></g><rect class="legendtoggle" pointer-events="all" x="0" y="-9.5" width="96.109375" height="19" style="cursor: pointer; fill: rgb(0, 0, 0); fill-opacity: 0;"/></g><g class="traces" style="opacity: 1;" transform="translate(0, 52.5)"><text class="legendtext user-select-none" text-anchor="start" x="40" y="4.680000000000001" style="font-family: 'Open Sans', verdana, arial, sans-serif; font-size: 12px; fill: rgb(68, 68, 68); fill-opacity: 1; white-space: pre;">deceased</text><g class="layers" style="opacity: 1;"><g class="legendfill"/><g class="legendlines"><path class="js-line" d="M5,0h30" style="fill: none; stroke: rgb(44, 160, 44); stroke-opacity: 1; stroke-width: 2px;"/></g><g class="legendsymbols"><g class="legendpoints"/></g></g><rect class="legendtoggle" pointer-events="all" x="0" y="-9.5" width="96.109375" height="19" style="cursor: pointer; fill: rgb(0, 0, 0); fill-opacity: 0;"/></g></g></g><rect class="scrollbar" rx="20" ry="3" width="0" height="0" style="fill: rgb(128, 139, 164); fill-opacity: 1;" x="0" y="0"/></g><g class="g-gtitle"><text class="gtitle" x="513.5" y="12.5" text-anchor="middle" dy="0em" style="font-family: 'Open Sans', verdana, arial, sans-serif; font-size: 17px; fill: rgb(68, 68, 68); opacity: 1; font-weight: normal; white-space: pre;">Dynamics of new cases, resolved cases and deaths in Ontario (Dec 10, 2020)</text></g><g class="g-xtitle" transform="translate(0,-15)"><text class="xtitle" x="479" y="780" text-anchor="middle" style="font-family: 'Open Sans', verdana, arial, sans-serif; font-size: 14px; fill: rgb(68, 68, 68); opacity: 1; font-weight: normal; white-space: pre;">Date</text></g><g class="g-ytitle"><text class="ytitle" transform="rotate(-90,22,376.5)" x="22" y="376.5" text-anchor="middle" style="font-family: 'Open Sans', verdana, arial, sans-serif; font-size: 14px; fill: rgb(68, 68, 68); opacity: 1; font-weight: normal; white-space: pre;">Number of cases</text></g></g></svg>