<svg class="main-svg" xmlns="http://www.w3.org/2000/svg" xmlns:xlink="http://www.w3.org/1999/xlink" width="1027" height="768" style="" viewBox="0 0 1027 768"><rect x="0" y="0" width="1027" height="768" style="fill: rgb(255, 255, 255); fill-opacity: 1;"/><defs id="defs-1be792"><g class="clips"><clipPath id="clip1be792xyplot" class="plotclip"><rect width="838" height="703"/></clipPath><clipPath class="axesclip" id="clip1be792x"><rect x="60" y="0" width="838" height="768"/></clipPath><clipPath class="axesclip" id="clip1be792y"><rect x="0" y="25" width="1027" height="703"/></clipPath><clipPath class="axesclip" id="clip1be792xy"><rect x="60" y="25" width="838" height="703"/></clipPath></g><g class="gradients"/></defs><g class="bglayer"/><g class="layer-below"><g class="imagelayer"/><g class="shapelayer"/></g><g class="cartesianlayer"><g class="subplot xy"><g class="layer-subplot"><g class="shapelayer"/><g class="imagelayer"/></g><g class="gridlayer"><g class="x"><path class="xgrid crisp" transform="translate(80.03,0)" d="M0,25v703" style="stroke: rgb(238, 238, 238); stroke-opacity: 1; stroke-width: 1px;"/><path class="xgrid crisp" transform="translate(181.86,0)" d="M0,25v703" style="stroke: rgb(238, 238, 238); stroke-opacity: 1; stroke-width: 1px;"/><path class="xgrid crisp" transform="translate(283.69,0)" d="M0,25v703" style="stroke: rgb(238, 238, 238); stroke-opacity: 1; stroke-width: 1px;"/><path class="xgrid crisp" transform="translate(387.19,0)" d="M0,25v703" style="stroke: rgb(238, 238, 238); stroke-opacity: 1; stroke-width: 1px;"/><path class="xgrid crisp" transform="translate(489.02,0)" d="M0,25v703" style="stroke: rgb(238, 238, 238); stroke-opacity: 1; stroke-width: 1px;"/><path class="xgrid crisp" transform="translate(590.84,0)" d="M0,25v703" style="stroke: rgb(238, 238, 238); stroke-opacity: 1; stroke-width: 1px;"/><path class="xgrid crisp" transform="translate(689.33,0)" d="M0,25v703" style="stroke: rgb(238, 238, 238); stroke-opacity: 1; stroke-width: 1px;"/><path class="xgrid crisp" transform="translate(791.16,0)" d="M0,25v703" style="stroke: rgb(238, 238, 238); stroke-opacity: 1; stroke-width: 1px;"/><path class="xgrid crisp" transform="translate(892.99,0)" d="M0,25v703" style="stroke: rgb(238, 238, 238); stroke-opacity: 1; stroke-width: 1px;"/></g><g class="y"><path class="ygrid crisp" transform="translate(0,561.26)" d="M60,0h838" style="stroke: rgb(238, 238, 238); stroke-opacity: 1; stroke-width: 1px;"/><path class="ygrid crisp" transform="translate(0,429.81)" d="M60,0h838" style="stroke: rgb(238, 238, 238); stroke-opacity: 1; stroke-width: 1px;"/><path class="ygrid crisp" transform="translate(0,298.35)" d="M60,0h838" style="stroke: rgb(238, 238, 238); stroke-opacity: 1; stroke-width: 1px;"/><path class="ygrid crisp" transform="translate(0,166.89)" d="M60,0h838" style="stroke: rgb(238, 238, 238); stroke-opacity: 1; stroke-width: 1px;"/><path class="ygrid crisp" transform="translate(0,35.44)" d="M60,0h838" style="stroke: rgb(238, 238, 238); stroke-opacity: 1; stroke-width: 1px;"/></g></g><g class="zerolinelayer"><path class="yzl zl crisp" transform="translate(0,692.72)" d="M60,0h838" style="stroke: rgb(68, 68, 68); stroke-opacity: 1; stroke-width: 1px;"/></g><path class="xlines-below"/><path class="ylines-below"/><g class="overlines-below"/><g class="xaxislayer-below"/><g class="yaxislayer-below"/><g class="overaxes-below"/><g class="plot" transform="translate(60, 25)" clip-path="url('#clip1be792xyplot')"><g class="scatterlayer mlayer"><g class="trace scatter trace9b671c" style="stroke-miterlimit: 2; opacity: 1;"><g class="fills"/><g class="errorbars"/><g class="lines"><path class="js-line" d="M0,667.72L16.69,667.59L21.7,666.14L23.37,667.46L25.04,667.72L33.39,666.8L35.06,667.72L41.73,664.56L43.4,662.2L45.07,663.51L46.74,666.27L51.75,659.83L53.42,660.23L55.09,661.93L56.76,657.6L60.1,655.23L61.76,645.63L63.43,650.37L65.1,648L66.77,590.29L68.44,633.54L70.11,611.72L71.78,615L73.45,606.99L75.12,618.42L76.79,614.08L78.46,627.1L80.13,617.9L81.8,595.42L83.47,604.23L85.14,604.88L86.8,613.69L88.47,615L90.14,612.38L91.81,604.23L93.48,602.78L95.15,600.15L96.82,593.58L98.49,603.96L100.16,593.05L101.83,588.06L105.17,600.68L106.84,584.38L108.51,583.59L110.18,605.15L111.84,610.27L113.51,611.98L115.18,598.7L116.85,622.1L118.52,607.38L120.19,612.38L121.86,600.54L123.53,610.67L125.2,619.08L126.87,616.84L128.54,613.56L130.21,615.27L131.88,605.01L133.55,622.23L135.22,629.07L136.88,627.23L138.55,620.26L140.22,624.47L141.89,622.37L143.56,622.89L145.23,616.32L146.9,623.02L148.57,627.76L150.24,611.59L151.91,616.45L153.58,613.43L155.25,609.75L156.92,613.56L158.59,607.25L160.25,614.61L161.92,629.99L163.59,629.33L165.26,617.37L166.93,622.5L168.6,625.26L170.27,624.86L171.94,614.61L173.61,609.09L175.28,623.29L176.95,620.92L178.62,622.5L180.29,607.91L181.96,613.16L183.63,635.77L185.29,637.48L186.96,634.72L188.63,641.03L190.3,643.79L191.97,632.75L193.64,641.82L195.31,643.92L196.98,643.53L198.65,642.74L200.32,644.98L201.99,644.32L203.66,640.64L205.33,644.71L207,646.55L208.67,639.32L210.33,646.29L212,642.87L213.67,653.13L215.34,646.69L217.01,644.32L218.68,633.93L220.35,647.08L222.02,648.13L223.69,647.61L225.36,646.03L227.03,651.81L230.37,647.47L232.04,653L233.71,652.21L235.37,645.37L237.04,652.47L238.71,650.63L240.38,650.76L242.05,652.47L245.39,654.31L247.06,653.13L248.73,653.13L250.4,645.9L252.07,646.16L253.74,649.97L255.41,641.03L257.08,646.03L258.75,654.18L260.41,642.08L262.08,649.58L263.75,649.71L265.42,652.08L267.09,653.13L268.76,657.73L270.43,656.02L272.1,650.1L273.77,651.42L275.44,652.47L277.11,656.15L278.78,655.76L280.45,656.41L282.12,655.23L283.78,656.15L285.45,658.52L287.12,657.33L288.79,652.6L290.46,663.38L292.13,655.23L293.8,657.46L297.14,653.78L298.81,657.07L302.15,651.29L303.82,654.31L305.49,657.73L307.16,650.5L308.82,653.52L310.49,652.6L315.5,656.15L317.17,652.21L318.84,651.68L320.51,648.26L322.18,653L323.85,652.73L325.52,653L327.19,650.23L328.86,650.37L330.53,648.26L332.2,645.5L333.86,646.95L335.53,642.74L337.2,643.4L338.87,648.13L340.54,645.37L342.21,639.72L343.88,637.22L345.55,640.9L347.22,626.57L348.89,634.72L350.56,626.31L352.23,629.2L353.9,615L355.57,614.22L357.24,619.74L360.57,604.88L362.24,623.68L363.91,613.95L365.58,613.95L367.25,610.53L368.92,603.17L370.59,575.7L372.26,594.89L373.93,585.56L375.6,596.99L377.27,571.49L378.94,581.88L380.61,593.31L382.27,586.87L383.94,595.68L385.61,591.08L388.95,544.28L390.62,561.37L392.29,582.4L393.96,561.63L395.63,569.65L397.3,572.94L398.97,564.79L400.64,574.12L402.31,561.9L403.98,581.22L405.65,575.17L407.31,559.79L408.98,563.87L410.65,557.16L412.32,559.14L413.99,539.15L415.66,530.74L417.33,555.85L419,559L420.67,558.08L422.34,544.94L424.01,549.93L425.68,534.29L427.35,539.29L429.02,543.1L430.69,529.69L432.35,537.97L434.02,536.52L435.69,535.87L437.36,518.91L439.03,493.14L440.7,504.45L442.37,485.26L444.04,480.26L445.71,460.67L447.38,484.21L449.05,459.89L450.72,503.66L452.39,472.24L454.06,503.53L455.73,481.44L457.39,508.66L460.73,458.97L462.4,466.06L464.07,458.83L465.74,535.08L467.41,487.23L469.08,473.43L470.75,423.87L472.42,428.2L474.09,443.19L475.76,438.2L477.43,443.32L479.1,441.22L480.76,427.94L482.43,433.73L485.77,414.8L487.44,414.66L489.11,447.4L490.78,419.27L492.45,407.04L494.12,424.79L495.79,421.5L497.46,447.27L500.8,368.66L502.47,386.53L504.14,348.02L505.8,366.68L507.47,357.88L509.14,363.27L510.81,388.64L512.48,378.25L514.15,351.17L515.82,346.04L517.49,383.9L519.16,386.14L520.83,404.15L522.5,412.82L525.84,283.47L527.51,230.23L529.18,342.23L530.84,225.63L532.51,278.08L534.18,237.86L535.85,256.52L537.52,238.38L539.19,205.12L540.86,109.16L542.53,215.11L544.2,149.12L547.54,286.1L549.21,278.48L550.88,230.49L552.55,273.61L554.22,265.99L555.88,217.87L559.22,416.24L560.89,318.7L562.56,321.73L564.23,317.78L565.9,357.61L567.57,349.99L569.24,410.33L570.91,438.98L572.58,448.19L574.25,392.58L575.92,426.23L577.59,396.52L579.25,424.79L580.92,408.88L582.59,569.78L584.26,513.65L585.93,462.25L587.6,448.19L589.27,485.26L590.94,471.98L594.28,533.37L595.95,526.8L597.62,543.49L599.29,526.27L600.96,496.83L602.63,538.76L604.29,540.99L605.96,548.88L607.63,556.37L609.3,531.27L612.64,506.29L614.31,524.83L615.98,528.64L617.65,539.55L620.99,518.12L622.66,502.35L624.33,511.94L626,528.11L629.33,540.73L631,541.78L632.67,537.05L634.34,503.4L636.01,537.58L637.68,496.96L639.35,453.31L641.02,511.94L642.69,494.72L644.36,524.17L646.03,487.49L647.7,474.74L649.37,438.06L651.04,501.03L652.71,526.53L654.37,469.48L656.04,463.57L657.71,438.33L659.38,427.28L661.05,432.28L662.72,444.37L664.39,464.49L666.06,461.2L667.73,354.85L669.4,382.59L671.07,345.26L672.74,345.91L674.41,392.45L676.08,360.64L677.75,361.03L679.41,331.58L681.08,261.65L682.75,272.17L684.42,267.96L686.09,281.5L687.76,264.8L689.43,245.09L691.1,234.57L692.77,112.05L694.44,166.48L696.11,81.95L697.78,89.18L699.45,185.27L701.12,121.39L702.78,45.14L704.45,35.15L706.12,94.31L707.79,109.03L709.46,83.13L711.13,211.7L712.8,114.02L714.47,183.7L716.14,75.51L717.81,129.54L719.48,148.86L721.15,206.31L722.82,238.51L724.49,210.25L726.16,158.85L727.82,156.75L729.49,224.84L731.16,177.12L732.83,216.03L734.5,300.82L736.17,281.11L737.84,217.61L741.18,291.23L742.85,244.95L746.19,395.21L747.86,362.74L749.53,305.03L751.2,357.22L752.86,328.04L754.53,378.65L756.2,382.46L757.87,455.28L759.54,458.97L761.21,352.22L762.88,419.27L764.55,431.89L766.22,445.43L767.89,477.63L769.56,531.14L771.23,523.77L772.9,518.52L774.57,500.37L776.24,528.77L777.9,531.92L779.57,547.3L781.24,575.83L782.91,571.36L784.58,553.35L786.25,547.57L787.92,569.91L789.59,580.56L791.26,598.7L794.6,613.69L796.27,590.16L797.94,592.26L799.61,601.73L801.27,598.05L802.94,608.96L804.61,628.81L806.28,617.24L807.95,619.08L809.62,622.37L811.29,621.05L812.96,625.92L814.63,632.23L816.3,628.81L817.97,634.2L819.64,628.81L821.31,634.07L822.98,622.23L826.31,640.11L827.98,628.41L829.65,643.53L831.32,630.38L832.99,641.43L834.66,640.24L836.33,639.72L838,645.37" style="vector-effect: non-scaling-stroke; fill: none; stroke: rgb(31, 119, 180); stroke-opacity: 1; stroke-width: 2px; opacity: 1;"/></g><g class="points"/><g class="text"/></g><g class="trace scatter trace061640" style="stroke-miterlimit: 2; opacity: 1;"><g class="fills"/><g class="errorbars"/><g class="lines"><path class="js-line" d="M0,667.72L65.1,667.72L66.77,612.11L68.44,654.18L70.11,647.34L71.78,649.05L73.45,642.48L75.12,641.95L76.79,637.48L78.46,644.71L80.13,644.32L81.8,631.96L83.47,637.35L85.14,632.36L86.8,630.38L91.81,639.98L93.48,623.81L95.15,629.33L96.82,620.13L98.49,625.78L100.16,623.81L103.5,629.46L105.17,613.16L106.84,607.38L108.51,614.22L110.18,612.24L111.84,603.17L113.51,598.7L115.18,610.01L116.85,582.53L118.52,589.76L120.19,586.22L121.86,593.45L123.53,586.87L125.2,601.99L126.87,631.7L128.54,609.48L130.21,622.1L131.88,612.38L133.55,616.06L135.22,616.58L136.88,620.53L138.55,633.54L140.22,608.04L141.89,620.53L143.56,610.27L145.23,617.9L146.9,623.02L148.57,631.17L150.24,633.54L151.91,629.33L153.58,625.78L155.25,633.8L156.92,617.9L158.59,624.21L160.25,638.67L161.92,633.54L163.59,613.3L165.26,628.15L166.93,626.97L168.6,619.08L170.27,607.64L171.94,622.63L173.61,624.21L175.28,624.73L176.95,615.53L178.62,618.42L180.29,619.87L181.96,627.62L183.63,636.17L185.29,623.42L186.96,595.29L188.63,601.33L190.3,628.02L191.97,621.58L193.64,612.11L195.31,634.59L196.98,639.06L198.65,621.31L200.32,638.8L201.99,635.38L203.66,639.06L205.33,634.72L208.67,644.85L210.33,637.62L212,642.48L213.67,638.01L215.34,644.32L217.01,644.71L218.68,656.02L220.35,648.26L223.69,640.9L225.36,644.19L227.03,644.85L228.7,643.66L230.37,646.69L232.04,644.45L233.71,641.16L235.37,645.11L237.04,644.32L238.71,632.62L240.38,653L242.05,650.76L243.72,651.68L245.39,649.97L247.06,649.18L248.73,654.44L250.4,650.37L252.07,652.86L253.74,653.78L255.41,655.62L257.08,640.51L258.75,647.87L260.41,649.71L262.08,649.31L265.42,654.31L267.09,653.78L268.76,644.85L270.43,646.03L272.1,645.63L273.77,646.29L275.44,651.68L277.11,651.16L278.78,652.47L280.45,648.53L282.12,646.82L283.78,652.21L285.45,653.65L287.12,648.26L290.46,657.86L292.13,650.1L293.8,654.7L295.47,656.81L297.14,654.44L298.81,657.2L303.82,656.02L305.49,657.73L307.16,653.78L308.82,655.89L310.49,653.52L312.16,657.46L313.83,657.86L315.5,652.6L317.17,657.6L318.84,656.81L320.51,654.18L322.18,657.46L323.85,658.12L325.52,655.62L327.19,649.71L328.86,652.08L330.53,652.47L332.2,653.78L337.2,652.08L338.87,649.84L340.54,649.05L342.21,651.42L343.88,652.08L345.55,651.42L347.22,650.23L348.89,652.34L352.23,644.19L353.9,644.58L355.57,644.45L357.24,642.61L358.9,644.32L360.57,641.95L362.24,633.8L363.91,630.12L365.58,630.52L367.25,623.29L368.92,629.73L370.59,624.21L372.26,625.26L373.93,607.64L375.6,600.02L377.27,611.46L378.94,610.53L380.61,597.52L383.94,595.94L385.61,574.78L387.28,576.36L388.95,572.54L390.62,575.7L392.29,575.04L395.63,585.69L397.3,564.79L398.97,565.31L400.64,573.99L402.31,578.07L403.98,577.67L405.65,587.92L407.31,585.16L408.98,573.2L410.65,570.31L412.32,571.36L413.99,585.56L415.66,570.97L417.33,578.46L419,576.88L420.67,566.1L422.34,559.92L424.01,563.08L425.68,562.82L427.35,554.14L429.02,559.14L430.69,557.69L432.35,543.49L434.02,543.1L435.69,542.97L437.36,555.72L439.03,552.43L440.7,559.79L442.37,565.05L444.04,551.25L445.71,547.17L447.38,533.9L449.05,535.87L450.72,528.11L452.39,537.31L454.06,518.52L455.73,471.19L457.39,486.83L459.06,481.71L460.73,488.54L464.07,472.64L465.74,525.48L467.41,473.69L469.08,488.28L472.42,469.22L474.09,478.03L475.76,494.2L477.43,487.23L479.1,446.08L480.76,465.14L482.43,463.57L484.1,454.23L485.77,460.81L487.44,482.1L489.11,464.09L490.78,414.8L492.45,430.57L494.12,437.28L495.79,415.59L497.46,447.13L499.13,465.93L500.8,429.78L502.47,399.15L504.14,403.62L505.8,405.86L507.47,422.55L509.14,413.88L510.81,450.29L514.15,372.86L515.82,403.1L517.49,373.65L519.16,416.24L520.83,404.15L522.5,384.96L524.17,374.18L525.84,373.65L527.51,376.81L529.18,344.34L530.84,397.71L532.51,381.8L535.85,402.83L537.52,272.69L539.19,302.8L540.86,307.79L542.53,284.52L544.2,339.6L545.87,305.42L547.54,226.94L549.21,221.82L550.88,195.4L554.22,245.48L555.88,263.1L557.55,296.22L559.22,290.04L560.89,179.49L562.56,274.66L564.23,224.05L565.9,270.06L570.91,370.5L572.58,309.5L574.25,340.26L575.92,286.49L580.92,387.45L582.59,365.76L584.26,438.33L585.93,410.59L587.6,374.18L589.27,431.62L590.94,413.09L592.61,444.24L594.28,485.26L595.95,443.06L597.62,491.04L599.29,481.71L600.96,479.21L602.63,505.37L605.96,521.54L607.63,476.32L609.3,499.85L610.97,502.74L612.64,495.12L614.31,517.86L617.65,536L619.32,498.01L620.99,523.91L622.66,535.34L624.33,538.37L626,532.45L627.67,544.28L629.33,539.02L631,524.43L632.67,526.8L634.34,515.36L636.01,516.28L637.68,522.46L639.35,537.05L641.02,539.94L642.69,508.39L644.36,521.8L646.03,519.96L649.37,514.31L651.04,521.28L652.71,525.09L654.37,472.11L656.04,505.24L657.71,497.35L659.38,501.95L661.05,489.86L662.72,513.26L664.39,500.64L666.06,466.46L667.73,493.01L669.4,447.53L671.07,473.03L672.74,464.88L674.41,467.38L676.08,473.56L677.75,408.35L679.41,429.26L681.08,414.66L682.75,428.6L684.42,418.08L686.09,436.22L687.76,407.96L689.43,351.3L691.1,329.09L692.77,320.54L694.44,349.33L696.11,323.7L697.78,346.31L699.45,329.48L701.12,252.32L702.78,250.48L704.45,253.5L706.12,193.03L707.79,228.92L709.46,253.24L711.13,224.84L712.8,115.08L714.47,63.41L716.14,50.14L717.81,98.25L719.48,110.47L721.15,134.4L722.82,153.99L724.49,73.93L726.16,109.69L727.82,110.08L729.49,146.63L731.16,148.86L734.5,230.89L736.17,94.44L737.84,142.29L739.51,158.32L741.18,195L742.85,187.51L744.52,258.89L746.19,286.76L747.86,210.64L749.53,213.54L751.2,207.36L752.86,265.07L754.53,262.96L756.2,279.53L757.87,338.81L759.54,257.71L761.21,304.5L762.88,314.23L764.55,336.45L766.22,344.6L767.89,395.34L769.56,402.44L771.23,356.04L772.9,365.11L774.57,357.22L776.24,397.31L777.9,396L779.57,443.32L781.24,461.59L782.91,439.9L787.92,504.45L789.59,507.08L791.26,544.02L792.93,534.95L794.6,545.2L796.27,544.28L797.94,555.98L799.61,558.61L802.94,579.64L804.61,582.93L806.28,572.81L807.95,584.24L809.62,585.69L811.29,591.34L812.96,601.46L814.63,603.83L816.3,609.61L817.97,607.25L821.31,629.2L822.98,601.6L824.65,617.9L826.31,624.86L827.98,618.95L829.65,625.39L831.32,633.93L832.99,630.78L834.66,633.28L836.33,630.12L838,637.09" style="vector-effect: non-scaling-stroke; fill: none; stroke: rgb(255, 127, 14); stroke-opacity: 1; stroke-width: 2px; opacity: 1;"/></g><g class="points"/><g class="text"/></g><g class="trace scatter trace806eb4" style="stroke-miterlimit: 2; opacity: 1;"><g class="fills"/><g class="errorbars"/><g class="lines"><path class="js-line" d="M0,667.72L66.77,667.19L68.44,666.4L70.11,667.19L71.78,665.62L73.45,665.88L75.12,664.17L76.79,664.43L78.46,666.01L80.13,664.96L81.8,664.96L83.47,664.3L85.14,664.83L86.8,663.64L88.47,664.96L90.14,665.48L91.81,662.07L93.48,661.01L95.15,662.72L96.82,660.49L98.49,662.99L100.16,662.59L101.83,663.64L103.5,662.72L105.17,662.85L106.84,660.62L108.51,661.15L110.18,661.41L111.84,664.56L113.51,660.23L115.18,659.96L116.85,661.8L118.52,656.41L120.19,662.59L121.86,660.49L123.53,662.46L125.2,656.68L126.87,659.7L128.54,658.78L130.21,661.41L131.88,659.44L133.55,659.96L135.22,663.12L136.88,663.12L138.55,660.36L141.89,663.38L143.56,664.17L145.23,663.38L146.9,664.7L148.57,664.7L150.24,665.75L151.91,662.07L153.58,663.64L158.59,664.43L160.25,663.91L161.92,664.96L163.59,663.51L166.93,662.33L168.6,665.48L170.27,665.22L171.94,666.4L175.28,665.22L176.95,661.8L178.62,665.75L180.29,663.12L181.96,665.22L183.63,664.56L186.96,666.27L188.63,666.14L196.98,666.27L198.65,666.14L200.32,667.32L201.99,666.27L203.66,663.64L205.33,666.27L207,667.32L208.67,666.4L212,666.4L213.67,667.32L215.34,666.67L217.01,666.93L222.02,667.19L223.69,667.19L230.37,667.72L232.04,667.46L233.71,666.54L235.37,667.32L238.71,666.93L240.38,667.32L243.72,667.59L245.39,666.54L247.06,667.06L248.73,666.54L250.4,667.46L252.07,667.32L258.75,667.72L260.41,667.32L265.42,667.59L267.09,667.19L270.43,667.32L272.1,667.32L283.78,667.72L285.45,667.59L292.13,667.59L293.8,667.72L302.15,667.19L303.82,667.85L308.82,667.59L310.49,667.72L318.84,666.93L320.51,667.72L328.86,667.72L330.53,667.85L340.54,667.59L342.21,667.85L348.89,667.19L350.56,667.46L360.57,667.32L362.24,667.32L367.25,667.72L368.92,667.46L375.6,667.32L377.27,657.73L380.61,666.8L382.27,667.06L383.94,666.8L385.61,667.59L390.62,666.8L392.29,667.59L395.63,666.54L397.3,667.72L402.31,666.4L403.98,667.06L407.31,667.32L408.98,666.54L420.67,667.06L422.34,666.4L429.02,666.8L430.69,665.88L434.02,666.01L435.69,665.88L439.03,666.01L440.7,666.14L447.38,665.22L449.05,665.09L450.72,663.91L452.39,666.4L454.06,666.14L455.73,663.51L457.39,664.04L459.06,666.67L460.73,664.96L462.4,665.88L464.07,665.22L465.74,665.88L467.41,663.12L469.08,664.96L470.75,665.09L472.42,663.91L474.09,664.56L475.76,666.67L477.43,666.8L479.1,663.12L480.76,665.88L482.43,664.43L485.77,665.75L487.44,664.3L489.11,666.4L490.78,664.04L494.12,661.8L495.79,665.48L497.46,665.62L499.13,664.7L500.8,665.09L502.47,662.07L504.14,664.7L505.8,662.46L507.47,664.17L509.14,664.43L510.81,665.48L512.48,664.96L514.15,662.33L515.82,661.28L519.16,662.72L520.83,665.35L522.5,662.85L524.17,662.33L525.84,665.22L527.51,660.36L530.84,661.93L532.51,664.43L534.18,663.91L535.85,661.01L537.52,662.85L539.19,656.02L540.86,664.3L542.53,662.46L544.2,659.7L545.87,663.91L547.54,662.33L549.21,657.99L550.88,659.57L552.55,654.57L554.22,661.01L555.88,658.65L557.55,664.56L559.22,661.67L560.89,656.02L562.56,661.67L564.23,656.28L565.9,660.88L569.24,662.07L570.91,659.44L572.58,661.28L574.25,660.36L575.92,660.09L577.59,658.12L579.25,662.07L580.92,662.99L582.59,665.88L584.26,658.91L585.93,656.15L587.6,661.8L589.27,661.8L590.94,664.83L592.61,663.38L594.28,665.48L595.95,662.33L597.62,665.35L600.96,665.22L602.63,662.2L604.29,666.01L605.96,666.01L607.63,666.4L609.3,661.93L610.97,661.54L612.64,664.04L614.31,666.01L615.98,666.27L619.32,666.54L620.99,664.7L622.66,664.04L624.33,665.62L626,665.09L627.67,666.93L631,665.48L632.67,666.4L634.34,664.83L636.01,666.93L637.68,665.75L639.35,666.4L641.02,666.93L642.69,665.62L644.36,666.4L646.03,665.35L647.7,666.27L649.37,665.75L651.04,666.54L652.71,666.27L656.04,665.75L657.71,666.4L659.38,666.27L661.05,665.35L662.72,667.32L664.39,666.54L666.06,666.4L667.73,665.48L669.4,666.14L671.07,665.62L672.74,665.22L674.41,666.4L681.08,664.7L682.75,665.62L687.76,666.67L689.43,665.48L696.11,664.96L697.78,665.75L699.45,665.75L701.12,664.04L704.45,664.43L706.12,663.25L707.79,665.35L709.46,665.22L711.13,664.83L712.8,663.51L714.47,662.46L716.14,663.25L717.81,664.56L719.48,664.56L724.49,664.56L726.16,662.33L727.82,664.96L729.49,663.91L732.83,665.62L734.5,664.43L736.17,661.93L737.84,664.3L741.18,664.43L742.85,661.54L744.52,665.22L746.19,665.75L747.86,663.51L749.53,663.64L752.86,664.56L754.53,663.77L756.2,667.19L757.87,665.48L759.54,665.22L761.21,664.17L762.88,664.17L764.55,665.09L767.89,666.67L769.56,663.38L772.9,665.22L774.57,665.88L777.9,665.35L779.57,666.01L781.24,666.54L782.91,664.43L784.58,666.4L786.25,665.22L787.92,664.56L789.59,666.4L792.93,665.35L794.6,663.38L796.27,666.27L797.94,667.19L799.61,665.75L801.27,666.8L802.94,667.19L804.61,666.01L807.95,666.8L809.62,667.59L811.29,666.01L812.96,666.14L814.63,667.32L816.3,659.83L817.97,666.27L819.64,666.93L821.31,667.46L822.98,666.01L824.65,666.14L826.31,667.32L827.98,664.43L829.65,665.88L831.32,665.22L832.99,666.54L836.33,666.54L838,667.59" style="vector-effect: non-scaling-stroke; fill: none; stroke: rgb(44, 160, 44); stroke-opacity: 1; stroke-width: 2px; opacity: 1;"/></g><g class="points"/><g class="text"/></g></g></g><g class="overplot"/><path class="xlines-above crisp" style="fill: none;" d="M0,0"/><path class="ylines-above crisp" style="fill: none;" d="M0,0"/><g class="overlines-above"/><g class="xaxislayer-above"><g class="xtick"><text text-anchor="middle" x="0" y="741" transform="translate(80.03,0)" style="font-family: 'Open Sans', verdana, arial, sans-serif; font-size: 12px; fill: rgb(68, 68, 68); fill-opacity: 1; white-space: pre;">Mar 2020</text></g><g class="xtick"><text text-anchor="middle" x="0" y="741" transform="translate(181.86,0)" style="font-family: 'Open Sans', verdana, arial, sans-serif; font-size: 12px; fill: rgb(68, 68, 68); fill-opacity: 1; white-space: pre;">May 2020</text></g><g class="xtick"><text text-anchor="middle" x="0" y="741" transform="translate(283.69,0)" style="font-family: 'Open Sans', verdana, arial, sans-serif; font-size: 12px; fill: rgb(68, 68, 68); fill-opacity: 1; white-space: pre;">Jul 2020</text></g><g class="xtick"><text text-anchor="middle" x="0" y="741" transform="translate(387.19,0)" style="font-family: 'Open Sans', verdana, arial, sans-serif; font-size: 12px; fill: rgb(68, 68, 68); fill-opacity: 1; white-space: pre;">Sep 2020</text></g><g class="xtick"><text text-anchor="middle" x="0" y="741" transform="translate(489.02,0)" style="font-family: 'Open Sans', verdana, arial, sans-serif; font-size: 12px; fill: rgb(68, 68, 68); fill-opacity: 1; white-space: pre;">Nov 2020</text></g><g class="xtick"><text text-anchor="middle" x="0" y="741" transform="translate(590.84,0)" style="font-family: 'Open Sans', verdana, arial, sans-serif; font-size: 12px; fill: rgb(68, 68, 68); fill-opacity: 1; white-space: pre;">Jan 2021</text></g><g class="xtick"><text text-anchor="middle" x="0" y="741" transform="translate(689.33,0)" style="font-family: 'Open Sans', verdana, arial, sans-serif; font-size: 12px; fill: rgb(68, 68, 68); fill-opacity: 1; white-space: pre;">Mar 2021</text></g><g class="xtick"><text text-anchor="middle" x="0" y="741" transform="translate(791.16,0)" style="font-family: 'Open Sans', verdana, arial, sans-serif; font-size: 12px; fill: rgb(68, 68, 68); fill-opacity: 1; white-space: pre;">May 2021</text></g><g class="xtick"><text text-anchor="middle" x="0" y="741" transform="translate(892.99,0)" style="font-family: 'Open Sans', verdana, arial, sans-serif; font-size: 12px; fill: rgb(68, 68, 68); fill-opacity: 1; white-space: pre;">Jul 2021</text></g></g><g class="yaxislayer-above"><g class="ytick"><text text-anchor="end" x="59" y="4.199999999999999" transform="translate(0,692.72)" style="font-family: 'Open Sans', verdana, arial, sans-serif; font-size: 12px; fill: rgb(68, 68, 68); fill-opacity: 1; white-space: pre;">0</text></g><g class="ytick"><text text-anchor="end" x="59" y="4.199999999999999" transform="translate(0,561.26)" style="font-family: 'Open Sans', verdana, arial, sans-serif; font-size: 12px; fill: rgb(68, 68, 68); fill-opacity: 1; white-space: pre;">1000</text></g><g class="ytick"><text text-anchor="end" x="59" y="4.199999999999999" transform="translate(0,429.81)" style="font-family: 'Open Sans', verdana, arial, sans-serif; font-size: 12px; fill: rgb(68, 68, 68); fill-opacity: 1; white-space: pre;">2000</text></g><g class="ytick"><text text-anchor="end" x="59" y="4.199999999999999" transform="translate(0,298.35)" style="font-family: 'Open Sans', verdana, arial, sans-serif; font-size: 12px; fill: rgb(68, 68, 68); fill-opacity: 1; white-space: pre;">3000</text></g><g class="ytick"><text text-anchor="end" x="59" y="4.199999999999999" transform="translate(0,166.89)" style="font-family: 'Open Sans', verdana, arial, sans-serif; font-size: 12px; fill: rgb(68, 68, 68); fill-opacity: 1; white-space: pre;">4000</text></g><g class="ytick"><text text-anchor="end" x="59" y="4.199999999999999" transform="translate(0,35.44)" style="font-family: 'Open Sans', verdana, arial, sans-serif; font-size: 12px; fill: rgb(68, 68, 68); fill-opacity: 1; white-space: pre;">5000</text></g></g><g class="overaxes-above"/></g></g><g class="polarlayer"/><g class="ternarylayer"/><g class="geolayer"/><g class="funnelarealayer"/><g class="pielayer"/><g class="treemaplayer"/><g class="sunburstlayer"/><g class="glimages"/><defs id="topdefs-1be792"><g class="clips"/><clipPath id="legend1be792"><rect width="102" height="67" x="0" y="0"/></clipPath></defs><g class="layer-above"><g class="imagelayer"/><g class="shapelayer"/></g><g class="infolayer"><g class="legend" pointer-events="all" transform="translate(914.76, 25)"><rect class="bg" shape-rendering="crispEdges" style="stroke: rgb(68, 68, 68); stroke-opacity: 1; fill: rgb(255, 255, 255); fill-opacity: 1; stroke-width: 0px;" width="102" height="67" x="0" y="0"/><g class="scrollbox" transform="translate(0, 0)" clip-path="url('#legend1be792')"><g class="groups"><g class="traces" style="opacity: 1;" transform="translate(0, 14.5)"><text class="legendtext" text-anchor="start" x="40" y="4.680000000000001" style="font-family: 'Open Sans', verdana, arial, sans-serif; font-size: 12px; fill: rgb(68, 68, 68); fill-opacity: 1; white-space: pre;">positive</text><g class="layers" style="opacity: 1;"><g class="legendfill"/><g class="legendlines"><path class="js-line" d="M5,0h30" style="fill: none; stroke: rgb(31, 119, 180); stroke-opacity: 1; stroke-width: 2px;"/></g><g class="legendsymbols"><g class="legendpoints"/></g></g><rect class="legendtoggle" x="0" y="-9.5" width="96.109375" height="19" style="fill: rgb(0, 0, 0); fill-opacity: 0;"/></g><g class="traces" style="opacity: 1;" transform="translate(0, 33.5)"><text class="legendtext" text-anchor="start" x="40" y="4.680000000000001" style="font-family: 'Open Sans', verdana, arial, sans-serif; font-size: 12px; fill: rgb(68, 68, 68); fill-opacity: 1; white-space: pre;">resolved</text><g class="layers" style="opacity: 1;"><g class="legendfill"/><g class="legendlines"><path class="js-line" d="M5,0h30" style="fill: none; stroke: rgb(255, 127, 14); stroke-opacity: 1; stroke-width: 2px;"/></g><g class="legendsymbols"><g class="legendpoints"/></g></g><rect class="legendtoggle" x="0" y="-9.5" width="96.109375" height="19" style="fill: rgb(0, 0, 0); fill-opacity: 0;"/></g><g class="traces" style="opacity: 1;" transform="translate(0, 52.5)"><text class="legendtext" text-anchor="start" x="40" y="4.680000000000001" style="font-family: 'Open Sans', verdana, arial, sans-serif; font-size: 12px; fill: rgb(68, 68, 68); fill-opacity: 1; white-space: pre;">deceased</text><g class="layers" style="opacity: 1;"><g class="legendfill"/><g class="legendlines"><path class="js-line" d="M5,0h30" style="fill: none; stroke: rgb(44, 160, 44); stroke-opacity: 1; stroke-width: 2px;"/></g><g class="legendsymbols"><g class="legendpoints"/></g></g><rect class="legendtoggle" x="0" y="-9.5" width="96.109375" height="19" style="fill: rgb(0, 0, 0); fill-opacity: 0;"/></g></g></g><rect class="scrollbar" rx="20" ry="3" width="0" height="0" style="fill: rgb(128, 139, 164); fill-opacity: 1;" x="0" y="0"/></g><g class="g-gtitle"><text class="gtitle" x="513.5" y="12.5" text-anchor="middle" dy="0em" style="font-family: 'Open Sans', verdana, arial, sans-serif; font-size: 17px; fill: rgb(68, 68, 68); opacity: 1; font-weight: normal; white-space: pre;">Dynamics of new cases, resolved cases and deaths in Ontario (Jul 05, 2021)</text></g><g class="g-xtitle" transform="translate(0,-15)"><text class="xtitle" x="479" y="780" text-anchor="middle" style="font-family: 'Open Sans', verdana, arial, sans-serif; font-size: 14px; fill: rgb(68, 68, 68); opacity: 1; font-weight: normal; white-space: pre;">Date</text></g><g class="g-ytitle"><text class="ytitle" transform="rotate(-90,22,376.5)" x="22" y="376.5" text-anchor="middle" style="font-family: 'Open Sans', verdana, arial, sans-serif; font-size: 14px; fill: rgb(68, 68, 68); opacity: 1; font-weight: normal; white-space: pre;">Number of cases</text></g></g></svg>