<svg class="main-svg" xmlns="http://www.w3.org/2000/svg" xmlns:xlink="http://www.w3.org/1999/xlink" width="1027" height="768" style="" viewBox="0 0 1027 768"><rect x="0" y="0" width="1027" height="768" style="fill: rgb(255, 255, 255); fill-opacity: 1;"/><defs id="defs-d87db8"><g class="clips"><clipPath id="clipd87db8xyplot" class="plotclip"><rect width="838" height="703"/></clipPath><clipPath class="axesclip" id="clipd87db8x"><rect x="60" y="0" width="838" height="768"/></clipPath><clipPath class="axesclip" id="clipd87db8y"><rect x="0" y="25" width="1027" height="703"/></clipPath><clipPath class="axesclip" id="clipd87db8xy"><rect x="60" y="25" width="838" height="703"/></clipPath></g><g class="gradients"/></defs><g class="bglayer"/><g class="layer-below"><g class="imagelayer"/><g class="shapelayer"/></g><g class="cartesianlayer"><g class="subplot xy"><g class="layer-subplot"><g class="shapelayer"/><g class="imagelayer"/></g><g class="gridlayer"><g class="x"><path class="xgrid crisp" transform="translate(112.65,0)" d="M0,25v703" style="stroke: rgb(238, 238, 238); stroke-opacity: 1; stroke-width: 1px;"/><path class="xgrid crisp" transform="translate(248.66,0)" d="M0,25v703" style="stroke: rgb(238, 238, 238); stroke-opacity: 1; stroke-width: 1px;"/><path class="xgrid crisp" transform="translate(380.28,0)" d="M0,25v703" style="stroke: rgb(238, 238, 238); stroke-opacity: 1; stroke-width: 1px;"/><path class="xgrid crisp" transform="translate(516.29,0)" d="M0,25v703" style="stroke: rgb(238, 238, 238); stroke-opacity: 1; stroke-width: 1px;"/><path class="xgrid crisp" transform="translate(647.92,0)" d="M0,25v703" style="stroke: rgb(238, 238, 238); stroke-opacity: 1; stroke-width: 1px;"/><path class="xgrid crisp" transform="translate(783.93,0)" d="M0,25v703" style="stroke: rgb(238, 238, 238); stroke-opacity: 1; stroke-width: 1px;"/></g><g class="y"><path class="ygrid crisp" transform="translate(0,594.39)" d="M60,0h838" style="stroke: rgb(238, 238, 238); stroke-opacity: 1; stroke-width: 1px;"/><path class="ygrid crisp" transform="translate(0,496.9)" d="M60,0h838" style="stroke: rgb(238, 238, 238); stroke-opacity: 1; stroke-width: 1px;"/><path class="ygrid crisp" transform="translate(0,399.41)" d="M60,0h838" style="stroke: rgb(238, 238, 238); stroke-opacity: 1; stroke-width: 1px;"/><path class="ygrid crisp" transform="translate(0,301.92)" d="M60,0h838" style="stroke: rgb(238, 238, 238); stroke-opacity: 1; stroke-width: 1px;"/><path class="ygrid crisp" transform="translate(0,204.43)" d="M60,0h838" style="stroke: rgb(238, 238, 238); stroke-opacity: 1; stroke-width: 1px;"/><path class="ygrid crisp" transform="translate(0,106.94)" d="M60,0h838" style="stroke: rgb(238, 238, 238); stroke-opacity: 1; stroke-width: 1px;"/></g></g><g class="zerolinelayer"><path class="yzl zl crisp" transform="translate(0,691.88)" d="M60,0h838" style="stroke: rgb(68, 68, 68); stroke-opacity: 1; stroke-width: 1px;"/></g><path class="xlines-below"/><path class="ylines-below"/><g class="overlines-below"/><g class="xaxislayer-below"/><g class="yaxislayer-below"/><g class="overaxes-below"/><g class="plot" transform="translate(60, 25)" clip-path="url('#clipd87db8xyplot')"><g class="scatterlayer mlayer"><g class="trace scatter trace1ee194" style="stroke-miterlimit: 2; opacity: 1;"><g class="fills"/><g class="errorbars"/><g class="lines"><path class="js-line" d="M0,666.88L4.39,666.88L8.77,667.85L13.16,667.85L26.32,665.9L35.1,666.88L39.49,665.9L43.87,665.9L57.04,655.18L61.42,664.93L65.81,666.88L70.2,665.9L74.59,662.98L78.97,664.93L87.75,660.05L92.14,666.88L96.52,661.03L100.91,650.3L105.3,647.38L109.69,643.48L114.07,625.93L118.46,635.68L122.85,656.15L127.24,642.5L131.62,624.96L136.01,608.38L140.4,611.31L144.79,623.98L149.17,591.81L153.56,585.96L157.95,574.26L162.34,503.09L166.72,538.19L171.11,520.64L175.5,92.67L179.88,413.41L184.27,251.57L188.66,275.95L193.05,216.48L197.43,301.29L201.82,269.12L206.21,365.64L210.6,297.39L214.98,130.69L219.37,196.01L223.76,200.88L228.15,266.2L232.53,275.95L236.92,256.45L241.31,196.01L245.7,185.28L250.08,165.78L254.47,117.04L258.86,194.06L263.25,113.14L267.63,76.1L272.02,129.71L276.41,169.68L280.8,48.8L285.18,42.95L289.57,202.83L293.96,240.85L298.35,253.52L302.73,155.06L307.12,328.59L311.51,219.4L315.9,256.45L320.28,168.71L324.67,243.78L329.06,306.17L333.45,289.59L337.83,265.22L342.22,277.9L346.61,201.86L350.99,329.57L355.38,380.26L359.77,366.61L364.16,314.94L368.54,346.14L372.93,330.54L377.32,334.44L381.71,285.7L386.09,335.41L390.48,370.51L394.87,250.6L399.26,286.67L403.64,264.25L408.03,236.95L412.42,265.22L416.81,218.43L421.19,273.02L425.58,387.08L429.97,382.21L434.36,293.49L438.74,331.51L443.13,351.99L447.52,349.06L451.91,273.02L456.29,232.08L460.68,337.36L465.07,319.82L469.46,331.51L473.84,223.3L478.23,262.3L482.62,429.98L487.01,442.65L491.39,422.18L495.78,468.97L500.17,489.45L504.55,407.56L508.94,474.82L513.33,490.42L517.72,487.5L522.1,481.65L526.49,498.22L530.88,493.35L535.27,466.05L539.65,496.27L544.04,509.92L548.43,456.3L552.82,507.97L557.2,482.62L561.59,558.66L565.98,510.89L570.37,493.35L574.75,416.33L579.14,513.82L583.53,521.62L587.92,517.72L592.3,506.02L596.69,548.91L605.47,516.74L609.85,557.69L614.24,551.84L618.63,501.14L623.02,553.79L627.4,540.14L631.79,541.12L636.18,553.79L640.57,558.66L644.95,567.44L649.34,558.66L653.73,558.66L658.12,505.04L662.5,506.99L666.89,535.27L671.28,468.97L675.66,506.02L680.05,566.46L684.44,476.77L688.83,532.34L693.21,533.32L697.6,550.86L701.99,558.66L706.38,592.78L710.76,580.11L715.15,536.24L719.54,545.99L723.93,553.79L728.31,581.09L732.7,578.16L737.09,583.04L741.48,574.26L745.86,581.09L750.25,598.63L754.64,589.86L759.03,554.76L763.41,634.7L767.8,574.26L772.19,590.83L776.58,577.19L780.96,563.54L785.35,587.91L789.74,570.36L794.13,545.01L802.9,592.78L807.29,539.17L811.68,561.59L816.06,554.76L820.45,564.51L824.84,569.39L829.23,581.09L833.61,551.84L838,547.94" style="vector-effect: non-scaling-stroke; fill: none; stroke: rgb(31, 119, 180); stroke-opacity: 1; stroke-width: 2px; opacity: 1;"/></g><g class="points"/><g class="text"/></g><g class="trace scatter trace2e7f3c" style="stroke-miterlimit: 2; opacity: 1;"><g class="fills"/><g class="errorbars"/><g class="lines"><path class="js-line" d="M0,666.88L4.39,666.88L8.77,665.9L13.16,665.9L26.32,666.88L65.81,666.88L70.2,665.9L74.59,666.88L78.97,666.88L87.75,666.88L92.14,665.9L96.52,666.88L100.91,666.88L136.01,666.88L140.4,665.9L144.79,664.93L149.17,666.88L171.11,666.88L175.5,254.5L179.88,566.46L184.27,515.77L188.66,528.44L193.05,479.7L197.43,475.8L201.82,442.65L206.21,496.27L210.6,493.35L214.98,401.71L219.37,441.68L223.76,404.63L228.15,390.01L232.53,410.48L236.92,436.8L241.31,461.17L245.7,341.26L250.08,382.21L254.47,313.97L258.86,355.89L263.25,341.26L267.63,368.56L272.02,383.18L276.41,262.3L280.8,219.4L285.18,270.1L289.57,255.47L293.96,188.21L298.35,155.06L302.73,238.9L307.12,35.15L311.51,88.77L315.9,62.45L320.28,116.07L324.67,67.32L329.06,179.43L333.45,399.76L337.83,235L342.22,328.59L346.61,256.45L350.99,283.75L355.38,287.65L359.77,316.89L364.16,413.41L368.54,224.28L372.93,316.89L377.32,240.85L381.71,297.39L386.09,335.41L390.48,395.86L394.87,413.41L403.64,355.89L408.03,415.35L412.42,297.39L416.81,344.19L421.19,451.43L425.58,413.41L429.97,263.27L434.36,373.43L438.74,364.66L443.13,306.17L447.52,221.35L451.91,332.49L456.29,344.19L460.68,348.09L465.07,279.85L469.46,301.29L473.84,312.02L478.23,369.54L482.62,432.9L487.01,338.34L491.39,129.71L495.78,174.56L500.17,372.46L504.55,324.69L508.94,254.5L513.33,421.2L517.72,454.35L522.1,322.74L526.49,452.4L530.88,427.05L535.27,454.35L539.65,422.18L548.43,497.25L552.82,443.63L557.2,479.7L561.59,446.55L565.98,493.35L570.37,496.27L574.75,580.11L579.14,522.59L583.53,489.45L587.92,468L592.3,492.37L596.69,497.25L601.08,488.47L605.47,510.89L609.85,494.32L614.24,469.95L618.63,499.19L623.02,493.35L627.4,406.58L631.79,557.69L636.18,541.12L640.57,547.94L644.95,535.27L649.34,529.42L653.73,568.41L658.12,538.19L662.5,556.71L666.89,563.54L671.28,577.19L675.66,465.07L680.05,519.67L684.44,533.32L688.83,530.39L693.21,550.86L697.6,567.44L701.99,563.54L706.38,497.25L710.76,506.02L715.15,503.09L719.54,507.97L723.93,547.94L728.31,544.04L732.7,553.79L737.09,524.54L741.48,511.87L745.86,551.84L750.25,562.56L754.64,522.59L759.03,567.44L763.41,593.76L767.8,536.24L772.19,570.36L776.58,585.96L780.96,568.41L785.35,588.88L789.74,585.96L794.13,579.14L798.51,580.11L802.9,592.78L807.29,563.54L811.68,579.14L816.06,561.59L820.45,590.83L824.84,593.76L829.23,554.76L833.61,591.81L838,585.96" style="vector-effect: non-scaling-stroke; fill: none; stroke: rgb(255, 127, 14); stroke-opacity: 1; stroke-width: 2px; opacity: 1;"/></g><g class="points"/><g class="text"/></g><g class="trace scatter tracecc019c" style="stroke-miterlimit: 2; opacity: 1;"><g class="fills"/><g class="errorbars"/><g class="lines"><path class="js-line" d="M0,666.88L118.46,666.88L122.85,665.9L127.24,666.88L131.62,665.9L136.01,666.88L140.4,665.9L144.79,664.93L149.17,665.9L153.56,664.93L157.95,662L162.34,664.93L166.72,663.95L171.11,665.9L175.5,662.98L179.88,657.13L184.27,662.98L188.66,651.28L193.05,653.23L197.43,640.55L201.82,642.5L206.21,654.2L210.6,646.4L214.98,646.4L219.37,641.53L223.76,645.43L228.15,636.65L232.53,646.4L236.92,650.3L241.31,624.96L245.7,617.16L250.08,629.83L254.47,613.26L258.86,631.78L263.25,628.85L267.63,636.65L272.02,629.83L276.41,630.8L280.8,614.23L285.18,618.13L289.57,620.08L293.96,643.48L298.35,611.31L302.73,609.36L307.12,623.01L311.51,583.04L315.9,628.85L320.28,613.26L324.67,627.88L329.06,584.98L333.45,607.41L337.83,600.58L342.22,620.08L346.61,605.46L350.99,609.36L355.38,632.75L359.77,632.75L364.16,612.28L368.54,627.88L377.32,640.55L381.71,634.7L386.09,644.45L390.48,644.45L394.87,652.25L399.26,624.96L403.64,636.65L408.03,639.58L412.42,640.55L416.81,642.5L421.19,638.6L425.58,646.4L429.97,635.68L434.36,633.73L438.74,626.9L443.13,650.3L447.52,648.35L451.91,657.13L456.29,650.3L460.68,648.35L465.07,623.01L469.46,652.25L473.84,632.75L478.23,648.35L482.62,643.48L487.01,653.23L491.39,656.15L495.78,655.18L500.17,656.15L504.55,658.1L508.94,655.18L513.33,659.08L517.72,656.15L522.1,655.18L526.49,663.95L530.88,656.15L535.27,636.65L539.65,656.15L544.04,663.95L548.43,657.13L552.82,655.18L557.2,657.13L561.59,663.95L565.98,659.08L570.37,661.03L574.75,660.05L579.14,660.05L583.53,662.98L587.92,662.98L592.3,664.93L596.69,662L601.08,664.93L605.47,666.88L609.85,664.93L614.24,658.1L618.63,663.95L623.02,660.05L627.4,661.03L631.79,663.95L636.18,663.95L640.57,665.9L644.95,658.1L649.34,662L653.73,658.1L658.12,664.93L662.5,663.95L666.89,665.9L671.28,665.9L675.66,664.93L680.05,666.88L684.44,663.95L688.83,665.9L693.21,662.98L697.6,665.9L701.99,662.98L706.38,665.9L710.76,663.95L715.15,663.95L728.31,666.88L732.7,662.98L737.09,666.88L741.48,665.9L745.86,666.88L750.25,665.9L754.64,664.93L759.03,666.88L763.41,666.88L767.8,665.9L772.19,666.88L776.58,665.9L780.96,665.9L785.35,666.88L789.74,666.88L794.13,662.98L798.51,667.85L802.9,665.9L807.29,663.95L811.68,665.9L816.06,666.88L820.45,665.9L824.84,664.93L829.23,664.93L833.61,665.9L838,661.03" style="vector-effect: non-scaling-stroke; fill: none; stroke: rgb(44, 160, 44); stroke-opacity: 1; stroke-width: 2px; opacity: 1;"/></g><g class="points"/><g class="text"/></g></g></g><g class="overplot"/><path class="xlines-above crisp" style="fill: none;" d="M0,0"/><path class="ylines-above crisp" style="fill: none;" d="M0,0"/><g class="overlines-above"/><g class="xaxislayer-above"><g class="xtick"><text text-anchor="middle" x="0" y="741" transform="translate(112.65,0)" style="font-family: 'Open Sans', verdana, arial, sans-serif; font-size: 12px; fill: rgb(68, 68, 68); fill-opacity: 1; white-space: pre;">Mar 2020</text></g><g class="xtick"><text text-anchor="middle" x="0" y="741" transform="translate(248.66,0)" style="font-family: 'Open Sans', verdana, arial, sans-serif; font-size: 12px; fill: rgb(68, 68, 68); fill-opacity: 1; white-space: pre;">Apr 2020</text></g><g class="xtick"><text text-anchor="middle" x="0" y="741" transform="translate(380.28,0)" style="font-family: 'Open Sans', verdana, arial, sans-serif; font-size: 12px; fill: rgb(68, 68, 68); fill-opacity: 1; white-space: pre;">May 2020</text></g><g class="xtick"><text text-anchor="middle" x="0" y="741" transform="translate(516.29,0)" style="font-family: 'Open Sans', verdana, arial, sans-serif; font-size: 12px; fill: rgb(68, 68, 68); fill-opacity: 1; white-space: pre;">Jun 2020</text></g><g class="xtick"><text text-anchor="middle" x="0" y="741" transform="translate(647.92,0)" style="font-family: 'Open Sans', verdana, arial, sans-serif; font-size: 12px; fill: rgb(68, 68, 68); fill-opacity: 1; white-space: pre;">Jul 2020</text></g><g class="xtick"><text text-anchor="middle" x="0" y="741" transform="translate(783.93,0)" style="font-family: 'Open Sans', verdana, arial, sans-serif; font-size: 12px; fill: rgb(68, 68, 68); fill-opacity: 1; white-space: pre;">Aug 2020</text></g></g><g class="yaxislayer-above"><g class="ytick"><text text-anchor="end" x="59" y="4.199999999999999" transform="translate(0,691.88)" style="font-family: 'Open Sans', verdana, arial, sans-serif; font-size: 12px; fill: rgb(68, 68, 68); fill-opacity: 1; white-space: pre;">0</text></g><g class="ytick"><text text-anchor="end" x="59" y="4.199999999999999" transform="translate(0,594.39)" style="font-family: 'Open Sans', verdana, arial, sans-serif; font-size: 12px; fill: rgb(68, 68, 68); fill-opacity: 1; white-space: pre;">100</text></g><g class="ytick"><text text-anchor="end" x="59" y="4.199999999999999" transform="translate(0,496.9)" style="font-family: 'Open Sans', verdana, arial, sans-serif; font-size: 12px; fill: rgb(68, 68, 68); fill-opacity: 1; white-space: pre;">200</text></g><g class="ytick"><text text-anchor="end" x="59" y="4.199999999999999" transform="translate(0,399.41)" style="font-family: 'Open Sans', verdana, arial, sans-serif; font-size: 12px; fill: rgb(68, 68, 68); fill-opacity: 1; white-space: pre;">300</text></g><g class="ytick"><text text-anchor="end" x="59" y="4.199999999999999" transform="translate(0,301.92)" style="font-family: 'Open Sans', verdana, arial, sans-serif; font-size: 12px; fill: rgb(68, 68, 68); fill-opacity: 1; white-space: pre;">400</text></g><g class="ytick"><text text-anchor="end" x="59" y="4.199999999999999" transform="translate(0,204.43)" style="font-family: 'Open Sans', verdana, arial, sans-serif; font-size: 12px; fill: rgb(68, 68, 68); fill-opacity: 1; white-space: pre;">500</text></g><g class="ytick"><text text-anchor="end" x="59" y="4.199999999999999" transform="translate(0,106.94)" style="font-family: 'Open Sans', verdana, arial, sans-serif; font-size: 12px; fill: rgb(68, 68, 68); fill-opacity: 1; white-space: pre;">600</text></g></g><g class="overaxes-above"/></g></g><g class="polarlayer"/><g class="ternarylayer"/><g class="geolayer"/><g class="funnelarealayer"/><g class="pielayer"/><g class="treemaplayer"/><g class="sunburstlayer"/><g class="glimages"/><defs id="topdefs-d87db8"><g class="clips"/><clipPath id="legendd87db8"><rect width="102" height="67" x="0" y="0"/></clipPath></defs><g class="layer-above"><g class="imagelayer"/><g class="shapelayer"/></g><g class="infolayer"><g class="legend" pointer-events="all" transform="translate(914.76, 25)"><rect class="bg" shape-rendering="crispEdges" style="stroke: rgb(68, 68, 68); stroke-opacity: 1; fill: rgb(255, 255, 255); fill-opacity: 1; stroke-width: 0px;" width="102" height="67" x="0" y="0"/><g class="scrollbox" transform="translate(0, 0)" clip-path="url('#legendd87db8')"><g class="groups"><g class="traces" style="opacity: 1;" transform="translate(0, 14.5)"><text class="legendtext user-select-none" text-anchor="start" x="40" y="4.680000000000001" style="font-family: 'Open Sans', verdana, arial, sans-serif; font-size: 12px; fill: rgb(68, 68, 68); fill-opacity: 1; white-space: pre;">positive</text><g class="layers" style="opacity: 1;"><g class="legendfill"/><g class="legendlines"><path class="js-line" d="M5,0h30" style="fill: none; stroke: rgb(31, 119, 180); stroke-opacity: 1; stroke-width: 2px;"/></g><g class="legendsymbols"><g class="legendpoints"/></g></g><rect class="legendtoggle" pointer-events="all" x="0" y="-9.5" width="96.109375" height="19" style="cursor: pointer; fill: rgb(0, 0, 0); fill-opacity: 0;"/></g><g class="traces" style="opacity: 1;" transform="translate(0, 33.5)"><text class="legendtext user-select-none" text-anchor="start" x="40" y="4.680000000000001" style="font-family: 'Open Sans', verdana, arial, sans-serif; font-size: 12px; fill: rgb(68, 68, 68); fill-opacity: 1; white-space: pre;">resolved</text><g class="layers" style="opacity: 1;"><g class="legendfill"/><g class="legendlines"><path class="js-line" d="M5,0h30" style="fill: none; stroke: rgb(255, 127, 14); stroke-opacity: 1; stroke-width: 2px;"/></g><g class="legendsymbols"><g class="legendpoints"/></g></g><rect class="legendtoggle" pointer-events="all" x="0" y="-9.5" width="96.109375" height="19" style="cursor: pointer; fill: rgb(0, 0, 0); fill-opacity: 0;"/></g><g class="traces" style="opacity: 1;" transform="translate(0, 52.5)"><text class="legendtext user-select-none" text-anchor="start" x="40" y="4.680000000000001" style="font-family: 'Open Sans', verdana, arial, sans-serif; font-size: 12px; fill: rgb(68, 68, 68); fill-opacity: 1; white-space: pre;">deceased</text><g class="layers" style="opacity: 1;"><g class="legendfill"/><g class="legendlines"><path class="js-line" d="M5,0h30" style="fill: none; stroke: rgb(44, 160, 44); stroke-opacity: 1; stroke-width: 2px;"/></g><g class="legendsymbols"><g class="legendpoints"/></g></g><rect class="legendtoggle" pointer-events="all" x="0" y="-9.5" width="96.109375" height="19" style="cursor: pointer; fill: rgb(0, 0, 0); fill-opacity: 0;"/></g></g></g><rect class="scrollbar" rx="20" ry="3" width="0" height="0" style="fill: rgb(128, 139, 164); fill-opacity: 1;" x="0" y="0"/></g><g class="g-gtitle"><text class="gtitle" x="513.5" y="12.5" text-anchor="middle" dy="0em" style="font-family: 'Open Sans', verdana, arial, sans-serif; font-size: 17px; fill: rgb(68, 68, 68); opacity: 1; font-weight: normal; white-space: pre;">Dynamics of new cases, resolved cases and deaths in Ontario (Aug 28, 2020)</text></g><g class="g-xtitle" transform="translate(0,-15)"><text class="xtitle" x="479" y="780" text-anchor="middle" style="font-family: 'Open Sans', verdana, arial, sans-serif; font-size: 14px; fill: rgb(68, 68, 68); opacity: 1; font-weight: normal; white-space: pre;">Date</text></g><g class="g-ytitle"><text class="ytitle" transform="rotate(-90,22,376.5)" x="22" y="376.5" text-anchor="middle" style="font-family: 'Open Sans', verdana, arial, sans-serif; font-size: 14px; fill: rgb(68, 68, 68); opacity: 1; font-weight: normal; white-space: pre;">Number of cases</text></g></g></svg>