<svg class="main-svg" xmlns="http://www.w3.org/2000/svg" xmlns:xlink="http://www.w3.org/1999/xlink" width="1027" height="768" style="" viewBox="0 0 1027 768"><rect x="0" y="0" width="1027" height="768" style="fill: rgb(255, 255, 255); fill-opacity: 1;"/><defs id="defs-1fa90d"><g class="clips"><clipPath id="clip1fa90dxyplot" class="plotclip"><rect width="838" height="703"/></clipPath><clipPath class="axesclip" id="clip1fa90dx"><rect x="60" y="0" width="838" height="768"/></clipPath><clipPath class="axesclip" id="clip1fa90dy"><rect x="0" y="25" width="1027" height="703"/></clipPath><clipPath class="axesclip" id="clip1fa90dxy"><rect x="60" y="25" width="838" height="703"/></clipPath></g><g class="gradients"/></defs><g class="bglayer"/><g class="layer-below"><g class="imagelayer"/><g class="shapelayer"/></g><g class="cartesianlayer"><g class="subplot xy"><g class="layer-subplot"><g class="shapelayer"/><g class="imagelayer"/></g><g class="gridlayer"><g class="x"><path class="xgrid crisp" transform="translate(89.4,0)" d="M0,25v703" style="stroke: rgb(238, 238, 238); stroke-opacity: 1; stroke-width: 1px;"/><path class="xgrid crisp" transform="translate(238.87,0)" d="M0,25v703" style="stroke: rgb(238, 238, 238); stroke-opacity: 1; stroke-width: 1px;"/><path class="xgrid crisp" transform="translate(388.34,0)" d="M0,25v703" style="stroke: rgb(238, 238, 238); stroke-opacity: 1; stroke-width: 1px;"/><path class="xgrid crisp" transform="translate(540.26,0)" d="M0,25v703" style="stroke: rgb(238, 238, 238); stroke-opacity: 1; stroke-width: 1px;"/><path class="xgrid crisp" transform="translate(689.73,0)" d="M0,25v703" style="stroke: rgb(238, 238, 238); stroke-opacity: 1; stroke-width: 1px;"/><path class="xgrid crisp" transform="translate(839.19,0)" d="M0,25v703" style="stroke: rgb(238, 238, 238); stroke-opacity: 1; stroke-width: 1px;"/></g><g class="y"><path class="ygrid crisp" transform="translate(0,618.27)" d="M60,0h838" style="stroke: rgb(238, 238, 238); stroke-opacity: 1; stroke-width: 1px;"/><path class="ygrid crisp" transform="translate(0,543.83)" d="M60,0h838" style="stroke: rgb(238, 238, 238); stroke-opacity: 1; stroke-width: 1px;"/><path class="ygrid crisp" transform="translate(0,469.4)" d="M60,0h838" style="stroke: rgb(238, 238, 238); stroke-opacity: 1; stroke-width: 1px;"/><path class="ygrid crisp" transform="translate(0,394.96)" d="M60,0h838" style="stroke: rgb(238, 238, 238); stroke-opacity: 1; stroke-width: 1px;"/><path class="ygrid crisp" transform="translate(0,320.52)" d="M60,0h838" style="stroke: rgb(238, 238, 238); stroke-opacity: 1; stroke-width: 1px;"/><path class="ygrid crisp" transform="translate(0,246.09)" d="M60,0h838" style="stroke: rgb(238, 238, 238); stroke-opacity: 1; stroke-width: 1px;"/><path class="ygrid crisp" transform="translate(0,171.65)" d="M60,0h838" style="stroke: rgb(238, 238, 238); stroke-opacity: 1; stroke-width: 1px;"/><path class="ygrid crisp" transform="translate(0,97.22)" d="M60,0h838" style="stroke: rgb(238, 238, 238); stroke-opacity: 1; stroke-width: 1px;"/></g></g><g class="zerolinelayer"><path class="yzl zl crisp" transform="translate(0,692.7)" d="M60,0h838" style="stroke: rgb(68, 68, 68); stroke-opacity: 1; stroke-width: 1px;"/></g><path class="xlines-below"/><path class="ylines-below"/><g class="overlines-below"/><g class="xaxislayer-below"/><g class="yaxislayer-below"/><g class="overaxes-below"/><g class="plot" transform="translate(60, 25)" clip-path="url('#clip1fa90dxyplot')"><g class="scatterlayer mlayer"><g class="trace scatter trace4aaa22" style="stroke-miterlimit: 2; opacity: 1;"><g class="fills"/><g class="errorbars"/><g class="lines"><path class="js-line" d="M0,667.7L24.5,667.55L31.85,665.91L34.3,667.4L36.75,667.7L49.01,666.66L51.46,667.7L61.26,664.13L63.71,661.45L66.16,662.94L68.61,666.06L73.51,661.3L75.96,658.77L78.41,659.22L80.86,661.15L83.31,656.24L85.76,655.34L88.21,653.56L90.66,642.69L93.11,648.05L95.56,645.37L98.01,580.02L100.46,628.99L102.91,604.28L105.36,608L107.81,598.92L110.26,611.87L112.71,606.96L115.16,621.7L117.61,611.28L120.06,585.82L122.51,595.8L124.96,596.54L127.42,606.52L129.87,608L132.32,605.03L134.77,595.8L137.22,594.16L139.67,591.18L142.12,583.74L144.57,595.5L147.02,583.14L149.47,577.49L154.37,591.78L156.82,573.32L159.27,572.42L161.72,596.84L164.17,602.64L166.62,604.58L169.07,589.54L171.52,616.04L173.97,599.37L176.42,605.03L178.87,591.63L181.32,603.09L183.77,612.62L186.22,610.09L188.67,606.37L191.12,608.3L193.57,596.69L196.02,616.19L198.47,623.93L200.92,621.85L203.37,613.96L205.82,618.72L208.27,616.34L210.73,616.94L213.18,609.49L215.63,617.09L218.08,622.44L220.53,604.13L222.98,609.64L225.43,606.22L227.88,602.05L230.33,606.37L232.78,599.22L235.23,607.56L237.68,624.98L240.13,624.23L242.58,610.68L245.03,616.49L247.48,619.62L249.93,619.17L252.38,607.56L254.83,601.3L257.28,617.38L259.73,614.7L262.18,616.49L264.63,599.97L267.08,605.92L269.53,631.53L271.98,633.46L274.43,630.33L276.88,637.48L279.33,640.61L281.78,628.1L284.23,638.37L286.68,640.76L289.13,640.31L291.58,639.42L294.04,641.95L296.49,641.2L298.94,637.03L301.39,641.65L303.84,643.73L306.29,635.55L308.74,643.44L311.19,639.56L313.64,651.18L316.09,643.88L318.54,641.2L320.99,629.44L323.44,644.33L325.89,645.52L328.34,644.92L330.79,643.14L333.24,649.69L338.14,644.78L340.59,651.03L343.04,650.13L345.49,642.39L347.94,650.43L350.39,648.35L352.84,648.5L355.29,650.43L360.19,652.52L362.64,651.18L365.09,651.18L367.54,642.99L369.99,643.29L372.44,647.6L374.89,637.48L377.35,643.14L379.8,652.37L382.25,638.67L384.7,647.16L387.15,647.31L389.6,649.99L392.05,651.18L394.5,656.39L396.95,654.45L399.4,647.75L401.85,649.24L404.3,650.43L406.75,654.6L409.2,654.15L411.65,654.9L414.1,653.56L416.55,654.6L419,657.28L421.45,655.94L423.9,650.58L426.35,662.79L428.8,653.56L431.25,656.09L436.15,651.92L438.6,655.64L441.05,652.96L443.5,649.09L448.4,656.39L450.85,648.2L453.3,651.62L455.75,650.58L463.11,654.6L465.56,650.13L468.01,649.54L470.46,645.67L472.91,651.03L475.36,650.73L477.81,651.03L480.26,647.9L482.71,648.05L485.16,645.67L487.61,642.54L490.06,644.18L492.51,639.42L494.96,640.16L497.41,645.52L499.86,642.39L502.31,635.99L504.76,633.16L507.21,637.33L509.66,621.1L512.11,630.33L514.56,620.81L517.01,624.08L519.46,608L521.91,607.11L524.36,613.36L529.26,596.54L531.71,617.83L534.16,606.81L536.61,606.81L539.06,602.94L541.51,594.61L543.96,563.49L546.42,585.23L548.87,574.66L551.32,587.61L553.77,558.73L556.22,570.49L558.67,583.44L561.12,576.15L563.57,586.12L566.02,580.91L568.47,549.05L570.92,527.91L575.82,571.08L578.27,547.56L580.72,556.64L583.17,560.37L585.62,551.14L588.07,561.71L590.52,547.86L592.97,569.74L595.42,562.9L597.87,545.48L600.32,550.09L602.77,542.5L605.22,544.73L607.67,522.11L610.12,512.58L612.57,541.01L615.02,544.59L617.47,543.54L619.92,528.66L622.37,534.31L624.82,516.6L627.27,522.25L629.73,526.57L632.18,511.39L634.63,520.77L637.08,519.13L639.53,518.38L641.98,499.18L644.43,470L646.88,482.8L649.33,461.07L651.78,455.41L654.23,433.23L656.68,459.88L659.13,432.34L661.58,481.91L664.03,446.33L666.48,481.76L668.93,456.75L671.38,487.57L676.28,431.29L678.73,439.33L681.18,431.15L683.63,517.49L686.08,463.3L688.53,447.67L690.98,391.55L693.43,396.46L695.88,413.43L698.33,407.77L700.78,413.58L703.23,411.2L705.68,396.16L708.13,402.71L713.04,381.27L715.49,381.13L717.94,418.19L720.39,386.34L722.84,372.49L725.29,392.59L727.74,388.87L730.19,418.05L735.09,329.02L737.54,349.27L739.99,305.65L742.44,326.79L744.89,316.81L747.34,322.92L749.79,351.65L752.24,339.89L754.69,309.22L757.14,303.41L759.59,346.29L762.04,348.82L764.49,369.22L766.94,379.04L769.39,287.63L771.84,232.55L774.29,172.26L776.74,299.1L779.19,167.05L781.64,226.45L784.09,180.89L786.54,202.03L788.99,181.49L791.44,143.83L793.89,35.15L796.35,155.14L798.8,80.41L801.25,170.77L803.7,235.53L806.15,226.9L808.6,172.56L811.05,221.39L813.5,212.75L815.95,158.27L820.85,382.91L823.3,272.45L825.75,275.87L828.2,271.41L830.65,316.52L833.1,307.88L835.55,376.21L838,408.67" style="vector-effect: non-scaling-stroke; fill: none; stroke: rgb(31, 119, 180); stroke-opacity: 1; stroke-width: 2px; opacity: 1;"/></g><g class="points"/><g class="text"/></g><g class="trace scatter trace85d16f" style="stroke-miterlimit: 2; opacity: 1;"><g class="fills"/><g class="errorbars"/><g class="lines"><path class="js-line" d="M0,667.7L95.56,667.7L98.01,604.73L100.46,652.37L102.91,644.63L105.36,646.56L107.81,639.12L110.26,638.52L112.71,633.46L115.16,641.65L117.61,641.2L120.06,627.21L122.51,633.31L124.96,627.65L127.42,625.42L132.32,632.57L134.77,636.29L137.22,617.98L139.67,624.23L142.12,613.81L144.57,620.21L147.02,617.98L149.47,622.15L151.92,624.38L154.37,605.92L156.82,599.37L159.27,607.11L161.72,604.88L164.17,594.61L166.62,589.54L169.07,602.35L171.52,571.23L173.97,579.42L176.42,575.4L178.87,583.59L181.32,576.15L183.77,593.27L186.22,626.91L188.67,601.75L191.12,616.04L193.57,605.03L196.02,609.19L198.47,609.79L200.92,614.26L203.37,628.99L205.82,600.11L208.27,614.26L210.73,602.64L213.18,611.28L215.63,617.09L218.08,626.32L220.53,628.99L222.98,624.23L225.43,620.21L227.88,629.29L230.33,611.28L232.78,618.42L235.23,634.8L237.68,628.99L240.13,606.07L242.58,622.89L245.03,621.55L247.48,612.62L249.93,599.67L252.38,616.64L254.83,618.42L257.28,619.02L259.73,608.6L262.18,611.87L264.63,613.51L267.08,622.3L269.53,631.97L271.98,617.53L274.43,585.67L276.88,592.52L279.33,622.74L281.78,615.45L284.23,604.73L286.68,630.19L289.13,635.25L291.58,615.15L294.04,634.95L296.49,631.08L298.94,635.25L301.39,630.33L306.29,641.8L308.74,633.61L311.19,639.12L313.64,634.06L316.09,641.2L318.54,641.65L320.99,654.45L323.44,645.67L325.89,640.61L328.34,637.33L330.79,641.05L333.24,641.8L335.69,640.46L338.14,643.88L340.59,641.35L343.04,637.63L345.49,642.1L347.94,641.2L350.39,627.95L352.84,651.03L355.29,648.5L357.74,649.54L360.19,647.6L362.64,646.71L365.09,652.67L367.54,648.05L369.99,650.88L372.44,651.92L374.89,654.01L377.35,636.88L379.8,645.22L382.25,647.31L384.7,646.86L387.15,649.99L389.6,652.52L392.05,651.92L394.5,641.8L396.95,643.14L399.4,642.69L401.85,643.44L404.3,649.54L406.75,648.94L409.2,650.43L411.65,645.97L414.1,644.03L416.55,650.13L419,651.77L421.45,645.67L423.9,652.52L426.35,656.54L428.8,647.75L431.25,652.96L433.7,655.34L436.15,652.67L438.6,655.79L441.05,655.34L443.5,654.3L445.95,654.45L448.4,656.39L450.85,651.92L453.3,654.3L455.75,651.62L458.2,656.09L460.65,656.54L463.11,650.58L465.56,656.24L468.01,655.34L470.46,652.37L472.91,656.09L475.36,656.83L477.81,654.01L480.26,647.31L482.71,649.99L485.16,650.43L487.61,651.92L490.06,651.18L492.51,649.99L494.96,649.99L497.41,647.45L499.86,646.56L502.31,649.24L504.76,649.99L509.66,647.9L512.11,650.28L517.01,641.05L519.46,641.5L521.91,641.35L524.36,639.27L526.81,641.2L529.26,638.52L531.71,629.29L534.16,625.12L536.61,625.57L539.06,617.38L541.51,624.68L543.96,618.42L546.42,619.62L548.87,599.67L551.32,591.03L553.77,603.98L556.22,602.94L558.67,588.2L563.57,586.42L566.02,562.45L568.47,564.24L570.92,559.92L573.37,563.49L575.82,562.75L580.72,574.81L583.17,551.14L585.62,551.73L588.07,561.56L590.52,566.17L592.97,565.72L595.42,577.34L597.87,574.21L600.32,560.66L602.77,557.39L605.22,558.58L607.67,574.66L610.12,558.13L612.57,566.62L615.02,564.83L617.47,552.62L619.92,545.63L622.37,549.2L624.82,548.9L627.27,539.08L629.73,544.73L632.18,543.1L634.63,527.02L637.08,526.57L639.53,526.42L641.98,540.86L644.43,537.14L646.88,545.48L649.33,551.43L651.78,535.8L654.23,531.19L656.68,516.15L659.13,518.38L661.58,509.6L664.03,520.02L666.48,498.73L668.93,445.14L671.38,462.86L673.83,457.05L676.28,464.79L681.18,446.78L683.63,506.62L686.08,447.97L688.53,464.49L690.98,451.69L693.43,442.91L695.88,452.88L698.33,471.19L700.78,463.3L703.23,416.71L705.68,438.29L708.13,436.51L710.58,425.94L713.04,433.38L715.49,457.5L717.94,437.1L720.39,381.27L722.84,399.14L725.29,406.73L727.74,382.17L730.19,417.9L732.64,439.18L737.54,363.56L739.99,368.62L742.44,371.15L744.89,390.06L747.34,380.23L749.79,421.47L752.24,384.85L754.69,333.78L757.14,368.02L759.59,334.68L762.04,382.91L764.49,369.22L766.94,347.48L769.39,335.27L771.84,334.68L774.29,338.25L776.74,301.48L779.19,361.92L781.64,343.91L784.09,358.94L786.54,367.73L788.99,220.35L791.44,254.44L793.89,260.09L796.35,233.74L798.8,296.12L801.25,257.41L803.7,168.54L806.15,162.73L808.6,132.81L813.5,189.53L815.95,209.48L818.4,246.99L820.85,240L823.3,114.8L825.75,222.58L828.2,165.26L830.65,217.37L838,331.1" style="vector-effect: non-scaling-stroke; fill: none; stroke: rgb(255, 127, 14); stroke-opacity: 1; stroke-width: 2px; opacity: 1;"/></g><g class="points"/><g class="text"/></g><g class="trace scatter trace698ae9" style="stroke-miterlimit: 2; opacity: 1;"><g class="fills"/><g class="errorbars"/><g class="lines"><path class="js-line" d="M0,667.7L98.01,667.11L100.46,666.21L102.91,667.11L105.36,665.32L107.81,665.62L110.26,663.68L112.71,663.98L115.16,665.77L117.61,664.57L120.06,664.57L122.51,663.83L124.96,664.43L127.42,663.09L129.87,664.57L132.32,665.17L134.77,661.3L137.22,660.11L139.67,662.04L142.12,659.51L144.57,662.34L147.02,661.9L149.47,663.09L151.92,662.04L154.37,662.19L156.82,659.66L159.27,660.26L161.72,660.56L164.17,664.13L166.62,659.22L169.07,658.92L171.52,661L173.97,654.9L176.42,661.9L178.87,659.51L181.32,661.75L183.77,655.2L186.22,658.62L188.67,657.58L191.12,660.56L193.57,658.32L196.02,658.92L198.47,662.49L200.92,662.49L203.37,659.36L205.82,661.75L208.27,662.79L210.73,663.68L213.18,662.79L215.63,664.28L218.08,664.28L220.53,665.47L222.98,661.3L225.43,663.09L227.88,663.53L235.23,663.38L237.68,664.57L240.13,662.94L242.58,662.64L245.03,661.6L247.48,665.17L249.93,664.87L252.38,666.21L257.28,664.87L259.73,661L262.18,665.47L264.63,662.49L267.08,664.87L269.53,664.13L271.98,665.62L274.43,666.06L284.23,665.91L286.68,666.51L291.58,665.91L294.04,667.25L296.49,666.06L298.94,663.09L301.39,666.06L303.84,667.25L308.74,665.91L311.19,666.21L313.64,667.25L316.09,666.51L325.89,667.11L328.34,667.11L338.14,667.7L340.59,667.4L343.04,666.36L345.49,667.25L350.39,666.81L352.84,667.25L357.74,667.55L360.19,666.36L362.64,666.96L365.09,666.36L367.54,667.4L369.99,667.25L379.8,667.7L382.25,667.25L389.6,667.55L392.05,667.11L396.95,667.25L399.4,667.25L416.55,667.7L419,667.55L428.8,667.55L431.25,667.7L443.5,667.11L445.95,667.85L453.3,667.55L455.75,667.7L468.01,666.81L470.46,667.7L482.71,667.7L485.16,667.85L499.86,667.55L502.31,667.85L512.11,667.11L514.56,667.4L529.26,667.25L531.71,667.25L539.06,667.7L541.51,667.4L551.32,667.25L553.77,656.39L558.67,666.66L561.12,666.96L563.57,666.66L566.02,667.55L573.37,666.66L575.82,667.55L580.72,666.36L583.17,667.7L590.52,666.21L592.97,666.96L597.87,667.25L600.32,666.36L617.47,666.96L619.92,666.21L629.73,666.66L632.18,665.62L637.08,665.77L639.53,665.62L644.43,665.77L646.88,665.91L656.68,664.87L659.13,664.72L661.58,663.38L664.03,666.21L666.48,665.91L668.93,662.94L671.38,663.53L673.83,666.51L676.28,664.57L678.73,665.62L681.18,664.87L683.63,665.62L686.08,662.49L688.53,664.57L690.98,664.72L693.43,663.38L695.88,664.13L698.33,666.51L700.78,666.66L703.23,662.49L705.68,665.62L708.13,663.98L713.04,665.47L715.49,663.83L717.94,666.21L720.39,663.53L725.29,661L727.74,665.17L730.19,665.32L732.64,664.28L735.09,664.72L737.54,661.3L739.99,664.28L742.44,661.75L744.89,663.68L747.34,663.98L749.79,665.17L752.24,664.57L754.69,661.6L757.14,660.41L762.04,662.04L764.49,665.02L766.94,662.19L769.39,661.6L771.84,664.87L774.29,659.36L779.19,661.15L781.64,663.98L784.09,663.38L786.54,660.11L788.99,662.19L791.44,654.45L793.89,663.83L796.35,661.75L798.8,658.62L801.25,663.38L803.7,661.6L806.15,656.68L808.6,658.47L811.05,652.81L813.5,660.11L815.95,657.43L818.4,664.13L820.85,660.85L823.3,654.45L825.75,660.85L828.2,654.75L830.65,659.96L835.55,661.3L838,658.32" style="vector-effect: non-scaling-stroke; fill: none; stroke: rgb(44, 160, 44); stroke-opacity: 1; stroke-width: 2px; opacity: 1;"/></g><g class="points"/><g class="text"/></g></g></g><g class="overplot"/><path class="xlines-above crisp" style="fill: none;" d="M0,0"/><path class="ylines-above crisp" style="fill: none;" d="M0,0"/><g class="overlines-above"/><g class="xaxislayer-above"><g class="xtick"><text text-anchor="middle" x="0" y="741" transform="translate(89.4,0)" style="font-family: 'Open Sans', verdana, arial, sans-serif; font-size: 12px; fill: rgb(68, 68, 68); fill-opacity: 1; white-space: pre;">Mar 2020</text></g><g class="xtick"><text text-anchor="middle" x="0" y="741" transform="translate(238.87,0)" style="font-family: 'Open Sans', verdana, arial, sans-serif; font-size: 12px; fill: rgb(68, 68, 68); fill-opacity: 1; white-space: pre;">May 2020</text></g><g class="xtick"><text text-anchor="middle" x="0" y="741" transform="translate(388.34,0)" style="font-family: 'Open Sans', verdana, arial, sans-serif; font-size: 12px; fill: rgb(68, 68, 68); fill-opacity: 1; white-space: pre;">Jul 2020</text></g><g class="xtick"><text text-anchor="middle" x="0" y="741" transform="translate(540.26,0)" style="font-family: 'Open Sans', verdana, arial, sans-serif; font-size: 12px; fill: rgb(68, 68, 68); fill-opacity: 1; white-space: pre;">Sep 2020</text></g><g class="xtick"><text text-anchor="middle" x="0" y="741" transform="translate(689.73,0)" style="font-family: 'Open Sans', verdana, arial, sans-serif; font-size: 12px; fill: rgb(68, 68, 68); fill-opacity: 1; white-space: pre;">Nov 2020</text></g><g class="xtick"><text text-anchor="middle" x="0" y="741" transform="translate(839.19,0)" style="font-family: 'Open Sans', verdana, arial, sans-serif; font-size: 12px; fill: rgb(68, 68, 68); fill-opacity: 1; white-space: pre;">Jan 2021</text></g></g><g class="yaxislayer-above"><g class="ytick"><text text-anchor="end" x="59" y="4.199999999999999" transform="translate(0,692.7)" style="font-family: 'Open Sans', verdana, arial, sans-serif; font-size: 12px; fill: rgb(68, 68, 68); fill-opacity: 1; white-space: pre;">0</text></g><g class="ytick"><text text-anchor="end" x="59" y="4.199999999999999" transform="translate(0,618.27)" style="font-family: 'Open Sans', verdana, arial, sans-serif; font-size: 12px; fill: rgb(68, 68, 68); fill-opacity: 1; white-space: pre;">500</text></g><g class="ytick"><text text-anchor="end" x="59" y="4.199999999999999" transform="translate(0,543.83)" style="font-family: 'Open Sans', verdana, arial, sans-serif; font-size: 12px; fill: rgb(68, 68, 68); fill-opacity: 1; white-space: pre;">1000</text></g><g class="ytick"><text text-anchor="end" x="59" y="4.199999999999999" transform="translate(0,469.4)" style="font-family: 'Open Sans', verdana, arial, sans-serif; font-size: 12px; fill: rgb(68, 68, 68); fill-opacity: 1; white-space: pre;">1500</text></g><g class="ytick"><text text-anchor="end" x="59" y="4.199999999999999" transform="translate(0,394.96)" style="font-family: 'Open Sans', verdana, arial, sans-serif; font-size: 12px; fill: rgb(68, 68, 68); fill-opacity: 1; white-space: pre;">2000</text></g><g class="ytick"><text text-anchor="end" x="59" y="4.199999999999999" transform="translate(0,320.52)" style="font-family: 'Open Sans', verdana, arial, sans-serif; font-size: 12px; fill: rgb(68, 68, 68); fill-opacity: 1; white-space: pre;">2500</text></g><g class="ytick"><text text-anchor="end" x="59" y="4.199999999999999" transform="translate(0,246.09)" style="font-family: 'Open Sans', verdana, arial, sans-serif; font-size: 12px; fill: rgb(68, 68, 68); fill-opacity: 1; white-space: pre;">3000</text></g><g class="ytick"><text text-anchor="end" x="59" y="4.199999999999999" transform="translate(0,171.65)" style="font-family: 'Open Sans', verdana, arial, sans-serif; font-size: 12px; fill: rgb(68, 68, 68); fill-opacity: 1; white-space: pre;">3500</text></g><g class="ytick"><text text-anchor="end" x="59" y="4.199999999999999" transform="translate(0,97.22)" style="font-family: 'Open Sans', verdana, arial, sans-serif; font-size: 12px; fill: rgb(68, 68, 68); fill-opacity: 1; white-space: pre;">4000</text></g></g><g class="overaxes-above"/></g></g><g class="polarlayer"/><g class="ternarylayer"/><g class="geolayer"/><g class="funnelarealayer"/><g class="pielayer"/><g class="treemaplayer"/><g class="sunburstlayer"/><g class="glimages"/><defs id="topdefs-1fa90d"><g class="clips"/><clipPath id="legend1fa90d"><rect width="102" height="67" x="0" y="0"/></clipPath></defs><g class="layer-above"><g class="imagelayer"/><g class="shapelayer"/></g><g class="infolayer"><g class="legend" pointer-events="all" transform="translate(914.76, 25)"><rect class="bg" shape-rendering="crispEdges" style="stroke: rgb(68, 68, 68); stroke-opacity: 1; fill: rgb(255, 255, 255); fill-opacity: 1; stroke-width: 0px;" width="102" height="67" x="0" y="0"/><g class="scrollbox" transform="translate(0, 0)" clip-path="url('#legend1fa90d')"><g class="groups"><g class="traces" style="opacity: 1;" transform="translate(0, 14.5)"><text class="legendtext" text-anchor="start" x="40" y="4.680000000000001" style="font-family: 'Open Sans', verdana, arial, sans-serif; font-size: 12px; fill: rgb(68, 68, 68); fill-opacity: 1; white-space: pre;">positive</text><g class="layers" style="opacity: 1;"><g class="legendfill"/><g class="legendlines"><path class="js-line" d="M5,0h30" style="fill: none; stroke: rgb(31, 119, 180); stroke-opacity: 1; stroke-width: 2px;"/></g><g class="legendsymbols"><g class="legendpoints"/></g></g><rect class="legendtoggle" x="0" y="-9.5" width="96.109375" height="19" style="fill: rgb(0, 0, 0); fill-opacity: 0;"/></g><g class="traces" style="opacity: 1;" transform="translate(0, 33.5)"><text class="legendtext" text-anchor="start" x="40" y="4.680000000000001" style="font-family: 'Open Sans', verdana, arial, sans-serif; font-size: 12px; fill: rgb(68, 68, 68); fill-opacity: 1; white-space: pre;">resolved</text><g class="layers" style="opacity: 1;"><g class="legendfill"/><g class="legendlines"><path class="js-line" d="M5,0h30" style="fill: none; stroke: rgb(255, 127, 14); stroke-opacity: 1; stroke-width: 2px;"/></g><g class="legendsymbols"><g class="legendpoints"/></g></g><rect class="legendtoggle" x="0" y="-9.5" width="96.109375" height="19" style="fill: rgb(0, 0, 0); fill-opacity: 0;"/></g><g class="traces" style="opacity: 1;" transform="translate(0, 52.5)"><text class="legendtext" text-anchor="start" x="40" y="4.680000000000001" style="font-family: 'Open Sans', verdana, arial, sans-serif; font-size: 12px; fill: rgb(68, 68, 68); fill-opacity: 1; white-space: pre;">deceased</text><g class="layers" style="opacity: 1;"><g class="legendfill"/><g class="legendlines"><path class="js-line" d="M5,0h30" style="fill: none; stroke: rgb(44, 160, 44); stroke-opacity: 1; stroke-width: 2px;"/></g><g class="legendsymbols"><g class="legendpoints"/></g></g><rect class="legendtoggle" x="0" y="-9.5" width="96.109375" height="19" style="fill: rgb(0, 0, 0); fill-opacity: 0;"/></g></g></g><rect class="scrollbar" rx="20" ry="3" width="0" height="0" style="fill: rgb(128, 139, 164); fill-opacity: 1;" x="0" y="0"/></g><g class="g-gtitle"><text class="gtitle" x="513.5" y="12.5" text-anchor="middle" dy="0em" style="font-family: 'Open Sans', verdana, arial, sans-serif; font-size: 17px; fill: rgb(68, 68, 68); opacity: 1; font-weight: normal; white-space: pre;">Dynamics of new cases, resolved cases and deaths in Ontario (Jan 26, 2021)</text></g><g class="g-xtitle" transform="translate(0,-15)"><text class="xtitle" x="479" y="780" text-anchor="middle" style="font-family: 'Open Sans', verdana, arial, sans-serif; font-size: 14px; fill: rgb(68, 68, 68); opacity: 1; font-weight: normal; white-space: pre;">Date</text></g><g class="g-ytitle"><text class="ytitle" transform="rotate(-90,22,376.5)" x="22" y="376.5" text-anchor="middle" style="font-family: 'Open Sans', verdana, arial, sans-serif; font-size: 14px; fill: rgb(68, 68, 68); opacity: 1; font-weight: normal; white-space: pre;">Number of cases</text></g></g></svg>