<svg class="main-svg" xmlns="http://www.w3.org/2000/svg" xmlns:xlink="http://www.w3.org/1999/xlink" width="1027" height="768" style="" viewBox="0 0 1027 768"><rect x="0" y="0" width="1027" height="768" style="fill: rgb(255, 255, 255); fill-opacity: 1;"/><defs id="defs-0595f9"><g class="clips"><clipPath id="clip0595f9xyplot" class="plotclip"><rect width="838" height="703"/></clipPath><clipPath class="axesclip" id="clip0595f9x"><rect x="60" y="0" width="838" height="768"/></clipPath><clipPath class="axesclip" id="clip0595f9y"><rect x="0" y="25" width="1027" height="703"/></clipPath><clipPath class="axesclip" id="clip0595f9xy"><rect x="60" y="25" width="838" height="703"/></clipPath></g><g class="gradients"/></defs><g class="bglayer"/><g class="layer-below"><g class="imagelayer"/><g class="shapelayer"/></g><g class="cartesianlayer"><g class="subplot xy"><g class="layer-subplot"><g class="shapelayer"/><g class="imagelayer"/></g><g class="gridlayer"><g class="x"><path class="xgrid crisp" transform="translate(108.35,0)" d="M0,25v703" style="stroke: rgb(238, 238, 238); stroke-opacity: 1; stroke-width: 1px;"/><path class="xgrid crisp" transform="translate(233.24,0)" d="M0,25v703" style="stroke: rgb(238, 238, 238); stroke-opacity: 1; stroke-width: 1px;"/><path class="xgrid crisp" transform="translate(354.11,0)" d="M0,25v703" style="stroke: rgb(238, 238, 238); stroke-opacity: 1; stroke-width: 1px;"/><path class="xgrid crisp" transform="translate(479,0)" d="M0,25v703" style="stroke: rgb(238, 238, 238); stroke-opacity: 1; stroke-width: 1px;"/><path class="xgrid crisp" transform="translate(599.87,0)" d="M0,25v703" style="stroke: rgb(238, 238, 238); stroke-opacity: 1; stroke-width: 1px;"/><path class="xgrid crisp" transform="translate(724.76,0)" d="M0,25v703" style="stroke: rgb(238, 238, 238); stroke-opacity: 1; stroke-width: 1px;"/><path class="xgrid crisp" transform="translate(849.65,0)" d="M0,25v703" style="stroke: rgb(238, 238, 238); stroke-opacity: 1; stroke-width: 1px;"/></g><g class="y"><path class="ygrid crisp" transform="translate(0,594.39)" d="M60,0h838" style="stroke: rgb(238, 238, 238); stroke-opacity: 1; stroke-width: 1px;"/><path class="ygrid crisp" transform="translate(0,496.9)" d="M60,0h838" style="stroke: rgb(238, 238, 238); stroke-opacity: 1; stroke-width: 1px;"/><path class="ygrid crisp" transform="translate(0,399.41)" d="M60,0h838" style="stroke: rgb(238, 238, 238); stroke-opacity: 1; stroke-width: 1px;"/><path class="ygrid crisp" transform="translate(0,301.92)" d="M60,0h838" style="stroke: rgb(238, 238, 238); stroke-opacity: 1; stroke-width: 1px;"/><path class="ygrid crisp" transform="translate(0,204.43)" d="M60,0h838" style="stroke: rgb(238, 238, 238); stroke-opacity: 1; stroke-width: 1px;"/><path class="ygrid crisp" transform="translate(0,106.94)" d="M60,0h838" style="stroke: rgb(238, 238, 238); stroke-opacity: 1; stroke-width: 1px;"/></g></g><g class="zerolinelayer"><path class="yzl zl crisp" transform="translate(0,691.88)" d="M60,0h838" style="stroke: rgb(68, 68, 68); stroke-opacity: 1; stroke-width: 1px;"/></g><path class="xlines-below"/><path class="ylines-below"/><g class="overlines-below"/><g class="xaxislayer-below"/><g class="yaxislayer-below"/><g class="overaxes-below"/><g class="plot" transform="translate(60, 25)" clip-path="url('#clip0595f9xyplot')"><g class="scatterlayer mlayer"><g class="trace scatter traceb388f8" style="stroke-miterlimit: 2; opacity: 1;"><g class="fills"/><g class="errorbars"/><g class="lines"><path class="js-line" d="M0,666.88L4.03,666.88L8.06,667.85L12.09,667.85L24.17,665.9L32.23,666.88L36.26,665.9L40.29,665.9L52.38,655.18L56.4,664.93L60.43,666.88L64.46,665.9L68.49,662.98L72.52,664.93L80.58,660.05L84.61,666.88L88.63,661.03L92.66,650.3L96.69,647.38L100.72,643.48L104.75,625.93L108.78,635.68L112.81,656.15L116.84,642.5L120.87,624.96L124.89,608.38L128.92,611.31L132.95,623.98L136.98,591.81L141.01,585.96L145.04,574.26L149.07,503.09L153.1,538.19L157.13,520.64L161.15,92.67L165.18,413.41L169.21,251.57L173.24,275.95L177.27,216.48L181.3,301.29L185.33,269.12L189.36,365.64L193.38,297.39L197.41,130.69L201.44,196.01L205.47,200.88L209.5,266.2L213.53,275.95L217.56,256.45L221.59,196.01L225.62,185.28L229.64,165.78L233.67,117.04L237.7,194.06L241.73,113.14L245.76,76.1L249.79,129.71L253.82,169.68L257.85,48.8L261.88,42.95L265.9,202.83L269.93,240.85L273.96,253.52L277.99,155.06L282.02,328.59L286.05,219.4L290.08,256.45L294.11,168.71L298.13,243.78L302.16,306.17L306.19,289.59L310.22,265.22L314.25,277.9L318.28,201.86L322.31,329.57L326.34,380.26L330.37,366.61L334.39,314.94L338.42,346.14L342.45,330.54L346.48,334.44L350.51,285.7L354.54,335.41L358.57,370.51L362.6,250.6L366.63,286.67L370.65,264.25L374.68,236.95L378.71,265.22L382.74,218.43L386.77,273.02L390.8,387.08L394.83,382.21L398.86,293.49L402.88,331.51L406.91,351.99L410.94,349.06L414.97,273.02L419,232.08L423.03,337.36L427.06,319.82L431.09,331.51L435.12,223.3L439.14,262.3L443.17,429.98L447.2,442.65L451.23,422.18L455.26,468.97L459.29,489.45L463.32,407.56L467.35,474.82L471.38,490.42L475.4,487.5L479.43,481.65L483.46,498.22L487.49,493.35L491.52,466.05L495.55,496.27L499.58,509.92L503.61,456.3L507.63,507.97L511.66,482.62L515.69,558.66L519.72,510.89L523.75,493.35L527.78,416.33L531.81,513.82L535.84,521.62L539.87,517.72L543.89,506.02L547.92,548.91L555.98,516.74L560.01,557.69L564.04,551.84L568.07,501.14L572.1,553.79L576.13,540.14L580.15,541.12L584.18,553.79L588.21,558.66L592.24,567.44L596.27,558.66L600.3,558.66L604.33,505.04L608.36,506.99L612.38,535.27L616.41,468.97L620.44,506.02L624.47,566.46L628.5,476.77L632.53,532.34L636.56,533.32L640.59,550.86L644.62,558.66L648.64,592.78L652.67,580.11L656.7,536.24L664.76,553.79L668.79,581.09L672.82,578.16L676.85,583.04L680.88,574.26L684.9,581.09L688.93,598.63L692.96,589.86L696.99,554.76L701.02,634.7L705.05,574.26L709.08,590.83L717.13,563.54L721.16,587.91L725.19,570.36L729.22,545.01L737.28,592.78L741.31,539.17L745.34,561.59L749.37,554.76L753.39,564.51L757.42,569.39L761.45,581.09L765.48,551.84L769.51,547.94L773.54,522.59L777.57,557.69L781.6,555.74L785.63,557.69L789.65,537.22L793.68,538.19L797.71,522.59L801.74,502.12L805.77,512.84L809.8,481.65L813.83,486.52L817.86,521.62L821.88,501.14L825.91,459.22L829.94,440.7L833.97,468L838,361.74" style="vector-effect: non-scaling-stroke; fill: none; stroke: rgb(31, 119, 180); stroke-opacity: 1; stroke-width: 2px; opacity: 1;"/></g><g class="points"/><g class="text"/></g><g class="trace scatter trace67ca84" style="stroke-miterlimit: 2; opacity: 1;"><g class="fills"/><g class="errorbars"/><g class="lines"><path class="js-line" d="M0,666.88L4.03,666.88L8.06,665.9L12.09,665.9L24.17,666.88L60.43,666.88L64.46,665.9L68.49,666.88L72.52,666.88L80.58,666.88L84.61,665.9L88.63,666.88L92.66,666.88L124.89,666.88L128.92,665.9L132.95,664.93L136.98,666.88L157.13,666.88L161.15,254.5L165.18,566.46L169.21,515.77L173.24,528.44L177.27,479.7L181.3,475.8L185.33,442.65L189.36,496.27L193.38,493.35L197.41,401.71L201.44,441.68L205.47,404.63L209.5,390.01L213.53,410.48L217.56,436.8L221.59,461.17L225.62,341.26L229.64,382.21L233.67,313.97L237.7,355.89L241.73,341.26L245.76,368.56L249.79,383.18L253.82,262.3L257.85,219.4L261.88,270.1L265.9,255.47L269.93,188.21L273.96,155.06L277.99,238.9L282.02,35.15L286.05,88.77L290.08,62.45L294.11,116.07L298.13,67.32L302.16,179.43L306.19,399.76L310.22,235L314.25,328.59L318.28,256.45L322.31,283.75L326.34,287.65L330.37,316.89L334.39,413.41L338.42,224.28L342.45,316.89L346.48,240.85L350.51,297.39L354.54,335.41L358.57,395.86L362.6,413.41L370.65,355.89L374.68,415.35L378.71,297.39L382.74,344.19L386.77,451.43L390.8,413.41L394.83,263.27L398.86,373.43L402.88,364.66L406.91,306.17L410.94,221.35L414.97,332.49L419,344.19L423.03,348.09L427.06,279.85L431.09,301.29L435.12,312.02L439.14,369.54L443.17,432.9L447.2,338.34L451.23,129.71L455.26,174.56L459.29,372.46L463.32,324.69L467.35,254.5L471.38,421.2L475.4,454.35L479.43,322.74L483.46,452.4L487.49,427.05L491.52,454.35L495.55,422.18L503.61,497.25L507.63,443.63L511.66,479.7L515.69,446.55L519.72,493.35L523.75,496.27L527.78,580.11L531.81,522.59L535.84,489.45L539.87,468L543.89,492.37L547.92,497.25L551.95,488.47L555.98,510.89L560.01,494.32L564.04,469.95L568.07,499.19L572.1,493.35L576.13,406.58L580.15,557.69L584.18,541.12L588.21,547.94L592.24,535.27L596.27,529.42L600.3,568.41L604.33,538.19L608.36,556.71L612.38,563.54L616.41,577.19L620.44,465.07L624.47,519.67L628.5,533.32L632.53,530.39L636.56,550.86L640.59,567.44L644.62,563.54L648.64,497.25L652.67,506.02L656.7,503.09L660.73,507.97L664.76,547.94L668.79,544.04L672.82,553.79L676.85,524.54L680.88,511.87L684.9,551.84L688.93,562.56L692.96,522.59L696.99,567.44L701.02,593.76L705.05,536.24L709.08,570.36L713.11,585.96L717.13,568.41L721.16,588.88L725.19,585.96L729.22,579.14L733.25,580.11L737.28,592.78L741.31,563.54L745.34,579.14L749.37,561.59L753.39,590.83L757.42,593.76L761.45,554.76L765.48,591.81L769.51,585.96L773.54,566.46L777.57,590.83L781.6,595.71L785.63,577.19L789.65,533.32L793.68,550.86L797.71,553.79L801.74,563.54L805.77,558.66L809.8,550.86L813.83,550.86L817.86,534.29L821.88,528.44L825.91,545.99L829.94,550.86L833.97,545.99L838,537.22" style="vector-effect: non-scaling-stroke; fill: none; stroke: rgb(255, 127, 14); stroke-opacity: 1; stroke-width: 2px; opacity: 1;"/></g><g class="points"/><g class="text"/></g><g class="trace scatter trace3d0c72" style="stroke-miterlimit: 2; opacity: 1;"><g class="fills"/><g class="errorbars"/><g class="lines"><path class="js-line" d="M0,666.88L108.78,666.88L112.81,665.9L116.84,666.88L120.87,665.9L124.89,666.88L128.92,665.9L132.95,664.93L136.98,665.9L141.01,664.93L145.04,662L149.07,664.93L153.1,663.95L157.13,665.9L161.15,662.98L165.18,657.13L169.21,662.98L173.24,651.28L177.27,653.23L181.3,640.55L185.33,642.5L189.36,654.2L193.38,646.4L197.41,646.4L201.44,641.53L205.47,645.43L209.5,636.65L213.53,646.4L217.56,650.3L221.59,624.96L225.62,617.16L229.64,629.83L233.67,613.26L237.7,631.78L241.73,628.85L245.76,636.65L249.79,629.83L253.82,630.8L257.85,614.23L261.88,618.13L265.9,620.08L269.93,643.48L273.96,611.31L277.99,609.36L282.02,623.01L286.05,583.04L290.08,628.85L294.11,613.26L298.13,627.88L302.16,584.98L306.19,607.41L310.22,600.58L314.25,620.08L318.28,605.46L322.31,609.36L326.34,632.75L330.37,632.75L334.39,612.28L338.42,627.88L346.48,640.55L350.51,634.7L354.54,644.45L358.57,644.45L362.6,652.25L366.63,624.96L370.65,636.65L374.68,639.58L378.71,640.55L382.74,642.5L386.77,638.6L390.8,646.4L394.83,635.68L398.86,633.73L402.88,626.9L406.91,650.3L410.94,648.35L414.97,657.13L419,650.3L423.03,648.35L427.06,623.01L431.09,652.25L435.12,632.75L439.14,648.35L443.17,643.48L447.2,653.23L451.23,656.15L455.26,655.18L459.29,656.15L463.32,658.1L467.35,655.18L471.38,659.08L475.4,656.15L479.43,655.18L483.46,663.95L487.49,656.15L491.52,636.65L495.55,656.15L499.58,663.95L503.61,657.13L507.63,655.18L511.66,657.13L515.69,663.95L519.72,659.08L523.75,661.03L527.78,660.05L531.81,660.05L535.84,662.98L539.87,662.98L543.89,664.93L547.92,662L551.95,664.93L555.98,666.88L560.01,664.93L564.04,658.1L568.07,663.95L572.1,660.05L576.13,661.03L580.15,663.95L584.18,663.95L588.21,665.9L592.24,658.1L596.27,662L600.3,658.1L604.33,664.93L608.36,663.95L612.38,665.9L616.41,665.9L620.44,664.93L624.47,666.88L628.5,663.95L632.53,665.9L636.56,662.98L640.59,665.9L644.62,662.98L648.64,665.9L652.67,663.95L656.7,663.95L668.79,666.88L672.82,662.98L676.85,666.88L680.88,665.9L684.9,666.88L688.93,665.9L692.96,664.93L696.99,666.88L701.02,666.88L705.05,665.9L709.08,666.88L713.11,665.9L717.13,665.9L721.16,666.88L725.19,666.88L729.22,662.98L733.25,667.85L737.28,665.9L741.31,663.95L745.34,665.9L749.37,666.88L753.39,665.9L757.42,664.93L761.45,664.93L765.48,665.9L769.51,661.03L773.54,666.88L777.57,665.9L785.63,665.9L789.65,666.88L793.68,666.88L797.71,667.85L801.74,666.88L805.77,664.93L809.8,666.88L813.83,666.88L817.86,666.88L821.88,665.9L825.91,667.85L829.94,665.9L838,665.9" style="vector-effect: non-scaling-stroke; fill: none; stroke: rgb(44, 160, 44); stroke-opacity: 1; stroke-width: 2px; opacity: 1;"/></g><g class="points"/><g class="text"/></g></g></g><g class="overplot"/><path class="xlines-above crisp" style="fill: none;" d="M0,0"/><path class="ylines-above crisp" style="fill: none;" d="M0,0"/><g class="overlines-above"/><g class="xaxislayer-above"><g class="xtick"><text text-anchor="middle" x="0" y="741" transform="translate(108.35,0)" style="font-family: 'Open Sans', verdana, arial, sans-serif; font-size: 12px; fill: rgb(68, 68, 68); fill-opacity: 1; white-space: pre;">Mar 2020</text></g><g class="xtick"><text text-anchor="middle" x="0" y="741" transform="translate(233.24,0)" style="font-family: 'Open Sans', verdana, arial, sans-serif; font-size: 12px; fill: rgb(68, 68, 68); fill-opacity: 1; white-space: pre;">Apr 2020</text></g><g class="xtick"><text text-anchor="middle" x="0" y="741" transform="translate(354.11,0)" style="font-family: 'Open Sans', verdana, arial, sans-serif; font-size: 12px; fill: rgb(68, 68, 68); fill-opacity: 1; white-space: pre;">May 2020</text></g><g class="xtick"><text text-anchor="middle" x="0" y="741" transform="translate(479,0)" style="font-family: 'Open Sans', verdana, arial, sans-serif; font-size: 12px; fill: rgb(68, 68, 68); fill-opacity: 1; white-space: pre;">Jun 2020</text></g><g class="xtick"><text text-anchor="middle" x="0" y="741" transform="translate(599.87,0)" style="font-family: 'Open Sans', verdana, arial, sans-serif; font-size: 12px; fill: rgb(68, 68, 68); fill-opacity: 1; white-space: pre;">Jul 2020</text></g><g class="xtick"><text text-anchor="middle" x="0" y="741" transform="translate(724.76,0)" style="font-family: 'Open Sans', verdana, arial, sans-serif; font-size: 12px; fill: rgb(68, 68, 68); fill-opacity: 1; white-space: pre;">Aug 2020</text></g><g class="xtick"><text text-anchor="middle" x="0" y="741" transform="translate(849.65,0)" style="font-family: 'Open Sans', verdana, arial, sans-serif; font-size: 12px; fill: rgb(68, 68, 68); fill-opacity: 1; white-space: pre;">Sep 2020</text></g></g><g class="yaxislayer-above"><g class="ytick"><text text-anchor="end" x="59" y="4.199999999999999" transform="translate(0,691.88)" style="font-family: 'Open Sans', verdana, arial, sans-serif; font-size: 12px; fill: rgb(68, 68, 68); fill-opacity: 1; white-space: pre;">0</text></g><g class="ytick"><text text-anchor="end" x="59" y="4.199999999999999" transform="translate(0,594.39)" style="font-family: 'Open Sans', verdana, arial, sans-serif; font-size: 12px; fill: rgb(68, 68, 68); fill-opacity: 1; white-space: pre;">100</text></g><g class="ytick"><text text-anchor="end" x="59" y="4.199999999999999" transform="translate(0,496.9)" style="font-family: 'Open Sans', verdana, arial, sans-serif; font-size: 12px; fill: rgb(68, 68, 68); fill-opacity: 1; white-space: pre;">200</text></g><g class="ytick"><text text-anchor="end" x="59" y="4.199999999999999" transform="translate(0,399.41)" style="font-family: 'Open Sans', verdana, arial, sans-serif; font-size: 12px; fill: rgb(68, 68, 68); fill-opacity: 1; white-space: pre;">300</text></g><g class="ytick"><text text-anchor="end" x="59" y="4.199999999999999" transform="translate(0,301.92)" style="font-family: 'Open Sans', verdana, arial, sans-serif; font-size: 12px; fill: rgb(68, 68, 68); fill-opacity: 1; white-space: pre;">400</text></g><g class="ytick"><text text-anchor="end" x="59" y="4.199999999999999" transform="translate(0,204.43)" style="font-family: 'Open Sans', verdana, arial, sans-serif; font-size: 12px; fill: rgb(68, 68, 68); fill-opacity: 1; white-space: pre;">500</text></g><g class="ytick"><text text-anchor="end" x="59" y="4.199999999999999" transform="translate(0,106.94)" style="font-family: 'Open Sans', verdana, arial, sans-serif; font-size: 12px; fill: rgb(68, 68, 68); fill-opacity: 1; white-space: pre;">600</text></g></g><g class="overaxes-above"/></g></g><g class="polarlayer"/><g class="ternarylayer"/><g class="geolayer"/><g class="funnelarealayer"/><g class="pielayer"/><g class="treemaplayer"/><g class="sunburstlayer"/><g class="glimages"/><defs id="topdefs-0595f9"><g class="clips"/><clipPath id="legend0595f9"><rect width="102" height="67" x="0" y="0"/></clipPath></defs><g class="layer-above"><g class="imagelayer"/><g class="shapelayer"/></g><g class="infolayer"><g class="legend" pointer-events="all" transform="translate(914.76, 25)"><rect class="bg" shape-rendering="crispEdges" style="stroke: rgb(68, 68, 68); stroke-opacity: 1; fill: rgb(255, 255, 255); fill-opacity: 1; stroke-width: 0px;" width="102" height="67" x="0" y="0"/><g class="scrollbox" transform="translate(0, 0)" clip-path="url('#legend0595f9')"><g class="groups"><g class="traces" style="opacity: 1;" transform="translate(0, 14.5)"><text class="legendtext user-select-none" text-anchor="start" x="40" y="4.680000000000001" style="font-family: 'Open Sans', verdana, arial, sans-serif; font-size: 12px; fill: rgb(68, 68, 68); fill-opacity: 1; white-space: pre;">positive</text><g class="layers" style="opacity: 1;"><g class="legendfill"/><g class="legendlines"><path class="js-line" d="M5,0h30" style="fill: none; stroke: rgb(31, 119, 180); stroke-opacity: 1; stroke-width: 2px;"/></g><g class="legendsymbols"><g class="legendpoints"/></g></g><rect class="legendtoggle" pointer-events="all" x="0" y="-9.5" width="96.109375" height="19" style="cursor: pointer; fill: rgb(0, 0, 0); fill-opacity: 0;"/></g><g class="traces" style="opacity: 1;" transform="translate(0, 33.5)"><text class="legendtext user-select-none" text-anchor="start" x="40" y="4.680000000000001" style="font-family: 'Open Sans', verdana, arial, sans-serif; font-size: 12px; fill: rgb(68, 68, 68); fill-opacity: 1; white-space: pre;">resolved</text><g class="layers" style="opacity: 1;"><g class="legendfill"/><g class="legendlines"><path class="js-line" d="M5,0h30" style="fill: none; stroke: rgb(255, 127, 14); stroke-opacity: 1; stroke-width: 2px;"/></g><g class="legendsymbols"><g class="legendpoints"/></g></g><rect class="legendtoggle" pointer-events="all" x="0" y="-9.5" width="96.109375" height="19" style="cursor: pointer; fill: rgb(0, 0, 0); fill-opacity: 0;"/></g><g class="traces" style="opacity: 1;" transform="translate(0, 52.5)"><text class="legendtext user-select-none" text-anchor="start" x="40" y="4.680000000000001" style="font-family: 'Open Sans', verdana, arial, sans-serif; font-size: 12px; fill: rgb(68, 68, 68); fill-opacity: 1; white-space: pre;">deceased</text><g class="layers" style="opacity: 1;"><g class="legendfill"/><g class="legendlines"><path class="js-line" d="M5,0h30" style="fill: none; stroke: rgb(44, 160, 44); stroke-opacity: 1; stroke-width: 2px;"/></g><g class="legendsymbols"><g class="legendpoints"/></g></g><rect class="legendtoggle" pointer-events="all" x="0" y="-9.5" width="96.109375" height="19" style="cursor: pointer; fill: rgb(0, 0, 0); fill-opacity: 0;"/></g></g></g><rect class="scrollbar" rx="20" ry="3" width="0" height="0" style="fill: rgb(128, 139, 164); fill-opacity: 1;" x="0" y="0"/></g><g class="g-gtitle"><text class="gtitle" x="513.5" y="12.5" text-anchor="middle" dy="0em" style="font-family: 'Open Sans', verdana, arial, sans-serif; font-size: 17px; fill: rgb(68, 68, 68); opacity: 1; font-weight: normal; white-space: pre;">Dynamics of new cases, resolved cases and deaths in Ontario (Sep 14, 2020)</text></g><g class="g-xtitle" transform="translate(0,-15)"><text class="xtitle" x="479" y="780" text-anchor="middle" style="font-family: 'Open Sans', verdana, arial, sans-serif; font-size: 14px; fill: rgb(68, 68, 68); opacity: 1; font-weight: normal; white-space: pre;">Date</text></g><g class="g-ytitle"><text class="ytitle" transform="rotate(-90,22,376.5)" x="22" y="376.5" text-anchor="middle" style="font-family: 'Open Sans', verdana, arial, sans-serif; font-size: 14px; fill: rgb(68, 68, 68); opacity: 1; font-weight: normal; white-space: pre;">Number of cases</text></g></g></svg>