<svg class="main-svg" xmlns="http://www.w3.org/2000/svg" xmlns:xlink="http://www.w3.org/1999/xlink" width="1027" height="768" style="" viewBox="0 0 1027 768"><rect x="0" y="0" width="1027" height="768" style="fill: rgb(255, 255, 255); fill-opacity: 1;"/><defs id="defs-f939fe"><g class="clips"><clipPath id="clipf939fexyplot" class="plotclip"><rect width="838" height="703"/></clipPath><clipPath class="axesclip" id="clipf939fex"><rect x="60" y="0" width="838" height="768"/></clipPath><clipPath class="axesclip" id="clipf939fey"><rect x="0" y="25" width="1027" height="703"/></clipPath><clipPath class="axesclip" id="clipf939fexy"><rect x="60" y="25" width="838" height="703"/></clipPath></g><g class="gradients"/></defs><g class="bglayer"/><g class="layer-below"><g class="imagelayer"/><g class="shapelayer"/></g><g class="cartesianlayer"><g class="subplot xy"><g class="layer-subplot"><g class="shapelayer"/><g class="imagelayer"/></g><g class="gridlayer"><g class="x"><path class="xgrid crisp" transform="translate(96.3,0)" d="M0,25v703" style="stroke: rgb(238, 238, 238); stroke-opacity: 1; stroke-width: 1px;"/><path class="xgrid crisp" transform="translate(190.09,0)" d="M0,25v703" style="stroke: rgb(238, 238, 238); stroke-opacity: 1; stroke-width: 1px;"/><path class="xgrid crisp" transform="translate(280.84000000000003,0)" d="M0,25v703" style="stroke: rgb(238, 238, 238); stroke-opacity: 1; stroke-width: 1px;"/><path class="xgrid crisp" transform="translate(374.63,0)" d="M0,25v703" style="stroke: rgb(238, 238, 238); stroke-opacity: 1; stroke-width: 1px;"/><path class="xgrid crisp" transform="translate(465.39,0)" d="M0,25v703" style="stroke: rgb(238, 238, 238); stroke-opacity: 1; stroke-width: 1px;"/><path class="xgrid crisp" transform="translate(559.1700000000001,0)" d="M0,25v703" style="stroke: rgb(238, 238, 238); stroke-opacity: 1; stroke-width: 1px;"/><path class="xgrid crisp" transform="translate(652.95,0)" d="M0,25v703" style="stroke: rgb(238, 238, 238); stroke-opacity: 1; stroke-width: 1px;"/><path class="xgrid crisp" transform="translate(743.71,0)" d="M0,25v703" style="stroke: rgb(238, 238, 238); stroke-opacity: 1; stroke-width: 1px;"/><path class="xgrid crisp" transform="translate(837.49,0)" d="M0,25v703" style="stroke: rgb(238, 238, 238); stroke-opacity: 1; stroke-width: 1px;"/></g><g class="y"><path class="ygrid crisp" transform="translate(0,612.82)" d="M60,0h838" style="stroke: rgb(238, 238, 238); stroke-opacity: 1; stroke-width: 1px;"/><path class="ygrid crisp" transform="translate(0,533.1800000000001)" d="M60,0h838" style="stroke: rgb(238, 238, 238); stroke-opacity: 1; stroke-width: 1px;"/><path class="ygrid crisp" transform="translate(0,453.55)" d="M60,0h838" style="stroke: rgb(238, 238, 238); stroke-opacity: 1; stroke-width: 1px;"/><path class="ygrid crisp" transform="translate(0,373.91)" d="M60,0h838" style="stroke: rgb(238, 238, 238); stroke-opacity: 1; stroke-width: 1px;"/><path class="ygrid crisp" transform="translate(0,294.28)" d="M60,0h838" style="stroke: rgb(238, 238, 238); stroke-opacity: 1; stroke-width: 1px;"/><path class="ygrid crisp" transform="translate(0,214.64)" d="M60,0h838" style="stroke: rgb(238, 238, 238); stroke-opacity: 1; stroke-width: 1px;"/><path class="ygrid crisp" transform="translate(0,135.01)" d="M60,0h838" style="stroke: rgb(238, 238, 238); stroke-opacity: 1; stroke-width: 1px;"/><path class="ygrid crisp" transform="translate(0,55.370000000000005)" d="M60,0h838" style="stroke: rgb(238, 238, 238); stroke-opacity: 1; stroke-width: 1px;"/></g></g><g class="zerolinelayer"><path class="yzl zl crisp" transform="translate(0,692.45)" d="M60,0h838" style="stroke: rgb(68, 68, 68); stroke-opacity: 1; stroke-width: 1px;"/></g><path class="xlines-below"/><path class="ylines-below"/><g class="overlines-below"/><g class="xaxislayer-below"/><g class="yaxislayer-below"/><g class="overaxes-below"/><g class="plot" transform="translate(60, 25)" clip-path="url('#clipf939fexyplot')"><g class="scatterlayer mlayer"><g class="trace scatter trace4cdbf4" style="stroke-miterlimit: 2; opacity: 1;"><g class="fills"/><g class="errorbars"/><g class="lines"><path class="js-line" d="M0,667.45L9.08,667.85L18.15,667.05L27.23,667.05L30.25,667.05L39.33,662.67L42.35,666.66L45.38,667.45L48.4,667.05L51.43,665.86L54.45,666.66L60.51,664.66L63.53,667.45L66.56,665.06L69.58,660.68L75.63,657.9L78.66,650.73L81.68,654.71L84.71,663.07L87.73,657.5L90.76,650.33L93.78,643.56L96.81,644.76L99.83,649.93L102.86,636.79L105.88,634.4L108.91,629.63L111.94,600.56L114.96,614.89L117.99,607.73L121.01,432.93L124.04,563.93L127.06,497.83L130.09,507.78L133.11,483.49L136.14,518.14L139.16,505L142.19,544.42L145.21,516.54L148.24,448.46L151.26,475.13L154.29,477.12L157.31,503.8L160.34,507.78L163.36,499.82L166.39,475.13L169.42,470.75L172.44,462.79L175.47,442.88L178.49,474.34L181.52,441.29L184.54,426.16L187.57,448.06L190.59,464.38L193.62,415.01L196.64,412.62L199.67,477.92L202.69,493.45L205.72,498.63L208.74,458.41L211.77,529.29L214.79,484.69L217.82,499.82L220.84,463.98L223.87,494.64L226.9,520.13L229.92,513.36L232.95,503.4L235.97,508.58L239,477.52L242.02,529.68L245.05,550.39L248.07,544.81L251.1,523.71L254.12,536.45L257.15,530.08L260.17,531.67L263.2,511.77L266.22,532.07L269.25,546.41L272.27,497.43L275.3,512.16L278.32,503.01L281.35,491.86L284.38,503.4L287.4,484.29L290.43,506.59L293.45,553.18L296.48,551.18L299.5,514.95L302.53,530.48L305.55,538.84L308.58,537.65L311.6,506.59L314.63,489.87L317.65,532.87L320.68,525.7L323.7,530.48L326.73,486.28L329.75,502.21L332.78,570.7L335.81,575.87L338.83,567.51L341.86,586.62L344.88,594.98L347.91,561.54L350.93,589.01L353.96,595.38L356.98,594.19L360.01,591.8L363.03,598.57L366.06,596.58L369.08,585.43L372.11,597.77L375.13,603.35L378.16,581.45L381.18,602.55L384.21,592.2L387.23,623.25L390.26,603.74L393.29,596.58L396.31,565.12L399.34,604.94L402.36,608.12L405.39,606.53L408.41,601.75L411.44,619.27L417.49,606.13L420.51,622.86L423.54,620.47L426.56,599.76L429.59,621.26L432.61,615.69L435.64,616.09L438.66,621.26L441.69,623.25L444.71,626.84L447.74,623.25L450.77,623.25L453.79,601.35L456.82,602.15L459.84,613.7L462.87,586.62L465.89,601.75L468.92,626.44L471.94,589.81L474.97,612.5L477.99,612.9L481.02,620.07L484.04,623.25L487.07,637.19L490.09,632.01L493.12,614.1L499.17,621.26L502.19,632.41L505.22,631.22L508.25,633.21L511.27,629.63L514.3,632.41L517.32,639.58L520.35,636L523.37,621.66L526.4,654.31L529.42,629.63L532.45,636.39L538.5,625.25L541.52,635.2L544.55,628.03L547.57,617.68L553.62,637.19L556.65,615.29L559.68,624.45L562.7,621.66L565.73,625.64L568.75,627.63L571.78,632.41L574.8,620.47L577.83,618.87L580.85,608.52L583.88,622.86L586.9,622.06L589.93,622.86L592.95,614.49L595.98,614.89L599,608.52L602.03,600.16L605.05,604.54L608.08,591.8L611.1,593.79L614.13,608.12L617.16,599.76L620.18,582.64L623.21,575.08L626.23,586.22L629.26,542.82L632.28,567.51L635.31,542.03L638.33,550.79L641.36,507.78L644.38,505.39L647.41,522.12L653.46,477.12L656.48,534.06L659.51,504.6L662.53,504.6L665.56,494.25L668.58,471.95L671.61,388.73L674.64,446.86L677.66,418.59L680.69,453.23L683.71,375.99L686.74,407.44L689.76,442.08L692.79,422.57L695.81,449.25L698.84,435.32L701.86,350.11L704.89,293.57L710.94,409.04L713.96,346.12L716.99,370.41L720.01,380.37L723.04,355.68L726.06,383.95L729.09,346.92L732.12,405.45L735.14,387.14L738.17,340.55L741.19,352.89L744.22,332.59L747.24,338.56L750.27,278.04L753.29,252.55L756.32,328.6L759.34,338.16L762.37,335.37L765.39,295.56L768.42,310.69L771.44,263.3L774.47,278.43L777.49,289.98L780.52,249.37L783.55,274.45L786.57,270.07L789.6,268.08L792.62,216.72L795.65,138.68L798.67,172.92L801.7,114.78L804.72,99.65L807.75,40.33L810.77,111.6L813.8,37.94L816.82,170.53L819.85,75.37L822.87,170.13L825.9,103.24L828.92,185.66L834.97,35.15L838,56.65" style="vector-effect: non-scaling-stroke; fill: none; stroke: rgb(31, 119, 180); stroke-opacity: 1; stroke-width: 2px; opacity: 1;"/></g><g class="points"/><g class="text"/></g><g class="trace scatter tracedff95d" style="stroke-miterlimit: 2; opacity: 1;"><g class="fills"/><g class="errorbars"/><g class="lines"><path class="js-line" d="M0,667.45L96.81,667.05L99.83,666.66L102.86,667.45L105.88,667.45L117.99,667.45L121.01,499.02L124.04,626.44L127.06,605.73L130.09,610.91L133.11,591L136.14,589.41L139.16,575.87L142.19,597.77L145.21,596.58L148.24,559.15L151.26,575.47L154.29,560.34L157.31,554.37L160.34,562.73L163.36,573.48L166.39,583.44L169.42,534.46L172.44,551.18L175.47,523.31L178.49,540.43L181.52,534.46L184.54,545.61L187.57,551.58L190.59,502.21L193.62,484.69L196.64,505.39L199.67,499.42L202.69,471.95L205.72,458.41L208.74,492.65L211.77,409.43L214.79,431.33L217.82,420.58L220.84,442.48L223.87,422.57L226.9,468.36L229.92,558.35L232.95,491.06L235.97,529.29L239,499.82L242.02,510.97L245.05,512.56L248.07,524.51L251.1,563.93L254.12,486.68L257.15,524.51L260.17,493.45L263.2,516.54L266.22,532.07L269.25,556.76L272.27,563.93L278.32,540.43L281.35,564.72L284.38,516.54L287.4,535.66L290.43,579.46L293.45,563.93L296.48,502.61L299.5,547.6L302.53,544.02L305.55,520.13L308.58,485.49L311.6,530.88L314.63,535.66L317.65,537.25L320.68,509.38L323.7,518.14L326.73,522.52L329.75,546.01L332.78,571.89L335.81,533.27L338.83,448.06L341.86,466.37L344.88,547.2L347.91,527.69L350.93,499.02L353.96,567.11L356.98,580.65L360.01,526.9L363.03,579.85L366.06,569.5L369.08,580.65L372.11,567.51L378.16,598.17L381.18,576.27L384.21,591L387.23,577.46L390.26,596.58L393.29,597.77L396.31,632.01L399.34,608.52L402.36,594.98L405.39,586.22L408.41,596.18L411.44,598.17L414.46,594.59L417.49,603.74L420.51,596.97L423.54,587.02L426.56,598.97L429.59,596.58L432.61,561.14L435.64,622.86L438.66,616.09L441.69,618.87L444.71,613.7L447.74,611.31L450.77,627.24L453.79,614.89L456.82,622.46L459.84,625.25L462.87,630.82L465.89,585.03L468.92,607.33L471.94,612.9L474.97,611.71L477.99,620.07L481.02,626.84L484.04,625.25L487.07,598.17L490.09,601.75L493.12,600.56L496.14,602.55L499.17,618.87L502.19,617.28L505.22,621.26L508.25,609.32L511.27,604.14L514.3,620.47L517.32,624.85L520.35,608.52L523.37,626.84L526.4,637.59L529.42,614.1L532.45,628.03L535.47,634.4L538.5,627.24L541.52,635.6L544.55,634.4L547.57,631.62L550.6,632.01L553.62,637.19L556.65,625.25L559.68,631.62L562.7,624.45L565.73,636.39L568.75,637.59L571.78,621.66L574.8,636.79L577.83,634.4L580.85,626.44L583.88,636.39L586.9,638.39L589.93,630.82L592.95,612.9L595.98,620.07L599,621.26L602.03,625.25L605.05,623.25L608.08,620.07L611.1,620.07L614.13,613.3L617.16,610.91L620.18,618.08L623.21,620.07L626.23,618.08L629.26,614.49L632.28,620.87L635.31,606.13L638.33,596.18L641.36,597.37L644.38,596.97L647.41,591.4L650.43,596.58L653.46,589.41L656.48,564.72L659.51,553.57L662.53,554.77L665.56,532.87L668.58,552.38L671.61,535.66L674.64,538.84L677.66,485.49L680.69,462.39L683.71,497.03L686.74,494.25L689.76,454.83L695.81,450.05L698.84,385.94L701.86,390.72L704.89,379.17L707.91,388.73L710.94,386.74L716.99,418.99L720.01,355.68L723.04,357.27L726.06,383.55L729.09,395.9L732.12,394.7L735.14,425.76L738.17,417.4L741.19,381.16L744.22,372.4L747.24,375.59L750.27,418.59L753.29,374.4L756.32,397.09L759.34,392.31L762.37,359.66L765.39,340.95L768.42,350.5L771.44,349.71L774.47,323.43L777.49,338.56L780.52,334.18L783.55,291.18L786.57,289.98L789.6,289.58L792.62,328.21L795.65,318.25L798.67,340.55L801.7,356.48L804.72,314.67L807.75,302.33L810.77,262.11L813.8,268.08L816.82,244.59L819.85,272.46L822.87,215.52L825.9,72.18L828.92,119.56L831.95,104.03L834.97,124.74L838,98.46" style="vector-effect: non-scaling-stroke; fill: none; stroke: rgb(255, 127, 14); stroke-opacity: 1; stroke-width: 2px; opacity: 1;"/></g><g class="points"/><g class="text"/></g><g class="trace scatter traceaddc13" style="stroke-miterlimit: 2; opacity: 1;"><g class="fills"/><g class="errorbars"/><g class="lines"><path class="js-line" d="M0,667.45L96.81,667.05L99.83,666.66L102.86,667.05L105.88,666.66L108.91,665.46L111.94,666.66L114.96,666.26L117.99,667.05L121.01,665.86L124.04,663.47L127.06,665.86L130.09,661.08L133.11,661.88L136.14,656.7L139.16,657.5L142.19,662.28L145.21,659.09L148.24,659.09L151.26,657.1L154.29,658.69L157.31,655.11L160.34,659.09L163.36,660.68L166.39,650.33L169.42,647.14L172.44,652.32L175.47,645.55L178.49,653.12L181.52,651.92L184.54,655.11L187.57,652.32L190.59,652.72L193.62,645.95L196.64,647.54L199.67,648.34L202.69,657.9L205.72,644.76L208.74,643.96L211.77,649.53L214.79,633.21L217.82,651.92L220.84,645.55L223.87,651.52L226.9,634.01L229.92,643.16L232.95,640.38L235.97,648.34L239,642.37L242.02,643.96L245.05,653.52L248.07,653.52L251.1,645.15L254.12,651.52L257.15,654.31L260.17,656.7L263.2,654.31L266.22,658.29L269.25,658.29L272.27,661.48L275.3,650.33L278.32,655.11L281.35,656.3L287.4,657.5L290.43,655.9L293.45,659.09L296.48,654.71L299.5,653.91L302.53,651.13L305.55,660.68L308.58,659.89L311.6,663.47L314.63,660.68L317.65,659.89L320.68,649.53L323.7,661.48L326.73,653.52L329.75,659.89L332.78,657.9L335.81,661.88L338.83,663.07L341.86,662.67L344.88,663.07L347.91,663.87L350.93,662.67L353.96,664.27L356.98,663.07L360.01,662.67L363.03,666.26L366.06,663.07L369.08,655.11L372.11,663.07L375.13,666.26L378.16,663.47L381.18,662.67L384.21,663.47L387.23,666.26L390.26,664.27L393.29,665.06L399.34,664.66L402.36,665.86L405.39,665.86L408.41,666.66L411.44,665.46L414.46,666.66L417.49,667.45L420.51,666.66L423.54,663.87L426.56,666.26L429.59,664.66L432.61,665.06L435.64,666.26L438.66,666.26L441.69,667.05L444.71,663.87L447.74,665.46L450.77,663.87L453.79,666.66L456.82,666.26L459.84,667.05L462.87,667.05L465.89,666.66L468.92,667.45L471.94,666.26L474.97,667.05L477.99,665.86L481.02,667.05L484.04,665.86L487.07,667.05L490.09,666.26L493.12,666.26L502.19,667.45L505.22,665.86L508.25,667.45L511.27,667.05L514.3,667.45L517.32,667.05L520.35,666.66L523.37,667.45L544.55,667.45L547.57,665.86L550.6,667.85L553.62,667.05L556.65,666.26L559.68,667.05L562.7,667.45L565.73,667.05L571.78,666.66L574.8,667.05L577.83,665.06L580.85,667.45L586.9,667.05L589.93,667.05L599,667.85L602.03,667.45L605.05,666.66L608.08,667.45L617.16,667.05L620.18,667.85L623.21,667.05L626.23,667.05L629.26,667.05L632.28,665.86L635.31,666.66L638.33,666.26L641.36,667.45L644.38,667.05L650.43,666.66L653.46,666.26L656.48,666.26L659.51,667.05L665.56,667.45L668.58,666.66L671.61,667.05L674.64,665.86L680.69,666.26L683.71,637.19L689.76,664.66L692.79,665.46L695.81,664.66L698.84,667.05L704.89,665.46L707.91,664.66L710.94,667.05L713.96,666.26L716.99,663.87L720.01,667.45L726.06,663.87L729.09,663.47L732.12,665.46L735.14,665.86L738.17,666.26L741.19,663.87L747.24,663.87L750.27,665.06L753.29,664.66L756.32,665.06L759.34,665.86L762.37,665.46L765.39,663.47L768.42,663.87L774.47,663.87L777.49,664.66L780.52,661.88L783.55,661.08L786.57,662.28L789.6,661.88L792.62,663.07L795.65,662.28L798.67,662.67L801.7,661.48L804.72,661.48L807.75,660.28L813.8,659.49L816.82,655.9L819.85,663.47L822.87,662.67L825.9,654.71L828.92,656.3L831.95,664.27L834.97,659.09L838,661.88" style="vector-effect: non-scaling-stroke; fill: none; stroke: rgb(44, 160, 44); stroke-opacity: 1; stroke-width: 2px; opacity: 1;"/></g><g class="points"/><g class="text"/></g></g></g><g class="overplot"/><path class="xlines-above crisp" style="fill: none;" d="M0,0"/><path class="ylines-above crisp" style="fill: none;" d="M0,0"/><g class="overlines-above"/><g class="xaxislayer-above"><g class="xtick"><text text-anchor="middle" x="0" y="741" transform="translate(96.3,0)" style="font-family: 'Open Sans', verdana, arial, sans-serif; font-size: 12px; fill: rgb(68, 68, 68); fill-opacity: 1; white-space: pre;">Mar 2020</text></g><g class="xtick"><text text-anchor="middle" x="0" y="741" transform="translate(190.09,0)" style="font-family: 'Open Sans', verdana, arial, sans-serif; font-size: 12px; fill: rgb(68, 68, 68); fill-opacity: 1; white-space: pre;">Apr 2020</text></g><g class="xtick"><text text-anchor="middle" x="0" y="741" transform="translate(280.84000000000003,0)" style="font-family: 'Open Sans', verdana, arial, sans-serif; font-size: 12px; fill: rgb(68, 68, 68); fill-opacity: 1; white-space: pre;">May 2020</text></g><g class="xtick"><text text-anchor="middle" x="0" y="741" transform="translate(374.63,0)" style="font-family: 'Open Sans', verdana, arial, sans-serif; font-size: 12px; fill: rgb(68, 68, 68); fill-opacity: 1; white-space: pre;">Jun 2020</text></g><g class="xtick"><text text-anchor="middle" x="0" y="741" transform="translate(465.39,0)" style="font-family: 'Open Sans', verdana, arial, sans-serif; font-size: 12px; fill: rgb(68, 68, 68); fill-opacity: 1; white-space: pre;">Jul 2020</text></g><g class="xtick"><text text-anchor="middle" x="0" y="741" transform="translate(559.1700000000001,0)" style="font-family: 'Open Sans', verdana, arial, sans-serif; font-size: 12px; fill: rgb(68, 68, 68); fill-opacity: 1; white-space: pre;">Aug 2020</text></g><g class="xtick"><text text-anchor="middle" x="0" y="741" transform="translate(652.95,0)" style="font-family: 'Open Sans', verdana, arial, sans-serif; font-size: 12px; fill: rgb(68, 68, 68); fill-opacity: 1; white-space: pre;">Sep 2020</text></g><g class="xtick"><text text-anchor="middle" x="0" y="741" transform="translate(743.71,0)" style="font-family: 'Open Sans', verdana, arial, sans-serif; font-size: 12px; fill: rgb(68, 68, 68); fill-opacity: 1; white-space: pre;">Oct 2020</text></g><g class="xtick"><text text-anchor="middle" x="0" y="741" transform="translate(837.49,0)" style="font-family: 'Open Sans', verdana, arial, sans-serif; font-size: 12px; fill: rgb(68, 68, 68); fill-opacity: 1; white-space: pre;">Nov 2020</text></g></g><g class="yaxislayer-above"><g class="ytick"><text text-anchor="end" x="59" y="4.199999999999999" transform="translate(0,692.45)" style="font-family: 'Open Sans', verdana, arial, sans-serif; font-size: 12px; fill: rgb(68, 68, 68); fill-opacity: 1; white-space: pre;">0</text></g><g class="ytick"><text text-anchor="end" x="59" y="4.199999999999999" transform="translate(0,612.82)" style="font-family: 'Open Sans', verdana, arial, sans-serif; font-size: 12px; fill: rgb(68, 68, 68); fill-opacity: 1; white-space: pre;">200</text></g><g class="ytick"><text text-anchor="end" x="59" y="4.199999999999999" transform="translate(0,533.1800000000001)" style="font-family: 'Open Sans', verdana, arial, sans-serif; font-size: 12px; fill: rgb(68, 68, 68); fill-opacity: 1; white-space: pre;">400</text></g><g class="ytick"><text text-anchor="end" x="59" y="4.199999999999999" transform="translate(0,453.55)" style="font-family: 'Open Sans', verdana, arial, sans-serif; font-size: 12px; fill: rgb(68, 68, 68); fill-opacity: 1; white-space: pre;">600</text></g><g class="ytick"><text text-anchor="end" x="59" y="4.199999999999999" transform="translate(0,373.91)" style="font-family: 'Open Sans', verdana, arial, sans-serif; font-size: 12px; fill: rgb(68, 68, 68); fill-opacity: 1; white-space: pre;">800</text></g><g class="ytick"><text text-anchor="end" x="59" y="4.199999999999999" transform="translate(0,294.28)" style="font-family: 'Open Sans', verdana, arial, sans-serif; font-size: 12px; fill: rgb(68, 68, 68); fill-opacity: 1; white-space: pre;">1000</text></g><g class="ytick"><text text-anchor="end" x="59" y="4.199999999999999" transform="translate(0,214.64)" style="font-family: 'Open Sans', verdana, arial, sans-serif; font-size: 12px; fill: rgb(68, 68, 68); fill-opacity: 1; white-space: pre;">1200</text></g><g class="ytick"><text text-anchor="end" x="59" y="4.199999999999999" transform="translate(0,135.01)" style="font-family: 'Open Sans', verdana, arial, sans-serif; font-size: 12px; fill: rgb(68, 68, 68); fill-opacity: 1; white-space: pre;">1400</text></g><g class="ytick"><text text-anchor="end" x="59" y="4.199999999999999" transform="translate(0,55.370000000000005)" style="font-family: 'Open Sans', verdana, arial, sans-serif; font-size: 12px; fill: rgb(68, 68, 68); fill-opacity: 1; white-space: pre;">1600</text></g></g><g class="overaxes-above"/></g></g><g class="polarlayer"/><g class="ternarylayer"/><g class="geolayer"/><g class="funnelarealayer"/><g class="pielayer"/><g class="treemaplayer"/><g class="sunburstlayer"/><g class="glimages"/><defs id="topdefs-f939fe"><g class="clips"/><clipPath id="legendf939fe"><rect width="102" height="67" x="0" y="0"/></clipPath></defs><g class="layer-above"><g class="imagelayer"/><g class="shapelayer"/></g><g class="infolayer"><g class="legend" pointer-events="all" transform="translate(914.76, 25)"><rect class="bg" shape-rendering="crispEdges" style="stroke: rgb(68, 68, 68); stroke-opacity: 1; fill: rgb(255, 255, 255); fill-opacity: 1; stroke-width: 0px;" width="102" height="67" x="0" y="0"/><g class="scrollbox" transform="translate(0, 0)" clip-path="url('#legendf939fe')"><g class="groups"><g class="traces" style="opacity: 1;" transform="translate(0, 14.5)"><text class="legendtext user-select-none" text-anchor="start" x="40" y="4.680000000000001" style="font-family: 'Open Sans', verdana, arial, sans-serif; font-size: 12px; fill: rgb(68, 68, 68); fill-opacity: 1; white-space: pre;">positive</text><g class="layers" style="opacity: 1;"><g class="legendfill"/><g class="legendlines"><path class="js-line" d="M5,0h30" style="fill: none; stroke: rgb(31, 119, 180); stroke-opacity: 1; stroke-width: 2px;"/></g><g class="legendsymbols"><g class="legendpoints"/></g></g><rect class="legendtoggle" pointer-events="all" x="0" y="-9.5" width="96.109375" height="19" style="cursor: pointer; fill: rgb(0, 0, 0); fill-opacity: 0;"/></g><g class="traces" style="opacity: 1;" transform="translate(0, 33.5)"><text class="legendtext user-select-none" text-anchor="start" x="40" y="4.680000000000001" style="font-family: 'Open Sans', verdana, arial, sans-serif; font-size: 12px; fill: rgb(68, 68, 68); fill-opacity: 1; white-space: pre;">resolved</text><g class="layers" style="opacity: 1;"><g class="legendfill"/><g class="legendlines"><path class="js-line" d="M5,0h30" style="fill: none; stroke: rgb(255, 127, 14); stroke-opacity: 1; stroke-width: 2px;"/></g><g class="legendsymbols"><g class="legendpoints"/></g></g><rect class="legendtoggle" pointer-events="all" x="0" y="-9.5" width="96.109375" height="19" style="cursor: pointer; fill: rgb(0, 0, 0); fill-opacity: 0;"/></g><g class="traces" style="opacity: 1;" transform="translate(0, 52.5)"><text class="legendtext user-select-none" text-anchor="start" x="40" y="4.680000000000001" style="font-family: 'Open Sans', verdana, arial, sans-serif; font-size: 12px; fill: rgb(68, 68, 68); fill-opacity: 1; white-space: pre;">deceased</text><g class="layers" style="opacity: 1;"><g class="legendfill"/><g class="legendlines"><path class="js-line" d="M5,0h30" style="fill: none; stroke: rgb(44, 160, 44); stroke-opacity: 1; stroke-width: 2px;"/></g><g class="legendsymbols"><g class="legendpoints"/></g></g><rect class="legendtoggle" pointer-events="all" x="0" y="-9.5" width="96.109375" height="19" style="cursor: pointer; fill: rgb(0, 0, 0); fill-opacity: 0;"/></g></g></g><rect class="scrollbar" rx="20" ry="3" width="0" height="0" style="fill: rgb(128, 139, 164); fill-opacity: 1;" x="0" y="0"/></g><g class="g-gtitle"><text class="gtitle" x="513.5" y="12.5" text-anchor="middle" dy="0em" style="font-family: 'Open Sans', verdana, arial, sans-serif; font-size: 17px; fill: rgb(68, 68, 68); opacity: 1; font-weight: normal; white-space: pre;">Dynamics of new cases, resolved cases and deaths in Ontario (Nov 23, 2020)</text></g><g class="g-xtitle" transform="translate(0,-15)"><text class="xtitle" x="479" y="780" text-anchor="middle" style="font-family: 'Open Sans', verdana, arial, sans-serif; font-size: 14px; fill: rgb(68, 68, 68); opacity: 1; font-weight: normal; white-space: pre;">Date</text></g><g class="g-ytitle"><text class="ytitle" transform="rotate(-90,22,376.5)" x="22" y="376.5" text-anchor="middle" style="font-family: 'Open Sans', verdana, arial, sans-serif; font-size: 14px; fill: rgb(68, 68, 68); opacity: 1; font-weight: normal; white-space: pre;">Number of cases</text></g></g></svg>