<svg class="main-svg" xmlns="http://www.w3.org/2000/svg" xmlns:xlink="http://www.w3.org/1999/xlink" width="1027" height="768" style="" viewBox="0 0 1027 768"><rect x="0" y="0" width="1027" height="768" style="fill: rgb(255, 255, 255); fill-opacity: 1;"/><defs id="defs-3c20be"><g class="clips"><clipPath id="clip3c20bexyplot" class="plotclip"><rect width="838" height="687"/></clipPath><clipPath class="axesclip" id="clip3c20bex"><rect x="60" y="0" width="838" height="768"/></clipPath><clipPath class="axesclip" id="clip3c20bey"><rect x="0" y="25" width="1027" height="687"/></clipPath><clipPath class="axesclip" id="clip3c20bexy"><rect x="60" y="25" width="838" height="687"/></clipPath></g><g class="gradients"/></defs><g class="bglayer"/><g class="layer-below"><g class="imagelayer"/><g class="shapelayer"/></g><g class="cartesianlayer"><g class="subplot xy"><g class="layer-subplot"><g class="shapelayer"/><g class="imagelayer"/></g><g class="gridlayer"><g class="x"><path class="xgrid crisp" transform="translate(133.4,0)" d="M0,25v687" style="stroke: rgb(238, 238, 238); stroke-opacity: 1; stroke-width: 1px;"/><path class="xgrid crisp" transform="translate(219.04,0)" d="M0,25v687" style="stroke: rgb(238, 238, 238); stroke-opacity: 1; stroke-width: 1px;"/><path class="xgrid crisp" transform="translate(304.66999999999996,0)" d="M0,25v687" style="stroke: rgb(238, 238, 238); stroke-opacity: 1; stroke-width: 1px;"/><path class="xgrid crisp" transform="translate(390.31,0)" d="M0,25v687" style="stroke: rgb(238, 238, 238); stroke-opacity: 1; stroke-width: 1px;"/><path class="xgrid crisp" transform="translate(475.94,0)" d="M0,25v687" style="stroke: rgb(238, 238, 238); stroke-opacity: 1; stroke-width: 1px;"/><path class="xgrid crisp" transform="translate(561.5799999999999,0)" d="M0,25v687" style="stroke: rgb(238, 238, 238); stroke-opacity: 1; stroke-width: 1px;"/><path class="xgrid crisp" transform="translate(647.21,0)" d="M0,25v687" style="stroke: rgb(238, 238, 238); stroke-opacity: 1; stroke-width: 1px;"/><path class="xgrid crisp" transform="translate(732.85,0)" d="M0,25v687" style="stroke: rgb(238, 238, 238); stroke-opacity: 1; stroke-width: 1px;"/><path class="xgrid crisp" transform="translate(818.48,0)" d="M0,25v687" style="stroke: rgb(238, 238, 238); stroke-opacity: 1; stroke-width: 1px;"/></g><g class="y"><path class="ygrid crisp" transform="translate(0,581.43)" d="M60,0h838" style="stroke: rgb(238, 238, 238); stroke-opacity: 1; stroke-width: 1px;"/><path class="ygrid crisp" transform="translate(0,486.16)" d="M60,0h838" style="stroke: rgb(238, 238, 238); stroke-opacity: 1; stroke-width: 1px;"/><path class="ygrid crisp" transform="translate(0,390.89)" d="M60,0h838" style="stroke: rgb(238, 238, 238); stroke-opacity: 1; stroke-width: 1px;"/><path class="ygrid crisp" transform="translate(0,295.62)" d="M60,0h838" style="stroke: rgb(238, 238, 238); stroke-opacity: 1; stroke-width: 1px;"/><path class="ygrid crisp" transform="translate(0,200.35)" d="M60,0h838" style="stroke: rgb(238, 238, 238); stroke-opacity: 1; stroke-width: 1px;"/><path class="ygrid crisp" transform="translate(0,105.08)" d="M60,0h838" style="stroke: rgb(238, 238, 238); stroke-opacity: 1; stroke-width: 1px;"/></g></g><g class="zerolinelayer"><path class="yzl zl crisp" transform="translate(0,676.7)" d="M60,0h838" style="stroke: rgb(68, 68, 68); stroke-opacity: 1; stroke-width: 1px;"/></g><path class="xlines-below"/><path class="ylines-below"/><g class="overlines-below"/><g class="xaxislayer-below"/><g class="yaxislayer-below"/><g class="overaxes-below"/><g class="plot" transform="translate(60, 25)" clip-path="url('#clip3c20bexyplot')"><g class="scatterlayer mlayer"><g class="trace scatter trace5af771" style="stroke-miterlimit: 2; opacity: 1;"><g class="fills"/><g class="errorbars"/><g class="lines"><path class="js-line" d="M0,651.7L6.12,651.7L12.23,652.65L18.35,652.65L36.7,650.74L48.93,651.7L55.05,650.74L61.17,650.74L79.52,640.26L85.64,649.79L91.75,651.7L97.87,650.74L103.99,647.89L110.1,649.79L122.34,645.03L128.45,651.7L134.57,645.98L140.69,635.5L146.8,632.64L152.92,628.83L159.04,611.68L165.15,621.21L171.27,641.22L177.39,627.88L183.5,610.73L189.62,594.54L195.74,597.39L201.85,609.78L207.97,578.34L214.09,572.62L220.2,561.19L226.32,491.64L232.44,525.94L238.55,508.79L244.67,90.56L250.79,404L256.91,245.85L263.02,269.67L269.14,211.55L275.26,294.44L281.37,263L287.49,357.31L293.61,290.63L299.72,127.71L305.84,191.54L311.96,196.31L318.07,260.14L324.19,269.67L330.31,250.61L336.42,191.54L342.54,181.07L348.66,162.01L354.77,114.38L360.89,189.64L367.01,110.57L373.12,74.36L379.24,126.76L385.36,165.82L391.47,47.69L397.59,41.97L403.71,198.21L409.82,235.37L415.94,247.75L422.06,151.53L428.18,321.11L434.29,214.41L440.41,250.61L446.53,164.87L452.64,238.23L458.76,299.2L464.88,283L470.99,259.19L477.11,271.57L483.23,197.26L489.34,322.06L495.46,371.6L501.58,358.27L507.69,307.77L513.81,338.26L519.93,323.02L526.04,326.83L532.16,279.19L538.28,327.78L544.39,362.08L550.51,244.9L556.63,280.15L562.74,258.23L568.86,231.56L574.98,259.19L581.09,213.46L587.21,266.81L593.33,378.27L599.45,373.51L605.56,286.81L611.68,323.97L617.8,343.98L623.91,341.12L630.03,266.81L636.15,226.79L642.26,329.69L648.38,312.54L654.5,323.97L660.61,218.22L666.73,256.33L672.85,420.19L678.96,432.58L685.08,412.57L691.2,458.3L697.31,478.31L703.43,398.28L709.55,464.02L715.66,479.26L721.78,476.4L727.9,470.68L734.01,486.88L740.13,482.12L746.25,455.44L752.36,484.98L758.48,498.31L764.6,445.91L770.72,496.41L776.83,471.64L782.95,545.95L789.07,499.27L795.18,482.12L801.3,406.85L807.42,502.12L813.53,509.75L819.65,505.93L825.77,494.5L831.88,536.42L838,520.23" style="vector-effect: non-scaling-stroke; fill: none; stroke: rgb(31, 119, 180); stroke-opacity: 1; stroke-width: 2px; opacity: 1;"/></g><g class="points"/><g class="text"/></g><g class="trace scatter trace4acba3" style="stroke-miterlimit: 2; opacity: 1;"><g class="fills"/><g class="errorbars"/><g class="lines"><path class="js-line" d="M0,651.7L6.12,651.7L12.23,650.74L18.35,650.74L36.7,651.7L91.75,651.7L97.87,650.74L103.99,651.7L110.1,651.7L122.34,651.7L128.45,650.74L134.57,651.7L140.69,651.7L189.62,651.7L195.74,650.74L201.85,649.79L207.97,651.7L238.55,651.7L244.67,248.71L250.79,553.57L256.91,504.03L263.02,516.41L269.14,468.78L275.26,464.97L281.37,432.58L287.49,484.98L293.61,482.12L299.72,392.56L305.84,431.62L311.96,395.42L318.07,381.13L324.19,401.14L330.31,426.86L336.42,450.68L342.54,333.5L348.66,373.51L354.77,306.82L360.89,347.79L367.01,333.5L373.12,360.17L379.24,374.46L385.36,256.33L391.47,214.41L397.59,263.95L403.71,249.66L409.82,183.92L415.94,151.53L422.06,233.46L428.18,34.35L434.29,86.75L440.41,61.03L446.53,113.42L452.64,65.79L458.76,175.35L464.88,390.66L470.99,229.65L477.11,321.11L483.23,250.61L489.34,277.29L495.46,281.1L501.58,309.68L507.69,404L513.81,219.17L519.93,309.68L526.04,235.37L532.16,290.63L538.28,327.78L544.39,386.85L550.51,404L556.63,373.51L562.74,347.79L568.86,405.9L574.98,290.63L581.09,336.35L587.21,441.15L593.33,404L599.45,257.28L605.56,364.94L611.68,356.36L617.8,299.2L623.91,216.32L630.03,324.92L636.15,336.35L642.26,340.17L648.38,273.48L654.5,294.44L660.61,304.92L672.85,423.05L678.96,330.64L685.08,126.76L691.2,170.59L697.31,363.98L703.43,317.3L709.55,248.71L715.66,411.62L721.78,444.01L727.9,315.4L734.01,442.1L740.13,417.33L746.25,444.01L752.36,412.57L764.6,485.93L770.72,433.53L776.83,468.78L782.95,436.39L789.07,482.12L795.18,484.98L801.3,566.91L807.42,510.7L813.53,478.31L819.65,457.35L825.77,481.16L831.88,485.93L838,477.35" style="vector-effect: non-scaling-stroke; fill: none; stroke: rgb(255, 127, 14); stroke-opacity: 1; stroke-width: 2px; opacity: 1;"/></g><g class="points"/><g class="text"/></g><g class="trace scatter trace7b30c9" style="stroke-miterlimit: 2; opacity: 1;"><g class="fills"/><g class="errorbars"/><g class="lines"><path class="js-line" d="M0,651.7L165.15,651.7L171.27,650.74L177.39,651.7L183.5,650.74L189.62,651.7L195.74,650.74L201.85,649.79L207.97,650.74L214.09,649.79L220.2,646.93L226.32,649.79L232.44,648.84L238.55,650.74L244.67,647.89L250.79,642.17L256.91,647.89L263.02,636.45L269.14,638.36L275.26,625.97L281.37,627.88L287.49,639.31L293.61,631.69L299.72,631.69L305.84,626.93L311.96,630.74L318.07,622.16L324.19,631.69L330.31,635.5L336.42,610.73L342.54,603.11L348.66,615.49L354.77,599.3L360.89,617.4L367.01,614.54L373.12,622.16L379.24,615.49L385.36,616.45L391.47,600.25L397.59,604.06L403.71,605.97L409.82,628.83L415.94,597.39L422.06,595.49L428.18,608.83L434.29,569.77L440.41,614.54L446.53,599.3L452.64,613.59L458.76,571.67L464.88,593.58L470.99,586.91L477.11,605.97L483.23,591.68L489.34,595.49L495.46,618.35L501.58,618.35L507.69,598.35L513.81,613.59L526.04,625.97L532.16,620.26L538.28,629.79L544.39,629.79L550.51,637.41L556.63,610.73L562.74,622.16L568.86,625.02L574.98,625.97L581.09,627.88L587.21,624.07L593.33,631.69L599.45,621.21L605.56,619.31L611.68,612.64L617.8,635.5L623.91,633.6L630.03,642.17L636.15,635.5L642.26,633.6L648.38,608.83L654.5,637.41L660.61,618.35L666.73,633.6L672.85,628.83L678.96,638.36L685.08,641.22L691.2,640.26L697.31,641.22L703.43,643.12L709.55,640.26L715.66,644.08L721.78,641.22L727.9,640.26L734.01,648.84L740.13,641.22L746.25,622.16L752.36,641.22L758.48,648.84L764.6,642.17L770.72,640.26L776.83,642.17L782.95,648.84L789.07,644.08L795.18,645.98L801.3,645.03L807.42,645.03L813.53,647.89L819.65,647.89L825.77,649.79L831.88,646.93L838,649.79" style="vector-effect: non-scaling-stroke; fill: none; stroke: rgb(44, 160, 44); stroke-opacity: 1; stroke-width: 2px; opacity: 1;"/></g><g class="points"/><g class="text"/></g></g></g><g class="overplot"/><path class="xlines-above crisp" style="fill: none;" d="M0,0"/><path class="ylines-above crisp" style="fill: none;" d="M0,0"/><g class="overlines-above"/><g class="xaxislayer-above"><g class="xtick"><text text-anchor="middle" x="0" y="725" transform="translate(133.4,0)" style="font-family: 'Open Sans', verdana, arial, sans-serif; font-size: 12px; fill: rgb(68, 68, 68); fill-opacity: 1; white-space: pre;"><tspan class="line" dy="0em" x="0" y="725">Mar 1</tspan><tspan class="line" dy="1.3em" x="0" y="725">2020</tspan></text></g><g class="xtick"><text text-anchor="middle" x="0" y="725" transform="translate(219.04,0)" style="font-family: 'Open Sans', verdana, arial, sans-serif; font-size: 12px; fill: rgb(68, 68, 68); fill-opacity: 1; white-space: pre;">Mar 15</text></g><g class="xtick"><text text-anchor="middle" x="0" y="725" transform="translate(304.66999999999996,0)" style="font-family: 'Open Sans', verdana, arial, sans-serif; font-size: 12px; fill: rgb(68, 68, 68); fill-opacity: 1; white-space: pre;">Mar 29</text></g><g class="xtick"><text text-anchor="middle" x="0" y="725" transform="translate(390.31,0)" style="font-family: 'Open Sans', verdana, arial, sans-serif; font-size: 12px; fill: rgb(68, 68, 68); fill-opacity: 1; white-space: pre;">Apr 12</text></g><g class="xtick"><text text-anchor="middle" x="0" y="725" transform="translate(475.94,0)" style="font-family: 'Open Sans', verdana, arial, sans-serif; font-size: 12px; fill: rgb(68, 68, 68); fill-opacity: 1; white-space: pre;">Apr 26</text></g><g class="xtick"><text text-anchor="middle" x="0" y="725" transform="translate(561.5799999999999,0)" style="font-family: 'Open Sans', verdana, arial, sans-serif; font-size: 12px; fill: rgb(68, 68, 68); fill-opacity: 1; white-space: pre;">May 10</text></g><g class="xtick"><text text-anchor="middle" x="0" y="725" transform="translate(647.21,0)" style="font-family: 'Open Sans', verdana, arial, sans-serif; font-size: 12px; fill: rgb(68, 68, 68); fill-opacity: 1; white-space: pre;">May 24</text></g><g class="xtick"><text text-anchor="middle" x="0" y="725" transform="translate(732.85,0)" style="font-family: 'Open Sans', verdana, arial, sans-serif; font-size: 12px; fill: rgb(68, 68, 68); fill-opacity: 1; white-space: pre;">Jun 7</text></g><g class="xtick"><text text-anchor="middle" x="0" y="725" transform="translate(818.48,0)" style="font-family: 'Open Sans', verdana, arial, sans-serif; font-size: 12px; fill: rgb(68, 68, 68); fill-opacity: 1; white-space: pre;">Jun 21</text></g></g><g class="yaxislayer-above"><g class="ytick"><text text-anchor="end" x="59" y="4.199999999999999" transform="translate(0,676.7)" style="font-family: 'Open Sans', verdana, arial, sans-serif; font-size: 12px; fill: rgb(68, 68, 68); fill-opacity: 1; white-space: pre;">0</text></g><g class="ytick"><text text-anchor="end" x="59" y="4.199999999999999" transform="translate(0,581.43)" style="font-family: 'Open Sans', verdana, arial, sans-serif; font-size: 12px; fill: rgb(68, 68, 68); fill-opacity: 1; white-space: pre;">100</text></g><g class="ytick"><text text-anchor="end" x="59" y="4.199999999999999" transform="translate(0,486.16)" style="font-family: 'Open Sans', verdana, arial, sans-serif; font-size: 12px; fill: rgb(68, 68, 68); fill-opacity: 1; white-space: pre;">200</text></g><g class="ytick"><text text-anchor="end" x="59" y="4.199999999999999" transform="translate(0,390.89)" style="font-family: 'Open Sans', verdana, arial, sans-serif; font-size: 12px; fill: rgb(68, 68, 68); fill-opacity: 1; white-space: pre;">300</text></g><g class="ytick"><text text-anchor="end" x="59" y="4.199999999999999" transform="translate(0,295.62)" style="font-family: 'Open Sans', verdana, arial, sans-serif; font-size: 12px; fill: rgb(68, 68, 68); fill-opacity: 1; white-space: pre;">400</text></g><g class="ytick"><text text-anchor="end" x="59" y="4.199999999999999" transform="translate(0,200.35)" style="font-family: 'Open Sans', verdana, arial, sans-serif; font-size: 12px; fill: rgb(68, 68, 68); fill-opacity: 1; white-space: pre;">500</text></g><g class="ytick"><text text-anchor="end" x="59" y="4.199999999999999" transform="translate(0,105.08)" style="font-family: 'Open Sans', verdana, arial, sans-serif; font-size: 12px; fill: rgb(68, 68, 68); fill-opacity: 1; white-space: pre;">600</text></g></g><g class="overaxes-above"/></g></g><g class="polarlayer"/><g class="ternarylayer"/><g class="geolayer"/><g class="funnelarealayer"/><g class="pielayer"/><g class="treemaplayer"/><g class="sunburstlayer"/><g class="glimages"/><defs id="topdefs-3c20be"><g class="clips"/><clipPath id="legend3c20be"><rect width="102" height="67" x="0" y="0"/></clipPath></defs><g class="layer-above"><g class="imagelayer"/><g class="shapelayer"/></g><g class="infolayer"><g class="legend" pointer-events="all" transform="translate(914.76, 25)"><rect class="bg" shape-rendering="crispEdges" style="stroke: rgb(68, 68, 68); stroke-opacity: 1; fill: rgb(255, 255, 255); fill-opacity: 1; stroke-width: 0px;" width="102" height="67" x="0" y="0"/><g class="scrollbox" transform="translate(0, 0)" clip-path="url('#legend3c20be')"><g class="groups"><g class="traces" style="opacity: 1;" transform="translate(0, 14.5)"><text class="legendtext user-select-none" text-anchor="start" x="40" y="4.680000000000001" style="font-family: 'Open Sans', verdana, arial, sans-serif; font-size: 12px; fill: rgb(68, 68, 68); fill-opacity: 1; white-space: pre;">positive</text><g class="layers" style="opacity: 1;"><g class="legendfill"/><g class="legendlines"><path class="js-line" d="M5,0h30" style="fill: none; stroke: rgb(31, 119, 180); stroke-opacity: 1; stroke-width: 2px;"/></g><g class="legendsymbols"><g class="legendpoints"/></g></g><rect class="legendtoggle" pointer-events="all" x="0" y="-9.5" width="96.109375" height="19" style="cursor: pointer; fill: rgb(0, 0, 0); fill-opacity: 0;"/></g><g class="traces" style="opacity: 1;" transform="translate(0, 33.5)"><text class="legendtext user-select-none" text-anchor="start" x="40" y="4.680000000000001" style="font-family: 'Open Sans', verdana, arial, sans-serif; font-size: 12px; fill: rgb(68, 68, 68); fill-opacity: 1; white-space: pre;">resolved</text><g class="layers" style="opacity: 1;"><g class="legendfill"/><g class="legendlines"><path class="js-line" d="M5,0h30" style="fill: none; stroke: rgb(255, 127, 14); stroke-opacity: 1; stroke-width: 2px;"/></g><g class="legendsymbols"><g class="legendpoints"/></g></g><rect class="legendtoggle" pointer-events="all" x="0" y="-9.5" width="96.109375" height="19" style="cursor: pointer; fill: rgb(0, 0, 0); fill-opacity: 0;"/></g><g class="traces" style="opacity: 1;" transform="translate(0, 52.5)"><text class="legendtext user-select-none" text-anchor="start" x="40" y="4.680000000000001" style="font-family: 'Open Sans', verdana, arial, sans-serif; font-size: 12px; fill: rgb(68, 68, 68); fill-opacity: 1; white-space: pre;">deceased</text><g class="layers" style="opacity: 1;"><g class="legendfill"/><g class="legendlines"><path class="js-line" d="M5,0h30" style="fill: none; stroke: rgb(44, 160, 44); stroke-opacity: 1; stroke-width: 2px;"/></g><g class="legendsymbols"><g class="legendpoints"/></g></g><rect class="legendtoggle" pointer-events="all" x="0" y="-9.5" width="96.109375" height="19" style="cursor: pointer; fill: rgb(0, 0, 0); fill-opacity: 0;"/></g></g></g><rect class="scrollbar" rx="20" ry="3" width="0" height="0" style="fill: rgb(128, 139, 164); fill-opacity: 1;" x="0" y="0"/></g><g class="g-gtitle"><text class="gtitle" x="513.5" y="12.5" text-anchor="middle" dy="0em" style="font-family: 'Open Sans', verdana, arial, sans-serif; font-size: 17px; fill: rgb(68, 68, 68); opacity: 1; font-weight: normal; white-space: pre;">Dynamics of new cases, resolved cases and deaths in Ontario (Jul 05, 2020)</text></g><g class="g-xtitle"><text class="xtitle" x="479" y="764" text-anchor="middle" style="font-family: 'Open Sans', verdana, arial, sans-serif; font-size: 14px; fill: rgb(68, 68, 68); opacity: 1; font-weight: normal; white-space: pre;">Date</text></g><g class="g-ytitle"><text class="ytitle" transform="rotate(-90,22,368.5)" x="22" y="368.5" text-anchor="middle" style="font-family: 'Open Sans', verdana, arial, sans-serif; font-size: 14px; fill: rgb(68, 68, 68); opacity: 1; font-weight: normal; white-space: pre;">Number of cases</text></g></g></svg>