<svg class="main-svg" xmlns="http://www.w3.org/2000/svg" xmlns:xlink="http://www.w3.org/1999/xlink" width="1027" height="768" style="" viewBox="0 0 1027 768"><rect x="0" y="0" width="1027" height="768" style="fill: rgb(255, 255, 255); fill-opacity: 1;"/><defs id="defs-ac5cb8"><g class="clips"><clipPath id="clipac5cb8xyplot" class="plotclip"><rect width="838" height="703"/></clipPath><clipPath class="axesclip" id="clipac5cb8x"><rect x="60" y="0" width="838" height="768"/></clipPath><clipPath class="axesclip" id="clipac5cb8y"><rect x="0" y="25" width="1027" height="703"/></clipPath><clipPath class="axesclip" id="clipac5cb8xy"><rect x="60" y="25" width="838" height="703"/></clipPath></g><g class="gradients"/></defs><g class="bglayer"/><g class="layer-below"><g class="imagelayer"/><g class="shapelayer"/></g><g class="cartesianlayer"><g class="subplot xy"><g class="layer-subplot"><g class="shapelayer"/><g class="imagelayer"/></g><g class="gridlayer"><g class="x"><path class="xgrid crisp" transform="translate(100.39,0)" d="M0,25v703" style="stroke: rgb(238, 238, 238); stroke-opacity: 1; stroke-width: 1px;"/><path class="xgrid crisp" transform="translate(204.71,0)" d="M0,25v703" style="stroke: rgb(238, 238, 238); stroke-opacity: 1; stroke-width: 1px;"/><path class="xgrid crisp" transform="translate(305.68,0)" d="M0,25v703" style="stroke: rgb(238, 238, 238); stroke-opacity: 1; stroke-width: 1px;"/><path class="xgrid crisp" transform="translate(410.01,0)" d="M0,25v703" style="stroke: rgb(238, 238, 238); stroke-opacity: 1; stroke-width: 1px;"/><path class="xgrid crisp" transform="translate(510.97,0)" d="M0,25v703" style="stroke: rgb(238, 238, 238); stroke-opacity: 1; stroke-width: 1px;"/><path class="xgrid crisp" transform="translate(615.3,0)" d="M0,25v703" style="stroke: rgb(238, 238, 238); stroke-opacity: 1; stroke-width: 1px;"/><path class="xgrid crisp" transform="translate(719.63,0)" d="M0,25v703" style="stroke: rgb(238, 238, 238); stroke-opacity: 1; stroke-width: 1px;"/><path class="xgrid crisp" transform="translate(820.59,0)" d="M0,25v703" style="stroke: rgb(238, 238, 238); stroke-opacity: 1; stroke-width: 1px;"/></g><g class="y"><path class="ygrid crisp" transform="translate(0,570.92)" d="M60,0h838" style="stroke: rgb(238, 238, 238); stroke-opacity: 1; stroke-width: 1px;"/><path class="ygrid crisp" transform="translate(0,449.6)" d="M60,0h838" style="stroke: rgb(238, 238, 238); stroke-opacity: 1; stroke-width: 1px;"/><path class="ygrid crisp" transform="translate(0,328.27)" d="M60,0h838" style="stroke: rgb(238, 238, 238); stroke-opacity: 1; stroke-width: 1px;"/><path class="ygrid crisp" transform="translate(0,206.95)" d="M60,0h838" style="stroke: rgb(238, 238, 238); stroke-opacity: 1; stroke-width: 1px;"/><path class="ygrid crisp" transform="translate(0,85.63)" d="M60,0h838" style="stroke: rgb(238, 238, 238); stroke-opacity: 1; stroke-width: 1px;"/></g></g><g class="zerolinelayer"><path class="yzl zl crisp" transform="translate(0,692.24)" d="M60,0h838" style="stroke: rgb(68, 68, 68); stroke-opacity: 1; stroke-width: 1px;"/></g><path class="xlines-below"/><path class="ylines-below"/><g class="overlines-below"/><g class="xaxislayer-below"/><g class="yaxislayer-below"/><g class="overaxes-below"/><g class="plot" transform="translate(60, 25)" clip-path="url('#clipac5cb8xyplot')"><g class="scatterlayer mlayer"><g class="trace scatter trace916192" style="stroke-miterlimit: 2; opacity: 1;"><g class="fills"/><g class="errorbars"/><g class="lines"><path class="js-line" d="M0,667.24L10.1,667.85L20.19,666.64L26.92,667.24L30.29,666.64L33.65,666.64L43.75,659.96L47.12,666.03L50.48,667.24L53.85,666.64L57.21,664.82L60.58,666.03L67.31,663L70.67,667.24L74.04,663.6L77.41,656.93L80.77,655.11L84.14,652.68L87.5,641.77L90.87,647.83L94.23,660.57L97.6,652.08L100.96,641.16L104.33,630.85L107.69,632.67L111.06,640.55L114.43,620.53L117.79,616.89L121.16,609.61L124.52,565.33L127.89,587.17L131.25,576.25L134.62,309.95L137.98,509.52L141.35,408.83L144.71,423.99L148.08,386.99L151.45,439.76L154.81,419.74L158.18,479.8L161.54,437.34L164.91,333.6L168.27,374.25L171.64,377.28L175,417.92L178.37,423.99L181.73,411.86L185.1,374.25L188.47,367.58L191.83,355.44L195.2,325.11L198.56,373.03L201.93,322.69L205.29,299.63L208.66,333L212.02,357.87L215.39,282.65L218.76,279.01L222.12,378.49L225.49,402.15L228.85,410.04L232.22,348.77L235.58,456.75L238.95,388.81L242.31,411.86L245.68,357.26L249.04,403.97L252.41,442.8L255.78,432.48L259.14,417.32L262.51,425.2L265.87,377.89L269.24,457.35L272.6,488.9L275.97,480.41L279.33,448.26L282.7,467.67L286.06,457.96L289.43,460.39L292.8,430.06L296.16,460.99L299.53,482.83L302.89,408.22L306.26,430.66L309.62,416.71L312.99,399.73L316.35,417.32L319.72,388.2L323.08,422.17L326.45,493.14L329.82,490.11L333.18,434.91L336.55,458.57L339.91,471.31L343.28,469.49L346.64,422.17L350.01,396.69L353.37,462.21L356.74,451.29L360.1,458.57L363.47,391.23L366.84,415.5L370.2,519.84L373.57,527.72L376.93,514.98L380.3,544.1L383.66,556.84L387.03,505.88L390.39,547.74L393.76,557.45L397.12,555.63L400.49,551.99L403.86,562.3L407.22,559.27L410.59,542.28L413.95,561.09L417.32,569.58L420.68,536.21L424.05,568.37L427.41,552.59L430.78,599.91L434.14,570.18L437.51,559.27L440.88,511.34L444.24,572L447.61,576.86L450.97,574.43L454.34,567.15L457.7,593.84L464.43,573.82L467.8,599.3L471.16,595.66L474.53,564.12L477.9,596.88L481.26,588.38L484.63,588.99L487.99,596.88L491.36,599.91L494.72,605.37L498.09,599.91L501.45,599.91L504.82,566.55L508.18,567.76L511.55,585.35L514.92,544.1L518.28,567.15L521.65,604.76L525.01,548.95L528.38,583.53L531.74,584.14L535.11,595.06L538.47,599.91L541.84,621.14L545.2,613.25L548.57,585.96L555.3,596.88L558.67,613.86L562.03,612.04L565.4,615.07L568.76,609.61L572.13,613.86L575.49,624.78L578.86,619.32L582.22,597.48L585.59,647.23L588.96,609.61L592.32,619.93L599.05,602.94L602.42,618.11L605.78,607.19L609.15,591.42L615.88,621.14L619.24,587.78L622.61,601.73L625.98,597.48L629.34,603.55L632.71,606.58L636.07,613.86L639.44,595.66L642.8,593.24L646.17,577.46L649.53,599.3L652.9,598.09L656.27,599.3L659.63,586.56L663,587.17L666.36,577.46L669.73,564.73L673.09,571.4L676.46,551.99L679.82,555.02L683.19,576.86L686.55,564.12L689.92,538.03L693.29,526.51L696.65,543.49L700.02,477.37L703.38,514.98L706.75,476.16L710.11,489.51L713.48,423.99L716.84,420.35L720.21,445.83L726.94,377.28L730.31,464.03L733.67,419.14L737.04,419.14L740.4,403.37L743.77,369.4L747.13,242.61L750.5,331.18L753.86,288.11L757.23,340.88L760.59,223.2L763.96,271.12L767.33,323.9L770.69,294.17L774.06,334.82L777.42,313.59L780.79,183.77L784.15,97.63L787.52,176.49L790.88,273.55L794.25,177.7L797.61,214.71L800.98,229.87L804.35,192.26L807.71,235.33L811.08,178.92L814.44,268.09L817.81,240.19L821.17,169.21L824.54,188.02L827.9,157.08L831.27,166.18L834.63,73.97L838,35.15" style="vector-effect: non-scaling-stroke; fill: none; stroke: rgb(31, 119, 180); stroke-opacity: 1; stroke-width: 2px; opacity: 1;"/></g><g class="points"/><g class="text"/></g><g class="trace scatter tracea59ca1" style="stroke-miterlimit: 2; opacity: 1;"><g class="fills"/><g class="errorbars"/><g class="lines"><path class="js-line" d="M0,667.24L107.69,666.64L111.06,666.03L114.43,667.24L117.79,667.24L131.25,667.24L134.62,410.65L137.98,604.76L141.35,573.22L144.71,581.1L148.08,550.77L151.45,548.35L154.81,527.72L158.18,561.09L161.54,559.27L164.91,502.24L168.27,527.12L171.64,504.06L175,494.96L178.37,507.7L181.73,524.08L185.1,539.25L188.47,464.63L191.83,490.11L195.2,447.65L198.56,473.73L201.93,464.63L205.29,481.62L208.66,490.72L212.02,415.5L215.39,388.81L218.76,420.35L222.12,411.25L225.49,369.4L228.85,348.77L232.22,400.94L235.58,274.16L238.95,307.52L242.31,291.14L245.68,324.51L249.04,294.17L252.41,363.94L255.78,501.03L259.14,398.51L262.51,456.75L265.87,411.86L269.24,428.84L272.6,431.27L275.97,449.47L279.33,509.52L282.7,391.84L286.06,449.47L289.43,402.15L292.8,437.34L296.16,460.99L299.53,498.6L302.89,509.52L309.62,473.73L312.99,510.74L316.35,437.34L319.72,466.45L323.08,533.18L326.45,509.52L329.82,416.1L333.18,484.65L336.55,479.19L339.91,442.8L343.28,390.02L346.64,459.17L350.01,466.45L353.37,468.88L356.74,426.42L360.1,439.76L363.47,446.44L366.84,482.23L370.2,521.66L373.57,462.81L376.93,333L380.3,360.9L383.66,484.05L387.03,454.32L390.39,410.65L393.76,514.38L397.12,535L400.49,453.11L403.86,533.79L407.22,518.02L410.59,535L413.95,514.98L420.68,561.69L424.05,528.33L427.41,550.77L430.78,530.15L434.14,559.27L437.51,561.09L440.88,613.25L444.24,577.46L447.61,556.84L450.97,543.49L454.34,558.66L457.7,561.69L461.07,556.23L464.43,570.18L467.8,559.87L471.16,544.71L474.53,562.91L477.9,559.27L481.26,505.28L484.63,599.3L487.99,588.99L491.36,593.24L494.72,585.35L498.09,581.71L501.45,605.98L504.82,587.17L508.18,598.7L511.55,602.94L514.92,611.43L518.28,541.67L521.65,575.64L525.01,584.14L528.38,582.32L531.74,595.06L535.11,605.37L538.47,602.94L541.84,561.69L545.2,567.15L548.57,565.33L551.94,568.37L555.3,593.24L558.67,590.81L562.03,596.88L565.4,578.68L568.76,570.79L572.13,595.66L575.49,602.34L578.86,577.46L582.22,605.37L585.59,621.75L588.96,585.96L592.32,607.19L595.69,616.89L599.05,605.98L602.42,618.71L605.78,616.89L609.15,612.65L612.51,613.25L615.88,621.14L619.24,602.94L622.61,612.65L625.98,601.73L629.34,619.93L632.71,621.75L636.07,597.48L639.44,620.53L642.8,616.89L646.17,604.76L649.53,619.93L652.9,622.96L656.27,611.43L659.63,584.14L663,595.06L666.36,596.88L669.73,602.94L673.09,599.91L676.46,595.06L679.82,595.06L683.19,584.74L686.55,581.1L689.92,592.02L693.29,595.06L696.65,592.02L700.02,586.56L703.38,596.27L706.75,573.82L710.11,558.66L713.48,560.48L716.84,559.87L720.21,551.38L723.57,559.27L726.94,548.35L730.31,510.74L733.67,493.75L737.04,495.57L740.4,462.21L743.77,491.93L747.13,466.45L750.5,471.31L753.86,390.02L757.23,354.84L760.59,407.61L763.96,403.37L767.33,343.31L770.69,339.06L774.06,336.03L777.42,238.37L780.79,245.65L784.15,228.05L787.52,242.61L790.88,239.58L794.25,262.02L797.61,288.72L800.98,192.26L804.35,194.69L807.71,234.73L811.08,253.53L814.44,251.71L817.81,299.03L821.17,286.29L824.54,231.09L827.9,217.74L831.27,222.59L834.63,288.11L838,220.77" style="vector-effect: non-scaling-stroke; fill: none; stroke: rgb(255, 127, 14); stroke-opacity: 1; stroke-width: 2px; opacity: 1;"/></g><g class="points"/><g class="text"/></g><g class="trace scatter trace984071" style="stroke-miterlimit: 2; opacity: 1;"><g class="fills"/><g class="errorbars"/><g class="lines"><path class="js-line" d="M0,667.24L107.69,666.64L111.06,666.03L114.43,666.64L117.79,666.03L121.16,664.21L124.52,666.03L127.89,665.42L131.25,666.64L134.62,664.82L137.98,661.18L141.35,664.82L144.71,657.54L148.08,658.75L151.45,650.86L154.81,652.08L158.18,659.36L161.54,654.5L164.91,654.5L168.27,651.47L171.64,653.9L175,648.44L178.37,654.5L181.73,656.93L185.1,641.16L188.47,636.31L191.83,644.19L195.2,633.88L198.56,645.41L201.93,643.59L205.29,648.44L208.66,644.19L212.02,644.8L215.39,634.49L218.76,636.91L222.12,638.13L225.49,652.68L228.85,632.67L232.22,631.45L235.58,639.95L238.95,615.07L242.31,643.59L245.68,633.88L249.04,642.98L252.41,616.29L255.78,630.24L259.14,625.99L262.51,638.13L265.87,629.03L269.24,631.45L272.6,646.01L275.97,646.01L279.33,633.27L282.7,642.98L286.06,647.23L289.43,650.86L292.8,647.23L296.16,653.29L299.53,653.29L302.89,658.14L306.26,641.16L309.62,648.44L312.99,650.26L319.72,652.08L323.08,649.65L326.45,654.5L329.82,647.83L333.18,646.62L336.55,642.37L339.91,656.93L343.28,655.72L346.64,661.18L350.01,656.93L353.37,655.72L356.74,639.95L360.1,658.14L363.47,646.01L366.84,655.72L370.2,652.68L373.57,658.75L376.93,660.57L380.3,659.96L383.66,660.57L387.03,661.78L390.39,659.96L393.76,662.39L397.12,660.57L400.49,659.96L403.86,665.42L407.22,660.57L410.59,648.44L413.95,660.57L417.32,665.42L420.68,661.18L424.05,659.96L427.41,661.18L430.78,665.42L434.14,662.39L437.51,663.6L444.24,663L447.61,664.82L450.97,664.82L454.34,666.03L457.7,664.21L461.07,666.03L464.43,667.24L467.8,666.03L471.16,661.78L474.53,665.42L477.9,663L481.26,663.6L484.63,665.42L487.99,665.42L491.36,666.64L494.72,661.78L498.09,664.21L501.45,661.78L504.82,666.03L508.18,665.42L511.55,666.64L514.92,666.64L518.28,666.03L521.65,667.24L525.01,665.42L528.38,666.64L531.74,664.82L535.11,666.64L538.47,664.82L541.84,666.64L545.2,665.42L548.57,665.42L558.67,667.24L562.03,664.82L565.4,667.24L568.76,666.64L572.13,667.24L575.49,666.64L578.86,666.03L582.22,667.24L605.78,667.24L609.15,664.82L612.51,667.85L615.88,666.64L619.24,665.42L622.61,666.64L625.98,667.24L629.34,666.64L636.07,666.03L639.44,666.64L642.8,663.6L646.17,667.24L652.9,666.64L656.27,666.64L666.36,667.85L669.73,667.24L673.09,666.03L676.46,667.24L686.55,666.64L689.92,667.85L693.29,666.64L696.65,666.64L700.02,666.64L703.38,664.82L706.75,666.03L710.11,665.42L713.48,667.24L716.84,666.64L723.57,666.03L726.94,665.42L730.31,665.42L733.67,666.64L740.4,667.24L743.77,666.03L747.13,666.64L750.5,664.82L757.23,665.42L760.59,621.14L767.33,663L770.69,664.21L774.06,663L777.42,666.64L780.79,664.82L784.15,664.21L787.52,663L790.88,666.64L794.25,665.42L797.61,661.78L800.98,667.24L804.35,664.21L807.71,661.78L811.08,661.18L814.44,664.21L817.81,664.82L821.17,665.42L824.54,661.78L831.27,661.78L834.63,663.6L838,663" style="vector-effect: non-scaling-stroke; fill: none; stroke: rgb(44, 160, 44); stroke-opacity: 1; stroke-width: 2px; opacity: 1;"/></g><g class="points"/><g class="text"/></g></g></g><g class="overplot"/><path class="xlines-above crisp" style="fill: none;" d="M0,0"/><path class="ylines-above crisp" style="fill: none;" d="M0,0"/><g class="overlines-above"/><g class="xaxislayer-above"><g class="xtick"><text text-anchor="middle" x="0" y="741" transform="translate(100.39,0)" style="font-family: 'Open Sans', verdana, arial, sans-serif; font-size: 12px; fill: rgb(68, 68, 68); fill-opacity: 1; white-space: pre;">Mar 2020</text></g><g class="xtick"><text text-anchor="middle" x="0" y="741" transform="translate(204.71,0)" style="font-family: 'Open Sans', verdana, arial, sans-serif; font-size: 12px; fill: rgb(68, 68, 68); fill-opacity: 1; white-space: pre;">Apr 2020</text></g><g class="xtick"><text text-anchor="middle" x="0" y="741" transform="translate(305.68,0)" style="font-family: 'Open Sans', verdana, arial, sans-serif; font-size: 12px; fill: rgb(68, 68, 68); fill-opacity: 1; white-space: pre;">May 2020</text></g><g class="xtick"><text text-anchor="middle" x="0" y="741" transform="translate(410.01,0)" style="font-family: 'Open Sans', verdana, arial, sans-serif; font-size: 12px; fill: rgb(68, 68, 68); fill-opacity: 1; white-space: pre;">Jun 2020</text></g><g class="xtick"><text text-anchor="middle" x="0" y="741" transform="translate(510.97,0)" style="font-family: 'Open Sans', verdana, arial, sans-serif; font-size: 12px; fill: rgb(68, 68, 68); fill-opacity: 1; white-space: pre;">Jul 2020</text></g><g class="xtick"><text text-anchor="middle" x="0" y="741" transform="translate(615.3,0)" style="font-family: 'Open Sans', verdana, arial, sans-serif; font-size: 12px; fill: rgb(68, 68, 68); fill-opacity: 1; white-space: pre;">Aug 2020</text></g><g class="xtick"><text text-anchor="middle" x="0" y="741" transform="translate(719.63,0)" style="font-family: 'Open Sans', verdana, arial, sans-serif; font-size: 12px; fill: rgb(68, 68, 68); fill-opacity: 1; white-space: pre;">Sep 2020</text></g><g class="xtick"><text text-anchor="middle" x="0" y="741" transform="translate(820.59,0)" style="font-family: 'Open Sans', verdana, arial, sans-serif; font-size: 12px; fill: rgb(68, 68, 68); fill-opacity: 1; white-space: pre;">Oct 2020</text></g></g><g class="yaxislayer-above"><g class="ytick"><text text-anchor="end" x="59" y="4.199999999999999" transform="translate(0,692.24)" style="font-family: 'Open Sans', verdana, arial, sans-serif; font-size: 12px; fill: rgb(68, 68, 68); fill-opacity: 1; white-space: pre;">0</text></g><g class="ytick"><text text-anchor="end" x="59" y="4.199999999999999" transform="translate(0,570.92)" style="font-family: 'Open Sans', verdana, arial, sans-serif; font-size: 12px; fill: rgb(68, 68, 68); fill-opacity: 1; white-space: pre;">200</text></g><g class="ytick"><text text-anchor="end" x="59" y="4.199999999999999" transform="translate(0,449.6)" style="font-family: 'Open Sans', verdana, arial, sans-serif; font-size: 12px; fill: rgb(68, 68, 68); fill-opacity: 1; white-space: pre;">400</text></g><g class="ytick"><text text-anchor="end" x="59" y="4.199999999999999" transform="translate(0,328.27)" style="font-family: 'Open Sans', verdana, arial, sans-serif; font-size: 12px; fill: rgb(68, 68, 68); fill-opacity: 1; white-space: pre;">600</text></g><g class="ytick"><text text-anchor="end" x="59" y="4.199999999999999" transform="translate(0,206.95)" style="font-family: 'Open Sans', verdana, arial, sans-serif; font-size: 12px; fill: rgb(68, 68, 68); fill-opacity: 1; white-space: pre;">800</text></g><g class="ytick"><text text-anchor="end" x="59" y="4.199999999999999" transform="translate(0,85.63)" style="font-family: 'Open Sans', verdana, arial, sans-serif; font-size: 12px; fill: rgb(68, 68, 68); fill-opacity: 1; white-space: pre;">1000</text></g></g><g class="overaxes-above"/></g></g><g class="polarlayer"/><g class="ternarylayer"/><g class="geolayer"/><g class="funnelarealayer"/><g class="pielayer"/><g class="treemaplayer"/><g class="sunburstlayer"/><g class="glimages"/><defs id="topdefs-ac5cb8"><g class="clips"/><clipPath id="legendac5cb8"><rect width="102" height="67" x="0" y="0"/></clipPath></defs><g class="layer-above"><g class="imagelayer"/><g class="shapelayer"/></g><g class="infolayer"><g class="legend" pointer-events="all" transform="translate(914.76, 25)"><rect class="bg" shape-rendering="crispEdges" style="stroke: rgb(68, 68, 68); stroke-opacity: 1; fill: rgb(255, 255, 255); fill-opacity: 1; stroke-width: 0px;" width="102" height="67" x="0" y="0"/><g class="scrollbox" transform="translate(0, 0)" clip-path="url('#legendac5cb8')"><g class="groups"><g class="traces" style="opacity: 1;" transform="translate(0, 14.5)"><text class="legendtext user-select-none" text-anchor="start" x="40" y="4.680000000000001" style="font-family: 'Open Sans', verdana, arial, sans-serif; font-size: 12px; fill: rgb(68, 68, 68); fill-opacity: 1; white-space: pre;">positive</text><g class="layers" style="opacity: 1;"><g class="legendfill"/><g class="legendlines"><path class="js-line" d="M5,0h30" style="fill: none; stroke: rgb(31, 119, 180); stroke-opacity: 1; stroke-width: 2px;"/></g><g class="legendsymbols"><g class="legendpoints"/></g></g><rect class="legendtoggle" pointer-events="all" x="0" y="-9.5" width="96.109375" height="19" style="cursor: pointer; fill: rgb(0, 0, 0); fill-opacity: 0;"/></g><g class="traces" style="opacity: 1;" transform="translate(0, 33.5)"><text class="legendtext user-select-none" text-anchor="start" x="40" y="4.680000000000001" style="font-family: 'Open Sans', verdana, arial, sans-serif; font-size: 12px; fill: rgb(68, 68, 68); fill-opacity: 1; white-space: pre;">resolved</text><g class="layers" style="opacity: 1;"><g class="legendfill"/><g class="legendlines"><path class="js-line" d="M5,0h30" style="fill: none; stroke: rgb(255, 127, 14); stroke-opacity: 1; stroke-width: 2px;"/></g><g class="legendsymbols"><g class="legendpoints"/></g></g><rect class="legendtoggle" pointer-events="all" x="0" y="-9.5" width="96.109375" height="19" style="cursor: pointer; fill: rgb(0, 0, 0); fill-opacity: 0;"/></g><g class="traces" style="opacity: 1;" transform="translate(0, 52.5)"><text class="legendtext user-select-none" text-anchor="start" x="40" y="4.680000000000001" style="font-family: 'Open Sans', verdana, arial, sans-serif; font-size: 12px; fill: rgb(68, 68, 68); fill-opacity: 1; white-space: pre;">deceased</text><g class="layers" style="opacity: 1;"><g class="legendfill"/><g class="legendlines"><path class="js-line" d="M5,0h30" style="fill: none; stroke: rgb(44, 160, 44); stroke-opacity: 1; stroke-width: 2px;"/></g><g class="legendsymbols"><g class="legendpoints"/></g></g><rect class="legendtoggle" pointer-events="all" x="0" y="-9.5" width="96.109375" height="19" style="cursor: pointer; fill: rgb(0, 0, 0); fill-opacity: 0;"/></g></g></g><rect class="scrollbar" rx="20" ry="3" width="0" height="0" style="fill: rgb(128, 139, 164); fill-opacity: 1;" x="0" y="0"/></g><g class="g-gtitle"><text class="gtitle" x="513.5" y="12.5" text-anchor="middle" dy="0em" style="font-family: 'Open Sans', verdana, arial, sans-serif; font-size: 17px; fill: rgb(68, 68, 68); opacity: 1; font-weight: normal; white-space: pre;">Dynamics of new cases, resolved cases and deaths in Ontario (Oct 25, 2020)</text></g><g class="g-xtitle" transform="translate(0,-15)"><text class="xtitle" x="479" y="780" text-anchor="middle" style="font-family: 'Open Sans', verdana, arial, sans-serif; font-size: 14px; fill: rgb(68, 68, 68); opacity: 1; font-weight: normal; white-space: pre;">Date</text></g><g class="g-ytitle"><text class="ytitle" transform="rotate(-90,22,376.5)" x="22" y="376.5" text-anchor="middle" style="font-family: 'Open Sans', verdana, arial, sans-serif; font-size: 14px; fill: rgb(68, 68, 68); opacity: 1; font-weight: normal; white-space: pre;">Number of cases</text></g></g></svg>