<svg class="main-svg" xmlns="http://www.w3.org/2000/svg" xmlns:xlink="http://www.w3.org/1999/xlink" width="1027" height="768" style="" viewBox="0 0 1027 768"><rect x="0" y="0" width="1027" height="768" style="fill: rgb(255, 255, 255); fill-opacity: 1;"/><defs id="defs-af4dc8"><g class="clips"><clipPath id="clipaf4dc8xyplot" class="plotclip"><rect width="838" height="703"/></clipPath><clipPath class="axesclip" id="clipaf4dc8x"><rect x="60" y="0" width="838" height="768"/></clipPath><clipPath class="axesclip" id="clipaf4dc8y"><rect x="0" y="25" width="1027" height="703"/></clipPath><clipPath class="axesclip" id="clipaf4dc8xy"><rect x="60" y="25" width="838" height="703"/></clipPath></g><g class="gradients"/></defs><g class="bglayer"/><g class="layer-below"><g class="imagelayer"/><g class="shapelayer"/></g><g class="cartesianlayer"><g class="subplot xy"><g class="layer-subplot"><g class="shapelayer"/><g class="imagelayer"/></g><g class="gridlayer"><g class="x"><path class="xgrid crisp" transform="translate(84.12,0)" d="M0,25v703" style="stroke: rgb(238, 238, 238); stroke-opacity: 1; stroke-width: 1px;"/><path class="xgrid crisp" transform="translate(206.7,0)" d="M0,25v703" style="stroke: rgb(238, 238, 238); stroke-opacity: 1; stroke-width: 1px;"/><path class="xgrid crisp" transform="translate(329.29,0)" d="M0,25v703" style="stroke: rgb(238, 238, 238); stroke-opacity: 1; stroke-width: 1px;"/><path class="xgrid crisp" transform="translate(453.88,0)" d="M0,25v703" style="stroke: rgb(238, 238, 238); stroke-opacity: 1; stroke-width: 1px;"/><path class="xgrid crisp" transform="translate(576.47,0)" d="M0,25v703" style="stroke: rgb(238, 238, 238); stroke-opacity: 1; stroke-width: 1px;"/><path class="xgrid crisp" transform="translate(699.05,0)" d="M0,25v703" style="stroke: rgb(238, 238, 238); stroke-opacity: 1; stroke-width: 1px;"/><path class="xgrid crisp" transform="translate(817.62,0)" d="M0,25v703" style="stroke: rgb(238, 238, 238); stroke-opacity: 1; stroke-width: 1px;"/></g><g class="y"><path class="ygrid crisp" transform="translate(0,621.73)" d="M60,0h838" style="stroke: rgb(238, 238, 238); stroke-opacity: 1; stroke-width: 1px;"/><path class="ygrid crisp" transform="translate(0,550.75)" d="M60,0h838" style="stroke: rgb(238, 238, 238); stroke-opacity: 1; stroke-width: 1px;"/><path class="ygrid crisp" transform="translate(0,479.77)" d="M60,0h838" style="stroke: rgb(238, 238, 238); stroke-opacity: 1; stroke-width: 1px;"/><path class="ygrid crisp" transform="translate(0,408.8)" d="M60,0h838" style="stroke: rgb(238, 238, 238); stroke-opacity: 1; stroke-width: 1px;"/><path class="ygrid crisp" transform="translate(0,337.82)" d="M60,0h838" style="stroke: rgb(238, 238, 238); stroke-opacity: 1; stroke-width: 1px;"/><path class="ygrid crisp" transform="translate(0,266.84000000000003)" d="M60,0h838" style="stroke: rgb(238, 238, 238); stroke-opacity: 1; stroke-width: 1px;"/><path class="ygrid crisp" transform="translate(0,195.86)" d="M60,0h838" style="stroke: rgb(238, 238, 238); stroke-opacity: 1; stroke-width: 1px;"/><path class="ygrid crisp" transform="translate(0,124.88)" d="M60,0h838" style="stroke: rgb(238, 238, 238); stroke-opacity: 1; stroke-width: 1px;"/><path class="ygrid crisp" transform="translate(0,53.9)" d="M60,0h838" style="stroke: rgb(238, 238, 238); stroke-opacity: 1; stroke-width: 1px;"/></g></g><g class="zerolinelayer"><path class="yzl zl crisp" transform="translate(0,692.71)" d="M60,0h838" style="stroke: rgb(68, 68, 68); stroke-opacity: 1; stroke-width: 1px;"/></g><path class="xlines-below"/><path class="ylines-below"/><g class="overlines-below"/><g class="xaxislayer-below"/><g class="yaxislayer-below"/><g class="overaxes-below"/><g class="plot" transform="translate(60, 25)" clip-path="url('#clipaf4dc8xyplot')"><g class="scatterlayer mlayer"><g class="trace scatter traceecd595" style="stroke-miterlimit: 2; opacity: 1;"><g class="fills"/><g class="errorbars"/><g class="lines"><path class="js-line" d="M0,667.71L20.1,667.57L26.12,666L28.13,667.42L30.14,667.71L40.19,666.71L42.2,667.71L50.24,664.3L52.25,661.75L54.26,663.17L56.27,666.15L62.3,659.19L64.31,659.62L66.32,661.46L68.33,656.78L70.34,655.93L72.35,654.22L74.35,643.86L76.36,648.97L78.37,646.41L80.38,584.1L82.39,630.8L84.4,607.23L86.41,610.78L88.42,602.12L90.43,614.47L92.44,609.79L94.45,623.84L96.46,613.91L98.47,589.63L100.48,599.14L102.49,599.85L104.5,609.36L106.51,610.78L108.52,607.94L110.53,599.14L112.54,597.58L114.55,594.74L116.56,587.64L118.57,598.86L120.58,587.08L122.59,581.68L124.59,589.49L126.6,595.31L128.61,577.71L130.62,576.86L132.63,600.14L134.64,605.67L136.65,607.52L138.66,593.18L140.67,618.45L142.68,602.55L144.69,607.94L146.7,595.17L148.71,606.1L150.72,615.18L152.73,612.77L154.74,609.22L156.75,611.07L158.76,599.99L160.77,618.59L162.78,625.97L164.79,623.99L166.8,616.46L168.81,621L170.82,618.73L172.82,619.3L174.83,612.2L176.84,619.44L178.85,624.55L180.86,607.09L182.87,612.35L184.88,609.08L186.89,605.11L188.9,609.22L190.91,602.41L192.92,610.36L194.93,626.97L196.94,626.26L198.95,613.34L200.96,618.88L202.97,621.86L204.98,621.43L206.99,610.36L209,604.4L211.01,619.73L213.02,617.17L215.03,618.88L217.04,603.12L219.05,608.8L221.06,633.21L223.06,635.06L225.07,632.08L227.08,638.89L229.09,641.87L231.1,629.95L233.11,639.74L235.12,642.01L237.13,641.59L239.14,640.74L241.15,643.15L243.16,642.44L245.17,638.47L247.18,642.87L249.19,644.85L251.2,637.05L253.21,644.57L255.22,640.88L257.23,651.95L259.24,645L261.25,642.44L263.26,631.23L265.27,645.42L267.28,646.56L269.29,645.99L271.29,644.29L273.3,650.53L277.32,645.85L279.33,651.81L281.34,650.96L283.35,643.58L285.36,651.24L287.37,649.25L289.38,649.4L291.39,651.24L295.41,653.23L297.42,651.95L299.43,651.95L301.44,644.14L303.45,644.43L305.46,648.54L307.47,638.89L309.48,644.29L311.49,653.09L313.5,640.03L315.51,648.12L317.52,648.26L319.53,650.82L321.53,651.95L323.54,656.92L325.55,655.07L327.56,648.69L329.57,650.11L331.58,651.24L333.59,655.22L335.6,654.79L337.61,655.5L339.62,654.22L341.63,655.22L343.64,657.77L345.65,656.49L347.66,651.38L349.67,663.02L351.68,654.22L353.69,656.64L357.71,652.66L359.72,656.21L363.74,649.96L365.75,653.23L367.76,656.92L369.76,649.11L371.77,652.38L373.78,651.38L379.81,655.22L381.82,650.96L383.83,650.39L385.84,646.7L387.85,651.81L389.86,651.53L391.87,651.81L393.88,648.83L395.89,648.97L397.9,646.7L399.91,643.72L401.92,645.28L403.93,640.74L405.94,641.45L407.95,646.56L409.96,643.58L411.97,637.47L413.98,634.77L415.99,638.75L418,623.28L420,632.08L422.01,622.99L424.02,626.11L426.03,610.78L428.04,609.93L430.05,615.89L434.07,599.85L436.08,620.15L438.09,609.65L440.1,609.65L442.11,605.96L444.12,598.01L446.13,568.34L448.14,589.06L450.15,578.99L452.16,591.34L454.17,563.8L456.18,575.01L458.19,587.36L460.2,580.4L462.21,589.92L464.22,584.95L468.24,534.41L470.24,552.87L472.25,575.58L474.26,553.15L476.27,561.81L478.28,565.36L480.29,556.56L482.3,566.64L484.31,553.43L486.32,574.3L488.33,567.77L490.34,551.16L492.35,555.56L494.36,548.32L496.37,550.45L498.38,528.87L500.39,519.79L502.4,546.9L504.41,550.31L506.42,549.32L508.43,535.12L510.44,540.52L512.45,523.62L514.46,529.02L516.47,533.13L518.47,518.65L520.48,527.6L522.49,526.04L524.5,525.33L526.51,507.01L528.52,479.19L530.53,491.4L532.54,470.67L534.55,465.28L536.56,444.13L538.57,469.54L540.58,443.27L542.59,490.55L544.6,456.62L546.61,490.4L548.62,466.56L550.63,495.94L554.65,442.28L556.66,449.95L558.67,442.14L560.68,524.47L562.69,472.8L564.7,457.9L566.71,404.38L568.71,409.06L570.72,425.25L572.73,419.85L574.74,425.39L576.75,423.12L578.76,408.78L580.77,415.03L584.79,394.58L586.8,394.44L588.81,429.79L590.82,399.41L592.83,386.21L594.84,405.37L596.85,401.82L598.86,429.65L602.88,344.76L604.89,364.06L606.9,322.47L608.91,342.63L610.92,333.12L612.93,338.94L614.94,366.33L616.94,355.12L618.95,325.88L620.96,320.34L622.97,361.22L624.98,363.64L626.99,383.09L629,392.45L631.01,305.29L633.02,252.77L635.03,195.28L637.04,316.22L639.05,190.31L641.06,246.95L643.07,203.51L645.08,223.67L647.09,204.08L649.1,168.16L651.11,64.53L653.12,178.95L655.13,107.69L657.14,193.86L659.15,255.61L661.16,247.37L663.17,195.56L665.18,242.12L667.18,233.89L669.19,181.93L673.21,396.15L675.22,290.81L677.23,294.08L679.24,289.82L681.25,332.83L683.26,324.6L685.27,389.76L687.28,420.7L689.29,430.64L691.3,370.59L693.31,406.93L695.32,374.85L697.33,405.37L699.34,388.2L701.35,561.95L703.36,501.34L705.37,445.83L707.38,430.64L709.39,470.67L711.4,456.33L715.41,522.63L717.42,515.53L719.43,533.56L721.44,514.96L723.45,483.16L725.46,528.45L727.47,530.86L729.48,539.38L731.49,547.47L733.5,520.36L737.52,493.39L739.53,513.4L741.54,517.52L743.55,529.3L747.57,506.16L749.58,489.13L751.59,499.49L753.6,516.95L755.61,522.49L757.62,530.58L759.63,531.71L761.64,526.6L763.65,490.26L765.65,527.17L769.67,436.18L771.68,499.49L773.69,480.89L775.7,512.69L777.71,473.09L779.72,459.32L781.73,419.71L783.74,487.71L785.75,515.25L787.76,453.64L789.77,447.25L791.78,419.99L793.79,408.07L795.8,413.46L797.81,426.52L799.82,448.24L801.83,444.69L803.84,329.85L805.85,359.8L807.86,319.49L809.87,320.2L811.88,370.45L813.88,336.1L815.89,336.52L817.9,304.73L819.91,229.2L821.92,240.56L823.93,236.02L825.94,250.64L827.95,232.61L829.96,211.32L831.97,199.96L833.98,67.66L835.99,126.43L838,35.15" style="vector-effect: non-scaling-stroke; fill: none; stroke: rgb(31, 119, 180); stroke-opacity: 1; stroke-width: 2px; opacity: 1;"/></g><g class="points"/><g class="text"/></g><g class="trace scatter tracea5966e" style="stroke-miterlimit: 2; opacity: 1;"><g class="fills"/><g class="errorbars"/><g class="lines"><path class="js-line" d="M0,667.71L78.37,667.71L80.38,607.66L82.39,653.09L84.4,645.7L86.41,647.55L88.42,640.45L90.43,639.88L92.44,635.06L94.45,642.87L96.46,642.44L98.47,629.1L100.48,634.92L102.49,629.52L104.5,627.39L108.52,634.21L110.53,637.76L112.54,620.29L114.55,626.26L116.56,616.32L118.57,622.42L120.58,620.29L122.59,624.27L124.59,626.4L126.6,608.8L128.61,602.55L130.62,609.93L132.63,607.8L134.64,598.01L136.65,593.18L138.66,605.39L140.67,575.72L142.68,583.53L144.69,579.7L146.7,587.5L148.71,580.4L150.72,596.73L152.73,628.81L154.74,604.82L156.75,618.45L158.76,607.94L160.77,611.92L162.78,612.49L164.79,616.75L166.8,630.8L168.81,603.26L170.82,616.75L172.82,605.67L174.83,613.91L176.84,619.44L178.85,628.24L180.86,630.8L182.87,626.26L184.88,622.42L186.89,631.08L188.9,613.91L190.91,620.72L192.92,636.34L194.93,630.8L196.94,608.94L198.95,624.98L200.96,623.7L202.97,615.18L204.98,602.83L206.99,619.02L209,620.72L211.01,621.29L213.02,611.35L215.03,614.47L217.04,616.04L219.05,624.41L221.06,633.64L223.06,619.87L225.07,589.49L227.08,596.02L229.09,624.84L231.1,617.88L233.11,607.66L235.12,631.94L237.13,636.76L239.14,617.6L241.15,636.48L243.16,632.79L245.17,636.76L247.18,632.08L251.2,643.01L253.21,635.2L255.22,640.45L257.23,635.63L259.24,642.44L261.25,642.87L263.26,655.07L265.27,646.7L269.29,638.75L271.29,642.3L273.3,643.01L275.31,641.73L277.32,645L279.33,642.58L281.34,639.03L283.35,643.29L285.36,642.44L287.37,629.81L289.38,651.81L291.39,649.4L293.4,650.39L295.41,648.54L297.42,647.69L299.43,653.37L301.44,648.97L303.45,651.67L305.46,652.66L307.47,654.65L309.48,638.32L311.49,646.27L313.5,648.26L315.51,647.83L319.53,653.23L321.53,652.66L323.54,643.01L325.55,644.29L327.56,643.86L329.57,644.57L331.58,650.39L333.59,649.82L335.6,651.24L337.61,646.98L339.62,645.14L341.63,650.96L343.64,652.52L345.65,646.7L347.66,653.23L349.67,657.06L351.68,648.69L353.69,653.65L355.7,655.93L357.71,653.37L359.72,656.35L361.73,655.93L363.74,654.93L365.75,655.07L367.76,656.92L369.76,652.66L371.77,654.93L373.78,652.38L375.79,656.64L377.8,657.06L379.81,651.38L381.82,656.78L383.83,655.93L385.84,653.09L387.85,656.64L389.86,657.35L391.87,654.65L393.88,648.26L395.89,650.82L397.9,651.24L399.91,652.66L401.92,651.95L403.93,650.82L405.94,650.82L407.95,648.4L409.96,647.55L411.97,650.11L413.98,650.82L418,648.83L420,651.1L424.02,642.3L426.03,642.72L428.04,642.58L430.05,640.59L432.06,642.44L434.07,639.88L436.08,631.08L438.09,627.11L440.1,627.53L442.11,619.73L444.12,626.68L446.13,620.72L448.14,621.86L450.15,602.83L452.16,594.6L454.17,606.95L456.18,605.96L458.19,591.9L462.21,590.2L464.22,567.34L466.23,569.05L468.24,564.93L470.24,568.34L472.25,567.63L476.27,579.13L478.28,556.56L480.29,557.12L482.3,566.49L484.31,570.89L486.32,570.47L488.33,581.54L490.34,578.56L492.35,565.64L494.36,562.52L496.37,563.65L498.38,578.99L500.39,563.23L502.4,571.32L504.41,569.62L506.42,557.98L508.43,551.3L510.44,554.71L512.45,554.43L514.46,545.06L516.47,550.45L518.47,548.89L520.48,533.56L522.49,533.13L524.5,532.99L526.51,546.76L528.52,543.21L530.53,551.16L532.54,556.84L534.55,541.93L536.56,537.53L538.57,523.2L540.58,525.33L542.59,516.95L544.6,526.89L546.61,506.59L548.62,455.48L550.63,472.38L552.64,466.84L554.65,474.22L558.67,457.04L560.68,514.11L562.69,458.18L564.7,473.94L568.71,453.35L570.72,462.86L572.73,480.33L574.74,472.8L576.75,428.37L578.76,448.95L580.77,447.25L582.78,437.17L584.79,444.27L586.8,467.27L588.81,447.82L590.82,394.58L592.83,411.62L594.84,418.86L596.85,395.44L598.86,429.51L600.87,449.8L602.88,410.77L604.89,377.69L606.9,382.52L608.91,384.93L610.92,402.96L612.93,393.59L614.94,432.91L616.94,397.99L618.95,349.3L620.96,381.95L622.97,350.15L624.98,396.15L626.99,383.09L629,362.36L631.01,350.72L633.02,350.15L635.03,353.56L637.04,318.5L639.05,376.13L641.06,358.95L643.07,373.29L645.08,381.67L647.09,241.13L649.1,273.64L651.11,279.03L653.12,253.9L655.13,313.38L657.14,276.48L659.15,191.73L661.16,186.19L663.17,157.66L667.18,211.74L669.19,230.77L671.2,266.54L673.21,259.87L675.22,140.48L677.23,243.26L679.24,188.6L681.25,238.29L687.28,346.74L689.29,280.88L691.3,314.09L693.31,256.03L699.34,365.06L701.35,341.63L703.36,419.99L705.37,390.04L707.38,350.72L709.39,412.75L711.4,392.74L713.41,426.38L715.41,470.67L717.42,425.1L719.43,476.92L721.44,466.84L723.45,464.14L725.46,492.39L729.48,509.85L731.49,461.02L733.5,486.43L735.51,489.55L737.52,481.32L739.53,505.88L741.54,513.97L743.55,525.47L745.56,484.44L747.57,512.41L749.58,524.76L751.59,528.02L753.6,521.63L755.61,534.41L757.62,528.73L759.63,512.98L761.64,515.53L763.65,503.18L765.65,504.17L767.66,510.85L769.67,526.6L771.68,529.73L773.69,495.66L775.7,510.14L777.71,508.15L779.72,504.32L781.73,502.04L783.74,509.57L785.75,513.69L787.76,456.48L789.77,492.25L791.78,483.73L793.79,488.7L795.8,475.64L797.81,500.91L799.82,487.28L801.83,450.37L803.84,479.05L805.85,429.93L807.86,457.47L809.87,448.67L811.88,451.37L813.88,458.04L815.89,387.63L817.9,410.2L819.91,394.44L821.92,409.49L823.93,398.13L825.94,417.72L827.95,387.2L829.96,326.02L831.97,302.03L833.98,292.8L835.99,323.89L838,296.21" style="vector-effect: non-scaling-stroke; fill: none; stroke: rgb(255, 127, 14); stroke-opacity: 1; stroke-width: 2px; opacity: 1;"/></g><g class="points"/><g class="text"/></g><g class="trace scatter trace5c2d7b" style="stroke-miterlimit: 2; opacity: 1;"><g class="fills"/><g class="errorbars"/><g class="lines"><path class="js-line" d="M0,667.71L80.38,667.14L82.39,666.29L84.4,667.14L86.41,665.44L88.42,665.72L90.43,663.88L92.44,664.16L94.45,665.86L96.46,664.73L98.47,664.73L100.48,664.02L102.49,664.59L104.5,663.31L106.51,664.73L108.52,665.29L110.53,661.6L112.54,660.47L114.55,662.31L116.56,659.9L118.57,662.6L120.58,662.17L122.59,663.31L124.59,662.31L126.6,662.46L128.61,660.04L130.62,660.61L132.63,660.89L134.64,664.3L136.65,659.62L138.66,659.33L140.67,661.32L142.68,655.5L144.69,662.17L146.7,659.9L148.71,662.03L150.72,655.78L152.73,659.05L154.74,658.06L156.75,660.89L158.76,658.76L160.77,659.33L162.78,662.74L164.79,662.74L166.8,659.76L168.81,662.03L170.82,663.02L172.82,663.88L174.83,663.02L176.84,664.44L178.85,664.44L180.86,665.58L182.87,661.6L184.88,663.31L186.89,663.73L192.92,663.59L194.93,664.73L196.94,663.17L198.95,662.88L200.96,661.89L202.97,665.29L204.98,665.01L206.99,666.29L211.01,665.01L213.02,661.32L215.03,665.58L217.04,662.74L219.05,665.01L221.06,664.3L223.06,665.72L225.07,666.15L233.11,666L235.12,666.57L239.14,666L241.15,667.28L243.16,666.15L245.17,663.31L247.18,666.15L249.19,667.28L253.21,666L255.22,666.29L257.23,667.28L259.24,666.57L267.28,667.14L269.29,667.14L277.32,667.71L279.33,667.42L281.34,666.43L283.35,667.28L287.37,666.86L289.38,667.28L293.4,667.57L295.41,666.43L297.42,667L299.43,666.43L301.44,667.42L303.45,667.28L311.49,667.71L313.5,667.28L319.53,667.57L321.53,667.14L325.55,667.28L327.56,667.28L341.63,667.71L343.64,667.57L351.68,667.57L353.69,667.71L363.74,667.14L365.75,667.85L371.77,667.57L373.78,667.71L383.83,666.86L385.84,667.71L395.89,667.71L397.9,667.85L409.96,667.57L411.97,667.85L420,667.14L422.01,667.42L434.07,667.28L436.08,667.28L442.11,667.71L444.12,667.42L452.16,667.28L454.17,656.92L458.19,666.71L460.2,667L462.21,666.71L464.22,667.57L470.24,666.71L472.25,667.57L476.27,666.43L478.28,667.71L484.31,666.29L486.32,667L490.34,667.28L492.35,666.43L506.42,667L508.43,666.29L516.47,666.71L518.47,665.72L522.49,665.86L524.5,665.72L528.52,665.86L530.53,666L538.57,665.01L540.58,664.87L542.59,663.59L544.6,666.29L546.61,666L548.62,663.17L550.63,663.73L552.64,666.57L554.65,664.73L556.66,665.72L558.67,665.01L560.68,665.72L562.69,662.74L564.7,664.73L566.71,664.87L568.71,663.59L570.72,664.3L572.73,666.57L574.74,666.71L576.75,662.74L578.76,665.72L580.77,664.16L584.79,665.58L586.8,664.02L588.81,666.29L590.82,663.73L594.84,661.32L596.85,665.29L598.86,665.44L600.87,664.44L602.88,664.87L604.89,661.6L606.9,664.44L608.91,662.03L610.92,663.88L612.93,664.16L614.94,665.29L616.94,664.73L618.95,661.89L620.96,660.75L624.98,662.31L626.99,665.15L629,662.46L631.01,661.89L633.02,665.01L635.03,659.76L639.05,661.46L641.06,664.16L643.07,663.59L645.08,660.47L647.09,662.46L649.1,655.07L651.11,664.02L653.12,662.03L655.13,659.05L657.14,663.59L659.15,661.89L661.16,657.2L663.17,658.91L665.18,653.51L667.18,660.47L669.19,657.91L671.2,664.3L673.21,661.18L675.22,655.07L677.23,661.18L679.24,655.36L681.25,660.33L685.27,661.6L687.28,658.76L689.29,660.75L691.3,659.76L693.31,659.47L695.32,657.35L697.33,661.6L699.34,662.6L701.35,665.72L703.36,658.2L705.37,655.22L707.38,661.32L709.39,661.32L711.4,664.59L713.41,663.02L715.41,665.29L717.42,661.89L719.43,665.15L723.45,665.01L725.46,661.75L727.47,665.86L729.48,665.86L731.49,666.29L733.5,661.46L735.51,661.04L737.52,663.73L739.53,665.86L741.54,666.15L745.56,666.43L747.57,664.44L749.58,663.73L751.59,665.44L753.6,664.87L755.61,666.86L759.63,665.29L761.64,666.29L763.65,664.59L765.65,666.86L767.66,665.58L769.67,666.29L771.68,666.86L773.69,665.44L775.7,666.29L777.71,665.15L779.72,666.15L781.73,665.58L783.74,666.43L785.75,666.15L789.77,665.58L791.78,666.29L793.79,666.15L795.8,665.15L797.81,667.28L799.82,666.43L801.83,666.29L803.84,665.29L805.85,666L807.86,665.44L809.87,665.01L811.88,666.29L819.91,664.44L821.92,665.44L827.95,666.57L829.96,665.29L838,664.73" style="vector-effect: non-scaling-stroke; fill: none; stroke: rgb(44, 160, 44); stroke-opacity: 1; stroke-width: 2px; opacity: 1;"/></g><g class="points"/><g class="text"/></g></g></g><g class="overplot"/><path class="xlines-above crisp" style="fill: none;" d="M0,0"/><path class="ylines-above crisp" style="fill: none;" d="M0,0"/><g class="overlines-above"/><g class="xaxislayer-above"><g class="xtick"><text text-anchor="middle" x="0" y="741" transform="translate(84.12,0)" style="font-family: 'Open Sans', verdana, arial, sans-serif; font-size: 12px; fill: rgb(68, 68, 68); fill-opacity: 1; white-space: pre;">Mar 2020</text></g><g class="xtick"><text text-anchor="middle" x="0" y="741" transform="translate(206.7,0)" style="font-family: 'Open Sans', verdana, arial, sans-serif; font-size: 12px; fill: rgb(68, 68, 68); fill-opacity: 1; white-space: pre;">May 2020</text></g><g class="xtick"><text text-anchor="middle" x="0" y="741" transform="translate(329.29,0)" style="font-family: 'Open Sans', verdana, arial, sans-serif; font-size: 12px; fill: rgb(68, 68, 68); fill-opacity: 1; white-space: pre;">Jul 2020</text></g><g class="xtick"><text text-anchor="middle" x="0" y="741" transform="translate(453.88,0)" style="font-family: 'Open Sans', verdana, arial, sans-serif; font-size: 12px; fill: rgb(68, 68, 68); fill-opacity: 1; white-space: pre;">Sep 2020</text></g><g class="xtick"><text text-anchor="middle" x="0" y="741" transform="translate(576.47,0)" style="font-family: 'Open Sans', verdana, arial, sans-serif; font-size: 12px; fill: rgb(68, 68, 68); fill-opacity: 1; white-space: pre;">Nov 2020</text></g><g class="xtick"><text text-anchor="middle" x="0" y="741" transform="translate(699.05,0)" style="font-family: 'Open Sans', verdana, arial, sans-serif; font-size: 12px; fill: rgb(68, 68, 68); fill-opacity: 1; white-space: pre;">Jan 2021</text></g><g class="xtick"><text text-anchor="middle" x="0" y="741" transform="translate(817.62,0)" style="font-family: 'Open Sans', verdana, arial, sans-serif; font-size: 12px; fill: rgb(68, 68, 68); fill-opacity: 1; white-space: pre;">Mar 2021</text></g></g><g class="yaxislayer-above"><g class="ytick"><text text-anchor="end" x="59" y="4.199999999999999" transform="translate(0,692.71)" style="font-family: 'Open Sans', verdana, arial, sans-serif; font-size: 12px; fill: rgb(68, 68, 68); fill-opacity: 1; white-space: pre;">0</text></g><g class="ytick"><text text-anchor="end" x="59" y="4.199999999999999" transform="translate(0,621.73)" style="font-family: 'Open Sans', verdana, arial, sans-serif; font-size: 12px; fill: rgb(68, 68, 68); fill-opacity: 1; white-space: pre;">500</text></g><g class="ytick"><text text-anchor="end" x="59" y="4.199999999999999" transform="translate(0,550.75)" style="font-family: 'Open Sans', verdana, arial, sans-serif; font-size: 12px; fill: rgb(68, 68, 68); fill-opacity: 1; white-space: pre;">1000</text></g><g class="ytick"><text text-anchor="end" x="59" y="4.199999999999999" transform="translate(0,479.77)" style="font-family: 'Open Sans', verdana, arial, sans-serif; font-size: 12px; fill: rgb(68, 68, 68); fill-opacity: 1; white-space: pre;">1500</text></g><g class="ytick"><text text-anchor="end" x="59" y="4.199999999999999" transform="translate(0,408.8)" style="font-family: 'Open Sans', verdana, arial, sans-serif; font-size: 12px; fill: rgb(68, 68, 68); fill-opacity: 1; white-space: pre;">2000</text></g><g class="ytick"><text text-anchor="end" x="59" y="4.199999999999999" transform="translate(0,337.82)" style="font-family: 'Open Sans', verdana, arial, sans-serif; font-size: 12px; fill: rgb(68, 68, 68); fill-opacity: 1; white-space: pre;">2500</text></g><g class="ytick"><text text-anchor="end" x="59" y="4.199999999999999" transform="translate(0,266.84000000000003)" style="font-family: 'Open Sans', verdana, arial, sans-serif; font-size: 12px; fill: rgb(68, 68, 68); fill-opacity: 1; white-space: pre;">3000</text></g><g class="ytick"><text text-anchor="end" x="59" y="4.199999999999999" transform="translate(0,195.86)" style="font-family: 'Open Sans', verdana, arial, sans-serif; font-size: 12px; fill: rgb(68, 68, 68); fill-opacity: 1; white-space: pre;">3500</text></g><g class="ytick"><text text-anchor="end" x="59" y="4.199999999999999" transform="translate(0,124.88)" style="font-family: 'Open Sans', verdana, arial, sans-serif; font-size: 12px; fill: rgb(68, 68, 68); fill-opacity: 1; white-space: pre;">4000</text></g><g class="ytick"><text text-anchor="end" x="59" y="4.199999999999999" transform="translate(0,53.9)" style="font-family: 'Open Sans', verdana, arial, sans-serif; font-size: 12px; fill: rgb(68, 68, 68); fill-opacity: 1; white-space: pre;">4500</text></g></g><g class="overaxes-above"/></g></g><g class="polarlayer"/><g class="ternarylayer"/><g class="geolayer"/><g class="funnelarealayer"/><g class="pielayer"/><g class="treemaplayer"/><g class="sunburstlayer"/><g class="glimages"/><defs id="topdefs-af4dc8"><g class="clips"/><clipPath id="legendaf4dc8"><rect width="102" height="67" x="0" y="0"/></clipPath></defs><g class="layer-above"><g class="imagelayer"/><g class="shapelayer"/></g><g class="infolayer"><g class="legend" pointer-events="all" transform="translate(914.76, 25)"><rect class="bg" shape-rendering="crispEdges" style="stroke: rgb(68, 68, 68); stroke-opacity: 1; fill: rgb(255, 255, 255); fill-opacity: 1; stroke-width: 0px;" width="102" height="67" x="0" y="0"/><g class="scrollbox" transform="translate(0, 0)" clip-path="url('#legendaf4dc8')"><g class="groups"><g class="traces" style="opacity: 1;" transform="translate(0, 14.5)"><text class="legendtext" text-anchor="start" x="40" y="4.680000000000001" style="font-family: 'Open Sans', verdana, arial, sans-serif; font-size: 12px; fill: rgb(68, 68, 68); fill-opacity: 1; white-space: pre;">positive</text><g class="layers" style="opacity: 1;"><g class="legendfill"/><g class="legendlines"><path class="js-line" d="M5,0h30" style="fill: none; stroke: rgb(31, 119, 180); stroke-opacity: 1; stroke-width: 2px;"/></g><g class="legendsymbols"><g class="legendpoints"/></g></g><rect class="legendtoggle" x="0" y="-9.5" width="96.109375" height="19" style="fill: rgb(0, 0, 0); fill-opacity: 0;"/></g><g class="traces" style="opacity: 1;" transform="translate(0, 33.5)"><text class="legendtext" text-anchor="start" x="40" y="4.680000000000001" style="font-family: 'Open Sans', verdana, arial, sans-serif; font-size: 12px; fill: rgb(68, 68, 68); fill-opacity: 1; white-space: pre;">resolved</text><g class="layers" style="opacity: 1;"><g class="legendfill"/><g class="legendlines"><path class="js-line" d="M5,0h30" style="fill: none; stroke: rgb(255, 127, 14); stroke-opacity: 1; stroke-width: 2px;"/></g><g class="legendsymbols"><g class="legendpoints"/></g></g><rect class="legendtoggle" x="0" y="-9.5" width="96.109375" height="19" style="fill: rgb(0, 0, 0); fill-opacity: 0;"/></g><g class="traces" style="opacity: 1;" transform="translate(0, 52.5)"><text class="legendtext" text-anchor="start" x="40" y="4.680000000000001" style="font-family: 'Open Sans', verdana, arial, sans-serif; font-size: 12px; fill: rgb(68, 68, 68); fill-opacity: 1; white-space: pre;">deceased</text><g class="layers" style="opacity: 1;"><g class="legendfill"/><g class="legendlines"><path class="js-line" d="M5,0h30" style="fill: none; stroke: rgb(44, 160, 44); stroke-opacity: 1; stroke-width: 2px;"/></g><g class="legendsymbols"><g class="legendpoints"/></g></g><rect class="legendtoggle" x="0" y="-9.5" width="96.109375" height="19" style="fill: rgb(0, 0, 0); fill-opacity: 0;"/></g></g></g><rect class="scrollbar" rx="20" ry="3" width="0" height="0" style="fill: rgb(128, 139, 164); fill-opacity: 1;" x="0" y="0"/></g><g class="g-gtitle"><text class="gtitle" x="513.5" y="12.5" text-anchor="middle" dy="0em" style="font-family: 'Open Sans', verdana, arial, sans-serif; font-size: 17px; fill: rgb(68, 68, 68); opacity: 1; font-weight: normal; white-space: pre;">Dynamics of new cases, resolved cases and deaths in Ontario (Apr 11, 2021)</text></g><g class="g-xtitle" transform="translate(0,-15)"><text class="xtitle" x="479" y="780" text-anchor="middle" style="font-family: 'Open Sans', verdana, arial, sans-serif; font-size: 14px; fill: rgb(68, 68, 68); opacity: 1; font-weight: normal; white-space: pre;">Date</text></g><g class="g-ytitle"><text class="ytitle" transform="rotate(-90,22,376.5)" x="22" y="376.5" text-anchor="middle" style="font-family: 'Open Sans', verdana, arial, sans-serif; font-size: 14px; fill: rgb(68, 68, 68); opacity: 1; font-weight: normal; white-space: pre;">Number of cases</text></g></g></svg>