<svg class="main-svg" xmlns="http://www.w3.org/2000/svg" xmlns:xlink="http://www.w3.org/1999/xlink" width="1027" height="768" style="" viewBox="0 0 1027 768"><rect x="0" y="0" width="1027" height="768" style="fill: rgb(255, 255, 255); fill-opacity: 1;"/><defs id="defs-2969cc"><g class="clips"><clipPath id="clip2969ccxyplot" class="plotclip"><rect width="838" height="703"/></clipPath><clipPath class="axesclip" id="clip2969ccx"><rect x="60" y="0" width="838" height="768"/></clipPath><clipPath class="axesclip" id="clip2969ccy"><rect x="0" y="25" width="1027" height="703"/></clipPath><clipPath class="axesclip" id="clip2969ccxy"><rect x="60" y="25" width="838" height="703"/></clipPath></g><g class="gradients"/></defs><g class="bglayer"/><g class="layer-below"><g class="imagelayer"/><g class="shapelayer"/></g><g class="cartesianlayer"><g class="subplot xy"><g class="layer-subplot"><g class="shapelayer"/><g class="imagelayer"/></g><g class="gridlayer"><g class="x"><path class="xgrid crisp" transform="translate(102.25,0)" d="M0,25v703" style="stroke: rgb(238, 238, 238); stroke-opacity: 1; stroke-width: 1px;"/><path class="xgrid crisp" transform="translate(211.4,0)" d="M0,25v703" style="stroke: rgb(238, 238, 238); stroke-opacity: 1; stroke-width: 1px;"/><path class="xgrid crisp" transform="translate(317.03,0)" d="M0,25v703" style="stroke: rgb(238, 238, 238); stroke-opacity: 1; stroke-width: 1px;"/><path class="xgrid crisp" transform="translate(426.18,0)" d="M0,25v703" style="stroke: rgb(238, 238, 238); stroke-opacity: 1; stroke-width: 1px;"/><path class="xgrid crisp" transform="translate(531.8199999999999,0)" d="M0,25v703" style="stroke: rgb(238, 238, 238); stroke-opacity: 1; stroke-width: 1px;"/><path class="xgrid crisp" transform="translate(640.97,0)" d="M0,25v703" style="stroke: rgb(238, 238, 238); stroke-opacity: 1; stroke-width: 1px;"/><path class="xgrid crisp" transform="translate(750.12,0)" d="M0,25v703" style="stroke: rgb(238, 238, 238); stroke-opacity: 1; stroke-width: 1px;"/><path class="xgrid crisp" transform="translate(855.75,0)" d="M0,25v703" style="stroke: rgb(238, 238, 238); stroke-opacity: 1; stroke-width: 1px;"/></g><g class="y"><path class="ygrid crisp" transform="translate(0,557.56)" d="M60,0h838" style="stroke: rgb(238, 238, 238); stroke-opacity: 1; stroke-width: 1px;"/><path class="ygrid crisp" transform="translate(0,422.94)" d="M60,0h838" style="stroke: rgb(238, 238, 238); stroke-opacity: 1; stroke-width: 1px;"/><path class="ygrid crisp" transform="translate(0,288.33)" d="M60,0h838" style="stroke: rgb(238, 238, 238); stroke-opacity: 1; stroke-width: 1px;"/><path class="ygrid crisp" transform="translate(0,153.71)" d="M60,0h838" style="stroke: rgb(238, 238, 238); stroke-opacity: 1; stroke-width: 1px;"/></g></g><g class="zerolinelayer"><path class="yzl zl crisp" transform="translate(0,692.18)" d="M60,0h838" style="stroke: rgb(68, 68, 68); stroke-opacity: 1; stroke-width: 1px;"/></g><path class="xlines-below"/><path class="ylines-below"/><g class="overlines-below"/><g class="xaxislayer-below"/><g class="yaxislayer-below"/><g class="overaxes-below"/><g class="plot" transform="translate(60, 25)" clip-path="url('#clip2969ccxyplot')"><g class="scatterlayer mlayer"><g class="trace scatter tracecc46e2" style="stroke-miterlimit: 2; opacity: 1;"><g class="fills"/><g class="errorbars"/><g class="lines"><path class="js-line" d="M0,667.18L10.56,667.85L21.13,666.5L28.17,667.18L31.69,666.5L35.21,666.5L45.77,659.1L49.29,665.83L52.82,667.18L56.34,666.5L59.86,664.48L63.38,665.83L70.42,662.47L73.94,667.18L77.46,663.14L80.98,655.73L84.5,653.72L88.03,651.02L91.55,638.91L95.07,645.64L98.59,659.77L102.11,650.35L105.63,638.23L109.15,626.79L112.67,628.81L116.19,637.56L119.71,615.35L123.24,611.31L126.76,603.23L130.28,554.1L133.8,578.33L137.32,566.21L140.84,270.73L144.36,492.17L147.88,380.44L151.4,397.27L154.92,356.21L158.45,414.77L161.97,392.56L165.49,459.19L169.01,412.08L172.53,296.98L176.05,342.08L179.57,345.44L183.09,390.54L186.61,397.27L190.13,383.81L193.66,342.08L197.18,334.67L200.7,321.21L204.22,287.56L207.74,340.73L211.26,284.86L214.78,259.29L218.3,296.31L221.82,323.9L225.34,240.44L228.87,236.4L232.39,346.79L235.91,373.04L239.43,381.79L242.95,313.81L246.47,433.62L249.99,358.23L253.51,383.81L257.03,323.23L260.55,375.06L264.08,418.14L267.6,406.69L271.12,389.87L274.64,398.62L278.16,346.12L281.68,434.29L285.2,469.29L288.72,459.87L292.24,424.19L295.76,445.73L299.29,434.96L302.81,437.65L306.33,404L309.85,438.33L313.37,462.56L316.89,379.77L320.41,404.67L323.93,389.19L327.45,370.35L330.97,389.87L334.5,357.56L338.02,395.25L341.54,474L345.06,470.64L348.58,409.39L352.1,435.64L355.62,449.77L359.14,447.75L362.66,395.25L366.18,366.98L369.71,439.67L373.23,427.56L376.75,435.64L380.27,360.92L383.79,387.85L387.31,503.62L390.83,512.37L394.35,498.23L397.87,530.54L401.39,544.68L404.92,488.14L408.44,534.58L411.96,545.35L415.48,543.33L419,539.29L422.52,550.73L426.04,547.37L429.56,528.52L433.08,549.39L436.61,558.81L440.13,521.79L443.65,557.46L447.17,539.96L450.69,592.46L454.21,559.48L457.73,547.37L461.25,494.19L464.77,561.5L468.29,566.89L471.82,564.19L475.34,556.12L478.86,585.73L485.9,563.52L489.42,591.79L492.94,587.75L496.46,552.75L499.98,589.1L503.5,579.68L507.03,580.35L510.55,589.1L514.07,592.46L517.59,598.52L521.11,592.46L524.63,592.46L528.15,555.44L531.67,556.79L535.19,576.31L538.71,530.54L542.24,556.12L545.76,597.85L549.28,535.93L552.8,574.29L556.32,574.96L559.84,587.08L563.36,592.46L566.88,616.02L570.4,607.27L573.92,576.98L580.97,589.1L584.49,607.95L588.01,605.93L591.53,609.29L595.05,603.23L598.57,607.95L602.09,620.06L605.61,614L609.13,589.77L612.66,644.97L616.18,603.23L619.7,614.68L626.74,595.83L630.26,612.66L633.78,600.54L637.3,583.04L644.34,616.02L647.87,579L651.39,594.48L654.91,589.77L658.43,596.5L661.95,599.87L665.47,607.95L668.99,587.75L672.51,585.06L676.03,567.56L679.55,591.79L683.08,590.45L686.6,591.79L690.12,577.66L693.64,578.33L697.16,567.56L700.68,553.43L704.2,560.83L707.72,539.29L711.24,542.66L714.76,566.89L718.29,552.75L721.81,523.81L725.33,511.02L728.85,529.87L732.37,456.5L735.89,498.23L739.41,455.16L742.93,469.96L746.45,397.27L749.97,393.23L753.5,421.5L760.54,345.44L764.06,441.69L767.58,391.89L771.1,391.89L774.62,374.38L778.14,336.69L781.66,196.02L785.18,294.29L788.71,246.5L792.23,305.06L795.75,174.48L799.27,227.65L802.79,286.21L806.31,253.23L809.83,298.33L813.35,274.77L816.87,130.73L820.39,35.15L823.92,122.65L827.44,230.34L830.96,124L834.48,165.06L838,181.88" style="vector-effect: non-scaling-stroke; fill: none; stroke: rgb(31, 119, 180); stroke-opacity: 1; stroke-width: 2px; opacity: 1;"/></g><g class="points"/><g class="text"/></g><g class="trace scatter trace7949e7" style="stroke-miterlimit: 2; opacity: 1;"><g class="fills"/><g class="errorbars"/><g class="lines"><path class="js-line" d="M0,667.18L112.67,666.5L116.19,665.83L119.71,667.18L123.24,667.18L137.32,667.18L140.84,382.46L144.36,597.85L147.88,562.85L151.4,571.6L154.92,537.94L158.45,535.25L161.97,512.37L165.49,549.39L169.01,547.37L172.53,484.1L176.05,511.69L179.57,486.12L183.09,476.02L186.61,490.16L190.13,508.33L193.66,525.16L197.18,442.37L200.7,470.64L204.22,423.52L207.74,452.46L211.26,442.37L214.78,461.21L218.3,471.31L221.82,387.85L225.34,358.23L228.87,393.23L232.39,383.14L235.91,336.69L239.43,313.81L242.95,371.69L246.47,231.02L249.99,268.04L253.51,249.86L257.03,286.88L260.55,253.23L264.08,330.63L267.6,482.75L271.12,369L274.64,433.62L278.16,383.81L281.68,402.65L285.2,405.35L288.72,425.54L292.24,492.17L295.76,361.6L299.29,425.54L302.81,373.04L306.33,412.08L309.85,438.33L313.37,480.06L316.89,492.17L323.93,452.46L327.45,493.52L330.97,412.08L334.5,444.39L338.02,518.43L341.54,492.17L345.06,388.52L348.58,464.58L352.1,458.52L355.62,418.14L359.14,359.58L362.66,436.31L366.18,444.39L369.71,447.08L373.23,399.96L376.75,414.77L380.27,422.17L383.79,461.89L387.31,505.64L390.83,440.35L394.35,296.31L397.87,327.27L401.39,463.91L404.92,430.92L408.44,382.46L411.96,497.56L415.48,520.44L419,429.58L422.52,519.1L426.04,501.6L429.56,520.44L433.08,498.23L440.13,550.06L443.65,513.04L447.17,537.94L450.69,515.06L454.21,547.37L457.73,549.39L461.25,607.27L464.77,567.56L468.29,544.68L471.82,529.87L475.34,546.69L478.86,550.06L482.38,544L485.9,559.48L489.42,548.04L492.94,531.21L496.46,551.41L499.98,547.37L503.5,487.46L507.03,591.79L510.55,580.35L514.07,585.06L517.59,576.31L521.11,572.27L524.63,599.2L528.15,578.33L531.67,591.12L535.19,595.83L538.71,605.25L542.24,527.85L545.76,565.54L549.28,574.96L552.8,572.95L556.32,587.08L559.84,598.52L563.36,595.83L566.88,550.06L570.4,556.12L573.92,554.1L577.45,557.46L580.97,585.06L584.49,582.37L588.01,589.1L591.53,568.91L595.05,560.16L598.57,587.75L602.09,595.16L605.61,567.56L609.13,598.52L612.66,616.7L616.18,576.98L619.7,600.54L623.22,611.31L626.74,599.2L630.26,613.33L633.78,611.31L637.3,606.6L640.82,607.27L644.34,616.02L647.87,595.83L651.39,606.6L654.91,594.48L658.43,614.68L661.95,616.7L665.47,589.77L668.99,615.35L672.51,611.31L676.03,597.85L679.55,614.68L683.08,618.04L686.6,605.25L690.12,574.96L693.64,587.08L697.16,589.1L700.68,595.83L704.2,592.46L707.72,587.08L711.24,587.08L714.76,575.64L718.29,571.6L721.81,583.71L725.33,587.08L728.85,583.71L732.37,577.66L735.89,588.43L739.41,563.52L742.93,546.69L746.45,548.71L749.97,548.04L753.5,538.62L757.02,547.37L760.54,535.25L764.06,493.52L767.58,474.67L771.1,476.69L774.62,439.67L778.14,472.66L781.66,444.39L785.18,449.77L788.71,359.58L792.23,320.54L795.75,379.1L799.27,374.38L802.79,307.75L806.31,303.04L809.83,299.67L813.35,191.31L816.87,199.38L820.39,179.86L823.92,196.02L827.44,192.65L830.96,217.56L834.48,247.17L838,140.15" style="vector-effect: non-scaling-stroke; fill: none; stroke: rgb(255, 127, 14); stroke-opacity: 1; stroke-width: 2px; opacity: 1;"/></g><g class="points"/><g class="text"/></g><g class="trace scatter trace120e74" style="stroke-miterlimit: 2; opacity: 1;"><g class="fills"/><g class="errorbars"/><g class="lines"><path class="js-line" d="M0,667.18L112.67,666.5L116.19,665.83L119.71,666.5L123.24,665.83L126.76,663.81L130.28,665.83L133.8,665.16L137.32,666.5L140.84,664.48L144.36,660.45L147.88,664.48L151.4,656.41L154.92,657.75L158.45,649L161.97,650.35L165.49,658.43L169.01,653.04L172.53,653.04L176.05,649.68L179.57,652.37L183.09,646.31L186.61,653.04L190.13,655.73L193.66,638.23L197.18,632.85L200.7,641.6L204.22,630.16L207.74,642.95L211.26,640.93L214.78,646.31L218.3,641.6L221.82,642.27L225.34,630.83L228.87,633.52L232.39,634.87L235.91,651.02L239.43,628.81L242.95,627.46L246.47,636.89L249.99,609.29L253.51,640.93L257.03,630.16L260.55,640.25L264.08,610.64L267.6,626.12L271.12,621.41L274.64,634.87L278.16,624.77L281.68,627.46L285.2,643.62L288.72,643.62L292.24,629.48L295.76,640.25L299.29,644.97L302.81,649L306.33,644.97L309.85,651.7L313.37,651.7L316.89,657.08L320.41,638.23L323.93,646.31L327.45,648.33L334.5,650.35L338.02,647.66L341.54,653.04L345.06,645.64L348.58,644.29L352.1,639.58L355.62,655.73L359.14,654.39L362.66,660.45L366.18,655.73L369.71,654.39L373.23,636.89L376.75,657.08L380.27,643.62L383.79,654.39L387.31,651.02L390.83,657.75L394.35,659.77L397.87,659.1L401.39,659.77L404.92,661.12L408.44,659.1L411.96,661.79L415.48,659.77L419,659.1L422.52,665.16L426.04,659.77L429.56,646.31L433.08,659.77L436.61,665.16L440.13,660.45L443.65,659.1L447.17,660.45L450.69,665.16L454.21,661.79L457.73,663.14L464.77,662.47L468.29,664.48L471.82,664.48L475.34,665.83L478.86,663.81L482.38,665.83L485.9,667.18L489.42,665.83L492.94,661.12L496.46,665.16L499.98,662.47L503.5,663.14L507.03,665.16L510.55,665.16L514.07,666.5L517.59,661.12L521.11,663.81L524.63,661.12L528.15,665.83L531.67,665.16L535.19,666.5L538.71,666.5L542.24,665.83L545.76,667.18L549.28,665.16L552.8,666.5L556.32,664.48L559.84,666.5L563.36,664.48L566.88,666.5L570.4,665.16L573.92,665.16L584.49,667.18L588.01,664.48L591.53,667.18L595.05,666.5L598.57,667.18L602.09,666.5L605.61,665.83L609.13,667.18L633.78,667.18L637.3,664.48L640.82,667.85L644.34,666.5L647.87,665.16L651.39,666.5L654.91,667.18L658.43,666.5L665.47,665.83L668.99,666.5L672.51,663.14L676.03,667.18L683.08,666.5L686.6,666.5L697.16,667.85L700.68,667.18L704.2,665.83L707.72,667.18L718.29,666.5L721.81,667.85L725.33,666.5L728.85,666.5L732.37,666.5L735.89,664.48L739.41,665.83L742.93,665.16L746.45,667.18L749.97,666.5L757.02,665.83L760.54,665.16L764.06,665.16L767.58,666.5L774.62,667.18L778.14,665.83L781.66,666.5L785.18,664.48L792.23,665.16L795.75,616.02L802.79,662.47L806.31,663.81L809.83,662.47L813.35,666.5L816.87,664.48L820.39,663.81L823.92,662.47L827.44,666.5L830.96,665.16L834.48,661.12L838,667.18" style="vector-effect: non-scaling-stroke; fill: none; stroke: rgb(44, 160, 44); stroke-opacity: 1; stroke-width: 2px; opacity: 1;"/></g><g class="points"/><g class="text"/></g></g></g><g class="overplot"/><path class="xlines-above crisp" style="fill: none;" d="M0,0"/><path class="ylines-above crisp" style="fill: none;" d="M0,0"/><g class="overlines-above"/><g class="xaxislayer-above"><g class="xtick"><text text-anchor="middle" x="0" y="741" transform="translate(102.25,0)" style="font-family: 'Open Sans', verdana, arial, sans-serif; font-size: 12px; fill: rgb(68, 68, 68); fill-opacity: 1; white-space: pre;">Mar 2020</text></g><g class="xtick"><text text-anchor="middle" x="0" y="741" transform="translate(211.4,0)" style="font-family: 'Open Sans', verdana, arial, sans-serif; font-size: 12px; fill: rgb(68, 68, 68); fill-opacity: 1; white-space: pre;">Apr 2020</text></g><g class="xtick"><text text-anchor="middle" x="0" y="741" transform="translate(317.03,0)" style="font-family: 'Open Sans', verdana, arial, sans-serif; font-size: 12px; fill: rgb(68, 68, 68); fill-opacity: 1; white-space: pre;">May 2020</text></g><g class="xtick"><text text-anchor="middle" x="0" y="741" transform="translate(426.18,0)" style="font-family: 'Open Sans', verdana, arial, sans-serif; font-size: 12px; fill: rgb(68, 68, 68); fill-opacity: 1; white-space: pre;">Jun 2020</text></g><g class="xtick"><text text-anchor="middle" x="0" y="741" transform="translate(531.8199999999999,0)" style="font-family: 'Open Sans', verdana, arial, sans-serif; font-size: 12px; fill: rgb(68, 68, 68); fill-opacity: 1; white-space: pre;">Jul 2020</text></g><g class="xtick"><text text-anchor="middle" x="0" y="741" transform="translate(640.97,0)" style="font-family: 'Open Sans', verdana, arial, sans-serif; font-size: 12px; fill: rgb(68, 68, 68); fill-opacity: 1; white-space: pre;">Aug 2020</text></g><g class="xtick"><text text-anchor="middle" x="0" y="741" transform="translate(750.12,0)" style="font-family: 'Open Sans', verdana, arial, sans-serif; font-size: 12px; fill: rgb(68, 68, 68); fill-opacity: 1; white-space: pre;">Sep 2020</text></g><g class="xtick"><text text-anchor="middle" x="0" y="741" transform="translate(855.75,0)" style="font-family: 'Open Sans', verdana, arial, sans-serif; font-size: 12px; fill: rgb(68, 68, 68); fill-opacity: 1; white-space: pre;">Oct 2020</text></g></g><g class="yaxislayer-above"><g class="ytick"><text text-anchor="end" x="59" y="4.199999999999999" transform="translate(0,692.18)" style="font-family: 'Open Sans', verdana, arial, sans-serif; font-size: 12px; fill: rgb(68, 68, 68); fill-opacity: 1; white-space: pre;">0</text></g><g class="ytick"><text text-anchor="end" x="59" y="4.199999999999999" transform="translate(0,557.56)" style="font-family: 'Open Sans', verdana, arial, sans-serif; font-size: 12px; fill: rgb(68, 68, 68); fill-opacity: 1; white-space: pre;">200</text></g><g class="ytick"><text text-anchor="end" x="59" y="4.199999999999999" transform="translate(0,422.94)" style="font-family: 'Open Sans', verdana, arial, sans-serif; font-size: 12px; fill: rgb(68, 68, 68); fill-opacity: 1; white-space: pre;">400</text></g><g class="ytick"><text text-anchor="end" x="59" y="4.199999999999999" transform="translate(0,288.33)" style="font-family: 'Open Sans', verdana, arial, sans-serif; font-size: 12px; fill: rgb(68, 68, 68); fill-opacity: 1; white-space: pre;">600</text></g><g class="ytick"><text text-anchor="end" x="59" y="4.199999999999999" transform="translate(0,153.71)" style="font-family: 'Open Sans', verdana, arial, sans-serif; font-size: 12px; fill: rgb(68, 68, 68); fill-opacity: 1; white-space: pre;">800</text></g></g><g class="overaxes-above"/></g></g><g class="polarlayer"/><g class="ternarylayer"/><g class="geolayer"/><g class="funnelarealayer"/><g class="pielayer"/><g class="treemaplayer"/><g class="sunburstlayer"/><g class="glimages"/><defs id="topdefs-2969cc"><g class="clips"/><clipPath id="legend2969cc"><rect width="102" height="67" x="0" y="0"/></clipPath></defs><g class="layer-above"><g class="imagelayer"/><g class="shapelayer"/></g><g class="infolayer"><g class="legend" pointer-events="all" transform="translate(914.76, 25)"><rect class="bg" shape-rendering="crispEdges" style="stroke: rgb(68, 68, 68); stroke-opacity: 1; fill: rgb(255, 255, 255); fill-opacity: 1; stroke-width: 0px;" width="102" height="67" x="0" y="0"/><g class="scrollbox" transform="translate(0, 0)" clip-path="url('#legend2969cc')"><g class="groups"><g class="traces" style="opacity: 1;" transform="translate(0, 14.5)"><text class="legendtext user-select-none" text-anchor="start" x="40" y="4.680000000000001" style="font-family: 'Open Sans', verdana, arial, sans-serif; font-size: 12px; fill: rgb(68, 68, 68); fill-opacity: 1; white-space: pre;">positive</text><g class="layers" style="opacity: 1;"><g class="legendfill"/><g class="legendlines"><path class="js-line" d="M5,0h30" style="fill: none; stroke: rgb(31, 119, 180); stroke-opacity: 1; stroke-width: 2px;"/></g><g class="legendsymbols"><g class="legendpoints"/></g></g><rect class="legendtoggle" pointer-events="all" x="0" y="-9.5" width="96.109375" height="19" style="cursor: pointer; fill: rgb(0, 0, 0); fill-opacity: 0;"/></g><g class="traces" style="opacity: 1;" transform="translate(0, 33.5)"><text class="legendtext user-select-none" text-anchor="start" x="40" y="4.680000000000001" style="font-family: 'Open Sans', verdana, arial, sans-serif; font-size: 12px; fill: rgb(68, 68, 68); fill-opacity: 1; white-space: pre;">resolved</text><g class="layers" style="opacity: 1;"><g class="legendfill"/><g class="legendlines"><path class="js-line" d="M5,0h30" style="fill: none; stroke: rgb(255, 127, 14); stroke-opacity: 1; stroke-width: 2px;"/></g><g class="legendsymbols"><g class="legendpoints"/></g></g><rect class="legendtoggle" pointer-events="all" x="0" y="-9.5" width="96.109375" height="19" style="cursor: pointer; fill: rgb(0, 0, 0); fill-opacity: 0;"/></g><g class="traces" style="opacity: 1;" transform="translate(0, 52.5)"><text class="legendtext user-select-none" text-anchor="start" x="40" y="4.680000000000001" style="font-family: 'Open Sans', verdana, arial, sans-serif; font-size: 12px; fill: rgb(68, 68, 68); fill-opacity: 1; white-space: pre;">deceased</text><g class="layers" style="opacity: 1;"><g class="legendfill"/><g class="legendlines"><path class="js-line" d="M5,0h30" style="fill: none; stroke: rgb(44, 160, 44); stroke-opacity: 1; stroke-width: 2px;"/></g><g class="legendsymbols"><g class="legendpoints"/></g></g><rect class="legendtoggle" pointer-events="all" x="0" y="-9.5" width="96.109375" height="19" style="cursor: pointer; fill: rgb(0, 0, 0); fill-opacity: 0;"/></g></g></g><rect class="scrollbar" rx="20" ry="3" width="0" height="0" style="fill: rgb(128, 139, 164); fill-opacity: 1;" x="0" y="0"/></g><g class="g-gtitle"><text class="gtitle" x="513.5" y="12.5" text-anchor="middle" dy="0em" style="font-family: 'Open Sans', verdana, arial, sans-serif; font-size: 17px; fill: rgb(68, 68, 68); opacity: 1; font-weight: normal; white-space: pre;">Dynamics of new cases, resolved cases and deaths in Ontario (Oct 14, 2020)</text></g><g class="g-xtitle" transform="translate(0,-15)"><text class="xtitle" x="479" y="780" text-anchor="middle" style="font-family: 'Open Sans', verdana, arial, sans-serif; font-size: 14px; fill: rgb(68, 68, 68); opacity: 1; font-weight: normal; white-space: pre;">Date</text></g><g class="g-ytitle"><text class="ytitle" transform="rotate(-90,22,376.5)" x="22" y="376.5" text-anchor="middle" style="font-family: 'Open Sans', verdana, arial, sans-serif; font-size: 14px; fill: rgb(68, 68, 68); opacity: 1; font-weight: normal; white-space: pre;">Number of cases</text></g></g></svg>