<svg class="main-svg" xmlns="http://www.w3.org/2000/svg" xmlns:xlink="http://www.w3.org/1999/xlink" width="1027" height="768" style="" viewBox="0 0 1027 768"><rect x="0" y="0" width="1027" height="768" style="fill: rgb(255, 255, 255); fill-opacity: 1;"/><defs id="defs-e68381"><g class="clips"><clipPath id="clipe68381xyplot" class="plotclip"><rect width="838" height="703"/></clipPath><clipPath class="axesclip" id="clipe68381x"><rect x="60" y="0" width="838" height="768"/></clipPath><clipPath class="axesclip" id="clipe68381y"><rect x="0" y="25" width="1027" height="703"/></clipPath><clipPath class="axesclip" id="clipe68381xy"><rect x="60" y="25" width="838" height="703"/></clipPath></g><g class="gradients"/></defs><g class="bglayer"/><g class="layer-below"><g class="imagelayer"/><g class="shapelayer"/></g><g class="cartesianlayer"><g class="subplot xy"><g class="layer-subplot"><g class="shapelayer"/><g class="imagelayer"/></g><g class="gridlayer"><g class="x"><path class="xgrid crisp" transform="translate(81.77,0)" d="M0,25v703" style="stroke: rgb(238, 238, 238); stroke-opacity: 1; stroke-width: 1px;"/><path class="xgrid crisp" transform="translate(192.41,0)" d="M0,25v703" style="stroke: rgb(238, 238, 238); stroke-opacity: 1; stroke-width: 1px;"/><path class="xgrid crisp" transform="translate(303.06,0)" d="M0,25v703" style="stroke: rgb(238, 238, 238); stroke-opacity: 1; stroke-width: 1px;"/><path class="xgrid crisp" transform="translate(415.52,0)" d="M0,25v703" style="stroke: rgb(238, 238, 238); stroke-opacity: 1; stroke-width: 1px;"/><path class="xgrid crisp" transform="translate(526.1600000000001,0)" d="M0,25v703" style="stroke: rgb(238, 238, 238); stroke-opacity: 1; stroke-width: 1px;"/><path class="xgrid crisp" transform="translate(636.81,0)" d="M0,25v703" style="stroke: rgb(238, 238, 238); stroke-opacity: 1; stroke-width: 1px;"/><path class="xgrid crisp" transform="translate(743.82,0)" d="M0,25v703" style="stroke: rgb(238, 238, 238); stroke-opacity: 1; stroke-width: 1px;"/><path class="xgrid crisp" transform="translate(854.47,0)" d="M0,25v703" style="stroke: rgb(238, 238, 238); stroke-opacity: 1; stroke-width: 1px;"/></g><g class="y"><path class="ygrid crisp" transform="translate(0,561.26)" d="M60,0h838" style="stroke: rgb(238, 238, 238); stroke-opacity: 1; stroke-width: 1px;"/><path class="ygrid crisp" transform="translate(0,429.81)" d="M60,0h838" style="stroke: rgb(238, 238, 238); stroke-opacity: 1; stroke-width: 1px;"/><path class="ygrid crisp" transform="translate(0,298.35)" d="M60,0h838" style="stroke: rgb(238, 238, 238); stroke-opacity: 1; stroke-width: 1px;"/><path class="ygrid crisp" transform="translate(0,166.89)" d="M60,0h838" style="stroke: rgb(238, 238, 238); stroke-opacity: 1; stroke-width: 1px;"/><path class="ygrid crisp" transform="translate(0,35.44)" d="M60,0h838" style="stroke: rgb(238, 238, 238); stroke-opacity: 1; stroke-width: 1px;"/></g></g><g class="zerolinelayer"><path class="yzl zl crisp" transform="translate(0,692.72)" d="M60,0h838" style="stroke: rgb(68, 68, 68); stroke-opacity: 1; stroke-width: 1px;"/></g><path class="xlines-below"/><path class="ylines-below"/><g class="overlines-below"/><g class="xaxislayer-below"/><g class="yaxislayer-below"/><g class="overaxes-below"/><g class="plot" transform="translate(60, 25)" clip-path="url('#clipe68381xyplot')"><g class="scatterlayer mlayer"><g class="trace scatter trace0db8cc" style="stroke-miterlimit: 2; opacity: 1;"><g class="fills"/><g class="errorbars"/><g class="lines"><path class="js-line" d="M0,667.72L18.14,667.59L23.58,666.14L25.39,667.46L27.21,667.72L36.28,666.8L38.09,667.72L45.35,664.56L47.16,662.2L48.97,663.51L50.79,666.27L56.23,659.83L58.04,660.23L59.86,661.93L61.67,657.6L65.3,655.23L67.11,645.63L68.93,650.37L70.74,648L72.55,590.29L74.37,633.54L76.18,611.72L78,615L79.81,606.99L81.62,618.42L83.44,614.08L85.25,627.1L87.06,617.9L88.88,595.42L90.69,604.23L92.51,604.88L94.32,613.69L96.13,615L97.95,612.38L99.76,604.23L101.58,602.78L103.39,600.15L105.2,593.58L107.02,603.96L108.83,593.05L110.65,588.06L114.27,600.68L116.09,584.38L117.9,583.59L119.71,605.15L121.53,610.27L123.34,611.98L125.16,598.7L126.97,622.1L128.78,607.38L130.6,612.38L132.41,600.54L134.23,610.67L136.04,619.08L137.85,616.84L139.67,613.56L141.48,615.27L143.29,605.01L145.11,622.23L146.92,629.07L148.74,627.23L150.55,620.26L152.36,624.47L154.18,622.37L155.99,622.89L157.81,616.32L159.62,623.02L161.43,627.76L163.25,611.59L165.06,616.45L166.87,613.43L168.69,609.75L170.5,613.56L172.32,607.25L174.13,614.61L175.94,629.99L177.76,629.33L179.57,617.37L181.39,622.5L183.2,625.26L185.01,624.86L186.83,614.61L188.64,609.09L190.45,623.29L192.27,620.92L194.08,622.5L195.9,607.91L197.71,613.16L199.52,635.77L201.34,637.48L203.15,634.72L204.97,641.03L206.78,643.79L208.59,632.75L210.41,641.82L212.22,643.92L214.03,643.53L215.85,642.74L217.66,644.98L219.48,644.32L221.29,640.64L223.1,644.71L224.92,646.55L226.73,639.32L228.55,646.29L230.36,642.87L232.17,653.13L233.99,646.69L235.8,644.32L237.61,633.93L239.43,647.08L241.24,648.13L243.06,647.61L244.87,646.03L246.68,651.81L250.31,647.47L252.13,653L253.94,652.21L255.75,645.37L257.57,652.47L259.38,650.63L261.19,650.76L263.01,652.47L266.64,654.31L268.45,653.13L270.26,653.13L272.08,645.9L273.89,646.16L275.71,649.97L277.52,641.03L279.33,646.03L281.15,654.18L282.96,642.08L284.77,649.58L286.59,649.71L288.4,652.08L290.22,653.13L292.03,657.73L293.84,656.02L295.66,650.1L297.47,651.42L299.29,652.47L301.1,656.15L302.91,655.76L304.73,656.41L306.54,655.23L308.35,656.15L310.17,658.52L311.98,657.33L313.8,652.6L315.61,663.38L317.42,655.23L319.24,657.46L322.87,653.78L324.68,657.07L328.31,651.29L330.12,654.31L331.94,657.73L333.75,650.5L335.56,653.52L337.38,652.6L342.82,656.15L344.63,652.21L346.45,651.68L348.26,648.26L350.07,653L351.89,652.73L353.7,653L355.52,650.23L357.33,650.37L359.14,648.26L360.96,645.5L362.77,646.95L364.58,642.74L366.4,643.4L368.21,648.13L370.03,645.37L371.84,639.72L373.65,637.22L375.47,640.9L377.28,626.57L379.1,634.72L380.91,626.31L382.72,629.2L384.54,615L386.35,614.22L388.16,619.74L391.79,604.88L393.61,623.68L395.42,613.95L397.23,613.95L399.05,610.53L400.86,603.17L402.68,575.7L404.49,594.89L406.3,585.56L408.12,596.99L409.93,571.49L411.74,581.88L413.56,593.31L415.37,586.87L417.19,595.68L419,591.08L422.63,544.28L424.44,561.37L426.26,582.4L428.07,561.63L429.88,569.65L431.7,572.94L433.51,564.79L435.32,574.12L437.14,561.9L438.95,581.22L440.77,575.17L442.58,559.79L444.39,563.87L446.21,557.16L448.02,559.14L449.84,539.15L451.65,530.74L453.46,555.85L455.28,559L457.09,558.08L458.9,544.94L460.72,549.93L462.53,534.29L464.35,539.29L466.16,543.1L467.97,529.69L469.79,537.97L471.6,536.52L473.42,535.87L475.23,518.91L477.04,493.14L478.86,504.45L480.67,485.26L482.48,480.26L484.3,460.67L486.11,484.21L487.93,459.89L489.74,503.66L491.55,472.24L493.37,503.53L495.18,481.44L497,508.66L500.62,458.97L502.44,466.06L504.25,458.83L506.06,535.08L507.88,487.23L509.69,473.43L511.51,423.87L513.32,428.2L515.13,443.19L516.95,438.2L518.76,443.32L520.58,441.22L522.39,427.94L524.2,433.73L527.83,414.8L529.65,414.66L531.46,447.4L533.27,419.27L535.09,407.04L536.9,424.79L538.71,421.5L540.53,447.27L544.16,368.66L545.97,386.53L547.78,348.02L549.6,366.68L551.41,357.88L553.23,363.27L555.04,388.64L556.85,378.25L558.67,351.17L560.48,346.04L562.29,383.9L564.11,386.14L565.92,404.15L567.74,412.82L571.36,283.47L573.18,230.23L574.99,342.23L576.81,225.63L578.62,278.08L580.43,237.86L582.25,256.52L584.06,238.38L585.87,205.12L587.69,109.16L589.5,215.11L591.32,149.12L594.94,286.1L596.76,278.48L598.57,230.49L600.39,273.61L602.2,265.99L604.01,217.87L607.64,416.24L609.45,318.7L611.27,321.73L613.08,317.78L614.9,357.61L616.71,349.99L618.52,410.33L620.34,438.98L622.15,448.19L623.97,392.58L625.78,426.23L627.59,396.52L629.41,424.79L631.22,408.88L633.03,569.78L634.85,513.65L636.66,462.25L638.48,448.19L640.29,485.26L642.1,471.98L645.73,533.37L647.55,526.8L649.36,543.49L651.17,526.27L652.99,496.83L654.8,538.76L656.61,540.99L658.43,548.88L660.24,556.37L662.06,531.27L665.68,506.29L667.5,524.83L669.31,528.64L671.13,539.55L674.75,518.12L676.57,502.35L678.38,511.94L680.19,528.11L682.01,533.24L683.82,540.73L685.64,541.78L687.45,537.05L689.26,503.4L691.08,537.58L694.71,453.31L696.52,511.94L698.33,494.72L700.15,524.17L701.96,487.49L703.77,474.74L705.59,438.06L707.4,501.03L709.22,526.53L711.03,469.48L712.84,463.57L714.66,438.33L716.47,427.28L718.29,432.28L720.1,444.37L721.91,464.49L723.73,461.2L725.54,354.85L727.35,382.59L729.17,345.26L730.98,345.91L732.8,392.45L734.61,360.64L736.42,361.03L738.24,331.58L740.05,261.65L741.87,272.17L743.68,267.96L745.49,281.5L747.31,264.8L749.12,245.09L750.94,234.57L752.75,112.05L754.56,166.48L756.38,81.95L758.19,89.18L760,185.27L761.82,121.39L763.63,45.14L765.45,35.15L767.26,94.31L769.07,109.03L770.89,83.13L772.7,211.7L774.52,114.02L776.33,183.7L778.14,75.51L779.96,129.54L781.77,148.86L783.58,206.31L785.4,238.51L787.21,210.25L789.03,158.85L790.84,156.75L792.65,224.84L794.47,177.12L796.28,216.03L798.1,300.82L799.91,281.11L801.72,217.61L805.35,291.23L807.16,244.95L810.79,395.21L812.61,362.74L814.42,305.03L816.23,357.22L818.05,328.04L819.86,378.65L821.68,382.46L823.49,455.28L825.3,458.97L827.12,352.22L828.93,419.27L830.74,431.89L832.56,445.43L834.37,477.63L836.19,531.14L838,523.77" style="vector-effect: non-scaling-stroke; fill: none; stroke: rgb(31, 119, 180); stroke-opacity: 1; stroke-width: 2px; opacity: 1;"/></g><g class="points"/><g class="text"/></g><g class="trace scatter tracee4b931" style="stroke-miterlimit: 2; opacity: 1;"><g class="fills"/><g class="errorbars"/><g class="lines"><path class="js-line" d="M0,667.72L70.74,667.72L72.55,612.11L74.37,654.18L76.18,647.34L78,649.05L79.81,642.48L81.62,641.95L83.44,637.48L85.25,644.71L87.06,644.32L88.88,631.96L90.69,637.35L92.51,632.36L94.32,630.38L99.76,639.98L101.58,623.81L103.39,629.33L105.2,620.13L107.02,625.78L108.83,623.81L112.46,629.46L114.27,613.16L116.09,607.38L117.9,614.22L119.71,612.24L121.53,603.17L123.34,598.7L125.16,610.01L126.97,582.53L128.78,589.76L130.6,586.22L132.41,593.45L134.23,586.87L136.04,601.99L137.85,631.7L139.67,609.48L141.48,622.1L143.29,612.38L145.11,616.06L146.92,616.58L148.74,620.53L150.55,633.54L152.36,608.04L154.18,620.53L155.99,610.27L157.81,617.9L159.62,623.02L161.43,631.17L163.25,633.54L165.06,629.33L166.87,625.78L168.69,633.8L170.5,617.9L172.32,624.21L174.13,638.67L175.94,633.54L177.76,613.3L179.57,628.15L181.39,626.97L183.2,619.08L185.01,607.64L186.83,622.63L188.64,624.21L190.45,624.73L192.27,615.53L194.08,618.42L195.9,619.87L197.71,627.62L199.52,636.17L201.34,623.42L203.15,595.29L204.97,601.33L206.78,628.02L208.59,621.58L210.41,612.11L212.22,634.59L214.03,639.06L215.85,621.31L217.66,638.8L219.48,635.38L221.29,639.06L223.1,634.72L226.73,644.85L228.55,637.62L230.36,642.48L232.17,638.01L233.99,644.32L235.8,644.71L237.61,656.02L239.43,648.26L243.06,640.9L244.87,644.19L246.68,644.85L248.5,643.66L250.31,646.69L252.13,644.45L253.94,641.16L255.75,645.11L257.57,644.32L259.38,632.62L261.19,653L263.01,650.76L264.82,651.68L266.64,649.97L268.45,649.18L270.26,654.44L272.08,650.37L273.89,652.86L275.71,653.78L277.52,655.62L279.33,640.51L281.15,647.87L282.96,649.71L284.77,649.31L288.4,654.31L290.22,653.78L292.03,644.85L293.84,646.03L295.66,645.63L297.47,646.29L299.29,651.68L301.1,651.16L302.91,652.47L304.73,648.53L306.54,646.82L308.35,652.21L310.17,653.65L311.98,648.26L315.61,657.86L317.42,650.1L319.24,654.7L321.05,656.81L322.87,654.44L324.68,657.2L330.12,656.02L331.94,657.73L333.75,653.78L335.56,655.89L337.38,653.52L339.19,657.46L341,657.86L342.82,652.6L344.63,657.6L346.45,656.81L348.26,654.18L350.07,657.46L351.89,658.12L353.7,655.62L355.52,649.71L357.33,652.08L359.14,652.47L360.96,653.78L366.4,652.08L368.21,649.84L370.03,649.05L371.84,651.42L373.65,652.08L375.47,651.42L377.28,650.23L379.1,652.34L382.72,644.19L384.54,644.58L386.35,644.45L388.16,642.61L389.98,644.32L391.79,641.95L393.61,633.8L395.42,630.12L397.23,630.52L399.05,623.29L400.86,629.73L402.68,624.21L404.49,625.26L406.3,607.64L408.12,600.02L409.93,611.46L411.74,610.53L413.56,597.52L417.19,595.94L419,574.78L420.81,576.36L422.63,572.54L424.44,575.7L426.26,575.04L429.88,585.69L431.7,564.79L433.51,565.31L435.32,573.99L437.14,578.07L438.95,577.67L440.77,587.92L442.58,585.16L444.39,573.2L446.21,570.31L448.02,571.36L449.84,585.56L451.65,570.97L453.46,578.46L455.28,576.88L457.09,566.1L458.9,559.92L460.72,563.08L462.53,562.82L464.35,554.14L466.16,559.14L467.97,557.69L469.79,543.49L471.6,543.1L473.42,542.97L475.23,555.72L477.04,552.43L478.86,559.79L480.67,565.05L482.48,551.25L484.3,547.17L486.11,533.9L487.93,535.87L489.74,528.11L491.55,537.31L493.37,518.52L495.18,471.19L497,486.83L498.81,481.71L500.62,488.54L504.25,472.64L506.06,525.48L507.88,473.69L509.69,488.28L513.32,469.22L515.13,478.03L516.95,494.2L518.76,487.23L520.58,446.08L522.39,465.14L524.2,463.57L526.02,454.23L527.83,460.81L529.65,482.1L531.46,464.09L533.27,414.8L535.09,430.57L536.9,437.28L538.71,415.59L540.53,447.13L542.34,465.93L544.16,429.78L545.97,399.15L547.78,403.62L549.6,405.86L551.41,422.55L553.23,413.88L555.04,450.29L558.67,372.86L560.48,403.1L562.29,373.65L564.11,416.24L565.92,404.15L567.74,384.96L569.55,374.18L571.36,373.65L573.18,376.81L574.99,344.34L576.81,397.71L578.62,381.8L580.43,395.08L582.25,402.83L584.06,272.69L585.87,302.8L587.69,307.79L589.5,284.52L591.32,339.6L593.13,305.42L594.94,226.94L596.76,221.82L598.57,195.4L600.39,223.4L604.01,263.1L605.83,296.22L607.64,290.04L609.45,179.49L611.27,274.66L613.08,224.05L618.52,345.91L620.34,370.5L622.15,309.5L623.97,340.26L625.78,286.49L627.59,322.91L631.22,387.45L633.03,365.76L634.85,438.33L636.66,410.59L638.48,374.18L640.29,431.62L642.1,413.09L643.92,444.24L645.73,485.26L647.55,443.06L649.36,491.04L651.17,481.71L652.99,479.21L654.8,505.37L658.43,521.54L660.24,476.32L662.06,499.85L663.87,502.74L665.68,495.12L667.5,517.86L671.13,536L672.94,498.01L674.75,523.91L676.57,535.34L678.38,538.37L680.19,532.45L682.01,544.28L683.82,539.02L685.64,524.43L687.45,526.8L689.26,515.36L691.08,516.28L692.89,522.46L694.71,537.05L696.52,539.94L698.33,508.39L700.15,521.8L701.96,519.96L705.59,514.31L707.4,521.28L709.22,525.09L711.03,472.11L712.84,505.24L714.66,497.35L716.47,501.95L718.29,489.86L720.1,513.26L721.91,500.64L723.73,466.46L725.54,493.01L727.35,447.53L729.17,473.03L730.98,464.88L732.8,467.38L734.61,473.56L736.42,408.35L738.24,429.26L740.05,414.66L741.87,428.6L743.68,418.08L745.49,436.22L747.31,407.96L749.12,351.3L750.94,329.09L752.75,320.54L754.56,349.33L756.38,323.7L758.19,346.31L760,329.48L761.82,252.32L763.63,250.48L765.45,253.5L767.26,193.03L769.07,228.92L770.89,253.24L772.7,224.84L774.52,115.08L776.33,63.41L778.14,50.14L779.96,98.25L781.77,110.47L783.58,134.4L785.4,153.99L787.21,73.93L789.03,109.69L790.84,110.08L792.65,146.63L794.47,148.86L798.1,230.89L799.91,94.44L801.72,142.29L803.54,158.32L805.35,195L807.16,187.51L808.98,258.89L810.79,286.76L812.61,210.64L814.42,213.54L816.23,207.36L818.05,265.07L819.86,262.96L821.68,279.53L823.49,338.81L825.3,257.71L827.12,304.5L828.93,314.23L830.74,336.45L832.56,344.6L834.37,395.34L836.19,402.44L838,356.04" style="vector-effect: non-scaling-stroke; fill: none; stroke: rgb(255, 127, 14); stroke-opacity: 1; stroke-width: 2px; opacity: 1;"/></g><g class="points"/><g class="text"/></g><g class="trace scatter trace187d90" style="stroke-miterlimit: 2; opacity: 1;"><g class="fills"/><g class="errorbars"/><g class="lines"><path class="js-line" d="M0,667.72L72.55,667.19L74.37,666.4L76.18,667.19L78,665.62L79.81,665.88L81.62,664.17L83.44,664.43L85.25,666.01L87.06,664.96L88.88,664.96L90.69,664.3L92.51,664.83L94.32,663.64L96.13,664.96L97.95,665.48L99.76,662.07L101.58,661.01L103.39,662.72L105.2,660.49L107.02,662.99L108.83,662.59L110.65,663.64L112.46,662.72L114.27,662.85L116.09,660.62L117.9,661.15L119.71,661.41L121.53,664.56L123.34,660.23L125.16,659.96L126.97,661.8L128.78,656.41L130.6,662.59L132.41,660.49L134.23,662.46L136.04,656.68L137.85,659.7L139.67,658.78L141.48,661.41L143.29,659.44L145.11,659.96L146.92,663.12L148.74,663.12L150.55,660.36L152.36,662.46L154.18,663.38L155.99,664.17L157.81,663.38L159.62,664.7L161.43,664.7L163.25,665.75L165.06,662.07L166.87,663.64L168.69,664.04L174.13,663.91L175.94,664.96L177.76,663.51L179.57,663.25L181.39,662.33L183.2,665.48L185.01,665.22L186.83,666.4L190.45,665.22L192.27,661.8L194.08,665.75L195.9,663.12L197.71,665.22L199.52,664.56L203.15,666.27L204.97,666.14L214.03,666.27L215.85,666.14L217.66,667.32L219.48,666.27L221.29,663.64L223.1,666.27L224.92,667.32L226.73,666.4L230.36,666.4L232.17,667.32L233.99,666.67L235.8,666.93L241.24,667.19L243.06,667.19L250.31,667.72L252.13,667.46L253.94,666.54L255.75,667.32L259.38,666.93L261.19,667.32L264.82,667.59L266.64,666.54L268.45,667.06L270.26,666.54L272.08,667.46L273.89,667.32L281.15,667.72L282.96,667.32L288.4,667.59L290.22,667.19L293.84,667.32L295.66,667.32L308.35,667.72L310.17,667.59L317.42,667.59L319.24,667.72L328.31,667.19L330.12,667.85L335.56,667.59L337.38,667.72L346.45,666.93L348.26,667.72L357.33,667.72L359.14,667.85L370.03,667.59L371.84,667.85L379.1,667.19L380.91,667.46L391.79,667.32L393.61,667.32L399.05,667.72L400.86,667.46L408.12,667.32L409.93,657.73L413.56,666.8L415.37,667.06L417.19,666.8L419,667.59L424.44,666.8L426.26,667.59L429.88,666.54L431.7,667.72L437.14,666.4L438.95,667.06L442.58,667.32L444.39,666.54L457.09,667.06L458.9,666.4L466.16,666.8L467.97,665.88L471.6,666.01L473.42,665.88L477.04,666.01L478.86,666.14L486.11,665.22L487.93,665.09L489.74,663.91L491.55,666.4L493.37,666.14L495.18,663.51L497,664.04L498.81,666.67L500.62,664.96L502.44,665.88L504.25,665.22L506.06,665.88L507.88,663.12L509.69,664.96L511.51,665.09L513.32,663.91L515.13,664.56L516.95,666.67L518.76,666.8L520.58,663.12L522.39,665.88L524.2,664.43L527.83,665.75L529.65,664.3L531.46,666.4L533.27,664.04L536.9,661.8L538.71,665.48L540.53,665.62L542.34,664.7L544.16,665.09L545.97,662.07L547.78,664.7L549.6,662.46L551.41,664.17L553.23,664.43L555.04,665.48L556.85,664.96L558.67,662.33L560.48,661.28L564.11,662.72L565.92,665.35L567.74,662.85L569.55,662.33L571.36,665.22L573.18,660.36L576.81,661.93L578.62,664.43L580.43,663.91L582.25,661.01L584.06,662.85L585.87,656.02L587.69,664.3L589.5,662.46L591.32,659.7L593.13,663.91L594.94,662.33L596.76,657.99L598.57,659.57L600.39,654.57L602.2,661.01L604.01,658.65L605.83,664.56L607.64,661.67L609.45,656.02L611.27,661.67L613.08,656.28L614.9,660.88L618.52,662.07L620.34,659.44L622.15,661.28L623.97,660.36L625.78,660.09L627.59,658.12L629.41,662.07L631.22,662.99L633.03,665.88L634.85,658.91L636.66,656.15L638.48,661.8L640.29,661.8L642.1,664.83L643.92,663.38L645.73,665.48L647.55,662.33L649.36,665.35L652.99,665.22L654.8,662.2L656.61,666.01L658.43,666.01L660.24,666.4L662.06,661.93L663.87,661.54L665.68,664.04L667.5,666.01L669.31,666.27L672.94,666.54L674.75,664.7L676.57,664.04L678.38,665.62L680.19,665.09L682.01,666.93L685.64,665.48L687.45,666.4L689.26,664.83L691.08,666.93L692.89,665.75L694.71,666.4L696.52,666.93L698.33,665.62L700.15,666.4L701.96,665.35L703.77,666.27L705.59,665.75L707.4,666.54L709.22,666.27L712.84,665.75L714.66,666.4L716.47,666.27L718.29,665.35L720.1,667.32L721.91,666.54L723.73,666.4L725.54,665.48L727.35,666.14L729.17,665.62L730.98,665.22L732.8,666.4L740.05,664.7L741.87,665.62L747.31,666.67L749.12,665.48L756.38,664.96L758.19,665.75L760,665.75L761.82,664.04L765.45,664.43L767.26,663.25L769.07,665.35L770.89,665.22L772.7,664.83L774.52,663.51L776.33,662.46L778.14,663.25L779.96,664.56L781.77,664.56L787.21,664.56L789.03,662.33L790.84,664.96L792.65,663.91L796.28,665.62L798.1,664.43L799.91,661.93L801.72,664.3L805.35,664.43L807.16,661.54L808.98,665.22L810.79,665.75L812.61,663.51L814.42,663.64L818.05,664.56L819.86,663.77L821.68,667.19L823.49,665.48L825.3,665.22L827.12,664.17L828.93,664.17L830.74,665.09L834.37,666.67L836.19,663.38L838,664.7" style="vector-effect: non-scaling-stroke; fill: none; stroke: rgb(44, 160, 44); stroke-opacity: 1; stroke-width: 2px; opacity: 1;"/></g><g class="points"/><g class="text"/></g></g></g><g class="overplot"/><path class="xlines-above crisp" style="fill: none;" d="M0,0"/><path class="ylines-above crisp" style="fill: none;" d="M0,0"/><g class="overlines-above"/><g class="xaxislayer-above"><g class="xtick"><text text-anchor="middle" x="0" y="741" transform="translate(81.77,0)" style="font-family: 'Open Sans', verdana, arial, sans-serif; font-size: 12px; fill: rgb(68, 68, 68); fill-opacity: 1; white-space: pre;">Mar 2020</text></g><g class="xtick"><text text-anchor="middle" x="0" y="741" transform="translate(192.41,0)" style="font-family: 'Open Sans', verdana, arial, sans-serif; font-size: 12px; fill: rgb(68, 68, 68); fill-opacity: 1; white-space: pre;">May 2020</text></g><g class="xtick"><text text-anchor="middle" x="0" y="741" transform="translate(303.06,0)" style="font-family: 'Open Sans', verdana, arial, sans-serif; font-size: 12px; fill: rgb(68, 68, 68); fill-opacity: 1; white-space: pre;">Jul 2020</text></g><g class="xtick"><text text-anchor="middle" x="0" y="741" transform="translate(415.52,0)" style="font-family: 'Open Sans', verdana, arial, sans-serif; font-size: 12px; fill: rgb(68, 68, 68); fill-opacity: 1; white-space: pre;">Sep 2020</text></g><g class="xtick"><text text-anchor="middle" x="0" y="741" transform="translate(526.1600000000001,0)" style="font-family: 'Open Sans', verdana, arial, sans-serif; font-size: 12px; fill: rgb(68, 68, 68); fill-opacity: 1; white-space: pre;">Nov 2020</text></g><g class="xtick"><text text-anchor="middle" x="0" y="741" transform="translate(636.81,0)" style="font-family: 'Open Sans', verdana, arial, sans-serif; font-size: 12px; fill: rgb(68, 68, 68); fill-opacity: 1; white-space: pre;">Jan 2021</text></g><g class="xtick"><text text-anchor="middle" x="0" y="741" transform="translate(743.82,0)" style="font-family: 'Open Sans', verdana, arial, sans-serif; font-size: 12px; fill: rgb(68, 68, 68); fill-opacity: 1; white-space: pre;">Mar 2021</text></g><g class="xtick"><text text-anchor="middle" x="0" y="741" transform="translate(854.47,0)" style="font-family: 'Open Sans', verdana, arial, sans-serif; font-size: 12px; fill: rgb(68, 68, 68); fill-opacity: 1; white-space: pre;">May 2021</text></g></g><g class="yaxislayer-above"><g class="ytick"><text text-anchor="end" x="59" y="4.199999999999999" transform="translate(0,692.72)" style="font-family: 'Open Sans', verdana, arial, sans-serif; font-size: 12px; fill: rgb(68, 68, 68); fill-opacity: 1; white-space: pre;">0</text></g><g class="ytick"><text text-anchor="end" x="59" y="4.199999999999999" transform="translate(0,561.26)" style="font-family: 'Open Sans', verdana, arial, sans-serif; font-size: 12px; fill: rgb(68, 68, 68); fill-opacity: 1; white-space: pre;">1000</text></g><g class="ytick"><text text-anchor="end" x="59" y="4.199999999999999" transform="translate(0,429.81)" style="font-family: 'Open Sans', verdana, arial, sans-serif; font-size: 12px; fill: rgb(68, 68, 68); fill-opacity: 1; white-space: pre;">2000</text></g><g class="ytick"><text text-anchor="end" x="59" y="4.199999999999999" transform="translate(0,298.35)" style="font-family: 'Open Sans', verdana, arial, sans-serif; font-size: 12px; fill: rgb(68, 68, 68); fill-opacity: 1; white-space: pre;">3000</text></g><g class="ytick"><text text-anchor="end" x="59" y="4.199999999999999" transform="translate(0,166.89)" style="font-family: 'Open Sans', verdana, arial, sans-serif; font-size: 12px; fill: rgb(68, 68, 68); fill-opacity: 1; white-space: pre;">4000</text></g><g class="ytick"><text text-anchor="end" x="59" y="4.199999999999999" transform="translate(0,35.44)" style="font-family: 'Open Sans', verdana, arial, sans-serif; font-size: 12px; fill: rgb(68, 68, 68); fill-opacity: 1; white-space: pre;">5000</text></g></g><g class="overaxes-above"/></g></g><g class="polarlayer"/><g class="ternarylayer"/><g class="geolayer"/><g class="funnelarealayer"/><g class="pielayer"/><g class="treemaplayer"/><g class="sunburstlayer"/><g class="glimages"/><defs id="topdefs-e68381"><g class="clips"/><clipPath id="legende68381"><rect width="102" height="67" x="0" y="0"/></clipPath></defs><g class="layer-above"><g class="imagelayer"/><g class="shapelayer"/></g><g class="infolayer"><g class="legend" pointer-events="all" transform="translate(914.76, 25)"><rect class="bg" shape-rendering="crispEdges" style="stroke: rgb(68, 68, 68); stroke-opacity: 1; fill: rgb(255, 255, 255); fill-opacity: 1; stroke-width: 0px;" width="102" height="67" x="0" y="0"/><g class="scrollbox" transform="translate(0, 0)" clip-path="url('#legende68381')"><g class="groups"><g class="traces" style="opacity: 1;" transform="translate(0, 14.5)"><text class="legendtext" text-anchor="start" x="40" y="4.680000000000001" style="font-family: 'Open Sans', verdana, arial, sans-serif; font-size: 12px; fill: rgb(68, 68, 68); fill-opacity: 1; white-space: pre;">positive</text><g class="layers" style="opacity: 1;"><g class="legendfill"/><g class="legendlines"><path class="js-line" d="M5,0h30" style="fill: none; stroke: rgb(31, 119, 180); stroke-opacity: 1; stroke-width: 2px;"/></g><g class="legendsymbols"><g class="legendpoints"/></g></g><rect class="legendtoggle" x="0" y="-9.5" width="96.109375" height="19" style="fill: rgb(0, 0, 0); fill-opacity: 0;"/></g><g class="traces" style="opacity: 1;" transform="translate(0, 33.5)"><text class="legendtext" text-anchor="start" x="40" y="4.680000000000001" style="font-family: 'Open Sans', verdana, arial, sans-serif; font-size: 12px; fill: rgb(68, 68, 68); fill-opacity: 1; white-space: pre;">resolved</text><g class="layers" style="opacity: 1;"><g class="legendfill"/><g class="legendlines"><path class="js-line" d="M5,0h30" style="fill: none; stroke: rgb(255, 127, 14); stroke-opacity: 1; stroke-width: 2px;"/></g><g class="legendsymbols"><g class="legendpoints"/></g></g><rect class="legendtoggle" x="0" y="-9.5" width="96.109375" height="19" style="fill: rgb(0, 0, 0); fill-opacity: 0;"/></g><g class="traces" style="opacity: 1;" transform="translate(0, 52.5)"><text class="legendtext" text-anchor="start" x="40" y="4.680000000000001" style="font-family: 'Open Sans', verdana, arial, sans-serif; font-size: 12px; fill: rgb(68, 68, 68); fill-opacity: 1; white-space: pre;">deceased</text><g class="layers" style="opacity: 1;"><g class="legendfill"/><g class="legendlines"><path class="js-line" d="M5,0h30" style="fill: none; stroke: rgb(44, 160, 44); stroke-opacity: 1; stroke-width: 2px;"/></g><g class="legendsymbols"><g class="legendpoints"/></g></g><rect class="legendtoggle" x="0" y="-9.5" width="96.109375" height="19" style="fill: rgb(0, 0, 0); fill-opacity: 0;"/></g></g></g><rect class="scrollbar" rx="20" ry="3" width="0" height="0" style="fill: rgb(128, 139, 164); fill-opacity: 1;" x="0" y="0"/></g><g class="g-gtitle"><text class="gtitle" x="513.5" y="12.5" text-anchor="middle" dy="0em" style="font-family: 'Open Sans', verdana, arial, sans-serif; font-size: 17px; fill: rgb(68, 68, 68); opacity: 1; font-weight: normal; white-space: pre;">Dynamics of new cases, resolved cases and deaths in Ontario (May 26, 2021)</text></g><g class="g-xtitle" transform="translate(0,-15)"><text class="xtitle" x="479" y="780" text-anchor="middle" style="font-family: 'Open Sans', verdana, arial, sans-serif; font-size: 14px; fill: rgb(68, 68, 68); opacity: 1; font-weight: normal; white-space: pre;">Date</text></g><g class="g-ytitle"><text class="ytitle" transform="rotate(-90,22,376.5)" x="22" y="376.5" text-anchor="middle" style="font-family: 'Open Sans', verdana, arial, sans-serif; font-size: 14px; fill: rgb(68, 68, 68); opacity: 1; font-weight: normal; white-space: pre;">Number of cases</text></g></g></svg>