<svg class="main-svg" xmlns="http://www.w3.org/2000/svg" xmlns:xlink="http://www.w3.org/1999/xlink" width="1027" height="768" style="" viewBox="0 0 1027 768"><rect x="0" y="0" width="1027" height="768" style="fill: rgb(255, 255, 255); fill-opacity: 1;"/><defs id="defs-1ea927"><g class="clips"><clipPath id="clip1ea927xyplot" class="plotclip"><rect width="838" height="703"/></clipPath><clipPath class="axesclip" id="clip1ea927x"><rect x="60" y="0" width="838" height="768"/></clipPath><clipPath class="axesclip" id="clip1ea927y"><rect x="0" y="25" width="1027" height="703"/></clipPath><clipPath class="axesclip" id="clip1ea927xy"><rect x="60" y="25" width="838" height="703"/></clipPath></g><g class="gradients"/></defs><g class="bglayer"/><g class="layer-below"><g class="imagelayer"/><g class="shapelayer"/></g><g class="cartesianlayer"><g class="subplot xy"><g class="layer-subplot"><g class="shapelayer"/><g class="imagelayer"/></g><g class="gridlayer"><g class="x"><path class="xgrid crisp" transform="translate(118.59,0)" d="M0,25v703" style="stroke: rgb(238, 238, 238); stroke-opacity: 1; stroke-width: 1px;"/><path class="xgrid crisp" transform="translate(242.59,0)" d="M0,25v703" style="stroke: rgb(238, 238, 238); stroke-opacity: 1; stroke-width: 1px;"/><path class="xgrid crisp" transform="translate(367.95,0)" d="M0,25v703" style="stroke: rgb(238, 238, 238); stroke-opacity: 1; stroke-width: 1px;"/><path class="xgrid crisp" transform="translate(493.31,0)" d="M0,25v703" style="stroke: rgb(238, 238, 238); stroke-opacity: 1; stroke-width: 1px;"/><path class="xgrid crisp" transform="translate(615.94,0)" d="M0,25v703" style="stroke: rgb(238, 238, 238); stroke-opacity: 1; stroke-width: 1px;"/><path class="xgrid crisp" transform="translate(739.94,0)" d="M0,25v703" style="stroke: rgb(238, 238, 238); stroke-opacity: 1; stroke-width: 1px;"/><path class="xgrid crisp" transform="translate(865.3,0)" d="M0,25v703" style="stroke: rgb(238, 238, 238); stroke-opacity: 1; stroke-width: 1px;"/></g><g class="y"><path class="ygrid crisp" transform="translate(0,559.91)" d="M60,0h838" style="stroke: rgb(238, 238, 238); stroke-opacity: 1; stroke-width: 1px;"/><path class="ygrid crisp" transform="translate(0,428.81)" d="M60,0h838" style="stroke: rgb(238, 238, 238); stroke-opacity: 1; stroke-width: 1px;"/><path class="ygrid crisp" transform="translate(0,297.71)" d="M60,0h838" style="stroke: rgb(238, 238, 238); stroke-opacity: 1; stroke-width: 1px;"/><path class="ygrid crisp" transform="translate(0,166.61)" d="M60,0h838" style="stroke: rgb(238, 238, 238); stroke-opacity: 1; stroke-width: 1px;"/><path class="ygrid crisp" transform="translate(0,35.5)" d="M60,0h838" style="stroke: rgb(238, 238, 238); stroke-opacity: 1; stroke-width: 1px;"/></g></g><g class="zerolinelayer"><path class="yzl zl crisp" transform="translate(0,691.01)" d="M60,0h838" style="stroke: rgb(68, 68, 68); stroke-opacity: 1; stroke-width: 1px;"/></g><path class="xlines-below"/><path class="ylines-below"/><g class="overlines-below"/><g class="xaxislayer-below"/><g class="yaxislayer-below"/><g class="overaxes-below"/><g class="plot" transform="translate(60, 25)" clip-path="url('#clip1ea927xyplot')"><g class="scatterlayer mlayer"><g class="trace scatter tracec8c6b8" style="stroke-miterlimit: 2; opacity: 1;"><g class="fills"/><g class="errorbars"/><g class="lines"><path class="js-line" d="M4.09,666.28L13.63,665.88L17.71,664.44L19.08,665.75L20.44,666.01L0,667.85L1.36,666.01L14.99,665.75L16.35,664.44L24.53,665.88L25.89,665.23L27.25,665.88L28.61,665.23L31.34,663.39L32.7,662.87L34.07,660.51L35.43,661.82L36.79,664.44L38.15,662.74L40.88,658.15L42.24,658.28L43.6,659.72L44.97,655.79L46.33,654.87L47.69,652.9L49.05,643.73L50.42,648.32L51.78,646.22L53.14,638.35L54.5,620L55.87,631.93L57.23,610.16L58.59,613.44L59.95,605.45L61.32,616.85L62.68,612.52L64.04,625.5L65.4,616.33L66.77,593.91L68.13,602.69L69.49,603.35L70.86,612.13L72.22,613.44L73.58,610.82L74.94,602.69L76.31,601.25L77.67,598.63L79.03,592.07L80.39,602.43L83.12,586.57L84.48,593.78L85.84,599.15L87.21,582.9L88.57,582.11L89.93,603.61L91.29,608.72L92.66,610.43L94.02,597.19L95.38,620.52L96.74,605.84L98.11,610.82L99.47,599.02L100.83,609.12L102.2,617.51L103.56,615.28L104.92,612L106.28,613.7L107.65,603.48L109.01,620.65L110.37,627.47L111.73,625.64L113.1,618.69L114.46,622.88L115.82,620.78L117.18,621.31L118.55,614.75L119.91,621.44L121.27,626.16L122.63,610.03L124,614.88L125.36,611.87L126.72,608.2L128.08,612L129.45,605.71L130.81,613.05L132.17,628.39L133.53,627.73L134.9,615.8L136.26,620.92L137.62,623.67L138.99,623.28L141.71,607.54L143.07,621.7L144.44,619.34L145.8,620.92L147.16,606.36L148.52,611.61L149.89,634.16L151.25,635.86L152.61,633.11L153.97,639.4L155.34,642.15L156.7,631.14L158.06,640.19L159.42,642.29L162.15,641.11L163.51,643.33L164.87,642.68L166.24,639.01L168.96,644.91L170.33,637.7L171.69,644.64L173.05,641.24L174.41,651.46L175.78,645.04L177.14,642.68L178.5,632.32L179.86,645.43L181.23,646.48L182.59,645.96L183.95,644.38L185.31,650.15L186.68,647.92L188.04,645.82L189.4,651.33L190.76,650.54L192.13,643.73L193.49,650.81L194.85,648.97L196.21,649.1L197.58,650.81L200.3,652.64L201.67,651.46L203.03,651.46L204.39,644.25L205.75,644.51L207.12,648.32L208.48,639.4L209.84,644.38L211.2,652.51L212.57,640.45L213.93,647.92L215.29,648.05L218.02,651.46L219.38,656.05L220.74,654.35L222.1,648.45L224.83,650.81L226.19,654.48L227.55,654.08L228.92,654.74L230.28,653.56L231.64,654.48L233,656.84L234.37,655.66L235.73,650.94L237.09,661.69L238.46,653.56L239.82,655.79L242.54,652.12L243.91,655.4L246.63,649.63L247.99,652.64L249.36,656.05L250.72,648.84L252.08,651.86L253.44,650.94L257.53,654.48L258.89,650.54L260.26,650.02L261.62,646.61L262.98,651.33L264.34,651.07L265.71,651.33L267.07,648.58L268.43,648.71L269.8,646.61L271.16,643.86L272.52,645.3L273.88,641.11L275.25,641.76L276.61,646.48L277.97,643.73L280.7,635.6L282.06,639.27L283.42,624.98L284.78,633.11L286.15,624.72L287.51,627.6L288.87,613.44L290.23,612.66L291.6,618.16L292.96,610.3L294.32,603.35L295.68,622.1L297.05,612.39L298.41,612.39L299.77,608.99L301.13,601.64L302.5,574.24L303.86,593.38L305.22,584.08L306.59,595.48L307.95,570.05L309.31,580.4L310.67,591.81L312.04,585.39L313.4,594.17L314.76,589.58L317.49,542.91L318.85,559.95L320.21,580.93L321.57,560.21L322.94,568.21L324.3,571.49L325.66,563.36L327.02,572.67L328.39,560.48L329.75,579.75L331.11,573.72L332.47,558.38L333.84,562.44L335.2,555.76L336.56,557.72L337.93,537.8L339.29,529.41L340.65,554.45L342.01,557.59L343.38,556.68L344.74,543.56L346.1,548.55L347.46,532.95L348.83,537.93L350.19,541.73L351.55,528.36L352.91,536.62L354.28,535.17L355.64,534.52L357,517.61L358.36,491.91L359.73,503.19L361.09,484.04L362.45,479.06L363.81,459.53L365.18,483L366.54,458.74L367.9,502.4L369.27,471.07L370.63,502.27L371.99,480.24L373.35,507.38L376.08,457.82L377.44,464.9L378.8,457.69L380.17,533.73L381.53,486.01L382.89,472.25L384.25,422.82L385.62,427.15L386.98,442.09L388.34,437.11L389.7,442.22L391.07,440.13L392.43,426.88L393.79,432.65L396.52,413.77L397.88,413.64L399.24,446.29L400.6,418.23L401.97,406.04L403.33,423.74L404.69,420.46L406.06,446.16L408.78,367.76L410.14,385.59L411.51,347.17L412.87,365.79L414.23,357.01L415.59,362.38L416.96,387.68L418.32,377.33L419.68,350.32L421.04,345.21L422.41,382.96L423.77,385.19L426.49,411.81L427.86,331.31L430.58,229.71L431.94,341.41L433.31,225.12L434.67,277.43L436.03,237.31L437.4,255.93L438.76,237.83L440.12,204.67L441.48,108.96L442.85,214.63L444.21,148.82L445.57,228.39L446.93,285.42L448.3,277.82L449.66,229.97L451.02,272.97L452.38,265.37L453.75,217.38L456.47,415.22L457.83,317.94L459.2,320.95L460.56,317.02L461.92,356.74L463.28,349.14L466.01,437.9L467.37,447.07L468.73,391.62L470.1,425.18L471.46,395.55L472.82,423.74L474.19,407.87L475.55,568.34L478.27,461.1L479.64,447.07L481,484.04L482.36,470.8L485.09,532.03L486.45,525.47L487.81,542.12L489.17,524.95L490.54,495.58L491.9,537.4L493.26,539.63L494.62,547.5L495.99,554.97L497.35,529.93L500.07,505.02L501.44,523.51L502.8,527.31L504.16,538.19L506.89,516.82L508.25,501.09L509.61,510.66L510.98,526.78L513.7,539.37L515.06,540.42L516.43,535.7L517.79,502.14L519.15,536.22L520.51,495.71L521.88,452.19L523.24,510.66L524.6,493.48L525.96,522.85L527.33,486.27L528.69,473.56L530.05,436.98L531.41,499.78L532.78,525.21L534.14,468.31L535.5,462.41L536.87,437.24L538.23,426.23L539.59,431.21L540.95,443.27L542.32,463.33L543.68,460.05L545.04,353.99L546.4,381.65L547.77,344.42L549.13,345.08L550.49,391.49L551.85,359.76L553.22,360.15L554.58,330.79L555.94,261.04L557.3,271.53L558.67,267.33L560.03,280.84L561.39,264.19L564.12,234.03L565.48,111.84L566.84,166.12L568.2,81.82L569.57,89.03L570.93,184.87L573.66,45.11L575.02,35.15L576.38,94.15L577.74,108.83L579.11,83L580.47,211.22L581.83,113.81L583.19,183.3L584.56,75.4L585.92,129.28L587.28,148.55L588.64,205.85L590.01,237.97L591.37,209.78L592.73,158.52L594.09,156.42L595.46,224.33L596.82,176.74L598.18,215.55L599.54,300.11L600.91,280.44L602.27,217.12L605,290.54L606.36,244.39L609.08,394.24L610.45,361.86L611.81,304.3L613.17,356.35L614.53,327.25L615.9,377.72L617.26,381.52L618.62,454.15L619.98,457.82L621.35,351.37L622.71,418.23L624.07,430.82L625.43,444.32L626.8,476.44L628.16,529.8L629.52,522.46L630.88,517.21L632.25,499.12L633.61,527.44L634.97,530.59L636.33,545.92L637.7,574.37L639.06,569.92L640.42,551.96L641.79,546.19L643.15,568.47L644.51,579.09L645.87,597.19L648.6,612.13L649.96,588.66L651.32,590.76L652.69,600.2L654.05,596.53L655.41,607.41L656.77,627.21L658.14,615.67L659.5,617.51L660.86,620.78L662.22,619.47L663.59,624.32L664.95,630.62L666.31,627.21L667.67,632.58L669.04,627.21L670.4,632.45L671.76,620.65L674.49,638.48L675.85,626.81L677.21,641.89L678.58,628.78L679.94,639.79L681.3,638.61L682.66,638.09L684.03,643.73L685.39,634.03L686.75,640.58L688.11,638.48L689.48,642.02L690.84,642.55L692.2,644.25L693.56,651.07L694.93,646.87L696.29,645.96L697.65,647.27L700.38,642.94L701.74,642.81L703.1,648.97L704.47,649.36L705.83,648.32L707.19,641.76L708.55,640.84L709.92,643.73L711.28,643.46L712.64,650.41L714,649.1L715.37,645.3L716.73,637.43L718.09,636.39L719.45,632.19L720.82,637.43L722.18,643.99L723.54,644.51L724.9,647.79L726.27,638.09L727.63,621.44L728.99,616.46L730.35,610.56L731.72,623.41L733.08,623.93L734.44,623.54L735.8,598.76L737.17,599.15L738.53,590.24L739.89,599.02L741.26,597.05L742.62,620.39L743.98,602.43L745.34,596.4L746.71,580.8L748.07,575.69L749.43,571.36L750.79,582.24L752.16,602.3L753.52,579.49L754.88,577.13L756.24,563.62L757.61,556.54L758.97,569L760.33,575.03L761.69,597.19L763.06,580.01L764.42,552.61L765.78,560.21L767.14,542.25L768.51,559.69L769.87,589.84L772.6,593.38L773.96,561.39L775.32,554.84L776.68,553.66L778.05,563.23L779.41,587.35L780.77,590.37L782.13,588.27L783.5,552.74L784.86,561.79L786.22,558.38L787.58,572.28L788.95,586.04L790.31,590.76L791.67,605.31L793.03,577.26L794.4,570.7L795.76,582.11L797.12,580.4L798.48,585.65L799.85,604.92L801.21,601.12L802.57,581.19L803.93,578.44L805.3,573.72L806.66,589.98L809.39,609.77L810.75,603.61L812.11,589.06L813.47,590.89L814.84,580.27L816.2,595.87L820.29,625.9L821.65,611.34L823.01,600.99L824.37,602.3L825.74,607.94L827.1,617.11L829.82,626.16L831.19,611.87L832.55,601.51L833.91,617.11L835.27,617.51L836.64,623.28L838,630.75" style="vector-effect: non-scaling-stroke; fill: none; stroke: rgb(31, 119, 180); stroke-opacity: 1; stroke-width: 2px; opacity: 1;"/></g><g class="points"/><g class="text"/></g><g class="trace scatter trace132f61" style="stroke-miterlimit: 2; opacity: 1;"><g class="fills"/><g class="errorbars"/><g class="lines"><path class="js-line" d="M4.09,665.75L20.44,666.01L0,666.28L2.73,666.01L5.45,666.01L9.54,666.01L14.99,666.01L53.14,666.01L54.5,610.56L55.87,652.51L57.23,647.66L58.59,645.43L59.95,640.84L61.32,640.32L62.68,635.86L64.04,643.07L65.4,642.68L66.77,630.35L68.13,635.73L69.49,630.75L70.86,628.78L74.94,638.35L76.31,622.23L77.67,627.73L79.03,618.56L80.39,624.19L81.76,622.23L84.48,627.86L85.84,611.61L87.21,605.84L88.57,612.66L89.93,610.69L91.29,601.64L92.66,597.19L94.02,608.46L95.38,581.06L96.74,588.27L98.11,584.73L99.47,591.94L100.83,585.39L102.2,600.46L103.56,630.09L104.92,607.94L106.28,620.52L107.65,610.82L109.01,614.49L110.37,615.02L111.73,618.95L113.1,631.93L114.46,606.49L115.82,618.95L117.18,608.72L118.55,616.33L119.91,621.44L121.27,629.57L122.63,631.93L124,627.73L125.36,624.19L126.72,632.19L128.08,616.33L129.45,622.62L130.81,637.04L132.17,631.93L133.53,611.74L134.9,626.55L136.26,625.37L137.62,617.51L138.99,606.1L140.35,621.05L143.07,623.14L144.44,613.97L147.16,618.29L148.52,626.03L149.89,634.55L151.25,621.83L152.61,593.78L153.97,599.81L155.34,626.42L156.7,620L158.06,610.56L159.42,632.98L160.79,637.43L162.15,619.74L163.51,637.17L164.87,633.76L166.24,637.43L167.6,633.11L170.33,643.2L171.69,635.99L173.05,640.84L174.41,636.39L175.78,642.68L177.14,643.07L178.5,654.35L179.86,646.61L182.59,639.27L183.95,642.55L185.31,643.2L186.68,642.02L188.04,645.04L189.4,642.81L190.76,639.53L192.13,643.46L193.49,642.68L194.85,631.01L196.21,651.33L197.58,649.1L198.94,650.02L200.3,648.32L201.67,647.53L203.03,652.77L204.39,648.71L205.75,651.2L207.12,652.12L208.48,653.95L209.84,638.88L211.2,646.22L212.57,648.05L213.93,647.66L216.65,652.64L218.02,652.12L219.38,643.2L220.74,644.38L222.1,643.99L223.47,644.64L224.83,650.02L226.19,649.5L227.55,650.81L228.92,646.87L230.28,645.17L231.64,650.54L233,651.99L234.37,646.61L237.09,656.18L238.46,648.45L241.18,655.13L242.54,652.77L243.91,655.53L245.27,655.13L246.63,654.22L247.99,654.35L249.36,656.05L250.72,652.12L252.08,654.22L253.44,651.86L254.81,655.79L256.17,656.18L257.53,650.94L258.89,655.92L260.26,655.13L261.62,652.51L262.98,655.79L264.34,656.44L265.71,653.95L267.07,648.05L268.43,650.41L269.8,650.81L271.16,652.12L272.52,651.46L273.88,650.41L275.25,650.41L276.61,648.18L277.97,647.4L279.33,649.76L280.7,650.41L283.42,648.58L284.78,650.68L287.51,642.55L288.87,642.94L290.23,642.81L291.6,640.97L292.96,642.68L294.32,640.32L297.05,628.52L298.41,628.91L299.77,621.7L301.13,628.13L302.5,622.62L303.86,623.67L305.22,606.1L306.59,598.5L307.95,609.9L309.31,608.99L310.67,596.01L312.04,595.09L313.4,594.43L314.76,573.33L316.12,574.9L317.49,571.1L318.85,574.24L320.21,573.59L322.94,584.21L324.3,563.36L325.66,563.89L327.02,572.54L328.39,576.6L329.75,576.21L331.11,586.44L332.47,583.68L333.84,571.75L335.2,568.87L336.56,569.92L337.93,584.08L339.29,569.52L340.65,577L342.01,575.42L343.38,564.67L344.74,558.51L346.1,561.66L347.46,561.39L348.83,552.74L350.19,557.72L351.55,556.28L352.91,542.12L354.28,541.73L355.64,541.6L357,554.32L358.36,551.04L359.73,558.38L361.09,563.62L362.45,549.86L363.81,545.79L365.18,532.55L366.54,534.52L367.9,526.78L369.27,535.96L370.63,517.21L371.99,470.02L373.35,485.62L374.72,480.5L376.08,487.32L378.8,471.46L380.17,524.16L381.53,472.51L382.89,487.06L385.62,468.05L386.98,476.83L388.34,492.96L389.7,486.01L391.07,444.98L392.43,463.99L393.79,462.41L395.15,453.1L396.52,459.66L397.88,480.9L399.24,462.94L400.6,413.77L401.97,429.51L403.33,436.19L404.69,414.56L406.06,446.02L407.42,464.77L408.78,428.72L410.14,398.17L411.51,402.63L412.87,404.86L414.23,421.51L415.59,412.86L416.96,449.17L419.68,371.95L421.04,402.11L422.41,372.74L423.77,415.22L425.13,403.15L426.49,384.01L427.86,373.26L429.22,372.74L430.58,375.89L431.94,343.5L433.31,396.73L434.67,380.87L437.4,401.84L438.76,272.05L440.12,302.07L441.48,307.06L442.85,283.85L444.21,338.78L445.57,304.7L446.93,226.43L448.3,221.32L449.66,194.96L452.38,244.91L453.75,262.48L455.11,295.52L456.47,289.36L457.83,179.1L459.2,274.02L460.56,223.54L461.92,269.43L466.01,369.59L467.37,308.76L468.73,339.44L470.1,285.82L474.19,386.5L475.55,364.87L476.91,437.24L478.27,409.58L479.64,373.26L481,430.55L482.36,412.07L483.72,443.14L485.09,484.04L486.45,441.96L487.81,489.81L489.17,480.5L490.54,478.01L491.9,504.1L494.62,520.23L495.99,475.13L497.35,498.6L498.71,501.48L500.07,493.88L501.44,516.56L504.16,534.65L505.53,496.76L506.89,522.59L508.25,533.99L509.61,537.01L510.98,531.11L512.34,542.91L513.7,537.67L515.06,523.11L516.43,525.47L517.79,514.07L519.15,514.98L520.51,521.15L521.88,535.7L523.24,538.58L524.6,507.12L525.96,520.49L527.33,518.66L530.05,513.02L531.41,519.97L532.78,523.77L534.14,470.93L535.5,503.97L536.87,496.11L538.23,500.69L539.59,488.63L540.95,511.97L542.32,499.38L543.68,465.3L545.04,491.78L546.4,446.42L547.77,471.85L549.13,463.72L550.49,466.21L551.85,472.38L553.22,407.35L554.58,428.19L555.94,413.64L557.3,427.54L558.67,417.05L560.03,435.14L561.39,406.96L562.75,350.45L564.12,328.29L565.48,319.77L566.84,348.48L568.2,322.92L569.57,345.47L570.93,328.69L572.29,251.73L573.66,249.9L575.02,252.91L576.38,192.6L577.74,228.39L579.11,252.65L580.47,224.33L583.19,63.34L584.56,50.1L585.92,98.08L587.28,110.27L590.01,153.67L591.37,73.83L592.73,109.49L594.09,109.88L595.46,146.32L596.82,148.55L599.54,230.36L600.91,94.28L602.27,142L603.63,157.99L605,194.57L606.36,187.1L607.72,258.29L609.08,286.08L610.45,210.17L611.81,213.06L613.17,206.89L614.53,264.45L615.9,262.35L617.26,278.87L618.62,338L619.98,257.11L621.35,303.78L622.71,313.48L624.07,335.64L625.43,343.76L626.8,394.37L628.16,401.45L629.52,355.17L630.88,364.22L632.25,356.35L633.61,396.34L634.97,395.03L636.33,442.22L637.7,460.45L639.06,438.81L643.15,503.19L644.51,505.81L645.87,542.65L647.24,533.6L648.6,543.83L649.96,542.91L651.32,554.58L652.69,557.2L655.41,578.18L656.77,581.45L658.14,571.36L659.5,582.76L660.86,584.21L662.22,589.84L663.59,599.94L664.95,602.3L666.31,608.07L667.67,605.71L670.4,627.6L671.76,600.07L673.13,616.33L674.49,623.28L675.85,617.38L677.21,623.8L678.58,632.32L679.94,629.17L681.3,631.67L682.66,628.52L684.03,635.47L685.39,624.19L686.75,635.07L688.11,635.73L689.48,635.47L690.84,637.43L692.2,629.57L693.56,653.43L694.93,639.66L696.29,637.7L697.65,643.99L699.01,641.24L700.38,639.4L701.74,644.25L703.1,645.96L704.47,649.5L705.83,646.22L707.19,646.48L711.28,647.14L712.64,648.05L715.37,643.6L716.73,643.86L719.45,648.05L720.82,645.69L722.18,649.1L723.54,646.22L724.9,645.69L726.27,642.02L727.63,646.48L728.99,640.97L730.35,635.6L731.72,640.84L734.44,639.27L735.8,632.45L737.17,631.4L738.53,631.93L739.89,630.62L741.26,623.93L742.62,629.31L743.98,620.78L745.34,621.7L746.71,607.81L748.07,603.74L749.43,614.75L750.79,600.2L752.16,595.09L753.52,591.02L754.88,598.76L756.24,584.08L757.61,590.63L760.33,595.22L761.69,576.86L763.06,580.8L764.42,576.73L765.78,569.26L767.14,570.57L768.51,590.89L769.87,572.15L771.23,575.82L772.6,565.07L775.32,565.07L776.68,566.9L778.05,569.26L779.41,583.81L782.13,567.03L783.5,578.44L784.86,576.86L786.22,580.14L787.58,573.19L788.95,583.68L790.31,565.85L791.67,563.36L793.03,577.39L794.4,559.3L795.76,561.92L797.12,582.24L798.48,590.24L799.85,558.64L803.93,582.76L805.3,581.45L806.66,585.26L808.02,602.04L809.39,574.77L810.75,585.12L812.11,589.19L813.47,584.6L816.2,595.35L817.56,593.78L818.92,598.89L820.29,596.92L821.65,596.79L823.01,594.96L825.74,602.56L827.1,610.56L829.82,595.61L831.19,602.04L832.55,611.61L833.91,611.08L835.27,603.09L836.64,617.64L838,610.03" style="vector-effect: non-scaling-stroke; fill: none; stroke: rgb(255, 127, 14); stroke-opacity: 1; stroke-width: 2px; opacity: 1;"/></g><g class="points"/><g class="text"/></g><g class="trace scatter trace1db6ae" style="stroke-miterlimit: 2; opacity: 1;"><g class="fills"/><g class="errorbars"/><g class="lines"><path class="js-line" d="M4.09,666.01L20.44,666.01" style="vector-effect: non-scaling-stroke; fill: none; stroke: rgb(44, 160, 44); stroke-opacity: 1; stroke-width: 2px; opacity: 1;"/><path class="js-line" d="M38.15,666.01L47.69,665.36L49.05,665.75L53.14,665.49L54.5,666.01L55.87,664.7L57.23,665.49L58.59,663.92L59.95,664.18L61.32,662.47L62.68,662.74L64.04,664.31L65.4,663.26L69.49,663.13L70.86,661.95L73.58,663.79L74.94,660.38L76.31,659.33L77.67,661.03L79.03,658.8L80.39,661.29L81.76,660.9L83.12,661.95L84.48,661.03L85.84,661.16L87.21,658.94L88.57,659.46L89.93,659.72L91.29,662.87L92.66,658.54L94.02,658.28L95.38,660.11L96.74,654.74L98.11,660.9L99.47,658.8L100.83,660.77L102.2,655L103.56,658.02L104.92,657.1L106.28,659.72L107.65,657.76L109.01,658.28L110.37,661.43L111.73,661.43L113.1,658.67L115.82,661.69L117.18,662.47L118.55,661.69L119.91,663L121.27,663L122.63,664.05L124,660.38L125.36,661.95L129.45,662.74L130.81,662.21L132.17,663.26L133.53,661.82L136.26,660.64L137.62,663.79L138.99,663.52L140.35,664.7L143.07,663.52L144.44,660.11L145.8,664.05L147.16,661.43L148.52,663.52L149.89,662.87L152.61,664.57L153.97,664.44L160.79,664.57L162.15,664.44L163.51,665.62L164.87,664.57L166.24,661.95L167.6,664.57L168.96,665.62L170.33,664.7L173.05,664.7L174.41,665.62L175.78,664.97L177.14,665.23L181.23,665.49L182.59,665.49L188.04,666.01L189.4,665.75L190.76,664.83L192.13,665.62L194.85,665.23L196.21,665.62L198.94,665.88L200.3,664.83L201.67,665.36L203.03,664.83L204.39,665.75L205.75,665.62L211.2,666.01L212.57,665.62L216.65,665.88L218.02,665.49L220.74,665.62L222.1,665.62L231.64,666.01L233,665.88L238.46,665.88L239.82,666.01L246.63,665.49L247.99,666.15L252.08,665.88L253.44,666.01L260.26,665.23L261.62,666.01L268.43,666.01L269.8,666.15L277.97,665.88L279.33,666.15L284.78,665.49L286.15,665.75L294.32,665.62L295.68,665.62L299.77,666.01L301.13,665.75L306.59,665.62L307.95,656.05L310.67,665.1L312.04,665.36L313.4,665.1L314.76,665.88L318.85,665.1L320.21,665.88L322.94,664.83L324.3,666.01L328.39,664.7L329.75,665.36L332.47,665.62L333.84,664.83L343.38,665.36L344.74,664.7L350.19,665.1L351.55,664.18L354.28,664.31L355.64,664.18L358.36,664.31L359.73,664.44L365.18,663.52L366.54,663.39L367.9,662.21L369.27,664.7L370.63,664.44L371.99,661.82L373.35,662.34L374.72,664.97L376.08,663.26L377.44,664.18L378.8,663.52L380.17,664.18L381.53,661.43L382.89,663.26L384.25,663.39L385.62,662.21L386.98,662.87L388.34,664.97L389.7,665.1L391.07,661.43L392.43,664.18L393.79,662.74L396.52,664.05L397.88,662.61L399.24,664.7L400.6,662.34L403.33,660.11L404.69,663.79L406.06,663.92L407.42,663L408.78,663.39L410.14,660.38L411.51,663L412.87,660.77L414.23,662.47L415.59,662.74L416.96,663.79L418.32,663.26L421.04,659.59L422.41,660.38L423.77,661.03L425.13,663.65L426.49,661.16L427.86,660.64L429.22,663.52L430.58,658.67L433.31,660.25L434.67,662.74L436.03,662.21L437.4,659.33L438.76,661.16L440.12,654.35L441.48,662.61L442.85,660.77L444.21,658.02L445.57,662.21L446.93,660.64L448.3,656.31L449.66,657.89L451.02,652.9L452.38,659.33L453.75,656.97L455.11,662.87L456.47,659.98L457.83,654.35L459.2,659.98L460.56,654.61L461.92,659.2L464.65,660.38L466.01,657.76L467.37,659.59L468.73,658.67L470.1,658.41L471.46,656.44L472.82,660.38L474.19,661.29L475.55,664.18L476.91,657.23L478.27,654.48L479.64,660.11L481,660.11L482.36,663.13L483.72,661.69L485.09,663.79L486.45,660.64L487.81,663.65L490.54,663.52L491.9,660.51L493.26,664.31L494.62,664.31L495.99,664.7L497.35,660.25L498.71,659.85L500.07,662.34L501.44,664.31L502.8,664.57L505.53,664.83L506.89,663L508.25,662.34L509.61,663.92L510.98,663.39L512.34,665.23L515.06,663.79L516.43,664.7L517.79,663.13L519.15,665.23L520.51,664.05L521.88,664.7L523.24,665.23L524.6,663.92L525.96,664.7L527.33,663.65L528.69,664.57L530.05,664.05L531.41,664.83L532.78,664.57L535.5,664.05L536.87,664.7L538.23,664.57L539.59,663.65L540.95,665.62L542.32,664.83L543.68,664.7L545.04,663.79L546.4,664.44L547.77,663.92L549.13,663.52L550.49,664.7L555.94,663L557.3,663.92L561.39,664.97L562.75,663.79L568.2,663.26L569.57,664.05L570.93,664.05L572.29,662.34L575.02,662.74L576.38,661.56L577.74,663.65L579.11,663.52L580.47,663.13L581.83,661.82L583.19,660.77L584.56,661.56L585.92,662.87L587.28,662.87L591.37,662.87L592.73,660.64L594.09,663.26L595.46,662.21L598.18,663.92L599.54,662.74L600.91,660.25L602.27,662.61L605,662.74L606.36,659.85L607.72,663.52L609.08,664.05L610.45,661.82L611.81,661.95L614.53,662.87L615.9,662.08L617.26,665.49L618.62,663.79L619.98,663.52L621.35,662.47L622.71,662.47L624.07,663.39L626.8,664.97L628.16,661.69L630.88,663.52L632.25,664.18L634.97,663.65L636.33,664.31L637.7,664.83L639.06,662.74L640.42,664.7L641.79,663.52L643.15,662.87L644.51,664.7L647.24,663.65L648.6,661.69L649.96,664.57L651.32,665.49L652.69,664.05L654.05,665.1L655.41,665.49L656.77,664.31L659.5,665.1L660.86,665.88L662.22,664.31L663.59,664.44L664.95,665.62L666.31,658.15L667.67,664.57L669.04,665.23L670.4,665.75L671.76,664.31L673.13,664.44L674.49,665.62L675.85,662.74L677.21,664.18L678.58,663.52L679.94,664.83L682.66,664.83L684.03,665.88L685.39,664.83L686.75,666.01L690.84,664.97L692.2,665.23L693.56,666.01L694.93,665.1L699.01,664.7L700.38,665.62L701.74,665.23L703.1,666.01L707.19,665.1L708.55,665.88L714,665.36L715.37,665.49L716.73,665.62L718.09,664.57L722.18,665.88L723.54,665.88L726.27,664.18L727.63,663.65L730.35,665.23L731.72,666.01L734.44,665.62L735.8,666.01L738.53,665.75L739.89,666.01L741.26,666.01L742.62,664.7L743.98,665.62L745.34,663.79L746.71,665.75L748.07,665.88L750.79,666.01L752.16,663.65L753.52,665.88L754.88,666.01L756.24,663.79L757.61,665.1L760.33,666.01L761.69,665.36L764.42,664.18L765.78,665.23L767.14,664.83L768.51,665.62L771.23,665.62L772.6,663.92L773.96,664.7L775.32,664.57L776.68,664.05L778.05,665.23L784.86,665.36L786.22,664.7L788.95,665.75L790.31,664.97L793.03,665.1L794.4,664.57L797.12,665.23L798.48,666.01L799.85,664.57L801.21,664.97L805.3,665.1L806.66,665.75L809.39,665.62L810.75,664.18L812.11,665.36L813.47,664.7L814.84,665.75L816.2,665.75L818.92,666.01L820.29,664.44L821.65,665.62L823.01,665.75L824.37,665.36L825.74,666.15L829.82,665.49L831.19,665.49L832.55,664.44L833.91,665.23L836.64,666.01L838,665.23" style="vector-effect: non-scaling-stroke; fill: none; stroke: rgb(44, 160, 44); stroke-opacity: 1; stroke-width: 2px; opacity: 1;"/></g><g class="points"/><g class="text"/></g></g></g><g class="overplot"/><path class="xlines-above crisp" style="fill: none;" d="M0,0"/><path class="ylines-above crisp" style="fill: none;" d="M0,0"/><g class="overlines-above"/><g class="xaxislayer-above"><g class="xtick"><text text-anchor="middle" x="0" y="741" transform="translate(118.59,0)" style="font-family: 'Open Sans', verdana, arial, sans-serif; font-size: 12px; fill: rgb(68, 68, 68); fill-opacity: 1; white-space: pre;">Apr 2020</text></g><g class="xtick"><text text-anchor="middle" x="0" y="741" transform="translate(242.59,0)" style="font-family: 'Open Sans', verdana, arial, sans-serif; font-size: 12px; fill: rgb(68, 68, 68); fill-opacity: 1; white-space: pre;">Jul 2020</text></g><g class="xtick"><text text-anchor="middle" x="0" y="741" transform="translate(367.95,0)" style="font-family: 'Open Sans', verdana, arial, sans-serif; font-size: 12px; fill: rgb(68, 68, 68); fill-opacity: 1; white-space: pre;">Oct 2020</text></g><g class="xtick"><text text-anchor="middle" x="0" y="741" transform="translate(493.31,0)" style="font-family: 'Open Sans', verdana, arial, sans-serif; font-size: 12px; fill: rgb(68, 68, 68); fill-opacity: 1; white-space: pre;">Jan 2021</text></g><g class="xtick"><text text-anchor="middle" x="0" y="741" transform="translate(615.94,0)" style="font-family: 'Open Sans', verdana, arial, sans-serif; font-size: 12px; fill: rgb(68, 68, 68); fill-opacity: 1; white-space: pre;">Apr 2021</text></g><g class="xtick"><text text-anchor="middle" x="0" y="741" transform="translate(739.94,0)" style="font-family: 'Open Sans', verdana, arial, sans-serif; font-size: 12px; fill: rgb(68, 68, 68); fill-opacity: 1; white-space: pre;">Jul 2021</text></g><g class="xtick"><text text-anchor="middle" x="0" y="741" transform="translate(865.3,0)" style="font-family: 'Open Sans', verdana, arial, sans-serif; font-size: 12px; fill: rgb(68, 68, 68); fill-opacity: 1; white-space: pre;">Oct 2021</text></g></g><g class="yaxislayer-above"><g class="ytick"><text text-anchor="end" x="59" y="4.199999999999999" transform="translate(0,691.01)" style="font-family: 'Open Sans', verdana, arial, sans-serif; font-size: 12px; fill: rgb(68, 68, 68); fill-opacity: 1; white-space: pre;">0</text></g><g class="ytick"><text text-anchor="end" x="59" y="4.199999999999999" transform="translate(0,559.91)" style="font-family: 'Open Sans', verdana, arial, sans-serif; font-size: 12px; fill: rgb(68, 68, 68); fill-opacity: 1; white-space: pre;">1000</text></g><g class="ytick"><text text-anchor="end" x="59" y="4.199999999999999" transform="translate(0,428.81)" style="font-family: 'Open Sans', verdana, arial, sans-serif; font-size: 12px; fill: rgb(68, 68, 68); fill-opacity: 1; white-space: pre;">2000</text></g><g class="ytick"><text text-anchor="end" x="59" y="4.199999999999999" transform="translate(0,297.71)" style="font-family: 'Open Sans', verdana, arial, sans-serif; font-size: 12px; fill: rgb(68, 68, 68); fill-opacity: 1; white-space: pre;">3000</text></g><g class="ytick"><text text-anchor="end" x="59" y="4.199999999999999" transform="translate(0,166.61)" style="font-family: 'Open Sans', verdana, arial, sans-serif; font-size: 12px; fill: rgb(68, 68, 68); fill-opacity: 1; white-space: pre;">4000</text></g><g class="ytick"><text text-anchor="end" x="59" y="4.199999999999999" transform="translate(0,35.5)" style="font-family: 'Open Sans', verdana, arial, sans-serif; font-size: 12px; fill: rgb(68, 68, 68); fill-opacity: 1; white-space: pre;">5000</text></g></g><g class="overaxes-above"/></g></g><g class="polarlayer"/><g class="ternarylayer"/><g class="geolayer"/><g class="funnelarealayer"/><g class="pielayer"/><g class="treemaplayer"/><g class="sunburstlayer"/><g class="glimages"/><defs id="topdefs-1ea927"><g class="clips"/><clipPath id="legend1ea927"><rect width="102" height="67" x="0" y="0"/></clipPath></defs><g class="layer-above"><g class="imagelayer"/><g class="shapelayer"/></g><g class="infolayer"><g class="legend" pointer-events="all" transform="translate(914.76, 25)"><rect class="bg" shape-rendering="crispEdges" style="stroke: rgb(68, 68, 68); stroke-opacity: 1; fill: rgb(255, 255, 255); fill-opacity: 1; stroke-width: 0px;" width="102" height="67" x="0" y="0"/><g class="scrollbox" transform="translate(0, 0)" clip-path="url('#legend1ea927')"><g class="groups"><g class="traces" style="opacity: 1;" transform="translate(0, 14.5)"><text class="legendtext" text-anchor="start" x="40" y="4.680000000000001" style="font-family: 'Open Sans', verdana, arial, sans-serif; font-size: 12px; fill: rgb(68, 68, 68); fill-opacity: 1; white-space: pre;">positive</text><g class="layers" style="opacity: 1;"><g class="legendfill"/><g class="legendlines"><path class="js-line" d="M5,0h30" style="fill: none; stroke: rgb(31, 119, 180); stroke-opacity: 1; stroke-width: 2px;"/></g><g class="legendsymbols"><g class="legendpoints"/></g></g><rect class="legendtoggle" x="0" y="-9.5" width="96.109375" height="19" style="fill: rgb(0, 0, 0); fill-opacity: 0;"/></g><g class="traces" style="opacity: 1;" transform="translate(0, 33.5)"><text class="legendtext" text-anchor="start" x="40" y="4.680000000000001" style="font-family: 'Open Sans', verdana, arial, sans-serif; font-size: 12px; fill: rgb(68, 68, 68); fill-opacity: 1; white-space: pre;">resolved</text><g class="layers" style="opacity: 1;"><g class="legendfill"/><g class="legendlines"><path class="js-line" d="M5,0h30" style="fill: none; stroke: rgb(255, 127, 14); stroke-opacity: 1; stroke-width: 2px;"/></g><g class="legendsymbols"><g class="legendpoints"/></g></g><rect class="legendtoggle" x="0" y="-9.5" width="96.109375" height="19" style="fill: rgb(0, 0, 0); fill-opacity: 0;"/></g><g class="traces" style="opacity: 1;" transform="translate(0, 52.5)"><text class="legendtext" text-anchor="start" x="40" y="4.680000000000001" style="font-family: 'Open Sans', verdana, arial, sans-serif; font-size: 12px; fill: rgb(68, 68, 68); fill-opacity: 1; white-space: pre;">deceased</text><g class="layers" style="opacity: 1;"><g class="legendfill"/><g class="legendlines"><path class="js-line" d="M5,0h30" style="fill: none; stroke: rgb(44, 160, 44); stroke-opacity: 1; stroke-width: 2px;"/></g><g class="legendsymbols"><g class="legendpoints"/></g></g><rect class="legendtoggle" x="0" y="-9.5" width="96.109375" height="19" style="fill: rgb(0, 0, 0); fill-opacity: 0;"/></g></g></g><rect class="scrollbar" rx="20" ry="3" width="0" height="0" style="fill: rgb(128, 139, 164); fill-opacity: 1;" x="0" y="0"/></g><g class="g-gtitle"><text class="gtitle" x="513.5" y="12.5" text-anchor="middle" dy="0em" style="font-family: 'Open Sans', verdana, arial, sans-serif; font-size: 17px; fill: rgb(68, 68, 68); opacity: 1; font-weight: normal; white-space: pre;">Dynamics of new cases, resolved cases and deaths in Ontario (Oct 27, 2021)</text></g><g class="g-xtitle" transform="translate(0,-15)"><text class="xtitle" x="479" y="780" text-anchor="middle" style="font-family: 'Open Sans', verdana, arial, sans-serif; font-size: 14px; fill: rgb(68, 68, 68); opacity: 1; font-weight: normal; white-space: pre;">Date</text></g><g class="g-ytitle"><text class="ytitle" transform="rotate(-90,22,376.5)" x="22" y="376.5" text-anchor="middle" style="font-family: 'Open Sans', verdana, arial, sans-serif; font-size: 14px; fill: rgb(68, 68, 68); opacity: 1; font-weight: normal; white-space: pre;">Number of cases</text></g></g></svg>