<svg class="main-svg" xmlns="http://www.w3.org/2000/svg" xmlns:xlink="http://www.w3.org/1999/xlink" width="1027" height="768" style="" viewBox="0 0 1027 768"><rect x="0" y="0" width="1027" height="768" style="fill: rgb(255, 255, 255); fill-opacity: 1;"/><defs id="defs-f6227a"><g class="clips"><clipPath id="clipf6227axyplot" class="plotclip"><rect width="838" height="703"/></clipPath><clipPath class="axesclip" id="clipf6227ax"><rect x="60" y="0" width="838" height="768"/></clipPath><clipPath class="axesclip" id="clipf6227ay"><rect x="0" y="25" width="1027" height="703"/></clipPath><clipPath class="axesclip" id="clipf6227axy"><rect x="60" y="25" width="838" height="703"/></clipPath></g><g class="gradients"/></defs><g class="bglayer"/><g class="layer-below"><g class="imagelayer"/><g class="shapelayer"/></g><g class="cartesianlayer"><g class="subplot xy"><g class="layer-subplot"><g class="shapelayer"/><g class="imagelayer"/></g><g class="gridlayer"><g class="x"><path class="xgrid crisp" transform="translate(80.91,0)" d="M0,25v703" style="stroke: rgb(238, 238, 238); stroke-opacity: 1; stroke-width: 1px;"/><path class="xgrid crisp" transform="translate(187.18,0)" d="M0,25v703" style="stroke: rgb(238, 238, 238); stroke-opacity: 1; stroke-width: 1px;"/><path class="xgrid crisp" transform="translate(293.46000000000004,0)" d="M0,25v703" style="stroke: rgb(238, 238, 238); stroke-opacity: 1; stroke-width: 1px;"/><path class="xgrid crisp" transform="translate(401.47,0)" d="M0,25v703" style="stroke: rgb(238, 238, 238); stroke-opacity: 1; stroke-width: 1px;"/><path class="xgrid crisp" transform="translate(507.75,0)" d="M0,25v703" style="stroke: rgb(238, 238, 238); stroke-opacity: 1; stroke-width: 1px;"/><path class="xgrid crisp" transform="translate(614.02,0)" d="M0,25v703" style="stroke: rgb(238, 238, 238); stroke-opacity: 1; stroke-width: 1px;"/><path class="xgrid crisp" transform="translate(716.81,0)" d="M0,25v703" style="stroke: rgb(238, 238, 238); stroke-opacity: 1; stroke-width: 1px;"/><path class="xgrid crisp" transform="translate(823.09,0)" d="M0,25v703" style="stroke: rgb(238, 238, 238); stroke-opacity: 1; stroke-width: 1px;"/></g><g class="y"><path class="ygrid crisp" transform="translate(0,561.26)" d="M60,0h838" style="stroke: rgb(238, 238, 238); stroke-opacity: 1; stroke-width: 1px;"/><path class="ygrid crisp" transform="translate(0,429.81)" d="M60,0h838" style="stroke: rgb(238, 238, 238); stroke-opacity: 1; stroke-width: 1px;"/><path class="ygrid crisp" transform="translate(0,298.35)" d="M60,0h838" style="stroke: rgb(238, 238, 238); stroke-opacity: 1; stroke-width: 1px;"/><path class="ygrid crisp" transform="translate(0,166.89)" d="M60,0h838" style="stroke: rgb(238, 238, 238); stroke-opacity: 1; stroke-width: 1px;"/><path class="ygrid crisp" transform="translate(0,35.44)" d="M60,0h838" style="stroke: rgb(238, 238, 238); stroke-opacity: 1; stroke-width: 1px;"/></g></g><g class="zerolinelayer"><path class="yzl zl crisp" transform="translate(0,692.72)" d="M60,0h838" style="stroke: rgb(68, 68, 68); stroke-opacity: 1; stroke-width: 1px;"/></g><path class="xlines-below"/><path class="ylines-below"/><g class="overlines-below"/><g class="xaxislayer-below"/><g class="yaxislayer-below"/><g class="overaxes-below"/><g class="plot" transform="translate(60, 25)" clip-path="url('#clipf6227axyplot')"><g class="scatterlayer mlayer"><g class="trace scatter trace06bc36" style="stroke-miterlimit: 2; opacity: 1;"><g class="fills"/><g class="errorbars"/><g class="lines"><path class="js-line" d="M0,667.72L17.42,667.59L22.65,666.14L24.39,667.46L26.13,667.72L34.84,666.8L36.59,667.72L43.56,664.56L45.3,662.2L47.04,663.51L48.78,666.27L54.01,659.83L55.75,660.23L57.49,661.93L59.23,657.6L62.72,655.23L64.46,645.63L66.2,650.37L67.95,648L69.69,590.29L71.43,633.54L73.17,611.72L74.91,615L76.66,606.99L78.4,618.42L80.14,614.08L81.88,627.1L83.63,617.9L85.37,595.42L87.11,604.23L88.85,604.88L90.59,613.69L92.34,615L94.08,612.38L95.82,604.23L97.56,602.78L99.31,600.15L101.05,593.58L102.79,603.96L104.53,593.05L106.27,588.06L109.76,600.68L111.5,584.38L113.24,583.59L114.99,605.15L116.73,610.27L118.47,611.98L120.21,598.7L121.95,622.1L123.7,607.38L125.44,612.38L127.18,600.54L128.92,610.67L130.67,619.08L132.41,616.84L134.15,613.56L135.89,615.27L137.63,605.01L139.38,622.23L141.12,629.07L142.86,627.23L144.6,620.26L146.35,624.47L148.09,622.37L149.83,622.89L151.57,616.32L153.31,623.02L155.06,627.76L156.8,611.59L158.54,616.45L160.28,613.43L162.02,609.75L163.77,613.56L165.51,607.25L167.25,614.61L168.99,629.99L170.74,629.33L172.48,617.37L174.22,622.5L175.96,625.26L177.7,624.86L179.45,614.61L181.19,609.09L182.93,623.29L184.67,620.92L186.42,622.5L188.16,607.91L189.9,613.16L191.64,635.77L193.38,637.48L195.13,634.72L196.87,641.03L198.61,643.79L200.35,632.75L202.1,641.82L203.84,643.92L205.58,643.53L207.32,642.74L209.06,644.98L210.81,644.32L212.55,640.64L214.29,644.71L216.03,646.55L217.78,639.32L219.52,646.29L221.26,642.87L223,653.13L224.74,646.69L226.49,644.32L228.23,633.93L229.97,647.08L231.71,648.13L233.46,647.61L235.2,646.03L236.94,651.81L240.42,647.47L242.17,653L243.91,652.21L245.65,645.37L247.39,652.47L249.14,650.63L250.88,650.76L252.62,652.47L256.1,654.31L257.85,653.13L259.59,653.13L261.33,645.9L263.07,646.16L264.81,649.97L266.56,641.03L268.3,646.03L270.04,654.18L271.78,642.08L273.53,649.58L275.27,649.71L277.01,652.08L278.75,653.13L280.49,657.73L282.24,656.02L283.98,650.1L285.72,651.42L287.46,652.47L289.21,656.15L290.95,655.76L292.69,656.41L294.43,655.23L296.17,656.15L297.92,658.52L299.66,657.33L301.4,652.6L303.14,663.38L304.89,655.23L306.63,657.46L310.11,653.78L311.85,657.07L315.34,651.29L317.08,654.31L318.82,657.73L320.57,650.5L322.31,653.52L324.05,652.6L329.28,656.15L331.02,652.21L332.76,651.68L334.5,648.26L336.25,653L337.99,652.73L339.73,653L341.47,650.23L343.21,650.37L344.96,648.26L346.7,645.5L348.44,646.95L350.18,642.74L351.93,643.4L353.67,648.13L355.41,645.37L357.15,639.72L358.89,637.22L360.64,640.9L362.38,626.57L364.12,634.72L365.86,626.31L367.6,629.2L369.35,615L371.09,614.22L372.83,619.74L376.32,604.88L378.06,623.68L379.8,613.95L381.54,613.95L383.28,610.53L385.03,603.17L386.77,575.7L388.51,594.89L390.25,585.56L392,596.99L393.74,571.49L395.48,581.88L397.22,593.31L398.96,586.87L400.71,595.68L402.45,591.08L405.93,544.28L407.68,561.37L409.42,582.4L411.16,561.63L412.9,569.65L414.64,572.94L416.39,564.79L418.13,574.12L419.87,561.9L421.61,581.22L423.36,575.17L425.1,559.79L426.84,563.87L428.58,557.16L430.32,559.14L432.07,539.15L433.81,530.74L435.55,555.85L437.29,559L439.04,558.08L440.78,544.94L442.52,549.93L444.26,534.29L446,539.29L447.75,543.1L449.49,529.69L451.23,537.97L452.97,536.52L454.72,535.87L456.46,518.91L458.2,493.14L459.94,504.45L461.68,485.26L463.43,480.26L465.17,460.67L466.91,484.21L468.65,459.89L470.4,503.66L472.14,472.24L473.88,503.53L475.62,481.44L477.36,508.66L480.85,458.97L482.59,466.06L484.33,458.83L486.07,535.08L487.82,487.23L489.56,473.43L491.3,423.87L493.04,428.2L494.79,443.19L496.53,438.2L498.27,443.32L500.01,441.22L501.75,427.94L503.5,433.73L506.98,414.8L508.72,414.66L510.47,447.4L512.21,419.27L513.95,407.04L515.69,424.79L517.43,421.5L519.18,447.27L522.66,368.66L524.4,386.53L526.15,348.02L527.89,366.68L529.63,357.88L531.37,363.27L533.11,388.64L534.86,378.25L536.6,351.17L538.34,346.04L540.08,383.9L541.83,386.14L543.57,404.15L545.31,412.82L548.79,283.47L550.54,230.23L552.28,342.23L554.02,225.63L555.76,278.08L557.51,237.86L559.25,256.52L560.99,238.38L562.73,205.12L564.47,109.16L566.22,215.11L567.96,149.12L571.44,286.1L573.19,278.48L574.93,230.49L576.67,273.61L578.41,265.99L580.15,217.87L583.64,416.24L585.38,318.7L587.12,321.73L588.86,317.78L590.61,357.61L592.35,349.99L594.09,410.33L595.83,438.98L597.58,448.19L599.32,392.58L601.06,426.23L602.8,396.52L604.54,424.79L606.29,408.88L608.03,569.78L609.77,513.65L611.51,462.25L613.26,448.19L615,485.26L616.74,471.98L620.22,533.37L621.97,526.8L623.71,543.49L625.45,526.27L627.19,496.83L628.94,538.76L630.68,540.99L632.42,548.88L634.16,556.37L635.9,531.27L639.39,506.29L641.13,524.83L642.87,528.64L644.62,539.55L648.1,518.12L649.84,502.35L651.58,511.94L653.33,528.11L655.07,533.24L656.81,540.73L658.55,541.78L660.3,537.05L662.04,503.4L663.78,537.58L667.26,453.31L669.01,511.94L670.75,494.72L672.49,524.17L674.23,487.49L675.98,474.74L677.72,438.06L679.46,501.03L681.2,526.53L682.94,469.48L684.69,463.57L686.43,438.33L688.17,427.28L689.91,432.28L691.65,444.37L693.4,464.49L695.14,461.2L696.88,354.85L698.62,382.59L700.37,345.26L702.11,345.91L703.85,392.45L705.59,360.64L707.33,361.03L709.08,331.58L710.82,261.65L712.56,272.17L714.3,267.96L716.05,281.5L717.79,264.8L719.53,245.09L721.27,234.57L723.01,112.05L724.76,166.48L726.5,81.95L728.24,89.18L729.98,185.27L731.73,121.39L733.47,45.14L735.21,35.15L736.95,94.31L738.69,109.03L740.44,83.13L742.18,211.7L743.92,114.02L745.66,183.7L747.41,75.51L749.15,129.54L750.89,148.86L752.63,206.31L754.37,238.51L756.12,210.25L757.86,158.85L759.6,156.75L761.34,224.84L763.09,177.12L764.83,216.03L766.57,300.82L768.31,281.11L770.05,217.61L773.54,291.23L775.28,244.95L778.77,395.21L780.51,362.74L782.25,305.03L783.99,357.22L785.73,328.04L787.48,378.65L789.22,382.46L790.96,455.28L792.7,458.97L794.44,352.22L796.19,419.27L797.93,431.89L799.67,445.43L801.41,477.63L803.16,531.14L804.9,523.77L806.64,518.52L808.38,500.37L810.12,528.77L811.87,531.92L813.61,547.3L815.35,575.83L817.09,571.36L818.84,553.35L820.58,547.57L822.32,569.91L824.06,580.56L825.8,598.7L829.29,613.69L831.03,590.16L832.77,592.26L834.52,601.73L836.26,598.05L838,608.96" style="vector-effect: non-scaling-stroke; fill: none; stroke: rgb(31, 119, 180); stroke-opacity: 1; stroke-width: 2px; opacity: 1;"/></g><g class="points"/><g class="text"/></g><g class="trace scatter traced85e7e" style="stroke-miterlimit: 2; opacity: 1;"><g class="fills"/><g class="errorbars"/><g class="lines"><path class="js-line" d="M0,667.72L67.95,667.72L69.69,612.11L71.43,654.18L73.17,647.34L74.91,649.05L76.66,642.48L78.4,641.95L80.14,637.48L81.88,644.71L83.63,644.32L85.37,631.96L87.11,637.35L88.85,632.36L90.59,630.38L95.82,639.98L97.56,623.81L99.31,629.33L101.05,620.13L102.79,625.78L104.53,623.81L108.02,629.46L109.76,613.16L111.5,607.38L113.24,614.22L114.99,612.24L116.73,603.17L118.47,598.7L120.21,610.01L121.95,582.53L123.7,589.76L125.44,586.22L127.18,593.45L128.92,586.87L130.67,601.99L132.41,631.7L134.15,609.48L135.89,622.1L137.63,612.38L139.38,616.06L141.12,616.58L142.86,620.53L144.6,633.54L146.35,608.04L148.09,620.53L149.83,610.27L151.57,617.9L153.31,623.02L155.06,631.17L156.8,633.54L158.54,629.33L160.28,625.78L162.02,633.8L163.77,617.9L165.51,624.21L167.25,638.67L168.99,633.54L170.74,613.3L172.48,628.15L174.22,626.97L175.96,619.08L177.7,607.64L179.45,622.63L181.19,624.21L182.93,624.73L184.67,615.53L186.42,618.42L188.16,619.87L189.9,627.62L191.64,636.17L193.38,623.42L195.13,595.29L196.87,601.33L198.61,628.02L200.35,621.58L202.1,612.11L203.84,634.59L205.58,639.06L207.32,621.31L209.06,638.8L210.81,635.38L212.55,639.06L214.29,634.72L217.78,644.85L219.52,637.62L221.26,642.48L223,638.01L224.74,644.32L226.49,644.71L228.23,656.02L229.97,648.26L233.46,640.9L235.2,644.19L236.94,644.85L238.68,643.66L240.42,646.69L242.17,644.45L243.91,641.16L245.65,645.11L247.39,644.32L249.14,632.62L250.88,653L252.62,650.76L254.36,651.68L256.1,649.97L257.85,649.18L259.59,654.44L261.33,650.37L263.07,652.86L264.81,653.78L266.56,655.62L268.3,640.51L270.04,647.87L271.78,649.71L273.53,649.31L277.01,654.31L278.75,653.78L280.49,644.85L282.24,646.03L283.98,645.63L285.72,646.29L287.46,651.68L289.21,651.16L290.95,652.47L292.69,648.53L294.43,646.82L296.17,652.21L297.92,653.65L299.66,648.26L303.14,657.86L304.89,650.1L306.63,654.7L308.37,656.81L310.11,654.44L311.85,657.2L317.08,656.02L318.82,657.73L320.57,653.78L322.31,655.89L324.05,653.52L325.79,657.46L327.53,657.86L329.28,652.6L331.02,657.6L332.76,656.81L334.5,654.18L336.25,657.46L337.99,658.12L339.73,655.62L341.47,649.71L343.21,652.08L344.96,652.47L346.7,653.78L351.93,652.08L353.67,649.84L355.41,649.05L357.15,651.42L358.89,652.08L360.64,651.42L362.38,650.23L364.12,652.34L367.6,644.19L369.35,644.58L371.09,644.45L372.83,642.61L374.57,644.32L376.32,641.95L378.06,633.8L379.8,630.12L381.54,630.52L383.28,623.29L385.03,629.73L386.77,624.21L388.51,625.26L390.25,607.64L392,600.02L393.74,611.46L395.48,610.53L397.22,597.52L400.71,595.94L402.45,574.78L404.19,576.36L405.93,572.54L407.68,575.7L409.42,575.04L412.9,585.69L414.64,564.79L416.39,565.31L418.13,573.99L419.87,578.07L421.61,577.67L423.36,587.92L425.1,585.16L426.84,573.2L428.58,570.31L430.32,571.36L432.07,585.56L433.81,570.97L435.55,578.46L437.29,576.88L439.04,566.1L440.78,559.92L442.52,563.08L444.26,562.82L446,554.14L447.75,559.14L449.49,557.69L451.23,543.49L452.97,543.1L454.72,542.97L456.46,555.72L458.2,552.43L459.94,559.79L461.68,565.05L463.43,551.25L465.17,547.17L466.91,533.9L468.65,535.87L470.4,528.11L472.14,537.31L473.88,518.52L475.62,471.19L477.36,486.83L479.11,481.71L480.85,488.54L484.33,472.64L486.07,525.48L487.82,473.69L489.56,488.28L493.04,469.22L494.79,478.03L496.53,494.2L498.27,487.23L500.01,446.08L501.75,465.14L503.5,463.57L505.24,454.23L506.98,460.81L508.72,482.1L510.47,464.09L512.21,414.8L513.95,430.57L515.69,437.28L517.43,415.59L519.18,447.13L520.92,465.93L522.66,429.78L524.4,399.15L526.15,403.62L527.89,405.86L529.63,422.55L531.37,413.88L533.11,450.29L536.6,372.86L538.34,403.1L540.08,373.65L541.83,416.24L543.57,404.15L545.31,384.96L547.05,374.18L548.79,373.65L550.54,376.81L552.28,344.34L554.02,397.71L555.76,381.8L559.25,402.83L560.99,272.69L562.73,302.8L564.47,307.79L566.22,284.52L567.96,339.6L569.7,305.42L571.44,226.94L573.19,221.82L574.93,195.4L578.41,245.48L580.15,263.1L581.9,296.22L583.64,290.04L585.38,179.49L587.12,274.66L588.86,224.05L590.61,270.06L595.83,370.5L597.58,309.5L599.32,340.26L601.06,286.49L606.29,387.45L608.03,365.76L609.77,438.33L611.51,410.59L613.26,374.18L615,431.62L616.74,413.09L618.48,444.24L620.22,485.26L621.97,443.06L623.71,491.04L625.45,481.71L627.19,479.21L628.94,505.37L632.42,521.54L634.16,476.32L635.9,499.85L637.65,502.74L639.39,495.12L641.13,517.86L644.62,536L646.36,498.01L648.1,523.91L649.84,535.34L651.58,538.37L653.33,532.45L655.07,544.28L656.81,539.02L658.55,524.43L660.3,526.8L662.04,515.36L663.78,516.28L665.52,522.46L667.26,537.05L669.01,539.94L670.75,508.39L672.49,521.8L674.23,519.96L677.72,514.31L679.46,521.28L681.2,525.09L682.94,472.11L684.69,505.24L686.43,497.35L688.17,501.95L689.91,489.86L691.65,513.26L693.4,500.64L695.14,466.46L696.88,493.01L698.62,447.53L700.37,473.03L702.11,464.88L703.85,467.38L705.59,473.56L707.33,408.35L709.08,429.26L710.82,414.66L712.56,428.6L714.3,418.08L716.05,436.22L717.79,407.96L719.53,351.3L721.27,329.09L723.01,320.54L724.76,349.33L726.5,323.7L728.24,346.31L729.98,329.48L731.73,252.32L733.47,250.48L735.21,253.5L736.95,193.03L738.69,228.92L740.44,253.24L742.18,224.84L743.92,115.08L745.66,63.41L747.41,50.14L749.15,98.25L750.89,110.47L752.63,134.4L754.37,153.99L756.12,73.93L757.86,109.69L759.6,110.08L761.34,146.63L763.09,148.86L766.57,230.89L768.31,94.44L770.05,142.29L771.8,158.32L773.54,195L775.28,187.51L777.02,258.89L778.77,286.76L780.51,210.64L782.25,213.54L783.99,207.36L785.73,265.07L787.48,262.96L789.22,279.53L790.96,338.81L792.7,257.71L794.44,304.5L796.19,314.23L797.93,336.45L799.67,344.6L801.41,395.34L803.16,402.44L804.9,356.04L806.64,365.11L808.38,357.22L810.12,397.31L811.87,396L813.61,443.32L815.35,461.59L817.09,439.9L822.32,504.45L824.06,507.08L825.8,544.02L827.55,534.95L829.29,545.2L831.03,544.28L832.77,555.98L834.52,558.61L838,579.64" style="vector-effect: non-scaling-stroke; fill: none; stroke: rgb(255, 127, 14); stroke-opacity: 1; stroke-width: 2px; opacity: 1;"/></g><g class="points"/><g class="text"/></g><g class="trace scatter trace1a1283" style="stroke-miterlimit: 2; opacity: 1;"><g class="fills"/><g class="errorbars"/><g class="lines"><path class="js-line" d="M0,667.72L69.69,667.19L71.43,666.4L73.17,667.19L74.91,665.62L76.66,665.88L78.4,664.17L80.14,664.43L81.88,666.01L83.63,664.96L85.37,664.96L87.11,664.3L88.85,664.83L90.59,663.64L92.34,664.96L94.08,665.48L95.82,662.07L97.56,661.01L99.31,662.72L101.05,660.49L102.79,662.99L104.53,662.59L106.27,663.64L108.02,662.72L109.76,662.85L111.5,660.62L113.24,661.15L114.99,661.41L116.73,664.56L118.47,660.23L120.21,659.96L121.95,661.8L123.7,656.41L125.44,662.59L127.18,660.49L128.92,662.46L130.67,656.68L132.41,659.7L134.15,658.78L135.89,661.41L137.63,659.44L139.38,659.96L141.12,663.12L142.86,663.12L144.6,660.36L148.09,663.38L149.83,664.17L151.57,663.38L153.31,664.7L155.06,664.7L156.8,665.75L158.54,662.07L160.28,663.64L165.51,664.43L167.25,663.91L168.99,664.96L170.74,663.51L174.22,662.33L175.96,665.48L177.7,665.22L179.45,666.4L182.93,665.22L184.67,661.8L186.42,665.75L188.16,663.12L189.9,665.22L191.64,664.56L195.13,666.27L196.87,666.14L205.58,666.27L207.32,666.14L209.06,667.32L210.81,666.27L212.55,663.64L214.29,666.27L216.03,667.32L217.78,666.4L221.26,666.4L223,667.32L224.74,666.67L226.49,666.93L231.71,667.19L233.46,667.19L240.42,667.72L242.17,667.46L243.91,666.54L245.65,667.32L249.14,666.93L250.88,667.32L254.36,667.59L256.1,666.54L257.85,667.06L259.59,666.54L261.33,667.46L263.07,667.32L270.04,667.72L271.78,667.32L277.01,667.59L278.75,667.19L282.24,667.32L283.98,667.32L296.17,667.72L297.92,667.59L304.89,667.59L306.63,667.72L315.34,667.19L317.08,667.85L322.31,667.59L324.05,667.72L332.76,666.93L334.5,667.72L343.21,667.72L344.96,667.85L355.41,667.59L357.15,667.85L364.12,667.19L365.86,667.46L376.32,667.32L378.06,667.32L383.28,667.72L385.03,667.46L392,667.32L393.74,657.73L397.22,666.8L398.96,667.06L400.71,666.8L402.45,667.59L407.68,666.8L409.42,667.59L412.9,666.54L414.64,667.72L419.87,666.4L421.61,667.06L425.1,667.32L426.84,666.54L439.04,667.06L440.78,666.4L447.75,666.8L449.49,665.88L452.97,666.01L454.72,665.88L458.2,666.01L459.94,666.14L466.91,665.22L468.65,665.09L470.4,663.91L472.14,666.4L473.88,666.14L475.62,663.51L477.36,664.04L479.11,666.67L480.85,664.96L482.59,665.88L484.33,665.22L486.07,665.88L487.82,663.12L489.56,664.96L491.3,665.09L493.04,663.91L494.79,664.56L496.53,666.67L498.27,666.8L500.01,663.12L501.75,665.88L503.5,664.43L506.98,665.75L508.72,664.3L510.47,666.4L512.21,664.04L515.69,661.8L517.43,665.48L519.18,665.62L520.92,664.7L522.66,665.09L524.4,662.07L526.15,664.7L527.89,662.46L529.63,664.17L531.37,664.43L533.11,665.48L534.86,664.96L536.6,662.33L538.34,661.28L541.83,662.72L543.57,665.35L545.31,662.85L547.05,662.33L548.79,665.22L550.54,660.36L554.02,661.93L555.76,664.43L557.51,663.91L559.25,661.01L560.99,662.85L562.73,656.02L564.47,664.3L566.22,662.46L567.96,659.7L569.7,663.91L571.44,662.33L573.19,657.99L574.93,659.57L576.67,654.57L578.41,661.01L580.15,658.65L581.9,664.56L583.64,661.67L585.38,656.02L587.12,661.67L588.86,656.28L590.61,660.88L594.09,662.07L595.83,659.44L597.58,661.28L599.32,660.36L601.06,660.09L602.8,658.12L604.54,662.07L606.29,662.99L608.03,665.88L609.77,658.91L611.51,656.15L613.26,661.8L615,661.8L616.74,664.83L618.48,663.38L620.22,665.48L621.97,662.33L623.71,665.35L627.19,665.22L628.94,662.2L630.68,666.01L632.42,666.01L634.16,666.4L635.9,661.93L637.65,661.54L639.39,664.04L641.13,666.01L642.87,666.27L646.36,666.54L648.1,664.7L649.84,664.04L651.58,665.62L653.33,665.09L655.07,666.93L658.55,665.48L660.3,666.4L662.04,664.83L663.78,666.93L665.52,665.75L667.26,666.4L669.01,666.93L670.75,665.62L672.49,666.4L674.23,665.35L675.98,666.27L677.72,665.75L679.46,666.54L681.2,666.27L684.69,665.75L686.43,666.4L688.17,666.27L689.91,665.35L691.65,667.32L693.4,666.54L695.14,666.4L696.88,665.48L698.62,666.14L700.37,665.62L702.11,665.22L703.85,666.4L710.82,664.7L712.56,665.62L717.79,666.67L719.53,665.48L726.5,664.96L728.24,665.75L729.98,665.75L731.73,664.04L735.21,664.43L736.95,663.25L738.69,665.35L740.44,665.22L742.18,664.83L743.92,663.51L745.66,662.46L747.41,663.25L749.15,664.56L750.89,664.56L756.12,664.56L757.86,662.33L759.6,664.96L761.34,663.91L764.83,665.62L766.57,664.43L768.31,661.93L770.05,664.3L773.54,664.43L775.28,661.54L777.02,665.22L778.77,665.75L780.51,663.51L782.25,663.64L785.73,664.56L787.48,663.77L789.22,667.19L790.96,665.48L792.7,665.22L794.44,664.17L796.19,664.17L797.93,665.09L801.41,666.67L803.16,663.38L806.64,665.22L808.38,665.88L811.87,665.35L813.61,666.01L815.35,666.54L817.09,664.43L818.84,666.4L820.58,665.22L822.32,664.56L824.06,666.4L827.55,665.35L829.29,663.38L831.03,666.27L832.77,667.19L834.52,665.75L836.26,666.8L838,667.19" style="vector-effect: non-scaling-stroke; fill: none; stroke: rgb(44, 160, 44); stroke-opacity: 1; stroke-width: 2px; opacity: 1;"/></g><g class="points"/><g class="text"/></g></g></g><g class="overplot"/><path class="xlines-above crisp" style="fill: none;" d="M0,0"/><path class="ylines-above crisp" style="fill: none;" d="M0,0"/><g class="overlines-above"/><g class="xaxislayer-above"><g class="xtick"><text text-anchor="middle" x="0" y="741" transform="translate(80.91,0)" style="font-family: 'Open Sans', verdana, arial, sans-serif; font-size: 12px; fill: rgb(68, 68, 68); fill-opacity: 1; white-space: pre;">Mar 2020</text></g><g class="xtick"><text text-anchor="middle" x="0" y="741" transform="translate(187.18,0)" style="font-family: 'Open Sans', verdana, arial, sans-serif; font-size: 12px; fill: rgb(68, 68, 68); fill-opacity: 1; white-space: pre;">May 2020</text></g><g class="xtick"><text text-anchor="middle" x="0" y="741" transform="translate(293.46000000000004,0)" style="font-family: 'Open Sans', verdana, arial, sans-serif; font-size: 12px; fill: rgb(68, 68, 68); fill-opacity: 1; white-space: pre;">Jul 2020</text></g><g class="xtick"><text text-anchor="middle" x="0" y="741" transform="translate(401.47,0)" style="font-family: 'Open Sans', verdana, arial, sans-serif; font-size: 12px; fill: rgb(68, 68, 68); fill-opacity: 1; white-space: pre;">Sep 2020</text></g><g class="xtick"><text text-anchor="middle" x="0" y="741" transform="translate(507.75,0)" style="font-family: 'Open Sans', verdana, arial, sans-serif; font-size: 12px; fill: rgb(68, 68, 68); fill-opacity: 1; white-space: pre;">Nov 2020</text></g><g class="xtick"><text text-anchor="middle" x="0" y="741" transform="translate(614.02,0)" style="font-family: 'Open Sans', verdana, arial, sans-serif; font-size: 12px; fill: rgb(68, 68, 68); fill-opacity: 1; white-space: pre;">Jan 2021</text></g><g class="xtick"><text text-anchor="middle" x="0" y="741" transform="translate(716.81,0)" style="font-family: 'Open Sans', verdana, arial, sans-serif; font-size: 12px; fill: rgb(68, 68, 68); fill-opacity: 1; white-space: pre;">Mar 2021</text></g><g class="xtick"><text text-anchor="middle" x="0" y="741" transform="translate(823.09,0)" style="font-family: 'Open Sans', verdana, arial, sans-serif; font-size: 12px; fill: rgb(68, 68, 68); fill-opacity: 1; white-space: pre;">May 2021</text></g></g><g class="yaxislayer-above"><g class="ytick"><text text-anchor="end" x="59" y="4.199999999999999" transform="translate(0,692.72)" style="font-family: 'Open Sans', verdana, arial, sans-serif; font-size: 12px; fill: rgb(68, 68, 68); fill-opacity: 1; white-space: pre;">0</text></g><g class="ytick"><text text-anchor="end" x="59" y="4.199999999999999" transform="translate(0,561.26)" style="font-family: 'Open Sans', verdana, arial, sans-serif; font-size: 12px; fill: rgb(68, 68, 68); fill-opacity: 1; white-space: pre;">1000</text></g><g class="ytick"><text text-anchor="end" x="59" y="4.199999999999999" transform="translate(0,429.81)" style="font-family: 'Open Sans', verdana, arial, sans-serif; font-size: 12px; fill: rgb(68, 68, 68); fill-opacity: 1; white-space: pre;">2000</text></g><g class="ytick"><text text-anchor="end" x="59" y="4.199999999999999" transform="translate(0,298.35)" style="font-family: 'Open Sans', verdana, arial, sans-serif; font-size: 12px; fill: rgb(68, 68, 68); fill-opacity: 1; white-space: pre;">3000</text></g><g class="ytick"><text text-anchor="end" x="59" y="4.199999999999999" transform="translate(0,166.89)" style="font-family: 'Open Sans', verdana, arial, sans-serif; font-size: 12px; fill: rgb(68, 68, 68); fill-opacity: 1; white-space: pre;">4000</text></g><g class="ytick"><text text-anchor="end" x="59" y="4.199999999999999" transform="translate(0,35.44)" style="font-family: 'Open Sans', verdana, arial, sans-serif; font-size: 12px; fill: rgb(68, 68, 68); fill-opacity: 1; white-space: pre;">5000</text></g></g><g class="overaxes-above"/></g></g><g class="polarlayer"/><g class="ternarylayer"/><g class="geolayer"/><g class="funnelarealayer"/><g class="pielayer"/><g class="treemaplayer"/><g class="sunburstlayer"/><g class="glimages"/><defs id="topdefs-f6227a"><g class="clips"/><clipPath id="legendf6227a"><rect width="102" height="67" x="0" y="0"/></clipPath></defs><g class="layer-above"><g class="imagelayer"/><g class="shapelayer"/></g><g class="infolayer"><g class="legend" pointer-events="all" transform="translate(914.76, 25)"><rect class="bg" shape-rendering="crispEdges" style="stroke: rgb(68, 68, 68); stroke-opacity: 1; fill: rgb(255, 255, 255); fill-opacity: 1; stroke-width: 0px;" width="102" height="67" x="0" y="0"/><g class="scrollbox" transform="translate(0, 0)" clip-path="url('#legendf6227a')"><g class="groups"><g class="traces" style="opacity: 1;" transform="translate(0, 14.5)"><text class="legendtext" text-anchor="start" x="40" y="4.680000000000001" style="font-family: 'Open Sans', verdana, arial, sans-serif; font-size: 12px; fill: rgb(68, 68, 68); fill-opacity: 1; white-space: pre;">positive</text><g class="layers" style="opacity: 1;"><g class="legendfill"/><g class="legendlines"><path class="js-line" d="M5,0h30" style="fill: none; stroke: rgb(31, 119, 180); stroke-opacity: 1; stroke-width: 2px;"/></g><g class="legendsymbols"><g class="legendpoints"/></g></g><rect class="legendtoggle" x="0" y="-9.5" width="96.109375" height="19" style="fill: rgb(0, 0, 0); fill-opacity: 0;"/></g><g class="traces" style="opacity: 1;" transform="translate(0, 33.5)"><text class="legendtext" text-anchor="start" x="40" y="4.680000000000001" style="font-family: 'Open Sans', verdana, arial, sans-serif; font-size: 12px; fill: rgb(68, 68, 68); fill-opacity: 1; white-space: pre;">resolved</text><g class="layers" style="opacity: 1;"><g class="legendfill"/><g class="legendlines"><path class="js-line" d="M5,0h30" style="fill: none; stroke: rgb(255, 127, 14); stroke-opacity: 1; stroke-width: 2px;"/></g><g class="legendsymbols"><g class="legendpoints"/></g></g><rect class="legendtoggle" x="0" y="-9.5" width="96.109375" height="19" style="fill: rgb(0, 0, 0); fill-opacity: 0;"/></g><g class="traces" style="opacity: 1;" transform="translate(0, 52.5)"><text class="legendtext" text-anchor="start" x="40" y="4.680000000000001" style="font-family: 'Open Sans', verdana, arial, sans-serif; font-size: 12px; fill: rgb(68, 68, 68); fill-opacity: 1; white-space: pre;">deceased</text><g class="layers" style="opacity: 1;"><g class="legendfill"/><g class="legendlines"><path class="js-line" d="M5,0h30" style="fill: none; stroke: rgb(44, 160, 44); stroke-opacity: 1; stroke-width: 2px;"/></g><g class="legendsymbols"><g class="legendpoints"/></g></g><rect class="legendtoggle" x="0" y="-9.5" width="96.109375" height="19" style="fill: rgb(0, 0, 0); fill-opacity: 0;"/></g></g></g><rect class="scrollbar" rx="20" ry="3" width="0" height="0" style="fill: rgb(128, 139, 164); fill-opacity: 1;" x="0" y="0"/></g><g class="g-gtitle"><text class="gtitle" x="513.5" y="12.5" text-anchor="middle" dy="0em" style="font-family: 'Open Sans', verdana, arial, sans-serif; font-size: 17px; fill: rgb(68, 68, 68); opacity: 1; font-weight: normal; white-space: pre;">Dynamics of new cases, resolved cases and deaths in Ontario (Jun 14, 2021)</text></g><g class="g-xtitle" transform="translate(0,-15)"><text class="xtitle" x="479" y="780" text-anchor="middle" style="font-family: 'Open Sans', verdana, arial, sans-serif; font-size: 14px; fill: rgb(68, 68, 68); opacity: 1; font-weight: normal; white-space: pre;">Date</text></g><g class="g-ytitle"><text class="ytitle" transform="rotate(-90,22,376.5)" x="22" y="376.5" text-anchor="middle" style="font-family: 'Open Sans', verdana, arial, sans-serif; font-size: 14px; fill: rgb(68, 68, 68); opacity: 1; font-weight: normal; white-space: pre;">Number of cases</text></g></g></svg>