<svg class="main-svg" xmlns="http://www.w3.org/2000/svg" xmlns:xlink="http://www.w3.org/1999/xlink" width="1027" height="768" style="" viewBox="0 0 1027 768"><rect x="0" y="0" width="1027" height="768" style="fill: rgb(255, 255, 255); fill-opacity: 1;"/><defs id="defs-96d1dc"><g class="clips"><clipPath id="clip96d1dcxyplot" class="plotclip"><rect width="838" height="703"/></clipPath><clipPath class="axesclip" id="clip96d1dcx"><rect x="60" y="0" width="838" height="768"/></clipPath><clipPath class="axesclip" id="clip96d1dcy"><rect x="0" y="25" width="1027" height="703"/></clipPath><clipPath class="axesclip" id="clip96d1dcxy"><rect x="60" y="25" width="838" height="703"/></clipPath></g><g class="gradients"/></defs><g class="bglayer"/><g class="layer-below"><g class="imagelayer"/><g class="shapelayer"/></g><g class="cartesianlayer"><g class="subplot xy"><g class="layer-subplot"><g class="shapelayer"/><g class="imagelayer"/></g><g class="gridlayer"><g class="x"><path class="xgrid crisp" transform="translate(91.52,0)" d="M0,25v703" style="stroke: rgb(238, 238, 238); stroke-opacity: 1; stroke-width: 1px;"/><path class="xgrid crisp" transform="translate(251.77,0)" d="M0,25v703" style="stroke: rgb(238, 238, 238); stroke-opacity: 1; stroke-width: 1px;"/><path class="xgrid crisp" transform="translate(412.01,0)" d="M0,25v703" style="stroke: rgb(238, 238, 238); stroke-opacity: 1; stroke-width: 1px;"/><path class="xgrid crisp" transform="translate(574.88,0)" d="M0,25v703" style="stroke: rgb(238, 238, 238); stroke-opacity: 1; stroke-width: 1px;"/><path class="xgrid crisp" transform="translate(735.13,0)" d="M0,25v703" style="stroke: rgb(238, 238, 238); stroke-opacity: 1; stroke-width: 1px;"/><path class="xgrid crisp" transform="translate(895.37,0)" d="M0,25v703" style="stroke: rgb(238, 238, 238); stroke-opacity: 1; stroke-width: 1px;"/></g><g class="y"><path class="ygrid crisp" transform="translate(0,598.62)" d="M60,0h838" style="stroke: rgb(238, 238, 238); stroke-opacity: 1; stroke-width: 1px;"/><path class="ygrid crisp" transform="translate(0,504.58)" d="M60,0h838" style="stroke: rgb(238, 238, 238); stroke-opacity: 1; stroke-width: 1px;"/><path class="ygrid crisp" transform="translate(0,410.54)" d="M60,0h838" style="stroke: rgb(238, 238, 238); stroke-opacity: 1; stroke-width: 1px;"/><path class="ygrid crisp" transform="translate(0,316.5)" d="M60,0h838" style="stroke: rgb(238, 238, 238); stroke-opacity: 1; stroke-width: 1px;"/><path class="ygrid crisp" transform="translate(0,222.46)" d="M60,0h838" style="stroke: rgb(238, 238, 238); stroke-opacity: 1; stroke-width: 1px;"/><path class="ygrid crisp" transform="translate(0,128.42000000000002)" d="M60,0h838" style="stroke: rgb(238, 238, 238); stroke-opacity: 1; stroke-width: 1px;"/><path class="ygrid crisp" transform="translate(0,34.38)" d="M60,0h838" style="stroke: rgb(238, 238, 238); stroke-opacity: 1; stroke-width: 1px;"/></g></g><g class="zerolinelayer"><path class="yzl zl crisp" transform="translate(0,692.66)" d="M60,0h838" style="stroke: rgb(68, 68, 68); stroke-opacity: 1; stroke-width: 1px;"/></g><path class="xlines-below"/><path class="ylines-below"/><g class="overlines-below"/><g class="xaxislayer-below"/><g class="yaxislayer-below"/><g class="overaxes-below"/><g class="plot" transform="translate(60, 25)" clip-path="url('#clip96d1dcxyplot')"><g class="scatterlayer mlayer"><g class="trace scatter trace225d16" style="stroke-miterlimit: 2; opacity: 1;"><g class="fills"/><g class="errorbars"/><g class="lines"><path class="js-line" d="M0,667.66L26.27,667.47L34.15,665.4L36.78,667.29L39.4,667.66L52.54,666.35L55.17,667.66L57.79,666.53L60.42,664.46L65.67,663.15L68.3,659.76L70.93,661.64L73.55,665.59L78.81,659.57L81.44,656.38L84.06,656.94L86.69,659.39L89.32,653.18L91.94,652.05L94.57,649.79L97.2,636.06L99.82,642.84L102.45,639.45L105.08,556.88L107.71,618.76L110.33,587.54L112.96,592.24L115.59,580.77L118.21,597.13L120.84,590.93L123.47,609.55L126.09,596.38L128.72,564.22L131.35,576.82L133.97,577.76L136.6,590.36L139.23,592.24L141.86,588.48L144.48,576.82L147.11,574.75L149.74,570.99L152.36,561.58L154.99,576.44L157.62,560.83L160.24,553.69L165.5,571.74L168.13,548.42L170.75,547.29L173.38,578.14L176.01,585.47L178.63,587.92L181.26,568.92L183.89,602.4L186.51,581.33L189.14,588.48L191.77,571.55L194.39,586.04L197.02,598.07L199.65,594.88L202.28,590.17L204.9,592.62L207.53,577.95L210.16,602.59L212.78,612.37L215.41,609.73L218.04,599.77L220.66,605.78L223.29,602.77L225.92,603.53L228.55,594.12L231.17,603.71L233.8,610.49L236.43,587.35L239.05,594.31L241.68,589.99L244.31,584.72L246.93,590.17L249.56,581.15L252.19,591.68L254.82,613.68L257.44,612.74L260.07,595.63L262.7,602.96L265.32,606.91L267.95,606.35L270.58,591.68L273.2,583.78L275.83,604.09L278.46,600.71L281.08,602.96L283.71,582.09L286.34,589.61L288.97,621.96L291.59,624.4L294.22,620.45L296.85,629.48L299.47,633.43L302.1,617.63L304.73,630.61L307.35,633.62L309.98,633.06L312.61,631.93L315.24,635.12L317.86,634.18L320.49,628.92L323.12,634.75L325.74,637.38L328.37,627.04L331,637L333.62,632.11L336.25,646.79L338.88,637.57L341.5,634.18L344.13,619.33L346.76,638.13L349.39,639.64L352.01,638.89L354.64,636.63L357.27,644.9L362.52,638.7L365.15,646.6L367.77,645.47L370.4,635.69L373.03,645.84L375.66,643.21L378.28,643.4L380.91,645.84L386.16,648.48L388.79,646.79L391.42,646.79L394.04,636.44L396.67,636.82L399.3,642.27L401.92,629.48L404.55,636.63L407.18,648.29L409.81,630.99L412.43,641.71L415.06,641.9L417.69,645.28L420.31,646.79L422.94,653.37L425.57,650.92L428.19,642.46L430.82,644.34L433.45,645.84L436.08,651.11L438.7,650.55L441.33,651.49L443.96,649.79L446.58,651.11L449.21,654.5L451.84,652.8L454.46,646.03L457.09,661.46L459.72,649.79L462.34,652.99L467.6,647.73L470.23,652.43L472.85,649.04L475.48,644.15L480.73,653.37L483.36,643.02L485.99,647.35L488.61,646.03L491.24,647.91L493.87,648.85L496.5,651.11L499.12,645.47L501.75,644.72L504.38,639.83L507,646.6L509.63,646.22L512.26,646.6L514.88,642.65L517.51,642.84L520.14,639.83L522.76,635.88L525.39,637.95L528.02,631.93L530.65,632.87L533.27,639.64L535.9,635.69L538.53,627.6L541.15,624.03L543.78,629.29L546.41,608.79L549.03,620.45L551.66,608.42L554.29,612.55L556.92,592.24L559.54,591.11L562.17,599.01L567.42,577.76L570.05,604.66L572.68,590.74L575.3,590.74L577.93,585.85L580.56,575.31L583.18,536.01L585.81,563.47L588.44,550.11L591.07,566.48L593.69,529.99L596.32,544.85L598.95,561.21L601.57,551.99L604.2,564.59L606.83,558.01L609.45,517.76L612.08,491.06L617.34,545.6L619.96,515.88L622.59,527.35L625.22,532.06L627.84,520.4L630.47,533.75L633.1,516.26L635.72,543.91L638.35,535.25L640.98,513.25L643.61,519.08L646.23,509.49L648.86,512.31L651.49,483.72L654.11,471.68L656.74,507.61L659.37,512.12L661.99,510.8L664.62,492L667.25,499.14L669.87,476.76L672.5,483.91L675.13,489.36L677.76,470.18L680.38,482.03L683.01,479.96L685.64,479.02L688.26,454.76L690.89,417.89L693.52,434.07L696.14,406.61L698.77,399.46L701.4,371.44L704.03,405.1L706.65,370.31L709.28,432.94L711.91,387.99L714.53,432.75L717.16,401.15L719.79,440.09L725.04,368.99L727.67,379.15L730.29,368.8L732.92,477.89L735.55,409.43L738.18,389.68L740.8,318.77L743.43,324.98L746.06,346.42L748.68,339.27L751.31,346.61L753.94,343.6L756.56,324.6L759.19,332.88L764.45,305.8L767.07,305.61L769.7,352.44L772.33,312.19L774.95,294.7L777.58,320.09L780.21,315.39L782.83,352.25L788.09,239.78L790.71,265.36L793.34,210.25L795.97,236.96L798.6,224.36L801.22,232.07L803.85,268.37L806.48,253.51L809.1,214.77L811.73,207.43L814.36,261.6L816.98,264.8L819.61,290.56L822.24,302.98L824.87,187.49L827.49,117.91L830.12,41.73L832.75,201.98L835.37,35.15L838,110.19" style="vector-effect: non-scaling-stroke; fill: none; stroke: rgb(31, 119, 180); stroke-opacity: 1; stroke-width: 2px; opacity: 1;"/></g><g class="points"/><g class="text"/></g><g class="trace scatter trace6dd60e" style="stroke-miterlimit: 2; opacity: 1;"><g class="fills"/><g class="errorbars"/><g class="lines"><path class="js-line" d="M0,667.66L102.45,667.66L105.08,588.1L107.71,648.29L110.33,638.51L112.96,640.95L115.59,631.55L118.21,630.8L120.84,624.4L123.47,634.75L126.09,634.18L128.72,616.5L131.35,624.22L133.97,617.07L136.6,614.25L141.86,623.28L144.48,627.98L147.11,604.84L149.74,612.74L152.36,599.58L154.99,607.66L157.62,604.84L160.24,610.11L162.87,612.93L165.5,589.61L168.13,581.33L170.75,591.11L173.38,588.29L176.01,575.31L178.63,568.92L181.26,585.09L183.89,545.79L186.51,556.13L189.14,551.05L191.77,561.4L194.39,551.99L197.02,573.62L199.65,616.13L202.28,584.34L204.9,602.4L207.53,588.48L210.16,593.75L212.78,594.5L215.41,600.14L218.04,618.76L220.66,582.27L223.29,600.14L225.92,585.47L228.55,596.38L231.17,603.71L233.8,615.38L236.43,618.76L239.05,612.74L241.68,607.66L244.31,619.14L246.93,596.38L249.56,605.41L252.19,626.1L254.82,618.76L257.44,589.8L260.07,611.05L262.7,609.36L265.32,598.07L267.95,581.71L270.58,603.15L273.2,605.41L275.83,606.16L278.46,592.99L281.08,597.13L283.71,599.2L286.34,610.3L288.97,622.52L291.59,604.28L294.22,564.03L296.85,572.68L299.47,610.86L302.1,601.65L304.73,588.1L307.35,620.27L309.98,626.66L312.61,601.27L315.24,626.28L317.86,621.39L320.49,626.66L323.12,620.45L328.37,634.94L331,624.59L333.62,631.55L336.25,625.16L338.88,634.18L341.5,634.75L344.13,650.92L346.76,639.83L349.39,633.43L352.01,629.29L354.64,634L357.27,634.94L359.89,633.24L362.52,637.57L365.15,634.37L367.77,629.67L370.4,635.31L373.03,634.18L375.66,617.44L378.28,646.6L380.91,643.4L383.54,644.72L386.16,642.27L388.79,641.14L391.42,648.67L394.04,642.84L396.67,646.41L399.3,647.73L401.92,650.36L404.55,628.73L407.18,639.26L409.81,641.9L412.43,641.33L415.06,645.28L417.69,648.48L420.31,647.73L422.94,634.94L425.57,636.63L428.19,636.06L430.82,637L433.45,644.72L436.08,643.96L438.7,645.84L441.33,640.2L443.96,637.76L446.58,645.47L449.21,647.54L451.84,639.83L454.46,648.48L457.09,653.56L459.72,642.46L462.34,649.04L464.97,652.05L467.6,648.67L470.23,652.62L472.85,652.05L475.48,650.73L478.11,650.92L480.73,653.37L483.36,647.73L485.99,650.73L488.61,647.35L491.24,652.99L493.87,653.56L496.5,646.03L499.12,653.18L501.75,652.05L504.38,648.29L507,652.99L509.63,653.93L512.26,650.36L514.88,641.9L517.51,645.28L520.14,645.84L522.76,647.73L525.39,646.79L528.02,645.28L530.65,645.28L533.27,642.08L535.9,640.95L538.53,644.34L541.15,645.28L546.41,642.65L549.03,645.66L551.66,638.7L554.29,634L559.54,634.37L562.17,631.74L564.8,634.18L567.42,630.8L570.05,619.14L572.68,613.87L575.3,614.44L577.93,604.09L580.56,613.31L583.18,605.41L585.81,606.91L588.44,581.71L591.07,570.8L593.69,587.16L596.32,585.85L598.95,567.23L604.2,564.97L606.83,534.69L609.45,536.95L612.08,531.49L614.71,536.01L617.34,535.07L622.59,550.3L625.22,520.4L627.84,521.15L630.47,533.56L633.1,539.39L635.72,538.83L638.35,553.5L640.98,549.55L643.61,532.43L646.23,528.29L648.86,529.8L651.49,550.11L654.11,529.24L656.74,539.96L659.37,537.7L661.99,522.28L664.62,513.44L667.25,517.95L669.87,517.57L672.5,505.16L675.13,512.31L677.76,510.24L680.38,489.93L683.01,489.36L685.64,489.17L688.26,507.42L690.89,502.72L693.52,513.25L696.14,520.77L698.77,501.02L701.4,495.19L704.03,476.2L706.65,479.02L709.28,467.92L711.91,481.09L714.53,454.19L717.16,386.48L719.79,408.86L722.41,401.53L725.04,411.31L730.29,388.55L732.92,464.16L735.55,390.06L738.18,410.93L740.8,394.76L743.43,383.66L746.06,396.26L748.68,419.4L751.31,409.43L753.94,350.56L756.56,377.83L759.19,375.57L761.82,362.22L764.45,371.62L767.07,402.09L769.7,376.33L772.33,305.8L774.95,328.37L777.58,337.96L780.21,306.93L782.83,352.06L785.46,378.96L790.71,283.42L793.34,289.81L795.97,293.01L798.6,316.89L801.22,304.48L803.85,356.58L806.48,310.31L809.1,245.8L811.73,289.06L814.36,246.93L816.98,307.87L819.61,290.56L822.24,263.1L824.87,247.68L827.49,246.93L830.12,251.44L832.75,204.99L835.37,281.35L838,258.59" style="vector-effect: non-scaling-stroke; fill: none; stroke: rgb(255, 127, 14); stroke-opacity: 1; stroke-width: 2px; opacity: 1;"/></g><g class="points"/><g class="text"/></g><g class="trace scatter traceab8c20" style="stroke-miterlimit: 2; opacity: 1;"><g class="fills"/><g class="errorbars"/><g class="lines"><path class="js-line" d="M0,667.66L91.94,667.29L94.57,666.72L99.82,667.1L102.45,667.47L107.71,665.78L110.33,666.91L112.96,664.65L115.59,665.03L118.21,662.58L120.84,662.96L123.47,665.22L126.09,663.71L128.72,663.71L131.35,662.77L133.97,663.52L136.6,661.83L139.23,663.71L141.86,664.46L144.48,659.57L147.11,658.07L149.74,660.51L152.36,657.32L154.99,660.89L157.62,660.33L160.24,661.83L162.87,660.51L165.5,660.7L168.13,657.51L173.38,658.63L176.01,663.15L178.63,656.94L181.26,656.57L183.89,659.2L186.51,651.49L189.14,660.33L191.77,657.32L194.39,660.14L197.02,651.86L199.65,656.19L202.28,654.87L204.9,658.63L207.53,655.81L210.16,656.57L212.78,661.08L215.41,661.08L218.04,657.13L220.66,660.14L223.29,661.46L225.92,662.58L228.55,661.46L231.17,663.34L233.8,663.34L236.43,664.84L239.05,659.57L241.68,661.83L244.31,662.4L249.56,662.96L252.19,662.21L254.82,663.71L257.44,661.64L260.07,661.27L262.7,659.95L265.32,664.46L267.95,664.09L270.58,665.78L273.2,664.46L275.83,664.09L278.46,659.2L281.08,664.84L283.71,661.08L286.34,664.09L288.97,663.15L291.59,665.03L294.22,665.59L299.47,665.59L302.1,665.97L304.73,665.4L307.35,666.16L312.61,665.4L315.24,667.1L317.86,665.59L320.49,661.83L323.12,665.59L325.74,667.1L328.37,665.78L331,665.4L333.62,665.78L336.25,667.1L338.88,666.16L341.5,666.53L346.76,666.35L349.39,666.91L359.89,667.29L362.52,667.66L365.15,667.29L367.77,665.97L370.4,667.1L373.03,666.35L383.54,667.47L386.16,665.97L388.79,666.72L391.42,665.97L394.04,667.29L396.67,667.1L401.92,667.47L404.55,667.29L407.18,667.66L409.81,667.1L412.43,667.47L415.06,666.91L417.69,667.47L420.31,666.91L422.94,667.47L425.57,667.1L475.48,666.91L478.11,667.85L483.36,667.1L485.99,667.47L493.87,667.29L496.5,667.29L499.12,667.47L501.75,666.53L504.38,667.66L507,667.47L546.41,667.47L549.03,666.91L556.92,667.66L559.54,667.47L591.07,667.1L593.69,653.37L598.95,666.35L601.57,666.72L604.2,666.35L606.83,667.47L614.71,666.35L617.34,667.47L619.96,667.1L622.59,665.97L625.22,667.66L627.84,666.72L633.1,665.78L635.72,666.72L640.98,667.1L643.61,665.97L656.74,666.53L659.37,666.91L669.87,665.97L672.5,665.97L675.13,666.35L677.76,665.03L680.38,664.65L683.01,665.22L690.89,665.22L693.52,665.4L701.4,664.28L704.03,664.09L706.65,663.9L709.28,662.21L711.91,665.78L714.53,665.4L717.16,661.64L719.79,662.4L722.41,666.16L725.04,663.71L727.67,665.03L730.29,664.09L732.92,665.03L735.55,661.08L738.18,663.71L740.8,663.9L743.43,662.21L746.06,663.15L748.68,666.16L751.31,666.35L753.94,661.08L756.56,665.03L759.19,662.96L761.82,663.9L764.45,664.84L767.07,662.77L769.7,665.78L772.33,662.4L777.58,659.2L780.21,664.46L782.83,664.65L785.46,663.34L788.09,663.9L790.71,659.57L793.34,663.34L795.97,660.14L798.6,662.58L801.22,662.96L803.85,664.46L806.48,663.71L809.1,659.95L811.73,658.45L816.98,660.51L819.61,664.28L822.24,660.7L824.87,659.95L827.49,664.09L830.12,657.13L835.37,659.39L838,662.96" style="vector-effect: non-scaling-stroke; fill: none; stroke: rgb(44, 160, 44); stroke-opacity: 1; stroke-width: 2px; opacity: 1;"/></g><g class="points"/><g class="text"/></g></g></g><g class="overplot"/><path class="xlines-above crisp" style="fill: none;" d="M0,0"/><path class="ylines-above crisp" style="fill: none;" d="M0,0"/><g class="overlines-above"/><g class="xaxislayer-above"><g class="xtick"><text text-anchor="middle" x="0" y="741" transform="translate(91.52,0)" style="font-family: 'Open Sans', verdana, arial, sans-serif; font-size: 12px; fill: rgb(68, 68, 68); fill-opacity: 1; white-space: pre;">Mar 2020</text></g><g class="xtick"><text text-anchor="middle" x="0" y="741" transform="translate(251.77,0)" style="font-family: 'Open Sans', verdana, arial, sans-serif; font-size: 12px; fill: rgb(68, 68, 68); fill-opacity: 1; white-space: pre;">May 2020</text></g><g class="xtick"><text text-anchor="middle" x="0" y="741" transform="translate(412.01,0)" style="font-family: 'Open Sans', verdana, arial, sans-serif; font-size: 12px; fill: rgb(68, 68, 68); fill-opacity: 1; white-space: pre;">Jul 2020</text></g><g class="xtick"><text text-anchor="middle" x="0" y="741" transform="translate(574.88,0)" style="font-family: 'Open Sans', verdana, arial, sans-serif; font-size: 12px; fill: rgb(68, 68, 68); fill-opacity: 1; white-space: pre;">Sep 2020</text></g><g class="xtick"><text text-anchor="middle" x="0" y="741" transform="translate(735.13,0)" style="font-family: 'Open Sans', verdana, arial, sans-serif; font-size: 12px; fill: rgb(68, 68, 68); fill-opacity: 1; white-space: pre;">Nov 2020</text></g><g class="xtick"><text text-anchor="middle" x="0" y="741" transform="translate(895.37,0)" style="font-family: 'Open Sans', verdana, arial, sans-serif; font-size: 12px; fill: rgb(68, 68, 68); fill-opacity: 1; white-space: pre;">Jan 2021</text></g></g><g class="yaxislayer-above"><g class="ytick"><text text-anchor="end" x="59" y="4.199999999999999" transform="translate(0,692.66)" style="font-family: 'Open Sans', verdana, arial, sans-serif; font-size: 12px; fill: rgb(68, 68, 68); fill-opacity: 1; white-space: pre;">0</text></g><g class="ytick"><text text-anchor="end" x="59" y="4.199999999999999" transform="translate(0,598.62)" style="font-family: 'Open Sans', verdana, arial, sans-serif; font-size: 12px; fill: rgb(68, 68, 68); fill-opacity: 1; white-space: pre;">500</text></g><g class="ytick"><text text-anchor="end" x="59" y="4.199999999999999" transform="translate(0,504.58)" style="font-family: 'Open Sans', verdana, arial, sans-serif; font-size: 12px; fill: rgb(68, 68, 68); fill-opacity: 1; white-space: pre;">1000</text></g><g class="ytick"><text text-anchor="end" x="59" y="4.199999999999999" transform="translate(0,410.54)" style="font-family: 'Open Sans', verdana, arial, sans-serif; font-size: 12px; fill: rgb(68, 68, 68); fill-opacity: 1; white-space: pre;">1500</text></g><g class="ytick"><text text-anchor="end" x="59" y="4.199999999999999" transform="translate(0,316.5)" style="font-family: 'Open Sans', verdana, arial, sans-serif; font-size: 12px; fill: rgb(68, 68, 68); fill-opacity: 1; white-space: pre;">2000</text></g><g class="ytick"><text text-anchor="end" x="59" y="4.199999999999999" transform="translate(0,222.46)" style="font-family: 'Open Sans', verdana, arial, sans-serif; font-size: 12px; fill: rgb(68, 68, 68); fill-opacity: 1; white-space: pre;">2500</text></g><g class="ytick"><text text-anchor="end" x="59" y="4.199999999999999" transform="translate(0,128.42000000000002)" style="font-family: 'Open Sans', verdana, arial, sans-serif; font-size: 12px; fill: rgb(68, 68, 68); fill-opacity: 1; white-space: pre;">3000</text></g><g class="ytick"><text text-anchor="end" x="59" y="4.199999999999999" transform="translate(0,34.38)" style="font-family: 'Open Sans', verdana, arial, sans-serif; font-size: 12px; fill: rgb(68, 68, 68); fill-opacity: 1; white-space: pre;">3500</text></g></g><g class="overaxes-above"/></g></g><g class="polarlayer"/><g class="ternarylayer"/><g class="geolayer"/><g class="funnelarealayer"/><g class="pielayer"/><g class="treemaplayer"/><g class="sunburstlayer"/><g class="glimages"/><defs id="topdefs-96d1dc"><g class="clips"/><clipPath id="legend96d1dc"><rect width="102" height="67" x="0" y="0"/></clipPath></defs><g class="layer-above"><g class="imagelayer"/><g class="shapelayer"/></g><g class="infolayer"><g class="legend" pointer-events="all" transform="translate(914.76, 25)"><rect class="bg" shape-rendering="crispEdges" style="stroke: rgb(68, 68, 68); stroke-opacity: 1; fill: rgb(255, 255, 255); fill-opacity: 1; stroke-width: 0px;" width="102" height="67" x="0" y="0"/><g class="scrollbox" transform="translate(0, 0)" clip-path="url('#legend96d1dc')"><g class="groups"><g class="traces" style="opacity: 1;" transform="translate(0, 14.5)"><text class="legendtext user-select-none" text-anchor="start" x="40" y="4.680000000000001" style="font-family: 'Open Sans', verdana, arial, sans-serif; font-size: 12px; fill: rgb(68, 68, 68); fill-opacity: 1; white-space: pre;">positive</text><g class="layers" style="opacity: 1;"><g class="legendfill"/><g class="legendlines"><path class="js-line" d="M5,0h30" style="fill: none; stroke: rgb(31, 119, 180); stroke-opacity: 1; stroke-width: 2px;"/></g><g class="legendsymbols"><g class="legendpoints"/></g></g><rect class="legendtoggle" pointer-events="all" x="0" y="-9.5" width="96.109375" height="19" style="cursor: pointer; fill: rgb(0, 0, 0); fill-opacity: 0;"/></g><g class="traces" style="opacity: 1;" transform="translate(0, 33.5)"><text class="legendtext user-select-none" text-anchor="start" x="40" y="4.680000000000001" style="font-family: 'Open Sans', verdana, arial, sans-serif; font-size: 12px; fill: rgb(68, 68, 68); fill-opacity: 1; white-space: pre;">resolved</text><g class="layers" style="opacity: 1;"><g class="legendfill"/><g class="legendlines"><path class="js-line" d="M5,0h30" style="fill: none; stroke: rgb(255, 127, 14); stroke-opacity: 1; stroke-width: 2px;"/></g><g class="legendsymbols"><g class="legendpoints"/></g></g><rect class="legendtoggle" pointer-events="all" x="0" y="-9.5" width="96.109375" height="19" style="cursor: pointer; fill: rgb(0, 0, 0); fill-opacity: 0;"/></g><g class="traces" style="opacity: 1;" transform="translate(0, 52.5)"><text class="legendtext user-select-none" text-anchor="start" x="40" y="4.680000000000001" style="font-family: 'Open Sans', verdana, arial, sans-serif; font-size: 12px; fill: rgb(68, 68, 68); fill-opacity: 1; white-space: pre;">deceased</text><g class="layers" style="opacity: 1;"><g class="legendfill"/><g class="legendlines"><path class="js-line" d="M5,0h30" style="fill: none; stroke: rgb(44, 160, 44); stroke-opacity: 1; stroke-width: 2px;"/></g><g class="legendsymbols"><g class="legendpoints"/></g></g><rect class="legendtoggle" pointer-events="all" x="0" y="-9.5" width="96.109375" height="19" style="cursor: pointer; fill: rgb(0, 0, 0); fill-opacity: 0;"/></g></g></g><rect class="scrollbar" rx="20" ry="3" width="0" height="0" style="fill: rgb(128, 139, 164); fill-opacity: 1;" x="0" y="0"/></g><g class="g-gtitle"><text class="gtitle" x="513.5" y="12.5" text-anchor="middle" dy="0em" style="font-family: 'Open Sans', verdana, arial, sans-serif; font-size: 17px; fill: rgb(68, 68, 68); opacity: 1; font-weight: normal; white-space: pre;">Dynamics of new cases, resolved cases and deaths in Ontario (Jan 03, 2021)</text></g><g class="g-xtitle" transform="translate(0,-15)"><text class="xtitle" x="479" y="780" text-anchor="middle" style="font-family: 'Open Sans', verdana, arial, sans-serif; font-size: 14px; fill: rgb(68, 68, 68); opacity: 1; font-weight: normal; white-space: pre;">Date</text></g><g class="g-ytitle"><text class="ytitle" transform="rotate(-90,22,376.5)" x="22" y="376.5" text-anchor="middle" style="font-family: 'Open Sans', verdana, arial, sans-serif; font-size: 14px; fill: rgb(68, 68, 68); opacity: 1; font-weight: normal; white-space: pre;">Number of cases</text></g></g></svg>