<svg class="main-svg" xmlns="http://www.w3.org/2000/svg" xmlns:xlink="http://www.w3.org/1999/xlink" width="1027" height="768" style="" viewBox="0 0 1027 768"><rect x="0" y="0" width="1027" height="768" style="fill: rgb(255, 255, 255); fill-opacity: 1;"/><defs id="defs-b00346"><g class="clips"><clipPath id="clipb00346xyplot" class="plotclip"><rect width="838" height="703"/></clipPath><clipPath class="axesclip" id="clipb00346x"><rect x="60" y="0" width="838" height="768"/></clipPath><clipPath class="axesclip" id="clipb00346y"><rect x="0" y="25" width="1027" height="703"/></clipPath><clipPath class="axesclip" id="clipb00346xy"><rect x="60" y="25" width="838" height="703"/></clipPath></g><g class="gradients"/></defs><g class="bglayer"/><g class="layer-below"><g class="imagelayer"/><g class="shapelayer"/></g><g class="cartesianlayer"><g class="subplot xy"><g class="layer-subplot"><g class="shapelayer"/><g class="imagelayer"/></g><g class="gridlayer"><g class="x"><path class="xgrid crisp" transform="translate(95.41,0)" d="M0,25v703" style="stroke: rgb(238, 238, 238); stroke-opacity: 1; stroke-width: 1px;"/><path class="xgrid crisp" transform="translate(186.88,0)" d="M0,25v703" style="stroke: rgb(238, 238, 238); stroke-opacity: 1; stroke-width: 1px;"/><path class="xgrid crisp" transform="translate(275.4,0)" d="M0,25v703" style="stroke: rgb(238, 238, 238); stroke-opacity: 1; stroke-width: 1px;"/><path class="xgrid crisp" transform="translate(366.87,0)" d="M0,25v703" style="stroke: rgb(238, 238, 238); stroke-opacity: 1; stroke-width: 1px;"/><path class="xgrid crisp" transform="translate(455.39,0)" d="M0,25v703" style="stroke: rgb(238, 238, 238); stroke-opacity: 1; stroke-width: 1px;"/><path class="xgrid crisp" transform="translate(546.87,0)" d="M0,25v703" style="stroke: rgb(238, 238, 238); stroke-opacity: 1; stroke-width: 1px;"/><path class="xgrid crisp" transform="translate(638.34,0)" d="M0,25v703" style="stroke: rgb(238, 238, 238); stroke-opacity: 1; stroke-width: 1px;"/><path class="xgrid crisp" transform="translate(726.86,0)" d="M0,25v703" style="stroke: rgb(238, 238, 238); stroke-opacity: 1; stroke-width: 1px;"/><path class="xgrid crisp" transform="translate(818.33,0)" d="M0,25v703" style="stroke: rgb(238, 238, 238); stroke-opacity: 1; stroke-width: 1px;"/></g><g class="y"><path class="ygrid crisp" transform="translate(0,522.06)" d="M60,0h838" style="stroke: rgb(238, 238, 238); stroke-opacity: 1; stroke-width: 1px;"/><path class="ygrid crisp" transform="translate(0,351.61)" d="M60,0h838" style="stroke: rgb(238, 238, 238); stroke-opacity: 1; stroke-width: 1px;"/><path class="ygrid crisp" transform="translate(0,181.17)" d="M60,0h838" style="stroke: rgb(238, 238, 238); stroke-opacity: 1; stroke-width: 1px;"/></g></g><g class="zerolinelayer"><path class="yzl zl crisp" transform="translate(0,692.51)" d="M60,0h838" style="stroke: rgb(68, 68, 68); stroke-opacity: 1; stroke-width: 1px;"/></g><path class="xlines-below"/><path class="ylines-below"/><g class="overlines-below"/><g class="xaxislayer-below"/><g class="yaxislayer-below"/><g class="overaxes-below"/><g class="plot" transform="translate(60, 25)" clip-path="url('#clipb00346xyplot')"><g class="scatterlayer mlayer"><g class="trace scatter trace86d7d5" style="stroke-miterlimit: 2; opacity: 1;"><g class="fills"/><g class="errorbars"/><g class="lines"><path class="js-line" d="M0,667.51L29.51,667.17L38.36,663.42L41.31,666.83L44.26,667.51L50.16,666.15L53.11,666.83L59.01,665.12L61.96,667.51L64.92,665.46L67.87,661.71L73.77,659.33L76.72,653.19L79.67,656.6L82.62,663.76L88.52,652.85L91.47,647.06L94.42,648.08L97.37,652.51L100.32,641.26L103.27,639.21L106.23,635.12L109.18,610.24L112.13,622.51L115.08,616.37L118.03,466.72L120.98,578.88L123.93,522.29L126.88,530.81L129.83,510.02L132.78,539.67L135.73,528.42L138.68,562.17L141.63,538.31L144.58,480.02L147.54,502.86L150.49,504.56L153.44,527.4L156.39,530.81L159.34,523.99L162.29,502.86L165.24,499.11L168.19,492.29L171.14,475.24L174.09,502.18L177.04,473.88L179.99,460.93L185.89,493.65L188.85,451.38L191.8,449.34L194.75,505.24L197.7,518.54L200.65,522.97L203.6,488.54L206.55,549.22L209.5,511.04L212.45,523.99L215.4,493.31L218.35,519.56L221.3,541.38L224.25,535.58L227.2,527.06L230.15,531.49L233.11,504.9L236.06,549.56L239.01,567.29L241.96,562.51L244.91,544.45L247.86,555.35L250.81,549.9L253.76,551.26L256.71,534.22L259.66,551.61L262.61,563.88L265.56,521.95L268.51,534.56L271.46,526.72L274.42,517.17L277.37,527.06L280.32,510.7L283.27,529.79L286.22,569.67L289.17,567.97L292.12,536.95L295.07,550.24L298.02,557.4L300.97,556.38L303.92,529.79L306.87,515.47L309.82,552.29L312.77,546.15L315.73,550.24L318.68,512.4L321.63,526.04L324.58,584.67L327.53,589.1L330.48,581.94L333.43,598.31L336.38,605.47L339.33,576.83L342.28,600.35L345.23,605.81L348.18,604.78L351.13,602.74L354.08,608.53L357.04,606.83L359.99,597.28L362.94,607.85L365.89,612.63L368.84,593.88L371.79,611.94L374.74,603.08L377.69,629.67L380.64,612.97L383.59,606.83L386.54,579.9L389.49,613.99L392.44,616.72L395.39,615.35L398.35,611.26L401.3,626.26L407.2,615.01L410.15,629.33L413.1,627.28L416.05,609.56L419,627.97L421.95,623.19L424.9,623.53L427.85,627.97L430.8,629.67L433.75,632.74L436.7,629.67L439.65,629.67L442.61,610.92L445.56,611.6L448.51,621.49L451.46,598.31L454.41,611.26L457.36,632.4L460.31,601.03L463.26,620.47L466.21,620.81L469.16,626.94L472.11,629.67L475.06,641.6L478.01,637.17L480.96,621.83L486.87,627.97L489.82,637.51L492.77,636.49L495.72,638.19L498.67,635.12L501.62,637.51L504.57,643.65L507.52,640.58L510.47,628.31L513.42,656.26L516.37,635.12L519.32,640.92L525.23,631.37L528.18,639.9L531.13,633.76L534.08,624.9L539.98,641.6L542.93,622.85L545.88,630.69L548.83,628.31L551.78,631.72L554.73,633.42L557.68,637.51L560.63,627.28L563.58,625.92L566.54,617.06L569.49,629.33L572.44,628.65L575.39,629.33L578.34,622.17L581.29,622.51L584.24,617.06L587.19,609.9L590.14,613.65L593.09,602.74L596.04,604.44L598.99,616.72L601.94,609.56L604.89,594.9L607.85,588.42L610.8,597.97L613.75,560.81L616.7,581.94L619.65,560.13L622.6,567.63L625.55,530.81L628.5,528.77L631.45,543.08L637.35,504.56L640.3,553.31L643.25,528.08L646.2,528.08L649.15,519.22L652.11,500.13L655.06,428.88L658.01,478.65L660.96,454.45L663.91,484.11L666.86,417.97L669.81,444.91L672.76,474.56L675.71,457.86L678.66,480.7L681.61,468.77L684.56,395.82L687.51,347.41L693.42,446.27L696.37,392.41L699.32,413.2L702.27,421.72L705.22,400.59L708.17,424.79L711.12,393.09L714.07,443.2L717.02,427.52L719.97,387.63L722.92,398.2L725.87,380.82L728.82,385.93L731.77,334.11L734.73,312.3L737.68,377.41L740.63,385.59L743.58,383.2L746.53,349.11L749.48,362.07L752.43,321.5L755.38,334.46L758.33,344.34L761.28,309.57L764.23,331.05L767.18,327.3L770.13,325.59L773.08,281.62L776.04,214.8L778.99,244.12L781.94,194.35L784.89,181.39L787.84,130.6L790.79,191.62L793.74,128.56L796.69,242.07L799.64,160.6L802.59,241.73L805.54,184.46L808.49,255.03L814.39,126.17L817.35,144.58L820.3,125.83L823.25,323.55L826.2,199.46L829.15,163.67L832.1,35.15L835.05,46.4L838,85.26" style="vector-effect: non-scaling-stroke; fill: none; stroke: rgb(31, 119, 180); stroke-opacity: 1; stroke-width: 2px; opacity: 1;"/></g><g class="points"/><g class="text"/></g><g class="trace scatter trace5bc3aa" style="stroke-miterlimit: 2; opacity: 1;"><g class="fills"/><g class="errorbars"/><g class="lines"><path class="js-line" d="M0,667.51L115.08,667.51L118.03,523.31L120.98,632.4L123.93,614.67L126.88,619.1L129.83,602.06L132.78,600.69L135.73,589.1L138.68,607.85L141.63,606.83L144.58,574.79L147.54,588.76L150.49,575.81L153.44,570.7L156.39,577.85L159.34,587.06L162.29,595.58L165.24,553.65L168.19,567.97L171.14,544.11L174.09,558.76L177.04,553.65L179.99,563.2L182.94,568.31L185.89,526.04L188.85,511.04L191.8,528.77L194.75,523.65L197.7,500.13L200.65,488.54L203.6,517.86L206.55,446.61L209.5,465.36L212.45,456.15L215.4,474.9L218.35,457.86L221.3,497.06L224.25,574.1L227.2,516.49L230.15,549.22L233.11,523.99L236.06,533.54L239.01,534.9L241.96,545.13L244.91,578.88L247.86,512.74L250.81,545.13L253.76,518.54L256.71,538.31L259.66,551.61L262.61,572.74L265.56,578.88L271.46,558.76L274.42,579.56L277.37,538.31L280.32,554.67L283.27,592.17L286.22,578.88L289.17,526.38L292.12,564.9L295.07,561.83L298.02,541.38L300.97,511.72L303.92,550.58L306.87,554.67L309.82,556.04L312.77,532.17L315.73,539.67L318.68,543.42L321.63,563.54L324.58,585.69L327.53,552.63L330.48,479.68L333.43,495.36L336.38,564.56L339.33,547.86L342.28,523.31L345.23,581.6L348.18,593.19L351.13,547.17L354.08,592.51L357.04,583.65L359.99,593.19L362.94,581.94L368.84,608.19L371.79,589.44L374.74,602.06L377.69,590.47L380.64,606.83L383.59,607.85L386.54,637.17L389.49,617.06L392.44,605.47L395.39,597.97L398.35,606.49L401.3,608.19L404.25,605.13L407.2,612.97L410.15,607.17L413.1,598.65L416.05,608.88L419,606.83L421.95,576.49L424.9,629.33L427.85,623.53L430.8,625.92L433.75,621.49L436.7,619.44L439.65,633.08L442.61,622.51L445.56,628.99L448.51,631.37L451.46,636.15L454.41,596.94L457.36,616.03L460.31,620.81L463.26,619.78L466.21,626.94L469.16,632.74L472.11,631.37L475.06,608.19L478.01,611.26L480.96,610.24L483.92,611.94L486.87,625.92L489.82,624.56L492.77,627.97L495.72,617.74L498.67,613.31L501.62,627.28L504.57,631.03L507.52,617.06L510.47,632.74L513.42,641.94L516.37,621.83L519.32,633.76L522.27,639.21L525.23,633.08L528.18,640.24L531.13,639.21L534.08,636.83L537.03,637.17L539.98,641.6L542.93,631.37L545.88,636.83L548.83,630.69L551.78,640.92L554.73,641.94L557.68,628.31L560.63,641.26L563.58,639.21L566.54,632.4L569.49,640.92L572.44,642.62L575.39,636.15L578.34,620.81L581.29,626.94L584.24,627.97L587.19,631.37L590.14,629.67L593.09,626.94L596.04,626.94L598.99,621.15L601.94,619.1L604.89,625.24L607.85,626.94L610.8,625.24L613.75,622.17L616.7,627.62L619.65,615.01L622.6,606.49L625.55,607.51L628.5,607.17L631.45,602.4L634.4,606.83L637.35,600.69L640.3,579.56L643.25,570.01L646.2,571.04L649.15,552.29L652.11,568.99L655.06,554.67L658.01,557.4L660.96,511.72L663.91,491.95L666.86,521.61L669.81,519.22L672.76,485.47L678.66,481.38L681.61,426.5L684.56,430.59L687.51,420.7L690.46,428.88L693.42,427.18L699.32,454.79L702.27,400.59L705.22,401.95L708.17,424.45L711.12,435.02L714.07,434L717.02,460.59L719.97,453.43L722.92,422.41L725.87,414.91L728.82,417.63L731.77,454.45L734.73,416.61L737.68,436.04L740.63,431.95L743.58,404L746.53,387.98L749.48,396.16L752.43,395.48L755.38,372.98L758.33,385.93L761.28,382.18L764.23,345.36L767.18,344.34L770.13,344L773.08,377.07L776.04,368.54L778.99,387.63L781.94,401.27L784.89,365.48L787.84,354.91L790.79,320.48L793.74,325.59L796.69,305.48L799.64,329.34L802.59,280.59L805.54,157.87L808.49,198.44L811.44,185.14L814.39,202.87L820.3,161.62L823.25,298.66L826.2,164.35L829.15,202.19L832.1,172.87L835.05,152.76L838,175.6" style="vector-effect: non-scaling-stroke; fill: none; stroke: rgb(255, 127, 14); stroke-opacity: 1; stroke-width: 2px; opacity: 1;"/></g><g class="points"/><g class="text"/></g><g class="trace scatter trace90691c" style="stroke-miterlimit: 2; opacity: 1;"><g class="fills"/><g class="errorbars"/><g class="lines"><path class="js-line" d="M0,667.51L103.27,666.83L106.23,665.8L109.18,666.83L112.13,666.49L115.08,667.17L118.03,666.15L120.98,664.1L123.93,666.15L126.88,662.05L129.83,662.74L132.78,658.3L135.73,658.99L138.68,663.08L141.63,660.35L144.58,660.35L147.54,658.65L150.49,660.01L153.44,656.94L156.39,660.35L159.34,661.71L162.29,652.85L165.24,650.12L168.19,654.56L171.14,648.76L174.09,655.24L177.04,654.21L179.99,656.94L182.94,654.56L185.89,654.9L188.85,649.1L194.75,651.15L197.7,659.33L200.65,648.08L203.6,647.4L206.55,652.17L209.5,638.19L212.45,654.21L215.4,648.76L218.35,653.87L221.3,638.87L224.25,646.71L227.2,644.33L230.15,651.15L233.11,646.03L236.06,647.4L239.01,655.58L241.96,655.58L244.91,648.42L247.86,653.87L250.81,656.26L253.76,658.3L256.71,656.26L259.66,659.67L262.61,659.67L265.56,662.4L268.51,652.85L271.46,656.94L274.42,657.96L280.32,658.99L283.27,657.62L286.22,660.35L289.17,656.6L292.12,655.92L295.07,653.53L298.02,661.71L300.97,661.03L303.92,664.1L306.87,661.71L309.82,661.03L312.77,652.17L315.73,662.4L318.68,655.58L321.63,661.03L324.58,659.33L327.53,662.74L330.48,663.76L336.38,663.76L339.33,664.44L342.28,663.42L345.23,664.78L351.13,663.42L354.08,666.49L357.04,663.76L359.99,656.94L362.94,663.76L365.89,666.49L368.84,664.1L371.79,663.42L374.74,664.1L377.69,666.49L380.64,664.78L383.59,665.46L389.49,665.12L392.44,666.15L398.35,666.83L401.3,665.8L407.2,667.51L410.15,666.83L413.1,664.44L416.05,666.49L419,665.12L421.95,665.46L424.9,666.49L427.85,666.49L430.8,667.17L433.75,664.44L436.7,665.8L439.65,664.44L442.61,666.83L445.56,666.49L451.46,667.17L454.41,666.83L457.36,667.51L460.31,666.49L463.26,667.17L466.21,666.15L469.16,667.17L472.11,666.15L475.06,667.17L478.01,666.49L486.87,667.17L489.82,667.51L492.77,666.15L495.72,667.51L507.52,666.83L510.47,667.51L531.13,667.51L534.08,666.15L537.03,667.85L539.98,667.17L542.93,666.49L545.88,667.17L551.78,667.17L554.73,666.83L560.63,667.17L563.58,665.46L566.54,667.51L569.49,667.17L587.19,667.51L590.14,666.83L596.04,667.51L598.99,667.51L601.94,667.17L604.89,667.85L610.8,667.17L613.75,667.17L616.7,666.15L619.65,666.83L622.6,666.49L625.55,667.51L640.3,666.49L643.25,667.17L655.06,667.17L658.01,666.15L663.91,666.49L666.86,641.6L672.76,665.12L675.71,665.8L678.66,665.12L681.61,667.17L687.51,665.8L690.46,665.12L693.42,667.17L696.37,666.49L699.32,664.44L702.27,667.51L708.17,664.44L711.12,664.1L714.07,665.8L717.02,666.15L719.97,666.49L722.92,664.44L728.82,664.44L731.77,665.46L737.68,665.46L740.63,666.15L743.58,665.8L746.53,664.1L758.33,665.12L761.28,662.74L764.23,662.05L767.18,663.08L770.13,662.74L773.08,663.76L776.04,663.08L778.99,663.42L781.94,662.4L784.89,662.4L790.79,661.03L793.74,660.69L796.69,657.62L799.64,664.1L802.59,663.42L805.54,656.6L808.49,657.96L811.44,664.78L814.39,660.35L817.35,662.74L820.3,661.03L823.25,662.74L826.2,655.58L829.15,660.35L832.1,660.69L835.05,657.62L838,659.33" style="vector-effect: non-scaling-stroke; fill: none; stroke: rgb(44, 160, 44); stroke-opacity: 1; stroke-width: 2px; opacity: 1;"/></g><g class="points"/><g class="text"/></g></g></g><g class="overplot"/><path class="xlines-above crisp" style="fill: none;" d="M0,0"/><path class="ylines-above crisp" style="fill: none;" d="M0,0"/><g class="overlines-above"/><g class="xaxislayer-above"><g class="xtick"><text text-anchor="middle" x="0" y="741" transform="translate(95.41,0)" style="font-family: 'Open Sans', verdana, arial, sans-serif; font-size: 12px; fill: rgb(68, 68, 68); fill-opacity: 1; white-space: pre;">Mar 2020</text></g><g class="xtick"><text text-anchor="middle" x="0" y="741" transform="translate(186.88,0)" style="font-family: 'Open Sans', verdana, arial, sans-serif; font-size: 12px; fill: rgb(68, 68, 68); fill-opacity: 1; white-space: pre;">Apr 2020</text></g><g class="xtick"><text text-anchor="middle" x="0" y="741" transform="translate(275.4,0)" style="font-family: 'Open Sans', verdana, arial, sans-serif; font-size: 12px; fill: rgb(68, 68, 68); fill-opacity: 1; white-space: pre;">May 2020</text></g><g class="xtick"><text text-anchor="middle" x="0" y="741" transform="translate(366.87,0)" style="font-family: 'Open Sans', verdana, arial, sans-serif; font-size: 12px; fill: rgb(68, 68, 68); fill-opacity: 1; white-space: pre;">Jun 2020</text></g><g class="xtick"><text text-anchor="middle" x="0" y="741" transform="translate(455.39,0)" style="font-family: 'Open Sans', verdana, arial, sans-serif; font-size: 12px; fill: rgb(68, 68, 68); fill-opacity: 1; white-space: pre;">Jul 2020</text></g><g class="xtick"><text text-anchor="middle" x="0" y="741" transform="translate(546.87,0)" style="font-family: 'Open Sans', verdana, arial, sans-serif; font-size: 12px; fill: rgb(68, 68, 68); fill-opacity: 1; white-space: pre;">Aug 2020</text></g><g class="xtick"><text text-anchor="middle" x="0" y="741" transform="translate(638.34,0)" style="font-family: 'Open Sans', verdana, arial, sans-serif; font-size: 12px; fill: rgb(68, 68, 68); fill-opacity: 1; white-space: pre;">Sep 2020</text></g><g class="xtick"><text text-anchor="middle" x="0" y="741" transform="translate(726.86,0)" style="font-family: 'Open Sans', verdana, arial, sans-serif; font-size: 12px; fill: rgb(68, 68, 68); fill-opacity: 1; white-space: pre;">Oct 2020</text></g><g class="xtick"><text text-anchor="middle" x="0" y="741" transform="translate(818.33,0)" style="font-family: 'Open Sans', verdana, arial, sans-serif; font-size: 12px; fill: rgb(68, 68, 68); fill-opacity: 1; white-space: pre;">Nov 2020</text></g></g><g class="yaxislayer-above"><g class="ytick"><text text-anchor="end" x="59" y="4.199999999999999" transform="translate(0,692.51)" style="font-family: 'Open Sans', verdana, arial, sans-serif; font-size: 12px; fill: rgb(68, 68, 68); fill-opacity: 1; white-space: pre;">0</text></g><g class="ytick"><text text-anchor="end" x="59" y="4.199999999999999" transform="translate(0,522.06)" style="font-family: 'Open Sans', verdana, arial, sans-serif; font-size: 12px; fill: rgb(68, 68, 68); fill-opacity: 1; white-space: pre;">500</text></g><g class="ytick"><text text-anchor="end" x="59" y="4.199999999999999" transform="translate(0,351.61)" style="font-family: 'Open Sans', verdana, arial, sans-serif; font-size: 12px; fill: rgb(68, 68, 68); fill-opacity: 1; white-space: pre;">1000</text></g><g class="ytick"><text text-anchor="end" x="59" y="4.199999999999999" transform="translate(0,181.17)" style="font-family: 'Open Sans', verdana, arial, sans-serif; font-size: 12px; fill: rgb(68, 68, 68); fill-opacity: 1; white-space: pre;">1500</text></g></g><g class="overaxes-above"/></g></g><g class="polarlayer"/><g class="ternarylayer"/><g class="geolayer"/><g class="funnelarealayer"/><g class="pielayer"/><g class="treemaplayer"/><g class="sunburstlayer"/><g class="glimages"/><defs id="topdefs-b00346"><g class="clips"/><clipPath id="legendb00346"><rect width="102" height="67" x="0" y="0"/></clipPath></defs><g class="layer-above"><g class="imagelayer"/><g class="shapelayer"/></g><g class="infolayer"><g class="legend" pointer-events="all" transform="translate(914.76, 25)"><rect class="bg" shape-rendering="crispEdges" style="stroke: rgb(68, 68, 68); stroke-opacity: 1; fill: rgb(255, 255, 255); fill-opacity: 1; stroke-width: 0px;" width="102" height="67" x="0" y="0"/><g class="scrollbox" transform="translate(0, 0)" clip-path="url('#legendb00346')"><g class="groups"><g class="traces" style="opacity: 1;" transform="translate(0, 14.5)"><text class="legendtext user-select-none" text-anchor="start" x="40" y="4.680000000000001" style="font-family: 'Open Sans', verdana, arial, sans-serif; font-size: 12px; fill: rgb(68, 68, 68); fill-opacity: 1; white-space: pre;">positive</text><g class="layers" style="opacity: 1;"><g class="legendfill"/><g class="legendlines"><path class="js-line" d="M5,0h30" style="fill: none; stroke: rgb(31, 119, 180); stroke-opacity: 1; stroke-width: 2px;"/></g><g class="legendsymbols"><g class="legendpoints"/></g></g><rect class="legendtoggle" pointer-events="all" x="0" y="-9.5" width="96.109375" height="19" style="cursor: pointer; fill: rgb(0, 0, 0); fill-opacity: 0;"/></g><g class="traces" style="opacity: 1;" transform="translate(0, 33.5)"><text class="legendtext user-select-none" text-anchor="start" x="40" y="4.680000000000001" style="font-family: 'Open Sans', verdana, arial, sans-serif; font-size: 12px; fill: rgb(68, 68, 68); fill-opacity: 1; white-space: pre;">resolved</text><g class="layers" style="opacity: 1;"><g class="legendfill"/><g class="legendlines"><path class="js-line" d="M5,0h30" style="fill: none; stroke: rgb(255, 127, 14); stroke-opacity: 1; stroke-width: 2px;"/></g><g class="legendsymbols"><g class="legendpoints"/></g></g><rect class="legendtoggle" pointer-events="all" x="0" y="-9.5" width="96.109375" height="19" style="cursor: pointer; fill: rgb(0, 0, 0); fill-opacity: 0;"/></g><g class="traces" style="opacity: 1;" transform="translate(0, 52.5)"><text class="legendtext user-select-none" text-anchor="start" x="40" y="4.680000000000001" style="font-family: 'Open Sans', verdana, arial, sans-serif; font-size: 12px; fill: rgb(68, 68, 68); fill-opacity: 1; white-space: pre;">deceased</text><g class="layers" style="opacity: 1;"><g class="legendfill"/><g class="legendlines"><path class="js-line" d="M5,0h30" style="fill: none; stroke: rgb(44, 160, 44); stroke-opacity: 1; stroke-width: 2px;"/></g><g class="legendsymbols"><g class="legendpoints"/></g></g><rect class="legendtoggle" pointer-events="all" x="0" y="-9.5" width="96.109375" height="19" style="cursor: pointer; fill: rgb(0, 0, 0); fill-opacity: 0;"/></g></g></g><rect class="scrollbar" rx="20" ry="3" width="0" height="0" style="fill: rgb(128, 139, 164); fill-opacity: 1;" x="0" y="0"/></g><g class="g-gtitle"><text class="gtitle" x="513.5" y="12.5" text-anchor="middle" dy="0em" style="font-family: 'Open Sans', verdana, arial, sans-serif; font-size: 17px; fill: rgb(68, 68, 68); opacity: 1; font-weight: normal; white-space: pre;">Dynamics of new cases, resolved cases and deaths in Ontario (Nov 29, 2020)</text></g><g class="g-xtitle" transform="translate(0,-15)"><text class="xtitle" x="479" y="780" text-anchor="middle" style="font-family: 'Open Sans', verdana, arial, sans-serif; font-size: 14px; fill: rgb(68, 68, 68); opacity: 1; font-weight: normal; white-space: pre;">Date</text></g><g class="g-ytitle"><text class="ytitle" transform="rotate(-90,22,376.5)" x="22" y="376.5" text-anchor="middle" style="font-family: 'Open Sans', verdana, arial, sans-serif; font-size: 14px; fill: rgb(68, 68, 68); opacity: 1; font-weight: normal; white-space: pre;">Number of cases</text></g></g></svg>