<svg class="main-svg" xmlns="http://www.w3.org/2000/svg" xmlns:xlink="http://www.w3.org/1999/xlink" width="1027" height="768" style="" viewBox="0 0 1027 768"><rect x="0" y="0" width="1027" height="768" style="fill: rgb(255, 255, 255); fill-opacity: 1;"/><defs id="defs-b811cc"><g class="clips"><clipPath id="clipb811ccxyplot" class="plotclip"><rect width="838" height="703"/></clipPath><clipPath class="axesclip" id="clipb811ccx"><rect x="60" y="0" width="838" height="768"/></clipPath><clipPath class="axesclip" id="clipb811ccy"><rect x="0" y="25" width="1027" height="703"/></clipPath><clipPath class="axesclip" id="clipb811ccxy"><rect x="60" y="25" width="838" height="703"/></clipPath></g><g class="gradients"/></defs><g class="bglayer"/><g class="layer-below"><g class="imagelayer"/><g class="shapelayer"/></g><g class="cartesianlayer"><g class="subplot xy"><g class="layer-subplot"><g class="shapelayer"/><g class="imagelayer"/></g><g class="gridlayer"><g class="x"><path class="xgrid crisp" transform="translate(83.66,0)" d="M0,25v703" style="stroke: rgb(238, 238, 238); stroke-opacity: 1; stroke-width: 1px;"/><path class="xgrid crisp" transform="translate(203.94,0)" d="M0,25v703" style="stroke: rgb(238, 238, 238); stroke-opacity: 1; stroke-width: 1px;"/><path class="xgrid crisp" transform="translate(324.22,0)" d="M0,25v703" style="stroke: rgb(238, 238, 238); stroke-opacity: 1; stroke-width: 1px;"/><path class="xgrid crisp" transform="translate(446.47,0)" d="M0,25v703" style="stroke: rgb(238, 238, 238); stroke-opacity: 1; stroke-width: 1px;"/><path class="xgrid crisp" transform="translate(566.74,0)" d="M0,25v703" style="stroke: rgb(238, 238, 238); stroke-opacity: 1; stroke-width: 1px;"/><path class="xgrid crisp" transform="translate(687.02,0)" d="M0,25v703" style="stroke: rgb(238, 238, 238); stroke-opacity: 1; stroke-width: 1px;"/><path class="xgrid crisp" transform="translate(803.36,0)" d="M0,25v703" style="stroke: rgb(238, 238, 238); stroke-opacity: 1; stroke-width: 1px;"/></g><g class="y"><path class="ygrid crisp" transform="translate(0,561.26)" d="M60,0h838" style="stroke: rgb(238, 238, 238); stroke-opacity: 1; stroke-width: 1px;"/><path class="ygrid crisp" transform="translate(0,429.81)" d="M60,0h838" style="stroke: rgb(238, 238, 238); stroke-opacity: 1; stroke-width: 1px;"/><path class="ygrid crisp" transform="translate(0,298.35)" d="M60,0h838" style="stroke: rgb(238, 238, 238); stroke-opacity: 1; stroke-width: 1px;"/><path class="ygrid crisp" transform="translate(0,166.89)" d="M60,0h838" style="stroke: rgb(238, 238, 238); stroke-opacity: 1; stroke-width: 1px;"/><path class="ygrid crisp" transform="translate(0,35.44)" d="M60,0h838" style="stroke: rgb(238, 238, 238); stroke-opacity: 1; stroke-width: 1px;"/></g></g><g class="zerolinelayer"><path class="yzl zl crisp" transform="translate(0,692.72)" d="M60,0h838" style="stroke: rgb(68, 68, 68); stroke-opacity: 1; stroke-width: 1px;"/></g><path class="xlines-below"/><path class="ylines-below"/><g class="overlines-below"/><g class="xaxislayer-below"/><g class="yaxislayer-below"/><g class="overaxes-below"/><g class="plot" transform="translate(60, 25)" clip-path="url('#clipb811ccxyplot')"><g class="scatterlayer mlayer"><g class="trace scatter trace72f2d3" style="stroke-miterlimit: 2; opacity: 1;"><g class="fills"/><g class="errorbars"/><g class="lines"><path class="js-line" d="M0,667.72L19.72,667.59L25.63,666.14L27.6,667.46L29.58,667.72L39.44,666.8L41.41,667.72L49.29,664.56L51.27,662.2L53.24,663.51L55.21,666.27L61.12,659.83L63.1,660.23L65.07,661.93L67.04,657.6L70.98,655.23L72.96,645.63L74.93,650.37L76.9,648L78.87,590.29L80.84,633.54L82.81,611.72L84.79,615L86.76,606.99L88.73,618.42L90.7,614.08L92.67,627.1L94.64,617.9L96.62,595.42L98.59,604.23L100.56,604.88L102.53,613.69L104.5,615L106.48,612.38L108.45,604.23L110.42,602.78L112.39,600.15L114.36,593.58L116.33,603.96L118.31,593.05L120.28,588.06L124.22,600.68L126.19,584.38L128.16,583.59L130.14,605.15L132.11,610.27L134.08,611.98L136.05,598.7L138.02,622.1L140,607.38L141.97,612.38L143.94,600.54L145.91,610.67L147.88,619.08L149.85,616.84L151.83,613.56L153.8,615.27L155.77,605.01L157.74,622.23L159.71,629.07L161.68,627.23L163.66,620.26L165.63,624.47L167.6,622.37L169.57,622.89L171.54,616.32L173.52,623.02L175.49,627.76L177.46,611.59L179.43,616.45L181.4,613.43L183.37,609.75L185.35,613.56L187.32,607.25L189.29,614.61L191.26,629.99L193.23,629.33L195.2,617.37L197.18,622.5L199.15,625.26L201.12,624.86L203.09,614.61L205.06,609.09L207.04,623.29L209.01,620.92L210.98,622.5L212.95,607.91L214.92,613.16L216.89,635.77L218.87,637.48L220.84,634.72L222.81,641.03L224.78,643.79L226.75,632.75L228.72,641.82L230.7,643.92L232.67,643.53L234.64,642.74L236.61,644.98L238.58,644.32L240.56,640.64L242.53,644.71L244.5,646.55L246.47,639.32L248.44,646.29L250.41,642.87L252.39,653.13L254.36,646.69L256.33,644.32L258.3,633.93L260.27,647.08L262.24,648.13L264.22,647.61L266.19,646.03L268.16,651.81L272.1,647.47L274.08,653L276.05,652.21L278.02,645.37L279.99,652.47L281.96,650.63L283.93,650.76L285.91,652.47L289.85,654.31L291.82,653.13L293.79,653.13L295.76,645.9L297.74,646.16L299.71,649.97L301.68,641.03L303.65,646.03L305.62,654.18L307.6,642.08L309.57,649.58L311.54,649.71L313.51,652.08L315.48,653.13L317.45,657.73L319.43,656.02L321.4,650.1L323.37,651.42L325.34,652.47L327.31,656.15L329.28,655.76L331.26,656.41L333.23,655.23L335.2,656.15L337.17,658.52L339.14,657.33L341.12,652.6L343.09,663.38L345.06,655.23L347.03,657.46L350.97,653.78L352.95,657.07L356.89,651.29L358.86,654.31L360.83,657.73L362.8,650.5L364.78,653.52L366.75,652.6L372.66,656.15L374.64,652.21L376.61,651.68L378.58,648.26L380.55,653L382.52,652.73L384.49,653L386.47,650.23L388.44,650.37L390.41,648.26L392.38,645.5L394.35,646.95L396.32,642.74L398.3,643.4L400.27,648.13L402.24,645.37L404.21,639.72L406.18,637.22L408.16,640.9L410.13,626.57L412.1,634.72L414.07,626.31L416.04,629.2L418.01,615L419.99,614.22L421.96,619.74L425.9,604.88L427.87,623.68L429.84,613.95L431.82,613.95L433.79,610.53L435.76,603.17L437.73,575.7L439.7,594.89L441.68,585.56L443.65,596.99L445.62,571.49L447.59,581.88L449.56,593.31L451.53,586.87L453.51,595.68L455.48,591.08L459.42,544.28L461.39,561.37L463.36,582.4L465.34,561.63L467.31,569.65L469.28,572.94L471.25,564.79L473.22,574.12L475.2,561.9L477.17,581.22L479.14,575.17L481.11,559.79L483.08,563.87L485.05,557.16L487.03,559.14L489,539.15L490.97,530.74L492.94,555.85L494.91,559L496.88,558.08L498.86,544.94L500.83,549.93L502.8,534.29L504.77,539.29L506.74,543.1L508.72,529.69L510.69,537.97L512.66,536.52L514.63,535.87L516.6,518.91L518.57,493.14L520.55,504.45L522.52,485.26L524.49,480.26L526.46,460.67L528.43,484.21L530.4,459.89L532.38,503.66L534.35,472.24L536.32,503.53L538.29,481.44L540.26,508.66L544.21,458.97L546.18,466.06L548.15,458.83L550.12,535.08L552.09,487.23L554.07,473.43L556.04,423.87L558.01,428.2L559.98,443.19L561.95,438.2L563.92,443.32L565.9,441.22L567.87,427.94L569.84,433.73L573.78,414.8L575.76,414.66L577.73,447.4L579.7,419.27L581.67,407.04L583.64,424.79L585.61,421.5L587.59,447.27L591.53,368.66L593.5,386.53L595.47,348.02L597.44,366.68L599.42,357.88L601.39,363.27L603.36,388.64L605.33,378.25L607.3,351.17L609.28,346.04L611.25,383.9L613.22,386.14L615.19,404.15L617.16,412.82L619.13,332.11L621.11,283.47L623.08,230.23L625.05,342.23L627.02,225.63L628.99,278.08L630.96,237.86L632.94,256.52L634.91,238.38L636.88,205.12L638.85,109.16L640.82,215.11L642.8,149.12L644.77,228.92L646.74,286.1L648.71,278.48L650.68,230.49L652.65,273.61L654.63,265.99L656.6,217.87L660.54,416.24L662.51,318.7L664.48,321.73L666.46,317.78L668.43,357.61L670.4,349.99L672.37,410.33L674.34,438.98L676.32,448.19L678.29,392.58L680.26,426.23L682.23,396.52L684.2,424.79L686.17,408.88L688.15,569.78L690.12,513.65L692.09,462.25L694.06,448.19L696.03,485.26L698,471.98L701.95,533.37L703.92,526.8L705.89,543.49L707.86,526.27L709.84,496.83L711.81,538.76L713.78,540.99L715.75,548.88L717.72,556.37L719.69,531.27L723.64,506.29L725.61,524.83L727.58,528.64L729.55,539.55L733.5,518.12L735.47,502.35L737.44,511.94L739.41,528.11L741.38,533.24L743.36,540.73L745.33,541.78L747.3,537.05L749.27,503.4L751.24,537.58L755.19,453.31L757.16,511.94L759.13,494.72L761.1,524.17L763.07,487.49L765.04,474.74L767.02,438.06L768.99,501.03L770.96,526.53L772.93,469.48L774.9,463.57L776.88,438.33L778.85,427.28L780.82,432.28L782.79,444.37L784.76,464.49L786.73,461.2L788.71,354.85L790.68,382.59L792.65,345.26L794.62,345.91L796.59,392.45L798.56,360.64L800.54,361.03L802.51,331.58L804.48,261.65L806.45,272.17L808.42,267.96L810.4,281.5L812.37,264.8L814.34,245.09L816.31,234.57L818.28,112.05L820.25,166.48L822.23,81.95L824.2,89.18L826.17,185.27L828.14,121.39L830.11,45.14L832.08,35.15L834.06,94.31L836.03,109.03L838,83.13" style="vector-effect: non-scaling-stroke; fill: none; stroke: rgb(31, 119, 180); stroke-opacity: 1; stroke-width: 2px; opacity: 1;"/></g><g class="points"/><g class="text"/></g><g class="trace scatter trace3d1c7c" style="stroke-miterlimit: 2; opacity: 1;"><g class="fills"/><g class="errorbars"/><g class="lines"><path class="js-line" d="M0,667.72L76.9,667.72L78.87,612.11L80.84,654.18L82.81,647.34L84.79,649.05L86.76,642.48L88.73,641.95L90.7,637.48L92.67,644.71L94.64,644.32L96.62,631.96L98.59,637.35L100.56,632.36L102.53,630.38L108.45,639.98L110.42,623.81L112.39,629.33L114.36,620.13L116.33,625.78L118.31,623.81L120.28,627.49L122.25,629.46L124.22,613.16L126.19,607.38L128.16,614.22L130.14,612.24L132.11,603.17L134.08,598.7L136.05,610.01L138.02,582.53L140,589.76L141.97,586.22L143.94,593.45L145.91,586.87L147.88,601.99L149.85,631.7L151.83,609.48L153.8,622.1L155.77,612.38L157.74,616.06L159.71,616.58L161.68,620.53L163.66,633.54L165.63,608.04L167.6,620.53L169.57,610.27L175.49,631.17L177.46,633.54L181.4,625.78L183.37,633.8L185.35,617.9L187.32,624.21L189.29,638.67L191.26,633.54L193.23,613.3L195.2,628.15L197.18,626.97L199.15,619.08L201.12,607.64L203.09,622.63L205.06,624.21L207.04,624.73L209.01,615.53L210.98,618.42L212.95,619.87L214.92,627.62L216.89,636.17L218.87,623.42L220.84,595.29L222.81,601.33L224.78,628.02L226.75,621.58L228.72,612.11L230.7,634.59L232.67,639.06L234.64,621.31L236.61,638.8L238.58,635.38L240.56,639.06L242.53,634.72L246.47,644.85L248.44,637.62L250.41,642.48L252.39,638.01L254.36,644.32L256.33,644.71L258.3,656.02L260.27,648.26L264.22,640.9L266.19,644.19L268.16,644.85L270.13,643.66L272.1,646.69L274.08,644.45L276.05,641.16L278.02,645.11L279.99,644.32L281.96,632.62L283.93,653L285.91,650.76L287.88,651.68L289.85,649.97L291.82,649.18L293.79,654.44L295.76,650.37L297.74,652.86L299.71,653.78L301.68,655.62L303.65,640.51L305.62,647.87L307.6,649.71L309.57,649.31L313.51,654.31L315.48,653.78L317.45,644.85L319.43,646.03L321.4,645.63L323.37,646.29L325.34,651.68L327.31,651.16L329.28,652.47L331.26,648.53L333.23,646.82L335.2,652.21L337.17,653.65L339.14,648.26L341.12,654.31L343.09,657.86L345.06,650.1L347.03,654.7L349,656.81L350.97,654.44L352.95,657.2L354.92,656.81L356.89,655.89L358.86,656.02L360.83,657.73L362.8,653.78L364.78,655.89L366.75,653.52L368.72,657.46L370.69,657.86L372.66,652.6L374.64,657.6L376.61,656.81L378.58,654.18L380.55,657.46L382.52,658.12L384.49,655.62L386.47,649.71L388.44,652.08L390.41,652.47L392.38,653.78L394.35,653.13L396.32,652.08L398.3,652.08L400.27,649.84L402.24,649.05L404.21,651.42L406.18,652.08L410.13,650.23L412.1,652.34L416.04,644.19L418.01,644.58L419.99,644.45L421.96,642.61L423.93,644.32L425.9,641.95L427.87,633.8L429.84,630.12L431.82,630.52L433.79,623.29L435.76,629.73L437.73,624.21L439.7,625.26L441.68,607.64L443.65,600.02L445.62,611.46L447.59,610.53L449.56,597.52L453.51,595.94L455.48,574.78L457.45,576.36L459.42,572.54L461.39,575.7L463.36,575.04L467.31,585.69L469.28,564.79L471.25,565.31L473.22,573.99L475.2,578.07L477.17,577.67L479.14,587.92L481.11,585.16L483.08,573.2L485.05,570.31L487.03,571.36L489,585.56L490.97,570.97L492.94,578.46L494.91,576.88L496.88,566.1L498.86,559.92L500.83,563.08L502.8,562.82L504.77,554.14L506.74,559.14L508.72,557.69L510.69,543.49L512.66,543.1L514.63,542.97L516.6,555.72L518.57,552.43L520.55,559.79L522.52,565.05L524.49,551.25L526.46,547.17L528.43,533.9L530.4,535.87L532.38,528.11L534.35,537.31L536.32,518.52L538.29,471.19L540.26,486.83L542.24,481.71L544.21,488.54L548.15,472.64L550.12,525.48L552.09,473.69L554.07,488.28L558.01,469.22L559.98,478.03L561.95,494.2L563.92,487.23L565.9,446.08L567.87,465.14L569.84,463.57L571.81,454.23L573.78,460.81L575.76,482.1L577.73,464.09L579.7,414.8L581.67,430.57L583.64,437.28L585.61,415.59L587.59,447.13L589.56,465.93L591.53,429.78L593.5,399.15L595.47,403.62L597.44,405.86L599.42,422.55L601.39,413.88L603.36,450.29L605.33,417.95L607.3,372.86L609.28,403.1L611.25,373.65L613.22,416.24L615.19,404.15L617.16,384.96L619.13,374.18L621.11,373.65L623.08,376.81L625.05,344.34L627.02,397.71L628.99,381.8L630.96,395.08L632.94,402.83L634.91,272.69L636.88,302.8L638.85,307.79L640.82,284.52L642.8,339.6L644.77,305.42L646.74,226.94L648.71,221.82L650.68,195.4L654.63,245.48L656.6,263.1L658.57,296.22L660.54,290.04L662.51,179.49L664.48,274.66L666.46,224.05L668.43,270.06L674.34,370.5L676.32,309.5L678.29,340.26L680.26,286.49L686.17,387.45L688.15,365.76L690.12,438.33L692.09,410.59L694.06,374.18L696.03,431.62L698,413.09L699.98,444.24L701.95,485.26L703.92,443.06L705.89,491.04L707.86,481.71L709.84,479.21L711.81,505.37L715.75,521.54L717.72,476.32L719.69,499.85L721.67,502.74L723.64,495.12L725.61,517.86L727.58,525.35L729.55,536L731.52,498.01L733.5,523.91L735.47,535.34L737.44,538.37L739.41,532.45L741.38,544.28L743.36,539.02L745.33,524.43L747.3,526.8L749.27,515.36L751.24,516.28L753.21,522.46L755.19,537.05L757.16,539.94L759.13,508.39L761.1,521.8L763.07,519.96L765.04,516.41L767.02,514.31L768.99,521.28L770.96,525.09L772.93,472.11L774.9,505.24L776.88,497.35L778.85,501.95L780.82,489.86L782.79,513.26L784.76,500.64L786.73,466.46L788.71,493.01L790.68,447.53L792.65,473.03L794.62,464.88L796.59,467.38L798.56,473.56L800.54,408.35L802.51,429.26L804.48,414.66L806.45,428.6L808.42,418.08L810.4,436.22L812.37,407.96L814.34,351.3L816.31,329.09L818.28,320.54L820.25,349.33L822.23,323.7L824.2,346.31L826.17,329.48L828.14,252.32L830.11,250.48L832.08,253.5L834.06,193.03L836.03,228.92L838,253.24" style="vector-effect: non-scaling-stroke; fill: none; stroke: rgb(255, 127, 14); stroke-opacity: 1; stroke-width: 2px; opacity: 1;"/></g><g class="points"/><g class="text"/></g><g class="trace scatter trace397e38" style="stroke-miterlimit: 2; opacity: 1;"><g class="fills"/><g class="errorbars"/><g class="lines"><path class="js-line" d="M0,667.72L78.87,667.19L80.84,666.4L82.81,667.19L84.79,665.62L86.76,665.88L88.73,664.17L90.7,664.43L92.67,666.01L94.64,664.96L96.62,664.96L98.59,664.3L100.56,664.83L102.53,663.64L104.5,664.96L106.48,665.48L108.45,662.07L110.42,661.01L112.39,662.72L114.36,660.49L116.33,662.99L118.31,662.59L120.28,663.64L122.25,662.72L124.22,662.85L126.19,660.62L128.16,661.15L130.14,661.41L132.11,664.56L134.08,660.23L136.05,659.96L138.02,661.8L140,656.41L141.97,662.59L143.94,660.49L145.91,662.46L147.88,656.68L149.85,659.7L151.83,658.78L153.8,661.41L155.77,659.44L157.74,659.96L159.71,663.12L161.68,663.12L163.66,660.36L165.63,662.46L167.6,663.38L169.57,664.17L171.54,663.38L173.52,664.7L175.49,664.7L177.46,665.75L179.43,662.07L181.4,663.64L183.37,664.04L189.29,663.91L191.26,664.96L193.23,663.51L195.2,663.25L197.18,662.33L199.15,665.48L201.12,665.22L203.09,666.4L207.04,665.22L209.01,661.8L210.98,665.75L212.95,663.12L214.92,665.22L216.89,664.56L218.87,665.88L220.84,666.27L228.72,666.14L230.7,666.67L234.64,666.14L236.61,667.32L238.58,666.27L240.56,663.64L242.53,666.27L244.5,667.32L248.44,666.14L250.41,666.4L252.39,667.32L254.36,666.67L262.24,667.19L264.22,667.19L272.1,667.72L274.08,667.46L276.05,666.54L278.02,667.32L281.96,666.93L283.93,667.32L287.88,667.59L289.85,666.54L291.82,667.06L293.79,666.54L295.76,667.46L297.74,667.32L305.62,667.72L307.6,667.32L313.51,667.59L315.48,667.19L319.43,667.32L321.4,667.32L335.2,667.72L337.17,667.59L345.06,667.59L347.03,667.72L356.89,667.19L358.86,667.85L364.78,667.59L366.75,667.72L376.61,666.93L378.58,667.72L388.44,667.72L390.41,667.85L402.24,667.59L404.21,667.85L412.1,667.19L414.07,667.46L425.9,667.32L427.87,667.32L433.79,667.72L435.76,667.46L443.65,667.32L445.62,657.73L449.56,666.8L451.53,667.06L453.51,666.8L455.48,667.59L461.39,666.8L463.36,667.59L467.31,666.54L469.28,667.72L475.2,666.4L477.17,667.06L481.11,667.32L483.08,666.54L496.88,667.06L498.86,666.4L506.74,666.8L508.72,665.88L512.66,666.01L514.63,665.88L518.57,666.01L520.55,666.14L528.43,665.22L530.4,665.09L532.38,663.91L534.35,666.4L536.32,666.14L538.29,663.51L540.26,664.04L542.24,666.67L544.21,664.96L546.18,665.88L548.15,665.22L550.12,665.88L552.09,663.12L554.07,664.96L556.04,665.09L558.01,663.91L559.98,664.56L561.95,666.67L563.92,666.8L565.9,663.12L567.87,665.88L569.84,664.43L573.78,665.75L575.76,664.3L577.73,666.4L579.7,664.04L583.64,661.8L585.61,665.48L587.59,665.62L589.56,664.7L591.53,665.09L593.5,662.07L595.47,664.7L597.44,662.46L599.42,664.17L601.39,664.43L603.36,665.48L605.33,664.96L607.3,662.33L609.28,661.28L613.22,662.72L615.19,665.35L617.16,662.85L619.13,662.33L621.11,665.22L623.08,660.36L627.02,661.93L628.99,664.43L630.96,663.91L632.94,661.01L634.91,662.85L636.88,656.02L638.85,664.3L640.82,662.46L642.8,659.7L644.77,663.91L646.74,662.33L648.71,657.99L650.68,659.57L652.65,654.57L654.63,661.01L656.6,658.65L658.57,664.56L660.54,661.67L662.51,656.02L664.48,661.67L666.46,656.28L668.43,660.88L672.37,662.07L674.34,659.44L676.32,661.28L678.29,660.36L680.26,660.09L682.23,658.12L684.2,662.07L686.17,662.99L688.15,665.88L690.12,658.91L692.09,656.15L694.06,661.8L696.03,661.8L698,664.83L699.98,663.38L701.95,665.48L703.92,662.33L705.89,665.35L709.84,665.22L711.81,662.2L713.78,666.01L715.75,666.01L717.72,666.4L719.69,661.93L721.67,661.54L723.64,664.04L725.61,666.01L727.58,666.27L731.52,666.54L733.5,664.7L735.47,664.04L737.44,665.62L739.41,665.09L741.38,666.93L745.33,665.48L747.3,666.4L749.27,664.83L751.24,666.93L753.21,665.75L755.19,666.4L757.16,666.93L759.13,665.62L761.1,666.4L763.07,665.35L765.04,666.27L767.02,665.75L768.99,666.54L770.96,666.27L774.9,665.75L776.88,666.4L778.85,666.27L780.82,665.35L782.79,667.32L784.76,666.54L786.73,666.4L788.71,665.48L790.68,666.14L792.65,665.62L794.62,665.22L796.59,666.4L804.48,664.7L806.45,665.62L812.37,666.67L814.34,665.48L822.23,664.96L824.2,665.75L826.17,665.75L828.14,664.04L832.08,664.43L834.06,663.25L836.03,665.35L838,665.22" style="vector-effect: non-scaling-stroke; fill: none; stroke: rgb(44, 160, 44); stroke-opacity: 1; stroke-width: 2px; opacity: 1;"/></g><g class="points"/><g class="text"/></g></g></g><g class="overplot"/><path class="xlines-above crisp" style="fill: none;" d="M0,0"/><path class="ylines-above crisp" style="fill: none;" d="M0,0"/><g class="overlines-above"/><g class="xaxislayer-above"><g class="xtick"><text text-anchor="middle" x="0" y="741" transform="translate(83.66,0)" style="font-family: 'Open Sans', verdana, arial, sans-serif; font-size: 12px; fill: rgb(68, 68, 68); fill-opacity: 1; white-space: pre;">Mar 2020</text></g><g class="xtick"><text text-anchor="middle" x="0" y="741" transform="translate(203.94,0)" style="font-family: 'Open Sans', verdana, arial, sans-serif; font-size: 12px; fill: rgb(68, 68, 68); fill-opacity: 1; white-space: pre;">May 2020</text></g><g class="xtick"><text text-anchor="middle" x="0" y="741" transform="translate(324.22,0)" style="font-family: 'Open Sans', verdana, arial, sans-serif; font-size: 12px; fill: rgb(68, 68, 68); fill-opacity: 1; white-space: pre;">Jul 2020</text></g><g class="xtick"><text text-anchor="middle" x="0" y="741" transform="translate(446.47,0)" style="font-family: 'Open Sans', verdana, arial, sans-serif; font-size: 12px; fill: rgb(68, 68, 68); fill-opacity: 1; white-space: pre;">Sep 2020</text></g><g class="xtick"><text text-anchor="middle" x="0" y="741" transform="translate(566.74,0)" style="font-family: 'Open Sans', verdana, arial, sans-serif; font-size: 12px; fill: rgb(68, 68, 68); fill-opacity: 1; white-space: pre;">Nov 2020</text></g><g class="xtick"><text text-anchor="middle" x="0" y="741" transform="translate(687.02,0)" style="font-family: 'Open Sans', verdana, arial, sans-serif; font-size: 12px; fill: rgb(68, 68, 68); fill-opacity: 1; white-space: pre;">Jan 2021</text></g><g class="xtick"><text text-anchor="middle" x="0" y="741" transform="translate(803.36,0)" style="font-family: 'Open Sans', verdana, arial, sans-serif; font-size: 12px; fill: rgb(68, 68, 68); fill-opacity: 1; white-space: pre;">Mar 2021</text></g></g><g class="yaxislayer-above"><g class="ytick"><text text-anchor="end" x="59" y="4.199999999999999" transform="translate(0,692.72)" style="font-family: 'Open Sans', verdana, arial, sans-serif; font-size: 12px; fill: rgb(68, 68, 68); fill-opacity: 1; white-space: pre;">0</text></g><g class="ytick"><text text-anchor="end" x="59" y="4.199999999999999" transform="translate(0,561.26)" style="font-family: 'Open Sans', verdana, arial, sans-serif; font-size: 12px; fill: rgb(68, 68, 68); fill-opacity: 1; white-space: pre;">1000</text></g><g class="ytick"><text text-anchor="end" x="59" y="4.199999999999999" transform="translate(0,429.81)" style="font-family: 'Open Sans', verdana, arial, sans-serif; font-size: 12px; fill: rgb(68, 68, 68); fill-opacity: 1; white-space: pre;">2000</text></g><g class="ytick"><text text-anchor="end" x="59" y="4.199999999999999" transform="translate(0,298.35)" style="font-family: 'Open Sans', verdana, arial, sans-serif; font-size: 12px; fill: rgb(68, 68, 68); fill-opacity: 1; white-space: pre;">3000</text></g><g class="ytick"><text text-anchor="end" x="59" y="4.199999999999999" transform="translate(0,166.89)" style="font-family: 'Open Sans', verdana, arial, sans-serif; font-size: 12px; fill: rgb(68, 68, 68); fill-opacity: 1; white-space: pre;">4000</text></g><g class="ytick"><text text-anchor="end" x="59" y="4.199999999999999" transform="translate(0,35.44)" style="font-family: 'Open Sans', verdana, arial, sans-serif; font-size: 12px; fill: rgb(68, 68, 68); fill-opacity: 1; white-space: pre;">5000</text></g></g><g class="overaxes-above"/></g></g><g class="polarlayer"/><g class="ternarylayer"/><g class="geolayer"/><g class="funnelarealayer"/><g class="pielayer"/><g class="treemaplayer"/><g class="sunburstlayer"/><g class="glimages"/><defs id="topdefs-b811cc"><g class="clips"/><clipPath id="legendb811cc"><rect width="102" height="67" x="0" y="0"/></clipPath></defs><g class="layer-above"><g class="imagelayer"/><g class="shapelayer"/></g><g class="infolayer"><g class="legend" pointer-events="all" transform="translate(914.76, 25)"><rect class="bg" shape-rendering="crispEdges" style="stroke: rgb(68, 68, 68); stroke-opacity: 1; fill: rgb(255, 255, 255); fill-opacity: 1; stroke-width: 0px;" width="102" height="67" x="0" y="0"/><g class="scrollbox" transform="translate(0, 0)" clip-path="url('#legendb811cc')"><g class="groups"><g class="traces" style="opacity: 1;" transform="translate(0, 14.5)"><text class="legendtext" text-anchor="start" x="40" y="4.680000000000001" style="font-family: 'Open Sans', verdana, arial, sans-serif; font-size: 12px; fill: rgb(68, 68, 68); fill-opacity: 1; white-space: pre;">positive</text><g class="layers" style="opacity: 1;"><g class="legendfill"/><g class="legendlines"><path class="js-line" d="M5,0h30" style="fill: none; stroke: rgb(31, 119, 180); stroke-opacity: 1; stroke-width: 2px;"/></g><g class="legendsymbols"><g class="legendpoints"/></g></g><rect class="legendtoggle" x="0" y="-9.5" width="96.109375" height="19" style="fill: rgb(0, 0, 0); fill-opacity: 0;"/></g><g class="traces" style="opacity: 1;" transform="translate(0, 33.5)"><text class="legendtext" text-anchor="start" x="40" y="4.680000000000001" style="font-family: 'Open Sans', verdana, arial, sans-serif; font-size: 12px; fill: rgb(68, 68, 68); fill-opacity: 1; white-space: pre;">resolved</text><g class="layers" style="opacity: 1;"><g class="legendfill"/><g class="legendlines"><path class="js-line" d="M5,0h30" style="fill: none; stroke: rgb(255, 127, 14); stroke-opacity: 1; stroke-width: 2px;"/></g><g class="legendsymbols"><g class="legendpoints"/></g></g><rect class="legendtoggle" x="0" y="-9.5" width="96.109375" height="19" style="fill: rgb(0, 0, 0); fill-opacity: 0;"/></g><g class="traces" style="opacity: 1;" transform="translate(0, 52.5)"><text class="legendtext" text-anchor="start" x="40" y="4.680000000000001" style="font-family: 'Open Sans', verdana, arial, sans-serif; font-size: 12px; fill: rgb(68, 68, 68); fill-opacity: 1; white-space: pre;">deceased</text><g class="layers" style="opacity: 1;"><g class="legendfill"/><g class="legendlines"><path class="js-line" d="M5,0h30" style="fill: none; stroke: rgb(44, 160, 44); stroke-opacity: 1; stroke-width: 2px;"/></g><g class="legendsymbols"><g class="legendpoints"/></g></g><rect class="legendtoggle" x="0" y="-9.5" width="96.109375" height="19" style="fill: rgb(0, 0, 0); fill-opacity: 0;"/></g></g></g><rect class="scrollbar" rx="20" ry="3" width="0" height="0" style="fill: rgb(128, 139, 164); fill-opacity: 1;" x="0" y="0"/></g><g class="g-gtitle"><text class="gtitle" x="513.5" y="12.5" text-anchor="middle" dy="0em" style="font-family: 'Open Sans', verdana, arial, sans-serif; font-size: 17px; fill: rgb(68, 68, 68); opacity: 1; font-weight: normal; white-space: pre;">Dynamics of new cases, resolved cases and deaths in Ontario (Apr 19, 2021)</text></g><g class="g-xtitle" transform="translate(0,-15)"><text class="xtitle" x="479" y="780" text-anchor="middle" style="font-family: 'Open Sans', verdana, arial, sans-serif; font-size: 14px; fill: rgb(68, 68, 68); opacity: 1; font-weight: normal; white-space: pre;">Date</text></g><g class="g-ytitle"><text class="ytitle" transform="rotate(-90,22,376.5)" x="22" y="376.5" text-anchor="middle" style="font-family: 'Open Sans', verdana, arial, sans-serif; font-size: 14px; fill: rgb(68, 68, 68); opacity: 1; font-weight: normal; white-space: pre;">Number of cases</text></g></g></svg>