<svg class="main-svg" xmlns="http://www.w3.org/2000/svg" xmlns:xlink="http://www.w3.org/1999/xlink" width="1027" height="768" style="" viewBox="0 0 1027 768"><rect x="0" y="0" width="1027" height="768" style="fill: rgb(255, 255, 255); fill-opacity: 1;"/><defs id="defs-956359"><g class="clips"><clipPath id="clip956359xyplot" class="plotclip"><rect width="838" height="703"/></clipPath><clipPath class="axesclip" id="clip956359x"><rect x="60" y="0" width="838" height="768"/></clipPath><clipPath class="axesclip" id="clip956359y"><rect x="0" y="25" width="1027" height="703"/></clipPath><clipPath class="axesclip" id="clip956359xy"><rect x="60" y="25" width="838" height="703"/></clipPath></g><g class="gradients"/></defs><g class="bglayer"/><g class="layer-below"><g class="imagelayer"/><g class="shapelayer"/></g><g class="cartesianlayer"><g class="subplot xy"><g class="layer-subplot"><g class="shapelayer"/><g class="imagelayer"/></g><g class="gridlayer"><g class="x"><path class="xgrid crisp" transform="translate(90.75,0)" d="M0,25v703" style="stroke: rgb(238, 238, 238); stroke-opacity: 1; stroke-width: 1px;"/><path class="xgrid crisp" transform="translate(247.08,0)" d="M0,25v703" style="stroke: rgb(238, 238, 238); stroke-opacity: 1; stroke-width: 1px;"/><path class="xgrid crisp" transform="translate(403.4,0)" d="M0,25v703" style="stroke: rgb(238, 238, 238); stroke-opacity: 1; stroke-width: 1px;"/><path class="xgrid crisp" transform="translate(562.29,0)" d="M0,25v703" style="stroke: rgb(238, 238, 238); stroke-opacity: 1; stroke-width: 1px;"/><path class="xgrid crisp" transform="translate(718.61,0)" d="M0,25v703" style="stroke: rgb(238, 238, 238); stroke-opacity: 1; stroke-width: 1px;"/><path class="xgrid crisp" transform="translate(874.94,0)" d="M0,25v703" style="stroke: rgb(238, 238, 238); stroke-opacity: 1; stroke-width: 1px;"/></g><g class="y"><path class="ygrid crisp" transform="translate(0,618.27)" d="M60,0h838" style="stroke: rgb(238, 238, 238); stroke-opacity: 1; stroke-width: 1px;"/><path class="ygrid crisp" transform="translate(0,543.83)" d="M60,0h838" style="stroke: rgb(238, 238, 238); stroke-opacity: 1; stroke-width: 1px;"/><path class="ygrid crisp" transform="translate(0,469.4)" d="M60,0h838" style="stroke: rgb(238, 238, 238); stroke-opacity: 1; stroke-width: 1px;"/><path class="ygrid crisp" transform="translate(0,394.96)" d="M60,0h838" style="stroke: rgb(238, 238, 238); stroke-opacity: 1; stroke-width: 1px;"/><path class="ygrid crisp" transform="translate(0,320.52)" d="M60,0h838" style="stroke: rgb(238, 238, 238); stroke-opacity: 1; stroke-width: 1px;"/><path class="ygrid crisp" transform="translate(0,246.09)" d="M60,0h838" style="stroke: rgb(238, 238, 238); stroke-opacity: 1; stroke-width: 1px;"/><path class="ygrid crisp" transform="translate(0,171.65)" d="M60,0h838" style="stroke: rgb(238, 238, 238); stroke-opacity: 1; stroke-width: 1px;"/><path class="ygrid crisp" transform="translate(0,97.22)" d="M60,0h838" style="stroke: rgb(238, 238, 238); stroke-opacity: 1; stroke-width: 1px;"/></g></g><g class="zerolinelayer"><path class="yzl zl crisp" transform="translate(0,692.7)" d="M60,0h838" style="stroke: rgb(68, 68, 68); stroke-opacity: 1; stroke-width: 1px;"/></g><path class="xlines-below"/><path class="ylines-below"/><g class="overlines-below"/><g class="xaxislayer-below"/><g class="yaxislayer-below"/><g class="overaxes-below"/><g class="plot" transform="translate(60, 25)" clip-path="url('#clip956359xyplot')"><g class="scatterlayer mlayer"><g class="trace scatter traceabe725" style="stroke-miterlimit: 2; opacity: 1;"><g class="fills"/><g class="errorbars"/><g class="lines"><path class="js-line" d="M0,667.7L25.63,667.55L33.31,665.91L35.88,667.4L38.44,667.7L51.25,666.66L53.82,667.7L64.07,664.13L66.63,661.45L69.19,662.94L71.76,666.06L76.88,661.3L79.44,658.77L82.01,659.22L84.57,661.15L87.13,656.24L89.69,655.34L92.26,653.56L94.82,642.69L97.38,648.05L99.94,645.37L102.51,580.02L105.07,628.99L107.63,604.28L110.2,608L112.76,598.92L115.32,611.87L117.88,606.96L120.45,621.7L123.01,611.28L125.57,585.82L128.13,595.8L130.7,596.54L133.26,606.52L135.82,608L138.39,605.03L140.95,595.8L143.51,594.16L146.07,591.18L148.64,583.74L151.2,595.5L153.76,583.14L156.32,577.49L161.45,591.78L164.01,573.32L166.57,572.42L169.14,596.84L171.7,602.64L174.26,604.58L176.83,589.54L179.39,616.04L181.95,599.37L184.51,605.03L187.08,591.63L189.64,603.09L192.2,612.62L194.76,610.09L197.33,606.37L199.89,608.3L202.45,596.69L205.02,616.19L207.58,623.93L210.14,621.85L212.7,613.96L215.27,618.72L217.83,616.34L220.39,616.94L222.95,609.49L225.52,617.09L228.08,622.44L230.64,604.13L233.2,609.64L235.77,606.22L238.33,602.05L240.89,606.37L243.46,599.22L246.02,607.56L248.58,624.98L251.14,624.23L253.71,610.68L256.27,616.49L258.83,619.62L261.39,619.17L263.96,607.56L266.52,601.3L269.08,617.38L271.65,614.7L274.21,616.49L276.77,599.97L279.33,605.92L281.9,631.53L284.46,633.46L287.02,630.33L289.58,637.48L292.15,640.61L294.71,628.1L297.27,638.37L299.83,640.76L302.4,640.31L304.96,639.42L307.52,641.95L310.09,641.2L312.65,637.03L315.21,641.65L317.77,643.73L320.34,635.55L322.9,643.44L325.46,639.56L328.02,651.18L330.59,643.88L333.15,641.2L335.71,629.44L338.28,644.33L340.84,645.52L343.4,644.92L345.96,643.14L348.53,649.69L353.65,644.78L356.21,651.03L358.78,650.13L361.34,642.39L363.9,650.43L366.46,648.35L369.03,648.5L371.59,650.43L376.72,652.52L379.28,651.18L381.84,651.18L384.4,642.99L386.97,643.29L389.53,647.6L392.09,637.48L394.65,643.14L397.22,652.37L399.78,638.67L402.34,647.16L404.91,647.31L407.47,649.99L410.03,651.18L412.59,656.39L415.16,654.45L417.72,647.75L420.28,649.24L422.84,650.43L425.41,654.6L427.97,654.15L430.53,654.9L433.09,653.56L435.66,654.6L438.22,657.28L440.78,655.94L443.35,650.58L445.91,662.79L448.47,653.56L451.03,656.09L456.16,651.92L458.72,655.64L461.28,652.96L463.85,649.09L468.97,656.39L471.54,648.2L474.1,651.62L476.66,650.58L484.35,654.6L486.91,650.13L489.47,649.54L492.04,645.67L494.6,651.03L497.16,650.73L499.72,651.03L502.29,647.9L504.85,648.05L507.41,645.67L509.98,642.54L512.54,644.18L515.1,639.42L517.66,640.16L520.23,645.52L522.79,642.39L525.35,635.99L527.91,633.16L530.48,637.33L533.04,621.1L535.6,630.33L538.17,620.81L540.73,624.08L543.29,608L545.85,607.11L548.42,613.36L553.54,596.54L556.1,617.83L558.67,606.81L561.23,606.81L563.79,602.94L566.35,594.61L568.92,563.49L571.48,585.23L574.04,574.66L576.61,587.61L579.17,558.73L581.73,570.49L584.29,583.44L586.86,576.15L589.42,586.12L591.98,580.91L594.54,549.05L597.11,527.91L602.23,571.08L604.8,547.56L607.36,556.64L609.92,560.37L612.48,551.14L615.05,561.71L617.61,547.86L620.17,569.74L622.73,562.9L625.3,545.48L627.86,550.09L630.42,542.5L632.98,544.73L635.55,522.11L638.11,512.58L640.67,541.01L643.24,544.59L645.8,543.54L648.36,528.66L650.92,534.31L653.49,516.6L656.05,522.25L658.61,526.57L661.17,511.39L663.74,520.77L666.3,519.13L668.86,518.38L671.43,499.18L673.99,470L676.55,482.8L679.11,461.07L681.68,455.41L684.24,433.23L686.8,459.88L689.36,432.34L691.93,481.91L694.49,446.33L697.05,481.76L699.61,456.75L702.18,487.57L707.3,431.29L709.87,439.33L712.43,431.15L714.99,517.49L717.55,463.3L720.12,447.67L722.68,391.55L725.24,396.46L727.8,413.43L730.37,407.77L732.93,413.58L735.49,411.2L738.06,396.16L740.62,402.71L745.74,381.27L748.31,381.13L750.87,418.19L753.43,386.34L755.99,372.49L758.56,392.59L761.12,388.87L763.68,418.05L768.81,329.02L771.37,349.27L773.93,305.65L776.5,326.79L779.06,316.81L781.62,322.92L784.18,351.65L786.75,339.89L789.31,309.22L791.87,303.41L794.43,346.29L797,348.82L799.56,369.22L802.12,379.04L804.69,287.63L807.25,232.55L809.81,172.26L812.37,299.1L814.94,167.05L817.5,226.45L820.06,180.89L822.62,202.03L825.19,181.49L827.75,143.83L830.31,35.15L832.87,155.14L835.44,80.41L838,170.77" style="vector-effect: non-scaling-stroke; fill: none; stroke: rgb(31, 119, 180); stroke-opacity: 1; stroke-width: 2px; opacity: 1;"/></g><g class="points"/><g class="text"/></g><g class="trace scatter trace5aee59" style="stroke-miterlimit: 2; opacity: 1;"><g class="fills"/><g class="errorbars"/><g class="lines"><path class="js-line" d="M0,667.7L99.94,667.7L102.51,604.73L105.07,652.37L107.63,644.63L110.2,646.56L112.76,639.12L115.32,638.52L117.88,633.46L120.45,641.65L123.01,641.2L125.57,627.21L128.13,633.31L130.7,627.65L133.26,625.42L138.39,632.57L140.95,636.29L143.51,617.98L146.07,624.23L148.64,613.81L151.2,620.21L153.76,617.98L156.32,622.15L158.89,624.38L161.45,605.92L164.01,599.37L166.57,607.11L169.14,604.88L171.7,594.61L174.26,589.54L176.83,602.35L179.39,571.23L181.95,579.42L184.51,575.4L187.08,583.59L189.64,576.15L192.2,593.27L194.76,626.91L197.33,601.75L199.89,616.04L202.45,605.03L205.02,609.19L207.58,609.79L210.14,614.26L212.7,628.99L215.27,600.11L217.83,614.26L220.39,602.64L222.95,611.28L225.52,617.09L228.08,626.32L230.64,628.99L233.2,624.23L235.77,620.21L238.33,629.29L240.89,611.28L243.46,618.42L246.02,634.8L248.58,628.99L251.14,606.07L253.71,622.89L256.27,621.55L258.83,612.62L261.39,599.67L263.96,616.64L266.52,618.42L269.08,619.02L271.65,608.6L274.21,611.87L276.77,613.51L279.33,622.3L281.9,631.97L284.46,617.53L287.02,585.67L289.58,592.52L292.15,622.74L294.71,615.45L297.27,604.73L299.83,630.19L302.4,635.25L304.96,615.15L307.52,634.95L310.09,631.08L312.65,635.25L315.21,630.33L320.34,641.8L322.9,633.61L325.46,639.12L328.02,634.06L330.59,641.2L333.15,641.65L335.71,654.45L338.28,645.67L340.84,640.61L343.4,637.33L345.96,641.05L348.53,641.8L351.09,640.46L353.65,643.88L356.21,641.35L358.78,637.63L361.34,642.1L363.9,641.2L366.46,627.95L369.03,651.03L371.59,648.5L374.15,649.54L376.72,647.6L379.28,646.71L381.84,652.67L384.4,648.05L386.97,650.88L389.53,651.92L392.09,654.01L394.65,636.88L397.22,645.22L399.78,647.31L402.34,646.86L404.91,649.99L407.47,652.52L410.03,651.92L412.59,641.8L415.16,643.14L417.72,642.69L420.28,643.44L422.84,649.54L425.41,648.94L427.97,650.43L430.53,645.97L433.09,644.03L435.66,650.13L438.22,651.77L440.78,645.67L443.35,652.52L445.91,656.54L448.47,647.75L451.03,652.96L453.6,655.34L456.16,652.67L458.72,655.79L461.28,655.34L463.85,654.3L466.41,654.45L468.97,656.39L471.54,651.92L474.1,654.3L476.66,651.62L479.22,656.09L481.79,656.54L484.35,650.58L486.91,656.24L489.47,655.34L492.04,652.37L494.6,656.09L497.16,656.83L499.72,654.01L502.29,647.31L504.85,649.99L507.41,650.43L509.98,651.92L512.54,651.18L515.1,649.99L517.66,649.99L520.23,647.45L522.79,646.56L525.35,649.24L527.91,649.99L533.04,647.9L535.6,650.28L540.73,641.05L543.29,641.5L545.85,641.35L548.42,639.27L550.98,641.2L553.54,638.52L556.1,629.29L558.67,625.12L561.23,625.57L563.79,617.38L566.35,624.68L568.92,618.42L571.48,619.62L574.04,599.67L576.61,591.03L579.17,603.98L581.73,602.94L584.29,588.2L589.42,586.42L591.98,562.45L594.54,564.24L597.11,559.92L599.67,563.49L602.23,562.75L607.36,574.81L609.92,551.14L612.48,551.73L615.05,561.56L617.61,566.17L620.17,565.72L622.73,577.34L625.3,574.21L627.86,560.66L630.42,557.39L632.98,558.58L635.55,574.66L638.11,558.13L640.67,566.62L643.24,564.83L645.8,552.62L648.36,545.63L650.92,549.2L653.49,548.9L656.05,539.08L658.61,544.73L661.17,543.1L663.74,527.02L666.3,526.57L668.86,526.42L671.43,540.86L673.99,537.14L676.55,545.48L679.11,551.43L681.68,535.8L684.24,531.19L686.8,516.15L689.36,518.38L691.93,509.6L694.49,520.02L697.05,498.73L699.61,445.14L702.18,462.86L704.74,457.05L707.3,464.79L712.43,446.78L714.99,506.62L717.55,447.97L720.12,464.49L722.68,451.69L725.24,442.91L727.8,452.88L730.37,471.19L732.93,463.3L735.49,416.71L738.06,438.29L740.62,436.51L743.18,425.94L745.74,433.38L748.31,457.5L750.87,437.1L753.43,381.27L755.99,399.14L758.56,406.73L761.12,382.17L763.68,417.9L766.24,439.18L771.37,363.56L773.93,368.62L776.5,371.15L779.06,390.06L781.62,380.23L784.18,421.47L786.75,384.85L789.31,333.78L791.87,368.02L794.43,334.68L797,382.91L799.56,369.22L802.12,347.48L804.69,335.27L807.25,334.68L809.81,338.25L812.37,301.48L814.94,361.92L817.5,343.91L820.06,358.94L822.62,367.73L825.19,220.35L827.75,254.44L830.31,260.09L832.87,233.74L835.44,296.12L838,257.41" style="vector-effect: non-scaling-stroke; fill: none; stroke: rgb(255, 127, 14); stroke-opacity: 1; stroke-width: 2px; opacity: 1;"/></g><g class="points"/><g class="text"/></g><g class="trace scatter tracef79a50" style="stroke-miterlimit: 2; opacity: 1;"><g class="fills"/><g class="errorbars"/><g class="lines"><path class="js-line" d="M0,667.7L102.51,667.11L105.07,666.21L107.63,667.11L110.2,665.32L112.76,665.62L115.32,663.68L117.88,663.98L120.45,665.77L123.01,664.57L125.57,664.57L128.13,663.83L130.7,664.43L133.26,663.09L135.82,664.57L138.39,665.17L140.95,661.3L143.51,660.11L146.07,662.04L148.64,659.51L151.2,662.34L153.76,661.9L156.32,663.09L158.89,662.04L161.45,662.19L164.01,659.66L166.57,660.26L169.14,660.56L171.7,664.13L174.26,659.22L176.83,658.92L179.39,661L181.95,654.9L184.51,661.9L187.08,659.51L189.64,661.75L192.2,655.2L194.76,658.62L197.33,657.58L199.89,660.56L202.45,658.32L205.02,658.92L207.58,662.49L210.14,662.49L212.7,659.36L215.27,661.75L217.83,662.79L220.39,663.68L222.95,662.79L225.52,664.28L228.08,664.28L230.64,665.47L233.2,661.3L235.77,663.09L238.33,663.53L246.02,663.38L248.58,664.57L251.14,662.94L253.71,662.64L256.27,661.6L258.83,665.17L261.39,664.87L263.96,666.21L269.08,664.87L271.65,661L274.21,665.47L276.77,662.49L279.33,664.87L281.9,664.13L284.46,665.62L287.02,666.06L297.27,665.91L299.83,666.51L304.96,665.91L307.52,667.25L310.09,666.06L312.65,663.09L315.21,666.06L317.77,667.25L322.9,665.91L325.46,666.21L328.02,667.25L330.59,666.51L340.84,667.11L343.4,667.11L353.65,667.7L356.21,667.4L358.78,666.36L361.34,667.25L366.46,666.81L369.03,667.25L374.15,667.55L376.72,666.36L379.28,666.96L381.84,666.36L384.4,667.4L386.97,667.25L397.22,667.7L399.78,667.25L407.47,667.55L410.03,667.11L415.16,667.25L417.72,667.25L435.66,667.7L438.22,667.55L448.47,667.55L451.03,667.7L463.85,667.11L466.41,667.85L474.1,667.55L476.66,667.7L489.47,666.81L492.04,667.7L504.85,667.7L507.41,667.85L522.79,667.55L525.35,667.85L535.6,667.11L538.17,667.4L553.54,667.25L556.1,667.25L563.79,667.7L566.35,667.4L576.61,667.25L579.17,656.39L584.29,666.66L586.86,666.96L589.42,666.66L591.98,667.55L599.67,666.66L602.23,667.55L607.36,666.36L609.92,667.7L617.61,666.21L620.17,666.96L625.3,667.25L627.86,666.36L645.8,666.96L648.36,666.21L658.61,666.66L661.17,665.62L666.3,665.77L668.86,665.62L673.99,665.77L676.55,665.91L686.8,664.87L689.36,664.72L691.93,663.38L694.49,666.21L697.05,665.91L699.61,662.94L702.18,663.53L704.74,666.51L707.3,664.57L709.87,665.62L712.43,664.87L714.99,665.62L717.55,662.49L720.12,664.57L722.68,664.72L725.24,663.38L727.8,664.13L730.37,666.51L732.93,666.66L735.49,662.49L738.06,665.62L740.62,663.98L745.74,665.47L748.31,663.83L750.87,666.21L753.43,663.53L758.56,661L761.12,665.17L763.68,665.32L766.24,664.28L768.81,664.72L771.37,661.3L773.93,664.28L776.5,661.75L779.06,663.68L781.62,663.98L784.18,665.17L786.75,664.57L789.31,661.6L791.87,660.41L797,662.04L799.56,665.02L802.12,662.19L804.69,661.6L807.25,664.87L809.81,659.36L814.94,661.15L817.5,663.98L820.06,663.38L822.62,660.11L825.19,662.19L827.75,654.45L830.31,663.83L832.87,661.75L835.44,658.62L838,663.38" style="vector-effect: non-scaling-stroke; fill: none; stroke: rgb(44, 160, 44); stroke-opacity: 1; stroke-width: 2px; opacity: 1;"/></g><g class="points"/><g class="text"/></g></g></g><g class="overplot"/><path class="xlines-above crisp" style="fill: none;" d="M0,0"/><path class="ylines-above crisp" style="fill: none;" d="M0,0"/><g class="overlines-above"/><g class="xaxislayer-above"><g class="xtick"><text text-anchor="middle" x="0" y="741" transform="translate(90.75,0)" style="font-family: 'Open Sans', verdana, arial, sans-serif; font-size: 12px; fill: rgb(68, 68, 68); fill-opacity: 1; white-space: pre;">Mar 2020</text></g><g class="xtick"><text text-anchor="middle" x="0" y="741" transform="translate(247.08,0)" style="font-family: 'Open Sans', verdana, arial, sans-serif; font-size: 12px; fill: rgb(68, 68, 68); fill-opacity: 1; white-space: pre;">May 2020</text></g><g class="xtick"><text text-anchor="middle" x="0" y="741" transform="translate(403.4,0)" style="font-family: 'Open Sans', verdana, arial, sans-serif; font-size: 12px; fill: rgb(68, 68, 68); fill-opacity: 1; white-space: pre;">Jul 2020</text></g><g class="xtick"><text text-anchor="middle" x="0" y="741" transform="translate(562.29,0)" style="font-family: 'Open Sans', verdana, arial, sans-serif; font-size: 12px; fill: rgb(68, 68, 68); fill-opacity: 1; white-space: pre;">Sep 2020</text></g><g class="xtick"><text text-anchor="middle" x="0" y="741" transform="translate(718.61,0)" style="font-family: 'Open Sans', verdana, arial, sans-serif; font-size: 12px; fill: rgb(68, 68, 68); fill-opacity: 1; white-space: pre;">Nov 2020</text></g><g class="xtick"><text text-anchor="middle" x="0" y="741" transform="translate(874.94,0)" style="font-family: 'Open Sans', verdana, arial, sans-serif; font-size: 12px; fill: rgb(68, 68, 68); fill-opacity: 1; white-space: pre;">Jan 2021</text></g></g><g class="yaxislayer-above"><g class="ytick"><text text-anchor="end" x="59" y="4.199999999999999" transform="translate(0,692.7)" style="font-family: 'Open Sans', verdana, arial, sans-serif; font-size: 12px; fill: rgb(68, 68, 68); fill-opacity: 1; white-space: pre;">0</text></g><g class="ytick"><text text-anchor="end" x="59" y="4.199999999999999" transform="translate(0,618.27)" style="font-family: 'Open Sans', verdana, arial, sans-serif; font-size: 12px; fill: rgb(68, 68, 68); fill-opacity: 1; white-space: pre;">500</text></g><g class="ytick"><text text-anchor="end" x="59" y="4.199999999999999" transform="translate(0,543.83)" style="font-family: 'Open Sans', verdana, arial, sans-serif; font-size: 12px; fill: rgb(68, 68, 68); fill-opacity: 1; white-space: pre;">1000</text></g><g class="ytick"><text text-anchor="end" x="59" y="4.199999999999999" transform="translate(0,469.4)" style="font-family: 'Open Sans', verdana, arial, sans-serif; font-size: 12px; fill: rgb(68, 68, 68); fill-opacity: 1; white-space: pre;">1500</text></g><g class="ytick"><text text-anchor="end" x="59" y="4.199999999999999" transform="translate(0,394.96)" style="font-family: 'Open Sans', verdana, arial, sans-serif; font-size: 12px; fill: rgb(68, 68, 68); fill-opacity: 1; white-space: pre;">2000</text></g><g class="ytick"><text text-anchor="end" x="59" y="4.199999999999999" transform="translate(0,320.52)" style="font-family: 'Open Sans', verdana, arial, sans-serif; font-size: 12px; fill: rgb(68, 68, 68); fill-opacity: 1; white-space: pre;">2500</text></g><g class="ytick"><text text-anchor="end" x="59" y="4.199999999999999" transform="translate(0,246.09)" style="font-family: 'Open Sans', verdana, arial, sans-serif; font-size: 12px; fill: rgb(68, 68, 68); fill-opacity: 1; white-space: pre;">3000</text></g><g class="ytick"><text text-anchor="end" x="59" y="4.199999999999999" transform="translate(0,171.65)" style="font-family: 'Open Sans', verdana, arial, sans-serif; font-size: 12px; fill: rgb(68, 68, 68); fill-opacity: 1; white-space: pre;">3500</text></g><g class="ytick"><text text-anchor="end" x="59" y="4.199999999999999" transform="translate(0,97.22)" style="font-family: 'Open Sans', verdana, arial, sans-serif; font-size: 12px; fill: rgb(68, 68, 68); fill-opacity: 1; white-space: pre;">4000</text></g></g><g class="overaxes-above"/></g></g><g class="polarlayer"/><g class="ternarylayer"/><g class="geolayer"/><g class="funnelarealayer"/><g class="pielayer"/><g class="treemaplayer"/><g class="sunburstlayer"/><g class="glimages"/><defs id="topdefs-956359"><g class="clips"/><clipPath id="legend956359"><rect width="102" height="67" x="0" y="0"/></clipPath></defs><g class="layer-above"><g class="imagelayer"/><g class="shapelayer"/></g><g class="infolayer"><g class="legend" pointer-events="all" transform="translate(914.76, 25)"><rect class="bg" shape-rendering="crispEdges" style="stroke: rgb(68, 68, 68); stroke-opacity: 1; fill: rgb(255, 255, 255); fill-opacity: 1; stroke-width: 0px;" width="102" height="67" x="0" y="0"/><g class="scrollbox" transform="translate(0, 0)" clip-path="url('#legend956359')"><g class="groups"><g class="traces" style="opacity: 1;" transform="translate(0, 14.5)"><text class="legendtext" text-anchor="start" x="40" y="4.680000000000001" style="font-family: 'Open Sans', verdana, arial, sans-serif; font-size: 12px; fill: rgb(68, 68, 68); fill-opacity: 1; white-space: pre;">positive</text><g class="layers" style="opacity: 1;"><g class="legendfill"/><g class="legendlines"><path class="js-line" d="M5,0h30" style="fill: none; stroke: rgb(31, 119, 180); stroke-opacity: 1; stroke-width: 2px;"/></g><g class="legendsymbols"><g class="legendpoints"/></g></g><rect class="legendtoggle" x="0" y="-9.5" width="96.109375" height="19" style="fill: rgb(0, 0, 0); fill-opacity: 0;"/></g><g class="traces" style="opacity: 1;" transform="translate(0, 33.5)"><text class="legendtext" text-anchor="start" x="40" y="4.680000000000001" style="font-family: 'Open Sans', verdana, arial, sans-serif; font-size: 12px; fill: rgb(68, 68, 68); fill-opacity: 1; white-space: pre;">resolved</text><g class="layers" style="opacity: 1;"><g class="legendfill"/><g class="legendlines"><path class="js-line" d="M5,0h30" style="fill: none; stroke: rgb(255, 127, 14); stroke-opacity: 1; stroke-width: 2px;"/></g><g class="legendsymbols"><g class="legendpoints"/></g></g><rect class="legendtoggle" x="0" y="-9.5" width="96.109375" height="19" style="fill: rgb(0, 0, 0); fill-opacity: 0;"/></g><g class="traces" style="opacity: 1;" transform="translate(0, 52.5)"><text class="legendtext" text-anchor="start" x="40" y="4.680000000000001" style="font-family: 'Open Sans', verdana, arial, sans-serif; font-size: 12px; fill: rgb(68, 68, 68); fill-opacity: 1; white-space: pre;">deceased</text><g class="layers" style="opacity: 1;"><g class="legendfill"/><g class="legendlines"><path class="js-line" d="M5,0h30" style="fill: none; stroke: rgb(44, 160, 44); stroke-opacity: 1; stroke-width: 2px;"/></g><g class="legendsymbols"><g class="legendpoints"/></g></g><rect class="legendtoggle" x="0" y="-9.5" width="96.109375" height="19" style="fill: rgb(0, 0, 0); fill-opacity: 0;"/></g></g></g><rect class="scrollbar" rx="20" ry="3" width="0" height="0" style="fill: rgb(128, 139, 164); fill-opacity: 1;" x="0" y="0"/></g><g class="g-gtitle"><text class="gtitle" x="513.5" y="12.5" text-anchor="middle" dy="0em" style="font-family: 'Open Sans', verdana, arial, sans-serif; font-size: 17px; fill: rgb(68, 68, 68); opacity: 1; font-weight: normal; white-space: pre;">Dynamics of new cases, resolved cases and deaths in Ontario (Jan 11, 2021)</text></g><g class="g-xtitle" transform="translate(0,-15)"><text class="xtitle" x="479" y="780" text-anchor="middle" style="font-family: 'Open Sans', verdana, arial, sans-serif; font-size: 14px; fill: rgb(68, 68, 68); opacity: 1; font-weight: normal; white-space: pre;">Date</text></g><g class="g-ytitle"><text class="ytitle" transform="rotate(-90,22,376.5)" x="22" y="376.5" text-anchor="middle" style="font-family: 'Open Sans', verdana, arial, sans-serif; font-size: 14px; fill: rgb(68, 68, 68); opacity: 1; font-weight: normal; white-space: pre;">Number of cases</text></g></g></svg>