<svg class="main-svg" xmlns="http://www.w3.org/2000/svg" xmlns:xlink="http://www.w3.org/1999/xlink" width="1027" height="768" style="" viewBox="0 0 1027 768"><rect x="0" y="0" width="1027" height="768" style="fill: rgb(255, 255, 255); fill-opacity: 1;"/><defs id="defs-3c5002"><g class="clips"><clipPath id="clip3c5002xyplot" class="plotclip"><rect width="838" height="703"/></clipPath><clipPath class="axesclip" id="clip3c5002x"><rect x="60" y="0" width="838" height="768"/></clipPath><clipPath class="axesclip" id="clip3c5002y"><rect x="0" y="25" width="1027" height="703"/></clipPath><clipPath class="axesclip" id="clip3c5002xy"><rect x="60" y="25" width="838" height="703"/></clipPath></g><g class="gradients"/></defs><g class="bglayer"/><g class="layer-below"><g class="imagelayer"/><g class="shapelayer"/></g><g class="cartesianlayer"><g class="subplot xy"><g class="layer-subplot"><g class="shapelayer"/><g class="imagelayer"/></g><g class="gridlayer"><g class="x"><path class="xgrid crisp" transform="translate(104.5,0)" d="M0,25v703" style="stroke: rgb(238, 238, 238); stroke-opacity: 1; stroke-width: 1px;"/><path class="xgrid crisp" transform="translate(219.44,0)" d="M0,25v703" style="stroke: rgb(238, 238, 238); stroke-opacity: 1; stroke-width: 1px;"/><path class="xgrid crisp" transform="translate(330.68,0)" d="M0,25v703" style="stroke: rgb(238, 238, 238); stroke-opacity: 1; stroke-width: 1px;"/><path class="xgrid crisp" transform="translate(445.63,0)" d="M0,25v703" style="stroke: rgb(238, 238, 238); stroke-opacity: 1; stroke-width: 1px;"/><path class="xgrid crisp" transform="translate(556.87,0)" d="M0,25v703" style="stroke: rgb(238, 238, 238); stroke-opacity: 1; stroke-width: 1px;"/><path class="xgrid crisp" transform="translate(671.81,0)" d="M0,25v703" style="stroke: rgb(238, 238, 238); stroke-opacity: 1; stroke-width: 1px;"/><path class="xgrid crisp" transform="translate(786.76,0)" d="M0,25v703" style="stroke: rgb(238, 238, 238); stroke-opacity: 1; stroke-width: 1px;"/></g><g class="y"><path class="ygrid crisp" transform="translate(0,605.67)" d="M60,0h838" style="stroke: rgb(238, 238, 238); stroke-opacity: 1; stroke-width: 1px;"/><path class="ygrid crisp" transform="translate(0,519.35)" d="M60,0h838" style="stroke: rgb(238, 238, 238); stroke-opacity: 1; stroke-width: 1px;"/><path class="ygrid crisp" transform="translate(0,433.04)" d="M60,0h838" style="stroke: rgb(238, 238, 238); stroke-opacity: 1; stroke-width: 1px;"/><path class="ygrid crisp" transform="translate(0,346.72)" d="M60,0h838" style="stroke: rgb(238, 238, 238); stroke-opacity: 1; stroke-width: 1px;"/><path class="ygrid crisp" transform="translate(0,260.4)" d="M60,0h838" style="stroke: rgb(238, 238, 238); stroke-opacity: 1; stroke-width: 1px;"/><path class="ygrid crisp" transform="translate(0,174.09)" d="M60,0h838" style="stroke: rgb(238, 238, 238); stroke-opacity: 1; stroke-width: 1px;"/><path class="ygrid crisp" transform="translate(0,87.77000000000001)" d="M60,0h838" style="stroke: rgb(238, 238, 238); stroke-opacity: 1; stroke-width: 1px;"/></g></g><g class="zerolinelayer"><path class="yzl zl crisp" transform="translate(0,691.99)" d="M60,0h838" style="stroke: rgb(68, 68, 68); stroke-opacity: 1; stroke-width: 1px;"/></g><path class="xlines-below"/><path class="ylines-below"/><g class="overlines-below"/><g class="xaxislayer-below"/><g class="yaxislayer-below"/><g class="overaxes-below"/><g class="plot" transform="translate(60, 25)" clip-path="url('#clip3c5002xyplot')"><g class="scatterlayer mlayer"><g class="trace scatter tracee980b3" style="stroke-miterlimit: 2; opacity: 1;"><g class="fills"/><g class="errorbars"/><g class="lines"><path class="js-line" d="M0,666.99L3.71,666.99L7.42,667.85L11.12,667.85L22.25,666.12L29.66,666.99L33.37,666.12L37.08,666.12L48.2,656.63L51.91,665.26L55.62,666.99L59.33,666.12L63.04,663.53L66.74,665.26L74.16,660.94L77.87,666.99L81.58,661.81L85.28,652.31L88.99,649.72L92.7,646.27L96.41,630.73L100.12,639.37L103.82,657.49L107.53,645.41L111.24,629.87L114.95,615.2L118.65,617.79L122.36,629.01L126.07,600.52L129.78,595.34L133.49,584.99L137.19,521.98L140.9,553.05L144.61,537.51L148.32,158.58L152.03,442.56L155.73,299.28L159.44,320.86L163.15,268.2L166.86,343.3L170.57,314.82L174.27,400.27L177.98,339.85L181.69,192.25L185.4,250.08L189.11,254.39L192.81,312.23L196.52,320.86L200.23,303.59L203.94,250.08L207.65,240.58L211.35,223.32L215.06,180.16L218.77,248.35L222.48,176.71L226.19,143.91L229.89,191.38L233.6,226.77L237.31,119.74L241.02,114.56L244.73,256.12L248.43,289.78L252.14,301L255.85,213.83L259.56,367.47L263.27,270.79L266.97,303.59L270.68,225.91L274.39,292.37L278.1,347.62L281.81,332.94L285.51,311.36L289.22,322.58L292.93,255.26L296.64,368.33L300.35,413.22L304.05,401.13L307.76,355.38L311.47,383.01L315.18,369.19L318.88,372.65L322.59,329.49L326.3,373.51L330.01,404.58L333.72,298.42L337.42,330.35L341.13,310.5L344.84,286.33L348.55,311.36L352.26,269.93L355.96,318.27L359.67,419.26L363.38,414.94L367.09,336.39L370.8,370.06L374.5,388.18L378.21,385.6L381.92,318.27L385.63,282.02L389.34,375.24L393.04,359.7L396.75,370.06L400.46,274.25L404.17,308.77L407.88,457.24L411.58,468.46L415.29,450.33L419,491.76L422.71,509.89L426.42,437.38L430.12,496.94L433.83,510.75L437.54,508.16L441.25,502.99L444.96,517.66L448.66,513.34L452.37,489.17L456.08,515.93L459.79,528.02L463.5,480.54L467.2,526.29L470.91,503.85L474.62,571.18L478.33,528.88L482.04,513.34L485.74,445.15L489.45,531.47L493.16,538.38L496.87,534.92L500.58,524.56L504.28,562.54L511.7,534.06L515.41,570.31L519.12,565.13L522.82,520.25L526.53,566.86L530.24,554.78L533.95,555.64L537.65,566.86L541.36,571.18L545.07,578.94L548.78,571.18L552.49,571.18L556.19,523.7L559.9,525.43L563.61,550.46L567.32,491.76L571.03,524.56L574.73,578.08L578.44,498.67L582.15,547.87L585.86,548.73L589.57,564.27L593.27,571.18L596.98,601.39L600.69,590.17L604.4,551.32L611.81,566.86L615.52,591.03L619.23,588.44L622.94,592.75L626.65,584.99L630.35,591.03L634.06,606.57L637.77,598.8L641.48,567.72L645.19,638.5L648.89,584.99L652.6,599.66L660.02,575.49L663.73,597.07L667.43,581.53L671.14,559.09L678.56,601.39L682.27,553.91L685.97,573.77L689.68,567.72L693.39,576.35L697.1,580.67L700.81,591.03L704.51,565.13L708.22,561.68L711.93,539.24L715.64,570.31L719.35,568.59L723.05,570.31L726.76,552.19L730.47,553.05L734.18,539.24L737.88,521.11L741.59,530.61L745.3,502.99L749.01,507.3L752.72,538.38L756.42,520.25L760.13,483.13L763.84,466.73L767.55,490.9L771.26,396.82L774.96,450.33L778.67,395.09L782.38,414.08L786.09,320.86L789.8,315.68L793.5,351.93L800.92,254.39L804.63,377.83L808.34,313.95L812.04,313.95L815.75,291.51L819.46,243.17L823.17,62.77L826.88,188.79L830.58,127.51L834.29,202.6L838,35.15" style="vector-effect: non-scaling-stroke; fill: none; stroke: rgb(31, 119, 180); stroke-opacity: 1; stroke-width: 2px; opacity: 1;"/></g><g class="points"/><g class="text"/></g><g class="trace scatter trace721535" style="stroke-miterlimit: 2; opacity: 1;"><g class="fills"/><g class="errorbars"/><g class="lines"><path class="js-line" d="M0,666.99L3.71,666.99L7.42,666.12L11.12,666.12L22.25,666.99L55.62,666.99L59.33,666.12L63.04,666.99L66.74,666.99L74.16,666.99L77.87,666.12L81.58,666.99L85.28,666.99L114.95,666.99L118.65,666.12L122.36,665.26L126.07,666.99L144.61,666.99L148.32,301.87L152.03,578.08L155.73,533.2L159.44,544.42L163.15,501.26L166.86,497.81L170.57,468.46L174.27,515.93L177.98,513.34L181.69,432.21L185.4,467.6L189.11,434.8L192.81,421.85L196.52,439.97L200.23,463.28L203.94,484.86L207.65,378.69L211.35,414.94L215.06,354.52L218.77,391.64L222.48,378.69L226.19,402.86L229.89,415.81L233.6,308.77L237.31,270.79L241.02,315.68L244.73,302.73L248.43,243.17L252.14,213.83L255.85,288.06L259.56,107.66L263.27,155.13L266.97,131.82L270.68,179.3L274.39,136.14L278.1,235.4L281.81,430.48L285.51,284.6L289.22,367.47L292.93,303.59L296.64,327.76L300.35,331.22L304.05,357.11L307.76,442.56L311.47,275.11L315.18,357.11L318.88,289.78L322.59,339.85L326.3,373.51L330.01,427.03L333.72,442.56L341.13,391.64L344.84,444.29L348.55,339.85L352.26,381.28L355.96,476.23L359.67,442.56L363.38,309.64L367.09,407.17L370.8,399.41L374.5,347.62L378.21,272.52L381.92,370.92L385.63,381.28L389.34,384.73L393.04,324.31L396.75,343.3L400.46,352.79L404.17,403.72L407.88,459.83L411.58,376.1L415.29,191.38L419,231.09L422.71,406.31L426.42,364.02L430.12,301.87L433.83,449.47L437.54,478.82L441.25,362.29L444.96,477.09L448.66,454.65L452.37,478.82L456.08,450.33L463.5,516.8L467.2,469.32L470.91,501.26L474.62,471.91L478.33,513.34L482.04,515.93L485.74,590.17L489.45,539.24L493.16,509.89L496.87,490.9L500.58,512.48L504.28,516.8L507.99,509.03L511.7,528.88L515.41,514.21L519.12,492.63L522.82,518.52L526.53,513.34L530.24,436.52L533.95,570.31L537.65,555.64L541.36,561.68L545.07,550.46L548.78,545.28L552.49,579.81L556.19,553.05L559.9,569.45L563.61,575.49L567.32,587.58L571.03,488.31L574.73,536.65L578.44,548.73L582.15,546.14L585.86,564.27L589.57,578.94L593.27,575.49L596.98,516.8L600.69,524.56L604.4,521.98L608.11,526.29L611.81,561.68L615.52,558.23L619.23,566.86L622.94,540.96L626.65,529.74L630.35,565.13L634.06,574.63L637.77,539.24L641.48,578.94L645.19,602.25L648.89,551.32L652.6,581.53L656.31,595.34L660.02,579.81L663.73,597.93L667.43,595.34L671.14,589.3L674.85,590.17L678.56,601.39L682.27,575.49L685.97,589.3L689.68,573.77L693.39,599.66L697.1,602.25L700.81,567.72L704.51,600.52L708.22,595.34L711.93,578.08L715.64,599.66L719.35,603.98L723.05,587.58L726.76,548.73L730.47,564.27L734.18,566.86L737.88,575.49L741.59,571.18L745.3,564.27L749.01,564.27L752.72,549.6L756.42,544.42L760.13,559.95L763.84,564.27L767.55,559.95L771.26,552.19L774.96,566L778.67,534.06L782.38,512.48L786.09,515.07L789.8,514.21L793.5,502.12L797.21,513.34L800.92,497.81L804.63,444.29L808.34,420.12L812.04,422.71L815.75,375.24L819.46,417.53L823.17,381.28L826.88,388.18L830.58,272.52L834.29,222.46L838,297.55" style="vector-effect: non-scaling-stroke; fill: none; stroke: rgb(255, 127, 14); stroke-opacity: 1; stroke-width: 2px; opacity: 1;"/></g><g class="points"/><g class="text"/></g><g class="trace scatter tracee4d37a" style="stroke-miterlimit: 2; opacity: 1;"><g class="fills"/><g class="errorbars"/><g class="lines"><path class="js-line" d="M0,666.99L100.12,666.99L103.82,666.12L107.53,666.99L111.24,666.12L114.95,666.99L118.65,666.12L122.36,665.26L126.07,666.12L129.78,665.26L133.49,662.67L137.19,665.26L140.9,664.4L144.61,666.12L148.32,663.53L152.03,658.36L155.73,663.53L159.44,653.18L163.15,654.9L166.86,643.68L170.57,645.41L174.27,655.77L177.98,648.86L181.69,648.86L185.4,644.54L189.11,648L192.81,640.23L196.52,648.86L200.23,652.31L203.94,629.87L207.65,622.97L211.35,634.19L215.06,619.51L218.77,635.91L222.48,633.32L226.19,640.23L229.89,634.19L233.6,635.05L237.31,620.38L241.02,623.83L244.73,625.55L248.43,646.27L252.14,617.79L255.85,616.06L259.56,628.14L263.27,592.75L266.97,633.32L270.68,619.51L274.39,632.46L278.1,594.48L281.81,614.33L285.51,608.29L289.22,625.55L292.93,612.61L296.64,616.06L300.35,636.78L304.05,636.78L307.76,618.65L311.47,632.46L318.88,643.68L322.59,638.5L326.3,647.13L330.01,647.13L333.72,654.04L337.42,629.87L341.13,640.23L344.84,642.82L348.55,643.68L352.26,645.41L355.96,641.96L359.67,648.86L363.38,639.37L367.09,637.64L370.8,631.6L374.5,652.31L378.21,650.59L381.92,658.36L385.63,652.31L389.34,650.59L393.04,628.14L396.75,654.04L400.46,636.78L404.17,650.59L407.88,646.27L411.58,654.9L415.29,657.49L419,656.63L422.71,657.49L426.42,659.22L430.12,656.63L433.83,660.08L437.54,657.49L441.25,656.63L444.96,664.4L448.66,657.49L452.37,640.23L456.08,657.49L459.79,664.4L463.5,658.36L467.2,656.63L470.91,658.36L474.62,664.4L478.33,660.08L482.04,661.81L485.74,660.94L489.45,660.94L493.16,663.53L496.87,663.53L500.58,665.26L504.28,662.67L507.99,665.26L511.7,666.99L515.41,665.26L519.12,659.22L522.82,664.4L526.53,660.94L530.24,661.81L533.95,664.4L537.65,664.4L541.36,666.12L545.07,659.22L548.78,662.67L552.49,659.22L556.19,665.26L559.9,664.4L563.61,666.12L567.32,666.12L571.03,665.26L574.73,666.99L578.44,664.4L582.15,666.12L585.86,663.53L589.57,666.12L593.27,663.53L596.98,666.12L600.69,664.4L604.4,664.4L615.52,666.99L619.23,663.53L622.94,666.99L626.65,666.12L630.35,666.99L634.06,666.12L637.77,665.26L641.48,666.99L645.19,666.99L648.89,666.12L652.6,666.99L656.31,666.12L660.02,666.12L663.73,666.99L667.43,666.99L671.14,663.53L674.85,667.85L678.56,666.12L682.27,664.4L685.97,666.12L689.68,666.99L693.39,666.12L697.1,665.26L700.81,665.26L704.51,666.12L708.22,661.81L711.93,666.99L715.64,666.12L723.05,666.12L726.76,666.99L730.47,666.99L734.18,667.85L737.88,666.99L741.59,665.26L745.3,666.99L749.01,666.99L752.72,666.99L756.42,666.12L760.13,667.85L763.84,666.12L771.26,666.12L774.96,663.53L778.67,665.26L782.38,664.4L786.09,666.99L789.8,666.12L793.5,666.12L797.21,665.26L800.92,664.4L804.63,664.4L808.34,666.12L812.04,666.12L815.75,666.99L819.46,665.26L823.17,666.12L826.88,663.53L830.58,663.53L834.29,664.4" style="vector-effect: non-scaling-stroke; fill: none; stroke: rgb(44, 160, 44); stroke-opacity: 1; stroke-width: 2px; opacity: 1;"/></g><g class="points"/><g class="text"/></g></g></g><g class="overplot"/><path class="xlines-above crisp" style="fill: none;" d="M0,0"/><path class="ylines-above crisp" style="fill: none;" d="M0,0"/><g class="overlines-above"/><g class="xaxislayer-above"><g class="xtick"><text text-anchor="middle" x="0" y="741" transform="translate(104.5,0)" style="font-family: 'Open Sans', verdana, arial, sans-serif; font-size: 12px; fill: rgb(68, 68, 68); fill-opacity: 1; white-space: pre;">Mar 2020</text></g><g class="xtick"><text text-anchor="middle" x="0" y="741" transform="translate(219.44,0)" style="font-family: 'Open Sans', verdana, arial, sans-serif; font-size: 12px; fill: rgb(68, 68, 68); fill-opacity: 1; white-space: pre;">Apr 2020</text></g><g class="xtick"><text text-anchor="middle" x="0" y="741" transform="translate(330.68,0)" style="font-family: 'Open Sans', verdana, arial, sans-serif; font-size: 12px; fill: rgb(68, 68, 68); fill-opacity: 1; white-space: pre;">May 2020</text></g><g class="xtick"><text text-anchor="middle" x="0" y="741" transform="translate(445.63,0)" style="font-family: 'Open Sans', verdana, arial, sans-serif; font-size: 12px; fill: rgb(68, 68, 68); fill-opacity: 1; white-space: pre;">Jun 2020</text></g><g class="xtick"><text text-anchor="middle" x="0" y="741" transform="translate(556.87,0)" style="font-family: 'Open Sans', verdana, arial, sans-serif; font-size: 12px; fill: rgb(68, 68, 68); fill-opacity: 1; white-space: pre;">Jul 2020</text></g><g class="xtick"><text text-anchor="middle" x="0" y="741" transform="translate(671.81,0)" style="font-family: 'Open Sans', verdana, arial, sans-serif; font-size: 12px; fill: rgb(68, 68, 68); fill-opacity: 1; white-space: pre;">Aug 2020</text></g><g class="xtick"><text text-anchor="middle" x="0" y="741" transform="translate(786.76,0)" style="font-family: 'Open Sans', verdana, arial, sans-serif; font-size: 12px; fill: rgb(68, 68, 68); fill-opacity: 1; white-space: pre;">Sep 2020</text></g><g class="xtick"><text text-anchor="middle" x="0" y="741" transform="translate(898,0)" style="font-family: 'Open Sans', verdana, arial, sans-serif; font-size: 12px; fill: rgb(68, 68, 68); fill-opacity: 1; white-space: pre;">Oct 2020</text></g></g><g class="yaxislayer-above"><g class="ytick"><text text-anchor="end" x="59" y="4.199999999999999" transform="translate(0,691.99)" style="font-family: 'Open Sans', verdana, arial, sans-serif; font-size: 12px; fill: rgb(68, 68, 68); fill-opacity: 1; white-space: pre;">0</text></g><g class="ytick"><text text-anchor="end" x="59" y="4.199999999999999" transform="translate(0,605.67)" style="font-family: 'Open Sans', verdana, arial, sans-serif; font-size: 12px; fill: rgb(68, 68, 68); fill-opacity: 1; white-space: pre;">100</text></g><g class="ytick"><text text-anchor="end" x="59" y="4.199999999999999" transform="translate(0,519.35)" style="font-family: 'Open Sans', verdana, arial, sans-serif; font-size: 12px; fill: rgb(68, 68, 68); fill-opacity: 1; white-space: pre;">200</text></g><g class="ytick"><text text-anchor="end" x="59" y="4.199999999999999" transform="translate(0,433.04)" style="font-family: 'Open Sans', verdana, arial, sans-serif; font-size: 12px; fill: rgb(68, 68, 68); fill-opacity: 1; white-space: pre;">300</text></g><g class="ytick"><text text-anchor="end" x="59" y="4.199999999999999" transform="translate(0,346.72)" style="font-family: 'Open Sans', verdana, arial, sans-serif; font-size: 12px; fill: rgb(68, 68, 68); fill-opacity: 1; white-space: pre;">400</text></g><g class="ytick"><text text-anchor="end" x="59" y="4.199999999999999" transform="translate(0,260.4)" style="font-family: 'Open Sans', verdana, arial, sans-serif; font-size: 12px; fill: rgb(68, 68, 68); fill-opacity: 1; white-space: pre;">500</text></g><g class="ytick"><text text-anchor="end" x="59" y="4.199999999999999" transform="translate(0,174.09)" style="font-family: 'Open Sans', verdana, arial, sans-serif; font-size: 12px; fill: rgb(68, 68, 68); fill-opacity: 1; white-space: pre;">600</text></g><g class="ytick"><text text-anchor="end" x="59" y="4.199999999999999" transform="translate(0,87.77000000000001)" style="font-family: 'Open Sans', verdana, arial, sans-serif; font-size: 12px; fill: rgb(68, 68, 68); fill-opacity: 1; white-space: pre;">700</text></g></g><g class="overaxes-above"/></g></g><g class="polarlayer"/><g class="ternarylayer"/><g class="geolayer"/><g class="funnelarealayer"/><g class="pielayer"/><g class="treemaplayer"/><g class="sunburstlayer"/><g class="glimages"/><defs id="topdefs-3c5002"><g class="clips"/><clipPath id="legend3c5002"><rect width="102" height="67" x="0" y="0"/></clipPath></defs><g class="layer-above"><g class="imagelayer"/><g class="shapelayer"/></g><g class="infolayer"><g class="legend" pointer-events="all" transform="translate(914.76, 25)"><rect class="bg" shape-rendering="crispEdges" style="stroke: rgb(68, 68, 68); stroke-opacity: 1; fill: rgb(255, 255, 255); fill-opacity: 1; stroke-width: 0px;" width="102" height="67" x="0" y="0"/><g class="scrollbox" transform="translate(0, 0)" clip-path="url('#legend3c5002')"><g class="groups"><g class="traces" style="opacity: 1;" transform="translate(0, 14.5)"><text class="legendtext user-select-none" text-anchor="start" x="40" y="4.680000000000001" style="font-family: 'Open Sans', verdana, arial, sans-serif; font-size: 12px; fill: rgb(68, 68, 68); fill-opacity: 1; white-space: pre;">positive</text><g class="layers" style="opacity: 1;"><g class="legendfill"/><g class="legendlines"><path class="js-line" d="M5,0h30" style="fill: none; stroke: rgb(31, 119, 180); stroke-opacity: 1; stroke-width: 2px;"/></g><g class="legendsymbols"><g class="legendpoints"/></g></g><rect class="legendtoggle" pointer-events="all" x="0" y="-9.5" width="96.109375" height="19" style="cursor: pointer; fill: rgb(0, 0, 0); fill-opacity: 0;"/></g><g class="traces" style="opacity: 1;" transform="translate(0, 33.5)"><text class="legendtext user-select-none" text-anchor="start" x="40" y="4.680000000000001" style="font-family: 'Open Sans', verdana, arial, sans-serif; font-size: 12px; fill: rgb(68, 68, 68); fill-opacity: 1; white-space: pre;">resolved</text><g class="layers" style="opacity: 1;"><g class="legendfill"/><g class="legendlines"><path class="js-line" d="M5,0h30" style="fill: none; stroke: rgb(255, 127, 14); stroke-opacity: 1; stroke-width: 2px;"/></g><g class="legendsymbols"><g class="legendpoints"/></g></g><rect class="legendtoggle" pointer-events="all" x="0" y="-9.5" width="96.109375" height="19" style="cursor: pointer; fill: rgb(0, 0, 0); fill-opacity: 0;"/></g><g class="traces" style="opacity: 1;" transform="translate(0, 52.5)"><text class="legendtext user-select-none" text-anchor="start" x="40" y="4.680000000000001" style="font-family: 'Open Sans', verdana, arial, sans-serif; font-size: 12px; fill: rgb(68, 68, 68); fill-opacity: 1; white-space: pre;">deceased</text><g class="layers" style="opacity: 1;"><g class="legendfill"/><g class="legendlines"><path class="js-line" d="M5,0h30" style="fill: none; stroke: rgb(44, 160, 44); stroke-opacity: 1; stroke-width: 2px;"/></g><g class="legendsymbols"><g class="legendpoints"/></g></g><rect class="legendtoggle" pointer-events="all" x="0" y="-9.5" width="96.109375" height="19" style="cursor: pointer; fill: rgb(0, 0, 0); fill-opacity: 0;"/></g></g></g><rect class="scrollbar" rx="20" ry="3" width="0" height="0" style="fill: rgb(128, 139, 164); fill-opacity: 1;" x="0" y="0"/></g><g class="g-gtitle"><text class="gtitle" x="513.5" y="12.5" text-anchor="middle" dy="0em" style="font-family: 'Open Sans', verdana, arial, sans-serif; font-size: 17px; fill: rgb(68, 68, 68); opacity: 1; font-weight: normal; white-space: pre;">Dynamics of new cases, resolved cases and deaths in Ontario (Oct 02, 2020)</text></g><g class="g-xtitle" transform="translate(0,-15)"><text class="xtitle" x="479" y="780" text-anchor="middle" style="font-family: 'Open Sans', verdana, arial, sans-serif; font-size: 14px; fill: rgb(68, 68, 68); opacity: 1; font-weight: normal; white-space: pre;">Date</text></g><g class="g-ytitle"><text class="ytitle" transform="rotate(-90,22,376.5)" x="22" y="376.5" text-anchor="middle" style="font-family: 'Open Sans', verdana, arial, sans-serif; font-size: 14px; fill: rgb(68, 68, 68); opacity: 1; font-weight: normal; white-space: pre;">Number of cases</text></g></g></svg>