<svg class="main-svg" xmlns="http://www.w3.org/2000/svg" xmlns:xlink="http://www.w3.org/1999/xlink" width="1027" height="768" style="" viewBox="0 0 1027 768"><rect x="0" y="0" width="1027" height="768" style="fill: rgb(255, 255, 255); fill-opacity: 1;"/><defs id="defs-7347a3"><g class="clips"><clipPath id="clip7347a3xyplot" class="plotclip"><rect width="838" height="703"/></clipPath><clipPath class="axesclip" id="clip7347a3x"><rect x="60" y="0" width="838" height="768"/></clipPath><clipPath class="axesclip" id="clip7347a3y"><rect x="0" y="25" width="1027" height="703"/></clipPath><clipPath class="axesclip" id="clip7347a3xy"><rect x="60" y="25" width="838" height="703"/></clipPath></g><g class="gradients"/></defs><g class="bglayer"/><g class="layer-below"><g class="imagelayer"/><g class="shapelayer"/></g><g class="cartesianlayer"><g class="subplot xy"><g class="layer-subplot"><g class="shapelayer"/><g class="imagelayer"/></g><g class="gridlayer"><g class="x"><path class="xgrid crisp" transform="translate(83.5,0)" d="M0,25v703" style="stroke: rgb(238, 238, 238); stroke-opacity: 1; stroke-width: 1px;"/><path class="xgrid crisp" transform="translate(202.93,0)" d="M0,25v703" style="stroke: rgb(238, 238, 238); stroke-opacity: 1; stroke-width: 1px;"/><path class="xgrid crisp" transform="translate(322.36,0)" d="M0,25v703" style="stroke: rgb(238, 238, 238); stroke-opacity: 1; stroke-width: 1px;"/><path class="xgrid crisp" transform="translate(443.76,0)" d="M0,25v703" style="stroke: rgb(238, 238, 238); stroke-opacity: 1; stroke-width: 1px;"/><path class="xgrid crisp" transform="translate(563.19,0)" d="M0,25v703" style="stroke: rgb(238, 238, 238); stroke-opacity: 1; stroke-width: 1px;"/><path class="xgrid crisp" transform="translate(682.63,0)" d="M0,25v703" style="stroke: rgb(238, 238, 238); stroke-opacity: 1; stroke-width: 1px;"/><path class="xgrid crisp" transform="translate(798.14,0)" d="M0,25v703" style="stroke: rgb(238, 238, 238); stroke-opacity: 1; stroke-width: 1px;"/></g><g class="y"><path class="ygrid crisp" transform="translate(0,561.26)" d="M60,0h838" style="stroke: rgb(238, 238, 238); stroke-opacity: 1; stroke-width: 1px;"/><path class="ygrid crisp" transform="translate(0,429.81)" d="M60,0h838" style="stroke: rgb(238, 238, 238); stroke-opacity: 1; stroke-width: 1px;"/><path class="ygrid crisp" transform="translate(0,298.35)" d="M60,0h838" style="stroke: rgb(238, 238, 238); stroke-opacity: 1; stroke-width: 1px;"/><path class="ygrid crisp" transform="translate(0,166.89)" d="M60,0h838" style="stroke: rgb(238, 238, 238); stroke-opacity: 1; stroke-width: 1px;"/><path class="ygrid crisp" transform="translate(0,35.44)" d="M60,0h838" style="stroke: rgb(238, 238, 238); stroke-opacity: 1; stroke-width: 1px;"/></g></g><g class="zerolinelayer"><path class="yzl zl crisp" transform="translate(0,692.72)" d="M60,0h838" style="stroke: rgb(68, 68, 68); stroke-opacity: 1; stroke-width: 1px;"/></g><path class="xlines-below"/><path class="ylines-below"/><g class="overlines-below"/><g class="xaxislayer-below"/><g class="yaxislayer-below"/><g class="overaxes-below"/><g class="plot" transform="translate(60, 25)" clip-path="url('#clip7347a3xyplot')"><g class="scatterlayer mlayer"><g class="trace scatter traceb30ec9" style="stroke-miterlimit: 2; opacity: 1;"><g class="fills"/><g class="errorbars"/><g class="lines"><path class="js-line" d="M0,667.72L19.58,667.59L25.45,666.14L27.41,667.46L29.37,667.72L39.16,666.8L41.12,667.72L48.95,664.56L50.91,662.2L52.86,663.51L54.82,666.27L60.7,659.83L62.65,660.23L64.61,661.93L66.57,657.6L70.49,655.23L72.44,645.63L74.4,650.37L76.36,648L78.32,590.29L80.28,633.54L82.23,611.72L84.19,615L86.15,606.99L88.11,618.42L90.07,614.08L92.02,627.1L93.98,617.9L95.94,595.42L97.9,604.23L99.86,604.88L101.81,613.69L103.77,615L105.73,612.38L107.69,604.23L109.64,602.78L111.6,600.15L113.56,593.58L115.52,603.96L117.48,593.05L119.43,588.06L123.35,600.68L125.31,584.38L127.27,583.59L129.22,605.15L131.18,610.27L133.14,611.98L135.1,598.7L137.06,622.1L139.01,607.38L140.97,612.38L142.93,600.54L144.89,610.67L146.85,619.08L148.8,616.84L150.76,613.56L152.72,615.27L154.68,605.01L156.64,622.23L158.59,629.07L160.55,627.23L162.51,620.26L164.47,624.47L166.43,622.37L168.38,622.89L170.34,616.32L172.3,623.02L174.26,627.76L176.21,611.59L178.17,616.45L180.13,613.43L182.09,609.75L184.05,613.56L186,607.25L187.96,614.61L189.92,629.99L191.88,629.33L193.84,617.37L195.79,622.5L197.75,625.26L199.71,624.86L201.67,614.61L203.63,609.09L205.58,623.29L207.54,620.92L209.5,622.5L211.46,607.91L213.42,613.16L215.37,635.77L217.33,637.48L219.29,634.72L221.25,641.03L223.21,643.79L225.16,632.75L227.12,641.82L229.08,643.92L231.04,643.53L233,642.74L234.95,644.98L236.91,644.32L238.87,640.64L240.83,644.71L242.79,646.55L244.74,639.32L246.7,646.29L248.66,642.87L250.62,653.13L252.57,646.69L254.53,644.32L256.49,633.93L258.45,647.08L260.41,648.13L262.36,647.61L264.32,646.03L266.28,651.81L270.2,647.47L272.15,653L274.11,652.21L276.07,645.37L278.03,652.47L279.99,650.63L281.94,650.76L283.9,652.47L287.82,654.31L289.78,653.13L291.73,653.13L293.69,645.9L295.65,646.16L297.61,649.97L299.57,641.03L301.52,646.03L303.48,654.18L305.44,642.08L307.4,649.58L309.36,649.71L311.31,652.08L313.27,653.13L315.23,657.73L317.19,656.02L319.14,650.1L321.1,651.42L323.06,652.47L325.02,656.15L326.98,655.76L328.93,656.41L330.89,655.23L332.85,656.15L334.81,658.52L336.77,657.33L338.72,652.6L340.68,663.38L342.64,655.23L344.6,657.46L348.51,653.78L350.47,657.07L354.39,651.29L356.35,654.31L358.3,657.73L360.26,650.5L362.22,653.52L364.18,652.6L370.05,656.15L372.01,652.21L373.97,651.68L375.93,648.26L377.88,653L379.84,652.73L381.8,653L383.76,650.23L385.71,650.37L387.67,648.26L389.63,645.5L391.59,646.95L393.55,642.74L395.5,643.4L397.46,648.13L399.42,645.37L401.38,639.72L403.34,637.22L405.29,640.9L407.25,626.57L409.21,634.72L411.17,626.31L413.13,629.2L415.08,615L417.04,614.22L419,619.74L422.92,604.88L424.87,623.68L426.83,613.95L428.79,613.95L430.75,610.53L432.71,603.17L434.66,575.7L436.62,594.89L438.58,585.56L440.54,596.99L442.5,571.49L444.45,581.88L446.41,593.31L448.37,586.87L450.33,595.68L452.29,591.08L456.2,544.28L458.16,561.37L460.12,582.4L462.07,561.63L464.03,569.65L465.99,572.94L467.95,564.79L469.91,574.12L471.86,561.9L473.82,581.22L475.78,575.17L477.74,559.79L479.7,563.87L481.65,557.16L483.61,559.14L485.57,539.15L487.53,530.74L489.49,555.85L491.44,559L493.4,558.08L495.36,544.94L497.32,549.93L499.28,534.29L501.23,539.29L503.19,543.1L505.15,529.69L507.11,537.97L509.07,536.52L511.02,535.87L512.98,518.91L514.94,493.14L516.9,504.45L518.86,485.26L520.81,480.26L522.77,460.67L524.73,484.21L526.69,459.89L528.64,503.66L530.6,472.24L532.56,503.53L534.52,481.44L536.48,508.66L540.39,458.97L542.35,466.06L544.31,458.83L546.27,535.08L548.22,487.23L550.18,473.43L552.14,423.87L554.1,428.2L556.06,443.19L558.01,438.2L559.97,443.32L561.93,441.22L563.89,427.94L565.85,433.73L569.76,414.8L571.72,414.66L573.68,447.4L575.64,419.27L577.59,407.04L579.55,424.79L581.51,421.5L583.47,447.27L587.38,368.66L589.34,386.53L591.3,348.02L593.26,366.68L595.21,357.88L597.17,363.27L599.13,388.64L601.09,378.25L603.05,351.17L605,346.04L606.96,383.9L608.92,386.14L610.88,404.15L612.84,412.82L614.79,332.11L616.75,283.47L618.71,230.23L620.67,342.23L622.63,225.63L624.58,278.08L626.54,237.86L628.5,256.52L630.46,238.38L632.42,205.12L634.37,109.16L636.33,215.11L638.29,149.12L640.25,228.92L642.21,286.1L644.16,278.48L646.12,230.49L648.08,273.61L650.04,265.99L652,217.87L655.91,416.24L657.87,318.7L659.83,321.73L661.79,317.78L663.74,357.61L665.7,349.99L667.66,410.33L669.62,438.98L671.57,448.19L673.53,392.58L675.49,426.23L677.45,396.52L679.41,424.79L681.36,408.88L683.32,569.78L685.28,513.65L687.24,462.25L689.2,448.19L691.15,485.26L693.11,471.98L697.03,533.37L698.99,526.8L700.94,543.49L702.9,526.27L704.86,496.83L706.82,538.76L708.78,540.99L710.73,548.88L712.69,556.37L714.65,531.27L718.57,506.29L720.52,524.83L722.48,528.64L724.44,539.55L728.36,518.12L730.31,502.35L732.27,511.94L734.23,528.11L736.19,533.24L738.14,540.73L740.1,541.78L742.06,537.05L744.02,503.4L745.98,537.58L749.89,453.31L751.85,511.94L753.81,494.72L755.77,524.17L757.72,487.49L759.68,474.74L761.64,438.06L763.6,501.03L765.56,526.53L767.51,469.48L769.47,463.57L771.43,438.33L773.39,427.28L775.35,432.28L777.3,444.37L779.26,464.49L781.22,461.2L783.18,354.85L785.14,382.59L787.09,345.26L789.05,345.91L791.01,392.45L792.97,360.64L794.93,361.03L796.88,331.58L798.84,261.65L800.8,272.17L802.76,267.96L804.71,281.5L806.67,264.8L808.63,245.09L810.59,234.57L812.55,112.05L814.5,166.48L816.46,81.95L818.42,89.18L820.38,185.27L822.34,121.39L824.29,45.14L826.25,35.15L828.21,94.31L830.17,109.03L832.13,83.13L834.08,211.7L836.04,114.02L838,183.7" style="vector-effect: non-scaling-stroke; fill: none; stroke: rgb(31, 119, 180); stroke-opacity: 1; stroke-width: 2px; opacity: 1;"/></g><g class="points"/><g class="text"/></g><g class="trace scatter trace3df21b" style="stroke-miterlimit: 2; opacity: 1;"><g class="fills"/><g class="errorbars"/><g class="lines"><path class="js-line" d="M0,667.72L76.36,667.72L78.32,612.11L80.28,654.18L82.23,647.34L84.19,649.05L86.15,642.48L88.11,641.95L90.07,637.48L92.02,644.71L93.98,644.32L95.94,631.96L97.9,637.35L99.86,632.36L101.81,630.38L107.69,639.98L109.64,623.81L111.6,629.33L113.56,620.13L115.52,625.78L117.48,623.81L119.43,627.49L121.39,629.46L123.35,613.16L125.31,607.38L127.27,614.22L129.22,612.24L131.18,603.17L133.14,598.7L135.1,610.01L137.06,582.53L139.01,589.76L140.97,586.22L142.93,593.45L144.89,586.87L146.85,601.99L148.8,631.7L150.76,609.48L152.72,622.1L154.68,612.38L156.64,616.06L158.59,616.58L160.55,620.53L162.51,633.54L164.47,608.04L166.43,620.53L168.38,610.27L174.26,631.17L176.21,633.54L180.13,625.78L182.09,633.8L184.05,617.9L186,624.21L187.96,638.67L189.92,633.54L191.88,613.3L193.84,628.15L195.79,626.97L197.75,619.08L199.71,607.64L201.67,622.63L203.63,624.21L205.58,624.73L207.54,615.53L209.5,618.42L211.46,619.87L213.42,627.62L215.37,636.17L217.33,623.42L219.29,595.29L221.25,601.33L223.21,628.02L225.16,621.58L227.12,612.11L229.08,634.59L231.04,639.06L233,621.31L234.95,638.8L236.91,635.38L238.87,639.06L240.83,634.72L244.74,644.85L246.7,637.62L248.66,642.48L250.62,638.01L252.57,644.32L254.53,644.71L256.49,656.02L258.45,648.26L262.36,640.9L264.32,644.19L266.28,644.85L268.24,643.66L270.2,646.69L272.15,644.45L274.11,641.16L276.07,645.11L278.03,644.32L279.99,632.62L281.94,653L283.9,650.76L285.86,651.68L287.82,649.97L289.78,649.18L291.73,654.44L293.69,650.37L295.65,652.86L297.61,653.78L299.57,655.62L301.52,640.51L303.48,647.87L305.44,649.71L307.4,649.31L311.31,654.31L313.27,653.78L315.23,644.85L317.19,646.03L319.14,645.63L321.1,646.29L323.06,651.68L325.02,651.16L326.98,652.47L328.93,648.53L330.89,646.82L332.85,652.21L334.81,653.65L336.77,648.26L338.72,654.31L340.68,657.86L342.64,650.1L344.6,654.7L346.56,656.81L348.51,654.44L350.47,657.2L352.43,656.81L354.39,655.89L356.35,656.02L358.3,657.73L360.26,653.78L362.22,655.89L364.18,653.52L366.14,657.46L368.09,657.86L370.05,652.6L372.01,657.6L373.97,656.81L375.93,654.18L377.88,657.46L379.84,658.12L381.8,655.62L383.76,649.71L385.71,652.08L387.67,652.47L389.63,653.78L391.59,653.13L393.55,652.08L395.5,652.08L397.46,649.84L399.42,649.05L401.38,651.42L403.34,652.08L407.25,650.23L409.21,652.34L413.13,644.19L415.08,644.58L417.04,644.45L419,642.61L420.96,644.32L422.92,641.95L424.87,633.8L426.83,630.12L428.79,630.52L430.75,623.29L432.71,629.73L434.66,624.21L436.62,625.26L438.58,607.64L440.54,600.02L442.5,611.46L444.45,610.53L446.41,597.52L450.33,595.94L452.29,574.78L454.24,576.36L456.2,572.54L458.16,575.7L460.12,575.04L464.03,585.69L465.99,564.79L467.95,565.31L469.91,573.99L471.86,578.07L473.82,577.67L475.78,587.92L477.74,585.16L479.7,573.2L481.65,570.31L483.61,571.36L485.57,585.56L487.53,570.97L489.49,578.46L491.44,576.88L493.4,566.1L495.36,559.92L497.32,563.08L499.28,562.82L501.23,554.14L503.19,559.14L505.15,557.69L507.11,543.49L509.07,543.1L511.02,542.97L512.98,555.72L514.94,552.43L516.9,559.79L518.86,565.05L520.81,551.25L522.77,547.17L524.73,533.9L526.69,535.87L528.64,528.11L530.6,537.31L532.56,518.52L534.52,471.19L536.48,486.83L538.43,481.71L540.39,488.54L544.31,472.64L546.27,525.48L548.22,473.69L550.18,488.28L554.1,469.22L556.06,478.03L558.01,494.2L559.97,487.23L561.93,446.08L563.89,465.14L565.85,463.57L567.8,454.23L569.76,460.81L571.72,482.1L573.68,464.09L575.64,414.8L577.59,430.57L579.55,437.28L581.51,415.59L583.47,447.13L585.43,465.93L587.38,429.78L589.34,399.15L591.3,403.62L593.26,405.86L595.21,422.55L597.17,413.88L599.13,450.29L601.09,417.95L603.05,372.86L605,403.1L606.96,373.65L608.92,416.24L610.88,404.15L612.84,384.96L614.79,374.18L616.75,373.65L618.71,376.81L620.67,344.34L622.63,397.71L624.58,381.8L626.54,395.08L628.5,402.83L630.46,272.69L632.42,302.8L634.37,307.79L636.33,284.52L638.29,339.6L640.25,305.42L642.21,226.94L644.16,221.82L646.12,195.4L650.04,245.48L652,263.1L653.95,296.22L655.91,290.04L657.87,179.49L659.83,274.66L661.79,224.05L663.74,270.06L669.62,370.5L671.57,309.5L673.53,340.26L675.49,286.49L681.36,387.45L683.32,365.76L685.28,438.33L687.24,410.59L689.2,374.18L691.15,431.62L693.11,413.09L695.07,444.24L697.03,485.26L698.99,443.06L700.94,491.04L702.9,481.71L704.86,479.21L706.82,505.37L710.73,521.54L712.69,476.32L714.65,499.85L716.61,502.74L718.57,495.12L720.52,517.86L722.48,525.35L724.44,536L726.4,498.01L728.36,523.91L730.31,535.34L732.27,538.37L734.23,532.45L736.19,544.28L738.14,539.02L740.1,524.43L742.06,526.8L744.02,515.36L745.98,516.28L747.93,522.46L749.89,537.05L751.85,539.94L753.81,508.39L755.77,521.8L757.72,519.96L759.68,516.41L761.64,514.31L763.6,521.28L765.56,525.09L767.51,472.11L769.47,505.24L771.43,497.35L773.39,501.95L775.35,489.86L777.3,513.26L779.26,500.64L781.22,466.46L783.18,493.01L785.14,447.53L787.09,473.03L789.05,464.88L791.01,467.38L792.97,473.56L794.93,408.35L796.88,429.26L798.84,414.66L800.8,428.6L802.76,418.08L804.71,436.22L806.67,407.96L808.63,351.3L810.59,329.09L812.55,320.54L814.5,349.33L816.46,323.7L818.42,346.31L820.38,329.48L822.34,252.32L824.29,250.48L826.25,253.5L828.21,193.03L830.17,228.92L832.13,253.24L834.08,224.84L836.04,115.08L838,63.41" style="vector-effect: non-scaling-stroke; fill: none; stroke: rgb(255, 127, 14); stroke-opacity: 1; stroke-width: 2px; opacity: 1;"/></g><g class="points"/><g class="text"/></g><g class="trace scatter trace42fb0a" style="stroke-miterlimit: 2; opacity: 1;"><g class="fills"/><g class="errorbars"/><g class="lines"><path class="js-line" d="M0,667.72L78.32,667.19L80.28,666.4L82.23,667.19L84.19,665.62L86.15,665.88L88.11,664.17L90.07,664.43L92.02,666.01L93.98,664.96L95.94,664.96L97.9,664.3L99.86,664.83L101.81,663.64L103.77,664.96L105.73,665.48L107.69,662.07L109.64,661.01L111.6,662.72L113.56,660.49L115.52,662.99L117.48,662.59L119.43,663.64L121.39,662.72L123.35,662.85L125.31,660.62L127.27,661.15L129.22,661.41L131.18,664.56L133.14,660.23L135.1,659.96L137.06,661.8L139.01,656.41L140.97,662.59L142.93,660.49L144.89,662.46L146.85,656.68L148.8,659.7L150.76,658.78L152.72,661.41L154.68,659.44L156.64,659.96L158.59,663.12L160.55,663.12L162.51,660.36L164.47,662.46L166.43,663.38L168.38,664.17L170.34,663.38L172.3,664.7L174.26,664.7L176.21,665.75L178.17,662.07L180.13,663.64L182.09,664.04L187.96,663.91L189.92,664.96L191.88,663.51L193.84,663.25L195.79,662.33L197.75,665.48L199.71,665.22L201.67,666.4L205.58,665.22L207.54,661.8L209.5,665.75L211.46,663.12L213.42,665.22L215.37,664.56L217.33,665.88L219.29,666.27L227.12,666.14L229.08,666.67L233,666.14L234.95,667.32L236.91,666.27L238.87,663.64L240.83,666.27L242.79,667.32L246.7,666.14L248.66,666.4L250.62,667.32L252.57,666.67L260.41,667.19L262.36,667.19L270.2,667.72L272.15,667.46L274.11,666.54L276.07,667.32L279.99,666.93L281.94,667.32L285.86,667.59L287.82,666.54L289.78,667.06L291.73,666.54L293.69,667.46L295.65,667.32L303.48,667.72L305.44,667.32L311.31,667.59L313.27,667.19L317.19,667.32L319.14,667.32L332.85,667.72L334.81,667.59L342.64,667.59L344.6,667.72L354.39,667.19L356.35,667.85L362.22,667.59L364.18,667.72L373.97,666.93L375.93,667.72L385.71,667.72L387.67,667.85L399.42,667.59L401.38,667.85L409.21,667.19L411.17,667.46L422.92,667.32L424.87,667.32L430.75,667.72L432.71,667.46L440.54,667.32L442.5,657.73L446.41,666.8L448.37,667.06L450.33,666.8L452.29,667.59L458.16,666.8L460.12,667.59L464.03,666.54L465.99,667.72L471.86,666.4L473.82,667.06L477.74,667.32L479.7,666.54L493.4,667.06L495.36,666.4L503.19,666.8L505.15,665.88L509.07,666.01L511.02,665.88L514.94,666.01L516.9,666.14L524.73,665.22L526.69,665.09L528.64,663.91L530.6,666.4L532.56,666.14L534.52,663.51L536.48,664.04L538.43,666.67L540.39,664.96L542.35,665.88L544.31,665.22L546.27,665.88L548.22,663.12L550.18,664.96L552.14,665.09L554.1,663.91L556.06,664.56L558.01,666.67L559.97,666.8L561.93,663.12L563.89,665.88L565.85,664.43L569.76,665.75L571.72,664.3L573.68,666.4L575.64,664.04L579.55,661.8L581.51,665.48L583.47,665.62L585.43,664.7L587.38,665.09L589.34,662.07L591.3,664.7L593.26,662.46L595.21,664.17L597.17,664.43L599.13,665.48L601.09,664.96L603.05,662.33L605,661.28L608.92,662.72L610.88,665.35L612.84,662.85L614.79,662.33L616.75,665.22L618.71,660.36L622.63,661.93L624.58,664.43L626.54,663.91L628.5,661.01L630.46,662.85L632.42,656.02L634.37,664.3L636.33,662.46L638.29,659.7L640.25,663.91L642.21,662.33L644.16,657.99L646.12,659.57L648.08,654.57L650.04,661.01L652,658.65L653.95,664.56L655.91,661.67L657.87,656.02L659.83,661.67L661.79,656.28L663.74,660.88L667.66,662.07L669.62,659.44L671.57,661.28L673.53,660.36L675.49,660.09L677.45,658.12L679.41,662.07L681.36,662.99L683.32,665.88L685.28,658.91L687.24,656.15L689.2,661.8L691.15,661.8L693.11,664.83L695.07,663.38L697.03,665.48L698.99,662.33L700.94,665.35L704.86,665.22L706.82,662.2L708.78,666.01L710.73,666.01L712.69,666.4L714.65,661.93L716.61,661.54L718.57,664.04L720.52,666.01L722.48,666.27L726.4,666.54L728.36,664.7L730.31,664.04L732.27,665.62L734.23,665.09L736.19,666.93L740.1,665.48L742.06,666.4L744.02,664.83L745.98,666.93L747.93,665.75L749.89,666.4L751.85,666.93L753.81,665.62L755.77,666.4L757.72,665.35L759.68,666.27L761.64,665.75L763.6,666.54L765.56,666.27L769.47,665.75L771.43,666.4L773.39,666.27L775.35,665.35L777.3,667.32L779.26,666.54L781.22,666.4L783.18,665.48L785.14,666.14L787.09,665.62L789.05,665.22L791.01,666.4L798.84,664.7L800.8,665.62L806.67,666.67L808.63,665.48L816.46,664.96L818.42,665.75L820.38,665.75L822.34,664.04L826.25,664.43L828.21,663.25L830.17,665.35L832.13,665.22L834.08,664.83L836.04,663.51L838,662.46" style="vector-effect: non-scaling-stroke; fill: none; stroke: rgb(44, 160, 44); stroke-opacity: 1; stroke-width: 2px; opacity: 1;"/></g><g class="points"/><g class="text"/></g></g></g><g class="overplot"/><path class="xlines-above crisp" style="fill: none;" d="M0,0"/><path class="ylines-above crisp" style="fill: none;" d="M0,0"/><g class="overlines-above"/><g class="xaxislayer-above"><g class="xtick"><text text-anchor="middle" x="0" y="741" transform="translate(83.5,0)" style="font-family: 'Open Sans', verdana, arial, sans-serif; font-size: 12px; fill: rgb(68, 68, 68); fill-opacity: 1; white-space: pre;">Mar 2020</text></g><g class="xtick"><text text-anchor="middle" x="0" y="741" transform="translate(202.93,0)" style="font-family: 'Open Sans', verdana, arial, sans-serif; font-size: 12px; fill: rgb(68, 68, 68); fill-opacity: 1; white-space: pre;">May 2020</text></g><g class="xtick"><text text-anchor="middle" x="0" y="741" transform="translate(322.36,0)" style="font-family: 'Open Sans', verdana, arial, sans-serif; font-size: 12px; fill: rgb(68, 68, 68); fill-opacity: 1; white-space: pre;">Jul 2020</text></g><g class="xtick"><text text-anchor="middle" x="0" y="741" transform="translate(443.76,0)" style="font-family: 'Open Sans', verdana, arial, sans-serif; font-size: 12px; fill: rgb(68, 68, 68); fill-opacity: 1; white-space: pre;">Sep 2020</text></g><g class="xtick"><text text-anchor="middle" x="0" y="741" transform="translate(563.19,0)" style="font-family: 'Open Sans', verdana, arial, sans-serif; font-size: 12px; fill: rgb(68, 68, 68); fill-opacity: 1; white-space: pre;">Nov 2020</text></g><g class="xtick"><text text-anchor="middle" x="0" y="741" transform="translate(682.63,0)" style="font-family: 'Open Sans', verdana, arial, sans-serif; font-size: 12px; fill: rgb(68, 68, 68); fill-opacity: 1; white-space: pre;">Jan 2021</text></g><g class="xtick"><text text-anchor="middle" x="0" y="741" transform="translate(798.14,0)" style="font-family: 'Open Sans', verdana, arial, sans-serif; font-size: 12px; fill: rgb(68, 68, 68); fill-opacity: 1; white-space: pre;">Mar 2021</text></g></g><g class="yaxislayer-above"><g class="ytick"><text text-anchor="end" x="59" y="4.199999999999999" transform="translate(0,692.72)" style="font-family: 'Open Sans', verdana, arial, sans-serif; font-size: 12px; fill: rgb(68, 68, 68); fill-opacity: 1; white-space: pre;">0</text></g><g class="ytick"><text text-anchor="end" x="59" y="4.199999999999999" transform="translate(0,561.26)" style="font-family: 'Open Sans', verdana, arial, sans-serif; font-size: 12px; fill: rgb(68, 68, 68); fill-opacity: 1; white-space: pre;">1000</text></g><g class="ytick"><text text-anchor="end" x="59" y="4.199999999999999" transform="translate(0,429.81)" style="font-family: 'Open Sans', verdana, arial, sans-serif; font-size: 12px; fill: rgb(68, 68, 68); fill-opacity: 1; white-space: pre;">2000</text></g><g class="ytick"><text text-anchor="end" x="59" y="4.199999999999999" transform="translate(0,298.35)" style="font-family: 'Open Sans', verdana, arial, sans-serif; font-size: 12px; fill: rgb(68, 68, 68); fill-opacity: 1; white-space: pre;">3000</text></g><g class="ytick"><text text-anchor="end" x="59" y="4.199999999999999" transform="translate(0,166.89)" style="font-family: 'Open Sans', verdana, arial, sans-serif; font-size: 12px; fill: rgb(68, 68, 68); fill-opacity: 1; white-space: pre;">4000</text></g><g class="ytick"><text text-anchor="end" x="59" y="4.199999999999999" transform="translate(0,35.44)" style="font-family: 'Open Sans', verdana, arial, sans-serif; font-size: 12px; fill: rgb(68, 68, 68); fill-opacity: 1; white-space: pre;">5000</text></g></g><g class="overaxes-above"/></g></g><g class="polarlayer"/><g class="ternarylayer"/><g class="geolayer"/><g class="funnelarealayer"/><g class="pielayer"/><g class="treemaplayer"/><g class="sunburstlayer"/><g class="glimages"/><defs id="topdefs-7347a3"><g class="clips"/><clipPath id="legend7347a3"><rect width="102" height="67" x="0" y="0"/></clipPath></defs><g class="layer-above"><g class="imagelayer"/><g class="shapelayer"/></g><g class="infolayer"><g class="legend" pointer-events="all" transform="translate(914.76, 25)"><rect class="bg" shape-rendering="crispEdges" style="stroke: rgb(68, 68, 68); stroke-opacity: 1; fill: rgb(255, 255, 255); fill-opacity: 1; stroke-width: 0px;" width="102" height="67" x="0" y="0"/><g class="scrollbox" transform="translate(0, 0)" clip-path="url('#legend7347a3')"><g class="groups"><g class="traces" style="opacity: 1;" transform="translate(0, 14.5)"><text class="legendtext" text-anchor="start" x="40" y="4.680000000000001" style="font-family: 'Open Sans', verdana, arial, sans-serif; font-size: 12px; fill: rgb(68, 68, 68); fill-opacity: 1; white-space: pre;">positive</text><g class="layers" style="opacity: 1;"><g class="legendfill"/><g class="legendlines"><path class="js-line" d="M5,0h30" style="fill: none; stroke: rgb(31, 119, 180); stroke-opacity: 1; stroke-width: 2px;"/></g><g class="legendsymbols"><g class="legendpoints"/></g></g><rect class="legendtoggle" x="0" y="-9.5" width="96.109375" height="19" style="fill: rgb(0, 0, 0); fill-opacity: 0;"/></g><g class="traces" style="opacity: 1;" transform="translate(0, 33.5)"><text class="legendtext" text-anchor="start" x="40" y="4.680000000000001" style="font-family: 'Open Sans', verdana, arial, sans-serif; font-size: 12px; fill: rgb(68, 68, 68); fill-opacity: 1; white-space: pre;">resolved</text><g class="layers" style="opacity: 1;"><g class="legendfill"/><g class="legendlines"><path class="js-line" d="M5,0h30" style="fill: none; stroke: rgb(255, 127, 14); stroke-opacity: 1; stroke-width: 2px;"/></g><g class="legendsymbols"><g class="legendpoints"/></g></g><rect class="legendtoggle" x="0" y="-9.5" width="96.109375" height="19" style="fill: rgb(0, 0, 0); fill-opacity: 0;"/></g><g class="traces" style="opacity: 1;" transform="translate(0, 52.5)"><text class="legendtext" text-anchor="start" x="40" y="4.680000000000001" style="font-family: 'Open Sans', verdana, arial, sans-serif; font-size: 12px; fill: rgb(68, 68, 68); fill-opacity: 1; white-space: pre;">deceased</text><g class="layers" style="opacity: 1;"><g class="legendfill"/><g class="legendlines"><path class="js-line" d="M5,0h30" style="fill: none; stroke: rgb(44, 160, 44); stroke-opacity: 1; stroke-width: 2px;"/></g><g class="legendsymbols"><g class="legendpoints"/></g></g><rect class="legendtoggle" x="0" y="-9.5" width="96.109375" height="19" style="fill: rgb(0, 0, 0); fill-opacity: 0;"/></g></g></g><rect class="scrollbar" rx="20" ry="3" width="0" height="0" style="fill: rgb(128, 139, 164); fill-opacity: 1;" x="0" y="0"/></g><g class="g-gtitle"><text class="gtitle" x="513.5" y="12.5" text-anchor="middle" dy="0em" style="font-family: 'Open Sans', verdana, arial, sans-serif; font-size: 17px; fill: rgb(68, 68, 68); opacity: 1; font-weight: normal; white-space: pre;">Dynamics of new cases, resolved cases and deaths in Ontario (Apr 22, 2021)</text></g><g class="g-xtitle" transform="translate(0,-15)"><text class="xtitle" x="479" y="780" text-anchor="middle" style="font-family: 'Open Sans', verdana, arial, sans-serif; font-size: 14px; fill: rgb(68, 68, 68); opacity: 1; font-weight: normal; white-space: pre;">Date</text></g><g class="g-ytitle"><text class="ytitle" transform="rotate(-90,22,376.5)" x="22" y="376.5" text-anchor="middle" style="font-family: 'Open Sans', verdana, arial, sans-serif; font-size: 14px; fill: rgb(68, 68, 68); opacity: 1; font-weight: normal; white-space: pre;">Number of cases</text></g></g></svg>