<svg class="main-svg" xmlns="http://www.w3.org/2000/svg" xmlns:xlink="http://www.w3.org/1999/xlink" width="1027" height="768" style="" viewBox="0 0 1027 768"><rect x="0" y="0" width="1027" height="768" style="fill: rgb(255, 255, 255); fill-opacity: 1;"/><defs id="defs-f66e2a"><g class="clips"><clipPath id="clipf66e2axyplot" class="plotclip"><rect width="838" height="703"/></clipPath><clipPath class="axesclip" id="clipf66e2ax"><rect x="60" y="0" width="838" height="768"/></clipPath><clipPath class="axesclip" id="clipf66e2ay"><rect x="0" y="25" width="1027" height="703"/></clipPath><clipPath class="axesclip" id="clipf66e2axy"><rect x="60" y="25" width="838" height="703"/></clipPath></g><g class="gradients"/></defs><g class="bglayer"/><g class="layer-below"><g class="imagelayer"/><g class="shapelayer"/></g><g class="cartesianlayer"><g class="subplot xy"><g class="layer-subplot"><g class="shapelayer"/><g class="imagelayer"/></g><g class="gridlayer"><g class="x"><path class="xgrid crisp" transform="translate(90.66,0)" d="M0,25v703" style="stroke: rgb(238, 238, 238); stroke-opacity: 1; stroke-width: 1px;"/><path class="xgrid crisp" transform="translate(246.51,0)" d="M0,25v703" style="stroke: rgb(238, 238, 238); stroke-opacity: 1; stroke-width: 1px;"/><path class="xgrid crisp" transform="translate(402.35,0)" d="M0,25v703" style="stroke: rgb(238, 238, 238); stroke-opacity: 1; stroke-width: 1px;"/><path class="xgrid crisp" transform="translate(560.76,0)" d="M0,25v703" style="stroke: rgb(238, 238, 238); stroke-opacity: 1; stroke-width: 1px;"/><path class="xgrid crisp" transform="translate(716.6,0)" d="M0,25v703" style="stroke: rgb(238, 238, 238); stroke-opacity: 1; stroke-width: 1px;"/><path class="xgrid crisp" transform="translate(872.45,0)" d="M0,25v703" style="stroke: rgb(238, 238, 238); stroke-opacity: 1; stroke-width: 1px;"/></g><g class="y"><path class="ygrid crisp" transform="translate(0,618.27)" d="M60,0h838" style="stroke: rgb(238, 238, 238); stroke-opacity: 1; stroke-width: 1px;"/><path class="ygrid crisp" transform="translate(0,543.83)" d="M60,0h838" style="stroke: rgb(238, 238, 238); stroke-opacity: 1; stroke-width: 1px;"/><path class="ygrid crisp" transform="translate(0,469.4)" d="M60,0h838" style="stroke: rgb(238, 238, 238); stroke-opacity: 1; stroke-width: 1px;"/><path class="ygrid crisp" transform="translate(0,394.96)" d="M60,0h838" style="stroke: rgb(238, 238, 238); stroke-opacity: 1; stroke-width: 1px;"/><path class="ygrid crisp" transform="translate(0,320.52)" d="M60,0h838" style="stroke: rgb(238, 238, 238); stroke-opacity: 1; stroke-width: 1px;"/><path class="ygrid crisp" transform="translate(0,246.09)" d="M60,0h838" style="stroke: rgb(238, 238, 238); stroke-opacity: 1; stroke-width: 1px;"/><path class="ygrid crisp" transform="translate(0,171.65)" d="M60,0h838" style="stroke: rgb(238, 238, 238); stroke-opacity: 1; stroke-width: 1px;"/><path class="ygrid crisp" transform="translate(0,97.22)" d="M60,0h838" style="stroke: rgb(238, 238, 238); stroke-opacity: 1; stroke-width: 1px;"/></g></g><g class="zerolinelayer"><path class="yzl zl crisp" transform="translate(0,692.7)" d="M60,0h838" style="stroke: rgb(68, 68, 68); stroke-opacity: 1; stroke-width: 1px;"/></g><path class="xlines-below"/><path class="ylines-below"/><g class="overlines-below"/><g class="xaxislayer-below"/><g class="yaxislayer-below"/><g class="overaxes-below"/><g class="plot" transform="translate(60, 25)" clip-path="url('#clipf66e2axyplot')"><g class="scatterlayer mlayer"><g class="trace scatter trace71e2bd" style="stroke-miterlimit: 2; opacity: 1;"><g class="fills"/><g class="errorbars"/><g class="lines"><path class="js-line" d="M0,667.7L25.55,667.55L33.21,665.91L35.77,667.4L38.32,667.7L51.1,666.66L53.65,667.7L63.87,664.13L66.43,661.45L68.98,662.94L71.54,666.06L76.65,661.3L79.2,658.77L81.76,659.22L84.31,661.15L86.87,656.24L89.42,655.34L91.98,653.56L94.53,642.69L97.09,648.05L99.64,645.37L102.2,580.02L104.75,628.99L107.3,604.28L109.86,608L112.41,598.92L114.97,611.87L117.52,606.96L120.08,621.7L122.63,611.28L125.19,585.82L127.74,595.8L130.3,596.54L132.85,606.52L135.41,608L137.96,605.03L140.52,595.8L143.07,594.16L145.63,591.18L148.18,583.74L150.74,595.5L153.29,583.14L155.85,577.49L160.96,591.78L163.51,573.32L166.07,572.42L168.62,596.84L171.18,602.64L173.73,604.58L176.29,589.54L178.84,616.04L181.4,599.37L183.95,605.03L186.51,591.63L189.06,603.09L191.62,612.62L194.17,610.09L196.73,606.37L199.28,608.3L201.84,596.69L204.39,616.19L206.95,623.93L209.5,621.85L212.05,613.96L214.61,618.72L217.16,616.34L219.72,616.94L222.27,609.49L224.83,617.09L227.38,622.44L229.94,604.13L232.49,609.64L235.05,606.22L237.6,602.05L240.16,606.37L242.71,599.22L245.27,607.56L247.82,624.98L250.38,624.23L252.93,610.68L255.49,616.49L258.04,619.62L260.6,619.17L263.15,607.56L265.71,601.3L268.26,617.38L270.82,614.7L273.37,616.49L275.93,599.97L278.48,605.92L281.04,631.53L283.59,633.46L286.15,630.33L288.7,637.48L291.26,640.61L293.81,628.1L296.37,638.37L298.92,640.76L301.48,640.31L304.03,639.42L306.59,641.95L309.14,641.2L311.7,637.03L314.25,641.65L316.8,643.73L319.36,635.55L321.91,643.44L324.47,639.56L327.02,651.18L329.58,643.88L332.13,641.2L334.69,629.44L337.24,644.33L339.8,645.52L342.35,644.92L344.91,643.14L347.46,649.69L352.57,644.78L355.13,651.03L357.68,650.13L360.24,642.39L362.79,650.43L365.35,648.35L367.9,648.5L370.46,650.43L375.57,652.52L378.12,651.18L380.68,651.18L383.23,642.99L385.79,643.29L388.34,647.6L390.9,637.48L393.45,643.14L396.01,652.37L398.56,638.67L401.12,647.16L403.67,647.31L406.23,649.99L408.78,651.18L411.34,656.39L413.89,654.45L416.45,647.75L419,649.24L421.55,650.43L424.11,654.6L426.66,654.15L429.22,654.9L431.77,653.56L434.33,654.6L436.88,657.28L439.44,655.94L441.99,650.58L444.55,662.79L447.1,653.56L449.66,656.09L454.77,651.92L457.32,655.64L459.88,652.96L462.43,649.09L467.54,656.39L470.1,648.2L472.65,651.62L475.21,650.58L482.87,654.6L485.43,650.13L487.98,649.54L490.54,645.67L493.09,651.03L495.65,650.73L498.2,651.03L500.76,647.9L503.31,648.05L505.87,645.67L508.42,642.54L510.98,644.18L513.53,639.42L516.09,640.16L518.64,645.52L521.2,642.39L523.75,635.99L526.3,633.16L528.86,637.33L531.41,621.1L533.97,630.33L536.52,620.81L539.08,624.08L541.63,608L544.19,607.11L546.74,613.36L551.85,596.54L554.41,617.83L556.96,606.81L559.52,606.81L562.07,602.94L564.63,594.61L567.18,563.49L569.74,585.23L572.29,574.66L574.85,587.61L577.4,558.73L579.96,570.49L582.51,583.44L585.07,576.15L587.62,586.12L590.18,580.91L592.73,549.05L595.29,527.91L600.4,571.08L602.95,547.56L605.51,556.64L608.06,560.37L610.62,551.14L613.17,561.71L615.73,547.86L618.28,569.74L620.84,562.9L623.39,545.48L625.95,550.09L628.5,542.5L631.05,544.73L633.61,522.11L636.16,512.58L638.72,541.01L641.27,544.59L643.83,543.54L646.38,528.66L648.94,534.31L651.49,516.6L654.05,522.25L656.6,526.57L659.16,511.39L661.71,520.77L664.27,519.13L666.82,518.38L669.38,499.18L671.93,470L674.49,482.8L677.04,461.07L679.6,455.41L682.15,433.23L684.71,459.88L687.26,432.34L689.82,481.91L692.37,446.33L694.93,481.76L697.48,456.75L700.04,487.57L705.15,431.29L707.7,439.33L710.26,431.15L712.81,517.49L715.37,463.3L717.92,447.67L720.48,391.55L723.03,396.46L725.59,413.43L728.14,407.77L730.7,413.58L733.25,411.2L735.8,396.16L738.36,402.71L743.47,381.27L746.02,381.13L748.58,418.19L751.13,386.34L753.69,372.49L756.24,392.59L758.8,388.87L761.35,418.05L766.46,329.02L769.02,349.27L771.57,305.65L774.13,326.79L776.68,316.81L779.24,322.92L781.79,351.65L784.35,339.89L786.9,309.22L789.46,303.41L792.01,346.29L794.57,348.82L797.12,369.22L799.68,379.04L802.23,287.63L804.79,232.55L807.34,172.26L809.9,299.1L812.45,167.05L815.01,226.45L817.56,180.89L820.12,202.03L822.67,181.49L825.23,143.83L827.78,35.15L830.34,155.14L832.89,80.41L835.45,170.77L838,235.53" style="vector-effect: non-scaling-stroke; fill: none; stroke: rgb(31, 119, 180); stroke-opacity: 1; stroke-width: 2px; opacity: 1;"/></g><g class="points"/><g class="text"/></g><g class="trace scatter traceb16d48" style="stroke-miterlimit: 2; opacity: 1;"><g class="fills"/><g class="errorbars"/><g class="lines"><path class="js-line" d="M0,667.7L99.64,667.7L102.2,604.73L104.75,652.37L107.3,644.63L109.86,646.56L112.41,639.12L114.97,638.52L117.52,633.46L120.08,641.65L122.63,641.2L125.19,627.21L127.74,633.31L130.3,627.65L132.85,625.42L137.96,632.57L140.52,636.29L143.07,617.98L145.63,624.23L148.18,613.81L150.74,620.21L153.29,617.98L155.85,622.15L158.4,624.38L160.96,605.92L163.51,599.37L166.07,607.11L168.62,604.88L171.18,594.61L173.73,589.54L176.29,602.35L178.84,571.23L181.4,579.42L183.95,575.4L186.51,583.59L189.06,576.15L191.62,593.27L194.17,626.91L196.73,601.75L199.28,616.04L201.84,605.03L204.39,609.19L206.95,609.79L209.5,614.26L212.05,628.99L214.61,600.11L217.16,614.26L219.72,602.64L222.27,611.28L224.83,617.09L227.38,626.32L229.94,628.99L232.49,624.23L235.05,620.21L237.6,629.29L240.16,611.28L242.71,618.42L245.27,634.8L247.82,628.99L250.38,606.07L252.93,622.89L255.49,621.55L258.04,612.62L260.6,599.67L263.15,616.64L265.71,618.42L268.26,619.02L270.82,608.6L273.37,611.87L275.93,613.51L278.48,622.3L281.04,631.97L283.59,617.53L286.15,585.67L288.7,592.52L291.26,622.74L293.81,615.45L296.37,604.73L298.92,630.19L301.48,635.25L304.03,615.15L306.59,634.95L309.14,631.08L311.7,635.25L314.25,630.33L319.36,641.8L321.91,633.61L324.47,639.12L327.02,634.06L329.58,641.2L332.13,641.65L334.69,654.45L337.24,645.67L339.8,640.61L342.35,637.33L344.91,641.05L347.46,641.8L350.02,640.46L352.57,643.88L355.13,641.35L357.68,637.63L360.24,642.1L362.79,641.2L365.35,627.95L367.9,651.03L370.46,648.5L373.01,649.54L375.57,647.6L378.12,646.71L380.68,652.67L383.23,648.05L385.79,650.88L388.34,651.92L390.9,654.01L393.45,636.88L396.01,645.22L398.56,647.31L401.12,646.86L403.67,649.99L406.23,652.52L408.78,651.92L411.34,641.8L413.89,643.14L416.45,642.69L419,643.44L421.55,649.54L424.11,648.94L426.66,650.43L429.22,645.97L431.77,644.03L434.33,650.13L436.88,651.77L439.44,645.67L441.99,652.52L444.55,656.54L447.1,647.75L449.66,652.96L452.21,655.34L454.77,652.67L457.32,655.79L459.88,655.34L462.43,654.3L464.99,654.45L467.54,656.39L470.1,651.92L472.65,654.3L475.21,651.62L477.76,656.09L480.32,656.54L482.87,650.58L485.43,656.24L487.98,655.34L490.54,652.37L493.09,656.09L495.65,656.83L498.2,654.01L500.76,647.31L503.31,649.99L505.87,650.43L508.42,651.92L510.98,651.18L513.53,649.99L516.09,649.99L518.64,647.45L521.2,646.56L523.75,649.24L526.3,649.99L531.41,647.9L533.97,650.28L536.52,644.78L539.08,641.05L544.19,641.35L546.74,639.27L549.3,641.2L551.85,638.52L554.41,629.29L556.96,625.12L559.52,625.57L562.07,617.38L564.63,624.68L567.18,618.42L569.74,619.62L572.29,599.67L574.85,591.03L577.4,603.98L579.96,602.94L582.51,588.2L587.62,586.42L590.18,562.45L592.73,564.24L595.29,559.92L597.84,563.49L600.4,562.75L605.51,574.81L608.06,551.14L610.62,551.73L613.17,561.56L615.73,566.17L618.28,565.72L620.84,577.34L623.39,574.21L625.95,560.66L628.5,557.39L631.05,558.58L633.61,574.66L636.16,558.13L638.72,566.62L641.27,564.83L643.83,552.62L646.38,545.63L648.94,549.2L651.49,548.9L654.05,539.08L656.6,544.73L659.16,543.1L661.71,527.02L664.27,526.57L666.82,526.42L669.38,540.86L671.93,537.14L674.49,545.48L677.04,551.43L679.6,535.8L682.15,531.19L684.71,516.15L687.26,518.38L689.82,509.6L692.37,520.02L694.93,498.73L697.48,445.14L700.04,462.86L702.59,457.05L705.15,464.79L710.26,446.78L712.81,506.62L715.37,447.97L717.92,464.49L720.48,451.69L723.03,442.91L725.59,452.88L728.14,471.19L730.7,463.3L733.25,416.71L735.8,438.29L738.36,436.51L740.91,425.94L743.47,433.38L746.02,457.5L748.58,437.1L751.13,381.27L753.69,399.14L756.24,406.73L758.8,382.17L761.35,417.9L763.91,439.18L769.02,363.56L771.57,368.62L774.13,371.15L776.68,390.06L779.24,380.23L781.79,421.47L784.35,384.85L786.9,333.78L789.46,368.02L792.01,334.68L794.57,382.91L797.12,369.22L799.68,347.48L802.23,335.27L804.79,334.68L807.34,338.25L809.9,301.48L812.45,361.92L815.01,343.91L817.56,358.94L820.12,367.73L822.67,220.35L825.23,254.44L827.78,260.09L830.34,233.74L832.89,296.12L835.45,257.41L838,168.54" style="vector-effect: non-scaling-stroke; fill: none; stroke: rgb(255, 127, 14); stroke-opacity: 1; stroke-width: 2px; opacity: 1;"/></g><g class="points"/><g class="text"/></g><g class="trace scatter tracea5d2f5" style="stroke-miterlimit: 2; opacity: 1;"><g class="fills"/><g class="errorbars"/><g class="lines"><path class="js-line" d="M0,667.7L102.2,667.11L104.75,666.21L107.3,667.11L109.86,665.32L112.41,665.62L114.97,663.68L117.52,663.98L120.08,665.77L122.63,664.57L125.19,664.57L127.74,663.83L130.3,664.43L132.85,663.09L135.41,664.57L137.96,665.17L140.52,661.3L143.07,660.11L145.63,662.04L148.18,659.51L150.74,662.34L153.29,661.9L155.85,663.09L158.4,662.04L160.96,662.19L163.51,659.66L166.07,660.26L168.62,660.56L171.18,664.13L173.73,659.22L176.29,658.92L178.84,661L181.4,654.9L183.95,661.9L186.51,659.51L189.06,661.75L191.62,655.2L194.17,658.62L196.73,657.58L199.28,660.56L201.84,658.32L204.39,658.92L206.95,662.49L209.5,662.49L212.05,659.36L214.61,661.75L217.16,662.79L219.72,663.68L222.27,662.79L224.83,664.28L227.38,664.28L229.94,665.47L232.49,661.3L235.05,663.09L237.6,663.53L245.27,663.38L247.82,664.57L250.38,662.94L252.93,662.64L255.49,661.6L258.04,665.17L260.6,664.87L263.15,666.21L268.26,664.87L270.82,661L273.37,665.47L275.93,662.49L278.48,664.87L281.04,664.13L283.59,665.62L286.15,666.06L296.37,665.91L298.92,666.51L304.03,665.91L306.59,667.25L309.14,666.06L311.7,663.09L314.25,666.06L316.8,667.25L321.91,665.91L324.47,666.21L327.02,667.25L329.58,666.51L339.8,667.11L342.35,667.11L352.57,667.7L355.13,667.4L357.68,666.36L360.24,667.25L365.35,666.81L367.9,667.25L373.01,667.55L375.57,666.36L378.12,666.96L380.68,666.36L383.23,667.4L385.79,667.25L396.01,667.7L398.56,667.25L406.23,667.55L408.78,667.11L413.89,667.25L416.45,667.25L434.33,667.7L436.88,667.55L447.1,667.55L449.66,667.7L462.43,667.11L464.99,667.85L472.65,667.55L475.21,667.7L487.98,666.81L490.54,667.7L503.31,667.7L505.87,667.85L521.2,667.55L523.75,667.85L533.97,667.11L536.52,667.4L551.85,667.25L554.41,667.25L562.07,667.7L564.63,667.4L574.85,667.25L577.4,656.39L582.51,666.66L585.07,666.96L587.62,666.66L590.18,667.55L597.84,666.66L600.4,667.55L605.51,666.36L608.06,667.7L615.73,666.21L618.28,666.96L623.39,667.25L625.95,666.36L643.83,666.96L646.38,666.21L656.6,666.66L659.16,665.62L664.27,665.77L666.82,665.62L671.93,665.77L674.49,665.91L684.71,664.87L687.26,664.72L689.82,663.38L692.37,666.21L694.93,665.91L697.48,662.94L700.04,663.53L702.59,666.51L705.15,664.57L707.7,665.62L710.26,664.87L712.81,665.62L715.37,662.49L717.92,664.57L720.48,664.72L723.03,663.38L725.59,664.13L728.14,666.51L730.7,666.66L733.25,662.49L735.8,665.62L738.36,663.98L743.47,665.47L746.02,663.83L748.58,666.21L751.13,663.53L756.24,661L758.8,665.17L761.35,665.32L763.91,664.28L766.46,664.72L769.02,661.3L771.57,664.28L774.13,661.75L776.68,663.68L779.24,663.98L781.79,665.17L784.35,664.57L786.9,661.6L789.46,660.41L794.57,662.04L797.12,665.02L799.68,662.19L802.23,661.6L804.79,664.87L807.34,659.36L812.45,661.15L815.01,663.98L817.56,663.38L820.12,660.11L822.67,662.19L825.23,654.45L827.78,663.83L830.34,661.75L832.89,658.62L835.45,663.38L838,661.6" style="vector-effect: non-scaling-stroke; fill: none; stroke: rgb(44, 160, 44); stroke-opacity: 1; stroke-width: 2px; opacity: 1;"/></g><g class="points"/><g class="text"/></g></g></g><g class="overplot"/><path class="xlines-above crisp" style="fill: none;" d="M0,0"/><path class="ylines-above crisp" style="fill: none;" d="M0,0"/><g class="overlines-above"/><g class="xaxislayer-above"><g class="xtick"><text text-anchor="middle" x="0" y="741" transform="translate(90.66,0)" style="font-family: 'Open Sans', verdana, arial, sans-serif; font-size: 12px; fill: rgb(68, 68, 68); fill-opacity: 1; white-space: pre;">Mar 2020</text></g><g class="xtick"><text text-anchor="middle" x="0" y="741" transform="translate(246.51,0)" style="font-family: 'Open Sans', verdana, arial, sans-serif; font-size: 12px; fill: rgb(68, 68, 68); fill-opacity: 1; white-space: pre;">May 2020</text></g><g class="xtick"><text text-anchor="middle" x="0" y="741" transform="translate(402.35,0)" style="font-family: 'Open Sans', verdana, arial, sans-serif; font-size: 12px; fill: rgb(68, 68, 68); fill-opacity: 1; white-space: pre;">Jul 2020</text></g><g class="xtick"><text text-anchor="middle" x="0" y="741" transform="translate(560.76,0)" style="font-family: 'Open Sans', verdana, arial, sans-serif; font-size: 12px; fill: rgb(68, 68, 68); fill-opacity: 1; white-space: pre;">Sep 2020</text></g><g class="xtick"><text text-anchor="middle" x="0" y="741" transform="translate(716.6,0)" style="font-family: 'Open Sans', verdana, arial, sans-serif; font-size: 12px; fill: rgb(68, 68, 68); fill-opacity: 1; white-space: pre;">Nov 2020</text></g><g class="xtick"><text text-anchor="middle" x="0" y="741" transform="translate(872.45,0)" style="font-family: 'Open Sans', verdana, arial, sans-serif; font-size: 12px; fill: rgb(68, 68, 68); fill-opacity: 1; white-space: pre;">Jan 2021</text></g></g><g class="yaxislayer-above"><g class="ytick"><text text-anchor="end" x="59" y="4.199999999999999" transform="translate(0,692.7)" style="font-family: 'Open Sans', verdana, arial, sans-serif; font-size: 12px; fill: rgb(68, 68, 68); fill-opacity: 1; white-space: pre;">0</text></g><g class="ytick"><text text-anchor="end" x="59" y="4.199999999999999" transform="translate(0,618.27)" style="font-family: 'Open Sans', verdana, arial, sans-serif; font-size: 12px; fill: rgb(68, 68, 68); fill-opacity: 1; white-space: pre;">500</text></g><g class="ytick"><text text-anchor="end" x="59" y="4.199999999999999" transform="translate(0,543.83)" style="font-family: 'Open Sans', verdana, arial, sans-serif; font-size: 12px; fill: rgb(68, 68, 68); fill-opacity: 1; white-space: pre;">1000</text></g><g class="ytick"><text text-anchor="end" x="59" y="4.199999999999999" transform="translate(0,469.4)" style="font-family: 'Open Sans', verdana, arial, sans-serif; font-size: 12px; fill: rgb(68, 68, 68); fill-opacity: 1; white-space: pre;">1500</text></g><g class="ytick"><text text-anchor="end" x="59" y="4.199999999999999" transform="translate(0,394.96)" style="font-family: 'Open Sans', verdana, arial, sans-serif; font-size: 12px; fill: rgb(68, 68, 68); fill-opacity: 1; white-space: pre;">2000</text></g><g class="ytick"><text text-anchor="end" x="59" y="4.199999999999999" transform="translate(0,320.52)" style="font-family: 'Open Sans', verdana, arial, sans-serif; font-size: 12px; fill: rgb(68, 68, 68); fill-opacity: 1; white-space: pre;">2500</text></g><g class="ytick"><text text-anchor="end" x="59" y="4.199999999999999" transform="translate(0,246.09)" style="font-family: 'Open Sans', verdana, arial, sans-serif; font-size: 12px; fill: rgb(68, 68, 68); fill-opacity: 1; white-space: pre;">3000</text></g><g class="ytick"><text text-anchor="end" x="59" y="4.199999999999999" transform="translate(0,171.65)" style="font-family: 'Open Sans', verdana, arial, sans-serif; font-size: 12px; fill: rgb(68, 68, 68); fill-opacity: 1; white-space: pre;">3500</text></g><g class="ytick"><text text-anchor="end" x="59" y="4.199999999999999" transform="translate(0,97.22)" style="font-family: 'Open Sans', verdana, arial, sans-serif; font-size: 12px; fill: rgb(68, 68, 68); fill-opacity: 1; white-space: pre;">4000</text></g></g><g class="overaxes-above"/></g></g><g class="polarlayer"/><g class="ternarylayer"/><g class="geolayer"/><g class="funnelarealayer"/><g class="pielayer"/><g class="treemaplayer"/><g class="sunburstlayer"/><g class="glimages"/><defs id="topdefs-f66e2a"><g class="clips"/><clipPath id="legendf66e2a"><rect width="102" height="67" x="0" y="0"/></clipPath></defs><g class="layer-above"><g class="imagelayer"/><g class="shapelayer"/></g><g class="infolayer"><g class="legend" pointer-events="all" transform="translate(914.76, 25)"><rect class="bg" shape-rendering="crispEdges" style="stroke: rgb(68, 68, 68); stroke-opacity: 1; fill: rgb(255, 255, 255); fill-opacity: 1; stroke-width: 0px;" width="102" height="67" x="0" y="0"/><g class="scrollbox" transform="translate(0, 0)" clip-path="url('#legendf66e2a')"><g class="groups"><g class="traces" style="opacity: 1;" transform="translate(0, 14.5)"><text class="legendtext" text-anchor="start" x="40" y="4.680000000000001" style="font-family: 'Open Sans', verdana, arial, sans-serif; font-size: 12px; fill: rgb(68, 68, 68); fill-opacity: 1; white-space: pre;">positive</text><g class="layers" style="opacity: 1;"><g class="legendfill"/><g class="legendlines"><path class="js-line" d="M5,0h30" style="fill: none; stroke: rgb(31, 119, 180); stroke-opacity: 1; stroke-width: 2px;"/></g><g class="legendsymbols"><g class="legendpoints"/></g></g><rect class="legendtoggle" x="0" y="-9.5" width="96.109375" height="19" style="fill: rgb(0, 0, 0); fill-opacity: 0;"/></g><g class="traces" style="opacity: 1;" transform="translate(0, 33.5)"><text class="legendtext" text-anchor="start" x="40" y="4.680000000000001" style="font-family: 'Open Sans', verdana, arial, sans-serif; font-size: 12px; fill: rgb(68, 68, 68); fill-opacity: 1; white-space: pre;">resolved</text><g class="layers" style="opacity: 1;"><g class="legendfill"/><g class="legendlines"><path class="js-line" d="M5,0h30" style="fill: none; stroke: rgb(255, 127, 14); stroke-opacity: 1; stroke-width: 2px;"/></g><g class="legendsymbols"><g class="legendpoints"/></g></g><rect class="legendtoggle" x="0" y="-9.5" width="96.109375" height="19" style="fill: rgb(0, 0, 0); fill-opacity: 0;"/></g><g class="traces" style="opacity: 1;" transform="translate(0, 52.5)"><text class="legendtext" text-anchor="start" x="40" y="4.680000000000001" style="font-family: 'Open Sans', verdana, arial, sans-serif; font-size: 12px; fill: rgb(68, 68, 68); fill-opacity: 1; white-space: pre;">deceased</text><g class="layers" style="opacity: 1;"><g class="legendfill"/><g class="legendlines"><path class="js-line" d="M5,0h30" style="fill: none; stroke: rgb(44, 160, 44); stroke-opacity: 1; stroke-width: 2px;"/></g><g class="legendsymbols"><g class="legendpoints"/></g></g><rect class="legendtoggle" x="0" y="-9.5" width="96.109375" height="19" style="fill: rgb(0, 0, 0); fill-opacity: 0;"/></g></g></g><rect class="scrollbar" rx="20" ry="3" width="0" height="0" style="fill: rgb(128, 139, 164); fill-opacity: 1;" x="0" y="0"/></g><g class="g-gtitle"><text class="gtitle" x="513.5" y="12.5" text-anchor="middle" dy="0em" style="font-family: 'Open Sans', verdana, arial, sans-serif; font-size: 17px; fill: rgb(68, 68, 68); opacity: 1; font-weight: normal; white-space: pre;">Dynamics of new cases, resolved cases and deaths in Ontario (Jan 12, 2021)</text></g><g class="g-xtitle" transform="translate(0,-15)"><text class="xtitle" x="479" y="780" text-anchor="middle" style="font-family: 'Open Sans', verdana, arial, sans-serif; font-size: 14px; fill: rgb(68, 68, 68); opacity: 1; font-weight: normal; white-space: pre;">Date</text></g><g class="g-ytitle"><text class="ytitle" transform="rotate(-90,22,376.5)" x="22" y="376.5" text-anchor="middle" style="font-family: 'Open Sans', verdana, arial, sans-serif; font-size: 14px; fill: rgb(68, 68, 68); opacity: 1; font-weight: normal; white-space: pre;">Number of cases</text></g></g></svg>