<svg class="main-svg" xmlns="http://www.w3.org/2000/svg" xmlns:xlink="http://www.w3.org/1999/xlink" width="1027" height="768" style="" viewBox="0 0 1027 768"><rect x="0" y="0" width="1027" height="768" style="fill: rgb(255, 255, 255); fill-opacity: 1;"/><defs id="defs-54a178"><g class="clips"><clipPath id="clip54a178xyplot" class="plotclip"><rect width="838" height="703"/></clipPath><clipPath class="axesclip" id="clip54a178x"><rect x="60" y="0" width="838" height="768"/></clipPath><clipPath class="axesclip" id="clip54a178y"><rect x="0" y="25" width="1027" height="703"/></clipPath><clipPath class="axesclip" id="clip54a178xy"><rect x="60" y="25" width="838" height="703"/></clipPath></g><g class="gradients"/></defs><g class="bglayer"/><g class="layer-below"><g class="imagelayer"/><g class="shapelayer"/></g><g class="cartesianlayer"><g class="subplot xy"><g class="layer-subplot"><g class="shapelayer"/><g class="imagelayer"/></g><g class="gridlayer"><g class="x"><path class="xgrid crisp" transform="translate(83.06,0)" d="M0,25v703" style="stroke: rgb(238, 238, 238); stroke-opacity: 1; stroke-width: 1px;"/><path class="xgrid crisp" transform="translate(200.31,0)" d="M0,25v703" style="stroke: rgb(238, 238, 238); stroke-opacity: 1; stroke-width: 1px;"/><path class="xgrid crisp" transform="translate(317.55,0)" d="M0,25v703" style="stroke: rgb(238, 238, 238); stroke-opacity: 1; stroke-width: 1px;"/><path class="xgrid crisp" transform="translate(436.72,0)" d="M0,25v703" style="stroke: rgb(238, 238, 238); stroke-opacity: 1; stroke-width: 1px;"/><path class="xgrid crisp" transform="translate(553.96,0)" d="M0,25v703" style="stroke: rgb(238, 238, 238); stroke-opacity: 1; stroke-width: 1px;"/><path class="xgrid crisp" transform="translate(671.2,0)" d="M0,25v703" style="stroke: rgb(238, 238, 238); stroke-opacity: 1; stroke-width: 1px;"/><path class="xgrid crisp" transform="translate(784.6,0)" d="M0,25v703" style="stroke: rgb(238, 238, 238); stroke-opacity: 1; stroke-width: 1px;"/></g><g class="y"><path class="ygrid crisp" transform="translate(0,561.26)" d="M60,0h838" style="stroke: rgb(238, 238, 238); stroke-opacity: 1; stroke-width: 1px;"/><path class="ygrid crisp" transform="translate(0,429.81)" d="M60,0h838" style="stroke: rgb(238, 238, 238); stroke-opacity: 1; stroke-width: 1px;"/><path class="ygrid crisp" transform="translate(0,298.35)" d="M60,0h838" style="stroke: rgb(238, 238, 238); stroke-opacity: 1; stroke-width: 1px;"/><path class="ygrid crisp" transform="translate(0,166.89)" d="M60,0h838" style="stroke: rgb(238, 238, 238); stroke-opacity: 1; stroke-width: 1px;"/><path class="ygrid crisp" transform="translate(0,35.44)" d="M60,0h838" style="stroke: rgb(238, 238, 238); stroke-opacity: 1; stroke-width: 1px;"/></g></g><g class="zerolinelayer"><path class="yzl zl crisp" transform="translate(0,692.72)" d="M60,0h838" style="stroke: rgb(68, 68, 68); stroke-opacity: 1; stroke-width: 1px;"/></g><path class="xlines-below"/><path class="ylines-below"/><g class="overlines-below"/><g class="xaxislayer-below"/><g class="yaxislayer-below"/><g class="overaxes-below"/><g class="plot" transform="translate(60, 25)" clip-path="url('#clip54a178xyplot')"><g class="scatterlayer mlayer"><g class="trace scatter traceb17833" style="stroke-miterlimit: 2; opacity: 1;"><g class="fills"/><g class="errorbars"/><g class="lines"><path class="js-line" d="M0,667.72L19.22,667.59L24.99,666.14L26.91,667.46L28.83,667.72L38.44,666.8L40.36,667.72L48.05,664.56L49.97,662.2L51.89,663.51L53.82,666.27L59.58,659.83L61.5,660.23L63.43,661.93L65.35,657.6L69.19,655.23L71.11,645.63L73.04,650.37L74.96,648L76.88,590.29L78.8,633.54L80.72,611.72L82.65,615L84.57,606.99L86.49,618.42L88.41,614.08L90.33,627.1L92.26,617.9L94.18,595.42L96.1,604.23L98.02,604.88L99.94,613.69L101.87,615L103.79,612.38L105.71,604.23L107.63,602.78L109.56,600.15L111.48,593.58L113.4,603.96L115.32,593.05L117.24,588.06L121.09,600.68L123.01,584.38L124.93,583.59L126.85,605.15L128.78,610.27L130.7,611.98L132.62,598.7L134.54,622.1L136.46,607.38L138.39,612.38L140.31,600.54L142.23,610.67L144.15,619.08L146.07,616.84L148,613.56L149.92,615.27L151.84,605.01L153.76,622.23L155.68,629.07L157.61,627.23L159.53,620.26L161.45,624.47L163.37,622.37L165.29,622.89L167.22,616.32L169.14,623.02L171.06,627.76L172.98,611.59L174.9,616.45L176.83,613.43L178.75,609.75L180.67,613.56L182.59,607.25L184.51,614.61L186.44,629.99L188.36,629.33L190.28,617.37L192.2,622.5L194.12,625.26L196.05,624.86L197.97,614.61L199.89,609.09L201.81,623.29L203.73,620.92L205.66,622.5L207.58,607.91L209.5,613.16L211.42,635.77L213.34,637.48L215.27,634.72L217.19,641.03L219.11,643.79L221.03,632.75L222.95,641.82L224.88,643.92L226.8,643.53L228.72,642.74L230.64,644.98L232.56,644.32L234.49,640.64L236.41,644.71L238.33,646.55L240.25,639.32L242.17,646.29L244.1,642.87L246.02,653.13L247.94,646.69L249.86,644.32L251.78,633.93L253.71,647.08L255.63,648.13L257.55,647.61L259.47,646.03L261.39,651.81L265.24,647.47L267.16,653L269.08,652.21L271,645.37L272.93,652.47L274.85,650.63L276.77,650.76L278.69,652.47L282.54,654.31L284.46,653.13L286.38,653.13L288.3,645.9L290.22,646.16L292.15,649.97L294.07,641.03L295.99,646.03L297.91,654.18L299.83,642.08L301.76,649.58L303.68,649.71L305.6,652.08L307.52,653.13L309.44,657.73L311.37,656.02L313.29,650.1L315.21,651.42L317.13,652.47L319.06,656.15L320.98,655.76L322.9,656.41L324.82,655.23L326.74,656.15L328.67,658.52L330.59,657.33L332.51,652.6L334.43,663.38L336.35,655.23L338.28,657.46L342.12,653.78L344.04,657.07L347.89,651.29L349.81,654.31L351.73,657.73L353.65,650.5L355.57,653.52L357.5,652.6L363.26,656.15L365.18,652.21L367.11,651.68L369.03,648.26L370.95,653L372.87,652.73L374.79,653L376.72,650.23L378.64,650.37L380.56,648.26L382.48,645.5L384.4,646.95L386.33,642.74L388.25,643.4L390.17,648.13L392.09,645.37L394.01,639.72L395.94,637.22L397.86,640.9L399.78,626.57L401.7,634.72L403.62,626.31L405.55,629.2L407.47,615L409.39,614.22L411.31,619.74L415.16,604.88L417.08,623.68L419,613.95L420.92,613.95L422.84,610.53L424.77,603.17L426.69,575.7L428.61,594.89L430.53,585.56L432.45,596.99L434.38,571.49L436.3,581.88L438.22,593.31L440.14,586.87L442.06,595.68L443.99,591.08L447.83,544.28L449.75,561.37L451.67,582.4L453.6,561.63L455.52,569.65L457.44,572.94L459.36,564.79L461.28,574.12L463.21,561.9L465.13,581.22L467.05,575.17L468.97,559.79L470.89,563.87L472.82,557.16L474.74,559.14L476.66,539.15L478.58,530.74L480.5,555.85L482.43,559L484.35,558.08L486.27,544.94L488.19,549.93L490.11,534.29L492.04,539.29L493.96,543.1L495.88,529.69L497.8,537.97L499.72,536.52L501.65,535.87L503.57,518.91L505.49,493.14L507.41,504.45L509.33,485.26L511.26,480.26L513.18,460.67L515.1,484.21L517.02,459.89L518.94,503.66L520.87,472.24L522.79,503.53L524.71,481.44L526.63,508.66L530.48,458.97L532.4,466.06L534.32,458.83L536.24,535.08L538.17,487.23L540.09,473.43L542.01,423.87L543.93,428.2L545.85,443.19L547.78,438.2L549.7,443.32L551.62,441.22L553.54,427.94L555.46,433.73L559.31,414.8L561.23,414.66L563.15,447.4L565.07,419.27L567,407.04L568.92,424.79L570.84,421.5L572.76,447.27L576.61,368.66L578.53,386.53L580.45,348.02L582.37,366.68L584.29,357.88L586.22,363.27L588.14,388.64L590.06,378.25L591.98,351.17L593.9,346.04L595.83,383.9L597.75,386.14L599.67,404.15L601.59,412.82L603.51,332.11L605.44,283.47L607.36,230.23L609.28,342.23L611.2,225.63L613.12,278.08L615.05,237.86L616.97,256.52L618.89,238.38L620.81,205.12L622.73,109.16L624.66,215.11L626.58,149.12L628.5,228.92L630.42,286.1L632.34,278.48L634.27,230.49L636.19,273.61L638.11,265.99L640.03,217.87L643.88,416.24L645.8,318.7L647.72,321.73L649.64,317.78L651.56,357.61L653.49,349.99L655.41,410.33L657.33,438.98L659.25,448.19L661.17,392.58L663.1,426.23L665.02,396.52L666.94,424.79L668.86,408.88L670.78,569.78L672.71,513.65L674.63,462.25L676.55,448.19L678.47,485.26L680.39,471.98L684.24,533.37L686.16,526.8L688.08,543.49L690,526.27L691.93,496.83L693.85,538.76L695.77,540.99L697.69,548.88L699.61,556.37L701.54,531.27L705.38,506.29L707.3,524.83L709.22,528.64L711.15,539.55L714.99,518.12L716.91,502.35L718.83,511.94L720.76,528.11L722.68,533.24L724.6,540.73L726.52,541.78L728.44,537.05L730.37,503.4L732.29,537.58L736.13,453.31L738.06,511.94L739.98,494.72L741.9,524.17L743.82,487.49L745.74,474.74L747.67,438.06L749.59,501.03L751.51,526.53L753.43,469.48L755.35,463.57L757.28,438.33L759.2,427.28L761.12,432.28L763.04,444.37L764.96,464.49L766.89,461.2L768.81,354.85L770.73,382.59L772.65,345.26L774.57,345.91L776.5,392.45L778.42,360.64L780.34,361.03L782.26,331.58L784.18,261.65L786.11,272.17L788.03,267.96L789.95,281.5L791.87,264.8L793.79,245.09L795.72,234.57L797.64,112.05L799.56,166.48L801.48,81.95L803.4,89.18L805.33,185.27L807.25,121.39L809.17,45.14L811.09,35.15L813.01,94.31L814.94,109.03L816.86,83.13L818.78,211.7L820.7,114.02L822.62,183.7L824.55,75.51L826.47,129.54L828.39,148.86L830.31,206.31L832.23,238.51L834.16,210.25L836.08,158.85L838,156.75" style="vector-effect: non-scaling-stroke; fill: none; stroke: rgb(31, 119, 180); stroke-opacity: 1; stroke-width: 2px; opacity: 1;"/></g><g class="points"/><g class="text"/></g><g class="trace scatter trace392a43" style="stroke-miterlimit: 2; opacity: 1;"><g class="fills"/><g class="errorbars"/><g class="lines"><path class="js-line" d="M0,667.72L74.96,667.72L76.88,612.11L78.8,654.18L80.72,647.34L82.65,649.05L84.57,642.48L86.49,641.95L88.41,637.48L90.33,644.71L92.26,644.32L94.18,631.96L96.1,637.35L98.02,632.36L99.94,630.38L103.79,636.69L105.71,639.98L107.63,623.81L109.56,629.33L111.48,620.13L113.4,625.78L115.32,623.81L117.24,627.49L119.17,629.46L121.09,613.16L123.01,607.38L124.93,614.22L126.85,612.24L128.78,603.17L130.7,598.7L132.62,610.01L134.54,582.53L136.46,589.76L138.39,586.22L140.31,593.45L142.23,586.87L144.15,601.99L146.07,631.7L148,609.48L149.92,622.1L151.84,612.38L153.76,616.06L155.68,616.58L157.61,620.53L159.53,633.54L161.45,608.04L163.37,620.53L165.29,610.27L167.22,617.9L169.14,623.02L171.06,631.17L172.98,633.54L174.9,629.33L176.83,625.78L178.75,633.8L180.67,617.9L182.59,624.21L184.51,638.67L186.44,633.54L188.36,613.3L190.28,628.15L192.2,626.97L194.12,619.08L196.05,607.64L197.97,622.63L199.89,624.21L201.81,624.73L203.73,615.53L205.66,618.42L207.58,619.87L209.5,627.62L211.42,636.17L213.34,623.42L215.27,595.29L217.19,601.33L219.11,628.02L221.03,621.58L222.95,612.11L224.88,634.59L226.8,639.06L228.72,621.31L230.64,638.8L232.56,635.38L234.49,639.06L236.41,634.72L240.25,644.85L242.17,637.62L244.1,642.48L246.02,638.01L247.94,644.32L249.86,644.71L251.78,656.02L253.71,648.26L257.55,640.9L259.47,644.19L261.39,644.85L263.32,643.66L265.24,646.69L267.16,644.45L269.08,641.16L271,645.11L272.93,644.32L274.85,632.62L276.77,653L278.69,650.76L280.61,651.68L282.54,649.97L284.46,649.18L286.38,654.44L288.3,650.37L290.22,652.86L292.15,653.78L294.07,655.62L295.99,640.51L297.91,647.87L299.83,649.71L301.76,649.31L305.6,654.31L307.52,653.78L309.44,644.85L311.37,646.03L313.29,645.63L315.21,646.29L317.13,651.68L319.06,651.16L320.98,652.47L322.9,648.53L324.82,646.82L326.74,652.21L328.67,653.65L330.59,648.26L332.51,654.31L334.43,657.86L336.35,650.1L338.28,654.7L340.2,656.81L342.12,654.44L344.04,657.2L345.96,656.81L347.89,655.89L349.81,656.02L351.73,657.73L353.65,653.78L355.57,655.89L357.5,653.52L359.42,657.46L361.34,657.86L363.26,652.6L365.18,657.6L367.11,656.81L369.03,654.18L370.95,657.46L372.87,658.12L374.79,655.62L376.72,649.71L378.64,652.08L380.56,652.47L382.48,653.78L384.4,653.13L386.33,652.08L388.25,652.08L390.17,649.84L392.09,649.05L394.01,651.42L395.94,652.08L399.78,650.23L401.7,652.34L405.55,644.19L407.47,644.58L409.39,644.45L411.31,642.61L413.23,644.32L415.16,641.95L417.08,633.8L419,630.12L420.92,630.52L422.84,623.29L424.77,629.73L426.69,624.21L428.61,625.26L430.53,607.64L432.45,600.02L434.38,611.46L436.3,610.53L438.22,597.52L442.06,595.94L443.99,574.78L445.91,576.36L447.83,572.54L449.75,575.7L451.67,575.04L455.52,585.69L457.44,564.79L459.36,565.31L461.28,573.99L463.21,578.07L465.13,577.67L467.05,587.92L468.97,585.16L470.89,573.2L472.82,570.31L474.74,571.36L476.66,585.56L478.58,570.97L480.5,578.46L482.43,576.88L484.35,566.1L486.27,559.92L488.19,563.08L490.11,562.82L492.04,554.14L493.96,559.14L495.88,557.69L497.8,543.49L499.72,543.1L501.65,542.97L503.57,555.72L505.49,552.43L507.41,559.79L509.33,565.05L511.26,551.25L513.18,547.17L515.1,533.9L517.02,535.87L518.94,528.11L520.87,537.31L522.79,518.52L524.71,471.19L526.63,486.83L528.56,481.71L530.48,488.54L534.32,472.64L536.24,525.48L538.17,473.69L540.09,488.28L543.93,469.22L545.85,478.03L547.78,494.2L549.7,487.23L551.62,446.08L553.54,465.14L555.46,463.57L557.39,454.23L559.31,460.81L561.23,482.1L563.15,464.09L565.07,414.8L567,430.57L568.92,437.28L570.84,415.59L572.76,447.13L574.68,465.93L576.61,429.78L578.53,399.15L580.45,403.62L582.37,405.86L584.29,422.55L586.22,413.88L588.14,450.29L590.06,417.95L591.98,372.86L593.9,403.1L595.83,373.65L597.75,416.24L599.67,404.15L601.59,384.96L603.51,374.18L605.44,373.65L607.36,376.81L609.28,344.34L611.2,397.71L613.12,381.8L615.05,395.08L616.97,402.83L618.89,272.69L620.81,302.8L622.73,307.79L624.66,284.52L626.58,339.6L628.5,305.42L630.42,226.94L632.34,221.82L634.27,195.4L638.11,245.48L640.03,263.1L641.95,296.22L643.88,290.04L645.8,179.49L647.72,274.66L649.64,224.05L651.56,270.06L657.33,370.5L659.25,309.5L661.17,340.26L663.1,286.49L668.86,387.45L670.78,365.76L672.71,438.33L674.63,410.59L676.55,374.18L678.47,431.62L680.39,413.09L682.32,444.24L684.24,485.26L686.16,443.06L688.08,491.04L690,481.71L691.93,479.21L693.85,505.37L697.69,521.54L699.61,476.32L701.54,499.85L703.46,502.74L705.38,495.12L707.3,517.86L709.22,525.35L711.15,536L713.07,498.01L714.99,523.91L716.91,535.34L718.83,538.37L720.76,532.45L722.68,544.28L724.6,539.02L726.52,524.43L728.44,526.8L730.37,515.36L732.29,516.28L734.21,522.46L736.13,537.05L738.06,539.94L739.98,508.39L741.9,521.8L743.82,519.96L745.74,516.41L747.67,514.31L749.59,521.28L751.51,525.09L753.43,472.11L755.35,505.24L757.28,497.35L759.2,501.95L761.12,489.86L763.04,513.26L764.96,500.64L766.89,466.46L768.81,493.01L770.73,447.53L772.65,473.03L774.57,464.88L776.5,467.38L778.42,473.56L780.34,408.35L782.26,429.26L784.18,414.66L786.11,428.6L788.03,418.08L789.95,436.22L791.87,407.96L793.79,351.3L795.72,329.09L797.64,320.54L799.56,349.33L801.48,323.7L803.4,346.31L805.33,329.48L807.25,252.32L809.17,250.48L811.09,253.5L813.01,193.03L814.94,228.92L816.86,253.24L818.78,224.84L820.7,115.08L822.62,63.41L824.55,50.14L826.47,98.25L828.39,110.47L830.31,134.4L832.23,153.99L834.16,73.93L836.08,109.69L838,110.08" style="vector-effect: non-scaling-stroke; fill: none; stroke: rgb(255, 127, 14); stroke-opacity: 1; stroke-width: 2px; opacity: 1;"/></g><g class="points"/><g class="text"/></g><g class="trace scatter trace85d385" style="stroke-miterlimit: 2; opacity: 1;"><g class="fills"/><g class="errorbars"/><g class="lines"><path class="js-line" d="M0,667.72L76.88,667.19L78.8,666.4L80.72,667.19L82.65,665.62L84.57,665.88L86.49,664.17L88.41,664.43L90.33,666.01L92.26,664.96L94.18,664.96L96.1,664.3L98.02,664.83L99.94,663.64L101.87,664.96L103.79,665.48L105.71,662.07L107.63,661.01L109.56,662.72L111.48,660.49L113.4,662.99L115.32,662.59L117.24,663.64L119.17,662.72L121.09,662.85L123.01,660.62L124.93,661.15L126.85,661.41L128.78,664.56L130.7,660.23L132.62,659.96L134.54,661.8L136.46,656.41L138.39,662.59L140.31,660.49L142.23,662.46L144.15,656.68L146.07,659.7L148,658.78L149.92,661.41L151.84,659.44L153.76,659.96L155.68,663.12L157.61,663.12L159.53,660.36L161.45,662.46L163.37,663.38L165.29,664.17L167.22,663.38L169.14,664.7L171.06,664.7L172.98,665.75L174.9,662.07L176.83,663.64L178.75,664.04L184.51,663.91L186.44,664.96L188.36,663.51L190.28,663.25L192.2,662.33L194.12,665.48L196.05,665.22L197.97,666.4L201.81,665.22L203.73,661.8L205.66,665.75L207.58,663.12L209.5,665.22L211.42,664.56L213.34,665.88L215.27,666.27L222.95,666.14L224.88,666.67L228.72,666.14L230.64,667.32L232.56,666.27L234.49,663.64L236.41,666.27L238.33,667.32L242.17,666.14L244.1,666.4L246.02,667.32L247.94,666.67L255.63,667.19L257.55,667.19L265.24,667.72L267.16,667.46L269.08,666.54L271,667.32L274.85,666.93L276.77,667.32L280.61,667.59L282.54,666.54L284.46,667.06L286.38,666.54L288.3,667.46L290.22,667.32L297.91,667.72L299.83,667.32L305.6,667.59L307.52,667.19L311.37,667.32L313.29,667.32L326.74,667.72L328.67,667.59L336.35,667.59L338.28,667.72L347.89,667.19L349.81,667.85L355.57,667.59L357.5,667.72L367.11,666.93L369.03,667.72L378.64,667.72L380.56,667.85L392.09,667.59L394.01,667.85L401.7,667.19L403.62,667.46L415.16,667.32L417.08,667.32L422.84,667.72L424.77,667.46L432.45,667.32L434.38,657.73L438.22,666.8L440.14,667.06L442.06,666.8L443.99,667.59L449.75,666.8L451.67,667.59L455.52,666.54L457.44,667.72L463.21,666.4L465.13,667.06L468.97,667.32L470.89,666.54L484.35,667.06L486.27,666.4L493.96,666.8L495.88,665.88L499.72,666.01L501.65,665.88L505.49,666.01L507.41,666.14L515.1,665.22L517.02,665.09L518.94,663.91L520.87,666.4L522.79,666.14L524.71,663.51L526.63,664.04L528.56,666.67L530.48,664.96L532.4,665.88L534.32,665.22L536.24,665.88L538.17,663.12L540.09,664.96L542.01,665.09L543.93,663.91L545.85,664.56L547.78,666.67L549.7,666.8L551.62,663.12L553.54,665.88L555.46,664.43L559.31,665.75L561.23,664.3L563.15,666.4L565.07,664.04L568.92,661.8L570.84,665.48L572.76,665.62L574.68,664.7L576.61,665.09L578.53,662.07L580.45,664.7L582.37,662.46L584.29,664.17L586.22,664.43L588.14,665.48L590.06,664.96L591.98,662.33L593.9,661.28L597.75,662.72L599.67,665.35L601.59,662.85L603.51,662.33L605.44,665.22L607.36,660.36L611.2,661.93L613.12,664.43L615.05,663.91L616.97,661.01L618.89,662.85L620.81,656.02L622.73,664.3L624.66,662.46L626.58,659.7L628.5,663.91L630.42,662.33L632.34,657.99L634.27,659.57L636.19,654.57L638.11,661.01L640.03,658.65L641.95,664.56L643.88,661.67L645.8,656.02L647.72,661.67L649.64,656.28L651.56,660.88L655.41,662.07L657.33,659.44L659.25,661.28L661.17,660.36L663.1,660.09L665.02,658.12L666.94,662.07L668.86,662.99L670.78,665.88L672.71,658.91L674.63,656.15L676.55,661.8L678.47,661.8L680.39,664.83L682.32,663.38L684.24,665.48L686.16,662.33L688.08,665.35L691.93,665.22L693.85,662.2L695.77,666.01L697.69,666.01L699.61,666.4L701.54,661.93L703.46,661.54L705.38,664.04L707.3,666.01L709.22,666.27L713.07,666.54L714.99,664.7L716.91,664.04L718.83,665.62L720.76,665.09L722.68,666.93L726.52,665.48L728.44,666.4L730.37,664.83L732.29,666.93L734.21,665.75L736.13,666.4L738.06,666.93L739.98,665.62L741.9,666.4L743.82,665.35L745.74,666.27L747.67,665.75L749.59,666.54L751.51,666.27L755.35,665.75L757.28,666.4L759.2,666.27L761.12,665.35L763.04,667.32L764.96,666.54L766.89,666.4L768.81,665.48L770.73,666.14L772.65,665.62L774.57,665.22L776.5,666.4L784.18,664.7L786.11,665.62L791.87,666.67L793.79,665.48L801.48,664.96L803.4,665.75L805.33,665.75L807.25,664.04L811.09,664.43L813.01,663.25L814.94,665.35L816.86,665.22L818.78,664.83L820.7,663.51L822.62,662.46L824.55,663.25L826.47,664.56L828.39,664.56L834.16,664.56L836.08,662.33L838,664.96" style="vector-effect: non-scaling-stroke; fill: none; stroke: rgb(44, 160, 44); stroke-opacity: 1; stroke-width: 2px; opacity: 1;"/></g><g class="points"/><g class="text"/></g></g></g><g class="overplot"/><path class="xlines-above crisp" style="fill: none;" d="M0,0"/><path class="ylines-above crisp" style="fill: none;" d="M0,0"/><g class="overlines-above"/><g class="xaxislayer-above"><g class="xtick"><text text-anchor="middle" x="0" y="741" transform="translate(83.06,0)" style="font-family: 'Open Sans', verdana, arial, sans-serif; font-size: 12px; fill: rgb(68, 68, 68); fill-opacity: 1; white-space: pre;">Mar 2020</text></g><g class="xtick"><text text-anchor="middle" x="0" y="741" transform="translate(200.31,0)" style="font-family: 'Open Sans', verdana, arial, sans-serif; font-size: 12px; fill: rgb(68, 68, 68); fill-opacity: 1; white-space: pre;">May 2020</text></g><g class="xtick"><text text-anchor="middle" x="0" y="741" transform="translate(317.55,0)" style="font-family: 'Open Sans', verdana, arial, sans-serif; font-size: 12px; fill: rgb(68, 68, 68); fill-opacity: 1; white-space: pre;">Jul 2020</text></g><g class="xtick"><text text-anchor="middle" x="0" y="741" transform="translate(436.72,0)" style="font-family: 'Open Sans', verdana, arial, sans-serif; font-size: 12px; fill: rgb(68, 68, 68); fill-opacity: 1; white-space: pre;">Sep 2020</text></g><g class="xtick"><text text-anchor="middle" x="0" y="741" transform="translate(553.96,0)" style="font-family: 'Open Sans', verdana, arial, sans-serif; font-size: 12px; fill: rgb(68, 68, 68); fill-opacity: 1; white-space: pre;">Nov 2020</text></g><g class="xtick"><text text-anchor="middle" x="0" y="741" transform="translate(671.2,0)" style="font-family: 'Open Sans', verdana, arial, sans-serif; font-size: 12px; fill: rgb(68, 68, 68); fill-opacity: 1; white-space: pre;">Jan 2021</text></g><g class="xtick"><text text-anchor="middle" x="0" y="741" transform="translate(784.6,0)" style="font-family: 'Open Sans', verdana, arial, sans-serif; font-size: 12px; fill: rgb(68, 68, 68); fill-opacity: 1; white-space: pre;">Mar 2021</text></g></g><g class="yaxislayer-above"><g class="ytick"><text text-anchor="end" x="59" y="4.199999999999999" transform="translate(0,692.72)" style="font-family: 'Open Sans', verdana, arial, sans-serif; font-size: 12px; fill: rgb(68, 68, 68); fill-opacity: 1; white-space: pre;">0</text></g><g class="ytick"><text text-anchor="end" x="59" y="4.199999999999999" transform="translate(0,561.26)" style="font-family: 'Open Sans', verdana, arial, sans-serif; font-size: 12px; fill: rgb(68, 68, 68); fill-opacity: 1; white-space: pre;">1000</text></g><g class="ytick"><text text-anchor="end" x="59" y="4.199999999999999" transform="translate(0,429.81)" style="font-family: 'Open Sans', verdana, arial, sans-serif; font-size: 12px; fill: rgb(68, 68, 68); fill-opacity: 1; white-space: pre;">2000</text></g><g class="ytick"><text text-anchor="end" x="59" y="4.199999999999999" transform="translate(0,298.35)" style="font-family: 'Open Sans', verdana, arial, sans-serif; font-size: 12px; fill: rgb(68, 68, 68); fill-opacity: 1; white-space: pre;">3000</text></g><g class="ytick"><text text-anchor="end" x="59" y="4.199999999999999" transform="translate(0,166.89)" style="font-family: 'Open Sans', verdana, arial, sans-serif; font-size: 12px; fill: rgb(68, 68, 68); fill-opacity: 1; white-space: pre;">4000</text></g><g class="ytick"><text text-anchor="end" x="59" y="4.199999999999999" transform="translate(0,35.44)" style="font-family: 'Open Sans', verdana, arial, sans-serif; font-size: 12px; fill: rgb(68, 68, 68); fill-opacity: 1; white-space: pre;">5000</text></g></g><g class="overaxes-above"/></g></g><g class="polarlayer"/><g class="ternarylayer"/><g class="geolayer"/><g class="funnelarealayer"/><g class="pielayer"/><g class="treemaplayer"/><g class="sunburstlayer"/><g class="glimages"/><defs id="topdefs-54a178"><g class="clips"/><clipPath id="legend54a178"><rect width="102" height="67" x="0" y="0"/></clipPath></defs><g class="layer-above"><g class="imagelayer"/><g class="shapelayer"/></g><g class="infolayer"><g class="legend" pointer-events="all" transform="translate(914.76, 25)"><rect class="bg" shape-rendering="crispEdges" style="stroke: rgb(68, 68, 68); stroke-opacity: 1; fill: rgb(255, 255, 255); fill-opacity: 1; stroke-width: 0px;" width="102" height="67" x="0" y="0"/><g class="scrollbox" transform="translate(0, 0)" clip-path="url('#legend54a178')"><g class="groups"><g class="traces" style="opacity: 1;" transform="translate(0, 14.5)"><text class="legendtext" text-anchor="start" x="40" y="4.680000000000001" style="font-family: 'Open Sans', verdana, arial, sans-serif; font-size: 12px; fill: rgb(68, 68, 68); fill-opacity: 1; white-space: pre;">positive</text><g class="layers" style="opacity: 1;"><g class="legendfill"/><g class="legendlines"><path class="js-line" d="M5,0h30" style="fill: none; stroke: rgb(31, 119, 180); stroke-opacity: 1; stroke-width: 2px;"/></g><g class="legendsymbols"><g class="legendpoints"/></g></g><rect class="legendtoggle" x="0" y="-9.5" width="96.109375" height="19" style="fill: rgb(0, 0, 0); fill-opacity: 0;"/></g><g class="traces" style="opacity: 1;" transform="translate(0, 33.5)"><text class="legendtext" text-anchor="start" x="40" y="4.680000000000001" style="font-family: 'Open Sans', verdana, arial, sans-serif; font-size: 12px; fill: rgb(68, 68, 68); fill-opacity: 1; white-space: pre;">resolved</text><g class="layers" style="opacity: 1;"><g class="legendfill"/><g class="legendlines"><path class="js-line" d="M5,0h30" style="fill: none; stroke: rgb(255, 127, 14); stroke-opacity: 1; stroke-width: 2px;"/></g><g class="legendsymbols"><g class="legendpoints"/></g></g><rect class="legendtoggle" x="0" y="-9.5" width="96.109375" height="19" style="fill: rgb(0, 0, 0); fill-opacity: 0;"/></g><g class="traces" style="opacity: 1;" transform="translate(0, 52.5)"><text class="legendtext" text-anchor="start" x="40" y="4.680000000000001" style="font-family: 'Open Sans', verdana, arial, sans-serif; font-size: 12px; fill: rgb(68, 68, 68); fill-opacity: 1; white-space: pre;">deceased</text><g class="layers" style="opacity: 1;"><g class="legendfill"/><g class="legendlines"><path class="js-line" d="M5,0h30" style="fill: none; stroke: rgb(44, 160, 44); stroke-opacity: 1; stroke-width: 2px;"/></g><g class="legendsymbols"><g class="legendpoints"/></g></g><rect class="legendtoggle" x="0" y="-9.5" width="96.109375" height="19" style="fill: rgb(0, 0, 0); fill-opacity: 0;"/></g></g></g><rect class="scrollbar" rx="20" ry="3" width="0" height="0" style="fill: rgb(128, 139, 164); fill-opacity: 1;" x="0" y="0"/></g><g class="g-gtitle"><text class="gtitle" x="513.5" y="12.5" text-anchor="middle" dy="0em" style="font-family: 'Open Sans', verdana, arial, sans-serif; font-size: 17px; fill: rgb(68, 68, 68); opacity: 1; font-weight: normal; white-space: pre;">Dynamics of new cases, resolved cases and deaths in Ontario (Apr 30, 2021)</text></g><g class="g-xtitle" transform="translate(0,-15)"><text class="xtitle" x="479" y="780" text-anchor="middle" style="font-family: 'Open Sans', verdana, arial, sans-serif; font-size: 14px; fill: rgb(68, 68, 68); opacity: 1; font-weight: normal; white-space: pre;">Date</text></g><g class="g-ytitle"><text class="ytitle" transform="rotate(-90,22,376.5)" x="22" y="376.5" text-anchor="middle" style="font-family: 'Open Sans', verdana, arial, sans-serif; font-size: 14px; fill: rgb(68, 68, 68); opacity: 1; font-weight: normal; white-space: pre;">Number of cases</text></g></g></svg>