<svg class="main-svg" xmlns="http://www.w3.org/2000/svg" xmlns:xlink="http://www.w3.org/1999/xlink" width="1027" height="768" style="" viewBox="0 0 1027 768"><rect x="0" y="0" width="1027" height="768" style="fill: rgb(255, 255, 255); fill-opacity: 1;"/><defs id="defs-778db3"><g class="clips"><clipPath id="clip778db3xyplot" class="plotclip"><rect width="838" height="703"/></clipPath><clipPath class="axesclip" id="clip778db3x"><rect x="60" y="0" width="838" height="768"/></clipPath><clipPath class="axesclip" id="clip778db3y"><rect x="0" y="25" width="1027" height="703"/></clipPath><clipPath class="axesclip" id="clip778db3xy"><rect x="60" y="25" width="838" height="703"/></clipPath></g><g class="gradients"/></defs><g class="bglayer"/><g class="layer-below"><g class="imagelayer"/><g class="shapelayer"/></g><g class="cartesianlayer"><g class="subplot xy"><g class="layer-subplot"><g class="shapelayer"/><g class="imagelayer"/></g><g class="gridlayer"><g class="x"><path class="xgrid crisp" transform="translate(95.78999999999999,0)" d="M0,25v703" style="stroke: rgb(238, 238, 238); stroke-opacity: 1; stroke-width: 1px;"/><path class="xgrid crisp" transform="translate(188.23,0)" d="M0,25v703" style="stroke: rgb(238, 238, 238); stroke-opacity: 1; stroke-width: 1px;"/><path class="xgrid crisp" transform="translate(277.7,0)" d="M0,25v703" style="stroke: rgb(238, 238, 238); stroke-opacity: 1; stroke-width: 1px;"/><path class="xgrid crisp" transform="translate(370.15,0)" d="M0,25v703" style="stroke: rgb(238, 238, 238); stroke-opacity: 1; stroke-width: 1px;"/><path class="xgrid crisp" transform="translate(459.62,0)" d="M0,25v703" style="stroke: rgb(238, 238, 238); stroke-opacity: 1; stroke-width: 1px;"/><path class="xgrid crisp" transform="translate(552.06,0)" d="M0,25v703" style="stroke: rgb(238, 238, 238); stroke-opacity: 1; stroke-width: 1px;"/><path class="xgrid crisp" transform="translate(644.51,0)" d="M0,25v703" style="stroke: rgb(238, 238, 238); stroke-opacity: 1; stroke-width: 1px;"/><path class="xgrid crisp" transform="translate(733.98,0)" d="M0,25v703" style="stroke: rgb(238, 238, 238); stroke-opacity: 1; stroke-width: 1px;"/><path class="xgrid crisp" transform="translate(826.43,0)" d="M0,25v703" style="stroke: rgb(238, 238, 238); stroke-opacity: 1; stroke-width: 1px;"/></g><g class="y"><path class="ygrid crisp" transform="translate(0,612.87)" d="M60,0h838" style="stroke: rgb(238, 238, 238); stroke-opacity: 1; stroke-width: 1px;"/><path class="ygrid crisp" transform="translate(0,533.28)" d="M60,0h838" style="stroke: rgb(238, 238, 238); stroke-opacity: 1; stroke-width: 1px;"/><path class="ygrid crisp" transform="translate(0,453.7)" d="M60,0h838" style="stroke: rgb(238, 238, 238); stroke-opacity: 1; stroke-width: 1px;"/><path class="ygrid crisp" transform="translate(0,374.11)" d="M60,0h838" style="stroke: rgb(238, 238, 238); stroke-opacity: 1; stroke-width: 1px;"/><path class="ygrid crisp" transform="translate(0,294.53)" d="M60,0h838" style="stroke: rgb(238, 238, 238); stroke-opacity: 1; stroke-width: 1px;"/><path class="ygrid crisp" transform="translate(0,214.94)" d="M60,0h838" style="stroke: rgb(238, 238, 238); stroke-opacity: 1; stroke-width: 1px;"/><path class="ygrid crisp" transform="translate(0,135.36)" d="M60,0h838" style="stroke: rgb(238, 238, 238); stroke-opacity: 1; stroke-width: 1px;"/><path class="ygrid crisp" transform="translate(0,55.769999999999996)" d="M60,0h838" style="stroke: rgb(238, 238, 238); stroke-opacity: 1; stroke-width: 1px;"/></g></g><g class="zerolinelayer"><path class="yzl zl crisp" transform="translate(0,692.45)" d="M60,0h838" style="stroke: rgb(68, 68, 68); stroke-opacity: 1; stroke-width: 1px;"/></g><path class="xlines-below"/><path class="ylines-below"/><g class="overlines-below"/><g class="xaxislayer-below"/><g class="yaxislayer-below"/><g class="overaxes-below"/><g class="plot" transform="translate(60, 25)" clip-path="url('#clip778db3xyplot')"><g class="scatterlayer mlayer"><g class="trace scatter tracea5ccd0" style="stroke-miterlimit: 2; opacity: 1;"><g class="fills"/><g class="errorbars"/><g class="lines"><path class="js-line" d="M0,667.45L8.95,667.85L17.89,667.05L26.84,667.05L29.82,667.05L38.77,662.68L41.75,666.66L44.73,667.45L47.72,667.05L50.7,665.86L53.68,666.66L59.64,664.67L62.63,667.45L65.61,665.06L68.59,660.69L74.56,657.9L77.54,650.74L80.52,654.72L83.5,663.07L89.47,650.34L92.45,643.58L95.43,644.77L98.41,649.94L101.4,636.81L104.38,634.42L107.36,629.65L110.34,600.6L113.32,614.93L116.31,607.76L119.29,433.07L122.27,563.99L125.25,497.94L128.23,507.88L131.22,483.61L134.2,518.23L137.18,505.1L140.16,544.49L143.15,516.64L146.13,448.59L149.11,475.25L152.09,477.24L155.07,503.91L158.06,507.88L161.04,499.93L164.02,475.25L167,470.88L169.99,462.92L172.97,443.02L175.95,474.46L178.93,441.43L181.91,426.31L187.88,464.51L190.86,415.17L193.84,412.78L196.83,478.04L199.81,493.56L202.79,498.73L205.77,458.54L208.75,529.37L211.74,484.8L214.72,499.93L217.7,464.11L220.68,494.75L223.67,520.22L226.65,513.46L229.63,503.51L232.61,508.68L235.59,477.64L238.58,529.77L241.56,550.46L244.54,544.89L247.52,523.8L250.51,536.53L253.49,530.17L256.47,531.76L259.45,511.86L262.43,532.16L265.42,546.48L268.4,497.54L271.38,512.26L274.36,503.11L277.35,491.97L280.33,503.51L283.31,484.41L286.29,506.69L289.27,553.25L292.26,551.26L295.24,515.05L298.22,530.57L301.2,538.92L304.19,537.73L307.17,506.69L310.15,489.98L313.13,532.95L316.11,525.79L319.1,530.57L322.08,486.4L325.06,502.31L328.04,570.76L331.02,575.93L334.01,567.57L336.99,586.67L339.97,595.03L342.95,561.6L345.94,589.06L348.92,595.43L351.9,594.23L354.88,591.85L357.86,598.61L360.85,596.62L363.83,585.48L366.81,597.82L369.79,603.39L372.78,581.5L375.76,602.59L378.74,592.24L381.72,623.28L384.7,603.78L387.69,596.62L390.67,565.19L393.65,604.98L396.63,608.16L399.62,606.57L402.6,601.79L405.58,619.3L411.54,606.17L414.53,622.88L417.51,620.5L420.49,599.8L423.47,621.29L426.46,615.72L429.44,616.12L432.42,621.29L435.4,623.28L438.38,626.86L441.37,623.28L444.35,623.28L447.33,601.4L450.31,602.19L453.3,613.73L456.28,586.67L459.26,601.79L462.24,626.47L465.22,589.86L468.21,612.54L471.19,612.94L474.17,620.1L477.15,623.28L480.14,637.21L483.12,632.04L486.1,614.13L492.06,621.29L495.05,632.43L498.03,631.24L501.01,633.23L503.99,629.65L506.98,632.43L509.96,639.6L512.94,636.02L515.92,621.69L518.9,654.32L521.89,629.65L524.87,636.41L530.83,625.27L533.81,635.22L536.8,628.06L539.78,617.71L545.74,637.21L548.73,615.32L551.71,624.48L554.69,621.69L557.67,625.67L560.65,627.66L563.64,632.43L566.62,620.5L569.6,618.91L572.58,608.56L575.57,622.88L578.55,622.09L581.53,622.88L584.51,614.53L587.49,614.93L590.48,608.56L593.46,600.2L596.44,604.58L599.42,591.85L602.41,593.84L605.39,608.16L608.37,599.8L611.35,582.69L614.33,575.13L617.32,586.28L620.3,542.9L623.28,567.57L626.26,542.11L629.25,550.86L632.23,507.88L635.21,505.5L638.19,522.21L644.16,477.24L647.14,534.15L650.12,504.7L653.1,504.7L656.09,494.35L659.07,472.07L662.05,388.9L665.03,447L668.01,418.75L671,453.37L673.98,376.17L676.96,407.61L679.94,442.23L682.93,422.73L685.91,449.39L688.89,435.46L691.87,350.31L694.85,293.8L700.82,409.2L703.8,346.33L706.78,370.6L709.77,380.55L712.75,355.88L715.73,384.13L718.71,347.12L721.69,405.62L724.68,387.31L727.66,340.76L730.64,353.09L733.62,332.8L736.6,338.77L739.59,278.28L742.57,252.81L745.55,328.82L748.53,338.37L751.52,335.58L754.5,295.79L757.48,310.91L760.46,263.56L763.44,278.68L766.43,290.22L769.41,249.63L772.39,274.7L775.37,270.32L778.36,268.33L781.34,217L784.32,139.01L787.3,173.23L790.28,115.13L793.27,100.01L796.25,40.72L799.23,111.95L802.21,38.33L805.2,170.84L808.18,75.74L811.16,170.44L814.14,103.59L817.12,185.96L823.09,35.55L826.07,57.04L829.05,35.15L832.04,265.95L835.02,121.1L838,79.32" style="vector-effect: non-scaling-stroke; fill: none; stroke: rgb(31, 119, 180); stroke-opacity: 1; stroke-width: 2px; opacity: 1;"/></g><g class="points"/><g class="text"/></g><g class="trace scatter trace493027" style="stroke-miterlimit: 2; opacity: 1;"><g class="fills"/><g class="errorbars"/><g class="lines"><path class="js-line" d="M0,667.45L95.43,667.05L98.41,666.66L101.4,667.45L104.38,667.45L116.31,667.45L119.29,499.13L122.27,626.47L125.25,605.77L128.23,610.95L131.22,591.05L134.2,589.46L137.18,575.93L140.16,597.82L143.15,596.62L146.13,559.22L149.11,575.53L152.09,560.41L155.07,554.44L158.06,562.8L161.04,573.54L164.02,583.49L167,534.55L169.99,551.26L172.97,523.4L175.95,540.51L178.93,534.55L181.91,545.69L184.9,551.66L187.88,502.31L190.86,484.8L193.84,505.5L196.83,499.53L199.81,472.07L202.79,458.54L205.77,492.76L208.75,409.6L211.74,431.48L214.72,420.74L217.7,442.62L220.68,422.73L223.67,468.49L226.65,558.42L229.63,491.17L232.61,529.37L235.59,499.93L238.58,511.07L241.56,512.66L244.54,524.6L247.52,563.99L250.51,486.79L253.49,524.6L256.47,493.56L259.45,516.64L262.43,532.16L265.42,556.83L268.4,563.99L274.36,540.51L277.35,564.79L280.33,516.64L283.31,535.74L286.29,579.51L289.27,563.99L292.26,502.71L295.24,547.68L298.22,544.1L301.2,520.22L304.19,485.6L307.17,530.96L310.15,535.74L313.13,537.33L316.11,509.48L319.1,518.23L322.08,522.61L325.06,546.09L328.04,571.95L331.02,533.35L334.01,448.2L336.99,466.5L339.97,547.28L342.95,527.78L345.94,499.13L348.92,567.18L351.9,580.7L354.88,526.98L357.86,579.91L360.85,569.56L363.83,580.7L366.81,567.57L372.78,598.21L375.76,576.33L378.74,591.05L381.72,577.52L384.7,596.62L387.69,597.82L390.67,632.04L393.65,608.56L396.63,595.03L399.62,586.28L402.6,596.22L405.58,598.21L408.56,594.63L411.54,603.78L414.53,597.02L417.51,587.07L420.49,599.01L423.47,596.62L426.46,561.21L429.44,622.88L432.42,616.12L435.4,618.91L438.38,613.73L441.37,611.34L444.35,627.26L447.33,614.93L450.31,622.49L453.3,625.27L456.28,630.84L459.26,585.08L462.24,607.37L465.22,612.94L468.21,611.74L471.19,620.1L474.17,626.86L477.15,625.27L480.14,598.21L483.12,601.79L486.1,600.6L489.08,602.59L492.06,618.91L495.05,617.31L498.03,621.29L501.01,609.36L503.99,604.18L506.98,620.5L509.96,624.87L512.94,608.56L515.92,626.86L518.9,637.61L521.89,614.13L524.87,628.06L527.85,634.42L530.83,627.26L533.81,635.62L536.8,634.42L539.78,631.64L542.76,632.04L545.74,637.21L548.73,625.27L551.71,631.64L554.69,624.48L557.67,636.41L560.65,637.61L563.64,621.69L566.62,636.81L569.6,634.42L572.58,626.47L575.57,636.41L578.55,638.4L581.53,630.84L584.51,612.94L587.49,620.1L590.48,621.29L593.46,625.27L596.44,623.28L599.42,620.1L602.41,620.1L605.39,613.33L608.37,610.95L611.35,618.11L614.33,620.1L617.32,618.11L620.3,614.53L623.28,620.89L626.26,606.17L629.25,596.22L632.23,597.42L635.21,597.02L638.19,591.45L641.17,596.62L644.16,589.46L647.14,564.79L650.12,553.65L653.1,554.84L656.09,532.95L659.07,552.45L662.05,535.74L665.03,538.92L668.01,485.6L671,462.52L673.98,497.14L676.96,494.35L679.94,454.96L685.91,450.19L688.89,386.12L691.87,390.89L694.85,379.35L697.84,388.9L700.82,386.92L706.78,419.15L709.77,355.88L712.75,357.47L715.73,383.73L718.71,396.07L721.69,394.87L724.68,425.91L727.66,417.56L730.64,381.34L733.62,372.59L736.6,375.77L739.59,418.75L742.57,374.58L745.55,397.26L748.53,392.49L751.52,359.86L754.5,341.15L757.48,350.7L760.46,349.91L763.44,323.65L766.43,338.77L769.41,334.39L772.39,291.41L775.37,290.22L778.36,289.82L781.34,328.42L784.32,318.47L787.3,340.76L790.28,356.67L793.27,314.89L796.25,302.56L799.23,262.36L802.21,268.33L805.2,244.86L808.18,272.71L811.16,215.81L814.14,72.55L817.12,119.91L820.11,104.39L823.09,125.08L829.05,76.93L832.04,236.9L835.02,80.12L838,124.29" style="vector-effect: non-scaling-stroke; fill: none; stroke: rgb(255, 127, 14); stroke-opacity: 1; stroke-width: 2px; opacity: 1;"/></g><g class="points"/><g class="text"/></g><g class="trace scatter tracedaca2d" style="stroke-miterlimit: 2; opacity: 1;"><g class="fills"/><g class="errorbars"/><g class="lines"><path class="js-line" d="M0,667.45L95.43,667.05L98.41,666.66L101.4,667.05L104.38,666.66L107.36,665.46L110.34,666.66L113.32,666.26L116.31,667.05L119.29,665.86L122.27,663.47L125.25,665.86L128.23,661.09L131.22,661.88L134.2,656.71L137.18,657.5L140.16,662.28L143.15,659.1L146.13,659.1L149.11,657.11L152.09,658.7L155.07,655.12L158.06,659.1L161.04,660.69L164.02,650.34L167,647.16L169.99,652.33L172.97,645.57L175.95,653.13L178.93,651.93L181.91,655.12L184.9,652.33L187.88,652.73L190.86,645.96L193.84,647.56L196.83,648.35L199.81,657.9L202.79,644.77L205.77,643.97L208.75,649.55L211.74,633.23L214.72,651.93L217.7,645.57L220.68,651.54L223.67,634.03L226.65,643.18L229.63,640.39L232.61,648.35L235.59,642.38L238.58,643.97L241.56,653.52L244.54,653.52L247.52,645.17L250.51,651.54L253.49,654.32L256.47,656.71L259.45,654.32L262.43,658.3L265.42,658.3L268.4,661.48L271.38,650.34L274.36,655.12L277.35,656.31L283.31,657.5L286.29,655.91L289.27,659.1L292.26,654.72L295.24,653.92L298.22,651.14L301.2,660.69L304.19,659.89L307.17,663.47L310.15,660.69L313.13,659.89L316.11,649.55L319.1,661.48L322.08,653.52L325.06,659.89L328.04,657.9L331.02,661.88L334.01,663.07L336.99,662.68L339.97,663.07L342.95,663.87L345.94,662.68L348.92,664.27L351.9,663.07L354.88,662.68L357.86,666.26L360.85,663.07L363.83,655.12L366.81,663.07L369.79,666.26L372.78,663.47L375.76,662.68L378.74,663.47L381.72,666.26L384.7,664.27L387.69,665.06L393.65,664.67L396.63,665.86L399.62,665.86L402.6,666.66L405.58,665.46L408.56,666.66L411.54,667.45L414.53,666.66L417.51,663.87L420.49,666.26L423.47,664.67L426.46,665.06L429.44,666.26L432.42,666.26L435.4,667.05L438.38,663.87L441.37,665.46L444.35,663.87L447.33,666.66L450.31,666.26L453.3,667.05L456.28,667.05L459.26,666.66L462.24,667.45L465.22,666.26L468.21,667.05L471.19,665.86L474.17,667.05L477.15,665.86L480.14,667.05L483.12,666.26L486.1,666.26L495.05,667.45L498.03,665.86L501.01,667.45L503.99,667.05L506.98,667.45L509.96,667.05L512.94,666.66L515.92,667.45L536.8,667.45L539.78,665.86L542.76,667.85L545.74,667.05L548.73,666.26L551.71,667.05L554.69,667.45L557.67,667.05L563.64,666.66L566.62,667.05L569.6,665.06L572.58,667.45L578.55,667.05L581.53,667.05L590.48,667.85L593.46,667.45L596.44,666.66L599.42,667.45L608.37,667.05L611.35,667.85L614.33,667.05L617.32,667.05L620.3,667.05L623.28,665.86L626.26,666.66L629.25,666.26L632.23,667.45L635.21,667.05L641.17,666.66L644.16,666.26L647.14,666.26L650.12,667.05L656.09,667.45L659.07,666.66L662.05,667.05L665.03,665.86L671,666.26L673.98,637.21L679.94,664.67L682.93,665.46L685.91,664.67L688.89,667.05L694.85,665.46L697.84,664.67L700.82,667.05L703.8,666.26L706.78,663.87L709.77,667.45L715.73,663.87L718.71,663.47L721.69,665.46L724.68,665.86L727.66,666.26L730.64,663.87L736.6,663.87L739.59,665.06L742.57,664.67L745.55,665.06L748.53,665.86L751.52,665.46L754.5,663.47L757.48,663.87L763.44,663.87L766.43,664.67L769.41,661.88L772.39,661.09L775.37,662.28L778.36,661.88L781.34,663.07L784.32,662.28L787.3,662.68L790.28,661.48L793.27,661.48L796.25,660.29L802.21,659.49L805.2,655.91L808.18,663.47L811.16,662.68L814.14,654.72L817.12,656.31L820.11,664.27L823.09,659.1L826.07,661.88L829.05,659.89L832.04,661.88L835.02,653.52L838,659.1" style="vector-effect: non-scaling-stroke; fill: none; stroke: rgb(44, 160, 44); stroke-opacity: 1; stroke-width: 2px; opacity: 1;"/></g><g class="points"/><g class="text"/></g></g></g><g class="overplot"/><path class="xlines-above crisp" style="fill: none;" d="M0,0"/><path class="ylines-above crisp" style="fill: none;" d="M0,0"/><g class="overlines-above"/><g class="xaxislayer-above"><g class="xtick"><text text-anchor="middle" x="0" y="741" transform="translate(95.78999999999999,0)" style="font-family: 'Open Sans', verdana, arial, sans-serif; font-size: 12px; fill: rgb(68, 68, 68); fill-opacity: 1; white-space: pre;">Mar 2020</text></g><g class="xtick"><text text-anchor="middle" x="0" y="741" transform="translate(188.23,0)" style="font-family: 'Open Sans', verdana, arial, sans-serif; font-size: 12px; fill: rgb(68, 68, 68); fill-opacity: 1; white-space: pre;">Apr 2020</text></g><g class="xtick"><text text-anchor="middle" x="0" y="741" transform="translate(277.7,0)" style="font-family: 'Open Sans', verdana, arial, sans-serif; font-size: 12px; fill: rgb(68, 68, 68); fill-opacity: 1; white-space: pre;">May 2020</text></g><g class="xtick"><text text-anchor="middle" x="0" y="741" transform="translate(370.15,0)" style="font-family: 'Open Sans', verdana, arial, sans-serif; font-size: 12px; fill: rgb(68, 68, 68); fill-opacity: 1; white-space: pre;">Jun 2020</text></g><g class="xtick"><text text-anchor="middle" x="0" y="741" transform="translate(459.62,0)" style="font-family: 'Open Sans', verdana, arial, sans-serif; font-size: 12px; fill: rgb(68, 68, 68); fill-opacity: 1; white-space: pre;">Jul 2020</text></g><g class="xtick"><text text-anchor="middle" x="0" y="741" transform="translate(552.06,0)" style="font-family: 'Open Sans', verdana, arial, sans-serif; font-size: 12px; fill: rgb(68, 68, 68); fill-opacity: 1; white-space: pre;">Aug 2020</text></g><g class="xtick"><text text-anchor="middle" x="0" y="741" transform="translate(644.51,0)" style="font-family: 'Open Sans', verdana, arial, sans-serif; font-size: 12px; fill: rgb(68, 68, 68); fill-opacity: 1; white-space: pre;">Sep 2020</text></g><g class="xtick"><text text-anchor="middle" x="0" y="741" transform="translate(733.98,0)" style="font-family: 'Open Sans', verdana, arial, sans-serif; font-size: 12px; fill: rgb(68, 68, 68); fill-opacity: 1; white-space: pre;">Oct 2020</text></g><g class="xtick"><text text-anchor="middle" x="0" y="741" transform="translate(826.43,0)" style="font-family: 'Open Sans', verdana, arial, sans-serif; font-size: 12px; fill: rgb(68, 68, 68); fill-opacity: 1; white-space: pre;">Nov 2020</text></g></g><g class="yaxislayer-above"><g class="ytick"><text text-anchor="end" x="59" y="4.199999999999999" transform="translate(0,692.45)" style="font-family: 'Open Sans', verdana, arial, sans-serif; font-size: 12px; fill: rgb(68, 68, 68); fill-opacity: 1; white-space: pre;">0</text></g><g class="ytick"><text text-anchor="end" x="59" y="4.199999999999999" transform="translate(0,612.87)" style="font-family: 'Open Sans', verdana, arial, sans-serif; font-size: 12px; fill: rgb(68, 68, 68); fill-opacity: 1; white-space: pre;">200</text></g><g class="ytick"><text text-anchor="end" x="59" y="4.199999999999999" transform="translate(0,533.28)" style="font-family: 'Open Sans', verdana, arial, sans-serif; font-size: 12px; fill: rgb(68, 68, 68); fill-opacity: 1; white-space: pre;">400</text></g><g class="ytick"><text text-anchor="end" x="59" y="4.199999999999999" transform="translate(0,453.7)" style="font-family: 'Open Sans', verdana, arial, sans-serif; font-size: 12px; fill: rgb(68, 68, 68); fill-opacity: 1; white-space: pre;">600</text></g><g class="ytick"><text text-anchor="end" x="59" y="4.199999999999999" transform="translate(0,374.11)" style="font-family: 'Open Sans', verdana, arial, sans-serif; font-size: 12px; fill: rgb(68, 68, 68); fill-opacity: 1; white-space: pre;">800</text></g><g class="ytick"><text text-anchor="end" x="59" y="4.199999999999999" transform="translate(0,294.53)" style="font-family: 'Open Sans', verdana, arial, sans-serif; font-size: 12px; fill: rgb(68, 68, 68); fill-opacity: 1; white-space: pre;">1000</text></g><g class="ytick"><text text-anchor="end" x="59" y="4.199999999999999" transform="translate(0,214.94)" style="font-family: 'Open Sans', verdana, arial, sans-serif; font-size: 12px; fill: rgb(68, 68, 68); fill-opacity: 1; white-space: pre;">1200</text></g><g class="ytick"><text text-anchor="end" x="59" y="4.199999999999999" transform="translate(0,135.36)" style="font-family: 'Open Sans', verdana, arial, sans-serif; font-size: 12px; fill: rgb(68, 68, 68); fill-opacity: 1; white-space: pre;">1400</text></g><g class="ytick"><text text-anchor="end" x="59" y="4.199999999999999" transform="translate(0,55.769999999999996)" style="font-family: 'Open Sans', verdana, arial, sans-serif; font-size: 12px; fill: rgb(68, 68, 68); fill-opacity: 1; white-space: pre;">1600</text></g></g><g class="overaxes-above"/></g></g><g class="polarlayer"/><g class="ternarylayer"/><g class="geolayer"/><g class="funnelarealayer"/><g class="pielayer"/><g class="treemaplayer"/><g class="sunburstlayer"/><g class="glimages"/><defs id="topdefs-778db3"><g class="clips"/><clipPath id="legend778db3"><rect width="102" height="67" x="0" y="0"/></clipPath></defs><g class="layer-above"><g class="imagelayer"/><g class="shapelayer"/></g><g class="infolayer"><g class="legend" pointer-events="all" transform="translate(914.76, 25)"><rect class="bg" shape-rendering="crispEdges" style="stroke: rgb(68, 68, 68); stroke-opacity: 1; fill: rgb(255, 255, 255); fill-opacity: 1; stroke-width: 0px;" width="102" height="67" x="0" y="0"/><g class="scrollbox" transform="translate(0, 0)" clip-path="url('#legend778db3')"><g class="groups"><g class="traces" style="opacity: 1;" transform="translate(0, 14.5)"><text class="legendtext user-select-none" text-anchor="start" x="40" y="4.680000000000001" style="font-family: 'Open Sans', verdana, arial, sans-serif; font-size: 12px; fill: rgb(68, 68, 68); fill-opacity: 1; white-space: pre;">positive</text><g class="layers" style="opacity: 1;"><g class="legendfill"/><g class="legendlines"><path class="js-line" d="M5,0h30" style="fill: none; stroke: rgb(31, 119, 180); stroke-opacity: 1; stroke-width: 2px;"/></g><g class="legendsymbols"><g class="legendpoints"/></g></g><rect class="legendtoggle" pointer-events="all" x="0" y="-9.5" width="96.109375" height="19" style="cursor: pointer; fill: rgb(0, 0, 0); fill-opacity: 0;"/></g><g class="traces" style="opacity: 1;" transform="translate(0, 33.5)"><text class="legendtext user-select-none" text-anchor="start" x="40" y="4.680000000000001" style="font-family: 'Open Sans', verdana, arial, sans-serif; font-size: 12px; fill: rgb(68, 68, 68); fill-opacity: 1; white-space: pre;">resolved</text><g class="layers" style="opacity: 1;"><g class="legendfill"/><g class="legendlines"><path class="js-line" d="M5,0h30" style="fill: none; stroke: rgb(255, 127, 14); stroke-opacity: 1; stroke-width: 2px;"/></g><g class="legendsymbols"><g class="legendpoints"/></g></g><rect class="legendtoggle" pointer-events="all" x="0" y="-9.5" width="96.109375" height="19" style="cursor: pointer; fill: rgb(0, 0, 0); fill-opacity: 0;"/></g><g class="traces" style="opacity: 1;" transform="translate(0, 52.5)"><text class="legendtext user-select-none" text-anchor="start" x="40" y="4.680000000000001" style="font-family: 'Open Sans', verdana, arial, sans-serif; font-size: 12px; fill: rgb(68, 68, 68); fill-opacity: 1; white-space: pre;">deceased</text><g class="layers" style="opacity: 1;"><g class="legendfill"/><g class="legendlines"><path class="js-line" d="M5,0h30" style="fill: none; stroke: rgb(44, 160, 44); stroke-opacity: 1; stroke-width: 2px;"/></g><g class="legendsymbols"><g class="legendpoints"/></g></g><rect class="legendtoggle" pointer-events="all" x="0" y="-9.5" width="96.109375" height="19" style="cursor: pointer; fill: rgb(0, 0, 0); fill-opacity: 0;"/></g></g></g><rect class="scrollbar" rx="20" ry="3" width="0" height="0" style="fill: rgb(128, 139, 164); fill-opacity: 1;" x="0" y="0"/></g><g class="g-gtitle"><text class="gtitle" x="513.5" y="12.5" text-anchor="middle" dy="0em" style="font-family: 'Open Sans', verdana, arial, sans-serif; font-size: 17px; fill: rgb(68, 68, 68); opacity: 1; font-weight: normal; white-space: pre;">Dynamics of new cases, resolved cases and deaths in Ontario (Nov 26, 2020)</text></g><g class="g-xtitle" transform="translate(0,-15)"><text class="xtitle" x="479" y="780" text-anchor="middle" style="font-family: 'Open Sans', verdana, arial, sans-serif; font-size: 14px; fill: rgb(68, 68, 68); opacity: 1; font-weight: normal; white-space: pre;">Date</text></g><g class="g-ytitle"><text class="ytitle" transform="rotate(-90,22,376.5)" x="22" y="376.5" text-anchor="middle" style="font-family: 'Open Sans', verdana, arial, sans-serif; font-size: 14px; fill: rgb(68, 68, 68); opacity: 1; font-weight: normal; white-space: pre;">Number of cases</text></g></g></svg>