<svg class="main-svg" xmlns="http://www.w3.org/2000/svg" xmlns:xlink="http://www.w3.org/1999/xlink" width="1027" height="768" style="" viewBox="0 0 1027 768"><rect x="0" y="0" width="1027" height="768" style="fill: rgb(255, 255, 255); fill-opacity: 1;"/><defs id="defs-a2fa17"><g class="clips"><clipPath id="clipa2fa17xyplot" class="plotclip"><rect width="838" height="687"/></clipPath><clipPath class="axesclip" id="clipa2fa17x"><rect x="60" y="0" width="838" height="768"/></clipPath><clipPath class="axesclip" id="clipa2fa17y"><rect x="0" y="25" width="1027" height="687"/></clipPath><clipPath class="axesclip" id="clipa2fa17xy"><rect x="60" y="25" width="838" height="687"/></clipPath></g><g class="gradients"/></defs><g class="bglayer"/><g class="layer-below"><g class="imagelayer"/><g class="shapelayer"/></g><g class="cartesianlayer"><g class="subplot xy"><g class="layer-subplot"><g class="shapelayer"/><g class="imagelayer"/></g><g class="gridlayer"><g class="x"><path class="xgrid crisp" transform="translate(138.56,0)" d="M0,25v687" style="stroke: rgb(238, 238, 238); stroke-opacity: 1; stroke-width: 1px;"/><path class="xgrid crisp" transform="translate(230.22,0)" d="M0,25v687" style="stroke: rgb(238, 238, 238); stroke-opacity: 1; stroke-width: 1px;"/><path class="xgrid crisp" transform="translate(321.88,0)" d="M0,25v687" style="stroke: rgb(238, 238, 238); stroke-opacity: 1; stroke-width: 1px;"/><path class="xgrid crisp" transform="translate(413.53,0)" d="M0,25v687" style="stroke: rgb(238, 238, 238); stroke-opacity: 1; stroke-width: 1px;"/><path class="xgrid crisp" transform="translate(505.19,0)" d="M0,25v687" style="stroke: rgb(238, 238, 238); stroke-opacity: 1; stroke-width: 1px;"/><path class="xgrid crisp" transform="translate(596.84,0)" d="M0,25v687" style="stroke: rgb(238, 238, 238); stroke-opacity: 1; stroke-width: 1px;"/><path class="xgrid crisp" transform="translate(688.5,0)" d="M0,25v687" style="stroke: rgb(238, 238, 238); stroke-opacity: 1; stroke-width: 1px;"/><path class="xgrid crisp" transform="translate(780.16,0)" d="M0,25v687" style="stroke: rgb(238, 238, 238); stroke-opacity: 1; stroke-width: 1px;"/><path class="xgrid crisp" transform="translate(871.81,0)" d="M0,25v687" style="stroke: rgb(238, 238, 238); stroke-opacity: 1; stroke-width: 1px;"/></g><g class="y"><path class="ygrid crisp" transform="translate(0,581.43)" d="M60,0h838" style="stroke: rgb(238, 238, 238); stroke-opacity: 1; stroke-width: 1px;"/><path class="ygrid crisp" transform="translate(0,486.16)" d="M60,0h838" style="stroke: rgb(238, 238, 238); stroke-opacity: 1; stroke-width: 1px;"/><path class="ygrid crisp" transform="translate(0,390.89)" d="M60,0h838" style="stroke: rgb(238, 238, 238); stroke-opacity: 1; stroke-width: 1px;"/><path class="ygrid crisp" transform="translate(0,295.62)" d="M60,0h838" style="stroke: rgb(238, 238, 238); stroke-opacity: 1; stroke-width: 1px;"/><path class="ygrid crisp" transform="translate(0,200.35)" d="M60,0h838" style="stroke: rgb(238, 238, 238); stroke-opacity: 1; stroke-width: 1px;"/><path class="ygrid crisp" transform="translate(0,105.08)" d="M60,0h838" style="stroke: rgb(238, 238, 238); stroke-opacity: 1; stroke-width: 1px;"/></g></g><g class="zerolinelayer"><path class="yzl zl crisp" transform="translate(0,676.7)" d="M60,0h838" style="stroke: rgb(68, 68, 68); stroke-opacity: 1; stroke-width: 1px;"/></g><path class="xlines-below"/><path class="ylines-below"/><g class="overlines-below"/><g class="xaxislayer-below"/><g class="yaxislayer-below"/><g class="overaxes-below"/><g class="plot" transform="translate(60, 25)" clip-path="url('#clipa2fa17xyplot')"><g class="scatterlayer mlayer"><g class="trace scatter trace17ae47" style="stroke-miterlimit: 2; opacity: 1;"><g class="fills"/><g class="errorbars"/><g class="lines"><path class="js-line" d="M0,651.7L6.55,651.7L13.09,652.65L19.64,652.65L39.28,650.74L52.38,651.7L58.92,650.74L65.47,650.74L85.11,640.26L91.66,649.79L98.2,651.7L104.75,650.74L111.3,647.89L117.84,649.79L130.94,645.03L137.48,651.7L144.03,645.98L150.58,635.5L157.13,632.64L163.67,628.83L170.22,611.68L176.77,621.21L183.31,641.22L189.86,627.88L196.41,610.73L202.95,594.54L209.5,597.39L216.05,609.78L222.59,578.34L229.14,572.62L235.69,561.19L242.23,491.64L248.78,525.94L255.33,508.79L261.88,90.56L268.42,404L274.97,245.85L281.52,269.67L288.06,211.55L294.61,294.44L301.16,263L307.7,357.31L314.25,290.63L320.8,127.71L327.34,191.54L333.89,196.31L340.44,260.14L346.98,269.67L353.53,250.61L360.08,191.54L366.63,181.07L373.17,162.01L379.72,114.38L386.27,189.64L392.81,110.57L399.36,74.36L405.91,126.76L412.45,165.82L419,47.69L425.55,41.97L432.09,198.21L438.64,235.37L445.19,247.75L451.73,151.53L458.28,321.11L464.83,214.41L471.38,250.61L477.92,164.87L484.47,238.23L491.02,299.2L497.56,283L504.11,259.19L510.66,271.57L517.2,197.26L523.75,322.06L530.3,371.6L536.84,358.27L543.39,307.77L549.94,338.26L556.48,323.02L563.03,326.83L569.58,279.19L576.13,327.78L582.67,362.08L589.22,244.9L595.77,280.15L602.31,258.23L608.86,231.56L615.41,259.19L621.95,213.46L628.5,266.81L635.05,378.27L641.59,373.51L648.14,286.81L654.69,323.97L661.23,343.98L667.78,341.12L674.33,266.81L680.88,226.79L687.42,329.69L693.97,312.54L700.52,323.97L707.06,218.22L713.61,256.33L720.16,420.19L726.7,432.58L733.25,412.57L739.8,458.3L746.34,478.31L752.89,398.28L759.44,464.02L765.98,479.26L772.53,476.4L779.08,470.68L785.63,486.88L792.17,482.12L798.72,455.44L805.27,484.98L811.81,498.31L818.36,445.91L824.91,496.41L831.45,471.64L838,545.95" style="vector-effect: non-scaling-stroke; fill: none; stroke: rgb(31, 119, 180); stroke-opacity: 1; stroke-width: 2px; opacity: 1;"/></g><g class="points"/><g class="text"/></g><g class="trace scatter trace561955" style="stroke-miterlimit: 2; opacity: 1;"><g class="fills"/><g class="errorbars"/><g class="lines"><path class="js-line" d="M0,651.7L6.55,651.7L13.09,650.74L19.64,650.74L39.28,651.7L98.2,651.7L104.75,650.74L111.3,651.7L117.84,651.7L130.94,651.7L137.48,650.74L144.03,651.7L150.58,651.7L202.95,651.7L209.5,650.74L216.05,649.79L222.59,651.7L255.33,651.7L261.88,248.71L268.42,553.57L274.97,504.03L281.52,516.41L288.06,468.78L294.61,464.97L301.16,432.58L307.7,484.98L314.25,482.12L320.8,392.56L327.34,431.62L333.89,395.42L340.44,381.13L346.98,401.14L353.53,426.86L360.08,450.68L366.63,333.5L373.17,373.51L379.72,306.82L386.27,347.79L392.81,333.5L399.36,360.17L405.91,374.46L412.45,256.33L419,214.41L425.55,263.95L432.09,249.66L438.64,183.92L445.19,151.53L451.73,233.46L458.28,34.35L464.83,86.75L471.38,61.03L477.92,113.42L484.47,65.79L491.02,175.35L497.56,390.66L504.11,229.65L510.66,321.11L517.2,250.61L523.75,277.29L530.3,281.1L536.84,309.68L543.39,404L549.94,219.17L556.48,309.68L563.03,235.37L569.58,290.63L576.13,327.78L582.67,386.85L589.22,404L595.77,373.51L602.31,347.79L608.86,405.9L615.41,290.63L621.95,336.35L628.5,441.15L635.05,404L641.59,257.28L648.14,364.94L654.69,356.36L661.23,299.2L667.78,216.32L674.33,324.92L680.88,336.35L687.42,340.17L693.97,273.48L700.52,294.44L707.06,304.92L720.16,423.05L726.7,330.64L733.25,126.76L739.8,170.59L746.34,363.98L752.89,317.3L759.44,248.71L765.98,411.62L772.53,444.01L779.08,315.4L785.63,442.1L792.17,417.33L798.72,444.01L805.27,412.57L818.36,485.93L824.91,433.53L831.45,468.78L838,436.39" style="vector-effect: non-scaling-stroke; fill: none; stroke: rgb(255, 127, 14); stroke-opacity: 1; stroke-width: 2px; opacity: 1;"/></g><g class="points"/><g class="text"/></g><g class="trace scatter traced16c0f" style="stroke-miterlimit: 2; opacity: 1;"><g class="fills"/><g class="errorbars"/><g class="lines"><path class="js-line" d="M0,651.7L176.77,651.7L183.31,650.74L189.86,651.7L196.41,650.74L202.95,651.7L209.5,650.74L216.05,649.79L222.59,650.74L229.14,649.79L235.69,646.93L242.23,649.79L248.78,648.84L255.33,650.74L261.88,647.89L268.42,642.17L274.97,647.89L281.52,636.45L288.06,638.36L294.61,625.97L301.16,627.88L307.7,639.31L314.25,631.69L320.8,631.69L327.34,626.93L333.89,630.74L340.44,622.16L346.98,631.69L353.53,635.5L360.08,610.73L366.63,603.11L373.17,615.49L379.72,599.3L386.27,617.4L392.81,614.54L399.36,622.16L405.91,615.49L412.45,616.45L419,600.25L425.55,604.06L432.09,605.97L438.64,628.83L445.19,597.39L451.73,595.49L458.28,608.83L464.83,569.77L471.38,614.54L477.92,599.3L484.47,613.59L491.02,571.67L497.56,593.58L504.11,586.91L510.66,605.97L517.2,591.68L523.75,595.49L530.3,618.35L536.84,618.35L543.39,598.35L549.94,613.59L563.03,625.97L569.58,620.26L576.13,629.79L582.67,629.79L589.22,637.41L595.77,610.73L602.31,622.16L608.86,625.02L615.41,625.97L621.95,627.88L628.5,624.07L635.05,631.69L641.59,621.21L648.14,619.31L654.69,612.64L661.23,635.5L667.78,633.6L674.33,642.17L680.88,635.5L687.42,633.6L693.97,608.83L700.52,637.41L707.06,618.35L713.61,633.6L720.16,628.83L726.7,638.36L733.25,641.22L739.8,640.26L746.34,641.22L752.89,643.12L759.44,640.26L765.98,644.08L772.53,641.22L779.08,640.26L785.63,648.84L792.17,641.22L798.72,622.16L805.27,641.22L811.81,648.84L818.36,642.17L824.91,640.26L831.45,642.17L838,648.84" style="vector-effect: non-scaling-stroke; fill: none; stroke: rgb(44, 160, 44); stroke-opacity: 1; stroke-width: 2px; opacity: 1;"/></g><g class="points"/><g class="text"/></g></g></g><g class="overplot"/><path class="xlines-above crisp" style="fill: none;" d="M0,0"/><path class="ylines-above crisp" style="fill: none;" d="M0,0"/><g class="overlines-above"/><g class="xaxislayer-above"><g class="xtick"><text text-anchor="middle" x="0" y="725" transform="translate(138.56,0)" style="font-family: 'Open Sans', verdana, arial, sans-serif; font-size: 12px; fill: rgb(68, 68, 68); fill-opacity: 1; white-space: pre;"><tspan class="line" dy="0em" x="0" y="725">Mar 1</tspan><tspan class="line" dy="1.3em" x="0" y="725">2020</tspan></text></g><g class="xtick"><text text-anchor="middle" x="0" y="725" transform="translate(230.22,0)" style="font-family: 'Open Sans', verdana, arial, sans-serif; font-size: 12px; fill: rgb(68, 68, 68); fill-opacity: 1; white-space: pre;">Mar 15</text></g><g class="xtick"><text text-anchor="middle" x="0" y="725" transform="translate(321.88,0)" style="font-family: 'Open Sans', verdana, arial, sans-serif; font-size: 12px; fill: rgb(68, 68, 68); fill-opacity: 1; white-space: pre;">Mar 29</text></g><g class="xtick"><text text-anchor="middle" x="0" y="725" transform="translate(413.53,0)" style="font-family: 'Open Sans', verdana, arial, sans-serif; font-size: 12px; fill: rgb(68, 68, 68); fill-opacity: 1; white-space: pre;">Apr 12</text></g><g class="xtick"><text text-anchor="middle" x="0" y="725" transform="translate(505.19,0)" style="font-family: 'Open Sans', verdana, arial, sans-serif; font-size: 12px; fill: rgb(68, 68, 68); fill-opacity: 1; white-space: pre;">Apr 26</text></g><g class="xtick"><text text-anchor="middle" x="0" y="725" transform="translate(596.84,0)" style="font-family: 'Open Sans', verdana, arial, sans-serif; font-size: 12px; fill: rgb(68, 68, 68); fill-opacity: 1; white-space: pre;">May 10</text></g><g class="xtick"><text text-anchor="middle" x="0" y="725" transform="translate(688.5,0)" style="font-family: 'Open Sans', verdana, arial, sans-serif; font-size: 12px; fill: rgb(68, 68, 68); fill-opacity: 1; white-space: pre;">May 24</text></g><g class="xtick"><text text-anchor="middle" x="0" y="725" transform="translate(780.16,0)" style="font-family: 'Open Sans', verdana, arial, sans-serif; font-size: 12px; fill: rgb(68, 68, 68); fill-opacity: 1; white-space: pre;">Jun 7</text></g><g class="xtick"><text text-anchor="middle" x="0" y="725" transform="translate(871.81,0)" style="font-family: 'Open Sans', verdana, arial, sans-serif; font-size: 12px; fill: rgb(68, 68, 68); fill-opacity: 1; white-space: pre;">Jun 21</text></g></g><g class="yaxislayer-above"><g class="ytick"><text text-anchor="end" x="59" y="4.199999999999999" transform="translate(0,676.7)" style="font-family: 'Open Sans', verdana, arial, sans-serif; font-size: 12px; fill: rgb(68, 68, 68); fill-opacity: 1; white-space: pre;">0</text></g><g class="ytick"><text text-anchor="end" x="59" y="4.199999999999999" transform="translate(0,581.43)" style="font-family: 'Open Sans', verdana, arial, sans-serif; font-size: 12px; fill: rgb(68, 68, 68); fill-opacity: 1; white-space: pre;">100</text></g><g class="ytick"><text text-anchor="end" x="59" y="4.199999999999999" transform="translate(0,486.16)" style="font-family: 'Open Sans', verdana, arial, sans-serif; font-size: 12px; fill: rgb(68, 68, 68); fill-opacity: 1; white-space: pre;">200</text></g><g class="ytick"><text text-anchor="end" x="59" y="4.199999999999999" transform="translate(0,390.89)" style="font-family: 'Open Sans', verdana, arial, sans-serif; font-size: 12px; fill: rgb(68, 68, 68); fill-opacity: 1; white-space: pre;">300</text></g><g class="ytick"><text text-anchor="end" x="59" y="4.199999999999999" transform="translate(0,295.62)" style="font-family: 'Open Sans', verdana, arial, sans-serif; font-size: 12px; fill: rgb(68, 68, 68); fill-opacity: 1; white-space: pre;">400</text></g><g class="ytick"><text text-anchor="end" x="59" y="4.199999999999999" transform="translate(0,200.35)" style="font-family: 'Open Sans', verdana, arial, sans-serif; font-size: 12px; fill: rgb(68, 68, 68); fill-opacity: 1; white-space: pre;">500</text></g><g class="ytick"><text text-anchor="end" x="59" y="4.199999999999999" transform="translate(0,105.08)" style="font-family: 'Open Sans', verdana, arial, sans-serif; font-size: 12px; fill: rgb(68, 68, 68); fill-opacity: 1; white-space: pre;">600</text></g></g><g class="overaxes-above"/></g></g><g class="polarlayer"/><g class="ternarylayer"/><g class="geolayer"/><g class="funnelarealayer"/><g class="pielayer"/><g class="treemaplayer"/><g class="sunburstlayer"/><g class="glimages"/><defs id="topdefs-a2fa17"><g class="clips"/><clipPath id="legenda2fa17"><rect width="102" height="67" x="0" y="0"/></clipPath></defs><g class="layer-above"><g class="imagelayer"/><g class="shapelayer"/></g><g class="infolayer"><g class="legend" pointer-events="all" transform="translate(914.76, 25)"><rect class="bg" shape-rendering="crispEdges" style="stroke: rgb(68, 68, 68); stroke-opacity: 1; fill: rgb(255, 255, 255); fill-opacity: 1; stroke-width: 0px;" width="102" height="67" x="0" y="0"/><g class="scrollbox" transform="translate(0, 0)" clip-path="url('#legenda2fa17')"><g class="groups"><g class="traces" style="opacity: 1;" transform="translate(0, 14.5)"><text class="legendtext user-select-none" text-anchor="start" x="40" y="4.680000000000001" style="font-family: 'Open Sans', verdana, arial, sans-serif; font-size: 12px; fill: rgb(68, 68, 68); fill-opacity: 1; white-space: pre;">positive</text><g class="layers" style="opacity: 1;"><g class="legendfill"/><g class="legendlines"><path class="js-line" d="M5,0h30" style="fill: none; stroke: rgb(31, 119, 180); stroke-opacity: 1; stroke-width: 2px;"/></g><g class="legendsymbols"><g class="legendpoints"/></g></g><rect class="legendtoggle" pointer-events="all" x="0" y="-9.5" width="96.109375" height="19" style="cursor: pointer; fill: rgb(0, 0, 0); fill-opacity: 0;"/></g><g class="traces" style="opacity: 1;" transform="translate(0, 33.5)"><text class="legendtext user-select-none" text-anchor="start" x="40" y="4.680000000000001" style="font-family: 'Open Sans', verdana, arial, sans-serif; font-size: 12px; fill: rgb(68, 68, 68); fill-opacity: 1; white-space: pre;">resolved</text><g class="layers" style="opacity: 1;"><g class="legendfill"/><g class="legendlines"><path class="js-line" d="M5,0h30" style="fill: none; stroke: rgb(255, 127, 14); stroke-opacity: 1; stroke-width: 2px;"/></g><g class="legendsymbols"><g class="legendpoints"/></g></g><rect class="legendtoggle" pointer-events="all" x="0" y="-9.5" width="96.109375" height="19" style="cursor: pointer; fill: rgb(0, 0, 0); fill-opacity: 0;"/></g><g class="traces" style="opacity: 1;" transform="translate(0, 52.5)"><text class="legendtext user-select-none" text-anchor="start" x="40" y="4.680000000000001" style="font-family: 'Open Sans', verdana, arial, sans-serif; font-size: 12px; fill: rgb(68, 68, 68); fill-opacity: 1; white-space: pre;">deceased</text><g class="layers" style="opacity: 1;"><g class="legendfill"/><g class="legendlines"><path class="js-line" d="M5,0h30" style="fill: none; stroke: rgb(44, 160, 44); stroke-opacity: 1; stroke-width: 2px;"/></g><g class="legendsymbols"><g class="legendpoints"/></g></g><rect class="legendtoggle" pointer-events="all" x="0" y="-9.5" width="96.109375" height="19" style="cursor: pointer; fill: rgb(0, 0, 0); fill-opacity: 0;"/></g></g></g><rect class="scrollbar" rx="20" ry="3" width="0" height="0" style="fill: rgb(128, 139, 164); fill-opacity: 1;" x="0" y="0"/></g><g class="g-gtitle"><text class="gtitle" x="513.5" y="12.5" text-anchor="middle" dy="0em" style="font-family: 'Open Sans', verdana, arial, sans-serif; font-size: 17px; fill: rgb(68, 68, 68); opacity: 1; font-weight: normal; white-space: pre;">Dynamics of new cases, resolved cases and deaths in Ontario (Jun 26, 2020)</text></g><g class="g-xtitle"><text class="xtitle" x="479" y="764" text-anchor="middle" style="font-family: 'Open Sans', verdana, arial, sans-serif; font-size: 14px; fill: rgb(68, 68, 68); opacity: 1; font-weight: normal; white-space: pre;">Date</text></g><g class="g-ytitle"><text class="ytitle" transform="rotate(-90,22,368.5)" x="22" y="368.5" text-anchor="middle" style="font-family: 'Open Sans', verdana, arial, sans-serif; font-size: 14px; fill: rgb(68, 68, 68); opacity: 1; font-weight: normal; white-space: pre;">Number of cases</text></g></g></svg>