<svg class="main-svg" xmlns="http://www.w3.org/2000/svg" xmlns:xlink="http://www.w3.org/1999/xlink" width="1027" height="768" style="" viewBox="0 0 1027 768"><rect x="0" y="0" width="1027" height="768" style="fill: rgb(255, 255, 255); fill-opacity: 1;"/><defs id="defs-ae1560"><g class="clips"><clipPath id="clipae1560xyplot" class="plotclip"><rect width="838" height="703"/></clipPath><clipPath class="axesclip" id="clipae1560x"><rect x="60" y="0" width="838" height="768"/></clipPath><clipPath class="axesclip" id="clipae1560y"><rect x="0" y="25" width="1027" height="703"/></clipPath><clipPath class="axesclip" id="clipae1560xy"><rect x="60" y="25" width="838" height="703"/></clipPath></g><g class="gradients"/></defs><g class="bglayer"/><g class="layer-below"><g class="imagelayer"/><g class="shapelayer"/></g><g class="cartesianlayer"><g class="subplot xy"><g class="layer-subplot"><g class="shapelayer"/><g class="imagelayer"/></g><g class="gridlayer"><g class="x"><path class="xgrid crisp" transform="translate(84.89,0)" d="M0,25v703" style="stroke: rgb(238, 238, 238); stroke-opacity: 1; stroke-width: 1px;"/><path class="xgrid crisp" transform="translate(211.42,0)" d="M0,25v703" style="stroke: rgb(238, 238, 238); stroke-opacity: 1; stroke-width: 1px;"/><path class="xgrid crisp" transform="translate(337.95,0)" d="M0,25v703" style="stroke: rgb(238, 238, 238); stroke-opacity: 1; stroke-width: 1px;"/><path class="xgrid crisp" transform="translate(466.55,0)" d="M0,25v703" style="stroke: rgb(238, 238, 238); stroke-opacity: 1; stroke-width: 1px;"/><path class="xgrid crisp" transform="translate(593.08,0)" d="M0,25v703" style="stroke: rgb(238, 238, 238); stroke-opacity: 1; stroke-width: 1px;"/><path class="xgrid crisp" transform="translate(719.61,0)" d="M0,25v703" style="stroke: rgb(238, 238, 238); stroke-opacity: 1; stroke-width: 1px;"/><path class="xgrid crisp" transform="translate(842,0)" d="M0,25v703" style="stroke: rgb(238, 238, 238); stroke-opacity: 1; stroke-width: 1px;"/></g><g class="y"><path class="ygrid crisp" transform="translate(0,618.27)" d="M60,0h838" style="stroke: rgb(238, 238, 238); stroke-opacity: 1; stroke-width: 1px;"/><path class="ygrid crisp" transform="translate(0,543.83)" d="M60,0h838" style="stroke: rgb(238, 238, 238); stroke-opacity: 1; stroke-width: 1px;"/><path class="ygrid crisp" transform="translate(0,469.4)" d="M60,0h838" style="stroke: rgb(238, 238, 238); stroke-opacity: 1; stroke-width: 1px;"/><path class="ygrid crisp" transform="translate(0,394.96)" d="M60,0h838" style="stroke: rgb(238, 238, 238); stroke-opacity: 1; stroke-width: 1px;"/><path class="ygrid crisp" transform="translate(0,320.52)" d="M60,0h838" style="stroke: rgb(238, 238, 238); stroke-opacity: 1; stroke-width: 1px;"/><path class="ygrid crisp" transform="translate(0,246.09)" d="M60,0h838" style="stroke: rgb(238, 238, 238); stroke-opacity: 1; stroke-width: 1px;"/><path class="ygrid crisp" transform="translate(0,171.65)" d="M60,0h838" style="stroke: rgb(238, 238, 238); stroke-opacity: 1; stroke-width: 1px;"/><path class="ygrid crisp" transform="translate(0,97.22)" d="M60,0h838" style="stroke: rgb(238, 238, 238); stroke-opacity: 1; stroke-width: 1px;"/></g></g><g class="zerolinelayer"><path class="yzl zl crisp" transform="translate(0,692.7)" d="M60,0h838" style="stroke: rgb(68, 68, 68); stroke-opacity: 1; stroke-width: 1px;"/></g><path class="xlines-below"/><path class="ylines-below"/><g class="overlines-below"/><g class="xaxislayer-below"/><g class="yaxislayer-below"/><g class="overaxes-below"/><g class="plot" transform="translate(60, 25)" clip-path="url('#clipae1560xyplot')"><g class="scatterlayer mlayer"><g class="trace scatter tracea64870" style="stroke-miterlimit: 2; opacity: 1;"><g class="fills"/><g class="errorbars"/><g class="lines"><path class="js-line" d="M0,667.7L20.74,667.55L26.97,665.91L29.04,667.4L31.11,667.7L41.49,666.66L43.56,667.7L51.86,664.13L53.93,661.45L56,662.94L58.08,666.06L64.3,658.77L66.38,659.22L68.45,661.15L70.52,656.24L72.6,655.34L74.67,653.56L76.75,642.69L78.82,648.05L80.9,645.37L82.97,580.02L85.04,628.99L87.12,604.28L89.19,608L91.27,598.92L93.34,611.87L95.42,606.96L97.49,621.7L99.56,611.28L101.64,585.82L103.71,595.8L105.79,596.54L107.86,606.52L109.94,608L112.01,605.03L114.08,595.8L116.16,594.16L118.23,591.18L120.31,583.74L122.38,595.5L124.46,583.14L126.53,577.49L128.6,585.67L130.68,591.78L132.75,573.32L134.83,572.42L136.9,596.84L138.98,602.64L141.05,604.58L143.12,589.54L145.2,616.04L147.27,599.37L149.35,605.03L151.42,591.63L153.5,603.09L155.57,612.62L157.64,610.09L159.72,606.37L161.79,608.3L163.87,596.69L165.94,616.19L168.01,623.93L170.09,621.85L172.16,613.96L174.24,618.72L176.31,616.34L178.39,616.94L180.46,609.49L182.53,617.09L184.61,622.44L186.68,604.13L188.76,609.64L190.83,606.22L192.91,602.05L194.98,606.37L197.05,599.22L199.13,607.56L201.2,624.98L203.28,624.23L205.35,610.68L207.43,616.49L209.5,619.62L211.57,619.17L213.65,607.56L215.72,601.3L217.8,617.38L219.87,614.7L221.95,616.49L224.02,599.97L226.09,605.92L228.17,631.53L230.24,633.46L232.32,630.33L234.39,637.48L236.47,640.61L238.54,628.1L240.61,638.37L242.69,640.76L244.76,640.31L246.84,639.42L248.91,641.95L250.99,641.2L253.06,637.03L255.13,641.65L257.21,643.73L259.28,635.55L261.36,643.44L263.43,639.56L265.5,651.18L267.58,643.88L269.65,641.2L271.73,629.44L273.8,644.33L275.88,645.52L277.95,644.92L280.02,643.14L282.1,649.69L286.25,644.78L288.32,651.03L290.4,650.13L292.47,642.39L294.54,650.43L296.62,648.35L298.69,648.5L300.77,650.43L304.92,652.52L306.99,651.18L309.06,651.18L311.14,642.99L313.21,643.29L315.29,647.6L317.36,637.48L319.44,643.14L321.51,652.37L323.58,638.67L325.66,647.16L327.73,647.31L329.81,649.99L331.88,651.18L333.96,656.39L336.03,654.45L338.1,647.75L340.18,649.24L342.25,650.43L344.33,654.6L346.4,654.15L348.48,654.9L350.55,653.56L352.62,654.6L354.7,657.28L356.77,655.94L358.85,650.58L360.92,662.79L363,653.56L365.07,656.09L369.22,651.92L371.29,655.64L375.44,649.09L377.51,652.52L379.59,656.39L381.66,648.2L383.74,651.62L385.81,650.58L392.03,654.6L394.11,650.13L396.18,649.54L398.26,645.67L400.33,651.03L402.41,650.73L404.48,651.03L406.55,647.9L408.63,648.05L410.7,645.67L412.78,642.54L414.85,644.18L416.93,639.42L419,640.16L421.07,645.52L423.15,642.39L425.22,635.99L427.3,633.16L429.37,637.33L431.45,621.1L433.52,630.33L435.59,620.81L437.67,624.08L439.74,608L441.82,607.11L443.89,613.36L448.04,596.54L450.11,617.83L452.19,606.81L454.26,606.81L456.34,602.94L458.41,594.61L460.49,563.49L462.56,585.23L464.63,574.66L466.71,587.61L468.78,558.73L470.86,570.49L472.93,583.44L475,576.15L477.08,586.12L479.15,580.91L483.3,527.91L485.38,547.26L487.45,571.08L489.52,547.56L491.6,556.64L493.67,560.37L495.75,551.14L497.82,561.71L499.9,547.86L501.97,569.74L504.04,562.9L506.12,545.48L508.19,550.09L510.27,542.5L512.34,544.73L514.42,522.11L516.49,512.58L518.56,541.01L520.64,544.59L522.71,543.54L524.79,528.66L526.86,534.31L528.94,516.6L531.01,522.25L533.08,526.57L535.16,511.39L537.23,520.77L539.31,519.13L541.38,518.38L543.46,499.18L545.53,470L547.6,482.8L549.68,461.07L551.75,455.41L553.83,433.23L555.9,459.88L557.98,432.34L560.05,481.91L562.12,446.33L564.2,481.76L566.27,456.75L568.35,487.57L572.5,431.29L574.57,439.33L576.64,431.15L578.72,517.49L580.79,463.3L582.87,447.67L584.94,391.55L587.01,396.46L589.09,413.43L591.16,407.77L593.24,413.58L595.31,411.2L597.39,396.16L599.46,402.71L603.61,381.27L605.68,381.13L607.76,418.19L609.83,386.34L611.91,372.49L613.98,392.59L616.05,388.87L618.13,418.05L622.28,329.02L624.35,349.27L626.43,305.65L628.5,326.79L630.57,316.81L632.65,322.92L634.72,351.65L636.8,339.89L638.87,309.22L640.95,303.41L643.02,346.29L645.09,348.82L647.17,369.22L649.24,379.04L651.32,287.63L653.39,232.55L655.47,172.26L657.54,299.1L659.61,167.05L661.69,226.45L663.76,180.89L665.84,202.03L667.91,181.49L669.99,143.83L672.06,35.15L674.13,155.14L676.21,80.41L678.28,170.77L680.36,235.53L682.43,226.9L684.5,172.56L686.58,221.39L688.65,212.75L690.73,158.27L694.88,382.91L696.95,272.45L699.02,275.87L701.1,271.41L703.17,316.52L705.25,307.88L707.32,376.21L709.4,408.67L711.47,419.09L713.54,356.11L715.62,394.23L717.69,360.58L719.77,392.59L721.84,374.57L723.92,556.79L725.99,493.22L728.06,435.02L730.14,419.09L732.21,461.07L734.29,446.03L738.44,515.56L740.51,508.11L742.58,527.02L744.66,507.52L746.73,474.17L748.81,521.66L750.88,524.19L752.96,533.12L755.03,541.61L757.1,513.17L761.25,484.89L763.33,505.88L765.4,510.2L767.48,522.55L771.62,498.29L773.7,480.42L775.77,491.29L777.85,509.6L779.92,515.41L782,523.89L784.07,525.08L786.14,519.72L788.22,481.61L790.29,520.32L794.44,424.89L796.51,491.29L798.59,471.79L800.66,505.13L802.74,463.6L804.81,449.16L806.89,407.62L808.96,478.93L811.03,507.81L813.11,443.2L815.18,436.51L817.26,407.92L819.33,395.42L821.41,401.07L823.48,414.77L825.55,437.55L827.63,433.83L829.7,313.39L831.78,344.8L833.85,302.52L835.93,303.27L838,355.97" style="vector-effect: non-scaling-stroke; fill: none; stroke: rgb(31, 119, 180); stroke-opacity: 1; stroke-width: 2px; opacity: 1;"/></g><g class="points"/><g class="text"/></g><g class="trace scatter tracebf4dcb" style="stroke-miterlimit: 2; opacity: 1;"><g class="fills"/><g class="errorbars"/><g class="lines"><path class="js-line" d="M0,667.7L80.9,667.7L82.97,604.73L85.04,652.37L87.12,644.63L89.19,646.56L91.27,639.12L93.34,638.52L95.42,633.46L97.49,641.65L99.56,641.2L101.64,627.21L103.71,633.31L105.79,627.65L107.86,625.42L112.01,632.57L114.08,636.29L116.16,617.98L118.23,624.23L120.31,613.81L122.38,620.21L124.46,617.98L126.53,622.15L128.6,624.38L130.68,605.92L132.75,599.37L134.83,607.11L136.9,604.88L138.98,594.61L141.05,589.54L143.12,602.35L145.2,571.23L147.27,579.42L149.35,575.4L151.42,583.59L153.5,576.15L155.57,593.27L157.64,626.91L159.72,601.75L161.79,616.04L163.87,605.03L165.94,609.19L168.01,609.79L170.09,614.26L172.16,628.99L174.24,600.11L176.31,614.26L178.39,602.64L180.46,611.28L182.53,617.09L184.61,626.32L186.68,628.99L188.76,624.23L190.83,620.21L192.91,629.29L194.98,611.28L197.05,618.42L199.13,634.8L201.2,628.99L203.28,606.07L205.35,622.89L207.43,621.55L209.5,612.62L211.57,599.67L213.65,616.64L215.72,618.42L217.8,619.02L219.87,608.6L221.95,611.87L224.02,613.51L226.09,622.3L228.17,631.97L230.24,617.53L232.32,585.67L234.39,592.52L236.47,622.74L238.54,615.45L240.61,604.73L242.69,630.19L244.76,635.25L246.84,615.15L248.91,634.95L250.99,631.08L253.06,635.25L255.13,630.33L259.28,641.8L261.36,633.61L263.43,639.12L265.5,634.06L267.58,641.2L269.65,641.65L271.73,654.45L273.8,645.67L277.95,637.33L280.02,641.05L282.1,641.8L284.17,640.46L286.25,643.88L288.32,641.35L290.4,637.63L292.47,642.1L294.54,641.2L296.62,627.95L298.69,651.03L300.77,648.5L302.84,649.54L304.92,647.6L306.99,646.71L309.06,652.67L311.14,648.05L313.21,650.88L315.29,651.92L317.36,654.01L319.44,636.88L321.51,645.22L323.58,647.31L325.66,646.86L329.81,652.52L331.88,651.92L333.96,641.8L336.03,643.14L338.1,642.69L340.18,643.44L342.25,649.54L344.33,648.94L346.4,650.43L348.48,645.97L350.55,644.03L352.62,650.13L354.7,651.77L356.77,645.67L358.85,652.52L360.92,656.54L363,647.75L365.07,652.96L367.14,655.34L369.22,652.67L371.29,655.79L373.37,655.34L375.44,654.3L377.51,654.45L379.59,656.39L381.66,651.92L383.74,654.3L385.81,651.62L387.89,656.09L389.96,656.54L392.03,650.58L394.11,656.24L396.18,655.34L398.26,652.37L400.33,656.09L402.41,656.83L404.48,654.01L406.55,647.31L408.63,649.99L410.7,650.43L412.78,651.92L414.85,651.18L416.93,649.99L419,649.99L421.07,647.45L423.15,646.56L425.22,649.24L427.3,649.99L431.45,647.9L433.52,650.28L437.67,641.05L439.74,641.5L441.82,641.35L443.89,639.27L445.97,641.2L448.04,638.52L450.11,629.29L452.19,625.12L454.26,625.57L456.34,617.38L458.41,624.68L460.49,618.42L462.56,619.62L464.63,599.67L466.71,591.03L468.78,603.98L470.86,602.94L472.93,588.2L477.08,586.42L479.15,562.45L481.23,564.24L483.3,559.92L485.38,563.49L487.45,562.75L491.6,574.81L493.67,551.14L495.75,551.73L497.82,561.56L499.9,566.17L501.97,565.72L504.04,577.34L506.12,574.21L508.19,560.66L510.27,557.39L512.34,558.58L514.42,574.66L516.49,558.13L518.56,566.62L520.64,564.83L522.71,552.62L524.79,545.63L526.86,549.2L528.94,548.9L531.01,539.08L533.08,544.73L535.16,543.1L537.23,527.02L539.31,526.57L541.38,526.42L543.46,540.86L545.53,537.14L547.6,545.48L549.68,551.43L551.75,535.8L553.83,531.19L555.9,516.15L557.98,518.38L560.05,509.6L562.12,520.02L564.2,498.73L566.27,445.14L568.35,462.86L570.42,457.05L572.5,464.79L576.64,446.78L578.72,506.62L580.79,447.97L582.87,464.49L587.01,442.91L589.09,452.88L591.16,471.19L593.24,463.3L595.31,416.71L597.39,438.29L599.46,436.51L601.53,425.94L603.61,433.38L605.68,457.5L607.76,437.1L609.83,381.27L611.91,399.14L613.98,406.73L616.05,382.17L618.13,417.9L620.2,439.18L622.28,398.25L624.35,363.56L626.43,368.62L628.5,371.15L630.57,390.06L632.65,380.23L634.72,421.47L636.8,384.85L638.87,333.78L640.95,368.02L643.02,334.68L645.09,382.91L647.17,369.22L649.24,347.48L651.32,335.27L653.39,334.68L655.47,338.25L657.54,301.48L659.61,361.92L661.69,343.91L663.76,358.94L665.84,367.73L667.91,220.35L669.99,254.44L672.06,260.09L674.13,233.74L676.21,296.12L678.28,257.41L680.36,168.54L682.43,162.73L684.5,132.81L688.65,189.53L690.73,209.48L692.8,246.99L694.88,240L696.95,114.8L699.02,222.58L701.1,165.26L703.17,217.37L709.4,331.1L711.47,262.03L713.54,296.86L715.62,235.98L721.84,350.31L723.92,325.75L725.99,407.92L728.06,376.51L730.14,335.27L732.21,400.33L734.29,379.34L736.36,414.62L738.44,461.07L740.51,413.28L742.58,467.62L744.66,457.05L746.73,454.22L748.81,483.85L752.96,502.16L755.03,450.95L757.1,477.59L759.18,480.87L761.25,472.23L763.33,497.99L765.4,506.47L767.48,518.53L769.55,475.51L771.62,504.84L773.7,517.79L775.77,521.21L777.85,514.51L779.92,527.91L782,521.96L784.07,505.43L786.14,508.11L788.22,495.16L790.29,496.2L792.37,503.2L794.44,519.72L796.51,523L798.59,487.27L800.66,502.45L802.74,500.37L804.81,496.35L806.89,493.97L808.96,501.86L811.03,506.18L813.11,446.18L815.18,483.7L817.26,474.76L819.33,479.98L821.41,466.28L823.48,492.78L825.55,478.49L827.63,439.78L829.7,469.85L831.78,418.34L833.85,447.22L835.93,437.99L838,440.82" style="vector-effect: non-scaling-stroke; fill: none; stroke: rgb(255, 127, 14); stroke-opacity: 1; stroke-width: 2px; opacity: 1;"/></g><g class="points"/><g class="text"/></g><g class="trace scatter trace9e42d1" style="stroke-miterlimit: 2; opacity: 1;"><g class="fills"/><g class="errorbars"/><g class="lines"><path class="js-line" d="M0,667.7L82.97,667.11L85.04,666.21L87.12,667.11L89.19,665.32L91.27,665.62L93.34,663.68L95.42,663.98L97.49,665.77L99.56,664.57L101.64,664.57L103.71,663.83L105.79,664.43L107.86,663.09L109.94,664.57L112.01,665.17L114.08,661.3L116.16,660.11L118.23,662.04L120.31,659.51L122.38,662.34L124.46,661.9L126.53,663.09L128.6,662.04L130.68,662.19L132.75,659.66L134.83,660.26L136.9,660.56L138.98,664.13L141.05,659.22L143.12,658.92L145.2,661L147.27,654.9L149.35,661.9L151.42,659.51L153.5,661.75L155.57,655.2L157.64,658.62L159.72,657.58L161.79,660.56L163.87,658.32L165.94,658.92L168.01,662.49L170.09,662.49L172.16,659.36L174.24,661.75L176.31,662.79L178.39,663.68L180.46,662.79L182.53,664.28L184.61,664.28L186.68,665.47L188.76,661.3L190.83,663.09L192.91,663.53L199.13,663.38L201.2,664.57L203.28,662.94L205.35,662.64L207.43,661.6L209.5,665.17L211.57,664.87L213.65,666.21L217.8,664.87L219.87,661L221.95,665.47L224.02,662.49L226.09,664.87L228.17,664.13L230.24,665.62L232.32,666.06L240.61,665.91L242.69,666.51L246.84,665.91L248.91,667.25L250.99,666.06L253.06,663.09L255.13,666.06L257.21,667.25L261.36,665.91L263.43,666.21L265.5,667.25L267.58,666.51L275.88,667.11L277.95,667.11L286.25,667.7L288.32,667.4L290.4,666.36L292.47,667.25L296.62,666.81L298.69,667.25L302.84,667.55L304.92,666.36L306.99,666.96L309.06,666.36L311.14,667.4L313.21,667.25L321.51,667.7L323.58,667.25L329.81,667.55L331.88,667.11L336.03,667.25L338.1,667.25L352.62,667.7L354.7,667.55L363,667.55L365.07,667.7L375.44,667.11L377.51,667.85L383.74,667.55L385.81,667.7L396.18,666.81L398.26,667.7L408.63,667.7L410.7,667.85L423.15,667.55L425.22,667.85L433.52,667.11L435.59,667.4L448.04,667.25L450.11,667.25L456.34,667.7L458.41,667.4L466.71,667.25L468.78,656.39L472.93,666.66L475,666.96L477.08,666.66L479.15,667.55L485.38,666.66L487.45,667.55L491.6,666.36L493.67,667.7L499.9,666.21L501.97,666.96L506.12,667.25L508.19,666.36L522.71,666.96L524.79,666.21L533.08,666.66L535.16,665.62L539.31,665.77L541.38,665.62L545.53,665.77L547.6,665.91L555.9,664.87L557.98,664.72L560.05,663.38L562.12,666.21L564.2,665.91L566.27,662.94L568.35,663.53L570.42,666.51L572.5,664.57L574.57,665.62L576.64,664.87L578.72,665.62L580.79,662.49L582.87,664.57L584.94,664.72L587.01,663.38L589.09,664.13L591.16,666.51L593.24,666.66L595.31,662.49L597.39,665.62L599.46,663.98L603.61,665.47L605.68,663.83L607.76,666.21L609.83,663.53L613.98,661L616.05,665.17L618.13,665.32L620.2,664.28L622.28,664.72L624.35,661.3L626.43,664.28L628.5,661.75L630.57,663.68L632.65,663.98L634.72,665.17L636.8,664.57L638.87,661.6L640.95,660.41L645.09,662.04L647.17,665.02L649.24,662.19L651.32,661.6L653.39,664.87L655.47,659.36L659.61,661.15L661.69,663.98L663.76,663.38L665.84,660.11L667.91,662.19L669.99,654.45L672.06,663.83L674.13,661.75L676.21,658.62L678.28,663.38L680.36,661.6L682.43,656.68L684.5,658.47L686.58,652.81L688.65,660.11L690.73,657.43L692.8,664.13L694.88,660.85L696.95,654.45L699.02,660.85L701.1,654.75L703.17,659.96L707.32,661.3L709.4,658.32L711.47,660.41L713.54,659.36L715.62,659.07L717.69,656.83L719.77,661.3L721.84,662.34L723.92,665.62L725.99,657.73L728.06,654.6L730.14,661L732.21,661L734.29,664.43L736.36,662.79L738.44,665.17L740.51,661.6L742.58,665.02L746.73,664.87L748.81,661.45L750.88,665.77L752.96,665.77L755.03,666.21L757.1,661.15L759.18,660.7L761.25,663.53L763.33,665.77L765.4,666.06L769.55,666.36L771.62,664.28L773.7,663.53L775.77,665.32L777.85,664.72L779.92,666.81L784.07,665.17L786.14,666.21L788.22,664.43L790.29,666.81L792.37,665.47L794.44,666.21L796.51,666.81L798.59,665.32L800.66,666.21L802.74,665.02L804.81,666.06L806.89,665.47L808.96,666.36L811.03,666.06L815.18,665.47L817.26,666.21L819.33,666.06L821.41,665.02L823.48,667.25L825.55,666.36L827.63,666.21L829.7,665.17L831.78,665.91L833.85,665.32L835.93,664.87L838,666.21" style="vector-effect: non-scaling-stroke; fill: none; stroke: rgb(44, 160, 44); stroke-opacity: 1; stroke-width: 2px; opacity: 1;"/></g><g class="points"/><g class="text"/></g></g></g><g class="overplot"/><path class="xlines-above crisp" style="fill: none;" d="M0,0"/><path class="ylines-above crisp" style="fill: none;" d="M0,0"/><g class="overlines-above"/><g class="xaxislayer-above"><g class="xtick"><text text-anchor="middle" x="0" y="741" transform="translate(84.89,0)" style="font-family: 'Open Sans', verdana, arial, sans-serif; font-size: 12px; fill: rgb(68, 68, 68); fill-opacity: 1; white-space: pre;">Mar 2020</text></g><g class="xtick"><text text-anchor="middle" x="0" y="741" transform="translate(211.42,0)" style="font-family: 'Open Sans', verdana, arial, sans-serif; font-size: 12px; fill: rgb(68, 68, 68); fill-opacity: 1; white-space: pre;">May 2020</text></g><g class="xtick"><text text-anchor="middle" x="0" y="741" transform="translate(337.95,0)" style="font-family: 'Open Sans', verdana, arial, sans-serif; font-size: 12px; fill: rgb(68, 68, 68); fill-opacity: 1; white-space: pre;">Jul 2020</text></g><g class="xtick"><text text-anchor="middle" x="0" y="741" transform="translate(466.55,0)" style="font-family: 'Open Sans', verdana, arial, sans-serif; font-size: 12px; fill: rgb(68, 68, 68); fill-opacity: 1; white-space: pre;">Sep 2020</text></g><g class="xtick"><text text-anchor="middle" x="0" y="741" transform="translate(593.08,0)" style="font-family: 'Open Sans', verdana, arial, sans-serif; font-size: 12px; fill: rgb(68, 68, 68); fill-opacity: 1; white-space: pre;">Nov 2020</text></g><g class="xtick"><text text-anchor="middle" x="0" y="741" transform="translate(719.61,0)" style="font-family: 'Open Sans', verdana, arial, sans-serif; font-size: 12px; fill: rgb(68, 68, 68); fill-opacity: 1; white-space: pre;">Jan 2021</text></g><g class="xtick"><text text-anchor="middle" x="0" y="741" transform="translate(842,0)" style="font-family: 'Open Sans', verdana, arial, sans-serif; font-size: 12px; fill: rgb(68, 68, 68); fill-opacity: 1; white-space: pre;">Mar 2021</text></g></g><g class="yaxislayer-above"><g class="ytick"><text text-anchor="end" x="59" y="4.199999999999999" transform="translate(0,692.7)" style="font-family: 'Open Sans', verdana, arial, sans-serif; font-size: 12px; fill: rgb(68, 68, 68); fill-opacity: 1; white-space: pre;">0</text></g><g class="ytick"><text text-anchor="end" x="59" y="4.199999999999999" transform="translate(0,618.27)" style="font-family: 'Open Sans', verdana, arial, sans-serif; font-size: 12px; fill: rgb(68, 68, 68); fill-opacity: 1; white-space: pre;">500</text></g><g class="ytick"><text text-anchor="end" x="59" y="4.199999999999999" transform="translate(0,543.83)" style="font-family: 'Open Sans', verdana, arial, sans-serif; font-size: 12px; fill: rgb(68, 68, 68); fill-opacity: 1; white-space: pre;">1000</text></g><g class="ytick"><text text-anchor="end" x="59" y="4.199999999999999" transform="translate(0,469.4)" style="font-family: 'Open Sans', verdana, arial, sans-serif; font-size: 12px; fill: rgb(68, 68, 68); fill-opacity: 1; white-space: pre;">1500</text></g><g class="ytick"><text text-anchor="end" x="59" y="4.199999999999999" transform="translate(0,394.96)" style="font-family: 'Open Sans', verdana, arial, sans-serif; font-size: 12px; fill: rgb(68, 68, 68); fill-opacity: 1; white-space: pre;">2000</text></g><g class="ytick"><text text-anchor="end" x="59" y="4.199999999999999" transform="translate(0,320.52)" style="font-family: 'Open Sans', verdana, arial, sans-serif; font-size: 12px; fill: rgb(68, 68, 68); fill-opacity: 1; white-space: pre;">2500</text></g><g class="ytick"><text text-anchor="end" x="59" y="4.199999999999999" transform="translate(0,246.09)" style="font-family: 'Open Sans', verdana, arial, sans-serif; font-size: 12px; fill: rgb(68, 68, 68); fill-opacity: 1; white-space: pre;">3000</text></g><g class="ytick"><text text-anchor="end" x="59" y="4.199999999999999" transform="translate(0,171.65)" style="font-family: 'Open Sans', verdana, arial, sans-serif; font-size: 12px; fill: rgb(68, 68, 68); fill-opacity: 1; white-space: pre;">3500</text></g><g class="ytick"><text text-anchor="end" x="59" y="4.199999999999999" transform="translate(0,97.22)" style="font-family: 'Open Sans', verdana, arial, sans-serif; font-size: 12px; fill: rgb(68, 68, 68); fill-opacity: 1; white-space: pre;">4000</text></g></g><g class="overaxes-above"/></g></g><g class="polarlayer"/><g class="ternarylayer"/><g class="geolayer"/><g class="funnelarealayer"/><g class="pielayer"/><g class="treemaplayer"/><g class="sunburstlayer"/><g class="glimages"/><defs id="topdefs-ae1560"><g class="clips"/><clipPath id="legendae1560"><rect width="102" height="67" x="0" y="0"/></clipPath></defs><g class="layer-above"><g class="imagelayer"/><g class="shapelayer"/></g><g class="infolayer"><g class="legend" pointer-events="all" transform="translate(914.76, 25)"><rect class="bg" shape-rendering="crispEdges" style="stroke: rgb(68, 68, 68); stroke-opacity: 1; fill: rgb(255, 255, 255); fill-opacity: 1; stroke-width: 0px;" width="102" height="67" x="0" y="0"/><g class="scrollbox" transform="translate(0, 0)" clip-path="url('#legendae1560')"><g class="groups"><g class="traces" style="opacity: 1;" transform="translate(0, 14.5)"><text class="legendtext" text-anchor="start" x="40" y="4.680000000000001" style="font-family: 'Open Sans', verdana, arial, sans-serif; font-size: 12px; fill: rgb(68, 68, 68); fill-opacity: 1; white-space: pre;">positive</text><g class="layers" style="opacity: 1;"><g class="legendfill"/><g class="legendlines"><path class="js-line" d="M5,0h30" style="fill: none; stroke: rgb(31, 119, 180); stroke-opacity: 1; stroke-width: 2px;"/></g><g class="legendsymbols"><g class="legendpoints"/></g></g><rect class="legendtoggle" x="0" y="-9.5" width="96.109375" height="19" style="fill: rgb(0, 0, 0); fill-opacity: 0;"/></g><g class="traces" style="opacity: 1;" transform="translate(0, 33.5)"><text class="legendtext" text-anchor="start" x="40" y="4.680000000000001" style="font-family: 'Open Sans', verdana, arial, sans-serif; font-size: 12px; fill: rgb(68, 68, 68); fill-opacity: 1; white-space: pre;">resolved</text><g class="layers" style="opacity: 1;"><g class="legendfill"/><g class="legendlines"><path class="js-line" d="M5,0h30" style="fill: none; stroke: rgb(255, 127, 14); stroke-opacity: 1; stroke-width: 2px;"/></g><g class="legendsymbols"><g class="legendpoints"/></g></g><rect class="legendtoggle" x="0" y="-9.5" width="96.109375" height="19" style="fill: rgb(0, 0, 0); fill-opacity: 0;"/></g><g class="traces" style="opacity: 1;" transform="translate(0, 52.5)"><text class="legendtext" text-anchor="start" x="40" y="4.680000000000001" style="font-family: 'Open Sans', verdana, arial, sans-serif; font-size: 12px; fill: rgb(68, 68, 68); fill-opacity: 1; white-space: pre;">deceased</text><g class="layers" style="opacity: 1;"><g class="legendfill"/><g class="legendlines"><path class="js-line" d="M5,0h30" style="fill: none; stroke: rgb(44, 160, 44); stroke-opacity: 1; stroke-width: 2px;"/></g><g class="legendsymbols"><g class="legendpoints"/></g></g><rect class="legendtoggle" x="0" y="-9.5" width="96.109375" height="19" style="fill: rgb(0, 0, 0); fill-opacity: 0;"/></g></g></g><rect class="scrollbar" rx="20" ry="3" width="0" height="0" style="fill: rgb(128, 139, 164); fill-opacity: 1;" x="0" y="0"/></g><g class="g-gtitle"><text class="gtitle" x="513.5" y="12.5" text-anchor="middle" dy="0em" style="font-family: 'Open Sans', verdana, arial, sans-serif; font-size: 17px; fill: rgb(68, 68, 68); opacity: 1; font-weight: normal; white-space: pre;">Dynamics of new cases, resolved cases and deaths in Ontario (Mar 29, 2021)</text></g><g class="g-xtitle" transform="translate(0,-15)"><text class="xtitle" x="479" y="780" text-anchor="middle" style="font-family: 'Open Sans', verdana, arial, sans-serif; font-size: 14px; fill: rgb(68, 68, 68); opacity: 1; font-weight: normal; white-space: pre;">Date</text></g><g class="g-ytitle"><text class="ytitle" transform="rotate(-90,22,376.5)" x="22" y="376.5" text-anchor="middle" style="font-family: 'Open Sans', verdana, arial, sans-serif; font-size: 14px; fill: rgb(68, 68, 68); opacity: 1; font-weight: normal; white-space: pre;">Number of cases</text></g></g></svg>