<svg class="main-svg" xmlns="http://www.w3.org/2000/svg" xmlns:xlink="http://www.w3.org/1999/xlink" width="1027" height="768" style="" viewBox="0 0 1027 768"><rect x="0" y="0" width="1027" height="768" style="fill: rgb(255, 255, 255); fill-opacity: 1;"/><defs id="defs-658636"><g class="clips"><clipPath id="clip658636xyplot" class="plotclip"><rect width="838" height="703"/></clipPath><clipPath class="axesclip" id="clip658636x"><rect x="60" y="0" width="838" height="768"/></clipPath><clipPath class="axesclip" id="clip658636y"><rect x="0" y="25" width="1027" height="703"/></clipPath><clipPath class="axesclip" id="clip658636xy"><rect x="60" y="25" width="838" height="703"/></clipPath></g><g class="gradients"/></defs><g class="bglayer"/><g class="layer-below"><g class="imagelayer"/><g class="shapelayer"/></g><g class="cartesianlayer"><g class="subplot xy"><g class="layer-subplot"><g class="shapelayer"/><g class="imagelayer"/></g><g class="gridlayer"><g class="x"><path class="xgrid crisp" transform="translate(106.34,0)" d="M0,25v703" style="stroke: rgb(238, 238, 238); stroke-opacity: 1; stroke-width: 1px;"/><path class="xgrid crisp" transform="translate(226.06,0)" d="M0,25v703" style="stroke: rgb(238, 238, 238); stroke-opacity: 1; stroke-width: 1px;"/><path class="xgrid crisp" transform="translate(341.91,0)" d="M0,25v703" style="stroke: rgb(238, 238, 238); stroke-opacity: 1; stroke-width: 1px;"/><path class="xgrid crisp" transform="translate(461.62,0)" d="M0,25v703" style="stroke: rgb(238, 238, 238); stroke-opacity: 1; stroke-width: 1px;"/><path class="xgrid crisp" transform="translate(577.47,0)" d="M0,25v703" style="stroke: rgb(238, 238, 238); stroke-opacity: 1; stroke-width: 1px;"/><path class="xgrid crisp" transform="translate(697.19,0)" d="M0,25v703" style="stroke: rgb(238, 238, 238); stroke-opacity: 1; stroke-width: 1px;"/><path class="xgrid crisp" transform="translate(816.9,0)" d="M0,25v703" style="stroke: rgb(238, 238, 238); stroke-opacity: 1; stroke-width: 1px;"/></g><g class="y"><path class="ygrid crisp" transform="translate(0,594.39)" d="M60,0h838" style="stroke: rgb(238, 238, 238); stroke-opacity: 1; stroke-width: 1px;"/><path class="ygrid crisp" transform="translate(0,496.9)" d="M60,0h838" style="stroke: rgb(238, 238, 238); stroke-opacity: 1; stroke-width: 1px;"/><path class="ygrid crisp" transform="translate(0,399.41)" d="M60,0h838" style="stroke: rgb(238, 238, 238); stroke-opacity: 1; stroke-width: 1px;"/><path class="ygrid crisp" transform="translate(0,301.92)" d="M60,0h838" style="stroke: rgb(238, 238, 238); stroke-opacity: 1; stroke-width: 1px;"/><path class="ygrid crisp" transform="translate(0,204.43)" d="M60,0h838" style="stroke: rgb(238, 238, 238); stroke-opacity: 1; stroke-width: 1px;"/><path class="ygrid crisp" transform="translate(0,106.94)" d="M60,0h838" style="stroke: rgb(238, 238, 238); stroke-opacity: 1; stroke-width: 1px;"/></g></g><g class="zerolinelayer"><path class="yzl zl crisp" transform="translate(0,691.88)" d="M60,0h838" style="stroke: rgb(68, 68, 68); stroke-opacity: 1; stroke-width: 1px;"/></g><path class="xlines-below"/><path class="ylines-below"/><g class="overlines-below"/><g class="xaxislayer-below"/><g class="yaxislayer-below"/><g class="overaxes-below"/><g class="plot" transform="translate(60, 25)" clip-path="url('#clip658636xyplot')"><g class="scatterlayer mlayer"><g class="trace scatter tracee38898" style="stroke-miterlimit: 2; opacity: 1;"><g class="fills"/><g class="errorbars"/><g class="lines"><path class="js-line" d="M0,666.88L3.86,666.88L7.72,667.85L11.59,667.85L23.17,665.9L30.89,666.88L34.76,665.9L38.62,665.9L50.2,655.18L54.06,664.93L57.93,666.88L61.79,665.9L65.65,662.98L69.51,664.93L77.24,660.05L81.1,666.88L84.96,661.03L88.82,650.3L92.68,647.38L96.54,643.48L100.41,625.93L104.27,635.68L108.13,656.15L111.99,642.5L115.85,624.96L119.71,608.38L123.58,611.31L127.44,623.98L131.3,591.81L135.16,585.96L139.02,574.26L142.88,503.09L146.75,538.19L150.61,520.64L154.47,92.67L158.33,413.41L162.19,251.57L166.06,275.95L169.92,216.48L173.78,301.29L177.64,269.12L181.5,365.64L185.36,297.39L189.23,130.69L193.09,196.01L196.95,200.88L200.81,266.2L204.67,275.95L208.53,256.45L212.4,196.01L216.26,185.28L220.12,165.78L223.98,117.04L227.84,194.06L231.71,113.14L235.57,76.1L239.43,129.71L243.29,169.68L247.15,48.8L251.01,42.95L254.88,202.83L258.74,240.85L262.6,253.52L266.46,155.06L270.32,328.59L274.18,219.4L278.05,256.45L281.91,168.71L285.77,243.78L289.63,306.17L293.49,289.59L297.35,265.22L301.22,277.9L305.08,201.86L308.94,329.57L312.8,380.26L316.66,366.61L320.53,314.94L324.39,346.14L328.25,330.54L332.11,334.44L335.97,285.7L339.83,335.41L343.7,370.51L347.56,250.6L351.42,286.67L355.28,264.25L359.14,236.95L363,265.22L366.87,218.43L370.73,273.02L374.59,387.08L378.45,382.21L382.31,293.49L386.18,331.51L390.04,351.99L393.9,349.06L397.76,273.02L401.62,232.08L405.48,337.36L409.35,319.82L413.21,331.51L417.07,223.3L420.93,262.3L424.79,429.98L428.65,442.65L432.52,422.18L436.38,468.97L440.24,489.45L444.1,407.56L447.96,474.82L451.82,490.42L455.69,487.5L459.55,481.65L463.41,498.22L467.27,493.35L471.13,466.05L475,496.27L478.86,509.92L482.72,456.3L486.58,507.97L490.44,482.62L494.3,558.66L498.17,510.89L502.03,493.35L505.89,416.33L509.75,513.82L513.61,521.62L517.47,517.72L521.34,506.02L525.2,548.91L532.92,516.74L536.78,557.69L540.65,551.84L544.51,501.14L548.37,553.79L552.23,540.14L556.09,541.12L559.95,553.79L563.82,558.66L567.68,567.44L571.54,558.66L575.4,558.66L579.26,505.04L583.12,506.99L586.99,535.27L590.85,468.97L594.71,506.02L598.57,566.46L602.43,476.77L606.29,532.34L610.16,533.32L614.02,550.86L617.88,558.66L621.74,592.78L625.6,580.11L629.47,536.24L637.19,553.79L641.05,581.09L644.91,578.16L648.77,583.04L652.64,574.26L656.5,581.09L660.36,598.63L664.22,589.86L668.08,554.76L671.94,634.7L675.81,574.26L679.67,590.83L687.39,563.54L691.25,587.91L695.12,570.36L698.98,545.01L706.7,592.78L710.56,539.17L714.42,561.59L718.29,554.76L722.15,564.51L726.01,569.39L729.87,581.09L733.73,551.84L737.59,547.94L741.46,522.59L745.32,557.69L749.18,555.74L753.04,557.69L756.9,537.22L760.76,538.19L764.63,522.59L768.49,502.12L772.35,512.84L776.21,481.65L780.07,486.52L783.94,521.62L787.8,501.14L791.66,459.22L795.52,440.7L799.38,468L803.24,361.74L807.11,422.18L810.97,359.79L814.83,381.23L818.69,275.95L822.55,270.1L826.41,311.04L834.14,200.88L838,340.29" style="vector-effect: non-scaling-stroke; fill: none; stroke: rgb(31, 119, 180); stroke-opacity: 1; stroke-width: 2px; opacity: 1;"/></g><g class="points"/><g class="text"/></g><g class="trace scatter trace24e697" style="stroke-miterlimit: 2; opacity: 1;"><g class="fills"/><g class="errorbars"/><g class="lines"><path class="js-line" d="M0,666.88L3.86,666.88L7.72,665.9L11.59,665.9L23.17,666.88L57.93,666.88L61.79,665.9L65.65,666.88L69.51,666.88L77.24,666.88L81.1,665.9L84.96,666.88L88.82,666.88L119.71,666.88L123.58,665.9L127.44,664.93L131.3,666.88L150.61,666.88L154.47,254.5L158.33,566.46L162.19,515.77L166.06,528.44L169.92,479.7L173.78,475.8L177.64,442.65L181.5,496.27L185.36,493.35L189.23,401.71L193.09,441.68L196.95,404.63L200.81,390.01L204.67,410.48L208.53,436.8L212.4,461.17L216.26,341.26L220.12,382.21L223.98,313.97L227.84,355.89L231.71,341.26L235.57,368.56L239.43,383.18L243.29,262.3L247.15,219.4L251.01,270.1L254.88,255.47L258.74,188.21L262.6,155.06L266.46,238.9L270.32,35.15L274.18,88.77L278.05,62.45L281.91,116.07L285.77,67.32L289.63,179.43L293.49,399.76L297.35,235L301.22,328.59L305.08,256.45L308.94,283.75L312.8,287.65L316.66,316.89L320.53,413.41L324.39,224.28L328.25,316.89L332.11,240.85L335.97,297.39L339.83,335.41L343.7,395.86L347.56,413.41L355.28,355.89L359.14,415.35L363,297.39L366.87,344.19L370.73,451.43L374.59,413.41L378.45,263.27L382.31,373.43L386.18,364.66L390.04,306.17L393.9,221.35L397.76,332.49L401.62,344.19L405.48,348.09L409.35,279.85L413.21,301.29L417.07,312.02L420.93,369.54L424.79,432.9L428.65,338.34L432.52,129.71L436.38,174.56L440.24,372.46L444.1,324.69L447.96,254.5L451.82,421.2L455.69,454.35L459.55,322.74L463.41,452.4L467.27,427.05L471.13,454.35L475,422.18L482.72,497.25L486.58,443.63L490.44,479.7L494.3,446.55L498.17,493.35L502.03,496.27L505.89,580.11L509.75,522.59L513.61,489.45L517.47,468L521.34,492.37L525.2,497.25L529.06,488.47L532.92,510.89L536.78,494.32L540.65,469.95L544.51,499.19L548.37,493.35L552.23,406.58L556.09,557.69L559.95,541.12L563.82,547.94L567.68,535.27L571.54,529.42L575.4,568.41L579.26,538.19L583.12,556.71L586.99,563.54L590.85,577.19L594.71,465.07L598.57,519.67L602.43,533.32L606.29,530.39L610.16,550.86L614.02,567.44L617.88,563.54L621.74,497.25L625.6,506.02L629.47,503.09L633.33,507.97L637.19,547.94L641.05,544.04L644.91,553.79L648.77,524.54L652.64,511.87L656.5,551.84L660.36,562.56L664.22,522.59L668.08,567.44L671.94,593.76L675.81,536.24L679.67,570.36L683.53,585.96L687.39,568.41L691.25,588.88L695.12,585.96L698.98,579.14L702.84,580.11L706.7,592.78L710.56,563.54L714.42,579.14L718.29,561.59L722.15,590.83L726.01,593.76L729.87,554.76L733.73,591.81L737.59,585.96L741.46,566.46L745.32,590.83L749.18,595.71L753.04,577.19L756.9,533.32L760.76,550.86L764.63,553.79L768.49,563.54L772.35,558.66L776.21,550.86L780.07,550.86L783.94,534.29L787.8,528.44L791.66,545.99L795.52,550.86L799.38,545.99L803.24,537.22L807.11,552.81L810.97,516.74L814.83,492.37L818.69,495.3L822.55,494.32L826.41,480.67L830.28,493.35L834.14,475.8L838,415.35" style="vector-effect: non-scaling-stroke; fill: none; stroke: rgb(255, 127, 14); stroke-opacity: 1; stroke-width: 2px; opacity: 1;"/></g><g class="points"/><g class="text"/></g><g class="trace scatter trace40b125" style="stroke-miterlimit: 2; opacity: 1;"><g class="fills"/><g class="errorbars"/><g class="lines"><path class="js-line" d="M0,666.88L104.27,666.88L108.13,665.9L111.99,666.88L115.85,665.9L119.71,666.88L123.58,665.9L127.44,664.93L131.3,665.9L135.16,664.93L139.02,662L142.88,664.93L146.75,663.95L150.61,665.9L154.47,662.98L158.33,657.13L162.19,662.98L166.06,651.28L169.92,653.23L173.78,640.55L177.64,642.5L181.5,654.2L185.36,646.4L189.23,646.4L193.09,641.53L196.95,645.43L200.81,636.65L204.67,646.4L208.53,650.3L212.4,624.96L216.26,617.16L220.12,629.83L223.98,613.26L227.84,631.78L231.71,628.85L235.57,636.65L239.43,629.83L243.29,630.8L247.15,614.23L251.01,618.13L254.88,620.08L258.74,643.48L262.6,611.31L266.46,609.36L270.32,623.01L274.18,583.04L278.05,628.85L281.91,613.26L285.77,627.88L289.63,584.98L293.49,607.41L297.35,600.58L301.22,620.08L305.08,605.46L308.94,609.36L312.8,632.75L316.66,632.75L320.53,612.28L324.39,627.88L332.11,640.55L335.97,634.7L339.83,644.45L343.7,644.45L347.56,652.25L351.42,624.96L355.28,636.65L359.14,639.58L363,640.55L366.87,642.5L370.73,638.6L374.59,646.4L378.45,635.68L382.31,633.73L386.18,626.9L390.04,650.3L393.9,648.35L397.76,657.13L401.62,650.3L405.48,648.35L409.35,623.01L413.21,652.25L417.07,632.75L420.93,648.35L424.79,643.48L428.65,653.23L432.52,656.15L436.38,655.18L440.24,656.15L444.1,658.1L447.96,655.18L451.82,659.08L455.69,656.15L459.55,655.18L463.41,663.95L467.27,656.15L471.13,636.65L475,656.15L478.86,663.95L482.72,657.13L486.58,655.18L490.44,657.13L494.3,663.95L498.17,659.08L502.03,661.03L505.89,660.05L509.75,660.05L513.61,662.98L517.47,662.98L521.34,664.93L525.2,662L529.06,664.93L532.92,666.88L536.78,664.93L540.65,658.1L544.51,663.95L548.37,660.05L552.23,661.03L556.09,663.95L559.95,663.95L563.82,665.9L567.68,658.1L571.54,662L575.4,658.1L579.26,664.93L583.12,663.95L586.99,665.9L590.85,665.9L594.71,664.93L598.57,666.88L602.43,663.95L606.29,665.9L610.16,662.98L614.02,665.9L617.88,662.98L621.74,665.9L625.6,663.95L629.47,663.95L641.05,666.88L644.91,662.98L648.77,666.88L652.64,665.9L656.5,666.88L660.36,665.9L664.22,664.93L668.08,666.88L671.94,666.88L675.81,665.9L679.67,666.88L683.53,665.9L687.39,665.9L691.25,666.88L695.12,666.88L698.98,662.98L702.84,667.85L706.7,665.9L710.56,663.95L714.42,665.9L718.29,666.88L722.15,665.9L726.01,664.93L729.87,664.93L733.73,665.9L737.59,661.03L741.46,666.88L745.32,665.9L753.04,665.9L756.9,666.88L760.76,666.88L764.63,667.85L768.49,666.88L772.35,664.93L776.21,666.88L780.07,666.88L783.94,666.88L787.8,665.9L791.66,667.85L795.52,665.9L803.24,665.9L807.11,662.98L810.97,664.93L814.83,663.95L818.69,666.88L822.55,665.9L826.41,665.9L830.28,664.93L834.14,663.95L838,663.95" style="vector-effect: non-scaling-stroke; fill: none; stroke: rgb(44, 160, 44); stroke-opacity: 1; stroke-width: 2px; opacity: 1;"/></g><g class="points"/><g class="text"/></g></g></g><g class="overplot"/><path class="xlines-above crisp" style="fill: none;" d="M0,0"/><path class="ylines-above crisp" style="fill: none;" d="M0,0"/><g class="overlines-above"/><g class="xaxislayer-above"><g class="xtick"><text text-anchor="middle" x="0" y="741" transform="translate(106.34,0)" style="font-family: 'Open Sans', verdana, arial, sans-serif; font-size: 12px; fill: rgb(68, 68, 68); fill-opacity: 1; white-space: pre;">Mar 2020</text></g><g class="xtick"><text text-anchor="middle" x="0" y="741" transform="translate(226.06,0)" style="font-family: 'Open Sans', verdana, arial, sans-serif; font-size: 12px; fill: rgb(68, 68, 68); fill-opacity: 1; white-space: pre;">Apr 2020</text></g><g class="xtick"><text text-anchor="middle" x="0" y="741" transform="translate(341.91,0)" style="font-family: 'Open Sans', verdana, arial, sans-serif; font-size: 12px; fill: rgb(68, 68, 68); fill-opacity: 1; white-space: pre;">May 2020</text></g><g class="xtick"><text text-anchor="middle" x="0" y="741" transform="translate(461.62,0)" style="font-family: 'Open Sans', verdana, arial, sans-serif; font-size: 12px; fill: rgb(68, 68, 68); fill-opacity: 1; white-space: pre;">Jun 2020</text></g><g class="xtick"><text text-anchor="middle" x="0" y="741" transform="translate(577.47,0)" style="font-family: 'Open Sans', verdana, arial, sans-serif; font-size: 12px; fill: rgb(68, 68, 68); fill-opacity: 1; white-space: pre;">Jul 2020</text></g><g class="xtick"><text text-anchor="middle" x="0" y="741" transform="translate(697.19,0)" style="font-family: 'Open Sans', verdana, arial, sans-serif; font-size: 12px; fill: rgb(68, 68, 68); fill-opacity: 1; white-space: pre;">Aug 2020</text></g><g class="xtick"><text text-anchor="middle" x="0" y="741" transform="translate(816.9,0)" style="font-family: 'Open Sans', verdana, arial, sans-serif; font-size: 12px; fill: rgb(68, 68, 68); fill-opacity: 1; white-space: pre;">Sep 2020</text></g></g><g class="yaxislayer-above"><g class="ytick"><text text-anchor="end" x="59" y="4.199999999999999" transform="translate(0,691.88)" style="font-family: 'Open Sans', verdana, arial, sans-serif; font-size: 12px; fill: rgb(68, 68, 68); fill-opacity: 1; white-space: pre;">0</text></g><g class="ytick"><text text-anchor="end" x="59" y="4.199999999999999" transform="translate(0,594.39)" style="font-family: 'Open Sans', verdana, arial, sans-serif; font-size: 12px; fill: rgb(68, 68, 68); fill-opacity: 1; white-space: pre;">100</text></g><g class="ytick"><text text-anchor="end" x="59" y="4.199999999999999" transform="translate(0,496.9)" style="font-family: 'Open Sans', verdana, arial, sans-serif; font-size: 12px; fill: rgb(68, 68, 68); fill-opacity: 1; white-space: pre;">200</text></g><g class="ytick"><text text-anchor="end" x="59" y="4.199999999999999" transform="translate(0,399.41)" style="font-family: 'Open Sans', verdana, arial, sans-serif; font-size: 12px; fill: rgb(68, 68, 68); fill-opacity: 1; white-space: pre;">300</text></g><g class="ytick"><text text-anchor="end" x="59" y="4.199999999999999" transform="translate(0,301.92)" style="font-family: 'Open Sans', verdana, arial, sans-serif; font-size: 12px; fill: rgb(68, 68, 68); fill-opacity: 1; white-space: pre;">400</text></g><g class="ytick"><text text-anchor="end" x="59" y="4.199999999999999" transform="translate(0,204.43)" style="font-family: 'Open Sans', verdana, arial, sans-serif; font-size: 12px; fill: rgb(68, 68, 68); fill-opacity: 1; white-space: pre;">500</text></g><g class="ytick"><text text-anchor="end" x="59" y="4.199999999999999" transform="translate(0,106.94)" style="font-family: 'Open Sans', verdana, arial, sans-serif; font-size: 12px; fill: rgb(68, 68, 68); fill-opacity: 1; white-space: pre;">600</text></g></g><g class="overaxes-above"/></g></g><g class="polarlayer"/><g class="ternarylayer"/><g class="geolayer"/><g class="funnelarealayer"/><g class="pielayer"/><g class="treemaplayer"/><g class="sunburstlayer"/><g class="glimages"/><defs id="topdefs-658636"><g class="clips"/><clipPath id="legend658636"><rect width="102" height="67" x="0" y="0"/></clipPath></defs><g class="layer-above"><g class="imagelayer"/><g class="shapelayer"/></g><g class="infolayer"><g class="legend" pointer-events="all" transform="translate(914.76, 25)"><rect class="bg" shape-rendering="crispEdges" style="stroke: rgb(68, 68, 68); stroke-opacity: 1; fill: rgb(255, 255, 255); fill-opacity: 1; stroke-width: 0px;" width="102" height="67" x="0" y="0"/><g class="scrollbox" transform="translate(0, 0)" clip-path="url('#legend658636')"><g class="groups"><g class="traces" style="opacity: 1;" transform="translate(0, 14.5)"><text class="legendtext user-select-none" text-anchor="start" x="40" y="4.680000000000001" style="font-family: 'Open Sans', verdana, arial, sans-serif; font-size: 12px; fill: rgb(68, 68, 68); fill-opacity: 1; white-space: pre;">positive</text><g class="layers" style="opacity: 1;"><g class="legendfill"/><g class="legendlines"><path class="js-line" d="M5,0h30" style="fill: none; stroke: rgb(31, 119, 180); stroke-opacity: 1; stroke-width: 2px;"/></g><g class="legendsymbols"><g class="legendpoints"/></g></g><rect class="legendtoggle" pointer-events="all" x="0" y="-9.5" width="96.109375" height="19" style="cursor: pointer; fill: rgb(0, 0, 0); fill-opacity: 0;"/></g><g class="traces" style="opacity: 1;" transform="translate(0, 33.5)"><text class="legendtext user-select-none" text-anchor="start" x="40" y="4.680000000000001" style="font-family: 'Open Sans', verdana, arial, sans-serif; font-size: 12px; fill: rgb(68, 68, 68); fill-opacity: 1; white-space: pre;">resolved</text><g class="layers" style="opacity: 1;"><g class="legendfill"/><g class="legendlines"><path class="js-line" d="M5,0h30" style="fill: none; stroke: rgb(255, 127, 14); stroke-opacity: 1; stroke-width: 2px;"/></g><g class="legendsymbols"><g class="legendpoints"/></g></g><rect class="legendtoggle" pointer-events="all" x="0" y="-9.5" width="96.109375" height="19" style="cursor: pointer; fill: rgb(0, 0, 0); fill-opacity: 0;"/></g><g class="traces" style="opacity: 1;" transform="translate(0, 52.5)"><text class="legendtext user-select-none" text-anchor="start" x="40" y="4.680000000000001" style="font-family: 'Open Sans', verdana, arial, sans-serif; font-size: 12px; fill: rgb(68, 68, 68); fill-opacity: 1; white-space: pre;">deceased</text><g class="layers" style="opacity: 1;"><g class="legendfill"/><g class="legendlines"><path class="js-line" d="M5,0h30" style="fill: none; stroke: rgb(44, 160, 44); stroke-opacity: 1; stroke-width: 2px;"/></g><g class="legendsymbols"><g class="legendpoints"/></g></g><rect class="legendtoggle" pointer-events="all" x="0" y="-9.5" width="96.109375" height="19" style="cursor: pointer; fill: rgb(0, 0, 0); fill-opacity: 0;"/></g></g></g><rect class="scrollbar" rx="20" ry="3" width="0" height="0" style="fill: rgb(128, 139, 164); fill-opacity: 1;" x="0" y="0"/></g><g class="g-gtitle"><text class="gtitle" x="513.5" y="12.5" text-anchor="middle" dy="0em" style="font-family: 'Open Sans', verdana, arial, sans-serif; font-size: 17px; fill: rgb(68, 68, 68); opacity: 1; font-weight: normal; white-space: pre;">Dynamics of new cases, resolved cases and deaths in Ontario (Sep 23, 2020)</text></g><g class="g-xtitle" transform="translate(0,-15)"><text class="xtitle" x="479" y="780" text-anchor="middle" style="font-family: 'Open Sans', verdana, arial, sans-serif; font-size: 14px; fill: rgb(68, 68, 68); opacity: 1; font-weight: normal; white-space: pre;">Date</text></g><g class="g-ytitle"><text class="ytitle" transform="rotate(-90,22,376.5)" x="22" y="376.5" text-anchor="middle" style="font-family: 'Open Sans', verdana, arial, sans-serif; font-size: 14px; fill: rgb(68, 68, 68); opacity: 1; font-weight: normal; white-space: pre;">Number of cases</text></g></g></svg>