<svg class="main-svg" xmlns="http://www.w3.org/2000/svg" xmlns:xlink="http://www.w3.org/1999/xlink" width="1027" height="768" style="" viewBox="0 0 1027 768"><rect x="0" y="0" width="1027" height="768" style="fill: rgb(255, 255, 255); fill-opacity: 1;"/><defs id="defs-e9e0db"><g class="clips"><clipPath id="clipe9e0dbxyplot" class="plotclip"><rect width="838" height="703"/></clipPath><clipPath class="axesclip" id="clipe9e0dbx"><rect x="60" y="0" width="838" height="768"/></clipPath><clipPath class="axesclip" id="clipe9e0dby"><rect x="0" y="25" width="1027" height="703"/></clipPath><clipPath class="axesclip" id="clipe9e0dbxy"><rect x="60" y="25" width="838" height="703"/></clipPath></g><g class="gradients"/></defs><g class="bglayer"/><g class="layer-below"><g class="imagelayer"/><g class="shapelayer"/></g><g class="cartesianlayer"><g class="subplot xy"><g class="layer-subplot"><g class="shapelayer"/><g class="imagelayer"/></g><g class="gridlayer"><g class="x"><path class="xgrid crisp" transform="translate(90.47,0)" d="M0,25v703" style="stroke: rgb(238, 238, 238); stroke-opacity: 1; stroke-width: 1px;"/><path class="xgrid crisp" transform="translate(245.38,0)" d="M0,25v703" style="stroke: rgb(238, 238, 238); stroke-opacity: 1; stroke-width: 1px;"/><path class="xgrid crisp" transform="translate(400.28,0)" d="M0,25v703" style="stroke: rgb(238, 238, 238); stroke-opacity: 1; stroke-width: 1px;"/><path class="xgrid crisp" transform="translate(557.72,0)" d="M0,25v703" style="stroke: rgb(238, 238, 238); stroke-opacity: 1; stroke-width: 1px;"/><path class="xgrid crisp" transform="translate(712.62,0)" d="M0,25v703" style="stroke: rgb(238, 238, 238); stroke-opacity: 1; stroke-width: 1px;"/><path class="xgrid crisp" transform="translate(867.53,0)" d="M0,25v703" style="stroke: rgb(238, 238, 238); stroke-opacity: 1; stroke-width: 1px;"/></g><g class="y"><path class="ygrid crisp" transform="translate(0,618.27)" d="M60,0h838" style="stroke: rgb(238, 238, 238); stroke-opacity: 1; stroke-width: 1px;"/><path class="ygrid crisp" transform="translate(0,543.83)" d="M60,0h838" style="stroke: rgb(238, 238, 238); stroke-opacity: 1; stroke-width: 1px;"/><path class="ygrid crisp" transform="translate(0,469.4)" d="M60,0h838" style="stroke: rgb(238, 238, 238); stroke-opacity: 1; stroke-width: 1px;"/><path class="ygrid crisp" transform="translate(0,394.96)" d="M60,0h838" style="stroke: rgb(238, 238, 238); stroke-opacity: 1; stroke-width: 1px;"/><path class="ygrid crisp" transform="translate(0,320.52)" d="M60,0h838" style="stroke: rgb(238, 238, 238); stroke-opacity: 1; stroke-width: 1px;"/><path class="ygrid crisp" transform="translate(0,246.09)" d="M60,0h838" style="stroke: rgb(238, 238, 238); stroke-opacity: 1; stroke-width: 1px;"/><path class="ygrid crisp" transform="translate(0,171.65)" d="M60,0h838" style="stroke: rgb(238, 238, 238); stroke-opacity: 1; stroke-width: 1px;"/><path class="ygrid crisp" transform="translate(0,97.22)" d="M60,0h838" style="stroke: rgb(238, 238, 238); stroke-opacity: 1; stroke-width: 1px;"/></g></g><g class="zerolinelayer"><path class="yzl zl crisp" transform="translate(0,692.7)" d="M60,0h838" style="stroke: rgb(68, 68, 68); stroke-opacity: 1; stroke-width: 1px;"/></g><path class="xlines-below"/><path class="ylines-below"/><g class="overlines-below"/><g class="xaxislayer-below"/><g class="yaxislayer-below"/><g class="overaxes-below"/><g class="plot" transform="translate(60, 25)" clip-path="url('#clipe9e0dbxyplot')"><g class="scatterlayer mlayer"><g class="trace scatter tracef6bfd0" style="stroke-miterlimit: 2; opacity: 1;"><g class="fills"/><g class="errorbars"/><g class="lines"><path class="js-line" d="M0,667.7L25.39,667.55L33.01,665.91L35.55,667.4L38.09,667.7L50.79,666.66L53.33,667.7L63.48,664.13L66.02,661.45L68.56,662.94L71.1,666.06L76.18,661.3L78.72,658.77L81.26,659.22L83.8,661.15L86.34,656.24L88.88,655.34L91.42,653.56L93.96,642.69L96.5,648.05L99.04,645.37L101.58,580.02L104.12,628.99L106.65,604.28L109.19,608L111.73,598.92L114.27,611.87L116.81,606.96L119.35,621.7L121.89,611.28L124.43,585.82L126.97,595.8L129.51,596.54L132.05,606.52L134.59,608L137.13,605.03L139.67,595.8L142.21,594.16L144.75,591.18L147.28,583.74L149.82,595.5L152.36,583.14L154.9,577.49L159.98,591.78L162.52,573.32L165.06,572.42L167.6,596.84L170.14,602.64L172.68,604.58L175.22,589.54L177.76,616.04L180.3,599.37L182.84,605.03L185.38,591.63L187.92,603.09L190.45,612.62L192.99,610.09L195.53,606.37L198.07,608.3L200.61,596.69L203.15,616.19L205.69,623.93L208.23,621.85L210.77,613.96L213.31,618.72L215.85,616.34L218.39,616.94L220.93,609.49L223.47,617.09L226.01,622.44L228.55,604.13L231.08,609.64L233.62,606.22L236.16,602.05L238.7,606.37L241.24,599.22L243.78,607.56L246.32,624.98L248.86,624.23L251.4,610.68L253.94,616.49L256.48,619.62L259.02,619.17L261.56,607.56L264.1,601.3L266.64,617.38L269.18,614.7L271.72,616.49L274.25,599.97L276.79,605.92L279.33,631.53L281.87,633.46L284.41,630.33L286.95,637.48L289.49,640.61L292.03,628.1L294.57,638.37L297.11,640.76L299.65,640.31L302.19,639.42L304.73,641.95L307.27,641.2L309.81,637.03L312.35,641.65L314.88,643.73L317.42,635.55L319.96,643.44L322.5,639.56L325.04,651.18L327.58,643.88L330.12,641.2L332.66,629.44L335.2,644.33L337.74,645.52L340.28,644.92L342.82,643.14L345.36,649.69L350.44,644.78L352.98,651.03L355.52,650.13L358.05,642.39L360.59,650.43L363.13,648.35L365.67,648.5L368.21,650.43L373.29,652.52L375.83,651.18L378.37,651.18L380.91,642.99L383.45,643.29L385.99,647.6L388.53,637.48L391.07,643.14L393.61,652.37L396.15,638.67L398.68,647.16L401.22,647.31L403.76,649.99L406.3,651.18L408.84,656.39L411.38,654.45L413.92,647.75L416.46,649.24L419,650.43L421.54,654.6L424.08,654.15L426.62,654.9L429.16,653.56L431.7,654.6L434.24,657.28L436.78,655.94L439.32,650.58L441.85,662.79L444.39,653.56L446.93,656.09L452.01,651.92L454.55,655.64L457.09,652.96L459.63,649.09L464.71,656.39L467.25,648.2L469.79,651.62L472.33,650.58L479.95,654.6L482.48,650.13L485.02,649.54L487.56,645.67L490.1,651.03L492.64,650.73L495.18,651.03L497.72,647.9L500.26,648.05L502.8,645.67L505.34,642.54L507.88,644.18L510.42,639.42L512.96,640.16L515.5,645.52L518.04,642.39L520.58,635.99L523.12,633.16L525.65,637.33L528.19,621.1L530.73,630.33L533.27,620.81L535.81,624.08L538.35,608L540.89,607.11L543.43,613.36L548.51,596.54L551.05,617.83L553.59,606.81L556.13,606.81L558.67,602.94L561.21,594.61L563.75,563.49L566.28,585.23L568.82,574.66L571.36,587.61L573.9,558.73L576.44,570.49L578.98,583.44L581.52,576.15L584.06,586.12L586.6,580.91L589.14,549.05L591.68,527.91L596.76,571.08L599.3,547.56L601.84,556.64L604.38,560.37L606.92,551.14L609.45,561.71L611.99,547.86L614.53,569.74L617.07,562.9L619.61,545.48L622.15,550.09L624.69,542.5L627.23,544.73L629.77,522.11L632.31,512.58L634.85,541.01L637.39,544.59L639.93,543.54L642.47,528.66L645.01,534.31L647.55,516.6L650.08,522.25L652.62,526.57L655.16,511.39L657.7,520.77L660.24,519.13L662.78,518.38L665.32,499.18L667.86,470L670.4,482.8L672.94,461.07L675.48,455.41L678.02,433.23L680.56,459.88L683.1,432.34L685.64,481.91L688.18,446.33L690.72,481.76L693.25,456.75L695.79,487.57L700.87,431.29L703.41,439.33L705.95,431.15L708.49,517.49L711.03,463.3L713.57,447.67L716.11,391.55L718.65,396.46L721.19,413.43L723.73,407.77L726.27,413.58L728.81,411.2L731.35,396.16L733.88,402.71L738.96,381.27L741.5,381.13L744.04,418.19L746.58,386.34L749.12,372.49L751.66,392.59L754.2,388.87L756.74,418.05L761.82,329.02L764.36,349.27L766.9,305.65L769.44,326.79L771.98,316.81L774.52,322.92L777.05,351.65L779.59,339.89L782.13,309.22L784.67,303.41L787.21,346.29L789.75,348.82L792.29,369.22L794.83,379.04L797.37,287.63L799.91,232.55L802.45,172.26L804.99,299.1L807.53,167.05L810.07,226.45L812.61,180.89L815.15,202.03L817.68,181.49L820.22,143.83L822.76,35.15L825.3,155.14L827.84,80.41L830.38,170.77L832.92,235.53L835.46,226.9L838,172.56" style="vector-effect: non-scaling-stroke; fill: none; stroke: rgb(31, 119, 180); stroke-opacity: 1; stroke-width: 2px; opacity: 1;"/></g><g class="points"/><g class="text"/></g><g class="trace scatter tracec7d3a3" style="stroke-miterlimit: 2; opacity: 1;"><g class="fills"/><g class="errorbars"/><g class="lines"><path class="js-line" d="M0,667.7L99.04,667.7L101.58,604.73L104.12,652.37L106.65,644.63L109.19,646.56L111.73,639.12L114.27,638.52L116.81,633.46L119.35,641.65L121.89,641.2L124.43,627.21L126.97,633.31L129.51,627.65L132.05,625.42L137.13,632.57L139.67,636.29L142.21,617.98L144.75,624.23L147.28,613.81L149.82,620.21L152.36,617.98L154.9,622.15L157.44,624.38L159.98,605.92L162.52,599.37L165.06,607.11L167.6,604.88L170.14,594.61L172.68,589.54L175.22,602.35L177.76,571.23L180.3,579.42L182.84,575.4L185.38,583.59L187.92,576.15L190.45,593.27L192.99,626.91L195.53,601.75L198.07,616.04L200.61,605.03L203.15,609.19L205.69,609.79L208.23,614.26L210.77,628.99L213.31,600.11L215.85,614.26L218.39,602.64L220.93,611.28L223.47,617.09L226.01,626.32L228.55,628.99L231.08,624.23L233.62,620.21L236.16,629.29L238.7,611.28L241.24,618.42L243.78,634.8L246.32,628.99L248.86,606.07L251.4,622.89L253.94,621.55L256.48,612.62L259.02,599.67L261.56,616.64L264.1,618.42L266.64,619.02L269.18,608.6L271.72,611.87L274.25,613.51L276.79,622.3L279.33,631.97L281.87,617.53L284.41,585.67L286.95,592.52L289.49,622.74L292.03,615.45L294.57,604.73L297.11,630.19L299.65,635.25L302.19,615.15L304.73,634.95L307.27,631.08L309.81,635.25L312.35,630.33L317.42,641.8L319.96,633.61L322.5,639.12L325.04,634.06L327.58,641.2L330.12,641.65L332.66,654.45L335.2,645.67L337.74,640.61L340.28,637.33L342.82,641.05L345.36,641.8L347.9,640.46L350.44,643.88L352.98,641.35L355.52,637.63L358.05,642.1L360.59,641.2L363.13,627.95L365.67,651.03L368.21,648.5L370.75,649.54L373.29,647.6L375.83,646.71L378.37,652.67L380.91,648.05L383.45,650.88L385.99,651.92L388.53,654.01L391.07,636.88L393.61,645.22L396.15,647.31L398.68,646.86L401.22,649.99L403.76,652.52L406.3,651.92L408.84,641.8L411.38,643.14L413.92,642.69L416.46,643.44L419,649.54L421.54,648.94L424.08,650.43L426.62,645.97L429.16,644.03L431.7,650.13L434.24,651.77L436.78,645.67L439.32,652.52L441.85,656.54L444.39,647.75L446.93,652.96L449.47,655.34L452.01,652.67L454.55,655.79L457.09,655.34L459.63,654.3L462.17,654.45L464.71,656.39L467.25,651.92L469.79,654.3L472.33,651.62L474.87,656.09L477.41,656.54L479.95,650.58L482.48,656.24L485.02,655.34L487.56,652.37L490.1,656.09L492.64,656.83L495.18,654.01L497.72,647.31L500.26,649.99L502.8,650.43L505.34,651.92L507.88,651.18L510.42,649.99L512.96,649.99L515.5,647.45L518.04,646.56L520.58,649.24L523.12,649.99L528.19,647.9L530.73,650.28L535.81,641.05L538.35,641.5L540.89,641.35L543.43,639.27L545.97,641.2L548.51,638.52L551.05,629.29L553.59,625.12L556.13,625.57L558.67,617.38L561.21,624.68L563.75,618.42L566.28,619.62L568.82,599.67L571.36,591.03L573.9,603.98L576.44,602.94L578.98,588.2L584.06,586.42L586.6,562.45L589.14,564.24L591.68,559.92L594.22,563.49L596.76,562.75L601.84,574.81L604.38,551.14L606.92,551.73L609.45,561.56L611.99,566.17L614.53,565.72L617.07,577.34L619.61,574.21L622.15,560.66L624.69,557.39L627.23,558.58L629.77,574.66L632.31,558.13L634.85,566.62L637.39,564.83L639.93,552.62L642.47,545.63L645.01,549.2L647.55,548.9L650.08,539.08L652.62,544.73L655.16,543.1L657.7,527.02L660.24,526.57L662.78,526.42L665.32,540.86L667.86,537.14L670.4,545.48L672.94,551.43L675.48,535.8L678.02,531.19L680.56,516.15L683.1,518.38L685.64,509.6L688.18,520.02L690.72,498.73L693.25,445.14L695.79,462.86L698.33,457.05L700.87,464.79L705.95,446.78L708.49,506.62L711.03,447.97L713.57,464.49L716.11,451.69L718.65,442.91L721.19,452.88L723.73,471.19L726.27,463.3L728.81,416.71L731.35,438.29L733.88,436.51L736.42,425.94L738.96,433.38L741.5,457.5L744.04,437.1L746.58,381.27L749.12,399.14L751.66,406.73L754.2,382.17L756.74,417.9L759.28,439.18L764.36,363.56L766.9,368.62L769.44,371.15L771.98,390.06L774.52,380.23L777.05,421.47L779.59,384.85L782.13,333.78L784.67,368.02L787.21,334.68L789.75,382.91L792.29,369.22L794.83,347.48L797.37,335.27L799.91,334.68L802.45,338.25L804.99,301.48L807.53,361.92L810.07,343.91L812.61,358.94L815.15,367.73L817.68,220.35L820.22,254.44L822.76,260.09L825.3,233.74L827.84,296.12L830.38,257.41L832.92,168.54L835.46,162.73L838,132.81" style="vector-effect: non-scaling-stroke; fill: none; stroke: rgb(255, 127, 14); stroke-opacity: 1; stroke-width: 2px; opacity: 1;"/></g><g class="points"/><g class="text"/></g><g class="trace scatter tracec8e9ab" style="stroke-miterlimit: 2; opacity: 1;"><g class="fills"/><g class="errorbars"/><g class="lines"><path class="js-line" d="M0,667.7L101.58,667.11L104.12,666.21L106.65,667.11L109.19,665.32L111.73,665.62L114.27,663.68L116.81,663.98L119.35,665.77L121.89,664.57L124.43,664.57L126.97,663.83L129.51,664.43L132.05,663.09L134.59,664.57L137.13,665.17L139.67,661.3L142.21,660.11L144.75,662.04L147.28,659.51L149.82,662.34L152.36,661.9L154.9,663.09L157.44,662.04L159.98,662.19L162.52,659.66L165.06,660.26L167.6,660.56L170.14,664.13L172.68,659.22L175.22,658.92L177.76,661L180.3,654.9L182.84,661.9L185.38,659.51L187.92,661.75L190.45,655.2L192.99,658.62L195.53,657.58L198.07,660.56L200.61,658.32L203.15,658.92L205.69,662.49L208.23,662.49L210.77,659.36L213.31,661.75L215.85,662.79L218.39,663.68L220.93,662.79L223.47,664.28L226.01,664.28L228.55,665.47L231.08,661.3L233.62,663.09L236.16,663.53L243.78,663.38L246.32,664.57L248.86,662.94L251.4,662.64L253.94,661.6L256.48,665.17L259.02,664.87L261.56,666.21L266.64,664.87L269.18,661L271.72,665.47L274.25,662.49L276.79,664.87L279.33,664.13L281.87,665.62L284.41,666.06L294.57,665.91L297.11,666.51L302.19,665.91L304.73,667.25L307.27,666.06L309.81,663.09L312.35,666.06L314.88,667.25L319.96,665.91L322.5,666.21L325.04,667.25L327.58,666.51L337.74,667.11L340.28,667.11L350.44,667.7L352.98,667.4L355.52,666.36L358.05,667.25L363.13,666.81L365.67,667.25L370.75,667.55L373.29,666.36L375.83,666.96L378.37,666.36L380.91,667.4L383.45,667.25L393.61,667.7L396.15,667.25L403.76,667.55L406.3,667.11L411.38,667.25L413.92,667.25L431.7,667.7L434.24,667.55L444.39,667.55L446.93,667.7L459.63,667.11L462.17,667.85L469.79,667.55L472.33,667.7L485.02,666.81L487.56,667.7L500.26,667.7L502.8,667.85L518.04,667.55L520.58,667.85L530.73,667.11L533.27,667.4L548.51,667.25L551.05,667.25L558.67,667.7L561.21,667.4L571.36,667.25L573.9,656.39L578.98,666.66L581.52,666.96L584.06,666.66L586.6,667.55L594.22,666.66L596.76,667.55L601.84,666.36L604.38,667.7L611.99,666.21L614.53,666.96L619.61,667.25L622.15,666.36L639.93,666.96L642.47,666.21L652.62,666.66L655.16,665.62L660.24,665.77L662.78,665.62L667.86,665.77L670.4,665.91L680.56,664.87L683.1,664.72L685.64,663.38L688.18,666.21L690.72,665.91L693.25,662.94L695.79,663.53L698.33,666.51L700.87,664.57L703.41,665.62L705.95,664.87L708.49,665.62L711.03,662.49L713.57,664.57L716.11,664.72L718.65,663.38L721.19,664.13L723.73,666.51L726.27,666.66L728.81,662.49L731.35,665.62L733.88,663.98L738.96,665.47L741.5,663.83L744.04,666.21L746.58,663.53L751.66,661L754.2,665.17L756.74,665.32L759.28,664.28L761.82,664.72L764.36,661.3L766.9,664.28L769.44,661.75L771.98,663.68L774.52,663.98L777.05,665.17L779.59,664.57L782.13,661.6L784.67,660.41L789.75,662.04L792.29,665.02L794.83,662.19L797.37,661.6L799.91,664.87L802.45,659.36L807.53,661.15L810.07,663.98L812.61,663.38L815.15,660.11L817.68,662.19L820.22,654.45L822.76,663.83L825.3,661.75L827.84,658.62L830.38,663.38L832.92,661.6L835.46,656.68L838,658.47" style="vector-effect: non-scaling-stroke; fill: none; stroke: rgb(44, 160, 44); stroke-opacity: 1; stroke-width: 2px; opacity: 1;"/></g><g class="points"/><g class="text"/></g></g></g><g class="overplot"/><path class="xlines-above crisp" style="fill: none;" d="M0,0"/><path class="ylines-above crisp" style="fill: none;" d="M0,0"/><g class="overlines-above"/><g class="xaxislayer-above"><g class="xtick"><text text-anchor="middle" x="0" y="741" transform="translate(90.47,0)" style="font-family: 'Open Sans', verdana, arial, sans-serif; font-size: 12px; fill: rgb(68, 68, 68); fill-opacity: 1; white-space: pre;">Mar 2020</text></g><g class="xtick"><text text-anchor="middle" x="0" y="741" transform="translate(245.38,0)" style="font-family: 'Open Sans', verdana, arial, sans-serif; font-size: 12px; fill: rgb(68, 68, 68); fill-opacity: 1; white-space: pre;">May 2020</text></g><g class="xtick"><text text-anchor="middle" x="0" y="741" transform="translate(400.28,0)" style="font-family: 'Open Sans', verdana, arial, sans-serif; font-size: 12px; fill: rgb(68, 68, 68); fill-opacity: 1; white-space: pre;">Jul 2020</text></g><g class="xtick"><text text-anchor="middle" x="0" y="741" transform="translate(557.72,0)" style="font-family: 'Open Sans', verdana, arial, sans-serif; font-size: 12px; fill: rgb(68, 68, 68); fill-opacity: 1; white-space: pre;">Sep 2020</text></g><g class="xtick"><text text-anchor="middle" x="0" y="741" transform="translate(712.62,0)" style="font-family: 'Open Sans', verdana, arial, sans-serif; font-size: 12px; fill: rgb(68, 68, 68); fill-opacity: 1; white-space: pre;">Nov 2020</text></g><g class="xtick"><text text-anchor="middle" x="0" y="741" transform="translate(867.53,0)" style="font-family: 'Open Sans', verdana, arial, sans-serif; font-size: 12px; fill: rgb(68, 68, 68); fill-opacity: 1; white-space: pre;">Jan 2021</text></g></g><g class="yaxislayer-above"><g class="ytick"><text text-anchor="end" x="59" y="4.199999999999999" transform="translate(0,692.7)" style="font-family: 'Open Sans', verdana, arial, sans-serif; font-size: 12px; fill: rgb(68, 68, 68); fill-opacity: 1; white-space: pre;">0</text></g><g class="ytick"><text text-anchor="end" x="59" y="4.199999999999999" transform="translate(0,618.27)" style="font-family: 'Open Sans', verdana, arial, sans-serif; font-size: 12px; fill: rgb(68, 68, 68); fill-opacity: 1; white-space: pre;">500</text></g><g class="ytick"><text text-anchor="end" x="59" y="4.199999999999999" transform="translate(0,543.83)" style="font-family: 'Open Sans', verdana, arial, sans-serif; font-size: 12px; fill: rgb(68, 68, 68); fill-opacity: 1; white-space: pre;">1000</text></g><g class="ytick"><text text-anchor="end" x="59" y="4.199999999999999" transform="translate(0,469.4)" style="font-family: 'Open Sans', verdana, arial, sans-serif; font-size: 12px; fill: rgb(68, 68, 68); fill-opacity: 1; white-space: pre;">1500</text></g><g class="ytick"><text text-anchor="end" x="59" y="4.199999999999999" transform="translate(0,394.96)" style="font-family: 'Open Sans', verdana, arial, sans-serif; font-size: 12px; fill: rgb(68, 68, 68); fill-opacity: 1; white-space: pre;">2000</text></g><g class="ytick"><text text-anchor="end" x="59" y="4.199999999999999" transform="translate(0,320.52)" style="font-family: 'Open Sans', verdana, arial, sans-serif; font-size: 12px; fill: rgb(68, 68, 68); fill-opacity: 1; white-space: pre;">2500</text></g><g class="ytick"><text text-anchor="end" x="59" y="4.199999999999999" transform="translate(0,246.09)" style="font-family: 'Open Sans', verdana, arial, sans-serif; font-size: 12px; fill: rgb(68, 68, 68); fill-opacity: 1; white-space: pre;">3000</text></g><g class="ytick"><text text-anchor="end" x="59" y="4.199999999999999" transform="translate(0,171.65)" style="font-family: 'Open Sans', verdana, arial, sans-serif; font-size: 12px; fill: rgb(68, 68, 68); fill-opacity: 1; white-space: pre;">3500</text></g><g class="ytick"><text text-anchor="end" x="59" y="4.199999999999999" transform="translate(0,97.22)" style="font-family: 'Open Sans', verdana, arial, sans-serif; font-size: 12px; fill: rgb(68, 68, 68); fill-opacity: 1; white-space: pre;">4000</text></g></g><g class="overaxes-above"/></g></g><g class="polarlayer"/><g class="ternarylayer"/><g class="geolayer"/><g class="funnelarealayer"/><g class="pielayer"/><g class="treemaplayer"/><g class="sunburstlayer"/><g class="glimages"/><defs id="topdefs-e9e0db"><g class="clips"/><clipPath id="legende9e0db"><rect width="102" height="67" x="0" y="0"/></clipPath></defs><g class="layer-above"><g class="imagelayer"/><g class="shapelayer"/></g><g class="infolayer"><g class="legend" pointer-events="all" transform="translate(914.76, 25)"><rect class="bg" shape-rendering="crispEdges" style="stroke: rgb(68, 68, 68); stroke-opacity: 1; fill: rgb(255, 255, 255); fill-opacity: 1; stroke-width: 0px;" width="102" height="67" x="0" y="0"/><g class="scrollbox" transform="translate(0, 0)" clip-path="url('#legende9e0db')"><g class="groups"><g class="traces" style="opacity: 1;" transform="translate(0, 14.5)"><text class="legendtext" text-anchor="start" x="40" y="4.680000000000001" style="font-family: 'Open Sans', verdana, arial, sans-serif; font-size: 12px; fill: rgb(68, 68, 68); fill-opacity: 1; white-space: pre;">positive</text><g class="layers" style="opacity: 1;"><g class="legendfill"/><g class="legendlines"><path class="js-line" d="M5,0h30" style="fill: none; stroke: rgb(31, 119, 180); stroke-opacity: 1; stroke-width: 2px;"/></g><g class="legendsymbols"><g class="legendpoints"/></g></g><rect class="legendtoggle" x="0" y="-9.5" width="96.109375" height="19" style="fill: rgb(0, 0, 0); fill-opacity: 0;"/></g><g class="traces" style="opacity: 1;" transform="translate(0, 33.5)"><text class="legendtext" text-anchor="start" x="40" y="4.680000000000001" style="font-family: 'Open Sans', verdana, arial, sans-serif; font-size: 12px; fill: rgb(68, 68, 68); fill-opacity: 1; white-space: pre;">resolved</text><g class="layers" style="opacity: 1;"><g class="legendfill"/><g class="legendlines"><path class="js-line" d="M5,0h30" style="fill: none; stroke: rgb(255, 127, 14); stroke-opacity: 1; stroke-width: 2px;"/></g><g class="legendsymbols"><g class="legendpoints"/></g></g><rect class="legendtoggle" x="0" y="-9.5" width="96.109375" height="19" style="fill: rgb(0, 0, 0); fill-opacity: 0;"/></g><g class="traces" style="opacity: 1;" transform="translate(0, 52.5)"><text class="legendtext" text-anchor="start" x="40" y="4.680000000000001" style="font-family: 'Open Sans', verdana, arial, sans-serif; font-size: 12px; fill: rgb(68, 68, 68); fill-opacity: 1; white-space: pre;">deceased</text><g class="layers" style="opacity: 1;"><g class="legendfill"/><g class="legendlines"><path class="js-line" d="M5,0h30" style="fill: none; stroke: rgb(44, 160, 44); stroke-opacity: 1; stroke-width: 2px;"/></g><g class="legendsymbols"><g class="legendpoints"/></g></g><rect class="legendtoggle" x="0" y="-9.5" width="96.109375" height="19" style="fill: rgb(0, 0, 0); fill-opacity: 0;"/></g></g></g><rect class="scrollbar" rx="20" ry="3" width="0" height="0" style="fill: rgb(128, 139, 164); fill-opacity: 1;" x="0" y="0"/></g><g class="g-gtitle"><text class="gtitle" x="513.5" y="12.5" text-anchor="middle" dy="0em" style="font-family: 'Open Sans', verdana, arial, sans-serif; font-size: 17px; fill: rgb(68, 68, 68); opacity: 1; font-weight: normal; white-space: pre;">Dynamics of new cases, resolved cases and deaths in Ontario (Jan 14, 2021)</text></g><g class="g-xtitle" transform="translate(0,-15)"><text class="xtitle" x="479" y="780" text-anchor="middle" style="font-family: 'Open Sans', verdana, arial, sans-serif; font-size: 14px; fill: rgb(68, 68, 68); opacity: 1; font-weight: normal; white-space: pre;">Date</text></g><g class="g-ytitle"><text class="ytitle" transform="rotate(-90,22,376.5)" x="22" y="376.5" text-anchor="middle" style="font-family: 'Open Sans', verdana, arial, sans-serif; font-size: 14px; fill: rgb(68, 68, 68); opacity: 1; font-weight: normal; white-space: pre;">Number of cases</text></g></g></svg>