<svg class="main-svg" xmlns="http://www.w3.org/2000/svg" xmlns:xlink="http://www.w3.org/1999/xlink" width="1027" height="768" style="" viewBox="0 0 1027 768"><rect x="0" y="0" width="1027" height="768" style="fill: rgb(255, 255, 255); fill-opacity: 1;"/><defs id="defs-95b52d"><g class="clips"><clipPath id="clip95b52dxyplot" class="plotclip"><rect width="838" height="703"/></clipPath><clipPath class="axesclip" id="clip95b52dx"><rect x="60" y="0" width="838" height="768"/></clipPath><clipPath class="axesclip" id="clip95b52dy"><rect x="0" y="25" width="1027" height="703"/></clipPath><clipPath class="axesclip" id="clip95b52dxy"><rect x="60" y="25" width="838" height="703"/></clipPath></g><g class="gradients"/><g class="patterns"/></defs><g class="bglayer"/><g class="layer-below"><g class="imagelayer"/><g class="shapelayer"/></g><g class="cartesianlayer"><g class="subplot xy"><g class="layer-subplot"><g class="shapelayer"/><g class="imagelayer"/></g><g class="gridlayer"><g class="x"><path class="xgrid crisp" transform="translate(115.18,0)" d="M0,25v703" style="stroke: rgb(238, 238, 238); stroke-opacity: 1; stroke-width: 1px;"/><path class="xgrid crisp" transform="translate(231.96,0)" d="M0,25v703" style="stroke: rgb(238, 238, 238); stroke-opacity: 1; stroke-width: 1px;"/><path class="xgrid crisp" transform="translate(350.03,0)" d="M0,25v703" style="stroke: rgb(238, 238, 238); stroke-opacity: 1; stroke-width: 1px;"/><path class="xgrid crisp" transform="translate(468.09,0)" d="M0,25v703" style="stroke: rgb(238, 238, 238); stroke-opacity: 1; stroke-width: 1px;"/><path class="xgrid crisp" transform="translate(583.59,0)" d="M0,25v703" style="stroke: rgb(238, 238, 238); stroke-opacity: 1; stroke-width: 1px;"/><path class="xgrid crisp" transform="translate(700.37,0)" d="M0,25v703" style="stroke: rgb(238, 238, 238); stroke-opacity: 1; stroke-width: 1px;"/><path class="xgrid crisp" transform="translate(818.43,0)" d="M0,25v703" style="stroke: rgb(238, 238, 238); stroke-opacity: 1; stroke-width: 1px;"/></g><g class="y"><path class="ygrid crisp" transform="translate(0,559.91)" d="M60,0h838" style="stroke: rgb(238, 238, 238); stroke-opacity: 1; stroke-width: 1px;"/><path class="ygrid crisp" transform="translate(0,428.81)" d="M60,0h838" style="stroke: rgb(238, 238, 238); stroke-opacity: 1; stroke-width: 1px;"/><path class="ygrid crisp" transform="translate(0,297.71)" d="M60,0h838" style="stroke: rgb(238, 238, 238); stroke-opacity: 1; stroke-width: 1px;"/><path class="ygrid crisp" transform="translate(0,166.61)" d="M60,0h838" style="stroke: rgb(238, 238, 238); stroke-opacity: 1; stroke-width: 1px;"/><path class="ygrid crisp" transform="translate(0,35.5)" d="M60,0h838" style="stroke: rgb(238, 238, 238); stroke-opacity: 1; stroke-width: 1px;"/></g></g><g class="zerolinelayer"><path class="yzl zl crisp" transform="translate(0,691.01)" d="M60,0h838" style="stroke: rgb(68, 68, 68); stroke-opacity: 1; stroke-width: 1px;"/></g><path class="xlines-below"/><path class="ylines-below"/><g class="overlines-below"/><g class="xaxislayer-below"/><g class="yaxislayer-below"/><g class="overaxes-below"/><g class="plot" transform="translate(60,25)" clip-path="url(#clip95b52dxyplot)"><g class="scatterlayer mlayer"><g class="trace scatter trace542201" style="stroke-miterlimit: 2; opacity: 1;"><g class="fills"/><g class="errorbars"/><g class="lines"><path class="js-line" d="M3.85,666.28L12.83,665.88L16.68,664.44L19.25,666.01L0,667.85L1.28,666.01L2.57,666.01L14.12,665.75L15.4,664.44L23.1,665.88L24.38,665.23L25.67,665.88L26.95,665.23L29.52,663.39L30.8,662.87L32.08,660.51L33.37,661.82L34.65,664.44L35.93,662.74L38.5,658.15L39.78,658.28L41.07,659.72L42.35,655.79L43.63,654.87L44.92,652.9L46.2,643.73L47.48,648.32L48.77,646.22L50.05,638.35L51.33,620L52.62,631.93L53.9,610.16L55.18,613.44L56.47,605.45L57.75,616.85L59.03,612.52L60.32,625.5L61.6,616.33L62.88,593.91L64.17,602.69L65.45,603.35L66.73,612.13L68.02,613.44L69.3,610.82L70.58,602.69L71.87,601.25L73.15,598.63L74.43,592.07L75.72,602.43L78.28,586.57L79.57,593.78L80.85,599.15L82.13,582.9L83.42,582.11L84.7,603.61L85.98,608.72L87.26,610.43L88.55,597.19L89.83,620.52L91.11,605.84L92.4,610.82L93.68,599.02L94.96,609.12L96.25,617.51L97.53,615.28L98.81,612L100.1,613.7L101.38,603.48L102.66,620.65L103.95,627.47L105.23,625.64L106.51,618.69L107.8,622.88L109.08,620.78L110.36,621.31L111.65,614.75L112.93,621.44L114.21,626.16L115.5,610.03L116.78,614.88L118.06,611.87L119.35,608.2L120.63,612L121.91,605.71L123.2,613.05L124.48,628.39L125.76,627.73L127.05,615.8L128.33,620.92L129.61,623.67L130.9,623.28L133.46,607.54L134.75,621.7L136.03,619.34L137.31,620.92L138.6,606.36L139.88,611.61L141.16,634.16L142.45,635.86L143.73,633.11L145.01,639.4L146.3,642.15L147.58,631.14L148.86,640.19L150.15,642.29L152.71,641.11L154,643.33L155.28,642.68L156.56,639.01L159.13,644.91L160.41,637.7L161.7,644.64L162.98,641.24L164.26,651.46L165.55,645.04L166.83,642.68L168.11,632.32L169.4,645.43L170.68,646.48L171.96,645.96L173.25,644.38L174.53,650.15L175.81,647.92L177.1,645.82L178.38,651.33L179.66,650.54L180.95,643.73L182.23,650.81L183.51,648.97L184.8,649.1L186.08,650.81L188.65,652.64L189.93,651.46L191.21,651.46L192.5,644.25L193.78,644.51L195.06,648.32L196.35,639.4L197.63,644.38L198.91,652.51L200.2,640.45L201.48,647.92L202.76,648.05L205.33,651.46L206.61,656.05L207.9,654.35L209.18,648.45L211.75,650.81L213.03,654.48L214.31,654.08L215.6,654.74L216.88,653.56L218.16,654.48L219.45,656.84L220.73,655.66L222.01,650.94L223.3,661.69L224.58,653.56L225.86,655.79L228.43,652.12L229.71,655.4L232.28,649.63L233.56,652.64L234.85,656.05L236.13,648.84L237.41,651.86L238.7,650.94L242.55,654.48L243.83,650.54L245.11,650.02L246.4,646.61L247.68,651.33L248.96,651.07L250.25,651.33L251.53,648.58L252.81,648.71L254.09,646.61L255.38,643.86L256.66,645.3L257.94,641.11L259.23,641.76L260.51,646.48L261.79,643.73L264.36,635.6L265.64,639.27L266.93,624.98L268.21,633.11L269.49,624.72L270.78,627.6L272.06,613.44L273.34,612.66L274.63,618.16L275.91,610.3L277.19,603.35L278.48,622.1L279.76,612.39L281.04,612.39L282.33,608.99L283.61,601.64L284.89,574.24L286.18,593.38L287.46,584.08L288.74,595.48L290.03,570.05L291.31,580.4L292.59,591.81L293.88,585.39L295.16,594.17L296.44,589.58L299.01,542.91L300.29,559.95L301.58,580.93L302.86,560.21L304.14,568.21L305.43,571.49L306.71,563.36L307.99,572.67L309.28,560.48L310.56,579.75L311.84,573.72L313.13,558.38L314.41,562.44L315.69,555.76L316.98,557.72L318.26,537.8L319.54,529.41L320.83,554.45L322.11,557.59L323.39,556.68L324.68,543.56L325.96,548.55L327.24,532.95L328.53,537.93L329.81,541.73L331.09,528.36L332.38,536.62L333.66,535.17L334.94,534.52L336.23,517.61L337.51,491.91L338.79,503.19L340.08,484.04L341.36,479.06L342.64,459.53L343.93,483L345.21,458.74L346.49,502.4L347.78,471.07L349.06,502.27L350.34,480.24L351.63,507.38L354.19,457.82L355.48,464.9L356.76,457.69L358.04,533.73L359.33,486.01L360.61,472.25L361.89,422.82L363.18,427.15L364.46,442.09L365.74,437.11L367.03,442.22L368.31,440.13L369.59,426.88L370.88,432.65L373.44,413.77L374.73,413.64L376.01,446.29L377.29,418.23L378.58,406.04L379.86,423.74L381.14,420.46L382.43,446.16L384.99,367.76L386.28,385.59L387.56,347.17L388.84,365.79L390.13,357.01L391.41,362.38L392.69,387.68L393.98,377.33L395.26,350.32L396.54,345.21L397.83,382.96L399.11,385.19L401.68,411.81L402.96,331.31L405.53,229.71L406.81,341.41L408.09,225.12L409.38,277.43L410.66,237.31L411.94,255.93L413.23,237.83L414.51,204.67L415.79,108.96L417.08,214.63L418.36,148.82L419.64,228.39L420.92,285.42L422.21,277.82L423.49,229.97L424.77,272.97L426.06,265.37L427.34,217.38L429.91,415.22L431.19,317.94L432.47,320.95L433.76,317.02L435.04,356.74L436.32,349.14L438.89,437.9L440.17,447.07L441.46,391.62L442.74,425.18L444.02,395.55L445.31,423.74L446.59,407.87L447.87,568.34L450.44,461.1L451.72,447.07L453.01,484.04L454.29,470.8L456.86,532.03L458.14,525.47L459.42,542.12L460.71,524.95L461.99,495.58L463.27,537.4L464.56,539.63L465.84,547.5L467.12,554.97L468.41,529.93L470.97,505.02L472.26,523.51L473.54,527.31L474.82,538.19L477.39,516.82L478.67,501.09L479.96,510.66L481.24,526.78L483.81,539.37L485.09,540.42L486.37,535.7L487.66,502.14L488.94,536.22L490.22,495.71L491.51,452.19L492.79,510.66L494.07,493.48L495.36,522.85L496.64,486.27L497.92,473.56L499.21,436.98L500.49,499.78L501.77,525.21L503.06,468.31L504.34,462.41L505.62,437.24L506.91,426.23L508.19,431.21L509.47,443.27L510.76,463.33L512.04,460.05L513.32,353.99L514.61,381.65L515.89,344.42L517.17,345.08L518.46,391.49L519.74,359.76L521.02,360.15L522.31,330.79L523.59,261.04L524.87,271.53L526.16,267.33L527.44,280.84L528.72,264.19L531.29,234.03L532.57,111.84L533.86,166.12L535.14,81.82L536.42,89.03L537.71,184.87L540.27,45.11L541.56,35.15L542.84,94.15L544.12,108.83L545.41,83L546.69,211.22L547.97,113.81L549.26,183.3L550.54,75.4L551.82,129.28L553.11,148.55L554.39,205.85L555.67,237.97L556.96,209.78L558.24,158.52L559.52,156.42L560.81,224.33L562.09,176.74L563.37,215.55L564.66,300.11L565.94,280.44L567.22,217.12L569.79,290.54L571.07,244.39L573.64,394.24L574.92,361.86L576.21,304.3L577.49,356.35L578.77,327.25L580.06,377.72L581.34,381.52L582.62,454.15L583.91,457.82L585.19,351.37L586.47,418.23L587.75,430.82L589.04,444.32L590.32,476.44L591.6,529.8L592.89,522.46L594.17,517.21L595.45,499.12L596.74,527.44L598.02,530.59L599.3,545.92L600.59,574.37L601.87,569.92L603.15,551.96L604.44,546.19L605.72,568.47L607,579.09L608.29,597.19L610.85,612.13L612.14,588.66L613.42,590.76L614.7,600.2L615.99,596.53L617.27,607.41L618.55,627.21L619.84,615.67L621.12,617.51L622.4,620.78L623.69,619.47L624.97,624.32L626.25,630.62L627.54,627.21L628.82,632.58L630.1,627.21L631.39,632.45L632.67,620.65L635.24,638.48L636.52,626.81L637.8,641.89L639.09,628.78L640.37,639.79L641.65,638.61L642.94,638.09L644.22,643.73L645.5,634.03L646.79,640.58L648.07,638.48L649.35,642.02L650.64,642.55L651.92,644.25L653.2,651.07L654.49,646.87L655.77,645.96L657.05,647.27L659.62,642.94L660.9,642.81L662.19,648.97L663.47,649.36L664.75,648.32L666.04,641.76L667.32,640.84L668.6,643.73L669.89,643.46L671.17,650.41L672.45,649.1L673.74,645.3L675.02,637.43L676.3,636.39L677.59,632.19L678.87,637.43L680.15,643.99L681.44,644.51L682.72,647.79L684,638.09L685.29,621.44L686.57,616.46L687.85,610.56L689.14,623.41L690.42,623.93L691.7,623.54L692.99,598.76L694.27,599.15L695.55,590.24L696.84,599.02L698.12,597.05L699.4,620.39L700.69,602.43L701.97,596.4L703.25,580.8L704.54,575.69L705.82,571.36L707.1,582.24L708.39,602.3L709.67,579.49L710.95,577.13L712.24,563.62L713.52,556.54L714.8,569L716.09,575.03L717.37,597.19L719.94,552.61L721.22,560.21L722.5,542.25L723.79,559.69L725.07,589.84L726.35,592.07L727.64,593.38L728.92,561.39L730.2,554.84L731.49,553.66L732.77,563.23L734.05,587.35L735.34,590.37L736.62,588.27L737.9,552.74L739.19,561.79L740.47,558.38L741.75,572.28L743.04,586.04L744.32,590.76L745.6,605.31L746.89,577.26L748.17,570.7L749.45,582.11L750.74,580.4L752.02,585.65L753.3,604.92L754.58,601.12L755.87,581.19L757.15,578.44L758.43,573.72L759.72,589.98L762.28,609.77L763.57,603.61L764.85,589.06L766.13,590.89L767.42,580.27L768.7,595.87L772.55,625.9L773.83,611.34L775.12,600.99L776.4,602.3L777.68,607.94L778.97,617.11L781.53,626.16L782.82,611.87L784.1,601.51L785.38,617.11L786.67,617.51L787.95,623.28L789.23,630.75L790.52,623.93L791.8,612.39L793.08,611.08L794.37,619.34L795.65,621.44L796.93,610.69L798.22,622.62L800.78,608.59L802.07,592.2L803.35,599.41L804.63,582.63L805.92,603.09L807.2,608.2L808.48,606.49L809.77,581.85L811.05,587.62L812.33,579.36L813.62,578.7L814.9,593.65L816.18,602.95L817.47,598.89L818.75,572.8L820.03,562.05L821.32,570.57L822.6,568.87L823.88,583.81L825.17,585.65L826.45,588.53L827.73,567.95L829.02,544.48L830.3,554.05L831.58,539.63L832.87,562.71L834.15,575.95L835.43,563.75L836.72,540.29L838,530.85" style="vector-effect: non-scaling-stroke; fill: none; stroke: rgb(31, 119, 180); stroke-opacity: 1; stroke-width: 2px; opacity: 1;"/></g><g class="points"/><g class="text"/></g><g class="trace scatter trace8d02c8" style="stroke-miterlimit: 2; opacity: 1;"><g class="fills"/><g class="errorbars"/><g class="lines"><path class="js-line" d="M3.85,665.75L19.25,666.01L0,666.28L2.57,666.01L5.13,666.01L8.98,666.01L14.12,666.01L50.05,666.01L51.33,610.56L52.62,652.51L53.9,647.66L55.18,645.43L56.47,640.84L57.75,640.32L59.03,635.86L60.32,643.07L61.6,642.68L62.88,630.35L64.17,635.73L66.73,628.78L68.02,631.53L70.58,638.35L71.87,622.23L73.15,627.73L74.43,618.56L75.72,624.19L77,622.23L79.57,627.86L80.85,611.61L82.13,605.84L83.42,612.66L84.7,610.69L85.98,601.64L87.26,597.19L88.55,608.46L89.83,581.06L91.11,588.27L92.4,584.73L93.68,591.94L94.96,585.39L96.25,600.46L97.53,630.09L98.81,607.94L100.1,620.52L101.38,610.82L102.66,614.49L103.95,615.02L105.23,618.95L106.51,631.93L107.8,606.49L109.08,618.95L110.36,608.72L111.65,616.33L115.5,631.93L116.78,627.73L118.06,624.19L119.35,632.19L120.63,616.33L121.91,622.62L123.2,637.04L124.48,631.93L125.76,611.74L127.05,626.55L128.33,625.37L129.61,617.51L130.9,606.1L132.18,621.05L134.75,623.14L136.03,613.97L138.6,618.29L139.88,626.03L141.16,634.55L142.45,621.83L143.73,593.78L145.01,599.81L146.3,626.42L147.58,620L148.86,610.56L150.15,632.98L151.43,637.43L152.71,619.74L154,637.17L155.28,633.76L156.56,637.43L157.85,633.11L160.41,643.2L161.7,635.99L162.98,640.84L164.26,636.39L165.55,642.68L166.83,643.07L168.11,654.35L169.4,646.61L171.96,639.27L173.25,642.55L174.53,643.2L175.81,642.02L177.1,645.04L178.38,642.81L179.66,639.53L180.95,643.46L182.23,642.68L183.51,631.01L184.8,651.33L186.08,649.1L187.36,650.02L188.65,648.32L189.93,647.53L191.21,652.77L192.5,648.71L193.78,651.2L196.35,653.95L197.63,638.88L198.91,646.22L200.2,648.05L201.48,647.66L202.76,650.41L204.05,652.64L205.33,652.12L206.61,643.2L207.9,644.38L209.18,643.99L210.46,644.64L211.75,650.02L213.03,649.5L214.31,650.81L215.6,646.87L216.88,645.17L218.16,650.54L219.45,651.99L220.73,646.61L223.3,656.18L224.58,648.45L227.15,655.13L228.43,652.77L229.71,655.53L231,655.13L232.28,654.22L233.56,654.35L234.85,656.05L236.13,652.12L237.41,654.22L238.7,651.86L239.98,655.79L241.26,656.18L242.55,650.94L243.83,655.92L245.11,655.13L246.4,652.51L247.68,655.79L248.96,656.44L250.25,653.95L251.53,648.05L252.81,650.41L254.09,650.81L255.38,652.12L256.66,651.46L257.94,650.41L259.23,650.41L261.79,647.4L263.08,649.76L264.36,650.41L265.64,649.76L266.93,648.58L268.21,650.68L270.78,642.55L272.06,642.94L273.34,642.81L274.63,640.97L275.91,642.68L277.19,640.32L279.76,628.52L281.04,628.91L282.33,621.7L283.61,628.13L284.89,622.62L286.18,623.67L288.74,598.5L290.03,609.9L291.31,608.99L292.59,596.01L295.16,594.43L296.44,573.33L297.73,574.9L299.01,571.1L300.29,574.24L301.58,573.59L304.14,584.21L305.43,563.36L306.71,563.89L307.99,572.54L309.28,576.6L310.56,576.21L311.84,586.44L313.13,583.68L314.41,571.75L315.69,568.87L316.98,569.92L318.26,584.08L319.54,569.52L320.83,577L322.11,575.42L323.39,564.67L324.68,558.51L325.96,561.66L327.24,561.39L328.53,552.74L329.81,557.72L331.09,556.28L332.38,542.12L333.66,541.73L334.94,541.6L336.23,554.32L337.51,551.04L338.79,558.38L340.08,563.62L341.36,549.86L342.64,545.79L343.93,532.55L345.21,534.52L346.49,526.78L347.78,535.96L349.06,517.21L350.34,470.02L351.63,485.62L352.91,480.5L354.19,487.32L356.76,471.46L358.04,524.16L359.33,472.51L360.61,487.06L363.18,468.05L364.46,476.83L365.74,492.96L367.03,486.01L368.31,444.98L369.59,463.99L370.88,462.41L372.16,453.1L373.44,459.66L374.73,480.9L376.01,462.94L377.29,413.77L379.86,436.19L381.14,414.56L383.71,464.77L384.99,428.72L386.28,398.17L387.56,402.63L388.84,404.86L390.13,421.51L391.41,412.86L392.69,449.17L395.26,371.95L396.54,402.11L397.83,372.74L399.11,415.22L402.96,373.26L404.24,372.74L405.53,375.89L406.81,343.5L408.09,396.73L409.38,380.87L411.94,401.84L413.23,272.05L414.51,302.07L415.79,307.06L417.08,283.85L418.36,338.78L419.64,304.7L420.92,226.43L422.21,221.32L423.49,194.96L426.06,244.91L427.34,262.48L428.62,295.52L429.91,289.36L431.19,179.1L432.47,274.02L433.76,223.54L435.04,269.43L438.89,369.59L440.17,308.76L441.46,339.44L442.74,285.82L446.59,386.5L447.87,364.87L449.16,437.24L450.44,409.58L451.72,373.26L453.01,430.55L454.29,412.07L455.57,443.14L456.86,484.04L458.14,441.96L459.42,489.81L460.71,480.5L461.99,478.01L463.27,504.1L465.84,520.23L467.12,475.13L468.41,498.6L469.69,501.48L470.97,493.88L472.26,516.56L474.82,534.65L476.11,496.76L478.67,533.99L479.96,537.01L481.24,531.11L482.52,542.91L483.81,537.67L485.09,523.11L486.37,525.47L487.66,514.07L488.94,514.98L490.22,521.15L491.51,535.7L492.79,538.58L494.07,507.12L495.36,520.49L496.64,518.66L497.92,515.12L499.21,513.02L500.49,519.97L501.77,523.77L503.06,470.93L504.34,503.97L505.62,496.11L506.91,500.69L508.19,488.63L509.47,511.97L510.76,499.38L512.04,465.3L513.32,491.78L514.61,446.42L515.89,471.85L517.17,463.72L518.46,466.21L519.74,472.38L521.02,407.35L522.31,428.19L523.59,413.64L524.87,427.54L526.16,417.05L527.44,435.14L528.72,406.96L530.01,350.45L531.29,328.29L532.57,319.77L533.86,348.48L535.14,322.92L536.42,345.47L537.71,328.69L538.99,251.73L540.27,249.9L541.56,252.91L542.84,192.6L544.12,228.39L545.41,252.65L546.69,224.33L549.26,63.34L550.54,50.1L551.82,98.08L553.11,110.27L555.67,153.67L556.96,73.83L558.24,109.49L559.52,109.88L560.81,146.32L562.09,148.55L564.66,230.36L565.94,94.28L567.22,142L568.51,157.99L569.79,194.57L571.07,187.1L572.36,258.29L573.64,286.08L574.92,210.17L576.21,213.06L577.49,206.89L578.77,264.45L580.06,262.35L581.34,278.87L582.62,338L583.91,257.11L585.19,303.78L586.47,313.48L587.75,335.64L589.04,343.76L590.32,394.37L591.6,401.45L592.89,355.17L594.17,364.22L595.45,356.35L596.74,396.34L598.02,395.03L599.3,442.22L600.59,460.45L601.87,438.81L605.72,503.19L607,505.81L608.29,542.65L609.57,533.6L610.85,543.83L612.14,542.91L613.42,554.58L614.7,557.2L617.27,578.18L618.55,581.45L619.84,571.36L621.12,582.76L622.4,584.21L623.69,589.84L624.97,599.94L626.25,602.3L627.54,608.07L628.82,605.71L631.39,627.6L632.67,600.07L635.24,623.28L636.52,617.38L639.09,632.32L640.37,629.17L641.65,631.67L642.94,628.52L644.22,635.47L645.5,624.19L646.79,635.07L648.07,635.73L649.35,635.47L650.64,637.43L651.92,629.57L653.2,653.43L654.49,639.66L655.77,637.7L657.05,643.99L658.34,641.24L659.62,639.4L660.9,644.25L662.19,645.96L663.47,649.5L664.75,646.22L666.04,646.48L669.89,647.14L671.17,648.05L673.74,643.6L675.02,643.86L677.59,648.05L678.87,645.69L680.15,649.1L681.44,646.22L682.72,645.69L684,642.02L685.29,646.48L686.57,640.97L687.85,635.6L689.14,640.84L691.7,639.27L692.99,632.45L694.27,631.4L695.55,631.93L696.84,630.62L698.12,623.93L699.4,629.31L700.69,620.78L701.97,621.7L703.25,607.81L704.54,603.74L705.82,614.75L707.1,600.2L708.39,595.09L709.67,591.02L710.95,598.76L712.24,584.08L713.52,590.63L716.09,595.22L717.37,576.86L718.65,580.8L719.94,576.73L721.22,569.26L722.5,570.57L723.79,590.89L725.07,572.15L726.35,575.82L727.64,565.07L730.2,565.07L731.49,566.9L732.77,569.26L734.05,583.81L736.62,567.03L737.9,578.44L739.19,576.86L740.47,580.14L741.75,573.19L743.04,583.68L744.32,565.85L745.6,563.36L746.89,577.39L748.17,559.3L749.45,561.92L750.74,582.24L752.02,590.24L753.3,558.64L757.15,582.76L758.43,581.45L759.72,585.26L761,602.04L762.28,574.77L763.57,585.12L764.85,589.19L766.13,584.6L768.7,595.35L769.98,593.78L771.27,598.89L772.55,596.92L773.83,596.79L775.12,594.96L777.68,602.56L778.97,610.56L781.53,595.61L782.82,602.04L784.1,611.61L785.38,611.08L786.67,603.09L787.95,617.64L789.23,610.03L790.52,615.67L791.8,618.03L793.08,613.7L794.37,621.44L795.65,617.11L796.93,629.96L798.22,615.8L799.5,616.2L800.78,621.83L803.35,617.51L804.63,617.9L805.92,634.81L807.2,606.23L808.48,611.74L809.77,610.69L811.05,605.45L812.33,604.53L813.62,604.79L814.9,621.18L816.18,580.67L817.47,590.89L818.75,590.63L820.03,591.68L821.32,600.46L822.6,588.66L823.88,601.25L825.17,572.01L827.73,587.48L829.02,578.7L830.3,589.98L831.58,592.86L832.87,606.63L834.15,592.6L835.43,539.5L836.72,565.07L838,568.74" style="vector-effect: non-scaling-stroke; fill: none; stroke: rgb(255, 127, 14); stroke-opacity: 1; stroke-width: 2px; opacity: 1;"/></g><g class="points"/><g class="text"/></g><g class="trace scatter trace64e61b" style="stroke-miterlimit: 2; opacity: 1;"><g class="fills"/><g class="errorbars"/><g class="lines"><path class="js-line" d="M3.85,666.01L19.25,666.01" style="vector-effect: non-scaling-stroke; fill: none; stroke: rgb(44, 160, 44); stroke-opacity: 1; stroke-width: 2px; opacity: 1;"/><path class="js-line" d="M35.93,666.01L44.92,665.36L46.2,665.75L50.05,665.49L51.33,666.01L52.62,664.7L53.9,665.49L55.18,663.92L56.47,664.18L57.75,662.47L59.03,662.74L60.32,664.31L61.6,663.26L65.45,663.13L66.73,661.95L69.3,663.79L70.58,660.38L71.87,659.33L73.15,661.03L74.43,658.8L75.72,661.29L77,660.9L78.28,661.95L79.57,661.03L80.85,661.16L82.13,658.94L83.42,659.46L84.7,659.72L85.98,662.87L87.26,658.54L88.55,658.28L89.83,660.11L91.11,654.74L92.4,660.9L93.68,658.8L94.96,660.77L96.25,655L97.53,658.02L98.81,657.1L100.1,659.72L101.38,657.76L102.66,658.28L103.95,661.43L105.23,661.43L106.51,658.67L109.08,661.69L110.36,662.47L111.65,661.69L112.93,663L114.21,663L115.5,664.05L116.78,660.38L118.06,661.95L121.91,662.74L123.2,662.21L124.48,663.26L125.76,661.82L128.33,660.64L129.61,663.79L130.9,663.52L132.18,664.7L134.75,663.52L136.03,660.11L137.31,664.05L138.6,661.43L139.88,663.52L141.16,662.87L143.73,664.57L145.01,664.44L151.43,664.57L152.71,664.44L154,665.62L155.28,664.57L156.56,661.95L157.85,664.57L159.13,665.62L160.41,664.7L162.98,664.7L164.26,665.62L165.55,664.97L166.83,665.23L170.68,665.49L171.96,665.49L177.1,666.01L178.38,665.75L179.66,664.83L180.95,665.62L183.51,665.23L184.8,665.62L187.36,665.88L188.65,664.83L189.93,665.36L191.21,664.83L192.5,665.75L193.78,665.62L198.91,666.01L200.2,665.62L204.05,665.88L205.33,665.49L207.9,665.62L209.18,665.62L218.16,666.01L219.45,665.88L224.58,665.88L225.86,666.01L232.28,665.49L233.56,666.15L237.41,665.88L238.7,666.01L245.11,665.23L246.4,666.01L252.81,666.01L254.09,666.15L261.79,665.88L263.08,666.15L268.21,665.49L269.49,665.75L277.19,665.62L278.48,665.62L282.33,666.01L283.61,665.75L288.74,665.62L290.03,656.05L292.59,665.1L293.88,665.36L295.16,665.1L296.44,665.88L300.29,665.1L301.58,665.88L304.14,664.83L305.43,666.01L309.28,664.7L310.56,665.36L313.13,665.62L314.41,664.83L323.39,665.36L324.68,664.7L329.81,665.1L331.09,664.18L333.66,664.31L334.94,664.18L337.51,664.31L338.79,664.44L343.93,663.52L345.21,663.39L346.49,662.21L347.78,664.7L349.06,664.44L350.34,661.82L351.63,662.34L352.91,664.97L354.19,663.26L355.48,664.18L356.76,663.52L358.04,664.18L359.33,661.43L360.61,663.26L361.89,663.39L363.18,662.21L364.46,662.87L365.74,664.97L367.03,665.1L368.31,661.43L369.59,664.18L370.88,662.74L373.44,664.05L374.73,662.61L376.01,664.7L377.29,662.34L379.86,660.11L381.14,663.79L382.43,663.92L383.71,663L384.99,663.39L386.28,660.38L387.56,663L388.84,660.77L390.13,662.47L391.41,662.74L392.69,663.79L393.98,663.26L396.54,659.59L397.83,660.38L399.11,661.03L400.39,663.65L401.68,661.16L402.96,660.64L404.24,663.52L405.53,658.67L408.09,660.25L409.38,662.74L410.66,662.21L411.94,659.33L413.23,661.16L414.51,654.35L415.79,662.61L417.08,660.77L418.36,658.02L419.64,662.21L420.92,660.64L422.21,656.31L423.49,657.89L424.77,652.9L426.06,659.33L427.34,656.97L428.62,662.87L429.91,659.98L431.19,654.35L432.47,659.98L433.76,654.61L435.04,659.2L437.61,660.38L438.89,657.76L440.17,659.59L441.46,658.67L442.74,658.41L444.02,656.44L445.31,660.38L446.59,661.29L447.87,664.18L449.16,657.23L450.44,654.48L451.72,660.11L453.01,660.11L454.29,663.13L455.57,661.69L456.86,663.79L458.14,660.64L459.42,663.65L461.99,663.52L463.27,660.51L464.56,664.31L465.84,664.31L467.12,664.7L468.41,660.25L469.69,659.85L470.97,662.34L472.26,664.31L473.54,664.57L476.11,664.83L477.39,663L478.67,662.34L479.96,663.92L481.24,663.39L482.52,665.23L485.09,663.79L486.37,664.7L487.66,663.13L488.94,665.23L490.22,664.05L491.51,664.7L492.79,665.23L494.07,663.92L495.36,664.7L496.64,663.65L497.92,664.57L499.21,664.05L500.49,664.83L501.77,664.57L504.34,664.05L505.62,664.7L506.91,664.57L508.19,663.65L509.47,665.62L510.76,664.83L512.04,664.7L513.32,663.79L514.61,664.44L515.89,663.92L517.17,663.52L518.46,664.7L523.59,663L524.87,663.92L528.72,664.97L530.01,663.79L535.14,663.26L536.42,664.05L537.71,664.05L538.99,662.34L541.56,662.74L542.84,661.56L544.12,663.65L545.41,663.52L546.69,663.13L547.97,661.82L549.26,660.77L550.54,661.56L551.82,662.87L553.11,662.87L556.96,662.87L558.24,660.64L559.52,663.26L560.81,662.21L563.37,663.92L564.66,662.74L565.94,660.25L567.22,662.61L569.79,662.74L571.07,659.85L572.36,663.52L573.64,664.05L574.92,661.82L576.21,661.95L578.77,662.87L580.06,662.08L581.34,665.49L582.62,663.79L583.91,663.52L585.19,662.47L586.47,662.47L587.75,663.39L590.32,664.97L591.6,661.69L594.17,663.52L595.45,664.18L598.02,663.65L599.3,664.31L600.59,664.83L601.87,662.74L603.15,664.7L604.44,663.52L605.72,662.87L607,664.7L609.57,663.65L610.85,661.69L612.14,664.57L613.42,665.49L614.7,664.05L615.99,665.1L617.27,665.49L618.55,664.31L621.12,665.1L622.4,665.88L623.69,664.31L624.97,664.44L626.25,665.62L627.54,658.15L628.82,664.57L630.1,665.23L631.39,665.75L632.67,664.31L633.95,664.44L635.24,665.62L636.52,662.74L637.8,664.18L639.09,663.52L640.37,664.83L642.94,664.83L644.22,665.88L645.5,664.83L646.79,666.01L650.64,664.97L651.92,665.23L653.2,666.01L654.49,665.1L658.34,664.7L659.62,665.62L660.9,665.23L662.19,666.01L666.04,665.1L667.32,665.88L672.45,665.36L673.74,665.49L675.02,665.62L676.3,664.57L680.15,665.88L681.44,665.88L684,664.18L685.29,663.65L687.85,665.23L689.14,666.01L691.7,665.62L692.99,666.01L695.55,665.75L696.84,666.01L698.12,666.01L699.4,664.7L700.69,665.62L701.97,663.79L703.25,665.75L704.54,665.88L707.1,666.01L708.39,663.65L709.67,665.88L710.95,666.01L712.24,663.79L713.52,665.1L716.09,666.01L717.37,665.36L719.94,664.18L721.22,665.23L722.5,664.83L723.79,665.62L726.35,665.62L727.64,663.92L728.92,664.7L730.2,664.57L731.49,664.05L732.77,665.23L739.19,665.36L740.47,664.7L743.04,665.75L744.32,664.97L746.89,665.1L748.17,664.57L750.74,665.23L752.02,666.01L753.3,664.57L754.58,664.97L758.43,665.1L759.72,665.75L762.28,665.62L763.57,664.18L764.85,665.36L766.13,664.7L767.42,665.75L768.7,665.75L771.27,666.01L772.55,664.44L773.83,665.62L775.12,665.75L776.4,665.36L777.68,666.15L781.53,665.49L782.82,665.49L784.1,664.44L785.38,665.23L787.95,666.01L789.23,665.23L790.52,664.7L791.8,665.62L793.08,666.01L794.37,665.49L796.93,665.62L798.22,665.1L804.63,665.75L805.92,665.75L808.48,664.83L809.77,665.49L814.9,665.62L816.18,665.88L817.47,664.44L818.75,665.36L823.88,665.88L825.17,665.23L829.02,665.23L830.3,665.75L834.15,665.62L835.43,665.36L838,665.49" style="vector-effect: non-scaling-stroke; fill: none; stroke: rgb(44, 160, 44); stroke-opacity: 1; stroke-width: 2px; opacity: 1;"/></g><g class="points"/><g class="text"/></g></g></g><g class="overplot"/><path class="xlines-above crisp" style="fill: none;" d="M0,0"/><path class="ylines-above crisp" style="fill: none;" d="M0,0"/><g class="overlines-above"/><g class="xaxislayer-above"><g class="xtick"><text text-anchor="middle" x="0" y="741" transform="translate(115.18,0)" style="font-family: 'Open Sans', verdana, arial, sans-serif; font-size: 12px; fill: rgb(68, 68, 68); fill-opacity: 1; white-space: pre; opacity: 1;">Apr 2020</text></g><g class="xtick"><text text-anchor="middle" x="0" y="741" style="font-family: 'Open Sans', verdana, arial, sans-serif; font-size: 12px; fill: rgb(68, 68, 68); fill-opacity: 1; white-space: pre; opacity: 1;" transform="translate(231.96,0)">Jul 2020</text></g><g class="xtick"><text text-anchor="middle" x="0" y="741" style="font-family: 'Open Sans', verdana, arial, sans-serif; font-size: 12px; fill: rgb(68, 68, 68); fill-opacity: 1; white-space: pre; opacity: 1;" transform="translate(350.03,0)">Oct 2020</text></g><g class="xtick"><text text-anchor="middle" x="0" y="741" style="font-family: 'Open Sans', verdana, arial, sans-serif; font-size: 12px; fill: rgb(68, 68, 68); fill-opacity: 1; white-space: pre; opacity: 1;" transform="translate(468.09,0)">Jan 2021</text></g><g class="xtick"><text text-anchor="middle" x="0" y="741" style="font-family: 'Open Sans', verdana, arial, sans-serif; font-size: 12px; fill: rgb(68, 68, 68); fill-opacity: 1; white-space: pre; opacity: 1;" transform="translate(583.59,0)">Apr 2021</text></g><g class="xtick"><text text-anchor="middle" x="0" y="741" style="font-family: 'Open Sans', verdana, arial, sans-serif; font-size: 12px; fill: rgb(68, 68, 68); fill-opacity: 1; white-space: pre; opacity: 1;" transform="translate(700.37,0)">Jul 2021</text></g><g class="xtick"><text text-anchor="middle" x="0" y="741" style="font-family: 'Open Sans', verdana, arial, sans-serif; font-size: 12px; fill: rgb(68, 68, 68); fill-opacity: 1; white-space: pre; opacity: 1;" transform="translate(818.43,0)">Oct 2021</text></g></g><g class="yaxislayer-above"><g class="ytick"><text text-anchor="end" x="59" y="4.199999999999999" transform="translate(0,691.01)" style="font-family: 'Open Sans', verdana, arial, sans-serif; font-size: 12px; fill: rgb(68, 68, 68); fill-opacity: 1; white-space: pre; opacity: 1;">0</text></g><g class="ytick"><text text-anchor="end" x="59" y="4.199999999999999" style="font-family: 'Open Sans', verdana, arial, sans-serif; font-size: 12px; fill: rgb(68, 68, 68); fill-opacity: 1; white-space: pre; opacity: 1;" transform="translate(0,559.91)">1000</text></g><g class="ytick"><text text-anchor="end" x="59" y="4.199999999999999" style="font-family: 'Open Sans', verdana, arial, sans-serif; font-size: 12px; fill: rgb(68, 68, 68); fill-opacity: 1; white-space: pre; opacity: 1;" transform="translate(0,428.81)">2000</text></g><g class="ytick"><text text-anchor="end" x="59" y="4.199999999999999" style="font-family: 'Open Sans', verdana, arial, sans-serif; font-size: 12px; fill: rgb(68, 68, 68); fill-opacity: 1; white-space: pre; opacity: 1;" transform="translate(0,297.71)">3000</text></g><g class="ytick"><text text-anchor="end" x="59" y="4.199999999999999" style="font-family: 'Open Sans', verdana, arial, sans-serif; font-size: 12px; fill: rgb(68, 68, 68); fill-opacity: 1; white-space: pre; opacity: 1;" transform="translate(0,166.61)">4000</text></g><g class="ytick"><text text-anchor="end" x="59" y="4.199999999999999" style="font-family: 'Open Sans', verdana, arial, sans-serif; font-size: 12px; fill: rgb(68, 68, 68); fill-opacity: 1; white-space: pre; opacity: 1;" transform="translate(0,35.5)">5000</text></g></g><g class="overaxes-above"/></g></g><g class="polarlayer"/><g class="ternarylayer"/><g class="geolayer"/><g class="funnelarealayer"/><g class="pielayer"/><g class="iciclelayer"/><g class="treemaplayer"/><g class="sunburstlayer"/><g class="glimages"/><defs id="topdefs-95b52d"><g class="clips"/><clipPath id="legend95b52d"><rect width="102" height="67" x="0" y="0"/></clipPath></defs><g class="layer-above"><g class="imagelayer"/><g class="shapelayer"/></g><g class="infolayer"><g class="legend" pointer-events="all" transform="translate(914.76,25)"><rect class="bg" shape-rendering="crispEdges" style="stroke: rgb(68, 68, 68); stroke-opacity: 1; fill: rgb(255, 255, 255); fill-opacity: 1; stroke-width: 0px;" width="102" height="67" x="0" y="0"/><g class="scrollbox" transform="" clip-path="url(#legend95b52d)"><g class="groups"><g class="traces" style="opacity: 1;" transform="translate(0,14.5)"><text class="legendtext" text-anchor="start" x="40" y="4.680000000000001" style="font-family: 'Open Sans', verdana, arial, sans-serif; font-size: 12px; fill: rgb(68, 68, 68); fill-opacity: 1; white-space: pre;">positive</text><g class="layers" style="opacity: 1;"><g class="legendfill"/><g class="legendlines"><path class="js-line" d="M5,0h30" style="fill: none; stroke: rgb(31, 119, 180); stroke-opacity: 1; stroke-width: 2px;"/></g><g class="legendsymbols"><g class="legendpoints"/></g></g><rect class="legendtoggle" x="0" y="-9.5" width="96.109375" height="19" style="fill: rgb(0, 0, 0); fill-opacity: 0;"/></g><g class="traces" style="opacity: 1;" transform="translate(0,33.5)"><text class="legendtext" text-anchor="start" x="40" y="4.680000000000001" style="font-family: 'Open Sans', verdana, arial, sans-serif; font-size: 12px; fill: rgb(68, 68, 68); fill-opacity: 1; white-space: pre;">resolved</text><g class="layers" style="opacity: 1;"><g class="legendfill"/><g class="legendlines"><path class="js-line" d="M5,0h30" style="fill: none; stroke: rgb(255, 127, 14); stroke-opacity: 1; stroke-width: 2px;"/></g><g class="legendsymbols"><g class="legendpoints"/></g></g><rect class="legendtoggle" x="0" y="-9.5" width="96.109375" height="19" style="fill: rgb(0, 0, 0); fill-opacity: 0;"/></g><g class="traces" style="opacity: 1;" transform="translate(0,52.5)"><text class="legendtext" text-anchor="start" x="40" y="4.680000000000001" style="font-family: 'Open Sans', verdana, arial, sans-serif; font-size: 12px; fill: rgb(68, 68, 68); fill-opacity: 1; white-space: pre;">deceased</text><g class="layers" style="opacity: 1;"><g class="legendfill"/><g class="legendlines"><path class="js-line" d="M5,0h30" style="fill: none; stroke: rgb(44, 160, 44); stroke-opacity: 1; stroke-width: 2px;"/></g><g class="legendsymbols"><g class="legendpoints"/></g></g><rect class="legendtoggle" x="0" y="-9.5" width="96.109375" height="19" style="fill: rgb(0, 0, 0); fill-opacity: 0;"/></g></g></g><rect class="scrollbar" rx="20" ry="3" width="0" height="0" style="fill: rgb(128, 139, 164); fill-opacity: 1;" x="0" y="0"/></g><g class="g-gtitle"><text class="gtitle" x="513.5" y="12.5" text-anchor="middle" dy="0em" style="font-family: 'Open Sans', verdana, arial, sans-serif; font-size: 17px; fill: rgb(68, 68, 68); opacity: 1; font-weight: normal; white-space: pre;">Dynamics of new cases, resolved cases and deaths in Ontario (Dec 03, 2021)</text></g><g class="g-xtitle" transform="translate(0,-15)"><text class="xtitle" x="479" y="780" text-anchor="middle" style="font-family: 'Open Sans', verdana, arial, sans-serif; font-size: 14px; fill: rgb(68, 68, 68); opacity: 1; font-weight: normal; white-space: pre;">Date</text></g><g class="g-ytitle"><text class="ytitle" transform="rotate(-90,22,376.5)" x="22" y="376.5" text-anchor="middle" style="font-family: 'Open Sans', verdana, arial, sans-serif; font-size: 14px; fill: rgb(68, 68, 68); opacity: 1; font-weight: normal; white-space: pre;">Number of cases</text></g></g></svg>