<svg class="main-svg" xmlns="http://www.w3.org/2000/svg" xmlns:xlink="http://www.w3.org/1999/xlink" width="1027" height="768" style="" viewBox="0 0 1027 768"><rect x="0" y="0" width="1027" height="768" style="fill: rgb(255, 255, 255); fill-opacity: 1;"/><defs id="defs-83c698"><g class="clips"><clipPath id="clip83c698xyplot" class="plotclip"><rect width="838" height="687"/></clipPath><clipPath class="axesclip" id="clip83c698x"><rect x="60" y="0" width="838" height="768"/></clipPath><clipPath class="axesclip" id="clip83c698y"><rect x="0" y="25" width="1027" height="687"/></clipPath><clipPath class="axesclip" id="clip83c698xy"><rect x="60" y="25" width="838" height="687"/></clipPath></g><g class="gradients"/></defs><g class="bglayer"/><g class="layer-below"><g class="imagelayer"/><g class="shapelayer"/></g><g class="cartesianlayer"><g class="subplot xy"><g class="layer-subplot"><g class="shapelayer"/><g class="imagelayer"/></g><g class="gridlayer"><g class="x"><path class="xgrid crisp" transform="translate(145.95,0)" d="M0,25v687" style="stroke: rgb(238, 238, 238); stroke-opacity: 1; stroke-width: 1px;"/><path class="xgrid crisp" transform="translate(246.22,0)" d="M0,25v687" style="stroke: rgb(238, 238, 238); stroke-opacity: 1; stroke-width: 1px;"/><path class="xgrid crisp" transform="translate(346.5,0)" d="M0,25v687" style="stroke: rgb(238, 238, 238); stroke-opacity: 1; stroke-width: 1px;"/><path class="xgrid crisp" transform="translate(446.77,0)" d="M0,25v687" style="stroke: rgb(238, 238, 238); stroke-opacity: 1; stroke-width: 1px;"/><path class="xgrid crisp" transform="translate(547.04,0)" d="M0,25v687" style="stroke: rgb(238, 238, 238); stroke-opacity: 1; stroke-width: 1px;"/><path class="xgrid crisp" transform="translate(647.32,0)" d="M0,25v687" style="stroke: rgb(238, 238, 238); stroke-opacity: 1; stroke-width: 1px;"/><path class="xgrid crisp" transform="translate(747.59,0)" d="M0,25v687" style="stroke: rgb(238, 238, 238); stroke-opacity: 1; stroke-width: 1px;"/><path class="xgrid crisp" transform="translate(847.86,0)" d="M0,25v687" style="stroke: rgb(238, 238, 238); stroke-opacity: 1; stroke-width: 1px;"/></g><g class="y"><path class="ygrid crisp" transform="translate(0,581.43)" d="M60,0h838" style="stroke: rgb(238, 238, 238); stroke-opacity: 1; stroke-width: 1px;"/><path class="ygrid crisp" transform="translate(0,486.16)" d="M60,0h838" style="stroke: rgb(238, 238, 238); stroke-opacity: 1; stroke-width: 1px;"/><path class="ygrid crisp" transform="translate(0,390.89)" d="M60,0h838" style="stroke: rgb(238, 238, 238); stroke-opacity: 1; stroke-width: 1px;"/><path class="ygrid crisp" transform="translate(0,295.62)" d="M60,0h838" style="stroke: rgb(238, 238, 238); stroke-opacity: 1; stroke-width: 1px;"/><path class="ygrid crisp" transform="translate(0,200.35)" d="M60,0h838" style="stroke: rgb(238, 238, 238); stroke-opacity: 1; stroke-width: 1px;"/><path class="ygrid crisp" transform="translate(0,105.08)" d="M60,0h838" style="stroke: rgb(238, 238, 238); stroke-opacity: 1; stroke-width: 1px;"/></g></g><g class="zerolinelayer"><path class="yzl zl crisp" transform="translate(0,676.7)" d="M60,0h838" style="stroke: rgb(68, 68, 68); stroke-opacity: 1; stroke-width: 1px;"/></g><path class="xlines-below"/><path class="ylines-below"/><g class="overlines-below"/><g class="xaxislayer-below"/><g class="yaxislayer-below"/><g class="overaxes-below"/><g class="plot" transform="translate(60, 25)" clip-path="url('#clip83c698xyplot')"><g class="scatterlayer mlayer"><g class="trace scatter traced288b7" style="stroke-miterlimit: 2; opacity: 1;"><g class="fills"/><g class="errorbars"/><g class="lines"><path class="js-line" d="M0,651.7L7.16,651.7L14.32,652.65L21.49,652.65L42.97,650.74L57.3,651.7L64.46,650.74L71.62,650.74L93.11,640.26L100.27,649.79L107.44,651.7L114.6,650.74L121.76,647.89L128.92,649.79L143.25,645.03L150.41,651.7L157.57,645.98L164.74,635.5L171.9,632.64L179.06,628.83L186.22,611.68L193.38,621.21L200.55,641.22L207.71,627.88L214.87,610.73L222.03,594.54L229.2,597.39L236.36,609.78L243.52,578.34L250.68,572.62L257.85,561.19L265.01,491.64L272.17,525.94L279.33,508.79L286.5,90.56L293.66,404L300.82,245.85L307.98,269.67L315.15,211.55L322.31,294.44L329.47,263L336.63,357.31L343.79,290.63L350.96,127.71L358.12,191.54L365.28,196.31L372.44,260.14L379.61,269.67L386.77,250.61L393.93,191.54L401.09,181.07L408.26,162.01L415.42,114.38L422.58,189.64L429.74,110.57L436.91,74.36L444.07,126.76L451.23,165.82L458.39,47.69L465.56,41.97L472.72,198.21L479.88,235.37L487.04,247.75L494.21,151.53L501.37,321.11L508.53,214.41L515.69,250.61L522.85,164.87L530.02,238.23L537.18,299.2L544.34,283L551.5,259.19L558.67,271.57L565.83,197.26L572.99,322.06L580.15,371.6L587.32,358.27L594.48,307.77L601.64,338.26L608.8,323.02L615.97,326.83L623.13,279.19L630.29,327.78L637.45,362.08L644.62,244.9L651.78,280.15L658.94,258.23L666.1,231.56L673.26,259.19L680.43,213.46L687.59,266.81L694.75,378.27L701.91,373.51L709.08,286.81L716.24,323.97L723.4,343.98L730.56,341.12L737.73,266.81L744.89,226.79L752.05,329.69L759.21,312.54L766.38,323.97L773.54,218.22L780.7,256.33L787.86,420.19L795.03,432.58L802.19,412.57L809.35,458.3L816.51,478.31L823.68,398.28L830.84,464.02L838,479.26" style="vector-effect: non-scaling-stroke; fill: none; stroke: rgb(31, 119, 180); stroke-opacity: 1; stroke-width: 2px; opacity: 1;"/></g><g class="points"/><g class="text"/></g><g class="trace scatter trace756d12" style="stroke-miterlimit: 2; opacity: 1;"><g class="fills"/><g class="errorbars"/><g class="lines"><path class="js-line" d="M0,651.7L7.16,651.7L14.32,650.74L21.49,650.74L42.97,651.7L107.44,651.7L114.6,650.74L121.76,651.7L128.92,651.7L143.25,651.7L150.41,650.74L157.57,651.7L164.74,651.7L222.03,651.7L229.2,650.74L236.36,649.79L243.52,651.7L279.33,651.7L286.5,248.71L293.66,553.57L300.82,504.03L307.98,516.41L315.15,468.78L322.31,464.97L329.47,432.58L336.63,484.98L343.79,482.12L350.96,392.56L358.12,431.62L365.28,395.42L372.44,381.13L379.61,401.14L386.77,426.86L393.93,450.68L401.09,333.5L408.26,373.51L415.42,306.82L422.58,347.79L429.74,333.5L436.91,360.17L444.07,374.46L451.23,256.33L458.39,214.41L465.56,263.95L472.72,249.66L479.88,183.92L487.04,151.53L494.21,233.46L501.37,34.35L508.53,86.75L515.69,61.03L522.85,113.42L530.02,65.79L537.18,175.35L544.34,390.66L551.5,229.65L558.67,321.11L565.83,250.61L572.99,277.29L580.15,281.1L587.32,309.68L594.48,404L601.64,219.17L608.8,309.68L615.97,235.37L623.13,290.63L630.29,327.78L637.45,386.85L644.62,404L651.78,373.51L658.94,347.79L666.1,405.9L673.26,290.63L680.43,336.35L687.59,441.15L694.75,404L701.91,257.28L709.08,364.94L716.24,356.36L723.4,299.2L730.56,216.32L737.73,324.92L744.89,336.35L752.05,340.17L759.21,273.48L766.38,294.44L773.54,304.92L787.86,423.05L795.03,330.64L802.19,126.76L809.35,170.59L816.51,363.98L823.68,317.3L830.84,248.71L838,411.62" style="vector-effect: non-scaling-stroke; fill: none; stroke: rgb(255, 127, 14); stroke-opacity: 1; stroke-width: 2px; opacity: 1;"/></g><g class="points"/><g class="text"/></g><g class="trace scatter tracede0e76" style="stroke-miterlimit: 2; opacity: 1;"><g class="fills"/><g class="errorbars"/><g class="lines"><path class="js-line" d="M0,651.7L193.38,651.7L200.55,650.74L207.71,651.7L214.87,650.74L222.03,651.7L229.2,650.74L236.36,649.79L243.52,650.74L250.68,649.79L257.85,646.93L265.01,649.79L272.17,648.84L279.33,650.74L286.5,647.89L293.66,642.17L300.82,647.89L307.98,636.45L315.15,638.36L322.31,625.97L329.47,627.88L336.63,639.31L343.79,631.69L350.96,631.69L358.12,626.93L365.28,630.74L372.44,622.16L379.61,631.69L386.77,635.5L393.93,610.73L401.09,603.11L408.26,615.49L415.42,599.3L422.58,617.4L429.74,614.54L436.91,622.16L444.07,615.49L451.23,616.45L458.39,600.25L465.56,604.06L472.72,605.97L479.88,628.83L487.04,597.39L494.21,595.49L501.37,608.83L508.53,569.77L515.69,614.54L522.85,599.3L530.02,613.59L537.18,571.67L544.34,593.58L551.5,586.91L558.67,605.97L565.83,591.68L572.99,595.49L580.15,618.35L587.32,618.35L594.48,598.35L601.64,613.59L615.97,625.97L623.13,620.26L630.29,629.79L637.45,629.79L644.62,637.41L651.78,610.73L658.94,622.16L666.1,625.02L673.26,625.97L680.43,627.88L687.59,624.07L694.75,631.69L701.91,621.21L709.08,619.31L716.24,612.64L723.4,635.5L730.56,633.6L737.73,642.17L744.89,635.5L752.05,633.6L759.21,608.83L766.38,637.41L773.54,618.35L780.7,633.6L787.86,628.83L795.03,638.36L802.19,641.22L809.35,640.26L816.51,641.22L823.68,643.12L830.84,640.26L838,644.08" style="vector-effect: non-scaling-stroke; fill: none; stroke: rgb(44, 160, 44); stroke-opacity: 1; stroke-width: 2px; opacity: 1;"/></g><g class="points"/><g class="text"/></g></g></g><g class="overplot"/><path class="xlines-above crisp" style="fill: none;" d="M0,0"/><path class="ylines-above crisp" style="fill: none;" d="M0,0"/><g class="overlines-above"/><g class="xaxislayer-above"><g class="xtick"><text text-anchor="middle" x="0" y="725" transform="translate(145.95,0)" style="font-family: 'Open Sans', verdana, arial, sans-serif; font-size: 12px; fill: rgb(68, 68, 68); fill-opacity: 1; white-space: pre;"><tspan class="line" dy="0em" x="0" y="725">Mar 1</tspan><tspan class="line" dy="1.3em" x="0" y="725">2020</tspan></text></g><g class="xtick"><text text-anchor="middle" x="0" y="725" transform="translate(246.22,0)" style="font-family: 'Open Sans', verdana, arial, sans-serif; font-size: 12px; fill: rgb(68, 68, 68); fill-opacity: 1; white-space: pre;">Mar 15</text></g><g class="xtick"><text text-anchor="middle" x="0" y="725" transform="translate(346.5,0)" style="font-family: 'Open Sans', verdana, arial, sans-serif; font-size: 12px; fill: rgb(68, 68, 68); fill-opacity: 1; white-space: pre;">Mar 29</text></g><g class="xtick"><text text-anchor="middle" x="0" y="725" transform="translate(446.77,0)" style="font-family: 'Open Sans', verdana, arial, sans-serif; font-size: 12px; fill: rgb(68, 68, 68); fill-opacity: 1; white-space: pre;">Apr 12</text></g><g class="xtick"><text text-anchor="middle" x="0" y="725" transform="translate(547.04,0)" style="font-family: 'Open Sans', verdana, arial, sans-serif; font-size: 12px; fill: rgb(68, 68, 68); fill-opacity: 1; white-space: pre;">Apr 26</text></g><g class="xtick"><text text-anchor="middle" x="0" y="725" transform="translate(647.32,0)" style="font-family: 'Open Sans', verdana, arial, sans-serif; font-size: 12px; fill: rgb(68, 68, 68); fill-opacity: 1; white-space: pre;">May 10</text></g><g class="xtick"><text text-anchor="middle" x="0" y="725" transform="translate(747.59,0)" style="font-family: 'Open Sans', verdana, arial, sans-serif; font-size: 12px; fill: rgb(68, 68, 68); fill-opacity: 1; white-space: pre;">May 24</text></g><g class="xtick"><text text-anchor="middle" x="0" y="725" transform="translate(847.86,0)" style="font-family: 'Open Sans', verdana, arial, sans-serif; font-size: 12px; fill: rgb(68, 68, 68); fill-opacity: 1; white-space: pre;">Jun 7</text></g></g><g class="yaxislayer-above"><g class="ytick"><text text-anchor="end" x="59" y="4.199999999999999" transform="translate(0,676.7)" style="font-family: 'Open Sans', verdana, arial, sans-serif; font-size: 12px; fill: rgb(68, 68, 68); fill-opacity: 1; white-space: pre;">0</text></g><g class="ytick"><text text-anchor="end" x="59" y="4.199999999999999" transform="translate(0,581.43)" style="font-family: 'Open Sans', verdana, arial, sans-serif; font-size: 12px; fill: rgb(68, 68, 68); fill-opacity: 1; white-space: pre;">100</text></g><g class="ytick"><text text-anchor="end" x="59" y="4.199999999999999" transform="translate(0,486.16)" style="font-family: 'Open Sans', verdana, arial, sans-serif; font-size: 12px; fill: rgb(68, 68, 68); fill-opacity: 1; white-space: pre;">200</text></g><g class="ytick"><text text-anchor="end" x="59" y="4.199999999999999" transform="translate(0,390.89)" style="font-family: 'Open Sans', verdana, arial, sans-serif; font-size: 12px; fill: rgb(68, 68, 68); fill-opacity: 1; white-space: pre;">300</text></g><g class="ytick"><text text-anchor="end" x="59" y="4.199999999999999" transform="translate(0,295.62)" style="font-family: 'Open Sans', verdana, arial, sans-serif; font-size: 12px; fill: rgb(68, 68, 68); fill-opacity: 1; white-space: pre;">400</text></g><g class="ytick"><text text-anchor="end" x="59" y="4.199999999999999" transform="translate(0,200.35)" style="font-family: 'Open Sans', verdana, arial, sans-serif; font-size: 12px; fill: rgb(68, 68, 68); fill-opacity: 1; white-space: pre;">500</text></g><g class="ytick"><text text-anchor="end" x="59" y="4.199999999999999" transform="translate(0,105.08)" style="font-family: 'Open Sans', verdana, arial, sans-serif; font-size: 12px; fill: rgb(68, 68, 68); fill-opacity: 1; white-space: pre;">600</text></g></g><g class="overaxes-above"/></g></g><g class="polarlayer"/><g class="ternarylayer"/><g class="geolayer"/><g class="funnelarealayer"/><g class="pielayer"/><g class="treemaplayer"/><g class="sunburstlayer"/><g class="glimages"/><defs id="topdefs-83c698"><g class="clips"/><clipPath id="legend83c698"><rect width="102" height="67" x="0" y="0"/></clipPath></defs><g class="layer-above"><g class="imagelayer"/><g class="shapelayer"/></g><g class="infolayer"><g class="legend" pointer-events="all" transform="translate(914.76, 25)"><rect class="bg" shape-rendering="crispEdges" style="stroke: rgb(68, 68, 68); stroke-opacity: 1; fill: rgb(255, 255, 255); fill-opacity: 1; stroke-width: 0px;" width="102" height="67" x="0" y="0"/><g class="scrollbox" transform="translate(0, 0)" clip-path="url('#legend83c698')"><g class="groups"><g class="traces" style="opacity: 1;" transform="translate(0, 14.5)"><text class="legendtext user-select-none" text-anchor="start" x="40" y="4.680000000000001" style="font-family: 'Open Sans', verdana, arial, sans-serif; font-size: 12px; fill: rgb(68, 68, 68); fill-opacity: 1; white-space: pre;">positive</text><g class="layers" style="opacity: 1;"><g class="legendfill"/><g class="legendlines"><path class="js-line" d="M5,0h30" style="fill: none; stroke: rgb(31, 119, 180); stroke-opacity: 1; stroke-width: 2px;"/></g><g class="legendsymbols"><g class="legendpoints"/></g></g><rect class="legendtoggle" pointer-events="all" x="0" y="-9.5" width="96.109375" height="19" style="cursor: pointer; fill: rgb(0, 0, 0); fill-opacity: 0;"/></g><g class="traces" style="opacity: 1;" transform="translate(0, 33.5)"><text class="legendtext user-select-none" text-anchor="start" x="40" y="4.680000000000001" style="font-family: 'Open Sans', verdana, arial, sans-serif; font-size: 12px; fill: rgb(68, 68, 68); fill-opacity: 1; white-space: pre;">resolved</text><g class="layers" style="opacity: 1;"><g class="legendfill"/><g class="legendlines"><path class="js-line" d="M5,0h30" style="fill: none; stroke: rgb(255, 127, 14); stroke-opacity: 1; stroke-width: 2px;"/></g><g class="legendsymbols"><g class="legendpoints"/></g></g><rect class="legendtoggle" pointer-events="all" x="0" y="-9.5" width="96.109375" height="19" style="cursor: pointer; fill: rgb(0, 0, 0); fill-opacity: 0;"/></g><g class="traces" style="opacity: 1;" transform="translate(0, 52.5)"><text class="legendtext user-select-none" text-anchor="start" x="40" y="4.680000000000001" style="font-family: 'Open Sans', verdana, arial, sans-serif; font-size: 12px; fill: rgb(68, 68, 68); fill-opacity: 1; white-space: pre;">deceased</text><g class="layers" style="opacity: 1;"><g class="legendfill"/><g class="legendlines"><path class="js-line" d="M5,0h30" style="fill: none; stroke: rgb(44, 160, 44); stroke-opacity: 1; stroke-width: 2px;"/></g><g class="legendsymbols"><g class="legendpoints"/></g></g><rect class="legendtoggle" pointer-events="all" x="0" y="-9.5" width="96.109375" height="19" style="cursor: pointer; fill: rgb(0, 0, 0); fill-opacity: 0;"/></g></g></g><rect class="scrollbar" rx="20" ry="3" width="0" height="0" style="fill: rgb(128, 139, 164); fill-opacity: 1;" x="0" y="0"/></g><g class="g-gtitle"><text class="gtitle" x="513.5" y="12.5" text-anchor="middle" dy="0em" style="font-family: 'Open Sans', verdana, arial, sans-serif; font-size: 17px; fill: rgb(68, 68, 68); opacity: 1; font-weight: normal; white-space: pre;">Dynamics of new cases, resolved cases and deaths in Ontario (Jun 15, 2020)</text></g><g class="g-xtitle"><text class="xtitle" x="479" y="764" text-anchor="middle" style="font-family: 'Open Sans', verdana, arial, sans-serif; font-size: 14px; fill: rgb(68, 68, 68); opacity: 1; font-weight: normal; white-space: pre;">Date</text></g><g class="g-ytitle"><text class="ytitle" transform="rotate(-90,22,368.5)" x="22" y="368.5" text-anchor="middle" style="font-family: 'Open Sans', verdana, arial, sans-serif; font-size: 14px; fill: rgb(68, 68, 68); opacity: 1; font-weight: normal; white-space: pre;">Number of cases</text></g></g></svg>