<svg class="main-svg" xmlns="http://www.w3.org/2000/svg" xmlns:xlink="http://www.w3.org/1999/xlink" width="1027" height="768" style="" viewBox="0 0 1027 768"><rect x="0" y="0" width="1027" height="768" style="fill: rgb(255, 255, 255); fill-opacity: 1;"/><defs id="defs-8d7d99"><g class="clips"><clipPath id="clip8d7d99xyplot" class="plotclip"><rect width="838" height="703"/></clipPath><clipPath class="axesclip" id="clip8d7d99x"><rect x="60" y="0" width="838" height="768"/></clipPath><clipPath class="axesclip" id="clip8d7d99y"><rect x="0" y="25" width="1027" height="703"/></clipPath><clipPath class="axesclip" id="clip8d7d99xy"><rect x="60" y="25" width="838" height="703"/></clipPath></g><g class="gradients"/></defs><g class="bglayer"/><g class="layer-below"><g class="imagelayer"/><g class="shapelayer"/></g><g class="cartesianlayer"><g class="subplot xy"><g class="layer-subplot"><g class="shapelayer"/><g class="imagelayer"/></g><g class="gridlayer"><g class="x"><path class="xgrid crisp" transform="translate(119.07,0)" d="M0,25v703" style="stroke: rgb(238, 238, 238); stroke-opacity: 1; stroke-width: 1px;"/><path class="xgrid crisp" transform="translate(244.09,0)" d="M0,25v703" style="stroke: rgb(238, 238, 238); stroke-opacity: 1; stroke-width: 1px;"/><path class="xgrid crisp" transform="translate(370.47,0)" d="M0,25v703" style="stroke: rgb(238, 238, 238); stroke-opacity: 1; stroke-width: 1px;"/><path class="xgrid crisp" transform="translate(496.86,0)" d="M0,25v703" style="stroke: rgb(238, 238, 238); stroke-opacity: 1; stroke-width: 1px;"/><path class="xgrid crisp" transform="translate(620.5,0)" d="M0,25v703" style="stroke: rgb(238, 238, 238); stroke-opacity: 1; stroke-width: 1px;"/><path class="xgrid crisp" transform="translate(745.51,0)" d="M0,25v703" style="stroke: rgb(238, 238, 238); stroke-opacity: 1; stroke-width: 1px;"/><path class="xgrid crisp" transform="translate(871.9,0)" d="M0,25v703" style="stroke: rgb(238, 238, 238); stroke-opacity: 1; stroke-width: 1px;"/></g><g class="y"><path class="ygrid crisp" transform="translate(0,559.91)" d="M60,0h838" style="stroke: rgb(238, 238, 238); stroke-opacity: 1; stroke-width: 1px;"/><path class="ygrid crisp" transform="translate(0,428.81)" d="M60,0h838" style="stroke: rgb(238, 238, 238); stroke-opacity: 1; stroke-width: 1px;"/><path class="ygrid crisp" transform="translate(0,297.71)" d="M60,0h838" style="stroke: rgb(238, 238, 238); stroke-opacity: 1; stroke-width: 1px;"/><path class="ygrid crisp" transform="translate(0,166.61)" d="M60,0h838" style="stroke: rgb(238, 238, 238); stroke-opacity: 1; stroke-width: 1px;"/><path class="ygrid crisp" transform="translate(0,35.5)" d="M60,0h838" style="stroke: rgb(238, 238, 238); stroke-opacity: 1; stroke-width: 1px;"/></g></g><g class="zerolinelayer"><path class="yzl zl crisp" transform="translate(0,691.01)" d="M60,0h838" style="stroke: rgb(68, 68, 68); stroke-opacity: 1; stroke-width: 1px;"/></g><path class="xlines-below"/><path class="ylines-below"/><g class="overlines-below"/><g class="xaxislayer-below"/><g class="yaxislayer-below"/><g class="overaxes-below"/><g class="plot" transform="translate(60, 25)" clip-path="url('#clip8d7d99xyplot')"><g class="scatterlayer mlayer"><g class="trace scatter trace48c8ac" style="stroke-miterlimit: 2; opacity: 1;"><g class="fills"/><g class="errorbars"/><g class="lines"><path class="js-line" d="M4.12,666.28L13.74,665.88L17.86,664.44L19.23,665.75L20.61,666.01L0,667.85L1.37,666.01L15.11,665.75L16.49,664.44L24.73,665.88L26.1,665.23L27.48,665.88L28.85,665.23L31.6,663.39L32.97,662.87L34.34,660.51L35.72,661.82L37.09,664.44L38.47,662.74L41.21,658.15L42.59,658.28L43.96,659.72L45.33,655.79L46.71,654.87L48.08,652.9L49.46,643.73L50.83,648.32L52.2,646.22L53.58,638.35L54.95,620L56.32,631.93L57.7,610.16L59.07,613.44L60.45,605.45L61.82,616.85L63.19,612.52L64.57,625.5L65.94,616.33L67.31,593.91L68.69,602.69L70.06,603.35L71.44,612.13L72.81,613.44L74.18,610.82L75.56,602.69L76.93,601.25L78.3,598.63L79.68,592.07L81.05,602.43L83.8,586.57L85.17,593.78L86.55,599.15L87.92,582.9L89.3,582.11L90.67,603.61L92.04,608.72L93.42,610.43L94.79,597.19L96.16,620.52L97.54,605.84L98.91,610.82L100.29,599.02L101.66,609.12L103.03,617.51L104.41,615.28L105.78,612L107.15,613.7L108.53,603.48L109.9,620.65L111.28,627.47L112.65,625.64L114.02,618.69L115.4,622.88L116.77,620.78L118.14,621.31L119.52,614.75L120.89,621.44L122.27,626.16L123.64,610.03L125.01,614.88L126.39,611.87L127.76,608.2L129.13,612L130.51,605.71L131.88,613.05L133.26,628.39L134.63,627.73L136,615.8L137.38,620.92L138.75,623.67L140.12,623.28L142.87,607.54L144.25,621.7L145.62,619.34L146.99,620.92L148.37,606.36L149.74,611.61L151.11,634.16L152.49,635.86L153.86,633.11L155.24,639.4L156.61,642.15L157.98,631.14L159.36,640.19L160.73,642.29L163.48,641.11L164.85,643.33L166.23,642.68L167.6,639.01L170.35,644.91L171.72,637.7L173.1,644.64L174.47,641.24L175.84,651.46L177.22,645.04L178.59,642.68L179.96,632.32L181.34,645.43L182.71,646.48L184.09,645.96L185.46,644.38L186.83,650.15L188.21,647.92L189.58,645.82L190.95,651.33L192.33,650.54L193.7,643.73L195.08,650.81L196.45,648.97L197.82,649.1L199.2,650.81L201.94,652.64L203.32,651.46L204.69,651.46L206.07,644.25L207.44,644.51L208.81,648.32L210.19,639.4L211.56,644.38L212.93,652.51L214.31,640.45L215.68,647.92L217.06,648.05L219.8,651.46L221.18,656.05L222.55,654.35L223.92,648.45L226.67,650.81L228.05,654.48L229.42,654.08L230.79,654.74L232.17,653.56L233.54,654.48L234.91,656.84L236.29,655.66L237.66,650.94L239.04,661.69L240.41,653.56L241.78,655.79L244.53,652.12L245.9,655.4L248.65,649.63L250.03,652.64L251.4,656.05L252.77,648.84L254.15,651.86L255.52,650.94L259.64,654.48L261.02,650.54L262.39,650.02L263.76,646.61L265.14,651.33L266.51,651.07L267.89,651.33L269.26,648.58L270.63,648.71L272.01,646.61L273.38,643.86L274.75,645.3L276.13,641.11L277.5,641.76L278.88,646.48L280.25,643.73L281.62,638.09L283,635.6L284.37,639.27L285.74,624.98L287.12,633.11L288.49,624.72L289.87,627.6L291.24,613.44L292.61,612.66L293.99,618.16L296.73,603.35L298.11,622.1L299.48,612.39L300.86,612.39L302.23,608.99L303.6,601.64L304.98,574.24L306.35,593.38L307.72,584.08L309.1,595.48L310.47,570.05L311.85,580.4L313.22,591.81L314.59,585.39L315.97,594.17L317.34,589.58L320.09,542.91L321.46,559.95L322.84,580.93L324.21,560.21L325.58,568.21L326.96,571.49L328.33,563.36L329.7,572.67L331.08,560.48L332.45,579.75L333.83,573.72L335.2,558.38L336.57,562.44L337.95,555.76L339.32,557.72L340.7,537.8L342.07,529.41L343.44,554.45L344.82,557.59L346.19,556.68L347.56,543.56L348.94,548.55L350.31,532.95L351.69,537.93L353.06,541.73L354.43,528.36L355.81,536.62L357.18,535.17L358.55,534.52L359.93,517.61L361.3,491.91L362.68,503.19L364.05,484.04L365.42,479.06L366.8,459.53L368.17,483L369.54,458.74L370.92,502.4L372.29,471.07L373.67,502.27L375.04,480.24L376.41,507.38L379.16,457.82L380.53,464.9L381.91,457.69L383.28,533.73L384.66,486.01L386.03,472.25L387.4,422.82L388.78,427.15L390.15,442.09L391.52,437.11L392.9,442.22L394.27,440.13L395.65,426.88L397.02,432.65L399.77,413.77L401.14,413.64L402.51,446.29L403.89,418.23L405.26,406.04L406.64,423.74L408.01,420.46L409.38,446.16L412.13,367.76L413.5,385.59L414.88,347.17L416.25,365.79L417.63,357.01L419,362.38L420.37,387.68L421.75,377.33L423.12,350.32L424.5,345.21L425.87,382.96L427.24,385.19L429.99,411.81L431.36,331.31L434.11,229.71L435.49,341.41L436.86,225.12L438.23,277.43L439.61,237.31L440.98,255.93L442.35,237.83L443.73,204.67L445.1,108.96L446.48,214.63L447.85,148.82L449.22,228.39L450.6,285.42L451.97,277.82L453.34,229.97L454.72,272.97L456.09,265.37L457.47,217.38L460.21,415.22L461.59,317.94L462.96,320.95L464.33,317.02L465.71,356.74L467.08,349.14L469.83,437.9L471.2,447.07L472.58,391.62L473.95,425.18L475.32,395.55L476.7,423.74L478.07,407.87L479.45,568.34L482.19,461.1L483.57,447.07L484.94,484.04L486.31,470.8L489.06,532.03L490.44,525.47L491.81,542.12L493.18,524.95L494.56,495.58L495.93,537.4L497.3,539.63L498.68,547.5L500.05,554.97L501.43,529.93L504.17,505.02L505.55,523.51L506.92,527.31L508.3,538.19L511.04,516.82L512.42,501.09L513.79,510.66L515.16,526.78L517.91,539.37L519.29,540.42L520.66,535.7L522.03,502.14L523.41,536.22L524.78,495.71L526.15,452.19L527.53,510.66L528.9,493.48L530.28,522.85L531.65,486.27L533.02,473.56L534.4,436.98L535.77,499.78L537.14,525.21L538.52,468.31L539.89,462.41L541.27,437.24L542.64,426.23L544.01,431.21L545.39,443.27L546.76,463.33L548.13,460.05L549.51,353.99L550.88,381.65L552.26,344.42L553.63,345.08L555,391.49L556.38,359.76L557.75,360.15L559.12,330.79L560.5,261.04L561.87,271.53L563.25,267.33L564.62,280.84L565.99,264.19L568.74,234.03L570.11,111.84L571.49,166.12L572.86,81.82L574.24,89.03L575.61,184.87L578.36,45.11L579.73,35.15L581.1,94.15L582.48,108.83L583.85,83L585.23,211.22L586.6,113.81L587.97,183.3L589.35,75.4L590.72,129.28L592.1,148.55L593.47,205.85L594.84,237.97L596.22,209.78L597.59,158.52L598.96,156.42L600.34,224.33L601.71,176.74L603.09,215.55L604.46,300.11L605.83,280.44L607.21,217.12L609.95,290.54L611.33,244.39L614.08,394.24L615.45,361.86L616.82,304.3L618.2,356.35L619.57,327.25L620.94,377.72L622.32,381.52L623.69,454.15L625.07,457.82L626.44,351.37L627.81,418.23L629.19,430.82L630.56,444.32L631.93,476.44L633.31,529.8L634.68,522.46L636.06,517.21L637.43,499.12L638.8,527.44L640.18,530.59L641.55,545.92L642.92,574.37L644.3,569.92L645.67,551.96L647.05,546.19L648.42,568.47L649.79,579.09L651.17,597.19L653.91,612.13L655.29,588.66L656.66,590.76L658.04,600.2L659.41,596.53L660.78,607.41L662.16,627.21L663.53,615.67L664.9,617.51L666.28,620.78L667.65,619.47L669.03,624.32L670.4,630.62L671.77,627.21L673.15,632.58L674.52,627.21L675.9,632.45L677.27,620.65L680.02,638.48L681.39,626.81L682.76,641.89L684.14,628.78L685.51,639.79L686.89,638.61L688.26,638.09L689.63,643.73L691.01,634.03L692.38,640.58L693.75,638.48L695.13,642.02L696.5,642.55L697.88,644.25L699.25,651.07L700.62,646.87L702,645.96L703.37,647.27L706.12,642.94L707.49,642.81L708.87,648.97L710.24,649.36L711.61,648.32L712.99,641.76L714.36,640.84L715.73,643.73L717.11,643.46L718.48,650.41L719.86,649.1L721.23,645.3L722.6,637.43L723.98,636.39L725.35,632.19L726.72,637.43L728.1,643.99L729.47,644.51L730.85,647.79L732.22,638.09L733.59,621.44L734.97,616.46L736.34,610.56L737.71,623.41L739.09,623.93L740.46,623.54L741.84,598.76L743.21,599.15L744.58,590.24L745.96,599.02L747.33,597.05L748.7,620.39L750.08,602.43L751.45,596.4L752.83,580.8L754.2,575.69L755.57,571.36L756.95,582.24L758.32,602.3L759.7,579.49L761.07,577.13L762.44,563.62L763.82,556.54L765.19,569L766.56,575.03L767.94,597.19L769.31,580.01L770.69,552.61L772.06,560.21L773.43,542.25L774.81,559.69L776.18,589.84L778.93,593.38L780.3,561.39L781.68,554.84L783.05,553.66L784.42,563.23L785.8,587.35L787.17,590.37L788.54,588.27L789.92,552.74L791.29,561.79L792.67,558.38L794.04,572.28L795.41,586.04L796.79,590.76L798.16,605.31L799.53,577.26L800.91,570.7L802.28,582.11L803.66,580.4L805.03,585.65L806.4,604.92L807.78,601.12L809.15,581.19L810.52,578.44L811.9,573.72L813.27,589.98L816.02,609.77L817.39,603.61L818.77,589.06L820.14,590.89L821.51,580.27L822.89,595.87L827.01,625.9L828.38,611.34L829.76,600.99L831.13,602.3L832.5,607.94L833.88,617.11L836.63,626.16L838,611.87" style="vector-effect: non-scaling-stroke; fill: none; stroke: rgb(31, 119, 180); stroke-opacity: 1; stroke-width: 2px; opacity: 1;"/></g><g class="points"/><g class="text"/></g><g class="trace scatter trace92a088" style="stroke-miterlimit: 2; opacity: 1;"><g class="fills"/><g class="errorbars"/><g class="lines"><path class="js-line" d="M4.12,665.75L20.61,666.01L0,666.28L2.75,666.01L5.5,666.01L9.62,666.01L15.11,666.01L53.58,666.01L54.95,610.56L56.32,652.51L57.7,647.66L59.07,645.43L60.45,640.84L61.82,640.32L63.19,635.86L64.57,643.07L65.94,642.68L67.31,630.35L68.69,635.73L70.06,630.75L71.44,628.78L75.56,638.35L76.93,622.23L78.3,627.73L79.68,618.56L81.05,624.19L82.43,622.23L85.17,627.86L86.55,611.61L87.92,605.84L89.3,612.66L90.67,610.69L92.04,601.64L93.42,597.19L94.79,608.46L96.16,581.06L97.54,588.27L98.91,584.73L100.29,591.94L101.66,585.39L103.03,600.46L104.41,630.09L105.78,607.94L107.15,620.52L108.53,610.82L109.9,614.49L111.28,615.02L112.65,618.95L114.02,631.93L115.4,606.49L116.77,618.95L118.14,608.72L119.52,616.33L120.89,621.44L122.27,629.57L123.64,631.93L125.01,627.73L126.39,624.19L127.76,632.19L129.13,616.33L130.51,622.62L131.88,637.04L133.26,631.93L134.63,611.74L136,626.55L137.38,625.37L138.75,617.51L140.12,606.1L141.5,621.05L144.25,623.14L145.62,613.97L148.37,618.29L149.74,626.03L151.11,634.55L152.49,621.83L153.86,593.78L155.24,599.81L156.61,626.42L157.98,620L159.36,610.56L160.73,632.98L162.1,637.43L163.48,619.74L164.85,637.17L166.23,633.76L167.6,637.43L168.97,633.11L171.72,643.2L173.1,635.99L174.47,640.84L175.84,636.39L177.22,642.68L178.59,643.07L179.96,654.35L181.34,646.61L184.09,639.27L185.46,642.55L186.83,643.2L188.21,642.02L189.58,645.04L190.95,642.81L192.33,639.53L193.7,643.46L195.08,642.68L196.45,631.01L197.82,651.33L199.2,649.1L200.57,650.02L201.94,648.32L203.32,647.53L204.69,652.77L206.07,648.71L207.44,651.2L210.19,653.95L211.56,638.88L212.93,646.22L214.31,648.05L215.68,647.66L217.06,650.41L218.43,652.64L219.8,652.12L221.18,643.2L222.55,644.38L223.92,643.99L225.3,644.64L226.67,650.02L228.05,649.5L229.42,650.81L230.79,646.87L232.17,645.17L233.54,650.54L234.91,651.99L236.29,646.61L239.04,656.18L240.41,648.45L243.16,655.13L244.53,652.77L245.9,655.53L247.28,655.13L248.65,654.22L250.03,654.35L251.4,656.05L252.77,652.12L254.15,654.22L255.52,651.86L256.9,655.79L258.27,656.18L259.64,650.94L261.02,655.92L262.39,655.13L263.76,652.51L265.14,655.79L266.51,656.44L267.89,653.95L269.26,648.05L270.63,650.41L272.01,650.81L273.38,652.12L274.75,651.46L276.13,650.41L277.5,650.41L278.88,648.18L280.25,647.4L281.62,649.76L283,650.41L285.74,648.58L287.12,650.68L289.87,642.55L291.24,642.94L292.61,642.81L293.99,640.97L295.36,642.68L296.73,640.32L299.48,628.52L300.86,628.91L302.23,621.7L303.6,628.13L304.98,622.62L306.35,623.67L307.72,606.1L309.1,598.5L310.47,609.9L311.85,608.99L313.22,596.01L314.59,595.09L315.97,594.43L317.34,573.33L318.71,574.9L320.09,571.1L321.46,574.24L322.84,573.59L325.58,584.21L326.96,563.36L328.33,563.89L329.7,572.54L331.08,576.6L332.45,576.21L333.83,586.44L335.2,583.68L336.57,571.75L337.95,568.87L339.32,569.92L340.7,584.08L342.07,569.52L343.44,577L344.82,575.42L346.19,564.67L347.56,558.51L348.94,561.66L350.31,561.39L351.69,552.74L353.06,557.72L354.43,556.28L355.81,542.12L357.18,541.73L358.55,541.6L359.93,554.32L361.3,551.04L362.68,558.38L364.05,563.62L365.42,549.86L366.8,545.79L368.17,532.55L369.54,534.52L370.92,526.78L372.29,535.96L373.67,517.21L375.04,470.02L376.41,485.62L377.79,480.5L379.16,487.32L381.91,471.46L383.28,524.16L384.66,472.51L386.03,487.06L388.78,468.05L390.15,476.83L391.52,492.96L392.9,486.01L394.27,444.98L395.65,463.99L397.02,462.41L398.39,453.1L399.77,459.66L401.14,480.9L402.51,462.94L403.89,413.77L405.26,429.51L406.64,436.19L408.01,414.56L409.38,446.02L410.76,464.77L412.13,428.72L413.5,398.17L414.88,402.63L416.25,404.86L417.63,421.51L419,412.86L420.37,449.17L423.12,371.95L424.5,402.11L425.87,372.74L427.24,415.22L428.62,403.15L429.99,384.01L431.36,373.26L432.74,372.74L434.11,375.89L435.49,343.5L436.86,396.73L438.23,380.87L440.98,401.84L442.35,272.05L443.73,302.07L445.1,307.06L446.48,283.85L447.85,338.78L449.22,304.7L450.6,226.43L451.97,221.32L453.34,194.96L456.09,244.91L457.47,262.48L458.84,295.52L460.21,289.36L461.59,179.1L462.96,274.02L464.33,223.54L465.71,269.43L469.83,369.59L471.2,308.76L472.58,339.44L473.95,285.82L478.07,386.5L479.45,364.87L480.82,437.24L482.19,409.58L483.57,373.26L484.94,430.55L486.31,412.07L487.69,443.14L489.06,484.04L490.44,441.96L491.81,489.81L493.18,480.5L494.56,478.01L495.93,504.1L498.68,520.23L500.05,475.13L501.43,498.6L502.8,501.48L504.17,493.88L505.55,516.56L508.3,534.65L509.67,496.76L511.04,522.59L512.42,533.99L513.79,537.01L515.16,531.11L516.54,542.91L517.91,537.67L519.29,523.11L520.66,525.47L522.03,514.07L523.41,514.98L524.78,521.15L526.15,535.7L527.53,538.58L528.9,507.12L530.28,520.49L531.65,518.66L534.4,513.02L535.77,519.97L537.14,523.77L538.52,470.93L539.89,503.97L541.27,496.11L542.64,500.69L544.01,488.63L545.39,511.97L546.76,499.38L548.13,465.3L549.51,491.78L550.88,446.42L552.26,471.85L553.63,463.72L555,466.21L556.38,472.38L557.75,407.35L559.12,428.19L560.5,413.64L561.87,427.54L563.25,417.05L564.62,435.14L565.99,406.96L567.37,350.45L568.74,328.29L570.11,319.77L571.49,348.48L572.86,322.92L574.24,345.47L575.61,328.69L576.98,251.73L578.36,249.9L579.73,252.91L581.1,192.6L582.48,228.39L583.85,252.65L585.23,224.33L587.97,63.34L589.35,50.1L590.72,98.08L592.1,110.27L594.84,153.67L596.22,73.83L597.59,109.49L598.96,109.88L600.34,146.32L601.71,148.55L604.46,230.36L605.83,94.28L607.21,142L608.58,157.99L609.95,194.57L611.33,187.1L612.7,258.29L614.08,286.08L615.45,210.17L616.82,213.06L618.2,206.89L619.57,264.45L620.94,262.35L622.32,278.87L623.69,338L625.07,257.11L626.44,303.78L627.81,313.48L629.19,335.64L630.56,343.76L631.93,394.37L633.31,401.45L634.68,355.17L636.06,364.22L637.43,356.35L638.8,396.34L640.18,395.03L641.55,442.22L642.92,460.45L644.3,438.81L648.42,503.19L649.79,505.81L651.17,542.65L652.54,533.6L653.91,543.83L655.29,542.91L656.66,554.58L658.04,557.2L660.78,578.18L662.16,581.45L663.53,571.36L664.9,582.76L666.28,584.21L667.65,589.84L669.03,599.94L670.4,602.3L671.77,608.07L673.15,605.71L675.9,627.6L677.27,600.07L678.64,616.33L680.02,623.28L681.39,617.38L682.76,623.8L684.14,632.32L685.51,629.17L686.89,631.67L688.26,628.52L689.63,635.47L691.01,624.19L692.38,635.07L693.75,635.73L695.13,635.47L696.5,637.43L697.88,629.57L699.25,653.43L700.62,639.66L702,637.7L703.37,643.99L704.74,641.24L706.12,639.4L707.49,644.25L708.87,645.96L710.24,649.5L711.61,646.22L712.99,646.48L717.11,647.14L718.48,648.05L721.23,643.6L722.6,643.86L725.35,648.05L726.72,645.69L728.1,649.1L729.47,646.22L730.85,645.69L732.22,642.02L733.59,646.48L734.97,640.97L736.34,635.6L737.71,640.84L740.46,639.27L741.84,632.45L743.21,631.4L744.58,631.93L745.96,630.62L747.33,623.93L748.7,629.31L750.08,620.78L751.45,621.7L752.83,607.81L754.2,603.74L755.57,614.75L756.95,600.2L758.32,595.09L759.7,591.02L761.07,598.76L762.44,584.08L763.82,590.63L766.56,595.22L767.94,576.86L769.31,580.8L770.69,576.73L772.06,569.26L773.43,570.57L774.81,590.89L776.18,572.15L777.55,575.82L778.93,565.07L781.68,565.07L783.05,566.9L784.42,569.26L785.8,583.81L788.54,567.03L789.92,578.44L791.29,576.86L792.67,580.14L794.04,573.19L795.41,583.68L796.79,565.85L798.16,563.36L799.53,577.39L800.91,559.3L802.28,561.92L803.66,582.24L805.03,590.24L806.4,558.64L810.52,582.76L811.9,581.45L813.27,585.26L814.65,602.04L816.02,574.77L817.39,585.12L818.77,589.19L820.14,584.6L822.89,595.35L824.26,593.78L825.64,598.89L827.01,596.92L828.38,596.79L829.76,594.96L832.5,602.56L833.88,610.56L836.63,595.61L838,602.04" style="vector-effect: non-scaling-stroke; fill: none; stroke: rgb(255, 127, 14); stroke-opacity: 1; stroke-width: 2px; opacity: 1;"/></g><g class="points"/><g class="text"/></g><g class="trace scatter trace818e85" style="stroke-miterlimit: 2; opacity: 1;"><g class="fills"/><g class="errorbars"/><g class="lines"><path class="js-line" d="M4.12,666.01L20.61,666.01" style="vector-effect: non-scaling-stroke; fill: none; stroke: rgb(44, 160, 44); stroke-opacity: 1; stroke-width: 2px; opacity: 1;"/><path class="js-line" d="M38.47,666.01L48.08,665.36L49.46,665.75L53.58,665.49L54.95,666.01L56.32,664.7L57.7,665.49L59.07,663.92L60.45,664.18L61.82,662.47L63.19,662.74L64.57,664.31L65.94,663.26L70.06,663.13L71.44,661.95L74.18,663.79L75.56,660.38L76.93,659.33L78.3,661.03L79.68,658.8L81.05,661.29L82.43,660.9L83.8,661.95L85.17,661.03L86.55,661.16L87.92,658.94L89.3,659.46L90.67,659.72L92.04,662.87L93.42,658.54L94.79,658.28L96.16,660.11L97.54,654.74L98.91,660.9L100.29,658.8L101.66,660.77L103.03,655L104.41,658.02L105.78,657.1L107.15,659.72L108.53,657.76L109.9,658.28L111.28,661.43L112.65,661.43L114.02,658.67L116.77,661.69L118.14,662.47L119.52,661.69L120.89,663L122.27,663L123.64,664.05L125.01,660.38L126.39,661.95L130.51,662.74L131.88,662.21L133.26,663.26L134.63,661.82L137.38,660.64L138.75,663.79L140.12,663.52L141.5,664.7L144.25,663.52L145.62,660.11L146.99,664.05L148.37,661.43L149.74,663.52L151.11,662.87L153.86,664.57L155.24,664.44L162.1,664.57L163.48,664.44L164.85,665.62L166.23,664.57L167.6,661.95L168.97,664.57L170.35,665.62L171.72,664.7L174.47,664.7L175.84,665.62L177.22,664.97L178.59,665.23L182.71,665.49L184.09,665.49L189.58,666.01L190.95,665.75L192.33,664.83L193.7,665.62L196.45,665.23L197.82,665.62L200.57,665.88L201.94,664.83L203.32,665.36L204.69,664.83L206.07,665.75L207.44,665.62L212.93,666.01L214.31,665.62L218.43,665.88L219.8,665.49L222.55,665.62L223.92,665.62L233.54,666.01L234.91,665.88L240.41,665.88L241.78,666.01L248.65,665.49L250.03,666.15L254.15,665.88L255.52,666.01L262.39,665.23L263.76,666.01L270.63,666.01L272.01,666.15L280.25,665.88L281.62,666.15L287.12,665.49L288.49,665.75L296.73,665.62L298.11,665.62L302.23,666.01L303.6,665.75L309.1,665.62L310.47,656.05L313.22,665.1L314.59,665.36L315.97,665.1L317.34,665.88L321.46,665.1L322.84,665.88L325.58,664.83L326.96,666.01L331.08,664.7L332.45,665.36L335.2,665.62L336.57,664.83L346.19,665.36L347.56,664.7L353.06,665.1L354.43,664.18L357.18,664.31L358.55,664.18L361.3,664.31L362.68,664.44L368.17,663.52L369.54,663.39L370.92,662.21L372.29,664.7L373.67,664.44L375.04,661.82L376.41,662.34L377.79,664.97L379.16,663.26L380.53,664.18L381.91,663.52L383.28,664.18L384.66,661.43L386.03,663.26L387.4,663.39L388.78,662.21L390.15,662.87L391.52,664.97L392.9,665.1L394.27,661.43L395.65,664.18L397.02,662.74L399.77,664.05L401.14,662.61L402.51,664.7L403.89,662.34L406.64,660.11L408.01,663.79L409.38,663.92L410.76,663L412.13,663.39L413.5,660.38L414.88,663L416.25,660.77L417.63,662.47L419,662.74L420.37,663.79L421.75,663.26L424.5,659.59L425.87,660.38L427.24,661.03L428.62,663.65L429.99,661.16L431.36,660.64L432.74,663.52L434.11,658.67L436.86,660.25L438.23,662.74L439.61,662.21L440.98,659.33L442.35,661.16L443.73,654.35L445.1,662.61L446.48,660.77L447.85,658.02L449.22,662.21L450.6,660.64L451.97,656.31L453.34,657.89L454.72,652.9L456.09,659.33L457.47,656.97L458.84,662.87L460.21,659.98L461.59,654.35L462.96,659.98L464.33,654.61L465.71,659.2L468.46,660.38L469.83,657.76L471.2,659.59L472.58,658.67L473.95,658.41L475.32,656.44L476.7,660.38L478.07,661.29L479.45,664.18L480.82,657.23L482.19,654.48L483.57,660.11L484.94,660.11L486.31,663.13L487.69,661.69L489.06,663.79L490.44,660.64L491.81,663.65L494.56,663.52L495.93,660.51L497.3,664.31L498.68,664.31L500.05,664.7L501.43,660.25L502.8,659.85L504.17,662.34L505.55,664.31L506.92,664.57L509.67,664.83L511.04,663L512.42,662.34L513.79,663.92L515.16,663.39L516.54,665.23L519.29,663.79L520.66,664.7L522.03,663.13L523.41,665.23L524.78,664.05L526.15,664.7L527.53,665.23L528.9,663.92L530.28,664.7L531.65,663.65L533.02,664.57L534.4,664.05L535.77,664.83L537.14,664.57L539.89,664.05L541.27,664.7L542.64,664.57L544.01,663.65L545.39,665.62L546.76,664.83L548.13,664.7L549.51,663.79L550.88,664.44L552.26,663.92L553.63,663.52L555,664.7L560.5,663L561.87,663.92L565.99,664.97L567.37,663.79L572.86,663.26L574.24,664.05L575.61,664.05L576.98,662.34L579.73,662.74L581.1,661.56L582.48,663.65L583.85,663.52L585.23,663.13L586.6,661.82L587.97,660.77L589.35,661.56L590.72,662.87L592.1,662.87L596.22,662.87L597.59,660.64L598.96,663.26L600.34,662.21L603.09,663.92L604.46,662.74L605.83,660.25L607.21,662.61L609.95,662.74L611.33,659.85L612.7,663.52L614.08,664.05L615.45,661.82L616.82,661.95L619.57,662.87L620.94,662.08L622.32,665.49L623.69,663.79L625.07,663.52L626.44,662.47L627.81,662.47L629.19,663.39L631.93,664.97L633.31,661.69L636.06,663.52L637.43,664.18L640.18,663.65L641.55,664.31L642.92,664.83L644.3,662.74L645.67,664.7L647.05,663.52L648.42,662.87L649.79,664.7L652.54,663.65L653.91,661.69L655.29,664.57L656.66,665.49L658.04,664.05L659.41,665.1L660.78,665.49L662.16,664.31L664.9,665.1L666.28,665.88L667.65,664.31L669.03,664.44L670.4,665.62L671.77,658.15L673.15,664.57L674.52,665.23L675.9,665.75L677.27,664.31L678.64,664.44L680.02,665.62L681.39,662.74L682.76,664.18L684.14,663.52L685.51,664.83L688.26,664.83L689.63,665.88L691.01,664.83L692.38,666.01L696.5,664.97L697.88,665.23L699.25,666.01L700.62,665.1L704.74,664.7L706.12,665.62L707.49,665.23L708.87,666.01L712.99,665.1L714.36,665.88L719.86,665.36L721.23,665.49L722.6,665.62L723.98,664.57L728.1,665.88L729.47,665.88L732.22,664.18L733.59,663.65L736.34,665.23L737.71,666.01L740.46,665.62L741.84,666.01L744.58,665.75L745.96,666.01L747.33,666.01L748.7,664.7L750.08,665.62L751.45,663.79L752.83,665.75L754.2,665.88L756.95,666.01L758.32,663.65L759.7,665.88L761.07,666.01L762.44,663.79L763.82,665.1L766.56,666.01L767.94,665.36L770.69,664.18L772.06,665.23L773.43,664.83L774.81,665.62L777.55,665.62L778.93,663.92L780.3,664.7L781.68,664.57L783.05,664.05L784.42,665.23L791.29,665.36L792.67,664.7L795.41,665.75L796.79,664.97L799.53,665.1L800.91,664.57L803.66,665.23L805.03,666.01L806.4,664.57L807.78,664.97L811.9,665.1L813.27,665.75L816.02,665.62L817.39,664.18L818.77,665.36L820.14,664.7L821.51,665.75L822.89,665.75L825.64,666.01L827.01,664.44L828.38,665.62L829.76,665.75L831.13,665.36L832.5,666.15L836.63,665.49L838,665.49" style="vector-effect: non-scaling-stroke; fill: none; stroke: rgb(44, 160, 44); stroke-opacity: 1; stroke-width: 2px; opacity: 1;"/></g><g class="points"/><g class="text"/></g></g></g><g class="overplot"/><path class="xlines-above crisp" style="fill: none;" d="M0,0"/><path class="ylines-above crisp" style="fill: none;" d="M0,0"/><g class="overlines-above"/><g class="xaxislayer-above"><g class="xtick"><text text-anchor="middle" x="0" y="741" transform="translate(119.07,0)" style="font-family: 'Open Sans', verdana, arial, sans-serif; font-size: 12px; fill: rgb(68, 68, 68); fill-opacity: 1; white-space: pre;">Apr 2020</text></g><g class="xtick"><text text-anchor="middle" x="0" y="741" transform="translate(244.09,0)" style="font-family: 'Open Sans', verdana, arial, sans-serif; font-size: 12px; fill: rgb(68, 68, 68); fill-opacity: 1; white-space: pre;">Jul 2020</text></g><g class="xtick"><text text-anchor="middle" x="0" y="741" transform="translate(370.47,0)" style="font-family: 'Open Sans', verdana, arial, sans-serif; font-size: 12px; fill: rgb(68, 68, 68); fill-opacity: 1; white-space: pre;">Oct 2020</text></g><g class="xtick"><text text-anchor="middle" x="0" y="741" transform="translate(496.86,0)" style="font-family: 'Open Sans', verdana, arial, sans-serif; font-size: 12px; fill: rgb(68, 68, 68); fill-opacity: 1; white-space: pre;">Jan 2021</text></g><g class="xtick"><text text-anchor="middle" x="0" y="741" transform="translate(620.5,0)" style="font-family: 'Open Sans', verdana, arial, sans-serif; font-size: 12px; fill: rgb(68, 68, 68); fill-opacity: 1; white-space: pre;">Apr 2021</text></g><g class="xtick"><text text-anchor="middle" x="0" y="741" transform="translate(745.51,0)" style="font-family: 'Open Sans', verdana, arial, sans-serif; font-size: 12px; fill: rgb(68, 68, 68); fill-opacity: 1; white-space: pre;">Jul 2021</text></g><g class="xtick"><text text-anchor="middle" x="0" y="741" transform="translate(871.9,0)" style="font-family: 'Open Sans', verdana, arial, sans-serif; font-size: 12px; fill: rgb(68, 68, 68); fill-opacity: 1; white-space: pre;">Oct 2021</text></g></g><g class="yaxislayer-above"><g class="ytick"><text text-anchor="end" x="59" y="4.199999999999999" transform="translate(0,691.01)" style="font-family: 'Open Sans', verdana, arial, sans-serif; font-size: 12px; fill: rgb(68, 68, 68); fill-opacity: 1; white-space: pre;">0</text></g><g class="ytick"><text text-anchor="end" x="59" y="4.199999999999999" transform="translate(0,559.91)" style="font-family: 'Open Sans', verdana, arial, sans-serif; font-size: 12px; fill: rgb(68, 68, 68); fill-opacity: 1; white-space: pre;">1000</text></g><g class="ytick"><text text-anchor="end" x="59" y="4.199999999999999" transform="translate(0,428.81)" style="font-family: 'Open Sans', verdana, arial, sans-serif; font-size: 12px; fill: rgb(68, 68, 68); fill-opacity: 1; white-space: pre;">2000</text></g><g class="ytick"><text text-anchor="end" x="59" y="4.199999999999999" transform="translate(0,297.71)" style="font-family: 'Open Sans', verdana, arial, sans-serif; font-size: 12px; fill: rgb(68, 68, 68); fill-opacity: 1; white-space: pre;">3000</text></g><g class="ytick"><text text-anchor="end" x="59" y="4.199999999999999" transform="translate(0,166.61)" style="font-family: 'Open Sans', verdana, arial, sans-serif; font-size: 12px; fill: rgb(68, 68, 68); fill-opacity: 1; white-space: pre;">4000</text></g><g class="ytick"><text text-anchor="end" x="59" y="4.199999999999999" transform="translate(0,35.5)" style="font-family: 'Open Sans', verdana, arial, sans-serif; font-size: 12px; fill: rgb(68, 68, 68); fill-opacity: 1; white-space: pre;">5000</text></g></g><g class="overaxes-above"/></g></g><g class="polarlayer"/><g class="ternarylayer"/><g class="geolayer"/><g class="funnelarealayer"/><g class="pielayer"/><g class="treemaplayer"/><g class="sunburstlayer"/><g class="glimages"/><defs id="topdefs-8d7d99"><g class="clips"/><clipPath id="legend8d7d99"><rect width="102" height="67" x="0" y="0"/></clipPath></defs><g class="layer-above"><g class="imagelayer"/><g class="shapelayer"/></g><g class="infolayer"><g class="legend" pointer-events="all" transform="translate(914.76, 25)"><rect class="bg" shape-rendering="crispEdges" style="stroke: rgb(68, 68, 68); stroke-opacity: 1; fill: rgb(255, 255, 255); fill-opacity: 1; stroke-width: 0px;" width="102" height="67" x="0" y="0"/><g class="scrollbox" transform="translate(0, 0)" clip-path="url('#legend8d7d99')"><g class="groups"><g class="traces" style="opacity: 1;" transform="translate(0, 14.5)"><text class="legendtext" text-anchor="start" x="40" y="4.680000000000001" style="font-family: 'Open Sans', verdana, arial, sans-serif; font-size: 12px; fill: rgb(68, 68, 68); fill-opacity: 1; white-space: pre;">positive</text><g class="layers" style="opacity: 1;"><g class="legendfill"/><g class="legendlines"><path class="js-line" d="M5,0h30" style="fill: none; stroke: rgb(31, 119, 180); stroke-opacity: 1; stroke-width: 2px;"/></g><g class="legendsymbols"><g class="legendpoints"/></g></g><rect class="legendtoggle" x="0" y="-9.5" width="96.109375" height="19" style="fill: rgb(0, 0, 0); fill-opacity: 0;"/></g><g class="traces" style="opacity: 1;" transform="translate(0, 33.5)"><text class="legendtext" text-anchor="start" x="40" y="4.680000000000001" style="font-family: 'Open Sans', verdana, arial, sans-serif; font-size: 12px; fill: rgb(68, 68, 68); fill-opacity: 1; white-space: pre;">resolved</text><g class="layers" style="opacity: 1;"><g class="legendfill"/><g class="legendlines"><path class="js-line" d="M5,0h30" style="fill: none; stroke: rgb(255, 127, 14); stroke-opacity: 1; stroke-width: 2px;"/></g><g class="legendsymbols"><g class="legendpoints"/></g></g><rect class="legendtoggle" x="0" y="-9.5" width="96.109375" height="19" style="fill: rgb(0, 0, 0); fill-opacity: 0;"/></g><g class="traces" style="opacity: 1;" transform="translate(0, 52.5)"><text class="legendtext" text-anchor="start" x="40" y="4.680000000000001" style="font-family: 'Open Sans', verdana, arial, sans-serif; font-size: 12px; fill: rgb(68, 68, 68); fill-opacity: 1; white-space: pre;">deceased</text><g class="layers" style="opacity: 1;"><g class="legendfill"/><g class="legendlines"><path class="js-line" d="M5,0h30" style="fill: none; stroke: rgb(44, 160, 44); stroke-opacity: 1; stroke-width: 2px;"/></g><g class="legendsymbols"><g class="legendpoints"/></g></g><rect class="legendtoggle" x="0" y="-9.5" width="96.109375" height="19" style="fill: rgb(0, 0, 0); fill-opacity: 0;"/></g></g></g><rect class="scrollbar" rx="20" ry="3" width="0" height="0" style="fill: rgb(128, 139, 164); fill-opacity: 1;" x="0" y="0"/></g><g class="g-gtitle"><text class="gtitle" x="513.5" y="12.5" text-anchor="middle" dy="0em" style="font-family: 'Open Sans', verdana, arial, sans-serif; font-size: 17px; fill: rgb(68, 68, 68); opacity: 1; font-weight: normal; white-space: pre;">Dynamics of new cases, resolved cases and deaths in Ontario (Oct 21, 2021)</text></g><g class="g-xtitle" transform="translate(0,-15)"><text class="xtitle" x="479" y="780" text-anchor="middle" style="font-family: 'Open Sans', verdana, arial, sans-serif; font-size: 14px; fill: rgb(68, 68, 68); opacity: 1; font-weight: normal; white-space: pre;">Date</text></g><g class="g-ytitle"><text class="ytitle" transform="rotate(-90,22,376.5)" x="22" y="376.5" text-anchor="middle" style="font-family: 'Open Sans', verdana, arial, sans-serif; font-size: 14px; fill: rgb(68, 68, 68); opacity: 1; font-weight: normal; white-space: pre;">Number of cases</text></g></g></svg>