<svg class="main-svg" xmlns="http://www.w3.org/2000/svg" xmlns:xlink="http://www.w3.org/1999/xlink" width="1027" height="768" style="" viewBox="0 0 1027 768"><rect x="0" y="0" width="1027" height="768" style="fill: rgb(255, 255, 255); fill-opacity: 1;"/><defs id="defs-b8e3aa"><g class="clips"><clipPath id="clipb8e3aaxyplot" class="plotclip"><rect width="838" height="703"/></clipPath><clipPath class="axesclip" id="clipb8e3aax"><rect x="60" y="0" width="838" height="768"/></clipPath><clipPath class="axesclip" id="clipb8e3aay"><rect x="0" y="25" width="1027" height="703"/></clipPath><clipPath class="axesclip" id="clipb8e3aaxy"><rect x="60" y="25" width="838" height="703"/></clipPath></g><g class="gradients"/></defs><g class="bglayer"/><g class="layer-below"><g class="imagelayer"/><g class="shapelayer"/></g><g class="cartesianlayer"><g class="subplot xy"><g class="layer-subplot"><g class="shapelayer"/><g class="imagelayer"/></g><g class="gridlayer"><g class="x"><path class="xgrid crisp" transform="translate(112.1,0)" d="M0,25v703" style="stroke: rgb(238, 238, 238); stroke-opacity: 1; stroke-width: 1px;"/><path class="xgrid crisp" transform="translate(246.7,0)" d="M0,25v703" style="stroke: rgb(238, 238, 238); stroke-opacity: 1; stroke-width: 1px;"/><path class="xgrid crisp" transform="translate(376.96,0)" d="M0,25v703" style="stroke: rgb(238, 238, 238); stroke-opacity: 1; stroke-width: 1px;"/><path class="xgrid crisp" transform="translate(511.56,0)" d="M0,25v703" style="stroke: rgb(238, 238, 238); stroke-opacity: 1; stroke-width: 1px;"/><path class="xgrid crisp" transform="translate(641.82,0)" d="M0,25v703" style="stroke: rgb(238, 238, 238); stroke-opacity: 1; stroke-width: 1px;"/><path class="xgrid crisp" transform="translate(776.42,0)" d="M0,25v703" style="stroke: rgb(238, 238, 238); stroke-opacity: 1; stroke-width: 1px;"/></g><g class="y"><path class="ygrid crisp" transform="translate(0,594.39)" d="M60,0h838" style="stroke: rgb(238, 238, 238); stroke-opacity: 1; stroke-width: 1px;"/><path class="ygrid crisp" transform="translate(0,496.9)" d="M60,0h838" style="stroke: rgb(238, 238, 238); stroke-opacity: 1; stroke-width: 1px;"/><path class="ygrid crisp" transform="translate(0,399.41)" d="M60,0h838" style="stroke: rgb(238, 238, 238); stroke-opacity: 1; stroke-width: 1px;"/><path class="ygrid crisp" transform="translate(0,301.92)" d="M60,0h838" style="stroke: rgb(238, 238, 238); stroke-opacity: 1; stroke-width: 1px;"/><path class="ygrid crisp" transform="translate(0,204.43)" d="M60,0h838" style="stroke: rgb(238, 238, 238); stroke-opacity: 1; stroke-width: 1px;"/><path class="ygrid crisp" transform="translate(0,106.94)" d="M60,0h838" style="stroke: rgb(238, 238, 238); stroke-opacity: 1; stroke-width: 1px;"/></g></g><g class="zerolinelayer"><path class="yzl zl crisp" transform="translate(0,691.88)" d="M60,0h838" style="stroke: rgb(68, 68, 68); stroke-opacity: 1; stroke-width: 1px;"/></g><path class="xlines-below"/><path class="ylines-below"/><g class="overlines-below"/><g class="xaxislayer-below"/><g class="yaxislayer-below"/><g class="overaxes-below"/><g class="plot" transform="translate(60, 25)" clip-path="url('#clipb8e3aaxyplot')"><g class="scatterlayer mlayer"><g class="trace scatter tracee2b0e0" style="stroke-miterlimit: 2; opacity: 1;"><g class="fills"/><g class="errorbars"/><g class="lines"><path class="js-line" d="M0,666.88L4.34,666.88L8.68,667.85L13.03,667.85L26.05,665.9L34.74,666.88L39.08,665.9L43.42,665.9L56.45,655.18L60.79,664.93L65.13,666.88L69.47,665.9L73.81,662.98L78.16,664.93L86.84,660.05L91.18,666.88L95.52,661.03L99.87,650.3L104.21,647.38L108.55,643.48L112.89,625.93L117.23,635.68L121.58,656.15L125.92,642.5L130.26,624.96L134.6,608.38L138.94,611.31L143.28,623.98L147.63,591.81L151.97,585.96L156.31,574.26L160.65,503.09L164.99,538.19L169.34,520.64L173.68,92.67L178.02,413.41L182.36,251.57L186.7,275.95L191.05,216.48L195.39,301.29L199.73,269.12L204.07,365.64L208.41,297.39L212.76,130.69L217.1,196.01L221.44,200.88L225.78,266.2L230.12,275.95L234.47,256.45L238.81,196.01L243.15,185.28L247.49,165.78L251.83,117.04L256.18,194.06L260.52,113.14L264.86,76.1L269.2,129.71L273.54,169.68L277.89,48.8L282.23,42.95L286.57,202.83L290.91,240.85L295.25,253.52L299.6,155.06L303.94,328.59L308.28,219.4L312.62,256.45L316.96,168.71L321.31,243.78L325.65,306.17L329.99,289.59L334.33,265.22L338.67,277.9L343.02,201.86L347.36,329.57L351.7,380.26L356.04,366.61L360.38,314.94L364.73,346.14L369.07,330.54L373.41,334.44L377.75,285.7L382.09,335.41L386.44,370.51L390.78,250.6L395.12,286.67L399.46,264.25L403.8,236.95L408.15,265.22L412.49,218.43L416.83,273.02L421.17,387.08L425.51,382.21L429.85,293.49L434.2,331.51L438.54,351.99L442.88,349.06L447.22,273.02L451.56,232.08L455.91,337.36L460.25,319.82L464.59,331.51L468.93,223.3L473.27,262.3L477.62,429.98L481.96,442.65L486.3,422.18L490.64,468.97L494.98,489.45L499.33,407.56L503.67,474.82L508.01,490.42L512.35,487.5L516.69,481.65L521.04,498.22L525.38,493.35L529.72,466.05L534.06,496.27L538.4,509.92L542.75,456.3L547.09,507.97L551.43,482.62L555.77,558.66L560.11,510.89L564.46,493.35L568.8,416.33L573.14,513.82L577.48,521.62L581.82,517.72L586.17,506.02L590.51,548.91L599.19,516.74L603.53,557.69L607.88,551.84L612.22,501.14L616.56,553.79L620.9,540.14L625.24,541.12L629.59,553.79L633.93,558.66L638.27,567.44L642.61,558.66L646.95,558.66L651.3,505.04L655.64,506.99L659.98,535.27L664.32,468.97L668.66,506.02L673.01,566.46L677.35,476.77L681.69,532.34L686.03,533.32L690.37,550.86L694.72,558.66L699.06,592.78L703.4,580.11L707.74,536.24L712.08,545.99L716.42,553.79L720.77,581.09L725.11,578.16L729.45,583.04L733.79,574.26L738.13,581.09L742.48,598.63L746.82,589.86L751.16,554.76L755.5,634.7L759.84,574.26L764.19,590.83L768.53,577.19L772.87,563.54L777.21,587.91L781.55,570.36L785.9,545.01L794.58,592.78L798.92,539.17L803.26,561.59L807.61,554.76L811.95,564.51L816.29,569.39L820.63,581.09L824.97,551.84L829.32,547.94L833.66,522.59L838,557.69" style="vector-effect: non-scaling-stroke; fill: none; stroke: rgb(31, 119, 180); stroke-opacity: 1; stroke-width: 2px; opacity: 1;"/></g><g class="points"/><g class="text"/></g><g class="trace scatter tracecfd62e" style="stroke-miterlimit: 2; opacity: 1;"><g class="fills"/><g class="errorbars"/><g class="lines"><path class="js-line" d="M0,666.88L4.34,666.88L8.68,665.9L13.03,665.9L26.05,666.88L65.13,666.88L69.47,665.9L73.81,666.88L78.16,666.88L86.84,666.88L91.18,665.9L95.52,666.88L99.87,666.88L134.6,666.88L138.94,665.9L143.28,664.93L147.63,666.88L169.34,666.88L173.68,254.5L178.02,566.46L182.36,515.77L186.7,528.44L191.05,479.7L195.39,475.8L199.73,442.65L204.07,496.27L208.41,493.35L212.76,401.71L217.1,441.68L221.44,404.63L225.78,390.01L230.12,410.48L234.47,436.8L238.81,461.17L243.15,341.26L247.49,382.21L251.83,313.97L256.18,355.89L260.52,341.26L264.86,368.56L269.2,383.18L273.54,262.3L277.89,219.4L282.23,270.1L286.57,255.47L290.91,188.21L295.25,155.06L299.6,238.9L303.94,35.15L308.28,88.77L312.62,62.45L316.96,116.07L321.31,67.32L325.65,179.43L329.99,399.76L334.33,235L338.67,328.59L343.02,256.45L347.36,283.75L351.7,287.65L356.04,316.89L360.38,413.41L364.73,224.28L369.07,316.89L373.41,240.85L377.75,297.39L382.09,335.41L386.44,395.86L390.78,413.41L399.46,355.89L403.8,415.35L408.15,297.39L412.49,344.19L416.83,451.43L421.17,413.41L425.51,263.27L429.85,373.43L434.2,364.66L438.54,306.17L442.88,221.35L447.22,332.49L451.56,344.19L455.91,348.09L460.25,279.85L464.59,301.29L468.93,312.02L473.27,369.54L477.62,432.9L481.96,338.34L486.3,129.71L490.64,174.56L494.98,372.46L499.33,324.69L503.67,254.5L508.01,421.2L512.35,454.35L516.69,322.74L521.04,452.4L525.38,427.05L529.72,454.35L534.06,422.18L542.75,497.25L547.09,443.63L551.43,479.7L555.77,446.55L560.11,493.35L564.46,496.27L568.8,580.11L573.14,522.59L577.48,489.45L581.82,468L586.17,492.37L590.51,497.25L594.85,488.47L599.19,510.89L603.53,494.32L607.88,469.95L612.22,499.19L616.56,493.35L620.9,406.58L625.24,557.69L629.59,541.12L633.93,547.94L638.27,535.27L642.61,529.42L646.95,568.41L651.3,538.19L655.64,556.71L659.98,563.54L664.32,577.19L668.66,465.07L673.01,519.67L677.35,533.32L681.69,530.39L686.03,550.86L690.37,567.44L694.72,563.54L699.06,497.25L703.4,506.02L707.74,503.09L712.08,507.97L716.42,547.94L720.77,544.04L725.11,553.79L729.45,524.54L733.79,511.87L738.13,551.84L742.48,562.56L746.82,522.59L751.16,567.44L755.5,593.76L759.84,536.24L764.19,570.36L768.53,585.96L772.87,568.41L777.21,588.88L781.55,585.96L785.9,579.14L790.24,580.11L794.58,592.78L798.92,563.54L803.26,579.14L807.61,561.59L811.95,590.83L816.29,593.76L820.63,554.76L824.97,591.81L829.32,585.96L833.66,566.46L838,590.83" style="vector-effect: non-scaling-stroke; fill: none; stroke: rgb(255, 127, 14); stroke-opacity: 1; stroke-width: 2px; opacity: 1;"/></g><g class="points"/><g class="text"/></g><g class="trace scatter traced969b4" style="stroke-miterlimit: 2; opacity: 1;"><g class="fills"/><g class="errorbars"/><g class="lines"><path class="js-line" d="M0,666.88L117.23,666.88L121.58,665.9L125.92,666.88L130.26,665.9L134.6,666.88L138.94,665.9L143.28,664.93L147.63,665.9L151.97,664.93L156.31,662L160.65,664.93L164.99,663.95L169.34,665.9L173.68,662.98L178.02,657.13L182.36,662.98L186.7,651.28L191.05,653.23L195.39,640.55L199.73,642.5L204.07,654.2L208.41,646.4L212.76,646.4L217.1,641.53L221.44,645.43L225.78,636.65L230.12,646.4L234.47,650.3L238.81,624.96L243.15,617.16L247.49,629.83L251.83,613.26L256.18,631.78L260.52,628.85L264.86,636.65L269.2,629.83L273.54,630.8L277.89,614.23L282.23,618.13L286.57,620.08L290.91,643.48L295.25,611.31L299.6,609.36L303.94,623.01L308.28,583.04L312.62,628.85L316.96,613.26L321.31,627.88L325.65,584.98L329.99,607.41L334.33,600.58L338.67,620.08L343.02,605.46L347.36,609.36L351.7,632.75L356.04,632.75L360.38,612.28L364.73,627.88L373.41,640.55L377.75,634.7L382.09,644.45L386.44,644.45L390.78,652.25L395.12,624.96L399.46,636.65L403.8,639.58L408.15,640.55L412.49,642.5L416.83,638.6L421.17,646.4L425.51,635.68L429.85,633.73L434.2,626.9L438.54,650.3L442.88,648.35L447.22,657.13L451.56,650.3L455.91,648.35L460.25,623.01L464.59,652.25L468.93,632.75L473.27,648.35L477.62,643.48L481.96,653.23L486.3,656.15L490.64,655.18L494.98,656.15L499.33,658.1L503.67,655.18L508.01,659.08L512.35,656.15L516.69,655.18L521.04,663.95L525.38,656.15L529.72,636.65L534.06,656.15L538.4,663.95L542.75,657.13L547.09,655.18L551.43,657.13L555.77,663.95L560.11,659.08L564.46,661.03L568.8,660.05L573.14,660.05L577.48,662.98L581.82,662.98L586.17,664.93L590.51,662L594.85,664.93L599.19,666.88L603.53,664.93L607.88,658.1L612.22,663.95L616.56,660.05L620.9,661.03L625.24,663.95L629.59,663.95L633.93,665.9L638.27,658.1L642.61,662L646.95,658.1L651.3,664.93L655.64,663.95L659.98,665.9L664.32,665.9L668.66,664.93L673.01,666.88L677.35,663.95L681.69,665.9L686.03,662.98L690.37,665.9L694.72,662.98L699.06,665.9L703.4,663.95L707.74,663.95L720.77,666.88L725.11,662.98L729.45,666.88L733.79,665.9L738.13,666.88L742.48,665.9L746.82,664.93L751.16,666.88L755.5,666.88L759.84,665.9L764.19,666.88L768.53,665.9L772.87,665.9L777.21,666.88L781.55,666.88L785.9,662.98L790.24,667.85L794.58,665.9L798.92,663.95L803.26,665.9L807.61,666.88L811.95,665.9L816.29,664.93L820.63,664.93L824.97,665.9L829.32,661.03L833.66,666.88L838,665.9" style="vector-effect: non-scaling-stroke; fill: none; stroke: rgb(44, 160, 44); stroke-opacity: 1; stroke-width: 2px; opacity: 1;"/></g><g class="points"/><g class="text"/></g></g></g><g class="overplot"/><path class="xlines-above crisp" style="fill: none;" d="M0,0"/><path class="ylines-above crisp" style="fill: none;" d="M0,0"/><g class="overlines-above"/><g class="xaxislayer-above"><g class="xtick"><text text-anchor="middle" x="0" y="741" transform="translate(112.1,0)" style="font-family: 'Open Sans', verdana, arial, sans-serif; font-size: 12px; fill: rgb(68, 68, 68); fill-opacity: 1; white-space: pre;">Mar 2020</text></g><g class="xtick"><text text-anchor="middle" x="0" y="741" transform="translate(246.7,0)" style="font-family: 'Open Sans', verdana, arial, sans-serif; font-size: 12px; fill: rgb(68, 68, 68); fill-opacity: 1; white-space: pre;">Apr 2020</text></g><g class="xtick"><text text-anchor="middle" x="0" y="741" transform="translate(376.96,0)" style="font-family: 'Open Sans', verdana, arial, sans-serif; font-size: 12px; fill: rgb(68, 68, 68); fill-opacity: 1; white-space: pre;">May 2020</text></g><g class="xtick"><text text-anchor="middle" x="0" y="741" transform="translate(511.56,0)" style="font-family: 'Open Sans', verdana, arial, sans-serif; font-size: 12px; fill: rgb(68, 68, 68); fill-opacity: 1; white-space: pre;">Jun 2020</text></g><g class="xtick"><text text-anchor="middle" x="0" y="741" transform="translate(641.82,0)" style="font-family: 'Open Sans', verdana, arial, sans-serif; font-size: 12px; fill: rgb(68, 68, 68); fill-opacity: 1; white-space: pre;">Jul 2020</text></g><g class="xtick"><text text-anchor="middle" x="0" y="741" transform="translate(776.42,0)" style="font-family: 'Open Sans', verdana, arial, sans-serif; font-size: 12px; fill: rgb(68, 68, 68); fill-opacity: 1; white-space: pre;">Aug 2020</text></g></g><g class="yaxislayer-above"><g class="ytick"><text text-anchor="end" x="59" y="4.199999999999999" transform="translate(0,691.88)" style="font-family: 'Open Sans', verdana, arial, sans-serif; font-size: 12px; fill: rgb(68, 68, 68); fill-opacity: 1; white-space: pre;">0</text></g><g class="ytick"><text text-anchor="end" x="59" y="4.199999999999999" transform="translate(0,594.39)" style="font-family: 'Open Sans', verdana, arial, sans-serif; font-size: 12px; fill: rgb(68, 68, 68); fill-opacity: 1; white-space: pre;">100</text></g><g class="ytick"><text text-anchor="end" x="59" y="4.199999999999999" transform="translate(0,496.9)" style="font-family: 'Open Sans', verdana, arial, sans-serif; font-size: 12px; fill: rgb(68, 68, 68); fill-opacity: 1; white-space: pre;">200</text></g><g class="ytick"><text text-anchor="end" x="59" y="4.199999999999999" transform="translate(0,399.41)" style="font-family: 'Open Sans', verdana, arial, sans-serif; font-size: 12px; fill: rgb(68, 68, 68); fill-opacity: 1; white-space: pre;">300</text></g><g class="ytick"><text text-anchor="end" x="59" y="4.199999999999999" transform="translate(0,301.92)" style="font-family: 'Open Sans', verdana, arial, sans-serif; font-size: 12px; fill: rgb(68, 68, 68); fill-opacity: 1; white-space: pre;">400</text></g><g class="ytick"><text text-anchor="end" x="59" y="4.199999999999999" transform="translate(0,204.43)" style="font-family: 'Open Sans', verdana, arial, sans-serif; font-size: 12px; fill: rgb(68, 68, 68); fill-opacity: 1; white-space: pre;">500</text></g><g class="ytick"><text text-anchor="end" x="59" y="4.199999999999999" transform="translate(0,106.94)" style="font-family: 'Open Sans', verdana, arial, sans-serif; font-size: 12px; fill: rgb(68, 68, 68); fill-opacity: 1; white-space: pre;">600</text></g></g><g class="overaxes-above"/></g></g><g class="polarlayer"/><g class="ternarylayer"/><g class="geolayer"/><g class="funnelarealayer"/><g class="pielayer"/><g class="treemaplayer"/><g class="sunburstlayer"/><g class="glimages"/><defs id="topdefs-b8e3aa"><g class="clips"/><clipPath id="legendb8e3aa"><rect width="102" height="67" x="0" y="0"/></clipPath></defs><g class="layer-above"><g class="imagelayer"/><g class="shapelayer"/></g><g class="infolayer"><g class="legend" pointer-events="all" transform="translate(914.76, 25)"><rect class="bg" shape-rendering="crispEdges" style="stroke: rgb(68, 68, 68); stroke-opacity: 1; fill: rgb(255, 255, 255); fill-opacity: 1; stroke-width: 0px;" width="102" height="67" x="0" y="0"/><g class="scrollbox" transform="translate(0, 0)" clip-path="url('#legendb8e3aa')"><g class="groups"><g class="traces" style="opacity: 1;" transform="translate(0, 14.5)"><text class="legendtext user-select-none" text-anchor="start" x="40" y="4.680000000000001" style="font-family: 'Open Sans', verdana, arial, sans-serif; font-size: 12px; fill: rgb(68, 68, 68); fill-opacity: 1; white-space: pre;">positive</text><g class="layers" style="opacity: 1;"><g class="legendfill"/><g class="legendlines"><path class="js-line" d="M5,0h30" style="fill: none; stroke: rgb(31, 119, 180); stroke-opacity: 1; stroke-width: 2px;"/></g><g class="legendsymbols"><g class="legendpoints"/></g></g><rect class="legendtoggle" pointer-events="all" x="0" y="-9.5" width="96.109375" height="19" style="cursor: pointer; fill: rgb(0, 0, 0); fill-opacity: 0;"/></g><g class="traces" style="opacity: 1;" transform="translate(0, 33.5)"><text class="legendtext user-select-none" text-anchor="start" x="40" y="4.680000000000001" style="font-family: 'Open Sans', verdana, arial, sans-serif; font-size: 12px; fill: rgb(68, 68, 68); fill-opacity: 1; white-space: pre;">resolved</text><g class="layers" style="opacity: 1;"><g class="legendfill"/><g class="legendlines"><path class="js-line" d="M5,0h30" style="fill: none; stroke: rgb(255, 127, 14); stroke-opacity: 1; stroke-width: 2px;"/></g><g class="legendsymbols"><g class="legendpoints"/></g></g><rect class="legendtoggle" pointer-events="all" x="0" y="-9.5" width="96.109375" height="19" style="cursor: pointer; fill: rgb(0, 0, 0); fill-opacity: 0;"/></g><g class="traces" style="opacity: 1;" transform="translate(0, 52.5)"><text class="legendtext user-select-none" text-anchor="start" x="40" y="4.680000000000001" style="font-family: 'Open Sans', verdana, arial, sans-serif; font-size: 12px; fill: rgb(68, 68, 68); fill-opacity: 1; white-space: pre;">deceased</text><g class="layers" style="opacity: 1;"><g class="legendfill"/><g class="legendlines"><path class="js-line" d="M5,0h30" style="fill: none; stroke: rgb(44, 160, 44); stroke-opacity: 1; stroke-width: 2px;"/></g><g class="legendsymbols"><g class="legendpoints"/></g></g><rect class="legendtoggle" pointer-events="all" x="0" y="-9.5" width="96.109375" height="19" style="cursor: pointer; fill: rgb(0, 0, 0); fill-opacity: 0;"/></g></g></g><rect class="scrollbar" rx="20" ry="3" width="0" height="0" style="fill: rgb(128, 139, 164); fill-opacity: 1;" x="0" y="0"/></g><g class="g-gtitle"><text class="gtitle" x="513.5" y="12.5" text-anchor="middle" dy="0em" style="font-family: 'Open Sans', verdana, arial, sans-serif; font-size: 17px; fill: rgb(68, 68, 68); opacity: 1; font-weight: normal; white-space: pre;">Dynamics of new cases, resolved cases and deaths in Ontario (Aug 30, 2020)</text></g><g class="g-xtitle" transform="translate(0,-15)"><text class="xtitle" x="479" y="780" text-anchor="middle" style="font-family: 'Open Sans', verdana, arial, sans-serif; font-size: 14px; fill: rgb(68, 68, 68); opacity: 1; font-weight: normal; white-space: pre;">Date</text></g><g class="g-ytitle"><text class="ytitle" transform="rotate(-90,22,376.5)" x="22" y="376.5" text-anchor="middle" style="font-family: 'Open Sans', verdana, arial, sans-serif; font-size: 14px; fill: rgb(68, 68, 68); opacity: 1; font-weight: normal; white-space: pre;">Number of cases</text></g></g></svg>