<svg class="main-svg" xmlns="http://www.w3.org/2000/svg" xmlns:xlink="http://www.w3.org/1999/xlink" width="1027" height="768" style="" viewBox="0 0 1027 768"><rect x="0" y="0" width="1027" height="768" style="fill: rgb(255, 255, 255); fill-opacity: 1;"/><defs id="defs-d0cea9"><g class="clips"><clipPath id="clipd0cea9xyplot" class="plotclip"><rect width="838" height="687"/></clipPath><clipPath class="axesclip" id="clipd0cea9x"><rect x="60" y="0" width="838" height="768"/></clipPath><clipPath class="axesclip" id="clipd0cea9y"><rect x="0" y="25" width="1027" height="687"/></clipPath><clipPath class="axesclip" id="clipd0cea9xy"><rect x="60" y="25" width="838" height="687"/></clipPath></g><g class="gradients"/></defs><g class="bglayer"/><g class="layer-below"><g class="imagelayer"/><g class="shapelayer"/></g><g class="cartesianlayer"><g class="subplot xy"><g class="layer-subplot"><g class="shapelayer"/><g class="imagelayer"/></g><g class="gridlayer"><g class="x"><path class="xgrid crisp" transform="translate(135.04000000000002,0)" d="M0,25v687" style="stroke: rgb(238, 238, 238); stroke-opacity: 1; stroke-width: 1px;"/><path class="xgrid crisp" transform="translate(222.6,0)" d="M0,25v687" style="stroke: rgb(238, 238, 238); stroke-opacity: 1; stroke-width: 1px;"/><path class="xgrid crisp" transform="translate(310.15,0)" d="M0,25v687" style="stroke: rgb(238, 238, 238); stroke-opacity: 1; stroke-width: 1px;"/><path class="xgrid crisp" transform="translate(397.7,0)" d="M0,25v687" style="stroke: rgb(238, 238, 238); stroke-opacity: 1; stroke-width: 1px;"/><path class="xgrid crisp" transform="translate(485.25,0)" d="M0,25v687" style="stroke: rgb(238, 238, 238); stroke-opacity: 1; stroke-width: 1px;"/><path class="xgrid crisp" transform="translate(572.81,0)" d="M0,25v687" style="stroke: rgb(238, 238, 238); stroke-opacity: 1; stroke-width: 1px;"/><path class="xgrid crisp" transform="translate(660.36,0)" d="M0,25v687" style="stroke: rgb(238, 238, 238); stroke-opacity: 1; stroke-width: 1px;"/><path class="xgrid crisp" transform="translate(747.91,0)" d="M0,25v687" style="stroke: rgb(238, 238, 238); stroke-opacity: 1; stroke-width: 1px;"/><path class="xgrid crisp" transform="translate(835.46,0)" d="M0,25v687" style="stroke: rgb(238, 238, 238); stroke-opacity: 1; stroke-width: 1px;"/></g><g class="y"><path class="ygrid crisp" transform="translate(0,581.43)" d="M60,0h838" style="stroke: rgb(238, 238, 238); stroke-opacity: 1; stroke-width: 1px;"/><path class="ygrid crisp" transform="translate(0,486.16)" d="M60,0h838" style="stroke: rgb(238, 238, 238); stroke-opacity: 1; stroke-width: 1px;"/><path class="ygrid crisp" transform="translate(0,390.89)" d="M60,0h838" style="stroke: rgb(238, 238, 238); stroke-opacity: 1; stroke-width: 1px;"/><path class="ygrid crisp" transform="translate(0,295.62)" d="M60,0h838" style="stroke: rgb(238, 238, 238); stroke-opacity: 1; stroke-width: 1px;"/><path class="ygrid crisp" transform="translate(0,200.35)" d="M60,0h838" style="stroke: rgb(238, 238, 238); stroke-opacity: 1; stroke-width: 1px;"/><path class="ygrid crisp" transform="translate(0,105.08)" d="M60,0h838" style="stroke: rgb(238, 238, 238); stroke-opacity: 1; stroke-width: 1px;"/></g></g><g class="zerolinelayer"><path class="yzl zl crisp" transform="translate(0,676.7)" d="M60,0h838" style="stroke: rgb(68, 68, 68); stroke-opacity: 1; stroke-width: 1px;"/></g><path class="xlines-below"/><path class="ylines-below"/><g class="overlines-below"/><g class="xaxislayer-below"/><g class="yaxislayer-below"/><g class="overaxes-below"/><g class="plot" transform="translate(60, 25)" clip-path="url('#clipd0cea9xyplot')"><g class="scatterlayer mlayer"><g class="trace scatter trace88f522" style="stroke-miterlimit: 2; opacity: 1;"><g class="fills"/><g class="errorbars"/><g class="lines"><path class="js-line" d="M0,651.7L6.25,651.7L12.51,652.65L18.76,652.65L37.52,650.74L50.03,651.7L56.28,650.74L62.54,650.74L81.3,640.26L87.55,649.79L93.81,651.7L100.06,650.74L106.31,647.89L112.57,649.79L125.07,645.03L131.33,651.7L137.58,645.98L143.84,635.5L150.09,632.64L156.34,628.83L162.6,611.68L168.85,621.21L175.1,641.22L181.36,627.88L187.61,610.73L193.87,594.54L200.12,597.39L206.37,609.78L212.63,578.34L218.88,572.62L225.13,561.19L231.39,491.64L237.64,525.94L243.9,508.79L250.15,90.56L256.4,404L262.66,245.85L268.91,269.67L275.16,211.55L281.42,294.44L287.67,263L293.93,357.31L300.18,290.63L306.43,127.71L312.69,191.54L318.94,196.31L325.19,260.14L331.45,269.67L337.7,250.61L343.96,191.54L350.21,181.07L356.46,162.01L362.72,114.38L368.97,189.64L375.22,110.57L381.48,74.36L387.73,126.76L393.99,165.82L400.24,47.69L406.49,41.97L412.75,198.21L419,235.37L425.25,247.75L431.51,151.53L437.76,321.11L444.01,214.41L450.27,250.61L456.52,164.87L462.78,238.23L469.03,299.2L475.28,283L481.54,259.19L487.79,271.57L494.04,197.26L500.3,322.06L506.55,371.6L512.81,358.27L519.06,307.77L525.31,338.26L531.57,323.02L537.82,326.83L544.07,279.19L550.33,327.78L556.58,362.08L562.84,244.9L569.09,280.15L575.34,258.23L581.6,231.56L587.85,259.19L594.1,213.46L600.36,266.81L606.61,378.27L612.87,373.51L619.12,286.81L625.37,323.97L631.63,343.98L637.88,341.12L644.13,266.81L650.39,226.79L656.64,329.69L662.9,312.54L669.15,323.97L675.4,218.22L681.66,256.33L687.91,420.19L694.16,432.58L700.42,412.57L706.67,458.3L712.93,478.31L719.18,398.28L725.43,464.02L731.69,479.26L737.94,476.4L744.19,470.68L750.45,486.88L756.7,482.12L762.96,455.44L769.21,484.98L775.46,498.31L781.72,445.91L787.97,496.41L794.22,471.64L800.48,545.95L806.73,499.27L812.99,482.12L819.24,406.85L825.49,502.12L831.75,509.75L838,505.93" style="vector-effect: non-scaling-stroke; fill: none; stroke: rgb(31, 119, 180); stroke-opacity: 1; stroke-width: 2px; opacity: 1;"/></g><g class="points"/><g class="text"/></g><g class="trace scatter trace36ebb9" style="stroke-miterlimit: 2; opacity: 1;"><g class="fills"/><g class="errorbars"/><g class="lines"><path class="js-line" d="M0,651.7L6.25,651.7L12.51,650.74L18.76,650.74L37.52,651.7L93.81,651.7L100.06,650.74L106.31,651.7L112.57,651.7L125.07,651.7L131.33,650.74L137.58,651.7L143.84,651.7L193.87,651.7L200.12,650.74L206.37,649.79L212.63,651.7L243.9,651.7L250.15,248.71L256.4,553.57L262.66,504.03L268.91,516.41L275.16,468.78L281.42,464.97L287.67,432.58L293.93,484.98L300.18,482.12L306.43,392.56L312.69,431.62L318.94,395.42L325.19,381.13L331.45,401.14L337.7,426.86L343.96,450.68L350.21,333.5L356.46,373.51L362.72,306.82L368.97,347.79L375.22,333.5L381.48,360.17L387.73,374.46L393.99,256.33L400.24,214.41L406.49,263.95L412.75,249.66L419,183.92L425.25,151.53L431.51,233.46L437.76,34.35L444.01,86.75L450.27,61.03L456.52,113.42L462.78,65.79L469.03,175.35L475.28,390.66L481.54,229.65L487.79,321.11L494.04,250.61L500.3,277.29L506.55,281.1L512.81,309.68L519.06,404L525.31,219.17L531.57,309.68L537.82,235.37L544.07,290.63L550.33,327.78L556.58,386.85L562.84,404L569.09,373.51L575.34,347.79L581.6,405.9L587.85,290.63L594.1,336.35L600.36,441.15L606.61,404L612.87,257.28L619.12,364.94L625.37,356.36L631.63,299.2L637.88,216.32L644.13,324.92L650.39,336.35L656.64,340.17L662.9,273.48L669.15,294.44L675.4,304.92L687.91,423.05L694.16,330.64L700.42,126.76L706.67,170.59L712.93,363.98L719.18,317.3L725.43,248.71L731.69,411.62L737.94,444.01L744.19,315.4L750.45,442.1L756.7,417.33L762.96,444.01L769.21,412.57L781.72,485.93L787.97,433.53L794.22,468.78L800.48,436.39L806.73,482.12L812.99,484.98L819.24,566.91L825.49,510.7L831.75,478.31L838,457.35" style="vector-effect: non-scaling-stroke; fill: none; stroke: rgb(255, 127, 14); stroke-opacity: 1; stroke-width: 2px; opacity: 1;"/></g><g class="points"/><g class="text"/></g><g class="trace scatter trace051b33" style="stroke-miterlimit: 2; opacity: 1;"><g class="fills"/><g class="errorbars"/><g class="lines"><path class="js-line" d="M0,651.7L168.85,651.7L175.1,650.74L181.36,651.7L187.61,650.74L193.87,651.7L200.12,650.74L206.37,649.79L212.63,650.74L218.88,649.79L225.13,646.93L231.39,649.79L237.64,648.84L243.9,650.74L250.15,647.89L256.4,642.17L262.66,647.89L268.91,636.45L275.16,638.36L281.42,625.97L287.67,627.88L293.93,639.31L300.18,631.69L306.43,631.69L312.69,626.93L318.94,630.74L325.19,622.16L331.45,631.69L337.7,635.5L343.96,610.73L350.21,603.11L356.46,615.49L362.72,599.3L368.97,617.4L375.22,614.54L381.48,622.16L387.73,615.49L393.99,616.45L400.24,600.25L406.49,604.06L412.75,605.97L419,628.83L425.25,597.39L431.51,595.49L437.76,608.83L444.01,569.77L450.27,614.54L456.52,599.3L462.78,613.59L469.03,571.67L475.28,593.58L481.54,586.91L487.79,605.97L494.04,591.68L500.3,595.49L506.55,618.35L512.81,618.35L519.06,598.35L525.31,613.59L537.82,625.97L544.07,620.26L550.33,629.79L556.58,629.79L562.84,637.41L569.09,610.73L575.34,622.16L581.6,625.02L587.85,625.97L594.1,627.88L600.36,624.07L606.61,631.69L612.87,621.21L619.12,619.31L625.37,612.64L631.63,635.5L637.88,633.6L644.13,642.17L650.39,635.5L656.64,633.6L662.9,608.83L669.15,637.41L675.4,618.35L681.66,633.6L687.91,628.83L694.16,638.36L700.42,641.22L706.67,640.26L712.93,641.22L719.18,643.12L725.43,640.26L731.69,644.08L737.94,641.22L744.19,640.26L750.45,648.84L756.7,641.22L762.96,622.16L769.21,641.22L775.46,648.84L781.72,642.17L787.97,640.26L794.22,642.17L800.48,648.84L806.73,644.08L812.99,645.98L819.24,645.03L825.49,645.03L831.75,647.89L838,647.89" style="vector-effect: non-scaling-stroke; fill: none; stroke: rgb(44, 160, 44); stroke-opacity: 1; stroke-width: 2px; opacity: 1;"/></g><g class="points"/><g class="text"/></g></g></g><g class="overplot"/><path class="xlines-above crisp" style="fill: none;" d="M0,0"/><path class="ylines-above crisp" style="fill: none;" d="M0,0"/><g class="overlines-above"/><g class="xaxislayer-above"><g class="xtick"><text text-anchor="middle" x="0" y="725" transform="translate(135.04000000000002,0)" style="font-family: 'Open Sans', verdana, arial, sans-serif; font-size: 12px; fill: rgb(68, 68, 68); fill-opacity: 1; white-space: pre;"><tspan class="line" dy="0em" x="0" y="725">Mar 1</tspan><tspan class="line" dy="1.3em" x="0" y="725">2020</tspan></text></g><g class="xtick"><text text-anchor="middle" x="0" y="725" transform="translate(222.6,0)" style="font-family: 'Open Sans', verdana, arial, sans-serif; font-size: 12px; fill: rgb(68, 68, 68); fill-opacity: 1; white-space: pre;">Mar 15</text></g><g class="xtick"><text text-anchor="middle" x="0" y="725" transform="translate(310.15,0)" style="font-family: 'Open Sans', verdana, arial, sans-serif; font-size: 12px; fill: rgb(68, 68, 68); fill-opacity: 1; white-space: pre;">Mar 29</text></g><g class="xtick"><text text-anchor="middle" x="0" y="725" transform="translate(397.7,0)" style="font-family: 'Open Sans', verdana, arial, sans-serif; font-size: 12px; fill: rgb(68, 68, 68); fill-opacity: 1; white-space: pre;">Apr 12</text></g><g class="xtick"><text text-anchor="middle" x="0" y="725" transform="translate(485.25,0)" style="font-family: 'Open Sans', verdana, arial, sans-serif; font-size: 12px; fill: rgb(68, 68, 68); fill-opacity: 1; white-space: pre;">Apr 26</text></g><g class="xtick"><text text-anchor="middle" x="0" y="725" transform="translate(572.81,0)" style="font-family: 'Open Sans', verdana, arial, sans-serif; font-size: 12px; fill: rgb(68, 68, 68); fill-opacity: 1; white-space: pre;">May 10</text></g><g class="xtick"><text text-anchor="middle" x="0" y="725" transform="translate(660.36,0)" style="font-family: 'Open Sans', verdana, arial, sans-serif; font-size: 12px; fill: rgb(68, 68, 68); fill-opacity: 1; white-space: pre;">May 24</text></g><g class="xtick"><text text-anchor="middle" x="0" y="725" transform="translate(747.91,0)" style="font-family: 'Open Sans', verdana, arial, sans-serif; font-size: 12px; fill: rgb(68, 68, 68); fill-opacity: 1; white-space: pre;">Jun 7</text></g><g class="xtick"><text text-anchor="middle" x="0" y="725" transform="translate(835.46,0)" style="font-family: 'Open Sans', verdana, arial, sans-serif; font-size: 12px; fill: rgb(68, 68, 68); fill-opacity: 1; white-space: pre;">Jun 21</text></g></g><g class="yaxislayer-above"><g class="ytick"><text text-anchor="end" x="59" y="4.199999999999999" transform="translate(0,676.7)" style="font-family: 'Open Sans', verdana, arial, sans-serif; font-size: 12px; fill: rgb(68, 68, 68); fill-opacity: 1; white-space: pre;">0</text></g><g class="ytick"><text text-anchor="end" x="59" y="4.199999999999999" transform="translate(0,581.43)" style="font-family: 'Open Sans', verdana, arial, sans-serif; font-size: 12px; fill: rgb(68, 68, 68); fill-opacity: 1; white-space: pre;">100</text></g><g class="ytick"><text text-anchor="end" x="59" y="4.199999999999999" transform="translate(0,486.16)" style="font-family: 'Open Sans', verdana, arial, sans-serif; font-size: 12px; fill: rgb(68, 68, 68); fill-opacity: 1; white-space: pre;">200</text></g><g class="ytick"><text text-anchor="end" x="59" y="4.199999999999999" transform="translate(0,390.89)" style="font-family: 'Open Sans', verdana, arial, sans-serif; font-size: 12px; fill: rgb(68, 68, 68); fill-opacity: 1; white-space: pre;">300</text></g><g class="ytick"><text text-anchor="end" x="59" y="4.199999999999999" transform="translate(0,295.62)" style="font-family: 'Open Sans', verdana, arial, sans-serif; font-size: 12px; fill: rgb(68, 68, 68); fill-opacity: 1; white-space: pre;">400</text></g><g class="ytick"><text text-anchor="end" x="59" y="4.199999999999999" transform="translate(0,200.35)" style="font-family: 'Open Sans', verdana, arial, sans-serif; font-size: 12px; fill: rgb(68, 68, 68); fill-opacity: 1; white-space: pre;">500</text></g><g class="ytick"><text text-anchor="end" x="59" y="4.199999999999999" transform="translate(0,105.08)" style="font-family: 'Open Sans', verdana, arial, sans-serif; font-size: 12px; fill: rgb(68, 68, 68); fill-opacity: 1; white-space: pre;">600</text></g></g><g class="overaxes-above"/></g></g><g class="polarlayer"/><g class="ternarylayer"/><g class="geolayer"/><g class="funnelarealayer"/><g class="pielayer"/><g class="treemaplayer"/><g class="sunburstlayer"/><g class="glimages"/><defs id="topdefs-d0cea9"><g class="clips"/><clipPath id="legendd0cea9"><rect width="102" height="67" x="0" y="0"/></clipPath></defs><g class="layer-above"><g class="imagelayer"/><g class="shapelayer"/></g><g class="infolayer"><g class="legend" pointer-events="all" transform="translate(914.76, 25)"><rect class="bg" shape-rendering="crispEdges" style="stroke: rgb(68, 68, 68); stroke-opacity: 1; fill: rgb(255, 255, 255); fill-opacity: 1; stroke-width: 0px;" width="102" height="67" x="0" y="0"/><g class="scrollbox" transform="translate(0, 0)" clip-path="url('#legendd0cea9')"><g class="groups"><g class="traces" style="opacity: 1;" transform="translate(0, 14.5)"><text class="legendtext user-select-none" text-anchor="start" x="40" y="4.680000000000001" style="font-family: 'Open Sans', verdana, arial, sans-serif; font-size: 12px; fill: rgb(68, 68, 68); fill-opacity: 1; white-space: pre;">positive</text><g class="layers" style="opacity: 1;"><g class="legendfill"/><g class="legendlines"><path class="js-line" d="M5,0h30" style="fill: none; stroke: rgb(31, 119, 180); stroke-opacity: 1; stroke-width: 2px;"/></g><g class="legendsymbols"><g class="legendpoints"/></g></g><rect class="legendtoggle" pointer-events="all" x="0" y="-9.5" width="96.109375" height="19" style="cursor: pointer; fill: rgb(0, 0, 0); fill-opacity: 0;"/></g><g class="traces" style="opacity: 1;" transform="translate(0, 33.5)"><text class="legendtext user-select-none" text-anchor="start" x="40" y="4.680000000000001" style="font-family: 'Open Sans', verdana, arial, sans-serif; font-size: 12px; fill: rgb(68, 68, 68); fill-opacity: 1; white-space: pre;">resolved</text><g class="layers" style="opacity: 1;"><g class="legendfill"/><g class="legendlines"><path class="js-line" d="M5,0h30" style="fill: none; stroke: rgb(255, 127, 14); stroke-opacity: 1; stroke-width: 2px;"/></g><g class="legendsymbols"><g class="legendpoints"/></g></g><rect class="legendtoggle" pointer-events="all" x="0" y="-9.5" width="96.109375" height="19" style="cursor: pointer; fill: rgb(0, 0, 0); fill-opacity: 0;"/></g><g class="traces" style="opacity: 1;" transform="translate(0, 52.5)"><text class="legendtext user-select-none" text-anchor="start" x="40" y="4.680000000000001" style="font-family: 'Open Sans', verdana, arial, sans-serif; font-size: 12px; fill: rgb(68, 68, 68); fill-opacity: 1; white-space: pre;">deceased</text><g class="layers" style="opacity: 1;"><g class="legendfill"/><g class="legendlines"><path class="js-line" d="M5,0h30" style="fill: none; stroke: rgb(44, 160, 44); stroke-opacity: 1; stroke-width: 2px;"/></g><g class="legendsymbols"><g class="legendpoints"/></g></g><rect class="legendtoggle" pointer-events="all" x="0" y="-9.5" width="96.109375" height="19" style="cursor: pointer; fill: rgb(0, 0, 0); fill-opacity: 0;"/></g></g></g><rect class="scrollbar" rx="20" ry="3" width="0" height="0" style="fill: rgb(128, 139, 164); fill-opacity: 1;" x="0" y="0"/></g><g class="g-gtitle"><text class="gtitle" x="513.5" y="12.5" text-anchor="middle" dy="0em" style="font-family: 'Open Sans', verdana, arial, sans-serif; font-size: 17px; fill: rgb(68, 68, 68); opacity: 1; font-weight: normal; white-space: pre;">Dynamics of new cases, resolved cases and deaths in Ontario (Jul 02, 2020)</text></g><g class="g-xtitle"><text class="xtitle" x="479" y="764" text-anchor="middle" style="font-family: 'Open Sans', verdana, arial, sans-serif; font-size: 14px; fill: rgb(68, 68, 68); opacity: 1; font-weight: normal; white-space: pre;">Date</text></g><g class="g-ytitle"><text class="ytitle" transform="rotate(-90,22,368.5)" x="22" y="368.5" text-anchor="middle" style="font-family: 'Open Sans', verdana, arial, sans-serif; font-size: 14px; fill: rgb(68, 68, 68); opacity: 1; font-weight: normal; white-space: pre;">Number of cases</text></g></g></svg>