<svg class="main-svg" xmlns="http://www.w3.org/2000/svg" xmlns:xlink="http://www.w3.org/1999/xlink" width="1027" height="768" style="" viewBox="0 0 1027 768"><rect x="0" y="0" width="1027" height="768" style="fill: rgb(255, 255, 255); fill-opacity: 1;"/><defs id="defs-6fffb4"><g class="clips"><clipPath id="clip6fffb4xyplot" class="plotclip"><rect width="838" height="703"/></clipPath><clipPath class="axesclip" id="clip6fffb4x"><rect x="60" y="0" width="838" height="768"/></clipPath><clipPath class="axesclip" id="clip6fffb4y"><rect x="0" y="25" width="1027" height="703"/></clipPath><clipPath class="axesclip" id="clip6fffb4xy"><rect x="60" y="25" width="838" height="703"/></clipPath></g><g class="gradients"/></defs><g class="bglayer"/><g class="layer-below"><g class="imagelayer"/><g class="shapelayer"/></g><g class="cartesianlayer"><g class="subplot xy"><g class="layer-subplot"><g class="shapelayer"/><g class="imagelayer"/></g><g class="gridlayer"><g class="x"><path class="xgrid crisp" transform="translate(76.99,0)" d="M0,25v703" style="stroke: rgb(238, 238, 238); stroke-opacity: 1; stroke-width: 1px;"/><path class="xgrid crisp" transform="translate(163.32999999999998,0)" d="M0,25v703" style="stroke: rgb(238, 238, 238); stroke-opacity: 1; stroke-width: 1px;"/><path class="xgrid crisp" transform="translate(249.68,0)" d="M0,25v703" style="stroke: rgb(238, 238, 238); stroke-opacity: 1; stroke-width: 1px;"/><path class="xgrid crisp" transform="translate(337.45,0)" d="M0,25v703" style="stroke: rgb(238, 238, 238); stroke-opacity: 1; stroke-width: 1px;"/><path class="xgrid crisp" transform="translate(423.79,0)" d="M0,25v703" style="stroke: rgb(238, 238, 238); stroke-opacity: 1; stroke-width: 1px;"/><path class="xgrid crisp" transform="translate(510.14,0)" d="M0,25v703" style="stroke: rgb(238, 238, 238); stroke-opacity: 1; stroke-width: 1px;"/><path class="xgrid crisp" transform="translate(593.66,0)" d="M0,25v703" style="stroke: rgb(238, 238, 238); stroke-opacity: 1; stroke-width: 1px;"/><path class="xgrid crisp" transform="translate(680.01,0)" d="M0,25v703" style="stroke: rgb(238, 238, 238); stroke-opacity: 1; stroke-width: 1px;"/><path class="xgrid crisp" transform="translate(766.35,0)" d="M0,25v703" style="stroke: rgb(238, 238, 238); stroke-opacity: 1; stroke-width: 1px;"/><path class="xgrid crisp" transform="translate(854.12,0)" d="M0,25v703" style="stroke: rgb(238, 238, 238); stroke-opacity: 1; stroke-width: 1px;"/></g><g class="y"><path class="ygrid crisp" transform="translate(0,559.91)" d="M60,0h838" style="stroke: rgb(238, 238, 238); stroke-opacity: 1; stroke-width: 1px;"/><path class="ygrid crisp" transform="translate(0,428.81)" d="M60,0h838" style="stroke: rgb(238, 238, 238); stroke-opacity: 1; stroke-width: 1px;"/><path class="ygrid crisp" transform="translate(0,297.71)" d="M60,0h838" style="stroke: rgb(238, 238, 238); stroke-opacity: 1; stroke-width: 1px;"/><path class="ygrid crisp" transform="translate(0,166.61)" d="M60,0h838" style="stroke: rgb(238, 238, 238); stroke-opacity: 1; stroke-width: 1px;"/><path class="ygrid crisp" transform="translate(0,35.5)" d="M60,0h838" style="stroke: rgb(238, 238, 238); stroke-opacity: 1; stroke-width: 1px;"/></g></g><g class="zerolinelayer"><path class="yzl zl crisp" transform="translate(0,691.01)" d="M60,0h838" style="stroke: rgb(68, 68, 68); stroke-opacity: 1; stroke-width: 1px;"/></g><path class="xlines-below"/><path class="ylines-below"/><g class="overlines-below"/><g class="xaxislayer-below"/><g class="yaxislayer-below"/><g class="overaxes-below"/><g class="plot" transform="translate(60, 25)" clip-path="url('#clip6fffb4xyplot')"><g class="scatterlayer mlayer"><g class="trace scatter tracef17b01" style="stroke-miterlimit: 2; opacity: 1;"><g class="fills"/><g class="errorbars"/><g class="lines"><path class="js-line" d="M4.25,666.28L14.16,665.88L18.4,664.44L19.82,665.75L21.23,666.01L0,667.85L1.42,666.01L15.57,665.75L16.99,664.44L25.48,665.88L26.9,665.23L28.31,665.88L29.73,665.23L32.56,663.39L33.97,662.87L35.39,660.51L36.8,661.82L38.22,664.44L39.64,662.74L42.47,658.15L43.88,658.28L45.3,659.72L46.71,655.79L48.13,654.87L49.54,652.9L50.96,643.73L52.38,648.32L53.79,646.22L55.21,638.35L56.62,620L58.04,631.93L59.45,610.16L60.87,613.44L62.28,605.45L63.7,616.85L65.11,612.52L66.53,625.5L67.95,616.33L69.36,593.91L70.78,602.69L72.19,603.35L73.61,612.13L75.02,613.44L76.44,610.82L77.85,602.69L79.27,601.25L80.69,598.63L82.1,592.07L83.52,602.43L84.93,591.55L86.35,586.57L89.18,599.15L90.59,582.9L92.01,582.11L93.43,603.61L94.84,608.72L96.26,610.43L97.67,597.19L99.09,620.52L100.5,605.84L101.92,610.82L103.33,599.02L104.75,609.12L106.17,617.51L107.58,615.28L109,612L110.41,613.7L111.83,603.48L113.24,620.65L114.66,627.47L116.07,625.64L117.49,618.69L118.91,622.88L120.32,620.78L121.74,621.31L123.15,614.75L124.57,621.44L125.98,626.16L127.4,610.03L128.81,614.88L130.23,611.87L131.65,608.2L133.06,612L134.48,605.71L135.89,613.05L137.31,628.39L138.72,627.73L140.14,615.8L141.55,620.92L142.97,623.67L144.39,623.28L147.22,607.54L148.63,621.7L150.05,619.34L151.46,620.92L152.88,606.36L154.29,611.61L155.71,634.16L157.13,635.86L158.54,633.11L159.96,639.4L161.37,642.15L162.79,631.14L164.2,640.19L165.62,642.29L168.45,641.11L169.86,643.33L171.28,642.68L172.7,639.01L175.53,644.91L176.94,637.7L178.36,644.64L179.77,641.24L181.19,651.46L182.6,645.04L184.02,642.68L185.44,632.32L186.85,645.43L188.27,646.48L189.68,645.96L191.1,644.38L192.51,650.15L193.93,647.92L195.34,645.82L196.76,651.33L198.18,650.54L199.59,643.73L201.01,650.81L202.42,648.97L203.84,649.1L205.25,650.81L208.08,652.64L209.5,651.46L210.92,651.46L212.33,644.25L213.75,644.51L215.16,648.32L216.58,639.4L217.99,644.38L219.41,652.51L220.82,640.45L222.24,647.92L223.66,648.05L226.49,651.46L227.9,656.05L229.32,654.35L230.73,648.45L233.56,650.81L234.98,654.48L236.4,654.08L237.81,654.74L239.23,653.56L240.64,654.48L242.06,656.84L243.47,655.66L244.89,650.94L246.3,661.69L247.72,653.56L249.14,655.79L251.97,652.12L253.38,655.4L256.21,649.63L257.63,652.64L259.04,656.05L260.46,648.84L261.88,651.86L263.29,650.94L267.54,654.48L268.95,650.54L270.37,650.02L271.78,646.61L273.2,651.33L274.61,651.07L276.03,651.33L277.45,648.58L278.86,648.71L280.28,646.61L281.69,643.86L283.11,645.3L284.52,641.11L285.94,641.76L287.35,646.48L288.77,643.73L290.19,638.09L291.6,635.6L293.02,639.27L294.43,624.98L295.85,633.11L297.26,624.72L298.68,627.6L300.09,613.44L301.51,612.66L302.93,618.16L305.76,603.35L307.17,622.1L308.59,612.39L310,612.39L311.42,608.99L312.83,601.64L314.25,574.24L315.67,593.38L317.08,584.08L318.5,595.48L319.91,570.05L321.33,580.4L322.74,591.81L324.16,585.39L325.57,594.17L326.99,589.58L329.82,542.91L331.24,559.95L332.65,580.93L334.07,560.21L335.48,568.21L336.9,571.49L338.31,563.36L339.73,572.67L341.15,560.48L342.56,579.75L343.98,573.72L345.39,558.38L346.81,562.44L348.22,555.76L349.64,557.72L351.05,537.8L352.47,529.41L353.89,554.45L355.3,557.59L356.72,556.68L358.13,543.56L359.55,548.55L360.96,532.95L362.38,537.93L363.79,541.73L365.21,528.36L366.63,536.62L368.04,535.17L369.46,534.52L370.87,517.61L372.29,491.91L373.7,503.19L375.12,484.04L376.53,479.06L377.95,459.53L379.36,483L380.78,458.74L382.2,502.4L383.61,471.07L385.03,502.27L386.44,480.24L387.86,507.38L390.69,457.82L392.1,464.9L393.52,457.69L394.94,533.73L396.35,486.01L397.77,472.25L399.18,422.82L400.6,427.15L402.01,442.09L403.43,437.11L404.84,442.22L406.26,440.13L407.68,426.88L409.09,432.65L411.92,413.77L413.34,413.64L414.75,446.29L416.17,418.23L417.58,406.04L419,423.74L420.42,420.46L421.83,446.16L424.66,367.76L426.08,385.59L427.49,347.17L428.91,365.79L430.32,357.01L431.74,362.38L433.16,387.68L434.57,377.33L435.99,350.32L437.4,345.21L438.82,382.96L440.23,385.19L443.06,411.81L444.48,331.31L447.31,229.71L448.73,341.41L450.14,225.12L451.56,277.43L452.97,237.31L454.39,255.93L455.8,237.83L457.22,204.67L458.64,108.96L460.05,214.63L461.47,148.82L462.88,228.39L464.3,285.42L465.71,277.82L467.13,229.97L468.54,272.97L469.96,265.37L471.38,217.38L474.21,415.22L475.62,317.94L477.04,320.95L478.45,317.02L479.87,356.74L481.28,349.14L484.11,437.9L485.53,447.07L486.95,391.62L488.36,425.18L489.78,395.55L491.19,423.74L492.61,407.87L494.02,568.34L496.85,461.1L498.27,447.07L499.69,484.04L501.1,470.8L503.93,532.03L505.35,525.47L506.76,542.12L508.18,524.95L509.59,495.58L511.01,537.4L512.43,539.63L513.84,547.5L515.26,554.97L516.67,529.93L519.5,505.02L520.92,523.51L522.33,527.31L523.75,538.19L526.58,516.82L528,501.09L529.41,510.66L530.83,526.78L533.66,539.37L535.07,540.42L536.49,535.7L537.91,502.14L539.32,536.22L540.74,495.71L542.15,452.19L543.57,510.66L544.98,493.48L546.4,522.85L547.81,486.27L549.23,473.56L550.65,436.98L552.06,499.78L553.48,525.21L554.89,468.31L556.31,462.41L557.72,437.24L559.14,426.23L560.55,431.21L561.97,443.27L563.39,463.33L564.8,460.05L566.22,353.99L567.63,381.65L569.05,344.42L570.46,345.08L571.88,391.49L573.29,359.76L574.71,360.15L576.13,330.79L577.54,261.04L578.96,271.53L580.37,267.33L581.79,280.84L583.2,264.19L586.03,234.03L587.45,111.84L588.86,166.12L590.28,81.82L591.7,89.03L593.11,184.87L595.94,45.11L597.36,35.15L598.77,94.15L600.19,108.83L601.6,83L603.02,211.22L604.44,113.81L605.85,183.3L607.27,75.4L608.68,129.28L610.1,148.55L611.51,205.85L612.93,237.97L614.34,209.78L615.76,158.52L617.18,156.42L618.59,224.33L620.01,176.74L621.42,215.55L622.84,300.11L624.25,280.44L625.67,217.12L628.5,290.54L629.92,244.39L632.75,394.24L634.16,361.86L635.58,304.3L636.99,356.35L638.41,327.25L639.82,377.72L641.24,381.52L642.66,454.15L644.07,457.82L645.49,351.37L646.9,418.23L648.32,430.82L649.73,444.32L651.15,476.44L652.56,529.8L653.98,522.46L655.4,517.21L656.81,499.12L658.23,527.44L659.64,530.59L661.06,545.92L662.47,574.37L663.89,569.92L665.3,551.96L666.72,546.19L668.14,568.47L669.55,579.09L670.97,597.19L673.8,612.13L675.21,588.66L676.63,590.76L678.04,600.2L679.46,596.53L680.88,607.41L682.29,627.21L683.71,615.67L685.12,617.51L686.54,620.78L687.95,619.47L689.37,624.32L690.78,630.62L692.2,627.21L693.61,632.58L695.03,627.21L696.45,632.45L697.86,620.65L700.69,638.48L702.11,626.81L703.52,641.89L704.94,628.78L706.35,639.79L707.77,638.61L709.19,638.09L710.6,643.73L712.02,634.03L713.43,640.58L714.85,638.48L716.26,642.02L717.68,642.55L719.09,644.25L720.51,651.07L721.93,646.87L723.34,645.96L724.76,647.27L727.59,642.94L729,642.81L730.42,648.97L731.83,649.36L733.25,648.32L734.67,641.76L736.08,640.84L737.5,643.73L738.91,643.46L740.33,650.41L741.74,649.1L743.16,645.3L744.57,637.43L745.99,636.39L747.41,632.19L748.82,637.43L750.24,643.99L751.65,644.51L753.07,647.79L754.48,638.09L755.9,621.44L757.31,616.46L758.73,610.56L760.15,623.41L761.56,623.93L762.98,623.54L764.39,598.76L765.81,599.15L767.22,590.24L768.64,599.02L770.05,597.05L771.47,620.39L772.89,602.43L774.3,596.4L775.72,580.8L777.13,575.69L778.55,571.36L779.96,582.24L781.38,602.3L782.79,579.49L784.21,577.13L785.63,563.62L787.04,556.54L788.46,569L789.87,575.03L791.29,597.19L792.7,580.01L794.12,552.61L795.53,560.21L796.95,542.25L798.36,559.69L799.78,589.84L802.61,593.38L804.03,561.39L805.44,554.84L806.86,553.66L808.27,563.23L809.69,587.35L811.1,590.37L812.52,588.27L813.94,552.74L815.35,561.79L816.77,558.38L818.18,572.28L819.6,586.04L821.01,590.76L822.43,605.31L823.84,577.26L825.26,570.7L826.68,582.11L828.09,580.4L829.51,585.65L830.92,604.92L832.34,601.12L833.75,581.19L835.17,578.44L836.58,573.72L838,589.98" style="vector-effect: non-scaling-stroke; fill: none; stroke: rgb(31, 119, 180); stroke-opacity: 1; stroke-width: 2px; opacity: 1;"/></g><g class="points"/><g class="text"/></g><g class="trace scatter trace750157" style="stroke-miterlimit: 2; opacity: 1;"><g class="fills"/><g class="errorbars"/><g class="lines"><path class="js-line" d="M4.25,665.75L21.23,666.01L0,666.28L2.83,666.01L5.66,666.01L9.91,666.01L15.57,666.01L55.21,666.01L56.62,610.56L58.04,652.51L59.45,647.66L60.87,645.43L62.28,640.84L63.7,640.32L65.11,635.86L66.53,643.07L67.95,642.68L69.36,630.35L70.78,635.73L72.19,630.75L73.61,628.78L77.85,638.35L79.27,622.23L80.69,627.73L82.1,618.56L83.52,624.19L84.93,622.23L87.76,627.86L89.18,611.61L90.59,605.84L92.01,612.66L93.43,610.69L94.84,601.64L96.26,597.19L97.67,608.46L99.09,581.06L100.5,588.27L101.92,584.73L103.33,591.94L104.75,585.39L106.17,600.46L107.58,630.09L109,607.94L110.41,620.52L111.83,610.82L113.24,614.49L114.66,615.02L116.07,618.95L117.49,631.93L118.91,606.49L120.32,618.95L121.74,608.72L123.15,616.33L124.57,621.44L125.98,629.57L127.4,631.93L128.81,627.73L130.23,624.19L131.65,632.19L133.06,616.33L134.48,622.62L135.89,637.04L137.31,631.93L138.72,611.74L140.14,626.55L141.55,625.37L142.97,617.51L144.39,606.1L145.8,621.05L148.63,623.14L150.05,613.97L152.88,618.29L154.29,626.03L155.71,634.55L157.13,621.83L158.54,593.78L159.96,599.81L161.37,626.42L162.79,620L164.2,610.56L165.62,632.98L167.03,637.43L168.45,619.74L169.86,637.17L171.28,633.76L172.7,637.43L174.11,633.11L176.94,643.2L178.36,635.99L179.77,640.84L181.19,636.39L182.6,642.68L184.02,643.07L185.44,654.35L186.85,646.61L189.68,639.27L191.1,642.55L192.51,643.2L193.93,642.02L195.34,645.04L196.76,642.81L198.18,639.53L199.59,643.46L201.01,642.68L202.42,631.01L203.84,651.33L205.25,649.1L206.67,650.02L208.08,648.32L209.5,647.53L210.92,652.77L212.33,648.71L213.75,651.2L215.16,652.12L216.58,653.95L217.99,638.88L219.41,646.22L220.82,648.05L222.24,647.66L225.07,652.64L226.49,652.12L227.9,643.2L229.32,644.38L230.73,643.99L232.15,644.64L233.56,650.02L234.98,649.5L236.4,650.81L237.81,646.87L239.23,645.17L240.64,650.54L242.06,651.99L243.47,646.61L246.3,656.18L247.72,648.45L250.55,655.13L251.97,652.77L253.38,655.53L254.8,655.13L256.21,654.22L257.63,654.35L259.04,656.05L260.46,652.12L261.88,654.22L263.29,651.86L264.71,655.79L266.12,656.18L267.54,650.94L268.95,655.92L270.37,655.13L271.78,652.51L273.2,655.79L274.61,656.44L276.03,653.95L277.45,648.05L278.86,650.41L280.28,650.81L281.69,652.12L283.11,651.46L284.52,650.41L285.94,650.41L287.35,648.18L288.77,647.4L290.19,649.76L291.6,650.41L294.43,648.58L295.85,650.68L298.68,642.55L300.09,642.94L301.51,642.81L302.93,640.97L304.34,642.68L305.76,640.32L307.17,632.19L308.59,628.52L310,628.91L311.42,621.7L312.83,628.13L314.25,622.62L315.67,623.67L317.08,606.1L318.5,598.5L319.91,609.9L321.33,608.99L322.74,596.01L325.57,594.43L326.99,573.33L328.41,574.9L329.82,571.1L331.24,574.24L332.65,573.59L335.48,584.21L336.9,563.36L338.31,563.89L339.73,572.54L341.15,576.6L342.56,576.21L343.98,586.44L345.39,583.68L346.81,571.75L348.22,568.87L349.64,569.92L351.05,584.08L352.47,569.52L353.89,577L355.3,575.42L356.72,564.67L358.13,558.51L359.55,561.66L360.96,561.39L362.38,552.74L363.79,557.72L365.21,556.28L366.63,542.12L368.04,541.73L369.46,541.6L370.87,554.32L372.29,551.04L373.7,558.38L375.12,563.62L376.53,549.86L377.95,545.79L379.36,532.55L380.78,534.52L382.2,526.78L383.61,535.96L385.03,517.21L386.44,470.02L387.86,485.62L389.27,480.5L390.69,487.32L393.52,471.46L394.94,524.16L396.35,472.51L397.77,487.06L400.6,468.05L402.01,476.83L403.43,492.96L404.84,486.01L406.26,444.98L407.68,463.99L409.09,462.41L410.51,453.1L411.92,459.66L413.34,480.9L414.75,462.94L416.17,413.77L417.58,429.51L419,436.19L420.42,414.56L421.83,446.02L423.25,464.77L424.66,428.72L426.08,398.17L427.49,402.63L428.91,404.86L430.32,421.51L431.74,412.86L433.16,449.17L435.99,371.95L437.4,402.11L438.82,372.74L440.23,415.22L441.65,403.15L443.06,384.01L444.48,373.26L445.9,372.74L447.31,375.89L448.73,343.5L450.14,396.73L451.56,380.87L454.39,401.84L455.8,272.05L457.22,302.07L458.64,307.06L460.05,283.85L461.47,338.78L462.88,304.7L464.3,226.43L465.71,221.32L467.13,194.96L469.96,244.91L471.38,262.48L472.79,295.52L474.21,289.36L475.62,179.1L477.04,274.02L478.45,223.54L479.87,269.43L484.11,369.59L485.53,308.76L486.95,339.44L488.36,285.82L492.61,386.5L494.02,364.87L495.44,437.24L496.85,409.58L498.27,373.26L499.69,430.55L501.1,412.07L502.52,443.14L503.93,484.04L505.35,441.96L506.76,489.81L508.18,480.5L509.59,478.01L511.01,504.1L513.84,520.23L515.26,475.13L516.67,498.6L518.09,501.48L519.5,493.88L520.92,516.56L523.75,534.65L525.17,496.76L526.58,522.59L528,533.99L529.41,537.01L530.83,531.11L532.24,542.91L533.66,537.67L535.07,523.11L536.49,525.47L537.91,514.07L539.32,514.98L540.74,521.15L542.15,535.7L543.57,538.58L544.98,507.12L546.4,520.49L547.81,518.66L550.65,513.02L552.06,519.97L553.48,523.77L554.89,470.93L556.31,503.97L557.72,496.11L559.14,500.69L560.55,488.63L561.97,511.97L563.39,499.38L564.8,465.3L566.22,491.78L567.63,446.42L569.05,471.85L570.46,463.72L571.88,466.21L573.29,472.38L574.71,407.35L576.13,428.19L577.54,413.64L578.96,427.54L580.37,417.05L581.79,435.14L583.2,406.96L584.62,350.45L586.03,328.29L587.45,319.77L588.86,348.48L590.28,322.92L591.7,345.47L593.11,328.69L594.53,251.73L595.94,249.9L597.36,252.91L598.77,192.6L600.19,228.39L601.6,252.65L603.02,224.33L605.85,63.34L607.27,50.1L608.68,98.08L610.1,110.27L612.93,153.67L614.34,73.83L615.76,109.49L617.18,109.88L618.59,146.32L620.01,148.55L622.84,230.36L624.25,94.28L625.67,142L627.08,157.99L628.5,194.57L629.92,187.1L631.33,258.29L632.75,286.08L634.16,210.17L635.58,213.06L636.99,206.89L638.41,264.45L639.82,262.35L641.24,278.87L642.66,338L644.07,257.11L645.49,303.78L646.9,313.48L648.32,335.64L649.73,343.76L651.15,394.37L652.56,401.45L653.98,355.17L655.4,364.22L656.81,356.35L658.23,396.34L659.64,395.03L661.06,442.22L662.47,460.45L663.89,438.81L668.14,503.19L669.55,505.81L670.97,542.65L672.38,533.6L673.8,543.83L675.21,542.91L676.63,554.58L678.04,557.2L680.88,578.18L682.29,581.45L683.71,571.36L685.12,582.76L686.54,584.21L687.95,589.84L689.37,599.94L690.78,602.3L692.2,608.07L693.61,605.71L696.45,627.6L697.86,600.07L699.28,616.33L700.69,623.28L702.11,617.38L703.52,623.8L704.94,632.32L706.35,629.17L707.77,631.67L709.19,628.52L710.6,635.47L712.02,624.19L713.43,635.07L714.85,635.73L716.26,635.47L717.68,637.43L719.09,629.57L720.51,653.43L721.93,639.66L723.34,637.7L724.76,643.99L726.17,641.24L727.59,639.4L729,644.25L730.42,645.96L731.83,649.5L733.25,646.22L734.67,646.48L738.91,647.14L740.33,648.05L743.16,643.6L744.57,643.86L747.41,648.05L748.82,645.69L750.24,649.1L751.65,646.22L753.07,645.69L754.48,642.02L755.9,646.48L757.31,640.97L758.73,635.6L760.15,640.84L762.98,639.27L764.39,632.45L765.81,631.4L767.22,631.93L768.64,630.62L770.05,623.93L771.47,629.31L772.89,620.78L774.3,621.7L775.72,607.81L777.13,603.74L778.55,614.75L779.96,600.2L781.38,595.09L782.79,591.02L784.21,598.76L785.63,584.08L787.04,590.63L789.87,595.22L791.29,576.86L792.7,580.8L794.12,576.73L795.53,569.26L796.95,570.57L798.36,590.89L799.78,572.15L801.2,575.82L802.61,565.07L805.44,565.07L806.86,566.9L808.27,569.26L809.69,583.81L812.52,567.03L813.94,578.44L815.35,576.86L816.77,580.14L818.18,573.19L819.6,583.68L821.01,565.85L822.43,563.36L823.84,577.39L825.26,559.3L826.68,561.92L828.09,582.24L829.51,590.24L830.92,558.64L835.17,582.76L836.58,581.45L838,585.26" style="vector-effect: non-scaling-stroke; fill: none; stroke: rgb(255, 127, 14); stroke-opacity: 1; stroke-width: 2px; opacity: 1;"/></g><g class="points"/><g class="text"/></g><g class="trace scatter trace25ed4f" style="stroke-miterlimit: 2; opacity: 1;"><g class="fills"/><g class="errorbars"/><g class="lines"><path class="js-line" d="M4.25,666.01L21.23,666.01" style="vector-effect: non-scaling-stroke; fill: none; stroke: rgb(44, 160, 44); stroke-opacity: 1; stroke-width: 2px; opacity: 1;"/><path class="js-line" d="M39.64,666.01L49.54,665.36L50.96,665.75L55.21,665.49L56.62,666.01L58.04,664.7L59.45,665.49L60.87,663.92L62.28,664.18L63.7,662.47L65.11,662.74L66.53,664.31L67.95,663.26L72.19,663.13L73.61,661.95L76.44,663.79L77.85,660.38L79.27,659.33L80.69,661.03L82.1,658.8L83.52,661.29L84.93,660.9L86.35,661.95L87.76,661.03L89.18,661.16L90.59,658.94L92.01,659.46L93.43,659.72L94.84,662.87L96.26,658.54L97.67,658.28L99.09,660.11L100.5,654.74L101.92,660.9L103.33,658.8L104.75,660.77L106.17,655L107.58,658.02L109,657.1L110.41,659.72L111.83,657.76L113.24,658.28L114.66,661.43L116.07,661.43L117.49,658.67L120.32,661.69L121.74,662.47L123.15,661.69L124.57,663L125.98,663L127.4,664.05L128.81,660.38L130.23,661.95L134.48,662.74L135.89,662.21L137.31,663.26L138.72,661.82L141.55,660.64L142.97,663.79L144.39,663.52L145.8,664.7L148.63,663.52L150.05,660.11L151.46,664.05L152.88,661.43L154.29,663.52L155.71,662.87L158.54,664.57L159.96,664.44L167.03,664.57L168.45,664.44L169.86,665.62L171.28,664.57L172.7,661.95L174.11,664.57L175.53,665.62L176.94,664.7L179.77,664.7L181.19,665.62L182.6,664.97L184.02,665.23L188.27,665.49L189.68,665.49L195.34,666.01L196.76,665.75L198.18,664.83L199.59,665.62L202.42,665.23L203.84,665.62L206.67,665.88L208.08,664.83L209.5,665.36L210.92,664.83L212.33,665.75L213.75,665.62L219.41,666.01L220.82,665.62L225.07,665.88L226.49,665.49L229.32,665.62L230.73,665.62L240.64,666.01L242.06,665.88L247.72,665.88L249.14,666.01L256.21,665.49L257.63,666.15L261.88,665.88L263.29,666.01L270.37,665.23L271.78,666.01L278.86,666.01L280.28,666.15L288.77,665.88L290.19,666.15L295.85,665.49L297.26,665.75L305.76,665.62L307.17,665.62L311.42,666.01L312.83,665.75L318.5,665.62L319.91,656.05L322.74,665.1L324.16,665.36L325.57,665.1L326.99,665.88L331.24,665.1L332.65,665.88L335.48,664.83L336.9,666.01L341.15,664.7L342.56,665.36L345.39,665.62L346.81,664.83L356.72,665.36L358.13,664.7L363.79,665.1L365.21,664.18L368.04,664.31L369.46,664.18L372.29,664.31L373.7,664.44L379.36,663.52L380.78,663.39L382.2,662.21L383.61,664.7L385.03,664.44L386.44,661.82L387.86,662.34L389.27,664.97L390.69,663.26L392.1,664.18L393.52,663.52L394.94,664.18L396.35,661.43L397.77,663.26L399.18,663.39L400.6,662.21L402.01,662.87L403.43,664.97L404.84,665.1L406.26,661.43L407.68,664.18L409.09,662.74L411.92,664.05L413.34,662.61L414.75,664.7L416.17,662.34L419,660.11L420.42,663.79L421.83,663.92L423.25,663L424.66,663.39L426.08,660.38L427.49,663L428.91,660.77L430.32,662.47L431.74,662.74L433.16,663.79L434.57,663.26L437.4,659.59L438.82,660.38L440.23,661.03L441.65,663.65L443.06,661.16L444.48,660.64L445.9,663.52L447.31,658.67L450.14,660.25L451.56,662.74L452.97,662.21L454.39,659.33L455.8,661.16L457.22,654.35L458.64,662.61L460.05,660.77L461.47,658.02L462.88,662.21L464.3,660.64L465.71,656.31L467.13,657.89L468.54,652.9L469.96,659.33L471.38,656.97L472.79,662.87L474.21,659.98L475.62,654.35L477.04,659.98L478.45,654.61L479.87,659.2L482.7,660.38L484.11,657.76L485.53,659.59L486.95,658.67L488.36,658.41L489.78,656.44L491.19,660.38L492.61,661.29L494.02,664.18L495.44,657.23L496.85,654.48L498.27,660.11L499.69,660.11L501.1,663.13L502.52,661.69L503.93,663.79L505.35,660.64L506.76,663.65L509.59,663.52L511.01,660.51L512.43,664.31L513.84,664.31L515.26,664.7L516.67,660.25L518.09,659.85L519.5,662.34L520.92,664.31L522.33,664.57L525.17,664.83L526.58,663L528,662.34L529.41,663.92L530.83,663.39L532.24,665.23L535.07,663.79L536.49,664.7L537.91,663.13L539.32,665.23L540.74,664.05L542.15,664.7L543.57,665.23L544.98,663.92L546.4,664.7L547.81,663.65L549.23,664.57L550.65,664.05L552.06,664.83L553.48,664.57L556.31,664.05L557.72,664.7L559.14,664.57L560.55,663.65L561.97,665.62L563.39,664.83L564.8,664.7L566.22,663.79L567.63,664.44L569.05,663.92L570.46,663.52L571.88,664.7L577.54,663L578.96,663.92L583.2,664.97L584.62,663.79L590.28,663.26L591.7,664.05L593.11,664.05L594.53,662.34L597.36,662.74L598.77,661.56L600.19,663.65L601.6,663.52L603.02,663.13L604.44,661.82L605.85,660.77L607.27,661.56L608.68,662.87L610.1,662.87L614.34,662.87L615.76,660.64L617.18,663.26L618.59,662.21L621.42,663.92L622.84,662.74L624.25,660.25L625.67,662.61L628.5,662.74L629.92,659.85L631.33,663.52L632.75,664.05L634.16,661.82L635.58,661.95L638.41,662.87L639.82,662.08L641.24,665.49L642.66,663.79L644.07,663.52L645.49,662.47L646.9,662.47L648.32,663.39L651.15,664.97L652.56,661.69L655.4,663.52L656.81,664.18L659.64,663.65L661.06,664.31L662.47,664.83L663.89,662.74L665.3,664.7L666.72,663.52L668.14,662.87L669.55,664.7L672.38,663.65L673.8,661.69L675.21,664.57L676.63,665.49L678.04,664.05L679.46,665.1L680.88,665.49L682.29,664.31L685.12,665.1L686.54,665.88L687.95,664.31L689.37,664.44L690.78,665.62L692.2,658.15L693.61,664.57L695.03,665.23L696.45,665.75L697.86,664.31L699.28,664.44L700.69,665.62L702.11,662.74L703.52,664.18L704.94,663.52L706.35,664.83L709.19,664.83L710.6,665.88L712.02,664.83L713.43,666.01L717.68,664.97L719.09,665.23L720.51,666.01L721.93,665.1L726.17,664.7L727.59,665.62L729,665.23L730.42,666.01L734.67,665.1L736.08,665.88L741.74,665.36L743.16,665.49L744.57,665.62L745.99,664.57L750.24,665.88L751.65,665.88L754.48,664.18L755.9,663.65L758.73,665.23L760.15,666.01L762.98,665.62L764.39,666.01L767.22,665.75L768.64,666.01L770.05,666.01L771.47,664.7L772.89,665.62L774.3,663.79L775.72,665.75L777.13,665.88L779.96,666.01L781.38,663.65L782.79,665.88L784.21,666.01L785.63,663.79L787.04,665.1L789.87,666.01L791.29,665.36L794.12,664.18L795.53,665.23L796.95,664.83L798.36,665.62L801.2,665.62L802.61,663.92L804.03,664.7L805.44,664.57L806.86,664.05L808.27,665.23L815.35,665.36L816.77,664.7L819.6,665.75L821.01,664.97L823.84,665.1L825.26,664.57L828.09,665.23L829.51,666.01L830.92,664.57L832.34,664.97L836.58,665.1L838,665.75" style="vector-effect: non-scaling-stroke; fill: none; stroke: rgb(44, 160, 44); stroke-opacity: 1; stroke-width: 2px; opacity: 1;"/></g><g class="points"/><g class="text"/></g></g></g><g class="overplot"/><path class="xlines-above crisp" style="fill: none;" d="M0,0"/><path class="ylines-above crisp" style="fill: none;" d="M0,0"/><g class="overlines-above"/><g class="xaxislayer-above"><g class="xtick"><text text-anchor="middle" x="0" y="741" transform="translate(76.99,0)" style="font-family: 'Open Sans', verdana, arial, sans-serif; font-size: 12px; fill: rgb(68, 68, 68); fill-opacity: 1; white-space: pre;">Mar 2020</text></g><g class="xtick"><text text-anchor="middle" x="0" y="741" transform="translate(163.32999999999998,0)" style="font-family: 'Open Sans', verdana, arial, sans-serif; font-size: 12px; fill: rgb(68, 68, 68); fill-opacity: 1; white-space: pre;">May 2020</text></g><g class="xtick"><text text-anchor="middle" x="0" y="741" transform="translate(249.68,0)" style="font-family: 'Open Sans', verdana, arial, sans-serif; font-size: 12px; fill: rgb(68, 68, 68); fill-opacity: 1; white-space: pre;">Jul 2020</text></g><g class="xtick"><text text-anchor="middle" x="0" y="741" transform="translate(337.45,0)" style="font-family: 'Open Sans', verdana, arial, sans-serif; font-size: 12px; fill: rgb(68, 68, 68); fill-opacity: 1; white-space: pre;">Sep 2020</text></g><g class="xtick"><text text-anchor="middle" x="0" y="741" transform="translate(423.79,0)" style="font-family: 'Open Sans', verdana, arial, sans-serif; font-size: 12px; fill: rgb(68, 68, 68); fill-opacity: 1; white-space: pre;">Nov 2020</text></g><g class="xtick"><text text-anchor="middle" x="0" y="741" transform="translate(510.14,0)" style="font-family: 'Open Sans', verdana, arial, sans-serif; font-size: 12px; fill: rgb(68, 68, 68); fill-opacity: 1; white-space: pre;">Jan 2021</text></g><g class="xtick"><text text-anchor="middle" x="0" y="741" transform="translate(593.66,0)" style="font-family: 'Open Sans', verdana, arial, sans-serif; font-size: 12px; fill: rgb(68, 68, 68); fill-opacity: 1; white-space: pre;">Mar 2021</text></g><g class="xtick"><text text-anchor="middle" x="0" y="741" transform="translate(680.01,0)" style="font-family: 'Open Sans', verdana, arial, sans-serif; font-size: 12px; fill: rgb(68, 68, 68); fill-opacity: 1; white-space: pre;">May 2021</text></g><g class="xtick"><text text-anchor="middle" x="0" y="741" transform="translate(766.35,0)" style="font-family: 'Open Sans', verdana, arial, sans-serif; font-size: 12px; fill: rgb(68, 68, 68); fill-opacity: 1; white-space: pre;">Jul 2021</text></g><g class="xtick"><text text-anchor="middle" x="0" y="741" transform="translate(854.12,0)" style="font-family: 'Open Sans', verdana, arial, sans-serif; font-size: 12px; fill: rgb(68, 68, 68); fill-opacity: 1; white-space: pre;">Sep 2021</text></g></g><g class="yaxislayer-above"><g class="ytick"><text text-anchor="end" x="59" y="4.199999999999999" transform="translate(0,691.01)" style="font-family: 'Open Sans', verdana, arial, sans-serif; font-size: 12px; fill: rgb(68, 68, 68); fill-opacity: 1; white-space: pre;">0</text></g><g class="ytick"><text text-anchor="end" x="59" y="4.199999999999999" transform="translate(0,559.91)" style="font-family: 'Open Sans', verdana, arial, sans-serif; font-size: 12px; fill: rgb(68, 68, 68); fill-opacity: 1; white-space: pre;">1000</text></g><g class="ytick"><text text-anchor="end" x="59" y="4.199999999999999" transform="translate(0,428.81)" style="font-family: 'Open Sans', verdana, arial, sans-serif; font-size: 12px; fill: rgb(68, 68, 68); fill-opacity: 1; white-space: pre;">2000</text></g><g class="ytick"><text text-anchor="end" x="59" y="4.199999999999999" transform="translate(0,297.71)" style="font-family: 'Open Sans', verdana, arial, sans-serif; font-size: 12px; fill: rgb(68, 68, 68); fill-opacity: 1; white-space: pre;">3000</text></g><g class="ytick"><text text-anchor="end" x="59" y="4.199999999999999" transform="translate(0,166.61)" style="font-family: 'Open Sans', verdana, arial, sans-serif; font-size: 12px; fill: rgb(68, 68, 68); fill-opacity: 1; white-space: pre;">4000</text></g><g class="ytick"><text text-anchor="end" x="59" y="4.199999999999999" transform="translate(0,35.5)" style="font-family: 'Open Sans', verdana, arial, sans-serif; font-size: 12px; fill: rgb(68, 68, 68); fill-opacity: 1; white-space: pre;">5000</text></g></g><g class="overaxes-above"/></g></g><g class="polarlayer"/><g class="ternarylayer"/><g class="geolayer"/><g class="funnelarealayer"/><g class="pielayer"/><g class="treemaplayer"/><g class="sunburstlayer"/><g class="glimages"/><defs id="topdefs-6fffb4"><g class="clips"/><clipPath id="legend6fffb4"><rect width="102" height="67" x="0" y="0"/></clipPath></defs><g class="layer-above"><g class="imagelayer"/><g class="shapelayer"/></g><g class="infolayer"><g class="legend" pointer-events="all" transform="translate(914.76, 25)"><rect class="bg" shape-rendering="crispEdges" style="stroke: rgb(68, 68, 68); stroke-opacity: 1; fill: rgb(255, 255, 255); fill-opacity: 1; stroke-width: 0px;" width="102" height="67" x="0" y="0"/><g class="scrollbox" transform="translate(0, 0)" clip-path="url('#legend6fffb4')"><g class="groups"><g class="traces" style="opacity: 1;" transform="translate(0, 14.5)"><text class="legendtext" text-anchor="start" x="40" y="4.680000000000001" style="font-family: 'Open Sans', verdana, arial, sans-serif; font-size: 12px; fill: rgb(68, 68, 68); fill-opacity: 1; white-space: pre;">positive</text><g class="layers" style="opacity: 1;"><g class="legendfill"/><g class="legendlines"><path class="js-line" d="M5,0h30" style="fill: none; stroke: rgb(31, 119, 180); stroke-opacity: 1; stroke-width: 2px;"/></g><g class="legendsymbols"><g class="legendpoints"/></g></g><rect class="legendtoggle" x="0" y="-9.5" width="96.109375" height="19" style="fill: rgb(0, 0, 0); fill-opacity: 0;"/></g><g class="traces" style="opacity: 1;" transform="translate(0, 33.5)"><text class="legendtext" text-anchor="start" x="40" y="4.680000000000001" style="font-family: 'Open Sans', verdana, arial, sans-serif; font-size: 12px; fill: rgb(68, 68, 68); fill-opacity: 1; white-space: pre;">resolved</text><g class="layers" style="opacity: 1;"><g class="legendfill"/><g class="legendlines"><path class="js-line" d="M5,0h30" style="fill: none; stroke: rgb(255, 127, 14); stroke-opacity: 1; stroke-width: 2px;"/></g><g class="legendsymbols"><g class="legendpoints"/></g></g><rect class="legendtoggle" x="0" y="-9.5" width="96.109375" height="19" style="fill: rgb(0, 0, 0); fill-opacity: 0;"/></g><g class="traces" style="opacity: 1;" transform="translate(0, 52.5)"><text class="legendtext" text-anchor="start" x="40" y="4.680000000000001" style="font-family: 'Open Sans', verdana, arial, sans-serif; font-size: 12px; fill: rgb(68, 68, 68); fill-opacity: 1; white-space: pre;">deceased</text><g class="layers" style="opacity: 1;"><g class="legendfill"/><g class="legendlines"><path class="js-line" d="M5,0h30" style="fill: none; stroke: rgb(44, 160, 44); stroke-opacity: 1; stroke-width: 2px;"/></g><g class="legendsymbols"><g class="legendpoints"/></g></g><rect class="legendtoggle" x="0" y="-9.5" width="96.109375" height="19" style="fill: rgb(0, 0, 0); fill-opacity: 0;"/></g></g></g><rect class="scrollbar" rx="20" ry="3" width="0" height="0" style="fill: rgb(128, 139, 164); fill-opacity: 1;" x="0" y="0"/></g><g class="g-gtitle"><text class="gtitle" x="513.5" y="12.5" text-anchor="middle" dy="0em" style="font-family: 'Open Sans', verdana, arial, sans-serif; font-size: 17px; fill: rgb(68, 68, 68); opacity: 1; font-weight: normal; white-space: pre;">Dynamics of new cases, resolved cases and deaths in Ontario (Oct 03, 2021)</text></g><g class="g-xtitle" transform="translate(0,-15)"><text class="xtitle" x="479" y="780" text-anchor="middle" style="font-family: 'Open Sans', verdana, arial, sans-serif; font-size: 14px; fill: rgb(68, 68, 68); opacity: 1; font-weight: normal; white-space: pre;">Date</text></g><g class="g-ytitle"><text class="ytitle" transform="rotate(-90,22,376.5)" x="22" y="376.5" text-anchor="middle" style="font-family: 'Open Sans', verdana, arial, sans-serif; font-size: 14px; fill: rgb(68, 68, 68); opacity: 1; font-weight: normal; white-space: pre;">Number of cases</text></g></g></svg>