<svg class="main-svg" xmlns="http://www.w3.org/2000/svg" xmlns:xlink="http://www.w3.org/1999/xlink" width="1027" height="768" style="" viewBox="0 0 1027 768"><rect x="0" y="0" width="1027" height="768" style="fill: rgb(255, 255, 255); fill-opacity: 1;"/><defs id="defs-92ff08"><g class="clips"><clipPath id="clip92ff08xyplot" class="plotclip"><rect width="838" height="703"/></clipPath><clipPath class="axesclip" id="clip92ff08x"><rect x="60" y="0" width="838" height="768"/></clipPath><clipPath class="axesclip" id="clip92ff08y"><rect x="0" y="25" width="1027" height="703"/></clipPath><clipPath class="axesclip" id="clip92ff08xy"><rect x="60" y="25" width="838" height="703"/></clipPath></g><g class="gradients"/></defs><g class="bglayer"/><g class="layer-below"><g class="imagelayer"/><g class="shapelayer"/></g><g class="cartesianlayer"><g class="subplot xy"><g class="layer-subplot"><g class="shapelayer"/><g class="imagelayer"/></g><g class="gridlayer"><g class="x"><path class="xgrid crisp" transform="translate(94.56,0)" d="M0,25v703" style="stroke: rgb(238, 238, 238); stroke-opacity: 1; stroke-width: 1px;"/><path class="xgrid crisp" transform="translate(183.82999999999998,0)" d="M0,25v703" style="stroke: rgb(238, 238, 238); stroke-opacity: 1; stroke-width: 1px;"/><path class="xgrid crisp" transform="translate(270.22,0)" d="M0,25v703" style="stroke: rgb(238, 238, 238); stroke-opacity: 1; stroke-width: 1px;"/><path class="xgrid crisp" transform="translate(359.49,0)" d="M0,25v703" style="stroke: rgb(238, 238, 238); stroke-opacity: 1; stroke-width: 1px;"/><path class="xgrid crisp" transform="translate(445.88,0)" d="M0,25v703" style="stroke: rgb(238, 238, 238); stroke-opacity: 1; stroke-width: 1px;"/><path class="xgrid crisp" transform="translate(535.15,0)" d="M0,25v703" style="stroke: rgb(238, 238, 238); stroke-opacity: 1; stroke-width: 1px;"/><path class="xgrid crisp" transform="translate(624.43,0)" d="M0,25v703" style="stroke: rgb(238, 238, 238); stroke-opacity: 1; stroke-width: 1px;"/><path class="xgrid crisp" transform="translate(710.82,0)" d="M0,25v703" style="stroke: rgb(238, 238, 238); stroke-opacity: 1; stroke-width: 1px;"/><path class="xgrid crisp" transform="translate(800.09,0)" d="M0,25v703" style="stroke: rgb(238, 238, 238); stroke-opacity: 1; stroke-width: 1px;"/><path class="xgrid crisp" transform="translate(886.48,0)" d="M0,25v703" style="stroke: rgb(238, 238, 238); stroke-opacity: 1; stroke-width: 1px;"/></g><g class="y"><path class="ygrid crisp" transform="translate(0,528.1800000000001)" d="M60,0h838" style="stroke: rgb(238, 238, 238); stroke-opacity: 1; stroke-width: 1px;"/><path class="ygrid crisp" transform="translate(0,363.85)" d="M60,0h838" style="stroke: rgb(238, 238, 238); stroke-opacity: 1; stroke-width: 1px;"/><path class="ygrid crisp" transform="translate(0,199.51)" d="M60,0h838" style="stroke: rgb(238, 238, 238); stroke-opacity: 1; stroke-width: 1px;"/><path class="ygrid crisp" transform="translate(0,35.17)" d="M60,0h838" style="stroke: rgb(238, 238, 238); stroke-opacity: 1; stroke-width: 1px;"/></g></g><g class="zerolinelayer"><path class="yzl zl crisp" transform="translate(0,692.52)" d="M60,0h838" style="stroke: rgb(68, 68, 68); stroke-opacity: 1; stroke-width: 1px;"/></g><path class="xlines-below"/><path class="ylines-below"/><g class="overlines-below"/><g class="xaxislayer-below"/><g class="yaxislayer-below"/><g class="overaxes-below"/><g class="plot" transform="translate(60, 25)" clip-path="url('#clip92ff08xyplot')"><g class="scatterlayer mlayer"><g class="trace scatter trace2e8436" style="stroke-miterlimit: 2; opacity: 1;"><g class="fills"/><g class="errorbars"/><g class="lines"><path class="js-line" d="M0,667.52L28.8,667.19L37.44,663.58L40.32,666.86L43.2,667.52L48.96,666.21L51.84,666.86L57.59,665.22L60.47,667.52L63.35,665.55L66.23,661.93L71.99,659.63L74.87,653.72L77.75,657L80.63,663.91L86.39,653.39L89.27,647.8L92.15,648.79L95.03,653.06L97.91,642.21L100.79,640.24L103.67,636.3L106.55,612.3L109.43,624.14L112.31,618.22L115.19,473.93L118.07,582.07L120.95,527.51L123.83,535.72L126.71,515.67L129.59,544.27L132.47,533.42L135.35,565.96L138.23,542.95L141.11,486.75L143.99,508.77L146.87,510.41L149.75,532.44L152.63,535.72L155.51,529.15L158.38,508.77L161.26,505.16L164.14,498.58L167.02,482.15L169.9,508.11L172.78,480.83L175.66,468.34L181.42,499.9L184.3,459.14L187.18,457.17L190.06,511.07L192.94,523.89L195.82,528.16L198.7,494.97L201.58,553.47L204.46,516.66L207.34,529.15L210.22,499.57L213.1,524.88L215.98,545.91L218.86,540.32L221.74,532.11L224.62,536.38L227.5,510.74L230.38,553.8L233.26,570.89L236.14,566.29L239.02,548.87L241.9,559.39L244.78,554.13L247.66,555.44L250.54,539.01L253.42,555.77L256.3,567.6L259.18,527.18L262.05,539.34L264.93,531.78L267.81,522.58L270.69,532.11L273.57,516.33L276.45,534.74L279.33,573.19L282.21,571.55L285.09,541.64L287.97,554.46L290.85,561.36L293.73,560.37L296.61,534.74L299.49,520.93L302.37,556.43L305.25,550.51L308.13,554.46L311.01,517.97L313.89,531.12L316.77,587.65L319.65,591.93L322.53,585.02L325.41,600.8L328.29,607.7L331.17,580.09L334.05,602.77L336.93,608.03L339.81,607.05L342.69,605.07L345.57,610.66L348.45,609.02L351.33,599.81L354.21,610L357.09,614.6L359.97,596.53L362.85,613.95L365.73,605.4L368.6,631.04L371.48,614.93L374.36,609.02L377.24,583.05L380.12,615.92L383,618.55L385.88,617.23L388.76,613.29L391.64,627.75L397.4,616.91L400.28,630.71L403.16,628.74L406.04,611.65L408.92,629.39L411.8,624.79L414.68,625.12L417.56,629.39L420.44,631.04L423.32,634L426.2,631.04L429.08,631.04L431.96,612.96L434.84,613.62L437.72,623.15L440.6,600.8L443.48,613.29L446.36,633.67L449.24,603.43L452.12,622.16L455,622.49L457.88,628.41L460.76,631.04L463.64,642.54L466.52,638.27L469.4,623.48L475.15,629.39L478.03,638.6L480.91,637.61L483.79,639.26L486.67,636.3L489.55,638.6L492.43,644.51L495.31,641.56L498.19,629.72L501.07,656.68L503.95,636.3L506.83,641.88L512.59,632.68L515.47,640.9L518.35,634.98L521.23,626.44L526.99,642.54L529.87,624.46L532.75,632.02L535.63,629.72L538.51,633.01L541.39,634.65L544.27,638.6L547.15,628.74L550.03,627.42L552.91,618.88L555.79,630.71L558.67,630.05L561.55,630.71L564.43,623.81L567.31,624.14L570.19,618.88L573.07,611.98L575.95,615.59L578.82,605.07L581.7,606.72L584.58,618.55L587.46,611.65L590.34,597.51L593.22,591.27L596.1,600.47L598.98,564.65L601.86,585.02L604.74,563.99L607.62,571.22L610.5,535.72L613.38,533.75L616.26,547.55L622.02,510.41L624.9,557.42L627.78,533.09L630.66,533.09L633.54,524.55L636.42,506.14L639.3,437.45L642.18,485.44L645.06,462.1L647.94,490.69L650.82,426.93L653.7,452.9L656.58,481.49L659.46,465.39L662.34,487.41L665.22,475.9L668.1,405.57L670.98,358.9L676.74,454.21L679.62,402.28L682.49,422.33L685.37,430.55L688.25,410.17L691.13,433.5L694.01,402.94L696.89,451.25L699.77,436.13L702.65,397.68L705.53,407.87L708.41,391.11L711.29,396.04L714.17,346.08L717.05,325.04L719.93,387.82L722.81,395.71L725.69,393.41L728.57,360.54L731.45,373.03L734.33,333.92L737.21,346.41L740.09,355.94L742.97,322.41L745.85,343.12L748.73,339.5L751.61,337.86L754.49,295.46L757.37,231.04L760.25,259.31L763.13,211.32L766.01,198.83L768.89,149.86L771.77,208.69L774.65,147.89L777.53,257.33L780.41,178.78L783.29,257.01L786.16,201.79L789.04,269.82L794.8,145.58L797.68,163.33L800.56,145.26L803.44,335.89L806.32,216.25L809.2,181.74L812.08,57.83L814.96,68.67L817.84,106.14L820.72,93.65L823.6,106.47L826.48,101.21L829.36,68.02L832.24,82.48L838,35.15" style="vector-effect: non-scaling-stroke; fill: none; stroke: rgb(31, 119, 180); stroke-opacity: 1; stroke-width: 2px; opacity: 1;"/></g><g class="points"/><g class="text"/></g><g class="trace scatter tracee1869e" style="stroke-miterlimit: 2; opacity: 1;"><g class="fills"/><g class="errorbars"/><g class="lines"><path class="js-line" d="M0,667.52L112.31,667.52L115.19,528.49L118.07,633.67L120.95,616.58L123.83,620.85L126.71,604.42L129.59,603.1L132.47,591.93L135.35,610L138.23,609.02L141.11,578.12L143.99,591.6L146.87,579.11L149.75,574.18L152.63,581.08L155.51,589.95L158.38,598.17L161.26,557.74L164.14,571.55L167.02,548.54L169.9,562.67L172.78,557.74L175.66,566.95L178.54,571.88L181.42,531.12L184.3,516.66L187.18,533.75L190.06,528.82L192.94,506.14L195.82,494.97L198.7,523.23L201.58,454.54L204.46,472.62L207.34,463.74L210.22,481.82L213.1,465.39L215.98,503.18L218.86,577.46L221.74,521.92L224.62,553.47L227.5,529.15L230.38,538.35L233.26,539.67L236.14,549.53L239.02,582.07L241.9,518.3L244.78,549.53L247.66,523.89L250.54,542.95L253.42,555.77L256.3,576.15L259.18,582.07L264.93,562.67L267.81,582.72L270.69,542.95L273.57,558.73L276.45,594.88L279.33,582.07L282.21,531.45L285.09,568.59L287.97,565.63L290.85,545.91L293.73,517.32L296.61,554.79L299.49,558.73L302.37,560.04L305.25,537.04L308.13,544.27L311.01,547.88L313.89,567.28L316.77,588.64L319.65,556.76L322.53,486.42L325.41,501.54L328.29,568.26L331.17,552.16L334.05,528.49L336.93,584.7L339.81,595.87L342.69,551.5L345.57,595.21L348.45,586.67L351.33,595.87L354.21,585.02L359.97,610.33L362.85,592.25L365.73,604.42L368.6,593.24L371.48,609.02L374.36,610L377.24,638.27L380.12,618.88L383,607.7L385.88,600.47L388.76,608.69L391.64,610.33L394.52,607.37L397.4,614.93L400.28,609.35L403.16,601.13L406.04,610.99L408.92,609.02L411.8,579.77L414.68,630.71L417.56,625.12L420.44,627.42L423.32,623.15L426.2,621.18L429.08,634.33L431.96,624.14L434.84,630.38L437.72,632.68L440.6,637.28L443.48,599.49L446.36,617.89L449.24,622.49L452.12,621.51L455,628.41L457.88,634L460.76,632.68L463.64,610.33L466.52,613.29L469.4,612.3L472.27,613.95L475.15,627.42L478.03,626.11L480.91,629.39L483.79,619.53L486.67,615.26L489.55,628.74L492.43,632.35L495.31,618.88L498.19,634L501.07,642.87L503.95,623.48L506.83,634.98L509.71,640.24L512.59,634.33L515.47,641.23L518.35,640.24L521.23,637.94L524.11,638.27L526.99,642.54L529.87,632.68L532.75,637.94L535.63,632.02L538.51,641.88L541.39,642.87L544.27,629.72L547.15,642.21L550.03,640.24L552.91,633.67L555.79,641.88L558.67,643.53L561.55,637.28L564.43,622.49L567.31,628.41L570.19,629.39L573.07,632.68L575.95,631.04L578.82,628.41L581.7,628.41L584.58,622.82L587.46,620.85L590.34,626.77L593.22,628.41L596.1,626.77L598.98,623.81L601.86,629.07L604.74,616.91L607.62,608.69L610.5,609.67L613.38,609.35L616.26,604.74L619.14,609.02L622.02,603.1L624.9,582.72L627.78,573.52L630.66,574.51L633.54,556.43L636.42,572.53L639.3,558.73L642.18,561.36L645.06,517.32L647.94,498.25L650.82,526.85L653.7,524.55L656.58,492.01L662.34,488.06L665.22,435.15L668.1,439.09L670.98,429.56L673.86,437.45L676.74,435.81L682.49,462.43L685.37,410.17L688.25,411.48L691.13,433.18L694.01,443.36L696.89,442.38L699.77,468.02L702.65,461.11L705.53,431.2L708.41,423.97L711.29,426.6L714.17,462.1L717.05,425.62L719.93,444.35L722.81,440.41L725.69,413.46L728.57,398.01L731.45,405.9L734.33,405.24L737.21,383.55L740.09,396.04L742.97,392.42L745.85,356.92L748.73,355.94L751.61,355.61L754.49,387.49L757.37,379.27L760.25,397.68L763.13,410.83L766.01,376.31L768.89,366.13L771.77,332.93L774.65,337.86L777.53,318.47L780.41,341.48L783.29,294.47L786.16,176.15L789.04,215.26L791.92,202.45L794.8,219.54L800.56,179.77L803.44,311.89L806.32,182.4L809.2,218.88L812.08,190.61L814.96,171.22L817.84,193.24L820.72,233.67L823.6,216.25L826.48,113.37L829.36,161.03L832.24,157.09L835.12,133.75L838,150.19" style="vector-effect: non-scaling-stroke; fill: none; stroke: rgb(255, 127, 14); stroke-opacity: 1; stroke-width: 2px; opacity: 1;"/></g><g class="points"/><g class="text"/></g><g class="trace scatter trace9b302a" style="stroke-miterlimit: 2; opacity: 1;"><g class="fills"/><g class="errorbars"/><g class="lines"><path class="js-line" d="M0,667.52L100.79,666.86L103.67,665.88L106.55,666.86L109.43,666.54L112.31,667.19L115.19,666.21L118.07,664.23L120.95,666.21L123.83,662.26L126.71,662.92L129.59,658.65L132.47,659.3L135.35,663.25L138.23,660.62L141.11,660.62L143.99,658.98L146.87,660.29L149.75,657.33L152.63,660.62L155.51,661.93L158.38,653.39L161.26,650.76L164.14,655.03L167.02,649.44L169.9,655.69L172.78,654.7L175.66,657.33L178.54,655.03L181.42,655.36L184.3,649.77L190.06,651.74L192.94,659.63L195.82,648.79L198.7,648.13L201.58,652.73L204.46,639.26L207.34,654.7L210.22,649.44L213.1,654.37L215.98,639.91L218.86,647.47L221.74,645.17L224.62,651.74L227.5,646.81L230.38,648.13L233.26,656.02L236.14,656.02L239.02,649.12L241.9,654.37L244.78,656.68L247.66,658.65L250.54,656.68L253.42,659.96L256.3,659.96L259.18,662.59L262.05,653.39L264.93,657.33L267.81,658.32L273.57,659.3L276.45,657.99L279.33,660.62L282.21,657L285.09,656.35L287.97,654.05L290.85,661.93L293.73,661.28L296.61,664.23L299.49,661.93L302.37,661.28L305.25,652.73L308.13,662.59L311.01,656.02L313.89,661.28L316.77,659.63L319.65,662.92L322.53,663.91L328.29,663.91L331.17,664.56L334.05,663.58L336.93,664.89L342.69,663.58L345.57,666.54L348.45,663.91L351.33,657.33L354.21,663.91L357.09,666.54L359.97,664.23L362.85,663.58L365.73,664.23L368.6,666.54L371.48,664.89L374.36,665.55L380.12,665.22L383,666.21L388.76,666.86L391.64,665.88L397.4,667.52L400.28,666.86L403.16,664.56L406.04,666.54L408.92,665.22L411.8,665.55L414.68,666.54L417.56,666.54L420.44,667.19L423.32,664.56L426.2,665.88L429.08,664.56L431.96,666.86L434.84,666.54L440.6,667.19L443.48,666.86L446.36,667.52L449.24,666.54L452.12,667.19L455,666.21L457.88,667.19L460.76,666.21L463.64,667.19L466.52,666.54L475.15,667.19L478.03,667.52L480.91,666.21L483.79,667.52L495.31,666.86L498.19,667.52L518.35,667.52L521.23,666.21L524.11,667.85L526.99,667.19L529.87,666.54L532.75,667.19L538.51,667.19L541.39,666.86L547.15,667.19L550.03,665.55L552.91,667.52L555.79,667.19L573.07,667.52L575.95,666.86L581.7,667.52L584.58,667.52L587.46,667.19L590.34,667.85L596.1,667.19L598.98,667.19L601.86,666.21L604.74,666.86L607.62,666.54L610.5,667.52L624.9,666.54L627.78,667.19L639.3,667.19L642.18,666.21L647.94,666.54L650.82,642.54L656.58,665.22L659.46,665.88L662.34,665.22L665.22,667.19L670.98,665.88L673.86,665.22L676.74,667.19L679.62,666.54L682.49,664.56L685.37,667.52L691.13,664.56L694.01,664.23L696.89,665.88L699.77,666.21L702.65,666.54L705.53,664.56L711.29,664.56L714.17,665.55L719.93,665.55L722.81,666.21L725.69,665.88L728.57,664.23L740.09,665.22L742.97,662.92L745.85,662.26L748.73,663.25L751.61,662.92L754.49,663.91L757.37,663.25L760.25,663.58L763.13,662.59L766.01,662.59L771.77,661.28L774.65,660.95L777.53,657.99L780.41,664.23L783.29,663.58L786.16,657L789.04,658.32L791.92,664.89L794.8,660.62L797.68,662.92L800.56,661.28L803.44,662.92L806.32,656.02L809.2,660.62L812.08,660.95L814.96,657.99L817.84,659.63L820.72,664.89L823.6,665.22L826.48,656.02L829.36,662.92L832.24,659.3L838,662.59" style="vector-effect: non-scaling-stroke; fill: none; stroke: rgb(44, 160, 44); stroke-opacity: 1; stroke-width: 2px; opacity: 1;"/></g><g class="points"/><g class="text"/></g></g></g><g class="overplot"/><path class="xlines-above crisp" style="fill: none;" d="M0,0"/><path class="ylines-above crisp" style="fill: none;" d="M0,0"/><g class="overlines-above"/><g class="xaxislayer-above"><g class="xtick"><text text-anchor="middle" x="0" y="741" transform="translate(94.56,0)" style="font-family: 'Open Sans', verdana, arial, sans-serif; font-size: 12px; fill: rgb(68, 68, 68); fill-opacity: 1; white-space: pre;">Mar 2020</text></g><g class="xtick"><text text-anchor="middle" x="0" y="741" transform="translate(183.82999999999998,0)" style="font-family: 'Open Sans', verdana, arial, sans-serif; font-size: 12px; fill: rgb(68, 68, 68); fill-opacity: 1; white-space: pre;">Apr 2020</text></g><g class="xtick"><text text-anchor="middle" x="0" y="741" transform="translate(270.22,0)" style="font-family: 'Open Sans', verdana, arial, sans-serif; font-size: 12px; fill: rgb(68, 68, 68); fill-opacity: 1; white-space: pre;">May 2020</text></g><g class="xtick"><text text-anchor="middle" x="0" y="741" transform="translate(359.49,0)" style="font-family: 'Open Sans', verdana, arial, sans-serif; font-size: 12px; fill: rgb(68, 68, 68); fill-opacity: 1; white-space: pre;">Jun 2020</text></g><g class="xtick"><text text-anchor="middle" x="0" y="741" transform="translate(445.88,0)" style="font-family: 'Open Sans', verdana, arial, sans-serif; font-size: 12px; fill: rgb(68, 68, 68); fill-opacity: 1; white-space: pre;">Jul 2020</text></g><g class="xtick"><text text-anchor="middle" x="0" y="741" transform="translate(535.15,0)" style="font-family: 'Open Sans', verdana, arial, sans-serif; font-size: 12px; fill: rgb(68, 68, 68); fill-opacity: 1; white-space: pre;">Aug 2020</text></g><g class="xtick"><text text-anchor="middle" x="0" y="741" transform="translate(624.43,0)" style="font-family: 'Open Sans', verdana, arial, sans-serif; font-size: 12px; fill: rgb(68, 68, 68); fill-opacity: 1; white-space: pre;">Sep 2020</text></g><g class="xtick"><text text-anchor="middle" x="0" y="741" transform="translate(710.82,0)" style="font-family: 'Open Sans', verdana, arial, sans-serif; font-size: 12px; fill: rgb(68, 68, 68); fill-opacity: 1; white-space: pre;">Oct 2020</text></g><g class="xtick"><text text-anchor="middle" x="0" y="741" transform="translate(800.09,0)" style="font-family: 'Open Sans', verdana, arial, sans-serif; font-size: 12px; fill: rgb(68, 68, 68); fill-opacity: 1; white-space: pre;">Nov 2020</text></g><g class="xtick"><text text-anchor="middle" x="0" y="741" transform="translate(886.48,0)" style="font-family: 'Open Sans', verdana, arial, sans-serif; font-size: 12px; fill: rgb(68, 68, 68); fill-opacity: 1; white-space: pre;">Dec 2020</text></g></g><g class="yaxislayer-above"><g class="ytick"><text text-anchor="end" x="59" y="4.199999999999999" transform="translate(0,692.52)" style="font-family: 'Open Sans', verdana, arial, sans-serif; font-size: 12px; fill: rgb(68, 68, 68); fill-opacity: 1; white-space: pre;">0</text></g><g class="ytick"><text text-anchor="end" x="59" y="4.199999999999999" transform="translate(0,528.1800000000001)" style="font-family: 'Open Sans', verdana, arial, sans-serif; font-size: 12px; fill: rgb(68, 68, 68); fill-opacity: 1; white-space: pre;">500</text></g><g class="ytick"><text text-anchor="end" x="59" y="4.199999999999999" transform="translate(0,363.85)" style="font-family: 'Open Sans', verdana, arial, sans-serif; font-size: 12px; fill: rgb(68, 68, 68); fill-opacity: 1; white-space: pre;">1000</text></g><g class="ytick"><text text-anchor="end" x="59" y="4.199999999999999" transform="translate(0,199.51)" style="font-family: 'Open Sans', verdana, arial, sans-serif; font-size: 12px; fill: rgb(68, 68, 68); fill-opacity: 1; white-space: pre;">1500</text></g><g class="ytick"><text text-anchor="end" x="59" y="4.199999999999999" transform="translate(0,35.17)" style="font-family: 'Open Sans', verdana, arial, sans-serif; font-size: 12px; fill: rgb(68, 68, 68); fill-opacity: 1; white-space: pre;">2000</text></g></g><g class="overaxes-above"/></g></g><g class="polarlayer"/><g class="ternarylayer"/><g class="geolayer"/><g class="funnelarealayer"/><g class="pielayer"/><g class="treemaplayer"/><g class="sunburstlayer"/><g class="glimages"/><defs id="topdefs-92ff08"><g class="clips"/><clipPath id="legend92ff08"><rect width="102" height="67" x="0" y="0"/></clipPath></defs><g class="layer-above"><g class="imagelayer"/><g class="shapelayer"/></g><g class="infolayer"><g class="legend" pointer-events="all" transform="translate(914.76, 25)"><rect class="bg" shape-rendering="crispEdges" style="stroke: rgb(68, 68, 68); stroke-opacity: 1; fill: rgb(255, 255, 255); fill-opacity: 1; stroke-width: 0px;" width="102" height="67" x="0" y="0"/><g class="scrollbox" transform="translate(0, 0)" clip-path="url('#legend92ff08')"><g class="groups"><g class="traces" style="opacity: 1;" transform="translate(0, 14.5)"><text class="legendtext user-select-none" text-anchor="start" x="40" y="4.680000000000001" style="font-family: 'Open Sans', verdana, arial, sans-serif; font-size: 12px; fill: rgb(68, 68, 68); fill-opacity: 1; white-space: pre;">positive</text><g class="layers" style="opacity: 1;"><g class="legendfill"/><g class="legendlines"><path class="js-line" d="M5,0h30" style="fill: none; stroke: rgb(31, 119, 180); stroke-opacity: 1; stroke-width: 2px;"/></g><g class="legendsymbols"><g class="legendpoints"/></g></g><rect class="legendtoggle" pointer-events="all" x="0" y="-9.5" width="96.109375" height="19" style="cursor: pointer; fill: rgb(0, 0, 0); fill-opacity: 0;"/></g><g class="traces" style="opacity: 1;" transform="translate(0, 33.5)"><text class="legendtext user-select-none" text-anchor="start" x="40" y="4.680000000000001" style="font-family: 'Open Sans', verdana, arial, sans-serif; font-size: 12px; fill: rgb(68, 68, 68); fill-opacity: 1; white-space: pre;">resolved</text><g class="layers" style="opacity: 1;"><g class="legendfill"/><g class="legendlines"><path class="js-line" d="M5,0h30" style="fill: none; stroke: rgb(255, 127, 14); stroke-opacity: 1; stroke-width: 2px;"/></g><g class="legendsymbols"><g class="legendpoints"/></g></g><rect class="legendtoggle" pointer-events="all" x="0" y="-9.5" width="96.109375" height="19" style="cursor: pointer; fill: rgb(0, 0, 0); fill-opacity: 0;"/></g><g class="traces" style="opacity: 1;" transform="translate(0, 52.5)"><text class="legendtext user-select-none" text-anchor="start" x="40" y="4.680000000000001" style="font-family: 'Open Sans', verdana, arial, sans-serif; font-size: 12px; fill: rgb(68, 68, 68); fill-opacity: 1; white-space: pre;">deceased</text><g class="layers" style="opacity: 1;"><g class="legendfill"/><g class="legendlines"><path class="js-line" d="M5,0h30" style="fill: none; stroke: rgb(44, 160, 44); stroke-opacity: 1; stroke-width: 2px;"/></g><g class="legendsymbols"><g class="legendpoints"/></g></g><rect class="legendtoggle" pointer-events="all" x="0" y="-9.5" width="96.109375" height="19" style="cursor: pointer; fill: rgb(0, 0, 0); fill-opacity: 0;"/></g></g></g><rect class="scrollbar" rx="20" ry="3" width="0" height="0" style="fill: rgb(128, 139, 164); fill-opacity: 1;" x="0" y="0"/></g><g class="g-gtitle"><text class="gtitle" x="513.5" y="12.5" text-anchor="middle" dy="0em" style="font-family: 'Open Sans', verdana, arial, sans-serif; font-size: 17px; fill: rgb(68, 68, 68); opacity: 1; font-weight: normal; white-space: pre;">Dynamics of new cases, resolved cases and deaths in Ontario (Dec 06, 2020)</text></g><g class="g-xtitle" transform="translate(0,-15)"><text class="xtitle" x="479" y="780" text-anchor="middle" style="font-family: 'Open Sans', verdana, arial, sans-serif; font-size: 14px; fill: rgb(68, 68, 68); opacity: 1; font-weight: normal; white-space: pre;">Date</text></g><g class="g-ytitle"><text class="ytitle" transform="rotate(-90,22,376.5)" x="22" y="376.5" text-anchor="middle" style="font-family: 'Open Sans', verdana, arial, sans-serif; font-size: 14px; fill: rgb(68, 68, 68); opacity: 1; font-weight: normal; white-space: pre;">Number of cases</text></g></g></svg>