<svg class="main-svg" xmlns="http://www.w3.org/2000/svg" xmlns:xlink="http://www.w3.org/1999/xlink" width="1027" height="768" style="" viewBox="0 0 1027 768"><rect x="0" y="0" width="1027" height="768" style="fill: rgb(255, 255, 255); fill-opacity: 1;"/><defs id="defs-9a712d"><g class="clips"><clipPath id="clip9a712dxyplot" class="plotclip"><rect width="838" height="703"/></clipPath><clipPath class="axesclip" id="clip9a712dx"><rect x="60" y="0" width="838" height="768"/></clipPath><clipPath class="axesclip" id="clip9a712dy"><rect x="0" y="25" width="1027" height="703"/></clipPath><clipPath class="axesclip" id="clip9a712dxy"><rect x="60" y="25" width="838" height="703"/></clipPath></g><g class="gradients"/></defs><g class="bglayer"/><g class="layer-below"><g class="imagelayer"/><g class="shapelayer"/></g><g class="cartesianlayer"><g class="subplot xy"><g class="layer-subplot"><g class="shapelayer"/><g class="imagelayer"/></g><g class="gridlayer"><g class="x"><path class="xgrid crisp" transform="translate(107.89,0)" d="M0,25v703" style="stroke: rgb(238, 238, 238); stroke-opacity: 1; stroke-width: 1px;"/><path class="xgrid crisp" transform="translate(231.59,0)" d="M0,25v703" style="stroke: rgb(238, 238, 238); stroke-opacity: 1; stroke-width: 1px;"/><path class="xgrid crisp" transform="translate(351.3,0)" d="M0,25v703" style="stroke: rgb(238, 238, 238); stroke-opacity: 1; stroke-width: 1px;"/><path class="xgrid crisp" transform="translate(475.01,0)" d="M0,25v703" style="stroke: rgb(238, 238, 238); stroke-opacity: 1; stroke-width: 1px;"/><path class="xgrid crisp" transform="translate(594.72,0)" d="M0,25v703" style="stroke: rgb(238, 238, 238); stroke-opacity: 1; stroke-width: 1px;"/><path class="xgrid crisp" transform="translate(718.43,0)" d="M0,25v703" style="stroke: rgb(238, 238, 238); stroke-opacity: 1; stroke-width: 1px;"/><path class="xgrid crisp" transform="translate(842.13,0)" d="M0,25v703" style="stroke: rgb(238, 238, 238); stroke-opacity: 1; stroke-width: 1px;"/></g><g class="y"><path class="ygrid crisp" transform="translate(0,594.39)" d="M60,0h838" style="stroke: rgb(238, 238, 238); stroke-opacity: 1; stroke-width: 1px;"/><path class="ygrid crisp" transform="translate(0,496.9)" d="M60,0h838" style="stroke: rgb(238, 238, 238); stroke-opacity: 1; stroke-width: 1px;"/><path class="ygrid crisp" transform="translate(0,399.41)" d="M60,0h838" style="stroke: rgb(238, 238, 238); stroke-opacity: 1; stroke-width: 1px;"/><path class="ygrid crisp" transform="translate(0,301.92)" d="M60,0h838" style="stroke: rgb(238, 238, 238); stroke-opacity: 1; stroke-width: 1px;"/><path class="ygrid crisp" transform="translate(0,204.43)" d="M60,0h838" style="stroke: rgb(238, 238, 238); stroke-opacity: 1; stroke-width: 1px;"/><path class="ygrid crisp" transform="translate(0,106.94)" d="M60,0h838" style="stroke: rgb(238, 238, 238); stroke-opacity: 1; stroke-width: 1px;"/></g></g><g class="zerolinelayer"><path class="yzl zl crisp" transform="translate(0,691.88)" d="M60,0h838" style="stroke: rgb(68, 68, 68); stroke-opacity: 1; stroke-width: 1px;"/></g><path class="xlines-below"/><path class="ylines-below"/><g class="overlines-below"/><g class="xaxislayer-below"/><g class="yaxislayer-below"/><g class="overaxes-below"/><g class="plot" transform="translate(60, 25)" clip-path="url('#clip9a712dxyplot')"><g class="scatterlayer mlayer"><g class="trace scatter trace069582" style="stroke-miterlimit: 2; opacity: 1;"><g class="fills"/><g class="errorbars"/><g class="lines"><path class="js-line" d="M0,666.88L3.99,666.88L7.98,667.85L11.97,667.85L23.94,665.9L31.92,666.88L35.91,665.9L39.9,665.9L51.88,655.18L55.87,664.93L59.86,666.88L63.85,665.9L67.84,662.98L71.83,664.93L79.81,660.05L83.8,666.88L87.79,661.03L91.78,650.3L95.77,647.38L99.76,643.48L103.75,625.93L107.74,635.68L111.73,656.15L115.72,642.5L119.71,624.96L123.7,608.38L127.7,611.31L131.69,623.98L135.68,591.81L139.67,585.96L143.66,574.26L147.65,503.09L151.64,538.19L155.63,520.64L159.62,92.67L163.61,413.41L167.6,251.57L171.59,275.95L175.58,216.48L179.57,301.29L183.56,269.12L187.55,365.64L191.54,297.39L195.53,130.69L199.52,196.01L203.51,200.88L207.5,266.2L211.5,275.95L215.49,256.45L219.48,196.01L223.47,185.28L227.46,165.78L231.45,117.04L235.44,194.06L239.43,113.14L243.42,76.1L247.41,129.71L251.4,169.68L255.39,48.8L259.38,42.95L263.37,202.83L267.36,240.85L271.35,253.52L275.34,155.06L279.33,328.59L283.32,219.4L287.31,256.45L291.3,168.71L295.3,243.78L299.29,306.17L303.28,289.59L307.27,265.22L311.26,277.9L315.25,201.86L319.24,329.57L323.23,380.26L327.22,366.61L331.21,314.94L335.2,346.14L339.19,330.54L343.18,334.44L347.17,285.7L351.16,335.41L355.15,370.51L359.14,250.6L363.13,286.67L367.12,264.25L371.11,236.95L375.1,265.22L379.1,218.43L383.09,273.02L387.08,387.08L391.07,382.21L395.06,293.49L399.05,331.51L403.04,351.99L407.03,349.06L411.02,273.02L415.01,232.08L419,337.36L422.99,319.82L426.98,331.51L430.97,223.3L434.96,262.3L438.95,429.98L442.94,442.65L446.93,422.18L450.92,468.97L454.91,489.45L458.9,407.56L462.9,474.82L466.89,490.42L470.88,487.5L474.87,481.65L478.86,498.22L482.85,493.35L486.84,466.05L490.83,496.27L494.82,509.92L498.81,456.3L502.8,507.97L506.79,482.62L510.78,558.66L514.77,510.89L518.76,493.35L522.75,416.33L526.74,513.82L530.73,521.62L534.72,517.72L538.71,506.02L542.7,548.91L550.69,516.74L554.68,557.69L558.67,551.84L562.66,501.14L566.65,553.79L570.64,540.14L574.63,541.12L578.62,553.79L582.61,558.66L586.6,567.44L590.59,558.66L594.58,558.66L598.57,505.04L602.56,506.99L606.55,535.27L610.54,468.97L614.53,506.02L618.52,566.46L622.51,476.77L626.5,532.34L630.5,533.32L634.49,550.86L638.48,558.66L642.47,592.78L646.46,580.11L650.45,536.24L658.43,553.79L662.42,581.09L666.41,578.16L670.4,583.04L674.39,574.26L678.38,581.09L682.37,598.63L686.36,589.86L690.35,554.76L694.34,634.7L698.33,574.26L702.32,590.83L710.3,563.54L714.3,587.91L718.29,570.36L722.28,545.01L730.26,592.78L734.25,539.17L738.24,561.59L742.23,554.76L746.22,564.51L750.21,569.39L754.2,581.09L758.19,551.84L762.18,547.94L766.17,522.59L770.16,557.69L774.15,555.74L778.14,557.69L782.13,537.22L786.12,538.19L790.11,522.59L794.1,502.12L798.1,512.84L802.09,481.65L806.08,486.52L810.07,521.62L814.06,501.14L818.05,459.22L822.04,440.7L826.03,468L830.02,361.74L834.01,422.18L838,359.79" style="vector-effect: non-scaling-stroke; fill: none; stroke: rgb(31, 119, 180); stroke-opacity: 1; stroke-width: 2px; opacity: 1;"/></g><g class="points"/><g class="text"/></g><g class="trace scatter tracef262e5" style="stroke-miterlimit: 2; opacity: 1;"><g class="fills"/><g class="errorbars"/><g class="lines"><path class="js-line" d="M0,666.88L3.99,666.88L7.98,665.9L11.97,665.9L23.94,666.88L59.86,666.88L63.85,665.9L67.84,666.88L71.83,666.88L79.81,666.88L83.8,665.9L87.79,666.88L91.78,666.88L123.7,666.88L127.7,665.9L131.69,664.93L135.68,666.88L155.63,666.88L159.62,254.5L163.61,566.46L167.6,515.77L171.59,528.44L175.58,479.7L179.57,475.8L183.56,442.65L187.55,496.27L191.54,493.35L195.53,401.71L199.52,441.68L203.51,404.63L207.5,390.01L211.5,410.48L215.49,436.8L219.48,461.17L223.47,341.26L227.46,382.21L231.45,313.97L235.44,355.89L239.43,341.26L243.42,368.56L247.41,383.18L251.4,262.3L255.39,219.4L259.38,270.1L263.37,255.47L267.36,188.21L271.35,155.06L275.34,238.9L279.33,35.15L283.32,88.77L287.31,62.45L291.3,116.07L295.3,67.32L299.29,179.43L303.28,399.76L307.27,235L311.26,328.59L315.25,256.45L319.24,283.75L323.23,287.65L327.22,316.89L331.21,413.41L335.2,224.28L339.19,316.89L343.18,240.85L347.17,297.39L351.16,335.41L355.15,395.86L359.14,413.41L367.12,355.89L371.11,415.35L375.1,297.39L379.1,344.19L383.09,451.43L387.08,413.41L391.07,263.27L395.06,373.43L399.05,364.66L403.04,306.17L407.03,221.35L411.02,332.49L415.01,344.19L419,348.09L422.99,279.85L426.98,301.29L430.97,312.02L434.96,369.54L438.95,432.9L442.94,338.34L446.93,129.71L450.92,174.56L454.91,372.46L458.9,324.69L462.9,254.5L466.89,421.2L470.88,454.35L474.87,322.74L478.86,452.4L482.85,427.05L486.84,454.35L490.83,422.18L498.81,497.25L502.8,443.63L506.79,479.7L510.78,446.55L514.77,493.35L518.76,496.27L522.75,580.11L526.74,522.59L530.73,489.45L534.72,468L538.71,492.37L542.7,497.25L546.7,488.47L550.69,510.89L554.68,494.32L558.67,469.95L562.66,499.19L566.65,493.35L570.64,406.58L574.63,557.69L578.62,541.12L582.61,547.94L586.6,535.27L590.59,529.42L594.58,568.41L598.57,538.19L602.56,556.71L606.55,563.54L610.54,577.19L614.53,465.07L618.52,519.67L622.51,533.32L626.5,530.39L630.5,550.86L634.49,567.44L638.48,563.54L642.47,497.25L646.46,506.02L650.45,503.09L654.44,507.97L658.43,547.94L662.42,544.04L666.41,553.79L670.4,524.54L674.39,511.87L678.38,551.84L682.37,562.56L686.36,522.59L690.35,567.44L694.34,593.76L698.33,536.24L702.32,570.36L706.31,585.96L710.3,568.41L714.3,588.88L718.29,585.96L722.28,579.14L726.27,580.11L730.26,592.78L734.25,563.54L738.24,579.14L742.23,561.59L746.22,590.83L750.21,593.76L754.2,554.76L758.19,591.81L762.18,585.96L766.17,566.46L770.16,590.83L774.15,595.71L778.14,577.19L782.13,533.32L786.12,550.86L790.11,553.79L794.1,563.54L798.1,558.66L802.09,550.86L806.08,550.86L810.07,534.29L814.06,528.44L818.05,545.99L822.04,550.86L826.03,545.99L830.02,537.22L834.01,552.81L838,516.74" style="vector-effect: non-scaling-stroke; fill: none; stroke: rgb(255, 127, 14); stroke-opacity: 1; stroke-width: 2px; opacity: 1;"/></g><g class="points"/><g class="text"/></g><g class="trace scatter traced1c0bb" style="stroke-miterlimit: 2; opacity: 1;"><g class="fills"/><g class="errorbars"/><g class="lines"><path class="js-line" d="M0,666.88L107.74,666.88L111.73,665.9L115.72,666.88L119.71,665.9L123.7,666.88L127.7,665.9L131.69,664.93L135.68,665.9L139.67,664.93L143.66,662L147.65,664.93L151.64,663.95L155.63,665.9L159.62,662.98L163.61,657.13L167.6,662.98L171.59,651.28L175.58,653.23L179.57,640.55L183.56,642.5L187.55,654.2L191.54,646.4L195.53,646.4L199.52,641.53L203.51,645.43L207.5,636.65L211.5,646.4L215.49,650.3L219.48,624.96L223.47,617.16L227.46,629.83L231.45,613.26L235.44,631.78L239.43,628.85L243.42,636.65L247.41,629.83L251.4,630.8L255.39,614.23L259.38,618.13L263.37,620.08L267.36,643.48L271.35,611.31L275.34,609.36L279.33,623.01L283.32,583.04L287.31,628.85L291.3,613.26L295.3,627.88L299.29,584.98L303.28,607.41L307.27,600.58L311.26,620.08L315.25,605.46L319.24,609.36L323.23,632.75L327.22,632.75L331.21,612.28L335.2,627.88L343.18,640.55L347.17,634.7L351.16,644.45L355.15,644.45L359.14,652.25L363.13,624.96L367.12,636.65L371.11,639.58L375.1,640.55L379.1,642.5L383.09,638.6L387.08,646.4L391.07,635.68L395.06,633.73L399.05,626.9L403.04,650.3L407.03,648.35L411.02,657.13L415.01,650.3L419,648.35L422.99,623.01L426.98,652.25L430.97,632.75L434.96,648.35L438.95,643.48L442.94,653.23L446.93,656.15L450.92,655.18L454.91,656.15L458.9,658.1L462.9,655.18L466.89,659.08L470.88,656.15L474.87,655.18L478.86,663.95L482.85,656.15L486.84,636.65L490.83,656.15L494.82,663.95L498.81,657.13L502.8,655.18L506.79,657.13L510.78,663.95L514.77,659.08L518.76,661.03L522.75,660.05L526.74,660.05L530.73,662.98L534.72,662.98L538.71,664.93L542.7,662L546.7,664.93L550.69,666.88L554.68,664.93L558.67,658.1L562.66,663.95L566.65,660.05L570.64,661.03L574.63,663.95L578.62,663.95L582.61,665.9L586.6,658.1L590.59,662L594.58,658.1L598.57,664.93L602.56,663.95L606.55,665.9L610.54,665.9L614.53,664.93L618.52,666.88L622.51,663.95L626.5,665.9L630.5,662.98L634.49,665.9L638.48,662.98L642.47,665.9L646.46,663.95L650.45,663.95L662.42,666.88L666.41,662.98L670.4,666.88L674.39,665.9L678.38,666.88L682.37,665.9L686.36,664.93L690.35,666.88L694.34,666.88L698.33,665.9L702.32,666.88L706.31,665.9L710.3,665.9L714.3,666.88L718.29,666.88L722.28,662.98L726.27,667.85L730.26,665.9L734.25,663.95L738.24,665.9L742.23,666.88L746.22,665.9L750.21,664.93L754.2,664.93L758.19,665.9L762.18,661.03L766.17,666.88L770.16,665.9L778.14,665.9L782.13,666.88L786.12,666.88L790.11,667.85L794.1,666.88L798.1,664.93L802.09,666.88L806.08,666.88L810.07,666.88L814.06,665.9L818.05,667.85L822.04,665.9L830.02,665.9L834.01,662.98L838,664.93" style="vector-effect: non-scaling-stroke; fill: none; stroke: rgb(44, 160, 44); stroke-opacity: 1; stroke-width: 2px; opacity: 1;"/></g><g class="points"/><g class="text"/></g></g></g><g class="overplot"/><path class="xlines-above crisp" style="fill: none;" d="M0,0"/><path class="ylines-above crisp" style="fill: none;" d="M0,0"/><g class="overlines-above"/><g class="xaxislayer-above"><g class="xtick"><text text-anchor="middle" x="0" y="741" transform="translate(107.89,0)" style="font-family: 'Open Sans', verdana, arial, sans-serif; font-size: 12px; fill: rgb(68, 68, 68); fill-opacity: 1; white-space: pre;">Mar 2020</text></g><g class="xtick"><text text-anchor="middle" x="0" y="741" transform="translate(231.59,0)" style="font-family: 'Open Sans', verdana, arial, sans-serif; font-size: 12px; fill: rgb(68, 68, 68); fill-opacity: 1; white-space: pre;">Apr 2020</text></g><g class="xtick"><text text-anchor="middle" x="0" y="741" transform="translate(351.3,0)" style="font-family: 'Open Sans', verdana, arial, sans-serif; font-size: 12px; fill: rgb(68, 68, 68); fill-opacity: 1; white-space: pre;">May 2020</text></g><g class="xtick"><text text-anchor="middle" x="0" y="741" transform="translate(475.01,0)" style="font-family: 'Open Sans', verdana, arial, sans-serif; font-size: 12px; fill: rgb(68, 68, 68); fill-opacity: 1; white-space: pre;">Jun 2020</text></g><g class="xtick"><text text-anchor="middle" x="0" y="741" transform="translate(594.72,0)" style="font-family: 'Open Sans', verdana, arial, sans-serif; font-size: 12px; fill: rgb(68, 68, 68); fill-opacity: 1; white-space: pre;">Jul 2020</text></g><g class="xtick"><text text-anchor="middle" x="0" y="741" transform="translate(718.43,0)" style="font-family: 'Open Sans', verdana, arial, sans-serif; font-size: 12px; fill: rgb(68, 68, 68); fill-opacity: 1; white-space: pre;">Aug 2020</text></g><g class="xtick"><text text-anchor="middle" x="0" y="741" transform="translate(842.13,0)" style="font-family: 'Open Sans', verdana, arial, sans-serif; font-size: 12px; fill: rgb(68, 68, 68); fill-opacity: 1; white-space: pre;">Sep 2020</text></g></g><g class="yaxislayer-above"><g class="ytick"><text text-anchor="end" x="59" y="4.199999999999999" transform="translate(0,691.88)" style="font-family: 'Open Sans', verdana, arial, sans-serif; font-size: 12px; fill: rgb(68, 68, 68); fill-opacity: 1; white-space: pre;">0</text></g><g class="ytick"><text text-anchor="end" x="59" y="4.199999999999999" transform="translate(0,594.39)" style="font-family: 'Open Sans', verdana, arial, sans-serif; font-size: 12px; fill: rgb(68, 68, 68); fill-opacity: 1; white-space: pre;">100</text></g><g class="ytick"><text text-anchor="end" x="59" y="4.199999999999999" transform="translate(0,496.9)" style="font-family: 'Open Sans', verdana, arial, sans-serif; font-size: 12px; fill: rgb(68, 68, 68); fill-opacity: 1; white-space: pre;">200</text></g><g class="ytick"><text text-anchor="end" x="59" y="4.199999999999999" transform="translate(0,399.41)" style="font-family: 'Open Sans', verdana, arial, sans-serif; font-size: 12px; fill: rgb(68, 68, 68); fill-opacity: 1; white-space: pre;">300</text></g><g class="ytick"><text text-anchor="end" x="59" y="4.199999999999999" transform="translate(0,301.92)" style="font-family: 'Open Sans', verdana, arial, sans-serif; font-size: 12px; fill: rgb(68, 68, 68); fill-opacity: 1; white-space: pre;">400</text></g><g class="ytick"><text text-anchor="end" x="59" y="4.199999999999999" transform="translate(0,204.43)" style="font-family: 'Open Sans', verdana, arial, sans-serif; font-size: 12px; fill: rgb(68, 68, 68); fill-opacity: 1; white-space: pre;">500</text></g><g class="ytick"><text text-anchor="end" x="59" y="4.199999999999999" transform="translate(0,106.94)" style="font-family: 'Open Sans', verdana, arial, sans-serif; font-size: 12px; fill: rgb(68, 68, 68); fill-opacity: 1; white-space: pre;">600</text></g></g><g class="overaxes-above"/></g></g><g class="polarlayer"/><g class="ternarylayer"/><g class="geolayer"/><g class="funnelarealayer"/><g class="pielayer"/><g class="treemaplayer"/><g class="sunburstlayer"/><g class="glimages"/><defs id="topdefs-9a712d"><g class="clips"/><clipPath id="legend9a712d"><rect width="102" height="67" x="0" y="0"/></clipPath></defs><g class="layer-above"><g class="imagelayer"/><g class="shapelayer"/></g><g class="infolayer"><g class="legend" pointer-events="all" transform="translate(914.76, 25)"><rect class="bg" shape-rendering="crispEdges" style="stroke: rgb(68, 68, 68); stroke-opacity: 1; fill: rgb(255, 255, 255); fill-opacity: 1; stroke-width: 0px;" width="102" height="67" x="0" y="0"/><g class="scrollbox" transform="translate(0, 0)" clip-path="url('#legend9a712d')"><g class="groups"><g class="traces" style="opacity: 1;" transform="translate(0, 14.5)"><text class="legendtext user-select-none" text-anchor="start" x="40" y="4.680000000000001" style="font-family: 'Open Sans', verdana, arial, sans-serif; font-size: 12px; fill: rgb(68, 68, 68); fill-opacity: 1; white-space: pre;">positive</text><g class="layers" style="opacity: 1;"><g class="legendfill"/><g class="legendlines"><path class="js-line" d="M5,0h30" style="fill: none; stroke: rgb(31, 119, 180); stroke-opacity: 1; stroke-width: 2px;"/></g><g class="legendsymbols"><g class="legendpoints"/></g></g><rect class="legendtoggle" pointer-events="all" x="0" y="-9.5" width="96.109375" height="19" style="cursor: pointer; fill: rgb(0, 0, 0); fill-opacity: 0;"/></g><g class="traces" style="opacity: 1;" transform="translate(0, 33.5)"><text class="legendtext user-select-none" text-anchor="start" x="40" y="4.680000000000001" style="font-family: 'Open Sans', verdana, arial, sans-serif; font-size: 12px; fill: rgb(68, 68, 68); fill-opacity: 1; white-space: pre;">resolved</text><g class="layers" style="opacity: 1;"><g class="legendfill"/><g class="legendlines"><path class="js-line" d="M5,0h30" style="fill: none; stroke: rgb(255, 127, 14); stroke-opacity: 1; stroke-width: 2px;"/></g><g class="legendsymbols"><g class="legendpoints"/></g></g><rect class="legendtoggle" pointer-events="all" x="0" y="-9.5" width="96.109375" height="19" style="cursor: pointer; fill: rgb(0, 0, 0); fill-opacity: 0;"/></g><g class="traces" style="opacity: 1;" transform="translate(0, 52.5)"><text class="legendtext user-select-none" text-anchor="start" x="40" y="4.680000000000001" style="font-family: 'Open Sans', verdana, arial, sans-serif; font-size: 12px; fill: rgb(68, 68, 68); fill-opacity: 1; white-space: pre;">deceased</text><g class="layers" style="opacity: 1;"><g class="legendfill"/><g class="legendlines"><path class="js-line" d="M5,0h30" style="fill: none; stroke: rgb(44, 160, 44); stroke-opacity: 1; stroke-width: 2px;"/></g><g class="legendsymbols"><g class="legendpoints"/></g></g><rect class="legendtoggle" pointer-events="all" x="0" y="-9.5" width="96.109375" height="19" style="cursor: pointer; fill: rgb(0, 0, 0); fill-opacity: 0;"/></g></g></g><rect class="scrollbar" rx="20" ry="3" width="0" height="0" style="fill: rgb(128, 139, 164); fill-opacity: 1;" x="0" y="0"/></g><g class="g-gtitle"><text class="gtitle" x="513.5" y="12.5" text-anchor="middle" dy="0em" style="font-family: 'Open Sans', verdana, arial, sans-serif; font-size: 17px; fill: rgb(68, 68, 68); opacity: 1; font-weight: normal; white-space: pre;">Dynamics of new cases, resolved cases and deaths in Ontario (Sep 16, 2020)</text></g><g class="g-xtitle" transform="translate(0,-15)"><text class="xtitle" x="479" y="780" text-anchor="middle" style="font-family: 'Open Sans', verdana, arial, sans-serif; font-size: 14px; fill: rgb(68, 68, 68); opacity: 1; font-weight: normal; white-space: pre;">Date</text></g><g class="g-ytitle"><text class="ytitle" transform="rotate(-90,22,376.5)" x="22" y="376.5" text-anchor="middle" style="font-family: 'Open Sans', verdana, arial, sans-serif; font-size: 14px; fill: rgb(68, 68, 68); opacity: 1; font-weight: normal; white-space: pre;">Number of cases</text></g></g></svg>