<svg class="main-svg" xmlns="http://www.w3.org/2000/svg" xmlns:xlink="http://www.w3.org/1999/xlink" width="1027" height="768" style="" viewBox="0 0 1027 768"><rect x="0" y="0" width="1027" height="768" style="fill: rgb(255, 255, 255); fill-opacity: 1;"/><defs id="defs-253a82"><g class="clips"><clipPath id="clip253a82xyplot" class="plotclip"><rect width="838" height="703"/></clipPath><clipPath class="axesclip" id="clip253a82x"><rect x="60" y="0" width="838" height="768"/></clipPath><clipPath class="axesclip" id="clip253a82y"><rect x="0" y="25" width="1027" height="703"/></clipPath><clipPath class="axesclip" id="clip253a82xy"><rect x="60" y="25" width="838" height="703"/></clipPath></g><g class="gradients"/></defs><g class="bglayer"/><g class="layer-below"><g class="imagelayer"/><g class="shapelayer"/></g><g class="cartesianlayer"><g class="subplot xy"><g class="layer-subplot"><g class="shapelayer"/><g class="imagelayer"/></g><g class="gridlayer"><g class="x"><path class="xgrid crisp" transform="translate(113.78,0)" d="M0,25v703" style="stroke: rgb(238, 238, 238); stroke-opacity: 1; stroke-width: 1px;"/><path class="xgrid crisp" transform="translate(252.7,0)" d="M0,25v703" style="stroke: rgb(238, 238, 238); stroke-opacity: 1; stroke-width: 1px;"/><path class="xgrid crisp" transform="translate(387.13,0)" d="M0,25v703" style="stroke: rgb(238, 238, 238); stroke-opacity: 1; stroke-width: 1px;"/><path class="xgrid crisp" transform="translate(526.05,0)" d="M0,25v703" style="stroke: rgb(238, 238, 238); stroke-opacity: 1; stroke-width: 1px;"/><path class="xgrid crisp" transform="translate(660.49,0)" d="M0,25v703" style="stroke: rgb(238, 238, 238); stroke-opacity: 1; stroke-width: 1px;"/><path class="xgrid crisp" transform="translate(799.41,0)" d="M0,25v703" style="stroke: rgb(238, 238, 238); stroke-opacity: 1; stroke-width: 1px;"/></g><g class="y"><path class="ygrid crisp" transform="translate(0,594.39)" d="M60,0h838" style="stroke: rgb(238, 238, 238); stroke-opacity: 1; stroke-width: 1px;"/><path class="ygrid crisp" transform="translate(0,496.9)" d="M60,0h838" style="stroke: rgb(238, 238, 238); stroke-opacity: 1; stroke-width: 1px;"/><path class="ygrid crisp" transform="translate(0,399.41)" d="M60,0h838" style="stroke: rgb(238, 238, 238); stroke-opacity: 1; stroke-width: 1px;"/><path class="ygrid crisp" transform="translate(0,301.92)" d="M60,0h838" style="stroke: rgb(238, 238, 238); stroke-opacity: 1; stroke-width: 1px;"/><path class="ygrid crisp" transform="translate(0,204.43)" d="M60,0h838" style="stroke: rgb(238, 238, 238); stroke-opacity: 1; stroke-width: 1px;"/><path class="ygrid crisp" transform="translate(0,106.94)" d="M60,0h838" style="stroke: rgb(238, 238, 238); stroke-opacity: 1; stroke-width: 1px;"/></g></g><g class="zerolinelayer"><path class="yzl zl crisp" transform="translate(0,691.88)" d="M60,0h838" style="stroke: rgb(68, 68, 68); stroke-opacity: 1; stroke-width: 1px;"/></g><path class="xlines-below"/><path class="ylines-below"/><g class="overlines-below"/><g class="xaxislayer-below"/><g class="yaxislayer-below"/><g class="overaxes-below"/><g class="plot" transform="translate(60, 25)" clip-path="url('#clip253a82xyplot')"><g class="scatterlayer mlayer"><g class="trace scatter trace627ddc" style="stroke-miterlimit: 2; opacity: 1;"><g class="fills"/><g class="errorbars"/><g class="lines"><path class="js-line" d="M0,666.88L4.48,666.88L8.96,667.85L13.44,667.85L26.89,665.9L35.85,666.88L40.33,665.9L44.81,665.9L58.26,655.18L62.74,664.93L67.22,666.88L71.7,665.9L76.18,662.98L80.66,664.93L89.63,660.05L94.11,666.88L98.59,661.03L103.07,650.3L107.55,647.38L112.03,643.48L116.51,625.93L120.99,635.68L125.48,656.15L129.96,642.5L134.44,624.96L138.92,608.38L143.4,611.31L147.88,623.98L152.36,591.81L156.84,585.96L161.33,574.26L165.81,503.09L170.29,538.19L174.77,520.64L179.25,92.67L183.73,413.41L188.21,251.57L192.7,275.95L197.18,216.48L201.66,301.29L206.14,269.12L210.62,365.64L215.1,297.39L219.58,130.69L224.06,196.01L228.55,200.88L233.03,266.2L237.51,275.95L241.99,256.45L246.47,196.01L250.95,185.28L255.43,165.78L259.91,117.04L264.4,194.06L268.88,113.14L273.36,76.1L277.84,129.71L282.32,169.68L286.8,48.8L291.28,42.95L295.76,202.83L300.25,240.85L304.73,253.52L309.21,155.06L313.69,328.59L318.17,219.4L322.65,256.45L327.13,168.71L331.61,243.78L336.1,306.17L340.58,289.59L345.06,265.22L349.54,277.9L354.02,201.86L358.5,329.57L362.98,380.26L367.47,366.61L371.95,314.94L376.43,346.14L380.91,330.54L385.39,334.44L389.87,285.7L394.35,335.41L398.83,370.51L403.32,250.6L407.8,286.67L412.28,264.25L416.76,236.95L421.24,265.22L425.72,218.43L430.2,273.02L434.68,387.08L439.17,382.21L443.65,293.49L448.13,331.51L452.61,351.99L457.09,349.06L461.57,273.02L466.05,232.08L470.53,337.36L475.02,319.82L479.5,331.51L483.98,223.3L488.46,262.3L492.94,429.98L497.42,442.65L501.9,422.18L506.39,468.97L510.87,489.45L515.35,407.56L519.83,474.82L524.31,490.42L528.79,487.5L533.27,481.65L537.75,498.22L542.24,493.35L546.72,466.05L551.2,496.27L555.68,509.92L560.16,456.3L564.64,507.97L569.12,482.62L573.6,558.66L578.09,510.89L582.57,493.35L587.05,416.33L591.53,513.82L596.01,521.62L600.49,517.72L604.97,506.02L609.45,548.91L618.42,516.74L622.9,557.69L627.38,551.84L631.86,501.14L636.34,553.79L640.82,540.14L645.3,541.12L649.79,553.79L654.27,558.66L658.75,567.44L663.23,558.66L667.71,558.66L672.19,505.04L676.67,506.99L681.16,535.27L685.64,468.97L690.12,506.02L694.6,566.46L699.08,476.77L703.56,532.34L708.04,533.32L712.52,550.86L717.01,558.66L721.49,592.78L725.97,580.11L730.45,536.24L734.93,545.99L739.41,553.79L743.89,581.09L748.37,578.16L752.86,583.04L757.34,574.26L761.82,581.09L766.3,598.63L770.78,589.86L775.26,554.76L779.74,634.7L784.22,574.26L788.71,590.83L793.19,577.19L797.67,563.54L802.15,587.91L806.63,570.36L811.11,545.01L820.07,592.78L824.56,539.17L829.04,561.59L833.52,554.76L838,564.51" style="vector-effect: non-scaling-stroke; fill: none; stroke: rgb(31, 119, 180); stroke-opacity: 1; stroke-width: 2px; opacity: 1;"/></g><g class="points"/><g class="text"/></g><g class="trace scatter trace0b487e" style="stroke-miterlimit: 2; opacity: 1;"><g class="fills"/><g class="errorbars"/><g class="lines"><path class="js-line" d="M0,666.88L4.48,666.88L8.96,665.9L13.44,665.9L26.89,666.88L67.22,666.88L71.7,665.9L76.18,666.88L80.66,666.88L89.63,666.88L94.11,665.9L98.59,666.88L103.07,666.88L138.92,666.88L143.4,665.9L147.88,664.93L152.36,666.88L174.77,666.88L179.25,254.5L183.73,566.46L188.21,515.77L192.7,528.44L197.18,479.7L201.66,475.8L206.14,442.65L210.62,496.27L215.1,493.35L219.58,401.71L224.06,441.68L228.55,404.63L233.03,390.01L237.51,410.48L241.99,436.8L246.47,461.17L250.95,341.26L255.43,382.21L259.91,313.97L264.4,355.89L268.88,341.26L273.36,368.56L277.84,383.18L282.32,262.3L286.8,219.4L291.28,270.1L295.76,255.47L300.25,188.21L304.73,155.06L309.21,238.9L313.69,35.15L318.17,88.77L322.65,62.45L327.13,116.07L331.61,67.32L336.1,179.43L340.58,399.76L345.06,235L349.54,328.59L354.02,256.45L358.5,283.75L362.98,287.65L367.47,316.89L371.95,413.41L376.43,224.28L380.91,316.89L385.39,240.85L389.87,297.39L394.35,335.41L398.83,395.86L403.32,413.41L412.28,355.89L416.76,415.35L421.24,297.39L425.72,344.19L430.2,451.43L434.68,413.41L439.17,263.27L443.65,373.43L448.13,364.66L452.61,306.17L457.09,221.35L461.57,332.49L466.05,344.19L470.53,348.09L475.02,279.85L479.5,301.29L483.98,312.02L488.46,369.54L492.94,432.9L497.42,338.34L501.9,129.71L506.39,174.56L510.87,372.46L515.35,324.69L519.83,254.5L524.31,421.2L528.79,454.35L533.27,322.74L537.75,452.4L542.24,427.05L546.72,454.35L551.2,422.18L560.16,497.25L564.64,443.63L569.12,479.7L573.6,446.55L578.09,493.35L582.57,496.27L587.05,580.11L591.53,522.59L596.01,489.45L600.49,468L604.97,492.37L609.45,497.25L613.94,488.47L618.42,510.89L622.9,494.32L627.38,469.95L631.86,499.19L636.34,493.35L640.82,406.58L645.3,557.69L649.79,541.12L654.27,547.94L658.75,535.27L663.23,529.42L667.71,568.41L672.19,538.19L676.67,556.71L681.16,563.54L685.64,577.19L690.12,465.07L694.6,519.67L699.08,533.32L703.56,530.39L708.04,550.86L712.52,567.44L717.01,563.54L721.49,497.25L725.97,506.02L730.45,503.09L734.93,507.97L739.41,547.94L743.89,544.04L748.37,553.79L752.86,524.54L757.34,511.87L761.82,551.84L766.3,562.56L770.78,522.59L775.26,567.44L779.74,593.76L784.22,536.24L788.71,570.36L793.19,585.96L797.67,568.41L802.15,588.88L806.63,585.96L811.11,579.14L815.59,580.11L820.07,592.78L824.56,563.54L829.04,579.14L833.52,561.59L838,590.83" style="vector-effect: non-scaling-stroke; fill: none; stroke: rgb(255, 127, 14); stroke-opacity: 1; stroke-width: 2px; opacity: 1;"/></g><g class="points"/><g class="text"/></g><g class="trace scatter trace555945" style="stroke-miterlimit: 2; opacity: 1;"><g class="fills"/><g class="errorbars"/><g class="lines"><path class="js-line" d="M0,666.88L120.99,666.88L125.48,665.9L129.96,666.88L134.44,665.9L138.92,666.88L143.4,665.9L147.88,664.93L152.36,665.9L156.84,664.93L161.33,662L165.81,664.93L170.29,663.95L174.77,665.9L179.25,662.98L183.73,657.13L188.21,662.98L192.7,651.28L197.18,653.23L201.66,640.55L206.14,642.5L210.62,654.2L215.1,646.4L219.58,646.4L224.06,641.53L228.55,645.43L233.03,636.65L237.51,646.4L241.99,650.3L246.47,624.96L250.95,617.16L255.43,629.83L259.91,613.26L264.4,631.78L268.88,628.85L273.36,636.65L277.84,629.83L282.32,630.8L286.8,614.23L291.28,618.13L295.76,620.08L300.25,643.48L304.73,611.31L309.21,609.36L313.69,623.01L318.17,583.04L322.65,628.85L327.13,613.26L331.61,627.88L336.1,584.98L340.58,607.41L345.06,600.58L349.54,620.08L354.02,605.46L358.5,609.36L362.98,632.75L367.47,632.75L371.95,612.28L376.43,627.88L385.39,640.55L389.87,634.7L394.35,644.45L398.83,644.45L403.32,652.25L407.8,624.96L412.28,636.65L416.76,639.58L421.24,640.55L425.72,642.5L430.2,638.6L434.68,646.4L439.17,635.68L443.65,633.73L448.13,626.9L452.61,650.3L457.09,648.35L461.57,657.13L466.05,650.3L470.53,648.35L475.02,623.01L479.5,652.25L483.98,632.75L488.46,648.35L492.94,643.48L497.42,653.23L501.9,656.15L506.39,655.18L510.87,656.15L515.35,658.1L519.83,655.18L524.31,659.08L528.79,656.15L533.27,655.18L537.75,663.95L542.24,656.15L546.72,636.65L551.2,656.15L555.68,663.95L560.16,657.13L564.64,655.18L569.12,657.13L573.6,663.95L578.09,659.08L582.57,661.03L587.05,660.05L591.53,660.05L596.01,662.98L600.49,662.98L604.97,664.93L609.45,662L613.94,664.93L618.42,666.88L622.9,664.93L627.38,658.1L631.86,663.95L636.34,660.05L640.82,661.03L645.3,663.95L649.79,663.95L654.27,665.9L658.75,658.1L663.23,662L667.71,658.1L672.19,664.93L676.67,663.95L681.16,665.9L685.64,665.9L690.12,664.93L694.6,666.88L699.08,663.95L703.56,665.9L708.04,662.98L712.52,665.9L717.01,662.98L721.49,665.9L725.97,663.95L730.45,663.95L743.89,666.88L748.37,662.98L752.86,666.88L757.34,665.9L761.82,666.88L766.3,665.9L770.78,664.93L775.26,666.88L779.74,666.88L784.22,665.9L788.71,666.88L793.19,665.9L797.67,665.9L802.15,666.88L806.63,666.88L811.11,662.98L815.59,667.85L820.07,665.9L824.56,663.95L829.04,665.9L833.52,666.88L838,665.9" style="vector-effect: non-scaling-stroke; fill: none; stroke: rgb(44, 160, 44); stroke-opacity: 1; stroke-width: 2px; opacity: 1;"/></g><g class="points"/><g class="text"/></g></g></g><g class="overplot"/><path class="xlines-above crisp" style="fill: none;" d="M0,0"/><path class="ylines-above crisp" style="fill: none;" d="M0,0"/><g class="overlines-above"/><g class="xaxislayer-above"><g class="xtick"><text text-anchor="middle" x="0" y="741" transform="translate(113.78,0)" style="font-family: 'Open Sans', verdana, arial, sans-serif; font-size: 12px; fill: rgb(68, 68, 68); fill-opacity: 1; white-space: pre;">Mar 2020</text></g><g class="xtick"><text text-anchor="middle" x="0" y="741" transform="translate(252.7,0)" style="font-family: 'Open Sans', verdana, arial, sans-serif; font-size: 12px; fill: rgb(68, 68, 68); fill-opacity: 1; white-space: pre;">Apr 2020</text></g><g class="xtick"><text text-anchor="middle" x="0" y="741" transform="translate(387.13,0)" style="font-family: 'Open Sans', verdana, arial, sans-serif; font-size: 12px; fill: rgb(68, 68, 68); fill-opacity: 1; white-space: pre;">May 2020</text></g><g class="xtick"><text text-anchor="middle" x="0" y="741" transform="translate(526.05,0)" style="font-family: 'Open Sans', verdana, arial, sans-serif; font-size: 12px; fill: rgb(68, 68, 68); fill-opacity: 1; white-space: pre;">Jun 2020</text></g><g class="xtick"><text text-anchor="middle" x="0" y="741" transform="translate(660.49,0)" style="font-family: 'Open Sans', verdana, arial, sans-serif; font-size: 12px; fill: rgb(68, 68, 68); fill-opacity: 1; white-space: pre;">Jul 2020</text></g><g class="xtick"><text text-anchor="middle" x="0" y="741" transform="translate(799.41,0)" style="font-family: 'Open Sans', verdana, arial, sans-serif; font-size: 12px; fill: rgb(68, 68, 68); fill-opacity: 1; white-space: pre;">Aug 2020</text></g></g><g class="yaxislayer-above"><g class="ytick"><text text-anchor="end" x="59" y="4.199999999999999" transform="translate(0,691.88)" style="font-family: 'Open Sans', verdana, arial, sans-serif; font-size: 12px; fill: rgb(68, 68, 68); fill-opacity: 1; white-space: pre;">0</text></g><g class="ytick"><text text-anchor="end" x="59" y="4.199999999999999" transform="translate(0,594.39)" style="font-family: 'Open Sans', verdana, arial, sans-serif; font-size: 12px; fill: rgb(68, 68, 68); fill-opacity: 1; white-space: pre;">100</text></g><g class="ytick"><text text-anchor="end" x="59" y="4.199999999999999" transform="translate(0,496.9)" style="font-family: 'Open Sans', verdana, arial, sans-serif; font-size: 12px; fill: rgb(68, 68, 68); fill-opacity: 1; white-space: pre;">200</text></g><g class="ytick"><text text-anchor="end" x="59" y="4.199999999999999" transform="translate(0,399.41)" style="font-family: 'Open Sans', verdana, arial, sans-serif; font-size: 12px; fill: rgb(68, 68, 68); fill-opacity: 1; white-space: pre;">300</text></g><g class="ytick"><text text-anchor="end" x="59" y="4.199999999999999" transform="translate(0,301.92)" style="font-family: 'Open Sans', verdana, arial, sans-serif; font-size: 12px; fill: rgb(68, 68, 68); fill-opacity: 1; white-space: pre;">400</text></g><g class="ytick"><text text-anchor="end" x="59" y="4.199999999999999" transform="translate(0,204.43)" style="font-family: 'Open Sans', verdana, arial, sans-serif; font-size: 12px; fill: rgb(68, 68, 68); fill-opacity: 1; white-space: pre;">500</text></g><g class="ytick"><text text-anchor="end" x="59" y="4.199999999999999" transform="translate(0,106.94)" style="font-family: 'Open Sans', verdana, arial, sans-serif; font-size: 12px; fill: rgb(68, 68, 68); fill-opacity: 1; white-space: pre;">600</text></g></g><g class="overaxes-above"/></g></g><g class="polarlayer"/><g class="ternarylayer"/><g class="geolayer"/><g class="funnelarealayer"/><g class="pielayer"/><g class="treemaplayer"/><g class="sunburstlayer"/><g class="glimages"/><defs id="topdefs-253a82"><g class="clips"/><clipPath id="legend253a82"><rect width="102" height="67" x="0" y="0"/></clipPath></defs><g class="layer-above"><g class="imagelayer"/><g class="shapelayer"/></g><g class="infolayer"><g class="legend" pointer-events="all" transform="translate(914.76, 25)"><rect class="bg" shape-rendering="crispEdges" style="stroke: rgb(68, 68, 68); stroke-opacity: 1; fill: rgb(255, 255, 255); fill-opacity: 1; stroke-width: 0px;" width="102" height="67" x="0" y="0"/><g class="scrollbox" transform="translate(0, 0)" clip-path="url('#legend253a82')"><g class="groups"><g class="traces" style="opacity: 1;" transform="translate(0, 14.5)"><text class="legendtext user-select-none" text-anchor="start" x="40" y="4.680000000000001" style="font-family: 'Open Sans', verdana, arial, sans-serif; font-size: 12px; fill: rgb(68, 68, 68); fill-opacity: 1; white-space: pre;">positive</text><g class="layers" style="opacity: 1;"><g class="legendfill"/><g class="legendlines"><path class="js-line" d="M5,0h30" style="fill: none; stroke: rgb(31, 119, 180); stroke-opacity: 1; stroke-width: 2px;"/></g><g class="legendsymbols"><g class="legendpoints"/></g></g><rect class="legendtoggle" pointer-events="all" x="0" y="-9.5" width="96.109375" height="19" style="cursor: pointer; fill: rgb(0, 0, 0); fill-opacity: 0;"/></g><g class="traces" style="opacity: 1;" transform="translate(0, 33.5)"><text class="legendtext user-select-none" text-anchor="start" x="40" y="4.680000000000001" style="font-family: 'Open Sans', verdana, arial, sans-serif; font-size: 12px; fill: rgb(68, 68, 68); fill-opacity: 1; white-space: pre;">resolved</text><g class="layers" style="opacity: 1;"><g class="legendfill"/><g class="legendlines"><path class="js-line" d="M5,0h30" style="fill: none; stroke: rgb(255, 127, 14); stroke-opacity: 1; stroke-width: 2px;"/></g><g class="legendsymbols"><g class="legendpoints"/></g></g><rect class="legendtoggle" pointer-events="all" x="0" y="-9.5" width="96.109375" height="19" style="cursor: pointer; fill: rgb(0, 0, 0); fill-opacity: 0;"/></g><g class="traces" style="opacity: 1;" transform="translate(0, 52.5)"><text class="legendtext user-select-none" text-anchor="start" x="40" y="4.680000000000001" style="font-family: 'Open Sans', verdana, arial, sans-serif; font-size: 12px; fill: rgb(68, 68, 68); fill-opacity: 1; white-space: pre;">deceased</text><g class="layers" style="opacity: 1;"><g class="legendfill"/><g class="legendlines"><path class="js-line" d="M5,0h30" style="fill: none; stroke: rgb(44, 160, 44); stroke-opacity: 1; stroke-width: 2px;"/></g><g class="legendsymbols"><g class="legendpoints"/></g></g><rect class="legendtoggle" pointer-events="all" x="0" y="-9.5" width="96.109375" height="19" style="cursor: pointer; fill: rgb(0, 0, 0); fill-opacity: 0;"/></g></g></g><rect class="scrollbar" rx="20" ry="3" width="0" height="0" style="fill: rgb(128, 139, 164); fill-opacity: 1;" x="0" y="0"/></g><g class="g-gtitle"><text class="gtitle" x="513.5" y="12.5" text-anchor="middle" dy="0em" style="font-family: 'Open Sans', verdana, arial, sans-serif; font-size: 17px; fill: rgb(68, 68, 68); opacity: 1; font-weight: normal; white-space: pre;">Dynamics of new cases, resolved cases and deaths in Ontario (Aug 24, 2020)</text></g><g class="g-xtitle" transform="translate(0,-15)"><text class="xtitle" x="479" y="780" text-anchor="middle" style="font-family: 'Open Sans', verdana, arial, sans-serif; font-size: 14px; fill: rgb(68, 68, 68); opacity: 1; font-weight: normal; white-space: pre;">Date</text></g><g class="g-ytitle"><text class="ytitle" transform="rotate(-90,22,376.5)" x="22" y="376.5" text-anchor="middle" style="font-family: 'Open Sans', verdana, arial, sans-serif; font-size: 14px; fill: rgb(68, 68, 68); opacity: 1; font-weight: normal; white-space: pre;">Number of cases</text></g></g></svg>