<svg class="main-svg" xmlns="http://www.w3.org/2000/svg" xmlns:xlink="http://www.w3.org/1999/xlink" width="1027" height="768" style="" viewBox="0 0 1027 768"><rect x="0" y="0" width="1027" height="768" style="fill: rgb(255, 255, 255); fill-opacity: 1;"/><defs id="defs-c01972"><g class="clips"><clipPath id="clipc01972xyplot" class="plotclip"><rect width="838" height="703"/></clipPath><clipPath class="axesclip" id="clipc01972x"><rect x="60" y="0" width="838" height="768"/></clipPath><clipPath class="axesclip" id="clipc01972y"><rect x="0" y="25" width="1027" height="703"/></clipPath><clipPath class="axesclip" id="clipc01972xy"><rect x="60" y="25" width="838" height="703"/></clipPath></g><g class="gradients"/></defs><g class="bglayer"/><g class="layer-below"><g class="imagelayer"/><g class="shapelayer"/></g><g class="cartesianlayer"><g class="subplot xy"><g class="layer-subplot"><g class="shapelayer"/><g class="imagelayer"/></g><g class="gridlayer"><g class="x"><path class="xgrid crisp" transform="translate(114.65,0)" d="M0,25v703" style="stroke: rgb(238, 238, 238); stroke-opacity: 1; stroke-width: 1px;"/><path class="xgrid crisp" transform="translate(255.84,0)" d="M0,25v703" style="stroke: rgb(238, 238, 238); stroke-opacity: 1; stroke-width: 1px;"/><path class="xgrid crisp" transform="translate(392.47,0)" d="M0,25v703" style="stroke: rgb(238, 238, 238); stroke-opacity: 1; stroke-width: 1px;"/><path class="xgrid crisp" transform="translate(533.65,0)" d="M0,25v703" style="stroke: rgb(238, 238, 238); stroke-opacity: 1; stroke-width: 1px;"/><path class="xgrid crisp" transform="translate(670.28,0)" d="M0,25v703" style="stroke: rgb(238, 238, 238); stroke-opacity: 1; stroke-width: 1px;"/><path class="xgrid crisp" transform="translate(811.47,0)" d="M0,25v703" style="stroke: rgb(238, 238, 238); stroke-opacity: 1; stroke-width: 1px;"/></g><g class="y"><path class="ygrid crisp" transform="translate(0,594.39)" d="M60,0h838" style="stroke: rgb(238, 238, 238); stroke-opacity: 1; stroke-width: 1px;"/><path class="ygrid crisp" transform="translate(0,496.9)" d="M60,0h838" style="stroke: rgb(238, 238, 238); stroke-opacity: 1; stroke-width: 1px;"/><path class="ygrid crisp" transform="translate(0,399.41)" d="M60,0h838" style="stroke: rgb(238, 238, 238); stroke-opacity: 1; stroke-width: 1px;"/><path class="ygrid crisp" transform="translate(0,301.92)" d="M60,0h838" style="stroke: rgb(238, 238, 238); stroke-opacity: 1; stroke-width: 1px;"/><path class="ygrid crisp" transform="translate(0,204.43)" d="M60,0h838" style="stroke: rgb(238, 238, 238); stroke-opacity: 1; stroke-width: 1px;"/><path class="ygrid crisp" transform="translate(0,106.94)" d="M60,0h838" style="stroke: rgb(238, 238, 238); stroke-opacity: 1; stroke-width: 1px;"/></g></g><g class="zerolinelayer"><path class="yzl zl crisp" transform="translate(0,691.88)" d="M60,0h838" style="stroke: rgb(68, 68, 68); stroke-opacity: 1; stroke-width: 1px;"/></g><path class="xlines-below"/><path class="ylines-below"/><g class="overlines-below"/><g class="xaxislayer-below"/><g class="yaxislayer-below"/><g class="overaxes-below"/><g class="plot" transform="translate(60, 25)" clip-path="url('#clipc01972xyplot')"><g class="scatterlayer mlayer"><g class="trace scatter trace083b61" style="stroke-miterlimit: 2; opacity: 1;"><g class="fills"/><g class="errorbars"/><g class="lines"><path class="js-line" d="M0,666.88L4.55,666.88L9.11,667.85L13.66,667.85L27.33,665.9L36.43,666.88L40.99,665.9L45.54,665.9L59.21,655.18L63.76,664.93L68.32,666.88L72.87,665.9L77.42,662.98L81.98,664.93L91.09,660.05L95.64,666.88L100.2,661.03L104.75,650.3L109.3,647.38L113.86,643.48L118.41,625.93L122.97,635.68L127.52,656.15L132.08,642.5L136.63,624.96L141.18,608.38L145.74,611.31L150.29,623.98L154.85,591.81L159.4,585.96L163.96,574.26L168.51,503.09L173.07,538.19L177.62,520.64L182.17,92.67L186.73,413.41L191.28,251.57L195.84,275.95L200.39,216.48L204.95,301.29L209.5,269.12L214.05,365.64L218.61,297.39L223.16,130.69L227.72,196.01L232.27,200.88L236.83,266.2L241.38,275.95L245.93,256.45L250.49,196.01L255.04,185.28L259.6,165.78L264.15,117.04L268.71,194.06L273.26,113.14L277.82,76.1L282.37,129.71L286.92,169.68L291.48,48.8L296.03,42.95L300.59,202.83L305.14,240.85L309.7,253.52L314.25,155.06L318.8,328.59L323.36,219.4L327.91,256.45L332.47,168.71L337.02,243.78L341.58,306.17L346.13,289.59L350.68,265.22L355.24,277.9L359.79,201.86L364.35,329.57L368.9,380.26L373.46,366.61L378.01,314.94L382.57,346.14L387.12,330.54L391.67,334.44L396.23,285.7L400.78,335.41L405.34,370.51L409.89,250.6L414.45,286.67L419,264.25L423.55,236.95L428.11,265.22L432.66,218.43L437.22,273.02L441.77,387.08L446.33,382.21L450.88,293.49L455.43,331.51L459.99,351.99L464.54,349.06L469.1,273.02L473.65,232.08L478.21,337.36L482.76,319.82L487.32,331.51L491.87,223.3L496.42,262.3L500.98,429.98L505.53,442.65L510.09,422.18L514.64,468.97L519.2,489.45L523.75,407.56L528.3,474.82L532.86,490.42L537.41,487.5L541.97,481.65L546.52,498.22L551.08,493.35L555.63,466.05L560.18,496.27L564.74,509.92L569.29,456.3L573.85,507.97L578.4,482.62L582.96,558.66L587.51,510.89L592.07,493.35L596.62,416.33L601.17,513.82L605.73,521.62L610.28,517.72L614.84,506.02L619.39,548.91L628.5,516.74L633.05,557.69L637.61,551.84L642.16,501.14L646.72,553.79L651.27,540.14L655.83,541.12L660.38,553.79L664.93,558.66L669.49,567.44L674.04,558.66L678.6,558.66L683.15,505.04L687.71,506.99L692.26,535.27L696.82,468.97L701.37,506.02L705.92,566.46L710.48,476.77L715.03,532.34L719.59,533.32L724.14,550.86L728.7,558.66L733.25,592.78L737.8,580.11L742.36,536.24L746.91,545.99L751.47,553.79L756.02,581.09L760.58,578.16L765.13,583.04L769.68,574.26L774.24,581.09L778.79,598.63L783.35,589.86L787.9,554.76L792.46,634.7L797.01,574.26L801.57,590.83L806.12,577.19L810.67,563.54L815.23,587.91L819.78,570.36L824.34,545.01L833.45,592.78L838,539.17" style="vector-effect: non-scaling-stroke; fill: none; stroke: rgb(31, 119, 180); stroke-opacity: 1; stroke-width: 2px; opacity: 1;"/></g><g class="points"/><g class="text"/></g><g class="trace scatter trace0ef7e1" style="stroke-miterlimit: 2; opacity: 1;"><g class="fills"/><g class="errorbars"/><g class="lines"><path class="js-line" d="M0,666.88L4.55,666.88L9.11,665.9L13.66,665.9L27.33,666.88L68.32,666.88L72.87,665.9L77.42,666.88L81.98,666.88L91.09,666.88L95.64,665.9L100.2,666.88L104.75,666.88L141.18,666.88L145.74,665.9L150.29,664.93L154.85,666.88L177.62,666.88L182.17,254.5L186.73,566.46L191.28,515.77L195.84,528.44L200.39,479.7L204.95,475.8L209.5,442.65L214.05,496.27L218.61,493.35L223.16,401.71L227.72,441.68L232.27,404.63L236.83,390.01L241.38,410.48L245.93,436.8L250.49,461.17L255.04,341.26L259.6,382.21L264.15,313.97L268.71,355.89L273.26,341.26L277.82,368.56L282.37,383.18L286.92,262.3L291.48,219.4L296.03,270.1L300.59,255.47L305.14,188.21L309.7,155.06L314.25,238.9L318.8,35.15L323.36,88.77L327.91,62.45L332.47,116.07L337.02,67.32L341.58,179.43L346.13,399.76L350.68,235L355.24,328.59L359.79,256.45L364.35,283.75L368.9,287.65L373.46,316.89L378.01,413.41L382.57,224.28L387.12,316.89L391.67,240.85L396.23,297.39L400.78,335.41L405.34,395.86L409.89,413.41L419,355.89L423.55,415.35L428.11,297.39L432.66,344.19L437.22,451.43L441.77,413.41L446.33,263.27L450.88,373.43L455.43,364.66L459.99,306.17L464.54,221.35L469.1,332.49L473.65,344.19L478.21,348.09L482.76,279.85L487.32,301.29L491.87,312.02L496.42,369.54L500.98,432.9L505.53,338.34L510.09,129.71L514.64,174.56L519.2,372.46L523.75,324.69L528.3,254.5L532.86,421.2L537.41,454.35L541.97,322.74L546.52,452.4L551.08,427.05L555.63,454.35L560.18,422.18L569.29,497.25L573.85,443.63L578.4,479.7L582.96,446.55L587.51,493.35L592.07,496.27L596.62,580.11L601.17,522.59L605.73,489.45L610.28,468L614.84,492.37L619.39,497.25L623.95,488.47L628.5,510.89L633.05,494.32L637.61,469.95L642.16,499.19L646.72,493.35L651.27,406.58L655.83,557.69L660.38,541.12L664.93,547.94L669.49,535.27L674.04,529.42L678.6,568.41L683.15,538.19L687.71,556.71L692.26,563.54L696.82,577.19L701.37,465.07L705.92,519.67L710.48,533.32L715.03,530.39L719.59,550.86L724.14,567.44L728.7,563.54L733.25,497.25L737.8,506.02L742.36,503.09L746.91,507.97L751.47,547.94L756.02,544.04L760.58,553.79L765.13,524.54L769.68,511.87L774.24,551.84L778.79,562.56L783.35,522.59L787.9,567.44L792.46,593.76L797.01,536.24L801.57,570.36L806.12,585.96L810.67,568.41L815.23,588.88L819.78,585.96L824.34,579.14L828.89,580.11L833.45,592.78L838,563.54" style="vector-effect: non-scaling-stroke; fill: none; stroke: rgb(255, 127, 14); stroke-opacity: 1; stroke-width: 2px; opacity: 1;"/></g><g class="points"/><g class="text"/></g><g class="trace scatter trace90cac6" style="stroke-miterlimit: 2; opacity: 1;"><g class="fills"/><g class="errorbars"/><g class="lines"><path class="js-line" d="M0,666.88L122.97,666.88L127.52,665.9L132.08,666.88L136.63,665.9L141.18,666.88L145.74,665.9L150.29,664.93L154.85,665.9L159.4,664.93L163.96,662L168.51,664.93L173.07,663.95L177.62,665.9L182.17,662.98L186.73,657.13L191.28,662.98L195.84,651.28L200.39,653.23L204.95,640.55L209.5,642.5L214.05,654.2L218.61,646.4L223.16,646.4L227.72,641.53L232.27,645.43L236.83,636.65L241.38,646.4L245.93,650.3L250.49,624.96L255.04,617.16L259.6,629.83L264.15,613.26L268.71,631.78L273.26,628.85L277.82,636.65L282.37,629.83L286.92,630.8L291.48,614.23L296.03,618.13L300.59,620.08L305.14,643.48L309.7,611.31L314.25,609.36L318.8,623.01L323.36,583.04L327.91,628.85L332.47,613.26L337.02,627.88L341.58,584.98L346.13,607.41L350.68,600.58L355.24,620.08L359.79,605.46L364.35,609.36L368.9,632.75L373.46,632.75L378.01,612.28L382.57,627.88L391.67,640.55L396.23,634.7L400.78,644.45L405.34,644.45L409.89,652.25L414.45,624.96L419,636.65L423.55,639.58L428.11,640.55L432.66,642.5L437.22,638.6L441.77,646.4L446.33,635.68L450.88,633.73L455.43,626.9L459.99,650.3L464.54,648.35L469.1,657.13L473.65,650.3L478.21,648.35L482.76,623.01L487.32,652.25L491.87,632.75L496.42,648.35L500.98,643.48L505.53,653.23L510.09,656.15L514.64,655.18L519.2,656.15L523.75,658.1L528.3,655.18L532.86,659.08L537.41,656.15L541.97,655.18L546.52,663.95L551.08,656.15L555.63,636.65L560.18,656.15L564.74,663.95L569.29,657.13L573.85,655.18L578.4,657.13L582.96,663.95L587.51,659.08L592.07,661.03L596.62,660.05L601.17,660.05L605.73,662.98L610.28,662.98L614.84,664.93L619.39,662L623.95,664.93L628.5,666.88L633.05,664.93L637.61,658.1L642.16,663.95L646.72,660.05L651.27,661.03L655.83,663.95L660.38,663.95L664.93,665.9L669.49,658.1L674.04,662L678.6,658.1L683.15,664.93L687.71,663.95L692.26,665.9L696.82,665.9L701.37,664.93L705.92,666.88L710.48,663.95L715.03,665.9L719.59,662.98L724.14,665.9L728.7,662.98L733.25,665.9L737.8,663.95L742.36,663.95L756.02,666.88L760.58,662.98L765.13,666.88L769.68,665.9L774.24,666.88L778.79,665.9L783.35,664.93L787.9,666.88L792.46,666.88L797.01,665.9L801.57,666.88L806.12,665.9L810.67,665.9L815.23,666.88L819.78,666.88L824.34,662.98L828.89,667.85L833.45,665.9L838,663.95" style="vector-effect: non-scaling-stroke; fill: none; stroke: rgb(44, 160, 44); stroke-opacity: 1; stroke-width: 2px; opacity: 1;"/></g><g class="points"/><g class="text"/></g></g></g><g class="overplot"/><path class="xlines-above crisp" style="fill: none;" d="M0,0"/><path class="ylines-above crisp" style="fill: none;" d="M0,0"/><g class="overlines-above"/><g class="xaxislayer-above"><g class="xtick"><text text-anchor="middle" x="0" y="741" transform="translate(114.65,0)" style="font-family: 'Open Sans', verdana, arial, sans-serif; font-size: 12px; fill: rgb(68, 68, 68); fill-opacity: 1; white-space: pre;">Mar 2020</text></g><g class="xtick"><text text-anchor="middle" x="0" y="741" transform="translate(255.84,0)" style="font-family: 'Open Sans', verdana, arial, sans-serif; font-size: 12px; fill: rgb(68, 68, 68); fill-opacity: 1; white-space: pre;">Apr 2020</text></g><g class="xtick"><text text-anchor="middle" x="0" y="741" transform="translate(392.47,0)" style="font-family: 'Open Sans', verdana, arial, sans-serif; font-size: 12px; fill: rgb(68, 68, 68); fill-opacity: 1; white-space: pre;">May 2020</text></g><g class="xtick"><text text-anchor="middle" x="0" y="741" transform="translate(533.65,0)" style="font-family: 'Open Sans', verdana, arial, sans-serif; font-size: 12px; fill: rgb(68, 68, 68); fill-opacity: 1; white-space: pre;">Jun 2020</text></g><g class="xtick"><text text-anchor="middle" x="0" y="741" transform="translate(670.28,0)" style="font-family: 'Open Sans', verdana, arial, sans-serif; font-size: 12px; fill: rgb(68, 68, 68); fill-opacity: 1; white-space: pre;">Jul 2020</text></g><g class="xtick"><text text-anchor="middle" x="0" y="741" transform="translate(811.47,0)" style="font-family: 'Open Sans', verdana, arial, sans-serif; font-size: 12px; fill: rgb(68, 68, 68); fill-opacity: 1; white-space: pre;">Aug 2020</text></g></g><g class="yaxislayer-above"><g class="ytick"><text text-anchor="end" x="59" y="4.199999999999999" transform="translate(0,691.88)" style="font-family: 'Open Sans', verdana, arial, sans-serif; font-size: 12px; fill: rgb(68, 68, 68); fill-opacity: 1; white-space: pre;">0</text></g><g class="ytick"><text text-anchor="end" x="59" y="4.199999999999999" transform="translate(0,594.39)" style="font-family: 'Open Sans', verdana, arial, sans-serif; font-size: 12px; fill: rgb(68, 68, 68); fill-opacity: 1; white-space: pre;">100</text></g><g class="ytick"><text text-anchor="end" x="59" y="4.199999999999999" transform="translate(0,496.9)" style="font-family: 'Open Sans', verdana, arial, sans-serif; font-size: 12px; fill: rgb(68, 68, 68); fill-opacity: 1; white-space: pre;">200</text></g><g class="ytick"><text text-anchor="end" x="59" y="4.199999999999999" transform="translate(0,399.41)" style="font-family: 'Open Sans', verdana, arial, sans-serif; font-size: 12px; fill: rgb(68, 68, 68); fill-opacity: 1; white-space: pre;">300</text></g><g class="ytick"><text text-anchor="end" x="59" y="4.199999999999999" transform="translate(0,301.92)" style="font-family: 'Open Sans', verdana, arial, sans-serif; font-size: 12px; fill: rgb(68, 68, 68); fill-opacity: 1; white-space: pre;">400</text></g><g class="ytick"><text text-anchor="end" x="59" y="4.199999999999999" transform="translate(0,204.43)" style="font-family: 'Open Sans', verdana, arial, sans-serif; font-size: 12px; fill: rgb(68, 68, 68); fill-opacity: 1; white-space: pre;">500</text></g><g class="ytick"><text text-anchor="end" x="59" y="4.199999999999999" transform="translate(0,106.94)" style="font-family: 'Open Sans', verdana, arial, sans-serif; font-size: 12px; fill: rgb(68, 68, 68); fill-opacity: 1; white-space: pre;">600</text></g></g><g class="overaxes-above"/></g></g><g class="polarlayer"/><g class="ternarylayer"/><g class="geolayer"/><g class="funnelarealayer"/><g class="pielayer"/><g class="treemaplayer"/><g class="sunburstlayer"/><g class="glimages"/><defs id="topdefs-c01972"><g class="clips"/><clipPath id="legendc01972"><rect width="102" height="67" x="0" y="0"/></clipPath></defs><g class="layer-above"><g class="imagelayer"/><g class="shapelayer"/></g><g class="infolayer"><g class="legend" pointer-events="all" transform="translate(914.76, 25)"><rect class="bg" shape-rendering="crispEdges" style="stroke: rgb(68, 68, 68); stroke-opacity: 1; fill: rgb(255, 255, 255); fill-opacity: 1; stroke-width: 0px;" width="102" height="67" x="0" y="0"/><g class="scrollbox" transform="translate(0, 0)" clip-path="url('#legendc01972')"><g class="groups"><g class="traces" style="opacity: 1;" transform="translate(0, 14.5)"><text class="legendtext user-select-none" text-anchor="start" x="40" y="4.680000000000001" style="font-family: 'Open Sans', verdana, arial, sans-serif; font-size: 12px; fill: rgb(68, 68, 68); fill-opacity: 1; white-space: pre;">positive</text><g class="layers" style="opacity: 1;"><g class="legendfill"/><g class="legendlines"><path class="js-line" d="M5,0h30" style="fill: none; stroke: rgb(31, 119, 180); stroke-opacity: 1; stroke-width: 2px;"/></g><g class="legendsymbols"><g class="legendpoints"/></g></g><rect class="legendtoggle" pointer-events="all" x="0" y="-9.5" width="96.109375" height="19" style="cursor: pointer; fill: rgb(0, 0, 0); fill-opacity: 0;"/></g><g class="traces" style="opacity: 1;" transform="translate(0, 33.5)"><text class="legendtext user-select-none" text-anchor="start" x="40" y="4.680000000000001" style="font-family: 'Open Sans', verdana, arial, sans-serif; font-size: 12px; fill: rgb(68, 68, 68); fill-opacity: 1; white-space: pre;">resolved</text><g class="layers" style="opacity: 1;"><g class="legendfill"/><g class="legendlines"><path class="js-line" d="M5,0h30" style="fill: none; stroke: rgb(255, 127, 14); stroke-opacity: 1; stroke-width: 2px;"/></g><g class="legendsymbols"><g class="legendpoints"/></g></g><rect class="legendtoggle" pointer-events="all" x="0" y="-9.5" width="96.109375" height="19" style="cursor: pointer; fill: rgb(0, 0, 0); fill-opacity: 0;"/></g><g class="traces" style="opacity: 1;" transform="translate(0, 52.5)"><text class="legendtext user-select-none" text-anchor="start" x="40" y="4.680000000000001" style="font-family: 'Open Sans', verdana, arial, sans-serif; font-size: 12px; fill: rgb(68, 68, 68); fill-opacity: 1; white-space: pre;">deceased</text><g class="layers" style="opacity: 1;"><g class="legendfill"/><g class="legendlines"><path class="js-line" d="M5,0h30" style="fill: none; stroke: rgb(44, 160, 44); stroke-opacity: 1; stroke-width: 2px;"/></g><g class="legendsymbols"><g class="legendpoints"/></g></g><rect class="legendtoggle" pointer-events="all" x="0" y="-9.5" width="96.109375" height="19" style="cursor: pointer; fill: rgb(0, 0, 0); fill-opacity: 0;"/></g></g></g><rect class="scrollbar" rx="20" ry="3" width="0" height="0" style="fill: rgb(128, 139, 164); fill-opacity: 1;" x="0" y="0"/></g><g class="g-gtitle"><text class="gtitle" x="513.5" y="12.5" text-anchor="middle" dy="0em" style="font-family: 'Open Sans', verdana, arial, sans-serif; font-size: 17px; fill: rgb(68, 68, 68); opacity: 1; font-weight: normal; white-space: pre;">Dynamics of new cases, resolved cases and deaths in Ontario (Aug 21, 2020)</text></g><g class="g-xtitle" transform="translate(0,-15)"><text class="xtitle" x="479" y="780" text-anchor="middle" style="font-family: 'Open Sans', verdana, arial, sans-serif; font-size: 14px; fill: rgb(68, 68, 68); opacity: 1; font-weight: normal; white-space: pre;">Date</text></g><g class="g-ytitle"><text class="ytitle" transform="rotate(-90,22,376.5)" x="22" y="376.5" text-anchor="middle" style="font-family: 'Open Sans', verdana, arial, sans-serif; font-size: 14px; fill: rgb(68, 68, 68); opacity: 1; font-weight: normal; white-space: pre;">Number of cases</text></g></g></svg>