<svg class="main-svg" xmlns="http://www.w3.org/2000/svg" xmlns:xlink="http://www.w3.org/1999/xlink" width="1027" height="768" style="" viewBox="0 0 1027 768"><rect x="0" y="0" width="1027" height="768" style="fill: rgb(255, 255, 255); fill-opacity: 1;"/><defs id="defs-f5a8e9"><g class="clips"><clipPath id="clipf5a8e9xyplot" class="plotclip"><rect width="838" height="703"/></clipPath><clipPath class="axesclip" id="clipf5a8e9x"><rect x="60" y="0" width="838" height="768"/></clipPath><clipPath class="axesclip" id="clipf5a8e9y"><rect x="0" y="25" width="1027" height="703"/></clipPath><clipPath class="axesclip" id="clipf5a8e9xy"><rect x="60" y="25" width="838" height="703"/></clipPath></g><g class="gradients"/></defs><g class="bglayer"/><g class="layer-below"><g class="imagelayer"/><g class="shapelayer"/></g><g class="cartesianlayer"><g class="subplot xy"><g class="layer-subplot"><g class="shapelayer"/><g class="imagelayer"/></g><g class="gridlayer"><g class="x"><path class="xgrid crisp" transform="translate(81.53,0)" d="M0,25v703" style="stroke: rgb(238, 238, 238); stroke-opacity: 1; stroke-width: 1px;"/><path class="xgrid crisp" transform="translate(190.99,0)" d="M0,25v703" style="stroke: rgb(238, 238, 238); stroke-opacity: 1; stroke-width: 1px;"/><path class="xgrid crisp" transform="translate(300.45,0)" d="M0,25v703" style="stroke: rgb(238, 238, 238); stroke-opacity: 1; stroke-width: 1px;"/><path class="xgrid crisp" transform="translate(411.71,0)" d="M0,25v703" style="stroke: rgb(238, 238, 238); stroke-opacity: 1; stroke-width: 1px;"/><path class="xgrid crisp" transform="translate(521.1700000000001,0)" d="M0,25v703" style="stroke: rgb(238, 238, 238); stroke-opacity: 1; stroke-width: 1px;"/><path class="xgrid crisp" transform="translate(630.63,0)" d="M0,25v703" style="stroke: rgb(238, 238, 238); stroke-opacity: 1; stroke-width: 1px;"/><path class="xgrid crisp" transform="translate(736.5,0)" d="M0,25v703" style="stroke: rgb(238, 238, 238); stroke-opacity: 1; stroke-width: 1px;"/><path class="xgrid crisp" transform="translate(845.96,0)" d="M0,25v703" style="stroke: rgb(238, 238, 238); stroke-opacity: 1; stroke-width: 1px;"/></g><g class="y"><path class="ygrid crisp" transform="translate(0,561.26)" d="M60,0h838" style="stroke: rgb(238, 238, 238); stroke-opacity: 1; stroke-width: 1px;"/><path class="ygrid crisp" transform="translate(0,429.81)" d="M60,0h838" style="stroke: rgb(238, 238, 238); stroke-opacity: 1; stroke-width: 1px;"/><path class="ygrid crisp" transform="translate(0,298.35)" d="M60,0h838" style="stroke: rgb(238, 238, 238); stroke-opacity: 1; stroke-width: 1px;"/><path class="ygrid crisp" transform="translate(0,166.89)" d="M60,0h838" style="stroke: rgb(238, 238, 238); stroke-opacity: 1; stroke-width: 1px;"/><path class="ygrid crisp" transform="translate(0,35.44)" d="M60,0h838" style="stroke: rgb(238, 238, 238); stroke-opacity: 1; stroke-width: 1px;"/></g></g><g class="zerolinelayer"><path class="yzl zl crisp" transform="translate(0,692.72)" d="M60,0h838" style="stroke: rgb(68, 68, 68); stroke-opacity: 1; stroke-width: 1px;"/></g><path class="xlines-below"/><path class="ylines-below"/><g class="overlines-below"/><g class="xaxislayer-below"/><g class="yaxislayer-below"/><g class="overaxes-below"/><g class="plot" transform="translate(60, 25)" clip-path="url('#clipf5a8e9xyplot')"><g class="scatterlayer mlayer"><g class="trace scatter tracee3a8bb" style="stroke-miterlimit: 2; opacity: 1;"><g class="fills"/><g class="errorbars"/><g class="lines"><path class="js-line" d="M0,667.72L17.94,667.59L23.33,666.14L25.12,667.46L26.92,667.72L35.89,666.8L37.68,667.72L44.86,664.56L46.66,662.2L48.45,663.51L50.24,666.27L55.63,659.83L57.42,660.23L59.22,661.93L61.01,657.6L64.6,655.23L66.39,645.63L68.19,650.37L69.98,648L71.78,590.29L73.57,633.54L75.37,611.72L77.16,615L78.96,606.99L80.75,618.42L82.54,614.08L84.34,627.1L86.13,617.9L87.93,595.42L89.72,604.23L91.52,604.88L93.31,613.69L95.1,615L96.9,612.38L98.69,604.23L100.49,602.78L102.28,600.15L104.08,593.58L105.87,603.96L107.67,593.05L109.46,588.06L113.05,600.68L114.84,584.38L116.64,583.59L118.43,605.15L120.23,610.27L122.02,611.98L123.82,598.7L125.61,622.1L127.4,607.38L129.2,612.38L130.99,600.54L132.79,610.67L134.58,619.08L136.38,616.84L138.17,613.56L139.97,615.27L141.76,605.01L143.55,622.23L145.35,629.07L147.14,627.23L148.94,620.26L150.73,624.47L152.53,622.37L154.32,622.89L156.12,616.32L157.91,623.02L159.7,627.76L161.5,611.59L163.29,616.45L165.09,613.43L166.88,609.75L168.68,613.56L170.47,607.25L172.27,614.61L174.06,629.99L175.85,629.33L177.65,617.37L179.44,622.5L181.24,625.26L183.03,624.86L184.83,614.61L186.62,609.09L188.42,623.29L190.21,620.92L192,622.5L193.8,607.91L195.59,613.16L197.39,635.77L199.18,637.48L200.98,634.72L202.77,641.03L204.57,643.79L206.36,632.75L208.15,641.82L209.95,643.92L211.74,643.53L213.54,642.74L215.33,644.98L217.13,644.32L218.92,640.64L220.72,644.71L222.51,646.55L224.3,639.32L226.1,646.29L227.89,642.87L229.69,653.13L231.48,646.69L233.28,644.32L235.07,633.93L236.87,647.08L238.66,648.13L240.45,647.61L242.25,646.03L244.04,651.81L247.63,647.47L249.43,653L251.22,652.21L253.01,645.37L254.81,652.47L256.6,650.63L258.4,650.76L260.19,652.47L263.78,654.31L265.58,653.13L267.37,653.13L269.16,645.9L270.96,646.16L272.75,649.97L274.55,641.03L276.34,646.03L278.14,654.18L279.93,642.08L281.73,649.58L283.52,649.71L285.31,652.08L287.11,653.13L288.9,657.73L290.7,656.02L292.49,650.1L294.29,651.42L296.08,652.47L297.88,656.15L299.67,655.76L301.46,656.41L303.26,655.23L305.05,656.15L306.85,658.52L308.64,657.33L310.44,652.6L312.23,663.38L314.03,655.23L315.82,657.46L319.41,653.78L321.2,657.07L324.79,651.29L326.59,654.31L328.38,657.73L330.18,650.5L331.97,653.52L333.76,652.6L339.15,656.15L340.94,652.21L342.74,651.68L344.53,648.26L346.33,653L348.12,652.73L349.91,653L351.71,650.23L353.5,650.37L355.3,648.26L357.09,645.5L358.89,646.95L360.68,642.74L362.48,643.4L364.27,648.13L366.06,645.37L367.86,639.72L369.65,637.22L371.45,640.9L373.24,626.57L375.04,634.72L376.83,626.31L378.63,629.2L380.42,615L382.21,614.22L384.01,619.74L387.6,604.88L389.39,623.68L391.19,613.95L392.98,613.95L394.78,610.53L396.57,603.17L398.36,575.7L400.16,594.89L401.95,585.56L403.75,596.99L405.54,571.49L407.34,581.88L409.13,593.31L410.93,586.87L412.72,595.68L414.51,591.08L418.1,544.28L419.9,561.37L421.69,582.4L423.49,561.63L425.28,569.65L427.07,572.94L428.87,564.79L430.66,574.12L432.46,561.9L434.25,581.22L436.05,575.17L437.84,559.79L439.64,563.87L441.43,557.16L443.22,559.14L445.02,539.15L446.81,530.74L448.61,555.85L450.4,559L452.2,558.08L453.99,544.94L455.79,549.93L457.58,534.29L459.37,539.29L461.17,543.1L462.96,529.69L464.76,537.97L466.55,536.52L468.35,535.87L470.14,518.91L471.94,493.14L473.73,504.45L475.52,485.26L477.32,480.26L479.11,460.67L480.91,484.21L482.7,459.89L484.5,503.66L486.29,472.24L488.09,503.53L489.88,481.44L491.67,508.66L495.26,458.97L497.06,466.06L498.85,458.83L500.65,535.08L502.44,487.23L504.24,473.43L506.03,423.87L507.82,428.2L509.62,443.19L511.41,438.2L513.21,443.32L515,441.22L516.8,427.94L518.59,433.73L522.18,414.8L523.97,414.66L525.77,447.4L527.56,419.27L529.36,407.04L531.15,424.79L532.95,421.5L534.74,447.27L538.33,368.66L540.12,386.53L541.92,348.02L543.71,366.68L545.51,357.88L547.3,363.27L549.1,388.64L550.89,378.25L552.69,351.17L554.48,346.04L556.27,383.9L558.07,386.14L559.86,404.15L561.66,412.82L565.25,283.47L567.04,230.23L568.84,342.23L570.63,225.63L572.42,278.08L574.22,237.86L576.01,256.52L577.81,238.38L579.6,205.12L581.4,109.16L583.19,215.11L584.99,149.12L588.57,286.1L590.37,278.48L592.16,230.49L593.96,273.61L595.75,265.99L597.55,217.87L601.13,416.24L602.93,318.7L604.72,321.73L606.52,317.78L608.31,357.61L610.11,349.99L611.9,410.33L613.7,438.98L615.49,448.19L617.28,392.58L619.08,426.23L620.87,396.52L622.67,424.79L624.46,408.88L626.26,569.78L628.05,513.65L629.85,462.25L631.64,448.19L633.43,485.26L635.23,471.98L638.82,533.37L640.61,526.8L642.41,543.49L644.2,526.27L646,496.83L647.79,538.76L649.58,540.99L651.38,548.88L653.17,556.37L654.97,531.27L658.56,506.29L660.35,524.83L662.15,528.64L663.94,539.55L667.53,518.12L669.32,502.35L671.12,511.94L672.91,528.11L674.71,533.24L676.5,540.73L678.3,541.78L680.09,537.05L681.88,503.4L683.68,537.58L687.27,453.31L689.06,511.94L690.86,494.72L692.65,524.17L694.45,487.49L696.24,474.74L698.03,438.06L699.83,501.03L701.62,526.53L703.42,469.48L705.21,463.57L707.01,438.33L708.8,427.28L710.6,432.28L712.39,444.37L714.18,464.49L715.98,461.2L717.77,354.85L719.57,382.59L721.36,345.26L723.16,345.91L724.95,392.45L726.75,360.64L728.54,361.03L730.33,331.58L732.13,261.65L733.92,272.17L735.72,267.96L737.51,281.5L739.31,264.8L741.1,245.09L742.9,234.57L744.69,112.05L746.48,166.48L748.28,81.95L750.07,89.18L751.87,185.27L753.66,121.39L755.46,45.14L757.25,35.15L759.04,94.31L760.84,109.03L762.63,83.13L764.43,211.7L766.22,114.02L768.02,183.7L769.81,75.51L771.61,129.54L773.4,148.86L775.19,206.31L776.99,238.51L778.78,210.25L780.58,158.85L782.37,156.75L784.17,224.84L785.96,177.12L787.76,216.03L789.55,300.82L791.34,281.11L793.14,217.61L796.73,291.23L798.52,244.95L802.11,395.21L803.91,362.74L805.7,305.03L807.49,357.22L809.29,328.04L811.08,378.65L812.88,382.46L814.67,455.28L816.47,458.97L818.26,352.22L820.06,419.27L821.85,431.89L823.64,445.43L825.44,477.63L827.23,531.14L829.03,523.77L830.82,518.52L832.62,500.37L834.41,528.77L836.21,531.92L838,547.3" style="vector-effect: non-scaling-stroke; fill: none; stroke: rgb(31, 119, 180); stroke-opacity: 1; stroke-width: 2px; opacity: 1;"/></g><g class="points"/><g class="text"/></g><g class="trace scatter trace6b53bc" style="stroke-miterlimit: 2; opacity: 1;"><g class="fills"/><g class="errorbars"/><g class="lines"><path class="js-line" d="M0,667.72L69.98,667.72L71.78,612.11L73.57,654.18L75.37,647.34L77.16,649.05L78.96,642.48L80.75,641.95L82.54,637.48L84.34,644.71L86.13,644.32L87.93,631.96L89.72,637.35L91.52,632.36L93.31,630.38L98.69,639.98L100.49,623.81L102.28,629.33L104.08,620.13L105.87,625.78L107.67,623.81L111.25,629.46L113.05,613.16L114.84,607.38L116.64,614.22L118.43,612.24L120.23,603.17L122.02,598.7L123.82,610.01L125.61,582.53L127.4,589.76L129.2,586.22L130.99,593.45L132.79,586.87L134.58,601.99L136.38,631.7L138.17,609.48L139.97,622.1L141.76,612.38L143.55,616.06L145.35,616.58L147.14,620.53L148.94,633.54L150.73,608.04L152.53,620.53L154.32,610.27L156.12,617.9L157.91,623.02L159.7,631.17L161.5,633.54L163.29,629.33L165.09,625.78L166.88,633.8L168.68,617.9L170.47,624.21L172.27,638.67L174.06,633.54L175.85,613.3L177.65,628.15L179.44,626.97L181.24,619.08L183.03,607.64L184.83,622.63L186.62,624.21L188.42,624.73L190.21,615.53L192,618.42L193.8,619.87L195.59,627.62L197.39,636.17L199.18,623.42L200.98,595.29L202.77,601.33L204.57,628.02L206.36,621.58L208.15,612.11L209.95,634.59L211.74,639.06L213.54,621.31L215.33,638.8L217.13,635.38L218.92,639.06L220.72,634.72L224.3,644.85L226.1,637.62L227.89,642.48L229.69,638.01L231.48,644.32L233.28,644.71L235.07,656.02L236.87,648.26L240.45,640.9L242.25,644.19L244.04,644.85L245.84,643.66L247.63,646.69L249.43,644.45L251.22,641.16L253.01,645.11L254.81,644.32L256.6,632.62L258.4,653L260.19,650.76L261.99,651.68L263.78,649.97L265.58,649.18L267.37,654.44L269.16,650.37L270.96,652.86L272.75,653.78L274.55,655.62L276.34,640.51L278.14,647.87L279.93,649.71L281.73,649.31L285.31,654.31L287.11,653.78L288.9,644.85L290.7,646.03L292.49,645.63L294.29,646.29L296.08,651.68L297.88,651.16L299.67,652.47L301.46,648.53L303.26,646.82L305.05,652.21L306.85,653.65L308.64,648.26L312.23,657.86L314.03,650.1L315.82,654.7L317.61,656.81L319.41,654.44L321.2,657.2L326.59,656.02L328.38,657.73L330.18,653.78L331.97,655.89L333.76,653.52L335.56,657.46L337.35,657.86L339.15,652.6L340.94,657.6L342.74,656.81L344.53,654.18L346.33,657.46L348.12,658.12L349.91,655.62L351.71,649.71L353.5,652.08L355.3,652.47L357.09,653.78L362.48,652.08L364.27,649.84L366.06,649.05L367.86,651.42L369.65,652.08L371.45,651.42L373.24,650.23L375.04,652.34L378.63,644.19L380.42,644.58L382.21,644.45L384.01,642.61L385.8,644.32L387.6,641.95L389.39,633.8L391.19,630.12L392.98,630.52L394.78,623.29L396.57,629.73L398.36,624.21L400.16,625.26L401.95,607.64L403.75,600.02L405.54,611.46L407.34,610.53L409.13,597.52L412.72,595.94L414.51,574.78L416.31,576.36L418.1,572.54L419.9,575.7L421.69,575.04L425.28,585.69L427.07,564.79L428.87,565.31L430.66,573.99L432.46,578.07L434.25,577.67L436.05,587.92L437.84,585.16L439.64,573.2L441.43,570.31L443.22,571.36L445.02,585.56L446.81,570.97L448.61,578.46L450.4,576.88L452.2,566.1L453.99,559.92L455.79,563.08L457.58,562.82L459.37,554.14L461.17,559.14L462.96,557.69L464.76,543.49L466.55,543.1L468.35,542.97L470.14,555.72L471.94,552.43L473.73,559.79L475.52,565.05L477.32,551.25L479.11,547.17L480.91,533.9L482.7,535.87L484.5,528.11L486.29,537.31L488.09,518.52L489.88,471.19L491.67,486.83L493.47,481.71L495.26,488.54L498.85,472.64L500.65,525.48L502.44,473.69L504.24,488.28L507.82,469.22L509.62,478.03L511.41,494.2L513.21,487.23L515,446.08L516.8,465.14L518.59,463.57L520.39,454.23L522.18,460.81L523.97,482.1L525.77,464.09L527.56,414.8L529.36,430.57L531.15,437.28L532.95,415.59L534.74,447.13L536.54,465.93L538.33,429.78L540.12,399.15L541.92,403.62L543.71,405.86L545.51,422.55L547.3,413.88L549.1,450.29L552.69,372.86L554.48,403.1L556.27,373.65L558.07,416.24L559.86,404.15L561.66,384.96L563.45,374.18L565.25,373.65L567.04,376.81L568.84,344.34L570.63,397.71L572.42,381.8L576.01,402.83L577.81,272.69L579.6,302.8L581.4,307.79L583.19,284.52L584.99,339.6L586.78,305.42L588.57,226.94L590.37,221.82L592.16,195.4L595.75,245.48L597.55,263.1L599.34,296.22L601.13,290.04L602.93,179.49L604.72,274.66L606.52,224.05L608.31,270.06L613.7,370.5L615.49,309.5L617.28,340.26L619.08,286.49L624.46,387.45L626.26,365.76L628.05,438.33L629.85,410.59L631.64,374.18L633.43,431.62L635.23,413.09L637.02,444.24L638.82,485.26L640.61,443.06L642.41,491.04L644.2,481.71L646,479.21L647.79,505.37L651.38,521.54L653.17,476.32L654.97,499.85L656.76,502.74L658.56,495.12L660.35,517.86L663.94,536L665.73,498.01L667.53,523.91L669.32,535.34L671.12,538.37L672.91,532.45L674.71,544.28L676.5,539.02L678.3,524.43L680.09,526.8L681.88,515.36L683.68,516.28L685.47,522.46L687.27,537.05L689.06,539.94L690.86,508.39L692.65,521.8L694.45,519.96L698.03,514.31L699.83,521.28L701.62,525.09L703.42,472.11L705.21,505.24L707.01,497.35L708.8,501.95L710.6,489.86L712.39,513.26L714.18,500.64L715.98,466.46L717.77,493.01L719.57,447.53L721.36,473.03L723.16,464.88L724.95,467.38L726.75,473.56L728.54,408.35L730.33,429.26L732.13,414.66L733.92,428.6L735.72,418.08L737.51,436.22L739.31,407.96L741.1,351.3L742.9,329.09L744.69,320.54L746.48,349.33L748.28,323.7L750.07,346.31L751.87,329.48L753.66,252.32L755.46,250.48L757.25,253.5L759.04,193.03L760.84,228.92L762.63,253.24L764.43,224.84L766.22,115.08L768.02,63.41L769.81,50.14L771.61,98.25L773.4,110.47L775.19,134.4L776.99,153.99L778.78,73.93L780.58,109.69L782.37,110.08L784.17,146.63L785.96,148.86L789.55,230.89L791.34,94.44L793.14,142.29L794.93,158.32L796.73,195L798.52,187.51L800.32,258.89L802.11,286.76L803.91,210.64L805.7,213.54L807.49,207.36L809.29,265.07L811.08,262.96L812.88,279.53L814.67,338.81L816.47,257.71L818.26,304.5L820.06,314.23L821.85,336.45L823.64,344.6L825.44,395.34L827.23,402.44L829.03,356.04L830.82,365.11L832.62,357.22L834.41,397.31L836.21,396L838,443.32" style="vector-effect: non-scaling-stroke; fill: none; stroke: rgb(255, 127, 14); stroke-opacity: 1; stroke-width: 2px; opacity: 1;"/></g><g class="points"/><g class="text"/></g><g class="trace scatter traceb079ab" style="stroke-miterlimit: 2; opacity: 1;"><g class="fills"/><g class="errorbars"/><g class="lines"><path class="js-line" d="M0,667.72L71.78,667.19L73.57,666.4L75.37,667.19L77.16,665.62L78.96,665.88L80.75,664.17L82.54,664.43L84.34,666.01L86.13,664.96L87.93,664.96L89.72,664.3L91.52,664.83L93.31,663.64L95.1,664.96L96.9,665.48L98.69,662.07L100.49,661.01L102.28,662.72L104.08,660.49L105.87,662.99L107.67,662.59L109.46,663.64L111.25,662.72L113.05,662.85L114.84,660.62L116.64,661.15L118.43,661.41L120.23,664.56L122.02,660.23L123.82,659.96L125.61,661.8L127.4,656.41L129.2,662.59L130.99,660.49L132.79,662.46L134.58,656.68L136.38,659.7L138.17,658.78L139.97,661.41L141.76,659.44L143.55,659.96L145.35,663.12L147.14,663.12L148.94,660.36L150.73,662.46L152.53,663.38L154.32,664.17L156.12,663.38L157.91,664.7L159.7,664.7L161.5,665.75L163.29,662.07L165.09,663.64L166.88,664.04L172.27,663.91L174.06,664.96L175.85,663.51L177.65,663.25L179.44,662.33L181.24,665.48L183.03,665.22L184.83,666.4L188.42,665.22L190.21,661.8L192,665.75L193.8,663.12L195.59,665.22L197.39,664.56L199.18,665.88L200.98,666.27L208.15,666.14L209.95,666.67L213.54,666.14L215.33,667.32L217.13,666.27L218.92,663.64L220.72,666.27L222.51,667.32L226.1,666.14L227.89,666.4L229.69,667.32L231.48,666.67L238.66,667.19L240.45,667.19L247.63,667.72L249.43,667.46L251.22,666.54L253.01,667.32L256.6,666.93L258.4,667.32L261.99,667.59L263.78,666.54L265.58,667.06L267.37,666.54L269.16,667.46L270.96,667.32L278.14,667.72L279.93,667.32L285.31,667.59L287.11,667.19L290.7,667.32L292.49,667.32L305.05,667.72L306.85,667.59L314.03,667.59L315.82,667.72L324.79,667.19L326.59,667.85L331.97,667.59L333.76,667.72L342.74,666.93L344.53,667.72L353.5,667.72L355.3,667.85L366.06,667.59L367.86,667.85L375.04,667.19L376.83,667.46L387.6,667.32L389.39,667.32L394.78,667.72L396.57,667.46L403.75,667.32L405.54,657.73L409.13,666.8L410.93,667.06L412.72,666.8L414.51,667.59L419.9,666.8L421.69,667.59L425.28,666.54L427.07,667.72L432.46,666.4L434.25,667.06L437.84,667.32L439.64,666.54L452.2,667.06L453.99,666.4L461.17,666.8L462.96,665.88L466.55,666.01L468.35,665.88L471.94,666.01L473.73,666.14L480.91,665.22L482.7,665.09L484.5,663.91L486.29,666.4L488.09,666.14L489.88,663.51L491.67,664.04L493.47,666.67L495.26,664.96L497.06,665.88L498.85,665.22L500.65,665.88L502.44,663.12L504.24,664.96L506.03,665.09L507.82,663.91L509.62,664.56L511.41,666.67L513.21,666.8L515,663.12L516.8,665.88L518.59,664.43L522.18,665.75L523.97,664.3L525.77,666.4L527.56,664.04L531.15,661.8L532.95,665.48L534.74,665.62L536.54,664.7L538.33,665.09L540.12,662.07L541.92,664.7L543.71,662.46L545.51,664.17L547.3,664.43L549.1,665.48L550.89,664.96L552.69,662.33L554.48,661.28L558.07,662.72L559.86,665.35L561.66,662.85L563.45,662.33L565.25,665.22L567.04,660.36L570.63,661.93L572.42,664.43L574.22,663.91L576.01,661.01L577.81,662.85L579.6,656.02L581.4,664.3L583.19,662.46L584.99,659.7L586.78,663.91L588.57,662.33L590.37,657.99L592.16,659.57L593.96,654.57L595.75,661.01L597.55,658.65L599.34,664.56L601.13,661.67L602.93,656.02L604.72,661.67L606.52,656.28L608.31,660.88L611.9,662.07L613.7,659.44L615.49,661.28L617.28,660.36L619.08,660.09L620.87,658.12L622.67,662.07L624.46,662.99L626.26,665.88L628.05,658.91L629.85,656.15L631.64,661.8L633.43,661.8L635.23,664.83L637.02,663.38L638.82,665.48L640.61,662.33L642.41,665.35L646,665.22L647.79,662.2L649.58,666.01L651.38,666.01L653.17,666.4L654.97,661.93L656.76,661.54L658.56,664.04L660.35,666.01L662.15,666.27L665.73,666.54L667.53,664.7L669.32,664.04L671.12,665.62L672.91,665.09L674.71,666.93L678.3,665.48L680.09,666.4L681.88,664.83L683.68,666.93L685.47,665.75L687.27,666.4L689.06,666.93L690.86,665.62L692.65,666.4L694.45,665.35L696.24,666.27L698.03,665.75L699.83,666.54L701.62,666.27L705.21,665.75L707.01,666.4L708.8,666.27L710.6,665.35L712.39,667.32L714.18,666.54L715.98,666.4L717.77,665.48L719.57,666.14L721.36,665.62L723.16,665.22L724.95,666.4L732.13,664.7L733.92,665.62L739.31,666.67L741.1,665.48L748.28,664.96L750.07,665.75L751.87,665.75L753.66,664.04L757.25,664.43L759.04,663.25L760.84,665.35L762.63,665.22L764.43,664.83L766.22,663.51L768.02,662.46L769.81,663.25L771.61,664.56L773.4,664.56L778.78,664.56L780.58,662.33L782.37,664.96L784.17,663.91L787.76,665.62L789.55,664.43L791.34,661.93L793.14,664.3L796.73,664.43L798.52,661.54L800.32,665.22L802.11,665.75L803.91,663.51L805.7,663.64L809.29,664.56L811.08,663.77L812.88,667.19L814.67,665.48L816.47,665.22L818.26,664.17L820.06,664.17L821.85,665.09L825.44,666.67L827.23,663.38L830.82,665.22L832.62,665.88L836.21,665.35L838,666.01" style="vector-effect: non-scaling-stroke; fill: none; stroke: rgb(44, 160, 44); stroke-opacity: 1; stroke-width: 2px; opacity: 1;"/></g><g class="points"/><g class="text"/></g></g></g><g class="overplot"/><path class="xlines-above crisp" style="fill: none;" d="M0,0"/><path class="ylines-above crisp" style="fill: none;" d="M0,0"/><g class="overlines-above"/><g class="xaxislayer-above"><g class="xtick"><text text-anchor="middle" x="0" y="741" transform="translate(81.53,0)" style="font-family: 'Open Sans', verdana, arial, sans-serif; font-size: 12px; fill: rgb(68, 68, 68); fill-opacity: 1; white-space: pre;">Mar 2020</text></g><g class="xtick"><text text-anchor="middle" x="0" y="741" transform="translate(190.99,0)" style="font-family: 'Open Sans', verdana, arial, sans-serif; font-size: 12px; fill: rgb(68, 68, 68); fill-opacity: 1; white-space: pre;">May 2020</text></g><g class="xtick"><text text-anchor="middle" x="0" y="741" transform="translate(300.45,0)" style="font-family: 'Open Sans', verdana, arial, sans-serif; font-size: 12px; fill: rgb(68, 68, 68); fill-opacity: 1; white-space: pre;">Jul 2020</text></g><g class="xtick"><text text-anchor="middle" x="0" y="741" transform="translate(411.71,0)" style="font-family: 'Open Sans', verdana, arial, sans-serif; font-size: 12px; fill: rgb(68, 68, 68); fill-opacity: 1; white-space: pre;">Sep 2020</text></g><g class="xtick"><text text-anchor="middle" x="0" y="741" transform="translate(521.1700000000001,0)" style="font-family: 'Open Sans', verdana, arial, sans-serif; font-size: 12px; fill: rgb(68, 68, 68); fill-opacity: 1; white-space: pre;">Nov 2020</text></g><g class="xtick"><text text-anchor="middle" x="0" y="741" transform="translate(630.63,0)" style="font-family: 'Open Sans', verdana, arial, sans-serif; font-size: 12px; fill: rgb(68, 68, 68); fill-opacity: 1; white-space: pre;">Jan 2021</text></g><g class="xtick"><text text-anchor="middle" x="0" y="741" transform="translate(736.5,0)" style="font-family: 'Open Sans', verdana, arial, sans-serif; font-size: 12px; fill: rgb(68, 68, 68); fill-opacity: 1; white-space: pre;">Mar 2021</text></g><g class="xtick"><text text-anchor="middle" x="0" y="741" transform="translate(845.96,0)" style="font-family: 'Open Sans', verdana, arial, sans-serif; font-size: 12px; fill: rgb(68, 68, 68); fill-opacity: 1; white-space: pre;">May 2021</text></g></g><g class="yaxislayer-above"><g class="ytick"><text text-anchor="end" x="59" y="4.199999999999999" transform="translate(0,692.72)" style="font-family: 'Open Sans', verdana, arial, sans-serif; font-size: 12px; fill: rgb(68, 68, 68); fill-opacity: 1; white-space: pre;">0</text></g><g class="ytick"><text text-anchor="end" x="59" y="4.199999999999999" transform="translate(0,561.26)" style="font-family: 'Open Sans', verdana, arial, sans-serif; font-size: 12px; fill: rgb(68, 68, 68); fill-opacity: 1; white-space: pre;">1000</text></g><g class="ytick"><text text-anchor="end" x="59" y="4.199999999999999" transform="translate(0,429.81)" style="font-family: 'Open Sans', verdana, arial, sans-serif; font-size: 12px; fill: rgb(68, 68, 68); fill-opacity: 1; white-space: pre;">2000</text></g><g class="ytick"><text text-anchor="end" x="59" y="4.199999999999999" transform="translate(0,298.35)" style="font-family: 'Open Sans', verdana, arial, sans-serif; font-size: 12px; fill: rgb(68, 68, 68); fill-opacity: 1; white-space: pre;">3000</text></g><g class="ytick"><text text-anchor="end" x="59" y="4.199999999999999" transform="translate(0,166.89)" style="font-family: 'Open Sans', verdana, arial, sans-serif; font-size: 12px; fill: rgb(68, 68, 68); fill-opacity: 1; white-space: pre;">4000</text></g><g class="ytick"><text text-anchor="end" x="59" y="4.199999999999999" transform="translate(0,35.44)" style="font-family: 'Open Sans', verdana, arial, sans-serif; font-size: 12px; fill: rgb(68, 68, 68); fill-opacity: 1; white-space: pre;">5000</text></g></g><g class="overaxes-above"/></g></g><g class="polarlayer"/><g class="ternarylayer"/><g class="geolayer"/><g class="funnelarealayer"/><g class="pielayer"/><g class="treemaplayer"/><g class="sunburstlayer"/><g class="glimages"/><defs id="topdefs-f5a8e9"><g class="clips"/><clipPath id="legendf5a8e9"><rect width="102" height="67" x="0" y="0"/></clipPath></defs><g class="layer-above"><g class="imagelayer"/><g class="shapelayer"/></g><g class="infolayer"><g class="legend" pointer-events="all" transform="translate(914.76, 25)"><rect class="bg" shape-rendering="crispEdges" style="stroke: rgb(68, 68, 68); stroke-opacity: 1; fill: rgb(255, 255, 255); fill-opacity: 1; stroke-width: 0px;" width="102" height="67" x="0" y="0"/><g class="scrollbox" transform="translate(0, 0)" clip-path="url('#legendf5a8e9')"><g class="groups"><g class="traces" style="opacity: 1;" transform="translate(0, 14.5)"><text class="legendtext" text-anchor="start" x="40" y="4.680000000000001" style="font-family: 'Open Sans', verdana, arial, sans-serif; font-size: 12px; fill: rgb(68, 68, 68); fill-opacity: 1; white-space: pre;">positive</text><g class="layers" style="opacity: 1;"><g class="legendfill"/><g class="legendlines"><path class="js-line" d="M5,0h30" style="fill: none; stroke: rgb(31, 119, 180); stroke-opacity: 1; stroke-width: 2px;"/></g><g class="legendsymbols"><g class="legendpoints"/></g></g><rect class="legendtoggle" x="0" y="-9.5" width="96.109375" height="19" style="fill: rgb(0, 0, 0); fill-opacity: 0;"/></g><g class="traces" style="opacity: 1;" transform="translate(0, 33.5)"><text class="legendtext" text-anchor="start" x="40" y="4.680000000000001" style="font-family: 'Open Sans', verdana, arial, sans-serif; font-size: 12px; fill: rgb(68, 68, 68); fill-opacity: 1; white-space: pre;">resolved</text><g class="layers" style="opacity: 1;"><g class="legendfill"/><g class="legendlines"><path class="js-line" d="M5,0h30" style="fill: none; stroke: rgb(255, 127, 14); stroke-opacity: 1; stroke-width: 2px;"/></g><g class="legendsymbols"><g class="legendpoints"/></g></g><rect class="legendtoggle" x="0" y="-9.5" width="96.109375" height="19" style="fill: rgb(0, 0, 0); fill-opacity: 0;"/></g><g class="traces" style="opacity: 1;" transform="translate(0, 52.5)"><text class="legendtext" text-anchor="start" x="40" y="4.680000000000001" style="font-family: 'Open Sans', verdana, arial, sans-serif; font-size: 12px; fill: rgb(68, 68, 68); fill-opacity: 1; white-space: pre;">deceased</text><g class="layers" style="opacity: 1;"><g class="legendfill"/><g class="legendlines"><path class="js-line" d="M5,0h30" style="fill: none; stroke: rgb(44, 160, 44); stroke-opacity: 1; stroke-width: 2px;"/></g><g class="legendsymbols"><g class="legendpoints"/></g></g><rect class="legendtoggle" x="0" y="-9.5" width="96.109375" height="19" style="fill: rgb(0, 0, 0); fill-opacity: 0;"/></g></g></g><rect class="scrollbar" rx="20" ry="3" width="0" height="0" style="fill: rgb(128, 139, 164); fill-opacity: 1;" x="0" y="0"/></g><g class="g-gtitle"><text class="gtitle" x="513.5" y="12.5" text-anchor="middle" dy="0em" style="font-family: 'Open Sans', verdana, arial, sans-serif; font-size: 17px; fill: rgb(68, 68, 68); opacity: 1; font-weight: normal; white-space: pre;">Dynamics of new cases, resolved cases and deaths in Ontario (May 31, 2021)</text></g><g class="g-xtitle" transform="translate(0,-15)"><text class="xtitle" x="479" y="780" text-anchor="middle" style="font-family: 'Open Sans', verdana, arial, sans-serif; font-size: 14px; fill: rgb(68, 68, 68); opacity: 1; font-weight: normal; white-space: pre;">Date</text></g><g class="g-ytitle"><text class="ytitle" transform="rotate(-90,22,376.5)" x="22" y="376.5" text-anchor="middle" style="font-family: 'Open Sans', verdana, arial, sans-serif; font-size: 14px; fill: rgb(68, 68, 68); opacity: 1; font-weight: normal; white-space: pre;">Number of cases</text></g></g></svg>