<svg class="main-svg" xmlns="http://www.w3.org/2000/svg" xmlns:xlink="http://www.w3.org/1999/xlink" width="1027" height="768" style="" viewBox="0 0 1027 768"><rect x="0" y="0" width="1027" height="768" style="fill: rgb(255, 255, 255); fill-opacity: 1;"/><defs id="defs-d98e60"><g class="clips"><clipPath id="clipd98e60xyplot" class="plotclip"><rect width="838" height="703"/></clipPath><clipPath class="axesclip" id="clipd98e60x"><rect x="60" y="0" width="838" height="768"/></clipPath><clipPath class="axesclip" id="clipd98e60y"><rect x="0" y="25" width="1027" height="703"/></clipPath><clipPath class="axesclip" id="clipd98e60xy"><rect x="60" y="25" width="838" height="703"/></clipPath></g><g class="gradients"/><g class="patterns"/></defs><g class="bglayer"/><g class="layer-below"><g class="imagelayer"/><g class="shapelayer"/></g><g class="cartesianlayer"><g class="subplot xy"><g class="layer-subplot"><g class="shapelayer"/><g class="imagelayer"/></g><g class="gridlayer"><g class="x"><path class="xgrid crisp" transform="translate(117.38,0)" d="M0,25v703" style="stroke: rgb(238, 238, 238); stroke-opacity: 1; stroke-width: 1px;"/><path class="xgrid crisp" transform="translate(238.81,0)" d="M0,25v703" style="stroke: rgb(238, 238, 238); stroke-opacity: 1; stroke-width: 1px;"/><path class="xgrid crisp" transform="translate(361.57,0)" d="M0,25v703" style="stroke: rgb(238, 238, 238); stroke-opacity: 1; stroke-width: 1px;"/><path class="xgrid crisp" transform="translate(484.34,0)" d="M0,25v703" style="stroke: rgb(238, 238, 238); stroke-opacity: 1; stroke-width: 1px;"/><path class="xgrid crisp" transform="translate(604.43,0)" d="M0,25v703" style="stroke: rgb(238, 238, 238); stroke-opacity: 1; stroke-width: 1px;"/><path class="xgrid crisp" transform="translate(725.86,0)" d="M0,25v703" style="stroke: rgb(238, 238, 238); stroke-opacity: 1; stroke-width: 1px;"/><path class="xgrid crisp" transform="translate(848.63,0)" d="M0,25v703" style="stroke: rgb(238, 238, 238); stroke-opacity: 1; stroke-width: 1px;"/></g><g class="y"><path class="ygrid crisp" transform="translate(0,559.91)" d="M60,0h838" style="stroke: rgb(238, 238, 238); stroke-opacity: 1; stroke-width: 1px;"/><path class="ygrid crisp" transform="translate(0,428.81)" d="M60,0h838" style="stroke: rgb(238, 238, 238); stroke-opacity: 1; stroke-width: 1px;"/><path class="ygrid crisp" transform="translate(0,297.71)" d="M60,0h838" style="stroke: rgb(238, 238, 238); stroke-opacity: 1; stroke-width: 1px;"/><path class="ygrid crisp" transform="translate(0,166.61)" d="M60,0h838" style="stroke: rgb(238, 238, 238); stroke-opacity: 1; stroke-width: 1px;"/><path class="ygrid crisp" transform="translate(0,35.5)" d="M60,0h838" style="stroke: rgb(238, 238, 238); stroke-opacity: 1; stroke-width: 1px;"/></g></g><g class="zerolinelayer"><path class="yzl zl crisp" transform="translate(0,691.01)" d="M60,0h838" style="stroke: rgb(68, 68, 68); stroke-opacity: 1; stroke-width: 1px;"/></g><path class="xlines-below"/><path class="ylines-below"/><g class="overlines-below"/><g class="xaxislayer-below"/><g class="yaxislayer-below"/><g class="overaxes-below"/><g class="plot" transform="translate(60,25)" clip-path="url(#clipd98e60xyplot)"><g class="scatterlayer mlayer"><g class="trace scatter tracee7cdee" style="stroke-miterlimit: 2; opacity: 1;"><g class="fills"/><g class="errorbars"/><g class="lines"><path class="js-line" d="M4,666.28L13.34,665.88L17.35,664.44L18.68,665.75L20.02,666.01L0,667.85L1.33,666.01L14.68,665.75L16.01,664.44L24.02,665.88L25.35,665.23L26.69,665.88L28.02,665.23L30.69,663.39L32.03,662.87L33.36,660.51L34.69,661.82L36.03,664.44L37.36,662.74L40.03,658.15L41.37,658.28L42.7,659.72L44.04,655.79L45.37,654.87L46.7,652.9L48.04,643.73L49.37,648.32L50.71,646.22L52.04,638.35L53.38,620L54.71,631.93L56.04,610.16L57.38,613.44L58.71,605.45L60.05,616.85L61.38,612.52L62.72,625.5L64.05,616.33L65.39,593.91L66.72,602.69L68.05,603.35L69.39,612.13L70.72,613.44L72.06,610.82L73.39,602.69L74.73,601.25L76.06,598.63L77.39,592.07L78.73,602.43L81.4,586.57L82.73,593.78L84.07,599.15L85.4,582.9L86.74,582.11L88.07,603.61L89.4,608.72L90.74,610.43L92.07,597.19L93.41,620.52L94.74,605.84L96.08,610.82L97.41,599.02L98.75,609.12L100.08,617.51L101.41,615.28L102.75,612L104.08,613.7L105.42,603.48L106.75,620.65L108.09,627.47L109.42,625.64L110.75,618.69L112.09,622.88L113.42,620.78L114.76,621.31L116.09,614.75L117.43,621.44L118.76,626.16L120.1,610.03L121.43,614.88L122.76,611.87L124.1,608.2L125.43,612L126.77,605.71L128.1,613.05L129.44,628.39L130.77,627.73L132.11,615.8L133.44,620.92L134.77,623.67L136.11,623.28L138.78,607.54L140.11,621.7L141.45,619.34L142.78,620.92L144.11,606.36L145.45,611.61L146.78,634.16L148.12,635.86L149.45,633.11L150.79,639.4L152.12,642.15L153.46,631.14L154.79,640.19L156.12,642.29L158.79,641.11L160.13,643.33L161.46,642.68L162.8,639.01L165.46,644.91L166.8,637.7L168.13,644.64L169.47,641.24L170.8,651.46L172.14,645.04L173.47,642.68L174.81,632.32L176.14,645.43L177.47,646.48L178.81,645.96L180.14,644.38L181.48,650.15L182.81,647.92L184.15,645.82L185.48,651.33L186.82,650.54L188.15,643.73L189.48,650.81L190.82,648.97L192.15,649.1L193.49,650.81L196.16,652.64L197.49,651.46L198.82,651.46L200.16,644.25L201.49,644.51L202.83,648.32L204.16,639.4L205.5,644.38L206.83,652.51L208.17,640.45L209.5,647.92L210.83,648.05L213.5,651.46L214.84,656.05L216.17,654.35L217.51,648.45L220.18,650.81L221.51,654.48L222.84,654.08L224.18,654.74L225.51,653.56L226.85,654.48L228.18,656.84L229.52,655.66L230.85,650.94L232.18,661.69L233.52,653.56L234.85,655.79L237.52,652.12L238.86,655.4L241.53,649.63L242.86,652.64L244.19,656.05L245.53,648.84L246.86,651.86L248.2,650.94L252.2,654.48L253.54,650.54L254.87,650.02L256.2,646.61L257.54,651.33L258.87,651.07L260.21,651.33L261.54,648.58L262.88,648.71L264.21,646.61L265.54,643.86L266.88,645.3L268.21,641.11L269.55,641.76L270.88,646.48L272.22,643.73L274.89,635.6L276.22,639.27L277.55,624.98L278.89,633.11L280.22,624.72L281.56,627.6L282.89,613.44L284.23,612.66L285.56,618.16L286.89,610.3L288.23,603.35L289.56,622.1L290.9,612.39L292.23,612.39L293.57,608.99L294.9,601.64L296.24,574.24L297.57,593.38L298.9,584.08L300.24,595.48L301.57,570.05L302.91,580.4L304.24,591.81L305.58,585.39L306.91,594.17L308.25,589.58L310.91,542.91L312.25,559.95L313.58,580.93L314.92,560.21L316.25,568.21L317.59,571.49L318.92,563.36L320.25,572.67L321.59,560.48L322.92,579.75L324.26,573.72L325.59,558.38L326.93,562.44L328.26,555.76L329.6,557.72L330.93,537.8L332.26,529.41L333.6,554.45L334.93,557.59L336.27,556.68L337.6,543.56L338.94,548.55L340.27,532.95L341.61,537.93L342.94,541.73L344.27,528.36L345.61,536.62L346.94,535.17L348.28,534.52L349.61,517.61L350.95,491.91L352.28,503.19L353.61,484.04L354.95,479.06L356.28,459.53L357.62,483L358.95,458.74L360.29,502.4L361.62,471.07L362.96,502.27L364.29,480.24L365.62,507.38L368.29,457.82L369.63,464.9L370.96,457.69L372.3,533.73L373.63,486.01L374.96,472.25L376.3,422.82L377.63,427.15L378.97,442.09L380.3,437.11L381.64,442.22L382.97,440.13L384.31,426.88L385.64,432.65L388.31,413.77L389.64,413.64L390.98,446.29L392.31,418.23L393.65,406.04L394.98,423.74L396.32,420.46L397.65,446.16L400.32,367.76L401.65,385.59L402.99,347.17L404.32,365.79L405.66,357.01L406.99,362.38L408.32,387.68L409.66,377.33L410.99,350.32L412.33,345.21L413.66,382.96L415,385.19L417.67,411.81L419,331.31L421.67,229.71L423,341.41L424.34,225.12L425.67,277.43L427.01,237.31L428.34,255.93L429.68,237.83L431.01,204.67L432.34,108.96L433.68,214.63L435.01,148.82L436.35,228.39L437.68,285.42L439.02,277.82L440.35,229.97L441.68,272.97L443.02,265.37L444.35,217.38L447.02,415.22L448.36,317.94L449.69,320.95L451.03,317.02L452.36,356.74L453.69,349.14L456.36,437.9L457.7,447.07L459.03,391.62L460.37,425.18L461.7,395.55L463.04,423.74L464.37,407.87L465.7,568.34L468.37,461.1L469.71,447.07L471.04,484.04L472.38,470.8L475.04,532.03L476.38,525.47L477.71,542.12L479.05,524.95L480.38,495.58L481.72,537.4L483.05,539.63L484.39,547.5L485.72,554.97L487.05,529.93L489.72,505.02L491.06,523.51L492.39,527.31L493.73,538.19L496.39,516.82L497.73,501.09L499.06,510.66L500.4,526.78L503.07,539.37L504.4,540.42L505.74,535.7L507.07,502.14L508.4,536.22L509.74,495.71L511.07,452.19L512.41,510.66L513.74,493.48L515.08,522.85L516.41,486.27L517.75,473.56L519.08,436.98L520.41,499.78L521.75,525.21L523.08,468.31L524.42,462.41L525.75,437.24L527.09,426.23L528.42,431.21L529.75,443.27L531.09,463.33L532.42,460.05L533.76,353.99L535.09,381.65L536.43,344.42L537.76,345.08L539.1,391.49L540.43,359.76L541.76,360.15L543.1,330.79L544.43,261.04L545.77,271.53L547.1,267.33L548.44,280.84L549.77,264.19L552.44,234.03L553.77,111.84L555.11,166.12L556.44,81.82L557.78,89.03L559.11,184.87L561.78,45.11L563.11,35.15L564.45,94.15L565.78,108.83L567.12,83L568.45,211.22L569.79,113.81L571.12,183.3L572.46,75.4L573.79,129.28L575.12,148.55L576.46,205.85L577.79,237.97L579.13,209.78L580.46,158.52L581.8,156.42L583.13,224.33L584.46,176.74L585.8,215.55L587.13,300.11L588.47,280.44L589.8,217.12L592.47,290.54L593.81,244.39L596.47,394.24L597.81,361.86L599.14,304.3L600.48,356.35L601.81,327.25L603.15,377.72L604.48,381.52L605.82,454.15L607.15,457.82L608.48,351.37L609.82,418.23L611.15,430.82L612.49,444.32L613.82,476.44L615.16,529.8L616.49,522.46L617.82,517.21L619.16,499.12L620.49,527.44L621.83,530.59L623.16,545.92L624.5,574.37L625.83,569.92L627.17,551.96L628.5,546.19L629.83,568.47L631.17,579.09L632.5,597.19L635.17,612.13L636.51,588.66L637.84,590.76L639.18,600.2L640.51,596.53L641.84,607.41L643.18,627.21L644.51,615.67L645.85,617.51L647.18,620.78L648.52,619.47L649.85,624.32L651.18,630.62L652.52,627.21L653.85,632.58L655.19,627.21L656.52,632.45L657.86,620.65L660.53,638.48L661.86,626.81L663.19,641.89L664.53,628.78L665.86,639.79L667.2,638.61L668.53,638.09L669.87,643.73L671.2,634.03L672.54,640.58L673.87,638.48L675.2,642.02L676.54,642.55L677.87,644.25L679.21,651.07L680.54,646.87L681.88,645.96L683.21,647.27L685.88,642.94L687.21,642.81L688.55,648.97L689.88,649.36L691.22,648.32L692.55,641.76L693.89,640.84L695.22,643.73L696.55,643.46L697.89,650.41L699.22,649.1L700.56,645.3L701.89,637.43L703.23,636.39L704.56,632.19L705.89,637.43L707.23,643.99L708.56,644.51L709.9,647.79L711.23,638.09L712.57,621.44L713.9,616.46L715.24,610.56L716.57,623.41L717.9,623.93L719.24,623.54L720.57,598.76L721.91,599.15L723.24,590.24L724.58,599.02L725.91,597.05L727.25,620.39L728.58,602.43L729.91,596.4L731.25,580.8L732.58,575.69L733.92,571.36L735.25,582.24L736.59,602.3L737.92,579.49L739.25,577.13L740.59,563.62L741.92,556.54L743.26,569L744.59,575.03L745.93,597.19L747.26,580.01L748.6,552.61L749.93,560.21L751.26,542.25L752.6,559.69L753.93,589.84L756.6,593.38L757.94,561.39L759.27,554.84L760.61,553.66L761.94,563.23L763.27,587.35L764.61,590.37L765.94,588.27L767.28,552.74L768.61,561.79L769.95,558.38L771.28,572.28L772.61,586.04L773.95,590.76L775.28,605.31L776.62,577.26L777.95,570.7L779.29,582.11L780.62,580.4L781.96,585.65L783.29,604.92L784.62,601.12L785.96,581.19L787.29,578.44L788.63,573.72L789.96,589.98L792.63,609.77L793.96,603.61L795.3,589.06L796.63,590.89L797.97,580.27L799.3,595.87L803.31,625.9L804.64,611.34L805.97,600.99L807.31,602.3L808.64,607.94L809.98,617.11L812.65,626.16L813.98,611.87L815.32,601.51L816.65,617.11L817.98,617.51L819.32,623.28L820.65,630.75L821.99,623.93L823.32,612.39L824.66,611.08L825.99,619.34L827.32,621.44L828.66,610.69L829.99,622.62L832.66,608.59L834,592.2L835.33,599.41L836.67,582.63L838,603.09" style="vector-effect: non-scaling-stroke; fill: none; stroke: rgb(31, 119, 180); stroke-opacity: 1; stroke-width: 2px; opacity: 1;"/></g><g class="points"/><g class="text"/></g><g class="trace scatter tracea78058" style="stroke-miterlimit: 2; opacity: 1;"><g class="fills"/><g class="errorbars"/><g class="lines"><path class="js-line" d="M4,665.75L20.02,666.01L0,666.28L2.67,666.01L5.34,666.01L9.34,666.01L14.68,666.01L52.04,666.01L53.38,610.56L54.71,652.51L56.04,647.66L57.38,645.43L58.71,640.84L60.05,640.32L61.38,635.86L62.72,643.07L64.05,642.68L65.39,630.35L66.72,635.73L68.05,630.75L69.39,628.78L73.39,638.35L74.73,622.23L76.06,627.73L77.39,618.56L78.73,624.19L80.06,622.23L82.73,627.86L84.07,611.61L85.4,605.84L86.74,612.66L88.07,610.69L89.4,601.64L90.74,597.19L92.07,608.46L93.41,581.06L94.74,588.27L96.08,584.73L97.41,591.94L98.75,585.39L100.08,600.46L101.41,630.09L102.75,607.94L104.08,620.52L105.42,610.82L106.75,614.49L108.09,615.02L109.42,618.95L110.75,631.93L112.09,606.49L113.42,618.95L114.76,608.72L116.09,616.33L117.43,621.44L118.76,629.57L120.1,631.93L121.43,627.73L122.76,624.19L124.1,632.19L125.43,616.33L126.77,622.62L128.1,637.04L129.44,631.93L130.77,611.74L132.11,626.55L133.44,625.37L134.77,617.51L136.11,606.1L137.44,621.05L140.11,623.14L141.45,613.97L144.11,618.29L145.45,626.03L146.78,634.55L148.12,621.83L149.45,593.78L150.79,599.81L152.12,626.42L153.46,620L154.79,610.56L156.12,632.98L157.46,637.43L158.79,619.74L160.13,637.17L161.46,633.76L162.8,637.43L164.13,633.11L166.8,643.2L168.13,635.99L169.47,640.84L170.8,636.39L172.14,642.68L173.47,643.07L174.81,654.35L176.14,646.61L178.81,639.27L180.14,642.55L181.48,643.2L182.81,642.02L184.15,645.04L185.48,642.81L186.82,639.53L188.15,643.46L189.48,642.68L190.82,631.01L192.15,651.33L193.49,649.1L194.82,650.02L196.16,648.32L197.49,647.53L198.82,652.77L200.16,648.71L201.49,651.2L202.83,652.12L204.16,653.95L205.5,638.88L206.83,646.22L208.17,648.05L209.5,647.66L212.17,652.64L213.5,652.12L214.84,643.2L216.17,644.38L217.51,643.99L218.84,644.64L220.18,650.02L221.51,649.5L222.84,650.81L224.18,646.87L225.51,645.17L226.85,650.54L228.18,651.99L229.52,646.61L232.18,656.18L233.52,648.45L236.19,655.13L237.52,652.77L238.86,655.53L240.19,655.13L241.53,654.22L242.86,654.35L244.19,656.05L245.53,652.12L246.86,654.22L248.2,651.86L249.53,655.79L250.87,656.18L252.2,650.94L253.54,655.92L254.87,655.13L256.2,652.51L257.54,655.79L258.87,656.44L260.21,653.95L261.54,648.05L262.88,650.41L264.21,650.81L265.54,652.12L266.88,651.46L268.21,650.41L269.55,650.41L270.88,648.18L272.22,647.4L273.55,649.76L274.89,650.41L277.55,648.58L278.89,650.68L281.56,642.55L282.89,642.94L284.23,642.81L285.56,640.97L286.89,642.68L288.23,640.32L290.9,628.52L292.23,628.91L293.57,621.7L294.9,628.13L296.24,622.62L297.57,623.67L298.9,606.1L300.24,598.5L301.57,609.9L302.91,608.99L304.24,596.01L305.58,595.09L306.91,594.43L308.25,573.33L309.58,574.9L310.91,571.1L312.25,574.24L313.58,573.59L316.25,584.21L317.59,563.36L318.92,563.89L320.25,572.54L321.59,576.6L322.92,576.21L324.26,586.44L325.59,583.68L326.93,571.75L328.26,568.87L329.6,569.92L330.93,584.08L332.26,569.52L333.6,577L334.93,575.42L336.27,564.67L337.6,558.51L338.94,561.66L340.27,561.39L341.61,552.74L342.94,557.72L344.27,556.28L345.61,542.12L346.94,541.73L348.28,541.6L349.61,554.32L350.95,551.04L352.28,558.38L353.61,563.62L354.95,549.86L356.28,545.79L357.62,532.55L358.95,534.52L360.29,526.78L361.62,535.96L362.96,517.21L364.29,470.02L365.62,485.62L366.96,480.5L368.29,487.32L370.96,471.46L372.3,524.16L373.63,472.51L374.96,487.06L377.63,468.05L378.97,476.83L380.3,492.96L381.64,486.01L382.97,444.98L384.31,463.99L385.64,462.41L386.97,453.1L388.31,459.66L389.64,480.9L390.98,462.94L392.31,413.77L393.65,429.51L394.98,436.19L396.32,414.56L397.65,446.02L398.98,464.77L400.32,428.72L401.65,398.17L402.99,402.63L404.32,404.86L405.66,421.51L406.99,412.86L408.32,449.17L410.99,371.95L412.33,402.11L413.66,372.74L415,415.22L416.33,403.15L417.67,384.01L419,373.26L420.33,372.74L421.67,375.89L423,343.5L424.34,396.73L425.67,380.87L428.34,401.84L429.68,272.05L431.01,302.07L432.34,307.06L433.68,283.85L435.01,338.78L436.35,304.7L437.68,226.43L439.02,221.32L440.35,194.96L443.02,244.91L444.35,262.48L445.69,295.52L447.02,289.36L448.36,179.1L449.69,274.02L451.03,223.54L452.36,269.43L456.36,369.59L457.7,308.76L459.03,339.44L460.37,285.82L464.37,386.5L465.7,364.87L467.04,437.24L468.37,409.58L469.71,373.26L471.04,430.55L472.38,412.07L473.71,443.14L475.04,484.04L476.38,441.96L477.71,489.81L479.05,480.5L480.38,478.01L481.72,504.1L484.39,520.23L485.72,475.13L487.05,498.6L488.39,501.48L489.72,493.88L491.06,516.56L493.73,534.65L495.06,496.76L496.39,522.59L497.73,533.99L499.06,537.01L500.4,531.11L501.73,542.91L503.07,537.67L504.4,523.11L505.74,525.47L507.07,514.07L508.4,514.98L509.74,521.15L511.07,535.7L512.41,538.58L513.74,507.12L515.08,520.49L516.41,518.66L519.08,513.02L520.41,519.97L521.75,523.77L523.08,470.93L524.42,503.97L525.75,496.11L527.09,500.69L528.42,488.63L529.75,511.97L531.09,499.38L532.42,465.3L533.76,491.78L535.09,446.42L536.43,471.85L537.76,463.72L539.1,466.21L540.43,472.38L541.76,407.35L543.1,428.19L544.43,413.64L545.77,427.54L547.1,417.05L548.44,435.14L549.77,406.96L551.11,350.45L552.44,328.29L553.77,319.77L555.11,348.48L556.44,322.92L557.78,345.47L559.11,328.69L560.45,251.73L561.78,249.9L563.11,252.91L564.45,192.6L565.78,228.39L567.12,252.65L568.45,224.33L571.12,63.34L572.46,50.1L573.79,98.08L575.12,110.27L577.79,153.67L579.13,73.83L580.46,109.49L581.8,109.88L583.13,146.32L584.46,148.55L587.13,230.36L588.47,94.28L589.8,142L591.14,157.99L592.47,194.57L593.81,187.1L595.14,258.29L596.47,286.08L597.81,210.17L599.14,213.06L600.48,206.89L601.81,264.45L603.15,262.35L604.48,278.87L605.82,338L607.15,257.11L608.48,303.78L609.82,313.48L611.15,335.64L612.49,343.76L613.82,394.37L615.16,401.45L616.49,355.17L617.82,364.22L619.16,356.35L620.49,396.34L621.83,395.03L623.16,442.22L624.5,460.45L625.83,438.81L629.83,503.19L631.17,505.81L632.5,542.65L633.84,533.6L635.17,543.83L636.51,542.91L637.84,554.58L639.18,557.2L641.84,578.18L643.18,581.45L644.51,571.36L645.85,582.76L647.18,584.21L648.52,589.84L649.85,599.94L651.18,602.3L652.52,608.07L653.85,605.71L656.52,627.6L657.86,600.07L659.19,616.33L660.53,623.28L661.86,617.38L663.19,623.8L664.53,632.32L665.86,629.17L667.2,631.67L668.53,628.52L669.87,635.47L671.2,624.19L672.54,635.07L673.87,635.73L675.2,635.47L676.54,637.43L677.87,629.57L679.21,653.43L680.54,639.66L681.88,637.7L683.21,643.99L684.54,641.24L685.88,639.4L687.21,644.25L688.55,645.96L689.88,649.5L691.22,646.22L692.55,646.48L696.55,647.14L697.89,648.05L700.56,643.6L701.89,643.86L704.56,648.05L705.89,645.69L707.23,649.1L708.56,646.22L709.9,645.69L711.23,642.02L712.57,646.48L713.9,640.97L715.24,635.6L716.57,640.84L719.24,639.27L720.57,632.45L721.91,631.4L723.24,631.93L724.58,630.62L725.91,623.93L727.25,629.31L728.58,620.78L729.91,621.7L731.25,607.81L732.58,603.74L733.92,614.75L735.25,600.2L736.59,595.09L737.92,591.02L739.25,598.76L740.59,584.08L741.92,590.63L744.59,595.22L745.93,576.86L747.26,580.8L748.6,576.73L749.93,569.26L751.26,570.57L752.6,590.89L753.93,572.15L755.27,575.82L756.6,565.07L759.27,565.07L760.61,566.9L761.94,569.26L763.27,583.81L765.94,567.03L767.28,578.44L768.61,576.86L769.95,580.14L771.28,573.19L772.61,583.68L773.95,565.85L775.28,563.36L776.62,577.39L777.95,559.3L779.29,561.92L780.62,582.24L781.96,590.24L783.29,558.64L787.29,582.76L788.63,581.45L789.96,585.26L791.3,602.04L792.63,574.77L793.96,585.12L795.3,589.19L796.63,584.6L799.3,595.35L800.64,593.78L801.97,598.89L803.31,596.92L804.64,596.79L805.97,594.96L808.64,602.56L809.98,610.56L812.65,595.61L813.98,602.04L815.32,611.61L816.65,611.08L817.98,603.09L819.32,617.64L820.65,610.03L821.99,615.67L823.32,618.03L824.66,613.7L825.99,621.44L827.32,617.11L828.66,629.96L829.99,615.8L831.33,616.2L832.66,621.83L835.33,617.51L836.67,617.9L838,634.81" style="vector-effect: non-scaling-stroke; fill: none; stroke: rgb(255, 127, 14); stroke-opacity: 1; stroke-width: 2px; opacity: 1;"/></g><g class="points"/><g class="text"/></g><g class="trace scatter trace808475" style="stroke-miterlimit: 2; opacity: 1;"><g class="fills"/><g class="errorbars"/><g class="lines"><path class="js-line" d="M4,666.01L20.02,666.01" style="vector-effect: non-scaling-stroke; fill: none; stroke: rgb(44, 160, 44); stroke-opacity: 1; stroke-width: 2px; opacity: 1;"/><path class="js-line" d="M37.36,666.01L46.7,665.36L48.04,665.75L52.04,665.49L53.38,666.01L54.71,664.7L56.04,665.49L57.38,663.92L58.71,664.18L60.05,662.47L61.38,662.74L62.72,664.31L64.05,663.26L68.05,663.13L69.39,661.95L72.06,663.79L73.39,660.38L74.73,659.33L76.06,661.03L77.39,658.8L78.73,661.29L80.06,660.9L81.4,661.95L82.73,661.03L84.07,661.16L85.4,658.94L86.74,659.46L88.07,659.72L89.4,662.87L90.74,658.54L92.07,658.28L93.41,660.11L94.74,654.74L96.08,660.9L97.41,658.8L98.75,660.77L100.08,655L101.41,658.02L102.75,657.1L104.08,659.72L105.42,657.76L106.75,658.28L108.09,661.43L109.42,661.43L110.75,658.67L113.42,661.69L114.76,662.47L116.09,661.69L117.43,663L118.76,663L120.1,664.05L121.43,660.38L122.76,661.95L126.77,662.74L128.1,662.21L129.44,663.26L130.77,661.82L133.44,660.64L134.77,663.79L136.11,663.52L137.44,664.7L140.11,663.52L141.45,660.11L142.78,664.05L144.11,661.43L145.45,663.52L146.78,662.87L149.45,664.57L150.79,664.44L157.46,664.57L158.79,664.44L160.13,665.62L161.46,664.57L162.8,661.95L164.13,664.57L165.46,665.62L166.8,664.7L169.47,664.7L170.8,665.62L172.14,664.97L173.47,665.23L177.47,665.49L178.81,665.49L184.15,666.01L185.48,665.75L186.82,664.83L188.15,665.62L190.82,665.23L192.15,665.62L194.82,665.88L196.16,664.83L197.49,665.36L198.82,664.83L200.16,665.75L201.49,665.62L206.83,666.01L208.17,665.62L212.17,665.88L213.5,665.49L216.17,665.62L217.51,665.62L226.85,666.01L228.18,665.88L233.52,665.88L234.85,666.01L241.53,665.49L242.86,666.15L246.86,665.88L248.2,666.01L254.87,665.23L256.2,666.01L262.88,666.01L264.21,666.15L272.22,665.88L273.55,666.15L278.89,665.49L280.22,665.75L288.23,665.62L289.56,665.62L293.57,666.01L294.9,665.75L300.24,665.62L301.57,656.05L304.24,665.1L305.58,665.36L306.91,665.1L308.25,665.88L312.25,665.1L313.58,665.88L316.25,664.83L317.59,666.01L321.59,664.7L322.92,665.36L325.59,665.62L326.93,664.83L336.27,665.36L337.6,664.7L342.94,665.1L344.27,664.18L346.94,664.31L348.28,664.18L350.95,664.31L352.28,664.44L357.62,663.52L358.95,663.39L360.29,662.21L361.62,664.7L362.96,664.44L364.29,661.82L365.62,662.34L366.96,664.97L368.29,663.26L369.63,664.18L370.96,663.52L372.3,664.18L373.63,661.43L374.96,663.26L376.3,663.39L377.63,662.21L378.97,662.87L380.3,664.97L381.64,665.1L382.97,661.43L384.31,664.18L385.64,662.74L388.31,664.05L389.64,662.61L390.98,664.7L392.31,662.34L394.98,660.11L396.32,663.79L397.65,663.92L398.98,663L400.32,663.39L401.65,660.38L402.99,663L404.32,660.77L405.66,662.47L406.99,662.74L408.32,663.79L409.66,663.26L412.33,659.59L413.66,660.38L415,661.03L416.33,663.65L417.67,661.16L419,660.64L420.33,663.52L421.67,658.67L424.34,660.25L425.67,662.74L427.01,662.21L428.34,659.33L429.68,661.16L431.01,654.35L432.34,662.61L433.68,660.77L435.01,658.02L436.35,662.21L437.68,660.64L439.02,656.31L440.35,657.89L441.68,652.9L443.02,659.33L444.35,656.97L445.69,662.87L447.02,659.98L448.36,654.35L449.69,659.98L451.03,654.61L452.36,659.2L455.03,660.38L456.36,657.76L457.7,659.59L459.03,658.67L460.37,658.41L461.7,656.44L463.04,660.38L464.37,661.29L465.7,664.18L467.04,657.23L468.37,654.48L469.71,660.11L471.04,660.11L472.38,663.13L473.71,661.69L475.04,663.79L476.38,660.64L477.71,663.65L480.38,663.52L481.72,660.51L483.05,664.31L484.39,664.31L485.72,664.7L487.05,660.25L488.39,659.85L489.72,662.34L491.06,664.31L492.39,664.57L495.06,664.83L496.39,663L497.73,662.34L499.06,663.92L500.4,663.39L501.73,665.23L504.4,663.79L505.74,664.7L507.07,663.13L508.4,665.23L509.74,664.05L511.07,664.7L512.41,665.23L513.74,663.92L515.08,664.7L516.41,663.65L517.75,664.57L519.08,664.05L520.41,664.83L521.75,664.57L524.42,664.05L525.75,664.7L527.09,664.57L528.42,663.65L529.75,665.62L531.09,664.83L532.42,664.7L533.76,663.79L535.09,664.44L536.43,663.92L537.76,663.52L539.1,664.7L544.43,663L545.77,663.92L549.77,664.97L551.11,663.79L556.44,663.26L557.78,664.05L559.11,664.05L560.45,662.34L563.11,662.74L564.45,661.56L565.78,663.65L567.12,663.52L568.45,663.13L569.79,661.82L571.12,660.77L572.46,661.56L573.79,662.87L575.12,662.87L579.13,662.87L580.46,660.64L581.8,663.26L583.13,662.21L585.8,663.92L587.13,662.74L588.47,660.25L589.8,662.61L592.47,662.74L593.81,659.85L595.14,663.52L596.47,664.05L597.81,661.82L599.14,661.95L601.81,662.87L603.15,662.08L604.48,665.49L605.82,663.79L607.15,663.52L608.48,662.47L609.82,662.47L611.15,663.39L613.82,664.97L615.16,661.69L617.82,663.52L619.16,664.18L621.83,663.65L623.16,664.31L624.5,664.83L625.83,662.74L627.17,664.7L628.5,663.52L629.83,662.87L631.17,664.7L633.84,663.65L635.17,661.69L636.51,664.57L637.84,665.49L639.18,664.05L640.51,665.1L641.84,665.49L643.18,664.31L645.85,665.1L647.18,665.88L648.52,664.31L649.85,664.44L651.18,665.62L652.52,658.15L653.85,664.57L655.19,665.23L656.52,665.75L657.86,664.31L659.19,664.44L660.53,665.62L661.86,662.74L663.19,664.18L664.53,663.52L665.86,664.83L668.53,664.83L669.87,665.88L671.2,664.83L672.54,666.01L676.54,664.97L677.87,665.23L679.21,666.01L680.54,665.1L684.54,664.7L685.88,665.62L687.21,665.23L688.55,666.01L692.55,665.1L693.89,665.88L699.22,665.36L700.56,665.49L701.89,665.62L703.23,664.57L707.23,665.88L708.56,665.88L711.23,664.18L712.57,663.65L715.24,665.23L716.57,666.01L719.24,665.62L720.57,666.01L723.24,665.75L724.58,666.01L725.91,666.01L727.25,664.7L728.58,665.62L729.91,663.79L731.25,665.75L732.58,665.88L735.25,666.01L736.59,663.65L737.92,665.88L739.25,666.01L740.59,663.79L741.92,665.1L744.59,666.01L745.93,665.36L748.6,664.18L749.93,665.23L751.26,664.83L752.6,665.62L755.27,665.62L756.6,663.92L757.94,664.7L759.27,664.57L760.61,664.05L761.94,665.23L768.61,665.36L769.95,664.7L772.61,665.75L773.95,664.97L776.62,665.1L777.95,664.57L780.62,665.23L781.96,666.01L783.29,664.57L784.62,664.97L788.63,665.1L789.96,665.75L792.63,665.62L793.96,664.18L795.3,665.36L796.63,664.7L797.97,665.75L799.3,665.75L801.97,666.01L803.31,664.44L804.64,665.62L805.97,665.75L807.31,665.36L808.64,666.15L812.65,665.49L813.98,665.49L815.32,664.44L816.65,665.23L819.32,666.01L820.65,665.23L821.99,664.7L823.32,665.62L824.66,666.01L825.99,665.49L828.66,665.62L829.99,665.1L836.67,665.75L838,665.75" style="vector-effect: non-scaling-stroke; fill: none; stroke: rgb(44, 160, 44); stroke-opacity: 1; stroke-width: 2px; opacity: 1;"/></g><g class="points"/><g class="text"/></g></g></g><g class="overplot"/><path class="xlines-above crisp" style="fill: none;" d="M0,0"/><path class="ylines-above crisp" style="fill: none;" d="M0,0"/><g class="overlines-above"/><g class="xaxislayer-above"><g class="xtick"><text text-anchor="middle" x="0" y="741" transform="translate(117.38,0)" style="font-family: 'Open Sans', verdana, arial, sans-serif; font-size: 12px; fill: rgb(68, 68, 68); fill-opacity: 1; white-space: pre; opacity: 1;">Apr 2020</text></g><g class="xtick"><text text-anchor="middle" x="0" y="741" style="font-family: 'Open Sans', verdana, arial, sans-serif; font-size: 12px; fill: rgb(68, 68, 68); fill-opacity: 1; white-space: pre; opacity: 1;" transform="translate(238.81,0)">Jul 2020</text></g><g class="xtick"><text text-anchor="middle" x="0" y="741" style="font-family: 'Open Sans', verdana, arial, sans-serif; font-size: 12px; fill: rgb(68, 68, 68); fill-opacity: 1; white-space: pre; opacity: 1;" transform="translate(361.57,0)">Oct 2020</text></g><g class="xtick"><text text-anchor="middle" x="0" y="741" style="font-family: 'Open Sans', verdana, arial, sans-serif; font-size: 12px; fill: rgb(68, 68, 68); fill-opacity: 1; white-space: pre; opacity: 1;" transform="translate(484.34,0)">Jan 2021</text></g><g class="xtick"><text text-anchor="middle" x="0" y="741" style="font-family: 'Open Sans', verdana, arial, sans-serif; font-size: 12px; fill: rgb(68, 68, 68); fill-opacity: 1; white-space: pre; opacity: 1;" transform="translate(604.43,0)">Apr 2021</text></g><g class="xtick"><text text-anchor="middle" x="0" y="741" style="font-family: 'Open Sans', verdana, arial, sans-serif; font-size: 12px; fill: rgb(68, 68, 68); fill-opacity: 1; white-space: pre; opacity: 1;" transform="translate(725.86,0)">Jul 2021</text></g><g class="xtick"><text text-anchor="middle" x="0" y="741" style="font-family: 'Open Sans', verdana, arial, sans-serif; font-size: 12px; fill: rgb(68, 68, 68); fill-opacity: 1; white-space: pre; opacity: 1;" transform="translate(848.63,0)">Oct 2021</text></g></g><g class="yaxislayer-above"><g class="ytick"><text text-anchor="end" x="59" y="4.199999999999999" transform="translate(0,691.01)" style="font-family: 'Open Sans', verdana, arial, sans-serif; font-size: 12px; fill: rgb(68, 68, 68); fill-opacity: 1; white-space: pre; opacity: 1;">0</text></g><g class="ytick"><text text-anchor="end" x="59" y="4.199999999999999" style="font-family: 'Open Sans', verdana, arial, sans-serif; font-size: 12px; fill: rgb(68, 68, 68); fill-opacity: 1; white-space: pre; opacity: 1;" transform="translate(0,559.91)">1000</text></g><g class="ytick"><text text-anchor="end" x="59" y="4.199999999999999" style="font-family: 'Open Sans', verdana, arial, sans-serif; font-size: 12px; fill: rgb(68, 68, 68); fill-opacity: 1; white-space: pre; opacity: 1;" transform="translate(0,428.81)">2000</text></g><g class="ytick"><text text-anchor="end" x="59" y="4.199999999999999" style="font-family: 'Open Sans', verdana, arial, sans-serif; font-size: 12px; fill: rgb(68, 68, 68); fill-opacity: 1; white-space: pre; opacity: 1;" transform="translate(0,297.71)">3000</text></g><g class="ytick"><text text-anchor="end" x="59" y="4.199999999999999" style="font-family: 'Open Sans', verdana, arial, sans-serif; font-size: 12px; fill: rgb(68, 68, 68); fill-opacity: 1; white-space: pre; opacity: 1;" transform="translate(0,166.61)">4000</text></g><g class="ytick"><text text-anchor="end" x="59" y="4.199999999999999" style="font-family: 'Open Sans', verdana, arial, sans-serif; font-size: 12px; fill: rgb(68, 68, 68); fill-opacity: 1; white-space: pre; opacity: 1;" transform="translate(0,35.5)">5000</text></g></g><g class="overaxes-above"/></g></g><g class="polarlayer"/><g class="ternarylayer"/><g class="geolayer"/><g class="funnelarealayer"/><g class="pielayer"/><g class="iciclelayer"/><g class="treemaplayer"/><g class="sunburstlayer"/><g class="glimages"/><defs id="topdefs-d98e60"><g class="clips"/><clipPath id="legendd98e60"><rect width="102" height="67" x="0" y="0"/></clipPath></defs><g class="layer-above"><g class="imagelayer"/><g class="shapelayer"/></g><g class="infolayer"><g class="legend" pointer-events="all" transform="translate(914.76,25)"><rect class="bg" shape-rendering="crispEdges" style="stroke: rgb(68, 68, 68); stroke-opacity: 1; fill: rgb(255, 255, 255); fill-opacity: 1; stroke-width: 0px;" width="102" height="67" x="0" y="0"/><g class="scrollbox" transform="" clip-path="url(#legendd98e60)"><g class="groups"><g class="traces" style="opacity: 1;" transform="translate(0,14.5)"><text class="legendtext" text-anchor="start" x="40" y="4.680000000000001" style="font-family: 'Open Sans', verdana, arial, sans-serif; font-size: 12px; fill: rgb(68, 68, 68); fill-opacity: 1; white-space: pre;">positive</text><g class="layers" style="opacity: 1;"><g class="legendfill"/><g class="legendlines"><path class="js-line" d="M5,0h30" style="fill: none; stroke: rgb(31, 119, 180); stroke-opacity: 1; stroke-width: 2px;"/></g><g class="legendsymbols"><g class="legendpoints"/></g></g><rect class="legendtoggle" x="0" y="-9.5" width="96.109375" height="19" style="fill: rgb(0, 0, 0); fill-opacity: 0;"/></g><g class="traces" style="opacity: 1;" transform="translate(0,33.5)"><text class="legendtext" text-anchor="start" x="40" y="4.680000000000001" style="font-family: 'Open Sans', verdana, arial, sans-serif; font-size: 12px; fill: rgb(68, 68, 68); fill-opacity: 1; white-space: pre;">resolved</text><g class="layers" style="opacity: 1;"><g class="legendfill"/><g class="legendlines"><path class="js-line" d="M5,0h30" style="fill: none; stroke: rgb(255, 127, 14); stroke-opacity: 1; stroke-width: 2px;"/></g><g class="legendsymbols"><g class="legendpoints"/></g></g><rect class="legendtoggle" x="0" y="-9.5" width="96.109375" height="19" style="fill: rgb(0, 0, 0); fill-opacity: 0;"/></g><g class="traces" style="opacity: 1;" transform="translate(0,52.5)"><text class="legendtext" text-anchor="start" x="40" y="4.680000000000001" style="font-family: 'Open Sans', verdana, arial, sans-serif; font-size: 12px; fill: rgb(68, 68, 68); fill-opacity: 1; white-space: pre;">deceased</text><g class="layers" style="opacity: 1;"><g class="legendfill"/><g class="legendlines"><path class="js-line" d="M5,0h30" style="fill: none; stroke: rgb(44, 160, 44); stroke-opacity: 1; stroke-width: 2px;"/></g><g class="legendsymbols"><g class="legendpoints"/></g></g><rect class="legendtoggle" x="0" y="-9.5" width="96.109375" height="19" style="fill: rgb(0, 0, 0); fill-opacity: 0;"/></g></g></g><rect class="scrollbar" rx="20" ry="3" width="0" height="0" style="fill: rgb(128, 139, 164); fill-opacity: 1;" x="0" y="0"/></g><g class="g-gtitle"><text class="gtitle" x="513.5" y="12.5" text-anchor="middle" dy="0em" style="font-family: 'Open Sans', verdana, arial, sans-serif; font-size: 17px; fill: rgb(68, 68, 68); opacity: 1; font-weight: normal; white-space: pre;">Dynamics of new cases, resolved cases and deaths in Ontario (Nov 08, 2021)</text></g><g class="g-xtitle" transform="translate(0,-15)"><text class="xtitle" x="479" y="780" text-anchor="middle" style="font-family: 'Open Sans', verdana, arial, sans-serif; font-size: 14px; fill: rgb(68, 68, 68); opacity: 1; font-weight: normal; white-space: pre;">Date</text></g><g class="g-ytitle"><text class="ytitle" transform="rotate(-90,22,376.5)" x="22" y="376.5" text-anchor="middle" style="font-family: 'Open Sans', verdana, arial, sans-serif; font-size: 14px; fill: rgb(68, 68, 68); opacity: 1; font-weight: normal; white-space: pre;">Number of cases</text></g></g></svg>