<svg class="main-svg" xmlns="http://www.w3.org/2000/svg" xmlns:xlink="http://www.w3.org/1999/xlink" width="1027" height="768" style="" viewBox="0 0 1027 768"><rect x="0" y="0" width="1027" height="768" style="fill: rgb(255, 255, 255); fill-opacity: 1;"/><defs id="defs-93c02c"><g class="clips"><clipPath id="clip93c02cxyplot" class="plotclip"><rect width="838" height="703"/></clipPath><clipPath class="axesclip" id="clip93c02cx"><rect x="60" y="0" width="838" height="768"/></clipPath><clipPath class="axesclip" id="clip93c02cy"><rect x="0" y="25" width="1027" height="703"/></clipPath><clipPath class="axesclip" id="clip93c02cxy"><rect x="60" y="25" width="838" height="703"/></clipPath></g><g class="gradients"/></defs><g class="bglayer"/><g class="layer-below"><g class="imagelayer"/><g class="shapelayer"/></g><g class="cartesianlayer"><g class="subplot xy"><g class="layer-subplot"><g class="shapelayer"/><g class="imagelayer"/></g><g class="gridlayer"><g class="x"><path class="xgrid crisp" transform="translate(89.84,0)" d="M0,25v703" style="stroke: rgb(238, 238, 238); stroke-opacity: 1; stroke-width: 1px;"/><path class="xgrid crisp" transform="translate(241.53,0)" d="M0,25v703" style="stroke: rgb(238, 238, 238); stroke-opacity: 1; stroke-width: 1px;"/><path class="xgrid crisp" transform="translate(393.21,0)" d="M0,25v703" style="stroke: rgb(238, 238, 238); stroke-opacity: 1; stroke-width: 1px;"/><path class="xgrid crisp" transform="translate(547.38,0)" d="M0,25v703" style="stroke: rgb(238, 238, 238); stroke-opacity: 1; stroke-width: 1px;"/><path class="xgrid crisp" transform="translate(699.07,0)" d="M0,25v703" style="stroke: rgb(238, 238, 238); stroke-opacity: 1; stroke-width: 1px;"/><path class="xgrid crisp" transform="translate(850.75,0)" d="M0,25v703" style="stroke: rgb(238, 238, 238); stroke-opacity: 1; stroke-width: 1px;"/></g><g class="y"><path class="ygrid crisp" transform="translate(0,618.27)" d="M60,0h838" style="stroke: rgb(238, 238, 238); stroke-opacity: 1; stroke-width: 1px;"/><path class="ygrid crisp" transform="translate(0,543.83)" d="M60,0h838" style="stroke: rgb(238, 238, 238); stroke-opacity: 1; stroke-width: 1px;"/><path class="ygrid crisp" transform="translate(0,469.4)" d="M60,0h838" style="stroke: rgb(238, 238, 238); stroke-opacity: 1; stroke-width: 1px;"/><path class="ygrid crisp" transform="translate(0,394.96)" d="M60,0h838" style="stroke: rgb(238, 238, 238); stroke-opacity: 1; stroke-width: 1px;"/><path class="ygrid crisp" transform="translate(0,320.52)" d="M60,0h838" style="stroke: rgb(238, 238, 238); stroke-opacity: 1; stroke-width: 1px;"/><path class="ygrid crisp" transform="translate(0,246.09)" d="M60,0h838" style="stroke: rgb(238, 238, 238); stroke-opacity: 1; stroke-width: 1px;"/><path class="ygrid crisp" transform="translate(0,171.65)" d="M60,0h838" style="stroke: rgb(238, 238, 238); stroke-opacity: 1; stroke-width: 1px;"/><path class="ygrid crisp" transform="translate(0,97.22)" d="M60,0h838" style="stroke: rgb(238, 238, 238); stroke-opacity: 1; stroke-width: 1px;"/></g></g><g class="zerolinelayer"><path class="yzl zl crisp" transform="translate(0,692.7)" d="M60,0h838" style="stroke: rgb(68, 68, 68); stroke-opacity: 1; stroke-width: 1px;"/></g><path class="xlines-below"/><path class="ylines-below"/><g class="overlines-below"/><g class="xaxislayer-below"/><g class="yaxislayer-below"/><g class="overaxes-below"/><g class="plot" transform="translate(60, 25)" clip-path="url('#clip93c02cxyplot')"><g class="scatterlayer mlayer"><g class="trace scatter trace51942a" style="stroke-miterlimit: 2; opacity: 1;"><g class="fills"/><g class="errorbars"/><g class="lines"><path class="js-line" d="M0,667.7L24.87,667.55L32.33,665.91L34.81,667.4L37.3,667.7L49.73,666.66L52.22,667.7L62.17,664.13L64.65,661.45L67.14,662.94L69.63,666.06L74.6,661.3L77.09,658.77L79.57,659.22L82.06,661.15L84.55,656.24L87.03,655.34L89.52,653.56L92.01,642.69L94.49,648.05L96.98,645.37L99.47,580.02L101.95,628.99L104.44,604.28L106.93,608L109.41,598.92L111.9,611.87L114.39,606.96L116.87,621.7L119.36,611.28L121.85,585.82L124.33,595.8L126.82,596.54L129.31,606.52L131.79,608L134.28,605.03L136.77,595.8L139.25,594.16L141.74,591.18L144.23,583.74L146.71,595.5L149.2,583.14L151.69,577.49L156.66,591.78L159.15,573.32L161.63,572.42L164.12,596.84L166.61,602.64L169.09,604.58L171.58,589.54L174.07,616.04L176.55,599.37L179.04,605.03L181.53,591.63L184.01,603.09L186.5,612.62L188.99,610.09L191.47,606.37L193.96,608.3L196.45,596.69L198.93,616.19L201.42,623.93L203.91,621.85L206.39,613.96L208.88,618.72L211.36,616.34L213.85,616.94L216.34,609.49L218.82,617.09L221.31,622.44L223.8,604.13L226.28,609.64L228.77,606.22L231.26,602.05L233.74,606.37L236.23,599.22L238.72,607.56L241.2,624.98L243.69,624.23L246.18,610.68L248.66,616.49L251.15,619.62L253.64,619.17L256.12,607.56L258.61,601.3L261.1,617.38L263.58,614.7L266.07,616.49L268.56,599.97L271.04,605.92L273.53,631.53L276.02,633.46L278.5,630.33L280.99,637.48L283.48,640.61L285.96,628.1L288.45,638.37L290.94,640.76L293.42,640.31L295.91,639.42L298.4,641.95L300.88,641.2L303.37,637.03L305.86,641.65L308.34,643.73L310.83,635.55L313.32,643.44L315.8,639.56L318.29,651.18L320.78,643.88L323.26,641.2L325.75,629.44L328.24,644.33L330.72,645.52L333.21,644.92L335.7,643.14L338.18,649.69L343.16,644.78L345.64,651.03L348.13,650.13L350.62,642.39L353.1,650.43L355.59,648.35L358.08,648.5L360.56,650.43L365.54,652.52L368.02,651.18L370.51,651.18L373,642.99L375.48,643.29L377.97,647.6L380.46,637.48L382.94,643.14L385.43,652.37L387.92,638.67L390.4,647.16L392.89,647.31L395.38,649.99L397.86,651.18L400.35,656.39L402.84,654.45L405.32,647.75L407.81,649.24L410.3,650.43L412.78,654.6L415.27,654.15L417.76,654.9L420.24,653.56L422.73,654.6L425.22,657.28L427.7,655.94L430.19,650.58L432.68,662.79L435.16,653.56L437.65,656.09L442.62,651.92L445.11,655.64L447.6,652.96L450.08,649.09L455.06,656.39L457.54,648.2L460.03,651.62L462.52,650.58L469.98,654.6L472.46,650.13L474.95,649.54L477.44,645.67L479.92,651.03L482.41,650.73L484.9,651.03L487.38,647.9L489.87,648.05L492.36,645.67L494.84,642.54L497.33,644.18L499.82,639.42L502.3,640.16L504.79,645.52L507.28,642.39L509.76,635.99L512.25,633.16L514.74,637.33L517.22,621.1L519.71,630.33L522.2,620.81L524.68,624.08L527.17,608L529.66,607.11L532.14,613.36L537.12,596.54L539.6,617.83L542.09,606.81L544.58,606.81L547.06,602.94L549.55,594.61L552.04,563.49L554.52,585.23L557.01,574.66L559.5,587.61L561.98,558.73L564.47,570.49L566.96,583.44L569.44,576.15L571.93,586.12L574.42,580.91L576.9,549.05L579.39,527.91L584.36,571.08L586.85,547.56L589.34,556.64L591.82,560.37L594.31,551.14L596.8,561.71L599.28,547.86L601.77,569.74L604.26,562.9L606.74,545.48L609.23,550.09L611.72,542.5L614.2,544.73L616.69,522.11L619.18,512.58L621.66,541.01L624.15,544.59L626.64,543.54L629.12,528.66L631.61,534.31L634.09,516.6L636.58,522.25L639.07,526.57L641.55,511.39L644.04,520.77L646.53,519.13L649.01,518.38L651.5,499.18L653.99,470L656.47,482.8L658.96,461.07L661.45,455.41L663.93,433.23L666.42,459.88L668.91,432.34L671.39,481.91L673.88,446.33L676.37,481.76L678.85,456.75L681.34,487.57L686.31,431.29L688.8,439.33L691.29,431.15L693.77,517.49L696.26,463.3L698.75,447.67L701.23,391.55L703.72,396.46L706.21,413.43L708.69,407.77L711.18,413.58L713.67,411.2L716.15,396.16L718.64,402.71L723.61,381.27L726.1,381.13L728.59,418.19L731.07,386.34L733.56,372.49L736.05,392.59L738.53,388.87L741.02,418.05L745.99,329.02L748.48,349.27L750.97,305.65L753.45,326.79L755.94,316.81L758.43,322.92L760.91,351.65L763.4,339.89L765.89,309.22L768.37,303.41L770.86,346.29L773.35,348.82L775.83,369.22L778.32,379.04L780.81,287.63L783.29,232.55L785.78,172.26L788.27,299.1L790.75,167.05L793.24,226.45L795.73,180.89L798.21,202.03L800.7,181.49L803.19,143.83L805.67,35.15L808.16,155.14L810.65,80.41L813.13,170.77L815.62,235.53L818.11,226.9L820.59,172.56L823.08,221.39L825.57,212.75L828.05,158.27L833.03,382.91L835.51,272.45L838,275.87" style="vector-effect: non-scaling-stroke; fill: none; stroke: rgb(31, 119, 180); stroke-opacity: 1; stroke-width: 2px; opacity: 1;"/></g><g class="points"/><g class="text"/></g><g class="trace scatter traceda2234" style="stroke-miterlimit: 2; opacity: 1;"><g class="fills"/><g class="errorbars"/><g class="lines"><path class="js-line" d="M0,667.7L96.98,667.7L99.47,604.73L101.95,652.37L104.44,644.63L106.93,646.56L109.41,639.12L111.9,638.52L114.39,633.46L116.87,641.65L119.36,641.2L121.85,627.21L124.33,633.31L126.82,627.65L129.31,625.42L134.28,632.57L136.77,636.29L139.25,617.98L141.74,624.23L144.23,613.81L146.71,620.21L149.2,617.98L151.69,622.15L154.17,624.38L156.66,605.92L159.15,599.37L161.63,607.11L164.12,604.88L166.61,594.61L169.09,589.54L171.58,602.35L174.07,571.23L176.55,579.42L179.04,575.4L181.53,583.59L184.01,576.15L186.5,593.27L188.99,626.91L191.47,601.75L193.96,616.04L196.45,605.03L198.93,609.19L201.42,609.79L203.91,614.26L206.39,628.99L208.88,600.11L211.36,614.26L213.85,602.64L216.34,611.28L218.82,617.09L221.31,626.32L223.8,628.99L226.28,624.23L228.77,620.21L231.26,629.29L233.74,611.28L236.23,618.42L238.72,634.8L241.2,628.99L243.69,606.07L246.18,622.89L248.66,621.55L251.15,612.62L253.64,599.67L256.12,616.64L258.61,618.42L261.1,619.02L263.58,608.6L266.07,611.87L268.56,613.51L271.04,622.3L273.53,631.97L276.02,617.53L278.5,585.67L280.99,592.52L283.48,622.74L285.96,615.45L288.45,604.73L290.94,630.19L293.42,635.25L295.91,615.15L298.4,634.95L300.88,631.08L303.37,635.25L305.86,630.33L310.83,641.8L313.32,633.61L315.8,639.12L318.29,634.06L320.78,641.2L323.26,641.65L325.75,654.45L328.24,645.67L330.72,640.61L333.21,637.33L335.7,641.05L338.18,641.8L340.67,640.46L343.16,643.88L345.64,641.35L348.13,637.63L350.62,642.1L353.1,641.2L355.59,627.95L358.08,651.03L360.56,648.5L363.05,649.54L365.54,647.6L368.02,646.71L370.51,652.67L373,648.05L375.48,650.88L377.97,651.92L380.46,654.01L382.94,636.88L385.43,645.22L387.92,647.31L390.4,646.86L392.89,649.99L395.38,652.52L397.86,651.92L400.35,641.8L402.84,643.14L405.32,642.69L407.81,643.44L410.3,649.54L412.78,648.94L415.27,650.43L417.76,645.97L420.24,644.03L422.73,650.13L425.22,651.77L427.7,645.67L430.19,652.52L432.68,656.54L435.16,647.75L437.65,652.96L440.14,655.34L442.62,652.67L445.11,655.79L447.6,655.34L450.08,654.3L452.57,654.45L455.06,656.39L457.54,651.92L460.03,654.3L462.52,651.62L465,656.09L467.49,656.54L469.98,650.58L472.46,656.24L474.95,655.34L477.44,652.37L479.92,656.09L482.41,656.83L484.9,654.01L487.38,647.31L489.87,649.99L492.36,650.43L494.84,651.92L497.33,651.18L499.82,649.99L502.3,649.99L504.79,647.45L507.28,646.56L509.76,649.24L512.25,649.99L517.22,647.9L519.71,650.28L524.68,641.05L527.17,641.5L529.66,641.35L532.14,639.27L534.63,641.2L537.12,638.52L539.6,629.29L542.09,625.12L544.58,625.57L547.06,617.38L549.55,624.68L552.04,618.42L554.52,619.62L557.01,599.67L559.5,591.03L561.98,603.98L564.47,602.94L566.96,588.2L571.93,586.42L574.42,562.45L576.9,564.24L579.39,559.92L581.88,563.49L584.36,562.75L589.34,574.81L591.82,551.14L594.31,551.73L596.8,561.56L599.28,566.17L601.77,565.72L604.26,577.34L606.74,574.21L609.23,560.66L611.72,557.39L614.2,558.58L616.69,574.66L619.18,558.13L621.66,566.62L624.15,564.83L626.64,552.62L629.12,545.63L631.61,549.2L634.09,548.9L636.58,539.08L639.07,544.73L641.55,543.1L644.04,527.02L646.53,526.57L649.01,526.42L651.5,540.86L653.99,537.14L656.47,545.48L658.96,551.43L661.45,535.8L663.93,531.19L666.42,516.15L668.91,518.38L671.39,509.6L673.88,520.02L676.37,498.73L678.85,445.14L681.34,462.86L683.83,457.05L686.31,464.79L691.29,446.78L693.77,506.62L696.26,447.97L698.75,464.49L701.23,451.69L703.72,442.91L706.21,452.88L708.69,471.19L711.18,463.3L713.67,416.71L716.15,438.29L718.64,436.51L721.13,425.94L723.61,433.38L726.1,457.5L728.59,437.1L731.07,381.27L733.56,399.14L736.05,406.73L738.53,382.17L741.02,417.9L743.51,439.18L748.48,363.56L750.97,368.62L753.45,371.15L755.94,390.06L758.43,380.23L760.91,421.47L763.4,384.85L765.89,333.78L768.37,368.02L770.86,334.68L773.35,382.91L775.83,369.22L778.32,347.48L780.81,335.27L783.29,334.68L785.78,338.25L788.27,301.48L790.75,361.92L793.24,343.91L795.73,358.94L798.21,367.73L800.7,220.35L803.19,254.44L805.67,260.09L808.16,233.74L810.65,296.12L813.13,257.41L815.62,168.54L818.11,162.73L820.59,132.81L825.57,189.53L828.05,209.48L830.54,246.99L833.03,240L835.51,114.8L838,222.58" style="vector-effect: non-scaling-stroke; fill: none; stroke: rgb(255, 127, 14); stroke-opacity: 1; stroke-width: 2px; opacity: 1;"/></g><g class="points"/><g class="text"/></g><g class="trace scatter tracee73561" style="stroke-miterlimit: 2; opacity: 1;"><g class="fills"/><g class="errorbars"/><g class="lines"><path class="js-line" d="M0,667.7L99.47,667.11L101.95,666.21L104.44,667.11L106.93,665.32L109.41,665.62L111.9,663.68L114.39,663.98L116.87,665.77L119.36,664.57L121.85,664.57L124.33,663.83L126.82,664.43L129.31,663.09L131.79,664.57L134.28,665.17L136.77,661.3L139.25,660.11L141.74,662.04L144.23,659.51L146.71,662.34L149.2,661.9L151.69,663.09L154.17,662.04L156.66,662.19L159.15,659.66L161.63,660.26L164.12,660.56L166.61,664.13L169.09,659.22L171.58,658.92L174.07,661L176.55,654.9L179.04,661.9L181.53,659.51L184.01,661.75L186.5,655.2L188.99,658.62L191.47,657.58L193.96,660.56L196.45,658.32L198.93,658.92L201.42,662.49L203.91,662.49L206.39,659.36L208.88,661.75L211.36,662.79L213.85,663.68L216.34,662.79L218.82,664.28L221.31,664.28L223.8,665.47L226.28,661.3L228.77,663.09L231.26,663.53L238.72,663.38L241.2,664.57L243.69,662.94L246.18,662.64L248.66,661.6L251.15,665.17L253.64,664.87L256.12,666.21L261.1,664.87L263.58,661L266.07,665.47L268.56,662.49L271.04,664.87L273.53,664.13L276.02,665.62L278.5,666.06L288.45,665.91L290.94,666.51L295.91,665.91L298.4,667.25L300.88,666.06L303.37,663.09L305.86,666.06L308.34,667.25L313.32,665.91L315.8,666.21L318.29,667.25L320.78,666.51L330.72,667.11L333.21,667.11L343.16,667.7L345.64,667.4L348.13,666.36L350.62,667.25L355.59,666.81L358.08,667.25L363.05,667.55L365.54,666.36L368.02,666.96L370.51,666.36L373,667.4L375.48,667.25L385.43,667.7L387.92,667.25L395.38,667.55L397.86,667.11L402.84,667.25L405.32,667.25L422.73,667.7L425.22,667.55L435.16,667.55L437.65,667.7L450.08,667.11L452.57,667.85L460.03,667.55L462.52,667.7L474.95,666.81L477.44,667.7L487.38,667.7L489.87,667.7L502.3,667.7L504.79,667.7L524.68,667.25L527.17,667.7L542.09,667.55L544.58,667.55L552.04,667.55L554.52,667.11L559.5,667.25L561.98,656.39L566.96,666.66L569.44,666.96L571.93,666.66L574.42,667.55L581.88,666.66L584.36,667.55L589.34,666.36L591.82,667.7L599.28,666.21L601.77,666.96L606.74,667.25L609.23,666.36L626.64,666.96L629.12,666.21L639.07,666.66L641.55,665.62L646.53,665.77L649.01,665.62L653.99,665.77L656.47,665.91L666.42,664.87L668.91,664.72L671.39,663.38L673.88,666.21L676.37,665.91L678.85,662.94L681.34,663.53L683.83,666.51L686.31,664.57L688.8,665.62L691.29,664.87L693.77,665.62L696.26,662.49L698.75,664.57L701.23,664.72L703.72,663.38L706.21,664.13L708.69,666.51L711.18,666.66L713.67,662.49L716.15,665.62L718.64,663.98L723.61,665.47L726.1,663.83L728.59,666.21L731.07,663.53L736.05,661L738.53,665.17L741.02,665.32L743.51,664.28L745.99,664.72L748.48,661.3L750.97,664.28L753.45,661.75L755.94,663.68L758.43,663.98L760.91,665.17L763.4,664.57L765.89,661.6L768.37,660.41L773.35,662.04L775.83,665.02L778.32,662.19L780.81,661.6L783.29,664.87L785.78,659.36L790.75,661.15L793.24,663.98L795.73,663.38L798.21,660.11L800.7,662.19L803.19,654.45L805.67,663.83L808.16,661.75L810.65,658.62L813.13,663.38L815.62,661.6L818.11,656.68L820.59,658.47L823.08,652.81L825.57,660.11L828.05,657.43L830.54,664.13L833.03,660.85L835.51,654.45L838,660.85" style="vector-effect: non-scaling-stroke; fill: none; stroke: rgb(44, 160, 44); stroke-opacity: 1; stroke-width: 2px; opacity: 1;"/></g><g class="points"/><g class="text"/></g></g></g><g class="overplot"/><path class="xlines-above crisp" style="fill: none;" d="M0,0"/><path class="ylines-above crisp" style="fill: none;" d="M0,0"/><g class="overlines-above"/><g class="xaxislayer-above"><g class="xtick"><text text-anchor="middle" x="0" y="741" transform="translate(89.84,0)" style="font-family: 'Open Sans', verdana, arial, sans-serif; font-size: 12px; fill: rgb(68, 68, 68); fill-opacity: 1; white-space: pre;">Mar 2020</text></g><g class="xtick"><text text-anchor="middle" x="0" y="741" transform="translate(241.53,0)" style="font-family: 'Open Sans', verdana, arial, sans-serif; font-size: 12px; fill: rgb(68, 68, 68); fill-opacity: 1; white-space: pre;">May 2020</text></g><g class="xtick"><text text-anchor="middle" x="0" y="741" transform="translate(393.21,0)" style="font-family: 'Open Sans', verdana, arial, sans-serif; font-size: 12px; fill: rgb(68, 68, 68); fill-opacity: 1; white-space: pre;">Jul 2020</text></g><g class="xtick"><text text-anchor="middle" x="0" y="741" transform="translate(547.38,0)" style="font-family: 'Open Sans', verdana, arial, sans-serif; font-size: 12px; fill: rgb(68, 68, 68); fill-opacity: 1; white-space: pre;">Sep 2020</text></g><g class="xtick"><text text-anchor="middle" x="0" y="741" transform="translate(699.07,0)" style="font-family: 'Open Sans', verdana, arial, sans-serif; font-size: 12px; fill: rgb(68, 68, 68); fill-opacity: 1; white-space: pre;">Nov 2020</text></g><g class="xtick"><text text-anchor="middle" x="0" y="741" transform="translate(850.75,0)" style="font-family: 'Open Sans', verdana, arial, sans-serif; font-size: 12px; fill: rgb(68, 68, 68); fill-opacity: 1; white-space: pre;">Jan 2021</text></g></g><g class="yaxislayer-above"><g class="ytick"><text text-anchor="end" x="59" y="4.199999999999999" transform="translate(0,692.7)" style="font-family: 'Open Sans', verdana, arial, sans-serif; font-size: 12px; fill: rgb(68, 68, 68); fill-opacity: 1; white-space: pre;">0</text></g><g class="ytick"><text text-anchor="end" x="59" y="4.199999999999999" transform="translate(0,618.27)" style="font-family: 'Open Sans', verdana, arial, sans-serif; font-size: 12px; fill: rgb(68, 68, 68); fill-opacity: 1; white-space: pre;">500</text></g><g class="ytick"><text text-anchor="end" x="59" y="4.199999999999999" transform="translate(0,543.83)" style="font-family: 'Open Sans', verdana, arial, sans-serif; font-size: 12px; fill: rgb(68, 68, 68); fill-opacity: 1; white-space: pre;">1000</text></g><g class="ytick"><text text-anchor="end" x="59" y="4.199999999999999" transform="translate(0,469.4)" style="font-family: 'Open Sans', verdana, arial, sans-serif; font-size: 12px; fill: rgb(68, 68, 68); fill-opacity: 1; white-space: pre;">1500</text></g><g class="ytick"><text text-anchor="end" x="59" y="4.199999999999999" transform="translate(0,394.96)" style="font-family: 'Open Sans', verdana, arial, sans-serif; font-size: 12px; fill: rgb(68, 68, 68); fill-opacity: 1; white-space: pre;">2000</text></g><g class="ytick"><text text-anchor="end" x="59" y="4.199999999999999" transform="translate(0,320.52)" style="font-family: 'Open Sans', verdana, arial, sans-serif; font-size: 12px; fill: rgb(68, 68, 68); fill-opacity: 1; white-space: pre;">2500</text></g><g class="ytick"><text text-anchor="end" x="59" y="4.199999999999999" transform="translate(0,246.09)" style="font-family: 'Open Sans', verdana, arial, sans-serif; font-size: 12px; fill: rgb(68, 68, 68); fill-opacity: 1; white-space: pre;">3000</text></g><g class="ytick"><text text-anchor="end" x="59" y="4.199999999999999" transform="translate(0,171.65)" style="font-family: 'Open Sans', verdana, arial, sans-serif; font-size: 12px; fill: rgb(68, 68, 68); fill-opacity: 1; white-space: pre;">3500</text></g><g class="ytick"><text text-anchor="end" x="59" y="4.199999999999999" transform="translate(0,97.22)" style="font-family: 'Open Sans', verdana, arial, sans-serif; font-size: 12px; fill: rgb(68, 68, 68); fill-opacity: 1; white-space: pre;">4000</text></g></g><g class="overaxes-above"/></g></g><g class="polarlayer"/><g class="ternarylayer"/><g class="geolayer"/><g class="funnelarealayer"/><g class="pielayer"/><g class="treemaplayer"/><g class="sunburstlayer"/><g class="glimages"/><defs id="topdefs-93c02c"><g class="clips"/><clipPath id="legend93c02c"><rect width="102" height="67" x="0" y="0"/></clipPath></defs><g class="layer-above"><g class="imagelayer"/><g class="shapelayer"/></g><g class="infolayer"><g class="legend" pointer-events="all" transform="translate(914.76, 25)"><rect class="bg" shape-rendering="crispEdges" style="stroke: rgb(68, 68, 68); stroke-opacity: 1; fill: rgb(255, 255, 255); fill-opacity: 1; stroke-width: 0px;" width="102" height="67" x="0" y="0"/><g class="scrollbox" transform="translate(0, 0)" clip-path="url('#legend93c02c')"><g class="groups"><g class="traces" style="opacity: 1;" transform="translate(0, 14.5)"><text class="legendtext" text-anchor="start" x="40" y="4.680000000000001" style="font-family: 'Open Sans', verdana, arial, sans-serif; font-size: 12px; fill: rgb(68, 68, 68); fill-opacity: 1; white-space: pre;">positive</text><g class="layers" style="opacity: 1;"><g class="legendfill"/><g class="legendlines"><path class="js-line" d="M5,0h30" style="fill: none; stroke: rgb(31, 119, 180); stroke-opacity: 1; stroke-width: 2px;"/></g><g class="legendsymbols"><g class="legendpoints"/></g></g><rect class="legendtoggle" x="0" y="-9.5" width="96.109375" height="19" style="fill: rgb(0, 0, 0); fill-opacity: 0;"/></g><g class="traces" style="opacity: 1;" transform="translate(0, 33.5)"><text class="legendtext" text-anchor="start" x="40" y="4.680000000000001" style="font-family: 'Open Sans', verdana, arial, sans-serif; font-size: 12px; fill: rgb(68, 68, 68); fill-opacity: 1; white-space: pre;">resolved</text><g class="layers" style="opacity: 1;"><g class="legendfill"/><g class="legendlines"><path class="js-line" d="M5,0h30" style="fill: none; stroke: rgb(255, 127, 14); stroke-opacity: 1; stroke-width: 2px;"/></g><g class="legendsymbols"><g class="legendpoints"/></g></g><rect class="legendtoggle" x="0" y="-9.5" width="96.109375" height="19" style="fill: rgb(0, 0, 0); fill-opacity: 0;"/></g><g class="traces" style="opacity: 1;" transform="translate(0, 52.5)"><text class="legendtext" text-anchor="start" x="40" y="4.680000000000001" style="font-family: 'Open Sans', verdana, arial, sans-serif; font-size: 12px; fill: rgb(68, 68, 68); fill-opacity: 1; white-space: pre;">deceased</text><g class="layers" style="opacity: 1;"><g class="legendfill"/><g class="legendlines"><path class="js-line" d="M5,0h30" style="fill: none; stroke: rgb(44, 160, 44); stroke-opacity: 1; stroke-width: 2px;"/></g><g class="legendsymbols"><g class="legendpoints"/></g></g><rect class="legendtoggle" x="0" y="-9.5" width="96.109375" height="19" style="fill: rgb(0, 0, 0); fill-opacity: 0;"/></g></g></g><rect class="scrollbar" rx="20" ry="3" width="0" height="0" style="fill: rgb(128, 139, 164); fill-opacity: 1;" x="0" y="0"/></g><g class="g-gtitle"><text class="gtitle" x="513.5" y="12.5" text-anchor="middle" dy="0em" style="font-family: 'Open Sans', verdana, arial, sans-serif; font-size: 17px; fill: rgb(68, 68, 68); opacity: 1; font-weight: normal; white-space: pre;">Dynamics of new cases, resolved cases and deaths in Ontario (Jan 21, 2021)</text></g><g class="g-xtitle" transform="translate(0,-15)"><text class="xtitle" x="479" y="780" text-anchor="middle" style="font-family: 'Open Sans', verdana, arial, sans-serif; font-size: 14px; fill: rgb(68, 68, 68); opacity: 1; font-weight: normal; white-space: pre;">Date</text></g><g class="g-ytitle"><text class="ytitle" transform="rotate(-90,22,376.5)" x="22" y="376.5" text-anchor="middle" style="font-family: 'Open Sans', verdana, arial, sans-serif; font-size: 14px; fill: rgb(68, 68, 68); opacity: 1; font-weight: normal; white-space: pre;">Number of cases</text></g></g></svg>