<svg class="main-svg" xmlns="http://www.w3.org/2000/svg" xmlns:xlink="http://www.w3.org/1999/xlink" width="1027" height="768" style="" viewBox="0 0 1027 768"><rect x="0" y="0" width="1027" height="768" style="fill: rgb(255, 255, 255); fill-opacity: 1;"/><defs id="defs-73bffc"><g class="clips"><clipPath id="clip73bffcxyplot" class="plotclip"><rect width="838" height="703"/></clipPath><clipPath class="axesclip" id="clip73bffcx"><rect x="60" y="0" width="838" height="768"/></clipPath><clipPath class="axesclip" id="clip73bffcy"><rect x="0" y="25" width="1027" height="703"/></clipPath><clipPath class="axesclip" id="clip73bffcxy"><rect x="60" y="25" width="838" height="703"/></clipPath></g><g class="gradients"/></defs><g class="bglayer"/><g class="layer-below"><g class="imagelayer"/><g class="shapelayer"/></g><g class="cartesianlayer"><g class="subplot xy"><g class="layer-subplot"><g class="shapelayer"/><g class="imagelayer"/></g><g class="gridlayer"><g class="x"><path class="xgrid crisp" transform="translate(76.87,0)" d="M0,25v703" style="stroke: rgb(238, 238, 238); stroke-opacity: 1; stroke-width: 1px;"/><path class="xgrid crisp" transform="translate(162.64,0)" d="M0,25v703" style="stroke: rgb(238, 238, 238); stroke-opacity: 1; stroke-width: 1px;"/><path class="xgrid crisp" transform="translate(248.41,0)" d="M0,25v703" style="stroke: rgb(238, 238, 238); stroke-opacity: 1; stroke-width: 1px;"/><path class="xgrid crisp" transform="translate(335.58,0)" d="M0,25v703" style="stroke: rgb(238, 238, 238); stroke-opacity: 1; stroke-width: 1px;"/><path class="xgrid crisp" transform="translate(421.35,0)" d="M0,25v703" style="stroke: rgb(238, 238, 238); stroke-opacity: 1; stroke-width: 1px;"/><path class="xgrid crisp" transform="translate(507.12,0)" d="M0,25v703" style="stroke: rgb(238, 238, 238); stroke-opacity: 1; stroke-width: 1px;"/><path class="xgrid crisp" transform="translate(590.08,0)" d="M0,25v703" style="stroke: rgb(238, 238, 238); stroke-opacity: 1; stroke-width: 1px;"/><path class="xgrid crisp" transform="translate(675.85,0)" d="M0,25v703" style="stroke: rgb(238, 238, 238); stroke-opacity: 1; stroke-width: 1px;"/><path class="xgrid crisp" transform="translate(761.61,0)" d="M0,25v703" style="stroke: rgb(238, 238, 238); stroke-opacity: 1; stroke-width: 1px;"/><path class="xgrid crisp" transform="translate(848.79,0)" d="M0,25v703" style="stroke: rgb(238, 238, 238); stroke-opacity: 1; stroke-width: 1px;"/></g><g class="y"><path class="ygrid crisp" transform="translate(0,559.91)" d="M60,0h838" style="stroke: rgb(238, 238, 238); stroke-opacity: 1; stroke-width: 1px;"/><path class="ygrid crisp" transform="translate(0,428.81)" d="M60,0h838" style="stroke: rgb(238, 238, 238); stroke-opacity: 1; stroke-width: 1px;"/><path class="ygrid crisp" transform="translate(0,297.71)" d="M60,0h838" style="stroke: rgb(238, 238, 238); stroke-opacity: 1; stroke-width: 1px;"/><path class="ygrid crisp" transform="translate(0,166.61)" d="M60,0h838" style="stroke: rgb(238, 238, 238); stroke-opacity: 1; stroke-width: 1px;"/><path class="ygrid crisp" transform="translate(0,35.5)" d="M60,0h838" style="stroke: rgb(238, 238, 238); stroke-opacity: 1; stroke-width: 1px;"/></g></g><g class="zerolinelayer"><path class="yzl zl crisp" transform="translate(0,691.01)" d="M60,0h838" style="stroke: rgb(68, 68, 68); stroke-opacity: 1; stroke-width: 1px;"/></g><path class="xlines-below"/><path class="ylines-below"/><g class="overlines-below"/><g class="xaxislayer-below"/><g class="yaxislayer-below"/><g class="overaxes-below"/><g class="plot" transform="translate(60, 25)" clip-path="url('#clip73bffcxyplot')"><g class="scatterlayer mlayer"><g class="trace scatter trace8a89a4" style="stroke-miterlimit: 2; opacity: 1;"><g class="fills"/><g class="errorbars"/><g class="lines"><path class="js-line" d="M4.22,666.28L14.06,665.88L18.28,664.44L19.68,665.75L21.09,666.01L0,667.85L1.41,666.01L15.47,665.75L16.87,664.44L25.31,665.88L26.71,665.23L28.12,665.88L29.53,665.23L32.34,663.39L33.74,662.87L35.15,660.51L36.56,661.82L37.96,664.44L39.37,662.74L42.18,658.15L43.59,658.28L44.99,659.72L46.4,655.79L47.81,654.87L49.21,652.9L50.62,643.73L52.02,648.32L53.43,646.22L54.84,638.35L56.24,620L57.65,631.93L59.05,610.16L60.46,613.44L61.87,605.45L63.27,616.85L64.68,612.52L66.08,625.5L67.49,616.33L68.9,593.91L70.3,602.69L71.71,603.35L73.11,612.13L74.52,613.44L75.93,610.82L77.33,602.69L78.74,601.25L80.14,598.63L81.55,592.07L82.96,602.43L84.36,591.55L85.77,586.57L88.58,599.15L89.99,582.9L91.39,582.11L92.8,603.61L94.2,608.72L95.61,610.43L97.02,597.19L98.42,620.52L99.83,605.84L101.23,610.82L102.64,599.02L104.05,609.12L105.45,617.51L106.86,615.28L108.27,612L109.67,613.7L111.08,603.48L112.48,620.65L113.89,627.47L115.3,625.64L116.7,618.69L118.11,622.88L119.51,620.78L120.92,621.31L122.33,614.75L123.73,621.44L125.14,626.16L126.54,610.03L127.95,614.88L129.36,611.87L130.76,608.2L132.17,612L133.57,605.71L134.98,613.05L136.39,628.39L137.79,627.73L139.2,615.8L140.6,620.92L142.01,623.67L143.42,623.28L146.23,607.54L147.63,621.7L149.04,619.34L150.45,620.92L151.85,606.36L153.26,611.61L154.66,634.16L156.07,635.86L157.48,633.11L158.88,639.4L160.29,642.15L161.69,631.14L163.1,640.19L164.51,642.29L167.32,641.11L168.72,643.33L170.13,642.68L171.54,639.01L174.35,644.91L175.76,637.7L177.16,644.64L178.57,641.24L179.97,651.46L181.38,645.04L182.79,642.68L184.19,632.32L185.6,645.43L187,646.48L188.41,645.96L189.82,644.38L191.22,650.15L192.63,647.92L194.03,645.82L195.44,651.33L196.85,650.54L198.25,643.73L199.66,650.81L201.06,648.97L202.47,649.1L203.88,650.81L206.69,652.64L208.09,651.46L209.5,651.46L210.91,644.25L212.31,644.51L213.72,648.32L215.12,639.4L216.53,644.38L217.94,652.51L219.34,640.45L220.75,647.92L222.15,648.05L224.97,651.46L226.37,656.05L227.78,654.35L229.18,648.45L232,650.81L233.4,654.48L234.81,654.08L236.21,654.74L237.62,653.56L239.03,654.48L240.43,656.84L241.84,655.66L243.24,650.94L244.65,661.69L246.06,653.56L247.46,655.79L250.28,652.12L251.68,655.4L254.49,649.63L255.9,652.64L257.31,656.05L258.71,648.84L260.12,651.86L261.52,650.94L265.74,654.48L267.15,650.54L268.55,650.02L269.96,646.61L271.37,651.33L272.77,651.07L274.18,651.33L275.58,648.58L276.99,648.71L278.4,646.61L279.8,643.86L281.21,645.3L282.61,641.11L284.02,641.76L285.43,646.48L286.83,643.73L288.24,638.09L289.64,635.6L291.05,639.27L292.46,624.98L293.86,633.11L295.27,624.72L296.67,627.6L298.08,613.44L299.49,612.66L300.89,618.16L303.7,603.35L305.11,622.1L306.52,612.39L307.92,612.39L309.33,608.99L310.73,601.64L312.14,574.24L313.55,593.38L314.95,584.08L316.36,595.48L317.77,570.05L319.17,580.4L320.58,591.81L321.98,585.39L323.39,594.17L324.8,589.58L327.61,542.91L329.01,559.95L330.42,580.93L331.83,560.21L333.23,568.21L334.64,571.49L336.04,563.36L337.45,572.67L338.86,560.48L340.26,579.75L341.67,573.72L343.07,558.38L344.48,562.44L345.89,555.76L347.29,557.72L348.7,537.8L350.1,529.41L351.51,554.45L352.92,557.59L354.32,556.68L355.73,543.56L357.13,548.55L358.54,532.95L359.95,537.93L361.35,541.73L362.76,528.36L364.16,536.62L365.57,535.17L366.98,534.52L368.38,517.61L369.79,491.91L371.19,503.19L372.6,484.04L374.01,479.06L375.41,459.53L376.82,483L378.22,458.74L379.63,502.4L381.04,471.07L382.44,502.27L383.85,480.24L385.26,507.38L388.07,457.82L389.47,464.9L390.88,457.69L392.29,533.73L393.69,486.01L395.1,472.25L396.5,422.82L397.91,427.15L399.32,442.09L400.72,437.11L402.13,442.22L403.53,440.13L404.94,426.88L406.35,432.65L409.16,413.77L410.56,413.64L411.97,446.29L413.38,418.23L414.78,406.04L416.19,423.74L417.59,420.46L419,446.16L421.81,367.76L423.22,385.59L424.62,347.17L426.03,365.79L427.44,357.01L428.84,362.38L430.25,387.68L431.65,377.33L433.06,350.32L434.47,345.21L435.87,382.96L437.28,385.19L440.09,411.81L441.5,331.31L444.31,229.71L445.71,341.41L447.12,225.12L448.53,277.43L449.93,237.31L451.34,255.93L452.74,237.83L454.15,204.67L455.56,108.96L456.96,214.63L458.37,148.82L459.78,228.39L461.18,285.42L462.59,277.82L463.99,229.97L465.4,272.97L466.81,265.37L468.21,217.38L471.02,415.22L472.43,317.94L473.84,320.95L475.24,317.02L476.65,356.74L478.05,349.14L480.87,437.9L482.27,447.07L483.68,391.62L485.08,425.18L486.49,395.55L487.9,423.74L489.3,407.87L490.71,568.34L493.52,461.1L494.93,447.07L496.33,484.04L497.74,470.8L500.55,532.03L501.96,525.47L503.36,542.12L504.77,524.95L506.17,495.58L507.58,537.4L508.99,539.63L510.39,547.5L511.8,554.97L513.2,529.93L516.02,505.02L517.42,523.51L518.83,527.31L520.23,538.19L523.05,516.82L524.45,501.09L525.86,510.66L527.27,526.78L530.08,539.37L531.48,540.42L532.89,535.7L534.3,502.14L535.7,536.22L537.11,495.71L538.51,452.19L539.92,510.66L541.33,493.48L542.73,522.85L544.14,486.27L545.54,473.56L546.95,436.98L548.36,499.78L549.76,525.21L551.17,468.31L552.57,462.41L553.98,437.24L555.39,426.23L556.79,431.21L558.2,443.27L559.6,463.33L561.01,460.05L562.42,353.99L563.82,381.65L565.23,344.42L566.63,345.08L568.04,391.49L569.45,359.76L570.85,360.15L572.26,330.79L573.66,261.04L575.07,271.53L576.48,267.33L577.88,280.84L579.29,264.19L582.1,234.03L583.51,111.84L584.91,166.12L586.32,81.82L587.72,89.03L589.13,184.87L591.94,45.11L593.35,35.15L594.76,94.15L596.16,108.83L597.57,83L598.97,211.22L600.38,113.81L601.79,183.3L603.19,75.4L604.6,129.28L606,148.55L607.41,205.85L608.82,237.97L610.22,209.78L611.63,158.52L613.03,156.42L614.44,224.33L615.85,176.74L617.25,215.55L618.66,300.11L620.06,280.44L621.47,217.12L624.28,290.54L625.69,244.39L628.5,394.24L629.91,361.86L631.31,304.3L632.72,356.35L634.12,327.25L635.53,377.72L636.94,381.52L638.34,454.15L639.75,457.82L641.15,351.37L642.56,418.23L643.97,430.82L645.37,444.32L646.78,476.44L648.18,529.8L649.59,522.46L651,517.21L652.4,499.12L653.81,527.44L655.21,530.59L656.62,545.92L658.03,574.37L659.43,569.92L660.84,551.96L662.24,546.19L663.65,568.47L665.06,579.09L666.46,597.19L669.28,612.13L670.68,588.66L672.09,590.76L673.49,600.2L674.9,596.53L676.31,607.41L677.71,627.21L679.12,615.67L680.52,617.51L681.93,620.78L683.34,619.47L684.74,624.32L686.15,630.62L687.55,627.21L688.96,632.58L690.37,627.21L691.77,632.45L693.18,620.65L695.99,638.48L697.4,626.81L698.8,641.89L700.21,628.78L701.61,639.79L703.02,638.61L704.43,638.09L705.83,643.73L707.24,634.03L708.64,640.58L710.05,638.48L711.46,642.02L712.86,642.55L714.27,644.25L715.67,651.07L717.08,646.87L718.49,645.96L719.89,647.27L722.7,642.94L724.11,642.81L725.52,648.97L726.92,649.36L728.33,648.32L729.73,641.76L731.14,640.84L732.55,643.73L733.95,643.46L735.36,650.41L736.77,649.1L738.17,645.3L739.58,637.43L740.98,636.39L742.39,632.19L743.8,637.43L745.2,643.99L746.61,644.51L748.01,647.79L749.42,638.09L750.83,621.44L752.23,616.46L753.64,610.56L755.04,623.41L756.45,623.93L757.86,623.54L759.26,598.76L760.67,599.15L762.07,590.24L763.48,599.02L764.89,597.05L766.29,620.39L767.7,602.43L769.1,596.4L770.51,580.8L771.92,575.69L773.32,571.36L774.73,582.24L776.13,602.3L777.54,579.49L778.95,577.13L780.35,563.62L781.76,556.54L783.16,569L784.57,575.03L785.98,597.19L787.38,580.01L788.79,552.61L790.19,560.21L791.6,542.25L793.01,559.69L794.41,589.84L797.22,593.38L798.63,561.39L800.04,554.84L801.44,553.66L802.85,563.23L804.26,587.35L805.66,590.37L807.07,588.27L808.47,552.74L809.88,561.79L811.29,558.38L812.69,572.28L814.1,586.04L815.5,590.76L816.91,605.31L818.32,577.26L819.72,570.7L821.13,582.11L822.53,580.4L823.94,585.65L825.35,604.92L826.75,601.12L828.16,581.19L829.56,578.44L830.97,573.72L832.38,589.98L835.19,609.77L836.59,603.61L838,589.06" style="vector-effect: non-scaling-stroke; fill: none; stroke: rgb(31, 119, 180); stroke-opacity: 1; stroke-width: 2px; opacity: 1;"/></g><g class="points"/><g class="text"/></g><g class="trace scatter trace2ddc0a" style="stroke-miterlimit: 2; opacity: 1;"><g class="fills"/><g class="errorbars"/><g class="lines"><path class="js-line" d="M4.22,665.75L21.09,666.01L0,666.28L2.81,666.01L5.62,666.01L9.84,666.01L15.47,666.01L54.84,666.01L56.24,610.56L57.65,652.51L59.05,647.66L60.46,645.43L61.87,640.84L63.27,640.32L64.68,635.86L66.08,643.07L67.49,642.68L68.9,630.35L70.3,635.73L71.71,630.75L73.11,628.78L77.33,638.35L78.74,622.23L80.14,627.73L81.55,618.56L82.96,624.19L84.36,622.23L87.17,627.86L88.58,611.61L89.99,605.84L91.39,612.66L92.8,610.69L94.2,601.64L95.61,597.19L97.02,608.46L98.42,581.06L99.83,588.27L101.23,584.73L102.64,591.94L104.05,585.39L105.45,600.46L106.86,630.09L108.27,607.94L109.67,620.52L111.08,610.82L112.48,614.49L113.89,615.02L115.3,618.95L116.7,631.93L118.11,606.49L119.51,618.95L120.92,608.72L122.33,616.33L123.73,621.44L125.14,629.57L126.54,631.93L127.95,627.73L129.36,624.19L130.76,632.19L132.17,616.33L133.57,622.62L134.98,637.04L136.39,631.93L137.79,611.74L139.2,626.55L140.6,625.37L142.01,617.51L143.42,606.1L144.82,621.05L147.63,623.14L149.04,613.97L151.85,618.29L153.26,626.03L154.66,634.55L156.07,621.83L157.48,593.78L158.88,599.81L160.29,626.42L161.69,620L163.1,610.56L164.51,632.98L165.91,637.43L167.32,619.74L168.72,637.17L170.13,633.76L171.54,637.43L172.94,633.11L175.76,643.2L177.16,635.99L178.57,640.84L179.97,636.39L181.38,642.68L182.79,643.07L184.19,654.35L185.6,646.61L188.41,639.27L189.82,642.55L191.22,643.2L192.63,642.02L194.03,645.04L195.44,642.81L196.85,639.53L198.25,643.46L199.66,642.68L201.06,631.01L202.47,651.33L203.88,649.1L205.28,650.02L206.69,648.32L208.09,647.53L209.5,652.77L210.91,648.71L212.31,651.2L213.72,652.12L215.12,653.95L216.53,638.88L217.94,646.22L219.34,648.05L220.75,647.66L223.56,652.64L224.97,652.12L226.37,643.2L227.78,644.38L229.18,643.99L230.59,644.64L232,650.02L233.4,649.5L234.81,650.81L236.21,646.87L237.62,645.17L239.03,650.54L240.43,651.99L241.84,646.61L244.65,656.18L246.06,648.45L248.87,655.13L250.28,652.77L251.68,655.53L253.09,655.13L254.49,654.22L255.9,654.35L257.31,656.05L258.71,652.12L260.12,654.22L261.52,651.86L262.93,655.79L264.34,656.18L265.74,650.94L267.15,655.92L268.55,655.13L269.96,652.51L271.37,655.79L272.77,656.44L274.18,653.95L275.58,648.05L276.99,650.41L278.4,650.81L279.8,652.12L281.21,651.46L282.61,650.41L284.02,650.41L285.43,648.18L286.83,647.4L288.24,649.76L289.64,650.41L292.46,648.58L293.86,650.68L296.67,642.55L298.08,642.94L299.49,642.81L300.89,640.97L302.3,642.68L303.7,640.32L305.11,632.19L306.52,628.52L307.92,628.91L309.33,621.7L310.73,628.13L312.14,622.62L313.55,623.67L314.95,606.1L316.36,598.5L317.77,609.9L319.17,608.99L320.58,596.01L323.39,594.43L324.8,573.33L326.2,574.9L327.61,571.1L329.01,574.24L330.42,573.59L333.23,584.21L334.64,563.36L336.04,563.89L337.45,572.54L338.86,576.6L340.26,576.21L341.67,586.44L343.07,583.68L344.48,571.75L345.89,568.87L347.29,569.92L348.7,584.08L350.1,569.52L351.51,577L352.92,575.42L354.32,564.67L355.73,558.51L357.13,561.66L358.54,561.39L359.95,552.74L361.35,557.72L362.76,556.28L364.16,542.12L365.57,541.73L366.98,541.6L368.38,554.32L369.79,551.04L371.19,558.38L372.6,563.62L374.01,549.86L375.41,545.79L376.82,532.55L378.22,534.52L379.63,526.78L381.04,535.96L382.44,517.21L383.85,470.02L385.26,485.62L386.66,480.5L388.07,487.32L390.88,471.46L392.29,524.16L393.69,472.51L395.1,487.06L397.91,468.05L399.32,476.83L400.72,492.96L402.13,486.01L403.53,444.98L404.94,463.99L406.35,462.41L407.75,453.1L409.16,459.66L410.56,480.9L411.97,462.94L413.38,413.77L414.78,429.51L416.19,436.19L417.59,414.56L419,446.02L420.41,464.77L421.81,428.72L423.22,398.17L424.62,402.63L426.03,404.86L427.44,421.51L428.84,412.86L430.25,449.17L433.06,371.95L434.47,402.11L435.87,372.74L437.28,415.22L438.68,403.15L440.09,384.01L441.5,373.26L442.9,372.74L444.31,375.89L445.71,343.5L447.12,396.73L448.53,380.87L451.34,401.84L452.74,272.05L454.15,302.07L455.56,307.06L456.96,283.85L458.37,338.78L459.78,304.7L461.18,226.43L462.59,221.32L463.99,194.96L466.81,244.91L468.21,262.48L469.62,295.52L471.02,289.36L472.43,179.1L473.84,274.02L475.24,223.54L476.65,269.43L480.87,369.59L482.27,308.76L483.68,339.44L485.08,285.82L489.3,386.5L490.71,364.87L492.11,437.24L493.52,409.58L494.93,373.26L496.33,430.55L497.74,412.07L499.14,443.14L500.55,484.04L501.96,441.96L503.36,489.81L504.77,480.5L506.17,478.01L507.58,504.1L510.39,520.23L511.8,475.13L513.2,498.6L514.61,501.48L516.02,493.88L517.42,516.56L520.23,534.65L521.64,496.76L523.05,522.59L524.45,533.99L525.86,537.01L527.27,531.11L528.67,542.91L530.08,537.67L531.48,523.11L532.89,525.47L534.3,514.07L535.7,514.98L537.11,521.15L538.51,535.7L539.92,538.58L541.33,507.12L542.73,520.49L544.14,518.66L546.95,513.02L548.36,519.97L549.76,523.77L551.17,470.93L552.57,503.97L553.98,496.11L555.39,500.69L556.79,488.63L558.2,511.97L559.6,499.38L561.01,465.3L562.42,491.78L563.82,446.42L565.23,471.85L566.63,463.72L568.04,466.21L569.45,472.38L570.85,407.35L572.26,428.19L573.66,413.64L575.07,427.54L576.48,417.05L577.88,435.14L579.29,406.96L580.69,350.45L582.1,328.29L583.51,319.77L584.91,348.48L586.32,322.92L587.72,345.47L589.13,328.69L590.54,251.73L591.94,249.9L593.35,252.91L594.76,192.6L596.16,228.39L597.57,252.65L598.97,224.33L601.79,63.34L603.19,50.1L604.6,98.08L606,110.27L608.82,153.67L610.22,73.83L611.63,109.49L613.03,109.88L614.44,146.32L615.85,148.55L618.66,230.36L620.06,94.28L621.47,142L622.88,157.99L624.28,194.57L625.69,187.1L627.09,258.29L628.5,286.08L629.91,210.17L631.31,213.06L632.72,206.89L634.12,264.45L635.53,262.35L636.94,278.87L638.34,338L639.75,257.11L641.15,303.78L642.56,313.48L643.97,335.64L645.37,343.76L646.78,394.37L648.18,401.45L649.59,355.17L651,364.22L652.4,356.35L653.81,396.34L655.21,395.03L656.62,442.22L658.03,460.45L659.43,438.81L663.65,503.19L665.06,505.81L666.46,542.65L667.87,533.6L669.28,543.83L670.68,542.91L672.09,554.58L673.49,557.2L676.31,578.18L677.71,581.45L679.12,571.36L680.52,582.76L681.93,584.21L683.34,589.84L684.74,599.94L686.15,602.3L687.55,608.07L688.96,605.71L691.77,627.6L693.18,600.07L694.58,616.33L695.99,623.28L697.4,617.38L698.8,623.8L700.21,632.32L701.61,629.17L703.02,631.67L704.43,628.52L705.83,635.47L707.24,624.19L708.64,635.07L710.05,635.73L711.46,635.47L712.86,637.43L714.27,629.57L715.67,653.43L717.08,639.66L718.49,637.7L719.89,643.99L721.3,641.24L722.7,639.4L724.11,644.25L725.52,645.96L726.92,649.5L728.33,646.22L729.73,646.48L733.95,647.14L735.36,648.05L738.17,643.6L739.58,643.86L742.39,648.05L743.8,645.69L745.2,649.1L746.61,646.22L748.01,645.69L749.42,642.02L750.83,646.48L752.23,640.97L753.64,635.6L755.04,640.84L757.86,639.27L759.26,632.45L760.67,631.4L762.07,631.93L763.48,630.62L764.89,623.93L766.29,629.31L767.7,620.78L769.1,621.7L770.51,607.81L771.92,603.74L773.32,614.75L774.73,600.2L776.13,595.09L777.54,591.02L778.95,598.76L780.35,584.08L781.76,590.63L784.57,595.22L785.98,576.86L787.38,580.8L788.79,576.73L790.19,569.26L791.6,570.57L793.01,590.89L794.41,572.15L795.82,575.82L797.22,565.07L800.04,565.07L801.44,566.9L802.85,569.26L804.26,583.81L807.07,567.03L808.47,578.44L809.88,576.86L811.29,580.14L812.69,573.19L814.1,583.68L815.5,565.85L816.91,563.36L818.32,577.39L819.72,559.3L821.13,561.92L822.53,582.24L823.94,590.24L825.35,558.64L829.56,582.76L830.97,581.45L832.38,585.26L833.78,602.04L835.19,574.77L836.59,585.12L838,589.19" style="vector-effect: non-scaling-stroke; fill: none; stroke: rgb(255, 127, 14); stroke-opacity: 1; stroke-width: 2px; opacity: 1;"/></g><g class="points"/><g class="text"/></g><g class="trace scatter trace09402a" style="stroke-miterlimit: 2; opacity: 1;"><g class="fills"/><g class="errorbars"/><g class="lines"><path class="js-line" d="M4.22,666.01L21.09,666.01" style="vector-effect: non-scaling-stroke; fill: none; stroke: rgb(44, 160, 44); stroke-opacity: 1; stroke-width: 2px; opacity: 1;"/><path class="js-line" d="M39.37,666.01L49.21,665.36L50.62,665.75L54.84,665.49L56.24,666.01L57.65,664.7L59.05,665.49L60.46,663.92L61.87,664.18L63.27,662.47L64.68,662.74L66.08,664.31L67.49,663.26L71.71,663.13L73.11,661.95L75.93,663.79L77.33,660.38L78.74,659.33L80.14,661.03L81.55,658.8L82.96,661.29L84.36,660.9L85.77,661.95L87.17,661.03L88.58,661.16L89.99,658.94L91.39,659.46L92.8,659.72L94.2,662.87L95.61,658.54L97.02,658.28L98.42,660.11L99.83,654.74L101.23,660.9L102.64,658.8L104.05,660.77L105.45,655L106.86,658.02L108.27,657.1L109.67,659.72L111.08,657.76L112.48,658.28L113.89,661.43L115.3,661.43L116.7,658.67L119.51,661.69L120.92,662.47L122.33,661.69L123.73,663L125.14,663L126.54,664.05L127.95,660.38L129.36,661.95L133.57,662.74L134.98,662.21L136.39,663.26L137.79,661.82L140.6,660.64L142.01,663.79L143.42,663.52L144.82,664.7L147.63,663.52L149.04,660.11L150.45,664.05L151.85,661.43L153.26,663.52L154.66,662.87L157.48,664.57L158.88,664.44L165.91,664.57L167.32,664.44L168.72,665.62L170.13,664.57L171.54,661.95L172.94,664.57L174.35,665.62L175.76,664.7L178.57,664.7L179.97,665.62L181.38,664.97L182.79,665.23L187,665.49L188.41,665.49L194.03,666.01L195.44,665.75L196.85,664.83L198.25,665.62L201.06,665.23L202.47,665.62L205.28,665.88L206.69,664.83L208.09,665.36L209.5,664.83L210.91,665.75L212.31,665.62L217.94,666.01L219.34,665.62L223.56,665.88L224.97,665.49L227.78,665.62L229.18,665.62L239.03,666.01L240.43,665.88L246.06,665.88L247.46,666.01L254.49,665.49L255.9,666.15L260.12,665.88L261.52,666.01L268.55,665.23L269.96,666.01L276.99,666.01L278.4,666.15L286.83,665.88L288.24,666.15L293.86,665.49L295.27,665.75L303.7,665.62L305.11,665.62L309.33,666.01L310.73,665.75L316.36,665.62L317.77,656.05L320.58,665.1L321.98,665.36L323.39,665.1L324.8,665.88L329.01,665.1L330.42,665.88L333.23,664.83L334.64,666.01L338.86,664.7L340.26,665.36L343.07,665.62L344.48,664.83L354.32,665.36L355.73,664.7L361.35,665.1L362.76,664.18L365.57,664.31L366.98,664.18L369.79,664.31L371.19,664.44L376.82,663.52L378.22,663.39L379.63,662.21L381.04,664.7L382.44,664.44L383.85,661.82L385.26,662.34L386.66,664.97L388.07,663.26L389.47,664.18L390.88,663.52L392.29,664.18L393.69,661.43L395.1,663.26L396.5,663.39L397.91,662.21L399.32,662.87L400.72,664.97L402.13,665.1L403.53,661.43L404.94,664.18L406.35,662.74L409.16,664.05L410.56,662.61L411.97,664.7L413.38,662.34L416.19,660.11L417.59,663.79L419,663.92L420.41,663L421.81,663.39L423.22,660.38L424.62,663L426.03,660.77L427.44,662.47L428.84,662.74L430.25,663.79L431.65,663.26L434.47,659.59L435.87,660.38L437.28,661.03L438.68,663.65L440.09,661.16L441.5,660.64L442.9,663.52L444.31,658.67L447.12,660.25L448.53,662.74L449.93,662.21L451.34,659.33L452.74,661.16L454.15,654.35L455.56,662.61L456.96,660.77L458.37,658.02L459.78,662.21L461.18,660.64L462.59,656.31L463.99,657.89L465.4,652.9L466.81,659.33L468.21,656.97L469.62,662.87L471.02,659.98L472.43,654.35L473.84,659.98L475.24,654.61L476.65,659.2L479.46,660.38L480.87,657.76L482.27,659.59L483.68,658.67L485.08,658.41L486.49,656.44L487.9,660.38L489.3,661.29L490.71,664.18L492.11,657.23L493.52,654.48L494.93,660.11L496.33,660.11L497.74,663.13L499.14,661.69L500.55,663.79L501.96,660.64L503.36,663.65L506.17,663.52L507.58,660.51L508.99,664.31L510.39,664.31L511.8,664.7L513.2,660.25L514.61,659.85L516.02,662.34L517.42,664.31L518.83,664.57L521.64,664.83L523.05,663L524.45,662.34L525.86,663.92L527.27,663.39L528.67,665.23L531.48,663.79L532.89,664.7L534.3,663.13L535.7,665.23L537.11,664.05L538.51,664.7L539.92,665.23L541.33,663.92L542.73,664.7L544.14,663.65L545.54,664.57L546.95,664.05L548.36,664.83L549.76,664.57L552.57,664.05L553.98,664.7L555.39,664.57L556.79,663.65L558.2,665.62L559.6,664.83L561.01,664.7L562.42,663.79L563.82,664.44L565.23,663.92L566.63,663.52L568.04,664.7L573.66,663L575.07,663.92L579.29,664.97L580.69,663.79L586.32,663.26L587.72,664.05L589.13,664.05L590.54,662.34L593.35,662.74L594.76,661.56L596.16,663.65L597.57,663.52L598.97,663.13L600.38,661.82L601.79,660.77L603.19,661.56L604.6,662.87L606,662.87L610.22,662.87L611.63,660.64L613.03,663.26L614.44,662.21L617.25,663.92L618.66,662.74L620.06,660.25L621.47,662.61L624.28,662.74L625.69,659.85L627.09,663.52L628.5,664.05L629.91,661.82L631.31,661.95L634.12,662.87L635.53,662.08L636.94,665.49L638.34,663.79L639.75,663.52L641.15,662.47L642.56,662.47L643.97,663.39L646.78,664.97L648.18,661.69L651,663.52L652.4,664.18L655.21,663.65L656.62,664.31L658.03,664.83L659.43,662.74L660.84,664.7L662.24,663.52L663.65,662.87L665.06,664.7L667.87,663.65L669.28,661.69L670.68,664.57L672.09,665.49L673.49,664.05L674.9,665.1L676.31,665.49L677.71,664.31L680.52,665.1L681.93,665.88L683.34,664.31L684.74,664.44L686.15,665.62L687.55,658.15L688.96,664.57L690.37,665.23L691.77,665.75L693.18,664.31L694.58,664.44L695.99,665.62L697.4,662.74L698.8,664.18L700.21,663.52L701.61,664.83L704.43,664.83L705.83,665.88L707.24,664.83L708.64,666.01L712.86,664.97L714.27,665.23L715.67,666.01L717.08,665.1L721.3,664.7L722.7,665.62L724.11,665.23L725.52,666.01L729.73,665.1L731.14,665.88L736.77,665.36L738.17,665.49L739.58,665.62L740.98,664.57L745.2,665.88L746.61,665.88L749.42,664.18L750.83,663.65L753.64,665.23L755.04,666.01L757.86,665.62L759.26,666.01L762.07,665.75L763.48,666.01L764.89,666.01L766.29,664.7L767.7,665.62L769.1,663.79L770.51,665.75L771.92,665.88L774.73,666.01L776.13,663.65L777.54,665.88L778.95,666.01L780.35,663.79L781.76,665.1L784.57,666.01L785.98,665.36L788.79,664.18L790.19,665.23L791.6,664.83L793.01,665.62L795.82,665.62L797.22,663.92L798.63,664.7L800.04,664.57L801.44,664.05L802.85,665.23L809.88,665.36L811.29,664.7L814.1,665.75L815.5,664.97L818.32,665.1L819.72,664.57L822.53,665.23L823.94,666.01L825.35,664.57L826.75,664.97L830.97,665.1L832.38,665.75L835.19,665.62L836.59,664.18L838,665.36" style="vector-effect: non-scaling-stroke; fill: none; stroke: rgb(44, 160, 44); stroke-opacity: 1; stroke-width: 2px; opacity: 1;"/></g><g class="points"/><g class="text"/></g></g></g><g class="overplot"/><path class="xlines-above crisp" style="fill: none;" d="M0,0"/><path class="ylines-above crisp" style="fill: none;" d="M0,0"/><g class="overlines-above"/><g class="xaxislayer-above"><g class="xtick"><text text-anchor="middle" x="0" y="741" transform="translate(76.87,0)" style="font-family: 'Open Sans', verdana, arial, sans-serif; font-size: 12px; fill: rgb(68, 68, 68); fill-opacity: 1; white-space: pre;">Mar 2020</text></g><g class="xtick"><text text-anchor="middle" x="0" y="741" transform="translate(162.64,0)" style="font-family: 'Open Sans', verdana, arial, sans-serif; font-size: 12px; fill: rgb(68, 68, 68); fill-opacity: 1; white-space: pre;">May 2020</text></g><g class="xtick"><text text-anchor="middle" x="0" y="741" transform="translate(248.41,0)" style="font-family: 'Open Sans', verdana, arial, sans-serif; font-size: 12px; fill: rgb(68, 68, 68); fill-opacity: 1; white-space: pre;">Jul 2020</text></g><g class="xtick"><text text-anchor="middle" x="0" y="741" transform="translate(335.58,0)" style="font-family: 'Open Sans', verdana, arial, sans-serif; font-size: 12px; fill: rgb(68, 68, 68); fill-opacity: 1; white-space: pre;">Sep 2020</text></g><g class="xtick"><text text-anchor="middle" x="0" y="741" transform="translate(421.35,0)" style="font-family: 'Open Sans', verdana, arial, sans-serif; font-size: 12px; fill: rgb(68, 68, 68); fill-opacity: 1; white-space: pre;">Nov 2020</text></g><g class="xtick"><text text-anchor="middle" x="0" y="741" transform="translate(507.12,0)" style="font-family: 'Open Sans', verdana, arial, sans-serif; font-size: 12px; fill: rgb(68, 68, 68); fill-opacity: 1; white-space: pre;">Jan 2021</text></g><g class="xtick"><text text-anchor="middle" x="0" y="741" transform="translate(590.08,0)" style="font-family: 'Open Sans', verdana, arial, sans-serif; font-size: 12px; fill: rgb(68, 68, 68); fill-opacity: 1; white-space: pre;">Mar 2021</text></g><g class="xtick"><text text-anchor="middle" x="0" y="741" transform="translate(675.85,0)" style="font-family: 'Open Sans', verdana, arial, sans-serif; font-size: 12px; fill: rgb(68, 68, 68); fill-opacity: 1; white-space: pre;">May 2021</text></g><g class="xtick"><text text-anchor="middle" x="0" y="741" transform="translate(761.61,0)" style="font-family: 'Open Sans', verdana, arial, sans-serif; font-size: 12px; fill: rgb(68, 68, 68); fill-opacity: 1; white-space: pre;">Jul 2021</text></g><g class="xtick"><text text-anchor="middle" x="0" y="741" transform="translate(848.79,0)" style="font-family: 'Open Sans', verdana, arial, sans-serif; font-size: 12px; fill: rgb(68, 68, 68); fill-opacity: 1; white-space: pre;">Sep 2021</text></g></g><g class="yaxislayer-above"><g class="ytick"><text text-anchor="end" x="59" y="4.199999999999999" transform="translate(0,691.01)" style="font-family: 'Open Sans', verdana, arial, sans-serif; font-size: 12px; fill: rgb(68, 68, 68); fill-opacity: 1; white-space: pre;">0</text></g><g class="ytick"><text text-anchor="end" x="59" y="4.199999999999999" transform="translate(0,559.91)" style="font-family: 'Open Sans', verdana, arial, sans-serif; font-size: 12px; fill: rgb(68, 68, 68); fill-opacity: 1; white-space: pre;">1000</text></g><g class="ytick"><text text-anchor="end" x="59" y="4.199999999999999" transform="translate(0,428.81)" style="font-family: 'Open Sans', verdana, arial, sans-serif; font-size: 12px; fill: rgb(68, 68, 68); fill-opacity: 1; white-space: pre;">2000</text></g><g class="ytick"><text text-anchor="end" x="59" y="4.199999999999999" transform="translate(0,297.71)" style="font-family: 'Open Sans', verdana, arial, sans-serif; font-size: 12px; fill: rgb(68, 68, 68); fill-opacity: 1; white-space: pre;">3000</text></g><g class="ytick"><text text-anchor="end" x="59" y="4.199999999999999" transform="translate(0,166.61)" style="font-family: 'Open Sans', verdana, arial, sans-serif; font-size: 12px; fill: rgb(68, 68, 68); fill-opacity: 1; white-space: pre;">4000</text></g><g class="ytick"><text text-anchor="end" x="59" y="4.199999999999999" transform="translate(0,35.5)" style="font-family: 'Open Sans', verdana, arial, sans-serif; font-size: 12px; fill: rgb(68, 68, 68); fill-opacity: 1; white-space: pre;">5000</text></g></g><g class="overaxes-above"/></g></g><g class="polarlayer"/><g class="ternarylayer"/><g class="geolayer"/><g class="funnelarealayer"/><g class="pielayer"/><g class="treemaplayer"/><g class="sunburstlayer"/><g class="glimages"/><defs id="topdefs-73bffc"><g class="clips"/><clipPath id="legend73bffc"><rect width="102" height="67" x="0" y="0"/></clipPath></defs><g class="layer-above"><g class="imagelayer"/><g class="shapelayer"/></g><g class="infolayer"><g class="legend" pointer-events="all" transform="translate(914.76, 25)"><rect class="bg" shape-rendering="crispEdges" style="stroke: rgb(68, 68, 68); stroke-opacity: 1; fill: rgb(255, 255, 255); fill-opacity: 1; stroke-width: 0px;" width="102" height="67" x="0" y="0"/><g class="scrollbox" transform="translate(0, 0)" clip-path="url('#legend73bffc')"><g class="groups"><g class="traces" style="opacity: 1;" transform="translate(0, 14.5)"><text class="legendtext" text-anchor="start" x="40" y="4.680000000000001" style="font-family: 'Open Sans', verdana, arial, sans-serif; font-size: 12px; fill: rgb(68, 68, 68); fill-opacity: 1; white-space: pre;">positive</text><g class="layers" style="opacity: 1;"><g class="legendfill"/><g class="legendlines"><path class="js-line" d="M5,0h30" style="fill: none; stroke: rgb(31, 119, 180); stroke-opacity: 1; stroke-width: 2px;"/></g><g class="legendsymbols"><g class="legendpoints"/></g></g><rect class="legendtoggle" x="0" y="-9.5" width="96.109375" height="19" style="fill: rgb(0, 0, 0); fill-opacity: 0;"/></g><g class="traces" style="opacity: 1;" transform="translate(0, 33.5)"><text class="legendtext" text-anchor="start" x="40" y="4.680000000000001" style="font-family: 'Open Sans', verdana, arial, sans-serif; font-size: 12px; fill: rgb(68, 68, 68); fill-opacity: 1; white-space: pre;">resolved</text><g class="layers" style="opacity: 1;"><g class="legendfill"/><g class="legendlines"><path class="js-line" d="M5,0h30" style="fill: none; stroke: rgb(255, 127, 14); stroke-opacity: 1; stroke-width: 2px;"/></g><g class="legendsymbols"><g class="legendpoints"/></g></g><rect class="legendtoggle" x="0" y="-9.5" width="96.109375" height="19" style="fill: rgb(0, 0, 0); fill-opacity: 0;"/></g><g class="traces" style="opacity: 1;" transform="translate(0, 52.5)"><text class="legendtext" text-anchor="start" x="40" y="4.680000000000001" style="font-family: 'Open Sans', verdana, arial, sans-serif; font-size: 12px; fill: rgb(68, 68, 68); fill-opacity: 1; white-space: pre;">deceased</text><g class="layers" style="opacity: 1;"><g class="legendfill"/><g class="legendlines"><path class="js-line" d="M5,0h30" style="fill: none; stroke: rgb(44, 160, 44); stroke-opacity: 1; stroke-width: 2px;"/></g><g class="legendsymbols"><g class="legendpoints"/></g></g><rect class="legendtoggle" x="0" y="-9.5" width="96.109375" height="19" style="fill: rgb(0, 0, 0); fill-opacity: 0;"/></g></g></g><rect class="scrollbar" rx="20" ry="3" width="0" height="0" style="fill: rgb(128, 139, 164); fill-opacity: 1;" x="0" y="0"/></g><g class="g-gtitle"><text class="gtitle" x="513.5" y="12.5" text-anchor="middle" dy="0em" style="font-family: 'Open Sans', verdana, arial, sans-serif; font-size: 17px; fill: rgb(68, 68, 68); opacity: 1; font-weight: normal; white-space: pre;">Dynamics of new cases, resolved cases and deaths in Ontario (Oct 07, 2021)</text></g><g class="g-xtitle" transform="translate(0,-15)"><text class="xtitle" x="479" y="780" text-anchor="middle" style="font-family: 'Open Sans', verdana, arial, sans-serif; font-size: 14px; fill: rgb(68, 68, 68); opacity: 1; font-weight: normal; white-space: pre;">Date</text></g><g class="g-ytitle"><text class="ytitle" transform="rotate(-90,22,376.5)" x="22" y="376.5" text-anchor="middle" style="font-family: 'Open Sans', verdana, arial, sans-serif; font-size: 14px; fill: rgb(68, 68, 68); opacity: 1; font-weight: normal; white-space: pre;">Number of cases</text></g></g></svg>