<svg class="main-svg" xmlns="http://www.w3.org/2000/svg" xmlns:xlink="http://www.w3.org/1999/xlink" width="1027" height="768" style="" viewBox="0 0 1027 768"><rect x="0" y="0" width="1027" height="768" style="fill: rgb(255, 255, 255); fill-opacity: 1;"/><defs id="defs-035746"><g class="clips"><clipPath id="clip035746xyplot" class="plotclip"><rect width="838" height="703"/></clipPath><clipPath class="axesclip" id="clip035746x"><rect x="60" y="0" width="838" height="768"/></clipPath><clipPath class="axesclip" id="clip035746y"><rect x="0" y="25" width="1027" height="703"/></clipPath><clipPath class="axesclip" id="clip035746xy"><rect x="60" y="25" width="838" height="703"/></clipPath></g><g class="gradients"/></defs><g class="bglayer"/><g class="layer-below"><g class="imagelayer"/><g class="shapelayer"/></g><g class="cartesianlayer"><g class="subplot xy"><g class="layer-subplot"><g class="shapelayer"/><g class="imagelayer"/></g><g class="gridlayer"><g class="x"><path class="xgrid crisp" transform="translate(110.78999999999999,0)" d="M0,25v703" style="stroke: rgb(238, 238, 238); stroke-opacity: 1; stroke-width: 1px;"/><path class="xgrid crisp" transform="translate(241.99,0)" d="M0,25v703" style="stroke: rgb(238, 238, 238); stroke-opacity: 1; stroke-width: 1px;"/><path class="xgrid crisp" transform="translate(368.96,0)" d="M0,25v703" style="stroke: rgb(238, 238, 238); stroke-opacity: 1; stroke-width: 1px;"/><path class="xgrid crisp" transform="translate(500.16,0)" d="M0,25v703" style="stroke: rgb(238, 238, 238); stroke-opacity: 1; stroke-width: 1px;"/><path class="xgrid crisp" transform="translate(627.13,0)" d="M0,25v703" style="stroke: rgb(238, 238, 238); stroke-opacity: 1; stroke-width: 1px;"/><path class="xgrid crisp" transform="translate(758.33,0)" d="M0,25v703" style="stroke: rgb(238, 238, 238); stroke-opacity: 1; stroke-width: 1px;"/><path class="xgrid crisp" transform="translate(889.54,0)" d="M0,25v703" style="stroke: rgb(238, 238, 238); stroke-opacity: 1; stroke-width: 1px;"/></g><g class="y"><path class="ygrid crisp" transform="translate(0,594.39)" d="M60,0h838" style="stroke: rgb(238, 238, 238); stroke-opacity: 1; stroke-width: 1px;"/><path class="ygrid crisp" transform="translate(0,496.9)" d="M60,0h838" style="stroke: rgb(238, 238, 238); stroke-opacity: 1; stroke-width: 1px;"/><path class="ygrid crisp" transform="translate(0,399.41)" d="M60,0h838" style="stroke: rgb(238, 238, 238); stroke-opacity: 1; stroke-width: 1px;"/><path class="ygrid crisp" transform="translate(0,301.92)" d="M60,0h838" style="stroke: rgb(238, 238, 238); stroke-opacity: 1; stroke-width: 1px;"/><path class="ygrid crisp" transform="translate(0,204.43)" d="M60,0h838" style="stroke: rgb(238, 238, 238); stroke-opacity: 1; stroke-width: 1px;"/><path class="ygrid crisp" transform="translate(0,106.94)" d="M60,0h838" style="stroke: rgb(238, 238, 238); stroke-opacity: 1; stroke-width: 1px;"/></g></g><g class="zerolinelayer"><path class="yzl zl crisp" transform="translate(0,691.88)" d="M60,0h838" style="stroke: rgb(68, 68, 68); stroke-opacity: 1; stroke-width: 1px;"/></g><path class="xlines-below"/><path class="ylines-below"/><g class="overlines-below"/><g class="xaxislayer-below"/><g class="yaxislayer-below"/><g class="overaxes-below"/><g class="plot" transform="translate(60, 25)" clip-path="url('#clip035746xyplot')"><g class="scatterlayer mlayer"><g class="trace scatter trace1c5620" style="stroke-miterlimit: 2; opacity: 1;"><g class="fills"/><g class="errorbars"/><g class="lines"><path class="js-line" d="M0,666.88L4.23,666.88L8.46,667.85L12.7,667.85L25.39,665.9L33.86,666.88L38.09,665.9L42.32,665.9L55.02,655.18L59.25,664.93L63.48,666.88L67.72,665.9L71.95,662.98L76.18,664.93L84.65,660.05L88.88,666.88L93.11,661.03L97.34,650.3L101.58,647.38L105.81,643.48L110.04,625.93L114.27,635.68L118.51,656.15L122.74,642.5L126.97,624.96L131.2,608.38L135.43,611.31L139.67,623.98L143.9,591.81L148.13,585.96L152.36,574.26L156.6,503.09L160.83,538.19L165.06,520.64L169.29,92.67L173.53,413.41L177.76,251.57L181.99,275.95L186.22,216.48L190.45,301.29L194.69,269.12L198.92,365.64L203.15,297.39L207.38,130.69L211.62,196.01L215.85,200.88L220.08,266.2L224.31,275.95L228.55,256.45L232.78,196.01L237.01,185.28L241.24,165.78L245.47,117.04L249.71,194.06L253.94,113.14L258.17,76.1L262.4,129.71L266.64,169.68L270.87,48.8L275.1,42.95L279.33,202.83L283.57,240.85L287.8,253.52L292.03,155.06L296.26,328.59L300.49,219.4L304.73,256.45L308.96,168.71L313.19,243.78L317.42,306.17L321.66,289.59L325.89,265.22L330.12,277.9L334.35,201.86L338.59,329.57L342.82,380.26L347.05,366.61L351.28,314.94L355.52,346.14L359.75,330.54L363.98,334.44L368.21,285.7L372.44,335.41L376.68,370.51L380.91,250.6L385.14,286.67L389.37,264.25L393.61,236.95L397.84,265.22L402.07,218.43L406.3,273.02L410.54,387.08L414.77,382.21L419,293.49L423.23,331.51L427.46,351.99L431.7,349.06L435.93,273.02L440.16,232.08L444.39,337.36L448.63,319.82L452.86,331.51L457.09,223.3L461.32,262.3L465.56,429.98L469.79,442.65L474.02,422.18L478.25,468.97L482.48,489.45L486.72,407.56L490.95,474.82L495.18,490.42L499.41,487.5L503.65,481.65L507.88,498.22L512.11,493.35L516.34,466.05L520.58,496.27L524.81,509.92L529.04,456.3L533.27,507.97L537.51,482.62L541.74,558.66L545.97,510.89L550.2,493.35L554.43,416.33L558.67,513.82L562.9,521.62L567.13,517.72L571.36,506.02L575.6,548.91L584.06,516.74L588.29,557.69L592.53,551.84L596.76,501.14L600.99,553.79L605.22,540.14L609.45,541.12L613.69,553.79L617.92,558.66L622.15,567.44L626.38,558.66L630.62,558.66L634.85,505.04L639.08,506.99L643.31,535.27L647.55,468.97L651.78,506.02L656.01,566.46L660.24,476.77L664.47,532.34L668.71,533.32L672.94,550.86L677.17,558.66L681.4,592.78L685.64,580.11L689.87,536.24L694.1,545.99L698.33,553.79L702.57,581.09L706.8,578.16L711.03,583.04L715.26,574.26L719.49,581.09L723.73,598.63L727.96,589.86L732.19,554.76L736.42,634.7L740.66,574.26L744.89,590.83L749.12,577.19L753.35,563.54L757.59,587.91L761.82,570.36L766.05,545.01L774.52,592.78L778.75,539.17L782.98,561.59L787.21,554.76L791.44,564.51L795.68,569.39L799.91,581.09L804.14,551.84L808.37,547.94L812.61,522.59L816.84,557.69L821.07,555.74L825.3,557.69L829.54,537.22L833.77,538.19L838,522.59" style="vector-effect: non-scaling-stroke; fill: none; stroke: rgb(31, 119, 180); stroke-opacity: 1; stroke-width: 2px; opacity: 1;"/></g><g class="points"/><g class="text"/></g><g class="trace scatter traceddce5f" style="stroke-miterlimit: 2; opacity: 1;"><g class="fills"/><g class="errorbars"/><g class="lines"><path class="js-line" d="M0,666.88L4.23,666.88L8.46,665.9L12.7,665.9L25.39,666.88L63.48,666.88L67.72,665.9L71.95,666.88L76.18,666.88L84.65,666.88L88.88,665.9L93.11,666.88L97.34,666.88L131.2,666.88L135.43,665.9L139.67,664.93L143.9,666.88L165.06,666.88L169.29,254.5L173.53,566.46L177.76,515.77L181.99,528.44L186.22,479.7L190.45,475.8L194.69,442.65L198.92,496.27L203.15,493.35L207.38,401.71L211.62,441.68L215.85,404.63L220.08,390.01L224.31,410.48L228.55,436.8L232.78,461.17L237.01,341.26L241.24,382.21L245.47,313.97L249.71,355.89L253.94,341.26L258.17,368.56L262.4,383.18L266.64,262.3L270.87,219.4L275.1,270.1L279.33,255.47L283.57,188.21L287.8,155.06L292.03,238.9L296.26,35.15L300.49,88.77L304.73,62.45L308.96,116.07L313.19,67.32L317.42,179.43L321.66,399.76L325.89,235L330.12,328.59L334.35,256.45L338.59,283.75L342.82,287.65L347.05,316.89L351.28,413.41L355.52,224.28L359.75,316.89L363.98,240.85L368.21,297.39L372.44,335.41L376.68,395.86L380.91,413.41L389.37,355.89L393.61,415.35L397.84,297.39L402.07,344.19L406.3,451.43L410.54,413.41L414.77,263.27L419,373.43L423.23,364.66L427.46,306.17L431.7,221.35L435.93,332.49L440.16,344.19L444.39,348.09L448.63,279.85L452.86,301.29L457.09,312.02L461.32,369.54L465.56,432.9L469.79,338.34L474.02,129.71L478.25,174.56L482.48,372.46L486.72,324.69L490.95,254.5L495.18,421.2L499.41,454.35L503.65,322.74L507.88,452.4L512.11,427.05L516.34,454.35L520.58,422.18L529.04,497.25L533.27,443.63L537.51,479.7L541.74,446.55L545.97,493.35L550.2,496.27L554.43,580.11L558.67,522.59L562.9,489.45L567.13,468L571.36,492.37L575.6,497.25L579.83,488.47L584.06,510.89L588.29,494.32L592.53,469.95L596.76,499.19L600.99,493.35L605.22,406.58L609.45,557.69L613.69,541.12L617.92,547.94L622.15,535.27L626.38,529.42L630.62,568.41L634.85,538.19L639.08,556.71L643.31,563.54L647.55,577.19L651.78,465.07L656.01,519.67L660.24,533.32L664.47,530.39L668.71,550.86L672.94,567.44L677.17,563.54L681.4,497.25L685.64,506.02L689.87,503.09L694.1,507.97L698.33,547.94L702.57,544.04L706.8,553.79L711.03,524.54L715.26,511.87L719.49,551.84L723.73,562.56L727.96,522.59L732.19,567.44L736.42,593.76L740.66,536.24L744.89,570.36L749.12,585.96L753.35,568.41L757.59,588.88L761.82,585.96L766.05,579.14L770.28,580.11L774.52,592.78L778.75,563.54L782.98,579.14L787.21,561.59L791.44,590.83L795.68,593.76L799.91,554.76L804.14,591.81L808.37,585.96L812.61,566.46L816.84,590.83L821.07,595.71L825.3,577.19L829.54,533.32L833.77,550.86L838,553.79" style="vector-effect: non-scaling-stroke; fill: none; stroke: rgb(255, 127, 14); stroke-opacity: 1; stroke-width: 2px; opacity: 1;"/></g><g class="points"/><g class="text"/></g><g class="trace scatter tracee475ed" style="stroke-miterlimit: 2; opacity: 1;"><g class="fills"/><g class="errorbars"/><g class="lines"><path class="js-line" d="M0,666.88L114.27,666.88L118.51,665.9L122.74,666.88L126.97,665.9L131.2,666.88L135.43,665.9L139.67,664.93L143.9,665.9L148.13,664.93L152.36,662L156.6,664.93L160.83,663.95L165.06,665.9L169.29,662.98L173.53,657.13L177.76,662.98L181.99,651.28L186.22,653.23L190.45,640.55L194.69,642.5L198.92,654.2L203.15,646.4L207.38,646.4L211.62,641.53L215.85,645.43L220.08,636.65L224.31,646.4L228.55,650.3L232.78,624.96L237.01,617.16L241.24,629.83L245.47,613.26L249.71,631.78L253.94,628.85L258.17,636.65L262.4,629.83L266.64,630.8L270.87,614.23L275.1,618.13L279.33,620.08L283.57,643.48L287.8,611.31L292.03,609.36L296.26,623.01L300.49,583.04L304.73,628.85L308.96,613.26L313.19,627.88L317.42,584.98L321.66,607.41L325.89,600.58L330.12,620.08L334.35,605.46L338.59,609.36L342.82,632.75L347.05,632.75L351.28,612.28L355.52,627.88L363.98,640.55L368.21,634.7L372.44,644.45L376.68,644.45L380.91,652.25L385.14,624.96L389.37,636.65L393.61,639.58L397.84,640.55L402.07,642.5L406.3,638.6L410.54,646.4L414.77,635.68L419,633.73L423.23,626.9L427.46,650.3L431.7,648.35L435.93,657.13L440.16,650.3L444.39,648.35L448.63,623.01L452.86,652.25L457.09,632.75L461.32,648.35L465.56,643.48L469.79,653.23L474.02,656.15L478.25,655.18L482.48,656.15L486.72,658.1L490.95,655.18L495.18,659.08L499.41,656.15L503.65,655.18L507.88,663.95L512.11,656.15L516.34,636.65L520.58,656.15L524.81,663.95L529.04,657.13L533.27,655.18L537.51,657.13L541.74,663.95L545.97,659.08L550.2,661.03L554.43,660.05L558.67,660.05L562.9,662.98L567.13,662.98L571.36,664.93L575.6,662L579.83,664.93L584.06,666.88L588.29,664.93L592.53,658.1L596.76,663.95L600.99,660.05L605.22,661.03L609.45,663.95L613.69,663.95L617.92,665.9L622.15,658.1L626.38,662L630.62,658.1L634.85,664.93L639.08,663.95L643.31,665.9L647.55,665.9L651.78,664.93L656.01,666.88L660.24,663.95L664.47,665.9L668.71,662.98L672.94,665.9L677.17,662.98L681.4,665.9L685.64,663.95L689.87,663.95L702.57,666.88L706.8,662.98L711.03,666.88L715.26,665.9L719.49,666.88L723.73,665.9L727.96,664.93L732.19,666.88L736.42,666.88L740.66,665.9L744.89,666.88L749.12,665.9L753.35,665.9L757.59,666.88L761.82,666.88L766.05,662.98L770.28,667.85L774.52,665.9L778.75,663.95L782.98,665.9L787.21,666.88L791.44,665.9L795.68,664.93L799.91,664.93L804.14,665.9L808.37,661.03L812.61,666.88L816.84,665.9L825.3,665.9L829.54,666.88L833.77,666.88L838,667.85" style="vector-effect: non-scaling-stroke; fill: none; stroke: rgb(44, 160, 44); stroke-opacity: 1; stroke-width: 2px; opacity: 1;"/></g><g class="points"/><g class="text"/></g></g></g><g class="overplot"/><path class="xlines-above crisp" style="fill: none;" d="M0,0"/><path class="ylines-above crisp" style="fill: none;" d="M0,0"/><g class="overlines-above"/><g class="xaxislayer-above"><g class="xtick"><text text-anchor="middle" x="0" y="741" transform="translate(110.78999999999999,0)" style="font-family: 'Open Sans', verdana, arial, sans-serif; font-size: 12px; fill: rgb(68, 68, 68); fill-opacity: 1; white-space: pre;">Mar 2020</text></g><g class="xtick"><text text-anchor="middle" x="0" y="741" transform="translate(241.99,0)" style="font-family: 'Open Sans', verdana, arial, sans-serif; font-size: 12px; fill: rgb(68, 68, 68); fill-opacity: 1; white-space: pre;">Apr 2020</text></g><g class="xtick"><text text-anchor="middle" x="0" y="741" transform="translate(368.96,0)" style="font-family: 'Open Sans', verdana, arial, sans-serif; font-size: 12px; fill: rgb(68, 68, 68); fill-opacity: 1; white-space: pre;">May 2020</text></g><g class="xtick"><text text-anchor="middle" x="0" y="741" transform="translate(500.16,0)" style="font-family: 'Open Sans', verdana, arial, sans-serif; font-size: 12px; fill: rgb(68, 68, 68); fill-opacity: 1; white-space: pre;">Jun 2020</text></g><g class="xtick"><text text-anchor="middle" x="0" y="741" transform="translate(627.13,0)" style="font-family: 'Open Sans', verdana, arial, sans-serif; font-size: 12px; fill: rgb(68, 68, 68); fill-opacity: 1; white-space: pre;">Jul 2020</text></g><g class="xtick"><text text-anchor="middle" x="0" y="741" transform="translate(758.33,0)" style="font-family: 'Open Sans', verdana, arial, sans-serif; font-size: 12px; fill: rgb(68, 68, 68); fill-opacity: 1; white-space: pre;">Aug 2020</text></g><g class="xtick"><text text-anchor="middle" x="0" y="741" transform="translate(889.54,0)" style="font-family: 'Open Sans', verdana, arial, sans-serif; font-size: 12px; fill: rgb(68, 68, 68); fill-opacity: 1; white-space: pre;">Sep 2020</text></g></g><g class="yaxislayer-above"><g class="ytick"><text text-anchor="end" x="59" y="4.199999999999999" transform="translate(0,691.88)" style="font-family: 'Open Sans', verdana, arial, sans-serif; font-size: 12px; fill: rgb(68, 68, 68); fill-opacity: 1; white-space: pre;">0</text></g><g class="ytick"><text text-anchor="end" x="59" y="4.199999999999999" transform="translate(0,594.39)" style="font-family: 'Open Sans', verdana, arial, sans-serif; font-size: 12px; fill: rgb(68, 68, 68); fill-opacity: 1; white-space: pre;">100</text></g><g class="ytick"><text text-anchor="end" x="59" y="4.199999999999999" transform="translate(0,496.9)" style="font-family: 'Open Sans', verdana, arial, sans-serif; font-size: 12px; fill: rgb(68, 68, 68); fill-opacity: 1; white-space: pre;">200</text></g><g class="ytick"><text text-anchor="end" x="59" y="4.199999999999999" transform="translate(0,399.41)" style="font-family: 'Open Sans', verdana, arial, sans-serif; font-size: 12px; fill: rgb(68, 68, 68); fill-opacity: 1; white-space: pre;">300</text></g><g class="ytick"><text text-anchor="end" x="59" y="4.199999999999999" transform="translate(0,301.92)" style="font-family: 'Open Sans', verdana, arial, sans-serif; font-size: 12px; fill: rgb(68, 68, 68); fill-opacity: 1; white-space: pre;">400</text></g><g class="ytick"><text text-anchor="end" x="59" y="4.199999999999999" transform="translate(0,204.43)" style="font-family: 'Open Sans', verdana, arial, sans-serif; font-size: 12px; fill: rgb(68, 68, 68); fill-opacity: 1; white-space: pre;">500</text></g><g class="ytick"><text text-anchor="end" x="59" y="4.199999999999999" transform="translate(0,106.94)" style="font-family: 'Open Sans', verdana, arial, sans-serif; font-size: 12px; fill: rgb(68, 68, 68); fill-opacity: 1; white-space: pre;">600</text></g></g><g class="overaxes-above"/></g></g><g class="polarlayer"/><g class="ternarylayer"/><g class="geolayer"/><g class="funnelarealayer"/><g class="pielayer"/><g class="treemaplayer"/><g class="sunburstlayer"/><g class="glimages"/><defs id="topdefs-035746"><g class="clips"/><clipPath id="legend035746"><rect width="102" height="67" x="0" y="0"/></clipPath></defs><g class="layer-above"><g class="imagelayer"/><g class="shapelayer"/></g><g class="infolayer"><g class="legend" pointer-events="all" transform="translate(914.76, 25)"><rect class="bg" shape-rendering="crispEdges" style="stroke: rgb(68, 68, 68); stroke-opacity: 1; fill: rgb(255, 255, 255); fill-opacity: 1; stroke-width: 0px;" width="102" height="67" x="0" y="0"/><g class="scrollbox" transform="translate(0, 0)" clip-path="url('#legend035746')"><g class="groups"><g class="traces" style="opacity: 1;" transform="translate(0, 14.5)"><text class="legendtext user-select-none" text-anchor="start" x="40" y="4.680000000000001" style="font-family: 'Open Sans', verdana, arial, sans-serif; font-size: 12px; fill: rgb(68, 68, 68); fill-opacity: 1; white-space: pre;">positive</text><g class="layers" style="opacity: 1;"><g class="legendfill"/><g class="legendlines"><path class="js-line" d="M5,0h30" style="fill: none; stroke: rgb(31, 119, 180); stroke-opacity: 1; stroke-width: 2px;"/></g><g class="legendsymbols"><g class="legendpoints"/></g></g><rect class="legendtoggle" pointer-events="all" x="0" y="-9.5" width="96.109375" height="19" style="cursor: pointer; fill: rgb(0, 0, 0); fill-opacity: 0;"/></g><g class="traces" style="opacity: 1;" transform="translate(0, 33.5)"><text class="legendtext user-select-none" text-anchor="start" x="40" y="4.680000000000001" style="font-family: 'Open Sans', verdana, arial, sans-serif; font-size: 12px; fill: rgb(68, 68, 68); fill-opacity: 1; white-space: pre;">resolved</text><g class="layers" style="opacity: 1;"><g class="legendfill"/><g class="legendlines"><path class="js-line" d="M5,0h30" style="fill: none; stroke: rgb(255, 127, 14); stroke-opacity: 1; stroke-width: 2px;"/></g><g class="legendsymbols"><g class="legendpoints"/></g></g><rect class="legendtoggle" pointer-events="all" x="0" y="-9.5" width="96.109375" height="19" style="cursor: pointer; fill: rgb(0, 0, 0); fill-opacity: 0;"/></g><g class="traces" style="opacity: 1;" transform="translate(0, 52.5)"><text class="legendtext user-select-none" text-anchor="start" x="40" y="4.680000000000001" style="font-family: 'Open Sans', verdana, arial, sans-serif; font-size: 12px; fill: rgb(68, 68, 68); fill-opacity: 1; white-space: pre;">deceased</text><g class="layers" style="opacity: 1;"><g class="legendfill"/><g class="legendlines"><path class="js-line" d="M5,0h30" style="fill: none; stroke: rgb(44, 160, 44); stroke-opacity: 1; stroke-width: 2px;"/></g><g class="legendsymbols"><g class="legendpoints"/></g></g><rect class="legendtoggle" pointer-events="all" x="0" y="-9.5" width="96.109375" height="19" style="cursor: pointer; fill: rgb(0, 0, 0); fill-opacity: 0;"/></g></g></g><rect class="scrollbar" rx="20" ry="3" width="0" height="0" style="fill: rgb(128, 139, 164); fill-opacity: 1;" x="0" y="0"/></g><g class="g-gtitle"><text class="gtitle" x="513.5" y="12.5" text-anchor="middle" dy="0em" style="font-family: 'Open Sans', verdana, arial, sans-serif; font-size: 17px; fill: rgb(68, 68, 68); opacity: 1; font-weight: normal; white-space: pre;">Dynamics of new cases, resolved cases and deaths in Ontario (Sep 04, 2020)</text></g><g class="g-xtitle" transform="translate(0,-15)"><text class="xtitle" x="479" y="780" text-anchor="middle" style="font-family: 'Open Sans', verdana, arial, sans-serif; font-size: 14px; fill: rgb(68, 68, 68); opacity: 1; font-weight: normal; white-space: pre;">Date</text></g><g class="g-ytitle"><text class="ytitle" transform="rotate(-90,22,376.5)" x="22" y="376.5" text-anchor="middle" style="font-family: 'Open Sans', verdana, arial, sans-serif; font-size: 14px; fill: rgb(68, 68, 68); opacity: 1; font-weight: normal; white-space: pre;">Number of cases</text></g></g></svg>