<svg class="main-svg" xmlns="http://www.w3.org/2000/svg" xmlns:xlink="http://www.w3.org/1999/xlink" width="1027" height="768" style="" viewBox="0 0 1027 768"><rect x="0" y="0" width="1027" height="768" style="fill: rgb(255, 255, 255); fill-opacity: 1;"/><defs id="defs-4c066a"><g class="clips"><clipPath id="clip4c066axyplot" class="plotclip"><rect width="838" height="703"/></clipPath><clipPath class="axesclip" id="clip4c066ax"><rect x="60" y="0" width="838" height="768"/></clipPath><clipPath class="axesclip" id="clip4c066ay"><rect x="0" y="25" width="1027" height="703"/></clipPath><clipPath class="axesclip" id="clip4c066axy"><rect x="60" y="25" width="838" height="703"/></clipPath></g><g class="gradients"/></defs><g class="bglayer"/><g class="layer-below"><g class="imagelayer"/><g class="shapelayer"/></g><g class="cartesianlayer"><g class="subplot xy"><g class="layer-subplot"><g class="shapelayer"/><g class="imagelayer"/></g><g class="gridlayer"><g class="x"><path class="xgrid crisp" transform="translate(105.71000000000001,0)" d="M0,25v703" style="stroke: rgb(238, 238, 238); stroke-opacity: 1; stroke-width: 1px;"/><path class="xgrid crisp" transform="translate(223.79,0)" d="M0,25v703" style="stroke: rgb(238, 238, 238); stroke-opacity: 1; stroke-width: 1px;"/><path class="xgrid crisp" transform="translate(338.06,0)" d="M0,25v703" style="stroke: rgb(238, 238, 238); stroke-opacity: 1; stroke-width: 1px;"/><path class="xgrid crisp" transform="translate(456.15,0)" d="M0,25v703" style="stroke: rgb(238, 238, 238); stroke-opacity: 1; stroke-width: 1px;"/><path class="xgrid crisp" transform="translate(570.4200000000001,0)" d="M0,25v703" style="stroke: rgb(238, 238, 238); stroke-opacity: 1; stroke-width: 1px;"/><path class="xgrid crisp" transform="translate(688.5,0)" d="M0,25v703" style="stroke: rgb(238, 238, 238); stroke-opacity: 1; stroke-width: 1px;"/><path class="xgrid crisp" transform="translate(806.58,0)" d="M0,25v703" style="stroke: rgb(238, 238, 238); stroke-opacity: 1; stroke-width: 1px;"/></g><g class="y"><path class="ygrid crisp" transform="translate(0,594.39)" d="M60,0h838" style="stroke: rgb(238, 238, 238); stroke-opacity: 1; stroke-width: 1px;"/><path class="ygrid crisp" transform="translate(0,496.9)" d="M60,0h838" style="stroke: rgb(238, 238, 238); stroke-opacity: 1; stroke-width: 1px;"/><path class="ygrid crisp" transform="translate(0,399.41)" d="M60,0h838" style="stroke: rgb(238, 238, 238); stroke-opacity: 1; stroke-width: 1px;"/><path class="ygrid crisp" transform="translate(0,301.92)" d="M60,0h838" style="stroke: rgb(238, 238, 238); stroke-opacity: 1; stroke-width: 1px;"/><path class="ygrid crisp" transform="translate(0,204.43)" d="M60,0h838" style="stroke: rgb(238, 238, 238); stroke-opacity: 1; stroke-width: 1px;"/><path class="ygrid crisp" transform="translate(0,106.94)" d="M60,0h838" style="stroke: rgb(238, 238, 238); stroke-opacity: 1; stroke-width: 1px;"/></g></g><g class="zerolinelayer"><path class="yzl zl crisp" transform="translate(0,691.88)" d="M60,0h838" style="stroke: rgb(68, 68, 68); stroke-opacity: 1; stroke-width: 1px;"/></g><path class="xlines-below"/><path class="ylines-below"/><g class="overlines-below"/><g class="xaxislayer-below"/><g class="yaxislayer-below"/><g class="overaxes-below"/><g class="plot" transform="translate(60, 25)" clip-path="url('#clip4c066axyplot')"><g class="scatterlayer mlayer"><g class="trace scatter trace84ed18" style="stroke-miterlimit: 2; opacity: 1;"><g class="fills"/><g class="errorbars"/><g class="lines"><path class="js-line" d="M0,666.88L3.81,666.88L7.62,667.85L11.43,667.85L22.85,665.9L30.47,666.88L34.28,665.9L38.09,665.9L49.52,655.18L53.33,664.93L57.14,666.88L60.95,665.9L64.75,662.98L68.56,664.93L76.18,660.05L79.99,666.88L83.8,661.03L87.61,650.3L91.42,647.38L95.23,643.48L99.04,625.93L102.85,635.68L106.65,656.15L110.46,642.5L114.27,624.96L118.08,608.38L121.89,611.31L125.7,623.98L129.51,591.81L133.32,585.96L137.13,574.26L140.94,503.09L144.75,538.19L148.55,520.64L152.36,92.67L156.17,413.41L159.98,251.57L163.79,275.95L167.6,216.48L171.41,301.29L175.22,269.12L179.03,365.64L182.84,297.39L186.65,130.69L190.45,196.01L194.26,200.88L198.07,266.2L201.88,275.95L205.69,256.45L209.5,196.01L213.31,185.28L217.12,165.78L220.93,117.04L224.74,194.06L228.55,113.14L232.35,76.1L236.16,129.71L239.97,169.68L243.78,48.8L247.59,42.95L251.4,202.83L255.21,240.85L259.02,253.52L262.83,155.06L266.64,328.59L270.45,219.4L274.25,256.45L278.06,168.71L281.87,243.78L285.68,306.17L289.49,289.59L293.3,265.22L297.11,277.9L300.92,201.86L304.73,329.57L308.54,380.26L312.35,366.61L316.15,314.94L319.96,346.14L323.77,330.54L327.58,334.44L331.39,285.7L335.2,335.41L339.01,370.51L342.82,250.6L346.63,286.67L350.44,264.25L354.25,236.95L358.05,265.22L361.86,218.43L365.67,273.02L369.48,387.08L373.29,382.21L377.1,293.49L380.91,331.51L384.72,351.99L388.53,349.06L392.34,273.02L396.15,232.08L399.95,337.36L403.76,319.82L407.57,331.51L411.38,223.3L415.19,262.3L419,429.98L422.81,442.65L426.62,422.18L430.43,468.97L434.24,489.45L438.05,407.56L441.85,474.82L445.66,490.42L449.47,487.5L453.28,481.65L457.09,498.22L460.9,493.35L464.71,466.05L468.52,496.27L472.33,509.92L476.14,456.3L479.95,507.97L483.75,482.62L487.56,558.66L491.37,510.89L495.18,493.35L498.99,416.33L502.8,513.82L506.61,521.62L510.42,517.72L514.23,506.02L518.04,548.91L525.65,516.74L529.46,557.69L533.27,551.84L537.08,501.14L540.89,553.79L544.7,540.14L548.51,541.12L552.32,553.79L556.13,558.66L559.94,567.44L563.75,558.66L567.55,558.66L571.36,505.04L575.17,506.99L578.98,535.27L582.79,468.97L586.6,506.02L590.41,566.46L594.22,476.77L598.03,532.34L601.84,533.32L605.65,550.86L609.45,558.66L613.26,592.78L617.07,580.11L620.88,536.24L628.5,553.79L632.31,581.09L636.12,578.16L639.93,583.04L643.74,574.26L647.55,581.09L651.35,598.63L655.16,589.86L658.97,554.76L662.78,634.7L666.59,574.26L670.4,590.83L678.02,563.54L681.83,587.91L685.64,570.36L689.45,545.01L697.06,592.78L700.87,539.17L704.68,561.59L708.49,554.76L712.3,564.51L716.11,569.39L719.92,581.09L723.73,551.84L727.54,547.94L731.35,522.59L735.15,557.69L738.96,555.74L742.77,557.69L746.58,537.22L750.39,538.19L754.2,522.59L758.01,502.12L761.82,512.84L765.63,481.65L769.44,486.52L773.25,521.62L777.05,501.14L780.86,459.22L784.67,440.7L788.48,468L792.29,361.74L796.1,422.18L799.91,359.79L803.72,381.23L807.53,275.95L811.34,270.1L815.15,311.04L822.76,200.88L826.57,340.29L830.38,268.15L834.19,268.15L838,242.8" style="vector-effect: non-scaling-stroke; fill: none; stroke: rgb(31, 119, 180); stroke-opacity: 1; stroke-width: 2px; opacity: 1;"/></g><g class="points"/><g class="text"/></g><g class="trace scatter trace34084c" style="stroke-miterlimit: 2; opacity: 1;"><g class="fills"/><g class="errorbars"/><g class="lines"><path class="js-line" d="M0,666.88L3.81,666.88L7.62,665.9L11.43,665.9L22.85,666.88L57.14,666.88L60.95,665.9L64.75,666.88L68.56,666.88L76.18,666.88L79.99,665.9L83.8,666.88L87.61,666.88L118.08,666.88L121.89,665.9L125.7,664.93L129.51,666.88L148.55,666.88L152.36,254.5L156.17,566.46L159.98,515.77L163.79,528.44L167.6,479.7L171.41,475.8L175.22,442.65L179.03,496.27L182.84,493.35L186.65,401.71L190.45,441.68L194.26,404.63L198.07,390.01L201.88,410.48L205.69,436.8L209.5,461.17L213.31,341.26L217.12,382.21L220.93,313.97L224.74,355.89L228.55,341.26L232.35,368.56L236.16,383.18L239.97,262.3L243.78,219.4L247.59,270.1L251.4,255.47L255.21,188.21L259.02,155.06L262.83,238.9L266.64,35.15L270.45,88.77L274.25,62.45L278.06,116.07L281.87,67.32L285.68,179.43L289.49,399.76L293.3,235L297.11,328.59L300.92,256.45L304.73,283.75L308.54,287.65L312.35,316.89L316.15,413.41L319.96,224.28L323.77,316.89L327.58,240.85L331.39,297.39L335.2,335.41L339.01,395.86L342.82,413.41L350.44,355.89L354.25,415.35L358.05,297.39L361.86,344.19L365.67,451.43L369.48,413.41L373.29,263.27L377.1,373.43L380.91,364.66L384.72,306.17L388.53,221.35L392.34,332.49L396.15,344.19L399.95,348.09L403.76,279.85L407.57,301.29L411.38,312.02L415.19,369.54L419,432.9L422.81,338.34L426.62,129.71L430.43,174.56L434.24,372.46L438.05,324.69L441.85,254.5L445.66,421.2L449.47,454.35L453.28,322.74L457.09,452.4L460.9,427.05L464.71,454.35L468.52,422.18L476.14,497.25L479.95,443.63L483.75,479.7L487.56,446.55L491.37,493.35L495.18,496.27L498.99,580.11L502.8,522.59L506.61,489.45L510.42,468L514.23,492.37L518.04,497.25L521.85,488.47L525.65,510.89L529.46,494.32L533.27,469.95L537.08,499.19L540.89,493.35L544.7,406.58L548.51,557.69L552.32,541.12L556.13,547.94L559.94,535.27L563.75,529.42L567.55,568.41L571.36,538.19L575.17,556.71L578.98,563.54L582.79,577.19L586.6,465.07L590.41,519.67L594.22,533.32L598.03,530.39L601.84,550.86L605.65,567.44L609.45,563.54L613.26,497.25L617.07,506.02L620.88,503.09L624.69,507.97L628.5,547.94L632.31,544.04L636.12,553.79L639.93,524.54L643.74,511.87L647.55,551.84L651.35,562.56L655.16,522.59L658.97,567.44L662.78,593.76L666.59,536.24L670.4,570.36L674.21,585.96L678.02,568.41L681.83,588.88L685.64,585.96L689.45,579.14L693.25,580.11L697.06,592.78L700.87,563.54L704.68,579.14L708.49,561.59L712.3,590.83L716.11,593.76L719.92,554.76L723.73,591.81L727.54,585.96L731.35,566.46L735.15,590.83L738.96,595.71L742.77,577.19L746.58,533.32L750.39,550.86L754.2,553.79L758.01,563.54L761.82,558.66L765.63,550.86L769.44,550.86L773.25,534.29L777.05,528.44L780.86,545.99L784.67,550.86L788.48,545.99L792.29,537.22L796.1,552.81L799.91,516.74L803.72,492.37L807.53,495.3L811.34,494.32L815.15,480.67L818.95,493.35L822.76,475.8L826.57,415.35L830.38,388.06L834.19,390.98L838,337.36" style="vector-effect: non-scaling-stroke; fill: none; stroke: rgb(255, 127, 14); stroke-opacity: 1; stroke-width: 2px; opacity: 1;"/></g><g class="points"/><g class="text"/></g><g class="trace scatter trace5a1721" style="stroke-miterlimit: 2; opacity: 1;"><g class="fills"/><g class="errorbars"/><g class="lines"><path class="js-line" d="M0,666.88L102.85,666.88L106.65,665.9L110.46,666.88L114.27,665.9L118.08,666.88L121.89,665.9L125.7,664.93L129.51,665.9L133.32,664.93L137.13,662L140.94,664.93L144.75,663.95L148.55,665.9L152.36,662.98L156.17,657.13L159.98,662.98L163.79,651.28L167.6,653.23L171.41,640.55L175.22,642.5L179.03,654.2L182.84,646.4L186.65,646.4L190.45,641.53L194.26,645.43L198.07,636.65L201.88,646.4L205.69,650.3L209.5,624.96L213.31,617.16L217.12,629.83L220.93,613.26L224.74,631.78L228.55,628.85L232.35,636.65L236.16,629.83L239.97,630.8L243.78,614.23L247.59,618.13L251.4,620.08L255.21,643.48L259.02,611.31L262.83,609.36L266.64,623.01L270.45,583.04L274.25,628.85L278.06,613.26L281.87,627.88L285.68,584.98L289.49,607.41L293.3,600.58L297.11,620.08L300.92,605.46L304.73,609.36L308.54,632.75L312.35,632.75L316.15,612.28L319.96,627.88L327.58,640.55L331.39,634.7L335.2,644.45L339.01,644.45L342.82,652.25L346.63,624.96L350.44,636.65L354.25,639.58L358.05,640.55L361.86,642.5L365.67,638.6L369.48,646.4L373.29,635.68L377.1,633.73L380.91,626.9L384.72,650.3L388.53,648.35L392.34,657.13L396.15,650.3L399.95,648.35L403.76,623.01L407.57,652.25L411.38,632.75L415.19,648.35L419,643.48L422.81,653.23L426.62,656.15L430.43,655.18L434.24,656.15L438.05,658.1L441.85,655.18L445.66,659.08L449.47,656.15L453.28,655.18L457.09,663.95L460.9,656.15L464.71,636.65L468.52,656.15L472.33,663.95L476.14,657.13L479.95,655.18L483.75,657.13L487.56,663.95L491.37,659.08L495.18,661.03L498.99,660.05L502.8,660.05L506.61,662.98L510.42,662.98L514.23,664.93L518.04,662L521.85,664.93L525.65,666.88L529.46,664.93L533.27,658.1L537.08,663.95L540.89,660.05L544.7,661.03L548.51,663.95L552.32,663.95L556.13,665.9L559.94,658.1L563.75,662L567.55,658.1L571.36,664.93L575.17,663.95L578.98,665.9L582.79,665.9L586.6,664.93L590.41,666.88L594.22,663.95L598.03,665.9L601.84,662.98L605.65,665.9L609.45,662.98L613.26,665.9L617.07,663.95L620.88,663.95L632.31,666.88L636.12,662.98L639.93,666.88L643.74,665.9L647.55,666.88L651.35,665.9L655.16,664.93L658.97,666.88L662.78,666.88L666.59,665.9L670.4,666.88L674.21,665.9L678.02,665.9L681.83,666.88L685.64,666.88L689.45,662.98L693.25,667.85L697.06,665.9L700.87,663.95L704.68,665.9L708.49,666.88L712.3,665.9L716.11,664.93L719.92,664.93L723.73,665.9L727.54,661.03L731.35,666.88L735.15,665.9L742.77,665.9L746.58,666.88L750.39,666.88L754.2,667.85L758.01,666.88L761.82,664.93L765.63,666.88L769.44,666.88L773.25,666.88L777.05,665.9L780.86,667.85L784.67,665.9L792.29,665.9L796.1,662.98L799.91,664.93L803.72,663.95L807.53,666.88L811.34,665.9L815.15,665.9L818.95,664.93L822.76,663.95L826.57,663.95L830.38,665.9L834.19,665.9L838,666.88" style="vector-effect: non-scaling-stroke; fill: none; stroke: rgb(44, 160, 44); stroke-opacity: 1; stroke-width: 2px; opacity: 1;"/></g><g class="points"/><g class="text"/></g></g></g><g class="overplot"/><path class="xlines-above crisp" style="fill: none;" d="M0,0"/><path class="ylines-above crisp" style="fill: none;" d="M0,0"/><g class="overlines-above"/><g class="xaxislayer-above"><g class="xtick"><text text-anchor="middle" x="0" y="741" transform="translate(105.71000000000001,0)" style="font-family: 'Open Sans', verdana, arial, sans-serif; font-size: 12px; fill: rgb(68, 68, 68); fill-opacity: 1; white-space: pre;">Mar 2020</text></g><g class="xtick"><text text-anchor="middle" x="0" y="741" transform="translate(223.79,0)" style="font-family: 'Open Sans', verdana, arial, sans-serif; font-size: 12px; fill: rgb(68, 68, 68); fill-opacity: 1; white-space: pre;">Apr 2020</text></g><g class="xtick"><text text-anchor="middle" x="0" y="741" transform="translate(338.06,0)" style="font-family: 'Open Sans', verdana, arial, sans-serif; font-size: 12px; fill: rgb(68, 68, 68); fill-opacity: 1; white-space: pre;">May 2020</text></g><g class="xtick"><text text-anchor="middle" x="0" y="741" transform="translate(456.15,0)" style="font-family: 'Open Sans', verdana, arial, sans-serif; font-size: 12px; fill: rgb(68, 68, 68); fill-opacity: 1; white-space: pre;">Jun 2020</text></g><g class="xtick"><text text-anchor="middle" x="0" y="741" transform="translate(570.4200000000001,0)" style="font-family: 'Open Sans', verdana, arial, sans-serif; font-size: 12px; fill: rgb(68, 68, 68); fill-opacity: 1; white-space: pre;">Jul 2020</text></g><g class="xtick"><text text-anchor="middle" x="0" y="741" transform="translate(688.5,0)" style="font-family: 'Open Sans', verdana, arial, sans-serif; font-size: 12px; fill: rgb(68, 68, 68); fill-opacity: 1; white-space: pre;">Aug 2020</text></g><g class="xtick"><text text-anchor="middle" x="0" y="741" transform="translate(806.58,0)" style="font-family: 'Open Sans', verdana, arial, sans-serif; font-size: 12px; fill: rgb(68, 68, 68); fill-opacity: 1; white-space: pre;">Sep 2020</text></g></g><g class="yaxislayer-above"><g class="ytick"><text text-anchor="end" x="59" y="4.199999999999999" transform="translate(0,691.88)" style="font-family: 'Open Sans', verdana, arial, sans-serif; font-size: 12px; fill: rgb(68, 68, 68); fill-opacity: 1; white-space: pre;">0</text></g><g class="ytick"><text text-anchor="end" x="59" y="4.199999999999999" transform="translate(0,594.39)" style="font-family: 'Open Sans', verdana, arial, sans-serif; font-size: 12px; fill: rgb(68, 68, 68); fill-opacity: 1; white-space: pre;">100</text></g><g class="ytick"><text text-anchor="end" x="59" y="4.199999999999999" transform="translate(0,496.9)" style="font-family: 'Open Sans', verdana, arial, sans-serif; font-size: 12px; fill: rgb(68, 68, 68); fill-opacity: 1; white-space: pre;">200</text></g><g class="ytick"><text text-anchor="end" x="59" y="4.199999999999999" transform="translate(0,399.41)" style="font-family: 'Open Sans', verdana, arial, sans-serif; font-size: 12px; fill: rgb(68, 68, 68); fill-opacity: 1; white-space: pre;">300</text></g><g class="ytick"><text text-anchor="end" x="59" y="4.199999999999999" transform="translate(0,301.92)" style="font-family: 'Open Sans', verdana, arial, sans-serif; font-size: 12px; fill: rgb(68, 68, 68); fill-opacity: 1; white-space: pre;">400</text></g><g class="ytick"><text text-anchor="end" x="59" y="4.199999999999999" transform="translate(0,204.43)" style="font-family: 'Open Sans', verdana, arial, sans-serif; font-size: 12px; fill: rgb(68, 68, 68); fill-opacity: 1; white-space: pre;">500</text></g><g class="ytick"><text text-anchor="end" x="59" y="4.199999999999999" transform="translate(0,106.94)" style="font-family: 'Open Sans', verdana, arial, sans-serif; font-size: 12px; fill: rgb(68, 68, 68); fill-opacity: 1; white-space: pre;">600</text></g></g><g class="overaxes-above"/></g></g><g class="polarlayer"/><g class="ternarylayer"/><g class="geolayer"/><g class="funnelarealayer"/><g class="pielayer"/><g class="treemaplayer"/><g class="sunburstlayer"/><g class="glimages"/><defs id="topdefs-4c066a"><g class="clips"/><clipPath id="legend4c066a"><rect width="102" height="67" x="0" y="0"/></clipPath></defs><g class="layer-above"><g class="imagelayer"/><g class="shapelayer"/></g><g class="infolayer"><g class="legend" pointer-events="all" transform="translate(914.76, 25)"><rect class="bg" shape-rendering="crispEdges" style="stroke: rgb(68, 68, 68); stroke-opacity: 1; fill: rgb(255, 255, 255); fill-opacity: 1; stroke-width: 0px;" width="102" height="67" x="0" y="0"/><g class="scrollbox" transform="translate(0, 0)" clip-path="url('#legend4c066a')"><g class="groups"><g class="traces" style="opacity: 1;" transform="translate(0, 14.5)"><text class="legendtext user-select-none" text-anchor="start" x="40" y="4.680000000000001" style="font-family: 'Open Sans', verdana, arial, sans-serif; font-size: 12px; fill: rgb(68, 68, 68); fill-opacity: 1; white-space: pre;">positive</text><g class="layers" style="opacity: 1;"><g class="legendfill"/><g class="legendlines"><path class="js-line" d="M5,0h30" style="fill: none; stroke: rgb(31, 119, 180); stroke-opacity: 1; stroke-width: 2px;"/></g><g class="legendsymbols"><g class="legendpoints"/></g></g><rect class="legendtoggle" pointer-events="all" x="0" y="-9.5" width="96.109375" height="19" style="cursor: pointer; fill: rgb(0, 0, 0); fill-opacity: 0;"/></g><g class="traces" style="opacity: 1;" transform="translate(0, 33.5)"><text class="legendtext user-select-none" text-anchor="start" x="40" y="4.680000000000001" style="font-family: 'Open Sans', verdana, arial, sans-serif; font-size: 12px; fill: rgb(68, 68, 68); fill-opacity: 1; white-space: pre;">resolved</text><g class="layers" style="opacity: 1;"><g class="legendfill"/><g class="legendlines"><path class="js-line" d="M5,0h30" style="fill: none; stroke: rgb(255, 127, 14); stroke-opacity: 1; stroke-width: 2px;"/></g><g class="legendsymbols"><g class="legendpoints"/></g></g><rect class="legendtoggle" pointer-events="all" x="0" y="-9.5" width="96.109375" height="19" style="cursor: pointer; fill: rgb(0, 0, 0); fill-opacity: 0;"/></g><g class="traces" style="opacity: 1;" transform="translate(0, 52.5)"><text class="legendtext user-select-none" text-anchor="start" x="40" y="4.680000000000001" style="font-family: 'Open Sans', verdana, arial, sans-serif; font-size: 12px; fill: rgb(68, 68, 68); fill-opacity: 1; white-space: pre;">deceased</text><g class="layers" style="opacity: 1;"><g class="legendfill"/><g class="legendlines"><path class="js-line" d="M5,0h30" style="fill: none; stroke: rgb(44, 160, 44); stroke-opacity: 1; stroke-width: 2px;"/></g><g class="legendsymbols"><g class="legendpoints"/></g></g><rect class="legendtoggle" pointer-events="all" x="0" y="-9.5" width="96.109375" height="19" style="cursor: pointer; fill: rgb(0, 0, 0); fill-opacity: 0;"/></g></g></g><rect class="scrollbar" rx="20" ry="3" width="0" height="0" style="fill: rgb(128, 139, 164); fill-opacity: 1;" x="0" y="0"/></g><g class="g-gtitle"><text class="gtitle" x="513.5" y="12.5" text-anchor="middle" dy="0em" style="font-family: 'Open Sans', verdana, arial, sans-serif; font-size: 17px; fill: rgb(68, 68, 68); opacity: 1; font-weight: normal; white-space: pre;">Dynamics of new cases, resolved cases and deaths in Ontario (Sep 26, 2020)</text></g><g class="g-xtitle" transform="translate(0,-15)"><text class="xtitle" x="479" y="780" text-anchor="middle" style="font-family: 'Open Sans', verdana, arial, sans-serif; font-size: 14px; fill: rgb(68, 68, 68); opacity: 1; font-weight: normal; white-space: pre;">Date</text></g><g class="g-ytitle"><text class="ytitle" transform="rotate(-90,22,376.5)" x="22" y="376.5" text-anchor="middle" style="font-family: 'Open Sans', verdana, arial, sans-serif; font-size: 14px; fill: rgb(68, 68, 68); opacity: 1; font-weight: normal; white-space: pre;">Number of cases</text></g></g></svg>