<svg class="main-svg" xmlns="http://www.w3.org/2000/svg" xmlns:xlink="http://www.w3.org/1999/xlink" width="1027" height="768" style="" viewBox="0 0 1027 768"><rect x="0" y="0" width="1027" height="768" style="fill: rgb(255, 255, 255); fill-opacity: 1;"/><defs id="defs-b58573"><g class="clips"><clipPath id="clipb58573xyplot" class="plotclip"><rect width="838" height="687"/></clipPath><clipPath class="axesclip" id="clipb58573x"><rect x="60" y="0" width="838" height="768"/></clipPath><clipPath class="axesclip" id="clipb58573y"><rect x="0" y="25" width="1027" height="687"/></clipPath><clipPath class="axesclip" id="clipb58573xy"><rect x="60" y="25" width="838" height="687"/></clipPath></g><g class="gradients"/></defs><g class="bglayer"/><g class="layer-below"><g class="imagelayer"/><g class="shapelayer"/></g><g class="cartesianlayer"><g class="subplot xy"><g class="layer-subplot"><g class="shapelayer"/><g class="imagelayer"/></g><g class="gridlayer"><g class="x"><path class="xgrid crisp" transform="translate(146.69,0)" d="M0,25v687" style="stroke: rgb(238, 238, 238); stroke-opacity: 1; stroke-width: 1px;"/><path class="xgrid crisp" transform="translate(247.83,0)" d="M0,25v687" style="stroke: rgb(238, 238, 238); stroke-opacity: 1; stroke-width: 1px;"/><path class="xgrid crisp" transform="translate(348.97,0)" d="M0,25v687" style="stroke: rgb(238, 238, 238); stroke-opacity: 1; stroke-width: 1px;"/><path class="xgrid crisp" transform="translate(450.1,0)" d="M0,25v687" style="stroke: rgb(238, 238, 238); stroke-opacity: 1; stroke-width: 1px;"/><path class="xgrid crisp" transform="translate(551.24,0)" d="M0,25v687" style="stroke: rgb(238, 238, 238); stroke-opacity: 1; stroke-width: 1px;"/><path class="xgrid crisp" transform="translate(652.38,0)" d="M0,25v687" style="stroke: rgb(238, 238, 238); stroke-opacity: 1; stroke-width: 1px;"/><path class="xgrid crisp" transform="translate(753.52,0)" d="M0,25v687" style="stroke: rgb(238, 238, 238); stroke-opacity: 1; stroke-width: 1px;"/><path class="xgrid crisp" transform="translate(854.66,0)" d="M0,25v687" style="stroke: rgb(238, 238, 238); stroke-opacity: 1; stroke-width: 1px;"/></g><g class="y"><path class="ygrid crisp" transform="translate(0,581.43)" d="M60,0h838" style="stroke: rgb(238, 238, 238); stroke-opacity: 1; stroke-width: 1px;"/><path class="ygrid crisp" transform="translate(0,486.16)" d="M60,0h838" style="stroke: rgb(238, 238, 238); stroke-opacity: 1; stroke-width: 1px;"/><path class="ygrid crisp" transform="translate(0,390.89)" d="M60,0h838" style="stroke: rgb(238, 238, 238); stroke-opacity: 1; stroke-width: 1px;"/><path class="ygrid crisp" transform="translate(0,295.62)" d="M60,0h838" style="stroke: rgb(238, 238, 238); stroke-opacity: 1; stroke-width: 1px;"/><path class="ygrid crisp" transform="translate(0,200.35)" d="M60,0h838" style="stroke: rgb(238, 238, 238); stroke-opacity: 1; stroke-width: 1px;"/><path class="ygrid crisp" transform="translate(0,105.08)" d="M60,0h838" style="stroke: rgb(238, 238, 238); stroke-opacity: 1; stroke-width: 1px;"/></g></g><g class="zerolinelayer"><path class="yzl zl crisp" transform="translate(0,676.7)" d="M60,0h838" style="stroke: rgb(68, 68, 68); stroke-opacity: 1; stroke-width: 1px;"/></g><path class="xlines-below"/><path class="ylines-below"/><g class="overlines-below"/><g class="xaxislayer-below"/><g class="yaxislayer-below"/><g class="overaxes-below"/><g class="plot" transform="translate(60, 25)" clip-path="url('#clipb58573xyplot')"><g class="scatterlayer mlayer"><g class="trace scatter tracea6401f" style="stroke-miterlimit: 2; opacity: 1;"><g class="fills"/><g class="errorbars"/><g class="lines"><path class="js-line" d="M0,651.7L7.22,651.7L14.45,652.65L21.67,652.65L43.34,650.74L57.79,651.7L65.02,650.74L72.24,650.74L93.91,640.26L101.14,649.79L108.36,651.7L115.59,650.74L122.81,647.89L130.03,649.79L144.48,645.03L151.71,651.7L158.93,645.98L166.16,635.5L173.38,632.64L180.6,628.83L187.83,611.68L195.05,621.21L202.28,641.22L209.5,627.88L216.72,610.73L223.95,594.54L231.17,597.39L238.4,609.78L245.62,578.34L252.84,572.62L260.07,561.19L267.29,491.64L274.52,525.94L281.74,508.79L288.97,90.56L296.19,404L303.41,245.85L310.64,269.67L317.86,211.55L325.09,294.44L332.31,263L339.53,357.31L346.76,290.63L353.98,127.71L361.21,191.54L368.43,196.31L375.66,260.14L382.88,269.67L390.1,250.61L397.33,191.54L404.55,181.07L411.78,162.01L419,114.38L426.22,189.64L433.45,110.57L440.67,74.36L447.9,126.76L455.12,165.82L462.34,47.69L469.57,41.97L476.79,198.21L484.02,235.37L491.24,247.75L498.47,151.53L505.69,321.11L512.91,214.41L520.14,250.61L527.36,164.87L534.59,238.23L541.81,299.2L549.03,283L556.26,259.19L563.48,271.57L570.71,197.26L577.93,322.06L585.16,371.6L592.38,358.27L599.6,307.77L606.83,338.26L614.05,323.02L621.28,326.83L628.5,279.19L635.72,327.78L642.95,362.08L650.17,244.9L657.4,280.15L664.62,258.23L671.84,231.56L679.07,259.19L686.29,213.46L693.52,266.81L700.74,378.27L707.97,373.51L715.19,286.81L722.41,323.97L729.64,343.98L736.86,341.12L744.09,266.81L751.31,226.79L758.53,329.69L765.76,312.54L772.98,323.97L780.21,218.22L787.43,256.33L794.66,420.19L801.88,432.58L809.1,412.57L816.33,458.3L823.55,478.31L830.78,398.28L838,464.02" style="vector-effect: non-scaling-stroke; fill: none; stroke: rgb(31, 119, 180); stroke-opacity: 1; stroke-width: 2px; opacity: 1;"/></g><g class="points"/><g class="text"/></g><g class="trace scatter traceac40fe" style="stroke-miterlimit: 2; opacity: 1;"><g class="fills"/><g class="errorbars"/><g class="lines"><path class="js-line" d="M0,651.7L7.22,651.7L14.45,650.74L21.67,650.74L43.34,651.7L108.36,651.7L115.59,650.74L122.81,651.7L130.03,651.7L144.48,651.7L151.71,650.74L158.93,651.7L166.16,651.7L223.95,651.7L231.17,650.74L238.4,649.79L245.62,651.7L281.74,651.7L288.97,248.71L296.19,553.57L303.41,504.03L310.64,516.41L317.86,468.78L325.09,464.97L332.31,432.58L339.53,484.98L346.76,482.12L353.98,392.56L361.21,431.62L368.43,395.42L375.66,381.13L382.88,401.14L390.1,426.86L397.33,450.68L404.55,333.5L411.78,373.51L419,306.82L426.22,347.79L433.45,333.5L440.67,360.17L447.9,374.46L455.12,256.33L462.34,214.41L469.57,263.95L476.79,249.66L484.02,183.92L491.24,151.53L498.47,233.46L505.69,34.35L512.91,86.75L520.14,61.03L527.36,113.42L534.59,65.79L541.81,175.35L549.03,390.66L556.26,229.65L563.48,321.11L570.71,250.61L577.93,277.29L585.16,281.1L592.38,309.68L599.6,404L606.83,219.17L614.05,309.68L621.28,235.37L628.5,290.63L635.72,327.78L642.95,386.85L650.17,404L657.4,373.51L664.62,347.79L671.84,405.9L679.07,290.63L686.29,336.35L693.52,441.15L700.74,404L707.97,257.28L715.19,364.94L722.41,356.36L729.64,299.2L736.86,216.32L744.09,324.92L751.31,336.35L758.53,340.17L765.76,273.48L772.98,294.44L780.21,304.92L794.66,423.05L801.88,330.64L809.1,126.76L816.33,170.59L823.55,363.98L830.78,317.3L838,248.71" style="vector-effect: non-scaling-stroke; fill: none; stroke: rgb(255, 127, 14); stroke-opacity: 1; stroke-width: 2px; opacity: 1;"/></g><g class="points"/><g class="text"/></g><g class="trace scatter tracee3cf11" style="stroke-miterlimit: 2; opacity: 1;"><g class="fills"/><g class="errorbars"/><g class="lines"><path class="js-line" d="M0,651.7L195.05,651.7L202.28,650.74L209.5,651.7L216.72,650.74L223.95,651.7L231.17,650.74L238.4,649.79L245.62,650.74L252.84,649.79L260.07,646.93L267.29,649.79L274.52,648.84L281.74,650.74L288.97,647.89L296.19,642.17L303.41,647.89L310.64,636.45L317.86,638.36L325.09,625.97L332.31,627.88L339.53,639.31L346.76,631.69L353.98,631.69L361.21,626.93L368.43,630.74L375.66,622.16L382.88,631.69L390.1,635.5L397.33,610.73L404.55,603.11L411.78,615.49L419,599.3L426.22,617.4L433.45,614.54L440.67,622.16L447.9,615.49L455.12,616.45L462.34,600.25L469.57,604.06L476.79,605.97L484.02,628.83L491.24,597.39L498.47,595.49L505.69,608.83L512.91,569.77L520.14,614.54L527.36,599.3L534.59,613.59L541.81,571.67L549.03,593.58L556.26,586.91L563.48,605.97L570.71,591.68L577.93,595.49L585.16,618.35L592.38,618.35L599.6,598.35L606.83,613.59L621.28,625.97L628.5,620.26L635.72,629.79L642.95,629.79L650.17,637.41L657.4,610.73L664.62,622.16L671.84,625.02L679.07,625.97L686.29,627.88L693.52,624.07L700.74,631.69L707.97,621.21L715.19,619.31L722.41,612.64L729.64,635.5L736.86,633.6L744.09,642.17L751.31,635.5L758.53,633.6L765.76,608.83L772.98,637.41L780.21,618.35L787.43,633.6L794.66,628.83L801.88,638.36L809.1,641.22L816.33,640.26L823.55,641.22L830.78,643.12L838,640.26" style="vector-effect: non-scaling-stroke; fill: none; stroke: rgb(44, 160, 44); stroke-opacity: 1; stroke-width: 2px; opacity: 1;"/></g><g class="points"/><g class="text"/></g></g></g><g class="overplot"/><path class="xlines-above crisp" style="fill: none;" d="M0,0"/><path class="ylines-above crisp" style="fill: none;" d="M0,0"/><g class="overlines-above"/><g class="xaxislayer-above"><g class="xtick"><text text-anchor="middle" x="0" y="725" transform="translate(146.69,0)" style="font-family: 'Open Sans', verdana, arial, sans-serif; font-size: 12px; fill: rgb(68, 68, 68); fill-opacity: 1; white-space: pre;"><tspan class="line" dy="0em" x="0" y="725">Mar 1</tspan><tspan class="line" dy="1.3em" x="0" y="725">2020</tspan></text></g><g class="xtick"><text text-anchor="middle" x="0" y="725" transform="translate(247.83,0)" style="font-family: 'Open Sans', verdana, arial, sans-serif; font-size: 12px; fill: rgb(68, 68, 68); fill-opacity: 1; white-space: pre;">Mar 15</text></g><g class="xtick"><text text-anchor="middle" x="0" y="725" transform="translate(348.97,0)" style="font-family: 'Open Sans', verdana, arial, sans-serif; font-size: 12px; fill: rgb(68, 68, 68); fill-opacity: 1; white-space: pre;">Mar 29</text></g><g class="xtick"><text text-anchor="middle" x="0" y="725" transform="translate(450.1,0)" style="font-family: 'Open Sans', verdana, arial, sans-serif; font-size: 12px; fill: rgb(68, 68, 68); fill-opacity: 1; white-space: pre;">Apr 12</text></g><g class="xtick"><text text-anchor="middle" x="0" y="725" transform="translate(551.24,0)" style="font-family: 'Open Sans', verdana, arial, sans-serif; font-size: 12px; fill: rgb(68, 68, 68); fill-opacity: 1; white-space: pre;">Apr 26</text></g><g class="xtick"><text text-anchor="middle" x="0" y="725" transform="translate(652.38,0)" style="font-family: 'Open Sans', verdana, arial, sans-serif; font-size: 12px; fill: rgb(68, 68, 68); fill-opacity: 1; white-space: pre;">May 10</text></g><g class="xtick"><text text-anchor="middle" x="0" y="725" transform="translate(753.52,0)" style="font-family: 'Open Sans', verdana, arial, sans-serif; font-size: 12px; fill: rgb(68, 68, 68); fill-opacity: 1; white-space: pre;">May 24</text></g><g class="xtick"><text text-anchor="middle" x="0" y="725" transform="translate(854.66,0)" style="font-family: 'Open Sans', verdana, arial, sans-serif; font-size: 12px; fill: rgb(68, 68, 68); fill-opacity: 1; white-space: pre;">Jun 7</text></g></g><g class="yaxislayer-above"><g class="ytick"><text text-anchor="end" x="59" y="4.199999999999999" transform="translate(0,676.7)" style="font-family: 'Open Sans', verdana, arial, sans-serif; font-size: 12px; fill: rgb(68, 68, 68); fill-opacity: 1; white-space: pre;">0</text></g><g class="ytick"><text text-anchor="end" x="59" y="4.199999999999999" transform="translate(0,581.43)" style="font-family: 'Open Sans', verdana, arial, sans-serif; font-size: 12px; fill: rgb(68, 68, 68); fill-opacity: 1; white-space: pre;">100</text></g><g class="ytick"><text text-anchor="end" x="59" y="4.199999999999999" transform="translate(0,486.16)" style="font-family: 'Open Sans', verdana, arial, sans-serif; font-size: 12px; fill: rgb(68, 68, 68); fill-opacity: 1; white-space: pre;">200</text></g><g class="ytick"><text text-anchor="end" x="59" y="4.199999999999999" transform="translate(0,390.89)" style="font-family: 'Open Sans', verdana, arial, sans-serif; font-size: 12px; fill: rgb(68, 68, 68); fill-opacity: 1; white-space: pre;">300</text></g><g class="ytick"><text text-anchor="end" x="59" y="4.199999999999999" transform="translate(0,295.62)" style="font-family: 'Open Sans', verdana, arial, sans-serif; font-size: 12px; fill: rgb(68, 68, 68); fill-opacity: 1; white-space: pre;">400</text></g><g class="ytick"><text text-anchor="end" x="59" y="4.199999999999999" transform="translate(0,200.35)" style="font-family: 'Open Sans', verdana, arial, sans-serif; font-size: 12px; fill: rgb(68, 68, 68); fill-opacity: 1; white-space: pre;">500</text></g><g class="ytick"><text text-anchor="end" x="59" y="4.199999999999999" transform="translate(0,105.08)" style="font-family: 'Open Sans', verdana, arial, sans-serif; font-size: 12px; fill: rgb(68, 68, 68); fill-opacity: 1; white-space: pre;">600</text></g></g><g class="overaxes-above"/></g></g><g class="polarlayer"/><g class="ternarylayer"/><g class="geolayer"/><g class="funnelarealayer"/><g class="pielayer"/><g class="treemaplayer"/><g class="sunburstlayer"/><g class="glimages"/><defs id="topdefs-b58573"><g class="clips"/><clipPath id="legendb58573"><rect width="102" height="67" x="0" y="0"/></clipPath></defs><g class="layer-above"><g class="imagelayer"/><g class="shapelayer"/></g><g class="infolayer"><g class="legend" pointer-events="all" transform="translate(914.76, 25)"><rect class="bg" shape-rendering="crispEdges" style="stroke: rgb(68, 68, 68); stroke-opacity: 1; fill: rgb(255, 255, 255); fill-opacity: 1; stroke-width: 0px;" width="102" height="67" x="0" y="0"/><g class="scrollbox" transform="translate(0, 0)" clip-path="url('#legendb58573')"><g class="groups"><g class="traces" style="opacity: 1;" transform="translate(0, 14.5)"><text class="legendtext user-select-none" text-anchor="start" x="40" y="4.680000000000001" style="font-family: 'Open Sans', verdana, arial, sans-serif; font-size: 12px; fill: rgb(68, 68, 68); fill-opacity: 1; white-space: pre;">positive</text><g class="layers" style="opacity: 1;"><g class="legendfill"/><g class="legendlines"><path class="js-line" d="M5,0h30" style="fill: none; stroke: rgb(31, 119, 180); stroke-opacity: 1; stroke-width: 2px;"/></g><g class="legendsymbols"><g class="legendpoints"/></g></g><rect class="legendtoggle" pointer-events="all" x="0" y="-9.5" width="96.109375" height="19" style="cursor: pointer; fill: rgb(0, 0, 0); fill-opacity: 0;"/></g><g class="traces" style="opacity: 1;" transform="translate(0, 33.5)"><text class="legendtext user-select-none" text-anchor="start" x="40" y="4.680000000000001" style="font-family: 'Open Sans', verdana, arial, sans-serif; font-size: 12px; fill: rgb(68, 68, 68); fill-opacity: 1; white-space: pre;">resolved</text><g class="layers" style="opacity: 1;"><g class="legendfill"/><g class="legendlines"><path class="js-line" d="M5,0h30" style="fill: none; stroke: rgb(255, 127, 14); stroke-opacity: 1; stroke-width: 2px;"/></g><g class="legendsymbols"><g class="legendpoints"/></g></g><rect class="legendtoggle" pointer-events="all" x="0" y="-9.5" width="96.109375" height="19" style="cursor: pointer; fill: rgb(0, 0, 0); fill-opacity: 0;"/></g><g class="traces" style="opacity: 1;" transform="translate(0, 52.5)"><text class="legendtext user-select-none" text-anchor="start" x="40" y="4.680000000000001" style="font-family: 'Open Sans', verdana, arial, sans-serif; font-size: 12px; fill: rgb(68, 68, 68); fill-opacity: 1; white-space: pre;">deceased</text><g class="layers" style="opacity: 1;"><g class="legendfill"/><g class="legendlines"><path class="js-line" d="M5,0h30" style="fill: none; stroke: rgb(44, 160, 44); stroke-opacity: 1; stroke-width: 2px;"/></g><g class="legendsymbols"><g class="legendpoints"/></g></g><rect class="legendtoggle" pointer-events="all" x="0" y="-9.5" width="96.109375" height="19" style="cursor: pointer; fill: rgb(0, 0, 0); fill-opacity: 0;"/></g></g></g><rect class="scrollbar" rx="20" ry="3" width="0" height="0" style="fill: rgb(128, 139, 164); fill-opacity: 1;" x="0" y="0"/></g><g class="g-gtitle"><text class="gtitle" x="513.5" y="12.5" text-anchor="middle" dy="0em" style="font-family: 'Open Sans', verdana, arial, sans-serif; font-size: 17px; fill: rgb(68, 68, 68); opacity: 1; font-weight: normal; white-space: pre;">Dynamics of new cases, resolved cases and deaths in Ontario (Jun 14, 2020)</text></g><g class="g-xtitle"><text class="xtitle" x="479" y="764" text-anchor="middle" style="font-family: 'Open Sans', verdana, arial, sans-serif; font-size: 14px; fill: rgb(68, 68, 68); opacity: 1; font-weight: normal; white-space: pre;">Date</text></g><g class="g-ytitle"><text class="ytitle" transform="rotate(-90,22,368.5)" x="22" y="368.5" text-anchor="middle" style="font-family: 'Open Sans', verdana, arial, sans-serif; font-size: 14px; fill: rgb(68, 68, 68); opacity: 1; font-weight: normal; white-space: pre;">Number of cases</text></g></g></svg>