<svg class="main-svg" xmlns="http://www.w3.org/2000/svg" xmlns:xlink="http://www.w3.org/1999/xlink" width="1027" height="768" style="" viewBox="0 0 1027 768"><rect x="0" y="0" width="1027" height="768" style="fill: rgb(255, 255, 255); fill-opacity: 1;"/><defs id="defs-bde93d"><g class="clips"><clipPath id="clipbde93dxyplot" class="plotclip"><rect width="838" height="703"/></clipPath><clipPath class="axesclip" id="clipbde93dx"><rect x="60" y="0" width="838" height="768"/></clipPath><clipPath class="axesclip" id="clipbde93dy"><rect x="0" y="25" width="1027" height="703"/></clipPath><clipPath class="axesclip" id="clipbde93dxy"><rect x="60" y="25" width="838" height="703"/></clipPath></g><g class="gradients"/></defs><g class="bglayer"/><g class="layer-below"><g class="imagelayer"/><g class="shapelayer"/></g><g class="cartesianlayer"><g class="subplot xy"><g class="layer-subplot"><g class="shapelayer"/><g class="imagelayer"/></g><g class="gridlayer"><g class="x"><path class="xgrid crisp" transform="translate(93.74000000000001,0)" d="M0,25v703" style="stroke: rgb(238, 238, 238); stroke-opacity: 1; stroke-width: 1px;"/><path class="xgrid crisp" transform="translate(180.92000000000002,0)" d="M0,25v703" style="stroke: rgb(238, 238, 238); stroke-opacity: 1; stroke-width: 1px;"/><path class="xgrid crisp" transform="translate(265.28,0)" d="M0,25v703" style="stroke: rgb(238, 238, 238); stroke-opacity: 1; stroke-width: 1px;"/><path class="xgrid crisp" transform="translate(352.46,0)" d="M0,25v703" style="stroke: rgb(238, 238, 238); stroke-opacity: 1; stroke-width: 1px;"/><path class="xgrid crisp" transform="translate(436.82,0)" d="M0,25v703" style="stroke: rgb(238, 238, 238); stroke-opacity: 1; stroke-width: 1px;"/><path class="xgrid crisp" transform="translate(523.99,0)" d="M0,25v703" style="stroke: rgb(238, 238, 238); stroke-opacity: 1; stroke-width: 1px;"/><path class="xgrid crisp" transform="translate(611.17,0)" d="M0,25v703" style="stroke: rgb(238, 238, 238); stroke-opacity: 1; stroke-width: 1px;"/><path class="xgrid crisp" transform="translate(695.53,0)" d="M0,25v703" style="stroke: rgb(238, 238, 238); stroke-opacity: 1; stroke-width: 1px;"/><path class="xgrid crisp" transform="translate(782.7,0)" d="M0,25v703" style="stroke: rgb(238, 238, 238); stroke-opacity: 1; stroke-width: 1px;"/><path class="xgrid crisp" transform="translate(867.07,0)" d="M0,25v703" style="stroke: rgb(238, 238, 238); stroke-opacity: 1; stroke-width: 1px;"/></g><g class="y"><path class="ygrid crisp" transform="translate(0,533.0799999999999)" d="M60,0h838" style="stroke: rgb(238, 238, 238); stroke-opacity: 1; stroke-width: 1px;"/><path class="ygrid crisp" transform="translate(0,373.63)" d="M60,0h838" style="stroke: rgb(238, 238, 238); stroke-opacity: 1; stroke-width: 1px;"/><path class="ygrid crisp" transform="translate(0,214.18)" d="M60,0h838" style="stroke: rgb(238, 238, 238); stroke-opacity: 1; stroke-width: 1px;"/><path class="ygrid crisp" transform="translate(0,54.730000000000004)" d="M60,0h838" style="stroke: rgb(238, 238, 238); stroke-opacity: 1; stroke-width: 1px;"/></g></g><g class="zerolinelayer"><path class="yzl zl crisp" transform="translate(0,692.53)" d="M60,0h838" style="stroke: rgb(68, 68, 68); stroke-opacity: 1; stroke-width: 1px;"/></g><path class="xlines-below"/><path class="ylines-below"/><g class="overlines-below"/><g class="xaxislayer-below"/><g class="yaxislayer-below"/><g class="overaxes-below"/><g class="plot" transform="translate(60, 25)" clip-path="url('#clipbde93dxyplot')"><g class="scatterlayer mlayer"><g class="trace scatter trace809229" style="stroke-miterlimit: 2; opacity: 1;"><g class="fills"/><g class="errorbars"/><g class="lines"><path class="js-line" d="M0,667.53L28.12,667.21L36.56,663.7L39.37,666.89L42.18,667.53L47.81,666.26L50.62,666.89L56.24,665.3L59.05,667.53L61.87,665.62L64.68,662.11L70.3,659.88L73.11,654.14L75.93,657.33L78.74,664.02L84.36,653.82L87.17,648.4L89.99,649.35L92.8,653.5L95.61,642.98L98.42,641.06L101.23,637.24L104.05,613.96L106.86,625.44L109.67,619.7L112.48,479.7L115.3,584.62L118.11,531.68L120.92,539.65L123.73,520.2L126.54,547.94L129.36,537.42L132.17,568.99L134.98,546.67L137.79,492.14L140.6,513.5L143.42,515.1L146.23,536.46L149.04,539.65L151.85,533.27L154.66,513.5L157.48,509.99L160.29,503.62L163.1,487.67L165.91,512.86L168.72,486.4L171.54,474.28L177.16,504.89L179.97,465.35L182.79,463.43L185.6,515.73L188.41,528.17L191.22,532.32L194.03,500.11L196.85,556.87L199.66,521.16L202.47,533.27L205.28,504.57L208.09,529.13L210.91,549.54L213.72,544.12L216.53,536.14L219.34,540.29L222.15,515.42L224.97,557.19L227.78,573.77L230.59,569.31L233.4,552.41L236.21,562.61L239.03,557.51L241.84,558.79L244.65,542.84L247.46,559.1L250.28,570.59L253.09,531.36L255.9,543.16L258.71,535.82L261.52,526.9L264.34,536.14L267.15,520.84L269.96,538.7L272.77,576.01L275.58,574.41L278.4,545.39L281.21,557.83L284.02,564.53L286.83,563.57L289.64,538.7L292.46,525.3L295.27,559.74L298.08,554L300.89,557.83L303.7,522.43L306.52,535.19L309.33,590.04L312.14,594.18L314.95,587.49L317.77,602.79L320.58,609.49L323.39,582.7L326.2,604.71L329.01,609.81L331.83,608.85L334.64,606.94L337.45,612.36L340.26,610.77L343.07,601.84L345.89,611.72L348.7,616.19L351.51,598.65L354.32,615.55L357.13,607.26L359.95,632.13L362.76,616.51L365.57,610.77L368.38,585.57L371.19,617.46L374.01,620.01L376.82,618.74L379.63,614.91L382.44,628.94L388.07,618.42L390.88,631.81L393.69,629.9L396.5,613.32L399.32,630.54L402.13,626.07L404.94,626.39L407.75,630.54L410.56,632.13L413.38,635L416.19,632.13L419,632.13L421.81,614.59L424.62,615.23L427.44,624.48L430.25,602.79L433.06,614.91L435.87,634.68L438.68,605.35L441.5,623.52L444.31,623.84L447.12,629.58L449.93,632.13L452.74,643.29L455.56,639.15L458.37,624.8L463.99,630.54L466.81,639.47L469.62,638.51L472.43,640.11L475.24,637.24L478.05,639.47L480.87,645.21L483.68,642.34L486.49,630.86L489.3,657.01L492.11,637.24L494.93,642.66L500.55,633.73L503.36,641.7L506.17,635.96L508.99,627.67L514.61,643.29L517.42,625.76L520.23,633.09L523.05,630.86L525.86,634.05L528.67,635.64L531.48,639.47L534.3,629.9L537.11,628.63L539.92,620.33L542.73,631.81L545.54,631.18L548.36,631.81L551.17,625.12L553.98,625.44L556.79,620.33L559.6,613.64L562.42,617.14L565.23,606.94L568.04,608.53L570.85,620.01L573.66,613.32L576.48,599.61L579.29,593.55L582.1,602.48L584.91,567.72L587.72,587.49L590.54,567.08L593.35,574.09L596.16,539.65L598.97,537.74L601.79,551.13L607.41,515.1L610.22,560.7L613.03,537.1L615.85,537.1L618.66,528.81L621.47,510.95L624.28,444.3L627.09,490.86L629.91,468.22L632.72,495.96L635.53,434.1L638.34,459.29L641.15,487.03L643.97,471.41L646.78,492.77L649.59,481.61L652.4,413.37L655.21,368.08L660.84,460.56L663.65,410.18L666.46,429.63L669.28,437.6L672.09,417.83L674.9,440.47L677.71,410.82L680.52,457.69L683.34,443.02L686.15,405.71L688.96,415.6L691.77,399.34L694.58,404.12L697.4,355.65L700.21,335.24L703.02,396.15L705.83,403.8L708.64,401.57L711.46,369.68L714.27,381.8L717.08,343.85L719.89,355.96L722.7,365.21L725.52,332.68L728.33,352.78L731.14,349.27L733.95,347.67L736.77,306.53L739.58,244.03L742.39,271.46L745.2,224.9L748.01,212.78L750.83,165.26L753.64,222.35L756.45,163.35L759.26,269.54L762.07,193.33L764.89,269.22L767.7,215.65L770.51,281.66L776.13,161.12L778.95,178.34L781.76,160.8L784.57,345.76L787.38,229.68L790.19,196.2L793.01,75.97L795.82,86.49L798.63,122.85L801.44,110.73L804.26,123.17L807.07,118.06L809.88,85.86L812.69,99.89L818.32,53.97L821.13,53.65L823.94,133.05L826.75,64.81L829.56,35.15L832.38,78.2L835.19,70.23L838,132.73" style="vector-effect: non-scaling-stroke; fill: none; stroke: rgb(31, 119, 180); stroke-opacity: 1; stroke-width: 2px; opacity: 1;"/></g><g class="points"/><g class="text"/></g><g class="trace scatter trace2158b9" style="stroke-miterlimit: 2; opacity: 1;"><g class="fills"/><g class="errorbars"/><g class="lines"><path class="js-line" d="M0,667.53L109.67,667.53L112.48,532.64L115.3,634.68L118.11,618.1L120.92,622.25L123.73,606.3L126.54,605.03L129.36,594.18L132.17,611.72L134.98,610.77L137.79,580.79L140.6,593.86L143.42,581.75L146.23,576.96L151.85,592.27L154.66,600.24L157.48,561.02L160.29,574.41L163.1,552.09L165.91,565.8L168.72,561.02L171.54,569.95L174.35,574.73L177.16,535.19L179.97,521.16L182.79,537.74L185.6,532.95L188.41,510.95L191.22,500.11L194.03,527.53L196.85,460.88L199.66,478.42L202.47,469.81L205.28,487.35L208.09,471.41L210.91,508.08L213.72,580.15L216.53,526.26L219.34,556.87L222.15,533.27L224.97,542.2L227.78,543.48L230.59,553.05L233.4,584.62L236.21,522.75L239.03,553.05L241.84,528.17L244.65,546.67L247.46,559.1L250.28,578.88L253.09,584.62L255.9,574.41L258.71,565.8L261.52,585.25L264.34,546.67L267.15,561.97L269.96,597.05L272.77,584.62L275.58,535.51L278.4,571.54L281.21,568.67L284.02,549.54L286.83,521.79L289.64,558.15L292.46,561.97L295.27,563.25L298.08,540.93L300.89,547.94L303.7,551.45L306.52,570.27L309.33,590.99L312.14,560.06L314.95,491.82L317.77,506.49L320.58,571.22L323.39,555.6L326.2,532.64L329.01,587.17L331.83,598.01L334.64,554.96L337.45,597.37L340.26,589.08L343.07,598.01L345.89,587.49L351.51,612.04L354.32,594.5L357.13,606.3L359.95,595.46L362.76,610.77L365.57,611.72L368.38,639.15L371.19,620.33L374.01,609.49L376.82,602.48L379.63,610.45L382.44,612.04L385.26,609.17L388.07,616.51L390.88,611.09L393.69,603.11L396.5,612.68L399.32,610.77L402.13,582.38L404.94,631.81L407.75,626.39L410.56,628.63L413.38,624.48L416.19,622.57L419,635.32L421.81,625.44L424.62,631.5L427.44,633.73L430.25,638.19L433.06,601.52L435.87,619.38L438.68,623.84L441.5,622.88L444.31,629.58L447.12,635L449.93,633.73L452.74,612.04L455.56,614.91L458.37,613.96L461.18,615.55L463.99,628.63L466.81,627.35L469.62,630.54L472.43,620.97L475.24,616.83L478.05,629.9L480.87,633.41L483.68,620.33L486.49,635L489.3,643.61L492.11,624.8L494.93,635.96L497.74,641.06L500.55,635.32L503.36,642.02L506.17,641.06L508.99,638.83L511.8,639.15L514.61,643.29L517.42,633.73L520.23,638.83L523.05,633.09L525.86,642.66L528.67,643.61L531.48,630.86L534.3,642.98L537.11,641.06L539.92,634.68L542.73,642.66L545.54,644.25L548.36,638.19L551.17,623.84L553.98,629.58L556.79,630.54L559.6,633.73L562.42,632.13L565.23,629.58L568.04,629.58L570.85,624.16L573.66,622.25L576.48,627.99L579.29,629.58L582.1,627.99L584.91,625.12L587.72,630.22L590.54,618.42L593.35,610.45L596.16,611.4L598.97,611.09L601.79,606.62L604.6,610.77L607.41,605.03L610.22,585.25L613.03,576.33L615.85,577.28L618.66,559.74L621.47,575.37L624.28,561.97L627.09,564.53L629.91,521.79L632.72,503.3L635.53,531.04L638.34,528.81L641.15,497.24L646.78,493.41L649.59,442.07L652.4,445.89L655.21,436.65L658.03,444.3L660.84,442.71L666.46,468.54L669.28,417.83L672.09,419.11L674.9,440.15L677.71,450.04L680.52,449.08L683.34,473.96L686.15,467.26L688.96,438.24L691.77,431.23L694.58,433.78L697.4,468.22L700.21,432.82L703.02,451L705.83,447.17L708.64,421.02L711.46,406.03L714.27,413.69L717.08,413.05L719.89,392L722.7,404.12L725.52,400.61L728.33,366.17L731.14,365.21L733.95,364.89L736.77,395.83L739.58,387.85L742.39,405.71L745.2,418.47L748.01,384.98L750.83,375.1L753.64,342.89L756.45,347.67L759.26,328.86L762.07,351.18L764.89,305.58L767.7,190.77L770.51,228.72L773.32,216.29L776.13,232.87L781.76,194.28L784.57,322.48L787.38,196.83L790.19,232.23L793.01,204.81L795.82,185.99L798.63,207.36L801.44,246.58L804.26,229.68L807.07,129.86L809.88,176.1L812.69,172.28L815.5,149.64L818.32,165.58L821.13,217.24L823.94,173.55L826.75,53.97L829.56,92.23L832.38,108.5L835.19,55.88L838,132.41" style="vector-effect: non-scaling-stroke; fill: none; stroke: rgb(255, 127, 14); stroke-opacity: 1; stroke-width: 2px; opacity: 1;"/></g><g class="points"/><g class="text"/></g><g class="trace scatter trace6921ac" style="stroke-miterlimit: 2; opacity: 1;"><g class="fills"/><g class="errorbars"/><g class="lines"><path class="js-line" d="M0,667.53L98.42,666.89L101.23,665.94L104.05,666.89L106.86,666.57L109.67,667.21L112.48,666.26L115.3,664.34L118.11,666.26L120.92,662.43L123.73,663.07L126.54,658.92L129.36,659.56L132.17,663.39L134.98,660.83L137.79,660.83L140.6,659.24L143.42,660.52L146.23,657.65L149.04,660.83L151.85,662.11L154.66,653.82L157.48,651.27L160.29,655.41L163.1,649.99L165.91,656.05L168.72,655.09L171.54,657.65L174.35,655.41L177.16,655.73L179.97,650.31L185.6,652.22L188.41,659.88L191.22,649.35L194.03,648.72L196.85,653.18L199.66,640.11L202.47,655.09L205.28,649.99L208.09,654.78L210.91,640.74L213.72,648.08L216.53,645.85L219.34,652.22L222.15,647.44L224.97,648.72L227.78,656.37L230.59,656.37L233.4,649.67L236.21,654.78L239.03,657.01L241.84,658.92L244.65,657.01L247.46,660.2L250.28,660.2L253.09,662.75L255.9,653.82L258.71,657.65L261.52,658.6L267.15,659.56L269.96,658.28L272.77,660.83L275.58,657.33L278.4,656.69L281.21,654.46L284.02,662.11L286.83,661.47L289.64,664.34L292.46,662.11L295.27,661.47L298.08,653.18L300.89,662.75L303.7,656.37L306.52,661.47L309.33,659.88L312.14,663.07L314.95,664.02L320.58,664.02L323.39,664.66L326.2,663.7L329.01,664.98L334.64,663.7L337.45,666.57L340.26,664.02L343.07,657.65L345.89,664.02L348.7,666.57L351.51,664.34L354.32,663.7L357.13,664.34L359.95,666.57L362.76,664.98L365.57,665.62L371.19,665.3L374.01,666.26L379.63,666.89L382.44,665.94L388.07,667.53L390.88,666.89L393.69,664.66L396.5,666.57L399.32,665.3L402.13,665.62L404.94,666.57L407.75,666.57L410.56,667.21L413.38,664.66L416.19,665.94L419,664.66L421.81,666.89L424.62,666.57L430.25,667.21L433.06,666.89L435.87,667.53L438.68,666.57L441.5,667.21L444.31,666.26L447.12,667.21L449.93,666.26L452.74,667.21L455.56,666.57L463.99,667.21L466.81,667.53L469.62,666.26L472.43,667.53L483.68,666.89L486.49,667.53L506.17,667.53L508.99,666.26L511.8,667.85L514.61,667.21L517.42,666.57L520.23,667.21L525.86,667.21L528.67,666.89L534.3,667.21L537.11,665.62L539.92,667.53L542.73,667.21L559.6,667.53L562.42,666.89L568.04,667.53L570.85,667.53L573.66,667.21L576.48,667.85L582.1,667.21L584.91,667.21L587.72,666.26L590.54,666.89L593.35,666.57L596.16,667.53L610.22,666.57L613.03,667.21L624.28,667.21L627.09,666.26L632.72,666.57L635.53,643.29L641.15,665.3L643.97,665.94L646.78,665.3L649.59,667.21L655.21,665.94L658.03,665.3L660.84,667.21L663.65,666.57L666.46,664.66L669.28,667.53L674.9,664.66L677.71,664.34L680.52,665.94L683.34,666.26L686.15,666.57L688.96,664.66L694.58,664.66L697.4,665.62L703.02,665.62L705.83,666.26L708.64,665.94L711.46,664.34L722.7,665.3L725.52,663.07L728.33,662.43L731.14,663.39L733.95,663.07L736.77,664.02L739.58,663.39L742.39,663.7L745.2,662.75L748.01,662.75L753.64,661.47L756.45,661.15L759.26,658.28L762.07,664.34L764.89,663.7L767.7,657.33L770.51,658.6L773.32,664.98L776.13,660.83L778.95,663.07L781.76,661.47L784.57,663.07L787.38,656.37L790.19,660.83L793.01,661.15L795.82,658.28L798.63,659.88L801.44,664.98L804.26,665.3L807.07,656.37L809.88,663.07L812.69,659.56L818.32,662.75L821.13,659.24L823.94,664.34L826.75,658.6L832.38,653.18L835.19,662.11L838,662.43" style="vector-effect: non-scaling-stroke; fill: none; stroke: rgb(44, 160, 44); stroke-opacity: 1; stroke-width: 2px; opacity: 1;"/></g><g class="points"/><g class="text"/></g></g></g><g class="overplot"/><path class="xlines-above crisp" style="fill: none;" d="M0,0"/><path class="ylines-above crisp" style="fill: none;" d="M0,0"/><g class="overlines-above"/><g class="xaxislayer-above"><g class="xtick"><text text-anchor="middle" x="0" y="741" transform="translate(93.74000000000001,0)" style="font-family: 'Open Sans', verdana, arial, sans-serif; font-size: 12px; fill: rgb(68, 68, 68); fill-opacity: 1; white-space: pre;">Mar 2020</text></g><g class="xtick"><text text-anchor="middle" x="0" y="741" transform="translate(180.92000000000002,0)" style="font-family: 'Open Sans', verdana, arial, sans-serif; font-size: 12px; fill: rgb(68, 68, 68); fill-opacity: 1; white-space: pre;">Apr 2020</text></g><g class="xtick"><text text-anchor="middle" x="0" y="741" transform="translate(265.28,0)" style="font-family: 'Open Sans', verdana, arial, sans-serif; font-size: 12px; fill: rgb(68, 68, 68); fill-opacity: 1; white-space: pre;">May 2020</text></g><g class="xtick"><text text-anchor="middle" x="0" y="741" transform="translate(352.46,0)" style="font-family: 'Open Sans', verdana, arial, sans-serif; font-size: 12px; fill: rgb(68, 68, 68); fill-opacity: 1; white-space: pre;">Jun 2020</text></g><g class="xtick"><text text-anchor="middle" x="0" y="741" transform="translate(436.82,0)" style="font-family: 'Open Sans', verdana, arial, sans-serif; font-size: 12px; fill: rgb(68, 68, 68); fill-opacity: 1; white-space: pre;">Jul 2020</text></g><g class="xtick"><text text-anchor="middle" x="0" y="741" transform="translate(523.99,0)" style="font-family: 'Open Sans', verdana, arial, sans-serif; font-size: 12px; fill: rgb(68, 68, 68); fill-opacity: 1; white-space: pre;">Aug 2020</text></g><g class="xtick"><text text-anchor="middle" x="0" y="741" transform="translate(611.17,0)" style="font-family: 'Open Sans', verdana, arial, sans-serif; font-size: 12px; fill: rgb(68, 68, 68); fill-opacity: 1; white-space: pre;">Sep 2020</text></g><g class="xtick"><text text-anchor="middle" x="0" y="741" transform="translate(695.53,0)" style="font-family: 'Open Sans', verdana, arial, sans-serif; font-size: 12px; fill: rgb(68, 68, 68); fill-opacity: 1; white-space: pre;">Oct 2020</text></g><g class="xtick"><text text-anchor="middle" x="0" y="741" transform="translate(782.7,0)" style="font-family: 'Open Sans', verdana, arial, sans-serif; font-size: 12px; fill: rgb(68, 68, 68); fill-opacity: 1; white-space: pre;">Nov 2020</text></g><g class="xtick"><text text-anchor="middle" x="0" y="741" transform="translate(867.07,0)" style="font-family: 'Open Sans', verdana, arial, sans-serif; font-size: 12px; fill: rgb(68, 68, 68); fill-opacity: 1; white-space: pre;">Dec 2020</text></g></g><g class="yaxislayer-above"><g class="ytick"><text text-anchor="end" x="59" y="4.199999999999999" transform="translate(0,692.53)" style="font-family: 'Open Sans', verdana, arial, sans-serif; font-size: 12px; fill: rgb(68, 68, 68); fill-opacity: 1; white-space: pre;">0</text></g><g class="ytick"><text text-anchor="end" x="59" y="4.199999999999999" transform="translate(0,533.0799999999999)" style="font-family: 'Open Sans', verdana, arial, sans-serif; font-size: 12px; fill: rgb(68, 68, 68); fill-opacity: 1; white-space: pre;">500</text></g><g class="ytick"><text text-anchor="end" x="59" y="4.199999999999999" transform="translate(0,373.63)" style="font-family: 'Open Sans', verdana, arial, sans-serif; font-size: 12px; fill: rgb(68, 68, 68); fill-opacity: 1; white-space: pre;">1000</text></g><g class="ytick"><text text-anchor="end" x="59" y="4.199999999999999" transform="translate(0,214.18)" style="font-family: 'Open Sans', verdana, arial, sans-serif; font-size: 12px; fill: rgb(68, 68, 68); fill-opacity: 1; white-space: pre;">1500</text></g><g class="ytick"><text text-anchor="end" x="59" y="4.199999999999999" transform="translate(0,54.730000000000004)" style="font-family: 'Open Sans', verdana, arial, sans-serif; font-size: 12px; fill: rgb(68, 68, 68); fill-opacity: 1; white-space: pre;">2000</text></g></g><g class="overaxes-above"/></g></g><g class="polarlayer"/><g class="ternarylayer"/><g class="geolayer"/><g class="funnelarealayer"/><g class="pielayer"/><g class="treemaplayer"/><g class="sunburstlayer"/><g class="glimages"/><defs id="topdefs-bde93d"><g class="clips"/><clipPath id="legendbde93d"><rect width="102" height="67" x="0" y="0"/></clipPath></defs><g class="layer-above"><g class="imagelayer"/><g class="shapelayer"/></g><g class="infolayer"><g class="legend" pointer-events="all" transform="translate(914.76, 25)"><rect class="bg" shape-rendering="crispEdges" style="stroke: rgb(68, 68, 68); stroke-opacity: 1; fill: rgb(255, 255, 255); fill-opacity: 1; stroke-width: 0px;" width="102" height="67" x="0" y="0"/><g class="scrollbox" transform="translate(0, 0)" clip-path="url('#legendbde93d')"><g class="groups"><g class="traces" style="opacity: 1;" transform="translate(0, 14.5)"><text class="legendtext user-select-none" text-anchor="start" x="40" y="4.680000000000001" style="font-family: 'Open Sans', verdana, arial, sans-serif; font-size: 12px; fill: rgb(68, 68, 68); fill-opacity: 1; white-space: pre;">positive</text><g class="layers" style="opacity: 1;"><g class="legendfill"/><g class="legendlines"><path class="js-line" d="M5,0h30" style="fill: none; stroke: rgb(31, 119, 180); stroke-opacity: 1; stroke-width: 2px;"/></g><g class="legendsymbols"><g class="legendpoints"/></g></g><rect class="legendtoggle" pointer-events="all" x="0" y="-9.5" width="96.109375" height="19" style="cursor: pointer; fill: rgb(0, 0, 0); fill-opacity: 0;"/></g><g class="traces" style="opacity: 1;" transform="translate(0, 33.5)"><text class="legendtext user-select-none" text-anchor="start" x="40" y="4.680000000000001" style="font-family: 'Open Sans', verdana, arial, sans-serif; font-size: 12px; fill: rgb(68, 68, 68); fill-opacity: 1; white-space: pre;">resolved</text><g class="layers" style="opacity: 1;"><g class="legendfill"/><g class="legendlines"><path class="js-line" d="M5,0h30" style="fill: none; stroke: rgb(255, 127, 14); stroke-opacity: 1; stroke-width: 2px;"/></g><g class="legendsymbols"><g class="legendpoints"/></g></g><rect class="legendtoggle" pointer-events="all" x="0" y="-9.5" width="96.109375" height="19" style="cursor: pointer; fill: rgb(0, 0, 0); fill-opacity: 0;"/></g><g class="traces" style="opacity: 1;" transform="translate(0, 52.5)"><text class="legendtext user-select-none" text-anchor="start" x="40" y="4.680000000000001" style="font-family: 'Open Sans', verdana, arial, sans-serif; font-size: 12px; fill: rgb(68, 68, 68); fill-opacity: 1; white-space: pre;">deceased</text><g class="layers" style="opacity: 1;"><g class="legendfill"/><g class="legendlines"><path class="js-line" d="M5,0h30" style="fill: none; stroke: rgb(44, 160, 44); stroke-opacity: 1; stroke-width: 2px;"/></g><g class="legendsymbols"><g class="legendpoints"/></g></g><rect class="legendtoggle" pointer-events="all" x="0" y="-9.5" width="96.109375" height="19" style="cursor: pointer; fill: rgb(0, 0, 0); fill-opacity: 0;"/></g></g></g><rect class="scrollbar" rx="20" ry="3" width="0" height="0" style="fill: rgb(128, 139, 164); fill-opacity: 1;" x="0" y="0"/></g><g class="g-gtitle"><text class="gtitle" x="513.5" y="12.5" text-anchor="middle" dy="0em" style="font-family: 'Open Sans', verdana, arial, sans-serif; font-size: 17px; fill: rgb(68, 68, 68); opacity: 1; font-weight: normal; white-space: pre;">Dynamics of new cases, resolved cases and deaths in Ontario (Dec 13, 2020)</text></g><g class="g-xtitle" transform="translate(0,-15)"><text class="xtitle" x="479" y="780" text-anchor="middle" style="font-family: 'Open Sans', verdana, arial, sans-serif; font-size: 14px; fill: rgb(68, 68, 68); opacity: 1; font-weight: normal; white-space: pre;">Date</text></g><g class="g-ytitle"><text class="ytitle" transform="rotate(-90,22,376.5)" x="22" y="376.5" text-anchor="middle" style="font-family: 'Open Sans', verdana, arial, sans-serif; font-size: 14px; fill: rgb(68, 68, 68); opacity: 1; font-weight: normal; white-space: pre;">Number of cases</text></g></g></svg>