<svg class="main-svg" xmlns="http://www.w3.org/2000/svg" xmlns:xlink="http://www.w3.org/1999/xlink" width="1027" height="768" style="" viewBox="0 0 1027 768"><rect x="0" y="0" width="1027" height="768" style="fill: rgb(255, 255, 255); fill-opacity: 1;"/><defs id="defs-1c0b82"><g class="clips"><clipPath id="clip1c0b82xyplot" class="plotclip"><rect width="838" height="703"/></clipPath><clipPath class="axesclip" id="clip1c0b82x"><rect x="60" y="0" width="838" height="768"/></clipPath><clipPath class="axesclip" id="clip1c0b82y"><rect x="0" y="25" width="1027" height="703"/></clipPath><clipPath class="axesclip" id="clip1c0b82xy"><rect x="60" y="25" width="838" height="703"/></clipPath></g><g class="gradients"/></defs><g class="bglayer"/><g class="layer-below"><g class="imagelayer"/><g class="shapelayer"/></g><g class="cartesianlayer"><g class="subplot xy"><g class="layer-subplot"><g class="shapelayer"/><g class="imagelayer"/></g><g class="gridlayer"><g class="x"><path class="xgrid crisp" transform="translate(105.09,0)" d="M0,25v703" style="stroke: rgb(238, 238, 238); stroke-opacity: 1; stroke-width: 1px;"/><path class="xgrid crisp" transform="translate(221.59,0)" d="M0,25v703" style="stroke: rgb(238, 238, 238); stroke-opacity: 1; stroke-width: 1px;"/><path class="xgrid crisp" transform="translate(334.32,0)" d="M0,25v703" style="stroke: rgb(238, 238, 238); stroke-opacity: 1; stroke-width: 1px;"/><path class="xgrid crisp" transform="translate(450.82,0)" d="M0,25v703" style="stroke: rgb(238, 238, 238); stroke-opacity: 1; stroke-width: 1px;"/><path class="xgrid crisp" transform="translate(563.55,0)" d="M0,25v703" style="stroke: rgb(238, 238, 238); stroke-opacity: 1; stroke-width: 1px;"/><path class="xgrid crisp" transform="translate(680.04,0)" d="M0,25v703" style="stroke: rgb(238, 238, 238); stroke-opacity: 1; stroke-width: 1px;"/><path class="xgrid crisp" transform="translate(796.54,0)" d="M0,25v703" style="stroke: rgb(238, 238, 238); stroke-opacity: 1; stroke-width: 1px;"/></g><g class="y"><path class="ygrid crisp" transform="translate(0,601.69)" d="M60,0h838" style="stroke: rgb(238, 238, 238); stroke-opacity: 1; stroke-width: 1px;"/><path class="ygrid crisp" transform="translate(0,511.43)" d="M60,0h838" style="stroke: rgb(238, 238, 238); stroke-opacity: 1; stroke-width: 1px;"/><path class="ygrid crisp" transform="translate(0,421.18)" d="M60,0h838" style="stroke: rgb(238, 238, 238); stroke-opacity: 1; stroke-width: 1px;"/><path class="ygrid crisp" transform="translate(0,330.92)" d="M60,0h838" style="stroke: rgb(238, 238, 238); stroke-opacity: 1; stroke-width: 1px;"/><path class="ygrid crisp" transform="translate(0,240.66)" d="M60,0h838" style="stroke: rgb(238, 238, 238); stroke-opacity: 1; stroke-width: 1px;"/><path class="ygrid crisp" transform="translate(0,150.41)" d="M60,0h838" style="stroke: rgb(238, 238, 238); stroke-opacity: 1; stroke-width: 1px;"/><path class="ygrid crisp" transform="translate(0,60.15)" d="M60,0h838" style="stroke: rgb(238, 238, 238); stroke-opacity: 1; stroke-width: 1px;"/></g></g><g class="zerolinelayer"><path class="yzl zl crisp" transform="translate(0,691.95)" d="M60,0h838" style="stroke: rgb(68, 68, 68); stroke-opacity: 1; stroke-width: 1px;"/></g><path class="xlines-below"/><path class="ylines-below"/><g class="overlines-below"/><g class="xaxislayer-below"/><g class="yaxislayer-below"/><g class="overaxes-below"/><g class="plot" transform="translate(60, 25)" clip-path="url('#clip1c0b82xyplot')"><g class="scatterlayer mlayer"><g class="trace scatter trace2367c1" style="stroke-miterlimit: 2; opacity: 1;"><g class="fills"/><g class="errorbars"/><g class="lines"><path class="js-line" d="M0,666.95L3.76,666.95L7.52,667.85L11.27,667.85L22.55,666.04L30.06,666.95L33.82,666.04L37.58,666.04L48.85,656.12L52.61,665.14L56.37,666.95L60.13,666.04L63.88,663.34L67.64,665.14L75.16,660.63L78.91,666.95L82.67,661.53L86.43,651.6L90.19,648.9L93.95,645.29L97.7,629.04L101.46,638.07L105.22,657.02L108.98,644.38L112.74,628.14L116.49,612.79L120.25,615.5L124.01,627.23L127.77,597.45L131.52,592.03L135.28,581.2L139.04,515.32L142.8,547.81L146.56,531.56L150.31,135.34L154.07,432.28L157.83,282.45L161.59,305.02L165.35,249.96L169.1,328.48L172.86,298.7L176.62,388.05L180.38,324.87L184.13,170.54L187.89,231.01L191.65,235.52L195.41,295.99L199.17,305.02L202.92,286.97L206.68,231.01L210.44,221.08L214.2,203.03L217.96,157.9L221.71,229.2L225.47,154.29L229.23,119.99L232.99,169.63L236.74,206.64L240.5,94.72L244.26,89.3L248.02,237.33L251.78,272.53L255.53,284.26L259.29,193.1L263.05,353.76L266.81,252.67L270.57,286.97L274.32,205.74L278.08,275.23L281.84,333L285.6,317.65L289.35,295.09L293.11,306.82L296.87,236.42L300.63,354.66L304.39,401.59L308.14,388.96L311.9,341.12L315.66,370L319.42,355.56L323.17,359.17L326.93,314.04L330.69,360.07L334.45,392.57L338.21,281.55L341.96,314.95L345.72,294.19L349.48,268.92L353.24,295.09L357,251.77L360.75,302.31L364.51,407.91L368.27,403.4L372.03,321.26L375.78,356.46L379.54,375.42L383.3,372.71L387.06,302.31L390.82,264.4L394.57,361.88L398.33,345.63L402.09,356.46L405.85,256.28L409.61,292.38L413.36,447.62L417.12,459.36L420.88,440.4L424.64,483.73L428.39,502.68L432.15,426.86L435.91,489.14L439.67,503.58L443.43,500.87L447.18,495.46L450.94,510.8L454.7,506.29L458.46,481.02L462.22,509L465.97,521.63L469.73,471.99L473.49,519.83L477.25,496.36L481,566.76L484.76,522.54L488.52,506.29L492.28,434.99L496.04,525.24L499.79,532.46L503.55,528.85L507.31,518.02L511.07,557.74L518.58,527.95L522.34,565.86L526.1,560.44L529.86,513.51L533.61,562.25L537.37,549.61L541.13,550.52L544.89,562.25L548.65,566.76L552.4,574.89L556.16,566.76L559.92,566.76L563.68,517.12L567.43,518.93L571.19,545.1L574.95,483.73L578.71,518.02L582.47,573.98L586.22,490.95L589.98,542.39L593.74,543.3L597.5,559.54L601.26,566.76L605.01,598.35L608.77,586.62L612.53,546L620.04,562.25L623.8,587.52L627.56,584.81L631.32,589.33L635.08,581.2L638.83,587.52L642.59,603.77L646.35,595.64L650.11,563.15L653.87,637.16L657.62,581.2L661.38,596.55L668.9,571.28L672.65,593.84L676.41,577.59L680.17,554.13L687.69,598.35L691.44,548.71L695.2,569.47L698.96,563.15L702.72,572.18L706.48,576.69L710.23,587.52L713.99,560.44L717.75,556.83L721.51,533.37L725.26,565.86L729.02,564.05L732.78,565.86L736.54,546.91L740.3,547.81L744.05,533.37L747.81,514.41L751.57,524.34L755.33,495.46L759.09,499.97L762.84,532.46L766.6,513.51L770.36,474.7L774.12,457.55L777.87,482.82L781.63,384.44L785.39,440.4L789.15,382.64L792.91,402.5L796.66,305.02L800.42,299.6L804.18,337.51L811.7,235.52L815.45,364.59L819.21,297.8L822.97,297.8L826.73,274.33L830.48,223.79L834.24,35.15L838,166.92" style="vector-effect: non-scaling-stroke; fill: none; stroke: rgb(31, 119, 180); stroke-opacity: 1; stroke-width: 2px; opacity: 1;"/></g><g class="points"/><g class="text"/></g><g class="trace scatter trace4f0be0" style="stroke-miterlimit: 2; opacity: 1;"><g class="fills"/><g class="errorbars"/><g class="lines"><path class="js-line" d="M0,666.95L3.76,666.95L7.52,666.04L11.27,666.04L22.55,666.95L56.37,666.95L60.13,666.04L63.88,666.95L67.64,666.95L75.16,666.95L78.91,666.04L82.67,666.95L86.43,666.95L116.49,666.95L120.25,666.04L124.01,665.14L127.77,666.95L146.56,666.95L150.31,285.16L154.07,573.98L157.83,527.05L161.59,538.78L165.35,493.65L169.1,490.04L172.86,459.36L176.62,509L180.38,506.29L184.13,421.45L187.89,458.45L191.65,424.16L195.41,410.62L199.17,429.57L202.92,453.94L206.68,476.51L210.44,365.49L214.2,403.4L217.96,340.22L221.71,379.03L225.47,365.49L229.23,390.76L232.99,404.3L236.74,292.38L240.5,252.67L244.26,299.6L248.02,286.06L251.78,223.79L255.53,193.1L259.29,270.72L263.05,82.08L266.81,131.72L270.57,107.36L274.32,157L278.08,111.87L281.84,215.66L285.6,419.64L289.35,267.11L293.11,353.76L296.87,286.97L300.63,312.24L304.39,315.85L308.14,342.93L311.9,432.28L315.66,257.18L319.42,342.93L323.17,272.53L326.93,324.87L330.69,360.07L334.45,416.03L338.21,432.28L345.72,379.03L349.48,434.08L353.24,324.87L357,368.2L360.75,467.48L364.51,432.28L368.27,293.28L372.03,395.27L375.78,387.15L379.54,333L383.3,254.47L387.06,357.37L390.82,368.2L394.57,371.81L398.33,308.63L402.09,328.48L405.85,338.41L409.61,391.66L413.36,450.33L417.12,362.78L420.88,169.63L424.64,211.15L428.39,394.37L432.15,350.15L435.91,285.16L439.67,439.5L443.43,470.19L447.18,348.34L450.94,468.38L454.7,444.92L458.46,470.19L462.22,440.4L469.73,509.9L473.49,460.26L477.25,493.65L481,462.97L484.76,506.29L488.52,509L492.28,586.62L496.04,533.37L499.79,502.68L503.55,482.82L507.31,505.39L511.07,509.9L514.83,501.78L518.58,522.54L522.34,507.19L526.1,484.63L529.86,511.71L533.61,506.29L537.37,425.96L541.13,565.86L544.89,550.52L548.65,556.83L552.4,545.1L556.16,539.69L559.92,575.79L563.68,547.81L567.43,564.96L571.19,571.28L574.95,583.91L578.71,480.12L582.47,530.66L586.22,543.3L589.98,540.59L593.74,559.54L597.5,574.89L601.26,571.28L605.01,509.9L608.77,518.02L612.53,515.32L616.29,519.83L620.04,556.83L623.8,553.22L627.56,562.25L631.32,535.17L635.08,523.44L638.83,560.44L642.59,570.37L646.35,533.37L650.11,574.89L653.87,599.25L657.62,546L661.38,577.59L665.14,592.03L668.9,575.79L672.65,594.74L676.41,592.03L680.17,585.72L683.93,586.62L687.69,598.35L691.44,571.28L695.2,585.72L698.96,569.47L702.72,596.55L706.48,599.25L710.23,563.15L713.99,597.45L717.75,592.03L721.51,573.98L725.26,596.55L729.02,601.06L732.78,583.91L736.54,543.3L740.3,559.54L744.05,562.25L747.81,571.28L751.57,566.76L755.33,559.54L759.09,559.54L762.84,544.2L766.6,538.78L770.36,555.03L774.12,559.54L777.87,555.03L781.63,546.91L785.39,561.35L789.15,527.95L792.91,505.39L796.66,508.1L800.42,507.19L804.18,494.56L807.94,506.29L811.7,490.04L815.45,434.08L819.21,408.81L822.97,411.52L826.73,361.88L830.48,406.11L834.24,368.2L838,375.42" style="vector-effect: non-scaling-stroke; fill: none; stroke: rgb(255, 127, 14); stroke-opacity: 1; stroke-width: 2px; opacity: 1;"/></g><g class="points"/><g class="text"/></g><g class="trace scatter trace8839bc" style="stroke-miterlimit: 2; opacity: 1;"><g class="fills"/><g class="errorbars"/><g class="lines"><path class="js-line" d="M0,666.95L101.46,666.95L105.22,666.04L108.98,666.95L112.74,666.04L116.49,666.95L120.25,666.04L124.01,665.14L127.77,666.04L131.52,665.14L135.28,662.43L139.04,665.14L142.8,664.24L146.56,666.04L150.31,663.34L154.07,657.92L157.83,663.34L161.59,652.51L165.35,654.31L169.1,642.58L172.86,644.38L176.62,655.21L180.38,647.99L184.13,647.99L187.89,643.48L191.65,647.09L195.41,638.97L199.17,647.99L202.92,651.6L206.68,628.14L210.44,620.92L214.2,632.65L217.96,617.31L221.71,634.45L225.47,631.75L229.23,638.97L232.99,632.65L236.74,633.55L240.5,618.21L244.26,621.82L248.02,623.62L251.78,645.29L255.53,615.5L259.29,613.7L263.05,626.33L266.81,589.33L270.57,631.75L274.32,617.31L278.08,630.84L281.84,591.13L285.6,611.89L289.35,605.57L293.11,623.62L296.87,610.09L300.63,613.7L304.39,635.36L308.14,635.36L311.9,616.4L315.66,630.84L323.17,642.58L326.93,637.16L330.69,646.19L334.45,646.19L338.21,653.41L341.96,628.14L345.72,638.97L349.48,641.68L353.24,642.58L357,644.38L360.75,640.77L364.51,647.99L368.27,638.07L372.03,636.26L375.78,629.94L379.54,651.6L383.3,649.8L387.06,657.92L390.82,651.6L394.57,649.8L398.33,626.33L402.09,653.41L405.85,635.36L409.61,649.8L413.36,645.29L417.12,654.31L420.88,657.02L424.64,656.12L428.39,657.02L432.15,658.82L435.91,656.12L439.67,659.73L443.43,657.02L447.18,656.12L450.94,664.24L454.7,657.02L458.46,638.97L462.22,657.02L465.97,664.24L469.73,657.92L473.49,656.12L477.25,657.92L481,664.24L484.76,659.73L488.52,661.53L492.28,660.63L496.04,660.63L499.79,663.34L503.55,663.34L507.31,665.14L511.07,662.43L514.83,665.14L518.58,666.95L522.34,665.14L526.1,658.82L529.86,664.24L533.61,660.63L537.37,661.53L541.13,664.24L544.89,664.24L548.65,666.04L552.4,658.82L556.16,662.43L559.92,658.82L563.68,665.14L567.43,664.24L571.19,666.04L574.95,666.04L578.71,665.14L582.47,666.95L586.22,664.24L589.98,666.04L593.74,663.34L597.5,666.04L601.26,663.34L605.01,666.04L608.77,664.24L612.53,664.24L623.8,666.95L627.56,663.34L631.32,666.95L635.08,666.04L638.83,666.95L642.59,666.04L646.35,665.14L650.11,666.95L653.87,666.95L657.62,666.04L661.38,666.95L665.14,666.04L668.9,666.04L672.65,666.95L676.41,666.95L680.17,663.34L683.93,667.85L687.69,666.04L691.44,664.24L695.2,666.04L698.96,666.95L702.72,666.04L706.48,665.14L710.23,665.14L713.99,666.04L717.75,661.53L721.51,666.95L725.26,666.04L732.78,666.04L736.54,666.95L740.3,666.95L744.05,667.85L747.81,666.95L751.57,665.14L755.33,666.95L759.09,666.95L762.84,666.95L766.6,666.04L770.36,667.85L774.12,666.04L781.63,666.04L785.39,663.34L789.15,665.14L792.91,664.24L796.66,666.95L800.42,666.04L804.18,666.04L807.94,665.14L811.7,664.24L815.45,664.24L819.21,666.04L822.97,666.04L826.73,666.95L830.48,665.14L834.24,666.04L838,663.34" style="vector-effect: non-scaling-stroke; fill: none; stroke: rgb(44, 160, 44); stroke-opacity: 1; stroke-width: 2px; opacity: 1;"/></g><g class="points"/><g class="text"/></g></g></g><g class="overplot"/><path class="xlines-above crisp" style="fill: none;" d="M0,0"/><path class="ylines-above crisp" style="fill: none;" d="M0,0"/><g class="overlines-above"/><g class="xaxislayer-above"><g class="xtick"><text text-anchor="middle" x="0" y="741" transform="translate(105.09,0)" style="font-family: 'Open Sans', verdana, arial, sans-serif; font-size: 12px; fill: rgb(68, 68, 68); fill-opacity: 1; white-space: pre;">Mar 2020</text></g><g class="xtick"><text text-anchor="middle" x="0" y="741" transform="translate(221.59,0)" style="font-family: 'Open Sans', verdana, arial, sans-serif; font-size: 12px; fill: rgb(68, 68, 68); fill-opacity: 1; white-space: pre;">Apr 2020</text></g><g class="xtick"><text text-anchor="middle" x="0" y="741" transform="translate(334.32,0)" style="font-family: 'Open Sans', verdana, arial, sans-serif; font-size: 12px; fill: rgb(68, 68, 68); fill-opacity: 1; white-space: pre;">May 2020</text></g><g class="xtick"><text text-anchor="middle" x="0" y="741" transform="translate(450.82,0)" style="font-family: 'Open Sans', verdana, arial, sans-serif; font-size: 12px; fill: rgb(68, 68, 68); fill-opacity: 1; white-space: pre;">Jun 2020</text></g><g class="xtick"><text text-anchor="middle" x="0" y="741" transform="translate(563.55,0)" style="font-family: 'Open Sans', verdana, arial, sans-serif; font-size: 12px; fill: rgb(68, 68, 68); fill-opacity: 1; white-space: pre;">Jul 2020</text></g><g class="xtick"><text text-anchor="middle" x="0" y="741" transform="translate(680.04,0)" style="font-family: 'Open Sans', verdana, arial, sans-serif; font-size: 12px; fill: rgb(68, 68, 68); fill-opacity: 1; white-space: pre;">Aug 2020</text></g><g class="xtick"><text text-anchor="middle" x="0" y="741" transform="translate(796.54,0)" style="font-family: 'Open Sans', verdana, arial, sans-serif; font-size: 12px; fill: rgb(68, 68, 68); fill-opacity: 1; white-space: pre;">Sep 2020</text></g></g><g class="yaxislayer-above"><g class="ytick"><text text-anchor="end" x="59" y="4.199999999999999" transform="translate(0,691.95)" style="font-family: 'Open Sans', verdana, arial, sans-serif; font-size: 12px; fill: rgb(68, 68, 68); fill-opacity: 1; white-space: pre;">0</text></g><g class="ytick"><text text-anchor="end" x="59" y="4.199999999999999" transform="translate(0,601.69)" style="font-family: 'Open Sans', verdana, arial, sans-serif; font-size: 12px; fill: rgb(68, 68, 68); fill-opacity: 1; white-space: pre;">100</text></g><g class="ytick"><text text-anchor="end" x="59" y="4.199999999999999" transform="translate(0,511.43)" style="font-family: 'Open Sans', verdana, arial, sans-serif; font-size: 12px; fill: rgb(68, 68, 68); fill-opacity: 1; white-space: pre;">200</text></g><g class="ytick"><text text-anchor="end" x="59" y="4.199999999999999" transform="translate(0,421.18)" style="font-family: 'Open Sans', verdana, arial, sans-serif; font-size: 12px; fill: rgb(68, 68, 68); fill-opacity: 1; white-space: pre;">300</text></g><g class="ytick"><text text-anchor="end" x="59" y="4.199999999999999" transform="translate(0,330.92)" style="font-family: 'Open Sans', verdana, arial, sans-serif; font-size: 12px; fill: rgb(68, 68, 68); fill-opacity: 1; white-space: pre;">400</text></g><g class="ytick"><text text-anchor="end" x="59" y="4.199999999999999" transform="translate(0,240.66)" style="font-family: 'Open Sans', verdana, arial, sans-serif; font-size: 12px; fill: rgb(68, 68, 68); fill-opacity: 1; white-space: pre;">500</text></g><g class="ytick"><text text-anchor="end" x="59" y="4.199999999999999" transform="translate(0,150.41)" style="font-family: 'Open Sans', verdana, arial, sans-serif; font-size: 12px; fill: rgb(68, 68, 68); fill-opacity: 1; white-space: pre;">600</text></g><g class="ytick"><text text-anchor="end" x="59" y="4.199999999999999" transform="translate(0,60.15)" style="font-family: 'Open Sans', verdana, arial, sans-serif; font-size: 12px; fill: rgb(68, 68, 68); fill-opacity: 1; white-space: pre;">700</text></g></g><g class="overaxes-above"/></g></g><g class="polarlayer"/><g class="ternarylayer"/><g class="geolayer"/><g class="funnelarealayer"/><g class="pielayer"/><g class="treemaplayer"/><g class="sunburstlayer"/><g class="glimages"/><defs id="topdefs-1c0b82"><g class="clips"/><clipPath id="legend1c0b82"><rect width="102" height="67" x="0" y="0"/></clipPath></defs><g class="layer-above"><g class="imagelayer"/><g class="shapelayer"/></g><g class="infolayer"><g class="legend" pointer-events="all" transform="translate(914.76, 25)"><rect class="bg" shape-rendering="crispEdges" style="stroke: rgb(68, 68, 68); stroke-opacity: 1; fill: rgb(255, 255, 255); fill-opacity: 1; stroke-width: 0px;" width="102" height="67" x="0" y="0"/><g class="scrollbox" transform="translate(0, 0)" clip-path="url('#legend1c0b82')"><g class="groups"><g class="traces" style="opacity: 1;" transform="translate(0, 14.5)"><text class="legendtext user-select-none" text-anchor="start" x="40" y="4.680000000000001" style="font-family: 'Open Sans', verdana, arial, sans-serif; font-size: 12px; fill: rgb(68, 68, 68); fill-opacity: 1; white-space: pre;">positive</text><g class="layers" style="opacity: 1;"><g class="legendfill"/><g class="legendlines"><path class="js-line" d="M5,0h30" style="fill: none; stroke: rgb(31, 119, 180); stroke-opacity: 1; stroke-width: 2px;"/></g><g class="legendsymbols"><g class="legendpoints"/></g></g><rect class="legendtoggle" pointer-events="all" x="0" y="-9.5" width="96.109375" height="19" style="cursor: pointer; fill: rgb(0, 0, 0); fill-opacity: 0;"/></g><g class="traces" style="opacity: 1;" transform="translate(0, 33.5)"><text class="legendtext user-select-none" text-anchor="start" x="40" y="4.680000000000001" style="font-family: 'Open Sans', verdana, arial, sans-serif; font-size: 12px; fill: rgb(68, 68, 68); fill-opacity: 1; white-space: pre;">resolved</text><g class="layers" style="opacity: 1;"><g class="legendfill"/><g class="legendlines"><path class="js-line" d="M5,0h30" style="fill: none; stroke: rgb(255, 127, 14); stroke-opacity: 1; stroke-width: 2px;"/></g><g class="legendsymbols"><g class="legendpoints"/></g></g><rect class="legendtoggle" pointer-events="all" x="0" y="-9.5" width="96.109375" height="19" style="cursor: pointer; fill: rgb(0, 0, 0); fill-opacity: 0;"/></g><g class="traces" style="opacity: 1;" transform="translate(0, 52.5)"><text class="legendtext user-select-none" text-anchor="start" x="40" y="4.680000000000001" style="font-family: 'Open Sans', verdana, arial, sans-serif; font-size: 12px; fill: rgb(68, 68, 68); fill-opacity: 1; white-space: pre;">deceased</text><g class="layers" style="opacity: 1;"><g class="legendfill"/><g class="legendlines"><path class="js-line" d="M5,0h30" style="fill: none; stroke: rgb(44, 160, 44); stroke-opacity: 1; stroke-width: 2px;"/></g><g class="legendsymbols"><g class="legendpoints"/></g></g><rect class="legendtoggle" pointer-events="all" x="0" y="-9.5" width="96.109375" height="19" style="cursor: pointer; fill: rgb(0, 0, 0); fill-opacity: 0;"/></g></g></g><rect class="scrollbar" rx="20" ry="3" width="0" height="0" style="fill: rgb(128, 139, 164); fill-opacity: 1;" x="0" y="0"/></g><g class="g-gtitle"><text class="gtitle" x="513.5" y="12.5" text-anchor="middle" dy="0em" style="font-family: 'Open Sans', verdana, arial, sans-serif; font-size: 17px; fill: rgb(68, 68, 68); opacity: 1; font-weight: normal; white-space: pre;">Dynamics of new cases, resolved cases and deaths in Ontario (Sep 29, 2020)</text></g><g class="g-xtitle" transform="translate(0,-15)"><text class="xtitle" x="479" y="780" text-anchor="middle" style="font-family: 'Open Sans', verdana, arial, sans-serif; font-size: 14px; fill: rgb(68, 68, 68); opacity: 1; font-weight: normal; white-space: pre;">Date</text></g><g class="g-ytitle"><text class="ytitle" transform="rotate(-90,22,376.5)" x="22" y="376.5" text-anchor="middle" style="font-family: 'Open Sans', verdana, arial, sans-serif; font-size: 14px; fill: rgb(68, 68, 68); opacity: 1; font-weight: normal; white-space: pre;">Number of cases</text></g></g></svg>