<svg class="main-svg" xmlns="http://www.w3.org/2000/svg" xmlns:xlink="http://www.w3.org/1999/xlink" width="1027" height="768" style="" viewBox="0 0 1027 768"><rect x="0" y="0" width="1027" height="768" style="fill: rgb(255, 255, 255); fill-opacity: 1;"/><defs id="defs-dd4207"><g class="clips"><clipPath id="clipdd4207xyplot" class="plotclip"><rect width="838" height="703"/></clipPath><clipPath class="axesclip" id="clipdd4207x"><rect x="60" y="0" width="838" height="768"/></clipPath><clipPath class="axesclip" id="clipdd4207y"><rect x="0" y="25" width="1027" height="703"/></clipPath><clipPath class="axesclip" id="clipdd4207xy"><rect x="60" y="25" width="838" height="703"/></clipPath></g><g class="gradients"/><g class="patterns"/></defs><g class="bglayer"/><g class="layer-below"><g class="imagelayer"/><g class="shapelayer"/></g><g class="cartesianlayer"><g class="subplot xy"><g class="layer-subplot"><g class="shapelayer"/><g class="imagelayer"/></g><g class="gridlayer"><g class="x"><path class="xgrid crisp" transform="translate(113.53999999999999,0)" d="M0,25v703" style="stroke: rgb(238, 238, 238); stroke-opacity: 1; stroke-width: 1px;"/><path class="xgrid crisp" transform="translate(226.85,0)" d="M0,25v703" style="stroke: rgb(238, 238, 238); stroke-opacity: 1; stroke-width: 1px;"/><path class="xgrid crisp" transform="translate(341.41,0)" d="M0,25v703" style="stroke: rgb(238, 238, 238); stroke-opacity: 1; stroke-width: 1px;"/><path class="xgrid crisp" transform="translate(455.96,0)" d="M0,25v703" style="stroke: rgb(238, 238, 238); stroke-opacity: 1; stroke-width: 1px;"/><path class="xgrid crisp" transform="translate(568.03,0)" d="M0,25v703" style="stroke: rgb(238, 238, 238); stroke-opacity: 1; stroke-width: 1px;"/><path class="xgrid crisp" transform="translate(681.34,0)" d="M0,25v703" style="stroke: rgb(238, 238, 238); stroke-opacity: 1; stroke-width: 1px;"/><path class="xgrid crisp" transform="translate(795.9,0)" d="M0,25v703" style="stroke: rgb(238, 238, 238); stroke-opacity: 1; stroke-width: 1px;"/></g><g class="y"><path class="ygrid crisp" transform="translate(0,582.31)" d="M60,0h838" style="stroke: rgb(238, 238, 238); stroke-opacity: 1; stroke-width: 1px;"/><path class="ygrid crisp" transform="translate(0,473.3)" d="M60,0h838" style="stroke: rgb(238, 238, 238); stroke-opacity: 1; stroke-width: 1px;"/><path class="ygrid crisp" transform="translate(0,364.29)" d="M60,0h838" style="stroke: rgb(238, 238, 238); stroke-opacity: 1; stroke-width: 1px;"/><path class="ygrid crisp" transform="translate(0,255.28)" d="M60,0h838" style="stroke: rgb(238, 238, 238); stroke-opacity: 1; stroke-width: 1px;"/><path class="ygrid crisp" transform="translate(0,146.26999999999998)" d="M60,0h838" style="stroke: rgb(238, 238, 238); stroke-opacity: 1; stroke-width: 1px;"/><path class="ygrid crisp" transform="translate(0,37.26)" d="M60,0h838" style="stroke: rgb(238, 238, 238); stroke-opacity: 1; stroke-width: 1px;"/></g></g><g class="zerolinelayer"><path class="yzl zl crisp" transform="translate(0,691.32)" d="M60,0h838" style="stroke: rgb(68, 68, 68); stroke-opacity: 1; stroke-width: 1px;"/></g><path class="xlines-below"/><path class="ylines-below"/><g class="overlines-below"/><g class="xaxislayer-below"/><g class="yaxislayer-below"/><g class="overaxes-below"/><g class="plot" transform="translate(60,25)" clip-path="url(#clipdd4207xyplot)"><g class="scatterlayer mlayer"><g class="trace scatter trace29b74e" style="stroke-miterlimit: 2; opacity: 1;"><g class="fills"/><g class="errorbars"/><g class="lines"><path class="js-line" d="M3.74,666.54L12.45,666.21L16.19,665.02L18.68,666.32L0,667.85L1.25,666.32L2.49,666.32L13.7,666.11L14.94,665.02L24.9,666.21L26.15,665.67L28.64,664.14L29.88,663.71L31.13,661.75L32.37,662.84L33.62,665.02L34.86,663.6L37.36,659.78L38.6,659.89L39.85,661.09L41.09,657.82L42.34,657.06L43.58,655.42L44.83,647.79L46.07,651.61L47.32,649.86L48.56,643.32L49.81,628.06L51.05,637.98L52.3,619.89L53.54,622.61L54.79,615.96L56.03,625.44L57.28,621.85L58.52,632.64L59.77,625.01L61.01,606.37L62.26,613.67L63.5,614.22L64.75,621.52L65.99,622.61L67.24,620.43L68.48,613.67L70.97,610.29L72.22,604.84L73.47,613.45L74.71,604.41L75.96,600.26L77.2,606.26L78.45,610.73L79.69,597.21L80.94,596.56L82.18,614.43L83.43,618.69L84.67,620.1L85.92,609.09L87.16,628.5L88.41,616.29L89.65,620.43L90.9,610.62L92.14,619.01L93.39,625.99L94.63,624.14L95.88,621.41L97.12,622.83L98.37,614.33L99.61,628.61L100.86,634.27L102.1,632.75L103.35,626.97L104.59,630.46L105.84,628.72L107.08,629.15L108.33,623.7L109.58,629.26L110.82,633.18L112.07,619.78L113.31,623.81L114.56,621.3L115.8,618.25L117.05,621.41L118.29,616.18L119.54,622.28L120.78,635.04L122.03,634.49L123.27,624.57L124.52,628.82L125.76,631.11L127.01,630.79L129.5,617.7L130.74,629.48L131.99,627.52L133.23,628.82L134.48,616.72L135.72,621.08L136.97,639.83L138.21,641.25L139.46,638.96L140.7,644.19L141.95,646.48L143.19,637.33L144.44,644.85L145.68,646.59L148.18,645.61L149.42,647.46L150.67,646.92L151.91,643.87L154.4,648.77L155.65,642.78L156.89,648.56L158.14,645.72L159.38,654.22L160.63,648.88L161.87,646.92L163.12,638.31L164.36,649.21L165.61,650.08L166.85,649.65L168.1,648.34L169.34,653.13L170.59,651.28L171.83,649.54L173.08,654.11L174.32,653.46L175.57,647.79L176.81,653.68L178.06,652.15L179.3,652.26L180.55,653.68L183.04,655.2L184.29,654.22L185.53,654.22L186.78,648.23L188.02,648.45L189.27,651.61L190.51,644.19L191.76,648.34L193,655.1L194.25,645.07L195.49,651.28L196.74,651.39L199.23,654.22L200.47,658.04L201.72,656.62L202.96,651.72L205.45,653.68L206.7,656.73L207.94,656.4L209.19,656.95L210.43,655.97L211.68,656.73L212.92,658.69L214.17,657.71L215.41,653.79L216.66,662.73L217.9,655.97L219.15,657.82L221.64,654.77L222.89,657.49L225.38,652.7L226.62,655.2L227.87,658.04L229.11,652.04L230.36,654.55L231.6,653.79L235.34,656.73L236.58,653.46L237.83,653.02L239.07,650.19L240.32,654.11L241.56,653.9L242.81,654.11L244.05,651.83L245.3,651.93L246.54,650.19L247.79,647.9L249.03,649.1L250.28,645.61L251.52,646.16L252.77,650.08L254.01,647.79L256.51,641.03L257.75,644.09L259,632.2L260.24,638.96L261.49,631.99L262.73,634.38L263.98,622.61L265.22,621.96L266.47,626.53L267.71,619.99L268.96,614.22L270.2,629.81L271.45,621.74L272.69,621.74L273.94,618.9L275.18,612.8L276.43,590.02L277.67,605.93L278.92,598.19L280.16,607.68L281.41,586.53L282.65,595.14L283.9,604.62L285.14,599.28L286.39,606.59L287.63,602.77L290.12,563.96L291.37,578.13L292.62,595.58L293.86,578.35L296.35,587.73L297.6,580.97L298.84,588.71L300.09,578.57L301.33,594.59L302.58,589.58L303.82,576.83L305.07,580.21L306.31,574.65L307.56,576.28L310.05,552.73L311.29,573.56L312.54,576.17L313.78,575.41L315.03,564.51L316.27,568.65L317.52,555.68L318.76,559.82L320.01,562.98L321.25,551.86L322.5,558.73L323.74,557.53L324.99,556.99L326.23,542.92L327.48,521.56L328.73,530.93L329.97,515.02L331.22,510.87L332.46,494.63L333.71,514.14L334.95,493.98L336.2,530.28L337.44,504.22L338.69,530.17L339.93,511.86L341.18,534.42L343.67,493.21L344.91,499.1L346.16,493.11L347.4,556.33L348.65,516.65L349.89,505.21L351.14,464.11L352.38,467.71L353.63,480.13L354.87,475.99L356.12,480.24L357.36,478.5L358.61,467.49L359.85,472.28L362.34,456.59L363.59,456.48L364.84,483.62L366.08,460.29L367.33,450.15L368.57,464.87L369.82,462.15L371.06,483.51L373.55,418.32L374.8,433.15L376.04,401.21L377.29,416.69L378.53,409.38L379.78,413.85L381.02,434.89L382.27,426.28L383.51,403.83L384.76,399.57L386,430.97L387.25,432.82L389.74,454.95L390.98,388.02L393.47,303.54L394.72,396.41L395.96,299.72L397.21,343.22L398.45,309.86L399.7,325.34L400.95,310.29L402.19,282.71L403.44,203.14L404.68,291L405.93,236.28L407.17,302.45L408.42,349.86L409.66,343.54L410.91,303.75L412.15,339.51L413.4,333.19L414.64,293.29L417.13,457.79L418.38,376.9L419.62,379.41L420.87,376.14L422.11,409.17L423.36,402.84L425.85,476.64L427.09,484.28L428.34,438.16L429.58,466.07L430.83,441.43L432.07,464.87L433.32,451.68L434.56,585.11L437.05,495.94L438.3,484.28L439.55,515.02L440.79,504.01L443.28,554.91L444.53,549.46L445.77,563.31L447.02,549.03L448.26,524.61L449.51,559.38L450.75,561.24L452,567.78L453.24,573.99L454.49,553.17L456.98,532.46L458.22,547.83L459.47,550.99L460.71,560.04L464.45,529.19L465.69,537.15L466.94,550.55L468.18,554.81L469.43,561.02L470.67,561.89L471.92,557.97L473.16,530.06L474.41,558.4L475.66,524.72L476.9,488.53L478.15,537.15L479.39,522.87L480.64,547.28L481.88,516.87L483.13,506.3L484.37,475.88L485.62,528.1L486.86,549.25L488.11,501.94L489.35,497.03L490.6,476.1L491.84,466.94L493.09,471.09L494.33,481.11L495.58,497.79L496.82,495.07L498.07,406.88L499.31,429.88L500.56,398.92L501.8,399.46L503.05,438.05L504.29,411.67L505.54,412L506.78,387.58L508.03,329.59L509.27,338.31L510.52,334.82L511.77,346.05L513.01,332.21L515.5,307.13L516.75,205.53L517.99,250.66L519.24,180.57L520.48,186.57L521.73,266.25L524.22,150.05L525.46,141.76L526.71,190.82L527.95,203.03L529.2,181.55L530.44,288.16L531.69,207.17L532.93,264.95L534.18,175.23L535.42,220.03L536.67,236.06L537.91,283.7L539.16,310.4L540.4,286.97L541.65,244.34L542.89,242.6L544.14,299.07L545.38,259.49L546.63,291.76L547.88,362.07L549.12,345.72L550.37,293.07L552.86,354.12L554.1,315.74L556.59,440.34L557.84,413.42L559.08,365.56L560.33,408.84L561.57,384.64L562.82,426.61L564.06,429.77L565.31,490.16L566.55,493.21L567.8,404.7L569.04,460.29L570.29,470.76L571.53,481.99L572.78,508.69L574.02,553.06L575.27,546.96L576.51,542.6L577.76,527.55L579,551.1L580.25,553.72L581.49,566.47L582.74,590.13L583.99,586.42L585.23,571.48L586.48,566.69L587.72,585.22L588.97,594.05L590.21,609.09L592.7,621.52L593.95,602.01L595.19,603.75L596.44,611.6L597.68,608.55L598.93,617.6L600.17,634.06L601.42,624.46L603.91,628.72L605.15,627.62L607.64,636.89L608.89,634.06L610.13,638.53L611.38,634.06L612.62,638.42L613.87,628.61L616.36,643.43L617.6,633.73L618.85,646.27L620.1,635.36L621.34,644.52L622.59,643.54L623.83,643.1L625.08,647.79L626.32,639.73L627.57,645.18L628.81,643.43L630.06,646.37L631.3,646.81L632.55,648.23L633.79,653.9L635.04,650.41L636.28,649.65L637.53,650.74L640.02,647.14L641.26,647.03L642.51,652.15L643.75,652.48L645,651.61L646.24,646.16L647.49,645.39L648.73,647.79L649.98,647.57L651.22,653.35L652.47,652.26L653.71,649.1L654.96,642.56L656.21,641.69L657.45,638.2L658.7,642.56L659.94,648.01L661.19,648.45L662.43,651.17L663.68,643.1L664.92,629.26L666.17,625.12L667.41,620.21L668.66,630.9L671.15,631L672.39,610.4L673.64,610.73L674.88,603.32L676.13,610.62L677.37,608.98L678.62,628.39L679.86,613.45L681.11,608.44L682.35,595.47L684.84,587.62L686.09,596.67L687.33,613.34L688.58,594.38L689.82,592.41L691.07,581.19L692.32,575.3L693.56,585.66L694.81,590.67L696.05,609.09L697.3,594.81L698.54,572.03L699.79,578.35L701.03,563.42L702.28,577.92L703.52,602.99L706.01,605.93L707.26,579.33L708.5,573.88L709.75,572.9L710.99,580.86L712.24,600.92L713.48,603.42L714.73,601.68L715.97,572.14L717.22,579.66L718.46,576.83L719.71,588.38L720.95,599.83L722.2,603.75L723.44,615.85L724.69,592.52L725.93,587.07L727.18,596.56L728.42,595.14L729.67,599.5L730.92,615.52L732.16,612.36L733.41,595.79L734.65,593.5L735.9,589.58L737.14,603.1L739.63,619.56L740.88,614.43L742.12,602.33L743.37,603.86L744.61,595.03L745.86,608L749.59,632.97L750.84,620.87L752.08,612.25L753.33,613.34L755.82,625.66L757.06,630.57L758.31,633.18L759.55,621.3L760.8,612.69L762.04,625.66L763.29,625.99L764.53,630.79L765.78,637L767.03,631.33L768.27,621.74L769.52,620.65L770.76,627.52L772.01,629.26L773.25,620.32L774.5,630.24L776.99,618.58L778.23,604.95L779.48,610.95L780.72,596.99L781.97,614L783.21,618.25L784.46,616.83L785.7,596.34L786.95,601.14L788.19,594.27L789.44,593.72L790.68,606.15L791.93,613.89L793.17,610.51L795.66,579.88L796.91,586.96L798.15,585.55L799.4,597.97L801.89,601.9L803.14,584.78L804.38,565.27L805.63,573.23L806.87,561.24L808.12,580.42L809.36,591.43L810.61,581.3L813.1,553.93L814.34,551.54L815.59,537.25L816.83,569.63L818.08,565.16L819.32,556.33L821.81,507.93L823.06,491.14L824.3,505.42L825.55,498.88L826.79,510.55L828.04,469.23L830.53,325.77L831.77,306.48L833.02,210.98L834.26,253.83L835.51,289.91L836.75,188.53L838,35.15" style="vector-effect: non-scaling-stroke; fill: none; stroke: rgb(31, 119, 180); stroke-opacity: 1; stroke-width: 2px; opacity: 1;"/></g><g class="points"/><g class="text"/></g><g class="trace scatter trace285f77" style="stroke-miterlimit: 2; opacity: 1;"><g class="fills"/><g class="errorbars"/><g class="lines"><path class="js-line" d="M3.74,666.11L18.68,666.32L0,666.54L4.98,666.32L6.23,666.21L48.56,666.32L49.81,620.21L51.05,655.1L52.3,651.06L53.54,649.21L54.79,645.39L56.03,644.96L57.28,641.25L58.52,647.25L59.77,646.92L61.01,636.67L62.26,641.14L64.75,635.36L65.99,637.65L68.48,643.32L69.73,629.91L70.97,634.49L72.22,626.86L73.47,631.55L74.71,629.91L77.2,634.6L78.45,621.08L79.69,616.29L80.94,621.96L82.18,620.32L83.43,612.8L84.67,609.09L85.92,618.47L87.16,595.68L88.41,601.68L89.65,598.74L90.9,604.73L92.14,599.28L93.39,611.82L94.63,636.45L95.88,618.03L97.12,628.5L98.37,620.43L99.61,623.48L100.86,623.92L102.1,627.19L103.35,637.98L104.59,616.83L105.84,627.19L107.08,618.69L108.33,625.01L112.07,637.98L113.31,634.49L114.56,631.55L115.8,638.2L117.05,625.01L118.29,630.24L119.54,642.23L120.78,637.98L122.03,621.19L123.27,633.51L124.52,632.53L125.76,625.99L127.01,616.51L128.25,628.93L130.74,630.68L131.99,623.05L134.48,626.64L135.72,633.08L136.97,640.16L138.21,629.59L139.46,606.26L140.7,611.27L141.95,633.4L143.19,628.06L144.44,620.21L145.68,638.85L146.93,642.56L148.18,627.84L149.42,642.34L150.67,639.51L151.91,642.56L153.16,638.96L155.65,647.36L156.89,641.36L158.14,645.39L159.38,641.69L160.63,646.92L161.87,647.25L163.12,656.62L164.36,650.19L166.85,644.09L168.1,646.81L169.34,647.36L170.59,646.37L171.83,648.88L173.08,647.03L174.32,644.3L175.57,647.57L176.81,646.92L178.06,637.22L179.3,654.11L180.55,652.26L181.79,653.02L183.04,651.61L184.29,650.95L185.53,655.31L186.78,651.93L188.02,654.01L190.51,656.29L191.76,643.76L193,649.86L194.25,651.39L195.49,651.06L196.74,653.35L197.98,655.2L199.23,654.77L200.47,647.36L201.72,648.34L202.96,648.01L204.21,648.56L205.45,653.02L206.7,652.59L207.94,653.68L209.19,650.41L210.43,648.99L211.68,653.46L212.92,654.66L214.17,650.19L216.66,658.15L217.9,651.72L220.4,657.28L221.64,655.31L222.89,657.6L224.13,657.28L226.62,656.62L227.87,658.04L229.11,654.77L230.36,656.51L231.6,654.55L232.85,657.82L234.09,658.15L235.34,653.79L236.58,657.93L237.83,657.28L239.07,655.1L240.32,657.82L241.56,658.37L242.81,656.29L244.05,651.39L245.3,653.35L247.79,654.77L249.03,654.22L251.52,653.35L252.77,651.5L254.01,650.84L255.26,652.81L256.51,653.35L257.75,652.81L259,651.83L260.24,653.57L262.73,646.81L263.98,647.14L265.22,647.03L266.47,645.5L267.71,646.92L268.96,644.96L271.45,635.15L272.69,635.47L273.94,629.48L275.18,634.82L276.43,630.24L277.67,631.11L280.16,610.18L281.41,619.67L282.65,618.9L283.9,608.11L286.39,606.8L287.63,589.25L288.88,590.56L290.12,587.4L291.37,590.02L292.62,589.47L295.11,598.3L296.35,580.97L297.6,581.4L298.84,588.6L300.09,591.98L301.33,591.65L302.58,600.15L303.82,597.86L305.07,587.94L306.31,585.55L307.56,586.42L308.8,598.19L310.05,586.09L311.29,592.31L312.54,591L313.78,582.06L315.03,576.93L316.27,579.55L317.52,579.33L318.76,572.14L320.01,576.28L321.25,575.08L322.5,563.31L323.74,562.98L324.99,562.87L326.23,573.45L327.48,570.72L328.73,576.83L329.97,581.19L331.22,569.74L332.46,566.36L333.71,555.35L334.95,556.99L336.2,550.55L337.44,558.18L338.69,542.6L339.93,503.35L341.18,516.32L342.42,512.07L343.67,517.74L346.16,504.55L347.4,548.37L348.65,505.42L349.89,517.52L352.38,501.72L353.63,509.02L354.87,522.43L356.12,516.65L357.36,482.53L358.61,498.34L359.85,497.03L361.1,489.29L362.34,494.74L363.59,512.4L364.84,497.47L366.08,456.59L368.57,475.23L369.82,457.24L372.31,498.99L373.55,469.01L374.8,443.61L376.04,447.32L377.29,449.17L378.53,463.02L379.78,455.82L381.02,486.02L383.51,421.81L384.76,446.88L386,422.47L387.25,457.79L390.98,422.9L392.23,422.47L393.47,425.08L394.72,398.16L395.96,442.42L397.21,429.22L399.7,446.67L400.95,338.75L402.19,363.71L403.44,367.85L404.68,348.56L405.93,394.23L407.17,365.89L408.42,300.81L409.66,296.56L410.91,274.65L415.89,358.26L417.13,353.14L418.38,261.46L419.62,340.38L420.87,298.41L422.11,336.57L425.85,419.85L427.09,369.27L428.34,394.78L429.58,350.19L433.32,433.91L434.56,415.93L435.81,476.1L437.05,453.1L438.3,422.9L439.55,470.54L440.79,455.17L442.04,481.01L443.28,515.02L444.53,480.02L445.77,519.81L447.02,512.07L448.26,510L449.51,531.7L452,545.1L453.24,507.6L454.49,527.12L455.73,529.52L456.98,523.19L458.22,542.05L460.71,557.09L461.96,525.59L464.45,556.55L465.69,559.06L466.94,554.15L468.18,563.96L469.43,559.6L470.67,547.5L471.92,549.46L473.16,539.98L474.41,540.74L475.66,545.87L476.9,557.97L478.15,560.37L479.39,534.2L480.64,545.32L481.88,543.8L483.13,540.85L484.37,539.11L485.62,544.89L486.86,548.05L488.11,504.12L489.35,531.59L490.6,525.05L491.84,528.86L493.09,518.83L494.33,538.24L495.58,527.77L496.82,499.43L498.07,521.45L499.31,483.73L500.56,504.88L501.8,498.12L503.05,500.19L504.29,505.31L505.54,451.25L506.78,468.58L508.03,456.48L509.27,468.03L510.52,459.31L511.77,474.36L513.01,450.92L515.5,385.51L516.75,378.43L517.99,402.3L519.24,381.04L520.48,399.79L521.73,385.84L522.97,321.85L524.22,320.32L525.46,322.83L526.71,272.69L529.2,322.61L530.44,299.07L532.93,165.2L534.18,154.19L535.42,194.09L536.67,204.23L539.16,240.31L540.4,173.92L541.65,203.57L542.89,203.9L544.14,234.2L545.38,236.06L547.88,304.08L549.12,190.93L550.37,230.61L551.61,243.91L552.86,274.32L554.1,268.11L555.35,327.3L556.59,350.41L557.84,287.29L559.08,289.69L560.33,284.57L561.57,332.42L562.82,330.68L564.06,344.41L565.31,393.58L566.55,326.32L567.8,365.13L569.04,373.19L570.29,391.62L571.53,398.37L572.78,440.45L574.02,446.34L575.27,407.86L576.51,415.38L577.76,408.84L579,442.09L580.25,441L581.49,480.24L582.74,495.39L583.99,477.41L587.72,530.93L588.97,533.11L590.21,563.74L591.46,556.22L592.7,564.73L593.95,563.96L595.19,573.66L596.44,575.84L598.93,593.29L600.17,596.01L601.42,587.62L602.66,597.1L603.91,598.3L605.15,602.99L606.4,611.38L607.64,613.34L608.89,618.14L610.13,616.18L612.62,634.38L613.87,611.49L616.36,630.79L617.6,625.88L620.1,638.31L621.34,635.69L622.59,637.76L623.83,635.15L625.08,640.92L626.32,631.55L627.57,640.6L628.81,641.14L630.06,640.92L631.3,642.56L632.55,636.02L633.79,655.86L635.04,644.41L636.28,642.78L637.53,648.01L638.77,645.72L640.02,644.19L641.26,648.23L642.51,649.65L643.75,652.59L645,649.86L646.24,650.08L649.98,650.63L651.22,651.39L653.71,647.68L654.96,647.9L657.45,651.39L658.7,649.43L659.94,652.26L661.19,649.86L662.43,649.43L663.68,646.37L664.92,650.08L666.17,645.5L667.41,641.03L668.66,645.39L671.15,644.09L672.39,638.42L673.64,637.54L674.88,637.98L676.13,636.89L677.37,631.33L678.62,635.8L679.86,628.72L681.11,629.48L682.35,617.92L683.6,614.54L684.84,623.7L686.09,611.6L687.33,607.35L688.58,603.97L689.82,610.4L691.07,598.19L692.32,603.64L694.81,607.46L696.05,592.2L697.3,595.47L698.54,592.09L699.79,585.87L701.03,586.96L702.28,603.86L703.52,588.27L704.77,591.32L706.01,582.39L708.5,582.39L709.75,583.91L710.99,585.87L712.24,597.97L714.73,584.02L715.97,593.5L717.22,592.2L718.46,594.92L719.71,589.14L720.95,597.86L722.2,583.04L723.44,580.97L724.69,592.63L725.93,577.59L727.18,579.77L728.42,596.67L729.67,603.32L730.92,577.04L734.65,597.1L735.9,596.01L737.14,599.17L738.39,613.13L739.63,590.45L740.88,599.06L742.12,602.44L743.37,598.63L745.86,607.57L747.1,606.26L748.35,610.51L749.59,608.88L750.84,608.77L752.08,607.24L754.57,613.56L755.82,620.21L758.31,607.78L759.55,613.13L760.8,621.08L762.04,620.65L763.29,614L764.53,626.1L765.78,619.78L767.03,624.46L768.27,626.43L769.52,622.83L770.76,629.26L772.01,625.66L773.25,636.35L774.5,624.57L775.74,624.9L776.99,629.59L779.48,625.99L780.72,626.32L781.97,640.38L783.21,616.61L784.46,621.19L785.7,620.32L786.95,615.96L788.19,615.2L789.44,615.42L790.68,629.04L791.93,595.36L793.17,603.86L794.42,603.64L795.66,604.51L796.91,611.82L798.15,602.01L799.4,612.47L800.64,588.16L803.14,601.03L804.38,593.72L805.63,603.1L806.87,605.5L808.12,616.94L809.36,605.28L810.61,561.13L811.85,582.39L814.34,587.62L815.59,599.94L816.83,605.28L818.08,570.5L819.32,543.25L820.57,560.58L821.81,567.12L823.06,580.64L824.3,592.85L825.55,579.12L826.79,564.94L828.04,539.33L829.28,555.9L830.53,514.58L831.77,534.75L833.02,534.42L834.26,552.95L835.51,521.12L836.75,471.52L838,485.47" style="vector-effect: non-scaling-stroke; fill: none; stroke: rgb(255, 127, 14); stroke-opacity: 1; stroke-width: 2px; opacity: 1;"/></g><g class="points"/><g class="text"/></g><g class="trace scatter trace27a189" style="stroke-miterlimit: 2; opacity: 1;"><g class="fills"/><g class="errorbars"/><g class="lines"><path class="js-line" d="M3.74,666.32L18.68,666.32" style="vector-effect: non-scaling-stroke; fill: none; stroke: rgb(44, 160, 44); stroke-opacity: 1; stroke-width: 2px; opacity: 1;"/><path class="js-line" d="M34.86,666.32L46.07,666L47.32,666.21L51.05,665.23L52.3,665.89L53.54,664.58L54.79,664.8L56.03,663.38L57.28,663.6L58.52,664.91L59.77,664.03L63.5,663.93L64.75,662.94L67.24,664.47L68.48,661.64L69.73,660.76L70.97,662.18L72.22,660.33L73.47,662.4L74.71,662.07L75.96,662.94L78.45,662.29L79.69,660.44L82.18,661.09L83.43,663.71L84.67,660.11L85.92,659.89L87.16,661.42L88.41,656.95L89.65,662.07L90.9,660.33L92.14,661.96L93.39,657.17L94.63,659.67L95.88,658.91L97.12,661.09L98.37,659.46L99.61,659.89L100.86,662.51L102.1,662.51L103.35,660.22L105.84,662.73L107.08,663.38L108.33,662.73L109.58,663.82L110.82,663.82L112.07,664.69L113.31,661.64L114.56,662.94L118.29,663.6L119.54,663.16L120.78,664.03L122.03,662.84L124.52,661.85L125.76,664.47L127.01,664.25L128.25,665.23L130.74,664.25L131.99,661.42L133.23,664.69L134.48,662.51L135.72,664.25L136.97,663.71L139.46,665.12L140.7,665.02L148.18,665.02L149.42,666L150.67,665.12L151.91,662.94L154.4,666L155.65,665.23L158.14,665.23L159.38,666L161.87,665.67L163.12,665.56L170.59,666.11L171.83,666.32L174.32,665.34L175.57,666L178.06,665.67L179.3,666L181.79,666.21L183.04,665.34L184.29,665.78L185.53,665.34L188.02,666L189.27,666.21L236.58,666.21L237.83,665.67L240.32,666.21L241.56,666.21L280.16,666L281.41,658.04L283.9,665.56L285.14,665.78L286.39,665.56L287.63,666.21L291.37,665.56L292.62,666.21L295.11,665.34L296.35,666.32L300.09,665.23L301.33,665.78L303.82,666L305.07,665.34L320.01,665.56L321.25,664.8L324.99,664.8L326.23,665.12L334.95,664.14L336.2,663.16L337.44,665.23L338.69,665.02L339.93,662.84L341.18,663.27L342.42,665.45L343.67,664.03L344.91,664.8L346.16,664.25L347.4,664.8L348.65,662.51L349.89,664.03L351.14,664.14L352.38,663.16L353.63,663.71L354.87,665.45L356.12,665.56L357.36,662.51L358.61,664.8L359.85,663.6L361.1,664.14L362.34,664.69L363.59,663.49L364.84,665.23L366.08,663.27L368.57,661.42L369.82,664.47L371.06,664.58L372.31,663.82L373.55,664.14L374.8,661.64L376.04,663.82L377.29,661.96L378.53,663.38L379.78,663.6L381.02,664.47L382.27,664.03L384.76,660.98L386,661.64L387.25,662.18L388.49,664.36L389.74,662.29L390.98,661.85L392.23,664.25L393.47,660.22L395.96,661.53L397.21,663.6L398.45,663.16L399.7,660.76L400.95,662.29L402.19,656.62L403.44,663.49L404.68,661.96L405.93,659.67L407.17,663.16L408.42,661.85L409.66,658.26L410.91,659.57L412.15,655.42L413.4,660.76L414.64,658.8L415.89,663.71L417.13,661.31L418.38,656.62L419.62,661.31L420.87,656.84L422.11,660.66L424.6,661.64L425.85,659.46L427.09,660.98L428.34,660.22L429.58,660L430.83,658.37L432.07,661.64L433.32,662.4L434.56,664.8L435.81,659.02L437.05,656.73L438.3,661.42L439.55,661.42L440.79,663.93L442.04,662.73L443.28,664.47L444.53,661.85L445.77,664.36L448.26,664.25L449.51,661.75L450.75,664.91L452,664.91L453.24,665.23L454.49,661.53L455.73,661.2L456.98,663.27L458.22,664.91L459.47,665.12L461.96,665.34L463.2,663.82L464.45,663.27L465.69,664.58L466.94,664.14L468.18,665.67L470.67,664.47L471.92,665.23L473.16,663.93L474.41,665.67L475.66,664.69L476.9,665.23L478.15,665.67L479.39,664.58L480.64,665.23L481.88,664.36L483.13,665.12L484.37,664.69L485.62,665.34L486.86,665.12L489.35,664.69L490.6,665.23L493.09,664.36L494.33,666L498.07,664.47L499.31,665.02L501.8,664.25L503.05,665.23L508.03,663.82L509.27,664.58L513.01,665.45L514.26,664.47L519.24,664.03L520.48,664.69L521.73,664.69L522.97,663.27L525.46,663.6L526.71,662.62L527.95,664.36L529.2,664.25L531.69,662.84L532.93,661.96L536.67,663.71L537.91,663.71L539.16,663.16L540.4,663.71L541.65,661.85L542.89,664.03L544.14,663.16L545.38,663.82L546.63,664.58L547.88,663.6L549.12,661.53L550.37,663.49L552.86,663.6L554.1,661.2L555.35,664.25L556.59,664.69L557.84,662.84L559.08,662.94L561.57,663.71L562.82,663.05L564.06,665.89L565.31,664.47L569.04,663.38L570.29,664.14L572.78,665.45L574.02,662.73L576.51,664.25L577.76,664.8L581.49,664.91L582.74,665.34L583.99,663.6L585.23,665.23L587.72,663.71L588.97,665.23L591.46,664.36L592.7,662.73L595.19,665.89L596.44,664.69L598.93,665.89L600.17,664.91L602.66,665.56L603.91,666.21L605.15,664.91L606.4,665.02L607.64,666L608.89,659.78L610.13,665.12L611.38,665.67L612.62,666.11L613.87,664.91L615.11,665.02L616.36,666L617.6,663.6L618.85,664.8L620.1,664.25L621.34,665.34L623.83,665.34L625.08,666.21L626.32,665.34L627.57,666.32L631.3,665.45L632.55,665.67L633.79,666.32L635.04,665.56L638.77,665.23L640.02,666L641.26,665.67L642.51,666.32L646.24,665.56L647.49,666.21L653.71,665.89L654.96,666L656.21,665.12L657.45,665.67L661.19,666.21L662.43,665.12L664.92,664.36L666.17,665.34L669.9,666.11L671.15,666L673.64,665.89L674.88,666.11L677.37,666.32L678.62,665.23L679.86,666L681.11,664.47L682.35,666.11L683.6,666.21L686.09,666.32L687.33,664.36L688.58,666.21L689.82,666.32L691.07,664.47L692.32,665.56L694.81,666.32L696.05,665.78L698.54,664.8L699.79,665.67L701.03,665.34L702.28,666L704.77,666L706.01,664.58L708.5,665.12L709.75,664.69L710.99,665.67L712.24,665.67L719.71,665.67L720.95,666.11L723.44,665.56L724.69,665.56L727.18,665.23L728.42,665.67L729.67,666.32L730.92,665.12L733.41,665.34L734.65,665.12L738.39,666.11L739.63,666L740.88,664.8L742.12,665.78L743.37,665.23L744.61,666.11L748.35,666.32L749.59,665.02L752.08,666.11L753.33,665.78L754.57,666.43L755.82,666.11L760.8,665.02L762.04,665.67L764.53,666.32L765.78,665.67L767.03,665.23L768.27,666L770.76,665.89L772.01,666.11L778.23,665.78L779.48,666.32L785.7,665.89L786.95,665.78L790.68,666L791.93,666.21L793.17,665.02L794.42,665.78L800.64,665.67L801.89,665.56L806.87,666.21L808.12,666L814.34,665.45L815.59,666.32L821.81,665.12L823.06,665.78L824.3,665.45L825.55,666.21L829.28,665.34L830.53,665.78L834.26,666.32L835.51,665.23L838,665.56" style="vector-effect: non-scaling-stroke; fill: none; stroke: rgb(44, 160, 44); stroke-opacity: 1; stroke-width: 2px; opacity: 1;"/></g><g class="points"/><g class="text"/></g></g></g><g class="overplot"/><path class="xlines-above crisp" style="fill: none;" d="M0,0"/><path class="ylines-above crisp" style="fill: none;" d="M0,0"/><g class="overlines-above"/><g class="xaxislayer-above"><g class="xtick"><text text-anchor="middle" x="0" y="741" transform="translate(113.53999999999999,0)" style="font-family: 'Open Sans', verdana, arial, sans-serif; font-size: 12px; fill: rgb(68, 68, 68); fill-opacity: 1; white-space: pre; opacity: 1;">Apr 2020</text></g><g class="xtick"><text text-anchor="middle" x="0" y="741" style="font-family: 'Open Sans', verdana, arial, sans-serif; font-size: 12px; fill: rgb(68, 68, 68); fill-opacity: 1; white-space: pre; opacity: 1;" transform="translate(226.85,0)">Jul 2020</text></g><g class="xtick"><text text-anchor="middle" x="0" y="741" style="font-family: 'Open Sans', verdana, arial, sans-serif; font-size: 12px; fill: rgb(68, 68, 68); fill-opacity: 1; white-space: pre; opacity: 1;" transform="translate(341.41,0)">Oct 2020</text></g><g class="xtick"><text text-anchor="middle" x="0" y="741" style="font-family: 'Open Sans', verdana, arial, sans-serif; font-size: 12px; fill: rgb(68, 68, 68); fill-opacity: 1; white-space: pre; opacity: 1;" transform="translate(455.96,0)">Jan 2021</text></g><g class="xtick"><text text-anchor="middle" x="0" y="741" style="font-family: 'Open Sans', verdana, arial, sans-serif; font-size: 12px; fill: rgb(68, 68, 68); fill-opacity: 1; white-space: pre; opacity: 1;" transform="translate(568.03,0)">Apr 2021</text></g><g class="xtick"><text text-anchor="middle" x="0" y="741" style="font-family: 'Open Sans', verdana, arial, sans-serif; font-size: 12px; fill: rgb(68, 68, 68); fill-opacity: 1; white-space: pre; opacity: 1;" transform="translate(681.34,0)">Jul 2021</text></g><g class="xtick"><text text-anchor="middle" x="0" y="741" style="font-family: 'Open Sans', verdana, arial, sans-serif; font-size: 12px; fill: rgb(68, 68, 68); fill-opacity: 1; white-space: pre; opacity: 1;" transform="translate(795.9,0)">Oct 2021</text></g></g><g class="yaxislayer-above"><g class="ytick"><text text-anchor="end" x="59" y="4.199999999999999" transform="translate(0,691.32)" style="font-family: 'Open Sans', verdana, arial, sans-serif; font-size: 12px; fill: rgb(68, 68, 68); fill-opacity: 1; white-space: pre; opacity: 1;">0</text></g><g class="ytick"><text text-anchor="end" x="59" y="4.199999999999999" style="font-family: 'Open Sans', verdana, arial, sans-serif; font-size: 12px; fill: rgb(68, 68, 68); fill-opacity: 1; white-space: pre; opacity: 1;" transform="translate(0,582.31)">1000</text></g><g class="ytick"><text text-anchor="end" x="59" y="4.199999999999999" style="font-family: 'Open Sans', verdana, arial, sans-serif; font-size: 12px; fill: rgb(68, 68, 68); fill-opacity: 1; white-space: pre; opacity: 1;" transform="translate(0,473.3)">2000</text></g><g class="ytick"><text text-anchor="end" x="59" y="4.199999999999999" style="font-family: 'Open Sans', verdana, arial, sans-serif; font-size: 12px; fill: rgb(68, 68, 68); fill-opacity: 1; white-space: pre; opacity: 1;" transform="translate(0,364.29)">3000</text></g><g class="ytick"><text text-anchor="end" x="59" y="4.199999999999999" style="font-family: 'Open Sans', verdana, arial, sans-serif; font-size: 12px; fill: rgb(68, 68, 68); fill-opacity: 1; white-space: pre; opacity: 1;" transform="translate(0,255.28)">4000</text></g><g class="ytick"><text text-anchor="end" x="59" y="4.199999999999999" style="font-family: 'Open Sans', verdana, arial, sans-serif; font-size: 12px; fill: rgb(68, 68, 68); fill-opacity: 1; white-space: pre; opacity: 1;" transform="translate(0,146.26999999999998)">5000</text></g><g class="ytick"><text text-anchor="end" x="59" y="4.199999999999999" style="font-family: 'Open Sans', verdana, arial, sans-serif; font-size: 12px; fill: rgb(68, 68, 68); fill-opacity: 1; white-space: pre; opacity: 1;" transform="translate(0,37.26)">6000</text></g></g><g class="overaxes-above"/></g></g><g class="polarlayer"/><g class="ternarylayer"/><g class="geolayer"/><g class="funnelarealayer"/><g class="pielayer"/><g class="iciclelayer"/><g class="treemaplayer"/><g class="sunburstlayer"/><g class="glimages"/><defs id="topdefs-dd4207"><g class="clips"/><clipPath id="legenddd4207"><rect width="102" height="67" x="0" y="0"/></clipPath></defs><g class="layer-above"><g class="imagelayer"/><g class="shapelayer"/></g><g class="infolayer"><g class="legend" pointer-events="all" transform="translate(914.76,25)"><rect class="bg" shape-rendering="crispEdges" style="stroke: rgb(68, 68, 68); stroke-opacity: 1; fill: rgb(255, 255, 255); fill-opacity: 1; stroke-width: 0px;" width="102" height="67" x="0" y="0"/><g class="scrollbox" transform="" clip-path="url(#legenddd4207)"><g class="groups"><g class="traces" style="opacity: 1;" transform="translate(0,14.5)"><text class="legendtext" text-anchor="start" x="40" y="4.680000000000001" style="font-family: 'Open Sans', verdana, arial, sans-serif; font-size: 12px; fill: rgb(68, 68, 68); fill-opacity: 1; white-space: pre;">positive</text><g class="layers" style="opacity: 1;"><g class="legendfill"/><g class="legendlines"><path class="js-line" d="M5,0h30" style="fill: none; stroke: rgb(31, 119, 180); stroke-opacity: 1; stroke-width: 2px;"/></g><g class="legendsymbols"><g class="legendpoints"/></g></g><rect class="legendtoggle" x="0" y="-9.5" width="96.109375" height="19" style="fill: rgb(0, 0, 0); fill-opacity: 0;"/></g><g class="traces" style="opacity: 1;" transform="translate(0,33.5)"><text class="legendtext" text-anchor="start" x="40" y="4.680000000000001" style="font-family: 'Open Sans', verdana, arial, sans-serif; font-size: 12px; fill: rgb(68, 68, 68); fill-opacity: 1; white-space: pre;">resolved</text><g class="layers" style="opacity: 1;"><g class="legendfill"/><g class="legendlines"><path class="js-line" d="M5,0h30" style="fill: none; stroke: rgb(255, 127, 14); stroke-opacity: 1; stroke-width: 2px;"/></g><g class="legendsymbols"><g class="legendpoints"/></g></g><rect class="legendtoggle" x="0" y="-9.5" width="96.109375" height="19" style="fill: rgb(0, 0, 0); fill-opacity: 0;"/></g><g class="traces" style="opacity: 1;" transform="translate(0,52.5)"><text class="legendtext" text-anchor="start" x="40" y="4.680000000000001" style="font-family: 'Open Sans', verdana, arial, sans-serif; font-size: 12px; fill: rgb(68, 68, 68); fill-opacity: 1; white-space: pre;">deceased</text><g class="layers" style="opacity: 1;"><g class="legendfill"/><g class="legendlines"><path class="js-line" d="M5,0h30" style="fill: none; stroke: rgb(44, 160, 44); stroke-opacity: 1; stroke-width: 2px;"/></g><g class="legendsymbols"><g class="legendpoints"/></g></g><rect class="legendtoggle" x="0" y="-9.5" width="96.109375" height="19" style="fill: rgb(0, 0, 0); fill-opacity: 0;"/></g></g></g><rect class="scrollbar" rx="20" ry="3" width="0" height="0" style="fill: rgb(128, 139, 164); fill-opacity: 1;" x="0" y="0"/></g><g class="g-gtitle"><text class="gtitle" x="513.5" y="12.5" text-anchor="middle" dy="0em" style="font-family: 'Open Sans', verdana, arial, sans-serif; font-size: 17px; fill: rgb(68, 68, 68); opacity: 1; font-weight: normal; white-space: pre;">Dynamics of new cases, resolved cases and deaths in Ontario (Dec 23, 2021)</text></g><g class="g-xtitle" transform="translate(0,-15)"><text class="xtitle" x="479" y="780" text-anchor="middle" style="font-family: 'Open Sans', verdana, arial, sans-serif; font-size: 14px; fill: rgb(68, 68, 68); opacity: 1; font-weight: normal; white-space: pre;">Date</text></g><g class="g-ytitle"><text class="ytitle" transform="rotate(-90,22,376.5)" x="22" y="376.5" text-anchor="middle" style="font-family: 'Open Sans', verdana, arial, sans-serif; font-size: 14px; fill: rgb(68, 68, 68); opacity: 1; font-weight: normal; white-space: pre;">Number of cases</text></g></g></svg>