<svg class="main-svg" xmlns="http://www.w3.org/2000/svg" xmlns:xlink="http://www.w3.org/1999/xlink" width="1027" height="768" style="" viewBox="0 0 1027 768"><rect x="0" y="0" width="1027" height="768" style="fill: rgb(255, 255, 255); fill-opacity: 1;"/><defs id="defs-d98a29"><g class="clips"><clipPath id="clipd98a29xyplot" class="plotclip"><rect width="838" height="703"/></clipPath><clipPath class="axesclip" id="clipd98a29x"><rect x="60" y="0" width="838" height="768"/></clipPath><clipPath class="axesclip" id="clipd98a29y"><rect x="0" y="25" width="1027" height="703"/></clipPath><clipPath class="axesclip" id="clipd98a29xy"><rect x="60" y="25" width="838" height="703"/></clipPath></g><g class="gradients"/></defs><g class="bglayer"/><g class="layer-below"><g class="imagelayer"/><g class="shapelayer"/></g><g class="cartesianlayer"><g class="subplot xy"><g class="layer-subplot"><g class="shapelayer"/><g class="imagelayer"/></g><g class="gridlayer"><g class="x"><path class="xgrid crisp" transform="translate(115.25,0)" d="M0,25v703" style="stroke: rgb(238, 238, 238); stroke-opacity: 1; stroke-width: 1px;"/><path class="xgrid crisp" transform="translate(257.99,0)" d="M0,25v703" style="stroke: rgb(238, 238, 238); stroke-opacity: 1; stroke-width: 1px;"/><path class="xgrid crisp" transform="translate(396.12,0)" d="M0,25v703" style="stroke: rgb(238, 238, 238); stroke-opacity: 1; stroke-width: 1px;"/><path class="xgrid crisp" transform="translate(538.86,0)" d="M0,25v703" style="stroke: rgb(238, 238, 238); stroke-opacity: 1; stroke-width: 1px;"/><path class="xgrid crisp" transform="translate(676.99,0)" d="M0,25v703" style="stroke: rgb(238, 238, 238); stroke-opacity: 1; stroke-width: 1px;"/><path class="xgrid crisp" transform="translate(819.73,0)" d="M0,25v703" style="stroke: rgb(238, 238, 238); stroke-opacity: 1; stroke-width: 1px;"/></g><g class="y"><path class="ygrid crisp" transform="translate(0,594.39)" d="M60,0h838" style="stroke: rgb(238, 238, 238); stroke-opacity: 1; stroke-width: 1px;"/><path class="ygrid crisp" transform="translate(0,496.9)" d="M60,0h838" style="stroke: rgb(238, 238, 238); stroke-opacity: 1; stroke-width: 1px;"/><path class="ygrid crisp" transform="translate(0,399.41)" d="M60,0h838" style="stroke: rgb(238, 238, 238); stroke-opacity: 1; stroke-width: 1px;"/><path class="ygrid crisp" transform="translate(0,301.92)" d="M60,0h838" style="stroke: rgb(238, 238, 238); stroke-opacity: 1; stroke-width: 1px;"/><path class="ygrid crisp" transform="translate(0,204.43)" d="M60,0h838" style="stroke: rgb(238, 238, 238); stroke-opacity: 1; stroke-width: 1px;"/><path class="ygrid crisp" transform="translate(0,106.94)" d="M60,0h838" style="stroke: rgb(238, 238, 238); stroke-opacity: 1; stroke-width: 1px;"/></g></g><g class="zerolinelayer"><path class="yzl zl crisp" transform="translate(0,691.88)" d="M60,0h838" style="stroke: rgb(68, 68, 68); stroke-opacity: 1; stroke-width: 1px;"/></g><path class="xlines-below"/><path class="ylines-below"/><g class="overlines-below"/><g class="xaxislayer-below"/><g class="yaxislayer-below"/><g class="overaxes-below"/><g class="plot" transform="translate(60, 25)" clip-path="url('#clipd98a29xyplot')"><g class="scatterlayer mlayer"><g class="trace scatter traceaf504b" style="stroke-miterlimit: 2; opacity: 1;"><g class="fills"/><g class="errorbars"/><g class="lines"><path class="js-line" d="M0,666.88L4.6,666.88L9.21,667.85L13.81,667.85L27.63,665.9L36.84,666.88L41.44,665.9L46.04,665.9L59.86,655.18L64.46,664.93L69.07,666.88L73.67,665.9L78.27,662.98L82.88,664.93L92.09,660.05L96.69,666.88L101.3,661.03L105.9,650.3L110.51,647.38L115.11,643.48L119.71,625.93L124.32,635.68L128.92,656.15L133.53,642.5L138.13,624.96L142.74,608.38L147.34,611.31L151.95,623.98L156.55,591.81L161.15,585.96L165.76,574.26L170.36,503.09L174.97,538.19L179.57,520.64L184.18,92.67L188.78,413.41L193.38,251.57L197.99,275.95L202.59,216.48L207.2,301.29L211.8,269.12L216.41,365.64L221.01,297.39L225.62,130.69L230.22,196.01L234.82,200.88L239.43,266.2L244.03,275.95L248.64,256.45L253.24,196.01L257.85,185.28L262.45,165.78L267.05,117.04L271.66,194.06L276.26,113.14L280.87,76.1L285.47,129.71L290.08,169.68L294.68,48.8L299.29,42.95L303.89,202.83L308.49,240.85L313.1,253.52L317.7,155.06L322.31,328.59L326.91,219.4L331.52,256.45L336.12,168.71L340.73,243.78L345.33,306.17L349.93,289.59L354.54,265.22L359.14,277.9L363.75,201.86L368.35,329.57L372.96,380.26L377.56,366.61L382.16,314.94L386.77,346.14L391.37,330.54L395.98,334.44L400.58,285.7L405.19,335.41L409.79,370.51L414.4,250.6L419,286.67L423.6,264.25L428.21,236.95L432.81,265.22L437.42,218.43L442.02,273.02L446.63,387.08L451.23,382.21L455.84,293.49L460.44,331.51L465.04,351.99L469.65,349.06L474.25,273.02L478.86,232.08L483.46,337.36L488.07,319.82L492.67,331.51L497.27,223.3L501.88,262.3L506.48,429.98L511.09,442.65L515.69,422.18L520.3,468.97L524.9,489.45L529.51,407.56L534.11,474.82L538.71,490.42L543.32,487.5L547.92,481.65L552.53,498.22L557.13,493.35L561.74,466.05L566.34,496.27L570.95,509.92L575.55,456.3L580.15,507.97L584.76,482.62L589.36,558.66L593.97,510.89L598.57,493.35L603.18,416.33L607.78,513.82L612.38,521.62L616.99,517.72L621.59,506.02L626.2,548.91L635.41,516.74L640.01,557.69L644.62,551.84L649.22,501.14L653.82,553.79L658.43,540.14L663.03,541.12L667.64,553.79L672.24,558.66L676.85,567.44L681.45,558.66L686.05,558.66L690.66,505.04L695.26,506.99L699.87,535.27L704.47,468.97L709.08,506.02L713.68,566.46L718.29,476.77L722.89,532.34L727.49,533.32L732.1,550.86L736.7,558.66L741.31,592.78L745.91,580.11L750.52,536.24L755.12,545.99L759.73,553.79L764.33,581.09L768.93,578.16L773.54,583.04L778.14,574.26L782.75,581.09L787.35,598.63L791.96,589.86L796.56,554.76L801.16,634.7L805.77,574.26L810.37,590.83L814.98,577.19L819.58,563.54L824.19,587.91L828.79,570.36L833.4,545.01L838,567.44" style="vector-effect: non-scaling-stroke; fill: none; stroke: rgb(31, 119, 180); stroke-opacity: 1; stroke-width: 2px; opacity: 1;"/></g><g class="points"/><g class="text"/></g><g class="trace scatter trace402965" style="stroke-miterlimit: 2; opacity: 1;"><g class="fills"/><g class="errorbars"/><g class="lines"><path class="js-line" d="M0,666.88L4.6,666.88L9.21,665.9L13.81,665.9L27.63,666.88L69.07,666.88L73.67,665.9L78.27,666.88L82.88,666.88L92.09,666.88L96.69,665.9L101.3,666.88L105.9,666.88L142.74,666.88L147.34,665.9L151.95,664.93L156.55,666.88L179.57,666.88L184.18,254.5L188.78,566.46L193.38,515.77L197.99,528.44L202.59,479.7L207.2,475.8L211.8,442.65L216.41,496.27L221.01,493.35L225.62,401.71L230.22,441.68L234.82,404.63L239.43,390.01L244.03,410.48L248.64,436.8L253.24,461.17L257.85,341.26L262.45,382.21L267.05,313.97L271.66,355.89L276.26,341.26L280.87,368.56L285.47,383.18L290.08,262.3L294.68,219.4L299.29,270.1L303.89,255.47L308.49,188.21L313.1,155.06L317.7,238.9L322.31,35.15L326.91,88.77L331.52,62.45L336.12,116.07L340.73,67.32L345.33,179.43L349.93,399.76L354.54,235L359.14,328.59L363.75,256.45L368.35,283.75L372.96,287.65L377.56,316.89L382.16,413.41L386.77,224.28L391.37,316.89L395.98,240.85L400.58,297.39L405.19,335.41L409.79,395.86L414.4,413.41L423.6,355.89L428.21,415.35L432.81,297.39L437.42,344.19L442.02,451.43L446.63,413.41L451.23,263.27L455.84,373.43L460.44,364.66L465.04,306.17L469.65,221.35L474.25,332.49L478.86,344.19L483.46,348.09L488.07,279.85L492.67,301.29L497.27,312.02L501.88,369.54L506.48,432.9L511.09,338.34L515.69,129.71L520.3,174.56L524.9,372.46L529.51,324.69L534.11,254.5L538.71,421.2L543.32,454.35L547.92,322.74L552.53,452.4L557.13,427.05L561.74,454.35L566.34,422.18L575.55,497.25L580.15,443.63L584.76,479.7L589.36,446.55L593.97,493.35L598.57,496.27L603.18,580.11L607.78,522.59L612.38,489.45L616.99,468L621.59,492.37L626.2,497.25L630.8,488.47L635.41,510.89L640.01,494.32L644.62,469.95L649.22,499.19L653.82,493.35L658.43,406.58L663.03,557.69L667.64,541.12L672.24,547.94L676.85,535.27L681.45,529.42L686.05,568.41L690.66,538.19L695.26,556.71L699.87,563.54L704.47,577.19L709.08,465.07L713.68,519.67L718.29,533.32L722.89,530.39L727.49,550.86L732.1,567.44L736.7,563.54L741.31,497.25L745.91,506.02L750.52,503.09L755.12,507.97L759.73,547.94L764.33,544.04L768.93,553.79L773.54,524.54L778.14,511.87L782.75,551.84L787.35,562.56L791.96,522.59L796.56,567.44L801.16,593.76L805.77,536.24L810.37,570.36L814.98,585.96L819.58,568.41L824.19,588.88L828.79,585.96L833.4,579.14L838,580.11" style="vector-effect: non-scaling-stroke; fill: none; stroke: rgb(255, 127, 14); stroke-opacity: 1; stroke-width: 2px; opacity: 1;"/></g><g class="points"/><g class="text"/></g><g class="trace scatter traceec7ace" style="stroke-miterlimit: 2; opacity: 1;"><g class="fills"/><g class="errorbars"/><g class="lines"><path class="js-line" d="M0,666.88L124.32,666.88L128.92,665.9L133.53,666.88L138.13,665.9L142.74,666.88L147.34,665.9L151.95,664.93L156.55,665.9L161.15,664.93L165.76,662L170.36,664.93L174.97,663.95L179.57,665.9L184.18,662.98L188.78,657.13L193.38,662.98L197.99,651.28L202.59,653.23L207.2,640.55L211.8,642.5L216.41,654.2L221.01,646.4L225.62,646.4L230.22,641.53L234.82,645.43L239.43,636.65L244.03,646.4L248.64,650.3L253.24,624.96L257.85,617.16L262.45,629.83L267.05,613.26L271.66,631.78L276.26,628.85L280.87,636.65L285.47,629.83L290.08,630.8L294.68,614.23L299.29,618.13L303.89,620.08L308.49,643.48L313.1,611.31L317.7,609.36L322.31,623.01L326.91,583.04L331.52,628.85L336.12,613.26L340.73,627.88L345.33,584.98L349.93,607.41L354.54,600.58L359.14,620.08L363.75,605.46L368.35,609.36L372.96,632.75L377.56,632.75L382.16,612.28L386.77,627.88L395.98,640.55L400.58,634.7L405.19,644.45L409.79,644.45L414.4,652.25L419,624.96L423.6,636.65L428.21,639.58L432.81,640.55L437.42,642.5L442.02,638.6L446.63,646.4L451.23,635.68L455.84,633.73L460.44,626.9L465.04,650.3L469.65,648.35L474.25,657.13L478.86,650.3L483.46,648.35L488.07,623.01L492.67,652.25L497.27,632.75L501.88,648.35L506.48,643.48L511.09,653.23L515.69,656.15L520.3,655.18L524.9,656.15L529.51,658.1L534.11,655.18L538.71,659.08L543.32,656.15L547.92,655.18L552.53,663.95L557.13,656.15L561.74,636.65L566.34,656.15L570.95,663.95L575.55,657.13L580.15,655.18L584.76,657.13L589.36,663.95L593.97,659.08L598.57,661.03L603.18,660.05L607.78,660.05L612.38,662.98L616.99,662.98L621.59,664.93L626.2,662L630.8,664.93L635.41,666.88L640.01,664.93L644.62,658.1L649.22,663.95L653.82,660.05L658.43,661.03L663.03,663.95L667.64,663.95L672.24,665.9L676.85,658.1L681.45,662L686.05,658.1L690.66,664.93L695.26,663.95L699.87,665.9L704.47,665.9L709.08,664.93L713.68,666.88L718.29,663.95L722.89,665.9L727.49,662.98L732.1,665.9L736.7,662.98L741.31,665.9L745.91,663.95L750.52,663.95L764.33,666.88L768.93,662.98L773.54,666.88L778.14,665.9L782.75,666.88L787.35,665.9L791.96,664.93L796.56,666.88L801.16,666.88L805.77,665.9L810.37,666.88L814.98,665.9L819.58,665.9L824.19,666.88L828.79,666.88L833.4,662.98L838,667.85" style="vector-effect: non-scaling-stroke; fill: none; stroke: rgb(44, 160, 44); stroke-opacity: 1; stroke-width: 2px; opacity: 1;"/></g><g class="points"/><g class="text"/></g></g></g><g class="overplot"/><path class="xlines-above crisp" style="fill: none;" d="M0,0"/><path class="ylines-above crisp" style="fill: none;" d="M0,0"/><g class="overlines-above"/><g class="xaxislayer-above"><g class="xtick"><text text-anchor="middle" x="0" y="741" transform="translate(115.25,0)" style="font-family: 'Open Sans', verdana, arial, sans-serif; font-size: 12px; fill: rgb(68, 68, 68); fill-opacity: 1; white-space: pre;">Mar 2020</text></g><g class="xtick"><text text-anchor="middle" x="0" y="741" transform="translate(257.99,0)" style="font-family: 'Open Sans', verdana, arial, sans-serif; font-size: 12px; fill: rgb(68, 68, 68); fill-opacity: 1; white-space: pre;">Apr 2020</text></g><g class="xtick"><text text-anchor="middle" x="0" y="741" transform="translate(396.12,0)" style="font-family: 'Open Sans', verdana, arial, sans-serif; font-size: 12px; fill: rgb(68, 68, 68); fill-opacity: 1; white-space: pre;">May 2020</text></g><g class="xtick"><text text-anchor="middle" x="0" y="741" transform="translate(538.86,0)" style="font-family: 'Open Sans', verdana, arial, sans-serif; font-size: 12px; fill: rgb(68, 68, 68); fill-opacity: 1; white-space: pre;">Jun 2020</text></g><g class="xtick"><text text-anchor="middle" x="0" y="741" transform="translate(676.99,0)" style="font-family: 'Open Sans', verdana, arial, sans-serif; font-size: 12px; fill: rgb(68, 68, 68); fill-opacity: 1; white-space: pre;">Jul 2020</text></g><g class="xtick"><text text-anchor="middle" x="0" y="741" transform="translate(819.73,0)" style="font-family: 'Open Sans', verdana, arial, sans-serif; font-size: 12px; fill: rgb(68, 68, 68); fill-opacity: 1; white-space: pre;">Aug 2020</text></g></g><g class="yaxislayer-above"><g class="ytick"><text text-anchor="end" x="59" y="4.199999999999999" transform="translate(0,691.88)" style="font-family: 'Open Sans', verdana, arial, sans-serif; font-size: 12px; fill: rgb(68, 68, 68); fill-opacity: 1; white-space: pre;">0</text></g><g class="ytick"><text text-anchor="end" x="59" y="4.199999999999999" transform="translate(0,594.39)" style="font-family: 'Open Sans', verdana, arial, sans-serif; font-size: 12px; fill: rgb(68, 68, 68); fill-opacity: 1; white-space: pre;">100</text></g><g class="ytick"><text text-anchor="end" x="59" y="4.199999999999999" transform="translate(0,496.9)" style="font-family: 'Open Sans', verdana, arial, sans-serif; font-size: 12px; fill: rgb(68, 68, 68); fill-opacity: 1; white-space: pre;">200</text></g><g class="ytick"><text text-anchor="end" x="59" y="4.199999999999999" transform="translate(0,399.41)" style="font-family: 'Open Sans', verdana, arial, sans-serif; font-size: 12px; fill: rgb(68, 68, 68); fill-opacity: 1; white-space: pre;">300</text></g><g class="ytick"><text text-anchor="end" x="59" y="4.199999999999999" transform="translate(0,301.92)" style="font-family: 'Open Sans', verdana, arial, sans-serif; font-size: 12px; fill: rgb(68, 68, 68); fill-opacity: 1; white-space: pre;">400</text></g><g class="ytick"><text text-anchor="end" x="59" y="4.199999999999999" transform="translate(0,204.43)" style="font-family: 'Open Sans', verdana, arial, sans-serif; font-size: 12px; fill: rgb(68, 68, 68); fill-opacity: 1; white-space: pre;">500</text></g><g class="ytick"><text text-anchor="end" x="59" y="4.199999999999999" transform="translate(0,106.94)" style="font-family: 'Open Sans', verdana, arial, sans-serif; font-size: 12px; fill: rgb(68, 68, 68); fill-opacity: 1; white-space: pre;">600</text></g></g><g class="overaxes-above"/></g></g><g class="polarlayer"/><g class="ternarylayer"/><g class="geolayer"/><g class="funnelarealayer"/><g class="pielayer"/><g class="treemaplayer"/><g class="sunburstlayer"/><g class="glimages"/><defs id="topdefs-d98a29"><g class="clips"/><clipPath id="legendd98a29"><rect width="102" height="67" x="0" y="0"/></clipPath></defs><g class="layer-above"><g class="imagelayer"/><g class="shapelayer"/></g><g class="infolayer"><g class="legend" pointer-events="all" transform="translate(914.76, 25)"><rect class="bg" shape-rendering="crispEdges" style="stroke: rgb(68, 68, 68); stroke-opacity: 1; fill: rgb(255, 255, 255); fill-opacity: 1; stroke-width: 0px;" width="102" height="67" x="0" y="0"/><g class="scrollbox" transform="translate(0, 0)" clip-path="url('#legendd98a29')"><g class="groups"><g class="traces" style="opacity: 1;" transform="translate(0, 14.5)"><text class="legendtext user-select-none" text-anchor="start" x="40" y="4.680000000000001" style="font-family: 'Open Sans', verdana, arial, sans-serif; font-size: 12px; fill: rgb(68, 68, 68); fill-opacity: 1; white-space: pre;">positive</text><g class="layers" style="opacity: 1;"><g class="legendfill"/><g class="legendlines"><path class="js-line" d="M5,0h30" style="fill: none; stroke: rgb(31, 119, 180); stroke-opacity: 1; stroke-width: 2px;"/></g><g class="legendsymbols"><g class="legendpoints"/></g></g><rect class="legendtoggle" pointer-events="all" x="0" y="-9.5" width="96.109375" height="19" style="cursor: pointer; fill: rgb(0, 0, 0); fill-opacity: 0;"/></g><g class="traces" style="opacity: 1;" transform="translate(0, 33.5)"><text class="legendtext user-select-none" text-anchor="start" x="40" y="4.680000000000001" style="font-family: 'Open Sans', verdana, arial, sans-serif; font-size: 12px; fill: rgb(68, 68, 68); fill-opacity: 1; white-space: pre;">resolved</text><g class="layers" style="opacity: 1;"><g class="legendfill"/><g class="legendlines"><path class="js-line" d="M5,0h30" style="fill: none; stroke: rgb(255, 127, 14); stroke-opacity: 1; stroke-width: 2px;"/></g><g class="legendsymbols"><g class="legendpoints"/></g></g><rect class="legendtoggle" pointer-events="all" x="0" y="-9.5" width="96.109375" height="19" style="cursor: pointer; fill: rgb(0, 0, 0); fill-opacity: 0;"/></g><g class="traces" style="opacity: 1;" transform="translate(0, 52.5)"><text class="legendtext user-select-none" text-anchor="start" x="40" y="4.680000000000001" style="font-family: 'Open Sans', verdana, arial, sans-serif; font-size: 12px; fill: rgb(68, 68, 68); fill-opacity: 1; white-space: pre;">deceased</text><g class="layers" style="opacity: 1;"><g class="legendfill"/><g class="legendlines"><path class="js-line" d="M5,0h30" style="fill: none; stroke: rgb(44, 160, 44); stroke-opacity: 1; stroke-width: 2px;"/></g><g class="legendsymbols"><g class="legendpoints"/></g></g><rect class="legendtoggle" pointer-events="all" x="0" y="-9.5" width="96.109375" height="19" style="cursor: pointer; fill: rgb(0, 0, 0); fill-opacity: 0;"/></g></g></g><rect class="scrollbar" rx="20" ry="3" width="0" height="0" style="fill: rgb(128, 139, 164); fill-opacity: 1;" x="0" y="0"/></g><g class="g-gtitle"><text class="gtitle" x="513.5" y="12.5" text-anchor="middle" dy="0em" style="font-family: 'Open Sans', verdana, arial, sans-serif; font-size: 17px; fill: rgb(68, 68, 68); opacity: 1; font-weight: normal; white-space: pre;">Dynamics of new cases, resolved cases and deaths in Ontario (Aug 20, 2020)</text></g><g class="g-xtitle" transform="translate(0,-15)"><text class="xtitle" x="479" y="780" text-anchor="middle" style="font-family: 'Open Sans', verdana, arial, sans-serif; font-size: 14px; fill: rgb(68, 68, 68); opacity: 1; font-weight: normal; white-space: pre;">Date</text></g><g class="g-ytitle"><text class="ytitle" transform="rotate(-90,22,376.5)" x="22" y="376.5" text-anchor="middle" style="font-family: 'Open Sans', verdana, arial, sans-serif; font-size: 14px; fill: rgb(68, 68, 68); opacity: 1; font-weight: normal; white-space: pre;">Number of cases</text></g></g></svg>