<svg class="main-svg" xmlns="http://www.w3.org/2000/svg" xmlns:xlink="http://www.w3.org/1999/xlink" width="1027" height="768" style="" viewBox="0 0 1027 768"><rect x="0" y="0" width="1027" height="768" style="fill: rgb(255, 255, 255); fill-opacity: 1;"/><defs id="defs-1b6b08"><g class="clips"><clipPath id="clip1b6b08xyplot" class="plotclip"><rect width="838" height="703"/></clipPath><clipPath class="axesclip" id="clip1b6b08x"><rect x="60" y="0" width="838" height="768"/></clipPath><clipPath class="axesclip" id="clip1b6b08y"><rect x="0" y="25" width="1027" height="703"/></clipPath><clipPath class="axesclip" id="clip1b6b08xy"><rect x="60" y="25" width="838" height="703"/></clipPath></g><g class="gradients"/></defs><g class="bglayer"/><g class="layer-below"><g class="imagelayer"/><g class="shapelayer"/></g><g class="cartesianlayer"><g class="subplot xy"><g class="layer-subplot"><g class="shapelayer"/><g class="imagelayer"/></g><g class="gridlayer"><g class="x"><path class="xgrid crisp" transform="translate(83.55,0)" d="M0,25v703" style="stroke: rgb(238, 238, 238); stroke-opacity: 1; stroke-width: 1px;"/><path class="xgrid crisp" transform="translate(203.26,0)" d="M0,25v703" style="stroke: rgb(238, 238, 238); stroke-opacity: 1; stroke-width: 1px;"/><path class="xgrid crisp" transform="translate(322.98,0)" d="M0,25v703" style="stroke: rgb(238, 238, 238); stroke-opacity: 1; stroke-width: 1px;"/><path class="xgrid crisp" transform="translate(444.66,0)" d="M0,25v703" style="stroke: rgb(238, 238, 238); stroke-opacity: 1; stroke-width: 1px;"/><path class="xgrid crisp" transform="translate(564.37,0)" d="M0,25v703" style="stroke: rgb(238, 238, 238); stroke-opacity: 1; stroke-width: 1px;"/><path class="xgrid crisp" transform="translate(684.08,0)" d="M0,25v703" style="stroke: rgb(238, 238, 238); stroke-opacity: 1; stroke-width: 1px;"/><path class="xgrid crisp" transform="translate(799.87,0)" d="M0,25v703" style="stroke: rgb(238, 238, 238); stroke-opacity: 1; stroke-width: 1px;"/></g><g class="y"><path class="ygrid crisp" transform="translate(0,561.26)" d="M60,0h838" style="stroke: rgb(238, 238, 238); stroke-opacity: 1; stroke-width: 1px;"/><path class="ygrid crisp" transform="translate(0,429.81)" d="M60,0h838" style="stroke: rgb(238, 238, 238); stroke-opacity: 1; stroke-width: 1px;"/><path class="ygrid crisp" transform="translate(0,298.35)" d="M60,0h838" style="stroke: rgb(238, 238, 238); stroke-opacity: 1; stroke-width: 1px;"/><path class="ygrid crisp" transform="translate(0,166.89)" d="M60,0h838" style="stroke: rgb(238, 238, 238); stroke-opacity: 1; stroke-width: 1px;"/><path class="ygrid crisp" transform="translate(0,35.44)" d="M60,0h838" style="stroke: rgb(238, 238, 238); stroke-opacity: 1; stroke-width: 1px;"/></g></g><g class="zerolinelayer"><path class="yzl zl crisp" transform="translate(0,692.72)" d="M60,0h838" style="stroke: rgb(68, 68, 68); stroke-opacity: 1; stroke-width: 1px;"/></g><path class="xlines-below"/><path class="ylines-below"/><g class="overlines-below"/><g class="xaxislayer-below"/><g class="yaxislayer-below"/><g class="overaxes-below"/><g class="plot" transform="translate(60, 25)" clip-path="url('#clip1b6b08xyplot')"><g class="scatterlayer mlayer"><g class="trace scatter trace162780" style="stroke-miterlimit: 2; opacity: 1;"><g class="fills"/><g class="errorbars"/><g class="lines"><path class="js-line" d="M0,667.72L19.63,667.59L25.51,666.14L27.48,667.46L29.44,667.72L39.25,666.8L41.21,667.72L49.06,664.56L51.03,662.2L52.99,663.51L54.95,666.27L60.84,659.83L62.8,660.23L64.76,661.93L66.73,657.6L70.65,655.23L72.61,645.63L74.58,650.37L76.54,648L78.5,590.29L80.46,633.54L82.43,611.72L84.39,615L86.35,606.99L88.31,618.42L90.28,614.08L92.24,627.1L94.2,617.9L96.16,595.42L98.13,604.23L100.09,604.88L102.05,613.69L104.01,615L105.98,612.38L107.94,604.23L109.9,602.78L111.86,600.15L113.83,593.58L115.79,603.96L117.75,593.05L119.71,588.06L123.64,600.68L125.6,584.38L127.56,583.59L129.53,605.15L131.49,610.27L133.45,611.98L135.41,598.7L137.38,622.1L139.34,607.38L141.3,612.38L143.26,600.54L145.23,610.67L147.19,619.08L149.15,616.84L151.11,613.56L153.08,615.27L155.04,605.01L157,622.23L158.96,629.07L160.93,627.23L162.89,620.26L164.85,624.47L166.81,622.37L168.78,622.89L170.74,616.32L172.7,623.02L174.67,627.76L176.63,611.59L178.59,616.45L180.55,613.43L182.52,609.75L184.48,613.56L186.44,607.25L188.4,614.61L190.37,629.99L192.33,629.33L194.29,617.37L196.25,622.5L198.22,625.26L200.18,624.86L202.14,614.61L204.1,609.09L206.07,623.29L208.03,620.92L209.99,622.5L211.95,607.91L213.92,613.16L215.88,635.77L217.84,637.48L219.8,634.72L221.77,641.03L223.73,643.79L225.69,632.75L227.65,641.82L229.62,643.92L231.58,643.53L233.54,642.74L235.5,644.98L237.47,644.32L239.43,640.64L241.39,644.71L243.35,646.55L245.32,639.32L247.28,646.29L249.24,642.87L251.2,653.13L253.17,646.69L255.13,644.32L257.09,633.93L259.05,647.08L261.02,648.13L262.98,647.61L264.94,646.03L266.9,651.81L270.83,647.47L272.79,653L274.75,652.21L276.72,645.37L278.68,652.47L280.64,650.63L282.6,650.76L284.57,652.47L288.49,654.31L290.45,653.13L292.42,653.13L294.38,645.9L296.34,646.16L298.3,649.97L300.27,641.03L302.23,646.03L304.19,654.18L306.15,642.08L308.12,649.58L310.08,649.71L312.04,652.08L314,653.13L315.97,657.73L317.93,656.02L319.89,650.1L321.85,651.42L323.82,652.47L325.78,656.15L327.74,655.76L329.7,656.41L331.67,655.23L333.63,656.15L335.59,658.52L337.56,657.33L339.52,652.6L341.48,663.38L343.44,655.23L345.41,657.46L349.33,653.78L351.29,657.07L355.22,651.29L357.18,654.31L359.14,657.73L361.11,650.5L363.07,653.52L365.03,652.6L370.92,656.15L372.88,652.21L374.84,651.68L376.81,648.26L378.77,653L380.73,652.73L382.69,653L384.66,650.23L386.62,650.37L388.58,648.26L390.54,645.5L392.51,646.95L394.47,642.74L396.43,643.4L398.39,648.13L400.36,645.37L402.32,639.72L404.28,637.22L406.24,640.9L408.21,626.57L410.17,634.72L412.13,626.31L414.09,629.2L416.06,615L418.02,614.22L419.98,619.74L423.91,604.88L425.87,623.68L427.83,613.95L429.79,613.95L431.76,610.53L433.72,603.17L435.68,575.7L437.64,594.89L439.61,585.56L441.57,596.99L443.53,571.49L445.49,581.88L447.46,593.31L449.42,586.87L451.38,595.68L453.34,591.08L457.27,544.28L459.23,561.37L461.19,582.4L463.16,561.63L465.12,569.65L467.08,572.94L469.04,564.79L471.01,574.12L472.97,561.9L474.93,581.22L476.89,575.17L478.86,559.79L480.82,563.87L482.78,557.16L484.74,559.14L486.71,539.15L488.67,530.74L490.63,555.85L492.59,559L494.56,558.08L496.52,544.94L498.48,549.93L500.44,534.29L502.41,539.29L504.37,543.1L506.33,529.69L508.3,537.97L510.26,536.52L512.22,535.87L514.18,518.91L516.15,493.14L518.11,504.45L520.07,485.26L522.03,480.26L524,460.67L525.96,484.21L527.92,459.89L529.88,503.66L531.85,472.24L533.81,503.53L535.77,481.44L537.73,508.66L541.66,458.97L543.62,466.06L545.58,458.83L547.55,535.08L549.51,487.23L551.47,473.43L553.43,423.87L555.4,428.2L557.36,443.19L559.32,438.2L561.28,443.32L563.25,441.22L565.21,427.94L567.17,433.73L571.1,414.8L573.06,414.66L575.02,447.4L576.98,419.27L578.95,407.04L580.91,424.79L582.87,421.5L584.83,447.27L588.76,368.66L590.72,386.53L592.68,348.02L594.65,366.68L596.61,357.88L598.57,363.27L600.53,388.64L602.5,378.25L604.46,351.17L606.42,346.04L608.38,383.9L610.35,386.14L612.31,404.15L614.27,412.82L616.23,332.11L618.2,283.47L620.16,230.23L622.12,342.23L624.08,225.63L626.05,278.08L628.01,237.86L629.97,256.52L631.93,238.38L633.9,205.12L635.86,109.16L637.82,215.11L639.78,149.12L641.75,228.92L643.71,286.1L645.67,278.48L647.63,230.49L649.6,273.61L651.56,265.99L653.52,217.87L657.45,416.24L659.41,318.7L661.37,321.73L663.33,317.78L665.3,357.61L667.26,349.99L669.22,410.33L671.19,438.98L673.15,448.19L675.11,392.58L677.07,426.23L679.04,396.52L681,424.79L682.96,408.88L684.92,569.78L686.89,513.65L688.85,462.25L690.81,448.19L692.77,485.26L694.74,471.98L698.66,533.37L700.62,526.8L702.59,543.49L704.55,526.27L706.51,496.83L708.47,538.76L710.44,540.99L712.4,548.88L714.36,556.37L716.32,531.27L720.25,506.29L722.21,524.83L724.17,528.64L726.14,539.55L730.06,518.12L732.02,502.35L733.99,511.94L735.95,528.11L737.91,533.24L739.87,540.73L741.84,541.78L743.8,537.05L745.76,503.4L747.72,537.58L751.65,453.31L753.61,511.94L755.57,494.72L757.54,524.17L759.5,487.49L761.46,474.74L763.42,438.06L765.39,501.03L767.35,526.53L769.31,469.48L771.27,463.57L773.24,438.33L775.2,427.28L777.16,432.28L779.12,444.37L781.09,464.49L783.05,461.2L785.01,354.85L786.97,382.59L788.94,345.26L790.9,345.91L792.86,392.45L794.82,360.64L796.79,361.03L798.75,331.58L800.71,261.65L802.67,272.17L804.64,267.96L806.6,281.5L808.56,264.8L810.52,245.09L812.49,234.57L814.45,112.05L816.41,166.48L818.37,81.95L820.34,89.18L822.3,185.27L824.26,121.39L826.22,45.14L828.19,35.15L830.15,94.31L832.11,109.03L834.07,83.13L836.04,211.7L838,114.02" style="vector-effect: non-scaling-stroke; fill: none; stroke: rgb(31, 119, 180); stroke-opacity: 1; stroke-width: 2px; opacity: 1;"/></g><g class="points"/><g class="text"/></g><g class="trace scatter traceb62e8f" style="stroke-miterlimit: 2; opacity: 1;"><g class="fills"/><g class="errorbars"/><g class="lines"><path class="js-line" d="M0,667.72L76.54,667.72L78.5,612.11L80.46,654.18L82.43,647.34L84.39,649.05L86.35,642.48L88.31,641.95L90.28,637.48L92.24,644.71L94.2,644.32L96.16,631.96L98.13,637.35L100.09,632.36L102.05,630.38L107.94,639.98L109.9,623.81L111.86,629.33L113.83,620.13L115.79,625.78L117.75,623.81L119.71,627.49L121.68,629.46L123.64,613.16L125.6,607.38L127.56,614.22L129.53,612.24L131.49,603.17L133.45,598.7L135.41,610.01L137.38,582.53L139.34,589.76L141.3,586.22L143.26,593.45L145.23,586.87L147.19,601.99L149.15,631.7L151.11,609.48L153.08,622.1L155.04,612.38L157,616.06L158.96,616.58L160.93,620.53L162.89,633.54L164.85,608.04L166.81,620.53L168.78,610.27L174.67,631.17L176.63,633.54L180.55,625.78L182.52,633.8L184.48,617.9L186.44,624.21L188.4,638.67L190.37,633.54L192.33,613.3L194.29,628.15L196.25,626.97L198.22,619.08L200.18,607.64L202.14,622.63L204.1,624.21L206.07,624.73L208.03,615.53L209.99,618.42L211.95,619.87L213.92,627.62L215.88,636.17L217.84,623.42L219.8,595.29L221.77,601.33L223.73,628.02L225.69,621.58L227.65,612.11L229.62,634.59L231.58,639.06L233.54,621.31L235.5,638.8L237.47,635.38L239.43,639.06L241.39,634.72L245.32,644.85L247.28,637.62L249.24,642.48L251.2,638.01L253.17,644.32L255.13,644.71L257.09,656.02L259.05,648.26L262.98,640.9L264.94,644.19L266.9,644.85L268.87,643.66L270.83,646.69L272.79,644.45L274.75,641.16L276.72,645.11L278.68,644.32L280.64,632.62L282.6,653L284.57,650.76L286.53,651.68L288.49,649.97L290.45,649.18L292.42,654.44L294.38,650.37L296.34,652.86L298.3,653.78L300.27,655.62L302.23,640.51L304.19,647.87L306.15,649.71L308.12,649.31L312.04,654.31L314,653.78L315.97,644.85L317.93,646.03L319.89,645.63L321.85,646.29L323.82,651.68L325.78,651.16L327.74,652.47L329.7,648.53L331.67,646.82L333.63,652.21L335.59,653.65L337.56,648.26L339.52,654.31L341.48,657.86L343.44,650.1L345.41,654.7L347.37,656.81L349.33,654.44L351.29,657.2L353.26,656.81L355.22,655.89L357.18,656.02L359.14,657.73L361.11,653.78L363.07,655.89L365.03,653.52L366.99,657.46L368.96,657.86L370.92,652.6L372.88,657.6L374.84,656.81L376.81,654.18L378.77,657.46L380.73,658.12L382.69,655.62L384.66,649.71L386.62,652.08L388.58,652.47L390.54,653.78L392.51,653.13L394.47,652.08L396.43,652.08L398.39,649.84L400.36,649.05L402.32,651.42L404.28,652.08L408.21,650.23L410.17,652.34L414.09,644.19L416.06,644.58L418.02,644.45L419.98,642.61L421.94,644.32L423.91,641.95L425.87,633.8L427.83,630.12L429.79,630.52L431.76,623.29L433.72,629.73L435.68,624.21L437.64,625.26L439.61,607.64L441.57,600.02L443.53,611.46L445.49,610.53L447.46,597.52L451.38,595.94L453.34,574.78L455.31,576.36L457.27,572.54L459.23,575.7L461.19,575.04L465.12,585.69L467.08,564.79L469.04,565.31L471.01,573.99L472.97,578.07L474.93,577.67L476.89,587.92L478.86,585.16L480.82,573.2L482.78,570.31L484.74,571.36L486.71,585.56L488.67,570.97L490.63,578.46L492.59,576.88L494.56,566.1L496.52,559.92L498.48,563.08L500.44,562.82L502.41,554.14L504.37,559.14L506.33,557.69L508.3,543.49L510.26,543.1L512.22,542.97L514.18,555.72L516.15,552.43L518.11,559.79L520.07,565.05L522.03,551.25L524,547.17L525.96,533.9L527.92,535.87L529.88,528.11L531.85,537.31L533.81,518.52L535.77,471.19L537.73,486.83L539.7,481.71L541.66,488.54L545.58,472.64L547.55,525.48L549.51,473.69L551.47,488.28L555.4,469.22L557.36,478.03L559.32,494.2L561.28,487.23L563.25,446.08L565.21,465.14L567.17,463.57L569.13,454.23L571.1,460.81L573.06,482.1L575.02,464.09L576.98,414.8L578.95,430.57L580.91,437.28L582.87,415.59L584.83,447.13L586.8,465.93L588.76,429.78L590.72,399.15L592.68,403.62L594.65,405.86L596.61,422.55L598.57,413.88L600.53,450.29L602.5,417.95L604.46,372.86L606.42,403.1L608.38,373.65L610.35,416.24L612.31,404.15L614.27,384.96L616.23,374.18L618.2,373.65L620.16,376.81L622.12,344.34L624.08,397.71L626.05,381.8L628.01,395.08L629.97,402.83L631.93,272.69L633.9,302.8L635.86,307.79L637.82,284.52L639.78,339.6L641.75,305.42L643.71,226.94L645.67,221.82L647.63,195.4L651.56,245.48L653.52,263.1L655.48,296.22L657.45,290.04L659.41,179.49L661.37,274.66L663.33,224.05L665.3,270.06L671.19,370.5L673.15,309.5L675.11,340.26L677.07,286.49L682.96,387.45L684.92,365.76L686.89,438.33L688.85,410.59L690.81,374.18L692.77,431.62L694.74,413.09L696.7,444.24L698.66,485.26L700.62,443.06L702.59,491.04L704.55,481.71L706.51,479.21L708.47,505.37L712.4,521.54L714.36,476.32L716.32,499.85L718.29,502.74L720.25,495.12L722.21,517.86L724.17,525.35L726.14,536L728.1,498.01L730.06,523.91L732.02,535.34L733.99,538.37L735.95,532.45L737.91,544.28L739.87,539.02L741.84,524.43L743.8,526.8L745.76,515.36L747.72,516.28L749.69,522.46L751.65,537.05L753.61,539.94L755.57,508.39L757.54,521.8L759.5,519.96L761.46,516.41L763.42,514.31L765.39,521.28L767.35,525.09L769.31,472.11L771.27,505.24L773.24,497.35L775.2,501.95L777.16,489.86L779.12,513.26L781.09,500.64L783.05,466.46L785.01,493.01L786.97,447.53L788.94,473.03L790.9,464.88L792.86,467.38L794.82,473.56L796.79,408.35L798.75,429.26L800.71,414.66L802.67,428.6L804.64,418.08L806.6,436.22L808.56,407.96L810.52,351.3L812.49,329.09L814.45,320.54L816.41,349.33L818.37,323.7L820.34,346.31L822.3,329.48L824.26,252.32L826.22,250.48L828.19,253.5L830.15,193.03L832.11,228.92L834.07,253.24L836.04,224.84L838,115.08" style="vector-effect: non-scaling-stroke; fill: none; stroke: rgb(255, 127, 14); stroke-opacity: 1; stroke-width: 2px; opacity: 1;"/></g><g class="points"/><g class="text"/></g><g class="trace scatter trace5cdf85" style="stroke-miterlimit: 2; opacity: 1;"><g class="fills"/><g class="errorbars"/><g class="lines"><path class="js-line" d="M0,667.72L78.5,667.19L80.46,666.4L82.43,667.19L84.39,665.62L86.35,665.88L88.31,664.17L90.28,664.43L92.24,666.01L94.2,664.96L96.16,664.96L98.13,664.3L100.09,664.83L102.05,663.64L104.01,664.96L105.98,665.48L107.94,662.07L109.9,661.01L111.86,662.72L113.83,660.49L115.79,662.99L117.75,662.59L119.71,663.64L121.68,662.72L123.64,662.85L125.6,660.62L127.56,661.15L129.53,661.41L131.49,664.56L133.45,660.23L135.41,659.96L137.38,661.8L139.34,656.41L141.3,662.59L143.26,660.49L145.23,662.46L147.19,656.68L149.15,659.7L151.11,658.78L153.08,661.41L155.04,659.44L157,659.96L158.96,663.12L160.93,663.12L162.89,660.36L164.85,662.46L166.81,663.38L168.78,664.17L170.74,663.38L172.7,664.7L174.67,664.7L176.63,665.75L178.59,662.07L180.55,663.64L182.52,664.04L188.4,663.91L190.37,664.96L192.33,663.51L194.29,663.25L196.25,662.33L198.22,665.48L200.18,665.22L202.14,666.4L206.07,665.22L208.03,661.8L209.99,665.75L211.95,663.12L213.92,665.22L215.88,664.56L217.84,665.88L219.8,666.27L227.65,666.14L229.62,666.67L233.54,666.14L235.5,667.32L237.47,666.27L239.43,663.64L241.39,666.27L243.35,667.32L247.28,666.14L249.24,666.4L251.2,667.32L253.17,666.67L261.02,667.19L262.98,667.19L270.83,667.72L272.79,667.46L274.75,666.54L276.72,667.32L280.64,666.93L282.6,667.32L286.53,667.59L288.49,666.54L290.45,667.06L292.42,666.54L294.38,667.46L296.34,667.32L304.19,667.72L306.15,667.32L312.04,667.59L314,667.19L317.93,667.32L319.89,667.32L333.63,667.72L335.59,667.59L343.44,667.59L345.41,667.72L355.22,667.19L357.18,667.85L363.07,667.59L365.03,667.72L374.84,666.93L376.81,667.72L386.62,667.72L388.58,667.85L400.36,667.59L402.32,667.85L410.17,667.19L412.13,667.46L423.91,667.32L425.87,667.32L431.76,667.72L433.72,667.46L441.57,667.32L443.53,657.73L447.46,666.8L449.42,667.06L451.38,666.8L453.34,667.59L459.23,666.8L461.19,667.59L465.12,666.54L467.08,667.72L472.97,666.4L474.93,667.06L478.86,667.32L480.82,666.54L494.56,667.06L496.52,666.4L504.37,666.8L506.33,665.88L510.26,666.01L512.22,665.88L516.15,666.01L518.11,666.14L525.96,665.22L527.92,665.09L529.88,663.91L531.85,666.4L533.81,666.14L535.77,663.51L537.73,664.04L539.7,666.67L541.66,664.96L543.62,665.88L545.58,665.22L547.55,665.88L549.51,663.12L551.47,664.96L553.43,665.09L555.4,663.91L557.36,664.56L559.32,666.67L561.28,666.8L563.25,663.12L565.21,665.88L567.17,664.43L571.1,665.75L573.06,664.3L575.02,666.4L576.98,664.04L580.91,661.8L582.87,665.48L584.83,665.62L586.8,664.7L588.76,665.09L590.72,662.07L592.68,664.7L594.65,662.46L596.61,664.17L598.57,664.43L600.53,665.48L602.5,664.96L604.46,662.33L606.42,661.28L610.35,662.72L612.31,665.35L614.27,662.85L616.23,662.33L618.2,665.22L620.16,660.36L624.08,661.93L626.05,664.43L628.01,663.91L629.97,661.01L631.93,662.85L633.9,656.02L635.86,664.3L637.82,662.46L639.78,659.7L641.75,663.91L643.71,662.33L645.67,657.99L647.63,659.57L649.6,654.57L651.56,661.01L653.52,658.65L655.48,664.56L657.45,661.67L659.41,656.02L661.37,661.67L663.33,656.28L665.3,660.88L669.22,662.07L671.19,659.44L673.15,661.28L675.11,660.36L677.07,660.09L679.04,658.12L681,662.07L682.96,662.99L684.92,665.88L686.89,658.91L688.85,656.15L690.81,661.8L692.77,661.8L694.74,664.83L696.7,663.38L698.66,665.48L700.62,662.33L702.59,665.35L706.51,665.22L708.47,662.2L710.44,666.01L712.4,666.01L714.36,666.4L716.32,661.93L718.29,661.54L720.25,664.04L722.21,666.01L724.17,666.27L728.1,666.54L730.06,664.7L732.02,664.04L733.99,665.62L735.95,665.09L737.91,666.93L741.84,665.48L743.8,666.4L745.76,664.83L747.72,666.93L749.69,665.75L751.65,666.4L753.61,666.93L755.57,665.62L757.54,666.4L759.5,665.35L761.46,666.27L763.42,665.75L765.39,666.54L767.35,666.27L771.27,665.75L773.24,666.4L775.2,666.27L777.16,665.35L779.12,667.32L781.09,666.54L783.05,666.4L785.01,665.48L786.97,666.14L788.94,665.62L790.9,665.22L792.86,666.4L800.71,664.7L802.67,665.62L808.56,666.67L810.52,665.48L818.37,664.96L820.34,665.75L822.3,665.75L824.26,664.04L828.19,664.43L830.15,663.25L832.11,665.35L834.07,665.22L836.04,664.83L838,663.51" style="vector-effect: non-scaling-stroke; fill: none; stroke: rgb(44, 160, 44); stroke-opacity: 1; stroke-width: 2px; opacity: 1;"/></g><g class="points"/><g class="text"/></g></g></g><g class="overplot"/><path class="xlines-above crisp" style="fill: none;" d="M0,0"/><path class="ylines-above crisp" style="fill: none;" d="M0,0"/><g class="overlines-above"/><g class="xaxislayer-above"><g class="xtick"><text text-anchor="middle" x="0" y="741" transform="translate(83.55,0)" style="font-family: 'Open Sans', verdana, arial, sans-serif; font-size: 12px; fill: rgb(68, 68, 68); fill-opacity: 1; white-space: pre;">Mar 2020</text></g><g class="xtick"><text text-anchor="middle" x="0" y="741" transform="translate(203.26,0)" style="font-family: 'Open Sans', verdana, arial, sans-serif; font-size: 12px; fill: rgb(68, 68, 68); fill-opacity: 1; white-space: pre;">May 2020</text></g><g class="xtick"><text text-anchor="middle" x="0" y="741" transform="translate(322.98,0)" style="font-family: 'Open Sans', verdana, arial, sans-serif; font-size: 12px; fill: rgb(68, 68, 68); fill-opacity: 1; white-space: pre;">Jul 2020</text></g><g class="xtick"><text text-anchor="middle" x="0" y="741" transform="translate(444.66,0)" style="font-family: 'Open Sans', verdana, arial, sans-serif; font-size: 12px; fill: rgb(68, 68, 68); fill-opacity: 1; white-space: pre;">Sep 2020</text></g><g class="xtick"><text text-anchor="middle" x="0" y="741" transform="translate(564.37,0)" style="font-family: 'Open Sans', verdana, arial, sans-serif; font-size: 12px; fill: rgb(68, 68, 68); fill-opacity: 1; white-space: pre;">Nov 2020</text></g><g class="xtick"><text text-anchor="middle" x="0" y="741" transform="translate(684.08,0)" style="font-family: 'Open Sans', verdana, arial, sans-serif; font-size: 12px; fill: rgb(68, 68, 68); fill-opacity: 1; white-space: pre;">Jan 2021</text></g><g class="xtick"><text text-anchor="middle" x="0" y="741" transform="translate(799.87,0)" style="font-family: 'Open Sans', verdana, arial, sans-serif; font-size: 12px; fill: rgb(68, 68, 68); fill-opacity: 1; white-space: pre;">Mar 2021</text></g></g><g class="yaxislayer-above"><g class="ytick"><text text-anchor="end" x="59" y="4.199999999999999" transform="translate(0,692.72)" style="font-family: 'Open Sans', verdana, arial, sans-serif; font-size: 12px; fill: rgb(68, 68, 68); fill-opacity: 1; white-space: pre;">0</text></g><g class="ytick"><text text-anchor="end" x="59" y="4.199999999999999" transform="translate(0,561.26)" style="font-family: 'Open Sans', verdana, arial, sans-serif; font-size: 12px; fill: rgb(68, 68, 68); fill-opacity: 1; white-space: pre;">1000</text></g><g class="ytick"><text text-anchor="end" x="59" y="4.199999999999999" transform="translate(0,429.81)" style="font-family: 'Open Sans', verdana, arial, sans-serif; font-size: 12px; fill: rgb(68, 68, 68); fill-opacity: 1; white-space: pre;">2000</text></g><g class="ytick"><text text-anchor="end" x="59" y="4.199999999999999" transform="translate(0,298.35)" style="font-family: 'Open Sans', verdana, arial, sans-serif; font-size: 12px; fill: rgb(68, 68, 68); fill-opacity: 1; white-space: pre;">3000</text></g><g class="ytick"><text text-anchor="end" x="59" y="4.199999999999999" transform="translate(0,166.89)" style="font-family: 'Open Sans', verdana, arial, sans-serif; font-size: 12px; fill: rgb(68, 68, 68); fill-opacity: 1; white-space: pre;">4000</text></g><g class="ytick"><text text-anchor="end" x="59" y="4.199999999999999" transform="translate(0,35.44)" style="font-family: 'Open Sans', verdana, arial, sans-serif; font-size: 12px; fill: rgb(68, 68, 68); fill-opacity: 1; white-space: pre;">5000</text></g></g><g class="overaxes-above"/></g></g><g class="polarlayer"/><g class="ternarylayer"/><g class="geolayer"/><g class="funnelarealayer"/><g class="pielayer"/><g class="treemaplayer"/><g class="sunburstlayer"/><g class="glimages"/><defs id="topdefs-1b6b08"><g class="clips"/><clipPath id="legend1b6b08"><rect width="102" height="67" x="0" y="0"/></clipPath></defs><g class="layer-above"><g class="imagelayer"/><g class="shapelayer"/></g><g class="infolayer"><g class="legend" pointer-events="all" transform="translate(914.76, 25)"><rect class="bg" shape-rendering="crispEdges" style="stroke: rgb(68, 68, 68); stroke-opacity: 1; fill: rgb(255, 255, 255); fill-opacity: 1; stroke-width: 0px;" width="102" height="67" x="0" y="0"/><g class="scrollbox" transform="translate(0, 0)" clip-path="url('#legend1b6b08')"><g class="groups"><g class="traces" style="opacity: 1;" transform="translate(0, 14.5)"><text class="legendtext" text-anchor="start" x="40" y="4.680000000000001" style="font-family: 'Open Sans', verdana, arial, sans-serif; font-size: 12px; fill: rgb(68, 68, 68); fill-opacity: 1; white-space: pre;">positive</text><g class="layers" style="opacity: 1;"><g class="legendfill"/><g class="legendlines"><path class="js-line" d="M5,0h30" style="fill: none; stroke: rgb(31, 119, 180); stroke-opacity: 1; stroke-width: 2px;"/></g><g class="legendsymbols"><g class="legendpoints"/></g></g><rect class="legendtoggle" x="0" y="-9.5" width="96.109375" height="19" style="fill: rgb(0, 0, 0); fill-opacity: 0;"/></g><g class="traces" style="opacity: 1;" transform="translate(0, 33.5)"><text class="legendtext" text-anchor="start" x="40" y="4.680000000000001" style="font-family: 'Open Sans', verdana, arial, sans-serif; font-size: 12px; fill: rgb(68, 68, 68); fill-opacity: 1; white-space: pre;">resolved</text><g class="layers" style="opacity: 1;"><g class="legendfill"/><g class="legendlines"><path class="js-line" d="M5,0h30" style="fill: none; stroke: rgb(255, 127, 14); stroke-opacity: 1; stroke-width: 2px;"/></g><g class="legendsymbols"><g class="legendpoints"/></g></g><rect class="legendtoggle" x="0" y="-9.5" width="96.109375" height="19" style="fill: rgb(0, 0, 0); fill-opacity: 0;"/></g><g class="traces" style="opacity: 1;" transform="translate(0, 52.5)"><text class="legendtext" text-anchor="start" x="40" y="4.680000000000001" style="font-family: 'Open Sans', verdana, arial, sans-serif; font-size: 12px; fill: rgb(68, 68, 68); fill-opacity: 1; white-space: pre;">deceased</text><g class="layers" style="opacity: 1;"><g class="legendfill"/><g class="legendlines"><path class="js-line" d="M5,0h30" style="fill: none; stroke: rgb(44, 160, 44); stroke-opacity: 1; stroke-width: 2px;"/></g><g class="legendsymbols"><g class="legendpoints"/></g></g><rect class="legendtoggle" x="0" y="-9.5" width="96.109375" height="19" style="fill: rgb(0, 0, 0); fill-opacity: 0;"/></g></g></g><rect class="scrollbar" rx="20" ry="3" width="0" height="0" style="fill: rgb(128, 139, 164); fill-opacity: 1;" x="0" y="0"/></g><g class="g-gtitle"><text class="gtitle" x="513.5" y="12.5" text-anchor="middle" dy="0em" style="font-family: 'Open Sans', verdana, arial, sans-serif; font-size: 17px; fill: rgb(68, 68, 68); opacity: 1; font-weight: normal; white-space: pre;">Dynamics of new cases, resolved cases and deaths in Ontario (Apr 21, 2021)</text></g><g class="g-xtitle" transform="translate(0,-15)"><text class="xtitle" x="479" y="780" text-anchor="middle" style="font-family: 'Open Sans', verdana, arial, sans-serif; font-size: 14px; fill: rgb(68, 68, 68); opacity: 1; font-weight: normal; white-space: pre;">Date</text></g><g class="g-ytitle"><text class="ytitle" transform="rotate(-90,22,376.5)" x="22" y="376.5" text-anchor="middle" style="font-family: 'Open Sans', verdana, arial, sans-serif; font-size: 14px; fill: rgb(68, 68, 68); opacity: 1; font-weight: normal; white-space: pre;">Number of cases</text></g></g></svg>