<svg class="main-svg" xmlns="http://www.w3.org/2000/svg" xmlns:xlink="http://www.w3.org/1999/xlink" width="1027" height="768" style="" viewBox="0 0 1027 768"><rect x="0" y="0" width="1027" height="768" style="fill: rgb(255, 255, 255); fill-opacity: 1;"/><defs id="defs-630cad"><g class="clips"><clipPath id="clip630cadxyplot" class="plotclip"><rect width="838" height="703"/></clipPath><clipPath class="axesclip" id="clip630cadx"><rect x="60" y="0" width="838" height="768"/></clipPath><clipPath class="axesclip" id="clip630cady"><rect x="0" y="25" width="1027" height="703"/></clipPath><clipPath class="axesclip" id="clip630cadxy"><rect x="60" y="25" width="838" height="703"/></clipPath></g><g class="gradients"/></defs><g class="bglayer"/><g class="layer-below"><g class="imagelayer"/><g class="shapelayer"/></g><g class="cartesianlayer"><g class="subplot xy"><g class="layer-subplot"><g class="shapelayer"/><g class="imagelayer"/></g><g class="gridlayer"><g class="x"><path class="xgrid crisp" transform="translate(80.36,0)" d="M0,25v703" style="stroke: rgb(238, 238, 238); stroke-opacity: 1; stroke-width: 1px;"/><path class="xgrid crisp" transform="translate(183.82999999999998,0)" d="M0,25v703" style="stroke: rgb(238, 238, 238); stroke-opacity: 1; stroke-width: 1px;"/><path class="xgrid crisp" transform="translate(287.31,0)" d="M0,25v703" style="stroke: rgb(238, 238, 238); stroke-opacity: 1; stroke-width: 1px;"/><path class="xgrid crisp" transform="translate(392.49,0)" d="M0,25v703" style="stroke: rgb(238, 238, 238); stroke-opacity: 1; stroke-width: 1px;"/><path class="xgrid crisp" transform="translate(495.96,0)" d="M0,25v703" style="stroke: rgb(238, 238, 238); stroke-opacity: 1; stroke-width: 1px;"/><path class="xgrid crisp" transform="translate(599.44,0)" d="M0,25v703" style="stroke: rgb(238, 238, 238); stroke-opacity: 1; stroke-width: 1px;"/><path class="xgrid crisp" transform="translate(699.53,0)" d="M0,25v703" style="stroke: rgb(238, 238, 238); stroke-opacity: 1; stroke-width: 1px;"/><path class="xgrid crisp" transform="translate(803,0)" d="M0,25v703" style="stroke: rgb(238, 238, 238); stroke-opacity: 1; stroke-width: 1px;"/></g><g class="y"><path class="ygrid crisp" transform="translate(0,561.26)" d="M60,0h838" style="stroke: rgb(238, 238, 238); stroke-opacity: 1; stroke-width: 1px;"/><path class="ygrid crisp" transform="translate(0,429.81)" d="M60,0h838" style="stroke: rgb(238, 238, 238); stroke-opacity: 1; stroke-width: 1px;"/><path class="ygrid crisp" transform="translate(0,298.35)" d="M60,0h838" style="stroke: rgb(238, 238, 238); stroke-opacity: 1; stroke-width: 1px;"/><path class="ygrid crisp" transform="translate(0,166.89)" d="M60,0h838" style="stroke: rgb(238, 238, 238); stroke-opacity: 1; stroke-width: 1px;"/><path class="ygrid crisp" transform="translate(0,35.44)" d="M60,0h838" style="stroke: rgb(238, 238, 238); stroke-opacity: 1; stroke-width: 1px;"/></g></g><g class="zerolinelayer"><path class="yzl zl crisp" transform="translate(0,692.72)" d="M60,0h838" style="stroke: rgb(68, 68, 68); stroke-opacity: 1; stroke-width: 1px;"/></g><path class="xlines-below"/><path class="ylines-below"/><g class="overlines-below"/><g class="xaxislayer-below"/><g class="yaxislayer-below"/><g class="overaxes-below"/><g class="plot" transform="translate(60, 25)" clip-path="url('#clip630cadxyplot')"><g class="scatterlayer mlayer"><g class="trace scatter tracec9fac3" style="stroke-miterlimit: 2; opacity: 1;"><g class="fills"/><g class="errorbars"/><g class="lines"><path class="js-line" d="M0,667.72L16.96,667.59L22.05,666.14L23.75,667.46L25.45,667.72L33.93,666.8L35.62,667.72L42.41,664.56L44.11,662.2L45.8,663.51L47.5,666.27L52.59,659.83L54.28,660.23L55.98,661.93L57.68,657.6L61.07,655.23L62.77,645.63L64.46,650.37L66.16,648L67.85,590.29L69.55,633.54L71.25,611.72L72.94,615L74.64,606.99L76.34,618.42L78.03,614.08L79.73,627.1L81.43,617.9L83.12,595.42L84.82,604.23L86.51,604.88L88.21,613.69L89.91,615L91.6,612.38L93.3,604.23L95,602.78L96.69,600.15L98.39,593.58L100.09,603.96L101.78,593.05L103.48,588.06L106.87,600.68L108.57,584.38L110.26,583.59L111.96,605.15L113.66,610.27L115.35,611.98L117.05,598.7L118.74,622.1L120.44,607.38L122.14,612.38L123.83,600.54L125.53,610.67L127.23,619.08L128.92,616.84L130.62,613.56L132.32,615.27L134.01,605.01L135.71,622.23L137.4,629.07L139.1,627.23L140.8,620.26L142.49,624.47L144.19,622.37L145.89,622.89L147.58,616.32L149.28,623.02L150.98,627.76L152.67,611.59L154.37,616.45L156.06,613.43L157.76,609.75L159.46,613.56L161.15,607.25L162.85,614.61L164.55,629.99L166.24,629.33L167.94,617.37L169.64,622.5L171.33,625.26L173.03,624.86L174.72,614.61L176.42,609.09L178.12,623.29L179.81,620.92L181.51,622.5L183.21,607.91L184.9,613.16L186.6,635.77L188.3,637.48L189.99,634.72L191.69,641.03L193.38,643.79L195.08,632.75L196.78,641.82L198.47,643.92L200.17,643.53L201.87,642.74L203.56,644.98L205.26,644.32L206.96,640.64L208.65,644.71L210.35,646.55L212.04,639.32L213.74,646.29L215.44,642.87L217.13,653.13L218.83,646.69L220.53,644.32L222.22,633.93L223.92,647.08L225.62,648.13L227.31,647.61L229.01,646.03L230.7,651.81L234.1,647.47L235.79,653L237.49,652.21L239.19,645.37L240.88,652.47L242.58,650.63L244.28,650.76L245.97,652.47L249.36,654.31L251.06,653.13L252.76,653.13L254.45,645.9L256.15,646.16L257.85,649.97L259.54,641.03L261.24,646.03L262.94,654.18L264.63,642.08L266.33,649.58L268.02,649.71L269.72,652.08L271.42,653.13L273.11,657.73L274.81,656.02L276.51,650.1L278.2,651.42L279.9,652.47L281.6,656.15L283.29,655.76L284.99,656.41L286.68,655.23L288.38,656.15L290.08,658.52L291.77,657.33L293.47,652.6L295.17,663.38L296.86,655.23L298.56,657.46L301.95,653.78L303.65,657.07L307.04,651.29L308.74,654.31L310.43,657.73L312.13,650.5L313.83,653.52L315.52,652.6L320.61,656.15L322.31,652.21L324,651.68L325.7,648.26L327.4,653L329.09,652.73L330.79,653L332.49,650.23L334.18,650.37L335.88,648.26L337.57,645.5L339.27,646.95L340.97,642.74L342.66,643.4L344.36,648.13L346.06,645.37L347.75,639.72L349.45,637.22L351.15,640.9L352.84,626.57L354.54,634.72L356.23,626.31L357.93,629.2L359.63,615L361.32,614.22L363.02,619.74L366.41,604.88L368.11,623.68L369.81,613.95L371.5,613.95L373.2,610.53L374.89,603.17L376.59,575.7L378.29,594.89L379.98,585.56L381.68,596.99L383.38,571.49L385.07,581.88L386.77,593.31L388.47,586.87L390.16,595.68L391.86,591.08L395.25,544.28L396.95,561.37L398.64,582.4L400.34,561.63L402.04,569.65L403.73,572.94L405.43,564.79L407.13,574.12L408.82,561.9L410.52,581.22L412.21,575.17L413.91,559.79L415.61,563.87L417.3,557.16L419,559.14L420.7,539.15L422.39,530.74L424.09,555.85L425.79,559L427.48,558.08L429.18,544.94L430.87,549.93L432.57,534.29L434.27,539.29L435.96,543.1L437.66,529.69L439.36,537.97L441.05,536.52L442.75,535.87L444.45,518.91L446.14,493.14L447.84,504.45L449.53,485.26L451.23,480.26L452.93,460.67L454.62,484.21L456.32,459.89L458.02,503.66L459.71,472.24L461.41,503.53L463.11,481.44L464.8,508.66L468.19,458.97L469.89,466.06L471.59,458.83L473.28,535.08L474.98,487.23L476.68,473.43L478.37,423.87L480.07,428.2L481.77,443.19L483.46,438.2L485.16,443.32L486.85,441.22L488.55,427.94L490.25,433.73L493.64,414.8L495.34,414.66L497.03,447.4L498.73,419.27L500.43,407.04L502.12,424.79L503.82,421.5L505.51,447.27L508.91,368.66L510.6,386.53L512.3,348.02L514,366.68L515.69,357.88L517.39,363.27L519.09,388.64L520.78,378.25L522.48,351.17L524.17,346.04L525.87,383.9L527.57,386.14L529.26,404.15L530.96,412.82L534.35,283.47L536.05,230.23L537.74,342.23L539.44,225.63L541.14,278.08L542.83,237.86L544.53,256.52L546.23,238.38L547.92,205.12L549.62,109.16L551.32,215.11L553.01,149.12L556.4,286.1L558.1,278.48L559.8,230.49L561.49,273.61L563.19,265.99L564.89,217.87L568.28,416.24L569.98,318.7L571.67,321.73L573.37,317.78L575.06,357.61L576.76,349.99L578.46,410.33L580.15,438.98L581.85,448.19L583.55,392.58L585.24,426.23L586.94,396.52L588.64,424.79L590.33,408.88L592.03,569.78L593.72,513.65L595.42,462.25L597.12,448.19L598.81,485.26L600.51,471.98L603.9,533.37L605.6,526.8L607.3,543.49L608.99,526.27L610.69,496.83L612.38,538.76L614.08,540.99L615.78,548.88L617.47,556.37L619.17,531.27L622.56,506.29L624.26,524.83L625.96,528.64L627.65,539.55L631.04,518.12L632.74,502.35L634.44,511.94L636.13,528.11L639.53,540.73L641.22,541.78L642.92,537.05L644.62,503.4L646.31,537.58L648.01,496.96L649.7,453.31L651.4,511.94L653.1,494.72L654.79,524.17L656.49,487.49L658.19,474.74L659.88,438.06L661.58,501.03L663.28,526.53L664.97,469.48L666.67,463.57L668.36,438.33L670.06,427.28L671.76,432.28L673.45,444.37L675.15,464.49L676.85,461.2L678.54,354.85L680.24,382.59L681.94,345.26L683.63,345.91L685.33,392.45L687.02,360.64L688.72,361.03L690.42,331.58L692.11,261.65L693.81,272.17L695.51,267.96L697.2,281.5L698.9,264.8L700.6,245.09L702.29,234.57L703.99,112.05L705.68,166.48L707.38,81.95L709.08,89.18L710.77,185.27L712.47,121.39L714.17,45.14L715.86,35.15L717.56,94.31L719.26,109.03L720.95,83.13L722.65,211.7L724.34,114.02L726.04,183.7L727.74,75.51L729.43,129.54L731.13,148.86L732.83,206.31L734.52,238.51L736.22,210.25L737.91,158.85L739.61,156.75L741.31,224.84L743,177.12L744.7,216.03L746.4,300.82L748.09,281.11L749.79,217.61L753.18,291.23L754.88,244.95L758.27,395.21L759.97,362.74L761.66,305.03L763.36,357.22L765.06,328.04L766.75,378.65L768.45,382.46L770.15,455.28L771.84,458.97L773.54,352.22L775.23,419.27L776.93,431.89L778.63,445.43L780.32,477.63L782.02,531.14L783.72,523.77L785.41,518.52L787.11,500.37L788.81,528.77L790.5,531.92L792.2,547.3L793.89,575.83L795.59,571.36L797.29,553.35L798.98,547.57L800.68,569.91L802.38,580.56L804.07,598.7L807.47,613.69L809.16,590.16L810.86,592.26L812.55,601.73L814.25,598.05L815.95,608.96L817.64,628.81L819.34,617.24L821.04,619.08L822.73,622.37L824.43,621.05L826.13,625.92L827.82,632.23L829.52,628.81L831.21,634.2L832.91,628.81L834.61,634.07L836.3,622.23L838,629.99" style="vector-effect: non-scaling-stroke; fill: none; stroke: rgb(31, 119, 180); stroke-opacity: 1; stroke-width: 2px; opacity: 1;"/></g><g class="points"/><g class="text"/></g><g class="trace scatter trace392b2d" style="stroke-miterlimit: 2; opacity: 1;"><g class="fills"/><g class="errorbars"/><g class="lines"><path class="js-line" d="M0,667.72L66.16,667.72L67.85,612.11L69.55,654.18L71.25,647.34L72.94,649.05L74.64,642.48L76.34,641.95L78.03,637.48L79.73,644.71L81.43,644.32L83.12,631.96L84.82,637.35L86.51,632.36L88.21,630.38L93.3,639.98L95,623.81L96.69,629.33L98.39,620.13L100.09,625.78L101.78,623.81L105.17,629.46L106.87,613.16L108.57,607.38L110.26,614.22L111.96,612.24L113.66,603.17L115.35,598.7L117.05,610.01L118.74,582.53L120.44,589.76L122.14,586.22L123.83,593.45L125.53,586.87L127.23,601.99L128.92,631.7L130.62,609.48L132.32,622.1L134.01,612.38L135.71,616.06L137.4,616.58L139.1,620.53L140.8,633.54L142.49,608.04L144.19,620.53L145.89,610.27L147.58,617.9L149.28,623.02L150.98,631.17L152.67,633.54L154.37,629.33L156.06,625.78L157.76,633.8L159.46,617.9L161.15,624.21L162.85,638.67L164.55,633.54L166.24,613.3L167.94,628.15L169.64,626.97L171.33,619.08L173.03,607.64L174.72,622.63L176.42,624.21L178.12,624.73L179.81,615.53L181.51,618.42L183.21,619.87L184.9,627.62L186.6,636.17L188.3,623.42L189.99,595.29L191.69,601.33L193.38,628.02L195.08,621.58L196.78,612.11L198.47,634.59L200.17,639.06L201.87,621.31L203.56,638.8L205.26,635.38L206.96,639.06L208.65,634.72L212.04,644.85L213.74,637.62L215.44,642.48L217.13,638.01L218.83,644.32L220.53,644.71L222.22,656.02L223.92,648.26L227.31,640.9L229.01,644.19L230.7,644.85L232.4,643.66L234.1,646.69L235.79,644.45L237.49,641.16L239.19,645.11L240.88,644.32L242.58,632.62L244.28,653L245.97,650.76L247.67,651.68L249.36,649.97L251.06,649.18L252.76,654.44L254.45,650.37L256.15,652.86L257.85,653.78L259.54,655.62L261.24,640.51L262.94,647.87L264.63,649.71L266.33,649.31L269.72,654.31L271.42,653.78L273.11,644.85L274.81,646.03L276.51,645.63L278.2,646.29L279.9,651.68L281.6,651.16L283.29,652.47L284.99,648.53L286.68,646.82L288.38,652.21L290.08,653.65L291.77,648.26L295.17,657.86L296.86,650.1L298.56,654.7L300.26,656.81L301.95,654.44L303.65,657.2L308.74,656.02L310.43,657.73L312.13,653.78L313.83,655.89L315.52,653.52L317.22,657.46L318.91,657.86L320.61,652.6L322.31,657.6L324,656.81L325.7,654.18L327.4,657.46L329.09,658.12L330.79,655.62L332.49,649.71L334.18,652.08L335.88,652.47L337.57,653.78L342.66,652.08L344.36,649.84L346.06,649.05L347.75,651.42L349.45,652.08L351.15,651.42L352.84,650.23L354.54,652.34L357.93,644.19L359.63,644.58L361.32,644.45L363.02,642.61L364.72,644.32L366.41,641.95L368.11,633.8L369.81,630.12L371.5,630.52L373.2,623.29L374.89,629.73L376.59,624.21L378.29,625.26L379.98,607.64L381.68,600.02L383.38,611.46L385.07,610.53L386.77,597.52L390.16,595.94L391.86,574.78L393.55,576.36L395.25,572.54L396.95,575.7L398.64,575.04L402.04,585.69L403.73,564.79L405.43,565.31L407.13,573.99L408.82,578.07L410.52,577.67L412.21,587.92L413.91,585.16L415.61,573.2L417.3,570.31L419,571.36L420.7,585.56L422.39,570.97L424.09,578.46L425.79,576.88L427.48,566.1L429.18,559.92L430.87,563.08L432.57,562.82L434.27,554.14L435.96,559.14L437.66,557.69L439.36,543.49L441.05,543.1L442.75,542.97L444.45,555.72L446.14,552.43L447.84,559.79L449.53,565.05L451.23,551.25L452.93,547.17L454.62,533.9L456.32,535.87L458.02,528.11L459.71,537.31L461.41,518.52L463.11,471.19L464.8,486.83L466.5,481.71L468.19,488.54L471.59,472.64L473.28,525.48L474.98,473.69L476.68,488.28L480.07,469.22L481.77,478.03L483.46,494.2L485.16,487.23L486.85,446.08L488.55,465.14L490.25,463.57L491.94,454.23L493.64,460.81L495.34,482.1L497.03,464.09L498.73,414.8L500.43,430.57L502.12,437.28L503.82,415.59L505.51,447.13L507.21,465.93L508.91,429.78L510.6,399.15L512.3,403.62L514,405.86L515.69,422.55L517.39,413.88L519.09,450.29L522.48,372.86L524.17,403.1L525.87,373.65L527.57,416.24L529.26,404.15L530.96,384.96L532.66,374.18L534.35,373.65L536.05,376.81L537.74,344.34L539.44,397.71L541.14,381.8L544.53,402.83L546.23,272.69L547.92,302.8L549.62,307.79L551.32,284.52L553.01,339.6L554.71,305.42L556.4,226.94L558.1,221.82L559.8,195.4L563.19,245.48L564.89,263.1L566.58,296.22L568.28,290.04L569.98,179.49L571.67,274.66L573.37,224.05L575.06,270.06L580.15,370.5L581.85,309.5L583.55,340.26L585.24,286.49L590.33,387.45L592.03,365.76L593.72,438.33L595.42,410.59L597.12,374.18L598.81,431.62L600.51,413.09L602.21,444.24L603.9,485.26L605.6,443.06L607.3,491.04L608.99,481.71L610.69,479.21L612.38,505.37L615.78,521.54L617.47,476.32L619.17,499.85L620.87,502.74L622.56,495.12L624.26,517.86L627.65,536L629.35,498.01L631.04,523.91L632.74,535.34L634.44,538.37L636.13,532.45L637.83,544.28L639.53,539.02L641.22,524.43L642.92,526.8L644.62,515.36L646.31,516.28L648.01,522.46L649.7,537.05L651.4,539.94L653.1,508.39L654.79,521.8L656.49,519.96L659.88,514.31L661.58,521.28L663.28,525.09L664.97,472.11L666.67,505.24L668.36,497.35L670.06,501.95L671.76,489.86L673.45,513.26L675.15,500.64L676.85,466.46L678.54,493.01L680.24,447.53L681.94,473.03L683.63,464.88L685.33,467.38L687.02,473.56L688.72,408.35L690.42,429.26L692.11,414.66L693.81,428.6L695.51,418.08L697.2,436.22L698.9,407.96L700.6,351.3L702.29,329.09L703.99,320.54L705.68,349.33L707.38,323.7L709.08,346.31L710.77,329.48L712.47,252.32L714.17,250.48L715.86,253.5L717.56,193.03L719.26,228.92L720.95,253.24L722.65,224.84L724.34,115.08L726.04,63.41L727.74,50.14L729.43,98.25L731.13,110.47L732.83,134.4L734.52,153.99L736.22,73.93L737.91,109.69L739.61,110.08L741.31,146.63L743,148.86L746.4,230.89L748.09,94.44L749.79,142.29L751.49,158.32L753.18,195L754.88,187.51L756.57,258.89L758.27,286.76L759.97,210.64L761.66,213.54L763.36,207.36L765.06,265.07L766.75,262.96L768.45,279.53L770.15,338.81L771.84,257.71L773.54,304.5L775.23,314.23L776.93,336.45L778.63,344.6L780.32,395.34L782.02,402.44L783.72,356.04L785.41,365.11L787.11,357.22L788.81,397.31L790.5,396L792.2,443.32L793.89,461.59L795.59,439.9L800.68,504.45L802.38,507.08L804.07,544.02L805.77,534.95L807.47,545.2L809.16,544.28L810.86,555.98L812.55,558.61L815.95,579.64L817.64,582.93L819.34,572.81L821.04,584.24L822.73,585.69L824.43,591.34L826.13,601.46L827.82,603.83L829.52,609.61L831.21,607.25L834.61,629.2L836.3,601.6L838,617.9" style="vector-effect: non-scaling-stroke; fill: none; stroke: rgb(255, 127, 14); stroke-opacity: 1; stroke-width: 2px; opacity: 1;"/></g><g class="points"/><g class="text"/></g><g class="trace scatter traceaff96a" style="stroke-miterlimit: 2; opacity: 1;"><g class="fills"/><g class="errorbars"/><g class="lines"><path class="js-line" d="M0,667.72L67.85,667.19L69.55,666.4L71.25,667.19L72.94,665.62L74.64,665.88L76.34,664.17L78.03,664.43L79.73,666.01L81.43,664.96L83.12,664.96L84.82,664.3L86.51,664.83L88.21,663.64L89.91,664.96L91.6,665.48L93.3,662.07L95,661.01L96.69,662.72L98.39,660.49L100.09,662.99L101.78,662.59L103.48,663.64L105.17,662.72L106.87,662.85L108.57,660.62L110.26,661.15L111.96,661.41L113.66,664.56L115.35,660.23L117.05,659.96L118.74,661.8L120.44,656.41L122.14,662.59L123.83,660.49L125.53,662.46L127.23,656.68L128.92,659.7L130.62,658.78L132.32,661.41L134.01,659.44L135.71,659.96L137.4,663.12L139.1,663.12L140.8,660.36L144.19,663.38L145.89,664.17L147.58,663.38L149.28,664.7L150.98,664.7L152.67,665.75L154.37,662.07L156.06,663.64L161.15,664.43L162.85,663.91L164.55,664.96L166.24,663.51L169.64,662.33L171.33,665.48L173.03,665.22L174.72,666.4L178.12,665.22L179.81,661.8L181.51,665.75L183.21,663.12L184.9,665.22L186.6,664.56L189.99,666.27L191.69,666.14L200.17,666.27L201.87,666.14L203.56,667.32L205.26,666.27L206.96,663.64L208.65,666.27L210.35,667.32L212.04,666.4L215.44,666.4L217.13,667.32L218.83,666.67L220.53,666.93L225.62,667.19L227.31,667.19L234.1,667.72L235.79,667.46L237.49,666.54L239.19,667.32L242.58,666.93L244.28,667.32L247.67,667.59L249.36,666.54L251.06,667.06L252.76,666.54L254.45,667.46L256.15,667.32L262.94,667.72L264.63,667.32L269.72,667.59L271.42,667.19L274.81,667.32L276.51,667.32L288.38,667.72L290.08,667.59L296.86,667.59L298.56,667.72L307.04,667.19L308.74,667.85L313.83,667.59L315.52,667.72L324,666.93L325.7,667.72L334.18,667.72L335.88,667.85L346.06,667.59L347.75,667.85L354.54,667.19L356.23,667.46L366.41,667.32L368.11,667.32L373.2,667.72L374.89,667.46L381.68,667.32L383.38,657.73L386.77,666.8L388.47,667.06L390.16,666.8L391.86,667.59L396.95,666.8L398.64,667.59L402.04,666.54L403.73,667.72L408.82,666.4L410.52,667.06L413.91,667.32L415.61,666.54L427.48,667.06L429.18,666.4L435.96,666.8L437.66,665.88L441.05,666.01L442.75,665.88L446.14,666.01L447.84,666.14L454.62,665.22L456.32,665.09L458.02,663.91L459.71,666.4L461.41,666.14L463.11,663.51L464.8,664.04L466.5,666.67L468.19,664.96L469.89,665.88L471.59,665.22L473.28,665.88L474.98,663.12L476.68,664.96L478.37,665.09L480.07,663.91L481.77,664.56L483.46,666.67L485.16,666.8L486.85,663.12L488.55,665.88L490.25,664.43L493.64,665.75L495.34,664.3L497.03,666.4L498.73,664.04L502.12,661.8L503.82,665.48L505.51,665.62L507.21,664.7L508.91,665.09L510.6,662.07L512.3,664.7L514,662.46L515.69,664.17L517.39,664.43L519.09,665.48L520.78,664.96L522.48,662.33L524.17,661.28L527.57,662.72L529.26,665.35L530.96,662.85L532.66,662.33L534.35,665.22L536.05,660.36L539.44,661.93L541.14,664.43L542.83,663.91L544.53,661.01L546.23,662.85L547.92,656.02L549.62,664.3L551.32,662.46L553.01,659.7L554.71,663.91L556.4,662.33L558.1,657.99L559.8,659.57L561.49,654.57L563.19,661.01L564.89,658.65L566.58,664.56L568.28,661.67L569.98,656.02L571.67,661.67L573.37,656.28L575.06,660.88L578.46,662.07L580.15,659.44L581.85,661.28L583.55,660.36L585.24,660.09L586.94,658.12L588.64,662.07L590.33,662.99L592.03,665.88L593.72,658.91L595.42,656.15L597.12,661.8L598.81,661.8L600.51,664.83L602.21,663.38L603.9,665.48L605.6,662.33L607.3,665.35L610.69,665.22L612.38,662.2L614.08,666.01L615.78,666.01L617.47,666.4L619.17,661.93L620.87,661.54L622.56,664.04L624.26,666.01L625.96,666.27L629.35,666.54L631.04,664.7L632.74,664.04L634.44,665.62L636.13,665.09L637.83,666.93L641.22,665.48L642.92,666.4L644.62,664.83L646.31,666.93L648.01,665.75L649.7,666.4L651.4,666.93L653.1,665.62L654.79,666.4L656.49,665.35L658.19,666.27L659.88,665.75L661.58,666.54L663.28,666.27L666.67,665.75L668.36,666.4L670.06,666.27L671.76,665.35L673.45,667.32L675.15,666.54L676.85,666.4L678.54,665.48L680.24,666.14L681.94,665.62L683.63,665.22L685.33,666.4L692.11,664.7L693.81,665.62L698.9,666.67L700.6,665.48L707.38,664.96L709.08,665.75L710.77,665.75L712.47,664.04L715.86,664.43L717.56,663.25L719.26,665.35L720.95,665.22L722.65,664.83L724.34,663.51L726.04,662.46L727.74,663.25L729.43,664.56L731.13,664.56L736.22,664.56L737.91,662.33L739.61,664.96L741.31,663.91L744.7,665.62L746.4,664.43L748.09,661.93L749.79,664.3L753.18,664.43L754.88,661.54L756.57,665.22L758.27,665.75L759.97,663.51L761.66,663.64L765.06,664.56L766.75,663.77L768.45,667.19L770.15,665.48L771.84,665.22L773.54,664.17L775.23,664.17L776.93,665.09L780.32,666.67L782.02,663.38L785.41,665.22L787.11,665.88L790.5,665.35L792.2,666.01L793.89,666.54L795.59,664.43L797.29,666.4L798.98,665.22L800.68,664.56L802.38,666.4L805.77,665.35L807.47,663.38L809.16,666.27L810.86,667.19L812.55,665.75L814.25,666.8L815.95,667.19L817.64,666.01L821.04,666.8L822.73,667.59L824.43,666.01L826.13,666.14L827.82,667.32L829.52,659.83L831.21,666.27L832.91,666.93L834.61,667.46L836.3,666.01L838,666.14" style="vector-effect: non-scaling-stroke; fill: none; stroke: rgb(44, 160, 44); stroke-opacity: 1; stroke-width: 2px; opacity: 1;"/></g><g class="points"/><g class="text"/></g></g></g><g class="overplot"/><path class="xlines-above crisp" style="fill: none;" d="M0,0"/><path class="ylines-above crisp" style="fill: none;" d="M0,0"/><g class="overlines-above"/><g class="xaxislayer-above"><g class="xtick"><text text-anchor="middle" x="0" y="741" transform="translate(80.36,0)" style="font-family: 'Open Sans', verdana, arial, sans-serif; font-size: 12px; fill: rgb(68, 68, 68); fill-opacity: 1; white-space: pre;">Mar 2020</text></g><g class="xtick"><text text-anchor="middle" x="0" y="741" transform="translate(183.82999999999998,0)" style="font-family: 'Open Sans', verdana, arial, sans-serif; font-size: 12px; fill: rgb(68, 68, 68); fill-opacity: 1; white-space: pre;">May 2020</text></g><g class="xtick"><text text-anchor="middle" x="0" y="741" transform="translate(287.31,0)" style="font-family: 'Open Sans', verdana, arial, sans-serif; font-size: 12px; fill: rgb(68, 68, 68); fill-opacity: 1; white-space: pre;">Jul 2020</text></g><g class="xtick"><text text-anchor="middle" x="0" y="741" transform="translate(392.49,0)" style="font-family: 'Open Sans', verdana, arial, sans-serif; font-size: 12px; fill: rgb(68, 68, 68); fill-opacity: 1; white-space: pre;">Sep 2020</text></g><g class="xtick"><text text-anchor="middle" x="0" y="741" transform="translate(495.96,0)" style="font-family: 'Open Sans', verdana, arial, sans-serif; font-size: 12px; fill: rgb(68, 68, 68); fill-opacity: 1; white-space: pre;">Nov 2020</text></g><g class="xtick"><text text-anchor="middle" x="0" y="741" transform="translate(599.44,0)" style="font-family: 'Open Sans', verdana, arial, sans-serif; font-size: 12px; fill: rgb(68, 68, 68); fill-opacity: 1; white-space: pre;">Jan 2021</text></g><g class="xtick"><text text-anchor="middle" x="0" y="741" transform="translate(699.53,0)" style="font-family: 'Open Sans', verdana, arial, sans-serif; font-size: 12px; fill: rgb(68, 68, 68); fill-opacity: 1; white-space: pre;">Mar 2021</text></g><g class="xtick"><text text-anchor="middle" x="0" y="741" transform="translate(803,0)" style="font-family: 'Open Sans', verdana, arial, sans-serif; font-size: 12px; fill: rgb(68, 68, 68); fill-opacity: 1; white-space: pre;">May 2021</text></g></g><g class="yaxislayer-above"><g class="ytick"><text text-anchor="end" x="59" y="4.199999999999999" transform="translate(0,692.72)" style="font-family: 'Open Sans', verdana, arial, sans-serif; font-size: 12px; fill: rgb(68, 68, 68); fill-opacity: 1; white-space: pre;">0</text></g><g class="ytick"><text text-anchor="end" x="59" y="4.199999999999999" transform="translate(0,561.26)" style="font-family: 'Open Sans', verdana, arial, sans-serif; font-size: 12px; fill: rgb(68, 68, 68); fill-opacity: 1; white-space: pre;">1000</text></g><g class="ytick"><text text-anchor="end" x="59" y="4.199999999999999" transform="translate(0,429.81)" style="font-family: 'Open Sans', verdana, arial, sans-serif; font-size: 12px; fill: rgb(68, 68, 68); fill-opacity: 1; white-space: pre;">2000</text></g><g class="ytick"><text text-anchor="end" x="59" y="4.199999999999999" transform="translate(0,298.35)" style="font-family: 'Open Sans', verdana, arial, sans-serif; font-size: 12px; fill: rgb(68, 68, 68); fill-opacity: 1; white-space: pre;">3000</text></g><g class="ytick"><text text-anchor="end" x="59" y="4.199999999999999" transform="translate(0,166.89)" style="font-family: 'Open Sans', verdana, arial, sans-serif; font-size: 12px; fill: rgb(68, 68, 68); fill-opacity: 1; white-space: pre;">4000</text></g><g class="ytick"><text text-anchor="end" x="59" y="4.199999999999999" transform="translate(0,35.44)" style="font-family: 'Open Sans', verdana, arial, sans-serif; font-size: 12px; fill: rgb(68, 68, 68); fill-opacity: 1; white-space: pre;">5000</text></g></g><g class="overaxes-above"/></g></g><g class="polarlayer"/><g class="ternarylayer"/><g class="geolayer"/><g class="funnelarealayer"/><g class="pielayer"/><g class="treemaplayer"/><g class="sunburstlayer"/><g class="glimages"/><defs id="topdefs-630cad"><g class="clips"/><clipPath id="legend630cad"><rect width="102" height="67" x="0" y="0"/></clipPath></defs><g class="layer-above"><g class="imagelayer"/><g class="shapelayer"/></g><g class="infolayer"><g class="legend" pointer-events="all" transform="translate(914.76, 25)"><rect class="bg" shape-rendering="crispEdges" style="stroke: rgb(68, 68, 68); stroke-opacity: 1; fill: rgb(255, 255, 255); fill-opacity: 1; stroke-width: 0px;" width="102" height="67" x="0" y="0"/><g class="scrollbox" transform="translate(0, 0)" clip-path="url('#legend630cad')"><g class="groups"><g class="traces" style="opacity: 1;" transform="translate(0, 14.5)"><text class="legendtext" text-anchor="start" x="40" y="4.680000000000001" style="font-family: 'Open Sans', verdana, arial, sans-serif; font-size: 12px; fill: rgb(68, 68, 68); fill-opacity: 1; white-space: pre;">positive</text><g class="layers" style="opacity: 1;"><g class="legendfill"/><g class="legendlines"><path class="js-line" d="M5,0h30" style="fill: none; stroke: rgb(31, 119, 180); stroke-opacity: 1; stroke-width: 2px;"/></g><g class="legendsymbols"><g class="legendpoints"/></g></g><rect class="legendtoggle" x="0" y="-9.5" width="96.109375" height="19" style="fill: rgb(0, 0, 0); fill-opacity: 0;"/></g><g class="traces" style="opacity: 1;" transform="translate(0, 33.5)"><text class="legendtext" text-anchor="start" x="40" y="4.680000000000001" style="font-family: 'Open Sans', verdana, arial, sans-serif; font-size: 12px; fill: rgb(68, 68, 68); fill-opacity: 1; white-space: pre;">resolved</text><g class="layers" style="opacity: 1;"><g class="legendfill"/><g class="legendlines"><path class="js-line" d="M5,0h30" style="fill: none; stroke: rgb(255, 127, 14); stroke-opacity: 1; stroke-width: 2px;"/></g><g class="legendsymbols"><g class="legendpoints"/></g></g><rect class="legendtoggle" x="0" y="-9.5" width="96.109375" height="19" style="fill: rgb(0, 0, 0); fill-opacity: 0;"/></g><g class="traces" style="opacity: 1;" transform="translate(0, 52.5)"><text class="legendtext" text-anchor="start" x="40" y="4.680000000000001" style="font-family: 'Open Sans', verdana, arial, sans-serif; font-size: 12px; fill: rgb(68, 68, 68); fill-opacity: 1; white-space: pre;">deceased</text><g class="layers" style="opacity: 1;"><g class="legendfill"/><g class="legendlines"><path class="js-line" d="M5,0h30" style="fill: none; stroke: rgb(44, 160, 44); stroke-opacity: 1; stroke-width: 2px;"/></g><g class="legendsymbols"><g class="legendpoints"/></g></g><rect class="legendtoggle" x="0" y="-9.5" width="96.109375" height="19" style="fill: rgb(0, 0, 0); fill-opacity: 0;"/></g></g></g><rect class="scrollbar" rx="20" ry="3" width="0" height="0" style="fill: rgb(128, 139, 164); fill-opacity: 1;" x="0" y="0"/></g><g class="g-gtitle"><text class="gtitle" x="513.5" y="12.5" text-anchor="middle" dy="0em" style="font-family: 'Open Sans', verdana, arial, sans-serif; font-size: 17px; fill: rgb(68, 68, 68); opacity: 1; font-weight: normal; white-space: pre;">Dynamics of new cases, resolved cases and deaths in Ontario (Jun 28, 2021)</text></g><g class="g-xtitle" transform="translate(0,-15)"><text class="xtitle" x="479" y="780" text-anchor="middle" style="font-family: 'Open Sans', verdana, arial, sans-serif; font-size: 14px; fill: rgb(68, 68, 68); opacity: 1; font-weight: normal; white-space: pre;">Date</text></g><g class="g-ytitle"><text class="ytitle" transform="rotate(-90,22,376.5)" x="22" y="376.5" text-anchor="middle" style="font-family: 'Open Sans', verdana, arial, sans-serif; font-size: 14px; fill: rgb(68, 68, 68); opacity: 1; font-weight: normal; white-space: pre;">Number of cases</text></g></g></svg>