<svg class="main-svg" xmlns="http://www.w3.org/2000/svg" xmlns:xlink="http://www.w3.org/1999/xlink" width="1027" height="768" style="" viewBox="0 0 1027 768"><rect x="0" y="0" width="1027" height="768" style="fill: rgb(255, 255, 255); fill-opacity: 1;"/><defs id="defs-c6d3a3"><g class="clips"><clipPath id="clipc6d3a3xyplot" class="plotclip"><rect width="838" height="703"/></clipPath><clipPath class="axesclip" id="clipc6d3a3x"><rect x="60" y="0" width="838" height="768"/></clipPath><clipPath class="axesclip" id="clipc6d3a3y"><rect x="0" y="25" width="1027" height="703"/></clipPath><clipPath class="axesclip" id="clipc6d3a3xy"><rect x="60" y="25" width="838" height="703"/></clipPath></g><g class="gradients"/></defs><g class="bglayer"/><g class="layer-below"><g class="imagelayer"/><g class="shapelayer"/></g><g class="cartesianlayer"><g class="subplot xy"><g class="layer-subplot"><g class="shapelayer"/><g class="imagelayer"/></g><g class="gridlayer"><g class="x"><path class="xgrid crisp" transform="translate(122.85,0)" d="M0,25v703" style="stroke: rgb(238, 238, 238); stroke-opacity: 1; stroke-width: 1px;"/><path class="xgrid crisp" transform="translate(285.21000000000004,0)" d="M0,25v703" style="stroke: rgb(238, 238, 238); stroke-opacity: 1; stroke-width: 1px;"/><path class="xgrid crisp" transform="translate(442.34,0)" d="M0,25v703" style="stroke: rgb(238, 238, 238); stroke-opacity: 1; stroke-width: 1px;"/><path class="xgrid crisp" transform="translate(604.7,0)" d="M0,25v703" style="stroke: rgb(238, 238, 238); stroke-opacity: 1; stroke-width: 1px;"/><path class="xgrid crisp" transform="translate(761.82,0)" d="M0,25v703" style="stroke: rgb(238, 238, 238); stroke-opacity: 1; stroke-width: 1px;"/></g><g class="y"><path class="ygrid crisp" transform="translate(0,594.39)" d="M60,0h838" style="stroke: rgb(238, 238, 238); stroke-opacity: 1; stroke-width: 1px;"/><path class="ygrid crisp" transform="translate(0,496.9)" d="M60,0h838" style="stroke: rgb(238, 238, 238); stroke-opacity: 1; stroke-width: 1px;"/><path class="ygrid crisp" transform="translate(0,399.41)" d="M60,0h838" style="stroke: rgb(238, 238, 238); stroke-opacity: 1; stroke-width: 1px;"/><path class="ygrid crisp" transform="translate(0,301.92)" d="M60,0h838" style="stroke: rgb(238, 238, 238); stroke-opacity: 1; stroke-width: 1px;"/><path class="ygrid crisp" transform="translate(0,204.43)" d="M60,0h838" style="stroke: rgb(238, 238, 238); stroke-opacity: 1; stroke-width: 1px;"/><path class="ygrid crisp" transform="translate(0,106.94)" d="M60,0h838" style="stroke: rgb(238, 238, 238); stroke-opacity: 1; stroke-width: 1px;"/></g></g><g class="zerolinelayer"><path class="yzl zl crisp" transform="translate(0,691.88)" d="M60,0h838" style="stroke: rgb(68, 68, 68); stroke-opacity: 1; stroke-width: 1px;"/></g><path class="xlines-below"/><path class="ylines-below"/><g class="overlines-below"/><g class="xaxislayer-below"/><g class="yaxislayer-below"/><g class="overaxes-below"/><g class="plot" transform="translate(60, 25)" clip-path="url('#clipc6d3a3xyplot')"><g class="scatterlayer mlayer"><g class="trace scatter trace50153b" style="stroke-miterlimit: 2; opacity: 1;"><g class="fills"/><g class="errorbars"/><g class="lines"><path class="js-line" d="M0,666.88L5.24,666.88L10.47,667.85L15.71,667.85L31.42,665.9L41.9,666.88L47.14,665.9L52.38,665.9L68.09,655.18L73.32,664.93L78.56,666.88L83.8,665.9L89.04,662.98L94.27,664.93L104.75,660.05L109.99,666.88L115.22,661.03L120.46,650.3L125.7,647.38L130.94,643.48L136.17,625.93L141.41,635.68L146.65,656.15L151.89,642.5L157.13,624.96L162.36,608.38L167.6,611.31L172.84,623.98L178.07,591.81L183.31,585.96L188.55,574.26L193.79,503.09L199.02,538.19L204.26,520.64L209.5,92.67L214.74,413.41L219.97,251.57L225.21,275.95L230.45,216.48L235.69,301.29L240.92,269.12L246.16,365.64L251.4,297.39L256.64,130.69L261.88,196.01L267.11,200.88L272.35,266.2L277.59,275.95L282.82,256.45L288.06,196.01L293.3,185.28L298.54,165.78L303.77,117.04L309.01,194.06L314.25,113.14L319.49,76.1L324.72,129.71L329.96,169.68L335.2,48.8L340.44,42.95L345.67,202.83L350.91,240.85L356.15,253.52L361.39,155.06L366.63,328.59L371.86,219.4L377.1,256.45L382.34,168.71L387.57,243.78L392.81,306.17L398.05,289.59L403.29,265.22L408.52,277.9L413.76,201.86L419,329.57L424.24,380.26L429.47,366.61L434.71,314.94L439.95,346.14L445.19,330.54L450.42,334.44L455.66,285.7L460.9,335.41L466.14,370.51L471.38,250.6L476.61,286.67L481.85,264.25L487.09,236.95L492.32,265.22L497.56,218.43L502.8,273.02L508.04,387.08L513.27,382.21L518.51,293.49L523.75,331.51L528.99,351.99L534.22,349.06L539.46,273.02L544.7,232.08L549.94,337.36L555.17,319.82L560.41,331.51L565.65,223.3L570.89,262.3L576.13,429.98L581.36,442.65L586.6,422.18L591.84,468.97L597.07,489.45L602.31,407.56L607.55,474.82L612.79,490.42L618.02,487.5L623.26,481.65L628.5,498.22L633.74,493.35L638.97,466.05L644.21,496.27L649.45,509.92L654.69,456.3L659.92,507.97L665.16,482.62L670.4,558.66L675.64,510.89L680.88,493.35L686.11,416.33L691.35,513.82L696.59,521.62L701.82,517.72L707.06,506.02L712.3,548.91L722.77,516.74L728.01,557.69L733.25,551.84L738.49,501.14L743.72,553.79L748.96,540.14L754.2,541.12L759.44,553.79L764.67,558.66L769.91,567.44L775.15,558.66L780.39,558.66L785.63,505.04L790.86,506.99L796.1,535.27L801.34,468.97L806.57,506.02L811.81,566.46L817.05,476.77L822.29,532.34L827.52,533.32L832.76,550.86L838,558.66" style="vector-effect: non-scaling-stroke; fill: none; stroke: rgb(31, 119, 180); stroke-opacity: 1; stroke-width: 2px; opacity: 1;"/></g><g class="points"/><g class="text"/></g><g class="trace scatter tracea29952" style="stroke-miterlimit: 2; opacity: 1;"><g class="fills"/><g class="errorbars"/><g class="lines"><path class="js-line" d="M0,666.88L5.24,666.88L10.47,665.9L15.71,665.9L31.42,666.88L78.56,666.88L83.8,665.9L89.04,666.88L94.27,666.88L104.75,666.88L109.99,665.9L115.22,666.88L120.46,666.88L162.36,666.88L167.6,665.9L172.84,664.93L178.07,666.88L204.26,666.88L209.5,254.5L214.74,566.46L219.97,515.77L225.21,528.44L230.45,479.7L235.69,475.8L240.92,442.65L246.16,496.27L251.4,493.35L256.64,401.71L261.88,441.68L267.11,404.63L272.35,390.01L277.59,410.48L282.82,436.8L288.06,461.17L293.3,341.26L298.54,382.21L303.77,313.97L309.01,355.89L314.25,341.26L319.49,368.56L324.72,383.18L329.96,262.3L335.2,219.4L340.44,270.1L345.67,255.47L350.91,188.21L356.15,155.06L361.39,238.9L366.63,35.15L371.86,88.77L377.1,62.45L382.34,116.07L387.57,67.32L392.81,179.43L398.05,399.76L403.29,235L408.52,328.59L413.76,256.45L419,283.75L424.24,287.65L429.47,316.89L434.71,413.41L439.95,224.28L445.19,316.89L450.42,240.85L455.66,297.39L460.9,335.41L466.14,395.86L471.38,413.41L476.61,382.21L481.85,355.89L487.09,415.35L492.32,297.39L497.56,344.19L502.8,451.43L508.04,413.41L513.27,263.27L518.51,373.43L523.75,364.66L528.99,306.17L534.22,221.35L539.46,332.49L544.7,344.19L549.94,348.09L555.17,279.85L560.41,301.29L565.65,312.02L576.13,432.9L581.36,338.34L586.6,129.71L591.84,174.56L597.07,372.46L602.31,324.69L607.55,254.5L612.79,421.2L618.02,454.35L623.26,322.74L628.5,452.4L633.74,427.05L638.97,454.35L644.21,422.18L654.69,497.25L659.92,443.63L665.16,479.7L670.4,446.55L675.64,493.35L680.88,496.27L686.11,580.11L691.35,522.59L696.59,489.45L701.82,468L707.06,492.37L712.3,497.25L717.54,488.47L722.77,510.89L728.01,494.32L733.25,469.95L738.49,499.19L743.72,493.35L748.96,406.58L754.2,557.69L759.44,541.12L764.67,547.94L769.91,535.27L775.15,529.42L780.39,568.41L785.63,538.19L790.86,556.71L796.1,563.54L801.34,577.19L806.57,465.07L811.81,519.67L817.05,533.32L822.29,530.39L827.52,550.86L832.76,567.44L838,563.54" style="vector-effect: non-scaling-stroke; fill: none; stroke: rgb(255, 127, 14); stroke-opacity: 1; stroke-width: 2px; opacity: 1;"/></g><g class="points"/><g class="text"/></g><g class="trace scatter trace4e1c9a" style="stroke-miterlimit: 2; opacity: 1;"><g class="fills"/><g class="errorbars"/><g class="lines"><path class="js-line" d="M0,666.88L141.41,666.88L146.65,665.9L151.89,666.88L157.13,665.9L162.36,666.88L167.6,665.9L172.84,664.93L178.07,665.9L183.31,664.93L188.55,662L193.79,664.93L199.02,663.95L204.26,665.9L209.5,662.98L214.74,657.13L219.97,662.98L225.21,651.28L230.45,653.23L235.69,640.55L240.92,642.5L246.16,654.2L251.4,646.4L256.64,646.4L261.88,641.53L267.11,645.43L272.35,636.65L277.59,646.4L282.82,650.3L288.06,624.96L293.3,617.16L298.54,629.83L303.77,613.26L309.01,631.78L314.25,628.85L319.49,636.65L324.72,629.83L329.96,630.8L335.2,614.23L340.44,618.13L345.67,620.08L350.91,643.48L356.15,611.31L361.39,609.36L366.63,623.01L371.86,583.04L377.1,628.85L382.34,613.26L387.57,627.88L392.81,584.98L398.05,607.41L403.29,600.58L408.52,620.08L413.76,605.46L419,609.36L424.24,632.75L429.47,632.75L434.71,612.28L439.95,627.88L450.42,640.55L455.66,634.7L460.9,644.45L466.14,644.45L471.38,652.25L476.61,624.96L481.85,636.65L487.09,639.58L492.32,640.55L497.56,642.5L502.8,638.6L508.04,646.4L513.27,635.68L518.51,633.73L523.75,626.9L528.99,650.3L534.22,648.35L539.46,657.13L544.7,650.3L549.94,648.35L555.17,623.01L560.41,652.25L565.65,632.75L570.89,648.35L576.13,643.48L581.36,653.23L586.6,656.15L591.84,655.18L597.07,656.15L602.31,658.1L607.55,655.18L612.79,659.08L618.02,656.15L623.26,655.18L628.5,663.95L633.74,656.15L638.97,636.65L644.21,656.15L649.45,663.95L654.69,657.13L659.92,655.18L665.16,657.13L670.4,663.95L675.64,659.08L680.88,661.03L686.11,660.05L691.35,660.05L696.59,662.98L701.82,662.98L707.06,664.93L712.3,662L717.54,664.93L722.77,666.88L728.01,664.93L733.25,658.1L738.49,663.95L743.72,660.05L748.96,661.03L754.2,663.95L759.44,663.95L764.67,665.9L769.91,658.1L775.15,662L780.39,658.1L785.63,664.93L790.86,663.95L796.1,665.9L801.34,665.9L806.57,664.93L811.81,666.88L817.05,663.95L822.29,665.9L827.52,662.98L832.76,665.9L838,662.98" style="vector-effect: non-scaling-stroke; fill: none; stroke: rgb(44, 160, 44); stroke-opacity: 1; stroke-width: 2px; opacity: 1;"/></g><g class="points"/><g class="text"/></g></g></g><g class="overplot"/><path class="xlines-above crisp" style="fill: none;" d="M0,0"/><path class="ylines-above crisp" style="fill: none;" d="M0,0"/><g class="overlines-above"/><g class="xaxislayer-above"><g class="xtick"><text text-anchor="middle" x="0" y="741" transform="translate(122.85,0)" style="font-family: 'Open Sans', verdana, arial, sans-serif; font-size: 12px; fill: rgb(68, 68, 68); fill-opacity: 1; white-space: pre;">Mar 2020</text></g><g class="xtick"><text text-anchor="middle" x="0" y="741" transform="translate(285.21000000000004,0)" style="font-family: 'Open Sans', verdana, arial, sans-serif; font-size: 12px; fill: rgb(68, 68, 68); fill-opacity: 1; white-space: pre;">Apr 2020</text></g><g class="xtick"><text text-anchor="middle" x="0" y="741" transform="translate(442.34,0)" style="font-family: 'Open Sans', verdana, arial, sans-serif; font-size: 12px; fill: rgb(68, 68, 68); fill-opacity: 1; white-space: pre;">May 2020</text></g><g class="xtick"><text text-anchor="middle" x="0" y="741" transform="translate(604.7,0)" style="font-family: 'Open Sans', verdana, arial, sans-serif; font-size: 12px; fill: rgb(68, 68, 68); fill-opacity: 1; white-space: pre;">Jun 2020</text></g><g class="xtick"><text text-anchor="middle" x="0" y="741" transform="translate(761.82,0)" style="font-family: 'Open Sans', verdana, arial, sans-serif; font-size: 12px; fill: rgb(68, 68, 68); fill-opacity: 1; white-space: pre;">Jul 2020</text></g></g><g class="yaxislayer-above"><g class="ytick"><text text-anchor="end" x="59" y="4.199999999999999" transform="translate(0,691.88)" style="font-family: 'Open Sans', verdana, arial, sans-serif; font-size: 12px; fill: rgb(68, 68, 68); fill-opacity: 1; white-space: pre;">0</text></g><g class="ytick"><text text-anchor="end" x="59" y="4.199999999999999" transform="translate(0,594.39)" style="font-family: 'Open Sans', verdana, arial, sans-serif; font-size: 12px; fill: rgb(68, 68, 68); fill-opacity: 1; white-space: pre;">100</text></g><g class="ytick"><text text-anchor="end" x="59" y="4.199999999999999" transform="translate(0,496.9)" style="font-family: 'Open Sans', verdana, arial, sans-serif; font-size: 12px; fill: rgb(68, 68, 68); fill-opacity: 1; white-space: pre;">200</text></g><g class="ytick"><text text-anchor="end" x="59" y="4.199999999999999" transform="translate(0,399.41)" style="font-family: 'Open Sans', verdana, arial, sans-serif; font-size: 12px; fill: rgb(68, 68, 68); fill-opacity: 1; white-space: pre;">300</text></g><g class="ytick"><text text-anchor="end" x="59" y="4.199999999999999" transform="translate(0,301.92)" style="font-family: 'Open Sans', verdana, arial, sans-serif; font-size: 12px; fill: rgb(68, 68, 68); fill-opacity: 1; white-space: pre;">400</text></g><g class="ytick"><text text-anchor="end" x="59" y="4.199999999999999" transform="translate(0,204.43)" style="font-family: 'Open Sans', verdana, arial, sans-serif; font-size: 12px; fill: rgb(68, 68, 68); fill-opacity: 1; white-space: pre;">500</text></g><g class="ytick"><text text-anchor="end" x="59" y="4.199999999999999" transform="translate(0,106.94)" style="font-family: 'Open Sans', verdana, arial, sans-serif; font-size: 12px; fill: rgb(68, 68, 68); fill-opacity: 1; white-space: pre;">600</text></g></g><g class="overaxes-above"/></g></g><g class="polarlayer"/><g class="ternarylayer"/><g class="geolayer"/><g class="funnelarealayer"/><g class="pielayer"/><g class="treemaplayer"/><g class="sunburstlayer"/><g class="glimages"/><defs id="topdefs-c6d3a3"><g class="clips"/><clipPath id="legendc6d3a3"><rect width="102" height="67" x="0" y="0"/></clipPath></defs><g class="layer-above"><g class="imagelayer"/><g class="shapelayer"/></g><g class="infolayer"><g class="legend" pointer-events="all" transform="translate(914.76, 25)"><rect class="bg" shape-rendering="crispEdges" style="stroke: rgb(68, 68, 68); stroke-opacity: 1; fill: rgb(255, 255, 255); fill-opacity: 1; stroke-width: 0px;" width="102" height="67" x="0" y="0"/><g class="scrollbox" transform="translate(0, 0)" clip-path="url('#legendc6d3a3')"><g class="groups"><g class="traces" style="opacity: 1;" transform="translate(0, 14.5)"><text class="legendtext user-select-none" text-anchor="start" x="40" y="4.680000000000001" style="font-family: 'Open Sans', verdana, arial, sans-serif; font-size: 12px; fill: rgb(68, 68, 68); fill-opacity: 1; white-space: pre;">positive</text><g class="layers" style="opacity: 1;"><g class="legendfill"/><g class="legendlines"><path class="js-line" d="M5,0h30" style="fill: none; stroke: rgb(31, 119, 180); stroke-opacity: 1; stroke-width: 2px;"/></g><g class="legendsymbols"><g class="legendpoints"/></g></g><rect class="legendtoggle" pointer-events="all" x="0" y="-9.5" width="96.109375" height="19" style="cursor: pointer; fill: rgb(0, 0, 0); fill-opacity: 0;"/></g><g class="traces" style="opacity: 1;" transform="translate(0, 33.5)"><text class="legendtext user-select-none" text-anchor="start" x="40" y="4.680000000000001" style="font-family: 'Open Sans', verdana, arial, sans-serif; font-size: 12px; fill: rgb(68, 68, 68); fill-opacity: 1; white-space: pre;">resolved</text><g class="layers" style="opacity: 1;"><g class="legendfill"/><g class="legendlines"><path class="js-line" d="M5,0h30" style="fill: none; stroke: rgb(255, 127, 14); stroke-opacity: 1; stroke-width: 2px;"/></g><g class="legendsymbols"><g class="legendpoints"/></g></g><rect class="legendtoggle" pointer-events="all" x="0" y="-9.5" width="96.109375" height="19" style="cursor: pointer; fill: rgb(0, 0, 0); fill-opacity: 0;"/></g><g class="traces" style="opacity: 1;" transform="translate(0, 52.5)"><text class="legendtext user-select-none" text-anchor="start" x="40" y="4.680000000000001" style="font-family: 'Open Sans', verdana, arial, sans-serif; font-size: 12px; fill: rgb(68, 68, 68); fill-opacity: 1; white-space: pre;">deceased</text><g class="layers" style="opacity: 1;"><g class="legendfill"/><g class="legendlines"><path class="js-line" d="M5,0h30" style="fill: none; stroke: rgb(44, 160, 44); stroke-opacity: 1; stroke-width: 2px;"/></g><g class="legendsymbols"><g class="legendpoints"/></g></g><rect class="legendtoggle" pointer-events="all" x="0" y="-9.5" width="96.109375" height="19" style="cursor: pointer; fill: rgb(0, 0, 0); fill-opacity: 0;"/></g></g></g><rect class="scrollbar" rx="20" ry="3" width="0" height="0" style="fill: rgb(128, 139, 164); fill-opacity: 1;" x="0" y="0"/></g><g class="g-gtitle"><text class="gtitle" x="513.5" y="12.5" text-anchor="middle" dy="0em" style="font-family: 'Open Sans', verdana, arial, sans-serif; font-size: 17px; fill: rgb(68, 68, 68); opacity: 1; font-weight: normal; white-space: pre;">Dynamics of new cases, resolved cases and deaths in Ontario (Jul 28, 2020)</text></g><g class="g-xtitle" transform="translate(0,-15)"><text class="xtitle" x="479" y="780" text-anchor="middle" style="font-family: 'Open Sans', verdana, arial, sans-serif; font-size: 14px; fill: rgb(68, 68, 68); opacity: 1; font-weight: normal; white-space: pre;">Date</text></g><g class="g-ytitle"><text class="ytitle" transform="rotate(-90,22,376.5)" x="22" y="376.5" text-anchor="middle" style="font-family: 'Open Sans', verdana, arial, sans-serif; font-size: 14px; fill: rgb(68, 68, 68); opacity: 1; font-weight: normal; white-space: pre;">Number of cases</text></g></g></svg>