<svg class="main-svg" xmlns="http://www.w3.org/2000/svg" xmlns:xlink="http://www.w3.org/1999/xlink" width="1027" height="768" style="" viewBox="0 0 1027 768"><rect x="0" y="0" width="1027" height="768" style="fill: rgb(255, 255, 255); fill-opacity: 1;"/><defs id="defs-7e3f83"><g class="clips"><clipPath id="clip7e3f83xyplot" class="plotclip"><rect width="838" height="703"/></clipPath><clipPath class="axesclip" id="clip7e3f83x"><rect x="60" y="0" width="838" height="768"/></clipPath><clipPath class="axesclip" id="clip7e3f83y"><rect x="0" y="25" width="1027" height="703"/></clipPath><clipPath class="axesclip" id="clip7e3f83xy"><rect x="60" y="25" width="838" height="703"/></clipPath></g><g class="gradients"/></defs><g class="bglayer"/><g class="layer-below"><g class="imagelayer"/><g class="shapelayer"/></g><g class="cartesianlayer"><g class="subplot xy"><g class="layer-subplot"><g class="shapelayer"/><g class="imagelayer"/></g><g class="gridlayer"><g class="x"><path class="xgrid crisp" transform="translate(103.91,0)" d="M0,25v703" style="stroke: rgb(238, 238, 238); stroke-opacity: 1; stroke-width: 1px;"/><path class="xgrid crisp" transform="translate(217.35,0)" d="M0,25v703" style="stroke: rgb(238, 238, 238); stroke-opacity: 1; stroke-width: 1px;"/><path class="xgrid crisp" transform="translate(327.14,0)" d="M0,25v703" style="stroke: rgb(238, 238, 238); stroke-opacity: 1; stroke-width: 1px;"/><path class="xgrid crisp" transform="translate(440.58,0)" d="M0,25v703" style="stroke: rgb(238, 238, 238); stroke-opacity: 1; stroke-width: 1px;"/><path class="xgrid crisp" transform="translate(550.36,0)" d="M0,25v703" style="stroke: rgb(238, 238, 238); stroke-opacity: 1; stroke-width: 1px;"/><path class="xgrid crisp" transform="translate(663.8,0)" d="M0,25v703" style="stroke: rgb(238, 238, 238); stroke-opacity: 1; stroke-width: 1px;"/><path class="xgrid crisp" transform="translate(777.24,0)" d="M0,25v703" style="stroke: rgb(238, 238, 238); stroke-opacity: 1; stroke-width: 1px;"/><path class="xgrid crisp" transform="translate(887.02,0)" d="M0,25v703" style="stroke: rgb(238, 238, 238); stroke-opacity: 1; stroke-width: 1px;"/></g><g class="y"><path class="ygrid crisp" transform="translate(0,605.67)" d="M60,0h838" style="stroke: rgb(238, 238, 238); stroke-opacity: 1; stroke-width: 1px;"/><path class="ygrid crisp" transform="translate(0,519.35)" d="M60,0h838" style="stroke: rgb(238, 238, 238); stroke-opacity: 1; stroke-width: 1px;"/><path class="ygrid crisp" transform="translate(0,433.04)" d="M60,0h838" style="stroke: rgb(238, 238, 238); stroke-opacity: 1; stroke-width: 1px;"/><path class="ygrid crisp" transform="translate(0,346.72)" d="M60,0h838" style="stroke: rgb(238, 238, 238); stroke-opacity: 1; stroke-width: 1px;"/><path class="ygrid crisp" transform="translate(0,260.4)" d="M60,0h838" style="stroke: rgb(238, 238, 238); stroke-opacity: 1; stroke-width: 1px;"/><path class="ygrid crisp" transform="translate(0,174.09)" d="M60,0h838" style="stroke: rgb(238, 238, 238); stroke-opacity: 1; stroke-width: 1px;"/><path class="ygrid crisp" transform="translate(0,87.77000000000001)" d="M60,0h838" style="stroke: rgb(238, 238, 238); stroke-opacity: 1; stroke-width: 1px;"/></g></g><g class="zerolinelayer"><path class="yzl zl crisp" transform="translate(0,691.99)" d="M60,0h838" style="stroke: rgb(68, 68, 68); stroke-opacity: 1; stroke-width: 1px;"/></g><path class="xlines-below"/><path class="ylines-below"/><g class="overlines-below"/><g class="xaxislayer-below"/><g class="yaxislayer-below"/><g class="overaxes-below"/><g class="plot" transform="translate(60, 25)" clip-path="url('#clip7e3f83xyplot')"><g class="scatterlayer mlayer"><g class="trace scatter trace2e49b0" style="stroke-miterlimit: 2; opacity: 1;"><g class="fills"/><g class="errorbars"/><g class="lines"><path class="js-line" d="M0,666.99L3.66,666.99L7.32,667.85L10.98,667.85L21.96,666.12L29.28,666.99L32.93,666.12L36.59,666.12L47.57,656.63L51.23,665.26L54.89,666.99L58.55,666.12L62.21,663.53L65.87,665.26L73.19,660.94L76.85,666.99L80.51,661.81L84.17,652.31L87.83,649.72L91.48,646.27L95.14,630.73L98.8,639.37L102.46,657.49L106.12,645.41L109.78,629.87L113.44,615.2L117.1,617.79L120.76,629.01L124.42,600.52L128.08,595.34L131.74,584.99L135.4,521.98L139.06,553.05L142.72,537.51L146.38,158.58L150.03,442.56L153.69,299.28L157.35,320.86L161.01,268.2L164.67,343.3L168.33,314.82L171.99,400.27L175.65,339.85L179.31,192.25L182.97,250.08L186.63,254.39L190.29,312.23L193.95,320.86L197.61,303.59L201.27,250.08L204.93,240.58L208.59,223.32L212.24,180.16L215.9,248.35L219.56,176.71L223.22,143.91L226.88,191.38L230.54,226.77L234.2,119.74L237.86,114.56L241.52,256.12L245.18,289.78L248.84,301L252.5,213.83L256.16,367.47L259.82,270.79L263.48,303.59L267.14,225.91L270.79,292.37L274.45,347.62L278.11,332.94L281.77,311.36L285.43,322.58L289.09,255.26L292.75,368.33L296.41,413.22L300.07,401.13L303.73,355.38L307.39,383.01L311.05,369.19L314.71,372.65L318.37,329.49L322.03,373.51L325.69,404.58L329.34,298.42L333,330.35L336.66,310.5L340.32,286.33L343.98,311.36L347.64,269.93L351.3,318.27L354.96,419.26L358.62,414.94L362.28,336.39L365.94,370.06L369.6,388.18L373.26,385.6L376.92,318.27L380.58,282.02L384.24,375.24L387.9,359.7L391.55,370.06L395.21,274.25L398.87,308.77L402.53,457.24L406.19,468.46L409.85,450.33L413.51,491.76L417.17,509.89L420.83,437.38L424.49,496.94L428.15,510.75L431.81,508.16L435.47,502.99L439.13,517.66L442.79,513.34L446.45,489.17L450.1,515.93L453.76,528.02L457.42,480.54L461.08,526.29L464.74,503.85L468.4,571.18L472.06,528.88L475.72,513.34L479.38,445.15L483.04,531.47L486.7,538.38L490.36,534.92L494.02,524.56L497.68,562.54L505,534.06L508.66,570.31L512.31,565.13L515.97,520.25L519.63,566.86L523.29,554.78L526.95,555.64L530.61,566.86L534.27,571.18L537.93,578.94L541.59,571.18L545.25,571.18L548.91,523.7L552.57,525.43L556.23,550.46L559.89,491.76L563.55,524.56L567.21,578.08L570.86,498.67L574.52,547.87L578.18,548.73L581.84,564.27L585.5,571.18L589.16,601.39L592.82,590.17L596.48,551.32L603.8,566.86L607.46,591.03L611.12,588.44L614.78,592.75L618.44,584.99L622.1,591.03L625.76,606.57L629.41,598.8L633.07,567.72L636.73,638.5L640.39,584.99L644.05,599.66L651.37,575.49L655.03,597.07L658.69,581.53L662.35,559.09L669.67,601.39L673.33,553.91L676.99,573.77L680.65,567.72L684.31,576.35L687.97,580.67L691.62,591.03L695.28,565.13L698.94,561.68L702.6,539.24L706.26,570.31L709.92,568.59L713.58,570.31L717.24,552.19L720.9,553.05L724.56,539.24L728.22,521.11L731.88,530.61L735.54,502.99L739.2,507.3L742.86,538.38L746.52,520.25L750.17,483.13L753.83,466.73L757.49,490.9L761.15,396.82L764.81,450.33L768.47,395.09L772.13,414.08L775.79,320.86L779.45,315.68L783.11,351.93L790.43,254.39L794.09,377.83L797.75,313.95L801.41,313.95L805.07,291.51L808.72,243.17L812.38,62.77L816.04,188.79L819.7,127.51L823.36,202.6L827.02,35.15L830.68,103.34L834.34,178.44L838,136.14" style="vector-effect: non-scaling-stroke; fill: none; stroke: rgb(31, 119, 180); stroke-opacity: 1; stroke-width: 2px; opacity: 1;"/></g><g class="points"/><g class="text"/></g><g class="trace scatter trace43170a" style="stroke-miterlimit: 2; opacity: 1;"><g class="fills"/><g class="errorbars"/><g class="lines"><path class="js-line" d="M0,666.99L3.66,666.99L7.32,666.12L10.98,666.12L21.96,666.99L54.89,666.99L58.55,666.12L62.21,666.99L65.87,666.99L73.19,666.99L76.85,666.12L80.51,666.99L84.17,666.99L113.44,666.99L117.1,666.12L120.76,665.26L124.42,666.99L142.72,666.99L146.38,301.87L150.03,578.08L153.69,533.2L157.35,544.42L161.01,501.26L164.67,497.81L168.33,468.46L171.99,515.93L175.65,513.34L179.31,432.21L182.97,467.6L186.63,434.8L190.29,421.85L193.95,439.97L197.61,463.28L201.27,484.86L204.93,378.69L208.59,414.94L212.24,354.52L215.9,391.64L219.56,378.69L223.22,402.86L226.88,415.81L230.54,308.77L234.2,270.79L237.86,315.68L241.52,302.73L245.18,243.17L248.84,213.83L252.5,288.06L256.16,107.66L259.82,155.13L263.48,131.82L267.14,179.3L270.79,136.14L274.45,235.4L278.11,430.48L281.77,284.6L285.43,367.47L289.09,303.59L292.75,327.76L296.41,331.22L300.07,357.11L303.73,442.56L307.39,275.11L311.05,357.11L314.71,289.78L318.37,339.85L322.03,373.51L325.69,427.03L329.34,442.56L336.66,391.64L340.32,444.29L343.98,339.85L347.64,381.28L351.3,476.23L354.96,442.56L358.62,309.64L362.28,407.17L365.94,399.41L369.6,347.62L373.26,272.52L376.92,370.92L380.58,381.28L384.24,384.73L387.9,324.31L391.55,343.3L395.21,352.79L398.87,403.72L402.53,459.83L406.19,376.1L409.85,191.38L413.51,231.09L417.17,406.31L420.83,364.02L424.49,301.87L428.15,449.47L431.81,478.82L435.47,362.29L439.13,477.09L442.79,454.65L446.45,478.82L450.1,450.33L457.42,516.8L461.08,469.32L464.74,501.26L468.4,471.91L472.06,513.34L475.72,515.93L479.38,590.17L483.04,539.24L486.7,509.89L490.36,490.9L494.02,512.48L497.68,516.8L501.34,509.03L505,528.88L508.66,514.21L512.31,492.63L515.97,518.52L519.63,513.34L523.29,436.52L526.95,570.31L530.61,555.64L534.27,561.68L537.93,550.46L541.59,545.28L545.25,579.81L548.91,553.05L552.57,569.45L556.23,575.49L559.89,587.58L563.55,488.31L567.21,536.65L570.86,548.73L574.52,546.14L578.18,564.27L581.84,578.94L585.5,575.49L589.16,516.8L592.82,524.56L596.48,521.98L600.14,526.29L603.8,561.68L607.46,558.23L611.12,566.86L614.78,540.96L618.44,529.74L622.1,565.13L625.76,574.63L629.41,539.24L633.07,578.94L636.73,602.25L640.39,551.32L644.05,581.53L647.71,595.34L651.37,579.81L655.03,597.93L658.69,595.34L662.35,589.3L666.01,590.17L669.67,601.39L673.33,575.49L676.99,589.3L680.65,573.77L684.31,599.66L687.97,602.25L691.62,567.72L695.28,600.52L698.94,595.34L702.6,578.08L706.26,599.66L709.92,603.98L713.58,587.58L717.24,548.73L720.9,564.27L724.56,566.86L728.22,575.49L731.88,571.18L735.54,564.27L739.2,564.27L742.86,549.6L746.52,544.42L750.17,559.95L753.83,564.27L757.49,559.95L761.15,552.19L764.81,566L768.47,534.06L772.13,512.48L775.79,515.07L779.45,514.21L783.11,502.12L786.77,513.34L790.43,497.81L794.09,444.29L797.75,420.12L801.41,422.71L805.07,375.24L808.72,417.53L812.38,381.28L816.04,388.18L819.7,272.52L823.36,222.46L827.02,297.55L830.68,291.51L834.34,206.06L838,200.01" style="vector-effect: non-scaling-stroke; fill: none; stroke: rgb(255, 127, 14); stroke-opacity: 1; stroke-width: 2px; opacity: 1;"/></g><g class="points"/><g class="text"/></g><g class="trace scatter tracebdf7f3" style="stroke-miterlimit: 2; opacity: 1;"><g class="fills"/><g class="errorbars"/><g class="lines"><path class="js-line" d="M0,666.99L98.8,666.99L102.46,666.12L106.12,666.99L109.78,666.12L113.44,666.99L117.1,666.12L120.76,665.26L124.42,666.12L128.08,665.26L131.74,662.67L135.4,665.26L139.06,664.4L142.72,666.12L146.38,663.53L150.03,658.36L153.69,663.53L157.35,653.18L161.01,654.9L164.67,643.68L168.33,645.41L171.99,655.77L175.65,648.86L179.31,648.86L182.97,644.54L186.63,648L190.29,640.23L193.95,648.86L197.61,652.31L201.27,629.87L204.93,622.97L208.59,634.19L212.24,619.51L215.9,635.91L219.56,633.32L223.22,640.23L226.88,634.19L230.54,635.05L234.2,620.38L237.86,623.83L241.52,625.55L245.18,646.27L248.84,617.79L252.5,616.06L256.16,628.14L259.82,592.75L263.48,633.32L267.14,619.51L270.79,632.46L274.45,594.48L278.11,614.33L281.77,608.29L285.43,625.55L289.09,612.61L292.75,616.06L296.41,636.78L300.07,636.78L303.73,618.65L307.39,632.46L314.71,643.68L318.37,638.5L322.03,647.13L325.69,647.13L329.34,654.04L333,629.87L336.66,640.23L340.32,642.82L343.98,643.68L347.64,645.41L351.3,641.96L354.96,648.86L358.62,639.37L362.28,637.64L365.94,631.6L369.6,652.31L373.26,650.59L376.92,658.36L380.58,652.31L384.24,650.59L387.9,628.14L391.55,654.04L395.21,636.78L398.87,650.59L402.53,646.27L406.19,654.9L409.85,657.49L413.51,656.63L417.17,657.49L420.83,659.22L424.49,656.63L428.15,660.08L431.81,657.49L435.47,656.63L439.13,664.4L442.79,657.49L446.45,640.23L450.1,657.49L453.76,664.4L457.42,658.36L461.08,656.63L464.74,658.36L468.4,664.4L472.06,660.08L475.72,661.81L479.38,660.94L483.04,660.94L486.7,663.53L490.36,663.53L494.02,665.26L497.68,662.67L501.34,665.26L505,666.99L508.66,665.26L512.31,659.22L515.97,664.4L519.63,660.94L523.29,661.81L526.95,664.4L530.61,664.4L534.27,666.12L537.93,659.22L541.59,662.67L545.25,659.22L548.91,665.26L552.57,664.4L556.23,666.12L559.89,666.12L563.55,665.26L567.21,666.99L570.86,664.4L574.52,666.12L578.18,663.53L581.84,666.12L585.5,663.53L589.16,666.12L592.82,664.4L596.48,664.4L607.46,666.99L611.12,663.53L614.78,666.99L618.44,666.12L622.1,666.99L625.76,666.12L629.41,665.26L633.07,666.99L636.73,666.99L640.39,666.12L644.05,666.99L647.71,666.12L651.37,666.12L655.03,666.99L658.69,666.99L662.35,663.53L666.01,667.85L669.67,666.12L673.33,664.4L676.99,666.12L680.65,666.99L684.31,666.12L687.97,665.26L691.62,665.26L695.28,666.12L698.94,661.81L702.6,666.99L706.26,666.12L713.58,666.12L717.24,666.99L720.9,666.99L724.56,667.85L728.22,666.99L731.88,665.26L735.54,666.99L739.2,666.99L742.86,666.99L746.52,666.12L750.17,667.85L753.83,666.12L761.15,666.12L764.81,663.53L768.47,665.26L772.13,664.4L775.79,666.99L779.45,666.12L783.11,666.12L786.77,665.26L790.43,664.4L794.09,664.4L797.75,666.12L801.41,666.12L805.07,666.99L808.72,665.26L812.38,666.12L816.04,663.53L819.7,663.53L823.36,664.4L827.02,601.39L830.68,631.6L834.34,660.94L838,662.67" style="vector-effect: non-scaling-stroke; fill: none; stroke: rgb(44, 160, 44); stroke-opacity: 1; stroke-width: 2px; opacity: 1;"/></g><g class="points"/><g class="text"/></g></g></g><g class="overplot"/><path class="xlines-above crisp" style="fill: none;" d="M0,0"/><path class="ylines-above crisp" style="fill: none;" d="M0,0"/><g class="overlines-above"/><g class="xaxislayer-above"><g class="xtick"><text text-anchor="middle" x="0" y="741" transform="translate(103.91,0)" style="font-family: 'Open Sans', verdana, arial, sans-serif; font-size: 12px; fill: rgb(68, 68, 68); fill-opacity: 1; white-space: pre;">Mar 2020</text></g><g class="xtick"><text text-anchor="middle" x="0" y="741" transform="translate(217.35,0)" style="font-family: 'Open Sans', verdana, arial, sans-serif; font-size: 12px; fill: rgb(68, 68, 68); fill-opacity: 1; white-space: pre;">Apr 2020</text></g><g class="xtick"><text text-anchor="middle" x="0" y="741" transform="translate(327.14,0)" style="font-family: 'Open Sans', verdana, arial, sans-serif; font-size: 12px; fill: rgb(68, 68, 68); fill-opacity: 1; white-space: pre;">May 2020</text></g><g class="xtick"><text text-anchor="middle" x="0" y="741" transform="translate(440.58,0)" style="font-family: 'Open Sans', verdana, arial, sans-serif; font-size: 12px; fill: rgb(68, 68, 68); fill-opacity: 1; white-space: pre;">Jun 2020</text></g><g class="xtick"><text text-anchor="middle" x="0" y="741" transform="translate(550.36,0)" style="font-family: 'Open Sans', verdana, arial, sans-serif; font-size: 12px; fill: rgb(68, 68, 68); fill-opacity: 1; white-space: pre;">Jul 2020</text></g><g class="xtick"><text text-anchor="middle" x="0" y="741" transform="translate(663.8,0)" style="font-family: 'Open Sans', verdana, arial, sans-serif; font-size: 12px; fill: rgb(68, 68, 68); fill-opacity: 1; white-space: pre;">Aug 2020</text></g><g class="xtick"><text text-anchor="middle" x="0" y="741" transform="translate(777.24,0)" style="font-family: 'Open Sans', verdana, arial, sans-serif; font-size: 12px; fill: rgb(68, 68, 68); fill-opacity: 1; white-space: pre;">Sep 2020</text></g><g class="xtick"><text text-anchor="middle" x="0" y="741" transform="translate(887.02,0)" style="font-family: 'Open Sans', verdana, arial, sans-serif; font-size: 12px; fill: rgb(68, 68, 68); fill-opacity: 1; white-space: pre;">Oct 2020</text></g></g><g class="yaxislayer-above"><g class="ytick"><text text-anchor="end" x="59" y="4.199999999999999" transform="translate(0,691.99)" style="font-family: 'Open Sans', verdana, arial, sans-serif; font-size: 12px; fill: rgb(68, 68, 68); fill-opacity: 1; white-space: pre;">0</text></g><g class="ytick"><text text-anchor="end" x="59" y="4.199999999999999" transform="translate(0,605.67)" style="font-family: 'Open Sans', verdana, arial, sans-serif; font-size: 12px; fill: rgb(68, 68, 68); fill-opacity: 1; white-space: pre;">100</text></g><g class="ytick"><text text-anchor="end" x="59" y="4.199999999999999" transform="translate(0,519.35)" style="font-family: 'Open Sans', verdana, arial, sans-serif; font-size: 12px; fill: rgb(68, 68, 68); fill-opacity: 1; white-space: pre;">200</text></g><g class="ytick"><text text-anchor="end" x="59" y="4.199999999999999" transform="translate(0,433.04)" style="font-family: 'Open Sans', verdana, arial, sans-serif; font-size: 12px; fill: rgb(68, 68, 68); fill-opacity: 1; white-space: pre;">300</text></g><g class="ytick"><text text-anchor="end" x="59" y="4.199999999999999" transform="translate(0,346.72)" style="font-family: 'Open Sans', verdana, arial, sans-serif; font-size: 12px; fill: rgb(68, 68, 68); fill-opacity: 1; white-space: pre;">400</text></g><g class="ytick"><text text-anchor="end" x="59" y="4.199999999999999" transform="translate(0,260.4)" style="font-family: 'Open Sans', verdana, arial, sans-serif; font-size: 12px; fill: rgb(68, 68, 68); fill-opacity: 1; white-space: pre;">500</text></g><g class="ytick"><text text-anchor="end" x="59" y="4.199999999999999" transform="translate(0,174.09)" style="font-family: 'Open Sans', verdana, arial, sans-serif; font-size: 12px; fill: rgb(68, 68, 68); fill-opacity: 1; white-space: pre;">600</text></g><g class="ytick"><text text-anchor="end" x="59" y="4.199999999999999" transform="translate(0,87.77000000000001)" style="font-family: 'Open Sans', verdana, arial, sans-serif; font-size: 12px; fill: rgb(68, 68, 68); fill-opacity: 1; white-space: pre;">700</text></g></g><g class="overaxes-above"/></g></g><g class="polarlayer"/><g class="ternarylayer"/><g class="geolayer"/><g class="funnelarealayer"/><g class="pielayer"/><g class="treemaplayer"/><g class="sunburstlayer"/><g class="glimages"/><defs id="topdefs-7e3f83"><g class="clips"/><clipPath id="legend7e3f83"><rect width="102" height="67" x="0" y="0"/></clipPath></defs><g class="layer-above"><g class="imagelayer"/><g class="shapelayer"/></g><g class="infolayer"><g class="legend" pointer-events="all" transform="translate(914.76, 25)"><rect class="bg" shape-rendering="crispEdges" style="stroke: rgb(68, 68, 68); stroke-opacity: 1; fill: rgb(255, 255, 255); fill-opacity: 1; stroke-width: 0px;" width="102" height="67" x="0" y="0"/><g class="scrollbox" transform="translate(0, 0)" clip-path="url('#legend7e3f83')"><g class="groups"><g class="traces" style="opacity: 1;" transform="translate(0, 14.5)"><text class="legendtext user-select-none" text-anchor="start" x="40" y="4.680000000000001" style="font-family: 'Open Sans', verdana, arial, sans-serif; font-size: 12px; fill: rgb(68, 68, 68); fill-opacity: 1; white-space: pre;">positive</text><g class="layers" style="opacity: 1;"><g class="legendfill"/><g class="legendlines"><path class="js-line" d="M5,0h30" style="fill: none; stroke: rgb(31, 119, 180); stroke-opacity: 1; stroke-width: 2px;"/></g><g class="legendsymbols"><g class="legendpoints"/></g></g><rect class="legendtoggle" pointer-events="all" x="0" y="-9.5" width="96.109375" height="19" style="cursor: pointer; fill: rgb(0, 0, 0); fill-opacity: 0;"/></g><g class="traces" style="opacity: 1;" transform="translate(0, 33.5)"><text class="legendtext user-select-none" text-anchor="start" x="40" y="4.680000000000001" style="font-family: 'Open Sans', verdana, arial, sans-serif; font-size: 12px; fill: rgb(68, 68, 68); fill-opacity: 1; white-space: pre;">resolved</text><g class="layers" style="opacity: 1;"><g class="legendfill"/><g class="legendlines"><path class="js-line" d="M5,0h30" style="fill: none; stroke: rgb(255, 127, 14); stroke-opacity: 1; stroke-width: 2px;"/></g><g class="legendsymbols"><g class="legendpoints"/></g></g><rect class="legendtoggle" pointer-events="all" x="0" y="-9.5" width="96.109375" height="19" style="cursor: pointer; fill: rgb(0, 0, 0); fill-opacity: 0;"/></g><g class="traces" style="opacity: 1;" transform="translate(0, 52.5)"><text class="legendtext user-select-none" text-anchor="start" x="40" y="4.680000000000001" style="font-family: 'Open Sans', verdana, arial, sans-serif; font-size: 12px; fill: rgb(68, 68, 68); fill-opacity: 1; white-space: pre;">deceased</text><g class="layers" style="opacity: 1;"><g class="legendfill"/><g class="legendlines"><path class="js-line" d="M5,0h30" style="fill: none; stroke: rgb(44, 160, 44); stroke-opacity: 1; stroke-width: 2px;"/></g><g class="legendsymbols"><g class="legendpoints"/></g></g><rect class="legendtoggle" pointer-events="all" x="0" y="-9.5" width="96.109375" height="19" style="cursor: pointer; fill: rgb(0, 0, 0); fill-opacity: 0;"/></g></g></g><rect class="scrollbar" rx="20" ry="3" width="0" height="0" style="fill: rgb(128, 139, 164); fill-opacity: 1;" x="0" y="0"/></g><g class="g-gtitle"><text class="gtitle" x="513.5" y="12.5" text-anchor="middle" dy="0em" style="font-family: 'Open Sans', verdana, arial, sans-serif; font-size: 17px; fill: rgb(68, 68, 68); opacity: 1; font-weight: normal; white-space: pre;">Dynamics of new cases, resolved cases and deaths in Ontario (Oct 06, 2020)</text></g><g class="g-xtitle" transform="translate(0,-15)"><text class="xtitle" x="479" y="780" text-anchor="middle" style="font-family: 'Open Sans', verdana, arial, sans-serif; font-size: 14px; fill: rgb(68, 68, 68); opacity: 1; font-weight: normal; white-space: pre;">Date</text></g><g class="g-ytitle"><text class="ytitle" transform="rotate(-90,22,376.5)" x="22" y="376.5" text-anchor="middle" style="font-family: 'Open Sans', verdana, arial, sans-serif; font-size: 14px; fill: rgb(68, 68, 68); opacity: 1; font-weight: normal; white-space: pre;">Number of cases</text></g></g></svg>