<svg class="main-svg" xmlns="http://www.w3.org/2000/svg" xmlns:xlink="http://www.w3.org/1999/xlink" width="1027" height="768" style="" viewBox="0 0 1027 768"><rect x="0" y="0" width="1027" height="768" style="fill: rgb(255, 255, 255); fill-opacity: 1;"/><defs id="defs-ebafae"><g class="clips"><clipPath id="clipebafaexyplot" class="plotclip"><rect width="838" height="703"/></clipPath><clipPath class="axesclip" id="clipebafaex"><rect x="60" y="0" width="838" height="768"/></clipPath><clipPath class="axesclip" id="clipebafaey"><rect x="0" y="25" width="1027" height="703"/></clipPath><clipPath class="axesclip" id="clipebafaexy"><rect x="60" y="25" width="838" height="703"/></clipPath></g><g class="gradients"/></defs><g class="bglayer"/><g class="layer-below"><g class="imagelayer"/><g class="shapelayer"/></g><g class="cartesianlayer"><g class="subplot xy"><g class="layer-subplot"><g class="shapelayer"/><g class="imagelayer"/></g><g class="gridlayer"><g class="x"><path class="xgrid crisp" transform="translate(89.58,0)" d="M0,25v703" style="stroke: rgb(238, 238, 238); stroke-opacity: 1; stroke-width: 1px;"/><path class="xgrid crisp" transform="translate(239.92,0)" d="M0,25v703" style="stroke: rgb(238, 238, 238); stroke-opacity: 1; stroke-width: 1px;"/><path class="xgrid crisp" transform="translate(390.27,0)" d="M0,25v703" style="stroke: rgb(238, 238, 238); stroke-opacity: 1; stroke-width: 1px;"/><path class="xgrid crisp" transform="translate(543.0799999999999,0)" d="M0,25v703" style="stroke: rgb(238, 238, 238); stroke-opacity: 1; stroke-width: 1px;"/><path class="xgrid crisp" transform="translate(693.43,0)" d="M0,25v703" style="stroke: rgb(238, 238, 238); stroke-opacity: 1; stroke-width: 1px;"/><path class="xgrid crisp" transform="translate(843.78,0)" d="M0,25v703" style="stroke: rgb(238, 238, 238); stroke-opacity: 1; stroke-width: 1px;"/></g><g class="y"><path class="ygrid crisp" transform="translate(0,618.27)" d="M60,0h838" style="stroke: rgb(238, 238, 238); stroke-opacity: 1; stroke-width: 1px;"/><path class="ygrid crisp" transform="translate(0,543.83)" d="M60,0h838" style="stroke: rgb(238, 238, 238); stroke-opacity: 1; stroke-width: 1px;"/><path class="ygrid crisp" transform="translate(0,469.4)" d="M60,0h838" style="stroke: rgb(238, 238, 238); stroke-opacity: 1; stroke-width: 1px;"/><path class="ygrid crisp" transform="translate(0,394.96)" d="M60,0h838" style="stroke: rgb(238, 238, 238); stroke-opacity: 1; stroke-width: 1px;"/><path class="ygrid crisp" transform="translate(0,320.52)" d="M60,0h838" style="stroke: rgb(238, 238, 238); stroke-opacity: 1; stroke-width: 1px;"/><path class="ygrid crisp" transform="translate(0,246.09)" d="M60,0h838" style="stroke: rgb(238, 238, 238); stroke-opacity: 1; stroke-width: 1px;"/><path class="ygrid crisp" transform="translate(0,171.65)" d="M60,0h838" style="stroke: rgb(238, 238, 238); stroke-opacity: 1; stroke-width: 1px;"/><path class="ygrid crisp" transform="translate(0,97.22)" d="M60,0h838" style="stroke: rgb(238, 238, 238); stroke-opacity: 1; stroke-width: 1px;"/></g></g><g class="zerolinelayer"><path class="yzl zl crisp" transform="translate(0,692.7)" d="M60,0h838" style="stroke: rgb(68, 68, 68); stroke-opacity: 1; stroke-width: 1px;"/></g><path class="xlines-below"/><path class="ylines-below"/><g class="overlines-below"/><g class="xaxislayer-below"/><g class="yaxislayer-below"/><g class="overaxes-below"/><g class="plot" transform="translate(60, 25)" clip-path="url('#clipebafaexyplot')"><g class="scatterlayer mlayer"><g class="trace scatter traceebca5d" style="stroke-miterlimit: 2; opacity: 1;"><g class="fills"/><g class="errorbars"/><g class="lines"><path class="js-line" d="M0,667.7L24.65,667.55L32.04,665.91L34.51,667.4L36.97,667.7L49.29,666.66L51.76,667.7L61.62,664.13L64.08,661.45L66.55,662.94L69.01,666.06L73.94,661.3L76.41,658.77L78.87,659.22L81.34,661.15L83.8,656.24L86.26,655.34L88.73,653.56L91.19,642.69L93.66,648.05L96.12,645.37L98.59,580.02L101.05,628.99L103.52,604.28L105.98,608L108.45,598.92L110.91,611.87L113.38,606.96L115.84,621.7L118.31,611.28L120.77,585.82L123.24,595.8L125.7,596.54L128.16,606.52L130.63,608L133.09,605.03L135.56,595.8L138.02,594.16L140.49,591.18L142.95,583.74L145.42,595.5L147.88,583.14L150.35,577.49L155.28,591.78L157.74,573.32L160.21,572.42L162.67,596.84L165.14,602.64L167.6,604.58L170.06,589.54L172.53,616.04L174.99,599.37L177.46,605.03L179.92,591.63L182.39,603.09L184.85,612.62L187.32,610.09L189.78,606.37L192.25,608.3L194.71,596.69L197.18,616.19L199.64,623.93L202.11,621.85L204.57,613.96L207.04,618.72L209.5,616.34L211.96,616.94L214.43,609.49L216.89,617.09L219.36,622.44L221.82,604.13L224.29,609.64L226.75,606.22L229.22,602.05L231.68,606.37L234.15,599.22L236.61,607.56L239.08,624.98L241.54,624.23L244.01,610.68L246.47,616.49L248.94,619.62L251.4,619.17L253.86,607.56L256.33,601.3L258.79,617.38L261.26,614.7L263.72,616.49L266.19,599.97L268.65,605.92L271.12,631.53L273.58,633.46L276.05,630.33L278.51,637.48L280.98,640.61L283.44,628.1L285.91,638.37L288.37,640.76L290.84,640.31L293.3,639.42L295.76,641.95L298.23,641.2L300.69,637.03L303.16,641.65L305.62,643.73L308.09,635.55L310.55,643.44L313.02,639.56L315.48,651.18L317.95,643.88L320.41,641.2L322.88,629.44L325.34,644.33L327.81,645.52L330.27,644.92L332.74,643.14L335.2,649.69L340.13,644.78L342.59,651.03L345.06,650.13L347.52,642.39L349.99,650.43L352.45,648.35L354.92,648.5L357.38,650.43L362.31,652.52L364.78,651.18L367.24,651.18L369.71,642.99L372.17,643.29L374.64,647.6L377.1,637.48L379.56,643.14L382.03,652.37L384.49,638.67L386.96,647.16L389.42,647.31L391.89,649.99L394.35,651.18L396.82,656.39L399.28,654.45L401.75,647.75L404.21,649.24L406.68,650.43L409.14,654.6L411.61,654.15L414.07,654.9L416.54,653.56L419,654.6L421.46,657.28L423.93,655.94L426.39,650.58L428.86,662.79L431.32,653.56L433.79,656.09L438.72,651.92L441.18,655.64L443.65,652.96L446.11,649.09L451.04,656.39L453.51,648.2L455.97,651.62L458.44,650.58L465.83,654.6L468.29,650.13L470.76,649.54L473.22,645.67L475.69,651.03L478.15,650.73L480.62,651.03L483.08,647.9L485.55,648.05L488.01,645.67L490.48,642.54L492.94,644.18L495.41,639.42L497.87,640.16L500.34,645.52L502.8,642.39L505.26,635.99L507.73,633.16L510.19,637.33L512.66,621.1L515.12,630.33L517.59,620.81L520.05,624.08L522.52,608L524.98,607.11L527.45,613.36L532.38,596.54L534.84,617.83L537.31,606.81L539.77,606.81L542.24,602.94L544.7,594.61L547.16,563.49L549.63,585.23L552.09,574.66L554.56,587.61L557.02,558.73L559.49,570.49L561.95,583.44L564.42,576.15L566.88,586.12L569.35,580.91L571.81,549.05L574.28,527.91L579.21,571.08L581.67,547.56L584.14,556.64L586.6,560.37L589.06,551.14L591.53,561.71L593.99,547.86L596.46,569.74L598.92,562.9L601.39,545.48L603.85,550.09L606.32,542.5L608.78,544.73L611.25,522.11L613.71,512.58L616.18,541.01L618.64,544.59L621.11,543.54L623.57,528.66L626.04,534.31L628.5,516.6L630.96,522.25L633.43,526.57L635.89,511.39L638.36,520.77L640.82,519.13L643.29,518.38L645.75,499.18L648.22,470L650.68,482.8L653.15,461.07L655.61,455.41L658.08,433.23L660.54,459.88L663.01,432.34L665.47,481.91L667.94,446.33L670.4,481.76L672.86,456.75L675.33,487.57L680.26,431.29L682.72,439.33L685.19,431.15L687.65,517.49L690.12,463.3L692.58,447.67L695.05,391.55L697.51,396.46L699.98,413.43L702.44,407.77L704.91,413.58L707.37,411.2L709.84,396.16L712.3,402.71L717.23,381.27L719.69,381.13L722.16,418.19L724.62,386.34L727.09,372.49L729.55,392.59L732.02,388.87L734.48,418.05L739.41,329.02L741.88,349.27L744.34,305.65L746.81,326.79L749.27,316.81L751.74,322.92L754.2,351.65L756.66,339.89L759.13,309.22L761.59,303.41L764.06,346.29L766.52,348.82L768.99,369.22L771.45,379.04L773.92,287.63L776.38,232.55L778.85,172.26L781.31,299.1L783.78,167.05L786.24,226.45L788.71,180.89L791.17,202.03L793.64,181.49L796.1,143.83L798.56,35.15L801.03,155.14L803.49,80.41L805.96,170.77L808.42,235.53L810.89,226.9L813.35,172.56L815.82,221.39L818.28,212.75L820.75,158.27L825.68,382.91L828.14,272.45L830.61,275.87L833.07,271.41L835.54,316.52L838,307.88" style="vector-effect: non-scaling-stroke; fill: none; stroke: rgb(31, 119, 180); stroke-opacity: 1; stroke-width: 2px; opacity: 1;"/></g><g class="points"/><g class="text"/></g><g class="trace scatter tracec6d024" style="stroke-miterlimit: 2; opacity: 1;"><g class="fills"/><g class="errorbars"/><g class="lines"><path class="js-line" d="M0,667.7L96.12,667.7L98.59,604.73L101.05,652.37L103.52,644.63L105.98,646.56L108.45,639.12L110.91,638.52L113.38,633.46L115.84,641.65L118.31,641.2L120.77,627.21L123.24,633.31L125.7,627.65L128.16,625.42L133.09,632.57L135.56,636.29L138.02,617.98L140.49,624.23L142.95,613.81L145.42,620.21L147.88,617.98L150.35,622.15L152.81,624.38L155.28,605.92L157.74,599.37L160.21,607.11L162.67,604.88L165.14,594.61L167.6,589.54L170.06,602.35L172.53,571.23L174.99,579.42L177.46,575.4L179.92,583.59L182.39,576.15L184.85,593.27L187.32,626.91L189.78,601.75L192.25,616.04L194.71,605.03L197.18,609.19L199.64,609.79L202.11,614.26L204.57,628.99L207.04,600.11L209.5,614.26L211.96,602.64L214.43,611.28L216.89,617.09L219.36,626.32L221.82,628.99L224.29,624.23L226.75,620.21L229.22,629.29L231.68,611.28L234.15,618.42L236.61,634.8L239.08,628.99L241.54,606.07L244.01,622.89L246.47,621.55L248.94,612.62L251.4,599.67L253.86,616.64L256.33,618.42L258.79,619.02L261.26,608.6L263.72,611.87L266.19,613.51L268.65,622.3L271.12,631.97L273.58,617.53L276.05,585.67L278.51,592.52L280.98,622.74L283.44,615.45L285.91,604.73L288.37,630.19L290.84,635.25L293.3,615.15L295.76,634.95L298.23,631.08L300.69,635.25L303.16,630.33L308.09,641.8L310.55,633.61L313.02,639.12L315.48,634.06L317.95,641.2L320.41,641.65L322.88,654.45L325.34,645.67L327.81,640.61L330.27,637.33L332.74,641.05L335.2,641.8L337.66,640.46L340.13,643.88L342.59,641.35L345.06,637.63L347.52,642.1L349.99,641.2L352.45,627.95L354.92,651.03L357.38,648.5L359.85,649.54L362.31,647.6L364.78,646.71L367.24,652.67L369.71,648.05L372.17,650.88L374.64,651.92L377.1,654.01L379.56,636.88L382.03,645.22L384.49,647.31L386.96,646.86L389.42,649.99L391.89,652.52L394.35,651.92L396.82,641.8L399.28,643.14L401.75,642.69L404.21,643.44L406.68,649.54L409.14,648.94L411.61,650.43L414.07,645.97L416.54,644.03L419,650.13L421.46,651.77L423.93,645.67L426.39,652.52L428.86,656.54L431.32,647.75L433.79,652.96L436.25,655.34L438.72,652.67L441.18,655.79L443.65,655.34L446.11,654.3L448.58,654.45L451.04,656.39L453.51,651.92L455.97,654.3L458.44,651.62L460.9,656.09L463.36,656.54L465.83,650.58L468.29,656.24L470.76,655.34L473.22,652.37L475.69,656.09L478.15,656.83L480.62,654.01L483.08,647.31L485.55,649.99L488.01,650.43L490.48,651.92L492.94,651.18L495.41,649.99L497.87,649.99L500.34,647.45L502.8,646.56L505.26,649.24L507.73,649.99L512.66,647.9L515.12,650.28L520.05,641.05L522.52,641.5L524.98,641.35L527.45,639.27L529.91,641.2L532.38,638.52L534.84,629.29L537.31,625.12L539.77,625.57L542.24,617.38L544.7,624.68L547.16,618.42L549.63,619.62L552.09,599.67L554.56,591.03L557.02,603.98L559.49,602.94L561.95,588.2L566.88,586.42L569.35,562.45L571.81,564.24L574.28,559.92L576.74,563.49L579.21,562.75L584.14,574.81L586.6,551.14L589.06,551.73L591.53,561.56L593.99,566.17L596.46,565.72L598.92,577.34L601.39,574.21L603.85,560.66L606.32,557.39L608.78,558.58L611.25,574.66L613.71,558.13L616.18,566.62L618.64,564.83L621.11,552.62L623.57,545.63L626.04,549.2L628.5,548.9L630.96,539.08L633.43,544.73L635.89,543.1L638.36,527.02L640.82,526.57L643.29,526.42L645.75,540.86L648.22,537.14L650.68,545.48L653.15,551.43L655.61,535.8L658.08,531.19L660.54,516.15L663.01,518.38L665.47,509.6L667.94,520.02L670.4,498.73L672.86,445.14L675.33,462.86L677.79,457.05L680.26,464.79L685.19,446.78L687.65,506.62L690.12,447.97L692.58,464.49L695.05,451.69L697.51,442.91L699.98,452.88L702.44,471.19L704.91,463.3L707.37,416.71L709.84,438.29L712.3,436.51L714.76,425.94L717.23,433.38L719.69,457.5L722.16,437.1L724.62,381.27L727.09,399.14L729.55,406.73L732.02,382.17L734.48,417.9L736.95,439.18L741.88,363.56L744.34,368.62L746.81,371.15L749.27,390.06L751.74,380.23L754.2,421.47L756.66,384.85L759.13,333.78L761.59,368.02L764.06,334.68L766.52,382.91L768.99,369.22L771.45,347.48L773.92,335.27L776.38,334.68L778.85,338.25L781.31,301.48L783.78,361.92L786.24,343.91L788.71,358.94L791.17,367.73L793.64,220.35L796.1,254.44L798.56,260.09L801.03,233.74L803.49,296.12L805.96,257.41L808.42,168.54L810.89,162.73L813.35,132.81L818.28,189.53L820.75,209.48L823.21,246.99L825.68,240L828.14,114.8L830.61,222.58L833.07,165.26L835.54,217.37L838,256.97" style="vector-effect: non-scaling-stroke; fill: none; stroke: rgb(255, 127, 14); stroke-opacity: 1; stroke-width: 2px; opacity: 1;"/></g><g class="points"/><g class="text"/></g><g class="trace scatter tracef30781" style="stroke-miterlimit: 2; opacity: 1;"><g class="fills"/><g class="errorbars"/><g class="lines"><path class="js-line" d="M0,667.7L98.59,667.11L101.05,666.21L103.52,667.11L105.98,665.32L108.45,665.62L110.91,663.68L113.38,663.98L115.84,665.77L118.31,664.57L120.77,664.57L123.24,663.83L125.7,664.43L128.16,663.09L130.63,664.57L133.09,665.17L135.56,661.3L138.02,660.11L140.49,662.04L142.95,659.51L145.42,662.34L147.88,661.9L150.35,663.09L152.81,662.04L155.28,662.19L157.74,659.66L160.21,660.26L162.67,660.56L165.14,664.13L167.6,659.22L170.06,658.92L172.53,661L174.99,654.9L177.46,661.9L179.92,659.51L182.39,661.75L184.85,655.2L187.32,658.62L189.78,657.58L192.25,660.56L194.71,658.32L197.18,658.92L199.64,662.49L202.11,662.49L204.57,659.36L207.04,661.75L209.5,662.79L211.96,663.68L214.43,662.79L216.89,664.28L219.36,664.28L221.82,665.47L224.29,661.3L226.75,663.09L229.22,663.53L236.61,663.38L239.08,664.57L241.54,662.94L244.01,662.64L246.47,661.6L248.94,665.17L251.4,664.87L253.86,666.21L258.79,664.87L261.26,661L263.72,665.47L266.19,662.49L268.65,664.87L271.12,664.13L273.58,665.62L276.05,666.06L285.91,665.91L288.37,666.51L293.3,665.91L295.76,667.25L298.23,666.06L300.69,663.09L303.16,666.06L305.62,667.25L310.55,665.91L313.02,666.21L315.48,667.25L317.95,666.51L327.81,667.11L330.27,667.11L340.13,667.7L342.59,667.4L345.06,666.36L347.52,667.25L352.45,666.81L354.92,667.25L359.85,667.55L362.31,666.36L364.78,666.96L367.24,666.36L369.71,667.4L372.17,667.25L382.03,667.7L384.49,667.25L391.89,667.55L394.35,667.11L399.28,667.25L401.75,667.25L419,667.7L421.46,667.55L431.32,667.55L433.79,667.7L446.11,667.11L448.58,667.85L455.97,667.55L458.44,667.7L470.76,666.81L473.22,667.7L485.55,667.7L488.01,667.85L502.8,667.55L505.26,667.85L515.12,667.11L517.59,667.4L529.91,667.4L532.38,667.25L554.56,667.25L557.02,656.39L561.95,666.66L564.42,666.96L566.88,666.66L569.35,667.55L576.74,666.66L579.21,667.55L584.14,666.36L586.6,667.7L593.99,666.21L596.46,666.96L601.39,667.25L603.85,666.36L621.11,666.96L623.57,666.21L633.43,666.66L635.89,665.62L640.82,665.77L643.29,665.62L648.22,665.77L650.68,665.91L660.54,664.87L663.01,664.72L665.47,663.38L667.94,666.21L670.4,665.91L672.86,662.94L675.33,663.53L677.79,666.51L680.26,664.57L682.72,665.62L685.19,664.87L687.65,665.62L690.12,662.49L692.58,664.57L695.05,664.72L697.51,663.38L699.98,664.13L702.44,666.51L704.91,666.66L707.37,662.49L709.84,665.62L712.3,663.98L717.23,665.47L719.69,663.83L722.16,666.21L724.62,663.53L729.55,661L732.02,665.17L734.48,665.32L736.95,664.28L739.41,664.72L741.88,661.3L744.34,664.28L746.81,661.75L749.27,663.68L751.74,663.98L754.2,665.17L756.66,664.57L759.13,661.6L761.59,660.41L766.52,662.04L768.99,665.02L771.45,662.19L773.92,661.6L776.38,664.87L778.85,659.36L783.78,661.15L786.24,663.98L788.71,663.38L791.17,660.11L793.64,662.19L796.1,654.45L798.56,663.83L801.03,661.75L803.49,658.62L805.96,663.38L808.42,661.6L810.89,656.68L813.35,658.47L815.82,652.81L818.28,660.11L820.75,657.43L823.21,664.13L825.68,660.85L828.14,654.45L830.61,660.85L833.07,654.75L835.54,659.96L838,660.26" style="vector-effect: non-scaling-stroke; fill: none; stroke: rgb(44, 160, 44); stroke-opacity: 1; stroke-width: 2px; opacity: 1;"/></g><g class="points"/><g class="text"/></g></g></g><g class="overplot"/><path class="xlines-above crisp" style="fill: none;" d="M0,0"/><path class="ylines-above crisp" style="fill: none;" d="M0,0"/><g class="overlines-above"/><g class="xaxislayer-above"><g class="xtick"><text text-anchor="middle" x="0" y="741" transform="translate(89.58,0)" style="font-family: 'Open Sans', verdana, arial, sans-serif; font-size: 12px; fill: rgb(68, 68, 68); fill-opacity: 1; white-space: pre;">Mar 2020</text></g><g class="xtick"><text text-anchor="middle" x="0" y="741" transform="translate(239.92,0)" style="font-family: 'Open Sans', verdana, arial, sans-serif; font-size: 12px; fill: rgb(68, 68, 68); fill-opacity: 1; white-space: pre;">May 2020</text></g><g class="xtick"><text text-anchor="middle" x="0" y="741" transform="translate(390.27,0)" style="font-family: 'Open Sans', verdana, arial, sans-serif; font-size: 12px; fill: rgb(68, 68, 68); fill-opacity: 1; white-space: pre;">Jul 2020</text></g><g class="xtick"><text text-anchor="middle" x="0" y="741" transform="translate(543.0799999999999,0)" style="font-family: 'Open Sans', verdana, arial, sans-serif; font-size: 12px; fill: rgb(68, 68, 68); fill-opacity: 1; white-space: pre;">Sep 2020</text></g><g class="xtick"><text text-anchor="middle" x="0" y="741" transform="translate(693.43,0)" style="font-family: 'Open Sans', verdana, arial, sans-serif; font-size: 12px; fill: rgb(68, 68, 68); fill-opacity: 1; white-space: pre;">Nov 2020</text></g><g class="xtick"><text text-anchor="middle" x="0" y="741" transform="translate(843.78,0)" style="font-family: 'Open Sans', verdana, arial, sans-serif; font-size: 12px; fill: rgb(68, 68, 68); fill-opacity: 1; white-space: pre;">Jan 2021</text></g></g><g class="yaxislayer-above"><g class="ytick"><text text-anchor="end" x="59" y="4.199999999999999" transform="translate(0,692.7)" style="font-family: 'Open Sans', verdana, arial, sans-serif; font-size: 12px; fill: rgb(68, 68, 68); fill-opacity: 1; white-space: pre;">0</text></g><g class="ytick"><text text-anchor="end" x="59" y="4.199999999999999" transform="translate(0,618.27)" style="font-family: 'Open Sans', verdana, arial, sans-serif; font-size: 12px; fill: rgb(68, 68, 68); fill-opacity: 1; white-space: pre;">500</text></g><g class="ytick"><text text-anchor="end" x="59" y="4.199999999999999" transform="translate(0,543.83)" style="font-family: 'Open Sans', verdana, arial, sans-serif; font-size: 12px; fill: rgb(68, 68, 68); fill-opacity: 1; white-space: pre;">1000</text></g><g class="ytick"><text text-anchor="end" x="59" y="4.199999999999999" transform="translate(0,469.4)" style="font-family: 'Open Sans', verdana, arial, sans-serif; font-size: 12px; fill: rgb(68, 68, 68); fill-opacity: 1; white-space: pre;">1500</text></g><g class="ytick"><text text-anchor="end" x="59" y="4.199999999999999" transform="translate(0,394.96)" style="font-family: 'Open Sans', verdana, arial, sans-serif; font-size: 12px; fill: rgb(68, 68, 68); fill-opacity: 1; white-space: pre;">2000</text></g><g class="ytick"><text text-anchor="end" x="59" y="4.199999999999999" transform="translate(0,320.52)" style="font-family: 'Open Sans', verdana, arial, sans-serif; font-size: 12px; fill: rgb(68, 68, 68); fill-opacity: 1; white-space: pre;">2500</text></g><g class="ytick"><text text-anchor="end" x="59" y="4.199999999999999" transform="translate(0,246.09)" style="font-family: 'Open Sans', verdana, arial, sans-serif; font-size: 12px; fill: rgb(68, 68, 68); fill-opacity: 1; white-space: pre;">3000</text></g><g class="ytick"><text text-anchor="end" x="59" y="4.199999999999999" transform="translate(0,171.65)" style="font-family: 'Open Sans', verdana, arial, sans-serif; font-size: 12px; fill: rgb(68, 68, 68); fill-opacity: 1; white-space: pre;">3500</text></g><g class="ytick"><text text-anchor="end" x="59" y="4.199999999999999" transform="translate(0,97.22)" style="font-family: 'Open Sans', verdana, arial, sans-serif; font-size: 12px; fill: rgb(68, 68, 68); fill-opacity: 1; white-space: pre;">4000</text></g></g><g class="overaxes-above"/></g></g><g class="polarlayer"/><g class="ternarylayer"/><g class="geolayer"/><g class="funnelarealayer"/><g class="pielayer"/><g class="treemaplayer"/><g class="sunburstlayer"/><g class="glimages"/><defs id="topdefs-ebafae"><g class="clips"/><clipPath id="legendebafae"><rect width="102" height="67" x="0" y="0"/></clipPath></defs><g class="layer-above"><g class="imagelayer"/><g class="shapelayer"/></g><g class="infolayer"><g class="legend" pointer-events="all" transform="translate(914.76, 25)"><rect class="bg" shape-rendering="crispEdges" style="stroke: rgb(68, 68, 68); stroke-opacity: 1; fill: rgb(255, 255, 255); fill-opacity: 1; stroke-width: 0px;" width="102" height="67" x="0" y="0"/><g class="scrollbox" transform="translate(0, 0)" clip-path="url('#legendebafae')"><g class="groups"><g class="traces" style="opacity: 1;" transform="translate(0, 14.5)"><text class="legendtext" text-anchor="start" x="40" y="4.680000000000001" style="font-family: 'Open Sans', verdana, arial, sans-serif; font-size: 12px; fill: rgb(68, 68, 68); fill-opacity: 1; white-space: pre;">positive</text><g class="layers" style="opacity: 1;"><g class="legendfill"/><g class="legendlines"><path class="js-line" d="M5,0h30" style="fill: none; stroke: rgb(31, 119, 180); stroke-opacity: 1; stroke-width: 2px;"/></g><g class="legendsymbols"><g class="legendpoints"/></g></g><rect class="legendtoggle" x="0" y="-9.5" width="96.109375" height="19" style="fill: rgb(0, 0, 0); fill-opacity: 0;"/></g><g class="traces" style="opacity: 1;" transform="translate(0, 33.5)"><text class="legendtext" text-anchor="start" x="40" y="4.680000000000001" style="font-family: 'Open Sans', verdana, arial, sans-serif; font-size: 12px; fill: rgb(68, 68, 68); fill-opacity: 1; white-space: pre;">resolved</text><g class="layers" style="opacity: 1;"><g class="legendfill"/><g class="legendlines"><path class="js-line" d="M5,0h30" style="fill: none; stroke: rgb(255, 127, 14); stroke-opacity: 1; stroke-width: 2px;"/></g><g class="legendsymbols"><g class="legendpoints"/></g></g><rect class="legendtoggle" x="0" y="-9.5" width="96.109375" height="19" style="fill: rgb(0, 0, 0); fill-opacity: 0;"/></g><g class="traces" style="opacity: 1;" transform="translate(0, 52.5)"><text class="legendtext" text-anchor="start" x="40" y="4.680000000000001" style="font-family: 'Open Sans', verdana, arial, sans-serif; font-size: 12px; fill: rgb(68, 68, 68); fill-opacity: 1; white-space: pre;">deceased</text><g class="layers" style="opacity: 1;"><g class="legendfill"/><g class="legendlines"><path class="js-line" d="M5,0h30" style="fill: none; stroke: rgb(44, 160, 44); stroke-opacity: 1; stroke-width: 2px;"/></g><g class="legendsymbols"><g class="legendpoints"/></g></g><rect class="legendtoggle" x="0" y="-9.5" width="96.109375" height="19" style="fill: rgb(0, 0, 0); fill-opacity: 0;"/></g></g></g><rect class="scrollbar" rx="20" ry="3" width="0" height="0" style="fill: rgb(128, 139, 164); fill-opacity: 1;" x="0" y="0"/></g><g class="g-gtitle"><text class="gtitle" x="513.5" y="12.5" text-anchor="middle" dy="0em" style="font-family: 'Open Sans', verdana, arial, sans-serif; font-size: 17px; fill: rgb(68, 68, 68); opacity: 1; font-weight: normal; white-space: pre;">Dynamics of new cases, resolved cases and deaths in Ontario (Jan 24, 2021)</text></g><g class="g-xtitle" transform="translate(0,-15)"><text class="xtitle" x="479" y="780" text-anchor="middle" style="font-family: 'Open Sans', verdana, arial, sans-serif; font-size: 14px; fill: rgb(68, 68, 68); opacity: 1; font-weight: normal; white-space: pre;">Date</text></g><g class="g-ytitle"><text class="ytitle" transform="rotate(-90,22,376.5)" x="22" y="376.5" text-anchor="middle" style="font-family: 'Open Sans', verdana, arial, sans-serif; font-size: 14px; fill: rgb(68, 68, 68); opacity: 1; font-weight: normal; white-space: pre;">Number of cases</text></g></g></svg>