<svg class="main-svg" xmlns="http://www.w3.org/2000/svg" xmlns:xlink="http://www.w3.org/1999/xlink" width="1027" height="768" style="" viewBox="0 0 1027 768"><rect x="0" y="0" width="1027" height="768" style="fill: rgb(255, 255, 255); fill-opacity: 1;"/><defs id="defs-fd231d"><g class="clips"><clipPath id="clipfd231dxyplot" class="plotclip"><rect width="838" height="703"/></clipPath><clipPath class="axesclip" id="clipfd231dx"><rect x="60" y="0" width="838" height="768"/></clipPath><clipPath class="axesclip" id="clipfd231dy"><rect x="0" y="25" width="1027" height="703"/></clipPath><clipPath class="axesclip" id="clipfd231dxy"><rect x="60" y="25" width="838" height="703"/></clipPath></g><g class="gradients"/></defs><g class="bglayer"/><g class="layer-below"><g class="imagelayer"/><g class="shapelayer"/></g><g class="cartesianlayer"><g class="subplot xy"><g class="layer-subplot"><g class="shapelayer"/><g class="imagelayer"/></g><g class="gridlayer"><g class="x"><path class="xgrid crisp" transform="translate(110.28,0)" d="M0,25v703" style="stroke: rgb(238, 238, 238); stroke-opacity: 1; stroke-width: 1px;"/><path class="xgrid crisp" transform="translate(240.17,0)" d="M0,25v703" style="stroke: rgb(238, 238, 238); stroke-opacity: 1; stroke-width: 1px;"/><path class="xgrid crisp" transform="translate(365.87,0)" d="M0,25v703" style="stroke: rgb(238, 238, 238); stroke-opacity: 1; stroke-width: 1px;"/><path class="xgrid crisp" transform="translate(495.76,0)" d="M0,25v703" style="stroke: rgb(238, 238, 238); stroke-opacity: 1; stroke-width: 1px;"/><path class="xgrid crisp" transform="translate(621.46,0)" d="M0,25v703" style="stroke: rgb(238, 238, 238); stroke-opacity: 1; stroke-width: 1px;"/><path class="xgrid crisp" transform="translate(751.35,0)" d="M0,25v703" style="stroke: rgb(238, 238, 238); stroke-opacity: 1; stroke-width: 1px;"/><path class="xgrid crisp" transform="translate(881.24,0)" d="M0,25v703" style="stroke: rgb(238, 238, 238); stroke-opacity: 1; stroke-width: 1px;"/></g><g class="y"><path class="ygrid crisp" transform="translate(0,594.39)" d="M60,0h838" style="stroke: rgb(238, 238, 238); stroke-opacity: 1; stroke-width: 1px;"/><path class="ygrid crisp" transform="translate(0,496.9)" d="M60,0h838" style="stroke: rgb(238, 238, 238); stroke-opacity: 1; stroke-width: 1px;"/><path class="ygrid crisp" transform="translate(0,399.41)" d="M60,0h838" style="stroke: rgb(238, 238, 238); stroke-opacity: 1; stroke-width: 1px;"/><path class="ygrid crisp" transform="translate(0,301.92)" d="M60,0h838" style="stroke: rgb(238, 238, 238); stroke-opacity: 1; stroke-width: 1px;"/><path class="ygrid crisp" transform="translate(0,204.43)" d="M60,0h838" style="stroke: rgb(238, 238, 238); stroke-opacity: 1; stroke-width: 1px;"/><path class="ygrid crisp" transform="translate(0,106.94)" d="M60,0h838" style="stroke: rgb(238, 238, 238); stroke-opacity: 1; stroke-width: 1px;"/></g></g><g class="zerolinelayer"><path class="yzl zl crisp" transform="translate(0,691.88)" d="M60,0h838" style="stroke: rgb(68, 68, 68); stroke-opacity: 1; stroke-width: 1px;"/></g><path class="xlines-below"/><path class="ylines-below"/><g class="overlines-below"/><g class="xaxislayer-below"/><g class="yaxislayer-below"/><g class="overaxes-below"/><g class="plot" transform="translate(60, 25)" clip-path="url('#clipfd231dxyplot')"><g class="scatterlayer mlayer"><g class="trace scatter traceacd27e" style="stroke-miterlimit: 2; opacity: 1;"><g class="fills"/><g class="errorbars"/><g class="lines"><path class="js-line" d="M0,666.88L4.19,666.88L8.38,667.85L12.57,667.85L25.14,665.9L33.52,666.88L37.71,665.9L41.9,665.9L54.47,655.18L58.66,664.93L62.85,666.88L67.04,665.9L71.23,662.98L75.42,664.93L83.8,660.05L87.99,666.88L92.18,661.03L96.37,650.3L100.56,647.38L104.75,643.48L108.94,625.93L113.13,635.68L117.32,656.15L121.51,642.5L125.7,624.96L129.89,608.38L134.08,611.31L138.27,623.98L142.46,591.81L146.65,585.96L150.84,574.26L155.03,503.09L159.22,538.19L163.41,520.64L167.6,92.67L171.79,413.41L175.98,251.57L180.17,275.95L184.36,216.48L188.55,301.29L192.74,269.12L196.93,365.64L201.12,297.39L205.31,130.69L209.5,196.01L213.69,200.88L217.88,266.2L222.07,275.95L226.26,256.45L230.45,196.01L234.64,185.28L238.83,165.78L243.02,117.04L247.21,194.06L251.4,113.14L255.59,76.1L259.78,129.71L263.97,169.68L268.16,48.8L272.35,42.95L276.54,202.83L280.73,240.85L284.92,253.52L289.11,155.06L293.3,328.59L297.49,219.4L301.68,256.45L305.87,168.71L310.06,243.78L314.25,306.17L318.44,289.59L322.63,265.22L326.82,277.9L331.01,201.86L335.2,329.57L339.39,380.26L343.58,366.61L347.77,314.94L351.96,346.14L356.15,330.54L360.34,334.44L364.53,285.7L368.72,335.41L372.91,370.51L377.1,250.6L381.29,286.67L385.48,264.25L389.67,236.95L393.86,265.22L398.05,218.43L402.24,273.02L406.43,387.08L410.62,382.21L414.81,293.49L419,331.51L423.19,351.99L427.38,349.06L431.57,273.02L435.76,232.08L439.95,337.36L444.14,319.82L448.33,331.51L452.52,223.3L456.71,262.3L460.9,429.98L465.09,442.65L469.28,422.18L473.47,468.97L477.66,489.45L481.85,407.56L486.04,474.82L490.23,490.42L494.42,487.5L498.61,481.65L502.8,498.22L506.99,493.35L511.18,466.05L515.37,496.27L519.56,509.92L523.75,456.3L527.94,507.97L532.13,482.62L536.32,558.66L540.51,510.89L544.7,493.35L548.89,416.33L553.08,513.82L557.27,521.62L561.46,517.72L565.65,506.02L569.84,548.91L578.22,516.74L582.41,557.69L586.6,551.84L590.79,501.14L594.98,553.79L599.17,540.14L603.36,541.12L607.55,553.79L611.74,558.66L615.93,567.44L620.12,558.66L624.31,558.66L628.5,505.04L632.69,506.99L636.88,535.27L641.07,468.97L645.26,506.02L649.45,566.46L653.64,476.77L657.83,532.34L662.02,533.32L666.21,550.86L670.4,558.66L674.59,592.78L678.78,580.11L682.97,536.24L687.16,545.99L691.35,553.79L695.54,581.09L699.73,578.16L703.92,583.04L708.11,574.26L712.3,581.09L716.49,598.63L720.68,589.86L724.87,554.76L729.06,634.7L733.25,574.26L737.44,590.83L741.63,577.19L745.82,563.54L750.01,587.91L754.2,570.36L758.39,545.01L766.77,592.78L770.96,539.17L775.15,561.59L779.34,554.76L783.53,564.51L787.72,569.39L791.91,581.09L796.1,551.84L800.29,547.94L804.48,522.59L808.67,557.69L812.86,555.74L817.05,557.69L821.24,537.22L825.43,538.19L829.62,522.59L833.81,502.12L838,512.84" style="vector-effect: non-scaling-stroke; fill: none; stroke: rgb(31, 119, 180); stroke-opacity: 1; stroke-width: 2px; opacity: 1;"/></g><g class="points"/><g class="text"/></g><g class="trace scatter traced8a787" style="stroke-miterlimit: 2; opacity: 1;"><g class="fills"/><g class="errorbars"/><g class="lines"><path class="js-line" d="M0,666.88L4.19,666.88L8.38,665.9L12.57,665.9L25.14,666.88L62.85,666.88L67.04,665.9L71.23,666.88L75.42,666.88L83.8,666.88L87.99,665.9L92.18,666.88L96.37,666.88L129.89,666.88L134.08,665.9L138.27,664.93L142.46,666.88L163.41,666.88L167.6,254.5L171.79,566.46L175.98,515.77L180.17,528.44L184.36,479.7L188.55,475.8L192.74,442.65L196.93,496.27L201.12,493.35L205.31,401.71L209.5,441.68L213.69,404.63L217.88,390.01L222.07,410.48L226.26,436.8L230.45,461.17L234.64,341.26L238.83,382.21L243.02,313.97L247.21,355.89L251.4,341.26L255.59,368.56L259.78,383.18L263.97,262.3L268.16,219.4L272.35,270.1L276.54,255.47L280.73,188.21L284.92,155.06L289.11,238.9L293.3,35.15L297.49,88.77L301.68,62.45L305.87,116.07L310.06,67.32L314.25,179.43L318.44,399.76L322.63,235L326.82,328.59L331.01,256.45L335.2,283.75L339.39,287.65L343.58,316.89L347.77,413.41L351.96,224.28L356.15,316.89L360.34,240.85L364.53,297.39L368.72,335.41L372.91,395.86L377.1,413.41L385.48,355.89L389.67,415.35L393.86,297.39L398.05,344.19L402.24,451.43L406.43,413.41L410.62,263.27L414.81,373.43L419,364.66L423.19,306.17L427.38,221.35L431.57,332.49L435.76,344.19L439.95,348.09L444.14,279.85L448.33,301.29L452.52,312.02L456.71,369.54L460.9,432.9L465.09,338.34L469.28,129.71L473.47,174.56L477.66,372.46L481.85,324.69L486.04,254.5L490.23,421.2L494.42,454.35L498.61,322.74L502.8,452.4L506.99,427.05L511.18,454.35L515.37,422.18L523.75,497.25L527.94,443.63L532.13,479.7L536.32,446.55L540.51,493.35L544.7,496.27L548.89,580.11L553.08,522.59L557.27,489.45L561.46,468L565.65,492.37L569.84,497.25L574.03,488.47L578.22,510.89L582.41,494.32L586.6,469.95L590.79,499.19L594.98,493.35L599.17,406.58L603.36,557.69L607.55,541.12L611.74,547.94L615.93,535.27L620.12,529.42L624.31,568.41L628.5,538.19L632.69,556.71L636.88,563.54L641.07,577.19L645.26,465.07L649.45,519.67L653.64,533.32L657.83,530.39L662.02,550.86L666.21,567.44L670.4,563.54L674.59,497.25L678.78,506.02L682.97,503.09L687.16,507.97L691.35,547.94L695.54,544.04L699.73,553.79L703.92,524.54L708.11,511.87L712.3,551.84L716.49,562.56L720.68,522.59L724.87,567.44L729.06,593.76L733.25,536.24L737.44,570.36L741.63,585.96L745.82,568.41L750.01,588.88L754.2,585.96L758.39,579.14L762.58,580.11L766.77,592.78L770.96,563.54L775.15,579.14L779.34,561.59L783.53,590.83L787.72,593.76L791.91,554.76L796.1,591.81L800.29,585.96L804.48,566.46L808.67,590.83L812.86,595.71L817.05,577.19L821.24,533.32L825.43,550.86L829.62,553.79L833.81,563.54L838,558.66" style="vector-effect: non-scaling-stroke; fill: none; stroke: rgb(255, 127, 14); stroke-opacity: 1; stroke-width: 2px; opacity: 1;"/></g><g class="points"/><g class="text"/></g><g class="trace scatter tracee5aaa3" style="stroke-miterlimit: 2; opacity: 1;"><g class="fills"/><g class="errorbars"/><g class="lines"><path class="js-line" d="M0,666.88L113.13,666.88L117.32,665.9L121.51,666.88L125.7,665.9L129.89,666.88L134.08,665.9L138.27,664.93L142.46,665.9L146.65,664.93L150.84,662L155.03,664.93L159.22,663.95L163.41,665.9L167.6,662.98L171.79,657.13L175.98,662.98L180.17,651.28L184.36,653.23L188.55,640.55L192.74,642.5L196.93,654.2L201.12,646.4L205.31,646.4L209.5,641.53L213.69,645.43L217.88,636.65L222.07,646.4L226.26,650.3L230.45,624.96L234.64,617.16L238.83,629.83L243.02,613.26L247.21,631.78L251.4,628.85L255.59,636.65L259.78,629.83L263.97,630.8L268.16,614.23L272.35,618.13L276.54,620.08L280.73,643.48L284.92,611.31L289.11,609.36L293.3,623.01L297.49,583.04L301.68,628.85L305.87,613.26L310.06,627.88L314.25,584.98L318.44,607.41L322.63,600.58L326.82,620.08L331.01,605.46L335.2,609.36L339.39,632.75L343.58,632.75L347.77,612.28L351.96,627.88L360.34,640.55L364.53,634.7L368.72,644.45L372.91,644.45L377.1,652.25L381.29,624.96L385.48,636.65L389.67,639.58L393.86,640.55L398.05,642.5L402.24,638.6L406.43,646.4L410.62,635.68L414.81,633.73L419,626.9L423.19,650.3L427.38,648.35L431.57,657.13L435.76,650.3L439.95,648.35L444.14,623.01L448.33,652.25L452.52,632.75L456.71,648.35L460.9,643.48L465.09,653.23L469.28,656.15L473.47,655.18L477.66,656.15L481.85,658.1L486.04,655.18L490.23,659.08L494.42,656.15L498.61,655.18L502.8,663.95L506.99,656.15L511.18,636.65L515.37,656.15L519.56,663.95L523.75,657.13L527.94,655.18L532.13,657.13L536.32,663.95L540.51,659.08L544.7,661.03L548.89,660.05L553.08,660.05L557.27,662.98L561.46,662.98L565.65,664.93L569.84,662L574.03,664.93L578.22,666.88L582.41,664.93L586.6,658.1L590.79,663.95L594.98,660.05L599.17,661.03L603.36,663.95L607.55,663.95L611.74,665.9L615.93,658.1L620.12,662L624.31,658.1L628.5,664.93L632.69,663.95L636.88,665.9L641.07,665.9L645.26,664.93L649.45,666.88L653.64,663.95L657.83,665.9L662.02,662.98L666.21,665.9L670.4,662.98L674.59,665.9L678.78,663.95L682.97,663.95L695.54,666.88L699.73,662.98L703.92,666.88L708.11,665.9L712.3,666.88L716.49,665.9L720.68,664.93L724.87,666.88L729.06,666.88L733.25,665.9L737.44,666.88L741.63,665.9L745.82,665.9L750.01,666.88L754.2,666.88L758.39,662.98L762.58,667.85L766.77,665.9L770.96,663.95L775.15,665.9L779.34,666.88L783.53,665.9L787.72,664.93L791.91,664.93L796.1,665.9L800.29,661.03L804.48,666.88L808.67,665.9L817.05,665.9L821.24,666.88L825.43,666.88L829.62,667.85L833.81,666.88L838,664.93" style="vector-effect: non-scaling-stroke; fill: none; stroke: rgb(44, 160, 44); stroke-opacity: 1; stroke-width: 2px; opacity: 1;"/></g><g class="points"/><g class="text"/></g></g></g><g class="overplot"/><path class="xlines-above crisp" style="fill: none;" d="M0,0"/><path class="ylines-above crisp" style="fill: none;" d="M0,0"/><g class="overlines-above"/><g class="xaxislayer-above"><g class="xtick"><text text-anchor="middle" x="0" y="741" transform="translate(110.28,0)" style="font-family: 'Open Sans', verdana, arial, sans-serif; font-size: 12px; fill: rgb(68, 68, 68); fill-opacity: 1; white-space: pre;">Mar 2020</text></g><g class="xtick"><text text-anchor="middle" x="0" y="741" transform="translate(240.17,0)" style="font-family: 'Open Sans', verdana, arial, sans-serif; font-size: 12px; fill: rgb(68, 68, 68); fill-opacity: 1; white-space: pre;">Apr 2020</text></g><g class="xtick"><text text-anchor="middle" x="0" y="741" transform="translate(365.87,0)" style="font-family: 'Open Sans', verdana, arial, sans-serif; font-size: 12px; fill: rgb(68, 68, 68); fill-opacity: 1; white-space: pre;">May 2020</text></g><g class="xtick"><text text-anchor="middle" x="0" y="741" transform="translate(495.76,0)" style="font-family: 'Open Sans', verdana, arial, sans-serif; font-size: 12px; fill: rgb(68, 68, 68); fill-opacity: 1; white-space: pre;">Jun 2020</text></g><g class="xtick"><text text-anchor="middle" x="0" y="741" transform="translate(621.46,0)" style="font-family: 'Open Sans', verdana, arial, sans-serif; font-size: 12px; fill: rgb(68, 68, 68); fill-opacity: 1; white-space: pre;">Jul 2020</text></g><g class="xtick"><text text-anchor="middle" x="0" y="741" transform="translate(751.35,0)" style="font-family: 'Open Sans', verdana, arial, sans-serif; font-size: 12px; fill: rgb(68, 68, 68); fill-opacity: 1; white-space: pre;">Aug 2020</text></g><g class="xtick"><text text-anchor="middle" x="0" y="741" transform="translate(881.24,0)" style="font-family: 'Open Sans', verdana, arial, sans-serif; font-size: 12px; fill: rgb(68, 68, 68); fill-opacity: 1; white-space: pre;">Sep 2020</text></g></g><g class="yaxislayer-above"><g class="ytick"><text text-anchor="end" x="59" y="4.199999999999999" transform="translate(0,691.88)" style="font-family: 'Open Sans', verdana, arial, sans-serif; font-size: 12px; fill: rgb(68, 68, 68); fill-opacity: 1; white-space: pre;">0</text></g><g class="ytick"><text text-anchor="end" x="59" y="4.199999999999999" transform="translate(0,594.39)" style="font-family: 'Open Sans', verdana, arial, sans-serif; font-size: 12px; fill: rgb(68, 68, 68); fill-opacity: 1; white-space: pre;">100</text></g><g class="ytick"><text text-anchor="end" x="59" y="4.199999999999999" transform="translate(0,496.9)" style="font-family: 'Open Sans', verdana, arial, sans-serif; font-size: 12px; fill: rgb(68, 68, 68); fill-opacity: 1; white-space: pre;">200</text></g><g class="ytick"><text text-anchor="end" x="59" y="4.199999999999999" transform="translate(0,399.41)" style="font-family: 'Open Sans', verdana, arial, sans-serif; font-size: 12px; fill: rgb(68, 68, 68); fill-opacity: 1; white-space: pre;">300</text></g><g class="ytick"><text text-anchor="end" x="59" y="4.199999999999999" transform="translate(0,301.92)" style="font-family: 'Open Sans', verdana, arial, sans-serif; font-size: 12px; fill: rgb(68, 68, 68); fill-opacity: 1; white-space: pre;">400</text></g><g class="ytick"><text text-anchor="end" x="59" y="4.199999999999999" transform="translate(0,204.43)" style="font-family: 'Open Sans', verdana, arial, sans-serif; font-size: 12px; fill: rgb(68, 68, 68); fill-opacity: 1; white-space: pre;">500</text></g><g class="ytick"><text text-anchor="end" x="59" y="4.199999999999999" transform="translate(0,106.94)" style="font-family: 'Open Sans', verdana, arial, sans-serif; font-size: 12px; fill: rgb(68, 68, 68); fill-opacity: 1; white-space: pre;">600</text></g></g><g class="overaxes-above"/></g></g><g class="polarlayer"/><g class="ternarylayer"/><g class="geolayer"/><g class="funnelarealayer"/><g class="pielayer"/><g class="treemaplayer"/><g class="sunburstlayer"/><g class="glimages"/><defs id="topdefs-fd231d"><g class="clips"/><clipPath id="legendfd231d"><rect width="102" height="67" x="0" y="0"/></clipPath></defs><g class="layer-above"><g class="imagelayer"/><g class="shapelayer"/></g><g class="infolayer"><g class="legend" pointer-events="all" transform="translate(914.76, 25)"><rect class="bg" shape-rendering="crispEdges" style="stroke: rgb(68, 68, 68); stroke-opacity: 1; fill: rgb(255, 255, 255); fill-opacity: 1; stroke-width: 0px;" width="102" height="67" x="0" y="0"/><g class="scrollbox" transform="translate(0, 0)" clip-path="url('#legendfd231d')"><g class="groups"><g class="traces" style="opacity: 1;" transform="translate(0, 14.5)"><text class="legendtext user-select-none" text-anchor="start" x="40" y="4.680000000000001" style="font-family: 'Open Sans', verdana, arial, sans-serif; font-size: 12px; fill: rgb(68, 68, 68); fill-opacity: 1; white-space: pre;">positive</text><g class="layers" style="opacity: 1;"><g class="legendfill"/><g class="legendlines"><path class="js-line" d="M5,0h30" style="fill: none; stroke: rgb(31, 119, 180); stroke-opacity: 1; stroke-width: 2px;"/></g><g class="legendsymbols"><g class="legendpoints"/></g></g><rect class="legendtoggle" pointer-events="all" x="0" y="-9.5" width="96.109375" height="19" style="cursor: pointer; fill: rgb(0, 0, 0); fill-opacity: 0;"/></g><g class="traces" style="opacity: 1;" transform="translate(0, 33.5)"><text class="legendtext user-select-none" text-anchor="start" x="40" y="4.680000000000001" style="font-family: 'Open Sans', verdana, arial, sans-serif; font-size: 12px; fill: rgb(68, 68, 68); fill-opacity: 1; white-space: pre;">resolved</text><g class="layers" style="opacity: 1;"><g class="legendfill"/><g class="legendlines"><path class="js-line" d="M5,0h30" style="fill: none; stroke: rgb(255, 127, 14); stroke-opacity: 1; stroke-width: 2px;"/></g><g class="legendsymbols"><g class="legendpoints"/></g></g><rect class="legendtoggle" pointer-events="all" x="0" y="-9.5" width="96.109375" height="19" style="cursor: pointer; fill: rgb(0, 0, 0); fill-opacity: 0;"/></g><g class="traces" style="opacity: 1;" transform="translate(0, 52.5)"><text class="legendtext user-select-none" text-anchor="start" x="40" y="4.680000000000001" style="font-family: 'Open Sans', verdana, arial, sans-serif; font-size: 12px; fill: rgb(68, 68, 68); fill-opacity: 1; white-space: pre;">deceased</text><g class="layers" style="opacity: 1;"><g class="legendfill"/><g class="legendlines"><path class="js-line" d="M5,0h30" style="fill: none; stroke: rgb(44, 160, 44); stroke-opacity: 1; stroke-width: 2px;"/></g><g class="legendsymbols"><g class="legendpoints"/></g></g><rect class="legendtoggle" pointer-events="all" x="0" y="-9.5" width="96.109375" height="19" style="cursor: pointer; fill: rgb(0, 0, 0); fill-opacity: 0;"/></g></g></g><rect class="scrollbar" rx="20" ry="3" width="0" height="0" style="fill: rgb(128, 139, 164); fill-opacity: 1;" x="0" y="0"/></g><g class="g-gtitle"><text class="gtitle" x="513.5" y="12.5" text-anchor="middle" dy="0em" style="font-family: 'Open Sans', verdana, arial, sans-serif; font-size: 17px; fill: rgb(68, 68, 68); opacity: 1; font-weight: normal; white-space: pre;">Dynamics of new cases, resolved cases and deaths in Ontario (Sep 06, 2020)</text></g><g class="g-xtitle" transform="translate(0,-15)"><text class="xtitle" x="479" y="780" text-anchor="middle" style="font-family: 'Open Sans', verdana, arial, sans-serif; font-size: 14px; fill: rgb(68, 68, 68); opacity: 1; font-weight: normal; white-space: pre;">Date</text></g><g class="g-ytitle"><text class="ytitle" transform="rotate(-90,22,376.5)" x="22" y="376.5" text-anchor="middle" style="font-family: 'Open Sans', verdana, arial, sans-serif; font-size: 14px; fill: rgb(68, 68, 68); opacity: 1; font-weight: normal; white-space: pre;">Number of cases</text></g></g></svg>