<svg class="main-svg" xmlns="http://www.w3.org/2000/svg" xmlns:xlink="http://www.w3.org/1999/xlink" width="1027" height="768" style="" viewBox="0 0 1027 768"><rect x="0" y="0" width="1027" height="768" style="fill: rgb(255, 255, 255); fill-opacity: 1;"/><defs id="defs-5edc60"><g class="clips"><clipPath id="clip5edc60xyplot" class="plotclip"><rect width="838" height="703"/></clipPath><clipPath class="axesclip" id="clip5edc60x"><rect x="60" y="0" width="838" height="768"/></clipPath><clipPath class="axesclip" id="clip5edc60y"><rect x="0" y="25" width="1027" height="703"/></clipPath><clipPath class="axesclip" id="clip5edc60xy"><rect x="60" y="25" width="838" height="703"/></clipPath></g><g class="gradients"/></defs><g class="bglayer"/><g class="layer-below"><g class="imagelayer"/><g class="shapelayer"/></g><g class="cartesianlayer"><g class="subplot xy"><g class="layer-subplot"><g class="shapelayer"/><g class="imagelayer"/></g><g class="gridlayer"><g class="x"><path class="xgrid crisp" transform="translate(82.55,0)" d="M0,25v703" style="stroke: rgb(238, 238, 238); stroke-opacity: 1; stroke-width: 1px;"/><path class="xgrid crisp" transform="translate(197.16,0)" d="M0,25v703" style="stroke: rgb(238, 238, 238); stroke-opacity: 1; stroke-width: 1px;"/><path class="xgrid crisp" transform="translate(311.78,0)" d="M0,25v703" style="stroke: rgb(238, 238, 238); stroke-opacity: 1; stroke-width: 1px;"/><path class="xgrid crisp" transform="translate(428.27,0)" d="M0,25v703" style="stroke: rgb(238, 238, 238); stroke-opacity: 1; stroke-width: 1px;"/><path class="xgrid crisp" transform="translate(542.88,0)" d="M0,25v703" style="stroke: rgb(238, 238, 238); stroke-opacity: 1; stroke-width: 1px;"/><path class="xgrid crisp" transform="translate(657.5,0)" d="M0,25v703" style="stroke: rgb(238, 238, 238); stroke-opacity: 1; stroke-width: 1px;"/><path class="xgrid crisp" transform="translate(768.35,0)" d="M0,25v703" style="stroke: rgb(238, 238, 238); stroke-opacity: 1; stroke-width: 1px;"/><path class="xgrid crisp" transform="translate(882.97,0)" d="M0,25v703" style="stroke: rgb(238, 238, 238); stroke-opacity: 1; stroke-width: 1px;"/></g><g class="y"><path class="ygrid crisp" transform="translate(0,561.26)" d="M60,0h838" style="stroke: rgb(238, 238, 238); stroke-opacity: 1; stroke-width: 1px;"/><path class="ygrid crisp" transform="translate(0,429.81)" d="M60,0h838" style="stroke: rgb(238, 238, 238); stroke-opacity: 1; stroke-width: 1px;"/><path class="ygrid crisp" transform="translate(0,298.35)" d="M60,0h838" style="stroke: rgb(238, 238, 238); stroke-opacity: 1; stroke-width: 1px;"/><path class="ygrid crisp" transform="translate(0,166.89)" d="M60,0h838" style="stroke: rgb(238, 238, 238); stroke-opacity: 1; stroke-width: 1px;"/><path class="ygrid crisp" transform="translate(0,35.44)" d="M60,0h838" style="stroke: rgb(238, 238, 238); stroke-opacity: 1; stroke-width: 1px;"/></g></g><g class="zerolinelayer"><path class="yzl zl crisp" transform="translate(0,692.72)" d="M60,0h838" style="stroke: rgb(68, 68, 68); stroke-opacity: 1; stroke-width: 1px;"/></g><path class="xlines-below"/><path class="ylines-below"/><g class="overlines-below"/><g class="xaxislayer-below"/><g class="yaxislayer-below"/><g class="overaxes-below"/><g class="plot" transform="translate(60, 25)" clip-path="url('#clip5edc60xyplot')"><g class="scatterlayer mlayer"><g class="trace scatter trace541227" style="stroke-miterlimit: 2; opacity: 1;"><g class="fills"/><g class="errorbars"/><g class="lines"><path class="js-line" d="M0,667.72L18.79,667.59L24.43,666.14L26.3,667.46L28.18,667.72L37.58,666.8L39.46,667.72L46.97,664.56L48.85,662.2L50.73,663.51L52.61,666.27L58.25,659.83L60.13,660.23L62,661.93L63.88,657.6L67.64,655.23L69.52,645.63L71.4,650.37L73.28,648L75.16,590.29L77.04,633.54L78.91,611.72L80.79,615L82.67,606.99L84.55,618.42L86.43,614.08L88.31,627.1L90.19,617.9L92.07,595.42L93.95,604.23L95.83,604.88L97.7,613.69L99.58,615L101.46,612.38L103.34,604.23L105.22,602.78L107.1,600.15L108.98,593.58L110.86,603.96L112.74,593.05L114.61,588.06L118.37,600.68L120.25,584.38L122.13,583.59L124.01,605.15L125.89,610.27L127.77,611.98L129.65,598.7L131.52,622.1L133.4,607.38L135.28,612.38L137.16,600.54L139.04,610.67L140.92,619.08L142.8,616.84L144.68,613.56L146.56,615.27L148.43,605.01L150.31,622.23L152.19,629.07L154.07,627.23L155.95,620.26L157.83,624.47L159.71,622.37L161.59,622.89L163.47,616.32L165.35,623.02L167.22,627.76L169.1,611.59L170.98,616.45L172.86,613.43L174.74,609.75L176.62,613.56L178.5,607.25L180.38,614.61L182.26,629.99L184.13,629.33L186.01,617.37L187.89,622.5L189.77,625.26L191.65,624.86L193.53,614.61L195.41,609.09L197.29,623.29L199.17,620.92L201.04,622.5L202.92,607.91L204.8,613.16L206.68,635.77L208.56,637.48L210.44,634.72L212.32,641.03L214.2,643.79L216.08,632.75L217.96,641.82L219.83,643.92L221.71,643.53L223.59,642.74L225.47,644.98L227.35,644.32L229.23,640.64L231.11,644.71L232.99,646.55L234.87,639.32L236.74,646.29L238.62,642.87L240.5,653.13L242.38,646.69L244.26,644.32L246.14,633.93L248.02,647.08L249.9,648.13L251.78,647.61L253.65,646.03L255.53,651.81L259.29,647.47L261.17,653L263.05,652.21L264.93,645.37L266.81,652.47L268.69,650.63L270.57,650.76L272.44,652.47L276.2,654.31L278.08,653.13L279.96,653.13L281.84,645.9L283.72,646.16L285.6,649.97L287.48,641.03L289.35,646.03L291.23,654.18L293.11,642.08L294.99,649.58L296.87,649.71L298.75,652.08L300.63,653.13L302.51,657.73L304.39,656.02L306.26,650.1L308.14,651.42L310.02,652.47L311.9,656.15L313.78,655.76L315.66,656.41L317.54,655.23L319.42,656.15L321.3,658.52L323.17,657.33L325.05,652.6L326.93,663.38L328.81,655.23L330.69,657.46L334.45,653.78L336.33,657.07L340.09,651.29L341.96,654.31L343.84,657.73L345.72,650.5L347.6,653.52L349.48,652.6L355.12,656.15L357,652.21L358.87,651.68L360.75,648.26L362.63,653L364.51,652.73L366.39,653L368.27,650.23L370.15,650.37L372.03,648.26L373.91,645.5L375.78,646.95L377.66,642.74L379.54,643.4L381.42,648.13L383.3,645.37L385.18,639.72L387.06,637.22L388.94,640.9L390.82,626.57L392.7,634.72L394.57,626.31L396.45,629.2L398.33,615L400.21,614.22L402.09,619.74L405.85,604.88L407.73,623.68L409.61,613.95L411.48,613.95L413.36,610.53L415.24,603.17L417.12,575.7L419,594.89L420.88,585.56L422.76,596.99L424.64,571.49L426.52,581.88L428.39,593.31L430.27,586.87L432.15,595.68L434.03,591.08L437.79,544.28L439.67,561.37L441.55,582.4L443.43,561.63L445.3,569.65L447.18,572.94L449.06,564.79L450.94,574.12L452.82,561.9L454.7,581.22L456.58,575.17L458.46,559.79L460.34,563.87L462.22,557.16L464.09,559.14L465.97,539.15L467.85,530.74L469.73,555.85L471.61,559L473.49,558.08L475.37,544.94L477.25,549.93L479.13,534.29L481,539.29L482.88,543.1L484.76,529.69L486.64,537.97L488.52,536.52L490.4,535.87L492.28,518.91L494.16,493.14L496.04,504.45L497.91,485.26L499.79,480.26L501.67,460.67L503.55,484.21L505.43,459.89L507.31,503.66L509.19,472.24L511.07,503.53L512.95,481.44L514.83,508.66L518.58,458.97L520.46,466.06L522.34,458.83L524.22,535.08L526.1,487.23L527.98,473.43L529.86,423.87L531.74,428.2L533.61,443.19L535.49,438.2L537.37,443.32L539.25,441.22L541.13,427.94L543.01,433.73L546.77,414.8L548.65,414.66L550.52,447.4L552.4,419.27L554.28,407.04L556.16,424.79L558.04,421.5L559.92,447.27L563.68,368.66L565.56,386.53L567.43,348.02L569.31,366.68L571.19,357.88L573.07,363.27L574.95,388.64L576.83,378.25L578.71,351.17L580.59,346.04L582.47,383.9L584.35,386.14L586.22,404.15L588.1,412.82L591.86,283.47L593.74,230.23L595.62,342.23L597.5,225.63L599.38,278.08L601.26,237.86L603.13,256.52L605.01,238.38L606.89,205.12L608.77,109.16L610.65,215.11L612.53,149.12L616.29,286.1L618.17,278.48L620.04,230.49L621.92,273.61L623.8,265.99L625.68,217.87L629.44,416.24L631.32,318.7L633.2,321.73L635.08,317.78L636.96,357.61L638.83,349.99L640.71,410.33L642.59,438.98L644.47,448.19L646.35,392.58L648.23,426.23L650.11,396.52L651.99,424.79L653.87,408.88L655.74,569.78L657.62,513.65L659.5,462.25L661.38,448.19L663.26,485.26L665.14,471.98L668.9,533.37L670.78,526.8L672.65,543.49L674.53,526.27L676.41,496.83L678.29,538.76L680.17,540.99L682.05,548.88L683.93,556.37L685.81,531.27L689.57,506.29L691.44,524.83L693.32,528.64L695.2,539.55L698.96,518.12L700.84,502.35L702.72,511.94L704.6,528.11L706.48,533.24L708.35,540.73L710.23,541.78L712.11,537.05L713.99,503.4L715.87,537.58L719.63,453.31L721.51,511.94L723.39,494.72L725.26,524.17L727.14,487.49L729.02,474.74L730.9,438.06L732.78,501.03L734.66,526.53L736.54,469.48L738.42,463.57L740.3,438.33L742.17,427.28L744.05,432.28L745.93,444.37L747.81,464.49L749.69,461.2L751.57,354.85L753.45,382.59L755.33,345.26L757.21,345.91L759.09,392.45L760.96,360.64L762.84,361.03L764.72,331.58L766.6,261.65L768.48,272.17L770.36,267.96L772.24,281.5L774.12,264.8L776,245.09L777.87,234.57L779.75,112.05L781.63,166.48L783.51,81.95L785.39,89.18L787.27,185.27L789.15,121.39L791.03,45.14L792.91,35.15L794.78,94.31L796.66,109.03L798.54,83.13L800.42,211.7L802.3,114.02L804.18,183.7L806.06,75.51L807.94,129.54L809.82,148.86L811.7,206.31L813.57,238.51L815.45,210.25L817.33,158.85L819.21,156.75L821.09,224.84L822.97,177.12L824.85,216.03L826.73,300.82L828.61,281.11L830.48,217.61L834.24,291.23L836.12,244.95L838,310.68" style="vector-effect: non-scaling-stroke; fill: none; stroke: rgb(31, 119, 180); stroke-opacity: 1; stroke-width: 2px; opacity: 1;"/></g><g class="points"/><g class="text"/></g><g class="trace scatter trace4ae9ed" style="stroke-miterlimit: 2; opacity: 1;"><g class="fills"/><g class="errorbars"/><g class="lines"><path class="js-line" d="M0,667.72L73.28,667.72L75.16,612.11L77.04,654.18L78.91,647.34L80.79,649.05L82.67,642.48L84.55,641.95L86.43,637.48L88.31,644.71L90.19,644.32L92.07,631.96L93.95,637.35L95.83,632.36L97.7,630.38L103.34,639.98L105.22,623.81L107.1,629.33L108.98,620.13L110.86,625.78L112.74,623.81L114.61,627.49L116.49,629.46L118.37,613.16L120.25,607.38L122.13,614.22L124.01,612.24L125.89,603.17L127.77,598.7L129.65,610.01L131.52,582.53L133.4,589.76L135.28,586.22L137.16,593.45L139.04,586.87L140.92,601.99L142.8,631.7L144.68,609.48L146.56,622.1L148.43,612.38L150.31,616.06L152.19,616.58L154.07,620.53L155.95,633.54L157.83,608.04L159.71,620.53L161.59,610.27L167.22,631.17L169.1,633.54L172.86,625.78L174.74,633.8L176.62,617.9L178.5,624.21L180.38,638.67L182.26,633.54L184.13,613.3L186.01,628.15L187.89,626.97L189.77,619.08L191.65,607.64L193.53,622.63L195.41,624.21L197.29,624.73L199.17,615.53L201.04,618.42L202.92,619.87L204.8,627.62L206.68,636.17L208.56,623.42L210.44,595.29L212.32,601.33L214.2,628.02L216.08,621.58L217.96,612.11L219.83,634.59L221.71,639.06L223.59,621.31L225.47,638.8L227.35,635.38L229.23,639.06L231.11,634.72L234.87,644.85L236.74,637.62L238.62,642.48L240.5,638.01L242.38,644.32L244.26,644.71L246.14,656.02L248.02,648.26L251.78,640.9L253.65,644.19L255.53,644.85L257.41,643.66L259.29,646.69L261.17,644.45L263.05,641.16L264.93,645.11L266.81,644.32L268.69,632.62L270.57,653L272.44,650.76L274.32,651.68L276.2,649.97L278.08,649.18L279.96,654.44L281.84,650.37L283.72,652.86L285.6,653.78L287.48,655.62L289.35,640.51L291.23,647.87L293.11,649.71L294.99,649.31L298.75,654.31L300.63,653.78L302.51,644.85L304.39,646.03L306.26,645.63L308.14,646.29L310.02,651.68L311.9,651.16L313.78,652.47L315.66,648.53L317.54,646.82L319.42,652.21L321.3,653.65L323.17,648.26L326.93,657.86L328.81,650.1L330.69,654.7L332.57,656.81L334.45,654.44L336.33,657.2L341.96,656.02L343.84,657.73L345.72,653.78L347.6,655.89L349.48,653.52L351.36,657.46L353.24,657.86L355.12,652.6L357,657.6L358.87,656.81L360.75,654.18L362.63,657.46L364.51,658.12L366.39,655.62L368.27,649.71L370.15,652.08L372.03,652.47L373.91,653.78L379.54,652.08L381.42,649.84L383.3,649.05L385.18,651.42L387.06,652.08L388.94,651.42L390.82,650.23L392.7,652.34L396.45,644.19L398.33,644.58L400.21,644.45L402.09,642.61L403.97,644.32L405.85,641.95L407.73,633.8L409.61,630.12L411.48,630.52L413.36,623.29L415.24,629.73L417.12,624.21L419,625.26L420.88,607.64L422.76,600.02L424.64,611.46L426.52,610.53L428.39,597.52L432.15,595.94L434.03,574.78L435.91,576.36L437.79,572.54L439.67,575.7L441.55,575.04L445.3,585.69L447.18,564.79L449.06,565.31L450.94,573.99L452.82,578.07L454.7,577.67L456.58,587.92L458.46,585.16L460.34,573.2L462.22,570.31L464.09,571.36L465.97,585.56L467.85,570.97L469.73,578.46L471.61,576.88L473.49,566.1L475.37,559.92L477.25,563.08L479.13,562.82L481,554.14L482.88,559.14L484.76,557.69L486.64,543.49L488.52,543.1L490.4,542.97L492.28,555.72L494.16,552.43L496.04,559.79L497.91,565.05L499.79,551.25L501.67,547.17L503.55,533.9L505.43,535.87L507.31,528.11L509.19,537.31L511.07,518.52L512.95,471.19L514.83,486.83L516.7,481.71L518.58,488.54L522.34,472.64L524.22,525.48L526.1,473.69L527.98,488.28L531.74,469.22L533.61,478.03L535.49,494.2L537.37,487.23L539.25,446.08L541.13,465.14L543.01,463.57L544.89,454.23L546.77,460.81L548.65,482.1L550.52,464.09L552.4,414.8L554.28,430.57L556.16,437.28L558.04,415.59L559.92,447.13L561.8,465.93L563.68,429.78L565.56,399.15L567.43,403.62L569.31,405.86L571.19,422.55L573.07,413.88L574.95,450.29L578.71,372.86L580.59,403.1L582.47,373.65L584.35,416.24L586.22,404.15L588.1,384.96L589.98,374.18L591.86,373.65L593.74,376.81L595.62,344.34L597.5,397.71L599.38,381.8L601.26,395.08L603.13,402.83L605.01,272.69L606.89,302.8L608.77,307.79L610.65,284.52L612.53,339.6L614.41,305.42L616.29,226.94L618.17,221.82L620.04,195.4L621.92,223.4L625.68,263.1L627.56,296.22L629.44,290.04L631.32,179.49L633.2,274.66L635.08,224.05L640.71,345.91L642.59,370.5L644.47,309.5L646.35,340.26L648.23,286.49L650.11,322.91L651.99,363.66L653.87,387.45L655.74,365.76L657.62,438.33L661.38,374.18L663.26,431.62L665.14,413.09L667.02,444.24L668.9,485.26L670.78,443.06L672.65,491.04L674.53,481.71L676.41,479.21L678.29,505.37L682.05,521.54L683.93,476.32L685.81,499.85L687.69,502.74L689.57,495.12L691.44,517.86L693.32,525.35L695.2,536L697.08,498.01L698.96,523.91L700.84,535.34L702.72,538.37L704.6,532.45L706.48,544.28L708.35,539.02L710.23,524.43L712.11,526.8L713.99,515.36L715.87,516.28L717.75,522.46L719.63,537.05L721.51,539.94L723.39,508.39L725.26,521.8L727.14,519.96L729.02,516.41L730.9,514.31L732.78,521.28L734.66,525.09L736.54,472.11L738.42,505.24L740.3,497.35L742.17,501.95L744.05,489.86L745.93,513.26L747.81,500.64L749.69,466.46L751.57,493.01L753.45,447.53L755.33,473.03L757.21,464.88L759.09,467.38L760.96,473.56L762.84,408.35L764.72,429.26L766.6,414.66L768.48,428.6L770.36,418.08L772.24,436.22L774.12,407.96L776,351.3L777.87,329.09L779.75,320.54L781.63,349.33L783.51,323.7L785.39,346.31L787.27,329.48L789.15,252.32L791.03,250.48L792.91,253.5L794.78,193.03L796.66,228.92L798.54,253.24L800.42,224.84L802.3,115.08L804.18,63.41L806.06,50.14L807.94,98.25L809.82,110.47L811.7,134.4L813.57,153.99L815.45,73.93L817.33,109.69L819.21,110.08L821.09,146.63L822.97,148.86L826.73,230.89L828.61,94.44L830.48,142.29L832.36,158.32L834.24,195L836.12,187.51L838,258.89" style="vector-effect: non-scaling-stroke; fill: none; stroke: rgb(255, 127, 14); stroke-opacity: 1; stroke-width: 2px; opacity: 1;"/></g><g class="points"/><g class="text"/></g><g class="trace scatter trace0f25f6" style="stroke-miterlimit: 2; opacity: 1;"><g class="fills"/><g class="errorbars"/><g class="lines"><path class="js-line" d="M0,667.72L75.16,667.19L77.04,666.4L78.91,667.19L80.79,665.62L82.67,665.88L84.55,664.17L86.43,664.43L88.31,666.01L90.19,664.96L92.07,664.96L93.95,664.3L95.83,664.83L97.7,663.64L99.58,664.96L101.46,665.48L103.34,662.07L105.22,661.01L107.1,662.72L108.98,660.49L110.86,662.99L112.74,662.59L114.61,663.64L116.49,662.72L118.37,662.85L120.25,660.62L122.13,661.15L124.01,661.41L125.89,664.56L127.77,660.23L129.65,659.96L131.52,661.8L133.4,656.41L135.28,662.59L137.16,660.49L139.04,662.46L140.92,656.68L142.8,659.7L144.68,658.78L146.56,661.41L148.43,659.44L150.31,659.96L152.19,663.12L154.07,663.12L155.95,660.36L157.83,662.46L159.71,663.38L161.59,664.17L163.47,663.38L165.35,664.7L167.22,664.7L169.1,665.75L170.98,662.07L172.86,663.64L174.74,664.04L180.38,663.91L182.26,664.96L184.13,663.51L186.01,663.25L187.89,662.33L189.77,665.48L191.65,665.22L193.53,666.4L197.29,665.22L199.17,661.8L201.04,665.75L202.92,663.12L204.8,665.22L206.68,664.56L208.56,665.88L210.44,666.27L217.96,666.14L219.83,666.67L223.59,666.14L225.47,667.32L227.35,666.27L229.23,663.64L231.11,666.27L232.99,667.32L236.74,666.14L238.62,666.4L240.5,667.32L242.38,666.67L249.9,667.19L251.78,667.19L259.29,667.72L261.17,667.46L263.05,666.54L264.93,667.32L268.69,666.93L270.57,667.32L274.32,667.59L276.2,666.54L278.08,667.06L279.96,666.54L281.84,667.46L283.72,667.32L291.23,667.72L293.11,667.32L298.75,667.59L300.63,667.19L304.39,667.32L306.26,667.32L319.42,667.72L321.3,667.59L328.81,667.59L330.69,667.72L340.09,667.19L341.96,667.85L347.6,667.59L349.48,667.72L358.87,666.93L360.75,667.72L370.15,667.72L372.03,667.85L383.3,667.59L385.18,667.85L392.7,667.19L394.57,667.46L405.85,667.32L407.73,667.32L413.36,667.72L415.24,667.46L422.76,667.32L424.64,657.73L428.39,666.8L430.27,667.06L432.15,666.8L434.03,667.59L439.67,666.8L441.55,667.59L445.3,666.54L447.18,667.72L452.82,666.4L454.7,667.06L458.46,667.32L460.34,666.54L473.49,667.06L475.37,666.4L482.88,666.8L484.76,665.88L488.52,666.01L490.4,665.88L494.16,666.01L496.04,666.14L503.55,665.22L505.43,665.09L507.31,663.91L509.19,666.4L511.07,666.14L512.95,663.51L514.83,664.04L516.7,666.67L518.58,664.96L520.46,665.88L522.34,665.22L524.22,665.88L526.1,663.12L527.98,664.96L529.86,665.09L531.74,663.91L533.61,664.56L535.49,666.67L537.37,666.8L539.25,663.12L541.13,665.88L543.01,664.43L546.77,665.75L548.65,664.3L550.52,666.4L552.4,664.04L556.16,661.8L558.04,665.48L559.92,665.62L561.8,664.7L563.68,665.09L565.56,662.07L567.43,664.7L569.31,662.46L571.19,664.17L573.07,664.43L574.95,665.48L576.83,664.96L578.71,662.33L580.59,661.28L584.35,662.72L586.22,665.35L588.1,662.85L589.98,662.33L591.86,665.22L593.74,660.36L597.5,661.93L599.38,664.43L601.26,663.91L603.13,661.01L605.01,662.85L606.89,656.02L608.77,664.3L610.65,662.46L612.53,659.7L614.41,663.91L616.29,662.33L618.17,657.99L620.04,659.57L621.92,654.57L623.8,661.01L625.68,658.65L627.56,664.56L629.44,661.67L631.32,656.02L633.2,661.67L635.08,656.28L636.96,660.88L640.71,662.07L642.59,659.44L644.47,661.28L646.35,660.36L648.23,660.09L650.11,658.12L651.99,662.07L653.87,662.99L655.74,665.88L657.62,658.91L659.5,656.15L661.38,661.8L663.26,661.8L665.14,664.83L667.02,663.38L668.9,665.48L670.78,662.33L672.65,665.35L676.41,665.22L678.29,662.2L680.17,666.01L682.05,666.01L683.93,666.4L685.81,661.93L687.69,661.54L689.57,664.04L691.44,666.01L693.32,666.27L697.08,666.54L698.96,664.7L700.84,664.04L702.72,665.62L704.6,665.09L706.48,666.93L710.23,665.48L712.11,666.4L713.99,664.83L715.87,666.93L717.75,665.75L719.63,666.4L721.51,666.93L723.39,665.62L725.26,666.4L727.14,665.35L729.02,666.27L730.9,665.75L732.78,666.54L734.66,666.27L738.42,665.75L740.3,666.4L742.17,666.27L744.05,665.35L745.93,667.32L747.81,666.54L749.69,666.4L751.57,665.48L753.45,666.14L755.33,665.62L757.21,665.22L759.09,666.4L766.6,664.7L768.48,665.62L774.12,666.67L776,665.48L783.51,664.96L785.39,665.75L787.27,665.75L789.15,664.04L792.91,664.43L794.78,663.25L796.66,665.35L798.54,665.22L800.42,664.83L802.3,663.51L804.18,662.46L806.06,663.25L807.94,664.56L809.82,664.56L815.45,664.56L817.33,662.33L819.21,664.96L821.09,663.91L824.85,665.62L826.73,664.43L828.61,661.93L830.48,664.3L834.24,664.43L836.12,661.54L838,665.22" style="vector-effect: non-scaling-stroke; fill: none; stroke: rgb(44, 160, 44); stroke-opacity: 1; stroke-width: 2px; opacity: 1;"/></g><g class="points"/><g class="text"/></g></g></g><g class="overplot"/><path class="xlines-above crisp" style="fill: none;" d="M0,0"/><path class="ylines-above crisp" style="fill: none;" d="M0,0"/><g class="overlines-above"/><g class="xaxislayer-above"><g class="xtick"><text text-anchor="middle" x="0" y="741" transform="translate(82.55,0)" style="font-family: 'Open Sans', verdana, arial, sans-serif; font-size: 12px; fill: rgb(68, 68, 68); fill-opacity: 1; white-space: pre;">Mar 2020</text></g><g class="xtick"><text text-anchor="middle" x="0" y="741" transform="translate(197.16,0)" style="font-family: 'Open Sans', verdana, arial, sans-serif; font-size: 12px; fill: rgb(68, 68, 68); fill-opacity: 1; white-space: pre;">May 2020</text></g><g class="xtick"><text text-anchor="middle" x="0" y="741" transform="translate(311.78,0)" style="font-family: 'Open Sans', verdana, arial, sans-serif; font-size: 12px; fill: rgb(68, 68, 68); fill-opacity: 1; white-space: pre;">Jul 2020</text></g><g class="xtick"><text text-anchor="middle" x="0" y="741" transform="translate(428.27,0)" style="font-family: 'Open Sans', verdana, arial, sans-serif; font-size: 12px; fill: rgb(68, 68, 68); fill-opacity: 1; white-space: pre;">Sep 2020</text></g><g class="xtick"><text text-anchor="middle" x="0" y="741" transform="translate(542.88,0)" style="font-family: 'Open Sans', verdana, arial, sans-serif; font-size: 12px; fill: rgb(68, 68, 68); fill-opacity: 1; white-space: pre;">Nov 2020</text></g><g class="xtick"><text text-anchor="middle" x="0" y="741" transform="translate(657.5,0)" style="font-family: 'Open Sans', verdana, arial, sans-serif; font-size: 12px; fill: rgb(68, 68, 68); fill-opacity: 1; white-space: pre;">Jan 2021</text></g><g class="xtick"><text text-anchor="middle" x="0" y="741" transform="translate(768.35,0)" style="font-family: 'Open Sans', verdana, arial, sans-serif; font-size: 12px; fill: rgb(68, 68, 68); fill-opacity: 1; white-space: pre;">Mar 2021</text></g><g class="xtick"><text text-anchor="middle" x="0" y="741" transform="translate(882.97,0)" style="font-family: 'Open Sans', verdana, arial, sans-serif; font-size: 12px; fill: rgb(68, 68, 68); fill-opacity: 1; white-space: pre;">May 2021</text></g></g><g class="yaxislayer-above"><g class="ytick"><text text-anchor="end" x="59" y="4.199999999999999" transform="translate(0,692.72)" style="font-family: 'Open Sans', verdana, arial, sans-serif; font-size: 12px; fill: rgb(68, 68, 68); fill-opacity: 1; white-space: pre;">0</text></g><g class="ytick"><text text-anchor="end" x="59" y="4.199999999999999" transform="translate(0,561.26)" style="font-family: 'Open Sans', verdana, arial, sans-serif; font-size: 12px; fill: rgb(68, 68, 68); fill-opacity: 1; white-space: pre;">1000</text></g><g class="ytick"><text text-anchor="end" x="59" y="4.199999999999999" transform="translate(0,429.81)" style="font-family: 'Open Sans', verdana, arial, sans-serif; font-size: 12px; fill: rgb(68, 68, 68); fill-opacity: 1; white-space: pre;">2000</text></g><g class="ytick"><text text-anchor="end" x="59" y="4.199999999999999" transform="translate(0,298.35)" style="font-family: 'Open Sans', verdana, arial, sans-serif; font-size: 12px; fill: rgb(68, 68, 68); fill-opacity: 1; white-space: pre;">3000</text></g><g class="ytick"><text text-anchor="end" x="59" y="4.199999999999999" transform="translate(0,166.89)" style="font-family: 'Open Sans', verdana, arial, sans-serif; font-size: 12px; fill: rgb(68, 68, 68); fill-opacity: 1; white-space: pre;">4000</text></g><g class="ytick"><text text-anchor="end" x="59" y="4.199999999999999" transform="translate(0,35.44)" style="font-family: 'Open Sans', verdana, arial, sans-serif; font-size: 12px; fill: rgb(68, 68, 68); fill-opacity: 1; white-space: pre;">5000</text></g></g><g class="overaxes-above"/></g></g><g class="polarlayer"/><g class="ternarylayer"/><g class="geolayer"/><g class="funnelarealayer"/><g class="pielayer"/><g class="treemaplayer"/><g class="sunburstlayer"/><g class="glimages"/><defs id="topdefs-5edc60"><g class="clips"/><clipPath id="legend5edc60"><rect width="102" height="67" x="0" y="0"/></clipPath></defs><g class="layer-above"><g class="imagelayer"/><g class="shapelayer"/></g><g class="infolayer"><g class="legend" pointer-events="all" transform="translate(914.76, 25)"><rect class="bg" shape-rendering="crispEdges" style="stroke: rgb(68, 68, 68); stroke-opacity: 1; fill: rgb(255, 255, 255); fill-opacity: 1; stroke-width: 0px;" width="102" height="67" x="0" y="0"/><g class="scrollbox" transform="translate(0, 0)" clip-path="url('#legend5edc60')"><g class="groups"><g class="traces" style="opacity: 1;" transform="translate(0, 14.5)"><text class="legendtext" text-anchor="start" x="40" y="4.680000000000001" style="font-family: 'Open Sans', verdana, arial, sans-serif; font-size: 12px; fill: rgb(68, 68, 68); fill-opacity: 1; white-space: pre;">positive</text><g class="layers" style="opacity: 1;"><g class="legendfill"/><g class="legendlines"><path class="js-line" d="M5,0h30" style="fill: none; stroke: rgb(31, 119, 180); stroke-opacity: 1; stroke-width: 2px;"/></g><g class="legendsymbols"><g class="legendpoints"/></g></g><rect class="legendtoggle" x="0" y="-9.5" width="96.109375" height="19" style="fill: rgb(0, 0, 0); fill-opacity: 0;"/></g><g class="traces" style="opacity: 1;" transform="translate(0, 33.5)"><text class="legendtext" text-anchor="start" x="40" y="4.680000000000001" style="font-family: 'Open Sans', verdana, arial, sans-serif; font-size: 12px; fill: rgb(68, 68, 68); fill-opacity: 1; white-space: pre;">resolved</text><g class="layers" style="opacity: 1;"><g class="legendfill"/><g class="legendlines"><path class="js-line" d="M5,0h30" style="fill: none; stroke: rgb(255, 127, 14); stroke-opacity: 1; stroke-width: 2px;"/></g><g class="legendsymbols"><g class="legendpoints"/></g></g><rect class="legendtoggle" x="0" y="-9.5" width="96.109375" height="19" style="fill: rgb(0, 0, 0); fill-opacity: 0;"/></g><g class="traces" style="opacity: 1;" transform="translate(0, 52.5)"><text class="legendtext" text-anchor="start" x="40" y="4.680000000000001" style="font-family: 'Open Sans', verdana, arial, sans-serif; font-size: 12px; fill: rgb(68, 68, 68); fill-opacity: 1; white-space: pre;">deceased</text><g class="layers" style="opacity: 1;"><g class="legendfill"/><g class="legendlines"><path class="js-line" d="M5,0h30" style="fill: none; stroke: rgb(44, 160, 44); stroke-opacity: 1; stroke-width: 2px;"/></g><g class="legendsymbols"><g class="legendpoints"/></g></g><rect class="legendtoggle" x="0" y="-9.5" width="96.109375" height="19" style="fill: rgb(0, 0, 0); fill-opacity: 0;"/></g></g></g><rect class="scrollbar" rx="20" ry="3" width="0" height="0" style="fill: rgb(128, 139, 164); fill-opacity: 1;" x="0" y="0"/></g><g class="g-gtitle"><text class="gtitle" x="513.5" y="12.5" text-anchor="middle" dy="0em" style="font-family: 'Open Sans', verdana, arial, sans-serif; font-size: 17px; fill: rgb(68, 68, 68); opacity: 1; font-weight: normal; white-space: pre;">Dynamics of new cases, resolved cases and deaths in Ontario (May 10, 2021)</text></g><g class="g-xtitle" transform="translate(0,-15)"><text class="xtitle" x="479" y="780" text-anchor="middle" style="font-family: 'Open Sans', verdana, arial, sans-serif; font-size: 14px; fill: rgb(68, 68, 68); opacity: 1; font-weight: normal; white-space: pre;">Date</text></g><g class="g-ytitle"><text class="ytitle" transform="rotate(-90,22,376.5)" x="22" y="376.5" text-anchor="middle" style="font-family: 'Open Sans', verdana, arial, sans-serif; font-size: 14px; fill: rgb(68, 68, 68); opacity: 1; font-weight: normal; white-space: pre;">Number of cases</text></g></g></svg>