<svg class="main-svg" xmlns="http://www.w3.org/2000/svg" xmlns:xlink="http://www.w3.org/1999/xlink" width="1027" height="768" style="" viewBox="0 0 1027 768"><rect x="0" y="0" width="1027" height="768" style="fill: rgb(255, 255, 255); fill-opacity: 1;"/><defs id="defs-e75093"><g class="clips"><clipPath id="clipe75093xyplot" class="plotclip"><rect width="838" height="703"/></clipPath><clipPath class="axesclip" id="clipe75093x"><rect x="60" y="0" width="838" height="768"/></clipPath><clipPath class="axesclip" id="clipe75093y"><rect x="0" y="25" width="1027" height="703"/></clipPath><clipPath class="axesclip" id="clipe75093xy"><rect x="60" y="25" width="838" height="703"/></clipPath></g><g class="gradients"/></defs><g class="bglayer"/><g class="layer-below"><g class="imagelayer"/><g class="shapelayer"/></g><g class="cartesianlayer"><g class="subplot xy"><g class="layer-subplot"><g class="shapelayer"/><g class="imagelayer"/></g><g class="gridlayer"><g class="x"><path class="xgrid crisp" transform="translate(97.11,0)" d="M0,25v703" style="stroke: rgb(238, 238, 238); stroke-opacity: 1; stroke-width: 1px;"/><path class="xgrid crisp" transform="translate(192.97,0)" d="M0,25v703" style="stroke: rgb(238, 238, 238); stroke-opacity: 1; stroke-width: 1px;"/><path class="xgrid crisp" transform="translate(285.73,0)" d="M0,25v703" style="stroke: rgb(238, 238, 238); stroke-opacity: 1; stroke-width: 1px;"/><path class="xgrid crisp" transform="translate(381.59,0)" d="M0,25v703" style="stroke: rgb(238, 238, 238); stroke-opacity: 1; stroke-width: 1px;"/><path class="xgrid crisp" transform="translate(474.36,0)" d="M0,25v703" style="stroke: rgb(238, 238, 238); stroke-opacity: 1; stroke-width: 1px;"/><path class="xgrid crisp" transform="translate(570.22,0)" d="M0,25v703" style="stroke: rgb(238, 238, 238); stroke-opacity: 1; stroke-width: 1px;"/><path class="xgrid crisp" transform="translate(666.08,0)" d="M0,25v703" style="stroke: rgb(238, 238, 238); stroke-opacity: 1; stroke-width: 1px;"/><path class="xgrid crisp" transform="translate(758.85,0)" d="M0,25v703" style="stroke: rgb(238, 238, 238); stroke-opacity: 1; stroke-width: 1px;"/><path class="xgrid crisp" transform="translate(854.71,0)" d="M0,25v703" style="stroke: rgb(238, 238, 238); stroke-opacity: 1; stroke-width: 1px;"/></g><g class="y"><path class="ygrid crisp" transform="translate(0,612.46)" d="M60,0h838" style="stroke: rgb(238, 238, 238); stroke-opacity: 1; stroke-width: 1px;"/><path class="ygrid crisp" transform="translate(0,532.48)" d="M60,0h838" style="stroke: rgb(238, 238, 238); stroke-opacity: 1; stroke-width: 1px;"/><path class="ygrid crisp" transform="translate(0,452.49)" d="M60,0h838" style="stroke: rgb(238, 238, 238); stroke-opacity: 1; stroke-width: 1px;"/><path class="ygrid crisp" transform="translate(0,372.5)" d="M60,0h838" style="stroke: rgb(238, 238, 238); stroke-opacity: 1; stroke-width: 1px;"/><path class="ygrid crisp" transform="translate(0,292.51)" d="M60,0h838" style="stroke: rgb(238, 238, 238); stroke-opacity: 1; stroke-width: 1px;"/><path class="ygrid crisp" transform="translate(0,212.53)" d="M60,0h838" style="stroke: rgb(238, 238, 238); stroke-opacity: 1; stroke-width: 1px;"/><path class="ygrid crisp" transform="translate(0,132.54000000000002)" d="M60,0h838" style="stroke: rgb(238, 238, 238); stroke-opacity: 1; stroke-width: 1px;"/><path class="ygrid crisp" transform="translate(0,52.55)" d="M60,0h838" style="stroke: rgb(238, 238, 238); stroke-opacity: 1; stroke-width: 1px;"/></g></g><g class="zerolinelayer"><path class="yzl zl crisp" transform="translate(0,692.45)" d="M60,0h838" style="stroke: rgb(68, 68, 68); stroke-opacity: 1; stroke-width: 1px;"/></g><path class="xlines-below"/><path class="ylines-below"/><g class="overlines-below"/><g class="xaxislayer-below"/><g class="yaxislayer-below"/><g class="overaxes-below"/><g class="plot" transform="translate(60, 25)" clip-path="url('#clipe75093xyplot')"><g class="scatterlayer mlayer"><g class="trace scatter traceecf5ff" style="stroke-miterlimit: 2; opacity: 1;"><g class="fills"/><g class="errorbars"/><g class="lines"><path class="js-line" d="M0,667.45L9.28,667.85L18.55,667.05L27.83,667.05L30.92,667.05L40.2,662.65L43.29,666.65L46.38,667.45L49.48,667.05L52.57,665.85L55.66,666.65L61.85,664.65L64.94,667.45L68.03,665.05L71.12,660.65L77.31,657.85L80.4,650.65L83.49,654.65L86.58,663.05L89.68,657.45L92.77,650.25L95.86,643.45L98.95,644.65L102.04,649.85L105.14,636.65L108.23,634.26L111.32,629.46L114.41,600.26L117.51,614.66L120.6,607.46L123.69,431.89L126.78,563.47L129.87,497.08L132.97,507.08L136.06,482.68L139.15,517.47L142.24,504.28L145.34,543.87L148.43,515.87L151.52,447.48L154.61,474.28L157.7,476.28L160.8,503.08L163.89,507.08L166.98,499.08L170.07,474.28L173.17,469.88L176.26,461.88L179.35,441.89L182.44,473.48L185.54,440.29L188.63,425.09L191.72,447.08L194.81,463.48L197.9,413.89L201,411.49L204.09,477.08L207.18,492.68L210.27,497.88L213.37,457.48L216.46,528.67L219.55,483.88L222.64,499.08L225.73,463.08L228.83,493.88L231.92,519.47L235.01,512.67L238.1,502.68L241.2,507.88L244.29,476.68L247.38,529.07L250.47,549.87L253.56,544.27L256.66,523.07L259.75,535.87L262.84,529.47L265.93,531.07L269.03,511.07L272.12,531.47L275.21,545.87L278.3,496.68L281.39,511.47L284.49,502.28L287.58,491.08L290.67,502.68L293.76,483.48L296.86,505.88L299.95,552.67L303.04,550.67L306.13,514.27L309.23,529.87L312.32,538.27L315.41,537.07L318.5,505.88L321.59,489.08L324.69,532.27L327.78,525.07L330.87,529.87L333.96,485.48L337.06,501.48L340.15,570.27L343.24,575.46L346.33,567.07L349.42,586.26L352.52,594.66L355.61,561.07L358.7,588.66L361.79,595.06L364.89,593.86L367.98,591.46L371.07,598.26L374.16,596.26L377.25,585.06L380.35,597.46L383.44,603.06L386.53,581.06L389.62,602.26L392.72,591.86L395.81,623.06L398.9,603.46L401.99,596.26L405.08,564.67L408.18,604.66L411.27,607.86L414.36,606.26L417.45,601.46L420.55,619.06L426.73,605.86L429.82,622.66L432.92,620.26L436.01,599.46L439.1,621.06L442.19,615.46L445.28,615.86L448.38,621.06L451.47,623.06L454.56,626.66L457.65,623.06L460.75,623.06L463.84,601.06L466.93,601.86L470.02,613.46L473.11,586.26L476.21,601.46L479.3,626.26L482.39,589.46L485.48,612.26L488.58,612.66L491.67,619.86L494.76,623.06L497.85,637.05L500.94,631.86L504.04,613.86L510.22,621.06L513.31,632.26L516.41,631.06L519.5,633.06L522.59,629.46L525.68,632.26L528.77,639.45L531.87,635.86L534.96,621.46L538.05,654.25L541.14,629.46L544.24,636.25L550.42,625.06L553.51,635.06L556.61,627.86L559.7,617.46L565.88,637.05L568.97,615.06L572.07,624.26L575.16,621.46L578.25,625.46L581.34,627.46L584.44,632.26L587.53,620.26L590.62,618.66L593.71,608.26L596.8,622.66L599.9,621.86L602.99,622.66L606.08,614.26L609.17,614.66L612.27,608.26L615.36,599.86L618.45,604.26L621.54,591.46L624.63,593.46L627.73,607.86L630.82,599.46L633.91,582.26L637,574.66L640.1,585.86L643.19,542.27L646.28,567.07L649.37,541.47L652.46,550.27L655.56,507.08L658.65,504.68L661.74,521.47L667.93,476.28L671.02,533.47L674.11,503.88L677.2,503.88L680.3,493.48L683.39,471.08L686.48,387.49L689.57,445.89L692.66,417.49L695.76,452.28L698.85,374.7L701.94,406.29L705.03,441.09L708.13,421.49L711.22,448.28L714.31,434.29L717.4,348.7L720.49,291.91L726.68,407.89L729.77,344.7L732.86,369.1L735.96,379.1L739.05,354.3L742.14,382.7L745.23,345.5L748.32,404.29L751.42,385.89L754.51,339.1L757.6,351.5L760.69,331.1L763.79,337.1L766.88,276.31L769.97,250.72L773.06,327.1L776.15,336.7L779.25,333.9L782.34,293.91L785.43,309.11L788.52,261.51L791.62,276.71L794.71,288.31L797.8,247.52L800.89,272.71L803.99,268.31L807.08,266.31L810.17,214.72L813.26,136.33L816.35,170.73L819.45,112.34L822.54,97.14L825.63,37.55L828.72,109.14L831.82,35.15L834.91,168.33L838,72.74" style="vector-effect: non-scaling-stroke; fill: none; stroke: rgb(31, 119, 180); stroke-opacity: 1; stroke-width: 2px; opacity: 1;"/></g><g class="points"/><g class="text"/></g><g class="trace scatter trace239bcd" style="stroke-miterlimit: 2; opacity: 1;"><g class="fills"/><g class="errorbars"/><g class="lines"><path class="js-line" d="M0,667.45L98.95,667.05L102.04,666.65L105.14,667.45L108.23,667.45L120.6,667.45L123.69,498.28L126.78,626.26L129.87,605.46L132.97,610.66L136.06,590.66L139.15,589.06L142.24,575.46L145.34,597.46L148.43,596.26L151.52,558.67L154.61,575.06L157.7,559.87L160.8,553.87L163.89,562.27L166.98,573.06L170.07,583.06L173.17,533.87L176.26,550.67L179.35,522.67L182.44,539.87L185.54,533.87L188.63,545.07L191.72,551.07L194.81,501.48L197.9,483.88L201,504.68L204.09,498.68L207.18,471.08L210.27,457.48L213.37,491.88L216.46,408.29L219.55,430.29L222.64,419.49L225.73,441.49L228.83,421.49L231.92,467.48L235.01,557.87L238.1,490.28L241.2,528.67L244.29,499.08L247.38,510.27L250.47,511.87L253.56,523.87L256.66,563.47L259.75,485.88L262.84,523.87L265.93,492.68L269.03,515.87L272.12,531.47L275.21,556.27L278.3,563.47L284.49,539.87L287.58,564.27L290.67,515.87L293.76,535.07L296.86,579.06L299.95,563.47L303.04,501.88L306.13,547.07L309.23,543.47L312.32,519.47L315.41,484.68L318.5,530.27L321.59,535.07L324.69,536.67L327.78,508.68L330.87,517.47L333.96,521.87L337.06,545.47L340.15,571.47L343.24,532.67L346.33,447.08L349.42,465.48L352.52,546.67L355.61,527.07L358.7,498.28L361.79,566.67L364.89,580.26L367.98,526.27L371.07,579.46L374.16,569.07L377.25,580.26L380.35,567.07L386.53,597.86L389.62,575.86L392.72,590.66L395.81,577.06L398.9,596.26L401.99,597.46L405.08,631.86L408.18,608.26L411.27,594.66L414.36,585.86L417.45,595.86L420.55,597.86L423.64,594.26L426.73,603.46L429.82,596.66L432.92,586.66L436.01,598.66L439.1,596.26L442.19,560.67L445.28,622.66L448.38,615.86L451.47,618.66L454.56,613.46L457.65,611.06L460.75,627.06L463.84,614.66L466.93,622.26L470.02,625.06L473.11,630.66L476.21,584.66L479.3,607.06L482.39,612.66L485.48,611.46L488.58,619.86L491.67,626.66L494.76,625.06L497.85,597.86L500.94,601.46L504.04,600.26L507.13,602.26L510.22,618.66L513.31,617.06L516.41,621.06L519.5,609.06L522.59,603.86L525.68,620.26L528.77,624.66L531.87,608.26L534.96,626.66L538.05,637.45L541.14,613.86L544.24,627.86L547.33,634.26L550.42,627.06L553.51,635.46L556.61,634.26L559.7,631.46L562.79,631.86L565.88,637.05L568.97,625.06L572.07,631.46L575.16,624.26L578.25,636.25L581.34,637.45L584.44,621.46L587.53,636.65L590.62,634.26L593.71,626.26L596.8,636.25L599.9,638.25L602.99,630.66L606.08,612.66L609.17,619.86L612.27,621.06L615.36,625.06L618.45,623.06L621.54,619.86L624.63,619.86L627.73,613.06L630.82,610.66L633.91,617.86L637,619.86L640.1,617.86L643.19,614.26L646.28,620.66L649.37,605.86L652.46,595.86L655.56,597.06L658.65,596.66L661.74,591.06L664.83,596.26L667.93,589.06L671.02,564.27L674.11,553.07L677.2,554.27L680.3,532.27L683.39,551.87L686.48,535.07L689.57,538.27L692.66,484.68L695.76,461.48L698.85,496.28L701.94,493.48L705.03,453.88L711.22,449.08L714.31,384.69L717.4,389.49L720.49,377.9L723.59,387.49L726.68,385.49L732.86,417.89L735.96,354.3L739.05,355.9L742.14,382.3L745.23,394.69L748.32,393.49L751.42,424.69L754.51,416.29L757.6,379.9L760.69,371.1L763.79,374.3L766.88,417.49L769.97,373.1L773.06,395.89L776.15,391.09L779.25,358.3L782.34,339.5L785.43,349.1L788.52,348.3L791.62,321.9L794.71,337.1L797.8,332.7L800.89,289.51L803.99,288.31L807.08,287.91L810.17,326.7L813.26,316.71L816.35,339.1L819.45,355.1L822.54,313.11L825.63,300.71L828.72,260.31L831.82,266.31L834.91,242.72L838,270.71" style="vector-effect: non-scaling-stroke; fill: none; stroke: rgb(255, 127, 14); stroke-opacity: 1; stroke-width: 2px; opacity: 1;"/></g><g class="points"/><g class="text"/></g><g class="trace scatter traceb7ee97" style="stroke-miterlimit: 2; opacity: 1;"><g class="fills"/><g class="errorbars"/><g class="lines"><path class="js-line" d="M0,667.45L98.95,667.05L102.04,666.65L105.14,667.05L108.23,666.65L111.32,665.45L114.41,666.65L117.51,666.25L120.6,667.05L123.69,665.85L126.78,663.45L129.87,665.85L132.97,661.05L136.06,661.85L139.15,656.65L142.24,657.45L145.34,662.25L148.43,659.05L151.52,659.05L154.61,657.05L157.7,658.65L160.8,655.05L163.89,659.05L166.98,660.65L170.07,650.25L173.17,647.05L176.26,652.25L179.35,645.45L182.44,653.05L185.54,651.85L188.63,655.05L191.72,652.25L194.81,652.65L197.9,645.85L201,647.45L204.09,648.25L207.18,657.85L210.27,644.65L213.37,643.85L216.46,649.45L219.55,633.06L222.64,651.85L225.73,645.45L228.83,651.45L231.92,633.86L235.01,643.05L238.1,640.25L241.2,648.25L244.29,642.25L247.38,643.85L250.47,653.45L253.56,653.45L256.66,645.05L259.75,651.45L262.84,654.25L265.93,656.65L269.03,654.25L272.12,658.25L275.21,658.25L278.3,661.45L281.39,650.25L284.49,655.05L287.58,656.25L293.76,657.45L296.86,655.85L299.95,659.05L303.04,654.65L306.13,653.85L309.23,651.05L312.32,660.65L315.41,659.85L318.5,663.45L321.59,660.65L324.69,659.85L327.78,649.45L330.87,661.45L333.96,653.45L337.06,659.85L340.15,657.85L343.24,661.85L346.33,663.05L349.42,662.65L352.52,663.05L355.61,663.85L358.7,662.65L361.79,664.25L364.89,663.05L367.98,662.65L371.07,666.25L374.16,663.05L377.25,655.05L380.35,663.05L383.44,666.25L386.53,663.45L389.62,662.65L392.72,663.45L395.81,666.25L398.9,664.25L401.99,665.05L408.18,664.65L411.27,665.85L414.36,665.85L417.45,666.65L420.55,665.45L423.64,666.65L426.73,667.45L429.82,666.65L432.92,663.85L436.01,666.25L439.1,664.65L442.19,665.05L445.28,666.25L448.38,666.25L451.47,667.05L454.56,663.85L457.65,665.45L460.75,663.85L463.84,666.65L466.93,666.25L470.02,667.05L473.11,667.05L476.21,666.65L479.3,667.45L482.39,666.25L485.48,667.05L488.58,665.85L491.67,667.05L494.76,665.85L497.85,667.05L500.94,666.25L504.04,666.25L513.31,667.45L516.41,665.85L519.5,667.45L522.59,667.05L525.68,667.45L528.77,667.05L531.87,666.65L534.96,667.45L556.61,667.45L559.7,665.85L562.79,667.85L565.88,667.05L568.97,666.25L572.07,667.05L575.16,667.45L578.25,667.05L584.44,666.65L587.53,667.05L590.62,665.05L593.71,667.45L599.9,667.05L602.99,667.05L612.27,667.85L615.36,667.45L618.45,666.65L621.54,667.45L630.82,667.05L633.91,667.85L637,667.05L640.1,667.05L643.19,667.05L646.28,665.85L649.37,666.65L652.46,666.25L655.56,667.45L658.65,667.05L664.83,666.65L667.93,666.25L671.02,666.25L674.11,667.05L680.3,667.45L683.39,666.65L686.48,667.05L689.57,665.85L695.76,666.25L698.85,637.05L705.03,664.65L708.13,665.45L711.22,664.65L714.31,667.05L720.49,665.45L723.59,664.65L726.68,667.05L729.77,666.25L732.86,663.85L735.96,667.45L742.14,663.85L745.23,663.45L748.32,665.45L751.42,665.85L754.51,666.25L757.6,663.85L763.79,663.85L766.88,665.05L769.97,664.65L773.06,665.05L776.15,665.85L779.25,665.45L782.34,663.45L785.43,663.85L791.62,663.85L794.71,664.65L797.8,661.85L800.89,661.05L803.99,662.25L807.08,661.85L810.17,663.05L813.26,662.25L816.35,662.65L819.45,661.45L822.54,661.45L825.63,660.25L831.82,659.45L834.91,655.85L838,663.45" style="vector-effect: non-scaling-stroke; fill: none; stroke: rgb(44, 160, 44); stroke-opacity: 1; stroke-width: 2px; opacity: 1;"/></g><g class="points"/><g class="text"/></g></g></g><g class="overplot"/><path class="xlines-above crisp" style="fill: none;" d="M0,0"/><path class="ylines-above crisp" style="fill: none;" d="M0,0"/><g class="overlines-above"/><g class="xaxislayer-above"><g class="xtick"><text text-anchor="middle" x="0" y="741" transform="translate(97.11,0)" style="font-family: 'Open Sans', verdana, arial, sans-serif; font-size: 12px; fill: rgb(68, 68, 68); fill-opacity: 1; white-space: pre;">Mar 2020</text></g><g class="xtick"><text text-anchor="middle" x="0" y="741" transform="translate(192.97,0)" style="font-family: 'Open Sans', verdana, arial, sans-serif; font-size: 12px; fill: rgb(68, 68, 68); fill-opacity: 1; white-space: pre;">Apr 2020</text></g><g class="xtick"><text text-anchor="middle" x="0" y="741" transform="translate(285.73,0)" style="font-family: 'Open Sans', verdana, arial, sans-serif; font-size: 12px; fill: rgb(68, 68, 68); fill-opacity: 1; white-space: pre;">May 2020</text></g><g class="xtick"><text text-anchor="middle" x="0" y="741" transform="translate(381.59,0)" style="font-family: 'Open Sans', verdana, arial, sans-serif; font-size: 12px; fill: rgb(68, 68, 68); fill-opacity: 1; white-space: pre;">Jun 2020</text></g><g class="xtick"><text text-anchor="middle" x="0" y="741" transform="translate(474.36,0)" style="font-family: 'Open Sans', verdana, arial, sans-serif; font-size: 12px; fill: rgb(68, 68, 68); fill-opacity: 1; white-space: pre;">Jul 2020</text></g><g class="xtick"><text text-anchor="middle" x="0" y="741" transform="translate(570.22,0)" style="font-family: 'Open Sans', verdana, arial, sans-serif; font-size: 12px; fill: rgb(68, 68, 68); fill-opacity: 1; white-space: pre;">Aug 2020</text></g><g class="xtick"><text text-anchor="middle" x="0" y="741" transform="translate(666.08,0)" style="font-family: 'Open Sans', verdana, arial, sans-serif; font-size: 12px; fill: rgb(68, 68, 68); fill-opacity: 1; white-space: pre;">Sep 2020</text></g><g class="xtick"><text text-anchor="middle" x="0" y="741" transform="translate(758.85,0)" style="font-family: 'Open Sans', verdana, arial, sans-serif; font-size: 12px; fill: rgb(68, 68, 68); fill-opacity: 1; white-space: pre;">Oct 2020</text></g><g class="xtick"><text text-anchor="middle" x="0" y="741" transform="translate(854.71,0)" style="font-family: 'Open Sans', verdana, arial, sans-serif; font-size: 12px; fill: rgb(68, 68, 68); fill-opacity: 1; white-space: pre;">Nov 2020</text></g></g><g class="yaxislayer-above"><g class="ytick"><text text-anchor="end" x="59" y="4.199999999999999" transform="translate(0,692.45)" style="font-family: 'Open Sans', verdana, arial, sans-serif; font-size: 12px; fill: rgb(68, 68, 68); fill-opacity: 1; white-space: pre;">0</text></g><g class="ytick"><text text-anchor="end" x="59" y="4.199999999999999" transform="translate(0,612.46)" style="font-family: 'Open Sans', verdana, arial, sans-serif; font-size: 12px; fill: rgb(68, 68, 68); fill-opacity: 1; white-space: pre;">200</text></g><g class="ytick"><text text-anchor="end" x="59" y="4.199999999999999" transform="translate(0,532.48)" style="font-family: 'Open Sans', verdana, arial, sans-serif; font-size: 12px; fill: rgb(68, 68, 68); fill-opacity: 1; white-space: pre;">400</text></g><g class="ytick"><text text-anchor="end" x="59" y="4.199999999999999" transform="translate(0,452.49)" style="font-family: 'Open Sans', verdana, arial, sans-serif; font-size: 12px; fill: rgb(68, 68, 68); fill-opacity: 1; white-space: pre;">600</text></g><g class="ytick"><text text-anchor="end" x="59" y="4.199999999999999" transform="translate(0,372.5)" style="font-family: 'Open Sans', verdana, arial, sans-serif; font-size: 12px; fill: rgb(68, 68, 68); fill-opacity: 1; white-space: pre;">800</text></g><g class="ytick"><text text-anchor="end" x="59" y="4.199999999999999" transform="translate(0,292.51)" style="font-family: 'Open Sans', verdana, arial, sans-serif; font-size: 12px; fill: rgb(68, 68, 68); fill-opacity: 1; white-space: pre;">1000</text></g><g class="ytick"><text text-anchor="end" x="59" y="4.199999999999999" transform="translate(0,212.53)" style="font-family: 'Open Sans', verdana, arial, sans-serif; font-size: 12px; fill: rgb(68, 68, 68); fill-opacity: 1; white-space: pre;">1200</text></g><g class="ytick"><text text-anchor="end" x="59" y="4.199999999999999" transform="translate(0,132.54000000000002)" style="font-family: 'Open Sans', verdana, arial, sans-serif; font-size: 12px; fill: rgb(68, 68, 68); fill-opacity: 1; white-space: pre;">1400</text></g><g class="ytick"><text text-anchor="end" x="59" y="4.199999999999999" transform="translate(0,52.55)" style="font-family: 'Open Sans', verdana, arial, sans-serif; font-size: 12px; fill: rgb(68, 68, 68); fill-opacity: 1; white-space: pre;">1600</text></g></g><g class="overaxes-above"/></g></g><g class="polarlayer"/><g class="ternarylayer"/><g class="geolayer"/><g class="funnelarealayer"/><g class="pielayer"/><g class="treemaplayer"/><g class="sunburstlayer"/><g class="glimages"/><defs id="topdefs-e75093"><g class="clips"/><clipPath id="legende75093"><rect width="102" height="67" x="0" y="0"/></clipPath></defs><g class="layer-above"><g class="imagelayer"/><g class="shapelayer"/></g><g class="infolayer"><g class="legend" pointer-events="all" transform="translate(914.76, 25)"><rect class="bg" shape-rendering="crispEdges" style="stroke: rgb(68, 68, 68); stroke-opacity: 1; fill: rgb(255, 255, 255); fill-opacity: 1; stroke-width: 0px;" width="102" height="67" x="0" y="0"/><g class="scrollbox" transform="translate(0, 0)" clip-path="url('#legende75093')"><g class="groups"><g class="traces" style="opacity: 1;" transform="translate(0, 14.5)"><text class="legendtext user-select-none" text-anchor="start" x="40" y="4.680000000000001" style="font-family: 'Open Sans', verdana, arial, sans-serif; font-size: 12px; fill: rgb(68, 68, 68); fill-opacity: 1; white-space: pre;">positive</text><g class="layers" style="opacity: 1;"><g class="legendfill"/><g class="legendlines"><path class="js-line" d="M5,0h30" style="fill: none; stroke: rgb(31, 119, 180); stroke-opacity: 1; stroke-width: 2px;"/></g><g class="legendsymbols"><g class="legendpoints"/></g></g><rect class="legendtoggle" pointer-events="all" x="0" y="-9.5" width="96.109375" height="19" style="cursor: pointer; fill: rgb(0, 0, 0); fill-opacity: 0;"/></g><g class="traces" style="opacity: 1;" transform="translate(0, 33.5)"><text class="legendtext user-select-none" text-anchor="start" x="40" y="4.680000000000001" style="font-family: 'Open Sans', verdana, arial, sans-serif; font-size: 12px; fill: rgb(68, 68, 68); fill-opacity: 1; white-space: pre;">resolved</text><g class="layers" style="opacity: 1;"><g class="legendfill"/><g class="legendlines"><path class="js-line" d="M5,0h30" style="fill: none; stroke: rgb(255, 127, 14); stroke-opacity: 1; stroke-width: 2px;"/></g><g class="legendsymbols"><g class="legendpoints"/></g></g><rect class="legendtoggle" pointer-events="all" x="0" y="-9.5" width="96.109375" height="19" style="cursor: pointer; fill: rgb(0, 0, 0); fill-opacity: 0;"/></g><g class="traces" style="opacity: 1;" transform="translate(0, 52.5)"><text class="legendtext user-select-none" text-anchor="start" x="40" y="4.680000000000001" style="font-family: 'Open Sans', verdana, arial, sans-serif; font-size: 12px; fill: rgb(68, 68, 68); fill-opacity: 1; white-space: pre;">deceased</text><g class="layers" style="opacity: 1;"><g class="legendfill"/><g class="legendlines"><path class="js-line" d="M5,0h30" style="fill: none; stroke: rgb(44, 160, 44); stroke-opacity: 1; stroke-width: 2px;"/></g><g class="legendsymbols"><g class="legendpoints"/></g></g><rect class="legendtoggle" pointer-events="all" x="0" y="-9.5" width="96.109375" height="19" style="cursor: pointer; fill: rgb(0, 0, 0); fill-opacity: 0;"/></g></g></g><rect class="scrollbar" rx="20" ry="3" width="0" height="0" style="fill: rgb(128, 139, 164); fill-opacity: 1;" x="0" y="0"/></g><g class="g-gtitle"><text class="gtitle" x="513.5" y="12.5" text-anchor="middle" dy="0em" style="font-family: 'Open Sans', verdana, arial, sans-serif; font-size: 17px; fill: rgb(68, 68, 68); opacity: 1; font-weight: normal; white-space: pre;">Dynamics of new cases, resolved cases and deaths in Ontario (Nov 16, 2020)</text></g><g class="g-xtitle" transform="translate(0,-15)"><text class="xtitle" x="479" y="780" text-anchor="middle" style="font-family: 'Open Sans', verdana, arial, sans-serif; font-size: 14px; fill: rgb(68, 68, 68); opacity: 1; font-weight: normal; white-space: pre;">Date</text></g><g class="g-ytitle"><text class="ytitle" transform="rotate(-90,22,376.5)" x="22" y="376.5" text-anchor="middle" style="font-family: 'Open Sans', verdana, arial, sans-serif; font-size: 14px; fill: rgb(68, 68, 68); opacity: 1; font-weight: normal; white-space: pre;">Number of cases</text></g></g></svg>