<svg class="main-svg" xmlns="http://www.w3.org/2000/svg" xmlns:xlink="http://www.w3.org/1999/xlink" width="1027" height="768" style="" viewBox="0 0 1027 768"><rect x="0" y="0" width="1027" height="768" style="fill: rgb(255, 255, 255); fill-opacity: 1;"/><defs id="defs-60336f"><g class="clips"><clipPath id="clip60336fxyplot" class="plotclip"><rect width="838" height="703"/></clipPath><clipPath class="axesclip" id="clip60336fx"><rect x="60" y="0" width="838" height="768"/></clipPath><clipPath class="axesclip" id="clip60336fy"><rect x="0" y="25" width="1027" height="703"/></clipPath><clipPath class="axesclip" id="clip60336fxy"><rect x="60" y="25" width="838" height="703"/></clipPath></g><g class="gradients"/></defs><g class="bglayer"/><g class="layer-below"><g class="imagelayer"/><g class="shapelayer"/></g><g class="cartesianlayer"><g class="subplot xy"><g class="layer-subplot"><g class="shapelayer"/><g class="imagelayer"/></g><g class="gridlayer"><g class="x"><path class="xgrid crisp" transform="translate(100.06,0)" d="M0,25v703" style="stroke: rgb(238, 238, 238); stroke-opacity: 1; stroke-width: 1px;"/><path class="xgrid crisp" transform="translate(203.56,0)" d="M0,25v703" style="stroke: rgb(238, 238, 238); stroke-opacity: 1; stroke-width: 1px;"/><path class="xgrid crisp" transform="translate(303.72,0)" d="M0,25v703" style="stroke: rgb(238, 238, 238); stroke-opacity: 1; stroke-width: 1px;"/><path class="xgrid crisp" transform="translate(407.22,0)" d="M0,25v703" style="stroke: rgb(238, 238, 238); stroke-opacity: 1; stroke-width: 1px;"/><path class="xgrid crisp" transform="translate(507.38,0)" d="M0,25v703" style="stroke: rgb(238, 238, 238); stroke-opacity: 1; stroke-width: 1px;"/><path class="xgrid crisp" transform="translate(610.88,0)" d="M0,25v703" style="stroke: rgb(238, 238, 238); stroke-opacity: 1; stroke-width: 1px;"/><path class="xgrid crisp" transform="translate(714.37,0)" d="M0,25v703" style="stroke: rgb(238, 238, 238); stroke-opacity: 1; stroke-width: 1px;"/><path class="xgrid crisp" transform="translate(814.53,0)" d="M0,25v703" style="stroke: rgb(238, 238, 238); stroke-opacity: 1; stroke-width: 1px;"/></g><g class="y"><path class="ygrid crisp" transform="translate(0,570.92)" d="M60,0h838" style="stroke: rgb(238, 238, 238); stroke-opacity: 1; stroke-width: 1px;"/><path class="ygrid crisp" transform="translate(0,449.6)" d="M60,0h838" style="stroke: rgb(238, 238, 238); stroke-opacity: 1; stroke-width: 1px;"/><path class="ygrid crisp" transform="translate(0,328.27)" d="M60,0h838" style="stroke: rgb(238, 238, 238); stroke-opacity: 1; stroke-width: 1px;"/><path class="ygrid crisp" transform="translate(0,206.95)" d="M60,0h838" style="stroke: rgb(238, 238, 238); stroke-opacity: 1; stroke-width: 1px;"/><path class="ygrid crisp" transform="translate(0,85.63)" d="M60,0h838" style="stroke: rgb(238, 238, 238); stroke-opacity: 1; stroke-width: 1px;"/></g></g><g class="zerolinelayer"><path class="yzl zl crisp" transform="translate(0,692.24)" d="M60,0h838" style="stroke: rgb(68, 68, 68); stroke-opacity: 1; stroke-width: 1px;"/></g><path class="xlines-below"/><path class="ylines-below"/><g class="overlines-below"/><g class="xaxislayer-below"/><g class="yaxislayer-below"/><g class="overaxes-below"/><g class="plot" transform="translate(60, 25)" clip-path="url('#clip60336fxyplot')"><g class="scatterlayer mlayer"><g class="trace scatter trace881b8a" style="stroke-miterlimit: 2; opacity: 1;"><g class="fills"/><g class="errorbars"/><g class="lines"><path class="js-line" d="M0,667.24L10.02,667.85L20.03,666.64L26.71,667.24L30.05,666.64L33.39,666.64L43.4,659.96L46.74,666.03L50.08,667.24L53.42,666.64L56.76,664.82L60.1,666.03L66.77,663L70.11,667.24L73.45,663.6L76.79,656.93L80.13,655.11L83.47,652.68L86.8,641.77L90.14,647.83L93.48,660.57L96.82,652.08L100.16,641.16L103.5,630.85L106.84,632.67L110.18,640.55L113.51,620.53L116.85,616.89L120.19,609.61L123.53,565.33L126.87,587.17L130.21,576.25L133.55,309.95L136.88,509.52L140.22,408.83L143.56,423.99L146.9,386.99L150.24,439.76L153.58,419.74L156.92,479.8L160.25,437.34L163.59,333.6L166.93,374.25L170.27,377.28L173.61,417.92L176.95,423.99L180.29,411.86L183.63,374.25L186.96,367.58L190.3,355.44L193.64,325.11L196.98,373.03L200.32,322.69L203.66,299.63L207,333L210.33,357.87L213.67,282.65L217.01,279.01L220.35,378.49L223.69,402.15L227.03,410.04L230.37,348.77L233.71,456.75L237.04,388.81L240.38,411.86L243.72,357.26L247.06,403.97L250.4,442.8L253.74,432.48L257.08,417.32L260.41,425.2L263.75,377.89L267.09,457.35L270.43,488.9L273.77,480.41L277.11,448.26L280.45,467.67L283.78,457.96L287.12,460.39L290.46,430.06L293.8,460.99L297.14,482.83L300.48,408.22L303.82,430.66L307.16,416.71L310.49,399.73L313.83,417.32L317.17,388.2L320.51,422.17L323.85,493.14L327.19,490.11L330.53,434.91L333.86,458.57L337.2,471.31L340.54,469.49L343.88,422.17L347.22,396.69L350.56,462.21L353.9,451.29L357.24,458.57L360.57,391.23L363.91,415.5L367.25,519.84L370.59,527.72L373.93,514.98L377.27,544.1L380.61,556.84L383.94,505.88L387.28,547.74L390.62,557.45L393.96,555.63L397.3,551.99L400.64,562.3L403.98,559.27L407.31,542.28L410.65,561.09L413.99,569.58L417.33,536.21L420.67,568.37L424.01,552.59L427.35,599.91L430.69,570.18L434.02,559.27L437.36,511.34L440.7,572L444.04,576.86L447.38,574.43L450.72,567.15L454.06,593.84L460.73,573.82L464.07,599.3L467.41,595.66L470.75,564.12L474.09,596.88L477.43,588.38L480.76,588.99L484.1,596.88L487.44,599.91L490.78,605.37L494.12,599.91L497.46,599.91L500.8,566.55L504.14,567.76L507.47,585.35L510.81,544.1L514.15,567.15L517.49,604.76L520.83,548.95L524.17,583.53L527.51,584.14L530.84,595.06L534.18,599.91L537.52,621.14L540.86,613.25L544.2,585.96L550.88,596.88L554.22,613.86L557.55,612.04L560.89,615.07L564.23,609.61L567.57,613.86L570.91,624.78L574.25,619.32L577.59,597.48L580.92,647.23L584.26,609.61L587.6,619.93L594.28,602.94L597.62,618.11L600.96,607.19L604.29,591.42L610.97,621.14L614.31,587.78L617.65,601.73L620.99,597.48L624.33,603.55L627.67,606.58L631,613.86L634.34,595.66L637.68,593.24L641.02,577.46L644.36,599.3L647.7,598.09L651.04,599.3L654.37,586.56L657.71,587.17L661.05,577.46L664.39,564.73L667.73,571.4L671.07,551.99L674.41,555.02L677.75,576.86L681.08,564.12L684.42,538.03L687.76,526.51L691.1,543.49L694.44,477.37L697.78,514.98L701.12,476.16L704.45,489.51L707.79,423.99L711.13,420.35L714.47,445.83L721.15,377.28L724.49,464.03L727.82,419.14L731.16,419.14L734.5,403.37L737.84,369.4L741.18,242.61L744.52,331.18L747.86,288.11L751.2,340.88L754.53,223.2L757.87,271.12L761.21,323.9L764.55,294.17L767.89,334.82L771.23,313.59L774.57,183.77L777.9,97.63L781.24,176.49L784.58,273.55L787.92,177.7L791.26,214.71L794.6,229.87L797.94,192.26L801.27,235.33L804.61,178.92L807.95,268.09L811.29,240.19L814.63,169.21L817.97,188.02L821.31,157.08L824.65,166.18L827.98,73.97L831.32,35.15L834.66,151.01L838,165.57" style="vector-effect: non-scaling-stroke; fill: none; stroke: rgb(31, 119, 180); stroke-opacity: 1; stroke-width: 2px; opacity: 1;"/></g><g class="points"/><g class="text"/></g><g class="trace scatter trace1378d4" style="stroke-miterlimit: 2; opacity: 1;"><g class="fills"/><g class="errorbars"/><g class="lines"><path class="js-line" d="M0,667.24L106.84,666.64L110.18,666.03L113.51,667.24L116.85,667.24L130.21,667.24L133.55,410.65L136.88,604.76L140.22,573.22L143.56,581.1L146.9,550.77L150.24,548.35L153.58,527.72L156.92,561.09L160.25,559.27L163.59,502.24L166.93,527.12L170.27,504.06L173.61,494.96L176.95,507.7L180.29,524.08L183.63,539.25L186.96,464.63L190.3,490.11L193.64,447.65L196.98,473.73L200.32,464.63L203.66,481.62L207,490.72L210.33,415.5L213.67,388.81L217.01,420.35L220.35,411.25L223.69,369.4L227.03,348.77L230.37,400.94L233.71,274.16L237.04,307.52L240.38,291.14L243.72,324.51L247.06,294.17L250.4,363.94L253.74,501.03L257.08,398.51L260.41,456.75L263.75,411.86L267.09,428.84L270.43,431.27L273.77,449.47L277.11,509.52L280.45,391.84L283.78,449.47L287.12,402.15L290.46,437.34L293.8,460.99L297.14,498.6L300.48,509.52L307.16,473.73L310.49,510.74L313.83,437.34L317.17,466.45L320.51,533.18L323.85,509.52L327.19,416.1L330.53,484.65L333.86,479.19L337.2,442.8L340.54,390.02L343.88,459.17L347.22,466.45L350.56,468.88L353.9,426.42L357.24,439.76L360.57,446.44L363.91,482.23L367.25,521.66L370.59,462.81L373.93,333L377.27,360.9L380.61,484.05L383.94,454.32L387.28,410.65L390.62,514.38L393.96,535L397.3,453.11L400.64,533.79L403.98,518.02L407.31,535L410.65,514.98L417.33,561.69L420.67,528.33L424.01,550.77L427.35,530.15L430.69,559.27L434.02,561.09L437.36,613.25L440.7,577.46L444.04,556.84L447.38,543.49L450.72,558.66L454.06,561.69L457.39,556.23L460.73,570.18L464.07,559.87L467.41,544.71L470.75,562.91L474.09,559.27L477.43,505.28L480.76,599.3L484.1,588.99L487.44,593.24L490.78,585.35L494.12,581.71L497.46,605.98L500.8,587.17L504.14,598.7L507.47,602.94L510.81,611.43L514.15,541.67L517.49,575.64L520.83,584.14L524.17,582.32L527.51,595.06L530.84,605.37L534.18,602.94L537.52,561.69L540.86,567.15L544.2,565.33L547.54,568.37L550.88,593.24L554.22,590.81L557.55,596.88L560.89,578.68L564.23,570.79L567.57,595.66L570.91,602.34L574.25,577.46L577.59,605.37L580.92,621.75L584.26,585.96L587.6,607.19L590.94,616.89L594.28,605.98L597.62,618.71L600.96,616.89L604.29,612.65L607.63,613.25L610.97,621.14L614.31,602.94L617.65,612.65L620.99,601.73L624.33,619.93L627.67,621.75L631,597.48L634.34,620.53L637.68,616.89L641.02,604.76L644.36,619.93L647.7,622.96L651.04,611.43L654.37,584.14L657.71,595.06L661.05,596.88L664.39,602.94L667.73,599.91L671.07,595.06L674.41,595.06L677.75,584.74L681.08,581.1L684.42,592.02L687.76,595.06L691.1,592.02L694.44,586.56L697.78,596.27L701.12,573.82L704.45,558.66L707.79,560.48L711.13,559.87L714.47,551.38L717.81,559.27L721.15,548.35L724.49,510.74L727.82,493.75L731.16,495.57L734.5,462.21L737.84,491.93L741.18,466.45L744.52,471.31L747.86,390.02L751.2,354.84L754.53,407.61L757.87,403.37L761.21,343.31L764.55,339.06L767.89,336.03L771.23,238.37L774.57,245.65L777.9,228.05L781.24,242.61L784.58,239.58L787.92,262.02L791.26,288.72L794.6,192.26L797.94,194.69L801.27,234.73L804.61,253.53L807.95,251.71L811.29,299.03L814.63,286.29L817.97,231.09L821.31,217.74L824.65,222.59L827.98,288.11L831.32,220.77L834.66,255.35L838,248.07" style="vector-effect: non-scaling-stroke; fill: none; stroke: rgb(255, 127, 14); stroke-opacity: 1; stroke-width: 2px; opacity: 1;"/></g><g class="points"/><g class="text"/></g><g class="trace scatter trace767cdd" style="stroke-miterlimit: 2; opacity: 1;"><g class="fills"/><g class="errorbars"/><g class="lines"><path class="js-line" d="M0,667.24L106.84,666.64L110.18,666.03L113.51,666.64L116.85,666.03L120.19,664.21L123.53,666.03L126.87,665.42L130.21,666.64L133.55,664.82L136.88,661.18L140.22,664.82L143.56,657.54L146.9,658.75L150.24,650.86L153.58,652.08L156.92,659.36L160.25,654.5L163.59,654.5L166.93,651.47L170.27,653.9L173.61,648.44L176.95,654.5L180.29,656.93L183.63,641.16L186.96,636.31L190.3,644.19L193.64,633.88L196.98,645.41L200.32,643.59L203.66,648.44L207,644.19L210.33,644.8L213.67,634.49L217.01,636.91L220.35,638.13L223.69,652.68L227.03,632.67L230.37,631.45L233.71,639.95L237.04,615.07L240.38,643.59L243.72,633.88L247.06,642.98L250.4,616.29L253.74,630.24L257.08,625.99L260.41,638.13L263.75,629.03L267.09,631.45L270.43,646.01L273.77,646.01L277.11,633.27L280.45,642.98L283.78,647.23L287.12,650.86L290.46,647.23L293.8,653.29L297.14,653.29L300.48,658.14L303.82,641.16L307.16,648.44L310.49,650.26L317.17,652.08L320.51,649.65L323.85,654.5L327.19,647.83L330.53,646.62L333.86,642.37L337.2,656.93L340.54,655.72L343.88,661.18L347.22,656.93L350.56,655.72L353.9,639.95L357.24,658.14L360.57,646.01L363.91,655.72L367.25,652.68L370.59,658.75L373.93,660.57L377.27,659.96L380.61,660.57L383.94,661.78L387.28,659.96L390.62,662.39L393.96,660.57L397.3,659.96L400.64,665.42L403.98,660.57L407.31,648.44L410.65,660.57L413.99,665.42L417.33,661.18L420.67,659.96L424.01,661.18L427.35,665.42L430.69,662.39L434.02,663.6L440.7,663L444.04,664.82L447.38,664.82L450.72,666.03L454.06,664.21L457.39,666.03L460.73,667.24L464.07,666.03L467.41,661.78L470.75,665.42L474.09,663L477.43,663.6L480.76,665.42L484.1,665.42L487.44,666.64L490.78,661.78L494.12,664.21L497.46,661.78L500.8,666.03L504.14,665.42L507.47,666.64L510.81,666.64L514.15,666.03L517.49,667.24L520.83,665.42L524.17,666.64L527.51,664.82L530.84,666.64L534.18,664.82L537.52,666.64L540.86,665.42L544.2,665.42L554.22,667.24L557.55,664.82L560.89,667.24L564.23,666.64L567.57,667.24L570.91,666.64L574.25,666.03L577.59,667.24L600.96,667.24L604.29,664.82L607.63,667.85L610.97,666.64L614.31,665.42L617.65,666.64L620.99,667.24L624.33,666.64L631,666.03L634.34,666.64L637.68,663.6L641.02,667.24L647.7,666.64L651.04,666.64L661.05,667.85L664.39,667.24L667.73,666.03L671.07,667.24L681.08,666.64L684.42,667.85L687.76,666.64L691.1,666.64L694.44,666.64L697.78,664.82L701.12,666.03L704.45,665.42L707.79,667.24L711.13,666.64L717.81,666.03L721.15,665.42L724.49,665.42L727.82,666.64L734.5,667.24L737.84,666.03L741.18,666.64L744.52,664.82L751.2,665.42L754.53,621.14L761.21,663L764.55,664.21L767.89,663L771.23,666.64L774.57,664.82L777.9,664.21L781.24,663L784.58,666.64L787.92,665.42L791.26,661.78L794.6,667.24L797.94,664.21L801.27,661.78L804.61,661.18L807.95,664.21L811.29,664.82L814.63,665.42L817.97,661.78L824.65,661.78L827.98,663.6L831.32,663L834.66,663.6L838,664.82" style="vector-effect: non-scaling-stroke; fill: none; stroke: rgb(44, 160, 44); stroke-opacity: 1; stroke-width: 2px; opacity: 1;"/></g><g class="points"/><g class="text"/></g></g></g><g class="overplot"/><path class="xlines-above crisp" style="fill: none;" d="M0,0"/><path class="ylines-above crisp" style="fill: none;" d="M0,0"/><g class="overlines-above"/><g class="xaxislayer-above"><g class="xtick"><text text-anchor="middle" x="0" y="741" transform="translate(100.06,0)" style="font-family: 'Open Sans', verdana, arial, sans-serif; font-size: 12px; fill: rgb(68, 68, 68); fill-opacity: 1; white-space: pre;">Mar 2020</text></g><g class="xtick"><text text-anchor="middle" x="0" y="741" transform="translate(203.56,0)" style="font-family: 'Open Sans', verdana, arial, sans-serif; font-size: 12px; fill: rgb(68, 68, 68); fill-opacity: 1; white-space: pre;">Apr 2020</text></g><g class="xtick"><text text-anchor="middle" x="0" y="741" transform="translate(303.72,0)" style="font-family: 'Open Sans', verdana, arial, sans-serif; font-size: 12px; fill: rgb(68, 68, 68); fill-opacity: 1; white-space: pre;">May 2020</text></g><g class="xtick"><text text-anchor="middle" x="0" y="741" transform="translate(407.22,0)" style="font-family: 'Open Sans', verdana, arial, sans-serif; font-size: 12px; fill: rgb(68, 68, 68); fill-opacity: 1; white-space: pre;">Jun 2020</text></g><g class="xtick"><text text-anchor="middle" x="0" y="741" transform="translate(507.38,0)" style="font-family: 'Open Sans', verdana, arial, sans-serif; font-size: 12px; fill: rgb(68, 68, 68); fill-opacity: 1; white-space: pre;">Jul 2020</text></g><g class="xtick"><text text-anchor="middle" x="0" y="741" transform="translate(610.88,0)" style="font-family: 'Open Sans', verdana, arial, sans-serif; font-size: 12px; fill: rgb(68, 68, 68); fill-opacity: 1; white-space: pre;">Aug 2020</text></g><g class="xtick"><text text-anchor="middle" x="0" y="741" transform="translate(714.37,0)" style="font-family: 'Open Sans', verdana, arial, sans-serif; font-size: 12px; fill: rgb(68, 68, 68); fill-opacity: 1; white-space: pre;">Sep 2020</text></g><g class="xtick"><text text-anchor="middle" x="0" y="741" transform="translate(814.53,0)" style="font-family: 'Open Sans', verdana, arial, sans-serif; font-size: 12px; fill: rgb(68, 68, 68); fill-opacity: 1; white-space: pre;">Oct 2020</text></g></g><g class="yaxislayer-above"><g class="ytick"><text text-anchor="end" x="59" y="4.199999999999999" transform="translate(0,692.24)" style="font-family: 'Open Sans', verdana, arial, sans-serif; font-size: 12px; fill: rgb(68, 68, 68); fill-opacity: 1; white-space: pre;">0</text></g><g class="ytick"><text text-anchor="end" x="59" y="4.199999999999999" transform="translate(0,570.92)" style="font-family: 'Open Sans', verdana, arial, sans-serif; font-size: 12px; fill: rgb(68, 68, 68); fill-opacity: 1; white-space: pre;">200</text></g><g class="ytick"><text text-anchor="end" x="59" y="4.199999999999999" transform="translate(0,449.6)" style="font-family: 'Open Sans', verdana, arial, sans-serif; font-size: 12px; fill: rgb(68, 68, 68); fill-opacity: 1; white-space: pre;">400</text></g><g class="ytick"><text text-anchor="end" x="59" y="4.199999999999999" transform="translate(0,328.27)" style="font-family: 'Open Sans', verdana, arial, sans-serif; font-size: 12px; fill: rgb(68, 68, 68); fill-opacity: 1; white-space: pre;">600</text></g><g class="ytick"><text text-anchor="end" x="59" y="4.199999999999999" transform="translate(0,206.95)" style="font-family: 'Open Sans', verdana, arial, sans-serif; font-size: 12px; fill: rgb(68, 68, 68); fill-opacity: 1; white-space: pre;">800</text></g><g class="ytick"><text text-anchor="end" x="59" y="4.199999999999999" transform="translate(0,85.63)" style="font-family: 'Open Sans', verdana, arial, sans-serif; font-size: 12px; fill: rgb(68, 68, 68); fill-opacity: 1; white-space: pre;">1000</text></g></g><g class="overaxes-above"/></g></g><g class="polarlayer"/><g class="ternarylayer"/><g class="geolayer"/><g class="funnelarealayer"/><g class="pielayer"/><g class="treemaplayer"/><g class="sunburstlayer"/><g class="glimages"/><defs id="topdefs-60336f"><g class="clips"/><clipPath id="legend60336f"><rect width="102" height="67" x="0" y="0"/></clipPath></defs><g class="layer-above"><g class="imagelayer"/><g class="shapelayer"/></g><g class="infolayer"><g class="legend" pointer-events="all" transform="translate(914.76, 25)"><rect class="bg" shape-rendering="crispEdges" style="stroke: rgb(68, 68, 68); stroke-opacity: 1; fill: rgb(255, 255, 255); fill-opacity: 1; stroke-width: 0px;" width="102" height="67" x="0" y="0"/><g class="scrollbox" transform="translate(0, 0)" clip-path="url('#legend60336f')"><g class="groups"><g class="traces" style="opacity: 1;" transform="translate(0, 14.5)"><text class="legendtext user-select-none" text-anchor="start" x="40" y="4.680000000000001" style="font-family: 'Open Sans', verdana, arial, sans-serif; font-size: 12px; fill: rgb(68, 68, 68); fill-opacity: 1; white-space: pre;">positive</text><g class="layers" style="opacity: 1;"><g class="legendfill"/><g class="legendlines"><path class="js-line" d="M5,0h30" style="fill: none; stroke: rgb(31, 119, 180); stroke-opacity: 1; stroke-width: 2px;"/></g><g class="legendsymbols"><g class="legendpoints"/></g></g><rect class="legendtoggle" pointer-events="all" x="0" y="-9.5" width="96.109375" height="19" style="cursor: pointer; fill: rgb(0, 0, 0); fill-opacity: 0;"/></g><g class="traces" style="opacity: 1;" transform="translate(0, 33.5)"><text class="legendtext user-select-none" text-anchor="start" x="40" y="4.680000000000001" style="font-family: 'Open Sans', verdana, arial, sans-serif; font-size: 12px; fill: rgb(68, 68, 68); fill-opacity: 1; white-space: pre;">resolved</text><g class="layers" style="opacity: 1;"><g class="legendfill"/><g class="legendlines"><path class="js-line" d="M5,0h30" style="fill: none; stroke: rgb(255, 127, 14); stroke-opacity: 1; stroke-width: 2px;"/></g><g class="legendsymbols"><g class="legendpoints"/></g></g><rect class="legendtoggle" pointer-events="all" x="0" y="-9.5" width="96.109375" height="19" style="cursor: pointer; fill: rgb(0, 0, 0); fill-opacity: 0;"/></g><g class="traces" style="opacity: 1;" transform="translate(0, 52.5)"><text class="legendtext user-select-none" text-anchor="start" x="40" y="4.680000000000001" style="font-family: 'Open Sans', verdana, arial, sans-serif; font-size: 12px; fill: rgb(68, 68, 68); fill-opacity: 1; white-space: pre;">deceased</text><g class="layers" style="opacity: 1;"><g class="legendfill"/><g class="legendlines"><path class="js-line" d="M5,0h30" style="fill: none; stroke: rgb(44, 160, 44); stroke-opacity: 1; stroke-width: 2px;"/></g><g class="legendsymbols"><g class="legendpoints"/></g></g><rect class="legendtoggle" pointer-events="all" x="0" y="-9.5" width="96.109375" height="19" style="cursor: pointer; fill: rgb(0, 0, 0); fill-opacity: 0;"/></g></g></g><rect class="scrollbar" rx="20" ry="3" width="0" height="0" style="fill: rgb(128, 139, 164); fill-opacity: 1;" x="0" y="0"/></g><g class="g-gtitle"><text class="gtitle" x="513.5" y="12.5" text-anchor="middle" dy="0em" style="font-family: 'Open Sans', verdana, arial, sans-serif; font-size: 17px; fill: rgb(68, 68, 68); opacity: 1; font-weight: normal; white-space: pre;">Dynamics of new cases, resolved cases and deaths in Ontario (Oct 27, 2020)</text></g><g class="g-xtitle" transform="translate(0,-15)"><text class="xtitle" x="479" y="780" text-anchor="middle" style="font-family: 'Open Sans', verdana, arial, sans-serif; font-size: 14px; fill: rgb(68, 68, 68); opacity: 1; font-weight: normal; white-space: pre;">Date</text></g><g class="g-ytitle"><text class="ytitle" transform="rotate(-90,22,376.5)" x="22" y="376.5" text-anchor="middle" style="font-family: 'Open Sans', verdana, arial, sans-serif; font-size: 14px; fill: rgb(68, 68, 68); opacity: 1; font-weight: normal; white-space: pre;">Number of cases</text></g></g></svg>