<svg class="main-svg" xmlns="http://www.w3.org/2000/svg" xmlns:xlink="http://www.w3.org/1999/xlink" width="1027" height="768" style="" viewBox="0 0 1027 768"><rect x="0" y="0" width="1027" height="768" style="fill: rgb(255, 255, 255); fill-opacity: 1;"/><defs id="defs-12edce"><g class="clips"><clipPath id="clip12edcexyplot" class="plotclip"><rect width="935" height="703"/></clipPath><clipPath class="axesclip" id="clip12edcex"><rect x="60" y="0" width="935" height="768"/></clipPath><clipPath class="axesclip" id="clip12edcey"><rect x="0" y="25" width="1027" height="703"/></clipPath><clipPath class="axesclip" id="clip12edcexy"><rect x="60" y="25" width="935" height="703"/></clipPath></g><g class="gradients"/></defs><g class="bglayer"/><g class="layer-below"><g class="imagelayer"/><g class="shapelayer"/></g><g class="cartesianlayer"><g class="subplot xy"><g class="layer-subplot"><g class="shapelayer"/><g class="imagelayer"/></g><g class="gridlayer"><g class="x"><path class="xgrid crisp" transform="translate(70.02,0)" d="M0,25v703" style="stroke: rgb(238, 238, 238); stroke-opacity: 1; stroke-width: 1px;"/><path class="xgrid crisp" transform="translate(173.54000000000002,0)" d="M0,25v703" style="stroke: rgb(238, 238, 238); stroke-opacity: 1; stroke-width: 1px;"/><path class="xgrid crisp" transform="translate(273.71000000000004,0)" d="M0,25v703" style="stroke: rgb(238, 238, 238); stroke-opacity: 1; stroke-width: 1px;"/><path class="xgrid crisp" transform="translate(377.23,0)" d="M0,25v703" style="stroke: rgb(238, 238, 238); stroke-opacity: 1; stroke-width: 1px;"/><path class="xgrid crisp" transform="translate(477.41,0)" d="M0,25v703" style="stroke: rgb(238, 238, 238); stroke-opacity: 1; stroke-width: 1px;"/><path class="xgrid crisp" transform="translate(580.93,0)" d="M0,25v703" style="stroke: rgb(238, 238, 238); stroke-opacity: 1; stroke-width: 1px;"/><path class="xgrid crisp" transform="translate(684.45,0)" d="M0,25v703" style="stroke: rgb(238, 238, 238); stroke-opacity: 1; stroke-width: 1px;"/><path class="xgrid crisp" transform="translate(784.63,0)" d="M0,25v703" style="stroke: rgb(238, 238, 238); stroke-opacity: 1; stroke-width: 1px;"/><path class="xgrid crisp" transform="translate(888.14,0)" d="M0,25v703" style="stroke: rgb(238, 238, 238); stroke-opacity: 1; stroke-width: 1px;"/><path class="xgrid crisp" transform="translate(988.32,0)" d="M0,25v703" style="stroke: rgb(238, 238, 238); stroke-opacity: 1; stroke-width: 1px;"/></g><g class="y"><path class="ygrid crisp" transform="translate(0,532.65)" d="M60,0h935" style="stroke: rgb(238, 238, 238); stroke-opacity: 1; stroke-width: 1px;"/><path class="ygrid crisp" transform="translate(0,372.46)" d="M60,0h935" style="stroke: rgb(238, 238, 238); stroke-opacity: 1; stroke-width: 1px;"/><path class="ygrid crisp" transform="translate(0,212.26)" d="M60,0h935" style="stroke: rgb(238, 238, 238); stroke-opacity: 1; stroke-width: 1px;"/><path class="ygrid crisp" transform="translate(0,52.06)" d="M60,0h935" style="stroke: rgb(238, 238, 238); stroke-opacity: 1; stroke-width: 1px;"/></g></g><g class="zerolinelayer"><path class="yzl zl crisp" transform="translate(0,692.85)" d="M60,0h935" style="stroke: rgb(68, 68, 68); stroke-opacity: 1; stroke-width: 1px;"/></g><path class="xlines-below"/><path class="ylines-below"/><g class="overlines-below"/><g class="xaxislayer-below"/><g class="yaxislayer-below"/><g class="overaxes-below"/><g class="plot" transform="translate(60, 25)" clip-path="url('#clip12edcexyplot')"><g class="scatterlayer mlayer"><g class="trace scatter trace730927" style="stroke-miterlimit: 2; opacity: 1;"><g class="fills"/><g class="errorbars"/><g class="lines"><path class="js-line" d="M0,622.08L3.34,621.42L13.36,505.63L16.7,614.89L20.04,667.85L23.38,653.8L26.71,602.8L30.05,638.59L36.73,614.7L40.07,667.85L43.41,638.18L46.75,598.9L50.09,599.97L53.43,617.23L56.77,593.79L60.11,608L63.45,632.36L66.79,638.47L70.13,617.81L73.46,600.66L76.8,620.7L80.14,621.42L83.48,549.58L86.82,600.54L90.16,572.07L93.5,483.2L96.84,497.46L100.18,432.27L103.52,317.67L106.86,404.9L110.2,449.29L113.54,403.44L116.88,299.64L120.21,405.8L123.55,315.31L126.89,403.85L130.23,194.99L133.57,123.47L136.91,290.13L140.25,282.57L143.59,306.88L146.93,480.13L150.27,401.54L153.61,348.91L156.95,404.5L160.29,484.89L163.63,464.79L166.96,35.15L170.3,558.54L173.64,445.78L176.98,478.64L180.32,510.14L183.66,468.98L187,501.07L190.34,523.68L193.68,551.37L197.02,559.61L200.36,512.85L203.7,571.63L207.04,554.1L210.38,586.26L213.71,567.44L217.05,586.75L220.39,586.4L223.73,551.47L230.41,583.63L233.75,574.06L237.09,610.19L240.43,614.38L243.77,597.21L247.11,571.12L250.45,598.21L253.79,604.43L257.13,608.32L260.46,597.34L263.8,600.68L267.14,561.46L270.48,432.5L273.82,498.58L277.16,541.9L280.5,542.55L283.84,548.15L287.18,538.38L290.52,509.42L293.86,574.73L297.2,606.03L300.54,598.19L307.21,617.71L310.55,606.46L313.89,577.83L317.23,574.11L320.57,606.1L323.91,613.07L327.25,619.36L330.59,604.76L333.93,599.22L337.27,617.15L340.61,613.3L343.95,627.52L347.29,641.13L350.63,647.27L353.96,636.81L357.3,640.74L360.64,641.19L363.98,640.71L367.32,642.7L370.66,645.92L374,646.9L377.34,643.75L384.02,644.3L387.36,625.1L390.7,645.35L394.04,645.84L397.38,656.3L400.71,652.54L404.05,647.93L407.39,637.5L410.73,646.68L414.07,649.53L420.75,646L424.09,649.76L427.43,649.27L430.77,639.33L434.11,644.1L437.45,651.29L440.79,647.16L444.13,654.33L447.46,653.74L450.8,651.78L454.14,650.06L457.48,646.61L460.82,654.1L464.16,654.43L467.5,656.44L470.84,649.41L477.52,647.17L480.86,639.54L484.2,645.81L487.54,655.16L490.88,646.16L494.21,653.06L497.55,651.06L500.89,652.39L504.23,647.33L507.57,658.93L510.91,657.55L514.25,653.55L517.59,655.91L520.93,655.64L524.27,655.6L527.61,652.64L530.95,651.86L534.29,656.22L537.63,656.63L540.96,659.23L544.3,658.74L547.64,651.31L550.98,662.95L554.32,655.46L557.66,659.41L561,658.07L564.34,656.69L567.68,656.95L571.02,655.44L574.36,650.49L581.04,658.45L584.38,652.9L587.71,655.77L591.05,652.09L594.39,649.95L597.73,651.84L601.07,655.01L604.41,654.64L607.75,655.57L611.09,653.08L617.77,653.3L621.11,652.61L624.45,650.1L627.79,651.77L631.13,651.26L634.46,648.97L637.8,650.37L641.14,642.19L644.48,639.53L647.82,640.73L651.16,645.77L654.5,646.85L661.18,646.86L664.52,633.9L667.86,638.78L671.2,632.76L674.54,641.13L677.88,631.99L681.21,634.36L684.55,638.71L687.89,624.97L691.23,623.07L694.57,637.56L697.91,625.07L701.25,636.55L704.59,635.62L707.93,630.84L711.27,613.3L714.61,621.6L717.95,611.84L721.29,624.37L724.63,609.35L727.96,622.62L731.3,622.13L734.64,616.26L737.98,626.08L741.32,624.69L744.66,615.19L748,600.87L751.34,609.34L754.68,620.74L758.02,596.96L761.36,591.32L764.7,596.12L768.04,605.07L771.38,608.61L774.71,610.18L778.05,616.24L781.39,597.06L784.73,558.47L788.07,590.32L791.41,598.51L794.75,601.72L798.09,596.88L801.43,581.74L804.77,572.69L808.11,557.19L811.45,578.81L814.79,583.84L818.13,597.85L824.8,583.55L828.14,559.02L831.48,534.77L834.82,557.15L838.16,578.42L841.5,589.98L844.84,575.25L848.18,554.62L851.52,527.74L854.86,515.16L858.2,543.38L861.54,540.29L864.88,557.44L868.21,554.88L871.55,573.11L874.89,525L878.23,516.66L881.57,532.08L884.91,575.19L888.25,573.54L891.59,558.83L894.93,561.9L898.27,531.98L901.61,548.35L904.95,545.91L908.29,568.32L914.96,561.88L918.3,566.43L921.64,525.89L924.98,509.97L928.32,543.03L931.66,557.32L935,566.01" style="vector-effect: non-scaling-stroke; fill: none; stroke: rgb(31, 119, 180); stroke-opacity: 1; stroke-width: 2px; opacity: 1;"/></g><g class="points"/><g class="text"/></g></g></g><g class="overplot"/><path class="xlines-above crisp" d="M0,0" style="fill: none;"/><path class="ylines-above crisp" d="M0,0" style="fill: none;"/><g class="overlines-above"/><g class="xaxislayer-above"><g class="xtick"><text text-anchor="middle" x="0" y="741" transform="translate(70.02,0)" style="font-family: 'Open Sans', verdana, arial, sans-serif; font-size: 12px; fill: rgb(68, 68, 68); fill-opacity: 1; white-space: pre;">Mar 2020</text></g><g class="xtick"><text text-anchor="middle" x="0" y="741" transform="translate(173.54000000000002,0)" style="font-family: 'Open Sans', verdana, arial, sans-serif; font-size: 12px; fill: rgb(68, 68, 68); fill-opacity: 1; white-space: pre;">Apr 2020</text></g><g class="xtick"><text text-anchor="middle" x="0" y="741" transform="translate(273.71000000000004,0)" style="font-family: 'Open Sans', verdana, arial, sans-serif; font-size: 12px; fill: rgb(68, 68, 68); fill-opacity: 1; white-space: pre;">May 2020</text></g><g class="xtick"><text text-anchor="middle" x="0" y="741" transform="translate(377.23,0)" style="font-family: 'Open Sans', verdana, arial, sans-serif; font-size: 12px; fill: rgb(68, 68, 68); fill-opacity: 1; white-space: pre;">Jun 2020</text></g><g class="xtick"><text text-anchor="middle" x="0" y="741" transform="translate(477.41,0)" style="font-family: 'Open Sans', verdana, arial, sans-serif; font-size: 12px; fill: rgb(68, 68, 68); fill-opacity: 1; white-space: pre;">Jul 2020</text></g><g class="xtick"><text text-anchor="middle" x="0" y="741" transform="translate(580.93,0)" style="font-family: 'Open Sans', verdana, arial, sans-serif; font-size: 12px; fill: rgb(68, 68, 68); fill-opacity: 1; white-space: pre;">Aug 2020</text></g><g class="xtick"><text text-anchor="middle" x="0" y="741" transform="translate(684.45,0)" style="font-family: 'Open Sans', verdana, arial, sans-serif; font-size: 12px; fill: rgb(68, 68, 68); fill-opacity: 1; white-space: pre;">Sep 2020</text></g><g class="xtick"><text text-anchor="middle" x="0" y="741" transform="translate(784.63,0)" style="font-family: 'Open Sans', verdana, arial, sans-serif; font-size: 12px; fill: rgb(68, 68, 68); fill-opacity: 1; white-space: pre;">Oct 2020</text></g><g class="xtick"><text text-anchor="middle" x="0" y="741" transform="translate(888.14,0)" style="font-family: 'Open Sans', verdana, arial, sans-serif; font-size: 12px; fill: rgb(68, 68, 68); fill-opacity: 1; white-space: pre;">Nov 2020</text></g><g class="xtick"><text text-anchor="middle" x="0" y="741" transform="translate(988.32,0)" style="font-family: 'Open Sans', verdana, arial, sans-serif; font-size: 12px; fill: rgb(68, 68, 68); fill-opacity: 1; white-space: pre;">Dec 2020</text></g></g><g class="yaxislayer-above"><g class="ytick"><text text-anchor="end" x="59" y="4.199999999999999" transform="translate(0,692.85)" style="font-family: 'Open Sans', verdana, arial, sans-serif; font-size: 12px; fill: rgb(68, 68, 68); fill-opacity: 1; white-space: pre;">0</text></g><g class="ytick"><text text-anchor="end" x="59" y="4.199999999999999" transform="translate(0,532.65)" style="font-family: 'Open Sans', verdana, arial, sans-serif; font-size: 12px; fill: rgb(68, 68, 68); fill-opacity: 1; white-space: pre;">0.05</text></g><g class="ytick"><text text-anchor="end" x="59" y="4.199999999999999" transform="translate(0,372.46)" style="font-family: 'Open Sans', verdana, arial, sans-serif; font-size: 12px; fill: rgb(68, 68, 68); fill-opacity: 1; white-space: pre;">0.1</text></g><g class="ytick"><text text-anchor="end" x="59" y="4.199999999999999" transform="translate(0,212.26)" style="font-family: 'Open Sans', verdana, arial, sans-serif; font-size: 12px; fill: rgb(68, 68, 68); fill-opacity: 1; white-space: pre;">0.15</text></g><g class="ytick"><text text-anchor="end" x="59" y="4.199999999999999" transform="translate(0,52.06)" style="font-family: 'Open Sans', verdana, arial, sans-serif; font-size: 12px; fill: rgb(68, 68, 68); fill-opacity: 1; white-space: pre;">0.2</text></g></g><g class="overaxes-above"/></g></g><g class="polarlayer"/><g class="ternarylayer"/><g class="geolayer"/><g class="funnelarealayer"/><g class="pielayer"/><g class="treemaplayer"/><g class="sunburstlayer"/><g class="glimages"/><defs id="topdefs-12edce"><g class="clips"/></defs><g class="layer-above"><g class="imagelayer"/><g class="shapelayer"/></g><g class="infolayer"><g class="g-gtitle"><text class="gtitle" x="513.5" y="12.5" text-anchor="middle" dy="0em" style="font-family: 'Open Sans', verdana, arial, sans-serif; font-size: 17px; fill: rgb(68, 68, 68); opacity: 1; font-weight: normal; white-space: pre;">Positive cases as proportion of tested per day as of Dec 04, 2020</text></g><g class="g-xtitle" transform="translate(0,-15)"><text class="xtitle" x="527.5" y="780" text-anchor="middle" style="font-family: 'Open Sans', verdana, arial, sans-serif; font-size: 14px; fill: rgb(68, 68, 68); opacity: 1; font-weight: normal; white-space: pre;">Date</text></g><g class="g-ytitle"><text class="ytitle" transform="rotate(-90,22,376.5)" x="22" y="376.5" text-anchor="middle" style="font-family: 'Open Sans', verdana, arial, sans-serif; font-size: 14px; fill: rgb(68, 68, 68); opacity: 1; font-weight: normal; white-space: pre;">ratio of positive to tested</text></g></g></svg>