<svg class="main-svg" xmlns="http://www.w3.org/2000/svg" xmlns:xlink="http://www.w3.org/1999/xlink" width="1027" height="768" style="" viewBox="0 0 1027 768"><rect x="0" y="0" width="1027" height="768" style="fill: rgb(255, 255, 255); fill-opacity: 1;"/><defs id="defs-3973e0"><g class="clips"><clipPath id="clip3973e0xyplot" class="plotclip"><rect width="957" height="703"/></clipPath><clipPath class="axesclip" id="clip3973e0x"><rect x="60" y="0" width="957" height="768"/></clipPath><clipPath class="axesclip" id="clip3973e0y"><rect x="0" y="25" width="1027" height="703"/></clipPath><clipPath class="axesclip" id="clip3973e0xy"><rect x="60" y="25" width="957" height="703"/></clipPath></g><g class="gradients"/></defs><g class="bglayer"/><g class="layer-below"><g class="imagelayer"/><g class="shapelayer"/></g><g class="cartesianlayer"><g class="subplot xy"><g class="layer-subplot"><g class="shapelayer"/><g class="imagelayer"/></g><g class="gridlayer"><g class="x"><path class="xgrid crisp" transform="translate(67.52,0)" d="M0,25v703" style="stroke: rgb(238, 238, 238); stroke-opacity: 1; stroke-width: 1px;"/><path class="xgrid crisp" transform="translate(220.34,0)" d="M0,25v703" style="stroke: rgb(238, 238, 238); stroke-opacity: 1; stroke-width: 1px;"/><path class="xgrid crisp" transform="translate(373.15,0)" d="M0,25v703" style="stroke: rgb(238, 238, 238); stroke-opacity: 1; stroke-width: 1px;"/><path class="xgrid crisp" transform="translate(528.48,0)" d="M0,25v703" style="stroke: rgb(238, 238, 238); stroke-opacity: 1; stroke-width: 1px;"/><path class="xgrid crisp" transform="translate(681.3,0)" d="M0,25v703" style="stroke: rgb(238, 238, 238); stroke-opacity: 1; stroke-width: 1px;"/><path class="xgrid crisp" transform="translate(834.12,0)" d="M0,25v703" style="stroke: rgb(238, 238, 238); stroke-opacity: 1; stroke-width: 1px;"/><path class="xgrid crisp" transform="translate(981.93,0)" d="M0,25v703" style="stroke: rgb(238, 238, 238); stroke-opacity: 1; stroke-width: 1px;"/></g><g class="y"><path class="ygrid crisp" transform="translate(0,532.65)" d="M60,0h957" style="stroke: rgb(238, 238, 238); stroke-opacity: 1; stroke-width: 1px;"/><path class="ygrid crisp" transform="translate(0,372.46)" d="M60,0h957" style="stroke: rgb(238, 238, 238); stroke-opacity: 1; stroke-width: 1px;"/><path class="ygrid crisp" transform="translate(0,212.26)" d="M60,0h957" style="stroke: rgb(238, 238, 238); stroke-opacity: 1; stroke-width: 1px;"/><path class="ygrid crisp" transform="translate(0,52.06)" d="M60,0h957" style="stroke: rgb(238, 238, 238); stroke-opacity: 1; stroke-width: 1px;"/></g></g><g class="zerolinelayer"><path class="yzl zl crisp" transform="translate(0,692.85)" d="M60,0h957" style="stroke: rgb(68, 68, 68); stroke-opacity: 1; stroke-width: 1px;"/></g><path class="xlines-below"/><path class="ylines-below"/><g class="overlines-below"/><g class="xaxislayer-below"/><g class="yaxislayer-below"/><g class="overaxes-below"/><g class="plot" transform="translate(60, 25)" clip-path="url('#clip3973e0xyplot')"><g class="scatterlayer mlayer"><g class="trace scatter trace9b91d0" style="stroke-miterlimit: 2; opacity: 1;"><g class="fills"/><g class="errorbars"/><g class="lines"><path class="js-line" d="M0,622.08L2.51,621.42L10.02,505.63L12.53,614.89L15.03,667.85L17.54,653.8L20.04,602.8L22.55,638.59L27.56,614.7L30.06,667.85L32.57,638.18L35.07,598.9L37.58,599.97L40.08,617.23L42.59,593.79L45.09,608L47.6,632.36L50.1,638.47L52.61,617.81L55.12,600.66L57.62,620.7L60.13,621.42L62.63,549.58L65.14,600.54L67.64,572.07L70.15,483.2L72.65,497.46L75.16,432.27L77.66,317.67L80.17,404.9L82.67,449.29L85.18,403.44L87.68,299.64L90.19,405.8L92.69,315.31L95.2,403.85L97.7,194.99L100.21,123.47L102.71,290.13L105.22,282.57L107.73,306.88L110.23,480.13L112.74,401.54L115.24,348.91L117.75,404.5L120.25,484.89L122.76,464.79L125.26,35.15L127.77,558.54L130.27,445.78L132.78,478.64L135.28,510.14L137.79,468.98L142.8,523.68L145.3,551.37L147.81,559.61L150.31,512.85L152.82,571.63L155.32,554.1L157.83,586.26L160.34,567.44L162.84,586.75L165.35,586.4L167.85,551.47L170.36,566L172.86,583.63L175.37,574.06L177.87,610.19L180.38,614.38L182.88,597.21L185.39,571.12L187.89,598.21L190.4,604.43L192.9,608.32L195.41,597.34L197.91,600.68L200.42,561.46L202.92,432.5L205.43,498.58L207.93,541.9L210.44,542.55L212.95,548.15L215.45,538.38L217.96,509.42L220.46,574.73L222.97,606.03L225.47,598.19L230.48,617.71L232.99,606.46L235.49,577.83L238,574.11L240.5,606.1L243.01,613.07L245.51,619.36L248.02,604.76L250.52,599.22L253.03,617.15L255.53,613.3L258.04,627.52L260.54,641.13L263.05,647.27L265.55,636.81L268.06,640.74L270.57,641.19L273.07,640.71L275.58,642.7L278.08,645.92L280.59,646.9L283.09,643.75L288.1,644.3L290.61,625.1L293.11,645.35L295.62,645.84L298.12,656.3L300.63,652.54L303.13,647.93L305.64,637.5L308.14,646.68L310.65,649.53L315.66,646L318.16,649.76L320.67,649.27L323.18,639.33L325.68,644.1L328.19,651.29L330.69,647.16L333.2,654.33L335.7,653.74L338.21,651.78L340.71,650.06L343.22,646.61L345.72,654.1L348.23,654.43L350.73,656.44L353.24,649.41L358.25,647.17L360.75,639.54L363.26,645.81L365.76,655.16L368.27,646.16L370.77,653.06L373.28,651.06L375.79,652.39L378.29,647.33L380.8,658.93L383.3,657.55L385.81,653.55L388.31,655.91L390.82,655.64L393.32,655.6L395.83,652.64L398.33,651.86L400.84,656.22L403.34,656.63L405.85,659.23L408.35,658.74L410.86,651.31L413.36,662.95L415.87,655.46L418.37,659.41L420.88,658.07L423.38,656.69L425.89,656.95L428.4,655.44L430.9,650.49L435.91,658.45L438.42,652.9L440.92,655.77L443.43,652.09L445.93,649.95L448.44,651.84L450.94,655.01L453.45,654.64L455.95,655.57L458.46,653.08L463.47,653.3L465.97,652.61L468.48,650.1L470.98,651.77L473.49,651.26L475.99,648.97L478.5,650.37L481.01,642.19L483.51,639.53L486.02,640.73L488.52,645.77L491.03,646.85L496.04,646.86L498.54,633.9L501.05,638.78L503.55,632.76L506.06,641.13L508.56,631.99L511.07,634.36L513.57,638.71L516.08,624.97L518.58,623.07L521.09,637.56L523.59,625.07L526.1,636.55L528.6,635.62L531.11,630.84L533.62,613.3L536.12,621.6L538.63,611.84L541.13,624.37L543.64,609.35L546.14,622.62L548.65,622.13L551.15,616.26L553.66,626.08L556.16,624.69L558.67,615.19L561.17,600.87L563.68,609.34L566.18,620.74L568.69,596.96L571.19,591.32L573.7,596.12L576.2,605.07L578.71,608.61L581.21,610.18L583.72,616.24L586.23,597.06L588.73,558.47L591.24,590.32L593.74,598.51L596.25,601.72L598.75,596.88L601.26,581.74L603.76,572.69L606.27,557.19L608.77,578.81L611.28,583.84L613.78,597.85L618.79,583.55L621.3,559.02L623.8,534.77L626.31,557.15L628.81,578.42L631.32,589.98L633.82,575.25L636.33,554.62L638.84,527.74L641.34,515.16L643.85,543.38L646.35,540.29L648.86,557.44L651.36,554.88L653.87,573.11L656.37,525L658.88,516.66L661.38,532.08L663.89,575.19L666.39,573.54L668.9,558.83L671.4,561.9L673.91,531.98L676.41,548.35L678.92,545.91L681.42,568.32L686.43,561.88L688.94,566.43L691.45,525.89L693.95,509.97L696.46,543.03L698.96,557.32L701.47,566.01L703.97,567.58L706.48,563.81L708.98,531.65L711.49,530.86L713.99,543.11L716.5,565.06L719,573.94L721.51,575.9L724.01,575.51L726.52,558.98L729.02,483.63L731.53,528.53L734.03,533.92L736.54,560.34L739.04,555.49L741.55,560.95L744.05,543.05L746.56,511.99L749.07,531.69L751.57,546.47L754.08,555.31L756.58,529.24L759.09,514.11L761.59,510.83L764.1,428.06L766.6,429L769.11,500.87L771.61,553.82L774.12,492.37L776.62,480.92L779.13,400.04L781.63,382.75L784.14,462.85L786.64,496.43L789.15,477.4L791.65,516.53L794.16,464.99L796.66,437.37L799.17,460.25L801.68,481.58L804.18,518.12L806.69,542.24L809.19,535.31L811.7,485.67L814.2,462.9L819.21,511.21L821.72,547.82L824.22,548.98L826.73,548.74L829.23,509.64L831.74,493.44L834.24,486.36L836.75,570.9L839.25,564.15L841.76,582.6L844.26,556.94L846.77,547.88L849.27,460.05L851.78,584.25L854.29,596.21L856.79,590.17L859.3,582.53L861.8,596.52L864.31,575.5L866.81,524.65L871.82,602.43L874.33,623.85L876.83,612.26L879.34,596.97L881.84,603.31L884.35,566.1L886.85,560.6L889.36,587.98L891.86,608.64L894.37,611.49L896.87,599.06L899.38,595.56L901.88,559.07L904.39,547.61L906.9,606.29L909.4,612.9L911.91,604.92L914.41,603.95L916.92,598.67L919.42,574.24L921.93,567.25L924.43,609.51L926.94,619.33L929.44,606L931.95,613L934.45,578.51L936.96,530.56L939.46,553.71L941.97,589.98L944.47,610.13L949.48,587.36L951.99,550.3L954.49,548.27L957,547.22" style="vector-effect: non-scaling-stroke; fill: none; stroke: rgb(31, 119, 180); stroke-opacity: 1; stroke-width: 2px; opacity: 1;"/></g><g class="points"/><g class="text"/></g></g></g><g class="overplot"/><path class="xlines-above crisp" d="M0,0" style="fill: none;"/><path class="ylines-above crisp" d="M0,0" style="fill: none;"/><g class="overlines-above"/><g class="xaxislayer-above"><g class="xtick"><text text-anchor="middle" x="0" y="741" transform="translate(67.52,0)" style="font-family: 'Open Sans', verdana, arial, sans-serif; font-size: 12px; fill: rgb(68, 68, 68); fill-opacity: 1; white-space: pre;">Mar 2020</text></g><g class="xtick"><text text-anchor="middle" x="0" y="741" transform="translate(220.34,0)" style="font-family: 'Open Sans', verdana, arial, sans-serif; font-size: 12px; fill: rgb(68, 68, 68); fill-opacity: 1; white-space: pre;">May 2020</text></g><g class="xtick"><text text-anchor="middle" x="0" y="741" transform="translate(373.15,0)" style="font-family: 'Open Sans', verdana, arial, sans-serif; font-size: 12px; fill: rgb(68, 68, 68); fill-opacity: 1; white-space: pre;">Jul 2020</text></g><g class="xtick"><text text-anchor="middle" x="0" y="741" transform="translate(528.48,0)" style="font-family: 'Open Sans', verdana, arial, sans-serif; font-size: 12px; fill: rgb(68, 68, 68); fill-opacity: 1; white-space: pre;">Sep 2020</text></g><g class="xtick"><text text-anchor="middle" x="0" y="741" transform="translate(681.3,0)" style="font-family: 'Open Sans', verdana, arial, sans-serif; font-size: 12px; fill: rgb(68, 68, 68); fill-opacity: 1; white-space: pre;">Nov 2020</text></g><g class="xtick"><text text-anchor="middle" x="0" y="741" transform="translate(834.12,0)" style="font-family: 'Open Sans', verdana, arial, sans-serif; font-size: 12px; fill: rgb(68, 68, 68); fill-opacity: 1; white-space: pre;">Jan 2021</text></g><g class="xtick"><text text-anchor="middle" x="0" y="741" transform="translate(981.93,0)" style="font-family: 'Open Sans', verdana, arial, sans-serif; font-size: 12px; fill: rgb(68, 68, 68); fill-opacity: 1; white-space: pre;">Mar 2021</text></g></g><g class="yaxislayer-above"><g class="ytick"><text text-anchor="end" x="59" y="4.199999999999999" transform="translate(0,692.85)" style="font-family: 'Open Sans', verdana, arial, sans-serif; font-size: 12px; fill: rgb(68, 68, 68); fill-opacity: 1; white-space: pre;">0</text></g><g class="ytick"><text text-anchor="end" x="59" y="4.199999999999999" transform="translate(0,532.65)" style="font-family: 'Open Sans', verdana, arial, sans-serif; font-size: 12px; fill: rgb(68, 68, 68); fill-opacity: 1; white-space: pre;">0.05</text></g><g class="ytick"><text text-anchor="end" x="59" y="4.199999999999999" transform="translate(0,372.46)" style="font-family: 'Open Sans', verdana, arial, sans-serif; font-size: 12px; fill: rgb(68, 68, 68); fill-opacity: 1; white-space: pre;">0.1</text></g><g class="ytick"><text text-anchor="end" x="59" y="4.199999999999999" transform="translate(0,212.26)" style="font-family: 'Open Sans', verdana, arial, sans-serif; font-size: 12px; fill: rgb(68, 68, 68); fill-opacity: 1; white-space: pre;">0.15</text></g><g class="ytick"><text text-anchor="end" x="59" y="4.199999999999999" transform="translate(0,52.06)" style="font-family: 'Open Sans', verdana, arial, sans-serif; font-size: 12px; fill: rgb(68, 68, 68); fill-opacity: 1; white-space: pre;">0.2</text></g></g><g class="overaxes-above"/></g></g><g class="polarlayer"/><g class="ternarylayer"/><g class="geolayer"/><g class="funnelarealayer"/><g class="pielayer"/><g class="treemaplayer"/><g class="sunburstlayer"/><g class="glimages"/><defs id="topdefs-3973e0"><g class="clips"/></defs><g class="layer-above"><g class="imagelayer"/><g class="shapelayer"/></g><g class="infolayer"><g class="g-gtitle"><text class="gtitle" x="513.5" y="12.5" text-anchor="middle" dy="0em" style="font-family: 'Open Sans', verdana, arial, sans-serif; font-size: 17px; fill: rgb(68, 68, 68); opacity: 1; font-weight: normal; white-space: pre;">Positive cases as proportion of tested per day as of Mar 16, 2021</text></g><g class="g-xtitle" transform="translate(0,-15)"><text class="xtitle" x="538.5" y="780" text-anchor="middle" style="font-family: 'Open Sans', verdana, arial, sans-serif; font-size: 14px; fill: rgb(68, 68, 68); opacity: 1; font-weight: normal; white-space: pre;">Date</text></g><g class="g-ytitle"><text class="ytitle" transform="rotate(-90,22,376.5)" x="22" y="376.5" text-anchor="middle" style="font-family: 'Open Sans', verdana, arial, sans-serif; font-size: 14px; fill: rgb(68, 68, 68); opacity: 1; font-weight: normal; white-space: pre;">ratio of positive to tested</text></g></g></svg>