<svg class="main-svg" xmlns="http://www.w3.org/2000/svg" xmlns:xlink="http://www.w3.org/1999/xlink" width="1027" height="768" style="" viewBox="0 0 1027 768"><rect x="0" y="0" width="1027" height="768" style="fill: rgb(255, 255, 255); fill-opacity: 1;"/><defs id="defs-b2563e"><g class="clips"><clipPath id="clipb2563exyplot" class="plotclip"><rect width="951" height="703"/></clipPath><clipPath class="axesclip" id="clipb2563ex"><rect x="60" y="0" width="951" height="768"/></clipPath><clipPath class="axesclip" id="clipb2563ey"><rect x="0" y="25" width="1027" height="703"/></clipPath><clipPath class="axesclip" id="clipb2563exy"><rect x="60" y="25" width="951" height="703"/></clipPath></g><g class="gradients"/></defs><g class="bglayer"/><g class="layer-below"><g class="imagelayer"/><g class="shapelayer"/></g><g class="cartesianlayer"><g class="subplot xy"><g class="layer-subplot"><g class="shapelayer"/><g class="imagelayer"/></g><g class="gridlayer"><g class="x"><path class="xgrid crisp" transform="translate(72.85,0)" d="M0,25v703" style="stroke: rgb(238, 238, 238); stroke-opacity: 1; stroke-width: 1px;"/><path class="xgrid crisp" transform="translate(205.65,0)" d="M0,25v703" style="stroke: rgb(238, 238, 238); stroke-opacity: 1; stroke-width: 1px;"/><path class="xgrid crisp" transform="translate(334.16,0)" d="M0,25v703" style="stroke: rgb(238, 238, 238); stroke-opacity: 1; stroke-width: 1px;"/><path class="xgrid crisp" transform="translate(466.96,0)" d="M0,25v703" style="stroke: rgb(238, 238, 238); stroke-opacity: 1; stroke-width: 1px;"/><path class="xgrid crisp" transform="translate(595.47,0)" d="M0,25v703" style="stroke: rgb(238, 238, 238); stroke-opacity: 1; stroke-width: 1px;"/><path class="xgrid crisp" transform="translate(728.27,0)" d="M0,25v703" style="stroke: rgb(238, 238, 238); stroke-opacity: 1; stroke-width: 1px;"/><path class="xgrid crisp" transform="translate(861.07,0)" d="M0,25v703" style="stroke: rgb(238, 238, 238); stroke-opacity: 1; stroke-width: 1px;"/><path class="xgrid crisp" transform="translate(989.58,0)" d="M0,25v703" style="stroke: rgb(238, 238, 238); stroke-opacity: 1; stroke-width: 1px;"/></g><g class="y"><path class="ygrid crisp" transform="translate(0,532.65)" d="M60,0h951" style="stroke: rgb(238, 238, 238); stroke-opacity: 1; stroke-width: 1px;"/><path class="ygrid crisp" transform="translate(0,372.46)" d="M60,0h951" style="stroke: rgb(238, 238, 238); stroke-opacity: 1; stroke-width: 1px;"/><path class="ygrid crisp" transform="translate(0,212.26)" d="M60,0h951" style="stroke: rgb(238, 238, 238); stroke-opacity: 1; stroke-width: 1px;"/><path class="ygrid crisp" transform="translate(0,52.06)" d="M60,0h951" style="stroke: rgb(238, 238, 238); stroke-opacity: 1; stroke-width: 1px;"/></g></g><g class="zerolinelayer"><path class="yzl zl crisp" transform="translate(0,692.85)" d="M60,0h951" style="stroke: rgb(68, 68, 68); stroke-opacity: 1; stroke-width: 1px;"/></g><path class="xlines-below"/><path class="ylines-below"/><g class="overlines-below"/><g class="xaxislayer-below"/><g class="yaxislayer-below"/><g class="overaxes-below"/><g class="plot" transform="translate(60, 25)" clip-path="url('#clipb2563exyplot')"><g class="scatterlayer mlayer"><g class="trace scatter tracee17dad" style="stroke-miterlimit: 2; opacity: 1;"><g class="fills"/><g class="errorbars"/><g class="lines"><path class="js-line" d="M0,622.08L4.28,621.42L17.14,505.63L21.42,614.89L25.7,667.85L29.99,653.8L34.27,602.8L38.55,638.59L47.12,614.7L51.41,667.85L55.69,638.18L59.97,598.9L64.26,599.97L68.54,617.23L72.82,593.79L77.11,608L81.39,632.36L85.68,638.47L89.96,617.81L94.24,600.66L98.53,620.7L102.81,621.42L107.09,549.58L111.38,600.54L115.66,572.07L119.95,483.2L124.23,497.46L128.51,432.27L132.8,317.67L137.08,404.9L141.36,449.29L145.65,403.44L149.93,299.64L154.22,405.8L158.5,315.31L162.78,403.85L167.07,194.99L171.35,123.47L175.64,290.13L179.92,282.57L184.2,306.88L188.49,480.13L192.77,401.54L197.05,348.91L201.34,404.5L205.62,484.89L209.91,464.79L214.19,35.15L218.47,558.54L222.76,445.78L227.04,478.64L231.32,510.14L235.61,468.98L239.89,501.07L244.18,523.68L248.46,551.37L252.74,559.61L257.03,512.85L261.31,571.63L265.59,554.1L269.88,586.26L274.16,567.44L278.45,586.75L282.73,586.4L287.01,551.47L291.3,566L295.58,583.63L299.86,574.06L304.15,610.19L308.43,614.38L312.72,597.21L317,571.12L321.28,598.21L325.57,604.43L329.85,608.32L334.14,597.34L338.42,600.68L342.7,561.46L346.99,432.5L351.27,498.58L355.55,541.9L359.84,542.55L364.12,548.15L368.41,538.38L372.69,509.42L376.97,574.73L381.26,606.03L385.54,598.19L389.82,608.35L394.11,617.71L398.39,606.46L402.68,577.83L406.96,574.11L411.24,606.1L415.53,613.07L419.81,619.36L424.09,604.76L428.38,599.22L432.66,617.15L436.95,613.3L441.23,627.52L445.51,641.13L449.8,647.27L454.08,636.81L458.36,640.74L462.65,641.19L466.93,640.71L471.22,642.7L475.5,645.92L479.78,646.9L484.07,643.75L492.64,644.3L496.92,625.1L501.2,645.35L505.49,645.84L509.77,656.3L514.05,652.54L518.34,647.93L522.62,637.5L526.91,646.68L531.19,649.53L539.76,646L544.04,649.76L548.32,649.27L552.61,639.33L556.89,644.1L561.18,651.29L565.46,647.16L569.74,654.33L574.03,653.74L578.31,651.78L582.59,650.06L586.88,646.61L591.16,654.1L595.45,654.43L599.73,656.44L604.01,649.41L612.58,647.17L616.86,639.54L621.15,645.81L625.43,655.16L629.72,646.16L634,653.06L638.28,651.06L642.57,652.39L646.85,647.33L651.14,658.93L655.42,657.55L659.7,653.55L663.99,655.91L668.27,655.64L672.55,655.6L676.84,652.64L681.12,651.86L685.41,656.22L689.69,656.63L693.97,659.23L698.26,658.74L702.54,651.31L706.82,662.95L711.11,655.46L715.39,659.41L719.68,658.07L723.96,656.69L728.24,656.95L732.53,655.44L736.81,650.49L741.09,655.11L745.38,658.45L749.66,652.9L753.95,655.77L758.23,652.09L762.51,649.95L766.8,651.84L771.08,655.01L775.36,654.64L779.65,655.57L783.93,653.08L788.22,653.48L796.78,652.61L801.07,650.1L805.35,651.77L809.64,651.26L813.92,648.97L818.2,650.37L822.49,642.19L826.77,639.53L831.05,640.73L835.34,645.77L839.62,646.85L843.91,646.98L848.19,646.86L852.47,633.9L856.76,638.78L861.04,632.76L865.32,641.13L869.61,631.99L873.89,634.36L878.18,638.71L882.46,624.97L886.74,623.07L891.03,637.56L895.31,625.07L899.59,636.55L903.88,635.62L908.16,630.84L912.45,613.3L916.73,621.6L921.01,611.84L925.3,624.37L929.58,609.35L933.86,622.62L938.15,622.13L942.43,616.26L946.72,626.08L951,624.69" style="vector-effect: non-scaling-stroke; fill: none; stroke: rgb(31, 119, 180); stroke-opacity: 1; stroke-width: 2px; opacity: 1;"/></g><g class="points"/><g class="text"/></g></g></g><g class="overplot"/><path class="xlines-above crisp" d="M0,0" style="fill: none;"/><path class="ylines-above crisp" d="M0,0" style="fill: none;"/><g class="overlines-above"/><g class="xaxislayer-above"><g class="xtick"><text text-anchor="middle" x="0" y="741" transform="translate(72.85,0)" style="font-family: 'Open Sans', verdana, arial, sans-serif; font-size: 12px; fill: rgb(68, 68, 68); fill-opacity: 1; white-space: pre;">Mar 2020</text></g><g class="xtick"><text text-anchor="middle" x="0" y="741" transform="translate(205.65,0)" style="font-family: 'Open Sans', verdana, arial, sans-serif; font-size: 12px; fill: rgb(68, 68, 68); fill-opacity: 1; white-space: pre;">Apr 2020</text></g><g class="xtick"><text text-anchor="middle" x="0" y="741" transform="translate(334.16,0)" style="font-family: 'Open Sans', verdana, arial, sans-serif; font-size: 12px; fill: rgb(68, 68, 68); fill-opacity: 1; white-space: pre;">May 2020</text></g><g class="xtick"><text text-anchor="middle" x="0" y="741" transform="translate(466.96,0)" style="font-family: 'Open Sans', verdana, arial, sans-serif; font-size: 12px; fill: rgb(68, 68, 68); fill-opacity: 1; white-space: pre;">Jun 2020</text></g><g class="xtick"><text text-anchor="middle" x="0" y="741" transform="translate(595.47,0)" style="font-family: 'Open Sans', verdana, arial, sans-serif; font-size: 12px; fill: rgb(68, 68, 68); fill-opacity: 1; white-space: pre;">Jul 2020</text></g><g class="xtick"><text text-anchor="middle" x="0" y="741" transform="translate(728.27,0)" style="font-family: 'Open Sans', verdana, arial, sans-serif; font-size: 12px; fill: rgb(68, 68, 68); fill-opacity: 1; white-space: pre;">Aug 2020</text></g><g class="xtick"><text text-anchor="middle" x="0" y="741" transform="translate(861.07,0)" style="font-family: 'Open Sans', verdana, arial, sans-serif; font-size: 12px; fill: rgb(68, 68, 68); fill-opacity: 1; white-space: pre;">Sep 2020</text></g><g class="xtick"><text text-anchor="middle" x="0" y="741" transform="translate(989.58,0)" style="font-family: 'Open Sans', verdana, arial, sans-serif; font-size: 12px; fill: rgb(68, 68, 68); fill-opacity: 1; white-space: pre;">Oct 2020</text></g></g><g class="yaxislayer-above"><g class="ytick"><text text-anchor="end" x="59" y="4.199999999999999" transform="translate(0,692.85)" style="font-family: 'Open Sans', verdana, arial, sans-serif; font-size: 12px; fill: rgb(68, 68, 68); fill-opacity: 1; white-space: pre;">0</text></g><g class="ytick"><text text-anchor="end" x="59" y="4.199999999999999" transform="translate(0,532.65)" style="font-family: 'Open Sans', verdana, arial, sans-serif; font-size: 12px; fill: rgb(68, 68, 68); fill-opacity: 1; white-space: pre;">0.05</text></g><g class="ytick"><text text-anchor="end" x="59" y="4.199999999999999" transform="translate(0,372.46)" style="font-family: 'Open Sans', verdana, arial, sans-serif; font-size: 12px; fill: rgb(68, 68, 68); fill-opacity: 1; white-space: pre;">0.1</text></g><g class="ytick"><text text-anchor="end" x="59" y="4.199999999999999" transform="translate(0,212.26)" style="font-family: 'Open Sans', verdana, arial, sans-serif; font-size: 12px; fill: rgb(68, 68, 68); fill-opacity: 1; white-space: pre;">0.15</text></g><g class="ytick"><text text-anchor="end" x="59" y="4.199999999999999" transform="translate(0,52.06)" style="font-family: 'Open Sans', verdana, arial, sans-serif; font-size: 12px; fill: rgb(68, 68, 68); fill-opacity: 1; white-space: pre;">0.2</text></g></g><g class="overaxes-above"/></g></g><g class="polarlayer"/><g class="ternarylayer"/><g class="geolayer"/><g class="funnelarealayer"/><g class="pielayer"/><g class="treemaplayer"/><g class="sunburstlayer"/><g class="glimages"/><defs id="topdefs-b2563e"><g class="clips"/></defs><g class="layer-above"><g class="imagelayer"/><g class="shapelayer"/></g><g class="infolayer"><g class="g-gtitle"><text class="gtitle" x="513.5" y="12.5" text-anchor="middle" dy="0em" style="font-family: 'Open Sans', verdana, arial, sans-serif; font-size: 17px; fill: rgb(68, 68, 68); opacity: 1; font-weight: normal; white-space: pre;">Positive cases as proportion of tested per day as of Oct 07, 2020</text></g><g class="g-xtitle" transform="translate(0,-15)"><text class="xtitle" x="535.5" y="780" text-anchor="middle" style="font-family: 'Open Sans', verdana, arial, sans-serif; font-size: 14px; fill: rgb(68, 68, 68); opacity: 1; font-weight: normal; white-space: pre;">Date</text></g><g class="g-ytitle"><text class="ytitle" transform="rotate(-90,22,376.5)" x="22" y="376.5" text-anchor="middle" style="font-family: 'Open Sans', verdana, arial, sans-serif; font-size: 14px; fill: rgb(68, 68, 68); opacity: 1; font-weight: normal; white-space: pre;">ratio of positive to tested</text></g></g></svg>