<svg class="main-svg" xmlns="http://www.w3.org/2000/svg" xmlns:xlink="http://www.w3.org/1999/xlink" width="1027" height="768" style="" viewBox="0 0 1027 768"><rect x="0" y="0" width="1027" height="768" style="fill: rgb(255, 255, 255); fill-opacity: 1;"/><defs id="defs-019128"><g class="clips"><clipPath id="clip019128xyplot" class="plotclip"><rect width="957" height="703"/></clipPath><clipPath class="axesclip" id="clip019128x"><rect x="60" y="0" width="957" height="768"/></clipPath><clipPath class="axesclip" id="clip019128y"><rect x="0" y="25" width="1027" height="703"/></clipPath><clipPath class="axesclip" id="clip019128xy"><rect x="60" y="25" width="957" height="703"/></clipPath></g><g class="gradients"/></defs><g class="bglayer"/><g class="layer-below"><g class="imagelayer"/><g class="shapelayer"/></g><g class="cartesianlayer"><g class="subplot xy"><g class="layer-subplot"><g class="shapelayer"/><g class="imagelayer"/></g><g class="gridlayer"><g class="x"><path class="xgrid crisp" transform="translate(71.21000000000001,0)" d="M0,25v703" style="stroke: rgb(238, 238, 238); stroke-opacity: 1; stroke-width: 1px;"/><path class="xgrid crisp" transform="translate(187.1,0)" d="M0,25v703" style="stroke: rgb(238, 238, 238); stroke-opacity: 1; stroke-width: 1px;"/><path class="xgrid crisp" transform="translate(299.25,0)" d="M0,25v703" style="stroke: rgb(238, 238, 238); stroke-opacity: 1; stroke-width: 1px;"/><path class="xgrid crisp" transform="translate(415.14,0)" d="M0,25v703" style="stroke: rgb(238, 238, 238); stroke-opacity: 1; stroke-width: 1px;"/><path class="xgrid crisp" transform="translate(527.29,0)" d="M0,25v703" style="stroke: rgb(238, 238, 238); stroke-opacity: 1; stroke-width: 1px;"/><path class="xgrid crisp" transform="translate(643.17,0)" d="M0,25v703" style="stroke: rgb(238, 238, 238); stroke-opacity: 1; stroke-width: 1px;"/><path class="xgrid crisp" transform="translate(759.06,0)" d="M0,25v703" style="stroke: rgb(238, 238, 238); stroke-opacity: 1; stroke-width: 1px;"/><path class="xgrid crisp" transform="translate(871.21,0)" d="M0,25v703" style="stroke: rgb(238, 238, 238); stroke-opacity: 1; stroke-width: 1px;"/><path class="xgrid crisp" transform="translate(987.09,0)" d="M0,25v703" style="stroke: rgb(238, 238, 238); stroke-opacity: 1; stroke-width: 1px;"/></g><g class="y"><path class="ygrid crisp" transform="translate(0,532.65)" d="M60,0h957" style="stroke: rgb(238, 238, 238); stroke-opacity: 1; stroke-width: 1px;"/><path class="ygrid crisp" transform="translate(0,372.46)" d="M60,0h957" style="stroke: rgb(238, 238, 238); stroke-opacity: 1; stroke-width: 1px;"/><path class="ygrid crisp" transform="translate(0,212.26)" d="M60,0h957" style="stroke: rgb(238, 238, 238); stroke-opacity: 1; stroke-width: 1px;"/><path class="ygrid crisp" transform="translate(0,52.06)" d="M60,0h957" style="stroke: rgb(238, 238, 238); stroke-opacity: 1; stroke-width: 1px;"/></g></g><g class="zerolinelayer"><path class="yzl zl crisp" transform="translate(0,692.85)" d="M60,0h957" style="stroke: rgb(68, 68, 68); stroke-opacity: 1; stroke-width: 1px;"/></g><path class="xlines-below"/><path class="ylines-below"/><g class="overlines-below"/><g class="xaxislayer-below"/><g class="yaxislayer-below"/><g class="overaxes-below"/><g class="plot" transform="translate(60, 25)" clip-path="url('#clip019128xyplot')"><g class="scatterlayer mlayer"><g class="trace scatter traceff0d26" style="stroke-miterlimit: 2; opacity: 1;"><g class="fills"/><g class="errorbars"/><g class="lines"><path class="js-line" d="M0,622.08L3.74,621.42L14.95,505.63L18.69,614.89L22.43,667.85L26.17,653.8L29.91,602.8L33.64,638.59L41.12,614.7L44.86,667.85L48.6,638.18L52.34,598.9L56.07,599.97L59.81,617.23L63.55,593.79L67.29,608L71.03,632.36L74.77,638.47L78.5,617.81L82.24,600.66L85.98,620.7L89.72,621.42L93.46,549.58L97.2,600.54L100.93,572.07L104.67,483.2L108.41,497.46L112.15,432.27L115.89,317.67L119.63,404.9L123.36,449.29L127.1,403.44L130.84,299.64L134.58,405.8L138.32,315.31L142.05,403.85L145.79,194.99L149.53,123.47L153.27,290.13L157.01,282.57L160.75,306.88L164.48,480.13L168.22,401.54L171.96,348.91L175.7,404.5L179.44,484.89L183.18,464.79L186.91,35.15L190.65,558.54L194.39,445.78L198.13,478.64L201.87,510.14L205.61,468.98L209.34,501.07L213.08,523.68L216.82,551.37L220.56,559.61L224.3,512.85L228.04,571.63L231.77,554.1L235.51,586.26L239.25,567.44L242.99,586.75L246.73,586.4L250.46,551.47L254.2,566L257.94,583.63L261.68,574.06L265.42,610.19L269.16,614.38L272.89,597.21L276.63,571.12L280.37,598.21L284.11,604.43L287.85,608.32L291.59,597.34L295.32,600.68L299.06,561.46L302.8,432.5L306.54,498.58L310.28,541.9L314.02,542.55L317.75,548.15L321.49,538.38L325.23,509.42L328.97,574.73L332.71,606.03L336.45,598.19L340.18,608.35L343.92,617.71L347.66,606.46L351.4,577.83L355.14,574.11L358.88,606.1L362.61,613.07L366.35,619.36L370.09,604.76L373.83,599.22L377.57,617.15L381.3,613.3L385.04,627.52L388.78,641.13L392.52,647.27L396.26,636.81L400,640.74L403.73,641.19L407.47,640.71L411.21,642.7L414.95,645.92L418.69,646.9L422.43,643.75L429.9,644.3L433.64,625.1L437.38,645.35L441.12,645.84L444.86,656.3L448.59,652.54L452.33,647.93L456.07,637.5L459.81,646.68L463.55,649.53L471.02,646L474.76,649.76L478.5,649.27L482.24,639.33L485.98,644.1L489.71,651.29L493.45,647.16L497.19,654.33L500.93,653.74L504.67,651.78L508.41,650.06L512.14,646.61L515.88,654.1L519.62,654.43L523.36,656.44L527.1,649.41L534.57,647.17L538.31,639.54L542.05,645.81L545.79,655.16L549.53,646.16L553.27,653.06L557,651.06L560.74,652.39L564.48,647.33L568.22,658.93L571.96,657.55L575.7,653.55L579.43,655.91L583.17,655.64L586.91,655.6L590.65,652.64L594.39,651.86L598.13,656.22L601.86,656.63L605.6,659.23L609.34,658.74L613.08,651.31L616.82,662.95L620.55,655.46L624.29,659.41L628.03,658.07L631.77,656.69L635.51,656.95L639.25,655.44L642.98,650.49L646.72,655.11L650.46,658.45L654.2,652.9L657.94,655.77L661.68,652.09L665.41,649.95L669.15,651.84L672.89,655.01L676.63,654.64L680.37,655.57L684.11,653.08L687.84,653.48L695.32,652.61L699.06,650.1L702.8,651.77L706.54,651.26L710.27,648.97L714.01,650.37L717.75,642.19L721.49,639.53L725.23,640.73L728.96,645.77L732.7,646.85L736.44,646.98L740.18,646.86L743.92,633.9L747.66,638.78L751.39,632.76L755.13,641.13L758.87,631.99L762.61,634.36L766.35,638.71L770.09,624.97L773.82,623.07L777.56,637.56L781.3,625.07L785.04,636.55L788.78,635.62L792.52,630.84L796.25,613.3L799.99,621.6L803.73,611.84L807.47,624.37L811.21,609.35L814.95,622.62L818.68,622.13L822.42,616.26L826.16,626.08L829.9,624.69L833.64,615.19L837.38,600.87L841.11,609.34L844.85,620.74L848.59,596.96L852.33,591.32L856.07,596.12L859.8,605.07L863.54,608.61L867.28,610.18L871.02,616.24L874.76,597.06L878.5,558.47L882.23,590.32L885.97,598.51L889.71,601.72L893.45,596.88L897.19,581.74L900.93,572.69L904.66,557.19L908.4,578.81L912.14,583.84L915.88,597.85L923.36,583.55L927.09,559.02L930.83,534.77L934.57,557.15L938.31,578.42L942.05,589.98L945.79,575.25L949.52,554.62L953.26,527.74L957,515.16" style="vector-effect: non-scaling-stroke; fill: none; stroke: rgb(31, 119, 180); stroke-opacity: 1; stroke-width: 2px; opacity: 1;"/></g><g class="points"/><g class="text"/></g></g></g><g class="overplot"/><path class="xlines-above crisp" d="M0,0" style="fill: none;"/><path class="ylines-above crisp" d="M0,0" style="fill: none;"/><g class="overlines-above"/><g class="xaxislayer-above"><g class="xtick"><text text-anchor="middle" x="0" y="741" transform="translate(71.21000000000001,0)" style="font-family: 'Open Sans', verdana, arial, sans-serif; font-size: 12px; fill: rgb(68, 68, 68); fill-opacity: 1; white-space: pre;">Mar 2020</text></g><g class="xtick"><text text-anchor="middle" x="0" y="741" transform="translate(187.1,0)" style="font-family: 'Open Sans', verdana, arial, sans-serif; font-size: 12px; fill: rgb(68, 68, 68); fill-opacity: 1; white-space: pre;">Apr 2020</text></g><g class="xtick"><text text-anchor="middle" x="0" y="741" transform="translate(299.25,0)" style="font-family: 'Open Sans', verdana, arial, sans-serif; font-size: 12px; fill: rgb(68, 68, 68); fill-opacity: 1; white-space: pre;">May 2020</text></g><g class="xtick"><text text-anchor="middle" x="0" y="741" transform="translate(415.14,0)" style="font-family: 'Open Sans', verdana, arial, sans-serif; font-size: 12px; fill: rgb(68, 68, 68); fill-opacity: 1; white-space: pre;">Jun 2020</text></g><g class="xtick"><text text-anchor="middle" x="0" y="741" transform="translate(527.29,0)" style="font-family: 'Open Sans', verdana, arial, sans-serif; font-size: 12px; fill: rgb(68, 68, 68); fill-opacity: 1; white-space: pre;">Jul 2020</text></g><g class="xtick"><text text-anchor="middle" x="0" y="741" transform="translate(643.17,0)" style="font-family: 'Open Sans', verdana, arial, sans-serif; font-size: 12px; fill: rgb(68, 68, 68); fill-opacity: 1; white-space: pre;">Aug 2020</text></g><g class="xtick"><text text-anchor="middle" x="0" y="741" transform="translate(759.06,0)" style="font-family: 'Open Sans', verdana, arial, sans-serif; font-size: 12px; fill: rgb(68, 68, 68); fill-opacity: 1; white-space: pre;">Sep 2020</text></g><g class="xtick"><text text-anchor="middle" x="0" y="741" transform="translate(871.21,0)" style="font-family: 'Open Sans', verdana, arial, sans-serif; font-size: 12px; fill: rgb(68, 68, 68); fill-opacity: 1; white-space: pre;">Oct 2020</text></g><g class="xtick"><text text-anchor="middle" x="0" y="741" transform="translate(987.09,0)" style="font-family: 'Open Sans', verdana, arial, sans-serif; font-size: 12px; fill: rgb(68, 68, 68); fill-opacity: 1; white-space: pre;">Nov 2020</text></g></g><g class="yaxislayer-above"><g class="ytick"><text text-anchor="end" x="59" y="4.199999999999999" transform="translate(0,692.85)" style="font-family: 'Open Sans', verdana, arial, sans-serif; font-size: 12px; fill: rgb(68, 68, 68); fill-opacity: 1; white-space: pre;">0</text></g><g class="ytick"><text text-anchor="end" x="59" y="4.199999999999999" transform="translate(0,532.65)" style="font-family: 'Open Sans', verdana, arial, sans-serif; font-size: 12px; fill: rgb(68, 68, 68); fill-opacity: 1; white-space: pre;">0.05</text></g><g class="ytick"><text text-anchor="end" x="59" y="4.199999999999999" transform="translate(0,372.46)" style="font-family: 'Open Sans', verdana, arial, sans-serif; font-size: 12px; fill: rgb(68, 68, 68); fill-opacity: 1; white-space: pre;">0.1</text></g><g class="ytick"><text text-anchor="end" x="59" y="4.199999999999999" transform="translate(0,212.26)" style="font-family: 'Open Sans', verdana, arial, sans-serif; font-size: 12px; fill: rgb(68, 68, 68); fill-opacity: 1; white-space: pre;">0.15</text></g><g class="ytick"><text text-anchor="end" x="59" y="4.199999999999999" transform="translate(0,52.06)" style="font-family: 'Open Sans', verdana, arial, sans-serif; font-size: 12px; fill: rgb(68, 68, 68); fill-opacity: 1; white-space: pre;">0.2</text></g></g><g class="overaxes-above"/></g></g><g class="polarlayer"/><g class="ternarylayer"/><g class="geolayer"/><g class="funnelarealayer"/><g class="pielayer"/><g class="treemaplayer"/><g class="sunburstlayer"/><g class="glimages"/><defs id="topdefs-019128"><g class="clips"/></defs><g class="layer-above"><g class="imagelayer"/><g class="shapelayer"/></g><g class="infolayer"><g class="g-gtitle"><text class="gtitle" x="513.5" y="12.5" text-anchor="middle" dy="0em" style="font-family: 'Open Sans', verdana, arial, sans-serif; font-size: 17px; fill: rgb(68, 68, 68); opacity: 1; font-weight: normal; white-space: pre;">Positive cases as proportion of tested per day as of Nov 10, 2020</text></g><g class="g-xtitle" transform="translate(0,-15)"><text class="xtitle" x="538.5" y="780" text-anchor="middle" style="font-family: 'Open Sans', verdana, arial, sans-serif; font-size: 14px; fill: rgb(68, 68, 68); opacity: 1; font-weight: normal; white-space: pre;">Date</text></g><g class="g-ytitle"><text class="ytitle" transform="rotate(-90,22,376.5)" x="22" y="376.5" text-anchor="middle" style="font-family: 'Open Sans', verdana, arial, sans-serif; font-size: 14px; fill: rgb(68, 68, 68); opacity: 1; font-weight: normal; white-space: pre;">ratio of positive to tested</text></g></g></svg>