<svg class="main-svg" xmlns="http://www.w3.org/2000/svg" xmlns:xlink="http://www.w3.org/1999/xlink" width="1027" height="768" style="" viewBox="0 0 1027 768"><rect x="0" y="0" width="1027" height="768" style="fill: rgb(255, 255, 255); fill-opacity: 1;"/><defs id="defs-3277e1"><g class="clips"><clipPath id="clip3277e1xyplot" class="plotclip"><rect width="957" height="703"/></clipPath><clipPath class="axesclip" id="clip3277e1x"><rect x="60" y="0" width="957" height="768"/></clipPath><clipPath class="axesclip" id="clip3277e1y"><rect x="0" y="25" width="1027" height="703"/></clipPath><clipPath class="axesclip" id="clip3277e1xy"><rect x="60" y="25" width="957" height="703"/></clipPath></g><g class="gradients"/></defs><g class="bglayer"/><g class="layer-below"><g class="imagelayer"/><g class="shapelayer"/></g><g class="cartesianlayer"><g class="subplot xy"><g class="layer-subplot"><g class="shapelayer"/><g class="imagelayer"/></g><g class="gridlayer"><g class="x"><path class="xgrid crisp" transform="translate(67.46,0)" d="M0,25v703" style="stroke: rgb(238, 238, 238); stroke-opacity: 1; stroke-width: 1px;"/><path class="xgrid crisp" transform="translate(219.09,0)" d="M0,25v703" style="stroke: rgb(238, 238, 238); stroke-opacity: 1; stroke-width: 1px;"/><path class="xgrid crisp" transform="translate(370.71,0)" d="M0,25v703" style="stroke: rgb(238, 238, 238); stroke-opacity: 1; stroke-width: 1px;"/><path class="xgrid crisp" transform="translate(524.8299999999999,0)" d="M0,25v703" style="stroke: rgb(238, 238, 238); stroke-opacity: 1; stroke-width: 1px;"/><path class="xgrid crisp" transform="translate(676.46,0)" d="M0,25v703" style="stroke: rgb(238, 238, 238); stroke-opacity: 1; stroke-width: 1px;"/><path class="xgrid crisp" transform="translate(828.09,0)" d="M0,25v703" style="stroke: rgb(238, 238, 238); stroke-opacity: 1; stroke-width: 1px;"/><path class="xgrid crisp" transform="translate(974.74,0)" d="M0,25v703" style="stroke: rgb(238, 238, 238); stroke-opacity: 1; stroke-width: 1px;"/></g><g class="y"><path class="ygrid crisp" transform="translate(0,532.65)" d="M60,0h957" style="stroke: rgb(238, 238, 238); stroke-opacity: 1; stroke-width: 1px;"/><path class="ygrid crisp" transform="translate(0,372.46)" d="M60,0h957" style="stroke: rgb(238, 238, 238); stroke-opacity: 1; stroke-width: 1px;"/><path class="ygrid crisp" transform="translate(0,212.26)" d="M60,0h957" style="stroke: rgb(238, 238, 238); stroke-opacity: 1; stroke-width: 1px;"/><path class="ygrid crisp" transform="translate(0,52.06)" d="M60,0h957" style="stroke: rgb(238, 238, 238); stroke-opacity: 1; stroke-width: 1px;"/></g></g><g class="zerolinelayer"><path class="yzl zl crisp" transform="translate(0,692.85)" d="M60,0h957" style="stroke: rgb(68, 68, 68); stroke-opacity: 1; stroke-width: 1px;"/></g><path class="xlines-below"/><path class="ylines-below"/><g class="overlines-below"/><g class="xaxislayer-below"/><g class="yaxislayer-below"/><g class="overaxes-below"/><g class="plot" transform="translate(60, 25)" clip-path="url('#clip3277e1xyplot')"><g class="scatterlayer mlayer"><g class="trace scatter trace5ef6f2" style="stroke-miterlimit: 2; opacity: 1;"><g class="fills"/><g class="errorbars"/><g class="lines"><path class="js-line" d="M0,622.08L2.49,621.42L9.94,505.63L12.43,614.89L14.91,667.85L17.4,653.8L19.89,602.8L22.37,638.59L27.34,614.7L29.83,667.85L32.31,638.18L34.8,598.9L37.29,599.97L39.77,617.23L42.26,593.79L44.74,608L47.23,632.36L49.71,638.47L52.2,617.81L54.69,600.66L57.17,620.7L59.66,621.42L62.14,549.58L64.63,600.54L67.11,572.07L69.6,483.2L72.09,497.46L74.57,432.27L77.06,317.67L79.54,404.9L82.03,449.29L84.51,403.44L87,299.64L89.49,405.8L91.97,315.31L94.46,403.85L96.94,194.99L99.43,123.47L101.91,290.13L104.4,282.57L106.89,306.88L109.37,480.13L111.86,401.54L114.34,348.91L116.83,404.5L119.31,484.89L121.8,464.79L124.29,35.15L126.77,558.54L129.26,445.78L131.74,478.64L134.23,510.14L136.71,468.98L141.69,523.68L144.17,551.37L146.66,559.61L149.14,512.85L151.63,571.63L154.11,554.1L156.6,586.26L159.09,567.44L161.57,586.75L164.06,586.4L166.54,551.47L169.03,566L171.51,583.63L174,574.06L176.49,610.19L178.97,614.38L181.46,597.21L183.94,571.12L186.43,598.21L188.91,604.43L191.4,608.32L193.89,597.34L196.37,600.68L198.86,561.46L201.34,432.5L203.83,498.58L206.31,541.9L208.8,542.55L211.29,548.15L213.77,538.38L216.26,509.42L218.74,574.73L221.23,606.03L223.71,598.19L228.69,617.71L231.17,606.46L233.66,577.83L236.14,574.11L238.63,606.1L241.11,613.07L243.6,619.36L246.09,604.76L248.57,599.22L251.06,617.15L253.54,613.3L256.03,627.52L258.51,641.13L261,647.27L263.49,636.81L265.97,640.74L268.46,641.19L270.94,640.71L273.43,642.7L275.91,645.92L278.4,646.9L280.89,643.75L285.86,644.3L288.34,625.1L290.83,645.35L293.31,645.84L295.8,656.3L298.29,652.54L300.77,647.93L303.26,637.5L305.74,646.68L308.23,649.53L313.2,646L315.69,649.76L318.17,649.27L320.66,639.33L323.14,644.1L325.63,651.29L328.11,647.16L330.6,654.33L333.09,653.74L335.57,651.78L338.06,650.06L340.54,646.61L343.03,654.1L345.51,654.43L348,656.44L350.49,649.41L355.46,647.17L357.94,639.54L360.43,645.81L362.91,655.16L365.4,646.16L367.89,653.06L370.37,651.06L372.86,652.39L375.34,647.33L377.83,658.93L380.31,657.55L382.8,653.55L385.29,655.91L387.77,655.64L390.26,655.6L392.74,652.64L395.23,651.86L397.71,656.22L400.2,656.63L402.69,659.23L405.17,658.74L407.66,651.31L410.14,662.95L412.63,655.46L415.11,659.41L417.6,658.07L420.09,656.69L422.57,656.95L425.06,655.44L427.54,650.49L432.51,658.45L435,652.9L437.49,655.77L439.97,652.09L442.46,649.95L444.94,651.84L447.43,655.01L449.91,654.64L452.4,655.57L454.89,653.08L459.86,653.3L462.34,652.61L464.83,650.1L467.31,651.77L469.8,651.26L472.29,648.97L474.77,650.37L477.26,642.19L479.74,639.53L482.23,640.73L484.71,645.77L487.2,646.85L492.17,646.86L494.66,633.9L497.14,638.78L499.63,632.76L502.11,641.13L504.6,631.99L507.09,634.36L509.57,638.71L512.06,624.97L514.54,623.07L517.03,637.56L519.51,625.07L522,636.55L524.49,635.62L526.97,630.84L529.46,613.3L531.94,621.6L534.43,611.84L536.91,624.37L539.4,609.35L541.89,622.62L544.37,622.13L546.86,616.26L549.34,626.08L551.83,624.69L554.31,615.19L556.8,600.87L559.29,609.34L561.77,620.74L564.26,596.96L566.74,591.32L569.23,596.12L571.71,605.07L574.2,608.61L576.69,610.18L579.17,616.24L581.66,597.06L584.14,558.47L586.63,590.32L589.11,598.51L591.6,601.72L594.09,596.88L596.57,581.74L599.06,572.69L601.54,557.19L604.03,578.81L606.51,583.84L609,597.85L613.97,583.55L616.46,559.02L618.94,534.77L621.43,557.15L623.91,578.42L626.4,589.98L628.89,575.25L631.37,554.62L633.86,527.74L636.34,515.16L638.83,543.38L641.31,540.29L643.8,557.44L646.29,554.88L648.77,573.11L651.26,525L653.74,516.66L656.23,532.08L658.71,575.19L661.2,573.54L663.69,558.83L666.17,561.9L668.66,531.98L671.14,548.35L673.63,545.91L676.11,568.32L681.09,561.88L683.57,566.43L686.06,525.89L688.54,509.97L691.03,543.03L693.51,557.32L696,566.01L698.49,567.58L700.97,563.81L703.46,531.65L705.94,530.86L708.43,543.11L710.91,565.06L713.4,573.94L715.89,575.9L718.37,575.51L720.86,558.98L723.34,483.63L725.83,528.53L728.31,533.92L730.8,560.34L733.29,555.49L735.77,560.95L738.26,543.05L740.74,511.99L743.23,531.69L745.71,546.47L748.2,555.31L750.69,529.24L753.17,514.11L755.66,510.83L758.14,428.06L760.63,429L763.11,500.87L765.6,553.82L768.09,492.37L770.57,480.92L773.06,400.04L775.54,382.75L778.03,462.85L780.51,496.43L783,477.4L785.49,516.53L787.97,464.99L790.46,437.37L792.94,460.25L795.43,481.58L797.91,518.12L800.4,542.24L802.89,535.31L805.37,485.67L807.86,462.9L812.83,511.21L815.31,547.82L817.8,548.98L820.29,548.74L822.77,509.64L825.26,493.44L827.74,486.36L830.23,570.9L832.71,564.15L835.2,582.6L837.69,556.94L840.17,547.88L842.66,460.05L845.14,584.25L847.63,596.21L850.11,590.17L852.6,582.53L855.09,596.52L857.57,575.5L860.06,524.65L865.03,602.43L867.51,623.85L870,612.26L872.49,596.97L874.97,603.31L877.46,566.1L879.94,560.6L882.43,587.98L884.91,608.64L887.4,611.49L889.89,599.06L892.37,595.56L894.86,559.07L897.34,547.61L899.83,606.29L902.31,612.9L904.8,604.92L907.29,603.95L909.77,598.67L912.26,574.24L914.74,567.25L917.23,609.51L919.71,619.33L922.2,606L924.69,613L927.17,578.51L929.66,530.56L932.14,553.71L934.63,589.98L937.11,610.13L942.09,587.36L944.57,550.3L947.06,548.27L949.54,547.22L952.03,569.5L954.51,582.88L957,568.25" style="vector-effect: non-scaling-stroke; fill: none; stroke: rgb(31, 119, 180); stroke-opacity: 1; stroke-width: 2px; opacity: 1;"/></g><g class="points"/><g class="text"/></g></g></g><g class="overplot"/><path class="xlines-above crisp" d="M0,0" style="fill: none;"/><path class="ylines-above crisp" d="M0,0" style="fill: none;"/><g class="overlines-above"/><g class="xaxislayer-above"><g class="xtick"><text text-anchor="middle" x="0" y="741" transform="translate(67.46,0)" style="font-family: 'Open Sans', verdana, arial, sans-serif; font-size: 12px; fill: rgb(68, 68, 68); fill-opacity: 1; white-space: pre;">Mar 2020</text></g><g class="xtick"><text text-anchor="middle" x="0" y="741" transform="translate(219.09,0)" style="font-family: 'Open Sans', verdana, arial, sans-serif; font-size: 12px; fill: rgb(68, 68, 68); fill-opacity: 1; white-space: pre;">May 2020</text></g><g class="xtick"><text text-anchor="middle" x="0" y="741" transform="translate(370.71,0)" style="font-family: 'Open Sans', verdana, arial, sans-serif; font-size: 12px; fill: rgb(68, 68, 68); fill-opacity: 1; white-space: pre;">Jul 2020</text></g><g class="xtick"><text text-anchor="middle" x="0" y="741" transform="translate(524.8299999999999,0)" style="font-family: 'Open Sans', verdana, arial, sans-serif; font-size: 12px; fill: rgb(68, 68, 68); fill-opacity: 1; white-space: pre;">Sep 2020</text></g><g class="xtick"><text text-anchor="middle" x="0" y="741" transform="translate(676.46,0)" style="font-family: 'Open Sans', verdana, arial, sans-serif; font-size: 12px; fill: rgb(68, 68, 68); fill-opacity: 1; white-space: pre;">Nov 2020</text></g><g class="xtick"><text text-anchor="middle" x="0" y="741" transform="translate(828.09,0)" style="font-family: 'Open Sans', verdana, arial, sans-serif; font-size: 12px; fill: rgb(68, 68, 68); fill-opacity: 1; white-space: pre;">Jan 2021</text></g><g class="xtick"><text text-anchor="middle" x="0" y="741" transform="translate(974.74,0)" style="font-family: 'Open Sans', verdana, arial, sans-serif; font-size: 12px; fill: rgb(68, 68, 68); fill-opacity: 1; white-space: pre;">Mar 2021</text></g></g><g class="yaxislayer-above"><g class="ytick"><text text-anchor="end" x="59" y="4.199999999999999" transform="translate(0,692.85)" style="font-family: 'Open Sans', verdana, arial, sans-serif; font-size: 12px; fill: rgb(68, 68, 68); fill-opacity: 1; white-space: pre;">0</text></g><g class="ytick"><text text-anchor="end" x="59" y="4.199999999999999" transform="translate(0,532.65)" style="font-family: 'Open Sans', verdana, arial, sans-serif; font-size: 12px; fill: rgb(68, 68, 68); fill-opacity: 1; white-space: pre;">0.05</text></g><g class="ytick"><text text-anchor="end" x="59" y="4.199999999999999" transform="translate(0,372.46)" style="font-family: 'Open Sans', verdana, arial, sans-serif; font-size: 12px; fill: rgb(68, 68, 68); fill-opacity: 1; white-space: pre;">0.1</text></g><g class="ytick"><text text-anchor="end" x="59" y="4.199999999999999" transform="translate(0,212.26)" style="font-family: 'Open Sans', verdana, arial, sans-serif; font-size: 12px; fill: rgb(68, 68, 68); fill-opacity: 1; white-space: pre;">0.15</text></g><g class="ytick"><text text-anchor="end" x="59" y="4.199999999999999" transform="translate(0,52.06)" style="font-family: 'Open Sans', verdana, arial, sans-serif; font-size: 12px; fill: rgb(68, 68, 68); fill-opacity: 1; white-space: pre;">0.2</text></g></g><g class="overaxes-above"/></g></g><g class="polarlayer"/><g class="ternarylayer"/><g class="geolayer"/><g class="funnelarealayer"/><g class="pielayer"/><g class="treemaplayer"/><g class="sunburstlayer"/><g class="glimages"/><defs id="topdefs-3277e1"><g class="clips"/></defs><g class="layer-above"><g class="imagelayer"/><g class="shapelayer"/></g><g class="infolayer"><g class="g-gtitle"><text class="gtitle" x="513.5" y="12.5" text-anchor="middle" dy="0em" style="font-family: 'Open Sans', verdana, arial, sans-serif; font-size: 17px; fill: rgb(68, 68, 68); opacity: 1; font-weight: normal; white-space: pre;">Positive cases as proportion of tested per day as of Mar 19, 2021</text></g><g class="g-xtitle" transform="translate(0,-15)"><text class="xtitle" x="538.5" y="780" text-anchor="middle" style="font-family: 'Open Sans', verdana, arial, sans-serif; font-size: 14px; fill: rgb(68, 68, 68); opacity: 1; font-weight: normal; white-space: pre;">Date</text></g><g class="g-ytitle"><text class="ytitle" transform="rotate(-90,22,376.5)" x="22" y="376.5" text-anchor="middle" style="font-family: 'Open Sans', verdana, arial, sans-serif; font-size: 14px; fill: rgb(68, 68, 68); opacity: 1; font-weight: normal; white-space: pre;">ratio of positive to tested</text></g></g></svg>