<svg class="main-svg" xmlns="http://www.w3.org/2000/svg" xmlns:xlink="http://www.w3.org/1999/xlink" width="1027" height="768" style="" viewBox="0 0 1027 768"><rect x="0" y="0" width="1027" height="768" style="fill: rgb(255, 255, 255); fill-opacity: 1;"/><defs id="defs-8f9b44"><g class="clips"><clipPath id="clip8f9b44xyplot" class="plotclip"><rect width="957" height="703"/></clipPath><clipPath class="axesclip" id="clip8f9b44x"><rect x="60" y="0" width="957" height="768"/></clipPath><clipPath class="axesclip" id="clip8f9b44y"><rect x="0" y="25" width="1027" height="703"/></clipPath><clipPath class="axesclip" id="clip8f9b44xy"><rect x="60" y="25" width="957" height="703"/></clipPath></g><g class="gradients"/></defs><g class="bglayer"/><g class="layer-below"><g class="imagelayer"/><g class="shapelayer"/></g><g class="cartesianlayer"><g class="subplot xy"><g class="layer-subplot"><g class="shapelayer"/><g class="imagelayer"/></g><g class="gridlayer"><g class="x"><path class="xgrid crisp" transform="translate(68.75,0)" d="M0,25v703" style="stroke: rgb(238, 238, 238); stroke-opacity: 1; stroke-width: 1px;"/><path class="xgrid crisp" transform="translate(246.73,0)" d="M0,25v703" style="stroke: rgb(238, 238, 238); stroke-opacity: 1; stroke-width: 1px;"/><path class="xgrid crisp" transform="translate(424.71,0)" d="M0,25v703" style="stroke: rgb(238, 238, 238); stroke-opacity: 1; stroke-width: 1px;"/><path class="xgrid crisp" transform="translate(605.61,0)" d="M0,25v703" style="stroke: rgb(238, 238, 238); stroke-opacity: 1; stroke-width: 1px;"/><path class="xgrid crisp" transform="translate(783.59,0)" d="M0,25v703" style="stroke: rgb(238, 238, 238); stroke-opacity: 1; stroke-width: 1px;"/><path class="xgrid crisp" transform="translate(961.56,0)" d="M0,25v703" style="stroke: rgb(238, 238, 238); stroke-opacity: 1; stroke-width: 1px;"/></g><g class="y"><path class="ygrid crisp" transform="translate(0,532.65)" d="M60,0h957" style="stroke: rgb(238, 238, 238); stroke-opacity: 1; stroke-width: 1px;"/><path class="ygrid crisp" transform="translate(0,372.46)" d="M60,0h957" style="stroke: rgb(238, 238, 238); stroke-opacity: 1; stroke-width: 1px;"/><path class="ygrid crisp" transform="translate(0,212.26)" d="M60,0h957" style="stroke: rgb(238, 238, 238); stroke-opacity: 1; stroke-width: 1px;"/><path class="ygrid crisp" transform="translate(0,52.06)" d="M60,0h957" style="stroke: rgb(238, 238, 238); stroke-opacity: 1; stroke-width: 1px;"/></g></g><g class="zerolinelayer"><path class="yzl zl crisp" transform="translate(0,692.85)" d="M60,0h957" style="stroke: rgb(68, 68, 68); stroke-opacity: 1; stroke-width: 1px;"/></g><path class="xlines-below"/><path class="ylines-below"/><g class="overlines-below"/><g class="xaxislayer-below"/><g class="yaxislayer-below"/><g class="overaxes-below"/><g class="plot" transform="translate(60, 25)" clip-path="url('#clip8f9b44xyplot')"><g class="scatterlayer mlayer"><g class="trace scatter trace6b5094" style="stroke-miterlimit: 2; opacity: 1;"><g class="fills"/><g class="errorbars"/><g class="lines"><path class="js-line" d="M0,622.08L2.92,621.42L11.67,505.63L14.59,614.89L17.51,667.85L20.42,653.8L23.34,602.8L26.26,638.59L32.09,614.7L35.01,667.85L37.93,638.18L40.85,598.9L43.77,599.97L46.68,617.23L49.6,593.79L52.52,608L55.44,632.36L58.35,638.47L61.27,617.81L64.19,600.66L67.11,620.7L70.02,621.42L72.94,549.58L75.86,600.54L78.78,572.07L81.7,483.2L84.61,497.46L87.53,432.27L90.45,317.67L93.37,404.9L96.28,449.29L99.2,403.44L102.12,299.64L105.04,405.8L107.95,315.31L110.87,403.85L113.79,194.99L116.71,123.47L119.63,290.13L122.54,282.57L125.46,306.88L128.38,480.13L131.3,401.54L134.21,348.91L137.13,404.5L140.05,484.89L142.97,464.79L145.88,35.15L148.8,558.54L151.72,445.78L154.64,478.64L157.55,510.14L160.47,468.98L163.39,501.07L166.31,523.68L169.23,551.37L172.14,559.61L175.06,512.85L177.98,571.63L180.9,554.1L183.81,586.26L186.73,567.44L189.65,586.75L192.57,586.4L195.48,551.47L201.32,583.63L204.24,574.06L207.16,610.19L210.07,614.38L212.99,597.21L215.91,571.12L218.83,598.21L221.74,604.43L224.66,608.32L227.58,597.34L230.5,600.68L233.41,561.46L236.33,432.5L239.25,498.58L242.17,541.9L245.09,542.55L248,548.15L250.92,538.38L253.84,509.42L256.76,574.73L259.67,606.03L262.59,598.19L268.43,617.71L271.34,606.46L274.26,577.83L277.18,574.11L280.1,606.1L283.02,613.07L285.93,619.36L288.85,604.76L291.77,599.22L294.69,617.15L297.6,613.3L300.52,627.52L303.44,641.13L306.36,647.27L309.27,636.81L312.19,640.74L315.11,641.19L318.03,640.71L320.95,642.7L323.86,645.92L326.78,646.9L329.7,643.75L335.53,644.3L338.45,625.1L341.37,645.35L344.29,645.84L347.2,656.3L350.12,652.54L353.04,647.93L355.96,637.5L358.88,646.68L361.79,649.53L367.63,646L370.55,649.76L373.46,649.27L376.38,639.33L379.3,644.1L382.22,651.29L385.13,647.16L388.05,654.33L390.97,653.74L393.89,651.78L396.8,650.06L399.72,646.61L402.64,654.1L405.56,654.43L408.48,656.44L411.39,649.41L417.23,647.17L420.15,639.54L423.06,645.81L425.98,655.16L428.9,646.16L431.82,653.06L434.73,651.06L437.65,652.39L440.57,647.33L443.49,658.93L446.41,657.55L449.32,653.55L452.24,655.91L455.16,655.64L458.08,655.6L460.99,652.64L463.91,651.86L466.83,656.22L469.75,656.63L472.66,659.23L475.58,658.74L478.5,651.31L481.42,662.95L484.34,655.46L487.25,659.41L490.17,658.07L493.09,656.69L496.01,656.95L498.92,655.44L501.84,650.49L507.68,658.45L510.59,652.9L513.51,655.77L516.43,652.09L519.35,649.95L522.27,651.84L525.18,655.01L528.1,654.64L531.02,655.57L533.94,653.08L539.77,653.3L542.69,652.61L545.61,650.1L548.52,651.77L551.44,651.26L554.36,648.97L557.28,650.37L560.2,642.19L563.11,639.53L566.03,640.73L568.95,645.77L571.87,646.85L577.7,646.86L580.62,633.9L583.54,638.78L586.45,632.76L589.37,641.13L592.29,631.99L595.21,634.36L598.13,638.71L601.04,624.97L603.96,623.07L606.88,637.56L609.8,625.07L612.71,636.55L615.63,635.62L618.55,630.84L621.47,613.3L624.38,621.6L627.3,611.84L630.22,624.37L633.14,609.35L636.05,622.62L638.97,622.13L641.89,616.26L644.81,626.08L647.73,624.69L650.64,615.19L653.56,600.87L656.48,609.34L659.4,620.74L662.31,596.96L665.23,591.32L668.15,596.12L671.07,605.07L673.98,608.61L676.9,610.18L679.82,616.24L682.74,597.06L685.66,558.47L688.57,590.32L691.49,598.51L694.41,601.72L697.33,596.88L700.24,581.74L703.16,572.69L706.08,557.19L709,578.81L711.91,583.84L714.83,597.85L720.67,583.55L723.59,559.02L726.5,534.77L729.42,557.15L732.34,578.42L735.26,589.98L738.17,575.25L741.09,554.62L744.01,527.74L746.93,515.16L749.84,543.38L752.76,540.29L755.68,557.44L758.6,554.88L761.52,573.11L764.43,525L767.35,516.66L770.27,532.08L773.19,575.19L776.1,573.54L779.02,558.83L781.94,561.9L784.86,531.98L787.77,548.35L790.69,545.91L793.61,568.32L799.45,561.88L802.36,566.43L805.28,525.89L808.2,509.97L811.12,543.03L814.03,557.32L816.95,566.01L819.87,567.58L822.79,563.81L825.7,531.65L828.62,530.86L831.54,543.11L834.46,565.06L837.38,573.94L840.29,575.9L843.21,575.51L846.13,558.98L849.05,483.63L851.96,528.53L854.88,533.92L857.8,560.34L860.72,555.49L863.63,560.95L866.55,543.05L869.47,511.99L872.39,531.69L875.3,546.47L878.22,555.31L881.14,529.24L884.06,514.11L886.98,510.83L889.89,428.06L892.81,429L895.73,500.87L898.65,553.82L901.56,492.37L904.48,480.92L907.4,400.04L910.32,382.75L913.23,462.85L916.15,496.43L919.07,477.4L921.99,516.53L924.91,464.99L927.82,437.37L930.74,460.25L933.66,481.58L936.58,518.12L939.49,542.24L942.41,535.31L945.33,485.67L948.25,462.9L954.08,511.21L957,547.82" style="vector-effect: non-scaling-stroke; fill: none; stroke: rgb(31, 119, 180); stroke-opacity: 1; stroke-width: 2px; opacity: 1;"/></g><g class="points"/><g class="text"/></g></g></g><g class="overplot"/><path class="xlines-above crisp" d="M0,0" style="fill: none;"/><path class="ylines-above crisp" d="M0,0" style="fill: none;"/><g class="overlines-above"/><g class="xaxislayer-above"><g class="xtick"><text text-anchor="middle" x="0" y="741" transform="translate(68.75,0)" style="font-family: 'Open Sans', verdana, arial, sans-serif; font-size: 12px; fill: rgb(68, 68, 68); fill-opacity: 1; white-space: pre;">Mar 2020</text></g><g class="xtick"><text text-anchor="middle" x="0" y="741" transform="translate(246.73,0)" style="font-family: 'Open Sans', verdana, arial, sans-serif; font-size: 12px; fill: rgb(68, 68, 68); fill-opacity: 1; white-space: pre;">May 2020</text></g><g class="xtick"><text text-anchor="middle" x="0" y="741" transform="translate(424.71,0)" style="font-family: 'Open Sans', verdana, arial, sans-serif; font-size: 12px; fill: rgb(68, 68, 68); fill-opacity: 1; white-space: pre;">Jul 2020</text></g><g class="xtick"><text text-anchor="middle" x="0" y="741" transform="translate(605.61,0)" style="font-family: 'Open Sans', verdana, arial, sans-serif; font-size: 12px; fill: rgb(68, 68, 68); fill-opacity: 1; white-space: pre;">Sep 2020</text></g><g class="xtick"><text text-anchor="middle" x="0" y="741" transform="translate(783.59,0)" style="font-family: 'Open Sans', verdana, arial, sans-serif; font-size: 12px; fill: rgb(68, 68, 68); fill-opacity: 1; white-space: pre;">Nov 2020</text></g><g class="xtick"><text text-anchor="middle" x="0" y="741" transform="translate(961.56,0)" style="font-family: 'Open Sans', verdana, arial, sans-serif; font-size: 12px; fill: rgb(68, 68, 68); fill-opacity: 1; white-space: pre;">Jan 2021</text></g></g><g class="yaxislayer-above"><g class="ytick"><text text-anchor="end" x="59" y="4.199999999999999" transform="translate(0,692.85)" style="font-family: 'Open Sans', verdana, arial, sans-serif; font-size: 12px; fill: rgb(68, 68, 68); fill-opacity: 1; white-space: pre;">0</text></g><g class="ytick"><text text-anchor="end" x="59" y="4.199999999999999" transform="translate(0,532.65)" style="font-family: 'Open Sans', verdana, arial, sans-serif; font-size: 12px; fill: rgb(68, 68, 68); fill-opacity: 1; white-space: pre;">0.05</text></g><g class="ytick"><text text-anchor="end" x="59" y="4.199999999999999" transform="translate(0,372.46)" style="font-family: 'Open Sans', verdana, arial, sans-serif; font-size: 12px; fill: rgb(68, 68, 68); fill-opacity: 1; white-space: pre;">0.1</text></g><g class="ytick"><text text-anchor="end" x="59" y="4.199999999999999" transform="translate(0,212.26)" style="font-family: 'Open Sans', verdana, arial, sans-serif; font-size: 12px; fill: rgb(68, 68, 68); fill-opacity: 1; white-space: pre;">0.15</text></g><g class="ytick"><text text-anchor="end" x="59" y="4.199999999999999" transform="translate(0,52.06)" style="font-family: 'Open Sans', verdana, arial, sans-serif; font-size: 12px; fill: rgb(68, 68, 68); fill-opacity: 1; white-space: pre;">0.2</text></g></g><g class="overaxes-above"/></g></g><g class="polarlayer"/><g class="ternarylayer"/><g class="geolayer"/><g class="funnelarealayer"/><g class="pielayer"/><g class="treemaplayer"/><g class="sunburstlayer"/><g class="glimages"/><defs id="topdefs-8f9b44"><g class="clips"/></defs><g class="layer-above"><g class="imagelayer"/><g class="shapelayer"/></g><g class="infolayer"><g class="g-gtitle"><text class="gtitle" x="513.5" y="12.5" text-anchor="middle" dy="0em" style="font-family: 'Open Sans', verdana, arial, sans-serif; font-size: 17px; fill: rgb(68, 68, 68); opacity: 1; font-weight: normal; white-space: pre;">Positive cases as proportion of tested per day as of Jan 21, 2021</text></g><g class="g-xtitle" transform="translate(0,-15)"><text class="xtitle" x="538.5" y="780" text-anchor="middle" style="font-family: 'Open Sans', verdana, arial, sans-serif; font-size: 14px; fill: rgb(68, 68, 68); opacity: 1; font-weight: normal; white-space: pre;">Date</text></g><g class="g-ytitle"><text class="ytitle" transform="rotate(-90,22,376.5)" x="22" y="376.5" text-anchor="middle" style="font-family: 'Open Sans', verdana, arial, sans-serif; font-size: 14px; fill: rgb(68, 68, 68); opacity: 1; font-weight: normal; white-space: pre;">ratio of positive to tested</text></g></g></svg>