<svg class="main-svg" xmlns="http://www.w3.org/2000/svg" xmlns:xlink="http://www.w3.org/1999/xlink" width="1027" height="768" style="" viewBox="0 0 1027 768"><rect x="0" y="0" width="1027" height="768" style="fill: rgb(255, 255, 255); fill-opacity: 1;"/><defs id="defs-d5b8bf"><g class="clips"><clipPath id="clipd5b8bfxyplot" class="plotclip"><rect width="957" height="703"/></clipPath><clipPath class="axesclip" id="clipd5b8bfx"><rect x="60" y="0" width="957" height="768"/></clipPath><clipPath class="axesclip" id="clipd5b8bfy"><rect x="0" y="25" width="1027" height="703"/></clipPath><clipPath class="axesclip" id="clipd5b8bfxy"><rect x="60" y="25" width="957" height="703"/></clipPath></g><g class="gradients"/></defs><g class="bglayer"/><g class="layer-below"><g class="imagelayer"/><g class="shapelayer"/></g><g class="cartesianlayer"><g class="subplot xy"><g class="layer-subplot"><g class="shapelayer"/><g class="imagelayer"/></g><g class="gridlayer"><g class="x"><path class="xgrid crisp" transform="translate(68.78,0)" d="M0,25v703" style="stroke: rgb(238, 238, 238); stroke-opacity: 1; stroke-width: 1px;"/><path class="xgrid crisp" transform="translate(247.3,0)" d="M0,25v703" style="stroke: rgb(238, 238, 238); stroke-opacity: 1; stroke-width: 1px;"/><path class="xgrid crisp" transform="translate(425.83,0)" d="M0,25v703" style="stroke: rgb(238, 238, 238); stroke-opacity: 1; stroke-width: 1px;"/><path class="xgrid crisp" transform="translate(607.28,0)" d="M0,25v703" style="stroke: rgb(238, 238, 238); stroke-opacity: 1; stroke-width: 1px;"/><path class="xgrid crisp" transform="translate(785.8,0)" d="M0,25v703" style="stroke: rgb(238, 238, 238); stroke-opacity: 1; stroke-width: 1px;"/><path class="xgrid crisp" transform="translate(964.32,0)" d="M0,25v703" style="stroke: rgb(238, 238, 238); stroke-opacity: 1; stroke-width: 1px;"/></g><g class="y"><path class="ygrid crisp" transform="translate(0,532.65)" d="M60,0h957" style="stroke: rgb(238, 238, 238); stroke-opacity: 1; stroke-width: 1px;"/><path class="ygrid crisp" transform="translate(0,372.46)" d="M60,0h957" style="stroke: rgb(238, 238, 238); stroke-opacity: 1; stroke-width: 1px;"/><path class="ygrid crisp" transform="translate(0,212.26)" d="M60,0h957" style="stroke: rgb(238, 238, 238); stroke-opacity: 1; stroke-width: 1px;"/><path class="ygrid crisp" transform="translate(0,52.06)" d="M60,0h957" style="stroke: rgb(238, 238, 238); stroke-opacity: 1; stroke-width: 1px;"/></g></g><g class="zerolinelayer"><path class="yzl zl crisp" transform="translate(0,692.85)" d="M60,0h957" style="stroke: rgb(68, 68, 68); stroke-opacity: 1; stroke-width: 1px;"/></g><path class="xlines-below"/><path class="ylines-below"/><g class="overlines-below"/><g class="xaxislayer-below"/><g class="yaxislayer-below"/><g class="overaxes-below"/><g class="plot" transform="translate(60, 25)" clip-path="url('#clipd5b8bfxyplot')"><g class="scatterlayer mlayer"><g class="trace scatter tracea3b644" style="stroke-miterlimit: 2; opacity: 1;"><g class="fills"/><g class="errorbars"/><g class="lines"><path class="js-line" d="M0,622.08L2.93,621.42L11.71,505.63L14.63,614.89L17.56,667.85L20.49,653.8L23.41,602.8L26.34,638.59L32.19,614.7L35.12,667.85L38.05,638.18L40.97,598.9L43.9,599.97L46.83,617.23L49.75,593.79L52.68,608L55.61,632.36L58.53,638.47L61.46,617.81L64.39,600.66L67.31,620.7L70.24,621.42L73.17,549.58L76.09,600.54L79.02,572.07L81.94,483.2L84.87,497.46L87.8,432.27L90.72,317.67L93.65,404.9L96.58,449.29L99.5,403.44L102.43,299.64L105.36,405.8L108.28,315.31L111.21,403.85L114.14,194.99L117.06,123.47L119.99,290.13L122.92,282.57L125.84,306.88L128.77,480.13L131.7,401.54L134.62,348.91L137.55,404.5L140.48,484.89L143.4,464.79L146.33,35.15L149.26,558.54L152.18,445.78L155.11,478.64L158.04,510.14L160.96,468.98L163.89,501.07L166.82,523.68L169.74,551.37L172.67,559.61L175.6,512.85L178.52,571.63L181.45,554.1L184.38,586.26L187.3,567.44L190.23,586.75L193.16,586.4L196.08,551.47L201.94,583.63L204.86,574.06L207.79,610.19L210.72,614.38L213.64,597.21L216.57,571.12L219.5,598.21L222.42,604.43L225.35,608.32L228.28,597.34L231.2,600.68L234.13,561.46L237.06,432.5L239.98,498.58L242.91,541.9L245.83,542.55L248.76,548.15L251.69,538.38L254.61,509.42L257.54,574.73L260.47,606.03L263.39,598.19L269.25,617.71L272.17,606.46L275.1,577.83L278.03,574.11L280.95,606.1L283.88,613.07L286.81,619.36L289.73,604.76L292.66,599.22L295.59,617.15L298.51,613.3L301.44,627.52L304.37,641.13L307.29,647.27L310.22,636.81L313.15,640.74L316.07,641.19L319,640.71L321.93,642.7L324.85,645.92L327.78,646.9L330.71,643.75L336.56,644.3L339.49,625.1L342.41,645.35L345.34,645.84L348.27,656.3L351.19,652.54L354.12,647.93L357.05,637.5L359.97,646.68L362.9,649.53L368.75,646L371.68,649.76L374.61,649.27L377.53,639.33L380.46,644.1L383.39,651.29L386.31,647.16L389.24,654.33L392.17,653.74L395.09,651.78L398.02,650.06L400.94,646.61L403.87,654.1L406.8,654.43L409.72,656.44L412.65,649.41L418.5,647.17L421.43,639.54L424.36,645.81L427.28,655.16L430.21,646.16L433.14,653.06L436.06,651.06L438.99,652.39L441.92,647.33L444.84,658.93L447.77,657.55L450.7,653.55L453.62,655.91L456.55,655.64L459.48,655.6L462.4,652.64L465.33,651.86L468.26,656.22L471.18,656.63L474.11,659.23L477.04,658.74L479.96,651.31L482.89,662.95L485.82,655.46L488.74,659.41L491.67,658.07L494.6,656.69L497.52,656.95L500.45,655.44L503.38,650.49L509.23,658.45L512.16,652.9L515.08,655.77L518.01,652.09L520.94,649.95L523.86,651.84L526.79,655.01L529.72,654.64L532.64,655.57L535.57,653.08L541.42,653.3L544.35,652.61L547.28,650.1L550.2,651.77L553.13,651.26L556.06,648.97L558.98,650.37L561.91,642.19L564.83,639.53L567.76,640.73L570.69,645.77L573.61,646.85L579.47,646.86L582.39,633.9L585.32,638.78L588.25,632.76L591.17,641.13L594.1,631.99L597.03,634.36L599.95,638.71L602.88,624.97L605.81,623.07L608.73,637.56L611.66,625.07L614.59,636.55L617.51,635.62L620.44,630.84L623.37,613.3L626.29,621.6L629.22,611.84L632.15,624.37L635.07,609.35L638,622.62L640.93,622.13L643.85,616.26L646.78,626.08L649.71,624.69L652.63,615.19L655.56,600.87L658.49,609.34L661.41,620.74L664.34,596.96L667.27,591.32L670.19,596.12L673.12,605.07L676.05,608.61L678.97,610.18L681.9,616.24L684.83,597.06L687.75,558.47L690.68,590.32L693.61,598.51L696.53,601.72L699.46,596.88L702.39,581.74L705.31,572.69L708.24,557.19L711.17,578.81L714.09,583.84L717.02,597.85L722.87,583.55L725.8,559.02L728.72,534.77L731.65,557.15L734.58,578.42L737.5,589.98L740.43,575.25L743.36,554.62L746.28,527.74L749.21,515.16L752.14,543.38L755.06,540.29L757.99,557.44L760.92,554.88L763.84,573.11L766.77,525L769.7,516.66L772.62,532.08L775.55,575.19L778.48,573.54L781.4,558.83L784.33,561.9L787.26,531.98L790.18,548.35L793.11,545.91L796.04,568.32L801.89,561.88L804.82,566.43L807.74,525.89L810.67,509.97L813.6,543.03L816.52,557.32L819.45,566.01L822.38,567.58L825.3,563.81L828.23,531.65L831.16,530.86L834.08,543.11L837.01,565.06L839.94,573.94L842.86,575.9L845.79,575.51L848.72,558.98L851.64,483.63L854.57,528.53L857.5,533.92L860.42,560.34L863.35,555.49L866.28,560.95L869.2,543.05L872.13,511.99L875.06,531.69L877.98,546.47L880.91,555.31L883.83,529.24L886.76,514.11L889.69,510.83L892.61,428.06L895.54,429L898.47,500.87L901.39,553.82L904.32,492.37L907.25,480.92L910.17,400.04L913.1,382.75L916.03,462.85L918.95,496.43L921.88,477.4L924.81,516.53L927.73,464.99L930.66,437.37L933.59,460.25L936.51,481.58L939.44,518.12L942.37,542.24L945.29,535.31L948.22,485.67L951.15,462.9L957,511.21" style="vector-effect: non-scaling-stroke; fill: none; stroke: rgb(31, 119, 180); stroke-opacity: 1; stroke-width: 2px; opacity: 1;"/></g><g class="points"/><g class="text"/></g></g></g><g class="overplot"/><path class="xlines-above crisp" d="M0,0" style="fill: none;"/><path class="ylines-above crisp" d="M0,0" style="fill: none;"/><g class="overlines-above"/><g class="xaxislayer-above"><g class="xtick"><text text-anchor="middle" x="0" y="741" transform="translate(68.78,0)" style="font-family: 'Open Sans', verdana, arial, sans-serif; font-size: 12px; fill: rgb(68, 68, 68); fill-opacity: 1; white-space: pre;">Mar 2020</text></g><g class="xtick"><text text-anchor="middle" x="0" y="741" transform="translate(247.3,0)" style="font-family: 'Open Sans', verdana, arial, sans-serif; font-size: 12px; fill: rgb(68, 68, 68); fill-opacity: 1; white-space: pre;">May 2020</text></g><g class="xtick"><text text-anchor="middle" x="0" y="741" transform="translate(425.83,0)" style="font-family: 'Open Sans', verdana, arial, sans-serif; font-size: 12px; fill: rgb(68, 68, 68); fill-opacity: 1; white-space: pre;">Jul 2020</text></g><g class="xtick"><text text-anchor="middle" x="0" y="741" transform="translate(607.28,0)" style="font-family: 'Open Sans', verdana, arial, sans-serif; font-size: 12px; fill: rgb(68, 68, 68); fill-opacity: 1; white-space: pre;">Sep 2020</text></g><g class="xtick"><text text-anchor="middle" x="0" y="741" transform="translate(785.8,0)" style="font-family: 'Open Sans', verdana, arial, sans-serif; font-size: 12px; fill: rgb(68, 68, 68); fill-opacity: 1; white-space: pre;">Nov 2020</text></g><g class="xtick"><text text-anchor="middle" x="0" y="741" transform="translate(964.32,0)" style="font-family: 'Open Sans', verdana, arial, sans-serif; font-size: 12px; fill: rgb(68, 68, 68); fill-opacity: 1; white-space: pre;">Jan 2021</text></g></g><g class="yaxislayer-above"><g class="ytick"><text text-anchor="end" x="59" y="4.199999999999999" transform="translate(0,692.85)" style="font-family: 'Open Sans', verdana, arial, sans-serif; font-size: 12px; fill: rgb(68, 68, 68); fill-opacity: 1; white-space: pre;">0</text></g><g class="ytick"><text text-anchor="end" x="59" y="4.199999999999999" transform="translate(0,532.65)" style="font-family: 'Open Sans', verdana, arial, sans-serif; font-size: 12px; fill: rgb(68, 68, 68); fill-opacity: 1; white-space: pre;">0.05</text></g><g class="ytick"><text text-anchor="end" x="59" y="4.199999999999999" transform="translate(0,372.46)" style="font-family: 'Open Sans', verdana, arial, sans-serif; font-size: 12px; fill: rgb(68, 68, 68); fill-opacity: 1; white-space: pre;">0.1</text></g><g class="ytick"><text text-anchor="end" x="59" y="4.199999999999999" transform="translate(0,212.26)" style="font-family: 'Open Sans', verdana, arial, sans-serif; font-size: 12px; fill: rgb(68, 68, 68); fill-opacity: 1; white-space: pre;">0.15</text></g><g class="ytick"><text text-anchor="end" x="59" y="4.199999999999999" transform="translate(0,52.06)" style="font-family: 'Open Sans', verdana, arial, sans-serif; font-size: 12px; fill: rgb(68, 68, 68); fill-opacity: 1; white-space: pre;">0.2</text></g></g><g class="overaxes-above"/></g></g><g class="polarlayer"/><g class="ternarylayer"/><g class="geolayer"/><g class="funnelarealayer"/><g class="pielayer"/><g class="treemaplayer"/><g class="sunburstlayer"/><g class="glimages"/><defs id="topdefs-d5b8bf"><g class="clips"/></defs><g class="layer-above"><g class="imagelayer"/><g class="shapelayer"/></g><g class="infolayer"><g class="g-gtitle"><text class="gtitle" x="513.5" y="12.5" text-anchor="middle" dy="0em" style="font-family: 'Open Sans', verdana, arial, sans-serif; font-size: 17px; fill: rgb(68, 68, 68); opacity: 1; font-weight: normal; white-space: pre;">Positive cases as proportion of tested per day as of Jan 20, 2021</text></g><g class="g-xtitle" transform="translate(0,-15)"><text class="xtitle" x="538.5" y="780" text-anchor="middle" style="font-family: 'Open Sans', verdana, arial, sans-serif; font-size: 14px; fill: rgb(68, 68, 68); opacity: 1; font-weight: normal; white-space: pre;">Date</text></g><g class="g-ytitle"><text class="ytitle" transform="rotate(-90,22,376.5)" x="22" y="376.5" text-anchor="middle" style="font-family: 'Open Sans', verdana, arial, sans-serif; font-size: 14px; fill: rgb(68, 68, 68); opacity: 1; font-weight: normal; white-space: pre;">ratio of positive to tested</text></g></g></svg>