<svg class="main-svg" xmlns="http://www.w3.org/2000/svg" xmlns:xlink="http://www.w3.org/1999/xlink" width="1027" height="768" style="" viewBox="0 0 1027 768"><rect x="0" y="0" width="1027" height="768" style="fill: rgb(255, 255, 255); fill-opacity: 1;"/><defs id="defs-b410a6"><g class="clips"><clipPath id="clipb410a6xyplot" class="plotclip"><rect width="838" height="703"/></clipPath><clipPath class="axesclip" id="clipb410a6x"><rect x="60" y="0" width="838" height="768"/></clipPath><clipPath class="axesclip" id="clipb410a6y"><rect x="0" y="25" width="1027" height="703"/></clipPath><clipPath class="axesclip" id="clipb410a6xy"><rect x="60" y="25" width="838" height="703"/></clipPath></g><g class="gradients"/></defs><g class="bglayer"/><g class="layer-below"><g class="imagelayer"/><g class="shapelayer"/></g><g class="cartesianlayer"><g class="subplot xy"><g class="layer-subplot"><g class="shapelayer"/><g class="imagelayer"/></g><g class="gridlayer"><g class="x"><path class="xgrid crisp" transform="translate(106.47999999999999,0)" d="M0,25v703" style="stroke: rgb(238, 238, 238); stroke-opacity: 1; stroke-width: 1px;"/><path class="xgrid crisp" transform="translate(230.88,0)" d="M0,25v703" style="stroke: rgb(238, 238, 238); stroke-opacity: 1; stroke-width: 1px;"/><path class="xgrid crisp" transform="translate(356.65,0)" d="M0,25v703" style="stroke: rgb(238, 238, 238); stroke-opacity: 1; stroke-width: 1px;"/><path class="xgrid crisp" transform="translate(482.42,0)" d="M0,25v703" style="stroke: rgb(238, 238, 238); stroke-opacity: 1; stroke-width: 1px;"/><path class="xgrid crisp" transform="translate(605.45,0)" d="M0,25v703" style="stroke: rgb(238, 238, 238); stroke-opacity: 1; stroke-width: 1px;"/><path class="xgrid crisp" transform="translate(729.85,0)" d="M0,25v703" style="stroke: rgb(238, 238, 238); stroke-opacity: 1; stroke-width: 1px;"/><path class="xgrid crisp" transform="translate(855.62,0)" d="M0,25v703" style="stroke: rgb(238, 238, 238); stroke-opacity: 1; stroke-width: 1px;"/></g><g class="y"><path class="ygrid crisp" transform="translate(0,618.38)" d="M60,0h838" style="stroke: rgb(238, 238, 238); stroke-opacity: 1; stroke-width: 1px;"/><path class="ygrid crisp" transform="translate(0,543.9)" d="M60,0h838" style="stroke: rgb(238, 238, 238); stroke-opacity: 1; stroke-width: 1px;"/><path class="ygrid crisp" transform="translate(0,469.43)" d="M60,0h838" style="stroke: rgb(238, 238, 238); stroke-opacity: 1; stroke-width: 1px;"/><path class="ygrid crisp" transform="translate(0,394.95)" d="M60,0h838" style="stroke: rgb(238, 238, 238); stroke-opacity: 1; stroke-width: 1px;"/><path class="ygrid crisp" transform="translate(0,320.48)" d="M60,0h838" style="stroke: rgb(238, 238, 238); stroke-opacity: 1; stroke-width: 1px;"/><path class="ygrid crisp" transform="translate(0,246)" d="M60,0h838" style="stroke: rgb(238, 238, 238); stroke-opacity: 1; stroke-width: 1px;"/><path class="ygrid crisp" transform="translate(0,171.53)" d="M60,0h838" style="stroke: rgb(238, 238, 238); stroke-opacity: 1; stroke-width: 1px;"/><path class="ygrid crisp" transform="translate(0,97.05)" d="M60,0h838" style="stroke: rgb(238, 238, 238); stroke-opacity: 1; stroke-width: 1px;"/></g></g><g class="zerolinelayer"><path class="yzl zl crisp" transform="translate(0,692.85)" d="M60,0h838" style="stroke: rgb(68, 68, 68); stroke-opacity: 1; stroke-width: 1px;"/></g><path class="xlines-below"/><path class="ylines-below"/><g class="overlines-below"/><g class="xaxislayer-below"/><g class="yaxislayer-below"/><g class="overaxes-below"/><g class="plot" transform="translate(60, 25)" clip-path="url('#clipb410a6xyplot')"><g class="scatterlayer mlayer"><g class="trace scatter tracea56b77" style="stroke-miterlimit: 2; opacity: 1;"><g class="fills"/><g class="errorbars"/><g class="lines"><path class="js-line" d="M0,614.65L1.37,613.88L5.47,479.31L8.2,667.85L2.73,633.21L4.1,479.31L9.57,628.55L10.94,633.84L12.3,648.85L13.67,568.99L15.04,656.99L16.4,633.37L17.77,587.72L19.14,588.96L20.51,609.02L21.87,581.78L23.24,598.29L24.61,622.85L25.97,633.7L28.71,589.76L30.08,611.12L31.44,608.98L32.81,528.61L34.18,587.74L35.54,550.68L36.91,450.69L38.28,465.31L39.64,392.22L41.01,376.2L42.38,182.87L43.75,362.24L45.11,413.84L46.48,360.54L47.85,239.9L49.21,363.29L50.58,258.12L51.95,361.01L53.31,118.28L54.68,35.15L56.05,228.86L57.42,220.07L58.78,248.32L60.15,449.67L62.88,297.17L64.25,361.77L65.62,455.21L66.99,431.85L68.35,476.98L69.72,448.51L71.09,409.75L72.45,447.94L73.82,484.56L75.19,436.71L79.29,532.47L80.66,542.04L82.02,487.7L83.39,556.02L84.76,535.64L86.12,573.02L87.49,551.15L88.86,573.59L90.23,573.19L91.59,532.59L94.33,569.97L95.69,558.85L97.06,600.84L98.43,605.71L101.16,555.43L102.53,586.92L105.26,598.67L106.63,585.91L108,589.78L109.36,544.2L110.73,394.32L112.1,471.12L113.46,521.47L114.83,522.22L116.2,528.73L117.57,517.37L118.93,483.71L120.3,559.63L121.67,596L123.03,586.89L125.77,609.58L127.14,596.5L128.5,563.23L129.87,558.9L131.24,596.08L132.6,604.18L133.97,611.49L135.34,594.52L136.7,588.09L138.07,608.93L139.44,604.45L140.81,620.98L142.17,636.79L143.54,643.93L144.91,631.77L146.27,636.34L147.64,636.86L149.01,636.31L153.11,643.5L154.48,639.84L157.21,640.47L158.58,618.17L159.94,641.7L161.31,642.27L162.68,654.42L164.05,650.06L165.41,644.7L166.78,632.57L168.15,643.24L169.51,646.56L172.25,642.45L173.62,646.82L174.98,646.25L176.35,634.71L179.08,648.61L180.45,643.8L181.82,652.13L183.18,651.45L185.92,647.18L187.29,643.16L188.65,651.87L190.02,652.25L191.39,654.59L192.75,646.42L195.49,643.81L196.85,634.95L199.59,653.1L200.96,642.65L202.32,650.67L203.69,648.34L205.06,649.88L206.42,644L207.79,657.49L209.16,655.88L210.53,651.24L211.89,653.98L214.63,653.62L215.99,650.17L217.36,649.26L218.73,654.34L220.09,654.81L221.46,657.83L222.83,657.26L224.2,648.63L225.56,662.16L226.93,653.45L228.3,658.05L229.66,656.48L231.03,654.88L232.4,655.18L233.77,653.43L235.13,647.67L237.87,656.93L239.23,650.47L240.6,653.82L241.97,649.54L243.33,647.04L244.7,649.24L246.07,652.93L247.44,652.5L248.8,653.57L250.17,650.68L252.9,650.94L254.27,650.14L255.64,647.22L257,649.16L258.37,648.57L259.74,645.9L261.11,647.53L262.47,638.03L263.84,634.93L265.21,636.33L266.57,642.19L267.94,643.45L270.68,643.46L272.04,628.39L273.41,634.06L274.78,627.07L276.14,636.8L277.51,626.17L278.88,628.93L280.24,633.98L281.61,618.01L282.98,615.81L284.35,632.65L285.71,618.13L287.08,631.47L288.45,630.39L289.81,624.84L291.18,604.45L292.55,614.09L293.92,602.76L295.28,617.32L296.65,599.86L298.02,615.28L299.38,614.71L300.75,607.89L302.12,619.3L303.48,617.69L304.85,606.64L306.22,590L307.59,599.84L308.95,613.1L310.32,585.46L311.69,578.91L313.05,584.49L314.42,594.89L315.79,599L317.15,600.82L318.52,607.87L319.89,585.58L321.26,540.73L322.62,577.74L323.99,587.26L325.36,590.99L326.72,585.36L330.83,539.24L332.19,564.36L333.56,570.21L334.93,586.49L337.66,569.88L339.03,541.36L340.39,513.18L341.76,539.19L344.5,577.35L345.86,560.22L349.96,490.39L351.33,523.19L352.7,519.59L354.07,539.52L355.43,536.55L356.8,557.74L358.17,501.82L359.53,492.13L360.9,510.06L362.27,560.16L363.63,558.24L365,541.15L366.37,544.71L367.74,509.94L369.1,528.97L370.47,526.13L371.84,552.17L373.2,548.83L374.57,544.69L375.94,549.98L377.31,502.86L378.67,484.35L380.04,522.78L381.41,539.39L382.77,549.49L384.14,551.31L385.51,546.93L386.87,509.55L388.24,508.63L389.61,522.88L390.98,548.38L392.34,558.71L393.71,560.98L395.08,560.53L396.44,541.31L397.81,453.74L399.18,505.92L400.54,512.19L401.91,542.9L403.28,537.26L404.65,543.6L406.01,522.81L407.38,486.7L408.75,509.59L411.48,537.05L412.85,506.75L414.22,489.16L415.58,485.36L416.95,389.16L418.32,390.26L421.05,535.32L422.42,463.9L423.78,450.6L425.15,356.6L426.52,336.49L427.89,429.6L429.25,468.62L430.62,446.5L431.99,491.98L433.35,432.08L434.72,399.98L436.09,426.57L437.46,451.36L438.82,493.83L440.19,521.87L441.56,513.81L444.29,429.65L445.66,461.56L447.02,485.8L448.39,528.35L449.76,529.7L451.13,529.41L452.49,483.97L453.86,465.14L455.23,456.92L456.59,555.18L457.96,547.32L459.33,568.77L460.69,538.94L462.06,528.41L463.43,426.34L464.8,570.69L466.16,584.59L467.53,577.57L468.9,568.69L470.26,584.94L471.63,560.52L473,501.42L477.1,616.71L478.47,603.24L479.83,585.47L481.2,592.84L482.57,549.59L483.93,543.2L486.67,599.03L488.04,602.34L489.4,587.9L490.77,583.83L492.14,541.43L493.5,528.1L494.87,596.3L496.24,603.98L497.61,594.71L498.97,593.58L500.34,587.45L501.71,559.06L503.07,550.94L504.44,600.05L505.81,611.46L507.17,595.96L508.54,604.1L509.91,564.02L511.28,508.29L512.64,535.2L515.38,600.77L516.74,588.84L518.11,574.3L519.48,531.23L522.21,527.65L523.58,553.55L524.95,569.1L526.31,552.09L527.68,537.08L529.05,532.39L530.41,464.35L531.78,491.02L533.15,555.27L534.52,520.33L535.88,516.7L537.25,518.12L541.35,426.7L542.72,502.48L544.08,514.99L545.45,483.32L546.82,478.32L548.19,423.7L549.55,368.63L550.92,363.83L553.65,475.67L555.02,411.54L556.39,436.75L557.76,373.53L559.12,325.93L560.49,343.76L561.86,382.38L563.22,398.85L567.32,373.56L568.69,281.61L570.06,349.65L571.43,365.51L572.79,415.1L574.16,369.39L575.53,375.58L576.89,353.09L578.26,281.41L579.63,310.26L581,409.68L582.36,414.69L583.73,395.13L585.1,399.81L586.46,361.08L587.83,282.22L590.56,428.56L591.93,432.25L594.67,444.82L596.03,357.12L597.4,295.68L598.77,393.23L600.13,478.73L601.5,452.19L602.87,468.14L604.23,440.48L605.6,420.78L606.97,338.01L608.34,405.25L609.7,513.95L611.07,471.03L612.44,478.28L613.8,474.64L615.17,466.2L616.54,400.64L617.91,438.33L620.64,555.76L622.01,551.85L623.37,550.56L624.74,523.05L626.11,480.7L627.47,539.39L628.84,581.93L630.21,573.34L631.58,562.34L632.94,568.26L634.31,558.78L635.68,539.04L637.04,568.5L638.41,617.6L639.78,597.95L641.15,594.02L642.51,590.28L643.88,572.65L645.25,545.35L646.61,603.63L647.98,616.92L649.35,622.61L652.08,615.74L653.45,611.63L654.82,595.14L656.18,602.18L657.55,633.15L658.92,630.5L660.28,631.96L661.65,617.57L663.02,610.16L664.38,608.02L667.12,642.71L668.49,628.58L669.85,638.25L671.22,622.28L672.59,626.08L673.95,618.96L675.32,610.37L676.69,641.07L678.06,637.61L679.42,641.74L682.16,636.39L683.52,641.21L684.89,636.76L686.26,648.26L687.62,650.85L688.99,646.8L691.73,623.33L693.09,626L695.83,643.62L697.19,632.7L698.56,631.66L699.93,634.76L701.3,621.78L702.66,630.71L704.03,632.64L705.4,639.19L706.76,626.06L708.13,627.76L710.86,610.37L712.23,614.19L713.6,614.82L714.97,637.61L716.33,634.09L717.7,613.86L719.07,600.37L720.43,562.58L721.8,591.28L723.17,595.31L724.54,619.15L725.9,584.42L727.27,587.33L728.64,576.14L730,568.7L731.37,543.76L732.74,593.41L734.1,599.2L736.84,583.32L738.21,569.53L739.57,551.34L740.94,548.07L743.67,574.78L745.04,577.08L746.41,571.11L747.77,558.86L749.14,547.47L750.51,528.62L751.88,568.33L753.24,579.25L754.61,549.83L755.98,563.46L757.34,533.98L758.71,533.09L760.08,555.17L761.45,545.16L762.81,573.39L764.18,567.74L766.91,546.36L768.28,544.28L769.65,551.03L771.01,566.18L772.38,601.38L773.75,574.23L775.12,580.17L776.48,568.32L777.85,578.82L779.22,572.67L780.58,577.4L781.95,623.75L783.32,600.86L784.69,594.4L786.05,596.29L787.42,589.57L788.79,567L790.15,594.89L791.52,617.22L792.89,605.74L794.25,598.61L795.62,579.02L796.99,600.82L798.36,587.45L801.09,622.93L802.46,608.86L803.82,610.37L805.19,589.6L806.56,600.9L807.92,585.8L809.29,588.41L810.66,618.78L812.03,624.01L813.39,616.41L816.13,607.63L817.49,599.87L818.86,609.11L820.23,631.99L822.96,604.47L824.33,616.98L825.7,613.45L827.06,601.86L828.43,621.96" style="vector-effect: non-scaling-stroke; fill: none; stroke: rgb(31, 119, 180); stroke-opacity: 1; stroke-width: 2px; opacity: 1;"/></g><g class="points"/><g class="text"/></g><g class="trace scatter trace52960b" style="stroke-miterlimit: 2; opacity: 1;"><g class="fills"/><g class="errorbars"/><g class="lines"><path class="js-line" d="M828.43,621.96L829.8,624.6L831.16,622.2L833.9,613.9L835.27,603.57L838,612.63" style="vector-effect: non-scaling-stroke; fill: none; stroke: rgb(255, 127, 14); stroke-opacity: 1; stroke-width: 2px; opacity: 1;"/></g><g class="points"/><g class="text"/></g></g></g><g class="overplot"/><path class="xlines-above crisp" style="fill: none;" d="M0,0"/><path class="ylines-above crisp" style="fill: none;" d="M0,0"/><g class="overlines-above"/><g class="xaxislayer-above"><g class="xtick"><text text-anchor="middle" x="0" y="741" transform="translate(106.47999999999999,0)" style="font-family: 'Open Sans', verdana, arial, sans-serif; font-size: 12px; fill: rgb(68, 68, 68); fill-opacity: 1; white-space: pre;">Apr 2020</text></g><g class="xtick"><text text-anchor="middle" x="0" y="741" transform="translate(230.88,0)" style="font-family: 'Open Sans', verdana, arial, sans-serif; font-size: 12px; fill: rgb(68, 68, 68); fill-opacity: 1; white-space: pre;">Jul 2020</text></g><g class="xtick"><text text-anchor="middle" x="0" y="741" transform="translate(356.65,0)" style="font-family: 'Open Sans', verdana, arial, sans-serif; font-size: 12px; fill: rgb(68, 68, 68); fill-opacity: 1; white-space: pre;">Oct 2020</text></g><g class="xtick"><text text-anchor="middle" x="0" y="741" transform="translate(482.42,0)" style="font-family: 'Open Sans', verdana, arial, sans-serif; font-size: 12px; fill: rgb(68, 68, 68); fill-opacity: 1; white-space: pre;">Jan 2021</text></g><g class="xtick"><text text-anchor="middle" x="0" y="741" transform="translate(605.45,0)" style="font-family: 'Open Sans', verdana, arial, sans-serif; font-size: 12px; fill: rgb(68, 68, 68); fill-opacity: 1; white-space: pre;">Apr 2021</text></g><g class="xtick"><text text-anchor="middle" x="0" y="741" transform="translate(729.85,0)" style="font-family: 'Open Sans', verdana, arial, sans-serif; font-size: 12px; fill: rgb(68, 68, 68); fill-opacity: 1; white-space: pre;">Jul 2021</text></g><g class="xtick"><text text-anchor="middle" x="0" y="741" transform="translate(855.62,0)" style="font-family: 'Open Sans', verdana, arial, sans-serif; font-size: 12px; fill: rgb(68, 68, 68); fill-opacity: 1; white-space: pre;">Oct 2021</text></g></g><g class="yaxislayer-above"><g class="ytick"><text text-anchor="end" x="59" y="4.199999999999999" transform="translate(0,692.85)" style="font-family: 'Open Sans', verdana, arial, sans-serif; font-size: 12px; fill: rgb(68, 68, 68); fill-opacity: 1; white-space: pre;">0</text></g><g class="ytick"><text text-anchor="end" x="59" y="4.199999999999999" transform="translate(0,618.38)" style="font-family: 'Open Sans', verdana, arial, sans-serif; font-size: 12px; fill: rgb(68, 68, 68); fill-opacity: 1; white-space: pre;">0.02</text></g><g class="ytick"><text text-anchor="end" x="59" y="4.199999999999999" transform="translate(0,543.9)" style="font-family: 'Open Sans', verdana, arial, sans-serif; font-size: 12px; fill: rgb(68, 68, 68); fill-opacity: 1; white-space: pre;">0.04</text></g><g class="ytick"><text text-anchor="end" x="59" y="4.199999999999999" transform="translate(0,469.43)" style="font-family: 'Open Sans', verdana, arial, sans-serif; font-size: 12px; fill: rgb(68, 68, 68); fill-opacity: 1; white-space: pre;">0.06</text></g><g class="ytick"><text text-anchor="end" x="59" y="4.199999999999999" transform="translate(0,394.95)" style="font-family: 'Open Sans', verdana, arial, sans-serif; font-size: 12px; fill: rgb(68, 68, 68); fill-opacity: 1; white-space: pre;">0.08</text></g><g class="ytick"><text text-anchor="end" x="59" y="4.199999999999999" transform="translate(0,320.48)" style="font-family: 'Open Sans', verdana, arial, sans-serif; font-size: 12px; fill: rgb(68, 68, 68); fill-opacity: 1; white-space: pre;">0.1</text></g><g class="ytick"><text text-anchor="end" x="59" y="4.199999999999999" transform="translate(0,246)" style="font-family: 'Open Sans', verdana, arial, sans-serif; font-size: 12px; fill: rgb(68, 68, 68); fill-opacity: 1; white-space: pre;">0.12</text></g><g class="ytick"><text text-anchor="end" x="59" y="4.199999999999999" transform="translate(0,171.53)" style="font-family: 'Open Sans', verdana, arial, sans-serif; font-size: 12px; fill: rgb(68, 68, 68); fill-opacity: 1; white-space: pre;">0.14</text></g><g class="ytick"><text text-anchor="end" x="59" y="4.199999999999999" transform="translate(0,97.05)" style="font-family: 'Open Sans', verdana, arial, sans-serif; font-size: 12px; fill: rgb(68, 68, 68); fill-opacity: 1; white-space: pre;">0.16</text></g></g><g class="overaxes-above"/></g></g><g class="polarlayer"/><g class="ternarylayer"/><g class="geolayer"/><g class="funnelarealayer"/><g class="pielayer"/><g class="treemaplayer"/><g class="sunburstlayer"/><g class="glimages"/><defs id="topdefs-b410a6"><g class="clips"/><clipPath id="legendb410a6"><rect width="102" height="48" x="0" y="0"/></clipPath></defs><g class="layer-above"><g class="imagelayer"/><g class="shapelayer"/></g><g class="infolayer"><g class="legend" pointer-events="all" transform="translate(914.76, 25)"><rect class="bg" shape-rendering="crispEdges" style="stroke: rgb(68, 68, 68); stroke-opacity: 1; fill: rgb(255, 255, 255); fill-opacity: 1; stroke-width: 0px;" width="102" height="48" x="0" y="0"/><g class="scrollbox" transform="translate(0, 0)" clip-path="url('#legendb410a6')"><g class="groups"><g class="traces" style="opacity: 1;" transform="translate(0, 14.5)"><text class="legendtext" text-anchor="start" x="40" y="4.680000000000001" style="font-family: 'Open Sans', verdana, arial, sans-serif; font-size: 12px; fill: rgb(68, 68, 68); fill-opacity: 1; white-space: pre;">actuals</text><g class="layers" style="opacity: 1;"><g class="legendfill"/><g class="legendlines"><path class="js-line" d="M5,0h30" style="fill: none; stroke: rgb(31, 119, 180); stroke-opacity: 1; stroke-width: 2px;"/></g><g class="legendsymbols"><g class="legendpoints"/></g></g><rect class="legendtoggle" x="0" y="-9.5" width="96.21875" height="19" style="fill: rgb(0, 0, 0); fill-opacity: 0;"/></g><g class="traces" style="opacity: 1;" transform="translate(0, 33.5)"><text class="legendtext" text-anchor="start" x="40" y="4.680000000000001" style="font-family: 'Open Sans', verdana, arial, sans-serif; font-size: 12px; fill: rgb(68, 68, 68); fill-opacity: 1; white-space: pre;">forecasts</text><g class="layers" style="opacity: 1;"><g class="legendfill"/><g class="legendlines"><path class="js-line" d="M5,0h30" style="fill: none; stroke: rgb(255, 127, 14); stroke-opacity: 1; stroke-width: 2px;"/></g><g class="legendsymbols"><g class="legendpoints"/></g></g><rect class="legendtoggle" x="0" y="-9.5" width="96.21875" height="19" style="fill: rgb(0, 0, 0); fill-opacity: 0;"/></g></g></g><rect class="scrollbar" rx="20" ry="3" width="0" height="0" style="fill: rgb(128, 139, 164); fill-opacity: 1;" x="0" y="0"/></g><g class="g-gtitle"><text class="gtitle" x="513.5" y="12.5" text-anchor="middle" dy="0em" style="font-family: 'Open Sans', verdana, arial, sans-serif; font-size: 17px; fill: rgb(68, 68, 68); opacity: 1; font-weight: normal; white-space: pre;">Positive cases as proportion of tested per day as of Oct 27, 2021. Including a 7-day forecast of positivity rate.</text></g><g class="g-xtitle" transform="translate(0,-15)"><text class="xtitle" x="479" y="780" text-anchor="middle" style="font-family: 'Open Sans', verdana, arial, sans-serif; font-size: 14px; fill: rgb(68, 68, 68); opacity: 1; font-weight: normal; white-space: pre;">Date</text></g><g class="g-ytitle"><text class="ytitle" transform="rotate(-90,22,376.5)" x="22" y="376.5" text-anchor="middle" style="font-family: 'Open Sans', verdana, arial, sans-serif; font-size: 14px; fill: rgb(68, 68, 68); opacity: 1; font-weight: normal; white-space: pre;">ratio of positive to tested</text></g></g></svg>