<svg class="main-svg" xmlns="http://www.w3.org/2000/svg" xmlns:xlink="http://www.w3.org/1999/xlink" width="1027" height="768" style="" viewBox="0 0 1027 768"><rect x="0" y="0" width="1027" height="768" style="fill: rgb(255, 255, 255); fill-opacity: 1;"/><defs id="defs-77b682"><g class="clips"><clipPath id="clip77b682xyplot" class="plotclip"><rect width="838" height="703"/></clipPath><clipPath class="axesclip" id="clip77b682x"><rect x="60" y="0" width="838" height="768"/></clipPath><clipPath class="axesclip" id="clip77b682y"><rect x="0" y="25" width="1027" height="703"/></clipPath><clipPath class="axesclip" id="clip77b682xy"><rect x="60" y="25" width="838" height="703"/></clipPath></g><g class="gradients"/></defs><g class="bglayer"/><g class="layer-below"><g class="imagelayer"/><g class="shapelayer"/></g><g class="cartesianlayer"><g class="subplot xy"><g class="layer-subplot"><g class="shapelayer"/><g class="imagelayer"/></g><g class="gridlayer"><g class="x"><path class="xgrid crisp" transform="translate(66.36,0)" d="M0,25v703" style="stroke: rgb(238, 238, 238); stroke-opacity: 1; stroke-width: 1px;"/><path class="xgrid crisp" transform="translate(195.78,0)" d="M0,25v703" style="stroke: rgb(238, 238, 238); stroke-opacity: 1; stroke-width: 1px;"/><path class="xgrid crisp" transform="translate(325.19,0)" d="M0,25v703" style="stroke: rgb(238, 238, 238); stroke-opacity: 1; stroke-width: 1px;"/><path class="xgrid crisp" transform="translate(456.72,0)" d="M0,25v703" style="stroke: rgb(238, 238, 238); stroke-opacity: 1; stroke-width: 1px;"/><path class="xgrid crisp" transform="translate(586.14,0)" d="M0,25v703" style="stroke: rgb(238, 238, 238); stroke-opacity: 1; stroke-width: 1px;"/><path class="xgrid crisp" transform="translate(715.55,0)" d="M0,25v703" style="stroke: rgb(238, 238, 238); stroke-opacity: 1; stroke-width: 1px;"/><path class="xgrid crisp" transform="translate(840.72,0)" d="M0,25v703" style="stroke: rgb(238, 238, 238); stroke-opacity: 1; stroke-width: 1px;"/></g><g class="y"><path class="ygrid crisp" transform="translate(0,532.65)" d="M60,0h838" style="stroke: rgb(238, 238, 238); stroke-opacity: 1; stroke-width: 1px;"/><path class="ygrid crisp" transform="translate(0,372.46)" d="M60,0h838" style="stroke: rgb(238, 238, 238); stroke-opacity: 1; stroke-width: 1px;"/><path class="ygrid crisp" transform="translate(0,212.26)" d="M60,0h838" style="stroke: rgb(238, 238, 238); stroke-opacity: 1; stroke-width: 1px;"/><path class="ygrid crisp" transform="translate(0,52.06)" d="M60,0h838" style="stroke: rgb(238, 238, 238); stroke-opacity: 1; stroke-width: 1px;"/></g></g><g class="zerolinelayer"><path class="yzl zl crisp" transform="translate(0,692.85)" d="M60,0h838" style="stroke: rgb(68, 68, 68); stroke-opacity: 1; stroke-width: 1px;"/></g><path class="xlines-below"/><path class="ylines-below"/><g class="overlines-below"/><g class="xaxislayer-below"/><g class="yaxislayer-below"/><g class="overaxes-below"/><g class="plot" transform="translate(60, 25)" clip-path="url('#clip77b682xyplot')"><g class="scatterlayer mlayer"><g class="trace scatter trace5e4c7c" style="stroke-miterlimit: 2; opacity: 1;"><g class="fills"/><g class="errorbars"/><g class="lines"><path class="js-line" d="M0,622.08L2.12,621.42L8.49,505.63L10.61,614.89L12.73,667.85L14.85,653.8L16.97,602.8L19.09,638.59L23.34,614.7L25.46,667.85L27.58,638.18L29.7,598.9L31.82,599.97L33.94,617.23L36.07,593.79L38.19,608L40.31,632.36L42.43,638.47L44.55,617.81L46.67,600.66L48.79,620.7L50.92,621.42L53.04,549.58L55.16,600.54L57.28,572.07L59.4,483.2L61.52,497.46L63.65,432.27L65.77,317.67L67.89,404.9L70.01,449.29L72.13,403.44L74.25,299.64L76.37,405.8L78.5,315.31L80.62,403.85L82.74,194.99L84.86,123.47L86.98,290.13L89.1,282.57L91.23,306.88L93.35,480.13L95.47,401.54L97.59,348.91L99.71,404.5L101.83,484.89L103.95,464.79L106.08,35.15L108.2,558.54L110.32,445.78L112.44,478.64L114.56,510.14L116.68,468.98L120.93,523.68L123.05,551.37L125.17,559.61L127.29,512.85L129.41,571.63L131.53,554.1L133.66,586.26L135.78,567.44L137.9,586.75L140.02,586.4L142.14,551.47L144.26,566L146.38,583.63L148.51,574.06L150.63,610.19L152.75,614.38L154.87,597.21L156.99,571.12L159.11,598.21L161.24,604.43L163.36,608.32L165.48,597.34L167.6,600.68L169.72,561.46L171.84,432.5L173.96,498.58L176.09,541.9L178.21,542.55L180.33,548.15L182.45,538.38L184.57,509.42L186.69,574.73L188.82,606.03L190.94,598.19L195.18,617.71L197.3,606.46L199.42,577.83L201.54,574.11L203.67,606.1L205.79,613.07L207.91,619.36L210.03,604.76L212.15,599.22L214.27,617.15L216.39,613.3L218.52,627.52L220.64,641.13L222.76,647.27L224.88,636.81L227,640.74L229.12,641.19L231.25,640.71L233.37,642.7L235.49,645.92L237.61,646.9L239.73,643.75L243.97,644.3L246.1,625.1L248.22,645.35L250.34,645.84L252.46,656.3L254.58,652.54L256.7,647.93L258.83,637.5L260.95,646.68L263.07,649.53L267.31,646L269.43,649.76L271.55,649.27L273.68,639.33L275.8,644.1L277.92,651.29L280.04,647.16L282.16,654.33L284.28,653.74L286.41,651.78L288.53,650.06L290.65,646.61L292.77,654.1L294.89,654.43L297.01,656.44L299.13,649.41L303.38,647.17L305.5,639.54L307.62,645.81L309.74,655.16L311.86,646.16L313.98,653.06L316.11,651.06L318.23,652.39L320.35,647.33L322.47,658.93L324.59,657.55L326.71,653.55L328.84,655.91L330.96,655.64L333.08,655.6L335.2,652.64L337.32,651.86L339.44,656.22L341.56,656.63L343.69,659.23L345.81,658.74L347.93,651.31L350.05,662.95L352.17,655.46L354.29,659.41L356.42,658.07L358.54,656.69L360.66,656.95L362.78,655.44L364.9,650.49L369.14,658.45L371.27,652.9L373.39,655.77L375.51,652.09L377.63,649.95L379.75,651.84L381.87,655.01L383.99,654.64L386.12,655.57L388.24,653.08L392.48,653.3L394.6,652.61L396.72,650.1L398.85,651.77L400.97,651.26L403.09,648.97L405.21,650.37L407.33,642.19L409.45,639.53L411.57,640.73L413.7,645.77L415.82,646.85L420.06,646.86L422.18,633.9L424.3,638.78L426.43,632.76L428.55,641.13L430.67,631.99L432.79,634.36L434.91,638.71L437.03,624.97L439.15,623.07L441.28,637.56L443.4,625.07L445.52,636.55L447.64,635.62L449.76,630.84L451.88,613.3L454.01,621.6L456.13,611.84L458.25,624.37L460.37,609.35L462.49,622.62L464.61,622.13L466.73,616.26L468.86,626.08L470.98,624.69L473.1,615.19L475.22,600.87L477.34,609.34L479.46,620.74L481.58,596.96L483.71,591.32L485.83,596.12L487.95,605.07L490.07,608.61L492.19,610.18L494.31,616.24L496.44,597.06L498.56,558.47L500.68,590.32L502.8,598.51L504.92,601.72L507.04,596.88L509.16,581.74L511.29,572.69L513.41,557.19L515.53,578.81L517.65,583.84L519.77,597.85L524.02,583.55L526.14,559.02L528.26,534.77L530.38,557.15L532.5,578.42L534.62,589.98L536.74,575.25L538.87,554.62L540.99,527.74L543.11,515.16L545.23,543.38L547.35,540.29L549.47,557.44L551.59,554.88L553.72,573.11L555.84,525L557.96,516.66L560.08,532.08L562.2,575.19L564.32,573.54L566.45,558.83L568.57,561.9L570.69,531.98L572.81,548.35L574.93,545.91L577.05,568.32L581.3,561.88L583.42,566.43L585.54,525.89L587.66,509.97L589.78,543.03L591.9,557.32L594.03,566.01L596.15,567.58L598.27,563.81L600.39,531.65L602.51,530.86L604.63,543.11L606.75,565.06L608.88,573.94L611,575.9L613.12,575.51L615.24,558.98L617.36,483.63L619.48,528.53L621.61,533.92L623.73,560.34L625.85,555.49L627.97,560.95L630.09,543.05L632.21,511.99L634.33,531.69L636.46,546.47L638.58,555.31L640.7,529.24L642.82,514.11L644.94,510.83L647.06,428.06L649.18,429L651.31,500.87L653.43,553.82L655.55,492.37L657.67,480.92L659.79,400.04L661.91,382.75L664.04,462.85L666.16,496.43L668.28,477.4L670.4,516.53L672.52,464.99L674.64,437.37L676.76,460.25L678.89,481.58L681.01,518.12L683.13,542.24L685.25,535.31L687.37,485.67L689.49,462.9L695.86,547.82L697.98,548.98L700.1,548.74L702.22,509.64L704.34,493.44L706.47,486.36L708.59,570.9L710.71,564.15L712.83,582.6L714.95,556.94L717.07,547.88L719.19,460.05L721.32,584.25L723.44,596.21L727.68,582.53L729.8,596.52L731.92,575.5L734.05,524.65L738.29,602.43L740.41,623.85L744.65,596.97L746.77,603.31L748.9,566.1L751.02,560.6L755.26,608.64L757.38,611.49L759.5,599.06L761.63,595.56L763.75,559.07L765.87,547.61L767.99,606.29L770.11,612.9L772.23,604.92L774.35,603.95L776.48,598.67L778.6,574.24L780.72,567.25L782.84,609.51L784.96,619.33L787.08,606L789.21,613L791.33,578.51L793.45,530.56L795.57,553.71L797.69,589.98L799.81,610.13L804.06,587.36L806.18,550.3L810.42,547.22L812.54,569.5L814.66,582.88L816.78,568.25L818.91,555.34L821.03,551.3L823.15,492.76" style="vector-effect: non-scaling-stroke; fill: none; stroke: rgb(31, 119, 180); stroke-opacity: 1; stroke-width: 2px; opacity: 1;"/></g><g class="points"/><g class="text"/></g><g class="trace scatter trace111770" style="stroke-miterlimit: 2; opacity: 1;"><g class="fills"/><g class="errorbars"/><g class="lines"><path class="js-line" d="M823.15,492.76L827.39,549.1L829.51,563.74L831.64,548.54L833.76,543.63L835.88,507.77L838,496.29" style="vector-effect: non-scaling-stroke; fill: none; stroke: rgb(255, 127, 14); stroke-opacity: 1; stroke-width: 2px; opacity: 1;"/></g><g class="points"/><g class="text"/></g></g></g><g class="overplot"/><path class="xlines-above crisp" style="fill: none;" d="M0,0"/><path class="ylines-above crisp" style="fill: none;" d="M0,0"/><g class="overlines-above"/><g class="xaxislayer-above"><g class="xtick"><text text-anchor="middle" x="0" y="741" transform="translate(66.36,0)" style="font-family: 'Open Sans', verdana, arial, sans-serif; font-size: 12px; fill: rgb(68, 68, 68); fill-opacity: 1; white-space: pre;">Mar 2020</text></g><g class="xtick"><text text-anchor="middle" x="0" y="741" transform="translate(195.78,0)" style="font-family: 'Open Sans', verdana, arial, sans-serif; font-size: 12px; fill: rgb(68, 68, 68); fill-opacity: 1; white-space: pre;">May 2020</text></g><g class="xtick"><text text-anchor="middle" x="0" y="741" transform="translate(325.19,0)" style="font-family: 'Open Sans', verdana, arial, sans-serif; font-size: 12px; fill: rgb(68, 68, 68); fill-opacity: 1; white-space: pre;">Jul 2020</text></g><g class="xtick"><text text-anchor="middle" x="0" y="741" transform="translate(456.72,0)" style="font-family: 'Open Sans', verdana, arial, sans-serif; font-size: 12px; fill: rgb(68, 68, 68); fill-opacity: 1; white-space: pre;">Sep 2020</text></g><g class="xtick"><text text-anchor="middle" x="0" y="741" transform="translate(586.14,0)" style="font-family: 'Open Sans', verdana, arial, sans-serif; font-size: 12px; fill: rgb(68, 68, 68); fill-opacity: 1; white-space: pre;">Nov 2020</text></g><g class="xtick"><text text-anchor="middle" x="0" y="741" transform="translate(715.55,0)" style="font-family: 'Open Sans', verdana, arial, sans-serif; font-size: 12px; fill: rgb(68, 68, 68); fill-opacity: 1; white-space: pre;">Jan 2021</text></g><g class="xtick"><text text-anchor="middle" x="0" y="741" transform="translate(840.72,0)" style="font-family: 'Open Sans', verdana, arial, sans-serif; font-size: 12px; fill: rgb(68, 68, 68); fill-opacity: 1; white-space: pre;">Mar 2021</text></g></g><g class="yaxislayer-above"><g class="ytick"><text text-anchor="end" x="59" y="4.199999999999999" transform="translate(0,692.85)" style="font-family: 'Open Sans', verdana, arial, sans-serif; font-size: 12px; fill: rgb(68, 68, 68); fill-opacity: 1; white-space: pre;">0</text></g><g class="ytick"><text text-anchor="end" x="59" y="4.199999999999999" transform="translate(0,532.65)" style="font-family: 'Open Sans', verdana, arial, sans-serif; font-size: 12px; fill: rgb(68, 68, 68); fill-opacity: 1; white-space: pre;">0.05</text></g><g class="ytick"><text text-anchor="end" x="59" y="4.199999999999999" transform="translate(0,372.46)" style="font-family: 'Open Sans', verdana, arial, sans-serif; font-size: 12px; fill: rgb(68, 68, 68); fill-opacity: 1; white-space: pre;">0.1</text></g><g class="ytick"><text text-anchor="end" x="59" y="4.199999999999999" transform="translate(0,212.26)" style="font-family: 'Open Sans', verdana, arial, sans-serif; font-size: 12px; fill: rgb(68, 68, 68); fill-opacity: 1; white-space: pre;">0.15</text></g><g class="ytick"><text text-anchor="end" x="59" y="4.199999999999999" transform="translate(0,52.06)" style="font-family: 'Open Sans', verdana, arial, sans-serif; font-size: 12px; fill: rgb(68, 68, 68); fill-opacity: 1; white-space: pre;">0.2</text></g></g><g class="overaxes-above"/></g></g><g class="polarlayer"/><g class="ternarylayer"/><g class="geolayer"/><g class="funnelarealayer"/><g class="pielayer"/><g class="treemaplayer"/><g class="sunburstlayer"/><g class="glimages"/><defs id="topdefs-77b682"><g class="clips"/><clipPath id="legend77b682"><rect width="102" height="48" x="0" y="0"/></clipPath></defs><g class="layer-above"><g class="imagelayer"/><g class="shapelayer"/></g><g class="infolayer"><g class="legend" pointer-events="all" transform="translate(914.76, 25)"><rect class="bg" shape-rendering="crispEdges" style="stroke: rgb(68, 68, 68); stroke-opacity: 1; fill: rgb(255, 255, 255); fill-opacity: 1; stroke-width: 0px;" width="102" height="48" x="0" y="0"/><g class="scrollbox" transform="translate(0, 0)" clip-path="url('#legend77b682')"><g class="groups"><g class="traces" style="opacity: 1;" transform="translate(0, 14.5)"><text class="legendtext" text-anchor="start" x="40" y="4.680000000000001" style="font-family: 'Open Sans', verdana, arial, sans-serif; font-size: 12px; fill: rgb(68, 68, 68); fill-opacity: 1; white-space: pre;">actuals</text><g class="layers" style="opacity: 1;"><g class="legendfill"/><g class="legendlines"><path class="js-line" d="M5,0h30" style="fill: none; stroke: rgb(31, 119, 180); stroke-opacity: 1; stroke-width: 2px;"/></g><g class="legendsymbols"><g class="legendpoints"/></g></g><rect class="legendtoggle" x="0" y="-9.5" width="96.21875" height="19" style="fill: rgb(0, 0, 0); fill-opacity: 0;"/></g><g class="traces" style="opacity: 1;" transform="translate(0, 33.5)"><text class="legendtext" text-anchor="start" x="40" y="4.680000000000001" style="font-family: 'Open Sans', verdana, arial, sans-serif; font-size: 12px; fill: rgb(68, 68, 68); fill-opacity: 1; white-space: pre;">forecasts</text><g class="layers" style="opacity: 1;"><g class="legendfill"/><g class="legendlines"><path class="js-line" d="M5,0h30" style="fill: none; stroke: rgb(255, 127, 14); stroke-opacity: 1; stroke-width: 2px;"/></g><g class="legendsymbols"><g class="legendpoints"/></g></g><rect class="legendtoggle" x="0" y="-9.5" width="96.21875" height="19" style="fill: rgb(0, 0, 0); fill-opacity: 0;"/></g></g></g><rect class="scrollbar" rx="20" ry="3" width="0" height="0" style="fill: rgb(128, 139, 164); fill-opacity: 1;" x="0" y="0"/></g><g class="g-gtitle"><text class="gtitle" x="513.5" y="12.5" text-anchor="middle" dy="0em" style="font-family: 'Open Sans', verdana, arial, sans-serif; font-size: 17px; fill: rgb(68, 68, 68); opacity: 1; font-weight: normal; white-space: pre;">Positive cases as proportion of tested per day as of Mar 23, 2021. Including a 7-day forecast of positivity rate.</text></g><g class="g-xtitle" transform="translate(0,-15)"><text class="xtitle" x="479" y="780" text-anchor="middle" style="font-family: 'Open Sans', verdana, arial, sans-serif; font-size: 14px; fill: rgb(68, 68, 68); opacity: 1; font-weight: normal; white-space: pre;">Date</text></g><g class="g-ytitle"><text class="ytitle" transform="rotate(-90,22,376.5)" x="22" y="376.5" text-anchor="middle" style="font-family: 'Open Sans', verdana, arial, sans-serif; font-size: 14px; fill: rgb(68, 68, 68); opacity: 1; font-weight: normal; white-space: pre;">ratio of positive to tested</text></g></g></svg>