<svg class="main-svg" xmlns="http://www.w3.org/2000/svg" xmlns:xlink="http://www.w3.org/1999/xlink" width="1027" height="768" style="" viewBox="0 0 1027 768"><rect x="0" y="0" width="1027" height="768" style="fill: rgb(255, 255, 255); fill-opacity: 1;"/><defs id="defs-f1980d"><g class="clips"><clipPath id="clipf1980dxyplot" class="plotclip"><rect width="957" height="703"/></clipPath><clipPath class="axesclip" id="clipf1980dx"><rect x="60" y="0" width="957" height="768"/></clipPath><clipPath class="axesclip" id="clipf1980dy"><rect x="0" y="25" width="1027" height="703"/></clipPath><clipPath class="axesclip" id="clipf1980dxy"><rect x="60" y="25" width="957" height="703"/></clipPath></g><g class="gradients"/></defs><g class="bglayer"/><g class="layer-below"><g class="imagelayer"/><g class="shapelayer"/></g><g class="cartesianlayer"><g class="subplot xy"><g class="layer-subplot"><g class="shapelayer"/><g class="imagelayer"/></g><g class="gridlayer"><g class="x"><path class="xgrid crisp" transform="translate(70.88,0)" d="M0,25v703" style="stroke: rgb(238, 238, 238); stroke-opacity: 1; stroke-width: 1px;"/><path class="xgrid crisp" transform="translate(183.25,0)" d="M0,25v703" style="stroke: rgb(238, 238, 238); stroke-opacity: 1; stroke-width: 1px;"/><path class="xgrid crisp" transform="translate(292,0)" d="M0,25v703" style="stroke: rgb(238, 238, 238); stroke-opacity: 1; stroke-width: 1px;"/><path class="xgrid crisp" transform="translate(404.38,0)" d="M0,25v703" style="stroke: rgb(238, 238, 238); stroke-opacity: 1; stroke-width: 1px;"/><path class="xgrid crisp" transform="translate(513.13,0)" d="M0,25v703" style="stroke: rgb(238, 238, 238); stroke-opacity: 1; stroke-width: 1px;"/><path class="xgrid crisp" transform="translate(625.5,0)" d="M0,25v703" style="stroke: rgb(238, 238, 238); stroke-opacity: 1; stroke-width: 1px;"/><path class="xgrid crisp" transform="translate(737.88,0)" d="M0,25v703" style="stroke: rgb(238, 238, 238); stroke-opacity: 1; stroke-width: 1px;"/><path class="xgrid crisp" transform="translate(846.63,0)" d="M0,25v703" style="stroke: rgb(238, 238, 238); stroke-opacity: 1; stroke-width: 1px;"/><path class="xgrid crisp" transform="translate(959,0)" d="M0,25v703" style="stroke: rgb(238, 238, 238); stroke-opacity: 1; stroke-width: 1px;"/></g><g class="y"><path class="ygrid crisp" transform="translate(0,532.65)" d="M60,0h957" style="stroke: rgb(238, 238, 238); stroke-opacity: 1; stroke-width: 1px;"/><path class="ygrid crisp" transform="translate(0,372.46)" d="M60,0h957" style="stroke: rgb(238, 238, 238); stroke-opacity: 1; stroke-width: 1px;"/><path class="ygrid crisp" transform="translate(0,212.26)" d="M60,0h957" style="stroke: rgb(238, 238, 238); stroke-opacity: 1; stroke-width: 1px;"/><path class="ygrid crisp" transform="translate(0,52.06)" d="M60,0h957" style="stroke: rgb(238, 238, 238); stroke-opacity: 1; stroke-width: 1px;"/></g></g><g class="zerolinelayer"><path class="yzl zl crisp" transform="translate(0,692.85)" d="M60,0h957" style="stroke: rgb(68, 68, 68); stroke-opacity: 1; stroke-width: 1px;"/></g><path class="xlines-below"/><path class="ylines-below"/><g class="overlines-below"/><g class="xaxislayer-below"/><g class="yaxislayer-below"/><g class="overaxes-below"/><g class="plot" transform="translate(60, 25)" clip-path="url('#clipf1980dxyplot')"><g class="scatterlayer mlayer"><g class="trace scatter traceba3e09" style="stroke-miterlimit: 2; opacity: 1;"><g class="fills"/><g class="errorbars"/><g class="lines"><path class="js-line" d="M0,622.08L3.63,621.42L14.5,505.63L18.13,614.89L21.75,667.85L25.38,653.8L29,602.8L32.63,638.59L39.88,614.7L43.5,667.85L47.13,638.18L50.75,598.9L54.38,599.97L58,617.23L61.63,593.79L65.25,608L68.88,632.36L72.5,638.47L76.13,617.81L79.75,600.66L83.38,620.7L87,621.42L90.63,549.58L94.25,600.54L97.88,572.07L101.5,483.2L105.13,497.46L108.75,432.27L112.38,317.67L116,404.9L119.63,449.29L123.25,403.44L126.88,299.64L130.5,405.8L134.13,315.31L137.75,403.85L141.38,194.99L145,123.47L148.63,290.13L152.25,282.57L155.88,306.88L159.5,480.13L163.13,401.54L166.75,348.91L170.38,404.5L174,484.89L177.63,464.79L181.25,35.15L184.88,558.54L188.5,445.78L192.13,478.64L195.75,510.14L199.38,468.98L203,501.07L206.63,523.68L210.25,551.37L213.88,559.61L217.5,512.85L221.13,571.63L224.75,554.1L228.38,586.26L232,567.44L235.63,586.75L239.25,586.4L242.88,551.47L250.13,583.63L253.75,574.06L257.38,610.19L261,614.38L264.63,597.21L268.25,571.12L271.88,598.21L275.5,604.43L279.13,608.32L282.75,597.34L286.38,600.68L290,561.46L293.63,432.5L297.25,498.58L300.88,541.9L304.5,542.55L308.13,548.15L311.75,538.38L315.38,509.42L319,574.73L322.63,606.03L326.25,598.19L333.5,617.71L337.13,606.46L340.75,577.83L344.38,574.11L348,606.1L351.63,613.07L355.25,619.36L358.88,604.76L362.5,599.22L366.13,617.15L369.75,613.3L373.38,627.52L377,641.13L380.63,647.27L384.25,636.81L387.88,640.74L391.5,641.19L395.13,640.71L398.75,642.7L402.38,645.92L406,646.9L409.63,643.75L416.88,644.3L420.5,625.1L424.13,645.35L427.75,645.84L431.38,656.3L435,652.54L438.63,647.93L442.25,637.5L445.88,646.68L449.5,649.53L456.75,646L460.38,649.76L464,649.27L467.63,639.33L471.25,644.1L474.88,651.29L478.5,647.16L482.13,654.33L485.75,653.74L489.38,651.78L493,650.06L496.63,646.61L500.25,654.1L503.88,654.43L507.5,656.44L511.13,649.41L518.38,647.17L522,639.54L525.63,645.81L529.25,655.16L532.88,646.16L536.5,653.06L540.13,651.06L543.75,652.39L547.38,647.33L551,658.93L554.63,657.55L558.25,653.55L561.88,655.91L565.5,655.64L569.13,655.6L572.75,652.64L576.38,651.86L580,656.22L583.63,656.63L587.25,659.23L590.88,658.74L594.5,651.31L598.13,662.95L601.75,655.46L605.38,659.41L609,658.07L612.63,656.69L616.25,656.95L619.88,655.44L623.5,650.49L627.13,655.11L630.75,658.45L634.38,652.9L638,655.77L641.63,652.09L645.25,649.95L648.88,651.84L652.5,655.01L656.13,654.64L659.75,655.57L663.38,653.08L667,653.48L674.25,652.61L677.88,650.1L681.5,651.77L685.13,651.26L688.75,648.97L692.38,650.37L696,642.19L699.63,639.53L703.25,640.73L706.88,645.77L710.5,646.85L714.13,646.98L717.75,646.86L721.38,633.9L725,638.78L728.63,632.76L732.25,641.13L735.88,631.99L739.5,634.36L743.13,638.71L746.75,624.97L750.38,623.07L754,637.56L757.63,625.07L761.25,636.55L764.88,635.62L768.5,630.84L772.13,613.3L775.75,621.6L779.38,611.84L783,624.37L786.63,609.35L790.25,622.62L793.88,622.13L797.5,616.26L801.13,626.08L804.75,624.69L808.38,615.19L812,600.87L815.63,609.34L819.25,620.74L822.88,596.96L826.5,591.32L830.13,596.12L833.75,605.07L837.38,608.61L841,610.18L844.63,616.24L848.25,597.06L851.88,558.47L855.5,590.32L859.13,598.51L862.75,601.72L866.38,596.88L870,581.74L873.63,572.69L877.25,557.19L880.88,578.81L884.5,583.84L888.13,597.85L895.38,583.55L899,559.02L902.63,534.77L906.25,557.15L909.88,578.42L913.5,589.98L917.13,575.25L920.75,554.62L924.38,527.74L928,515.16L931.63,543.38L935.25,540.29L938.88,557.44L942.5,554.88L946.13,573.11L949.75,525L953.38,516.66L957,532.08" style="vector-effect: non-scaling-stroke; fill: none; stroke: rgb(31, 119, 180); stroke-opacity: 1; stroke-width: 2px; opacity: 1;"/></g><g class="points"/><g class="text"/></g></g></g><g class="overplot"/><path class="xlines-above crisp" d="M0,0" style="fill: none;"/><path class="ylines-above crisp" d="M0,0" style="fill: none;"/><g class="overlines-above"/><g class="xaxislayer-above"><g class="xtick"><text text-anchor="middle" x="0" y="741" transform="translate(70.88,0)" style="font-family: 'Open Sans', verdana, arial, sans-serif; font-size: 12px; fill: rgb(68, 68, 68); fill-opacity: 1; white-space: pre;">Mar 2020</text></g><g class="xtick"><text text-anchor="middle" x="0" y="741" transform="translate(183.25,0)" style="font-family: 'Open Sans', verdana, arial, sans-serif; font-size: 12px; fill: rgb(68, 68, 68); fill-opacity: 1; white-space: pre;">Apr 2020</text></g><g class="xtick"><text text-anchor="middle" x="0" y="741" transform="translate(292,0)" style="font-family: 'Open Sans', verdana, arial, sans-serif; font-size: 12px; fill: rgb(68, 68, 68); fill-opacity: 1; white-space: pre;">May 2020</text></g><g class="xtick"><text text-anchor="middle" x="0" y="741" transform="translate(404.38,0)" style="font-family: 'Open Sans', verdana, arial, sans-serif; font-size: 12px; fill: rgb(68, 68, 68); fill-opacity: 1; white-space: pre;">Jun 2020</text></g><g class="xtick"><text text-anchor="middle" x="0" y="741" transform="translate(513.13,0)" style="font-family: 'Open Sans', verdana, arial, sans-serif; font-size: 12px; fill: rgb(68, 68, 68); fill-opacity: 1; white-space: pre;">Jul 2020</text></g><g class="xtick"><text text-anchor="middle" x="0" y="741" transform="translate(625.5,0)" style="font-family: 'Open Sans', verdana, arial, sans-serif; font-size: 12px; fill: rgb(68, 68, 68); fill-opacity: 1; white-space: pre;">Aug 2020</text></g><g class="xtick"><text text-anchor="middle" x="0" y="741" transform="translate(737.88,0)" style="font-family: 'Open Sans', verdana, arial, sans-serif; font-size: 12px; fill: rgb(68, 68, 68); fill-opacity: 1; white-space: pre;">Sep 2020</text></g><g class="xtick"><text text-anchor="middle" x="0" y="741" transform="translate(846.63,0)" style="font-family: 'Open Sans', verdana, arial, sans-serif; font-size: 12px; fill: rgb(68, 68, 68); fill-opacity: 1; white-space: pre;">Oct 2020</text></g><g class="xtick"><text text-anchor="middle" x="0" y="741" transform="translate(959,0)" style="font-family: 'Open Sans', verdana, arial, sans-serif; font-size: 12px; fill: rgb(68, 68, 68); fill-opacity: 1; white-space: pre;">Nov 2020</text></g></g><g class="yaxislayer-above"><g class="ytick"><text text-anchor="end" x="59" y="4.199999999999999" transform="translate(0,692.85)" style="font-family: 'Open Sans', verdana, arial, sans-serif; font-size: 12px; fill: rgb(68, 68, 68); fill-opacity: 1; white-space: pre;">0</text></g><g class="ytick"><text text-anchor="end" x="59" y="4.199999999999999" transform="translate(0,532.65)" style="font-family: 'Open Sans', verdana, arial, sans-serif; font-size: 12px; fill: rgb(68, 68, 68); fill-opacity: 1; white-space: pre;">0.05</text></g><g class="ytick"><text text-anchor="end" x="59" y="4.199999999999999" transform="translate(0,372.46)" style="font-family: 'Open Sans', verdana, arial, sans-serif; font-size: 12px; fill: rgb(68, 68, 68); fill-opacity: 1; white-space: pre;">0.1</text></g><g class="ytick"><text text-anchor="end" x="59" y="4.199999999999999" transform="translate(0,212.26)" style="font-family: 'Open Sans', verdana, arial, sans-serif; font-size: 12px; fill: rgb(68, 68, 68); fill-opacity: 1; white-space: pre;">0.15</text></g><g class="ytick"><text text-anchor="end" x="59" y="4.199999999999999" transform="translate(0,52.06)" style="font-family: 'Open Sans', verdana, arial, sans-serif; font-size: 12px; fill: rgb(68, 68, 68); fill-opacity: 1; white-space: pre;">0.2</text></g></g><g class="overaxes-above"/></g></g><g class="polarlayer"/><g class="ternarylayer"/><g class="geolayer"/><g class="funnelarealayer"/><g class="pielayer"/><g class="treemaplayer"/><g class="sunburstlayer"/><g class="glimages"/><defs id="topdefs-f1980d"><g class="clips"/></defs><g class="layer-above"><g class="imagelayer"/><g class="shapelayer"/></g><g class="infolayer"><g class="g-gtitle"><text class="gtitle" x="513.5" y="12.5" text-anchor="middle" dy="0em" style="font-family: 'Open Sans', verdana, arial, sans-serif; font-size: 17px; fill: rgb(68, 68, 68); opacity: 1; font-weight: normal; white-space: pre;">Positive cases as proportion of tested per day as of Nov 18, 2020</text></g><g class="g-xtitle" transform="translate(0,-15)"><text class="xtitle" x="538.5" y="780" text-anchor="middle" style="font-family: 'Open Sans', verdana, arial, sans-serif; font-size: 14px; fill: rgb(68, 68, 68); opacity: 1; font-weight: normal; white-space: pre;">Date</text></g><g class="g-ytitle"><text class="ytitle" transform="rotate(-90,22,376.5)" x="22" y="376.5" text-anchor="middle" style="font-family: 'Open Sans', verdana, arial, sans-serif; font-size: 14px; fill: rgb(68, 68, 68); opacity: 1; font-weight: normal; white-space: pre;">ratio of positive to tested</text></g></g></svg>