<svg class="main-svg" xmlns="http://www.w3.org/2000/svg" xmlns:xlink="http://www.w3.org/1999/xlink" width="1027" height="768" style="" viewBox="0 0 1027 768"><rect x="0" y="0" width="1027" height="768" style="fill: rgb(255, 255, 255); fill-opacity: 1;"/><defs id="defs-0db1a8"><g class="clips"><clipPath id="clip0db1a8xyplot" class="plotclip"><rect width="838" height="703"/></clipPath><clipPath class="axesclip" id="clip0db1a8x"><rect x="60" y="0" width="838" height="768"/></clipPath><clipPath class="axesclip" id="clip0db1a8y"><rect x="0" y="25" width="1027" height="703"/></clipPath><clipPath class="axesclip" id="clip0db1a8xy"><rect x="60" y="25" width="838" height="703"/></clipPath></g><g class="gradients"/></defs><g class="bglayer"/><g class="layer-below"><g class="imagelayer"/><g class="shapelayer"/></g><g class="cartesianlayer"><g class="subplot xy"><g class="layer-subplot"><g class="shapelayer"/><g class="imagelayer"/></g><g class="gridlayer"><g class="x"><path class="xgrid crisp" transform="translate(65.41,0)" d="M0,25v703" style="stroke: rgb(238, 238, 238); stroke-opacity: 1; stroke-width: 1px;"/><path class="xgrid crisp" transform="translate(175.34,0)" d="M0,25v703" style="stroke: rgb(238, 238, 238); stroke-opacity: 1; stroke-width: 1px;"/><path class="xgrid crisp" transform="translate(285.27,0)" d="M0,25v703" style="stroke: rgb(238, 238, 238); stroke-opacity: 1; stroke-width: 1px;"/><path class="xgrid crisp" transform="translate(397,0)" d="M0,25v703" style="stroke: rgb(238, 238, 238); stroke-opacity: 1; stroke-width: 1px;"/><path class="xgrid crisp" transform="translate(506.93,0)" d="M0,25v703" style="stroke: rgb(238, 238, 238); stroke-opacity: 1; stroke-width: 1px;"/><path class="xgrid crisp" transform="translate(616.86,0)" d="M0,25v703" style="stroke: rgb(238, 238, 238); stroke-opacity: 1; stroke-width: 1px;"/><path class="xgrid crisp" transform="translate(723.19,0)" d="M0,25v703" style="stroke: rgb(238, 238, 238); stroke-opacity: 1; stroke-width: 1px;"/><path class="xgrid crisp" transform="translate(833.12,0)" d="M0,25v703" style="stroke: rgb(238, 238, 238); stroke-opacity: 1; stroke-width: 1px;"/></g><g class="y"><path class="ygrid crisp" transform="translate(0,532.65)" d="M60,0h838" style="stroke: rgb(238, 238, 238); stroke-opacity: 1; stroke-width: 1px;"/><path class="ygrid crisp" transform="translate(0,372.46)" d="M60,0h838" style="stroke: rgb(238, 238, 238); stroke-opacity: 1; stroke-width: 1px;"/><path class="ygrid crisp" transform="translate(0,212.26)" d="M60,0h838" style="stroke: rgb(238, 238, 238); stroke-opacity: 1; stroke-width: 1px;"/><path class="ygrid crisp" transform="translate(0,52.06)" d="M60,0h838" style="stroke: rgb(238, 238, 238); stroke-opacity: 1; stroke-width: 1px;"/></g></g><g class="zerolinelayer"><path class="yzl zl crisp" transform="translate(0,692.85)" d="M60,0h838" style="stroke: rgb(68, 68, 68); stroke-opacity: 1; stroke-width: 1px;"/></g><path class="xlines-below"/><path class="ylines-below"/><g class="overlines-below"/><g class="xaxislayer-below"/><g class="yaxislayer-below"/><g class="overaxes-below"/><g class="plot" transform="translate(60, 25)" clip-path="url('#clip0db1a8xyplot')"><g class="scatterlayer mlayer"><g class="trace scatter trace90157d" style="stroke-miterlimit: 2; opacity: 1;"><g class="fills"/><g class="errorbars"/><g class="lines"><path class="js-line" d="M0,622.08L1.8,621.42L7.21,505.63L9.01,614.89L10.81,667.85L12.62,653.8L14.42,602.8L16.22,638.59L19.82,614.7L21.63,667.85L23.43,638.18L25.23,598.9L27.03,599.97L28.83,617.23L30.64,593.79L32.44,608L34.24,632.36L36.04,638.47L37.85,617.81L39.65,600.66L41.45,620.7L43.25,621.42L45.05,549.58L46.86,600.54L48.66,572.07L50.46,483.2L52.26,497.46L54.06,432.27L55.87,317.67L57.67,404.9L59.47,449.29L61.27,403.44L63.08,299.64L64.88,405.8L66.68,315.31L68.48,403.85L70.28,194.99L72.09,123.47L73.89,290.13L75.69,282.57L77.49,306.88L79.29,480.13L81.1,401.54L82.9,348.91L84.7,404.5L86.5,484.89L88.31,464.79L90.11,35.15L91.91,558.54L93.71,445.78L95.51,478.64L97.32,510.14L99.12,468.98L102.72,523.68L104.52,551.37L106.33,559.61L108.13,512.85L109.93,571.63L111.73,554.1L113.54,586.26L115.34,567.44L117.14,586.75L118.94,586.4L120.74,551.47L122.55,566L124.35,583.63L126.15,574.06L127.95,610.19L129.75,614.38L131.56,597.21L133.36,571.12L135.16,598.21L136.96,604.43L138.77,608.32L140.57,597.34L142.37,600.68L144.17,561.46L145.97,432.5L147.78,498.58L149.58,541.9L151.38,542.55L153.18,548.15L154.98,538.38L156.79,509.42L158.59,574.73L160.39,606.03L162.19,598.19L165.8,617.71L167.6,606.46L169.4,577.83L171.2,574.11L173.01,606.1L174.81,613.07L176.61,619.36L178.41,604.76L180.22,599.22L182.02,617.15L183.82,613.3L185.62,627.52L187.42,641.13L189.23,647.27L191.03,636.81L192.83,640.74L194.63,641.19L196.43,640.71L198.24,642.7L200.04,645.92L201.84,646.9L203.64,643.75L207.25,644.3L209.05,625.1L210.85,645.35L212.65,645.84L214.46,656.3L216.26,652.54L218.06,647.93L219.86,637.5L221.66,646.68L223.47,649.53L227.07,646L228.87,649.76L230.68,649.27L232.48,639.33L234.28,644.1L236.08,651.29L237.88,647.16L239.69,654.33L241.49,653.74L243.29,651.78L245.09,650.06L246.89,646.61L248.7,654.1L250.5,654.43L252.3,656.44L254.1,649.41L257.71,647.17L259.51,639.54L261.31,645.81L263.11,655.16L264.92,646.16L266.72,653.06L268.52,651.06L270.32,652.39L272.12,647.33L273.93,658.93L275.73,657.55L277.53,653.55L279.33,655.91L281.14,655.64L282.94,655.6L284.74,652.64L286.54,651.86L288.34,656.22L290.15,656.63L291.95,659.23L293.75,658.74L295.55,651.31L297.35,662.95L299.16,655.46L300.96,659.41L302.76,658.07L304.56,656.69L306.37,656.95L308.17,655.44L309.97,650.49L313.57,658.45L315.38,652.9L317.18,655.77L318.98,652.09L320.78,649.95L322.58,651.84L324.39,655.01L326.19,654.64L327.99,655.57L329.79,653.08L333.4,653.3L335.2,652.61L337,650.1L338.8,651.77L340.61,651.26L342.41,648.97L344.21,650.37L346.01,642.19L347.82,639.53L349.62,640.73L351.42,645.77L353.22,646.85L356.83,646.86L358.63,633.9L360.43,638.78L362.23,632.76L364.03,641.13L365.84,631.99L367.64,634.36L369.44,638.71L371.24,624.97L373.05,623.07L374.85,637.56L376.65,625.07L378.45,636.55L380.25,635.62L382.06,630.84L383.86,613.3L385.66,621.6L387.46,611.84L389.26,624.37L391.07,609.35L392.87,622.62L394.67,622.13L396.47,616.26L398.28,626.08L400.08,624.69L401.88,615.19L403.68,600.87L405.48,609.34L407.29,620.74L409.09,596.96L410.89,591.32L412.69,596.12L414.49,605.07L416.3,608.61L418.1,610.18L419.9,616.24L421.7,597.06L423.51,558.47L425.31,590.32L427.11,598.51L428.91,601.72L430.71,596.88L436.12,557.19L437.92,578.81L439.72,583.84L441.53,597.85L445.13,583.55L446.93,559.02L448.74,534.77L450.54,557.15L452.34,578.42L454.14,589.98L457.75,554.62L459.55,527.74L461.35,515.16L463.15,543.38L464.95,540.29L466.76,557.44L468.56,554.88L470.36,573.11L472.16,525L473.97,516.66L475.77,532.08L477.57,575.19L479.37,573.54L481.17,558.83L482.98,561.9L484.78,531.98L486.58,548.35L488.38,545.91L490.18,568.32L491.99,565.44L493.79,561.88L495.59,566.43L497.39,525.89L499.2,509.97L501,543.03L502.8,557.32L504.6,566.01L506.4,567.58L508.21,563.81L510.01,531.65L511.81,530.86L513.61,543.11L515.42,565.06L517.22,573.94L519.02,575.9L520.82,575.51L522.62,558.98L524.43,483.63L526.23,528.53L528.03,533.92L529.83,560.34L531.63,555.49L533.44,560.95L535.24,543.05L537.04,511.99L538.84,531.69L542.45,555.31L544.25,529.24L546.05,514.11L547.85,510.83L549.66,428.06L551.46,429L555.06,553.82L556.86,492.37L558.67,480.92L560.47,400.04L562.27,382.75L564.07,462.85L565.88,496.43L567.68,477.4L569.48,516.53L571.28,464.99L573.08,437.37L574.89,460.25L576.69,481.58L578.49,518.12L580.29,542.24L582.09,535.31L583.9,485.67L585.7,462.9L591.11,547.82L592.91,548.98L594.71,548.74L596.51,509.64L598.31,493.44L600.12,486.36L601.92,570.9L603.72,564.15L605.52,582.6L607.32,556.94L609.13,547.88L610.93,460.05L612.73,584.25L614.53,596.21L618.14,582.53L619.94,596.52L621.74,575.5L623.54,524.65L628.95,623.85L630.75,612.26L632.55,596.97L634.36,603.31L636.16,566.1L637.96,560.6L641.57,608.64L643.37,611.49L645.17,599.06L646.97,595.56L648.77,559.07L650.58,547.61L652.38,606.29L654.18,612.9L655.98,604.92L657.78,603.95L659.59,598.67L661.39,574.24L663.19,567.25L664.99,609.51L666.8,619.33L668.6,606L670.4,613L672.2,578.51L674,530.56L675.81,553.71L677.61,589.98L679.41,610.13L683.02,587.36L684.82,550.3L688.42,547.22L690.22,569.5L692.03,582.88L693.83,568.25L695.63,555.34L697.43,551.3L699.23,492.76L701.04,515.7L702.84,570.98L704.64,540.92L706.44,537.8L708.25,539.02L710.05,511.69L711.85,497.87L713.65,460.36L715.45,525.56L717.26,536.33L719.06,509.07L720.86,504.77L722.66,457.78L724.46,410.4L726.27,406.27L729.87,502.5L731.67,447.31L733.48,469.01L735.28,414.62L737.08,373.65L738.88,389L740.68,422.22L742.49,436.4L747.89,414.64L749.69,335.52L751.5,394.07L753.3,407.72L755.1,450.38L756.9,411.05L758.71,416.38L760.51,397.02L762.31,335.35L764.11,360.18L765.91,445.72L767.72,450.03L769.52,433.2L771.32,437.22L773.12,403.9L774.92,336.05L778.53,461.96L780.33,465.14L783.94,475.95L785.74,400.49L787.54,347.63L789.34,431.56L791.14,505.13L792.95,482.29L794.75,496.01L796.55,472.22L798.35,455.27L800.15,384.05L801.96,441.9L803.76,535.43L805.56,498.5L807.36,504.74L809.17,501.61L810.97,494.35L812.77,437.94L814.57,470.37L818.18,571.4L819.98,568.05L821.78,566.94L823.58,543.26L825.38,506.83" style="vector-effect: non-scaling-stroke; fill: none; stroke: rgb(31, 119, 180); stroke-opacity: 1; stroke-width: 2px; opacity: 1;"/></g><g class="points"/><g class="text"/></g><g class="trace scatter tracec659cb" style="stroke-miterlimit: 2; opacity: 1;"><g class="fills"/><g class="errorbars"/><g class="lines"><path class="js-line" d="M825.38,506.83L827.19,528L828.99,586.17L830.79,622.2L832.59,619.42L834.4,611.86L836.2,579.35L838,562.72" style="vector-effect: non-scaling-stroke; fill: none; stroke: rgb(255, 127, 14); stroke-opacity: 1; stroke-width: 2px; opacity: 1;"/></g><g class="points"/><g class="text"/></g></g></g><g class="overplot"/><path class="xlines-above crisp" style="fill: none;" d="M0,0"/><path class="ylines-above crisp" style="fill: none;" d="M0,0"/><g class="overlines-above"/><g class="xaxislayer-above"><g class="xtick"><text text-anchor="middle" x="0" y="741" transform="translate(65.41,0)" style="font-family: 'Open Sans', verdana, arial, sans-serif; font-size: 12px; fill: rgb(68, 68, 68); fill-opacity: 1; white-space: pre;">Mar 2020</text></g><g class="xtick"><text text-anchor="middle" x="0" y="741" transform="translate(175.34,0)" style="font-family: 'Open Sans', verdana, arial, sans-serif; font-size: 12px; fill: rgb(68, 68, 68); fill-opacity: 1; white-space: pre;">May 2020</text></g><g class="xtick"><text text-anchor="middle" x="0" y="741" transform="translate(285.27,0)" style="font-family: 'Open Sans', verdana, arial, sans-serif; font-size: 12px; fill: rgb(68, 68, 68); fill-opacity: 1; white-space: pre;">Jul 2020</text></g><g class="xtick"><text text-anchor="middle" x="0" y="741" transform="translate(397,0)" style="font-family: 'Open Sans', verdana, arial, sans-serif; font-size: 12px; fill: rgb(68, 68, 68); fill-opacity: 1; white-space: pre;">Sep 2020</text></g><g class="xtick"><text text-anchor="middle" x="0" y="741" transform="translate(506.93,0)" style="font-family: 'Open Sans', verdana, arial, sans-serif; font-size: 12px; fill: rgb(68, 68, 68); fill-opacity: 1; white-space: pre;">Nov 2020</text></g><g class="xtick"><text text-anchor="middle" x="0" y="741" transform="translate(616.86,0)" style="font-family: 'Open Sans', verdana, arial, sans-serif; font-size: 12px; fill: rgb(68, 68, 68); fill-opacity: 1; white-space: pre;">Jan 2021</text></g><g class="xtick"><text text-anchor="middle" x="0" y="741" transform="translate(723.19,0)" style="font-family: 'Open Sans', verdana, arial, sans-serif; font-size: 12px; fill: rgb(68, 68, 68); fill-opacity: 1; white-space: pre;">Mar 2021</text></g><g class="xtick"><text text-anchor="middle" x="0" y="741" transform="translate(833.12,0)" style="font-family: 'Open Sans', verdana, arial, sans-serif; font-size: 12px; fill: rgb(68, 68, 68); fill-opacity: 1; white-space: pre;">May 2021</text></g></g><g class="yaxislayer-above"><g class="ytick"><text text-anchor="end" x="59" y="4.199999999999999" transform="translate(0,692.85)" style="font-family: 'Open Sans', verdana, arial, sans-serif; font-size: 12px; fill: rgb(68, 68, 68); fill-opacity: 1; white-space: pre;">0</text></g><g class="ytick"><text text-anchor="end" x="59" y="4.199999999999999" transform="translate(0,532.65)" style="font-family: 'Open Sans', verdana, arial, sans-serif; font-size: 12px; fill: rgb(68, 68, 68); fill-opacity: 1; white-space: pre;">0.05</text></g><g class="ytick"><text text-anchor="end" x="59" y="4.199999999999999" transform="translate(0,372.46)" style="font-family: 'Open Sans', verdana, arial, sans-serif; font-size: 12px; fill: rgb(68, 68, 68); fill-opacity: 1; white-space: pre;">0.1</text></g><g class="ytick"><text text-anchor="end" x="59" y="4.199999999999999" transform="translate(0,212.26)" style="font-family: 'Open Sans', verdana, arial, sans-serif; font-size: 12px; fill: rgb(68, 68, 68); fill-opacity: 1; white-space: pre;">0.15</text></g><g class="ytick"><text text-anchor="end" x="59" y="4.199999999999999" transform="translate(0,52.06)" style="font-family: 'Open Sans', verdana, arial, sans-serif; font-size: 12px; fill: rgb(68, 68, 68); fill-opacity: 1; white-space: pre;">0.2</text></g></g><g class="overaxes-above"/></g></g><g class="polarlayer"/><g class="ternarylayer"/><g class="geolayer"/><g class="funnelarealayer"/><g class="pielayer"/><g class="treemaplayer"/><g class="sunburstlayer"/><g class="glimages"/><defs id="topdefs-0db1a8"><g class="clips"/><clipPath id="legend0db1a8"><rect width="102" height="48" x="0" y="0"/></clipPath></defs><g class="layer-above"><g class="imagelayer"/><g class="shapelayer"/></g><g class="infolayer"><g class="legend" pointer-events="all" transform="translate(914.76, 25)"><rect class="bg" shape-rendering="crispEdges" style="stroke: rgb(68, 68, 68); stroke-opacity: 1; fill: rgb(255, 255, 255); fill-opacity: 1; stroke-width: 0px;" width="102" height="48" x="0" y="0"/><g class="scrollbox" transform="translate(0, 0)" clip-path="url('#legend0db1a8')"><g class="groups"><g class="traces" style="opacity: 1;" transform="translate(0, 14.5)"><text class="legendtext" text-anchor="start" x="40" y="4.680000000000001" style="font-family: 'Open Sans', verdana, arial, sans-serif; font-size: 12px; fill: rgb(68, 68, 68); fill-opacity: 1; white-space: pre;">actuals</text><g class="layers" style="opacity: 1;"><g class="legendfill"/><g class="legendlines"><path class="js-line" d="M5,0h30" style="fill: none; stroke: rgb(31, 119, 180); stroke-opacity: 1; stroke-width: 2px;"/></g><g class="legendsymbols"><g class="legendpoints"/></g></g><rect class="legendtoggle" x="0" y="-9.5" width="96.21875" height="19" style="fill: rgb(0, 0, 0); fill-opacity: 0;"/></g><g class="traces" style="opacity: 1;" transform="translate(0, 33.5)"><text class="legendtext" text-anchor="start" x="40" y="4.680000000000001" style="font-family: 'Open Sans', verdana, arial, sans-serif; font-size: 12px; fill: rgb(68, 68, 68); fill-opacity: 1; white-space: pre;">forecasts</text><g class="layers" style="opacity: 1;"><g class="legendfill"/><g class="legendlines"><path class="js-line" d="M5,0h30" style="fill: none; stroke: rgb(255, 127, 14); stroke-opacity: 1; stroke-width: 2px;"/></g><g class="legendsymbols"><g class="legendpoints"/></g></g><rect class="legendtoggle" x="0" y="-9.5" width="96.21875" height="19" style="fill: rgb(0, 0, 0); fill-opacity: 0;"/></g></g></g><rect class="scrollbar" rx="20" ry="3" width="0" height="0" style="fill: rgb(128, 139, 164); fill-opacity: 1;" x="0" y="0"/></g><g class="g-gtitle"><text class="gtitle" x="513.5" y="12.5" text-anchor="middle" dy="0em" style="font-family: 'Open Sans', verdana, arial, sans-serif; font-size: 17px; fill: rgb(68, 68, 68); opacity: 1; font-weight: normal; white-space: pre;">Positive cases as proportion of tested per day as of May 31, 2021. Including a 7-day forecast of positivity rate.</text></g><g class="g-xtitle" transform="translate(0,-15)"><text class="xtitle" x="479" y="780" text-anchor="middle" style="font-family: 'Open Sans', verdana, arial, sans-serif; font-size: 14px; fill: rgb(68, 68, 68); opacity: 1; font-weight: normal; white-space: pre;">Date</text></g><g class="g-ytitle"><text class="ytitle" transform="rotate(-90,22,376.5)" x="22" y="376.5" text-anchor="middle" style="font-family: 'Open Sans', verdana, arial, sans-serif; font-size: 14px; fill: rgb(68, 68, 68); opacity: 1; font-weight: normal; white-space: pre;">ratio of positive to tested</text></g></g></svg>