<svg class="main-svg" xmlns="http://www.w3.org/2000/svg" xmlns:xlink="http://www.w3.org/1999/xlink" width="1027" height="768" style="" viewBox="0 0 1027 768"><rect x="0" y="0" width="1027" height="768" style="fill: rgb(255, 255, 255); fill-opacity: 1;"/><defs id="defs-e61dc1"><g class="clips"><clipPath id="clipe61dc1xyplot" class="plotclip"><rect width="957" height="703"/></clipPath><clipPath class="axesclip" id="clipe61dc1x"><rect x="60" y="0" width="957" height="768"/></clipPath><clipPath class="axesclip" id="clipe61dc1y"><rect x="0" y="25" width="1027" height="703"/></clipPath><clipPath class="axesclip" id="clipe61dc1xy"><rect x="60" y="25" width="957" height="703"/></clipPath></g><g class="gradients"/></defs><g class="bglayer"/><g class="layer-below"><g class="imagelayer"/><g class="shapelayer"/></g><g class="cartesianlayer"><g class="subplot xy"><g class="layer-subplot"><g class="shapelayer"/><g class="imagelayer"/></g><g class="gridlayer"><g class="x"><path class="xgrid crisp" transform="translate(72.27,0)" d="M0,25v703" style="stroke: rgb(238, 238, 238); stroke-opacity: 1; stroke-width: 1px;"/><path class="xgrid crisp" transform="translate(199.05,0)" d="M0,25v703" style="stroke: rgb(238, 238, 238); stroke-opacity: 1; stroke-width: 1px;"/><path class="xgrid crisp" transform="translate(321.74,0)" d="M0,25v703" style="stroke: rgb(238, 238, 238); stroke-opacity: 1; stroke-width: 1px;"/><path class="xgrid crisp" transform="translate(448.53,0)" d="M0,25v703" style="stroke: rgb(238, 238, 238); stroke-opacity: 1; stroke-width: 1px;"/><path class="xgrid crisp" transform="translate(571.22,0)" d="M0,25v703" style="stroke: rgb(238, 238, 238); stroke-opacity: 1; stroke-width: 1px;"/><path class="xgrid crisp" transform="translate(698,0)" d="M0,25v703" style="stroke: rgb(238, 238, 238); stroke-opacity: 1; stroke-width: 1px;"/><path class="xgrid crisp" transform="translate(824.78,0)" d="M0,25v703" style="stroke: rgb(238, 238, 238); stroke-opacity: 1; stroke-width: 1px;"/><path class="xgrid crisp" transform="translate(947.47,0)" d="M0,25v703" style="stroke: rgb(238, 238, 238); stroke-opacity: 1; stroke-width: 1px;"/></g><g class="y"><path class="ygrid crisp" transform="translate(0,532.65)" d="M60,0h957" style="stroke: rgb(238, 238, 238); stroke-opacity: 1; stroke-width: 1px;"/><path class="ygrid crisp" transform="translate(0,372.46)" d="M60,0h957" style="stroke: rgb(238, 238, 238); stroke-opacity: 1; stroke-width: 1px;"/><path class="ygrid crisp" transform="translate(0,212.26)" d="M60,0h957" style="stroke: rgb(238, 238, 238); stroke-opacity: 1; stroke-width: 1px;"/><path class="ygrid crisp" transform="translate(0,52.06)" d="M60,0h957" style="stroke: rgb(238, 238, 238); stroke-opacity: 1; stroke-width: 1px;"/></g></g><g class="zerolinelayer"><path class="yzl zl crisp" transform="translate(0,692.85)" d="M60,0h957" style="stroke: rgb(68, 68, 68); stroke-opacity: 1; stroke-width: 1px;"/></g><path class="xlines-below"/><path class="ylines-below"/><g class="overlines-below"/><g class="xaxislayer-below"/><g class="yaxislayer-below"/><g class="overaxes-below"/><g class="plot" transform="translate(60, 25)" clip-path="url('#clipe61dc1xyplot')"><g class="scatterlayer mlayer"><g class="trace scatter trace2b4e7e" style="stroke-miterlimit: 2; opacity: 1;"><g class="fills"/><g class="errorbars"/><g class="lines"><path class="js-line" d="M0,622.08L4.09,621.42L16.36,505.63L20.45,614.89L24.54,667.85L28.63,653.8L32.72,602.8L36.81,638.59L44.99,614.7L49.08,667.85L53.17,638.18L57.26,598.9L61.35,599.97L65.44,617.23L69.53,593.79L73.62,608L77.71,632.36L81.79,638.47L85.88,617.81L89.97,600.66L94.06,620.7L98.15,621.42L102.24,549.58L106.33,600.54L110.42,572.07L114.51,483.2L118.6,497.46L122.69,432.27L126.78,317.67L130.87,404.9L134.96,449.29L139.05,403.44L143.14,299.64L147.23,405.8L151.32,315.31L155.41,403.85L159.5,194.99L163.59,123.47L167.68,290.13L171.77,282.57L175.86,306.88L179.95,480.13L184.04,401.54L188.13,348.91L192.22,404.5L196.31,484.89L200.4,464.79L204.49,35.15L208.58,558.54L212.67,445.78L216.76,478.64L220.85,510.14L224.94,468.98L229.03,501.07L233.12,523.68L237.21,551.37L241.29,559.61L245.38,512.85L249.47,571.63L253.56,554.1L257.65,586.26L261.74,567.44L265.83,586.75L269.92,586.4L274.01,551.47L278.1,566L282.19,583.63L286.28,574.06L290.37,610.19L294.46,614.38L298.55,597.21L302.64,571.12L306.73,598.21L310.82,604.43L314.91,608.32L319,597.34L323.09,600.68L327.18,561.46L331.27,432.5L335.36,498.58L339.45,541.9L343.54,542.55L347.63,548.15L351.72,538.38L355.81,509.42L359.9,574.73L363.99,606.03L368.08,598.19L372.17,608.35L376.26,617.71L380.35,606.46L384.44,577.83L388.53,574.11L392.62,606.1L396.71,613.07L400.79,619.36L404.88,604.76L408.97,599.22L413.06,617.15L417.15,613.3L421.24,627.52L425.33,641.13L429.42,647.27L433.51,636.81L437.6,640.74L441.69,641.19L445.78,640.71L449.87,642.7L453.96,645.92L458.05,646.9L462.14,643.75L470.32,644.3L474.41,625.1L478.5,645.35L482.59,645.84L486.68,656.3L490.77,652.54L494.86,647.93L498.95,637.5L503.04,646.68L507.13,649.53L515.31,646L519.4,649.76L523.49,649.27L527.58,639.33L531.67,644.1L535.76,651.29L539.85,647.16L543.94,654.33L548.03,653.74L552.12,651.78L556.21,650.06L560.29,646.61L564.38,654.1L568.47,654.43L572.56,656.44L576.65,649.41L584.83,647.17L588.92,639.54L593.01,645.81L597.1,655.16L601.19,646.16L605.28,653.06L609.37,651.06L613.46,652.39L617.55,647.33L621.64,658.93L625.73,657.55L629.82,653.55L633.91,655.91L638,655.64L642.09,655.6L646.18,652.64L650.27,651.86L654.36,656.22L658.45,656.63L662.54,659.23L666.63,658.74L670.72,651.31L674.81,662.95L678.9,655.46L682.99,659.41L687.08,658.07L691.17,656.69L695.26,656.95L699.35,655.44L703.44,650.49L707.53,655.11L711.62,658.45L715.71,652.9L719.79,655.77L723.88,652.09L727.97,649.95L732.06,651.84L736.15,655.01L740.24,654.64L744.33,655.57L748.42,653.08L752.51,653.48L760.69,652.61L764.78,650.1L768.87,651.77L772.96,651.26L777.05,648.97L781.14,650.37L785.23,642.19L789.32,639.53L793.41,640.73L797.5,645.77L801.59,646.85L805.68,646.98L809.77,646.86L813.86,633.9L817.95,638.78L822.04,632.76L826.13,641.13L830.22,631.99L834.31,634.36L838.4,638.71L842.49,624.97L846.58,623.07L850.67,637.56L854.76,625.07L858.85,636.55L862.94,635.62L867.03,630.84L871.12,613.3L875.21,621.6L879.29,611.84L883.38,624.37L887.47,609.35L891.56,622.62L895.65,622.13L899.74,616.26L903.83,626.08L907.92,624.69L912.01,615.19L916.1,600.87L920.19,609.34L924.28,620.74L928.37,596.96L932.46,591.32L936.55,596.12L940.64,605.07L944.73,608.61L948.82,610.18L952.91,616.24L957,597.06" style="vector-effect: non-scaling-stroke; fill: none; stroke: rgb(31, 119, 180); stroke-opacity: 1; stroke-width: 2px; opacity: 1;"/></g><g class="points"/><g class="text"/></g></g></g><g class="overplot"/><path class="xlines-above crisp" d="M0,0" style="fill: none;"/><path class="ylines-above crisp" d="M0,0" style="fill: none;"/><g class="overlines-above"/><g class="xaxislayer-above"><g class="xtick"><text text-anchor="middle" x="0" y="741" transform="translate(72.27,0)" style="font-family: 'Open Sans', verdana, arial, sans-serif; font-size: 12px; fill: rgb(68, 68, 68); fill-opacity: 1; white-space: pre;">Mar 2020</text></g><g class="xtick"><text text-anchor="middle" x="0" y="741" transform="translate(199.05,0)" style="font-family: 'Open Sans', verdana, arial, sans-serif; font-size: 12px; fill: rgb(68, 68, 68); fill-opacity: 1; white-space: pre;">Apr 2020</text></g><g class="xtick"><text text-anchor="middle" x="0" y="741" transform="translate(321.74,0)" style="font-family: 'Open Sans', verdana, arial, sans-serif; font-size: 12px; fill: rgb(68, 68, 68); fill-opacity: 1; white-space: pre;">May 2020</text></g><g class="xtick"><text text-anchor="middle" x="0" y="741" transform="translate(448.53,0)" style="font-family: 'Open Sans', verdana, arial, sans-serif; font-size: 12px; fill: rgb(68, 68, 68); fill-opacity: 1; white-space: pre;">Jun 2020</text></g><g class="xtick"><text text-anchor="middle" x="0" y="741" transform="translate(571.22,0)" style="font-family: 'Open Sans', verdana, arial, sans-serif; font-size: 12px; fill: rgb(68, 68, 68); fill-opacity: 1; white-space: pre;">Jul 2020</text></g><g class="xtick"><text text-anchor="middle" x="0" y="741" transform="translate(698,0)" style="font-family: 'Open Sans', verdana, arial, sans-serif; font-size: 12px; fill: rgb(68, 68, 68); fill-opacity: 1; white-space: pre;">Aug 2020</text></g><g class="xtick"><text text-anchor="middle" x="0" y="741" transform="translate(824.78,0)" style="font-family: 'Open Sans', verdana, arial, sans-serif; font-size: 12px; fill: rgb(68, 68, 68); fill-opacity: 1; white-space: pre;">Sep 2020</text></g><g class="xtick"><text text-anchor="middle" x="0" y="741" transform="translate(947.47,0)" style="font-family: 'Open Sans', verdana, arial, sans-serif; font-size: 12px; fill: rgb(68, 68, 68); fill-opacity: 1; white-space: pre;">Oct 2020</text></g></g><g class="yaxislayer-above"><g class="ytick"><text text-anchor="end" x="59" y="4.199999999999999" transform="translate(0,692.85)" style="font-family: 'Open Sans', verdana, arial, sans-serif; font-size: 12px; fill: rgb(68, 68, 68); fill-opacity: 1; white-space: pre;">0</text></g><g class="ytick"><text text-anchor="end" x="59" y="4.199999999999999" transform="translate(0,532.65)" style="font-family: 'Open Sans', verdana, arial, sans-serif; font-size: 12px; fill: rgb(68, 68, 68); fill-opacity: 1; white-space: pre;">0.05</text></g><g class="ytick"><text text-anchor="end" x="59" y="4.199999999999999" transform="translate(0,372.46)" style="font-family: 'Open Sans', verdana, arial, sans-serif; font-size: 12px; fill: rgb(68, 68, 68); fill-opacity: 1; white-space: pre;">0.1</text></g><g class="ytick"><text text-anchor="end" x="59" y="4.199999999999999" transform="translate(0,212.26)" style="font-family: 'Open Sans', verdana, arial, sans-serif; font-size: 12px; fill: rgb(68, 68, 68); fill-opacity: 1; white-space: pre;">0.15</text></g><g class="ytick"><text text-anchor="end" x="59" y="4.199999999999999" transform="translate(0,52.06)" style="font-family: 'Open Sans', verdana, arial, sans-serif; font-size: 12px; fill: rgb(68, 68, 68); fill-opacity: 1; white-space: pre;">0.2</text></g></g><g class="overaxes-above"/></g></g><g class="polarlayer"/><g class="ternarylayer"/><g class="geolayer"/><g class="funnelarealayer"/><g class="pielayer"/><g class="treemaplayer"/><g class="sunburstlayer"/><g class="glimages"/><defs id="topdefs-e61dc1"><g class="clips"/></defs><g class="layer-above"><g class="imagelayer"/><g class="shapelayer"/></g><g class="infolayer"><g class="g-gtitle"><text class="gtitle" x="513.5" y="12.5" text-anchor="middle" dy="0em" style="font-family: 'Open Sans', verdana, arial, sans-serif; font-size: 17px; fill: rgb(68, 68, 68); opacity: 1; font-weight: normal; white-space: pre;">Positive cases as proportion of tested per day as of Oct 19, 2020</text></g><g class="g-xtitle" transform="translate(0,-15)"><text class="xtitle" x="538.5" y="780" text-anchor="middle" style="font-family: 'Open Sans', verdana, arial, sans-serif; font-size: 14px; fill: rgb(68, 68, 68); opacity: 1; font-weight: normal; white-space: pre;">Date</text></g><g class="g-ytitle"><text class="ytitle" transform="rotate(-90,22,376.5)" x="22" y="376.5" text-anchor="middle" style="font-family: 'Open Sans', verdana, arial, sans-serif; font-size: 14px; fill: rgb(68, 68, 68); opacity: 1; font-weight: normal; white-space: pre;">ratio of positive to tested</text></g></g></svg>