<svg class="main-svg" xmlns="http://www.w3.org/2000/svg" xmlns:xlink="http://www.w3.org/1999/xlink" width="1027" height="768" style="" viewBox="0 0 1027 768"><rect x="0" y="0" width="1027" height="768" style="fill: rgb(255, 255, 255); fill-opacity: 1;"/><defs id="defs-550c18"><g class="clips"><clipPath id="clip550c18xyplot" class="plotclip"><rect width="838" height="703"/></clipPath><clipPath class="axesclip" id="clip550c18x"><rect x="60" y="0" width="838" height="768"/></clipPath><clipPath class="axesclip" id="clip550c18y"><rect x="0" y="25" width="1027" height="703"/></clipPath><clipPath class="axesclip" id="clip550c18xy"><rect x="60" y="25" width="838" height="703"/></clipPath></g><g class="gradients"/></defs><g class="bglayer"/><g class="layer-below"><g class="imagelayer"/><g class="shapelayer"/></g><g class="cartesianlayer"><g class="subplot xy"><g class="layer-subplot"><g class="shapelayer"/><g class="imagelayer"/></g><g class="gridlayer"><g class="x"><path class="xgrid crisp" transform="translate(66.06,0)" d="M0,25v703" style="stroke: rgb(238, 238, 238); stroke-opacity: 1; stroke-width: 1px;"/><path class="xgrid crisp" transform="translate(189.23,0)" d="M0,25v703" style="stroke: rgb(238, 238, 238); stroke-opacity: 1; stroke-width: 1px;"/><path class="xgrid crisp" transform="translate(312.40999999999997,0)" d="M0,25v703" style="stroke: rgb(238, 238, 238); stroke-opacity: 1; stroke-width: 1px;"/><path class="xgrid crisp" transform="translate(437.6,0)" d="M0,25v703" style="stroke: rgb(238, 238, 238); stroke-opacity: 1; stroke-width: 1px;"/><path class="xgrid crisp" transform="translate(560.78,0)" d="M0,25v703" style="stroke: rgb(238, 238, 238); stroke-opacity: 1; stroke-width: 1px;"/><path class="xgrid crisp" transform="translate(683.96,0)" d="M0,25v703" style="stroke: rgb(238, 238, 238); stroke-opacity: 1; stroke-width: 1px;"/><path class="xgrid crisp" transform="translate(803.09,0)" d="M0,25v703" style="stroke: rgb(238, 238, 238); stroke-opacity: 1; stroke-width: 1px;"/></g><g class="y"><path class="ygrid crisp" transform="translate(0,532.65)" d="M60,0h838" style="stroke: rgb(238, 238, 238); stroke-opacity: 1; stroke-width: 1px;"/><path class="ygrid crisp" transform="translate(0,372.46)" d="M60,0h838" style="stroke: rgb(238, 238, 238); stroke-opacity: 1; stroke-width: 1px;"/><path class="ygrid crisp" transform="translate(0,212.26)" d="M60,0h838" style="stroke: rgb(238, 238, 238); stroke-opacity: 1; stroke-width: 1px;"/><path class="ygrid crisp" transform="translate(0,52.06)" d="M60,0h838" style="stroke: rgb(238, 238, 238); stroke-opacity: 1; stroke-width: 1px;"/></g></g><g class="zerolinelayer"><path class="yzl zl crisp" transform="translate(0,692.85)" d="M60,0h838" style="stroke: rgb(68, 68, 68); stroke-opacity: 1; stroke-width: 1px;"/></g><path class="xlines-below"/><path class="ylines-below"/><g class="overlines-below"/><g class="xaxislayer-below"/><g class="yaxislayer-below"/><g class="overaxes-below"/><g class="plot" transform="translate(60, 25)" clip-path="url('#clip550c18xyplot')"><g class="scatterlayer mlayer"><g class="trace scatter tracec115da" style="stroke-miterlimit: 2; opacity: 1;"><g class="fills"/><g class="errorbars"/><g class="lines"><path class="js-line" d="M0,622.08L2.02,621.42L8.08,505.63L10.1,614.89L12.12,667.85L14.13,653.8L16.15,602.8L18.17,638.59L22.21,614.7L24.23,667.85L26.25,638.18L28.27,598.9L30.29,599.97L32.31,617.23L34.33,593.79L36.35,608L38.37,632.36L40.39,638.47L42.4,617.81L44.42,600.66L46.44,620.7L48.46,621.42L50.48,549.58L52.5,600.54L54.52,572.07L56.54,483.2L58.56,497.46L60.58,432.27L62.6,317.67L64.62,404.9L66.64,449.29L68.66,403.44L70.67,299.64L72.69,405.8L74.71,315.31L76.73,403.85L78.75,194.99L80.77,123.47L82.79,290.13L84.81,282.57L86.83,306.88L88.85,480.13L90.87,401.54L92.89,348.91L94.91,404.5L96.93,484.89L98.94,464.79L100.96,35.15L102.98,558.54L105,445.78L107.02,478.64L109.04,510.14L111.06,468.98L115.1,523.68L117.12,551.37L119.14,559.61L121.16,512.85L123.18,571.63L125.2,554.1L127.21,586.26L129.23,567.44L131.25,586.75L133.27,586.4L135.29,551.47L137.31,566L139.33,583.63L141.35,574.06L143.37,610.19L145.39,614.38L147.41,597.21L149.43,571.12L151.45,598.21L153.47,604.43L155.48,608.32L157.5,597.34L159.52,600.68L161.54,561.46L163.56,432.5L165.58,498.58L167.6,541.9L169.62,542.55L171.64,548.15L173.66,538.38L175.68,509.42L177.7,574.73L179.72,606.03L181.73,598.19L185.77,617.71L187.79,606.46L189.81,577.83L191.83,574.11L193.85,606.1L195.87,613.07L197.89,619.36L199.91,604.76L201.93,599.22L203.95,617.15L205.97,613.3L207.99,627.52L210,641.13L212.02,647.27L214.04,636.81L216.06,640.74L218.08,641.19L220.1,640.71L222.12,642.7L224.14,645.92L226.16,646.9L228.18,643.75L232.22,644.3L234.24,625.1L236.26,645.35L238.27,645.84L240.29,656.3L242.31,652.54L244.33,647.93L246.35,637.5L248.37,646.68L250.39,649.53L254.43,646L256.45,649.76L258.47,649.27L260.49,639.33L262.51,644.1L264.53,651.29L266.54,647.16L268.56,654.33L270.58,653.74L272.6,651.78L274.62,650.06L276.64,646.61L278.66,654.1L280.68,654.43L282.7,656.44L284.72,649.41L288.76,647.17L290.78,639.54L292.8,645.81L294.81,655.16L296.83,646.16L298.85,653.06L300.87,651.06L302.89,652.39L304.91,647.33L306.93,658.93L308.95,657.55L310.97,653.55L312.99,655.91L315.01,655.64L317.03,655.6L319.05,652.64L321.07,651.86L323.08,656.22L325.1,656.63L327.12,659.23L329.14,658.74L331.16,651.31L333.18,662.95L335.2,655.46L337.22,659.41L339.24,658.07L341.26,656.69L343.28,656.95L345.3,655.44L347.32,650.49L351.35,658.45L353.37,652.9L355.39,655.77L357.41,652.09L359.43,649.95L361.45,651.84L363.47,655.01L365.49,654.64L367.51,655.57L369.53,653.08L373.57,653.3L375.59,652.61L377.6,650.1L379.62,651.77L381.64,651.26L383.66,648.97L385.68,650.37L387.7,642.19L389.72,639.53L391.74,640.73L393.76,645.77L395.78,646.85L399.82,646.86L401.84,633.9L403.86,638.78L405.87,632.76L407.89,641.13L409.91,631.99L411.93,634.36L413.95,638.71L415.97,624.97L417.99,623.07L420.01,637.56L422.03,625.07L424.05,636.55L426.07,635.62L428.09,630.84L430.11,613.3L432.13,621.6L434.14,611.84L436.16,624.37L438.18,609.35L440.2,622.62L442.22,622.13L444.24,616.26L446.26,626.08L448.28,624.69L450.3,615.19L452.32,600.87L454.34,609.34L456.36,620.74L458.38,596.96L460.4,591.32L462.41,596.12L464.43,605.07L466.45,608.61L468.47,610.18L470.49,616.24L472.51,597.06L474.53,558.47L476.55,590.32L478.57,598.51L480.59,601.72L482.61,596.88L484.63,581.74L486.65,572.69L488.67,557.19L490.68,578.81L492.7,583.84L494.72,597.85L498.76,583.55L500.78,559.02L502.8,534.77L504.82,557.15L506.84,578.42L508.86,589.98L510.88,575.25L512.9,554.62L514.92,527.74L516.93,515.16L518.95,543.38L520.97,540.29L522.99,557.44L525.01,554.88L527.03,573.11L529.05,525L531.07,516.66L533.09,532.08L535.11,575.19L537.13,573.54L539.15,558.83L541.17,561.9L543.19,531.98L545.2,548.35L547.22,545.91L549.24,568.32L553.28,561.88L555.3,566.43L557.32,525.89L559.34,509.97L561.36,543.03L563.38,557.32L565.4,566.01L567.42,567.58L569.44,563.81L571.46,531.65L573.47,530.86L575.49,543.11L577.51,565.06L579.53,573.94L581.55,575.9L583.57,575.51L585.59,558.98L587.61,483.63L589.63,528.53L591.65,533.92L593.67,560.34L595.69,555.49L597.71,560.95L599.73,543.05L601.74,511.99L603.76,531.69L605.78,546.47L607.8,555.31L609.82,529.24L611.84,514.11L613.86,510.83L615.88,428.06L617.9,429L619.92,500.87L621.94,553.82L623.96,492.37L625.98,480.92L628,400.04L630.01,382.75L632.03,462.85L634.05,496.43L636.07,477.4L638.09,516.53L640.11,464.99L642.13,437.37L644.15,460.25L646.17,481.58L648.19,518.12L650.21,542.24L652.23,535.31L654.25,485.67L656.27,462.9L662.32,547.82L664.34,548.98L666.36,548.74L668.38,509.64L670.4,493.44L672.42,486.36L674.44,570.9L676.46,564.15L678.48,582.6L680.5,556.94L682.52,547.88L684.53,460.05L686.55,584.25L688.57,596.21L692.61,582.53L694.63,596.52L696.65,575.5L698.67,524.65L702.71,602.43L704.73,623.85L708.77,596.97L710.79,603.31L712.8,566.1L714.82,560.6L718.86,608.64L720.88,611.49L722.9,599.06L724.92,595.56L726.94,559.07L728.96,547.61L730.98,606.29L733,612.9L735.02,604.92L737.04,603.95L739.06,598.67L741.07,574.24L743.09,567.25L745.11,609.51L747.13,619.33L749.15,606L751.17,613L753.19,578.51L755.21,530.56L757.23,553.71L759.25,589.98L761.27,610.13L765.31,587.36L767.33,550.3L771.36,547.22L773.38,569.5L775.4,582.88L777.42,568.25L779.44,555.34L781.46,551.3L783.48,492.76L785.5,515.7L787.52,570.98L789.54,540.92L791.56,537.8L793.58,539.02L795.6,511.69L797.61,497.87L799.63,460.36L801.65,525.56L803.67,536.33L805.69,509.07L807.71,504.77L809.73,457.78L811.75,410.4L813.77,406.27L817.81,502.5L819.83,447.31L821.85,469.01L823.87,414.62" style="vector-effect: non-scaling-stroke; fill: none; stroke: rgb(31, 119, 180); stroke-opacity: 1; stroke-width: 2px; opacity: 1;"/></g><g class="points"/><g class="text"/></g><g class="trace scatter traceded9da" style="stroke-miterlimit: 2; opacity: 1;"><g class="fills"/><g class="errorbars"/><g class="lines"><path class="js-line" d="M823.87,414.62L825.88,395.84L827.9,399.85L829.92,444.3L831.94,450.78L833.96,456.64L835.98,430.31L838,402.41" style="vector-effect: non-scaling-stroke; fill: none; stroke: rgb(255, 127, 14); stroke-opacity: 1; stroke-width: 2px; opacity: 1;"/></g><g class="points"/><g class="text"/></g></g></g><g class="overplot"/><path class="xlines-above crisp" style="fill: none;" d="M0,0"/><path class="ylines-above crisp" style="fill: none;" d="M0,0"/><g class="overlines-above"/><g class="xaxislayer-above"><g class="xtick"><text text-anchor="middle" x="0" y="741" transform="translate(66.06,0)" style="font-family: 'Open Sans', verdana, arial, sans-serif; font-size: 12px; fill: rgb(68, 68, 68); fill-opacity: 1; white-space: pre;">Mar 2020</text></g><g class="xtick"><text text-anchor="middle" x="0" y="741" transform="translate(189.23,0)" style="font-family: 'Open Sans', verdana, arial, sans-serif; font-size: 12px; fill: rgb(68, 68, 68); fill-opacity: 1; white-space: pre;">May 2020</text></g><g class="xtick"><text text-anchor="middle" x="0" y="741" transform="translate(312.40999999999997,0)" style="font-family: 'Open Sans', verdana, arial, sans-serif; font-size: 12px; fill: rgb(68, 68, 68); fill-opacity: 1; white-space: pre;">Jul 2020</text></g><g class="xtick"><text text-anchor="middle" x="0" y="741" transform="translate(437.6,0)" style="font-family: 'Open Sans', verdana, arial, sans-serif; font-size: 12px; fill: rgb(68, 68, 68); fill-opacity: 1; white-space: pre;">Sep 2020</text></g><g class="xtick"><text text-anchor="middle" x="0" y="741" transform="translate(560.78,0)" style="font-family: 'Open Sans', verdana, arial, sans-serif; font-size: 12px; fill: rgb(68, 68, 68); fill-opacity: 1; white-space: pre;">Nov 2020</text></g><g class="xtick"><text text-anchor="middle" x="0" y="741" transform="translate(683.96,0)" style="font-family: 'Open Sans', verdana, arial, sans-serif; font-size: 12px; fill: rgb(68, 68, 68); fill-opacity: 1; white-space: pre;">Jan 2021</text></g><g class="xtick"><text text-anchor="middle" x="0" y="741" transform="translate(803.09,0)" style="font-family: 'Open Sans', verdana, arial, sans-serif; font-size: 12px; fill: rgb(68, 68, 68); fill-opacity: 1; white-space: pre;">Mar 2021</text></g></g><g class="yaxislayer-above"><g class="ytick"><text text-anchor="end" x="59" y="4.199999999999999" transform="translate(0,692.85)" style="font-family: 'Open Sans', verdana, arial, sans-serif; font-size: 12px; fill: rgb(68, 68, 68); fill-opacity: 1; white-space: pre;">0</text></g><g class="ytick"><text text-anchor="end" x="59" y="4.199999999999999" transform="translate(0,532.65)" style="font-family: 'Open Sans', verdana, arial, sans-serif; font-size: 12px; fill: rgb(68, 68, 68); fill-opacity: 1; white-space: pre;">0.05</text></g><g class="ytick"><text text-anchor="end" x="59" y="4.199999999999999" transform="translate(0,372.46)" style="font-family: 'Open Sans', verdana, arial, sans-serif; font-size: 12px; fill: rgb(68, 68, 68); fill-opacity: 1; white-space: pre;">0.1</text></g><g class="ytick"><text text-anchor="end" x="59" y="4.199999999999999" transform="translate(0,212.26)" style="font-family: 'Open Sans', verdana, arial, sans-serif; font-size: 12px; fill: rgb(68, 68, 68); fill-opacity: 1; white-space: pre;">0.15</text></g><g class="ytick"><text text-anchor="end" x="59" y="4.199999999999999" transform="translate(0,52.06)" style="font-family: 'Open Sans', verdana, arial, sans-serif; font-size: 12px; fill: rgb(68, 68, 68); fill-opacity: 1; white-space: pre;">0.2</text></g></g><g class="overaxes-above"/></g></g><g class="polarlayer"/><g class="ternarylayer"/><g class="geolayer"/><g class="funnelarealayer"/><g class="pielayer"/><g class="treemaplayer"/><g class="sunburstlayer"/><g class="glimages"/><defs id="topdefs-550c18"><g class="clips"/><clipPath id="legend550c18"><rect width="102" height="48" x="0" y="0"/></clipPath></defs><g class="layer-above"><g class="imagelayer"/><g class="shapelayer"/></g><g class="infolayer"><g class="legend" pointer-events="all" transform="translate(914.76, 25)"><rect class="bg" shape-rendering="crispEdges" style="stroke: rgb(68, 68, 68); stroke-opacity: 1; fill: rgb(255, 255, 255); fill-opacity: 1; stroke-width: 0px;" width="102" height="48" x="0" y="0"/><g class="scrollbox" transform="translate(0, 0)" clip-path="url('#legend550c18')"><g class="groups"><g class="traces" style="opacity: 1;" transform="translate(0, 14.5)"><text class="legendtext" text-anchor="start" x="40" y="4.680000000000001" style="font-family: 'Open Sans', verdana, arial, sans-serif; font-size: 12px; fill: rgb(68, 68, 68); fill-opacity: 1; white-space: pre;">actuals</text><g class="layers" style="opacity: 1;"><g class="legendfill"/><g class="legendlines"><path class="js-line" d="M5,0h30" style="fill: none; stroke: rgb(31, 119, 180); stroke-opacity: 1; stroke-width: 2px;"/></g><g class="legendsymbols"><g class="legendpoints"/></g></g><rect class="legendtoggle" x="0" y="-9.5" width="96.21875" height="19" style="fill: rgb(0, 0, 0); fill-opacity: 0;"/></g><g class="traces" style="opacity: 1;" transform="translate(0, 33.5)"><text class="legendtext" text-anchor="start" x="40" y="4.680000000000001" style="font-family: 'Open Sans', verdana, arial, sans-serif; font-size: 12px; fill: rgb(68, 68, 68); fill-opacity: 1; white-space: pre;">forecasts</text><g class="layers" style="opacity: 1;"><g class="legendfill"/><g class="legendlines"><path class="js-line" d="M5,0h30" style="fill: none; stroke: rgb(255, 127, 14); stroke-opacity: 1; stroke-width: 2px;"/></g><g class="legendsymbols"><g class="legendpoints"/></g></g><rect class="legendtoggle" x="0" y="-9.5" width="96.21875" height="19" style="fill: rgb(0, 0, 0); fill-opacity: 0;"/></g></g></g><rect class="scrollbar" rx="20" ry="3" width="0" height="0" style="fill: rgb(128, 139, 164); fill-opacity: 1;" x="0" y="0"/></g><g class="g-gtitle"><text class="gtitle" x="513.5" y="12.5" text-anchor="middle" dy="0em" style="font-family: 'Open Sans', verdana, arial, sans-serif; font-size: 17px; fill: rgb(68, 68, 68); opacity: 1; font-weight: normal; white-space: pre;">Positive cases as proportion of tested per day as of Apr 11, 2021. Including a 7-day forecast of positivity rate.</text></g><g class="g-xtitle" transform="translate(0,-15)"><text class="xtitle" x="479" y="780" text-anchor="middle" style="font-family: 'Open Sans', verdana, arial, sans-serif; font-size: 14px; fill: rgb(68, 68, 68); opacity: 1; font-weight: normal; white-space: pre;">Date</text></g><g class="g-ytitle"><text class="ytitle" transform="rotate(-90,22,376.5)" x="22" y="376.5" text-anchor="middle" style="font-family: 'Open Sans', verdana, arial, sans-serif; font-size: 14px; fill: rgb(68, 68, 68); opacity: 1; font-weight: normal; white-space: pre;">ratio of positive to tested</text></g></g></svg>