<svg class="main-svg" xmlns="http://www.w3.org/2000/svg" xmlns:xlink="http://www.w3.org/1999/xlink" width="1027" height="768" style="" viewBox="0 0 1027 768"><rect x="0" y="0" width="1027" height="768" style="fill: rgb(255, 255, 255); fill-opacity: 1;"/><defs id="defs-d90cab"><g class="clips"><clipPath id="clipd90cabxyplot" class="plotclip"><rect width="957" height="703"/></clipPath><clipPath class="axesclip" id="clipd90cabx"><rect x="60" y="0" width="957" height="768"/></clipPath><clipPath class="axesclip" id="clipd90caby"><rect x="0" y="25" width="1027" height="703"/></clipPath><clipPath class="axesclip" id="clipd90cabxy"><rect x="60" y="25" width="957" height="703"/></clipPath></g><g class="gradients"/></defs><g class="bglayer"/><g class="layer-below"><g class="imagelayer"/><g class="shapelayer"/></g><g class="cartesianlayer"><g class="subplot xy"><g class="layer-subplot"><g class="shapelayer"/><g class="imagelayer"/></g><g class="gridlayer"><g class="x"><path class="xgrid crisp" transform="translate(73.28999999999999,0)" d="M0,25v703" style="stroke: rgb(238, 238, 238); stroke-opacity: 1; stroke-width: 1px;"/><path class="xgrid crisp" transform="translate(210.64,0)" d="M0,25v703" style="stroke: rgb(238, 238, 238); stroke-opacity: 1; stroke-width: 1px;"/><path class="xgrid crisp" transform="translate(343.56,0)" d="M0,25v703" style="stroke: rgb(238, 238, 238); stroke-opacity: 1; stroke-width: 1px;"/><path class="xgrid crisp" transform="translate(480.9,0)" d="M0,25v703" style="stroke: rgb(238, 238, 238); stroke-opacity: 1; stroke-width: 1px;"/><path class="xgrid crisp" transform="translate(613.82,0)" d="M0,25v703" style="stroke: rgb(238, 238, 238); stroke-opacity: 1; stroke-width: 1px;"/><path class="xgrid crisp" transform="translate(751.17,0)" d="M0,25v703" style="stroke: rgb(238, 238, 238); stroke-opacity: 1; stroke-width: 1px;"/><path class="xgrid crisp" transform="translate(888.51,0)" d="M0,25v703" style="stroke: rgb(238, 238, 238); stroke-opacity: 1; stroke-width: 1px;"/></g><g class="y"><path class="ygrid crisp" transform="translate(0,532.65)" d="M60,0h957" style="stroke: rgb(238, 238, 238); stroke-opacity: 1; stroke-width: 1px;"/><path class="ygrid crisp" transform="translate(0,372.46)" d="M60,0h957" style="stroke: rgb(238, 238, 238); stroke-opacity: 1; stroke-width: 1px;"/><path class="ygrid crisp" transform="translate(0,212.26)" d="M60,0h957" style="stroke: rgb(238, 238, 238); stroke-opacity: 1; stroke-width: 1px;"/><path class="ygrid crisp" transform="translate(0,52.06)" d="M60,0h957" style="stroke: rgb(238, 238, 238); stroke-opacity: 1; stroke-width: 1px;"/></g></g><g class="zerolinelayer"><path class="yzl zl crisp" transform="translate(0,692.85)" d="M60,0h957" style="stroke: rgb(68, 68, 68); stroke-opacity: 1; stroke-width: 1px;"/></g><path class="xlines-below"/><path class="ylines-below"/><g class="overlines-below"/><g class="xaxislayer-below"/><g class="yaxislayer-below"/><g class="overaxes-below"/><g class="plot" transform="translate(60, 25)" clip-path="url('#clipd90cabxyplot')"><g class="scatterlayer mlayer"><g class="trace scatter traceca6ac2" style="stroke-miterlimit: 2; opacity: 1;"><g class="fills"/><g class="errorbars"/><g class="lines"><path class="js-line" d="M0,622.08L4.43,621.42L17.72,505.63L22.15,614.89L26.58,667.85L31.01,653.8L35.44,602.8L39.88,638.59L48.74,614.7L53.17,667.85L57.6,638.18L62.03,598.9L66.46,599.97L70.89,617.23L75.32,593.79L79.75,608L84.18,632.36L88.61,638.47L93.04,617.81L97.47,600.66L101.9,620.7L106.33,621.42L110.76,549.58L115.19,600.54L119.63,572.07L124.06,483.2L128.49,497.46L132.92,432.27L137.35,317.67L141.78,404.9L146.21,449.29L150.64,403.44L155.07,299.64L159.5,405.8L163.93,315.31L168.36,403.85L172.79,194.99L177.22,123.47L181.65,290.13L186.08,282.57L190.51,306.88L194.94,480.13L199.38,401.54L203.81,348.91L208.24,404.5L212.67,484.89L217.1,464.79L221.53,35.15L225.96,558.54L230.39,445.78L234.82,478.64L239.25,510.14L243.68,468.98L248.11,501.07L252.54,523.68L256.97,551.37L261.4,559.61L265.83,512.85L270.26,571.63L274.69,554.1L279.13,586.26L283.56,567.44L287.99,586.75L292.42,586.4L296.85,551.47L301.28,566L305.71,583.63L310.14,574.06L314.57,610.19L319,614.38L323.43,597.21L327.86,571.12L332.29,598.21L336.72,604.43L341.15,608.32L345.58,597.34L350.01,600.68L354.44,561.46L358.88,432.5L363.31,498.58L367.74,541.9L372.17,542.55L376.6,548.15L381.03,538.38L385.46,509.42L389.89,574.73L394.32,606.03L398.75,598.19L403.18,608.35L407.61,617.71L412.04,606.46L416.47,577.83L420.9,574.11L425.33,606.1L429.76,613.07L434.19,619.36L438.63,604.76L443.06,599.22L447.49,617.15L451.92,613.3L456.35,627.52L460.78,641.13L465.21,647.27L469.64,636.81L474.07,640.74L478.5,641.19L482.93,640.71L487.36,642.7L491.79,645.92L496.22,646.9L500.65,643.75L509.51,644.3L513.94,625.1L518.38,645.35L522.81,645.84L527.24,656.3L531.67,652.54L536.1,647.93L540.53,637.5L544.96,646.68L549.39,649.53L558.25,646L562.68,649.76L567.11,649.27L571.54,639.33L575.97,644.1L580.4,651.29L584.83,647.16L589.26,654.33L593.69,653.74L598.13,651.78L602.56,650.06L606.99,646.61L611.42,654.1L615.85,654.43L620.28,656.44L624.71,649.41L633.57,647.17L638,639.54L642.43,645.81L646.86,655.16L651.29,646.16L655.72,653.06L660.15,651.06L664.58,652.39L669.01,647.33L673.44,658.93L677.88,657.55L682.31,653.55L686.74,655.91L691.17,655.64L695.6,655.6L700.03,652.64L704.46,651.86L708.89,656.22L713.32,656.63L717.75,659.23L722.18,658.74L726.61,651.31L731.04,662.95L735.47,655.46L739.9,659.41L744.33,658.07L748.76,656.69L753.19,656.95L757.63,655.44L762.06,650.49L766.49,655.11L770.92,658.45L775.35,652.9L779.78,655.77L784.21,652.09L788.64,649.95L793.07,651.84L797.5,655.01L801.93,654.64L806.36,655.57L810.79,653.08L815.22,653.48L824.08,652.61L828.51,650.1L832.94,651.77L837.38,651.26L841.81,648.97L846.24,650.37L850.67,642.19L855.1,639.53L859.53,640.73L863.96,645.77L868.39,646.85L872.82,646.98L877.25,646.86L881.68,633.9L886.11,638.78L890.54,632.76L894.97,641.13L899.4,631.99L903.83,634.36L908.26,638.71L912.69,624.97L917.13,623.07L921.56,637.56L925.99,625.07L930.42,636.55L934.85,635.62L939.28,630.84L943.71,613.3L948.14,621.6L952.57,611.84L957,624.37" style="vector-effect: non-scaling-stroke; fill: none; stroke: rgb(31, 119, 180); stroke-opacity: 1; stroke-width: 2px; opacity: 1;"/></g><g class="points"/><g class="text"/></g></g></g><g class="overplot"/><path class="xlines-above crisp" d="M0,0" style="fill: none;"/><path class="ylines-above crisp" d="M0,0" style="fill: none;"/><g class="overlines-above"/><g class="xaxislayer-above"><g class="xtick"><text text-anchor="middle" x="0" y="741" transform="translate(73.28999999999999,0)" style="font-family: 'Open Sans', verdana, arial, sans-serif; font-size: 12px; fill: rgb(68, 68, 68); fill-opacity: 1; white-space: pre;">Mar 2020</text></g><g class="xtick"><text text-anchor="middle" x="0" y="741" transform="translate(210.64,0)" style="font-family: 'Open Sans', verdana, arial, sans-serif; font-size: 12px; fill: rgb(68, 68, 68); fill-opacity: 1; white-space: pre;">Apr 2020</text></g><g class="xtick"><text text-anchor="middle" x="0" y="741" transform="translate(343.56,0)" style="font-family: 'Open Sans', verdana, arial, sans-serif; font-size: 12px; fill: rgb(68, 68, 68); fill-opacity: 1; white-space: pre;">May 2020</text></g><g class="xtick"><text text-anchor="middle" x="0" y="741" transform="translate(480.9,0)" style="font-family: 'Open Sans', verdana, arial, sans-serif; font-size: 12px; fill: rgb(68, 68, 68); fill-opacity: 1; white-space: pre;">Jun 2020</text></g><g class="xtick"><text text-anchor="middle" x="0" y="741" transform="translate(613.82,0)" style="font-family: 'Open Sans', verdana, arial, sans-serif; font-size: 12px; fill: rgb(68, 68, 68); fill-opacity: 1; white-space: pre;">Jul 2020</text></g><g class="xtick"><text text-anchor="middle" x="0" y="741" transform="translate(751.17,0)" style="font-family: 'Open Sans', verdana, arial, sans-serif; font-size: 12px; fill: rgb(68, 68, 68); fill-opacity: 1; white-space: pre;">Aug 2020</text></g><g class="xtick"><text text-anchor="middle" x="0" y="741" transform="translate(888.51,0)" style="font-family: 'Open Sans', verdana, arial, sans-serif; font-size: 12px; fill: rgb(68, 68, 68); fill-opacity: 1; white-space: pre;">Sep 2020</text></g></g><g class="yaxislayer-above"><g class="ytick"><text text-anchor="end" x="59" y="4.199999999999999" transform="translate(0,692.85)" style="font-family: 'Open Sans', verdana, arial, sans-serif; font-size: 12px; fill: rgb(68, 68, 68); fill-opacity: 1; white-space: pre;">0</text></g><g class="ytick"><text text-anchor="end" x="59" y="4.199999999999999" transform="translate(0,532.65)" style="font-family: 'Open Sans', verdana, arial, sans-serif; font-size: 12px; fill: rgb(68, 68, 68); fill-opacity: 1; white-space: pre;">0.05</text></g><g class="ytick"><text text-anchor="end" x="59" y="4.199999999999999" transform="translate(0,372.46)" style="font-family: 'Open Sans', verdana, arial, sans-serif; font-size: 12px; fill: rgb(68, 68, 68); fill-opacity: 1; white-space: pre;">0.1</text></g><g class="ytick"><text text-anchor="end" x="59" y="4.199999999999999" transform="translate(0,212.26)" style="font-family: 'Open Sans', verdana, arial, sans-serif; font-size: 12px; fill: rgb(68, 68, 68); fill-opacity: 1; white-space: pre;">0.15</text></g><g class="ytick"><text text-anchor="end" x="59" y="4.199999999999999" transform="translate(0,52.06)" style="font-family: 'Open Sans', verdana, arial, sans-serif; font-size: 12px; fill: rgb(68, 68, 68); fill-opacity: 1; white-space: pre;">0.2</text></g></g><g class="overaxes-above"/></g></g><g class="polarlayer"/><g class="ternarylayer"/><g class="geolayer"/><g class="funnelarealayer"/><g class="pielayer"/><g class="treemaplayer"/><g class="sunburstlayer"/><g class="glimages"/><defs id="topdefs-d90cab"><g class="clips"/></defs><g class="layer-above"><g class="imagelayer"/><g class="shapelayer"/></g><g class="infolayer"><g class="g-gtitle"><text class="gtitle" x="513.5" y="12.5" text-anchor="middle" dy="0em" style="font-family: 'Open Sans', verdana, arial, sans-serif; font-size: 17px; fill: rgb(68, 68, 68); opacity: 1; font-weight: normal; white-space: pre;">Positive cases as proportion of tested per day as of Oct 01, 2020</text></g><g class="g-xtitle" transform="translate(0,-15)"><text class="xtitle" x="538.5" y="780" text-anchor="middle" style="font-family: 'Open Sans', verdana, arial, sans-serif; font-size: 14px; fill: rgb(68, 68, 68); opacity: 1; font-weight: normal; white-space: pre;">Date</text></g><g class="g-ytitle"><text class="ytitle" transform="rotate(-90,22,376.5)" x="22" y="376.5" text-anchor="middle" style="font-family: 'Open Sans', verdana, arial, sans-serif; font-size: 14px; fill: rgb(68, 68, 68); opacity: 1; font-weight: normal; white-space: pre;">ratio of positive to tested</text></g></g></svg>