<svg class="main-svg" xmlns="http://www.w3.org/2000/svg" xmlns:xlink="http://www.w3.org/1999/xlink" width="1027" height="768" style="" viewBox="0 0 1027 768"><rect x="0" y="0" width="1027" height="768" style="fill: rgb(255, 255, 255); fill-opacity: 1;"/><defs id="defs-ee8e1e"><g class="clips"><clipPath id="clipee8e1exyplot" class="plotclip"><rect width="957" height="703"/></clipPath><clipPath class="axesclip" id="clipee8e1ex"><rect x="60" y="0" width="957" height="768"/></clipPath><clipPath class="axesclip" id="clipee8e1ey"><rect x="0" y="25" width="1027" height="703"/></clipPath><clipPath class="axesclip" id="clipee8e1exy"><rect x="60" y="25" width="957" height="703"/></clipPath></g><g class="gradients"/></defs><g class="bglayer"/><g class="layer-below"><g class="imagelayer"/><g class="shapelayer"/></g><g class="cartesianlayer"><g class="subplot xy"><g class="layer-subplot"><g class="shapelayer"/><g class="imagelayer"/></g><g class="gridlayer"><g class="x"><path class="xgrid crisp" transform="translate(71.91,0)" d="M0,25v703" style="stroke: rgb(238, 238, 238); stroke-opacity: 1; stroke-width: 1px;"/><path class="xgrid crisp" transform="translate(195.01,0)" d="M0,25v703" style="stroke: rgb(238, 238, 238); stroke-opacity: 1; stroke-width: 1px;"/><path class="xgrid crisp" transform="translate(314.14,0)" d="M0,25v703" style="stroke: rgb(238, 238, 238); stroke-opacity: 1; stroke-width: 1px;"/><path class="xgrid crisp" transform="translate(437.24,0)" d="M0,25v703" style="stroke: rgb(238, 238, 238); stroke-opacity: 1; stroke-width: 1px;"/><path class="xgrid crisp" transform="translate(556.37,0)" d="M0,25v703" style="stroke: rgb(238, 238, 238); stroke-opacity: 1; stroke-width: 1px;"/><path class="xgrid crisp" transform="translate(679.47,0)" d="M0,25v703" style="stroke: rgb(238, 238, 238); stroke-opacity: 1; stroke-width: 1px;"/><path class="xgrid crisp" transform="translate(802.57,0)" d="M0,25v703" style="stroke: rgb(238, 238, 238); stroke-opacity: 1; stroke-width: 1px;"/><path class="xgrid crisp" transform="translate(921.7,0)" d="M0,25v703" style="stroke: rgb(238, 238, 238); stroke-opacity: 1; stroke-width: 1px;"/></g><g class="y"><path class="ygrid crisp" transform="translate(0,532.65)" d="M60,0h957" style="stroke: rgb(238, 238, 238); stroke-opacity: 1; stroke-width: 1px;"/><path class="ygrid crisp" transform="translate(0,372.46)" d="M60,0h957" style="stroke: rgb(238, 238, 238); stroke-opacity: 1; stroke-width: 1px;"/><path class="ygrid crisp" transform="translate(0,212.26)" d="M60,0h957" style="stroke: rgb(238, 238, 238); stroke-opacity: 1; stroke-width: 1px;"/><path class="ygrid crisp" transform="translate(0,52.06)" d="M60,0h957" style="stroke: rgb(238, 238, 238); stroke-opacity: 1; stroke-width: 1px;"/></g></g><g class="zerolinelayer"><path class="yzl zl crisp" transform="translate(0,692.85)" d="M60,0h957" style="stroke: rgb(68, 68, 68); stroke-opacity: 1; stroke-width: 1px;"/></g><path class="xlines-below"/><path class="ylines-below"/><g class="overlines-below"/><g class="xaxislayer-below"/><g class="yaxislayer-below"/><g class="overaxes-below"/><g class="plot" transform="translate(60, 25)" clip-path="url('#clipee8e1exyplot')"><g class="scatterlayer mlayer"><g class="trace scatter trace978f0f" style="stroke-miterlimit: 2; opacity: 1;"><g class="fills"/><g class="errorbars"/><g class="lines"><path class="js-line" d="M0,622.08L3.97,621.42L15.88,505.63L19.85,614.89L23.83,667.85L27.8,653.8L31.77,602.8L35.74,638.59L43.68,614.7L47.65,667.85L51.62,638.18L55.59,598.9L59.56,599.97L63.54,617.23L67.51,593.79L71.48,608L75.45,632.36L79.42,638.47L83.39,617.81L87.36,600.66L91.33,620.7L95.3,621.42L99.27,549.58L103.24,600.54L107.22,572.07L111.19,483.2L115.16,497.46L119.13,432.27L123.1,317.67L127.07,404.9L131.04,449.29L135.01,403.44L138.98,299.64L142.95,405.8L146.93,315.31L150.9,403.85L154.87,194.99L158.84,123.47L162.81,290.13L166.78,282.57L170.75,306.88L174.72,480.13L178.69,401.54L182.66,348.91L186.63,404.5L190.61,484.89L194.58,464.79L198.55,35.15L202.52,558.54L206.49,445.78L210.46,478.64L214.43,510.14L218.4,468.98L222.37,501.07L226.34,523.68L230.32,551.37L234.29,559.61L238.26,512.85L242.23,571.63L246.2,554.1L250.17,586.26L254.14,567.44L258.11,586.75L262.08,586.4L266.05,551.47L270.02,566L274,583.63L277.97,574.06L281.94,610.19L285.91,614.38L289.88,597.21L293.85,571.12L297.82,598.21L301.79,604.43L305.76,608.32L309.73,597.34L313.71,600.68L317.68,561.46L321.65,432.5L325.62,498.58L329.59,541.9L333.56,542.55L337.53,548.15L341.5,538.38L345.47,509.42L349.44,574.73L353.41,606.03L357.39,598.19L361.36,608.35L365.33,617.71L369.3,606.46L373.27,577.83L377.24,574.11L381.21,606.1L385.18,613.07L389.15,619.36L393.12,604.76L397.1,599.22L401.07,617.15L405.04,613.3L409.01,627.52L412.98,641.13L416.95,647.27L420.92,636.81L424.89,640.74L428.86,641.19L432.83,640.71L436.8,642.7L440.78,645.92L444.75,646.9L448.72,643.75L456.66,644.3L460.63,625.1L464.6,645.35L468.57,645.84L472.54,656.3L476.51,652.54L480.49,647.93L484.46,637.5L488.43,646.68L492.4,649.53L500.34,646L504.31,649.76L508.28,649.27L512.25,639.33L516.22,644.1L520.2,651.29L524.17,647.16L528.14,654.33L532.11,653.74L536.08,651.78L540.05,650.06L544.02,646.61L547.99,654.1L551.96,654.43L555.93,656.44L559.9,649.41L567.85,647.17L571.82,639.54L575.79,645.81L579.76,655.16L583.73,646.16L587.7,653.06L591.67,651.06L595.64,652.39L599.61,647.33L603.59,658.93L607.56,657.55L611.53,653.55L615.5,655.91L619.47,655.64L623.44,655.6L627.41,652.64L631.38,651.86L635.35,656.22L639.32,656.63L643.29,659.23L647.27,658.74L651.24,651.31L655.21,662.95L659.18,655.46L663.15,659.41L667.12,658.07L671.09,656.69L675.06,656.95L679.03,655.44L683,650.49L686.98,655.11L690.95,658.45L694.92,652.9L698.89,655.77L702.86,652.09L706.83,649.95L710.8,651.84L714.77,655.01L718.74,654.64L722.71,655.57L726.68,653.08L730.66,653.48L738.6,652.61L742.57,650.1L746.54,651.77L750.51,651.26L754.48,648.97L758.45,650.37L762.42,642.19L766.39,639.53L770.37,640.73L774.34,645.77L778.31,646.85L782.28,646.98L786.25,646.86L790.22,633.9L794.19,638.78L798.16,632.76L802.13,641.13L806.1,631.99L810.07,634.36L814.05,638.71L818.02,624.97L821.99,623.07L825.96,637.56L829.93,625.07L833.9,636.55L837.87,635.62L841.84,630.84L845.81,613.3L849.78,621.6L853.76,611.84L857.73,624.37L861.7,609.35L865.67,622.62L869.64,622.13L873.61,616.26L877.58,626.08L881.55,624.69L885.52,615.19L889.49,600.87L893.46,609.34L897.44,620.74L901.41,596.96L905.38,591.32L909.35,596.12L913.32,605.07L917.29,608.61L921.26,610.18L925.23,616.24L929.2,597.06L933.17,558.47L937.15,590.32L941.12,598.51L945.09,601.72L949.06,596.88L953.03,581.74L957,572.69" style="vector-effect: non-scaling-stroke; fill: none; stroke: rgb(31, 119, 180); stroke-opacity: 1; stroke-width: 2px; opacity: 1;"/></g><g class="points"/><g class="text"/></g></g></g><g class="overplot"/><path class="xlines-above crisp" d="M0,0" style="fill: none;"/><path class="ylines-above crisp" d="M0,0" style="fill: none;"/><g class="overlines-above"/><g class="xaxislayer-above"><g class="xtick"><text text-anchor="middle" x="0" y="741" transform="translate(71.91,0)" style="font-family: 'Open Sans', verdana, arial, sans-serif; font-size: 12px; fill: rgb(68, 68, 68); fill-opacity: 1; white-space: pre;">Mar 2020</text></g><g class="xtick"><text text-anchor="middle" x="0" y="741" transform="translate(195.01,0)" style="font-family: 'Open Sans', verdana, arial, sans-serif; font-size: 12px; fill: rgb(68, 68, 68); fill-opacity: 1; white-space: pre;">Apr 2020</text></g><g class="xtick"><text text-anchor="middle" x="0" y="741" transform="translate(314.14,0)" style="font-family: 'Open Sans', verdana, arial, sans-serif; font-size: 12px; fill: rgb(68, 68, 68); fill-opacity: 1; white-space: pre;">May 2020</text></g><g class="xtick"><text text-anchor="middle" x="0" y="741" transform="translate(437.24,0)" style="font-family: 'Open Sans', verdana, arial, sans-serif; font-size: 12px; fill: rgb(68, 68, 68); fill-opacity: 1; white-space: pre;">Jun 2020</text></g><g class="xtick"><text text-anchor="middle" x="0" y="741" transform="translate(556.37,0)" style="font-family: 'Open Sans', verdana, arial, sans-serif; font-size: 12px; fill: rgb(68, 68, 68); fill-opacity: 1; white-space: pre;">Jul 2020</text></g><g class="xtick"><text text-anchor="middle" x="0" y="741" transform="translate(679.47,0)" style="font-family: 'Open Sans', verdana, arial, sans-serif; font-size: 12px; fill: rgb(68, 68, 68); fill-opacity: 1; white-space: pre;">Aug 2020</text></g><g class="xtick"><text text-anchor="middle" x="0" y="741" transform="translate(802.57,0)" style="font-family: 'Open Sans', verdana, arial, sans-serif; font-size: 12px; fill: rgb(68, 68, 68); fill-opacity: 1; white-space: pre;">Sep 2020</text></g><g class="xtick"><text text-anchor="middle" x="0" y="741" transform="translate(921.7,0)" style="font-family: 'Open Sans', verdana, arial, sans-serif; font-size: 12px; fill: rgb(68, 68, 68); fill-opacity: 1; white-space: pre;">Oct 2020</text></g></g><g class="yaxislayer-above"><g class="ytick"><text text-anchor="end" x="59" y="4.199999999999999" transform="translate(0,692.85)" style="font-family: 'Open Sans', verdana, arial, sans-serif; font-size: 12px; fill: rgb(68, 68, 68); fill-opacity: 1; white-space: pre;">0</text></g><g class="ytick"><text text-anchor="end" x="59" y="4.199999999999999" transform="translate(0,532.65)" style="font-family: 'Open Sans', verdana, arial, sans-serif; font-size: 12px; fill: rgb(68, 68, 68); fill-opacity: 1; white-space: pre;">0.05</text></g><g class="ytick"><text text-anchor="end" x="59" y="4.199999999999999" transform="translate(0,372.46)" style="font-family: 'Open Sans', verdana, arial, sans-serif; font-size: 12px; fill: rgb(68, 68, 68); fill-opacity: 1; white-space: pre;">0.1</text></g><g class="ytick"><text text-anchor="end" x="59" y="4.199999999999999" transform="translate(0,212.26)" style="font-family: 'Open Sans', verdana, arial, sans-serif; font-size: 12px; fill: rgb(68, 68, 68); fill-opacity: 1; white-space: pre;">0.15</text></g><g class="ytick"><text text-anchor="end" x="59" y="4.199999999999999" transform="translate(0,52.06)" style="font-family: 'Open Sans', verdana, arial, sans-serif; font-size: 12px; fill: rgb(68, 68, 68); fill-opacity: 1; white-space: pre;">0.2</text></g></g><g class="overaxes-above"/></g></g><g class="polarlayer"/><g class="ternarylayer"/><g class="geolayer"/><g class="funnelarealayer"/><g class="pielayer"/><g class="treemaplayer"/><g class="sunburstlayer"/><g class="glimages"/><defs id="topdefs-ee8e1e"><g class="clips"/></defs><g class="layer-above"><g class="imagelayer"/><g class="shapelayer"/></g><g class="infolayer"><g class="g-gtitle"><text class="gtitle" x="513.5" y="12.5" text-anchor="middle" dy="0em" style="font-family: 'Open Sans', verdana, arial, sans-serif; font-size: 17px; fill: rgb(68, 68, 68); opacity: 1; font-weight: normal; white-space: pre;">Positive cases as proportion of tested per day as of Oct 26, 2020</text></g><g class="g-xtitle" transform="translate(0,-15)"><text class="xtitle" x="538.5" y="780" text-anchor="middle" style="font-family: 'Open Sans', verdana, arial, sans-serif; font-size: 14px; fill: rgb(68, 68, 68); opacity: 1; font-weight: normal; white-space: pre;">Date</text></g><g class="g-ytitle"><text class="ytitle" transform="rotate(-90,22,376.5)" x="22" y="376.5" text-anchor="middle" style="font-family: 'Open Sans', verdana, arial, sans-serif; font-size: 14px; fill: rgb(68, 68, 68); opacity: 1; font-weight: normal; white-space: pre;">ratio of positive to tested</text></g></g></svg>