<svg class="main-svg" xmlns="http://www.w3.org/2000/svg" xmlns:xlink="http://www.w3.org/1999/xlink" width="1027" height="768" style="" viewBox="0 0 1027 768"><rect x="0" y="0" width="1027" height="768" style="fill: rgb(255, 255, 255); fill-opacity: 1;"/><defs id="defs-367a27"><g class="clips"><clipPath id="clip367a27xyplot" class="plotclip"><rect width="957" height="703"/></clipPath><clipPath class="axesclip" id="clip367a27x"><rect x="60" y="0" width="957" height="768"/></clipPath><clipPath class="axesclip" id="clip367a27y"><rect x="0" y="25" width="1027" height="703"/></clipPath><clipPath class="axesclip" id="clip367a27xy"><rect x="60" y="25" width="957" height="703"/></clipPath></g><g class="gradients"/></defs><g class="bglayer"/><g class="layer-below"><g class="imagelayer"/><g class="shapelayer"/></g><g class="cartesianlayer"><g class="subplot xy"><g class="layer-subplot"><g class="shapelayer"/><g class="imagelayer"/></g><g class="gridlayer"><g class="x"><path class="xgrid crisp" transform="translate(70.78999999999999,0)" d="M0,25v703" style="stroke: rgb(238, 238, 238); stroke-opacity: 1; stroke-width: 1px;"/><path class="xgrid crisp" transform="translate(182.32,0)" d="M0,25v703" style="stroke: rgb(238, 238, 238); stroke-opacity: 1; stroke-width: 1px;"/><path class="xgrid crisp" transform="translate(290.26,0)" d="M0,25v703" style="stroke: rgb(238, 238, 238); stroke-opacity: 1; stroke-width: 1px;"/><path class="xgrid crisp" transform="translate(401.79,0)" d="M0,25v703" style="stroke: rgb(238, 238, 238); stroke-opacity: 1; stroke-width: 1px;"/><path class="xgrid crisp" transform="translate(509.72,0)" d="M0,25v703" style="stroke: rgb(238, 238, 238); stroke-opacity: 1; stroke-width: 1px;"/><path class="xgrid crisp" transform="translate(621.25,0)" d="M0,25v703" style="stroke: rgb(238, 238, 238); stroke-opacity: 1; stroke-width: 1px;"/><path class="xgrid crisp" transform="translate(732.78,0)" d="M0,25v703" style="stroke: rgb(238, 238, 238); stroke-opacity: 1; stroke-width: 1px;"/><path class="xgrid crisp" transform="translate(840.71,0)" d="M0,25v703" style="stroke: rgb(238, 238, 238); stroke-opacity: 1; stroke-width: 1px;"/><path class="xgrid crisp" transform="translate(952.24,0)" d="M0,25v703" style="stroke: rgb(238, 238, 238); stroke-opacity: 1; stroke-width: 1px;"/></g><g class="y"><path class="ygrid crisp" transform="translate(0,532.65)" d="M60,0h957" style="stroke: rgb(238, 238, 238); stroke-opacity: 1; stroke-width: 1px;"/><path class="ygrid crisp" transform="translate(0,372.46)" d="M60,0h957" style="stroke: rgb(238, 238, 238); stroke-opacity: 1; stroke-width: 1px;"/><path class="ygrid crisp" transform="translate(0,212.26)" d="M60,0h957" style="stroke: rgb(238, 238, 238); stroke-opacity: 1; stroke-width: 1px;"/><path class="ygrid crisp" transform="translate(0,52.06)" d="M60,0h957" style="stroke: rgb(238, 238, 238); stroke-opacity: 1; stroke-width: 1px;"/></g></g><g class="zerolinelayer"><path class="yzl zl crisp" transform="translate(0,692.85)" d="M60,0h957" style="stroke: rgb(68, 68, 68); stroke-opacity: 1; stroke-width: 1px;"/></g><path class="xlines-below"/><path class="ylines-below"/><g class="overlines-below"/><g class="xaxislayer-below"/><g class="yaxislayer-below"/><g class="overaxes-below"/><g class="plot" transform="translate(60, 25)" clip-path="url('#clip367a27xyplot')"><g class="scatterlayer mlayer"><g class="trace scatter tracefe979f" style="stroke-miterlimit: 2; opacity: 1;"><g class="fills"/><g class="errorbars"/><g class="lines"><path class="js-line" d="M0,622.08L3.6,621.42L14.39,505.63L17.99,614.89L21.59,667.85L25.18,653.8L28.78,602.8L32.38,638.59L39.58,614.7L43.17,667.85L46.77,638.18L50.37,598.9L53.97,599.97L57.56,617.23L61.16,593.79L64.76,608L68.36,632.36L71.95,638.47L75.55,617.81L79.15,600.66L82.75,620.7L86.35,621.42L89.94,549.58L93.54,600.54L97.14,572.07L100.74,483.2L104.33,497.46L107.93,432.27L111.53,317.67L115.13,404.9L118.73,449.29L122.32,403.44L125.92,299.64L129.52,405.8L133.12,315.31L136.71,403.85L140.31,194.99L143.91,123.47L147.51,290.13L151.11,282.57L154.7,306.88L158.3,480.13L161.9,401.54L165.5,348.91L169.09,404.5L172.69,484.89L176.29,464.79L179.89,35.15L183.48,558.54L187.08,445.78L190.68,478.64L194.28,510.14L197.88,468.98L201.47,501.07L205.07,523.68L208.67,551.37L212.27,559.61L215.86,512.85L219.46,571.63L223.06,554.1L226.66,586.26L230.26,567.44L233.85,586.75L237.45,586.4L241.05,551.47L244.65,566L248.24,583.63L251.84,574.06L255.44,610.19L259.04,614.38L262.64,597.21L266.23,571.12L269.83,598.21L273.43,604.43L277.03,608.32L280.62,597.34L284.22,600.68L287.82,561.46L291.42,432.5L295.02,498.58L298.61,541.9L302.21,542.55L305.81,548.15L309.41,538.38L313,509.42L316.6,574.73L320.2,606.03L323.8,598.19L327.39,608.35L330.99,617.71L334.59,606.46L338.19,577.83L341.79,574.11L345.38,606.1L348.98,613.07L352.58,619.36L356.18,604.76L359.77,599.22L363.37,617.15L366.97,613.3L370.57,627.52L374.17,641.13L377.76,647.27L381.36,636.81L384.96,640.74L388.56,641.19L392.15,640.71L395.75,642.7L399.35,645.92L402.95,646.9L406.55,643.75L413.74,644.3L417.34,625.1L420.94,645.35L424.53,645.84L428.13,656.3L431.73,652.54L435.33,647.93L438.92,637.5L442.52,646.68L446.12,649.53L453.32,646L456.91,649.76L460.51,649.27L464.11,639.33L467.71,644.1L471.3,651.29L474.9,647.16L478.5,654.33L482.1,653.74L485.7,651.78L489.29,650.06L492.89,646.61L496.49,654.1L500.09,654.43L503.68,656.44L507.28,649.41L514.48,647.17L518.08,639.54L521.67,645.81L525.27,655.16L528.87,646.16L532.47,653.06L536.06,651.06L539.66,652.39L543.26,647.33L546.86,658.93L550.45,657.55L554.05,653.55L557.65,655.91L561.25,655.64L564.85,655.6L568.44,652.64L572.04,651.86L575.64,656.22L579.24,656.63L582.83,659.23L586.43,658.74L590.03,651.31L593.63,662.95L597.23,655.46L600.82,659.41L604.42,658.07L608.02,656.69L611.62,656.95L615.21,655.44L618.81,650.49L622.41,655.11L626.01,658.45L629.61,652.9L633.2,655.77L636.8,652.09L640.4,649.95L644,651.84L647.59,655.01L651.19,654.64L654.79,655.57L658.39,653.08L661.98,653.48L669.18,652.61L672.78,650.1L676.38,651.77L679.97,651.26L683.57,648.97L687.17,650.37L690.77,642.19L694.36,639.53L697.96,640.73L701.56,645.77L705.16,646.85L708.76,646.98L712.35,646.86L715.95,633.9L719.55,638.78L723.15,632.76L726.74,641.13L730.34,631.99L733.94,634.36L737.54,638.71L741.14,624.97L744.73,623.07L748.33,637.56L751.93,625.07L755.53,636.55L759.12,635.62L762.72,630.84L766.32,613.3L769.92,621.6L773.52,611.84L777.11,624.37L780.71,609.35L784.31,622.62L787.91,622.13L791.5,616.26L795.1,626.08L798.7,624.69L802.3,615.19L805.89,600.87L809.49,609.34L813.09,620.74L816.69,596.96L820.29,591.32L823.88,596.12L827.48,605.07L831.08,608.61L834.68,610.18L838.27,616.24L841.87,597.06L845.47,558.47L849.07,590.32L852.67,598.51L856.26,601.72L859.86,596.88L863.46,581.74L867.06,572.69L870.65,557.19L874.25,578.81L877.85,583.84L881.45,597.85L888.64,583.55L892.24,559.02L895.84,534.77L899.44,557.15L903.03,578.42L906.63,589.98L910.23,575.25L913.83,554.62L917.42,527.74L921.02,515.16L924.62,543.38L928.22,540.29L931.82,557.44L935.41,554.88L939.01,573.11L942.61,525L946.21,516.66L949.8,532.08L953.4,575.19L957,573.54" style="vector-effect: non-scaling-stroke; fill: none; stroke: rgb(31, 119, 180); stroke-opacity: 1; stroke-width: 2px; opacity: 1;"/></g><g class="points"/><g class="text"/></g></g></g><g class="overplot"/><path class="xlines-above crisp" d="M0,0" style="fill: none;"/><path class="ylines-above crisp" d="M0,0" style="fill: none;"/><g class="overlines-above"/><g class="xaxislayer-above"><g class="xtick"><text text-anchor="middle" x="0" y="741" transform="translate(70.78999999999999,0)" style="font-family: 'Open Sans', verdana, arial, sans-serif; font-size: 12px; fill: rgb(68, 68, 68); fill-opacity: 1; white-space: pre;">Mar 2020</text></g><g class="xtick"><text text-anchor="middle" x="0" y="741" transform="translate(182.32,0)" style="font-family: 'Open Sans', verdana, arial, sans-serif; font-size: 12px; fill: rgb(68, 68, 68); fill-opacity: 1; white-space: pre;">Apr 2020</text></g><g class="xtick"><text text-anchor="middle" x="0" y="741" transform="translate(290.26,0)" style="font-family: 'Open Sans', verdana, arial, sans-serif; font-size: 12px; fill: rgb(68, 68, 68); fill-opacity: 1; white-space: pre;">May 2020</text></g><g class="xtick"><text text-anchor="middle" x="0" y="741" transform="translate(401.79,0)" style="font-family: 'Open Sans', verdana, arial, sans-serif; font-size: 12px; fill: rgb(68, 68, 68); fill-opacity: 1; white-space: pre;">Jun 2020</text></g><g class="xtick"><text text-anchor="middle" x="0" y="741" transform="translate(509.72,0)" style="font-family: 'Open Sans', verdana, arial, sans-serif; font-size: 12px; fill: rgb(68, 68, 68); fill-opacity: 1; white-space: pre;">Jul 2020</text></g><g class="xtick"><text text-anchor="middle" x="0" y="741" transform="translate(621.25,0)" style="font-family: 'Open Sans', verdana, arial, sans-serif; font-size: 12px; fill: rgb(68, 68, 68); fill-opacity: 1; white-space: pre;">Aug 2020</text></g><g class="xtick"><text text-anchor="middle" x="0" y="741" transform="translate(732.78,0)" style="font-family: 'Open Sans', verdana, arial, sans-serif; font-size: 12px; fill: rgb(68, 68, 68); fill-opacity: 1; white-space: pre;">Sep 2020</text></g><g class="xtick"><text text-anchor="middle" x="0" y="741" transform="translate(840.71,0)" style="font-family: 'Open Sans', verdana, arial, sans-serif; font-size: 12px; fill: rgb(68, 68, 68); fill-opacity: 1; white-space: pre;">Oct 2020</text></g><g class="xtick"><text text-anchor="middle" x="0" y="741" transform="translate(952.24,0)" style="font-family: 'Open Sans', verdana, arial, sans-serif; font-size: 12px; fill: rgb(68, 68, 68); fill-opacity: 1; white-space: pre;">Nov 2020</text></g></g><g class="yaxislayer-above"><g class="ytick"><text text-anchor="end" x="59" y="4.199999999999999" transform="translate(0,692.85)" style="font-family: 'Open Sans', verdana, arial, sans-serif; font-size: 12px; fill: rgb(68, 68, 68); fill-opacity: 1; white-space: pre;">0</text></g><g class="ytick"><text text-anchor="end" x="59" y="4.199999999999999" transform="translate(0,532.65)" style="font-family: 'Open Sans', verdana, arial, sans-serif; font-size: 12px; fill: rgb(68, 68, 68); fill-opacity: 1; white-space: pre;">0.05</text></g><g class="ytick"><text text-anchor="end" x="59" y="4.199999999999999" transform="translate(0,372.46)" style="font-family: 'Open Sans', verdana, arial, sans-serif; font-size: 12px; fill: rgb(68, 68, 68); fill-opacity: 1; white-space: pre;">0.1</text></g><g class="ytick"><text text-anchor="end" x="59" y="4.199999999999999" transform="translate(0,212.26)" style="font-family: 'Open Sans', verdana, arial, sans-serif; font-size: 12px; fill: rgb(68, 68, 68); fill-opacity: 1; white-space: pre;">0.15</text></g><g class="ytick"><text text-anchor="end" x="59" y="4.199999999999999" transform="translate(0,52.06)" style="font-family: 'Open Sans', verdana, arial, sans-serif; font-size: 12px; fill: rgb(68, 68, 68); fill-opacity: 1; white-space: pre;">0.2</text></g></g><g class="overaxes-above"/></g></g><g class="polarlayer"/><g class="ternarylayer"/><g class="geolayer"/><g class="funnelarealayer"/><g class="pielayer"/><g class="treemaplayer"/><g class="sunburstlayer"/><g class="glimages"/><defs id="topdefs-367a27"><g class="clips"/></defs><g class="layer-above"><g class="imagelayer"/><g class="shapelayer"/></g><g class="infolayer"><g class="g-gtitle"><text class="gtitle" x="513.5" y="12.5" text-anchor="middle" dy="0em" style="font-family: 'Open Sans', verdana, arial, sans-serif; font-size: 17px; fill: rgb(68, 68, 68); opacity: 1; font-weight: normal; white-space: pre;">Positive cases as proportion of tested per day as of Nov 20, 2020</text></g><g class="g-xtitle" transform="translate(0,-15)"><text class="xtitle" x="538.5" y="780" text-anchor="middle" style="font-family: 'Open Sans', verdana, arial, sans-serif; font-size: 14px; fill: rgb(68, 68, 68); opacity: 1; font-weight: normal; white-space: pre;">Date</text></g><g class="g-ytitle"><text class="ytitle" transform="rotate(-90,22,376.5)" x="22" y="376.5" text-anchor="middle" style="font-family: 'Open Sans', verdana, arial, sans-serif; font-size: 14px; fill: rgb(68, 68, 68); opacity: 1; font-weight: normal; white-space: pre;">ratio of positive to tested</text></g></g></svg>