<svg class="main-svg" xmlns="http://www.w3.org/2000/svg" xmlns:xlink="http://www.w3.org/1999/xlink" width="1027" height="768" style="" viewBox="0 0 1027 768"><rect x="0" y="0" width="1027" height="768" style="fill: rgb(255, 255, 255); fill-opacity: 1;"/><defs id="defs-910334"><g class="clips"><clipPath id="clip910334xyplot" class="plotclip"><rect width="957" height="703"/></clipPath><clipPath class="axesclip" id="clip910334x"><rect x="60" y="0" width="957" height="768"/></clipPath><clipPath class="axesclip" id="clip910334y"><rect x="0" y="25" width="1027" height="703"/></clipPath><clipPath class="axesclip" id="clip910334xy"><rect x="60" y="25" width="957" height="703"/></clipPath></g><g class="gradients"/></defs><g class="bglayer"/><g class="layer-below"><g class="imagelayer"/><g class="shapelayer"/></g><g class="cartesianlayer"><g class="subplot xy"><g class="layer-subplot"><g class="shapelayer"/><g class="imagelayer"/></g><g class="gridlayer"><g class="x"><path class="xgrid crisp" transform="translate(68.83,0)" d="M0,25v703" style="stroke: rgb(238, 238, 238); stroke-opacity: 1; stroke-width: 1px;"/><path class="xgrid crisp" transform="translate(248.46,0)" d="M0,25v703" style="stroke: rgb(238, 238, 238); stroke-opacity: 1; stroke-width: 1px;"/><path class="xgrid crisp" transform="translate(428.08,0)" d="M0,25v703" style="stroke: rgb(238, 238, 238); stroke-opacity: 1; stroke-width: 1px;"/><path class="xgrid crisp" transform="translate(610.64,0)" d="M0,25v703" style="stroke: rgb(238, 238, 238); stroke-opacity: 1; stroke-width: 1px;"/><path class="xgrid crisp" transform="translate(790.26,0)" d="M0,25v703" style="stroke: rgb(238, 238, 238); stroke-opacity: 1; stroke-width: 1px;"/><path class="xgrid crisp" transform="translate(969.89,0)" d="M0,25v703" style="stroke: rgb(238, 238, 238); stroke-opacity: 1; stroke-width: 1px;"/></g><g class="y"><path class="ygrid crisp" transform="translate(0,532.65)" d="M60,0h957" style="stroke: rgb(238, 238, 238); stroke-opacity: 1; stroke-width: 1px;"/><path class="ygrid crisp" transform="translate(0,372.46)" d="M60,0h957" style="stroke: rgb(238, 238, 238); stroke-opacity: 1; stroke-width: 1px;"/><path class="ygrid crisp" transform="translate(0,212.26)" d="M60,0h957" style="stroke: rgb(238, 238, 238); stroke-opacity: 1; stroke-width: 1px;"/><path class="ygrid crisp" transform="translate(0,52.06)" d="M60,0h957" style="stroke: rgb(238, 238, 238); stroke-opacity: 1; stroke-width: 1px;"/></g></g><g class="zerolinelayer"><path class="yzl zl crisp" transform="translate(0,692.85)" d="M60,0h957" style="stroke: rgb(68, 68, 68); stroke-opacity: 1; stroke-width: 1px;"/></g><path class="xlines-below"/><path class="ylines-below"/><g class="overlines-below"/><g class="xaxislayer-below"/><g class="yaxislayer-below"/><g class="overaxes-below"/><g class="plot" transform="translate(60, 25)" clip-path="url('#clip910334xyplot')"><g class="scatterlayer mlayer"><g class="trace scatter traceafef78" style="stroke-miterlimit: 2; opacity: 1;"><g class="fills"/><g class="errorbars"/><g class="lines"><path class="js-line" d="M0,622.08L2.94,621.42L11.78,505.63L14.72,614.89L17.67,667.85L20.61,653.8L23.56,602.8L26.5,638.59L32.39,614.7L35.34,667.85L38.28,638.18L41.22,598.9L44.17,599.97L47.11,617.23L50.06,593.79L53,608L55.95,632.36L58.89,638.47L61.84,617.81L64.78,600.66L67.73,620.7L70.67,621.42L73.62,549.58L76.56,600.54L79.5,572.07L82.45,483.2L85.39,497.46L88.34,432.27L91.28,317.67L94.23,404.9L97.17,449.29L100.12,403.44L103.06,299.64L106.01,405.8L108.95,315.31L111.9,403.85L114.84,194.99L117.78,123.47L120.73,290.13L123.67,282.57L126.62,306.88L129.56,480.13L132.51,401.54L135.45,348.91L138.4,404.5L141.34,484.89L144.29,464.79L147.23,35.15L150.18,558.54L153.12,445.78L156.06,478.64L159.01,510.14L161.95,468.98L164.9,501.07L167.84,523.68L170.79,551.37L173.73,559.61L176.68,512.85L179.62,571.63L182.57,554.1L185.51,586.26L188.46,567.44L191.4,586.75L194.34,586.4L197.29,551.47L203.18,583.63L206.12,574.06L209.07,610.19L212.01,614.38L214.96,597.21L217.9,571.12L220.85,598.21L223.79,604.43L226.74,608.32L229.68,597.34L232.62,600.68L235.57,561.46L238.51,432.5L241.46,498.58L244.4,541.9L247.35,542.55L250.29,548.15L253.24,538.38L256.18,509.42L259.13,574.73L262.07,606.03L265.02,598.19L270.9,617.71L273.85,606.46L276.79,577.83L279.74,574.11L282.68,606.1L285.63,613.07L288.57,619.36L291.52,604.76L294.46,599.22L297.41,617.15L300.35,613.3L303.3,627.52L306.24,641.13L309.18,647.27L312.13,636.81L315.07,640.74L318.02,641.19L320.96,640.71L323.91,642.7L326.85,645.92L329.8,646.9L332.74,643.75L338.63,644.3L341.58,625.1L344.52,645.35L347.46,645.84L350.41,656.3L353.35,652.54L356.3,647.93L359.24,637.5L362.19,646.68L365.13,649.53L371.02,646L373.97,649.76L376.91,649.27L379.86,639.33L382.8,644.1L385.74,651.29L388.69,647.16L391.63,654.33L394.58,653.74L397.52,651.78L400.47,650.06L403.41,646.61L406.36,654.1L409.3,654.43L412.25,656.44L415.19,649.41L421.08,647.17L424.02,639.54L426.97,645.81L429.91,655.16L432.86,646.16L435.8,653.06L438.75,651.06L441.69,652.39L444.64,647.33L447.58,658.93L450.53,657.55L453.47,653.55L456.42,655.91L459.36,655.64L462.3,655.6L465.25,652.64L468.19,651.86L471.14,656.22L474.08,656.63L477.03,659.23L479.97,658.74L482.92,651.31L485.86,662.95L488.81,655.46L491.75,659.41L494.7,658.07L497.64,656.69L500.58,656.95L503.53,655.44L506.47,650.49L512.36,658.45L515.31,652.9L518.25,655.77L521.2,652.09L524.14,649.95L527.09,651.84L530.03,655.01L532.98,654.64L535.92,655.57L538.86,653.08L544.75,653.3L547.7,652.61L550.64,650.1L553.59,651.77L556.53,651.26L559.48,648.97L562.42,650.37L565.37,642.19L568.31,639.53L571.26,640.73L574.2,645.77L577.14,646.85L583.03,646.86L585.98,633.9L588.92,638.78L591.87,632.76L594.81,641.13L597.76,631.99L600.7,634.36L603.65,638.71L606.59,624.97L609.54,623.07L612.48,637.56L615.42,625.07L618.37,636.55L621.31,635.62L624.26,630.84L627.2,613.3L630.15,621.6L633.09,611.84L636.04,624.37L638.98,609.35L641.93,622.62L644.87,622.13L647.82,616.26L650.76,626.08L653.7,624.69L656.65,615.19L659.59,600.87L662.54,609.34L665.48,620.74L668.43,596.96L671.37,591.32L674.32,596.12L677.26,605.07L680.21,608.61L683.15,610.18L686.1,616.24L689.04,597.06L691.98,558.47L694.93,590.32L697.87,598.51L700.82,601.72L703.76,596.88L706.71,581.74L709.65,572.69L712.6,557.19L715.54,578.81L718.49,583.84L721.43,597.85L727.32,583.55L730.26,559.02L733.21,534.77L736.15,557.15L739.1,578.42L742.04,589.98L744.99,575.25L747.93,554.62L750.88,527.74L753.82,515.16L756.77,543.38L759.71,540.29L762.66,557.44L765.6,554.88L768.54,573.11L771.49,525L774.43,516.66L777.38,532.08L780.32,575.19L783.27,573.54L786.21,558.83L789.16,561.9L792.1,531.98L795.05,548.35L797.99,545.91L800.94,568.32L806.82,561.88L809.77,566.43L812.71,525.89L815.66,509.97L818.6,543.03L821.55,557.32L824.49,566.01L827.44,567.58L830.38,563.81L833.33,531.65L836.27,530.86L839.22,543.11L842.16,565.06L845.1,573.94L848.05,575.9L850.99,575.51L853.94,558.98L856.88,483.63L859.83,528.53L862.77,533.92L865.72,560.34L868.66,555.49L871.61,560.95L874.55,543.05L877.5,511.99L880.44,531.69L883.38,546.47L886.33,555.31L889.27,529.24L892.22,514.11L895.16,510.83L898.11,428.06L901.05,429L904,500.87L906.94,553.82L909.89,492.37L912.83,480.92L915.78,400.04L918.72,382.75L921.66,462.85L924.61,496.43L927.55,477.4L930.5,516.53L933.44,464.99L936.39,437.37L939.33,460.25L942.28,481.58L945.22,518.12L948.17,542.24L951.11,535.31L954.06,485.67L957,462.9" style="vector-effect: non-scaling-stroke; fill: none; stroke: rgb(31, 119, 180); stroke-opacity: 1; stroke-width: 2px; opacity: 1;"/></g><g class="points"/><g class="text"/></g></g></g><g class="overplot"/><path class="xlines-above crisp" d="M0,0" style="fill: none;"/><path class="ylines-above crisp" d="M0,0" style="fill: none;"/><g class="overlines-above"/><g class="xaxislayer-above"><g class="xtick"><text text-anchor="middle" x="0" y="741" transform="translate(68.83,0)" style="font-family: 'Open Sans', verdana, arial, sans-serif; font-size: 12px; fill: rgb(68, 68, 68); fill-opacity: 1; white-space: pre;">Mar 2020</text></g><g class="xtick"><text text-anchor="middle" x="0" y="741" transform="translate(248.46,0)" style="font-family: 'Open Sans', verdana, arial, sans-serif; font-size: 12px; fill: rgb(68, 68, 68); fill-opacity: 1; white-space: pre;">May 2020</text></g><g class="xtick"><text text-anchor="middle" x="0" y="741" transform="translate(428.08,0)" style="font-family: 'Open Sans', verdana, arial, sans-serif; font-size: 12px; fill: rgb(68, 68, 68); fill-opacity: 1; white-space: pre;">Jul 2020</text></g><g class="xtick"><text text-anchor="middle" x="0" y="741" transform="translate(610.64,0)" style="font-family: 'Open Sans', verdana, arial, sans-serif; font-size: 12px; fill: rgb(68, 68, 68); fill-opacity: 1; white-space: pre;">Sep 2020</text></g><g class="xtick"><text text-anchor="middle" x="0" y="741" transform="translate(790.26,0)" style="font-family: 'Open Sans', verdana, arial, sans-serif; font-size: 12px; fill: rgb(68, 68, 68); fill-opacity: 1; white-space: pre;">Nov 2020</text></g><g class="xtick"><text text-anchor="middle" x="0" y="741" transform="translate(969.89,0)" style="font-family: 'Open Sans', verdana, arial, sans-serif; font-size: 12px; fill: rgb(68, 68, 68); fill-opacity: 1; white-space: pre;">Jan 2021</text></g></g><g class="yaxislayer-above"><g class="ytick"><text text-anchor="end" x="59" y="4.199999999999999" transform="translate(0,692.85)" style="font-family: 'Open Sans', verdana, arial, sans-serif; font-size: 12px; fill: rgb(68, 68, 68); fill-opacity: 1; white-space: pre;">0</text></g><g class="ytick"><text text-anchor="end" x="59" y="4.199999999999999" transform="translate(0,532.65)" style="font-family: 'Open Sans', verdana, arial, sans-serif; font-size: 12px; fill: rgb(68, 68, 68); fill-opacity: 1; white-space: pre;">0.05</text></g><g class="ytick"><text text-anchor="end" x="59" y="4.199999999999999" transform="translate(0,372.46)" style="font-family: 'Open Sans', verdana, arial, sans-serif; font-size: 12px; fill: rgb(68, 68, 68); fill-opacity: 1; white-space: pre;">0.1</text></g><g class="ytick"><text text-anchor="end" x="59" y="4.199999999999999" transform="translate(0,212.26)" style="font-family: 'Open Sans', verdana, arial, sans-serif; font-size: 12px; fill: rgb(68, 68, 68); fill-opacity: 1; white-space: pre;">0.15</text></g><g class="ytick"><text text-anchor="end" x="59" y="4.199999999999999" transform="translate(0,52.06)" style="font-family: 'Open Sans', verdana, arial, sans-serif; font-size: 12px; fill: rgb(68, 68, 68); fill-opacity: 1; white-space: pre;">0.2</text></g></g><g class="overaxes-above"/></g></g><g class="polarlayer"/><g class="ternarylayer"/><g class="geolayer"/><g class="funnelarealayer"/><g class="pielayer"/><g class="treemaplayer"/><g class="sunburstlayer"/><g class="glimages"/><defs id="topdefs-910334"><g class="clips"/></defs><g class="layer-above"><g class="imagelayer"/><g class="shapelayer"/></g><g class="infolayer"><g class="g-gtitle"><text class="gtitle" x="513.5" y="12.5" text-anchor="middle" dy="0em" style="font-family: 'Open Sans', verdana, arial, sans-serif; font-size: 17px; fill: rgb(68, 68, 68); opacity: 1; font-weight: normal; white-space: pre;">Positive cases as proportion of tested per day as of Jan 18, 2021</text></g><g class="g-xtitle" transform="translate(0,-15)"><text class="xtitle" x="538.5" y="780" text-anchor="middle" style="font-family: 'Open Sans', verdana, arial, sans-serif; font-size: 14px; fill: rgb(68, 68, 68); opacity: 1; font-weight: normal; white-space: pre;">Date</text></g><g class="g-ytitle"><text class="ytitle" transform="rotate(-90,22,376.5)" x="22" y="376.5" text-anchor="middle" style="font-family: 'Open Sans', verdana, arial, sans-serif; font-size: 14px; fill: rgb(68, 68, 68); opacity: 1; font-weight: normal; white-space: pre;">ratio of positive to tested</text></g></g></svg>