<svg class="main-svg" xmlns="http://www.w3.org/2000/svg" xmlns:xlink="http://www.w3.org/1999/xlink" width="1027" height="768" style="" viewBox="0 0 1027 768"><rect x="0" y="0" width="1027" height="768" style="fill: rgb(255, 255, 255); fill-opacity: 1;"/><defs id="defs-015aa7"><g class="clips"><clipPath id="clip015aa7xyplot" class="plotclip"><rect width="957" height="703"/></clipPath><clipPath class="axesclip" id="clip015aa7x"><rect x="60" y="0" width="957" height="768"/></clipPath><clipPath class="axesclip" id="clip015aa7y"><rect x="0" y="25" width="1027" height="703"/></clipPath><clipPath class="axesclip" id="clip015aa7xy"><rect x="60" y="25" width="957" height="703"/></clipPath></g><g class="gradients"/></defs><g class="bglayer"/><g class="layer-below"><g class="imagelayer"/><g class="shapelayer"/></g><g class="cartesianlayer"><g class="subplot xy"><g class="layer-subplot"><g class="shapelayer"/><g class="imagelayer"/></g><g class="gridlayer"><g class="x"><path class="xgrid crisp" transform="translate(68.94,0)" d="M0,25v703" style="stroke: rgb(238, 238, 238); stroke-opacity: 1; stroke-width: 1px;"/><path class="xgrid crisp" transform="translate(250.8,0)" d="M0,25v703" style="stroke: rgb(238, 238, 238); stroke-opacity: 1; stroke-width: 1px;"/><path class="xgrid crisp" transform="translate(432.66,0)" d="M0,25v703" style="stroke: rgb(238, 238, 238); stroke-opacity: 1; stroke-width: 1px;"/><path class="xgrid crisp" transform="translate(617.5,0)" d="M0,25v703" style="stroke: rgb(238, 238, 238); stroke-opacity: 1; stroke-width: 1px;"/><path class="xgrid crisp" transform="translate(799.36,0)" d="M0,25v703" style="stroke: rgb(238, 238, 238); stroke-opacity: 1; stroke-width: 1px;"/><path class="xgrid crisp" transform="translate(981.22,0)" d="M0,25v703" style="stroke: rgb(238, 238, 238); stroke-opacity: 1; stroke-width: 1px;"/></g><g class="y"><path class="ygrid crisp" transform="translate(0,532.65)" d="M60,0h957" style="stroke: rgb(238, 238, 238); stroke-opacity: 1; stroke-width: 1px;"/><path class="ygrid crisp" transform="translate(0,372.46)" d="M60,0h957" style="stroke: rgb(238, 238, 238); stroke-opacity: 1; stroke-width: 1px;"/><path class="ygrid crisp" transform="translate(0,212.26)" d="M60,0h957" style="stroke: rgb(238, 238, 238); stroke-opacity: 1; stroke-width: 1px;"/><path class="ygrid crisp" transform="translate(0,52.06)" d="M60,0h957" style="stroke: rgb(238, 238, 238); stroke-opacity: 1; stroke-width: 1px;"/></g></g><g class="zerolinelayer"><path class="yzl zl crisp" transform="translate(0,692.85)" d="M60,0h957" style="stroke: rgb(68, 68, 68); stroke-opacity: 1; stroke-width: 1px;"/></g><path class="xlines-below"/><path class="ylines-below"/><g class="overlines-below"/><g class="xaxislayer-below"/><g class="yaxislayer-below"/><g class="overaxes-below"/><g class="plot" transform="translate(60, 25)" clip-path="url('#clip015aa7xyplot')"><g class="scatterlayer mlayer"><g class="trace scatter trace5bb201" style="stroke-miterlimit: 2; opacity: 1;"><g class="fills"/><g class="errorbars"/><g class="lines"><path class="js-line" d="M0,622.08L2.98,621.42L11.93,505.63L14.91,614.89L17.89,667.85L20.87,653.8L23.85,602.8L26.83,638.59L32.79,614.7L35.78,667.85L38.76,638.18L41.74,598.9L44.72,599.97L47.7,617.23L50.68,593.79L53.66,608L56.64,632.36L59.63,638.47L62.61,617.81L65.59,600.66L68.57,620.7L71.55,621.42L74.53,549.58L77.51,600.54L80.5,572.07L83.48,483.2L86.46,497.46L89.44,432.27L92.42,317.67L95.4,404.9L98.38,449.29L101.36,403.44L104.35,299.64L107.33,405.8L110.31,315.31L113.29,403.85L116.27,194.99L119.25,123.47L122.23,290.13L125.21,282.57L128.2,306.88L131.18,480.13L134.16,401.54L137.14,348.91L140.12,404.5L143.1,484.89L146.08,464.79L149.07,35.15L152.05,558.54L155.03,445.78L158.01,478.64L160.99,510.14L163.97,468.98L166.95,501.07L169.93,523.68L172.92,551.37L175.9,559.61L178.88,512.85L181.86,571.63L184.84,554.1L187.82,586.26L190.8,567.44L193.79,586.75L196.77,586.4L199.75,551.47L205.71,583.63L208.69,574.06L211.67,610.19L214.65,614.38L217.64,597.21L220.62,571.12L223.6,598.21L226.58,604.43L229.56,608.32L232.54,597.34L235.52,600.68L238.5,561.46L241.49,432.5L244.47,498.58L247.45,541.9L250.43,542.55L253.41,548.15L256.39,538.38L259.37,509.42L262.36,574.73L265.34,606.03L268.32,598.19L274.28,617.71L277.26,606.46L280.24,577.83L283.22,574.11L286.21,606.1L289.19,613.07L292.17,619.36L295.15,604.76L298.13,599.22L301.11,617.15L304.09,613.3L307.07,627.52L310.06,641.13L313.04,647.27L316.02,636.81L319,640.74L321.98,641.19L324.96,640.71L327.94,642.7L330.93,645.92L333.91,646.9L336.89,643.75L342.85,644.3L345.83,625.1L348.81,645.35L351.79,645.84L354.78,656.3L357.76,652.54L360.74,647.93L363.72,637.5L366.7,646.68L369.68,649.53L375.64,646L378.63,649.76L381.61,649.27L384.59,639.33L387.57,644.1L390.55,651.29L393.53,647.16L396.51,654.33L399.5,653.74L402.48,651.78L405.46,650.06L408.44,646.61L411.42,654.1L414.4,654.43L417.38,656.44L420.36,649.41L426.33,647.17L429.31,639.54L432.29,645.81L435.27,655.16L438.25,646.16L441.23,653.06L444.21,651.06L447.2,652.39L450.18,647.33L453.16,658.93L456.14,657.55L459.12,653.55L462.1,655.91L465.08,655.64L468.07,655.6L471.05,652.64L474.03,651.86L477.01,656.22L479.99,656.63L482.97,659.23L485.95,658.74L488.93,651.31L491.92,662.95L494.9,655.46L497.88,659.41L500.86,658.07L503.84,656.69L506.82,656.95L509.8,655.44L512.79,650.49L518.75,658.45L521.73,652.9L524.71,655.77L527.69,652.09L530.67,649.95L533.65,651.84L536.64,655.01L539.62,654.64L542.6,655.57L545.58,653.08L551.54,653.3L554.52,652.61L557.5,650.1L560.49,651.77L563.47,651.26L566.45,648.97L569.43,650.37L572.41,642.19L575.39,639.53L578.37,640.73L581.36,645.77L584.34,646.85L590.3,646.86L593.28,633.9L596.26,638.78L599.24,632.76L602.22,641.13L605.21,631.99L608.19,634.36L611.17,638.71L614.15,624.97L617.13,623.07L620.11,637.56L623.09,625.07L626.07,636.55L629.06,635.62L632.04,630.84L635.02,613.3L638,621.6L640.98,611.84L643.96,624.37L646.94,609.35L649.93,622.62L652.91,622.13L655.89,616.26L658.87,626.08L661.85,624.69L664.83,615.19L667.81,600.87L670.79,609.34L673.78,620.74L676.76,596.96L679.74,591.32L682.72,596.12L685.7,605.07L688.68,608.61L691.66,610.18L694.64,616.24L697.63,597.06L700.61,558.47L703.59,590.32L706.57,598.51L709.55,601.72L712.53,596.88L715.51,581.74L718.5,572.69L721.48,557.19L724.46,578.81L727.44,583.84L730.42,597.85L736.38,583.55L739.36,559.02L742.35,534.77L745.33,557.15L748.31,578.42L751.29,589.98L754.27,575.25L757.25,554.62L760.23,527.74L763.21,515.16L766.2,543.38L769.18,540.29L772.16,557.44L775.14,554.88L778.12,573.11L781.1,525L784.08,516.66L787.07,532.08L790.05,575.19L793.03,573.54L796.01,558.83L798.99,561.9L801.97,531.98L804.95,548.35L807.93,545.91L810.92,568.32L816.88,561.88L819.86,566.43L822.84,525.89L825.82,509.97L828.8,543.03L831.79,557.32L834.77,566.01L837.75,567.58L840.73,563.81L843.71,531.65L846.69,530.86L849.67,543.11L852.65,565.06L855.64,573.94L858.62,575.9L861.6,575.51L864.58,558.98L867.56,483.63L870.54,528.53L873.52,533.92L876.5,560.34L879.49,555.49L882.47,560.95L885.45,543.05L888.43,511.99L891.41,531.69L894.39,546.47L897.37,555.31L900.36,529.24L903.34,514.11L906.32,510.83L909.3,428.06L912.28,429L915.26,500.87L918.24,553.82L921.22,492.37L924.21,480.92L927.19,400.04L930.17,382.75L933.15,462.85L936.13,496.43L939.11,477.4L942.09,516.53L945.07,464.99L948.06,437.37L951.04,460.25L954.02,481.58L957,518.12" style="vector-effect: non-scaling-stroke; fill: none; stroke: rgb(31, 119, 180); stroke-opacity: 1; stroke-width: 2px; opacity: 1;"/></g><g class="points"/><g class="text"/></g></g></g><g class="overplot"/><path class="xlines-above crisp" d="M0,0" style="fill: none;"/><path class="ylines-above crisp" d="M0,0" style="fill: none;"/><g class="overlines-above"/><g class="xaxislayer-above"><g class="xtick"><text text-anchor="middle" x="0" y="741" transform="translate(68.94,0)" style="font-family: 'Open Sans', verdana, arial, sans-serif; font-size: 12px; fill: rgb(68, 68, 68); fill-opacity: 1; white-space: pre;">Mar 2020</text></g><g class="xtick"><text text-anchor="middle" x="0" y="741" transform="translate(250.8,0)" style="font-family: 'Open Sans', verdana, arial, sans-serif; font-size: 12px; fill: rgb(68, 68, 68); fill-opacity: 1; white-space: pre;">May 2020</text></g><g class="xtick"><text text-anchor="middle" x="0" y="741" transform="translate(432.66,0)" style="font-family: 'Open Sans', verdana, arial, sans-serif; font-size: 12px; fill: rgb(68, 68, 68); fill-opacity: 1; white-space: pre;">Jul 2020</text></g><g class="xtick"><text text-anchor="middle" x="0" y="741" transform="translate(617.5,0)" style="font-family: 'Open Sans', verdana, arial, sans-serif; font-size: 12px; fill: rgb(68, 68, 68); fill-opacity: 1; white-space: pre;">Sep 2020</text></g><g class="xtick"><text text-anchor="middle" x="0" y="741" transform="translate(799.36,0)" style="font-family: 'Open Sans', verdana, arial, sans-serif; font-size: 12px; fill: rgb(68, 68, 68); fill-opacity: 1; white-space: pre;">Nov 2020</text></g><g class="xtick"><text text-anchor="middle" x="0" y="741" transform="translate(981.22,0)" style="font-family: 'Open Sans', verdana, arial, sans-serif; font-size: 12px; fill: rgb(68, 68, 68); fill-opacity: 1; white-space: pre;">Jan 2021</text></g></g><g class="yaxislayer-above"><g class="ytick"><text text-anchor="end" x="59" y="4.199999999999999" transform="translate(0,692.85)" style="font-family: 'Open Sans', verdana, arial, sans-serif; font-size: 12px; fill: rgb(68, 68, 68); fill-opacity: 1; white-space: pre;">0</text></g><g class="ytick"><text text-anchor="end" x="59" y="4.199999999999999" transform="translate(0,532.65)" style="font-family: 'Open Sans', verdana, arial, sans-serif; font-size: 12px; fill: rgb(68, 68, 68); fill-opacity: 1; white-space: pre;">0.05</text></g><g class="ytick"><text text-anchor="end" x="59" y="4.199999999999999" transform="translate(0,372.46)" style="font-family: 'Open Sans', verdana, arial, sans-serif; font-size: 12px; fill: rgb(68, 68, 68); fill-opacity: 1; white-space: pre;">0.1</text></g><g class="ytick"><text text-anchor="end" x="59" y="4.199999999999999" transform="translate(0,212.26)" style="font-family: 'Open Sans', verdana, arial, sans-serif; font-size: 12px; fill: rgb(68, 68, 68); fill-opacity: 1; white-space: pre;">0.15</text></g><g class="ytick"><text text-anchor="end" x="59" y="4.199999999999999" transform="translate(0,52.06)" style="font-family: 'Open Sans', verdana, arial, sans-serif; font-size: 12px; fill: rgb(68, 68, 68); fill-opacity: 1; white-space: pre;">0.2</text></g></g><g class="overaxes-above"/></g></g><g class="polarlayer"/><g class="ternarylayer"/><g class="geolayer"/><g class="funnelarealayer"/><g class="pielayer"/><g class="treemaplayer"/><g class="sunburstlayer"/><g class="glimages"/><defs id="topdefs-015aa7"><g class="clips"/></defs><g class="layer-above"><g class="imagelayer"/><g class="shapelayer"/></g><g class="infolayer"><g class="g-gtitle"><text class="gtitle" x="513.5" y="12.5" text-anchor="middle" dy="0em" style="font-family: 'Open Sans', verdana, arial, sans-serif; font-size: 17px; fill: rgb(68, 68, 68); opacity: 1; font-weight: normal; white-space: pre;">Positive cases as proportion of tested per day as of Jan 14, 2021</text></g><g class="g-xtitle" transform="translate(0,-15)"><text class="xtitle" x="538.5" y="780" text-anchor="middle" style="font-family: 'Open Sans', verdana, arial, sans-serif; font-size: 14px; fill: rgb(68, 68, 68); opacity: 1; font-weight: normal; white-space: pre;">Date</text></g><g class="g-ytitle"><text class="ytitle" transform="rotate(-90,22,376.5)" x="22" y="376.5" text-anchor="middle" style="font-family: 'Open Sans', verdana, arial, sans-serif; font-size: 14px; fill: rgb(68, 68, 68); opacity: 1; font-weight: normal; white-space: pre;">ratio of positive to tested</text></g></g></svg>