<svg class="main-svg" xmlns="http://www.w3.org/2000/svg" xmlns:xlink="http://www.w3.org/1999/xlink" width="1027" height="768" style="" viewBox="0 0 1027 768"><rect x="0" y="0" width="1027" height="768" style="fill: rgb(255, 255, 255); fill-opacity: 1;"/><defs id="defs-13354d"><g class="clips"><clipPath id="clip13354dxyplot" class="plotclip"><rect width="838" height="703"/></clipPath><clipPath class="axesclip" id="clip13354dx"><rect x="60" y="0" width="838" height="768"/></clipPath><clipPath class="axesclip" id="clip13354dy"><rect x="0" y="25" width="1027" height="703"/></clipPath><clipPath class="axesclip" id="clip13354dxy"><rect x="60" y="25" width="838" height="703"/></clipPath></g><g class="gradients"/></defs><g class="bglayer"/><g class="layer-below"><g class="imagelayer"/><g class="shapelayer"/></g><g class="cartesianlayer"><g class="subplot xy"><g class="layer-subplot"><g class="shapelayer"/><g class="imagelayer"/></g><g class="gridlayer"><g class="x"><path class="xgrid crisp" transform="translate(64.7,0)" d="M0,25v703" style="stroke: rgb(238, 238, 238); stroke-opacity: 1; stroke-width: 1px;"/><path class="xgrid crisp" transform="translate(160.25,0)" d="M0,25v703" style="stroke: rgb(238, 238, 238); stroke-opacity: 1; stroke-width: 1px;"/><path class="xgrid crisp" transform="translate(255.79,0)" d="M0,25v703" style="stroke: rgb(238, 238, 238); stroke-opacity: 1; stroke-width: 1px;"/><path class="xgrid crisp" transform="translate(352.91,0)" d="M0,25v703" style="stroke: rgb(238, 238, 238); stroke-opacity: 1; stroke-width: 1px;"/><path class="xgrid crisp" transform="translate(448.46,0)" d="M0,25v703" style="stroke: rgb(238, 238, 238); stroke-opacity: 1; stroke-width: 1px;"/><path class="xgrid crisp" transform="translate(544,0)" d="M0,25v703" style="stroke: rgb(238, 238, 238); stroke-opacity: 1; stroke-width: 1px;"/><path class="xgrid crisp" transform="translate(636.42,0)" d="M0,25v703" style="stroke: rgb(238, 238, 238); stroke-opacity: 1; stroke-width: 1px;"/><path class="xgrid crisp" transform="translate(731.97,0)" d="M0,25v703" style="stroke: rgb(238, 238, 238); stroke-opacity: 1; stroke-width: 1px;"/><path class="xgrid crisp" transform="translate(827.51,0)" d="M0,25v703" style="stroke: rgb(238, 238, 238); stroke-opacity: 1; stroke-width: 1px;"/></g><g class="y"><path class="ygrid crisp" transform="translate(0,618.38)" d="M60,0h838" style="stroke: rgb(238, 238, 238); stroke-opacity: 1; stroke-width: 1px;"/><path class="ygrid crisp" transform="translate(0,543.9)" d="M60,0h838" style="stroke: rgb(238, 238, 238); stroke-opacity: 1; stroke-width: 1px;"/><path class="ygrid crisp" transform="translate(0,469.43)" d="M60,0h838" style="stroke: rgb(238, 238, 238); stroke-opacity: 1; stroke-width: 1px;"/><path class="ygrid crisp" transform="translate(0,394.95)" d="M60,0h838" style="stroke: rgb(238, 238, 238); stroke-opacity: 1; stroke-width: 1px;"/><path class="ygrid crisp" transform="translate(0,320.48)" d="M60,0h838" style="stroke: rgb(238, 238, 238); stroke-opacity: 1; stroke-width: 1px;"/><path class="ygrid crisp" transform="translate(0,246)" d="M60,0h838" style="stroke: rgb(238, 238, 238); stroke-opacity: 1; stroke-width: 1px;"/><path class="ygrid crisp" transform="translate(0,171.53)" d="M60,0h838" style="stroke: rgb(238, 238, 238); stroke-opacity: 1; stroke-width: 1px;"/><path class="ygrid crisp" transform="translate(0,97.05)" d="M60,0h838" style="stroke: rgb(238, 238, 238); stroke-opacity: 1; stroke-width: 1px;"/></g></g><g class="zerolinelayer"><path class="yzl zl crisp" transform="translate(0,692.85)" d="M60,0h838" style="stroke: rgb(68, 68, 68); stroke-opacity: 1; stroke-width: 1px;"/></g><path class="xlines-below"/><path class="ylines-below"/><g class="overlines-below"/><g class="xaxislayer-below"/><g class="yaxislayer-below"/><g class="overaxes-below"/><g class="plot" transform="translate(60, 25)" clip-path="url('#clip13354dxyplot')"><g class="scatterlayer mlayer"><g class="trace scatter traced43e6e" style="stroke-miterlimit: 2; opacity: 1;"><g class="fills"/><g class="errorbars"/><g class="lines"><path class="js-line" d="M0,667.85L1.57,614.65L3.13,613.88L4.7,479.31L6.27,606.3L7.83,667.85L9.4,635.19L10.96,592.24L12.53,633.84L14.1,648.85L15.66,568.99L17.23,656.99L18.8,633.37L20.36,587.72L21.93,588.96L23.5,609.02L25.06,581.78L26.63,598.29L28.19,622.85L29.76,633.7L31.33,608.34L32.89,589.76L34.46,611.12L36.03,608.98L37.59,528.61L39.16,587.74L40.73,550.68L42.29,450.69L43.86,465.31L45.42,392.22L46.99,376.2L48.56,182.87L50.12,362.24L51.69,413.84L53.26,360.54L54.82,239.9L56.39,363.29L57.96,258.12L59.52,361.01L61.09,118.28L62.65,35.15L64.22,228.86L65.79,220.07L67.35,248.32L68.92,449.67L72.05,297.17L73.62,361.77L75.19,455.21L76.75,431.85L78.32,476.98L79.88,448.51L81.45,409.75L83.02,447.94L84.58,484.56L86.15,436.71L90.85,532.47L92.41,542.04L93.98,487.7L95.55,556.02L97.11,535.64L98.68,573.02L100.25,551.15L101.81,573.59L103.38,573.19L104.95,532.59L108.08,569.97L109.64,558.85L111.21,600.84L112.78,605.71L114.34,585.75L115.91,555.43L117.48,586.92L119.04,594.14L120.61,598.67L122.18,585.91L123.74,589.78L125.31,544.2L126.87,394.32L128.44,471.12L130.01,521.47L131.57,522.22L133.14,528.73L134.71,517.37L136.27,483.71L137.84,559.63L139.41,596L140.97,586.89L144.1,609.58L145.67,596.5L147.24,563.23L148.8,558.9L150.37,596.08L151.94,604.18L153.5,611.49L155.07,594.52L156.64,588.09L158.2,608.93L159.77,604.45L161.33,620.98L162.9,636.79L164.47,643.93L166.03,631.77L167.6,636.34L169.17,636.86L170.73,636.31L172.3,638.62L173.87,642.37L175.43,643.5L177,639.84L180.13,640.47L181.7,618.17L183.26,641.7L184.83,642.27L186.4,654.42L187.96,650.06L189.53,644.7L191.1,632.57L192.66,643.24L194.23,646.56L197.36,642.45L198.93,646.82L200.49,646.25L202.06,634.71L203.63,640.25L205.19,648.61L206.76,643.8L208.33,652.13L209.89,651.45L211.46,649.18L213.02,647.18L214.59,643.16L216.16,651.87L217.72,652.25L219.29,654.59L220.86,646.42L223.99,643.81L225.56,634.95L228.69,653.1L230.25,642.65L231.82,650.67L233.39,648.34L234.95,649.88L236.52,644L238.09,657.49L239.65,655.88L241.22,651.24L242.79,653.98L245.92,653.62L247.48,650.17L249.05,649.26L250.62,654.34L252.18,654.81L253.75,657.83L255.32,657.26L256.88,648.63L258.45,662.16L260.01,653.45L261.58,658.05L263.15,656.48L264.71,654.88L266.28,655.18L267.85,653.43L269.41,647.67L272.55,656.93L274.11,650.47L275.68,653.82L277.24,649.54L278.81,647.04L280.38,649.24L281.94,652.93L283.51,652.5L285.08,653.57L286.64,650.68L289.78,650.94L291.34,650.14L292.91,647.22L294.47,649.16L296.04,648.57L297.61,645.9L299.17,647.53L300.74,638.03L302.31,634.93L303.87,636.33L305.44,642.19L307.01,643.45L310.14,643.46L311.7,628.39L313.27,634.06L314.84,627.07L316.4,636.8L317.97,626.17L319.54,628.93L321.1,633.98L322.67,618.01L324.24,615.81L325.8,632.65L327.37,618.13L328.93,631.47L330.5,630.39L332.07,624.84L333.63,604.45L335.2,614.09L336.77,602.76L338.33,617.32L339.9,599.86L341.47,615.28L343.03,614.71L344.6,607.89L346.16,619.3L347.73,617.69L349.3,606.64L350.86,590L352.43,599.84L354,613.1L355.56,585.46L357.13,578.91L358.7,584.49L360.26,594.89L361.83,599L363.39,600.82L364.96,607.87L366.53,585.58L368.09,540.73L369.66,577.74L371.23,587.26L372.79,590.99L374.36,585.36L379.06,539.24L380.62,564.36L382.19,570.21L383.76,586.49L386.89,569.88L388.46,541.36L390.02,513.18L391.59,539.19L394.72,577.35L396.29,560.22L400.99,490.39L402.55,523.19L404.12,519.59L405.69,539.52L407.25,536.55L408.82,557.74L410.39,501.82L411.95,492.13L413.52,510.06L415.08,560.16L416.65,558.24L418.22,541.15L419.78,544.71L421.35,509.94L422.92,528.97L424.48,526.13L426.05,552.17L427.61,548.83L429.18,544.69L430.75,549.98L432.31,502.86L433.88,484.35L435.45,522.78L437.01,539.39L438.58,549.49L440.15,551.31L441.71,546.93L443.28,509.55L444.84,508.63L446.41,522.88L447.98,548.38L449.54,558.71L451.11,560.98L452.68,560.53L454.24,541.31L455.81,453.74L457.38,505.92L458.94,512.19L460.51,542.9L462.07,537.26L463.64,543.6L465.21,522.81L466.77,486.7L468.34,509.59L471.47,537.05L473.04,506.75L474.61,489.16L476.17,485.36L477.74,389.16L479.3,390.26L482.44,535.32L484,463.9L485.57,450.6L487.14,356.6L488.7,336.49L490.27,429.6L491.84,468.62L493.4,446.5L494.97,491.98L496.53,432.08L498.1,399.98L499.67,426.57L501.23,451.36L502.8,493.83L504.37,521.87L505.93,513.81L507.5,456.12L509.07,429.65L513.76,528.35L515.33,529.7L516.9,529.41L518.46,483.97L520.03,465.14L521.6,456.92L523.16,555.18L524.73,547.32L526.3,568.77L527.86,538.94L529.43,528.41L530.99,426.34L532.56,570.69L534.13,584.59L537.26,568.69L538.83,584.94L540.39,560.52L541.96,501.42L546.66,616.71L548.22,603.24L549.79,585.47L551.36,592.84L552.92,549.59L554.49,543.2L557.62,599.03L559.19,602.34L560.76,587.9L562.32,583.83L563.89,541.43L565.45,528.1L567.02,596.3L568.59,603.98L570.15,594.71L571.72,593.58L573.29,587.45L574.85,559.06L576.42,550.94L577.99,600.05L579.55,611.46L581.12,595.96L582.68,604.1L584.25,564.02L585.82,508.29L587.38,535.2L590.52,600.77L592.08,588.84L593.65,574.3L595.21,531.23L598.35,527.65L599.91,553.55L601.48,569.1L603.05,552.09L604.61,537.08L606.18,532.39L607.75,464.35L609.31,491.02L610.88,555.27L612.44,520.33L614.01,516.7L615.58,518.12L617.14,486.36L618.71,470.3L620.28,426.7L621.84,502.48L623.41,514.99L624.98,483.32L626.54,478.32L628.11,423.7L629.67,368.63L631.24,363.83L634.37,475.67L635.94,411.54L637.51,436.75L639.07,373.53L640.64,325.93L642.21,343.76L643.77,382.38L645.34,398.85L650.04,373.56L651.6,281.61L653.17,349.65L654.74,365.51L656.3,415.1L657.87,369.39L659.44,375.58L661,353.09L662.57,281.41L664.13,310.26L665.7,409.68L667.27,414.69L668.83,395.13L670.4,399.81L671.97,361.08L673.53,282.22L676.67,428.56L678.23,432.25L681.36,444.82L682.93,357.12L684.5,295.68L686.06,393.23L687.63,478.73L689.2,452.19L690.76,468.14L692.33,440.48L693.9,420.78L695.46,338.01L697.03,405.25L698.59,513.95L700.16,471.03L701.73,478.28L703.29,474.64L704.86,466.2L706.43,400.64L707.99,438.33L711.13,555.76L712.69,551.85L714.26,550.56L715.82,523.05L717.39,480.7L718.96,539.39L720.52,581.93L722.09,573.34L723.66,562.34L725.22,568.26L726.79,558.78L728.36,539.04L729.92,568.5L731.49,617.6L733.05,597.95L734.62,594.02L736.19,590.28L737.75,572.65L739.32,545.35L740.89,603.63L742.45,616.92L744.02,622.61L747.15,615.74L748.72,611.63L750.28,595.14L751.85,602.18L753.42,633.15L754.98,630.5L756.55,631.96L758.12,617.57L759.68,610.16L761.25,608.02L764.38,642.71L765.95,628.58L767.51,638.25L769.08,622.28L770.65,626.08L772.21,618.96L773.78,610.37L775.35,641.07L776.91,637.61L778.48,641.74L780.04,639.72L781.61,636.39L783.18,641.21L784.74,636.76L786.31,648.26L787.88,650.85L789.44,646.8L791.01,637.21L792.58,623.33L794.14,626L795.71,633.04L797.27,643.62L798.84,632.7L800.41,631.66L801.97,634.76L803.54,621.78L805.11,630.71L806.67,632.64L808.24,639.19L809.81,626.06L811.37,627.76L812.94,617.58L814.5,610.37L816.07,614.19L817.64,614.82L819.2,637.61L820.77,634.09L822.34,613.86L823.9,600.37L825.47,562.58L827.04,591.28" style="vector-effect: non-scaling-stroke; fill: none; stroke: rgb(31, 119, 180); stroke-opacity: 1; stroke-width: 2px; opacity: 1;"/></g><g class="points"/><g class="text"/></g><g class="trace scatter trace08e97d" style="stroke-miterlimit: 2; opacity: 1;"><g class="fills"/><g class="errorbars"/><g class="lines"><path class="js-line" d="M827.04,591.28L830.17,608.05L831.73,595.02L833.3,588.36L834.87,564.02L836.43,559.6L838,564.72" style="vector-effect: non-scaling-stroke; fill: none; stroke: rgb(255, 127, 14); stroke-opacity: 1; stroke-width: 2px; opacity: 1;"/></g><g class="points"/><g class="text"/></g></g></g><g class="overplot"/><path class="xlines-above crisp" style="fill: none;" d="M0,0"/><path class="ylines-above crisp" style="fill: none;" d="M0,0"/><g class="overlines-above"/><g class="xaxislayer-above"><g class="xtick"><text text-anchor="middle" x="0" y="741" transform="translate(64.7,0)" style="font-family: 'Open Sans', verdana, arial, sans-serif; font-size: 12px; fill: rgb(68, 68, 68); fill-opacity: 1; white-space: pre;">Mar 2020</text></g><g class="xtick"><text text-anchor="middle" x="0" y="741" transform="translate(160.25,0)" style="font-family: 'Open Sans', verdana, arial, sans-serif; font-size: 12px; fill: rgb(68, 68, 68); fill-opacity: 1; white-space: pre;">May 2020</text></g><g class="xtick"><text text-anchor="middle" x="0" y="741" transform="translate(255.79,0)" style="font-family: 'Open Sans', verdana, arial, sans-serif; font-size: 12px; fill: rgb(68, 68, 68); fill-opacity: 1; white-space: pre;">Jul 2020</text></g><g class="xtick"><text text-anchor="middle" x="0" y="741" transform="translate(352.91,0)" style="font-family: 'Open Sans', verdana, arial, sans-serif; font-size: 12px; fill: rgb(68, 68, 68); fill-opacity: 1; white-space: pre;">Sep 2020</text></g><g class="xtick"><text text-anchor="middle" x="0" y="741" transform="translate(448.46,0)" style="font-family: 'Open Sans', verdana, arial, sans-serif; font-size: 12px; fill: rgb(68, 68, 68); fill-opacity: 1; white-space: pre;">Nov 2020</text></g><g class="xtick"><text text-anchor="middle" x="0" y="741" transform="translate(544,0)" style="font-family: 'Open Sans', verdana, arial, sans-serif; font-size: 12px; fill: rgb(68, 68, 68); fill-opacity: 1; white-space: pre;">Jan 2021</text></g><g class="xtick"><text text-anchor="middle" x="0" y="741" transform="translate(636.42,0)" style="font-family: 'Open Sans', verdana, arial, sans-serif; font-size: 12px; fill: rgb(68, 68, 68); fill-opacity: 1; white-space: pre;">Mar 2021</text></g><g class="xtick"><text text-anchor="middle" x="0" y="741" transform="translate(731.97,0)" style="font-family: 'Open Sans', verdana, arial, sans-serif; font-size: 12px; fill: rgb(68, 68, 68); fill-opacity: 1; white-space: pre;">May 2021</text></g><g class="xtick"><text text-anchor="middle" x="0" y="741" transform="translate(827.51,0)" style="font-family: 'Open Sans', verdana, arial, sans-serif; font-size: 12px; fill: rgb(68, 68, 68); fill-opacity: 1; white-space: pre;">Jul 2021</text></g></g><g class="yaxislayer-above"><g class="ytick"><text text-anchor="end" x="59" y="4.199999999999999" transform="translate(0,692.85)" style="font-family: 'Open Sans', verdana, arial, sans-serif; font-size: 12px; fill: rgb(68, 68, 68); fill-opacity: 1; white-space: pre;">0</text></g><g class="ytick"><text text-anchor="end" x="59" y="4.199999999999999" transform="translate(0,618.38)" style="font-family: 'Open Sans', verdana, arial, sans-serif; font-size: 12px; fill: rgb(68, 68, 68); fill-opacity: 1; white-space: pre;">0.02</text></g><g class="ytick"><text text-anchor="end" x="59" y="4.199999999999999" transform="translate(0,543.9)" style="font-family: 'Open Sans', verdana, arial, sans-serif; font-size: 12px; fill: rgb(68, 68, 68); fill-opacity: 1; white-space: pre;">0.04</text></g><g class="ytick"><text text-anchor="end" x="59" y="4.199999999999999" transform="translate(0,469.43)" style="font-family: 'Open Sans', verdana, arial, sans-serif; font-size: 12px; fill: rgb(68, 68, 68); fill-opacity: 1; white-space: pre;">0.06</text></g><g class="ytick"><text text-anchor="end" x="59" y="4.199999999999999" transform="translate(0,394.95)" style="font-family: 'Open Sans', verdana, arial, sans-serif; font-size: 12px; fill: rgb(68, 68, 68); fill-opacity: 1; white-space: pre;">0.08</text></g><g class="ytick"><text text-anchor="end" x="59" y="4.199999999999999" transform="translate(0,320.48)" style="font-family: 'Open Sans', verdana, arial, sans-serif; font-size: 12px; fill: rgb(68, 68, 68); fill-opacity: 1; white-space: pre;">0.1</text></g><g class="ytick"><text text-anchor="end" x="59" y="4.199999999999999" transform="translate(0,246)" style="font-family: 'Open Sans', verdana, arial, sans-serif; font-size: 12px; fill: rgb(68, 68, 68); fill-opacity: 1; white-space: pre;">0.12</text></g><g class="ytick"><text text-anchor="end" x="59" y="4.199999999999999" transform="translate(0,171.53)" style="font-family: 'Open Sans', verdana, arial, sans-serif; font-size: 12px; fill: rgb(68, 68, 68); fill-opacity: 1; white-space: pre;">0.14</text></g><g class="ytick"><text text-anchor="end" x="59" y="4.199999999999999" transform="translate(0,97.05)" style="font-family: 'Open Sans', verdana, arial, sans-serif; font-size: 12px; fill: rgb(68, 68, 68); fill-opacity: 1; white-space: pre;">0.16</text></g></g><g class="overaxes-above"/></g></g><g class="polarlayer"/><g class="ternarylayer"/><g class="geolayer"/><g class="funnelarealayer"/><g class="pielayer"/><g class="treemaplayer"/><g class="sunburstlayer"/><g class="glimages"/><defs id="topdefs-13354d"><g class="clips"/><clipPath id="legend13354d"><rect width="102" height="48" x="0" y="0"/></clipPath></defs><g class="layer-above"><g class="imagelayer"/><g class="shapelayer"/></g><g class="infolayer"><g class="legend" pointer-events="all" transform="translate(914.76, 25)"><rect class="bg" shape-rendering="crispEdges" style="stroke: rgb(68, 68, 68); stroke-opacity: 1; fill: rgb(255, 255, 255); fill-opacity: 1; stroke-width: 0px;" width="102" height="48" x="0" y="0"/><g class="scrollbox" transform="translate(0, 0)" clip-path="url('#legend13354d')"><g class="groups"><g class="traces" style="opacity: 1;" transform="translate(0, 14.5)"><text class="legendtext" text-anchor="start" x="40" y="4.680000000000001" style="font-family: 'Open Sans', verdana, arial, sans-serif; font-size: 12px; fill: rgb(68, 68, 68); fill-opacity: 1; white-space: pre;">actuals</text><g class="layers" style="opacity: 1;"><g class="legendfill"/><g class="legendlines"><path class="js-line" d="M5,0h30" style="fill: none; stroke: rgb(31, 119, 180); stroke-opacity: 1; stroke-width: 2px;"/></g><g class="legendsymbols"><g class="legendpoints"/></g></g><rect class="legendtoggle" x="0" y="-9.5" width="96.21875" height="19" style="fill: rgb(0, 0, 0); fill-opacity: 0;"/></g><g class="traces" style="opacity: 1;" transform="translate(0, 33.5)"><text class="legendtext" text-anchor="start" x="40" y="4.680000000000001" style="font-family: 'Open Sans', verdana, arial, sans-serif; font-size: 12px; fill: rgb(68, 68, 68); fill-opacity: 1; white-space: pre;">forecasts</text><g class="layers" style="opacity: 1;"><g class="legendfill"/><g class="legendlines"><path class="js-line" d="M5,0h30" style="fill: none; stroke: rgb(255, 127, 14); stroke-opacity: 1; stroke-width: 2px;"/></g><g class="legendsymbols"><g class="legendpoints"/></g></g><rect class="legendtoggle" x="0" y="-9.5" width="96.21875" height="19" style="fill: rgb(0, 0, 0); fill-opacity: 0;"/></g></g></g><rect class="scrollbar" rx="20" ry="3" width="0" height="0" style="fill: rgb(128, 139, 164); fill-opacity: 1;" x="0" y="0"/></g><g class="g-gtitle"><text class="gtitle" x="513.5" y="12.5" text-anchor="middle" dy="0em" style="font-family: 'Open Sans', verdana, arial, sans-serif; font-size: 17px; fill: rgb(68, 68, 68); opacity: 1; font-weight: normal; white-space: pre;">Positive cases as proportion of tested per day as of Aug 09, 2021. Including a 7-day forecast of positivity rate.</text></g><g class="g-xtitle" transform="translate(0,-15)"><text class="xtitle" x="479" y="780" text-anchor="middle" style="font-family: 'Open Sans', verdana, arial, sans-serif; font-size: 14px; fill: rgb(68, 68, 68); opacity: 1; font-weight: normal; white-space: pre;">Date</text></g><g class="g-ytitle"><text class="ytitle" transform="rotate(-90,22,376.5)" x="22" y="376.5" text-anchor="middle" style="font-family: 'Open Sans', verdana, arial, sans-serif; font-size: 14px; fill: rgb(68, 68, 68); opacity: 1; font-weight: normal; white-space: pre;">ratio of positive to tested</text></g></g></svg>