<svg class="main-svg" xmlns="http://www.w3.org/2000/svg" xmlns:xlink="http://www.w3.org/1999/xlink" width="1027" height="768" style="" viewBox="0 0 1027 768"><rect x="0" y="0" width="1027" height="768" style="fill: rgb(255, 255, 255); fill-opacity: 1;"/><defs id="defs-8d96b7"><g class="clips"><clipPath id="clip8d96b7xyplot" class="plotclip"><rect width="957" height="703"/></clipPath><clipPath class="axesclip" id="clip8d96b7x"><rect x="60" y="0" width="957" height="768"/></clipPath><clipPath class="axesclip" id="clip8d96b7y"><rect x="0" y="25" width="1027" height="703"/></clipPath><clipPath class="axesclip" id="clip8d96b7xy"><rect x="60" y="25" width="957" height="703"/></clipPath></g><g class="gradients"/></defs><g class="bglayer"/><g class="layer-below"><g class="imagelayer"/><g class="shapelayer"/></g><g class="cartesianlayer"><g class="subplot xy"><g class="layer-subplot"><g class="shapelayer"/><g class="imagelayer"/></g><g class="gridlayer"><g class="x"><path class="xgrid crisp" transform="translate(72.38,0)" d="M0,25v703" style="stroke: rgb(238, 238, 238); stroke-opacity: 1; stroke-width: 1px;"/><path class="xgrid crisp" transform="translate(200.25,0)" d="M0,25v703" style="stroke: rgb(238, 238, 238); stroke-opacity: 1; stroke-width: 1px;"/><path class="xgrid crisp" transform="translate(324,0)" d="M0,25v703" style="stroke: rgb(238, 238, 238); stroke-opacity: 1; stroke-width: 1px;"/><path class="xgrid crisp" transform="translate(451.88,0)" d="M0,25v703" style="stroke: rgb(238, 238, 238); stroke-opacity: 1; stroke-width: 1px;"/><path class="xgrid crisp" transform="translate(575.63,0)" d="M0,25v703" style="stroke: rgb(238, 238, 238); stroke-opacity: 1; stroke-width: 1px;"/><path class="xgrid crisp" transform="translate(703.5,0)" d="M0,25v703" style="stroke: rgb(238, 238, 238); stroke-opacity: 1; stroke-width: 1px;"/><path class="xgrid crisp" transform="translate(831.38,0)" d="M0,25v703" style="stroke: rgb(238, 238, 238); stroke-opacity: 1; stroke-width: 1px;"/><path class="xgrid crisp" transform="translate(955.13,0)" d="M0,25v703" style="stroke: rgb(238, 238, 238); stroke-opacity: 1; stroke-width: 1px;"/></g><g class="y"><path class="ygrid crisp" transform="translate(0,532.65)" d="M60,0h957" style="stroke: rgb(238, 238, 238); stroke-opacity: 1; stroke-width: 1px;"/><path class="ygrid crisp" transform="translate(0,372.46)" d="M60,0h957" style="stroke: rgb(238, 238, 238); stroke-opacity: 1; stroke-width: 1px;"/><path class="ygrid crisp" transform="translate(0,212.26)" d="M60,0h957" style="stroke: rgb(238, 238, 238); stroke-opacity: 1; stroke-width: 1px;"/><path class="ygrid crisp" transform="translate(0,52.06)" d="M60,0h957" style="stroke: rgb(238, 238, 238); stroke-opacity: 1; stroke-width: 1px;"/></g></g><g class="zerolinelayer"><path class="yzl zl crisp" transform="translate(0,692.85)" d="M60,0h957" style="stroke: rgb(68, 68, 68); stroke-opacity: 1; stroke-width: 1px;"/></g><path class="xlines-below"/><path class="ylines-below"/><g class="overlines-below"/><g class="xaxislayer-below"/><g class="yaxislayer-below"/><g class="overaxes-below"/><g class="plot" transform="translate(60, 25)" clip-path="url('#clip8d96b7xyplot')"><g class="scatterlayer mlayer"><g class="trace scatter trace09fcd6" style="stroke-miterlimit: 2; opacity: 1;"><g class="fills"/><g class="errorbars"/><g class="lines"><path class="js-line" d="M0,622.08L4.13,621.42L16.5,505.63L20.63,614.89L24.75,667.85L28.88,653.8L33,602.8L37.13,638.59L45.38,614.7L49.5,667.85L53.63,638.18L57.75,598.9L61.88,599.97L66,617.23L70.13,593.79L74.25,608L78.38,632.36L82.5,638.47L86.63,617.81L90.75,600.66L94.88,620.7L99,621.42L103.13,549.58L107.25,600.54L111.38,572.07L115.5,483.2L119.63,497.46L123.75,432.27L127.88,317.67L132,404.9L136.13,449.29L140.25,403.44L144.38,299.64L148.5,405.8L152.63,315.31L156.75,403.85L160.88,194.99L165,123.47L169.13,290.13L173.25,282.57L177.38,306.88L181.5,480.13L185.63,401.54L189.75,348.91L193.88,404.5L198,484.89L202.13,464.79L206.25,35.15L210.38,558.54L214.5,445.78L218.63,478.64L222.75,510.14L226.88,468.98L231,501.07L235.13,523.68L239.25,551.37L243.38,559.61L247.5,512.85L251.63,571.63L255.75,554.1L259.88,586.26L264,567.44L268.13,586.75L272.25,586.4L276.38,551.47L280.5,566L284.63,583.63L288.75,574.06L292.88,610.19L297,614.38L301.13,597.21L305.25,571.12L309.38,598.21L313.5,604.43L317.63,608.32L321.75,597.34L325.88,600.68L330,561.46L334.13,432.5L338.25,498.58L342.38,541.9L346.5,542.55L350.63,548.15L354.75,538.38L358.88,509.42L363,574.73L367.13,606.03L371.25,598.19L375.38,608.35L379.5,617.71L383.63,606.46L387.75,577.83L391.88,574.11L396,606.1L400.13,613.07L404.25,619.36L408.38,604.76L412.5,599.22L416.63,617.15L420.75,613.3L424.88,627.52L429,641.13L433.13,647.27L437.25,636.81L441.38,640.74L445.5,641.19L449.63,640.71L453.75,642.7L457.88,645.92L462,646.9L466.13,643.75L474.38,644.3L478.5,625.1L482.63,645.35L486.75,645.84L490.88,656.3L495,652.54L499.13,647.93L503.25,637.5L507.38,646.68L511.5,649.53L519.75,646L523.88,649.76L528,649.27L532.13,639.33L536.25,644.1L540.38,651.29L544.5,647.16L548.63,654.33L552.75,653.74L556.88,651.78L561,650.06L565.13,646.61L569.25,654.1L573.38,654.43L577.5,656.44L581.63,649.41L589.88,647.17L594,639.54L598.13,645.81L602.25,655.16L606.38,646.16L610.5,653.06L614.63,651.06L618.75,652.39L622.88,647.33L627,658.93L631.13,657.55L635.25,653.55L639.38,655.91L643.5,655.64L647.63,655.6L651.75,652.64L655.88,651.86L660,656.22L664.13,656.63L668.25,659.23L672.38,658.74L676.5,651.31L680.63,662.95L684.75,655.46L688.88,659.41L693,658.07L697.13,656.69L701.25,656.95L705.38,655.44L709.5,650.49L713.63,655.11L717.75,658.45L721.88,652.9L726,655.77L730.13,652.09L734.25,649.95L738.38,651.84L742.5,655.01L746.63,654.64L750.75,655.57L754.88,653.08L759,653.48L767.25,652.61L771.38,650.1L775.5,651.77L779.63,651.26L783.75,648.97L787.88,650.37L792,642.19L796.13,639.53L800.25,640.73L804.38,645.77L808.5,646.85L812.63,646.98L816.75,646.86L820.88,633.9L825,638.78L829.13,632.76L833.25,641.13L837.38,631.99L841.5,634.36L845.63,638.71L849.75,624.97L853.88,623.07L858,637.56L862.13,625.07L866.25,636.55L870.38,635.62L874.5,630.84L878.63,613.3L882.75,621.6L886.88,611.84L891,624.37L895.13,609.35L899.25,622.62L903.38,622.13L907.5,616.26L911.63,626.08L915.75,624.69L919.88,615.19L924,600.87L928.13,609.34L932.25,620.74L936.38,596.96L940.5,591.32L944.63,596.12L948.75,605.07L952.88,608.61L957,610.18" style="vector-effect: non-scaling-stroke; fill: none; stroke: rgb(31, 119, 180); stroke-opacity: 1; stroke-width: 2px; opacity: 1;"/></g><g class="points"/><g class="text"/></g></g></g><g class="overplot"/><path class="xlines-above crisp" d="M0,0" style="fill: none;"/><path class="ylines-above crisp" d="M0,0" style="fill: none;"/><g class="overlines-above"/><g class="xaxislayer-above"><g class="xtick"><text text-anchor="middle" x="0" y="741" transform="translate(72.38,0)" style="font-family: 'Open Sans', verdana, arial, sans-serif; font-size: 12px; fill: rgb(68, 68, 68); fill-opacity: 1; white-space: pre;">Mar 2020</text></g><g class="xtick"><text text-anchor="middle" x="0" y="741" transform="translate(200.25,0)" style="font-family: 'Open Sans', verdana, arial, sans-serif; font-size: 12px; fill: rgb(68, 68, 68); fill-opacity: 1; white-space: pre;">Apr 2020</text></g><g class="xtick"><text text-anchor="middle" x="0" y="741" transform="translate(324,0)" style="font-family: 'Open Sans', verdana, arial, sans-serif; font-size: 12px; fill: rgb(68, 68, 68); fill-opacity: 1; white-space: pre;">May 2020</text></g><g class="xtick"><text text-anchor="middle" x="0" y="741" transform="translate(451.88,0)" style="font-family: 'Open Sans', verdana, arial, sans-serif; font-size: 12px; fill: rgb(68, 68, 68); fill-opacity: 1; white-space: pre;">Jun 2020</text></g><g class="xtick"><text text-anchor="middle" x="0" y="741" transform="translate(575.63,0)" style="font-family: 'Open Sans', verdana, arial, sans-serif; font-size: 12px; fill: rgb(68, 68, 68); fill-opacity: 1; white-space: pre;">Jul 2020</text></g><g class="xtick"><text text-anchor="middle" x="0" y="741" transform="translate(703.5,0)" style="font-family: 'Open Sans', verdana, arial, sans-serif; font-size: 12px; fill: rgb(68, 68, 68); fill-opacity: 1; white-space: pre;">Aug 2020</text></g><g class="xtick"><text text-anchor="middle" x="0" y="741" transform="translate(831.38,0)" style="font-family: 'Open Sans', verdana, arial, sans-serif; font-size: 12px; fill: rgb(68, 68, 68); fill-opacity: 1; white-space: pre;">Sep 2020</text></g><g class="xtick"><text text-anchor="middle" x="0" y="741" transform="translate(955.13,0)" style="font-family: 'Open Sans', verdana, arial, sans-serif; font-size: 12px; fill: rgb(68, 68, 68); fill-opacity: 1; white-space: pre;">Oct 2020</text></g></g><g class="yaxislayer-above"><g class="ytick"><text text-anchor="end" x="59" y="4.199999999999999" transform="translate(0,692.85)" style="font-family: 'Open Sans', verdana, arial, sans-serif; font-size: 12px; fill: rgb(68, 68, 68); fill-opacity: 1; white-space: pre;">0</text></g><g class="ytick"><text text-anchor="end" x="59" y="4.199999999999999" transform="translate(0,532.65)" style="font-family: 'Open Sans', verdana, arial, sans-serif; font-size: 12px; fill: rgb(68, 68, 68); fill-opacity: 1; white-space: pre;">0.05</text></g><g class="ytick"><text text-anchor="end" x="59" y="4.199999999999999" transform="translate(0,372.46)" style="font-family: 'Open Sans', verdana, arial, sans-serif; font-size: 12px; fill: rgb(68, 68, 68); fill-opacity: 1; white-space: pre;">0.1</text></g><g class="ytick"><text text-anchor="end" x="59" y="4.199999999999999" transform="translate(0,212.26)" style="font-family: 'Open Sans', verdana, arial, sans-serif; font-size: 12px; fill: rgb(68, 68, 68); fill-opacity: 1; white-space: pre;">0.15</text></g><g class="ytick"><text text-anchor="end" x="59" y="4.199999999999999" transform="translate(0,52.06)" style="font-family: 'Open Sans', verdana, arial, sans-serif; font-size: 12px; fill: rgb(68, 68, 68); fill-opacity: 1; white-space: pre;">0.2</text></g></g><g class="overaxes-above"/></g></g><g class="polarlayer"/><g class="ternarylayer"/><g class="geolayer"/><g class="funnelarealayer"/><g class="pielayer"/><g class="treemaplayer"/><g class="sunburstlayer"/><g class="glimages"/><defs id="topdefs-8d96b7"><g class="clips"/></defs><g class="layer-above"><g class="imagelayer"/><g class="shapelayer"/></g><g class="infolayer"><g class="g-gtitle"><text class="gtitle" x="513.5" y="12.5" text-anchor="middle" dy="0em" style="font-family: 'Open Sans', verdana, arial, sans-serif; font-size: 17px; fill: rgb(68, 68, 68); opacity: 1; font-weight: normal; white-space: pre;">Positive cases as proportion of tested per day as of Oct 17, 2020</text></g><g class="g-xtitle" transform="translate(0,-15)"><text class="xtitle" x="538.5" y="780" text-anchor="middle" style="font-family: 'Open Sans', verdana, arial, sans-serif; font-size: 14px; fill: rgb(68, 68, 68); opacity: 1; font-weight: normal; white-space: pre;">Date</text></g><g class="g-ytitle"><text class="ytitle" transform="rotate(-90,22,376.5)" x="22" y="376.5" text-anchor="middle" style="font-family: 'Open Sans', verdana, arial, sans-serif; font-size: 14px; fill: rgb(68, 68, 68); opacity: 1; font-weight: normal; white-space: pre;">ratio of positive to tested</text></g></g></svg>