<svg class="main-svg" xmlns="http://www.w3.org/2000/svg" xmlns:xlink="http://www.w3.org/1999/xlink" width="1027" height="768" style="" viewBox="0 0 1027 768"><rect x="0" y="0" width="1027" height="768" style="fill: rgb(255, 255, 255); fill-opacity: 1;"/><defs id="defs-98731b"><g class="clips"><clipPath id="clip98731bxyplot" class="plotclip"><rect width="955" height="703"/></clipPath><clipPath class="axesclip" id="clip98731bx"><rect x="60" y="0" width="955" height="768"/></clipPath><clipPath class="axesclip" id="clip98731by"><rect x="0" y="25" width="1027" height="703"/></clipPath><clipPath class="axesclip" id="clip98731bxy"><rect x="60" y="25" width="955" height="703"/></clipPath></g><g class="gradients"/></defs><g class="bglayer"/><g class="layer-below"><g class="imagelayer"/><g class="shapelayer"/></g><g class="cartesianlayer"><g class="subplot xy"><g class="layer-subplot"><g class="shapelayer"/><g class="imagelayer"/></g><g class="gridlayer"><g class="x"><path class="xgrid crisp" transform="translate(70.02,0)" d="M0,25v703" style="stroke: rgb(238, 238, 238); stroke-opacity: 1; stroke-width: 1px;"/><path class="xgrid crisp" transform="translate(173.53,0)" d="M0,25v703" style="stroke: rgb(238, 238, 238); stroke-opacity: 1; stroke-width: 1px;"/><path class="xgrid crisp" transform="translate(273.71000000000004,0)" d="M0,25v703" style="stroke: rgb(238, 238, 238); stroke-opacity: 1; stroke-width: 1px;"/><path class="xgrid crisp" transform="translate(377.22,0)" d="M0,25v703" style="stroke: rgb(238, 238, 238); stroke-opacity: 1; stroke-width: 1px;"/><path class="xgrid crisp" transform="translate(477.4,0)" d="M0,25v703" style="stroke: rgb(238, 238, 238); stroke-opacity: 1; stroke-width: 1px;"/><path class="xgrid crisp" transform="translate(580.91,0)" d="M0,25v703" style="stroke: rgb(238, 238, 238); stroke-opacity: 1; stroke-width: 1px;"/><path class="xgrid crisp" transform="translate(684.42,0)" d="M0,25v703" style="stroke: rgb(238, 238, 238); stroke-opacity: 1; stroke-width: 1px;"/><path class="xgrid crisp" transform="translate(784.6,0)" d="M0,25v703" style="stroke: rgb(238, 238, 238); stroke-opacity: 1; stroke-width: 1px;"/><path class="xgrid crisp" transform="translate(888.11,0)" d="M0,25v703" style="stroke: rgb(238, 238, 238); stroke-opacity: 1; stroke-width: 1px;"/><path class="xgrid crisp" transform="translate(988.29,0)" d="M0,25v703" style="stroke: rgb(238, 238, 238); stroke-opacity: 1; stroke-width: 1px;"/></g><g class="y"><path class="ygrid crisp" transform="translate(0,532.65)" d="M60,0h955" style="stroke: rgb(238, 238, 238); stroke-opacity: 1; stroke-width: 1px;"/><path class="ygrid crisp" transform="translate(0,372.46)" d="M60,0h955" style="stroke: rgb(238, 238, 238); stroke-opacity: 1; stroke-width: 1px;"/><path class="ygrid crisp" transform="translate(0,212.26)" d="M60,0h955" style="stroke: rgb(238, 238, 238); stroke-opacity: 1; stroke-width: 1px;"/><path class="ygrid crisp" transform="translate(0,52.06)" d="M60,0h955" style="stroke: rgb(238, 238, 238); stroke-opacity: 1; stroke-width: 1px;"/></g></g><g class="zerolinelayer"><path class="yzl zl crisp" transform="translate(0,692.85)" d="M60,0h955" style="stroke: rgb(68, 68, 68); stroke-opacity: 1; stroke-width: 1px;"/></g><path class="xlines-below"/><path class="ylines-below"/><g class="overlines-below"/><g class="xaxislayer-below"/><g class="yaxislayer-below"/><g class="overaxes-below"/><g class="plot" transform="translate(60, 25)" clip-path="url('#clip98731bxyplot')"><g class="scatterlayer mlayer"><g class="trace scatter trace92371b" style="stroke-miterlimit: 2; opacity: 1;"><g class="fills"/><g class="errorbars"/><g class="lines"><path class="js-line" d="M0,622.08L3.34,621.42L13.36,505.63L16.7,614.89L20.03,667.85L23.37,653.8L26.71,602.8L30.05,638.59L36.73,614.7L40.07,667.85L43.41,638.18L46.75,598.9L50.09,599.97L53.43,617.23L56.77,593.79L60.1,608L63.44,632.36L66.78,638.47L70.12,617.81L73.46,600.66L76.8,620.7L80.14,621.42L83.48,549.58L86.82,600.54L90.16,572.07L93.5,483.2L96.84,497.46L100.17,432.27L103.51,317.67L106.85,404.9L110.19,449.29L113.53,403.44L116.87,299.64L120.21,405.8L123.55,315.31L126.89,403.85L130.23,194.99L133.57,123.47L136.91,290.13L140.24,282.57L143.58,306.88L146.92,480.13L150.26,401.54L153.6,348.91L156.94,404.5L160.28,484.89L163.62,464.79L166.96,35.15L170.3,558.54L173.64,445.78L176.98,478.64L180.31,510.14L183.65,468.98L186.99,501.07L190.33,523.68L193.67,551.37L197.01,559.61L200.35,512.85L203.69,571.63L207.03,554.1L210.37,586.26L213.71,567.44L217.05,586.75L220.38,586.4L223.72,551.47L230.4,583.63L233.74,574.06L237.08,610.19L240.42,614.38L243.76,597.21L247.1,571.12L250.44,598.21L253.78,604.43L257.12,608.32L260.45,597.34L263.79,600.68L267.13,561.46L270.47,432.5L273.81,498.58L277.15,541.9L280.49,542.55L283.83,548.15L287.17,538.38L290.51,509.42L293.85,574.73L297.19,606.03L300.52,598.19L307.2,617.71L310.54,606.46L313.88,577.83L317.22,574.11L320.56,606.1L323.9,613.07L327.24,619.36L330.58,604.76L333.92,599.22L337.26,617.15L340.59,613.3L343.93,627.52L347.27,641.13L350.61,647.27L353.95,636.81L357.29,640.74L360.63,641.19L363.97,640.71L367.31,642.7L370.65,645.92L373.99,646.9L377.33,643.75L384,644.3L387.34,625.1L390.68,645.35L394.02,645.84L397.36,656.3L400.7,652.54L404.04,647.93L407.38,637.5L410.72,646.68L414.06,649.53L420.73,646L424.07,649.76L427.41,649.27L430.75,639.33L434.09,644.1L437.43,651.29L440.77,647.16L444.11,654.33L447.45,653.74L450.79,651.78L454.13,650.06L457.47,646.61L460.8,654.1L464.14,654.43L467.48,656.44L470.82,649.41L477.5,647.17L480.84,639.54L484.18,645.81L487.52,655.16L490.86,646.16L494.2,653.06L497.53,651.06L500.87,652.39L504.21,647.33L507.55,658.93L510.89,657.55L514.23,653.55L517.57,655.91L520.91,655.64L524.25,655.6L527.59,652.64L530.93,651.86L534.27,656.22L537.6,656.63L540.94,659.23L544.28,658.74L547.62,651.31L550.96,662.95L554.3,655.46L557.64,659.41L560.98,658.07L564.32,656.69L567.66,656.95L571,655.44L574.34,650.49L577.67,655.11L581.01,658.45L584.35,652.9L587.69,655.77L591.03,652.09L594.37,649.95L597.71,651.84L601.05,655.01L604.39,654.64L607.73,655.57L611.07,653.08L614.41,653.48L621.08,652.61L624.42,650.1L627.76,651.77L631.1,651.26L634.44,648.97L637.78,650.37L641.12,642.19L644.46,639.53L647.8,640.73L651.14,645.77L654.48,646.85L657.81,646.98L661.15,646.86L664.49,633.9L667.83,638.78L671.17,632.76L674.51,641.13L677.85,631.99L681.19,634.36L684.53,638.71L687.87,624.97L691.21,623.07L694.55,637.56L697.88,625.07L701.22,636.55L704.56,635.62L707.9,630.84L711.24,613.3L714.58,621.6L717.92,611.84L721.26,624.37L724.6,609.35L727.94,622.62L731.28,622.13L734.62,616.26L737.95,626.08L741.29,624.69L744.63,615.19L747.97,600.87L751.31,609.34L754.65,620.74L757.99,596.96L761.33,591.32L764.67,596.12L768.01,605.07L771.35,608.61L774.69,610.18L778.02,616.24L781.36,597.06L784.7,558.47L788.04,590.32L791.38,598.51L794.72,601.72L798.06,596.88L801.4,581.74L804.74,572.69L808.08,557.19L811.42,578.81L814.76,583.84L818.09,597.85L824.77,583.55L828.11,559.02L831.45,534.77L834.79,557.15L838.13,578.42L841.47,589.98L844.81,575.25L848.15,554.62L851.49,527.74L854.83,515.16L858.16,543.38L861.5,540.29L864.84,557.44L868.18,554.88L871.52,573.11L874.86,525L878.2,516.66L881.54,532.08L884.88,575.19L888.22,573.54L891.56,558.83L894.9,561.9L898.23,531.98L901.57,548.35L904.91,545.91L908.25,568.32L914.93,561.88L918.27,566.43L921.61,525.89L924.95,509.97L928.29,543.03L931.63,557.32L934.97,566.01L938.3,567.58L941.64,563.81L944.98,531.65L948.32,530.86L951.66,543.11L955,565.06" style="vector-effect: non-scaling-stroke; fill: none; stroke: rgb(31, 119, 180); stroke-opacity: 1; stroke-width: 2px; opacity: 1;"/></g><g class="points"/><g class="text"/></g></g></g><g class="overplot"/><path class="xlines-above crisp" d="M0,0" style="fill: none;"/><path class="ylines-above crisp" d="M0,0" style="fill: none;"/><g class="overlines-above"/><g class="xaxislayer-above"><g class="xtick"><text text-anchor="middle" x="0" y="741" transform="translate(70.02,0)" style="font-family: 'Open Sans', verdana, arial, sans-serif; font-size: 12px; fill: rgb(68, 68, 68); fill-opacity: 1; white-space: pre;">Mar 2020</text></g><g class="xtick"><text text-anchor="middle" x="0" y="741" transform="translate(173.53,0)" style="font-family: 'Open Sans', verdana, arial, sans-serif; font-size: 12px; fill: rgb(68, 68, 68); fill-opacity: 1; white-space: pre;">Apr 2020</text></g><g class="xtick"><text text-anchor="middle" x="0" y="741" transform="translate(273.71000000000004,0)" style="font-family: 'Open Sans', verdana, arial, sans-serif; font-size: 12px; fill: rgb(68, 68, 68); fill-opacity: 1; white-space: pre;">May 2020</text></g><g class="xtick"><text text-anchor="middle" x="0" y="741" transform="translate(377.22,0)" style="font-family: 'Open Sans', verdana, arial, sans-serif; font-size: 12px; fill: rgb(68, 68, 68); fill-opacity: 1; white-space: pre;">Jun 2020</text></g><g class="xtick"><text text-anchor="middle" x="0" y="741" transform="translate(477.4,0)" style="font-family: 'Open Sans', verdana, arial, sans-serif; font-size: 12px; fill: rgb(68, 68, 68); fill-opacity: 1; white-space: pre;">Jul 2020</text></g><g class="xtick"><text text-anchor="middle" x="0" y="741" transform="translate(580.91,0)" style="font-family: 'Open Sans', verdana, arial, sans-serif; font-size: 12px; fill: rgb(68, 68, 68); fill-opacity: 1; white-space: pre;">Aug 2020</text></g><g class="xtick"><text text-anchor="middle" x="0" y="741" transform="translate(684.42,0)" style="font-family: 'Open Sans', verdana, arial, sans-serif; font-size: 12px; fill: rgb(68, 68, 68); fill-opacity: 1; white-space: pre;">Sep 2020</text></g><g class="xtick"><text text-anchor="middle" x="0" y="741" transform="translate(784.6,0)" style="font-family: 'Open Sans', verdana, arial, sans-serif; font-size: 12px; fill: rgb(68, 68, 68); fill-opacity: 1; white-space: pre;">Oct 2020</text></g><g class="xtick"><text text-anchor="middle" x="0" y="741" transform="translate(888.11,0)" style="font-family: 'Open Sans', verdana, arial, sans-serif; font-size: 12px; fill: rgb(68, 68, 68); fill-opacity: 1; white-space: pre;">Nov 2020</text></g><g class="xtick"><text text-anchor="middle" x="0" y="741" transform="translate(988.29,0)" style="font-family: 'Open Sans', verdana, arial, sans-serif; font-size: 12px; fill: rgb(68, 68, 68); fill-opacity: 1; white-space: pre;">Dec 2020</text></g></g><g class="yaxislayer-above"><g class="ytick"><text text-anchor="end" x="59" y="4.199999999999999" transform="translate(0,692.85)" style="font-family: 'Open Sans', verdana, arial, sans-serif; font-size: 12px; fill: rgb(68, 68, 68); fill-opacity: 1; white-space: pre;">0</text></g><g class="ytick"><text text-anchor="end" x="59" y="4.199999999999999" transform="translate(0,532.65)" style="font-family: 'Open Sans', verdana, arial, sans-serif; font-size: 12px; fill: rgb(68, 68, 68); fill-opacity: 1; white-space: pre;">0.05</text></g><g class="ytick"><text text-anchor="end" x="59" y="4.199999999999999" transform="translate(0,372.46)" style="font-family: 'Open Sans', verdana, arial, sans-serif; font-size: 12px; fill: rgb(68, 68, 68); fill-opacity: 1; white-space: pre;">0.1</text></g><g class="ytick"><text text-anchor="end" x="59" y="4.199999999999999" transform="translate(0,212.26)" style="font-family: 'Open Sans', verdana, arial, sans-serif; font-size: 12px; fill: rgb(68, 68, 68); fill-opacity: 1; white-space: pre;">0.15</text></g><g class="ytick"><text text-anchor="end" x="59" y="4.199999999999999" transform="translate(0,52.06)" style="font-family: 'Open Sans', verdana, arial, sans-serif; font-size: 12px; fill: rgb(68, 68, 68); fill-opacity: 1; white-space: pre;">0.2</text></g></g><g class="overaxes-above"/></g></g><g class="polarlayer"/><g class="ternarylayer"/><g class="geolayer"/><g class="funnelarealayer"/><g class="pielayer"/><g class="treemaplayer"/><g class="sunburstlayer"/><g class="glimages"/><defs id="topdefs-98731b"><g class="clips"/></defs><g class="layer-above"><g class="imagelayer"/><g class="shapelayer"/></g><g class="infolayer"><g class="g-gtitle"><text class="gtitle" x="513.5" y="12.5" text-anchor="middle" dy="0em" style="font-family: 'Open Sans', verdana, arial, sans-serif; font-size: 17px; fill: rgb(68, 68, 68); opacity: 1; font-weight: normal; white-space: pre;">Positive cases as proportion of tested per day as of Dec 10, 2020</text></g><g class="g-xtitle" transform="translate(0,-15)"><text class="xtitle" x="537.5" y="780" text-anchor="middle" style="font-family: 'Open Sans', verdana, arial, sans-serif; font-size: 14px; fill: rgb(68, 68, 68); opacity: 1; font-weight: normal; white-space: pre;">Date</text></g><g class="g-ytitle"><text class="ytitle" transform="rotate(-90,22,376.5)" x="22" y="376.5" text-anchor="middle" style="font-family: 'Open Sans', verdana, arial, sans-serif; font-size: 14px; fill: rgb(68, 68, 68); opacity: 1; font-weight: normal; white-space: pre;">ratio of positive to tested</text></g></g></svg>