<svg class="main-svg" xmlns="http://www.w3.org/2000/svg" xmlns:xlink="http://www.w3.org/1999/xlink" width="1027" height="768" style="" viewBox="0 0 1027 768"><rect x="0" y="0" width="1027" height="768" style="fill: rgb(255, 255, 255); fill-opacity: 1;"/><defs id="defs-06716a"><g class="clips"><clipPath id="clip06716axyplot" class="plotclip"><rect width="943" height="703"/></clipPath><clipPath class="axesclip" id="clip06716ax"><rect x="60" y="0" width="943" height="768"/></clipPath><clipPath class="axesclip" id="clip06716ay"><rect x="0" y="25" width="1027" height="703"/></clipPath><clipPath class="axesclip" id="clip06716axy"><rect x="60" y="25" width="943" height="703"/></clipPath></g><g class="gradients"/></defs><g class="bglayer"/><g class="layer-below"><g class="imagelayer"/><g class="shapelayer"/></g><g class="cartesianlayer"><g class="subplot xy"><g class="layer-subplot"><g class="shapelayer"/><g class="imagelayer"/></g><g class="gridlayer"><g class="x"><path class="xgrid crisp" transform="translate(71.23,0)" d="M0,25v703" style="stroke: rgb(238, 238, 238); stroke-opacity: 1; stroke-width: 1px;"/><path class="xgrid crisp" transform="translate(187.23000000000002,0)" d="M0,25v703" style="stroke: rgb(238, 238, 238); stroke-opacity: 1; stroke-width: 1px;"/><path class="xgrid crisp" transform="translate(299.49,0)" d="M0,25v703" style="stroke: rgb(238, 238, 238); stroke-opacity: 1; stroke-width: 1px;"/><path class="xgrid crisp" transform="translate(415.5,0)" d="M0,25v703" style="stroke: rgb(238, 238, 238); stroke-opacity: 1; stroke-width: 1px;"/><path class="xgrid crisp" transform="translate(527.76,0)" d="M0,25v703" style="stroke: rgb(238, 238, 238); stroke-opacity: 1; stroke-width: 1px;"/><path class="xgrid crisp" transform="translate(643.76,0)" d="M0,25v703" style="stroke: rgb(238, 238, 238); stroke-opacity: 1; stroke-width: 1px;"/><path class="xgrid crisp" transform="translate(759.77,0)" d="M0,25v703" style="stroke: rgb(238, 238, 238); stroke-opacity: 1; stroke-width: 1px;"/><path class="xgrid crisp" transform="translate(872.03,0)" d="M0,25v703" style="stroke: rgb(238, 238, 238); stroke-opacity: 1; stroke-width: 1px;"/><path class="xgrid crisp" transform="translate(988.03,0)" d="M0,25v703" style="stroke: rgb(238, 238, 238); stroke-opacity: 1; stroke-width: 1px;"/></g><g class="y"><path class="ygrid crisp" transform="translate(0,532.65)" d="M60,0h943" style="stroke: rgb(238, 238, 238); stroke-opacity: 1; stroke-width: 1px;"/><path class="ygrid crisp" transform="translate(0,372.46)" d="M60,0h943" style="stroke: rgb(238, 238, 238); stroke-opacity: 1; stroke-width: 1px;"/><path class="ygrid crisp" transform="translate(0,212.26)" d="M60,0h943" style="stroke: rgb(238, 238, 238); stroke-opacity: 1; stroke-width: 1px;"/><path class="ygrid crisp" transform="translate(0,52.06)" d="M60,0h943" style="stroke: rgb(238, 238, 238); stroke-opacity: 1; stroke-width: 1px;"/></g></g><g class="zerolinelayer"><path class="yzl zl crisp" transform="translate(0,692.85)" d="M60,0h943" style="stroke: rgb(68, 68, 68); stroke-opacity: 1; stroke-width: 1px;"/></g><path class="xlines-below"/><path class="ylines-below"/><g class="overlines-below"/><g class="xaxislayer-below"/><g class="yaxislayer-below"/><g class="overaxes-below"/><g class="plot" transform="translate(60, 25)" clip-path="url('#clip06716axyplot')"><g class="scatterlayer mlayer"><g class="trace scatter trace179912" style="stroke-miterlimit: 2; opacity: 1;"><g class="fills"/><g class="errorbars"/><g class="lines"><path class="js-line" d="M0,622.08L3.74,621.42L14.97,505.63L18.71,614.89L22.45,667.85L26.19,653.8L29.94,602.8L33.68,638.59L41.16,614.7L44.9,667.85L48.65,638.18L52.39,598.9L56.13,599.97L59.87,617.23L63.62,593.79L67.36,608L71.1,632.36L74.84,638.47L78.58,617.81L82.33,600.66L86.07,620.7L89.81,621.42L93.55,549.58L97.29,600.54L101.04,572.07L104.78,483.2L108.52,497.46L112.26,432.27L116,317.67L119.75,404.9L123.49,449.29L127.23,403.44L130.97,299.64L134.71,405.8L138.46,315.31L142.2,403.85L145.94,194.99L149.68,123.47L153.42,290.13L157.17,282.57L160.91,306.88L164.65,480.13L168.39,401.54L172.13,348.91L175.88,404.5L179.62,484.89L183.36,464.79L187.1,35.15L190.85,558.54L194.59,445.78L198.33,478.64L202.07,510.14L205.81,468.98L209.56,501.07L213.3,523.68L217.04,551.37L220.78,559.61L224.52,512.85L228.27,571.63L232.01,554.1L235.75,586.26L239.49,567.44L243.23,586.75L246.98,586.4L250.72,551.47L254.46,566L258.2,583.63L261.94,574.06L265.69,610.19L269.43,614.38L273.17,597.21L276.91,571.12L280.65,598.21L284.4,604.43L288.14,608.32L291.88,597.34L295.62,600.68L299.37,561.46L303.11,432.5L306.85,498.58L310.59,541.9L314.33,542.55L318.08,548.15L321.82,538.38L325.56,509.42L329.3,574.73L333.04,606.03L336.79,598.19L340.53,608.35L344.27,617.71L348.01,606.46L351.75,577.83L355.5,574.11L359.24,606.1L362.98,613.07L366.72,619.36L370.46,604.76L374.21,599.22L377.95,617.15L381.69,613.3L385.43,627.52L389.17,641.13L392.92,647.27L396.66,636.81L400.4,640.74L404.14,641.19L407.88,640.71L411.63,642.7L415.37,645.92L419.11,646.9L422.85,643.75L430.34,644.3L434.08,625.1L437.82,645.35L441.56,645.84L445.31,656.3L449.05,652.54L452.79,647.93L456.53,637.5L460.27,646.68L464.02,649.53L471.5,646L475.24,649.76L478.98,649.27L482.73,639.33L486.47,644.1L490.21,651.29L493.95,647.16L497.69,654.33L501.44,653.74L505.18,651.78L508.92,650.06L512.66,646.61L516.4,654.1L520.15,654.43L523.89,656.44L527.63,649.41L535.12,647.17L538.86,639.54L542.6,645.81L546.34,655.16L550.08,646.16L553.83,653.06L557.57,651.06L561.31,652.39L565.05,647.33L568.79,658.93L572.54,657.55L576.28,653.55L580.02,655.91L583.76,655.64L587.5,655.6L591.25,652.64L594.99,651.86L598.73,656.22L602.47,656.63L606.21,659.23L609.96,658.74L613.7,651.31L617.44,662.95L621.18,655.46L624.92,659.41L628.67,658.07L632.41,656.69L636.15,656.95L639.89,655.44L643.63,650.49L647.38,655.11L651.12,658.45L654.86,652.9L658.6,655.77L662.35,652.09L666.09,649.95L669.83,651.84L673.57,655.01L677.31,654.64L681.06,655.57L684.8,653.08L688.54,653.48L696.02,652.61L699.77,650.1L703.51,651.77L707.25,651.26L710.99,648.97L714.73,650.37L718.48,642.19L722.22,639.53L725.96,640.73L729.7,645.77L733.44,646.85L737.19,646.98L740.93,646.86L744.67,633.9L748.41,638.78L752.15,632.76L755.9,641.13L759.64,631.99L763.38,634.36L767.12,638.71L770.87,624.97L774.61,623.07L778.35,637.56L782.09,625.07L785.83,636.55L789.58,635.62L793.32,630.84L797.06,613.3L800.8,621.6L804.54,611.84L808.29,624.37L812.03,609.35L815.77,622.62L819.51,622.13L823.25,616.26L827,626.08L830.74,624.69L834.48,615.19L838.22,600.87L841.96,609.34L845.71,620.74L849.45,596.96L853.19,591.32L856.93,596.12L860.67,605.07L864.42,608.61L868.16,610.18L871.9,616.24L875.64,597.06L879.38,558.47L883.13,590.32L886.87,598.51L890.61,601.72L894.35,596.88L898.1,581.74L901.84,572.69L905.58,557.19L909.32,578.81L913.06,583.84L916.81,597.85L924.29,583.55L928.03,559.02L931.77,534.77L935.52,557.15L939.26,578.42L943,589.98" style="vector-effect: non-scaling-stroke; fill: none; stroke: rgb(31, 119, 180); stroke-opacity: 1; stroke-width: 2px; opacity: 1;"/></g><g class="points"/><g class="text"/></g></g></g><g class="overplot"/><path class="xlines-above crisp" d="M0,0" style="fill: none;"/><path class="ylines-above crisp" d="M0,0" style="fill: none;"/><g class="overlines-above"/><g class="xaxislayer-above"><g class="xtick"><text text-anchor="middle" x="0" y="741" transform="translate(71.23,0)" style="font-family: 'Open Sans', verdana, arial, sans-serif; font-size: 12px; fill: rgb(68, 68, 68); fill-opacity: 1; white-space: pre;">Mar 2020</text></g><g class="xtick"><text text-anchor="middle" x="0" y="741" transform="translate(187.23000000000002,0)" style="font-family: 'Open Sans', verdana, arial, sans-serif; font-size: 12px; fill: rgb(68, 68, 68); fill-opacity: 1; white-space: pre;">Apr 2020</text></g><g class="xtick"><text text-anchor="middle" x="0" y="741" transform="translate(299.49,0)" style="font-family: 'Open Sans', verdana, arial, sans-serif; font-size: 12px; fill: rgb(68, 68, 68); fill-opacity: 1; white-space: pre;">May 2020</text></g><g class="xtick"><text text-anchor="middle" x="0" y="741" transform="translate(415.5,0)" style="font-family: 'Open Sans', verdana, arial, sans-serif; font-size: 12px; fill: rgb(68, 68, 68); fill-opacity: 1; white-space: pre;">Jun 2020</text></g><g class="xtick"><text text-anchor="middle" x="0" y="741" transform="translate(527.76,0)" style="font-family: 'Open Sans', verdana, arial, sans-serif; font-size: 12px; fill: rgb(68, 68, 68); fill-opacity: 1; white-space: pre;">Jul 2020</text></g><g class="xtick"><text text-anchor="middle" x="0" y="741" transform="translate(643.76,0)" style="font-family: 'Open Sans', verdana, arial, sans-serif; font-size: 12px; fill: rgb(68, 68, 68); fill-opacity: 1; white-space: pre;">Aug 2020</text></g><g class="xtick"><text text-anchor="middle" x="0" y="741" transform="translate(759.77,0)" style="font-family: 'Open Sans', verdana, arial, sans-serif; font-size: 12px; fill: rgb(68, 68, 68); fill-opacity: 1; white-space: pre;">Sep 2020</text></g><g class="xtick"><text text-anchor="middle" x="0" y="741" transform="translate(872.03,0)" style="font-family: 'Open Sans', verdana, arial, sans-serif; font-size: 12px; fill: rgb(68, 68, 68); fill-opacity: 1; white-space: pre;">Oct 2020</text></g><g class="xtick"><text text-anchor="middle" x="0" y="741" transform="translate(988.03,0)" style="font-family: 'Open Sans', verdana, arial, sans-serif; font-size: 12px; fill: rgb(68, 68, 68); fill-opacity: 1; white-space: pre;">Nov 2020</text></g></g><g class="yaxislayer-above"><g class="ytick"><text text-anchor="end" x="59" y="4.199999999999999" transform="translate(0,692.85)" style="font-family: 'Open Sans', verdana, arial, sans-serif; font-size: 12px; fill: rgb(68, 68, 68); fill-opacity: 1; white-space: pre;">0</text></g><g class="ytick"><text text-anchor="end" x="59" y="4.199999999999999" transform="translate(0,532.65)" style="font-family: 'Open Sans', verdana, arial, sans-serif; font-size: 12px; fill: rgb(68, 68, 68); fill-opacity: 1; white-space: pre;">0.05</text></g><g class="ytick"><text text-anchor="end" x="59" y="4.199999999999999" transform="translate(0,372.46)" style="font-family: 'Open Sans', verdana, arial, sans-serif; font-size: 12px; fill: rgb(68, 68, 68); fill-opacity: 1; white-space: pre;">0.1</text></g><g class="ytick"><text text-anchor="end" x="59" y="4.199999999999999" transform="translate(0,212.26)" style="font-family: 'Open Sans', verdana, arial, sans-serif; font-size: 12px; fill: rgb(68, 68, 68); fill-opacity: 1; white-space: pre;">0.15</text></g><g class="ytick"><text text-anchor="end" x="59" y="4.199999999999999" transform="translate(0,52.06)" style="font-family: 'Open Sans', verdana, arial, sans-serif; font-size: 12px; fill: rgb(68, 68, 68); fill-opacity: 1; white-space: pre;">0.2</text></g></g><g class="overaxes-above"/></g></g><g class="polarlayer"/><g class="ternarylayer"/><g class="geolayer"/><g class="funnelarealayer"/><g class="pielayer"/><g class="treemaplayer"/><g class="sunburstlayer"/><g class="glimages"/><defs id="topdefs-06716a"><g class="clips"/></defs><g class="layer-above"><g class="imagelayer"/><g class="shapelayer"/></g><g class="infolayer"><g class="g-gtitle"><text class="gtitle" x="513.5" y="12.5" text-anchor="middle" dy="0em" style="font-family: 'Open Sans', verdana, arial, sans-serif; font-size: 17px; fill: rgb(68, 68, 68); opacity: 1; font-weight: normal; white-space: pre;">Positive cases as proportion of tested per day as of Nov 06, 2020</text></g><g class="g-xtitle" transform="translate(0,-15)"><text class="xtitle" x="531.5" y="780" text-anchor="middle" style="font-family: 'Open Sans', verdana, arial, sans-serif; font-size: 14px; fill: rgb(68, 68, 68); opacity: 1; font-weight: normal; white-space: pre;">Date</text></g><g class="g-ytitle"><text class="ytitle" transform="rotate(-90,22,376.5)" x="22" y="376.5" text-anchor="middle" style="font-family: 'Open Sans', verdana, arial, sans-serif; font-size: 14px; fill: rgb(68, 68, 68); opacity: 1; font-weight: normal; white-space: pre;">ratio of positive to tested</text></g></g></svg>