<svg class="main-svg" xmlns="http://www.w3.org/2000/svg" xmlns:xlink="http://www.w3.org/1999/xlink" width="1027" height="768" style="" viewBox="0 0 1027 768"><rect x="0" y="0" width="1027" height="768" style="fill: rgb(255, 255, 255); fill-opacity: 1;"/><defs id="defs-5c9127"><g class="clips"><clipPath id="clip5c9127xyplot" class="plotclip"><rect width="957" height="703"/></clipPath><clipPath class="axesclip" id="clip5c9127x"><rect x="60" y="0" width="957" height="768"/></clipPath><clipPath class="axesclip" id="clip5c9127y"><rect x="0" y="25" width="1027" height="703"/></clipPath><clipPath class="axesclip" id="clip5c9127xy"><rect x="60" y="25" width="957" height="703"/></clipPath></g><g class="gradients"/></defs><g class="bglayer"/><g class="layer-below"><g class="imagelayer"/><g class="shapelayer"/></g><g class="cartesianlayer"><g class="subplot xy"><g class="layer-subplot"><g class="shapelayer"/><g class="imagelayer"/></g><g class="gridlayer"><g class="x"><path class="xgrid crisp" transform="translate(71.17,0)" d="M0,25v703" style="stroke: rgb(238, 238, 238); stroke-opacity: 1; stroke-width: 1px;"/><path class="xgrid crisp" transform="translate(186.61,0)" d="M0,25v703" style="stroke: rgb(238, 238, 238); stroke-opacity: 1; stroke-width: 1px;"/><path class="xgrid crisp" transform="translate(298.32,0)" d="M0,25v703" style="stroke: rgb(238, 238, 238); stroke-opacity: 1; stroke-width: 1px;"/><path class="xgrid crisp" transform="translate(413.75,0)" d="M0,25v703" style="stroke: rgb(238, 238, 238); stroke-opacity: 1; stroke-width: 1px;"/><path class="xgrid crisp" transform="translate(525.47,0)" d="M0,25v703" style="stroke: rgb(238, 238, 238); stroke-opacity: 1; stroke-width: 1px;"/><path class="xgrid crisp" transform="translate(640.9,0)" d="M0,25v703" style="stroke: rgb(238, 238, 238); stroke-opacity: 1; stroke-width: 1px;"/><path class="xgrid crisp" transform="translate(756.34,0)" d="M0,25v703" style="stroke: rgb(238, 238, 238); stroke-opacity: 1; stroke-width: 1px;"/><path class="xgrid crisp" transform="translate(868.05,0)" d="M0,25v703" style="stroke: rgb(238, 238, 238); stroke-opacity: 1; stroke-width: 1px;"/><path class="xgrid crisp" transform="translate(983.49,0)" d="M0,25v703" style="stroke: rgb(238, 238, 238); stroke-opacity: 1; stroke-width: 1px;"/></g><g class="y"><path class="ygrid crisp" transform="translate(0,532.65)" d="M60,0h957" style="stroke: rgb(238, 238, 238); stroke-opacity: 1; stroke-width: 1px;"/><path class="ygrid crisp" transform="translate(0,372.46)" d="M60,0h957" style="stroke: rgb(238, 238, 238); stroke-opacity: 1; stroke-width: 1px;"/><path class="ygrid crisp" transform="translate(0,212.26)" d="M60,0h957" style="stroke: rgb(238, 238, 238); stroke-opacity: 1; stroke-width: 1px;"/><path class="ygrid crisp" transform="translate(0,52.06)" d="M60,0h957" style="stroke: rgb(238, 238, 238); stroke-opacity: 1; stroke-width: 1px;"/></g></g><g class="zerolinelayer"><path class="yzl zl crisp" transform="translate(0,692.85)" d="M60,0h957" style="stroke: rgb(68, 68, 68); stroke-opacity: 1; stroke-width: 1px;"/></g><path class="xlines-below"/><path class="ylines-below"/><g class="overlines-below"/><g class="xaxislayer-below"/><g class="yaxislayer-below"/><g class="overaxes-below"/><g class="plot" transform="translate(60, 25)" clip-path="url('#clip5c9127xyplot')"><g class="scatterlayer mlayer"><g class="trace scatter tracebb1f85" style="stroke-miterlimit: 2; opacity: 1;"><g class="fills"/><g class="errorbars"/><g class="lines"><path class="js-line" d="M0,622.08L3.72,621.42L14.89,505.63L18.62,614.89L22.34,667.85L26.07,653.8L29.79,602.8L33.51,638.59L40.96,614.7L44.68,667.85L48.41,638.18L52.13,598.9L55.86,599.97L59.58,617.23L63.3,593.79L67.03,608L70.75,632.36L74.47,638.47L78.2,617.81L81.92,600.66L85.65,620.7L89.37,621.42L93.09,549.58L96.82,600.54L100.54,572.07L104.26,483.2L107.99,497.46L111.71,432.27L115.44,317.67L119.16,404.9L122.88,449.29L126.61,403.44L130.33,299.64L134.05,405.8L137.78,315.31L141.5,403.85L145.23,194.99L148.95,123.47L152.67,290.13L156.4,282.57L160.12,306.88L163.84,480.13L167.57,401.54L171.29,348.91L175.02,404.5L178.74,484.89L182.46,464.79L186.19,35.15L189.91,558.54L193.63,445.78L197.36,478.64L201.08,510.14L204.81,468.98L208.53,501.07L212.25,523.68L215.98,551.37L219.7,559.61L223.42,512.85L227.15,571.63L230.87,554.1L234.6,586.26L238.32,567.44L242.04,586.75L245.77,586.4L249.49,551.47L253.21,566L256.94,583.63L260.66,574.06L264.39,610.19L268.11,614.38L271.83,597.21L275.56,571.12L279.28,598.21L283,604.43L286.73,608.32L290.45,597.34L294.18,600.68L297.9,561.46L301.62,432.5L305.35,498.58L309.07,541.9L312.79,542.55L316.52,548.15L320.24,538.38L323.96,509.42L327.69,574.73L331.41,606.03L335.14,598.19L338.86,608.35L342.58,617.71L346.31,606.46L350.03,577.83L353.75,574.11L357.48,606.1L361.2,613.07L364.93,619.36L368.65,604.76L372.37,599.22L376.1,617.15L379.82,613.3L383.54,627.52L387.27,641.13L390.99,647.27L394.72,636.81L398.44,640.74L402.16,641.19L405.89,640.71L409.61,642.7L413.33,645.92L417.06,646.9L420.78,643.75L428.23,644.3L431.95,625.1L435.68,645.35L439.4,645.84L443.12,656.3L446.85,652.54L450.57,647.93L454.3,637.5L458.02,646.68L461.74,649.53L469.19,646L472.91,649.76L476.64,649.27L480.36,639.33L484.09,644.1L487.81,651.29L491.53,647.16L495.26,654.33L498.98,653.74L502.7,651.78L506.43,650.06L510.15,646.61L513.88,654.1L517.6,654.43L521.32,656.44L525.05,649.41L532.49,647.17L536.22,639.54L539.94,645.81L543.67,655.16L547.39,646.16L551.11,653.06L554.84,651.06L558.56,652.39L562.28,647.33L566.01,658.93L569.73,657.55L573.46,653.55L577.18,655.91L580.9,655.64L584.63,655.6L588.35,652.64L592.07,651.86L595.8,656.22L599.52,656.63L603.25,659.23L606.97,658.74L610.69,651.31L614.42,662.95L618.14,655.46L621.86,659.41L625.59,658.07L629.31,656.69L633.04,656.95L636.76,655.44L640.48,650.49L644.21,655.11L647.93,658.45L651.65,652.9L655.38,655.77L659.1,652.09L662.82,649.95L666.55,651.84L670.27,655.01L674,654.64L677.72,655.57L681.44,653.08L685.17,653.48L692.61,652.61L696.34,650.1L700.06,651.77L703.79,651.26L707.51,648.97L711.23,650.37L714.96,642.19L718.68,639.53L722.4,640.73L726.13,645.77L729.85,646.85L733.58,646.98L737.3,646.86L741.02,633.9L744.75,638.78L748.47,632.76L752.19,641.13L755.92,631.99L759.64,634.36L763.37,638.71L767.09,624.97L770.81,623.07L774.54,637.56L778.26,625.07L781.98,636.55L785.71,635.62L789.43,630.84L793.16,613.3L796.88,621.6L800.6,611.84L804.33,624.37L808.05,609.35L811.77,622.62L815.5,622.13L819.22,616.26L822.95,626.08L826.67,624.69L830.39,615.19L834.12,600.87L837.84,609.34L841.56,620.74L845.29,596.96L849.01,591.32L852.74,596.12L856.46,605.07L860.18,608.61L863.91,610.18L867.63,616.24L871.35,597.06L875.08,558.47L878.8,590.32L882.53,598.51L886.25,601.72L889.97,596.88L893.7,581.74L897.42,572.69L901.14,557.19L904.87,578.81L908.59,583.84L912.32,597.85L919.76,583.55L923.49,559.02L927.21,534.77L930.93,557.15L934.66,578.42L938.38,589.98L942.11,575.25L945.83,554.62L949.55,527.74L953.28,515.16L957,543.38" style="vector-effect: non-scaling-stroke; fill: none; stroke: rgb(31, 119, 180); stroke-opacity: 1; stroke-width: 2px; opacity: 1;"/></g><g class="points"/><g class="text"/></g></g></g><g class="overplot"/><path class="xlines-above crisp" d="M0,0" style="fill: none;"/><path class="ylines-above crisp" d="M0,0" style="fill: none;"/><g class="overlines-above"/><g class="xaxislayer-above"><g class="xtick"><text text-anchor="middle" x="0" y="741" transform="translate(71.17,0)" style="font-family: 'Open Sans', verdana, arial, sans-serif; font-size: 12px; fill: rgb(68, 68, 68); fill-opacity: 1; white-space: pre;">Mar 2020</text></g><g class="xtick"><text text-anchor="middle" x="0" y="741" transform="translate(186.61,0)" style="font-family: 'Open Sans', verdana, arial, sans-serif; font-size: 12px; fill: rgb(68, 68, 68); fill-opacity: 1; white-space: pre;">Apr 2020</text></g><g class="xtick"><text text-anchor="middle" x="0" y="741" transform="translate(298.32,0)" style="font-family: 'Open Sans', verdana, arial, sans-serif; font-size: 12px; fill: rgb(68, 68, 68); fill-opacity: 1; white-space: pre;">May 2020</text></g><g class="xtick"><text text-anchor="middle" x="0" y="741" transform="translate(413.75,0)" style="font-family: 'Open Sans', verdana, arial, sans-serif; font-size: 12px; fill: rgb(68, 68, 68); fill-opacity: 1; white-space: pre;">Jun 2020</text></g><g class="xtick"><text text-anchor="middle" x="0" y="741" transform="translate(525.47,0)" style="font-family: 'Open Sans', verdana, arial, sans-serif; font-size: 12px; fill: rgb(68, 68, 68); fill-opacity: 1; white-space: pre;">Jul 2020</text></g><g class="xtick"><text text-anchor="middle" x="0" y="741" transform="translate(640.9,0)" style="font-family: 'Open Sans', verdana, arial, sans-serif; font-size: 12px; fill: rgb(68, 68, 68); fill-opacity: 1; white-space: pre;">Aug 2020</text></g><g class="xtick"><text text-anchor="middle" x="0" y="741" transform="translate(756.34,0)" style="font-family: 'Open Sans', verdana, arial, sans-serif; font-size: 12px; fill: rgb(68, 68, 68); fill-opacity: 1; white-space: pre;">Sep 2020</text></g><g class="xtick"><text text-anchor="middle" x="0" y="741" transform="translate(868.05,0)" style="font-family: 'Open Sans', verdana, arial, sans-serif; font-size: 12px; fill: rgb(68, 68, 68); fill-opacity: 1; white-space: pre;">Oct 2020</text></g><g class="xtick"><text text-anchor="middle" x="0" y="741" transform="translate(983.49,0)" style="font-family: 'Open Sans', verdana, arial, sans-serif; font-size: 12px; fill: rgb(68, 68, 68); fill-opacity: 1; white-space: pre;">Nov 2020</text></g></g><g class="yaxislayer-above"><g class="ytick"><text text-anchor="end" x="59" y="4.199999999999999" transform="translate(0,692.85)" style="font-family: 'Open Sans', verdana, arial, sans-serif; font-size: 12px; fill: rgb(68, 68, 68); fill-opacity: 1; white-space: pre;">0</text></g><g class="ytick"><text text-anchor="end" x="59" y="4.199999999999999" transform="translate(0,532.65)" style="font-family: 'Open Sans', verdana, arial, sans-serif; font-size: 12px; fill: rgb(68, 68, 68); fill-opacity: 1; white-space: pre;">0.05</text></g><g class="ytick"><text text-anchor="end" x="59" y="4.199999999999999" transform="translate(0,372.46)" style="font-family: 'Open Sans', verdana, arial, sans-serif; font-size: 12px; fill: rgb(68, 68, 68); fill-opacity: 1; white-space: pre;">0.1</text></g><g class="ytick"><text text-anchor="end" x="59" y="4.199999999999999" transform="translate(0,212.26)" style="font-family: 'Open Sans', verdana, arial, sans-serif; font-size: 12px; fill: rgb(68, 68, 68); fill-opacity: 1; white-space: pre;">0.15</text></g><g class="ytick"><text text-anchor="end" x="59" y="4.199999999999999" transform="translate(0,52.06)" style="font-family: 'Open Sans', verdana, arial, sans-serif; font-size: 12px; fill: rgb(68, 68, 68); fill-opacity: 1; white-space: pre;">0.2</text></g></g><g class="overaxes-above"/></g></g><g class="polarlayer"/><g class="ternarylayer"/><g class="geolayer"/><g class="funnelarealayer"/><g class="pielayer"/><g class="treemaplayer"/><g class="sunburstlayer"/><g class="glimages"/><defs id="topdefs-5c9127"><g class="clips"/></defs><g class="layer-above"><g class="imagelayer"/><g class="shapelayer"/></g><g class="infolayer"><g class="g-gtitle"><text class="gtitle" x="513.5" y="12.5" text-anchor="middle" dy="0em" style="font-family: 'Open Sans', verdana, arial, sans-serif; font-size: 17px; fill: rgb(68, 68, 68); opacity: 1; font-weight: normal; white-space: pre;">Positive cases as proportion of tested per day as of Nov 11, 2020</text></g><g class="g-xtitle" transform="translate(0,-15)"><text class="xtitle" x="538.5" y="780" text-anchor="middle" style="font-family: 'Open Sans', verdana, arial, sans-serif; font-size: 14px; fill: rgb(68, 68, 68); opacity: 1; font-weight: normal; white-space: pre;">Date</text></g><g class="g-ytitle"><text class="ytitle" transform="rotate(-90,22,376.5)" x="22" y="376.5" text-anchor="middle" style="font-family: 'Open Sans', verdana, arial, sans-serif; font-size: 14px; fill: rgb(68, 68, 68); opacity: 1; font-weight: normal; white-space: pre;">ratio of positive to tested</text></g></g></svg>