<svg class="main-svg" xmlns="http://www.w3.org/2000/svg" xmlns:xlink="http://www.w3.org/1999/xlink" width="1027" height="768" style="" viewBox="0 0 1027 768"><rect x="0" y="0" width="1027" height="768" style="fill: rgb(255, 255, 255); fill-opacity: 1;"/><defs id="defs-e90f79"><g class="clips"><clipPath id="clipe90f79xyplot" class="plotclip"><rect width="838" height="703"/></clipPath><clipPath class="axesclip" id="clipe90f79x"><rect x="60" y="0" width="838" height="768"/></clipPath><clipPath class="axesclip" id="clipe90f79y"><rect x="0" y="25" width="1027" height="703"/></clipPath><clipPath class="axesclip" id="clipe90f79xy"><rect x="60" y="25" width="838" height="703"/></clipPath></g><g class="gradients"/></defs><g class="bglayer"/><g class="layer-below"><g class="imagelayer"/><g class="shapelayer"/></g><g class="cartesianlayer"><g class="subplot xy"><g class="layer-subplot"><g class="shapelayer"/><g class="imagelayer"/></g><g class="gridlayer"><g class="x"><path class="xgrid crisp" transform="translate(65.25,0)" d="M0,25v703" style="stroke: rgb(238, 238, 238); stroke-opacity: 1; stroke-width: 1px;"/><path class="xgrid crisp" transform="translate(171.97,0)" d="M0,25v703" style="stroke: rgb(238, 238, 238); stroke-opacity: 1; stroke-width: 1px;"/><path class="xgrid crisp" transform="translate(278.68,0)" d="M0,25v703" style="stroke: rgb(238, 238, 238); stroke-opacity: 1; stroke-width: 1px;"/><path class="xgrid crisp" transform="translate(387.15,0)" d="M0,25v703" style="stroke: rgb(238, 238, 238); stroke-opacity: 1; stroke-width: 1px;"/><path class="xgrid crisp" transform="translate(493.87,0)" d="M0,25v703" style="stroke: rgb(238, 238, 238); stroke-opacity: 1; stroke-width: 1px;"/><path class="xgrid crisp" transform="translate(600.59,0)" d="M0,25v703" style="stroke: rgb(238, 238, 238); stroke-opacity: 1; stroke-width: 1px;"/><path class="xgrid crisp" transform="translate(703.81,0)" d="M0,25v703" style="stroke: rgb(238, 238, 238); stroke-opacity: 1; stroke-width: 1px;"/><path class="xgrid crisp" transform="translate(810.53,0)" d="M0,25v703" style="stroke: rgb(238, 238, 238); stroke-opacity: 1; stroke-width: 1px;"/></g><g class="y"><path class="ygrid crisp" transform="translate(0,532.65)" d="M60,0h838" style="stroke: rgb(238, 238, 238); stroke-opacity: 1; stroke-width: 1px;"/><path class="ygrid crisp" transform="translate(0,372.46)" d="M60,0h838" style="stroke: rgb(238, 238, 238); stroke-opacity: 1; stroke-width: 1px;"/><path class="ygrid crisp" transform="translate(0,212.26)" d="M60,0h838" style="stroke: rgb(238, 238, 238); stroke-opacity: 1; stroke-width: 1px;"/><path class="ygrid crisp" transform="translate(0,52.06)" d="M60,0h838" style="stroke: rgb(238, 238, 238); stroke-opacity: 1; stroke-width: 1px;"/></g></g><g class="zerolinelayer"><path class="yzl zl crisp" transform="translate(0,692.85)" d="M60,0h838" style="stroke: rgb(68, 68, 68); stroke-opacity: 1; stroke-width: 1px;"/></g><path class="xlines-below"/><path class="ylines-below"/><g class="overlines-below"/><g class="xaxislayer-below"/><g class="yaxislayer-below"/><g class="overaxes-below"/><g class="plot" transform="translate(60, 25)" clip-path="url('#clipe90f79xyplot')"><g class="scatterlayer mlayer"><g class="trace scatter tracede5d76" style="stroke-miterlimit: 2; opacity: 1;"><g class="fills"/><g class="errorbars"/><g class="lines"><path class="js-line" d="M0,622.08L1.75,621.42L7,505.63L8.75,614.89L10.5,667.85L12.25,653.8L14,602.8L15.75,638.59L19.24,614.7L20.99,667.85L22.74,638.18L24.49,598.9L26.24,599.97L27.99,617.23L29.74,593.79L31.49,608L33.24,632.36L34.99,638.47L36.74,617.81L38.49,600.66L40.24,620.7L41.99,621.42L43.74,549.58L45.49,600.54L47.24,572.07L48.99,483.2L50.73,497.46L52.48,432.27L54.23,317.67L55.98,404.9L57.73,449.29L59.48,403.44L61.23,299.64L62.98,405.8L64.73,315.31L66.48,403.85L68.23,194.99L69.98,123.47L71.73,290.13L73.48,282.57L75.23,306.88L76.98,480.13L78.73,401.54L80.48,348.91L82.23,404.5L83.97,484.89L85.72,464.79L87.47,35.15L89.22,558.54L90.97,445.78L92.72,478.64L94.47,510.14L96.22,468.98L99.72,523.68L101.47,551.37L103.22,559.61L104.97,512.85L106.72,571.63L108.47,554.1L110.22,586.26L111.97,567.44L113.72,586.75L115.47,586.4L117.22,551.47L118.96,566L120.71,583.63L122.46,574.06L124.21,610.19L125.96,614.38L127.71,597.21L129.46,571.12L131.21,598.21L132.96,604.43L134.71,608.32L136.46,597.34L138.21,600.68L139.96,561.46L141.71,432.5L143.46,498.58L145.21,541.9L146.96,542.55L148.71,548.15L150.46,538.38L152.2,509.42L153.95,574.73L155.7,606.03L157.45,598.19L160.95,617.71L162.7,606.46L164.45,577.83L166.2,574.11L167.95,606.1L169.7,613.07L171.45,619.36L173.2,604.76L174.95,599.22L176.7,617.15L178.45,613.3L180.2,627.52L181.95,641.13L183.7,647.27L185.44,636.81L187.19,640.74L188.94,641.19L190.69,640.71L192.44,642.7L194.19,645.92L195.94,646.9L197.69,643.75L201.19,644.3L202.94,625.1L204.69,645.35L206.44,645.84L208.19,656.3L209.94,652.54L211.69,647.93L213.44,637.5L215.19,646.68L216.94,649.53L220.43,646L222.18,649.76L223.93,649.27L225.68,639.33L227.43,644.1L229.18,651.29L230.93,647.16L232.68,654.33L234.43,653.74L236.18,651.78L237.93,650.06L239.68,646.61L241.43,654.1L243.18,654.43L244.93,656.44L246.68,649.41L250.18,647.17L251.92,639.54L253.67,645.81L255.42,655.16L257.17,646.16L258.92,653.06L260.67,651.06L262.42,652.39L264.17,647.33L265.92,658.93L267.67,657.55L269.42,653.55L271.17,655.91L272.92,655.64L274.67,655.6L276.42,652.64L278.17,651.86L279.92,656.22L281.67,656.63L283.42,659.23L285.16,658.74L286.91,651.31L288.66,662.95L290.41,655.46L292.16,659.41L293.91,658.07L295.66,656.69L297.41,656.95L299.16,655.44L300.91,650.49L304.41,658.45L306.16,652.9L307.91,655.77L309.66,652.09L311.41,649.95L313.16,651.84L314.91,655.01L316.66,654.64L318.41,655.57L320.15,653.08L323.65,653.3L325.4,652.61L327.15,650.1L328.9,651.77L330.65,651.26L332.4,648.97L334.15,650.37L335.9,642.19L337.65,639.53L339.4,640.73L341.15,645.77L342.9,646.85L346.4,646.86L348.15,633.9L349.9,638.78L351.65,632.76L353.39,641.13L355.14,631.99L356.89,634.36L358.64,638.71L360.39,624.97L362.14,623.07L363.89,637.56L365.64,625.07L367.39,636.55L369.14,635.62L370.89,630.84L372.64,613.3L374.39,621.6L376.14,611.84L377.89,624.37L379.64,609.35L381.39,622.62L383.14,622.13L384.89,616.26L386.63,626.08L388.38,624.69L390.13,615.19L391.88,600.87L393.63,609.34L395.38,620.74L397.13,596.96L398.88,591.32L400.63,596.12L402.38,605.07L404.13,608.61L405.88,610.18L407.63,616.24L409.38,597.06L411.13,558.47L412.88,590.32L414.63,598.51L416.38,601.72L418.13,596.88L423.37,557.19L425.12,578.81L426.87,583.84L428.62,597.85L432.12,583.55L433.87,559.02L435.62,534.77L437.37,557.15L439.12,578.42L440.87,589.98L444.37,554.62L446.12,527.74L447.87,515.16L449.62,543.38L451.37,540.29L453.11,557.44L454.86,554.88L456.61,573.11L458.36,525L460.11,516.66L461.86,532.08L463.61,575.19L465.36,573.54L467.11,558.83L468.86,561.9L470.61,531.98L472.36,548.35L474.11,545.91L475.86,568.32L477.61,565.44L479.36,561.88L481.11,566.43L482.86,525.89L484.61,509.97L486.35,543.03L488.1,557.32L489.85,566.01L491.6,567.58L493.35,563.81L495.1,531.65L496.85,530.86L498.6,543.11L500.35,565.06L502.1,573.94L503.85,575.9L505.6,575.51L507.35,558.98L509.1,483.63L510.85,528.53L512.6,533.92L514.35,560.34L516.1,555.49L517.85,560.95L519.59,543.05L521.34,511.99L523.09,531.69L526.59,555.31L528.34,529.24L530.09,514.11L531.84,510.83L533.59,428.06L535.34,429L538.84,553.82L540.59,492.37L542.34,480.92L544.09,400.04L545.84,382.75L547.59,462.85L549.34,496.43L551.09,477.4L552.84,516.53L554.58,464.99L556.33,437.37L558.08,460.25L559.83,481.58L561.58,518.12L563.33,542.24L565.08,535.31L566.83,485.67L568.58,462.9L573.83,547.82L575.58,548.98L577.33,548.74L579.08,509.64L580.83,493.44L582.58,486.36L584.33,570.9L586.08,564.15L587.82,582.6L589.57,556.94L591.32,547.88L593.07,460.05L594.82,584.25L596.57,596.21L600.07,582.53L601.82,596.52L603.57,575.5L605.32,524.65L610.57,623.85L612.32,612.26L614.07,596.97L615.82,603.31L617.57,566.1L619.32,560.6L622.81,608.64L624.56,611.49L626.31,599.06L628.06,595.56L629.81,559.07L631.56,547.61L633.31,606.29L635.06,612.9L636.81,604.92L638.56,603.95L640.31,598.67L642.06,574.24L643.81,567.25L645.56,609.51L647.31,619.33L649.06,606L650.81,613L652.56,578.51L654.3,530.56L656.05,553.71L657.8,589.98L659.55,610.13L663.05,587.36L664.8,550.3L668.3,547.22L670.05,569.5L671.8,582.88L673.55,568.25L675.3,555.34L677.05,551.3L678.8,492.76L680.55,515.7L682.3,570.98L684.05,540.92L685.8,537.8L687.54,539.02L689.29,511.69L691.04,497.87L692.79,460.36L694.54,525.56L696.29,536.33L698.04,509.07L699.79,504.77L701.54,457.78L703.29,410.4L705.04,406.27L708.54,502.5L710.29,447.31L712.04,469.01L713.79,414.62L715.54,373.65L717.29,389L719.04,422.22L720.78,436.4L726.03,414.64L727.78,335.52L729.53,394.07L731.28,407.72L733.03,450.38L734.78,411.05L736.53,416.38L738.28,397.02L740.03,335.35L741.78,360.18L743.53,445.72L745.28,450.03L747.03,433.2L748.78,437.22L750.53,403.9L752.28,336.05L755.77,461.96L757.52,465.14L761.02,475.95L762.77,400.49L764.52,347.63L766.27,431.56L768.02,505.13L769.77,482.29L771.52,496.01L773.27,472.22L775.02,455.27L776.77,384.05L778.52,441.9L780.27,535.43L782.02,498.5L783.77,504.74L785.52,501.61L787.27,494.35L789.01,437.94L790.76,470.37L794.26,571.4L796.01,568.05L797.76,566.94L799.51,543.26L801.26,506.83L803.01,557.32L804.76,593.92L806.51,586.53L808.26,577.07L810.01,582.16L811.76,574L813.51,557.02L815.26,582.37L817.01,624.61L818.76,607.7L820.51,604.32L822.25,601.11L824,585.94L825.75,562.45" style="vector-effect: non-scaling-stroke; fill: none; stroke: rgb(31, 119, 180); stroke-opacity: 1; stroke-width: 2px; opacity: 1;"/></g><g class="points"/><g class="text"/></g><g class="trace scatter trace617e19" style="stroke-miterlimit: 2; opacity: 1;"><g class="fills"/><g class="errorbars"/><g class="lines"><path class="js-line" d="M825.75,562.45L829.25,614.44L831,620.02L834.5,603.1L836.25,583.42L838,583.04" style="vector-effect: non-scaling-stroke; fill: none; stroke: rgb(255, 127, 14); stroke-opacity: 1; stroke-width: 2px; opacity: 1;"/></g><g class="points"/><g class="text"/></g></g></g><g class="overplot"/><path class="xlines-above crisp" style="fill: none;" d="M0,0"/><path class="ylines-above crisp" style="fill: none;" d="M0,0"/><g class="overlines-above"/><g class="xaxislayer-above"><g class="xtick"><text text-anchor="middle" x="0" y="741" transform="translate(65.25,0)" style="font-family: 'Open Sans', verdana, arial, sans-serif; font-size: 12px; fill: rgb(68, 68, 68); fill-opacity: 1; white-space: pre;">Mar 2020</text></g><g class="xtick"><text text-anchor="middle" x="0" y="741" transform="translate(171.97,0)" style="font-family: 'Open Sans', verdana, arial, sans-serif; font-size: 12px; fill: rgb(68, 68, 68); fill-opacity: 1; white-space: pre;">May 2020</text></g><g class="xtick"><text text-anchor="middle" x="0" y="741" transform="translate(278.68,0)" style="font-family: 'Open Sans', verdana, arial, sans-serif; font-size: 12px; fill: rgb(68, 68, 68); fill-opacity: 1; white-space: pre;">Jul 2020</text></g><g class="xtick"><text text-anchor="middle" x="0" y="741" transform="translate(387.15,0)" style="font-family: 'Open Sans', verdana, arial, sans-serif; font-size: 12px; fill: rgb(68, 68, 68); fill-opacity: 1; white-space: pre;">Sep 2020</text></g><g class="xtick"><text text-anchor="middle" x="0" y="741" transform="translate(493.87,0)" style="font-family: 'Open Sans', verdana, arial, sans-serif; font-size: 12px; fill: rgb(68, 68, 68); fill-opacity: 1; white-space: pre;">Nov 2020</text></g><g class="xtick"><text text-anchor="middle" x="0" y="741" transform="translate(600.59,0)" style="font-family: 'Open Sans', verdana, arial, sans-serif; font-size: 12px; fill: rgb(68, 68, 68); fill-opacity: 1; white-space: pre;">Jan 2021</text></g><g class="xtick"><text text-anchor="middle" x="0" y="741" transform="translate(703.81,0)" style="font-family: 'Open Sans', verdana, arial, sans-serif; font-size: 12px; fill: rgb(68, 68, 68); fill-opacity: 1; white-space: pre;">Mar 2021</text></g><g class="xtick"><text text-anchor="middle" x="0" y="741" transform="translate(810.53,0)" style="font-family: 'Open Sans', verdana, arial, sans-serif; font-size: 12px; fill: rgb(68, 68, 68); fill-opacity: 1; white-space: pre;">May 2021</text></g></g><g class="yaxislayer-above"><g class="ytick"><text text-anchor="end" x="59" y="4.199999999999999" transform="translate(0,692.85)" style="font-family: 'Open Sans', verdana, arial, sans-serif; font-size: 12px; fill: rgb(68, 68, 68); fill-opacity: 1; white-space: pre;">0</text></g><g class="ytick"><text text-anchor="end" x="59" y="4.199999999999999" transform="translate(0,532.65)" style="font-family: 'Open Sans', verdana, arial, sans-serif; font-size: 12px; fill: rgb(68, 68, 68); fill-opacity: 1; white-space: pre;">0.05</text></g><g class="ytick"><text text-anchor="end" x="59" y="4.199999999999999" transform="translate(0,372.46)" style="font-family: 'Open Sans', verdana, arial, sans-serif; font-size: 12px; fill: rgb(68, 68, 68); fill-opacity: 1; white-space: pre;">0.1</text></g><g class="ytick"><text text-anchor="end" x="59" y="4.199999999999999" transform="translate(0,212.26)" style="font-family: 'Open Sans', verdana, arial, sans-serif; font-size: 12px; fill: rgb(68, 68, 68); fill-opacity: 1; white-space: pre;">0.15</text></g><g class="ytick"><text text-anchor="end" x="59" y="4.199999999999999" transform="translate(0,52.06)" style="font-family: 'Open Sans', verdana, arial, sans-serif; font-size: 12px; fill: rgb(68, 68, 68); fill-opacity: 1; white-space: pre;">0.2</text></g></g><g class="overaxes-above"/></g></g><g class="polarlayer"/><g class="ternarylayer"/><g class="geolayer"/><g class="funnelarealayer"/><g class="pielayer"/><g class="treemaplayer"/><g class="sunburstlayer"/><g class="glimages"/><defs id="topdefs-e90f79"><g class="clips"/><clipPath id="legende90f79"><rect width="102" height="48" x="0" y="0"/></clipPath></defs><g class="layer-above"><g class="imagelayer"/><g class="shapelayer"/></g><g class="infolayer"><g class="legend" pointer-events="all" transform="translate(914.76, 25)"><rect class="bg" shape-rendering="crispEdges" style="stroke: rgb(68, 68, 68); stroke-opacity: 1; fill: rgb(255, 255, 255); fill-opacity: 1; stroke-width: 0px;" width="102" height="48" x="0" y="0"/><g class="scrollbox" transform="translate(0, 0)" clip-path="url('#legende90f79')"><g class="groups"><g class="traces" style="opacity: 1;" transform="translate(0, 14.5)"><text class="legendtext" text-anchor="start" x="40" y="4.680000000000001" style="font-family: 'Open Sans', verdana, arial, sans-serif; font-size: 12px; fill: rgb(68, 68, 68); fill-opacity: 1; white-space: pre;">actuals</text><g class="layers" style="opacity: 1;"><g class="legendfill"/><g class="legendlines"><path class="js-line" d="M5,0h30" style="fill: none; stroke: rgb(31, 119, 180); stroke-opacity: 1; stroke-width: 2px;"/></g><g class="legendsymbols"><g class="legendpoints"/></g></g><rect class="legendtoggle" x="0" y="-9.5" width="96.21875" height="19" style="fill: rgb(0, 0, 0); fill-opacity: 0;"/></g><g class="traces" style="opacity: 1;" transform="translate(0, 33.5)"><text class="legendtext" text-anchor="start" x="40" y="4.680000000000001" style="font-family: 'Open Sans', verdana, arial, sans-serif; font-size: 12px; fill: rgb(68, 68, 68); fill-opacity: 1; white-space: pre;">forecasts</text><g class="layers" style="opacity: 1;"><g class="legendfill"/><g class="legendlines"><path class="js-line" d="M5,0h30" style="fill: none; stroke: rgb(255, 127, 14); stroke-opacity: 1; stroke-width: 2px;"/></g><g class="legendsymbols"><g class="legendpoints"/></g></g><rect class="legendtoggle" x="0" y="-9.5" width="96.21875" height="19" style="fill: rgb(0, 0, 0); fill-opacity: 0;"/></g></g></g><rect class="scrollbar" rx="20" ry="3" width="0" height="0" style="fill: rgb(128, 139, 164); fill-opacity: 1;" x="0" y="0"/></g><g class="g-gtitle"><text class="gtitle" x="513.5" y="12.5" text-anchor="middle" dy="0em" style="font-family: 'Open Sans', verdana, arial, sans-serif; font-size: 17px; fill: rgb(68, 68, 68); opacity: 1; font-weight: normal; white-space: pre;">Positive cases as proportion of tested per day as of Jun 14, 2021. Including a 7-day forecast of positivity rate.</text></g><g class="g-xtitle" transform="translate(0,-15)"><text class="xtitle" x="479" y="780" text-anchor="middle" style="font-family: 'Open Sans', verdana, arial, sans-serif; font-size: 14px; fill: rgb(68, 68, 68); opacity: 1; font-weight: normal; white-space: pre;">Date</text></g><g class="g-ytitle"><text class="ytitle" transform="rotate(-90,22,376.5)" x="22" y="376.5" text-anchor="middle" style="font-family: 'Open Sans', verdana, arial, sans-serif; font-size: 14px; fill: rgb(68, 68, 68); opacity: 1; font-weight: normal; white-space: pre;">ratio of positive to tested</text></g></g></svg>