<svg class="main-svg" xmlns="http://www.w3.org/2000/svg" xmlns:xlink="http://www.w3.org/1999/xlink" width="1027" height="768" style="" viewBox="0 0 1027 768"><rect x="0" y="0" width="1027" height="768" style="fill: rgb(255, 255, 255); fill-opacity: 1;"/><defs id="defs-47fea3"><g class="clips"><clipPath id="clip47fea3xyplot" class="plotclip"><rect width="838" height="703"/></clipPath><clipPath class="axesclip" id="clip47fea3x"><rect x="60" y="0" width="838" height="768"/></clipPath><clipPath class="axesclip" id="clip47fea3y"><rect x="0" y="25" width="1027" height="703"/></clipPath><clipPath class="axesclip" id="clip47fea3xy"><rect x="60" y="25" width="838" height="703"/></clipPath></g><g class="gradients"/></defs><g class="bglayer"/><g class="layer-below"><g class="imagelayer"/><g class="shapelayer"/></g><g class="cartesianlayer"><g class="subplot xy"><g class="layer-subplot"><g class="shapelayer"/><g class="imagelayer"/></g><g class="gridlayer"><g class="x"><path class="xgrid crisp" transform="translate(65.97,0)" d="M0,25v703" style="stroke: rgb(238, 238, 238); stroke-opacity: 1; stroke-width: 1px;"/><path class="xgrid crisp" transform="translate(187.39,0)" d="M0,25v703" style="stroke: rgb(238, 238, 238); stroke-opacity: 1; stroke-width: 1px;"/><path class="xgrid crisp" transform="translate(308.81,0)" d="M0,25v703" style="stroke: rgb(238, 238, 238); stroke-opacity: 1; stroke-width: 1px;"/><path class="xgrid crisp" transform="translate(432.22,0)" d="M0,25v703" style="stroke: rgb(238, 238, 238); stroke-opacity: 1; stroke-width: 1px;"/><path class="xgrid crisp" transform="translate(553.64,0)" d="M0,25v703" style="stroke: rgb(238, 238, 238); stroke-opacity: 1; stroke-width: 1px;"/><path class="xgrid crisp" transform="translate(675.06,0)" d="M0,25v703" style="stroke: rgb(238, 238, 238); stroke-opacity: 1; stroke-width: 1px;"/><path class="xgrid crisp" transform="translate(792.5,0)" d="M0,25v703" style="stroke: rgb(238, 238, 238); stroke-opacity: 1; stroke-width: 1px;"/></g><g class="y"><path class="ygrid crisp" transform="translate(0,532.65)" d="M60,0h838" style="stroke: rgb(238, 238, 238); stroke-opacity: 1; stroke-width: 1px;"/><path class="ygrid crisp" transform="translate(0,372.46)" d="M60,0h838" style="stroke: rgb(238, 238, 238); stroke-opacity: 1; stroke-width: 1px;"/><path class="ygrid crisp" transform="translate(0,212.26)" d="M60,0h838" style="stroke: rgb(238, 238, 238); stroke-opacity: 1; stroke-width: 1px;"/><path class="ygrid crisp" transform="translate(0,52.06)" d="M60,0h838" style="stroke: rgb(238, 238, 238); stroke-opacity: 1; stroke-width: 1px;"/></g></g><g class="zerolinelayer"><path class="yzl zl crisp" transform="translate(0,692.85)" d="M60,0h838" style="stroke: rgb(68, 68, 68); stroke-opacity: 1; stroke-width: 1px;"/></g><path class="xlines-below"/><path class="ylines-below"/><g class="overlines-below"/><g class="xaxislayer-below"/><g class="yaxislayer-below"/><g class="overaxes-below"/><g class="plot" transform="translate(60, 25)" clip-path="url('#clip47fea3xyplot')"><g class="scatterlayer mlayer"><g class="trace scatter trace404dd7" style="stroke-miterlimit: 2; opacity: 1;"><g class="fills"/><g class="errorbars"/><g class="lines"><path class="js-line" d="M0,622.08L1.99,621.42L7.96,505.63L9.95,614.89L11.94,667.85L13.93,653.8L15.92,602.8L17.91,638.59L21.9,614.7L23.89,667.85L25.88,638.18L27.87,598.9L29.86,599.97L31.85,617.23L33.84,593.79L35.83,608L37.82,632.36L39.81,638.47L41.8,617.81L43.79,600.66L45.78,620.7L47.77,621.42L49.76,549.58L51.75,600.54L53.74,572.07L55.73,483.2L57.72,497.46L59.71,432.27L61.71,317.67L63.7,404.9L65.69,449.29L67.68,403.44L69.67,299.64L71.66,405.8L73.65,315.31L75.64,403.85L77.63,194.99L79.62,123.47L81.61,290.13L83.6,282.57L85.59,306.88L87.58,480.13L89.57,401.54L91.56,348.91L93.55,404.5L95.54,484.89L97.53,464.79L99.52,35.15L101.52,558.54L103.51,445.78L105.5,478.64L107.49,510.14L109.48,468.98L113.46,523.68L115.45,551.37L117.44,559.61L119.43,512.85L121.42,571.63L123.41,554.1L125.4,586.26L127.39,567.44L129.38,586.75L131.37,586.4L133.36,551.47L135.35,566L137.34,583.63L139.33,574.06L141.33,610.19L143.32,614.38L145.31,597.21L147.3,571.12L149.29,598.21L151.28,604.43L153.27,608.32L155.26,597.34L157.25,600.68L159.24,561.46L161.23,432.5L163.22,498.58L165.21,541.9L167.2,542.55L169.19,548.15L171.18,538.38L173.17,509.42L175.16,574.73L177.15,606.03L179.14,598.19L183.13,617.71L185.12,606.46L187.11,577.83L189.1,574.11L191.09,606.1L193.08,613.07L195.07,619.36L197.06,604.76L199.05,599.22L201.04,617.15L203.03,613.3L205.02,627.52L207.01,641.13L209,647.27L210.99,636.81L212.98,640.74L214.97,641.19L216.96,640.71L218.95,642.7L220.95,645.92L222.94,646.9L224.93,643.75L228.91,644.3L230.9,625.1L232.89,645.35L234.88,645.84L236.87,656.3L238.86,652.54L240.85,647.93L242.84,637.5L244.83,646.68L246.82,649.53L250.8,646L252.79,649.76L254.78,649.27L256.77,639.33L258.76,644.1L260.76,651.29L262.75,647.16L264.74,654.33L266.73,653.74L268.72,651.78L270.71,650.06L272.7,646.61L274.69,654.1L276.68,654.43L278.67,656.44L280.66,649.41L284.64,647.17L286.63,639.54L288.62,645.81L290.61,655.16L292.6,646.16L294.59,653.06L296.58,651.06L298.57,652.39L300.57,647.33L302.56,658.93L304.55,657.55L306.54,653.55L308.53,655.91L310.52,655.64L312.51,655.6L314.5,652.64L316.49,651.86L318.48,656.22L320.47,656.63L322.46,659.23L324.45,658.74L326.44,651.31L328.43,662.95L330.42,655.46L332.41,659.41L334.4,658.07L336.39,656.69L338.38,656.95L340.38,655.44L342.37,650.49L346.35,658.45L348.34,652.9L350.33,655.77L352.32,652.09L354.31,649.95L356.3,651.84L358.29,655.01L360.28,654.64L362.27,655.57L364.26,653.08L368.24,653.3L370.23,652.61L372.22,650.1L374.21,651.77L376.2,651.26L378.19,648.97L380.19,650.37L382.18,642.19L384.17,639.53L386.16,640.73L388.15,645.77L390.14,646.85L394.12,646.86L396.11,633.9L398.1,638.78L400.09,632.76L402.08,641.13L404.07,631.99L406.06,634.36L408.05,638.71L410.04,624.97L412.03,623.07L414.02,637.56L416.01,625.07L418,636.55L420,635.62L421.99,630.84L423.98,613.3L425.97,621.6L427.96,611.84L429.95,624.37L431.94,609.35L433.93,622.62L435.92,622.13L437.91,616.26L439.9,626.08L441.89,624.69L443.88,615.19L445.87,600.87L447.86,609.34L449.85,620.74L451.84,596.96L453.83,591.32L455.82,596.12L457.81,605.07L459.81,608.61L461.8,610.18L463.79,616.24L465.78,597.06L467.77,558.47L469.76,590.32L471.75,598.51L473.74,601.72L475.73,596.88L477.72,581.74L479.71,572.69L481.7,557.19L483.69,578.81L485.68,583.84L487.67,597.85L491.65,583.55L493.64,559.02L495.63,534.77L497.62,557.15L499.62,578.42L501.61,589.98L503.6,575.25L505.59,554.62L507.58,527.74L509.57,515.16L511.56,543.38L513.55,540.29L515.54,557.44L517.53,554.88L519.52,573.11L521.51,525L523.5,516.66L525.49,532.08L527.48,575.19L529.47,573.54L531.46,558.83L533.45,561.9L535.44,531.98L537.43,548.35L539.43,545.91L541.42,568.32L545.4,561.88L547.39,566.43L549.38,525.89L551.37,509.97L553.36,543.03L555.35,557.32L557.34,566.01L559.33,567.58L561.32,563.81L563.31,531.65L565.3,530.86L567.29,543.11L569.28,565.06L571.27,573.94L573.26,575.9L575.25,575.51L577.24,558.98L579.24,483.63L581.23,528.53L583.22,533.92L585.21,560.34L587.2,555.49L589.19,560.95L591.18,543.05L593.17,511.99L595.16,531.69L597.15,546.47L599.14,555.31L601.13,529.24L603.12,514.11L605.11,510.83L607.1,428.06L609.09,429L611.08,500.87L613.07,553.82L615.06,492.37L617.05,480.92L619.05,400.04L621.04,382.75L623.03,462.85L625.02,496.43L627.01,477.4L629,516.53L630.99,464.99L632.98,437.37L634.97,460.25L636.96,481.58L638.95,518.12L640.94,542.24L642.93,535.31L644.92,485.67L646.91,462.9L652.88,547.82L654.87,548.98L656.86,548.74L658.86,509.64L660.85,493.44L662.84,486.36L664.83,570.9L666.82,564.15L668.81,582.6L670.8,556.94L672.79,547.88L674.78,460.05L676.77,584.25L678.76,596.21L682.74,582.53L684.73,596.52L686.72,575.5L688.71,524.65L692.69,602.43L694.68,623.85L698.67,596.97L700.66,603.31L702.65,566.1L704.64,560.6L708.62,608.64L710.61,611.49L712.6,599.06L714.59,595.56L716.58,559.07L718.57,547.61L720.56,606.29L722.55,612.9L724.54,604.92L726.53,603.95L728.52,598.67L730.51,574.24L732.5,567.25L734.49,609.51L736.48,619.33L738.48,606L740.47,613L742.46,578.51L744.45,530.56L746.44,553.71L748.43,589.98L750.42,610.13L754.4,587.36L756.39,550.3L760.37,547.22L762.36,569.5L764.35,582.88L766.34,568.25L768.33,555.34L770.32,551.3L772.31,492.76L774.3,515.7L776.29,570.98L778.29,540.92L780.28,537.8L782.27,539.02L784.26,511.69L786.25,497.87L788.24,460.36L790.23,525.56L792.22,536.33L794.21,509.07L796.2,504.77L798.19,457.78L800.18,410.4L802.17,406.27L806.15,502.5L808.14,447.31L810.13,469.01L812.12,414.62L814.11,373.65L816.1,389L818.1,422.22L820.09,436.4L824.07,422.03" style="vector-effect: non-scaling-stroke; fill: none; stroke: rgb(31, 119, 180); stroke-opacity: 1; stroke-width: 2px; opacity: 1;"/></g><g class="points"/><g class="text"/></g><g class="trace scatter trace10a7d0" style="stroke-miterlimit: 2; opacity: 1;"><g class="fills"/><g class="errorbars"/><g class="lines"><path class="js-line" d="M824.07,422.03L826.06,378.58L828.05,360.47L830.04,371.02L832.03,403.4L834.02,425.28L836.01,428.84L838,399.59" style="vector-effect: non-scaling-stroke; fill: none; stroke: rgb(255, 127, 14); stroke-opacity: 1; stroke-width: 2px; opacity: 1;"/></g><g class="points"/><g class="text"/></g></g></g><g class="overplot"/><path class="xlines-above crisp" style="fill: none;" d="M0,0"/><path class="ylines-above crisp" style="fill: none;" d="M0,0"/><g class="overlines-above"/><g class="xaxislayer-above"><g class="xtick"><text text-anchor="middle" x="0" y="741" transform="translate(65.97,0)" style="font-family: 'Open Sans', verdana, arial, sans-serif; font-size: 12px; fill: rgb(68, 68, 68); fill-opacity: 1; white-space: pre;">Mar 2020</text></g><g class="xtick"><text text-anchor="middle" x="0" y="741" transform="translate(187.39,0)" style="font-family: 'Open Sans', verdana, arial, sans-serif; font-size: 12px; fill: rgb(68, 68, 68); fill-opacity: 1; white-space: pre;">May 2020</text></g><g class="xtick"><text text-anchor="middle" x="0" y="741" transform="translate(308.81,0)" style="font-family: 'Open Sans', verdana, arial, sans-serif; font-size: 12px; fill: rgb(68, 68, 68); fill-opacity: 1; white-space: pre;">Jul 2020</text></g><g class="xtick"><text text-anchor="middle" x="0" y="741" transform="translate(432.22,0)" style="font-family: 'Open Sans', verdana, arial, sans-serif; font-size: 12px; fill: rgb(68, 68, 68); fill-opacity: 1; white-space: pre;">Sep 2020</text></g><g class="xtick"><text text-anchor="middle" x="0" y="741" transform="translate(553.64,0)" style="font-family: 'Open Sans', verdana, arial, sans-serif; font-size: 12px; fill: rgb(68, 68, 68); fill-opacity: 1; white-space: pre;">Nov 2020</text></g><g class="xtick"><text text-anchor="middle" x="0" y="741" transform="translate(675.06,0)" style="font-family: 'Open Sans', verdana, arial, sans-serif; font-size: 12px; fill: rgb(68, 68, 68); fill-opacity: 1; white-space: pre;">Jan 2021</text></g><g class="xtick"><text text-anchor="middle" x="0" y="741" transform="translate(792.5,0)" style="font-family: 'Open Sans', verdana, arial, sans-serif; font-size: 12px; fill: rgb(68, 68, 68); fill-opacity: 1; white-space: pre;">Mar 2021</text></g></g><g class="yaxislayer-above"><g class="ytick"><text text-anchor="end" x="59" y="4.199999999999999" transform="translate(0,692.85)" style="font-family: 'Open Sans', verdana, arial, sans-serif; font-size: 12px; fill: rgb(68, 68, 68); fill-opacity: 1; white-space: pre;">0</text></g><g class="ytick"><text text-anchor="end" x="59" y="4.199999999999999" transform="translate(0,532.65)" style="font-family: 'Open Sans', verdana, arial, sans-serif; font-size: 12px; fill: rgb(68, 68, 68); fill-opacity: 1; white-space: pre;">0.05</text></g><g class="ytick"><text text-anchor="end" x="59" y="4.199999999999999" transform="translate(0,372.46)" style="font-family: 'Open Sans', verdana, arial, sans-serif; font-size: 12px; fill: rgb(68, 68, 68); fill-opacity: 1; white-space: pre;">0.1</text></g><g class="ytick"><text text-anchor="end" x="59" y="4.199999999999999" transform="translate(0,212.26)" style="font-family: 'Open Sans', verdana, arial, sans-serif; font-size: 12px; fill: rgb(68, 68, 68); fill-opacity: 1; white-space: pre;">0.15</text></g><g class="ytick"><text text-anchor="end" x="59" y="4.199999999999999" transform="translate(0,52.06)" style="font-family: 'Open Sans', verdana, arial, sans-serif; font-size: 12px; fill: rgb(68, 68, 68); fill-opacity: 1; white-space: pre;">0.2</text></g></g><g class="overaxes-above"/></g></g><g class="polarlayer"/><g class="ternarylayer"/><g class="geolayer"/><g class="funnelarealayer"/><g class="pielayer"/><g class="treemaplayer"/><g class="sunburstlayer"/><g class="glimages"/><defs id="topdefs-47fea3"><g class="clips"/><clipPath id="legend47fea3"><rect width="102" height="48" x="0" y="0"/></clipPath></defs><g class="layer-above"><g class="imagelayer"/><g class="shapelayer"/></g><g class="infolayer"><g class="legend" pointer-events="all" transform="translate(914.76, 25)"><rect class="bg" shape-rendering="crispEdges" style="stroke: rgb(68, 68, 68); stroke-opacity: 1; fill: rgb(255, 255, 255); fill-opacity: 1; stroke-width: 0px;" width="102" height="48" x="0" y="0"/><g class="scrollbox" transform="translate(0, 0)" clip-path="url('#legend47fea3')"><g class="groups"><g class="traces" style="opacity: 1;" transform="translate(0, 14.5)"><text class="legendtext" text-anchor="start" x="40" y="4.680000000000001" style="font-family: 'Open Sans', verdana, arial, sans-serif; font-size: 12px; fill: rgb(68, 68, 68); fill-opacity: 1; white-space: pre;">actuals</text><g class="layers" style="opacity: 1;"><g class="legendfill"/><g class="legendlines"><path class="js-line" d="M5,0h30" style="fill: none; stroke: rgb(31, 119, 180); stroke-opacity: 1; stroke-width: 2px;"/></g><g class="legendsymbols"><g class="legendpoints"/></g></g><rect class="legendtoggle" x="0" y="-9.5" width="96.21875" height="19" style="fill: rgb(0, 0, 0); fill-opacity: 0;"/></g><g class="traces" style="opacity: 1;" transform="translate(0, 33.5)"><text class="legendtext" text-anchor="start" x="40" y="4.680000000000001" style="font-family: 'Open Sans', verdana, arial, sans-serif; font-size: 12px; fill: rgb(68, 68, 68); fill-opacity: 1; white-space: pre;">forecasts</text><g class="layers" style="opacity: 1;"><g class="legendfill"/><g class="legendlines"><path class="js-line" d="M5,0h30" style="fill: none; stroke: rgb(255, 127, 14); stroke-opacity: 1; stroke-width: 2px;"/></g><g class="legendsymbols"><g class="legendpoints"/></g></g><rect class="legendtoggle" x="0" y="-9.5" width="96.21875" height="19" style="fill: rgb(0, 0, 0); fill-opacity: 0;"/></g></g></g><rect class="scrollbar" rx="20" ry="3" width="0" height="0" style="fill: rgb(128, 139, 164); fill-opacity: 1;" x="0" y="0"/></g><g class="g-gtitle"><text class="gtitle" x="513.5" y="12.5" text-anchor="middle" dy="0em" style="font-family: 'Open Sans', verdana, arial, sans-serif; font-size: 17px; fill: rgb(68, 68, 68); opacity: 1; font-weight: normal; white-space: pre;">Positive cases as proportion of tested per day as of Apr 17, 2021. Including a 7-day forecast of positivity rate.</text></g><g class="g-xtitle" transform="translate(0,-15)"><text class="xtitle" x="479" y="780" text-anchor="middle" style="font-family: 'Open Sans', verdana, arial, sans-serif; font-size: 14px; fill: rgb(68, 68, 68); opacity: 1; font-weight: normal; white-space: pre;">Date</text></g><g class="g-ytitle"><text class="ytitle" transform="rotate(-90,22,376.5)" x="22" y="376.5" text-anchor="middle" style="font-family: 'Open Sans', verdana, arial, sans-serif; font-size: 14px; fill: rgb(68, 68, 68); opacity: 1; font-weight: normal; white-space: pre;">ratio of positive to tested</text></g></g></svg>