<svg class="main-svg" xmlns="http://www.w3.org/2000/svg" xmlns:xlink="http://www.w3.org/1999/xlink" width="1027" height="768" style="" viewBox="0 0 1027 768"><rect x="0" y="0" width="1027" height="768" style="fill: rgb(255, 255, 255); fill-opacity: 1;"/><defs id="defs-44540b"><g class="clips"><clipPath id="clip44540bxyplot" class="plotclip"><rect width="939" height="703"/></clipPath><clipPath class="axesclip" id="clip44540bx"><rect x="60" y="0" width="939" height="768"/></clipPath><clipPath class="axesclip" id="clip44540by"><rect x="0" y="25" width="1027" height="703"/></clipPath><clipPath class="axesclip" id="clip44540bxy"><rect x="60" y="25" width="939" height="703"/></clipPath></g><g class="gradients"/></defs><g class="bglayer"/><g class="layer-below"><g class="imagelayer"/><g class="shapelayer"/></g><g class="cartesianlayer"><g class="subplot xy"><g class="layer-subplot"><g class="shapelayer"/><g class="imagelayer"/></g><g class="gridlayer"><g class="x"><path class="xgrid crisp" transform="translate(71.22,0)" d="M0,25v703" style="stroke: rgb(238, 238, 238); stroke-opacity: 1; stroke-width: 1px;"/><path class="xgrid crisp" transform="translate(187.2,0)" d="M0,25v703" style="stroke: rgb(238, 238, 238); stroke-opacity: 1; stroke-width: 1px;"/><path class="xgrid crisp" transform="translate(299.43,0)" d="M0,25v703" style="stroke: rgb(238, 238, 238); stroke-opacity: 1; stroke-width: 1px;"/><path class="xgrid crisp" transform="translate(415.4,0)" d="M0,25v703" style="stroke: rgb(238, 238, 238); stroke-opacity: 1; stroke-width: 1px;"/><path class="xgrid crisp" transform="translate(527.63,0)" d="M0,25v703" style="stroke: rgb(238, 238, 238); stroke-opacity: 1; stroke-width: 1px;"/><path class="xgrid crisp" transform="translate(643.6,0)" d="M0,25v703" style="stroke: rgb(238, 238, 238); stroke-opacity: 1; stroke-width: 1px;"/><path class="xgrid crisp" transform="translate(759.57,0)" d="M0,25v703" style="stroke: rgb(238, 238, 238); stroke-opacity: 1; stroke-width: 1px;"/><path class="xgrid crisp" transform="translate(871.8,0)" d="M0,25v703" style="stroke: rgb(238, 238, 238); stroke-opacity: 1; stroke-width: 1px;"/><path class="xgrid crisp" transform="translate(987.78,0)" d="M0,25v703" style="stroke: rgb(238, 238, 238); stroke-opacity: 1; stroke-width: 1px;"/></g><g class="y"><path class="ygrid crisp" transform="translate(0,532.65)" d="M60,0h939" style="stroke: rgb(238, 238, 238); stroke-opacity: 1; stroke-width: 1px;"/><path class="ygrid crisp" transform="translate(0,372.46)" d="M60,0h939" style="stroke: rgb(238, 238, 238); stroke-opacity: 1; stroke-width: 1px;"/><path class="ygrid crisp" transform="translate(0,212.26)" d="M60,0h939" style="stroke: rgb(238, 238, 238); stroke-opacity: 1; stroke-width: 1px;"/><path class="ygrid crisp" transform="translate(0,52.06)" d="M60,0h939" style="stroke: rgb(238, 238, 238); stroke-opacity: 1; stroke-width: 1px;"/></g></g><g class="zerolinelayer"><path class="yzl zl crisp" transform="translate(0,692.85)" d="M60,0h939" style="stroke: rgb(68, 68, 68); stroke-opacity: 1; stroke-width: 1px;"/></g><path class="xlines-below"/><path class="ylines-below"/><g class="overlines-below"/><g class="xaxislayer-below"/><g class="yaxislayer-below"/><g class="overaxes-below"/><g class="plot" transform="translate(60, 25)" clip-path="url('#clip44540bxyplot')"><g class="scatterlayer mlayer"><g class="trace scatter trace48d62c" style="stroke-miterlimit: 2; opacity: 1;"><g class="fills"/><g class="errorbars"/><g class="lines"><path class="js-line" d="M0,622.08L3.74,621.42L14.96,505.63L18.71,614.89L22.45,667.85L26.19,653.8L29.93,602.8L33.67,638.59L41.15,614.7L44.89,667.85L48.63,638.18L52.37,598.9L56.12,599.97L59.86,617.23L63.6,593.79L67.34,608L71.08,632.36L74.82,638.47L78.56,617.81L82.3,600.66L86.04,620.7L89.78,621.42L93.53,549.58L97.27,600.54L101.01,572.07L104.75,483.2L108.49,497.46L112.23,432.27L115.97,317.67L119.71,404.9L123.45,449.29L127.2,403.44L130.94,299.64L134.68,405.8L138.42,315.31L142.16,403.85L145.9,194.99L149.64,123.47L153.38,290.13L157.12,282.57L160.86,306.88L164.61,480.13L168.35,401.54L172.09,348.91L175.83,404.5L179.57,484.89L183.31,464.79L187.05,35.15L190.79,558.54L194.53,445.78L198.27,478.64L202.02,510.14L205.76,468.98L209.5,501.07L213.24,523.68L216.98,551.37L220.72,559.61L224.46,512.85L228.2,571.63L231.94,554.1L235.69,586.26L239.43,567.44L243.17,586.75L246.91,586.4L250.65,551.47L254.39,566L258.13,583.63L261.87,574.06L265.61,610.19L269.35,614.38L273.1,597.21L276.84,571.12L280.58,598.21L284.32,604.43L288.06,608.32L291.8,597.34L295.54,600.68L299.28,561.46L303.02,432.5L306.76,498.58L310.51,541.9L314.25,542.55L317.99,548.15L321.73,538.38L325.47,509.42L329.21,574.73L332.95,606.03L336.69,598.19L340.43,608.35L344.18,617.71L347.92,606.46L351.66,577.83L355.4,574.11L359.14,606.1L362.88,613.07L366.62,619.36L370.36,604.76L374.1,599.22L377.84,617.15L381.59,613.3L385.33,627.52L389.07,641.13L392.81,647.27L396.55,636.81L400.29,640.74L404.03,641.19L407.77,640.71L411.51,642.7L415.25,645.92L419,646.9L422.74,643.75L430.22,644.3L433.96,625.1L437.7,645.35L441.44,645.84L445.18,656.3L448.92,652.54L452.67,647.93L456.41,637.5L460.15,646.68L463.89,649.53L471.37,646L475.11,649.76L478.85,649.27L482.59,639.33L486.33,644.1L490.08,651.29L493.82,647.16L497.56,654.33L501.3,653.74L505.04,651.78L508.78,650.06L512.52,646.61L516.26,654.1L520,654.43L523.75,656.44L527.49,649.41L534.97,647.17L538.71,639.54L542.45,645.81L546.19,655.16L549.93,646.16L553.67,653.06L557.41,651.06L561.16,652.39L564.9,647.33L568.64,658.93L572.38,657.55L576.12,653.55L579.86,655.91L583.6,655.64L587.34,655.6L591.08,652.64L594.82,651.86L598.57,656.22L602.31,656.63L606.05,659.23L609.79,658.74L613.53,651.31L617.27,662.95L621.01,655.46L624.75,659.41L628.49,658.07L632.24,656.69L635.98,656.95L639.72,655.44L643.46,650.49L647.2,655.11L650.94,658.45L654.68,652.9L658.42,655.77L662.16,652.09L665.9,649.95L669.65,651.84L673.39,655.01L677.13,654.64L680.87,655.57L684.61,653.08L688.35,653.48L695.83,652.61L699.57,650.1L703.31,651.77L707.06,651.26L710.8,648.97L714.54,650.37L718.28,642.19L722.02,639.53L725.76,640.73L729.5,645.77L733.24,646.85L736.98,646.98L740.73,646.86L744.47,633.9L748.21,638.78L751.95,632.76L755.69,641.13L759.43,631.99L763.17,634.36L766.91,638.71L770.65,624.97L774.39,623.07L778.14,637.56L781.88,625.07L785.62,636.55L789.36,635.62L793.1,630.84L796.84,613.3L800.58,621.6L804.32,611.84L808.06,624.37L811.8,609.35L815.55,622.62L819.29,622.13L823.03,616.26L826.77,626.08L830.51,624.69L834.25,615.19L837.99,600.87L841.73,609.34L845.47,620.74L849.22,596.96L852.96,591.32L856.7,596.12L860.44,605.07L864.18,608.61L867.92,610.18L871.66,616.24L875.4,597.06L879.14,558.47L882.88,590.32L886.63,598.51L890.37,601.72L894.11,596.88L897.85,581.74L901.59,572.69L905.33,557.19L909.07,578.81L912.81,583.84L916.55,597.85L924.04,583.55L927.78,559.02L931.52,534.77L935.26,557.15L939,578.42" style="vector-effect: non-scaling-stroke; fill: none; stroke: rgb(31, 119, 180); stroke-opacity: 1; stroke-width: 2px; opacity: 1;"/></g><g class="points"/><g class="text"/></g></g></g><g class="overplot"/><path class="xlines-above crisp" d="M0,0" style="fill: none;"/><path class="ylines-above crisp" d="M0,0" style="fill: none;"/><g class="overlines-above"/><g class="xaxislayer-above"><g class="xtick"><text text-anchor="middle" x="0" y="741" transform="translate(71.22,0)" style="font-family: 'Open Sans', verdana, arial, sans-serif; font-size: 12px; fill: rgb(68, 68, 68); fill-opacity: 1; white-space: pre;">Mar 2020</text></g><g class="xtick"><text text-anchor="middle" x="0" y="741" transform="translate(187.2,0)" style="font-family: 'Open Sans', verdana, arial, sans-serif; font-size: 12px; fill: rgb(68, 68, 68); fill-opacity: 1; white-space: pre;">Apr 2020</text></g><g class="xtick"><text text-anchor="middle" x="0" y="741" transform="translate(299.43,0)" style="font-family: 'Open Sans', verdana, arial, sans-serif; font-size: 12px; fill: rgb(68, 68, 68); fill-opacity: 1; white-space: pre;">May 2020</text></g><g class="xtick"><text text-anchor="middle" x="0" y="741" transform="translate(415.4,0)" style="font-family: 'Open Sans', verdana, arial, sans-serif; font-size: 12px; fill: rgb(68, 68, 68); fill-opacity: 1; white-space: pre;">Jun 2020</text></g><g class="xtick"><text text-anchor="middle" x="0" y="741" transform="translate(527.63,0)" style="font-family: 'Open Sans', verdana, arial, sans-serif; font-size: 12px; fill: rgb(68, 68, 68); fill-opacity: 1; white-space: pre;">Jul 2020</text></g><g class="xtick"><text text-anchor="middle" x="0" y="741" transform="translate(643.6,0)" style="font-family: 'Open Sans', verdana, arial, sans-serif; font-size: 12px; fill: rgb(68, 68, 68); fill-opacity: 1; white-space: pre;">Aug 2020</text></g><g class="xtick"><text text-anchor="middle" x="0" y="741" transform="translate(759.57,0)" style="font-family: 'Open Sans', verdana, arial, sans-serif; font-size: 12px; fill: rgb(68, 68, 68); fill-opacity: 1; white-space: pre;">Sep 2020</text></g><g class="xtick"><text text-anchor="middle" x="0" y="741" transform="translate(871.8,0)" style="font-family: 'Open Sans', verdana, arial, sans-serif; font-size: 12px; fill: rgb(68, 68, 68); fill-opacity: 1; white-space: pre;">Oct 2020</text></g><g class="xtick"><text text-anchor="middle" x="0" y="741" transform="translate(987.78,0)" style="font-family: 'Open Sans', verdana, arial, sans-serif; font-size: 12px; fill: rgb(68, 68, 68); fill-opacity: 1; white-space: pre;">Nov 2020</text></g></g><g class="yaxislayer-above"><g class="ytick"><text text-anchor="end" x="59" y="4.199999999999999" transform="translate(0,692.85)" style="font-family: 'Open Sans', verdana, arial, sans-serif; font-size: 12px; fill: rgb(68, 68, 68); fill-opacity: 1; white-space: pre;">0</text></g><g class="ytick"><text text-anchor="end" x="59" y="4.199999999999999" transform="translate(0,532.65)" style="font-family: 'Open Sans', verdana, arial, sans-serif; font-size: 12px; fill: rgb(68, 68, 68); fill-opacity: 1; white-space: pre;">0.05</text></g><g class="ytick"><text text-anchor="end" x="59" y="4.199999999999999" transform="translate(0,372.46)" style="font-family: 'Open Sans', verdana, arial, sans-serif; font-size: 12px; fill: rgb(68, 68, 68); fill-opacity: 1; white-space: pre;">0.1</text></g><g class="ytick"><text text-anchor="end" x="59" y="4.199999999999999" transform="translate(0,212.26)" style="font-family: 'Open Sans', verdana, arial, sans-serif; font-size: 12px; fill: rgb(68, 68, 68); fill-opacity: 1; white-space: pre;">0.15</text></g><g class="ytick"><text text-anchor="end" x="59" y="4.199999999999999" transform="translate(0,52.06)" style="font-family: 'Open Sans', verdana, arial, sans-serif; font-size: 12px; fill: rgb(68, 68, 68); fill-opacity: 1; white-space: pre;">0.2</text></g></g><g class="overaxes-above"/></g></g><g class="polarlayer"/><g class="ternarylayer"/><g class="geolayer"/><g class="funnelarealayer"/><g class="pielayer"/><g class="treemaplayer"/><g class="sunburstlayer"/><g class="glimages"/><defs id="topdefs-44540b"><g class="clips"/></defs><g class="layer-above"><g class="imagelayer"/><g class="shapelayer"/></g><g class="infolayer"><g class="g-gtitle"><text class="gtitle" x="513.5" y="12.5" text-anchor="middle" dy="0em" style="font-family: 'Open Sans', verdana, arial, sans-serif; font-size: 17px; fill: rgb(68, 68, 68); opacity: 1; font-weight: normal; white-space: pre;">Positive cases as proportion of tested per day as of Nov 05, 2020</text></g><g class="g-xtitle" transform="translate(0,-15)"><text class="xtitle" x="529.5" y="780" text-anchor="middle" style="font-family: 'Open Sans', verdana, arial, sans-serif; font-size: 14px; fill: rgb(68, 68, 68); opacity: 1; font-weight: normal; white-space: pre;">Date</text></g><g class="g-ytitle"><text class="ytitle" transform="rotate(-90,22,376.5)" x="22" y="376.5" text-anchor="middle" style="font-family: 'Open Sans', verdana, arial, sans-serif; font-size: 14px; fill: rgb(68, 68, 68); opacity: 1; font-weight: normal; white-space: pre;">ratio of positive to tested</text></g></g></svg>