<svg class="main-svg" xmlns="http://www.w3.org/2000/svg" xmlns:xlink="http://www.w3.org/1999/xlink" width="1027" height="768" style="" viewBox="0 0 1027 768"><rect x="0" y="0" width="1027" height="768" style="fill: rgb(255, 255, 255); fill-opacity: 1;"/><defs id="defs-d6b5b0"><g class="clips"><clipPath id="clipd6b5b0xyplot" class="plotclip"><rect width="838" height="703"/></clipPath><clipPath class="axesclip" id="clipd6b5b0x"><rect x="60" y="0" width="838" height="768"/></clipPath><clipPath class="axesclip" id="clipd6b5b0y"><rect x="0" y="25" width="1027" height="703"/></clipPath><clipPath class="axesclip" id="clipd6b5b0xy"><rect x="60" y="25" width="838" height="703"/></clipPath></g><g class="gradients"/></defs><g class="bglayer"/><g class="layer-below"><g class="imagelayer"/><g class="shapelayer"/></g><g class="cartesianlayer"><g class="subplot xy"><g class="layer-subplot"><g class="shapelayer"/><g class="imagelayer"/></g><g class="gridlayer"><g class="x"><path class="xgrid crisp" transform="translate(65.66,0)" d="M0,25v703" style="stroke: rgb(238, 238, 238); stroke-opacity: 1; stroke-width: 1px;"/><path class="xgrid crisp" transform="translate(180.79000000000002,0)" d="M0,25v703" style="stroke: rgb(238, 238, 238); stroke-opacity: 1; stroke-width: 1px;"/><path class="xgrid crisp" transform="translate(295.91999999999996,0)" d="M0,25v703" style="stroke: rgb(238, 238, 238); stroke-opacity: 1; stroke-width: 1px;"/><path class="xgrid crisp" transform="translate(412.94,0)" d="M0,25v703" style="stroke: rgb(238, 238, 238); stroke-opacity: 1; stroke-width: 1px;"/><path class="xgrid crisp" transform="translate(528.0699999999999,0)" d="M0,25v703" style="stroke: rgb(238, 238, 238); stroke-opacity: 1; stroke-width: 1px;"/><path class="xgrid crisp" transform="translate(643.2,0)" d="M0,25v703" style="stroke: rgb(238, 238, 238); stroke-opacity: 1; stroke-width: 1px;"/><path class="xgrid crisp" transform="translate(754.56,0)" d="M0,25v703" style="stroke: rgb(238, 238, 238); stroke-opacity: 1; stroke-width: 1px;"/><path class="xgrid crisp" transform="translate(869.69,0)" d="M0,25v703" style="stroke: rgb(238, 238, 238); stroke-opacity: 1; stroke-width: 1px;"/></g><g class="y"><path class="ygrid crisp" transform="translate(0,532.65)" d="M60,0h838" style="stroke: rgb(238, 238, 238); stroke-opacity: 1; stroke-width: 1px;"/><path class="ygrid crisp" transform="translate(0,372.46)" d="M60,0h838" style="stroke: rgb(238, 238, 238); stroke-opacity: 1; stroke-width: 1px;"/><path class="ygrid crisp" transform="translate(0,212.26)" d="M60,0h838" style="stroke: rgb(238, 238, 238); stroke-opacity: 1; stroke-width: 1px;"/><path class="ygrid crisp" transform="translate(0,52.06)" d="M60,0h838" style="stroke: rgb(238, 238, 238); stroke-opacity: 1; stroke-width: 1px;"/></g></g><g class="zerolinelayer"><path class="yzl zl crisp" transform="translate(0,692.85)" d="M60,0h838" style="stroke: rgb(68, 68, 68); stroke-opacity: 1; stroke-width: 1px;"/></g><path class="xlines-below"/><path class="ylines-below"/><g class="overlines-below"/><g class="xaxislayer-below"/><g class="yaxislayer-below"/><g class="overaxes-below"/><g class="plot" transform="translate(60, 25)" clip-path="url('#clipd6b5b0xyplot')"><g class="scatterlayer mlayer"><g class="trace scatter trace58aa0b" style="stroke-miterlimit: 2; opacity: 1;"><g class="fills"/><g class="errorbars"/><g class="lines"><path class="js-line" d="M0,622.08L1.89,621.42L7.55,505.63L9.44,614.89L11.32,667.85L13.21,653.8L15.1,602.8L16.99,638.59L20.76,614.7L22.65,667.85L24.54,638.18L26.42,598.9L28.31,599.97L30.2,617.23L32.09,593.79L33.97,608L35.86,632.36L37.75,638.47L39.64,617.81L41.52,600.66L43.41,620.7L45.3,621.42L47.18,549.58L49.07,600.54L50.96,572.07L52.85,483.2L54.73,497.46L56.62,432.27L58.51,317.67L60.4,404.9L62.28,449.29L64.17,403.44L66.06,299.64L67.95,405.8L69.83,315.31L71.72,403.85L73.61,194.99L75.5,123.47L77.38,290.13L79.27,282.57L81.16,306.88L83.05,480.13L84.93,401.54L86.82,348.91L88.71,404.5L90.59,484.89L92.48,464.79L94.37,35.15L96.26,558.54L98.14,445.78L100.03,478.64L101.92,510.14L103.81,468.98L107.58,523.68L109.47,551.37L111.36,559.61L113.24,512.85L115.13,571.63L117.02,554.1L118.91,586.26L120.79,567.44L122.68,586.75L124.57,586.4L126.45,551.47L128.34,566L130.23,583.63L132.12,574.06L134,610.19L135.89,614.38L137.78,597.21L139.67,571.12L141.55,598.21L143.44,604.43L145.33,608.32L147.22,597.34L149.1,600.68L150.99,561.46L152.88,432.5L154.77,498.58L156.65,541.9L158.54,542.55L160.43,548.15L162.32,538.38L164.2,509.42L166.09,574.73L167.98,606.03L169.86,598.19L173.64,617.71L175.53,606.46L177.41,577.83L179.3,574.11L181.19,606.1L183.08,613.07L184.96,619.36L186.85,604.76L188.74,599.22L190.63,617.15L192.51,613.3L194.4,627.52L196.29,641.13L198.18,647.27L200.06,636.81L201.95,640.74L203.84,641.19L205.73,640.71L207.61,642.7L209.5,645.92L211.39,646.9L213.27,643.75L217.05,644.3L218.94,625.1L220.82,645.35L222.71,645.84L224.6,656.3L226.49,652.54L228.37,647.93L230.26,637.5L232.15,646.68L234.04,649.53L237.81,646L239.7,649.76L241.59,649.27L243.47,639.33L245.36,644.1L247.25,651.29L249.14,647.16L251.02,654.33L252.91,653.74L254.8,651.78L256.68,650.06L258.57,646.61L260.46,654.1L262.35,654.43L264.23,656.44L266.12,649.41L269.9,647.17L271.78,639.54L273.67,645.81L275.56,655.16L277.45,646.16L279.33,653.06L281.22,651.06L283.11,652.39L285,647.33L286.88,658.93L288.77,657.55L290.66,653.55L292.55,655.91L294.43,655.64L296.32,655.6L298.21,652.64L300.09,651.86L301.98,656.22L303.87,656.63L305.76,659.23L307.64,658.74L309.53,651.31L311.42,662.95L313.31,655.46L315.19,659.41L317.08,658.07L318.97,656.69L320.86,656.95L322.74,655.44L324.63,650.49L328.41,658.45L330.29,652.9L332.18,655.77L334.07,652.09L335.95,649.95L337.84,651.84L339.73,655.01L341.62,654.64L343.5,655.57L345.39,653.08L349.17,653.3L351.05,652.61L352.94,650.1L354.83,651.77L356.72,651.26L358.6,648.97L360.49,650.37L362.38,642.19L364.27,639.53L366.15,640.73L368.04,645.77L369.93,646.85L373.7,646.86L375.59,633.9L377.48,638.78L379.36,632.76L381.25,641.13L383.14,631.99L385.03,634.36L386.91,638.71L388.8,624.97L390.69,623.07L392.58,637.56L394.46,625.07L396.35,636.55L398.24,635.62L400.13,630.84L402.01,613.3L403.9,621.6L405.79,611.84L407.68,624.37L409.56,609.35L411.45,622.62L413.34,622.13L415.23,616.26L417.11,626.08L419,624.69L420.89,615.19L422.77,600.87L424.66,609.34L426.55,620.74L428.44,596.96L430.32,591.32L432.21,596.12L434.1,605.07L435.99,608.61L437.87,610.18L439.76,616.24L441.65,597.06L443.54,558.47L445.42,590.32L447.31,598.51L449.2,601.72L451.09,596.88L452.97,581.74L454.86,572.69L456.75,557.19L458.64,578.81L460.52,583.84L462.41,597.85L466.18,583.55L468.07,559.02L469.96,534.77L471.85,557.15L473.73,578.42L475.62,589.98L477.51,575.25L479.4,554.62L481.28,527.74L483.17,515.16L485.06,543.38L486.95,540.29L488.83,557.44L490.72,554.88L492.61,573.11L494.5,525L496.38,516.66L498.27,532.08L500.16,575.19L502.05,573.54L503.93,558.83L505.82,561.9L507.71,531.98L509.59,548.35L511.48,545.91L513.37,568.32L517.14,561.88L519.03,566.43L520.92,525.89L522.81,509.97L524.69,543.03L526.58,557.32L528.47,566.01L530.36,567.58L532.24,563.81L534.13,531.65L536.02,530.86L537.91,543.11L539.79,565.06L541.68,573.94L543.57,575.9L545.45,575.51L547.34,558.98L549.23,483.63L551.12,528.53L553,533.92L554.89,560.34L556.78,555.49L558.67,560.95L560.55,543.05L562.44,511.99L564.33,531.69L568.1,555.31L569.99,529.24L571.88,514.11L573.77,510.83L575.65,428.06L577.54,429L581.32,553.82L583.2,492.37L585.09,480.92L586.98,400.04L588.86,382.75L590.75,462.85L592.64,496.43L594.53,477.4L596.41,516.53L598.3,464.99L600.19,437.37L602.08,460.25L603.96,481.58L605.85,518.12L607.74,542.24L609.63,535.31L611.51,485.67L613.4,462.9L619.06,547.82L620.95,548.98L622.84,548.74L624.73,509.64L626.61,493.44L628.5,486.36L630.39,570.9L632.27,564.15L634.16,582.6L636.05,556.94L637.94,547.88L639.82,460.05L641.71,584.25L643.6,596.21L647.37,582.53L649.26,596.52L651.15,575.5L653.04,524.65L656.81,602.43L658.7,623.85L662.47,596.97L664.36,603.31L666.25,566.1L668.14,560.6L671.91,608.64L673.8,611.49L675.68,599.06L677.57,595.56L679.46,559.07L681.35,547.61L683.23,606.29L685.12,612.9L687.01,604.92L688.9,603.95L690.78,598.67L692.67,574.24L694.56,567.25L696.45,609.51L698.33,619.33L700.22,606L702.11,613L704,578.51L705.88,530.56L707.77,553.71L709.66,589.98L711.55,610.13L715.32,587.36L717.21,550.3L720.98,547.22L722.87,569.5L724.76,582.88L726.64,568.25L728.53,555.34L730.42,551.3L732.31,492.76L734.19,515.7L736.08,570.98L737.97,540.92L739.86,537.8L741.74,539.02L743.63,511.69L745.52,497.87L747.41,460.36L749.29,525.56L751.18,536.33L753.07,509.07L754.95,504.77L756.84,457.78L758.73,410.4L760.62,406.27L764.39,502.5L766.28,447.31L768.17,469.01L770.05,414.62L771.94,373.65L773.83,389L775.72,422.22L777.6,436.4L783.27,414.64L785.15,335.52L787.04,394.07L788.93,407.72L790.82,450.38L792.7,411.05L794.59,416.38L796.48,397.02L798.36,335.35L800.25,360.18L802.14,445.72L804.03,450.03L805.91,433.2L807.8,437.22L809.69,403.9L811.58,336.05L815.35,461.96L817.24,465.14L821.01,475.95L822.9,400.49L824.79,347.63" style="vector-effect: non-scaling-stroke; fill: none; stroke: rgb(31, 119, 180); stroke-opacity: 1; stroke-width: 2px; opacity: 1;"/></g><g class="points"/><g class="text"/></g><g class="trace scatter tracecdec9d" style="stroke-miterlimit: 2; opacity: 1;"><g class="fills"/><g class="errorbars"/><g class="lines"><path class="js-line" d="M824.79,347.63L828.56,466.29L830.45,495.82L832.34,495.55L834.23,464.78L836.11,411.97L838,406.24" style="vector-effect: non-scaling-stroke; fill: none; stroke: rgb(255, 127, 14); stroke-opacity: 1; stroke-width: 2px; opacity: 1;"/></g><g class="points"/><g class="text"/></g></g></g><g class="overplot"/><path class="xlines-above crisp" style="fill: none;" d="M0,0"/><path class="ylines-above crisp" style="fill: none;" d="M0,0"/><g class="overlines-above"/><g class="xaxislayer-above"><g class="xtick"><text text-anchor="middle" x="0" y="741" transform="translate(65.66,0)" style="font-family: 'Open Sans', verdana, arial, sans-serif; font-size: 12px; fill: rgb(68, 68, 68); fill-opacity: 1; white-space: pre;">Mar 2020</text></g><g class="xtick"><text text-anchor="middle" x="0" y="741" transform="translate(180.79000000000002,0)" style="font-family: 'Open Sans', verdana, arial, sans-serif; font-size: 12px; fill: rgb(68, 68, 68); fill-opacity: 1; white-space: pre;">May 2020</text></g><g class="xtick"><text text-anchor="middle" x="0" y="741" transform="translate(295.91999999999996,0)" style="font-family: 'Open Sans', verdana, arial, sans-serif; font-size: 12px; fill: rgb(68, 68, 68); fill-opacity: 1; white-space: pre;">Jul 2020</text></g><g class="xtick"><text text-anchor="middle" x="0" y="741" transform="translate(412.94,0)" style="font-family: 'Open Sans', verdana, arial, sans-serif; font-size: 12px; fill: rgb(68, 68, 68); fill-opacity: 1; white-space: pre;">Sep 2020</text></g><g class="xtick"><text text-anchor="middle" x="0" y="741" transform="translate(528.0699999999999,0)" style="font-family: 'Open Sans', verdana, arial, sans-serif; font-size: 12px; fill: rgb(68, 68, 68); fill-opacity: 1; white-space: pre;">Nov 2020</text></g><g class="xtick"><text text-anchor="middle" x="0" y="741" transform="translate(643.2,0)" style="font-family: 'Open Sans', verdana, arial, sans-serif; font-size: 12px; fill: rgb(68, 68, 68); fill-opacity: 1; white-space: pre;">Jan 2021</text></g><g class="xtick"><text text-anchor="middle" x="0" y="741" transform="translate(754.56,0)" style="font-family: 'Open Sans', verdana, arial, sans-serif; font-size: 12px; fill: rgb(68, 68, 68); fill-opacity: 1; white-space: pre;">Mar 2021</text></g><g class="xtick"><text text-anchor="middle" x="0" y="741" transform="translate(869.69,0)" style="font-family: 'Open Sans', verdana, arial, sans-serif; font-size: 12px; fill: rgb(68, 68, 68); fill-opacity: 1; white-space: pre;">May 2021</text></g></g><g class="yaxislayer-above"><g class="ytick"><text text-anchor="end" x="59" y="4.199999999999999" transform="translate(0,692.85)" style="font-family: 'Open Sans', verdana, arial, sans-serif; font-size: 12px; fill: rgb(68, 68, 68); fill-opacity: 1; white-space: pre;">0</text></g><g class="ytick"><text text-anchor="end" x="59" y="4.199999999999999" transform="translate(0,532.65)" style="font-family: 'Open Sans', verdana, arial, sans-serif; font-size: 12px; fill: rgb(68, 68, 68); fill-opacity: 1; white-space: pre;">0.05</text></g><g class="ytick"><text text-anchor="end" x="59" y="4.199999999999999" transform="translate(0,372.46)" style="font-family: 'Open Sans', verdana, arial, sans-serif; font-size: 12px; fill: rgb(68, 68, 68); fill-opacity: 1; white-space: pre;">0.1</text></g><g class="ytick"><text text-anchor="end" x="59" y="4.199999999999999" transform="translate(0,212.26)" style="font-family: 'Open Sans', verdana, arial, sans-serif; font-size: 12px; fill: rgb(68, 68, 68); fill-opacity: 1; white-space: pre;">0.15</text></g><g class="ytick"><text text-anchor="end" x="59" y="4.199999999999999" transform="translate(0,52.06)" style="font-family: 'Open Sans', verdana, arial, sans-serif; font-size: 12px; fill: rgb(68, 68, 68); fill-opacity: 1; white-space: pre;">0.2</text></g></g><g class="overaxes-above"/></g></g><g class="polarlayer"/><g class="ternarylayer"/><g class="geolayer"/><g class="funnelarealayer"/><g class="pielayer"/><g class="treemaplayer"/><g class="sunburstlayer"/><g class="glimages"/><defs id="topdefs-d6b5b0"><g class="clips"/><clipPath id="legendd6b5b0"><rect width="102" height="48" x="0" y="0"/></clipPath></defs><g class="layer-above"><g class="imagelayer"/><g class="shapelayer"/></g><g class="infolayer"><g class="legend" pointer-events="all" transform="translate(914.76, 25)"><rect class="bg" shape-rendering="crispEdges" style="stroke: rgb(68, 68, 68); stroke-opacity: 1; fill: rgb(255, 255, 255); fill-opacity: 1; stroke-width: 0px;" width="102" height="48" x="0" y="0"/><g class="scrollbox" transform="translate(0, 0)" clip-path="url('#legendd6b5b0')"><g class="groups"><g class="traces" style="opacity: 1;" transform="translate(0, 14.5)"><text class="legendtext" text-anchor="start" x="40" y="4.680000000000001" style="font-family: 'Open Sans', verdana, arial, sans-serif; font-size: 12px; fill: rgb(68, 68, 68); fill-opacity: 1; white-space: pre;">actuals</text><g class="layers" style="opacity: 1;"><g class="legendfill"/><g class="legendlines"><path class="js-line" d="M5,0h30" style="fill: none; stroke: rgb(31, 119, 180); stroke-opacity: 1; stroke-width: 2px;"/></g><g class="legendsymbols"><g class="legendpoints"/></g></g><rect class="legendtoggle" x="0" y="-9.5" width="96.21875" height="19" style="fill: rgb(0, 0, 0); fill-opacity: 0;"/></g><g class="traces" style="opacity: 1;" transform="translate(0, 33.5)"><text class="legendtext" text-anchor="start" x="40" y="4.680000000000001" style="font-family: 'Open Sans', verdana, arial, sans-serif; font-size: 12px; fill: rgb(68, 68, 68); fill-opacity: 1; white-space: pre;">forecasts</text><g class="layers" style="opacity: 1;"><g class="legendfill"/><g class="legendlines"><path class="js-line" d="M5,0h30" style="fill: none; stroke: rgb(255, 127, 14); stroke-opacity: 1; stroke-width: 2px;"/></g><g class="legendsymbols"><g class="legendpoints"/></g></g><rect class="legendtoggle" x="0" y="-9.5" width="96.21875" height="19" style="fill: rgb(0, 0, 0); fill-opacity: 0;"/></g></g></g><rect class="scrollbar" rx="20" ry="3" width="0" height="0" style="fill: rgb(128, 139, 164); fill-opacity: 1;" x="0" y="0"/></g><g class="g-gtitle"><text class="gtitle" x="513.5" y="12.5" text-anchor="middle" dy="0em" style="font-family: 'Open Sans', verdana, arial, sans-serif; font-size: 17px; fill: rgb(68, 68, 68); opacity: 1; font-weight: normal; white-space: pre;">Positive cases as proportion of tested per day as of May 10, 2021. Including a 7-day forecast of positivity rate.</text></g><g class="g-xtitle" transform="translate(0,-15)"><text class="xtitle" x="479" y="780" text-anchor="middle" style="font-family: 'Open Sans', verdana, arial, sans-serif; font-size: 14px; fill: rgb(68, 68, 68); opacity: 1; font-weight: normal; white-space: pre;">Date</text></g><g class="g-ytitle"><text class="ytitle" transform="rotate(-90,22,376.5)" x="22" y="376.5" text-anchor="middle" style="font-family: 'Open Sans', verdana, arial, sans-serif; font-size: 14px; fill: rgb(68, 68, 68); opacity: 1; font-weight: normal; white-space: pre;">ratio of positive to tested</text></g></g></svg>