<svg class="main-svg" xmlns="http://www.w3.org/2000/svg" xmlns:xlink="http://www.w3.org/1999/xlink" width="1027" height="768" style="" viewBox="0 0 1027 768"><rect x="0" y="0" width="1027" height="768" style="fill: rgb(255, 255, 255); fill-opacity: 1;"/><defs id="defs-ba84a6"><g class="clips"><clipPath id="clipba84a6xyplot" class="plotclip"><rect width="838" height="703"/></clipPath><clipPath class="axesclip" id="clipba84a6x"><rect x="60" y="0" width="838" height="768"/></clipPath><clipPath class="axesclip" id="clipba84a6y"><rect x="0" y="25" width="1027" height="703"/></clipPath><clipPath class="axesclip" id="clipba84a6xy"><rect x="60" y="25" width="838" height="703"/></clipPath></g><g class="gradients"/></defs><g class="bglayer"/><g class="layer-below"><g class="imagelayer"/><g class="shapelayer"/></g><g class="cartesianlayer"><g class="subplot xy"><g class="layer-subplot"><g class="shapelayer"/><g class="imagelayer"/></g><g class="gridlayer"><g class="x"><path class="xgrid crisp" transform="translate(65.93,0)" d="M0,25v703" style="stroke: rgb(238, 238, 238); stroke-opacity: 1; stroke-width: 1px;"/><path class="xgrid crisp" transform="translate(186.49,0)" d="M0,25v703" style="stroke: rgb(238, 238, 238); stroke-opacity: 1; stroke-width: 1px;"/><path class="xgrid crisp" transform="translate(307.05,0)" d="M0,25v703" style="stroke: rgb(238, 238, 238); stroke-opacity: 1; stroke-width: 1px;"/><path class="xgrid crisp" transform="translate(429.59,0)" d="M0,25v703" style="stroke: rgb(238, 238, 238); stroke-opacity: 1; stroke-width: 1px;"/><path class="xgrid crisp" transform="translate(550.15,0)" d="M0,25v703" style="stroke: rgb(238, 238, 238); stroke-opacity: 1; stroke-width: 1px;"/><path class="xgrid crisp" transform="translate(670.71,0)" d="M0,25v703" style="stroke: rgb(238, 238, 238); stroke-opacity: 1; stroke-width: 1px;"/><path class="xgrid crisp" transform="translate(787.32,0)" d="M0,25v703" style="stroke: rgb(238, 238, 238); stroke-opacity: 1; stroke-width: 1px;"/></g><g class="y"><path class="ygrid crisp" transform="translate(0,532.65)" d="M60,0h838" style="stroke: rgb(238, 238, 238); stroke-opacity: 1; stroke-width: 1px;"/><path class="ygrid crisp" transform="translate(0,372.46)" d="M60,0h838" style="stroke: rgb(238, 238, 238); stroke-opacity: 1; stroke-width: 1px;"/><path class="ygrid crisp" transform="translate(0,212.26)" d="M60,0h838" style="stroke: rgb(238, 238, 238); stroke-opacity: 1; stroke-width: 1px;"/><path class="ygrid crisp" transform="translate(0,52.06)" d="M60,0h838" style="stroke: rgb(238, 238, 238); stroke-opacity: 1; stroke-width: 1px;"/></g></g><g class="zerolinelayer"><path class="yzl zl crisp" transform="translate(0,692.85)" d="M60,0h838" style="stroke: rgb(68, 68, 68); stroke-opacity: 1; stroke-width: 1px;"/></g><path class="xlines-below"/><path class="ylines-below"/><g class="overlines-below"/><g class="xaxislayer-below"/><g class="yaxislayer-below"/><g class="overaxes-below"/><g class="plot" transform="translate(60, 25)" clip-path="url('#clipba84a6xyplot')"><g class="scatterlayer mlayer"><g class="trace scatter tracec8b31c" style="stroke-miterlimit: 2; opacity: 1;"><g class="fills"/><g class="errorbars"/><g class="lines"><path class="js-line" d="M0,622.08L1.98,621.42L7.91,505.63L9.88,614.89L11.86,667.85L13.83,653.8L15.81,602.8L17.79,638.59L21.74,614.7L23.72,667.85L25.69,638.18L27.67,598.9L29.65,599.97L31.62,617.23L33.6,593.79L35.58,608L37.55,632.36L39.53,638.47L41.5,617.81L43.48,600.66L45.46,620.7L47.43,621.42L49.41,549.58L51.39,600.54L53.36,572.07L55.34,483.2L57.32,497.46L59.29,432.27L61.27,317.67L63.25,404.9L65.22,449.29L67.2,403.44L69.17,299.64L71.15,405.8L73.13,315.31L75.1,403.85L77.08,194.99L79.06,123.47L81.03,290.13L83.01,282.57L84.99,306.88L86.96,480.13L88.94,401.54L90.92,348.91L92.89,404.5L94.87,484.89L96.84,464.79L98.82,35.15L100.8,558.54L102.77,445.78L104.75,478.64L106.73,510.14L108.7,468.98L112.66,523.68L114.63,551.37L116.61,559.61L118.58,512.85L120.56,571.63L122.54,554.1L124.51,586.26L126.49,567.44L128.47,586.75L130.44,586.4L132.42,551.47L134.4,566L136.37,583.63L138.35,574.06L140.33,610.19L142.3,614.38L144.28,597.21L146.25,571.12L148.23,598.21L150.21,604.43L152.18,608.32L154.16,597.34L156.14,600.68L158.11,561.46L160.09,432.5L162.07,498.58L164.04,541.9L166.02,542.55L168,548.15L169.97,538.38L171.95,509.42L173.92,574.73L175.9,606.03L177.88,598.19L181.83,617.71L183.81,606.46L185.78,577.83L187.76,574.11L189.74,606.1L191.71,613.07L193.69,619.36L195.67,604.76L197.64,599.22L199.62,617.15L201.59,613.3L203.57,627.52L205.55,641.13L207.52,647.27L209.5,636.81L211.48,640.74L213.45,641.19L215.43,640.71L217.41,642.7L219.38,645.92L221.36,646.9L223.33,643.75L227.29,644.3L229.26,625.1L231.24,645.35L233.22,645.84L235.19,656.3L237.17,652.54L239.15,647.93L241.12,637.5L243.1,646.68L245.08,649.53L249.03,646L251,649.76L252.98,649.27L254.96,639.33L256.93,644.1L258.91,651.29L260.89,647.16L262.86,654.33L264.84,653.74L266.82,651.78L268.79,650.06L270.77,646.61L272.75,654.1L274.72,654.43L276.7,656.44L278.67,649.41L282.63,647.17L284.6,639.54L286.58,645.81L288.56,655.16L290.53,646.16L292.51,653.06L294.49,651.06L296.46,652.39L298.44,647.33L300.42,658.93L302.39,657.55L304.37,653.55L306.34,655.91L308.32,655.64L310.3,655.6L312.27,652.64L314.25,651.86L316.23,656.22L318.2,656.63L320.18,659.23L322.16,658.74L324.13,651.31L326.11,662.95L328.08,655.46L330.06,659.41L332.04,658.07L334.01,656.69L335.99,656.95L337.97,655.44L339.94,650.49L343.9,658.45L345.87,652.9L347.85,655.77L349.83,652.09L351.8,649.95L353.78,651.84L355.75,655.01L357.73,654.64L359.71,655.57L361.68,653.08L365.64,653.3L367.61,652.61L369.59,650.1L371.57,651.77L373.54,651.26L375.52,648.97L377.5,650.37L379.47,642.19L381.45,639.53L383.42,640.73L385.4,645.77L387.38,646.85L391.33,646.86L393.31,633.9L395.28,638.78L397.26,632.76L399.24,641.13L401.21,631.99L403.19,634.36L405.17,638.71L407.14,624.97L409.12,623.07L411.09,637.56L413.07,625.07L415.05,636.55L417.02,635.62L419,630.84L420.98,613.3L422.95,621.6L424.93,611.84L426.91,624.37L428.88,609.35L430.86,622.62L432.83,622.13L434.81,616.26L436.79,626.08L438.76,624.69L440.74,615.19L442.72,600.87L444.69,609.34L446.67,620.74L448.65,596.96L450.62,591.32L452.6,596.12L454.58,605.07L456.55,608.61L458.53,610.18L460.5,616.24L462.48,597.06L464.46,558.47L466.43,590.32L468.41,598.51L470.39,601.72L472.36,596.88L474.34,581.74L476.32,572.69L478.29,557.19L480.27,578.81L482.25,583.84L484.22,597.85L488.17,583.55L490.15,559.02L492.13,534.77L494.1,557.15L496.08,578.42L498.06,589.98L500.03,575.25L502.01,554.62L503.99,527.74L505.96,515.16L507.94,543.38L509.92,540.29L511.89,557.44L513.87,554.88L515.84,573.11L517.82,525L519.8,516.66L521.77,532.08L523.75,575.19L525.73,573.54L527.7,558.83L529.68,561.9L531.66,531.98L533.63,548.35L535.61,545.91L537.58,568.32L541.54,561.88L543.51,566.43L545.49,525.89L547.47,509.97L549.44,543.03L551.42,557.32L553.4,566.01L555.37,567.58L557.35,563.81L559.33,531.65L561.3,530.86L563.28,543.11L565.25,565.06L567.23,573.94L569.21,575.9L571.18,575.51L573.16,558.98L575.14,483.63L577.11,528.53L579.09,533.92L581.07,560.34L583.04,555.49L585.02,560.95L587,543.05L588.97,511.99L590.95,531.69L592.92,546.47L594.9,555.31L596.88,529.24L598.85,514.11L600.83,510.83L602.81,428.06L604.78,429L606.76,500.87L608.74,553.82L610.71,492.37L612.69,480.92L614.67,400.04L616.64,382.75L618.62,462.85L620.59,496.43L622.57,477.4L624.55,516.53L626.52,464.99L628.5,437.37L630.48,460.25L632.45,481.58L634.43,518.12L636.41,542.24L638.38,535.31L640.36,485.67L642.33,462.9L648.26,547.82L650.24,548.98L652.22,548.74L654.19,509.64L656.17,493.44L658.15,486.36L660.12,570.9L662.1,564.15L664.08,582.6L666.05,556.94L668.03,547.88L670,460.05L671.98,584.25L673.96,596.21L677.91,582.53L679.89,596.52L681.86,575.5L683.84,524.65L687.79,602.43L689.77,623.85L693.72,596.97L695.7,603.31L697.67,566.1L699.65,560.6L703.6,608.64L705.58,611.49L707.56,599.06L709.53,595.56L711.51,559.07L713.49,547.61L715.46,606.29L717.44,612.9L719.42,604.92L721.39,603.95L723.37,598.67L725.34,574.24L727.32,567.25L729.3,609.51L731.27,619.33L733.25,606L735.23,613L737.2,578.51L739.18,530.56L741.16,553.71L743.13,589.98L745.11,610.13L749.06,587.36L751.04,550.3L754.99,547.22L756.97,569.5L758.94,582.88L760.92,568.25L762.9,555.34L764.87,551.3L766.85,492.76L768.83,515.7L770.8,570.98L772.78,540.92L774.75,537.8L776.73,539.02L778.71,511.69L780.68,497.87L782.66,460.36L784.64,525.56L786.61,536.33L788.59,509.07L790.57,504.77L792.54,457.78L794.52,410.4L796.5,406.27L800.45,502.5L802.42,447.31L804.4,469.01L806.38,414.62L808.35,373.65L810.33,389L812.31,422.22L814.28,436.4L820.21,414.64L822.19,335.52L824.17,394.07" style="vector-effect: non-scaling-stroke; fill: none; stroke: rgb(31, 119, 180); stroke-opacity: 1; stroke-width: 2px; opacity: 1;"/></g><g class="points"/><g class="text"/></g><g class="trace scatter tracec39e78" style="stroke-miterlimit: 2; opacity: 1;"><g class="fills"/><g class="errorbars"/><g class="lines"><path class="js-line" d="M824.17,394.07L826.14,411.16L828.12,439.4L830.09,430.02L832.07,426.15L834.05,383.8L836.02,375.22L838,389.75" style="vector-effect: non-scaling-stroke; fill: none; stroke: rgb(255, 127, 14); stroke-opacity: 1; stroke-width: 2px; opacity: 1;"/></g><g class="points"/><g class="text"/></g></g></g><g class="overplot"/><path class="xlines-above crisp" style="fill: none;" d="M0,0"/><path class="ylines-above crisp" style="fill: none;" d="M0,0"/><g class="overlines-above"/><g class="xaxislayer-above"><g class="xtick"><text text-anchor="middle" x="0" y="741" transform="translate(65.93,0)" style="font-family: 'Open Sans', verdana, arial, sans-serif; font-size: 12px; fill: rgb(68, 68, 68); fill-opacity: 1; white-space: pre;">Mar 2020</text></g><g class="xtick"><text text-anchor="middle" x="0" y="741" transform="translate(186.49,0)" style="font-family: 'Open Sans', verdana, arial, sans-serif; font-size: 12px; fill: rgb(68, 68, 68); fill-opacity: 1; white-space: pre;">May 2020</text></g><g class="xtick"><text text-anchor="middle" x="0" y="741" transform="translate(307.05,0)" style="font-family: 'Open Sans', verdana, arial, sans-serif; font-size: 12px; fill: rgb(68, 68, 68); fill-opacity: 1; white-space: pre;">Jul 2020</text></g><g class="xtick"><text text-anchor="middle" x="0" y="741" transform="translate(429.59,0)" style="font-family: 'Open Sans', verdana, arial, sans-serif; font-size: 12px; fill: rgb(68, 68, 68); fill-opacity: 1; white-space: pre;">Sep 2020</text></g><g class="xtick"><text text-anchor="middle" x="0" y="741" transform="translate(550.15,0)" style="font-family: 'Open Sans', verdana, arial, sans-serif; font-size: 12px; fill: rgb(68, 68, 68); fill-opacity: 1; white-space: pre;">Nov 2020</text></g><g class="xtick"><text text-anchor="middle" x="0" y="741" transform="translate(670.71,0)" style="font-family: 'Open Sans', verdana, arial, sans-serif; font-size: 12px; fill: rgb(68, 68, 68); fill-opacity: 1; white-space: pre;">Jan 2021</text></g><g class="xtick"><text text-anchor="middle" x="0" y="741" transform="translate(787.32,0)" style="font-family: 'Open Sans', verdana, arial, sans-serif; font-size: 12px; fill: rgb(68, 68, 68); fill-opacity: 1; white-space: pre;">Mar 2021</text></g></g><g class="yaxislayer-above"><g class="ytick"><text text-anchor="end" x="59" y="4.199999999999999" transform="translate(0,692.85)" style="font-family: 'Open Sans', verdana, arial, sans-serif; font-size: 12px; fill: rgb(68, 68, 68); fill-opacity: 1; white-space: pre;">0</text></g><g class="ytick"><text text-anchor="end" x="59" y="4.199999999999999" transform="translate(0,532.65)" style="font-family: 'Open Sans', verdana, arial, sans-serif; font-size: 12px; fill: rgb(68, 68, 68); fill-opacity: 1; white-space: pre;">0.05</text></g><g class="ytick"><text text-anchor="end" x="59" y="4.199999999999999" transform="translate(0,372.46)" style="font-family: 'Open Sans', verdana, arial, sans-serif; font-size: 12px; fill: rgb(68, 68, 68); fill-opacity: 1; white-space: pre;">0.1</text></g><g class="ytick"><text text-anchor="end" x="59" y="4.199999999999999" transform="translate(0,212.26)" style="font-family: 'Open Sans', verdana, arial, sans-serif; font-size: 12px; fill: rgb(68, 68, 68); fill-opacity: 1; white-space: pre;">0.15</text></g><g class="ytick"><text text-anchor="end" x="59" y="4.199999999999999" transform="translate(0,52.06)" style="font-family: 'Open Sans', verdana, arial, sans-serif; font-size: 12px; fill: rgb(68, 68, 68); fill-opacity: 1; white-space: pre;">0.2</text></g></g><g class="overaxes-above"/></g></g><g class="polarlayer"/><g class="ternarylayer"/><g class="geolayer"/><g class="funnelarealayer"/><g class="pielayer"/><g class="treemaplayer"/><g class="sunburstlayer"/><g class="glimages"/><defs id="topdefs-ba84a6"><g class="clips"/><clipPath id="legendba84a6"><rect width="102" height="48" x="0" y="0"/></clipPath></defs><g class="layer-above"><g class="imagelayer"/><g class="shapelayer"/></g><g class="infolayer"><g class="legend" pointer-events="all" transform="translate(914.76, 25)"><rect class="bg" shape-rendering="crispEdges" style="stroke: rgb(68, 68, 68); stroke-opacity: 1; fill: rgb(255, 255, 255); fill-opacity: 1; stroke-width: 0px;" width="102" height="48" x="0" y="0"/><g class="scrollbox" transform="translate(0, 0)" clip-path="url('#legendba84a6')"><g class="groups"><g class="traces" style="opacity: 1;" transform="translate(0, 14.5)"><text class="legendtext" text-anchor="start" x="40" y="4.680000000000001" style="font-family: 'Open Sans', verdana, arial, sans-serif; font-size: 12px; fill: rgb(68, 68, 68); fill-opacity: 1; white-space: pre;">actuals</text><g class="layers" style="opacity: 1;"><g class="legendfill"/><g class="legendlines"><path class="js-line" d="M5,0h30" style="fill: none; stroke: rgb(31, 119, 180); stroke-opacity: 1; stroke-width: 2px;"/></g><g class="legendsymbols"><g class="legendpoints"/></g></g><rect class="legendtoggle" x="0" y="-9.5" width="96.21875" height="19" style="fill: rgb(0, 0, 0); fill-opacity: 0;"/></g><g class="traces" style="opacity: 1;" transform="translate(0, 33.5)"><text class="legendtext" text-anchor="start" x="40" y="4.680000000000001" style="font-family: 'Open Sans', verdana, arial, sans-serif; font-size: 12px; fill: rgb(68, 68, 68); fill-opacity: 1; white-space: pre;">forecasts</text><g class="layers" style="opacity: 1;"><g class="legendfill"/><g class="legendlines"><path class="js-line" d="M5,0h30" style="fill: none; stroke: rgb(255, 127, 14); stroke-opacity: 1; stroke-width: 2px;"/></g><g class="legendsymbols"><g class="legendpoints"/></g></g><rect class="legendtoggle" x="0" y="-9.5" width="96.21875" height="19" style="fill: rgb(0, 0, 0); fill-opacity: 0;"/></g></g></g><rect class="scrollbar" rx="20" ry="3" width="0" height="0" style="fill: rgb(128, 139, 164); fill-opacity: 1;" x="0" y="0"/></g><g class="g-gtitle"><text class="gtitle" x="513.5" y="12.5" text-anchor="middle" dy="0em" style="font-family: 'Open Sans', verdana, arial, sans-serif; font-size: 17px; fill: rgb(68, 68, 68); opacity: 1; font-weight: normal; white-space: pre;">Positive cases as proportion of tested per day as of Apr 20, 2021. Including a 7-day forecast of positivity rate.</text></g><g class="g-xtitle" transform="translate(0,-15)"><text class="xtitle" x="479" y="780" text-anchor="middle" style="font-family: 'Open Sans', verdana, arial, sans-serif; font-size: 14px; fill: rgb(68, 68, 68); opacity: 1; font-weight: normal; white-space: pre;">Date</text></g><g class="g-ytitle"><text class="ytitle" transform="rotate(-90,22,376.5)" x="22" y="376.5" text-anchor="middle" style="font-family: 'Open Sans', verdana, arial, sans-serif; font-size: 14px; fill: rgb(68, 68, 68); opacity: 1; font-weight: normal; white-space: pre;">ratio of positive to tested</text></g></g></svg>