<svg class="main-svg" xmlns="http://www.w3.org/2000/svg" xmlns:xlink="http://www.w3.org/1999/xlink" width="1027" height="768" style="" viewBox="0 0 1027 768"><rect x="0" y="0" width="1027" height="768" style="fill: rgb(255, 255, 255); fill-opacity: 1;"/><defs id="defs-9c3a24"><g class="clips"><clipPath id="clip9c3a24xyplot" class="plotclip"><rect width="838" height="703"/></clipPath><clipPath class="axesclip" id="clip9c3a24x"><rect x="60" y="0" width="838" height="768"/></clipPath><clipPath class="axesclip" id="clip9c3a24y"><rect x="0" y="25" width="1027" height="703"/></clipPath><clipPath class="axesclip" id="clip9c3a24xy"><rect x="60" y="25" width="838" height="703"/></clipPath></g><g class="gradients"/></defs><g class="bglayer"/><g class="layer-below"><g class="imagelayer"/><g class="shapelayer"/></g><g class="cartesianlayer"><g class="subplot xy"><g class="layer-subplot"><g class="shapelayer"/><g class="imagelayer"/></g><g class="gridlayer"><g class="x"><path class="xgrid crisp" transform="translate(64.26,0)" d="M0,25v703" style="stroke: rgb(238, 238, 238); stroke-opacity: 1; stroke-width: 1px;"/><path class="xgrid crisp" transform="translate(150.9,0)" d="M0,25v703" style="stroke: rgb(238, 238, 238); stroke-opacity: 1; stroke-width: 1px;"/><path class="xgrid crisp" transform="translate(237.54,0)" d="M0,25v703" style="stroke: rgb(238, 238, 238); stroke-opacity: 1; stroke-width: 1px;"/><path class="xgrid crisp" transform="translate(325.6,0)" d="M0,25v703" style="stroke: rgb(238, 238, 238); stroke-opacity: 1; stroke-width: 1px;"/><path class="xgrid crisp" transform="translate(412.24,0)" d="M0,25v703" style="stroke: rgb(238, 238, 238); stroke-opacity: 1; stroke-width: 1px;"/><path class="xgrid crisp" transform="translate(498.88,0)" d="M0,25v703" style="stroke: rgb(238, 238, 238); stroke-opacity: 1; stroke-width: 1px;"/><path class="xgrid crisp" transform="translate(582.68,0)" d="M0,25v703" style="stroke: rgb(238, 238, 238); stroke-opacity: 1; stroke-width: 1px;"/><path class="xgrid crisp" transform="translate(669.33,0)" d="M0,25v703" style="stroke: rgb(238, 238, 238); stroke-opacity: 1; stroke-width: 1px;"/><path class="xgrid crisp" transform="translate(755.97,0)" d="M0,25v703" style="stroke: rgb(238, 238, 238); stroke-opacity: 1; stroke-width: 1px;"/><path class="xgrid crisp" transform="translate(844.03,0)" d="M0,25v703" style="stroke: rgb(238, 238, 238); stroke-opacity: 1; stroke-width: 1px;"/></g><g class="y"><path class="ygrid crisp" transform="translate(0,618.38)" d="M60,0h838" style="stroke: rgb(238, 238, 238); stroke-opacity: 1; stroke-width: 1px;"/><path class="ygrid crisp" transform="translate(0,543.9)" d="M60,0h838" style="stroke: rgb(238, 238, 238); stroke-opacity: 1; stroke-width: 1px;"/><path class="ygrid crisp" transform="translate(0,469.43)" d="M60,0h838" style="stroke: rgb(238, 238, 238); stroke-opacity: 1; stroke-width: 1px;"/><path class="ygrid crisp" transform="translate(0,394.95)" d="M60,0h838" style="stroke: rgb(238, 238, 238); stroke-opacity: 1; stroke-width: 1px;"/><path class="ygrid crisp" transform="translate(0,320.48)" d="M60,0h838" style="stroke: rgb(238, 238, 238); stroke-opacity: 1; stroke-width: 1px;"/><path class="ygrid crisp" transform="translate(0,246)" d="M60,0h838" style="stroke: rgb(238, 238, 238); stroke-opacity: 1; stroke-width: 1px;"/><path class="ygrid crisp" transform="translate(0,171.53)" d="M60,0h838" style="stroke: rgb(238, 238, 238); stroke-opacity: 1; stroke-width: 1px;"/><path class="ygrid crisp" transform="translate(0,97.05)" d="M60,0h838" style="stroke: rgb(238, 238, 238); stroke-opacity: 1; stroke-width: 1px;"/></g></g><g class="zerolinelayer"><path class="yzl zl crisp" transform="translate(0,692.85)" d="M60,0h838" style="stroke: rgb(68, 68, 68); stroke-opacity: 1; stroke-width: 1px;"/></g><path class="xlines-below"/><path class="ylines-below"/><g class="overlines-below"/><g class="xaxislayer-below"/><g class="yaxislayer-below"/><g class="overaxes-below"/><g class="plot" transform="translate(60, 25)" clip-path="url('#clip9c3a24xyplot')"><g class="scatterlayer mlayer"><g class="trace scatter trace505f63" style="stroke-miterlimit: 2; opacity: 1;"><g class="fills"/><g class="errorbars"/><g class="lines"><path class="js-line" d="M0,614.65L1.42,613.88L5.68,479.31L8.52,667.85L2.84,633.21L4.26,479.31L9.94,628.55L11.36,633.84L12.78,648.85L14.2,568.99L15.62,656.99L17.04,633.37L18.46,587.72L19.88,588.96L21.31,609.02L22.73,581.78L24.15,598.29L25.57,622.85L26.99,633.7L29.83,589.76L31.25,611.12L32.67,608.98L34.09,528.61L35.51,587.74L36.93,550.68L38.35,450.69L39.77,465.31L41.19,392.22L42.61,376.2L44.03,182.87L45.45,362.24L46.87,413.84L48.29,360.54L49.71,239.9L51.13,363.29L52.55,258.12L53.97,361.01L55.39,118.28L56.81,35.15L58.23,228.86L59.65,220.07L61.07,248.32L62.49,449.67L65.34,297.17L66.76,361.77L68.18,455.21L69.6,431.85L71.02,476.98L72.44,448.51L73.86,409.75L75.28,447.94L76.7,484.56L78.12,436.71L82.38,532.47L83.8,542.04L85.22,487.7L86.64,556.02L88.06,535.64L89.48,573.02L90.9,551.15L92.32,573.59L93.74,573.19L95.16,532.59L98,569.97L99.42,558.85L100.84,600.84L102.26,605.71L105.11,555.43L106.53,586.92L109.37,598.67L110.79,585.91L112.21,589.78L113.63,544.2L115.05,394.32L116.47,471.12L117.89,521.47L119.31,522.22L120.73,528.73L122.15,517.37L123.57,483.71L124.99,559.63L126.41,596L127.83,586.89L130.67,609.58L132.09,596.5L133.51,563.23L134.93,558.9L136.35,596.08L137.77,604.18L139.19,611.49L140.61,594.52L142.03,588.09L143.45,608.93L144.87,604.45L146.29,620.98L147.72,636.79L149.14,643.93L150.56,631.77L151.98,636.34L153.4,636.86L154.82,636.31L156.24,638.62L157.66,642.37L159.08,643.5L160.5,639.84L163.34,640.47L164.76,618.17L166.18,641.7L167.6,642.27L169.02,654.42L170.44,650.06L171.86,644.7L173.28,632.57L174.7,643.24L176.12,646.56L178.96,642.45L180.38,646.82L181.8,646.25L183.22,634.71L186.06,648.61L187.48,643.8L188.91,652.13L190.33,651.45L193.17,647.18L194.59,643.16L196.01,651.87L197.43,652.25L198.85,654.59L200.27,646.42L203.11,643.81L204.53,634.95L207.37,653.1L208.79,642.65L210.21,650.67L211.63,648.34L213.05,649.88L214.47,644L215.89,657.49L217.31,655.88L218.73,651.24L220.15,653.98L222.99,653.62L224.41,650.17L225.83,649.26L227.25,654.34L228.67,654.81L230.09,657.83L231.52,657.26L232.94,648.63L234.36,662.16L235.78,653.45L237.2,658.05L238.62,656.48L240.04,654.88L241.46,655.18L242.88,653.43L244.3,647.67L247.14,656.93L248.56,650.47L249.98,653.82L251.4,649.54L252.82,647.04L254.24,649.24L255.66,652.93L257.08,652.5L258.5,653.57L259.92,650.68L262.76,650.94L264.18,650.14L265.6,647.22L267.02,649.16L268.44,648.57L269.86,645.9L271.28,647.53L272.71,638.03L274.13,634.93L275.55,636.33L276.97,642.19L278.39,643.45L281.23,643.46L282.65,628.39L284.07,634.06L285.49,627.07L286.91,636.8L288.33,626.17L289.75,628.93L291.17,633.98L292.59,618.01L294.01,615.81L295.43,632.65L296.85,618.13L298.27,631.47L299.69,630.39L301.11,624.84L302.53,604.45L303.95,614.09L305.37,602.76L306.79,617.32L308.21,599.86L309.63,615.28L311.05,614.71L312.47,607.89L313.89,619.3L315.32,617.69L316.74,606.64L318.16,590L319.58,599.84L321,613.1L322.42,585.46L323.84,578.91L325.26,584.49L326.68,594.89L328.1,599L329.52,600.82L330.94,607.87L332.36,585.58L333.78,540.73L335.2,577.74L336.62,587.26L338.04,590.99L339.46,585.36L343.72,539.24L345.14,564.36L346.56,570.21L347.98,586.49L350.82,569.88L352.24,541.36L353.66,513.18L355.08,539.19L357.93,577.35L359.35,560.22L363.61,490.39L365.03,523.19L366.45,519.59L367.87,539.52L369.29,536.55L370.71,557.74L372.13,501.82L373.55,492.13L374.97,510.06L376.39,560.16L377.81,558.24L379.23,541.15L380.65,544.71L382.07,509.94L383.49,528.97L384.91,526.13L386.33,552.17L387.75,548.83L389.17,544.69L390.59,549.98L392.01,502.86L393.43,484.35L394.85,522.78L396.27,539.39L397.69,549.49L399.12,551.31L400.54,546.93L401.96,509.55L403.38,508.63L404.8,522.88L406.22,548.38L407.64,558.71L409.06,560.98L410.48,560.53L411.9,541.31L413.32,453.74L414.74,505.92L416.16,512.19L417.58,542.9L419,537.26L420.42,543.6L421.84,522.81L423.26,486.7L424.68,509.59L427.52,537.05L428.94,506.75L430.36,489.16L431.78,485.36L433.2,389.16L434.62,390.26L437.46,535.32L438.88,463.9L440.31,450.6L441.73,356.6L443.15,336.49L444.57,429.6L445.99,468.62L447.41,446.5L448.83,491.98L450.25,432.08L451.67,399.98L453.09,426.57L454.51,451.36L455.93,493.83L457.35,521.87L458.77,513.81L460.19,456.12L461.61,429.65L465.87,528.35L467.29,529.7L468.71,529.41L470.13,483.97L471.55,465.14L472.97,456.92L474.39,555.18L475.81,547.32L477.23,568.77L478.65,538.94L480.07,528.41L481.49,426.34L482.92,570.69L484.34,584.59L487.18,568.69L488.6,584.94L490.02,560.52L491.44,501.42L495.7,616.71L497.12,603.24L498.54,585.47L499.96,592.84L501.38,549.59L502.8,543.2L505.64,599.03L507.06,602.34L508.48,587.9L509.9,583.83L511.32,541.43L512.74,528.1L514.16,596.3L515.58,603.98L517,594.71L518.42,593.58L519.84,587.45L521.26,559.06L522.68,550.94L524.11,600.05L525.53,611.46L526.95,595.96L528.37,604.1L529.79,564.02L531.21,508.29L532.63,535.2L535.47,600.77L536.89,588.84L538.31,574.3L539.73,531.23L542.57,527.65L543.99,553.55L545.41,569.1L546.83,552.09L548.25,537.08L549.67,532.39L551.09,464.35L552.51,491.02L553.93,555.27L555.35,520.33L556.77,516.7L558.19,518.12L562.45,426.7L563.87,502.48L565.29,514.99L566.72,483.32L568.14,478.32L569.56,423.7L570.98,368.63L572.4,363.83L575.24,475.67L576.66,411.54L578.08,436.75L579.5,373.53L580.92,325.93L582.34,343.76L583.76,382.38L585.18,398.85L589.44,373.56L590.86,281.61L592.28,349.65L593.7,365.51L595.12,415.1L596.54,369.39L597.96,375.58L599.38,353.09L600.8,281.41L602.22,310.26L603.64,409.68L605.06,414.69L606.48,395.13L607.91,399.81L609.33,361.08L610.75,282.22L613.59,428.56L615.01,432.25L617.85,444.82L619.27,357.12L620.69,295.68L622.11,393.23L623.53,478.73L624.95,452.19L626.37,468.14L627.79,440.48L629.21,420.78L630.63,338.01L632.05,405.25L633.47,513.95L634.89,471.03L636.31,478.28L637.73,474.64L639.15,466.2L640.57,400.64L641.99,438.33L644.83,555.76L646.25,551.85L647.67,550.56L649.09,523.05L650.52,480.7L651.94,539.39L653.36,581.93L654.78,573.34L656.2,562.34L657.62,568.26L659.04,558.78L660.46,539.04L661.88,568.5L663.3,617.6L664.72,597.95L666.14,594.02L667.56,590.28L668.98,572.65L670.4,545.35L671.82,603.63L673.24,616.92L674.66,622.61L677.5,615.74L678.92,611.63L680.34,595.14L681.76,602.18L683.18,633.15L684.6,630.5L686.02,631.96L687.44,617.57L688.86,610.16L690.28,608.02L693.13,642.71L694.55,628.58L695.97,638.25L697.39,622.28L698.81,626.08L700.23,618.96L701.65,610.37L703.07,641.07L704.49,637.61L705.91,641.74L707.33,639.72L708.75,636.39L710.17,641.21L711.59,636.76L713.01,648.26L714.43,650.85L715.85,646.8L717.27,637.21L718.69,623.33L720.11,626L722.95,643.62L724.37,632.7L725.79,631.66L727.21,634.76L728.63,621.78L730.05,630.71L731.47,632.64L732.89,639.19L734.32,626.06L735.74,627.76L738.58,610.37L740,614.19L741.42,614.82L742.84,637.61L744.26,634.09L745.68,613.86L747.1,600.37L748.52,562.58L749.94,591.28L751.36,595.31L752.78,619.15L754.2,584.42L755.62,587.33L757.04,576.14L758.46,568.7L759.88,543.76L761.3,593.41L762.72,599.2L765.56,583.32L766.98,569.53L768.4,551.34L769.82,548.07L772.66,574.78L774.08,577.08L775.51,571.11L776.93,558.86L778.35,547.47L779.77,528.62L781.19,568.33L782.61,579.25L784.03,549.83L785.45,563.46L786.87,533.98L788.29,533.09L789.71,555.17L791.13,545.16L792.55,573.39L793.97,567.74L796.81,546.36L798.23,544.28L799.65,551.03L801.07,566.18L802.49,601.38L803.91,574.23L805.33,580.17L806.75,568.32L808.17,578.82L809.59,572.67L811.01,577.4L812.43,623.75L813.85,600.86L815.27,594.4L816.69,596.29L818.12,589.57L819.54,567L820.96,594.89L822.38,617.22L823.8,605.74L825.22,598.61L826.64,579.02L828.06,600.82" style="vector-effect: non-scaling-stroke; fill: none; stroke: rgb(31, 119, 180); stroke-opacity: 1; stroke-width: 2px; opacity: 1;"/></g><g class="points"/><g class="text"/></g><g class="trace scatter trace4340ff" style="stroke-miterlimit: 2; opacity: 1;"><g class="fills"/><g class="errorbars"/><g class="lines"><path class="js-line" d="M828.06,600.82L829.48,589.22L830.9,602.64L832.32,605.59L833.74,613.52L835.16,593.45L836.58,592.87L838,587.48" style="vector-effect: non-scaling-stroke; fill: none; stroke: rgb(255, 127, 14); stroke-opacity: 1; stroke-width: 2px; opacity: 1;"/></g><g class="points"/><g class="text"/></g></g></g><g class="overplot"/><path class="xlines-above crisp" style="fill: none;" d="M0,0"/><path class="ylines-above crisp" style="fill: none;" d="M0,0"/><g class="overlines-above"/><g class="xaxislayer-above"><g class="xtick"><text text-anchor="middle" x="0" y="741" transform="translate(64.26,0)" style="font-family: 'Open Sans', verdana, arial, sans-serif; font-size: 12px; fill: rgb(68, 68, 68); fill-opacity: 1; white-space: pre;">Mar 2020</text></g><g class="xtick"><text text-anchor="middle" x="0" y="741" transform="translate(150.9,0)" style="font-family: 'Open Sans', verdana, arial, sans-serif; font-size: 12px; fill: rgb(68, 68, 68); fill-opacity: 1; white-space: pre;">May 2020</text></g><g class="xtick"><text text-anchor="middle" x="0" y="741" transform="translate(237.54,0)" style="font-family: 'Open Sans', verdana, arial, sans-serif; font-size: 12px; fill: rgb(68, 68, 68); fill-opacity: 1; white-space: pre;">Jul 2020</text></g><g class="xtick"><text text-anchor="middle" x="0" y="741" transform="translate(325.6,0)" style="font-family: 'Open Sans', verdana, arial, sans-serif; font-size: 12px; fill: rgb(68, 68, 68); fill-opacity: 1; white-space: pre;">Sep 2020</text></g><g class="xtick"><text text-anchor="middle" x="0" y="741" transform="translate(412.24,0)" style="font-family: 'Open Sans', verdana, arial, sans-serif; font-size: 12px; fill: rgb(68, 68, 68); fill-opacity: 1; white-space: pre;">Nov 2020</text></g><g class="xtick"><text text-anchor="middle" x="0" y="741" transform="translate(498.88,0)" style="font-family: 'Open Sans', verdana, arial, sans-serif; font-size: 12px; fill: rgb(68, 68, 68); fill-opacity: 1; white-space: pre;">Jan 2021</text></g><g class="xtick"><text text-anchor="middle" x="0" y="741" transform="translate(582.68,0)" style="font-family: 'Open Sans', verdana, arial, sans-serif; font-size: 12px; fill: rgb(68, 68, 68); fill-opacity: 1; white-space: pre;">Mar 2021</text></g><g class="xtick"><text text-anchor="middle" x="0" y="741" transform="translate(669.33,0)" style="font-family: 'Open Sans', verdana, arial, sans-serif; font-size: 12px; fill: rgb(68, 68, 68); fill-opacity: 1; white-space: pre;">May 2021</text></g><g class="xtick"><text text-anchor="middle" x="0" y="741" transform="translate(755.97,0)" style="font-family: 'Open Sans', verdana, arial, sans-serif; font-size: 12px; fill: rgb(68, 68, 68); fill-opacity: 1; white-space: pre;">Jul 2021</text></g><g class="xtick"><text text-anchor="middle" x="0" y="741" transform="translate(844.03,0)" style="font-family: 'Open Sans', verdana, arial, sans-serif; font-size: 12px; fill: rgb(68, 68, 68); fill-opacity: 1; white-space: pre;">Sep 2021</text></g></g><g class="yaxislayer-above"><g class="ytick"><text text-anchor="end" x="59" y="4.199999999999999" transform="translate(0,692.85)" style="font-family: 'Open Sans', verdana, arial, sans-serif; font-size: 12px; fill: rgb(68, 68, 68); fill-opacity: 1; white-space: pre;">0</text></g><g class="ytick"><text text-anchor="end" x="59" y="4.199999999999999" transform="translate(0,618.38)" style="font-family: 'Open Sans', verdana, arial, sans-serif; font-size: 12px; fill: rgb(68, 68, 68); fill-opacity: 1; white-space: pre;">0.02</text></g><g class="ytick"><text text-anchor="end" x="59" y="4.199999999999999" transform="translate(0,543.9)" style="font-family: 'Open Sans', verdana, arial, sans-serif; font-size: 12px; fill: rgb(68, 68, 68); fill-opacity: 1; white-space: pre;">0.04</text></g><g class="ytick"><text text-anchor="end" x="59" y="4.199999999999999" transform="translate(0,469.43)" style="font-family: 'Open Sans', verdana, arial, sans-serif; font-size: 12px; fill: rgb(68, 68, 68); fill-opacity: 1; white-space: pre;">0.06</text></g><g class="ytick"><text text-anchor="end" x="59" y="4.199999999999999" transform="translate(0,394.95)" style="font-family: 'Open Sans', verdana, arial, sans-serif; font-size: 12px; fill: rgb(68, 68, 68); fill-opacity: 1; white-space: pre;">0.08</text></g><g class="ytick"><text text-anchor="end" x="59" y="4.199999999999999" transform="translate(0,320.48)" style="font-family: 'Open Sans', verdana, arial, sans-serif; font-size: 12px; fill: rgb(68, 68, 68); fill-opacity: 1; white-space: pre;">0.1</text></g><g class="ytick"><text text-anchor="end" x="59" y="4.199999999999999" transform="translate(0,246)" style="font-family: 'Open Sans', verdana, arial, sans-serif; font-size: 12px; fill: rgb(68, 68, 68); fill-opacity: 1; white-space: pre;">0.12</text></g><g class="ytick"><text text-anchor="end" x="59" y="4.199999999999999" transform="translate(0,171.53)" style="font-family: 'Open Sans', verdana, arial, sans-serif; font-size: 12px; fill: rgb(68, 68, 68); fill-opacity: 1; white-space: pre;">0.14</text></g><g class="ytick"><text text-anchor="end" x="59" y="4.199999999999999" transform="translate(0,97.05)" style="font-family: 'Open Sans', verdana, arial, sans-serif; font-size: 12px; fill: rgb(68, 68, 68); fill-opacity: 1; white-space: pre;">0.16</text></g></g><g class="overaxes-above"/></g></g><g class="polarlayer"/><g class="ternarylayer"/><g class="geolayer"/><g class="funnelarealayer"/><g class="pielayer"/><g class="treemaplayer"/><g class="sunburstlayer"/><g class="glimages"/><defs id="topdefs-9c3a24"><g class="clips"/><clipPath id="legend9c3a24"><rect width="102" height="48" x="0" y="0"/></clipPath></defs><g class="layer-above"><g class="imagelayer"/><g class="shapelayer"/></g><g class="infolayer"><g class="legend" pointer-events="all" transform="translate(914.76, 25)"><rect class="bg" shape-rendering="crispEdges" style="stroke: rgb(68, 68, 68); stroke-opacity: 1; fill: rgb(255, 255, 255); fill-opacity: 1; stroke-width: 0px;" width="102" height="48" x="0" y="0"/><g class="scrollbox" transform="translate(0, 0)" clip-path="url('#legend9c3a24')"><g class="groups"><g class="traces" style="opacity: 1;" transform="translate(0, 14.5)"><text class="legendtext" text-anchor="start" x="40" y="4.680000000000001" style="font-family: 'Open Sans', verdana, arial, sans-serif; font-size: 12px; fill: rgb(68, 68, 68); fill-opacity: 1; white-space: pre;">actuals</text><g class="layers" style="opacity: 1;"><g class="legendfill"/><g class="legendlines"><path class="js-line" d="M5,0h30" style="fill: none; stroke: rgb(31, 119, 180); stroke-opacity: 1; stroke-width: 2px;"/></g><g class="legendsymbols"><g class="legendpoints"/></g></g><rect class="legendtoggle" x="0" y="-9.5" width="96.21875" height="19" style="fill: rgb(0, 0, 0); fill-opacity: 0;"/></g><g class="traces" style="opacity: 1;" transform="translate(0, 33.5)"><text class="legendtext" text-anchor="start" x="40" y="4.680000000000001" style="font-family: 'Open Sans', verdana, arial, sans-serif; font-size: 12px; fill: rgb(68, 68, 68); fill-opacity: 1; white-space: pre;">forecasts</text><g class="layers" style="opacity: 1;"><g class="legendfill"/><g class="legendlines"><path class="js-line" d="M5,0h30" style="fill: none; stroke: rgb(255, 127, 14); stroke-opacity: 1; stroke-width: 2px;"/></g><g class="legendsymbols"><g class="legendpoints"/></g></g><rect class="legendtoggle" x="0" y="-9.5" width="96.21875" height="19" style="fill: rgb(0, 0, 0); fill-opacity: 0;"/></g></g></g><rect class="scrollbar" rx="20" ry="3" width="0" height="0" style="fill: rgb(128, 139, 164); fill-opacity: 1;" x="0" y="0"/></g><g class="g-gtitle"><text class="gtitle" x="513.5" y="12.5" text-anchor="middle" dy="0em" style="font-family: 'Open Sans', verdana, arial, sans-serif; font-size: 17px; fill: rgb(68, 68, 68); opacity: 1; font-weight: normal; white-space: pre;">Positive cases as proportion of tested per day as of Oct 03, 2021. Including a 7-day forecast of positivity rate.</text></g><g class="g-xtitle" transform="translate(0,-15)"><text class="xtitle" x="479" y="780" text-anchor="middle" style="font-family: 'Open Sans', verdana, arial, sans-serif; font-size: 14px; fill: rgb(68, 68, 68); opacity: 1; font-weight: normal; white-space: pre;">Date</text></g><g class="g-ytitle"><text class="ytitle" transform="rotate(-90,22,376.5)" x="22" y="376.5" text-anchor="middle" style="font-family: 'Open Sans', verdana, arial, sans-serif; font-size: 14px; fill: rgb(68, 68, 68); opacity: 1; font-weight: normal; white-space: pre;">ratio of positive to tested</text></g></g></svg>