<svg class="main-svg" xmlns="http://www.w3.org/2000/svg" xmlns:xlink="http://www.w3.org/1999/xlink" width="1027" height="768" style="" viewBox="0 0 1027 768"><rect x="0" y="0" width="1027" height="768" style="fill: rgb(255, 255, 255); fill-opacity: 1;"/><defs id="defs-9f417a"><g class="clips"><clipPath id="clip9f417axyplot" class="plotclip"><rect width="957" height="703"/></clipPath><clipPath class="axesclip" id="clip9f417ax"><rect x="60" y="0" width="957" height="768"/></clipPath><clipPath class="axesclip" id="clip9f417ay"><rect x="0" y="25" width="1027" height="703"/></clipPath><clipPath class="axesclip" id="clip9f417axy"><rect x="60" y="25" width="957" height="703"/></clipPath></g><g class="gradients"/></defs><g class="bglayer"/><g class="layer-below"><g class="imagelayer"/><g class="shapelayer"/></g><g class="cartesianlayer"><g class="subplot xy"><g class="layer-subplot"><g class="shapelayer"/><g class="imagelayer"/></g><g class="gridlayer"><g class="x"><path class="xgrid crisp" transform="translate(70.92,0)" d="M0,25v703" style="stroke: rgb(238, 238, 238); stroke-opacity: 1; stroke-width: 1px;"/><path class="xgrid crisp" transform="translate(183.72,0)" d="M0,25v703" style="stroke: rgb(238, 238, 238); stroke-opacity: 1; stroke-width: 1px;"/><path class="xgrid crisp" transform="translate(292.88,0)" d="M0,25v703" style="stroke: rgb(238, 238, 238); stroke-opacity: 1; stroke-width: 1px;"/><path class="xgrid crisp" transform="translate(405.68,0)" d="M0,25v703" style="stroke: rgb(238, 238, 238); stroke-opacity: 1; stroke-width: 1px;"/><path class="xgrid crisp" transform="translate(514.85,0)" d="M0,25v703" style="stroke: rgb(238, 238, 238); stroke-opacity: 1; stroke-width: 1px;"/><path class="xgrid crisp" transform="translate(627.65,0)" d="M0,25v703" style="stroke: rgb(238, 238, 238); stroke-opacity: 1; stroke-width: 1px;"/><path class="xgrid crisp" transform="translate(740.45,0)" d="M0,25v703" style="stroke: rgb(238, 238, 238); stroke-opacity: 1; stroke-width: 1px;"/><path class="xgrid crisp" transform="translate(849.62,0)" d="M0,25v703" style="stroke: rgb(238, 238, 238); stroke-opacity: 1; stroke-width: 1px;"/><path class="xgrid crisp" transform="translate(962.42,0)" d="M0,25v703" style="stroke: rgb(238, 238, 238); stroke-opacity: 1; stroke-width: 1px;"/></g><g class="y"><path class="ygrid crisp" transform="translate(0,532.65)" d="M60,0h957" style="stroke: rgb(238, 238, 238); stroke-opacity: 1; stroke-width: 1px;"/><path class="ygrid crisp" transform="translate(0,372.46)" d="M60,0h957" style="stroke: rgb(238, 238, 238); stroke-opacity: 1; stroke-width: 1px;"/><path class="ygrid crisp" transform="translate(0,212.26)" d="M60,0h957" style="stroke: rgb(238, 238, 238); stroke-opacity: 1; stroke-width: 1px;"/><path class="ygrid crisp" transform="translate(0,52.06)" d="M60,0h957" style="stroke: rgb(238, 238, 238); stroke-opacity: 1; stroke-width: 1px;"/></g></g><g class="zerolinelayer"><path class="yzl zl crisp" transform="translate(0,692.85)" d="M60,0h957" style="stroke: rgb(68, 68, 68); stroke-opacity: 1; stroke-width: 1px;"/></g><path class="xlines-below"/><path class="ylines-below"/><g class="overlines-below"/><g class="xaxislayer-below"/><g class="yaxislayer-below"/><g class="overaxes-below"/><g class="plot" transform="translate(60, 25)" clip-path="url('#clip9f417axyplot')"><g class="scatterlayer mlayer"><g class="trace scatter traceb6c484" style="stroke-miterlimit: 2; opacity: 1;"><g class="fills"/><g class="errorbars"/><g class="lines"><path class="js-line" d="M0,622.08L3.64,621.42L14.56,505.63L18.19,614.89L21.83,667.85L25.47,653.8L29.11,602.8L32.75,638.59L40.03,614.7L43.67,667.85L47.3,638.18L50.94,598.9L54.58,599.97L58.22,617.23L61.86,593.79L65.5,608L69.14,632.36L72.78,638.47L76.41,617.81L80.05,600.66L83.69,620.7L87.33,621.42L90.97,549.58L94.61,600.54L98.25,572.07L101.89,483.2L105.52,497.46L109.16,432.27L112.8,317.67L116.44,404.9L120.08,449.29L123.72,403.44L127.36,299.64L131,405.8L134.63,315.31L138.27,403.85L141.91,194.99L145.55,123.47L149.19,290.13L152.83,282.57L156.47,306.88L160.11,480.13L163.75,401.54L167.38,348.91L171.02,404.5L174.66,484.89L178.3,464.79L181.94,35.15L185.58,558.54L189.22,445.78L192.86,478.64L196.49,510.14L200.13,468.98L203.77,501.07L207.41,523.68L211.05,551.37L214.69,559.61L218.33,512.85L221.97,571.63L225.6,554.1L229.24,586.26L232.88,567.44L236.52,586.75L240.16,586.4L243.8,551.47L247.44,566L251.08,583.63L254.71,574.06L258.35,610.19L261.99,614.38L265.63,597.21L269.27,571.12L272.91,598.21L276.55,604.43L280.19,608.32L283.83,597.34L287.46,600.68L291.1,561.46L294.74,432.5L298.38,498.58L302.02,541.9L305.66,542.55L309.3,548.15L312.94,538.38L316.57,509.42L320.21,574.73L323.85,606.03L327.49,598.19L331.13,608.35L334.77,617.71L338.41,606.46L342.05,577.83L345.68,574.11L349.32,606.1L352.96,613.07L356.6,619.36L360.24,604.76L363.88,599.22L367.52,617.15L371.16,613.3L374.79,627.52L378.43,641.13L382.07,647.27L385.71,636.81L389.35,640.74L392.99,641.19L396.63,640.71L400.27,642.7L403.9,645.92L407.54,646.9L411.18,643.75L418.46,644.3L422.1,625.1L425.74,645.35L429.38,645.84L433.02,656.3L436.65,652.54L440.29,647.93L443.93,637.5L447.57,646.68L451.21,649.53L458.49,646L462.13,649.76L465.76,649.27L469.4,639.33L473.04,644.1L476.68,651.29L480.32,647.16L483.96,654.33L487.6,653.74L491.24,651.78L494.87,650.06L498.51,646.61L502.15,654.1L505.79,654.43L509.43,656.44L513.07,649.41L520.35,647.17L523.98,639.54L527.62,645.81L531.26,655.16L534.9,646.16L538.54,653.06L542.18,651.06L545.82,652.39L549.46,647.33L553.1,658.93L556.73,657.55L560.37,653.55L564.01,655.91L567.65,655.64L571.29,655.6L574.93,652.64L578.57,651.86L582.21,656.22L585.84,656.63L589.48,659.23L593.12,658.74L596.76,651.31L600.4,662.95L604.04,655.46L607.68,659.41L611.32,658.07L614.95,656.69L618.59,656.95L622.23,655.44L625.87,650.49L629.51,655.11L633.15,658.45L636.79,652.9L640.43,655.77L644.06,652.09L647.7,649.95L651.34,651.84L654.98,655.01L658.62,654.64L662.26,655.57L665.9,653.08L669.54,653.48L676.81,652.61L680.45,650.1L684.09,651.77L687.73,651.26L691.37,648.97L695.01,650.37L698.65,642.19L702.29,639.53L705.92,640.73L709.56,645.77L713.2,646.85L716.84,646.98L720.48,646.86L724.12,633.9L727.76,638.78L731.4,632.76L735.03,641.13L738.67,631.99L742.31,634.36L745.95,638.71L749.59,624.97L753.23,623.07L756.87,637.56L760.51,625.07L764.14,636.55L767.78,635.62L771.42,630.84L775.06,613.3L778.7,621.6L782.34,611.84L785.98,624.37L789.62,609.35L793.25,622.62L796.89,622.13L800.53,616.26L804.17,626.08L807.81,624.69L811.45,615.19L815.09,600.87L818.73,609.34L822.37,620.74L826,596.96L829.64,591.32L833.28,596.12L836.92,605.07L840.56,608.61L844.2,610.18L847.84,616.24L851.48,597.06L855.11,558.47L858.75,590.32L862.39,598.51L866.03,601.72L869.67,596.88L873.31,581.74L876.95,572.69L880.59,557.19L884.22,578.81L887.86,583.84L891.5,597.85L898.78,583.55L902.42,559.02L906.06,534.77L909.7,557.15L913.33,578.42L916.97,589.98L920.61,575.25L924.25,554.62L927.89,527.74L931.53,515.16L935.17,543.38L938.81,540.29L942.44,557.44L946.08,554.88L949.72,573.11L953.36,525L957,516.66" style="vector-effect: non-scaling-stroke; fill: none; stroke: rgb(31, 119, 180); stroke-opacity: 1; stroke-width: 2px; opacity: 1;"/></g><g class="points"/><g class="text"/></g></g></g><g class="overplot"/><path class="xlines-above crisp" d="M0,0" style="fill: none;"/><path class="ylines-above crisp" d="M0,0" style="fill: none;"/><g class="overlines-above"/><g class="xaxislayer-above"><g class="xtick"><text text-anchor="middle" x="0" y="741" transform="translate(70.92,0)" style="font-family: 'Open Sans', verdana, arial, sans-serif; font-size: 12px; fill: rgb(68, 68, 68); fill-opacity: 1; white-space: pre;">Mar 2020</text></g><g class="xtick"><text text-anchor="middle" x="0" y="741" transform="translate(183.72,0)" style="font-family: 'Open Sans', verdana, arial, sans-serif; font-size: 12px; fill: rgb(68, 68, 68); fill-opacity: 1; white-space: pre;">Apr 2020</text></g><g class="xtick"><text text-anchor="middle" x="0" y="741" transform="translate(292.88,0)" style="font-family: 'Open Sans', verdana, arial, sans-serif; font-size: 12px; fill: rgb(68, 68, 68); fill-opacity: 1; white-space: pre;">May 2020</text></g><g class="xtick"><text text-anchor="middle" x="0" y="741" transform="translate(405.68,0)" style="font-family: 'Open Sans', verdana, arial, sans-serif; font-size: 12px; fill: rgb(68, 68, 68); fill-opacity: 1; white-space: pre;">Jun 2020</text></g><g class="xtick"><text text-anchor="middle" x="0" y="741" transform="translate(514.85,0)" style="font-family: 'Open Sans', verdana, arial, sans-serif; font-size: 12px; fill: rgb(68, 68, 68); fill-opacity: 1; white-space: pre;">Jul 2020</text></g><g class="xtick"><text text-anchor="middle" x="0" y="741" transform="translate(627.65,0)" style="font-family: 'Open Sans', verdana, arial, sans-serif; font-size: 12px; fill: rgb(68, 68, 68); fill-opacity: 1; white-space: pre;">Aug 2020</text></g><g class="xtick"><text text-anchor="middle" x="0" y="741" transform="translate(740.45,0)" style="font-family: 'Open Sans', verdana, arial, sans-serif; font-size: 12px; fill: rgb(68, 68, 68); fill-opacity: 1; white-space: pre;">Sep 2020</text></g><g class="xtick"><text text-anchor="middle" x="0" y="741" transform="translate(849.62,0)" style="font-family: 'Open Sans', verdana, arial, sans-serif; font-size: 12px; fill: rgb(68, 68, 68); fill-opacity: 1; white-space: pre;">Oct 2020</text></g><g class="xtick"><text text-anchor="middle" x="0" y="741" transform="translate(962.42,0)" style="font-family: 'Open Sans', verdana, arial, sans-serif; font-size: 12px; fill: rgb(68, 68, 68); fill-opacity: 1; white-space: pre;">Nov 2020</text></g></g><g class="yaxislayer-above"><g class="ytick"><text text-anchor="end" x="59" y="4.199999999999999" transform="translate(0,692.85)" style="font-family: 'Open Sans', verdana, arial, sans-serif; font-size: 12px; fill: rgb(68, 68, 68); fill-opacity: 1; white-space: pre;">0</text></g><g class="ytick"><text text-anchor="end" x="59" y="4.199999999999999" transform="translate(0,532.65)" style="font-family: 'Open Sans', verdana, arial, sans-serif; font-size: 12px; fill: rgb(68, 68, 68); fill-opacity: 1; white-space: pre;">0.05</text></g><g class="ytick"><text text-anchor="end" x="59" y="4.199999999999999" transform="translate(0,372.46)" style="font-family: 'Open Sans', verdana, arial, sans-serif; font-size: 12px; fill: rgb(68, 68, 68); fill-opacity: 1; white-space: pre;">0.1</text></g><g class="ytick"><text text-anchor="end" x="59" y="4.199999999999999" transform="translate(0,212.26)" style="font-family: 'Open Sans', verdana, arial, sans-serif; font-size: 12px; fill: rgb(68, 68, 68); fill-opacity: 1; white-space: pre;">0.15</text></g><g class="ytick"><text text-anchor="end" x="59" y="4.199999999999999" transform="translate(0,52.06)" style="font-family: 'Open Sans', verdana, arial, sans-serif; font-size: 12px; fill: rgb(68, 68, 68); fill-opacity: 1; white-space: pre;">0.2</text></g></g><g class="overaxes-above"/></g></g><g class="polarlayer"/><g class="ternarylayer"/><g class="geolayer"/><g class="funnelarealayer"/><g class="pielayer"/><g class="treemaplayer"/><g class="sunburstlayer"/><g class="glimages"/><defs id="topdefs-9f417a"><g class="clips"/></defs><g class="layer-above"><g class="imagelayer"/><g class="shapelayer"/></g><g class="infolayer"><g class="g-gtitle"><text class="gtitle" x="513.5" y="12.5" text-anchor="middle" dy="0em" style="font-family: 'Open Sans', verdana, arial, sans-serif; font-size: 17px; fill: rgb(68, 68, 68); opacity: 1; font-weight: normal; white-space: pre;">Positive cases as proportion of tested per day as of Nov 17, 2020</text></g><g class="g-xtitle" transform="translate(0,-15)"><text class="xtitle" x="538.5" y="780" text-anchor="middle" style="font-family: 'Open Sans', verdana, arial, sans-serif; font-size: 14px; fill: rgb(68, 68, 68); opacity: 1; font-weight: normal; white-space: pre;">Date</text></g><g class="g-ytitle"><text class="ytitle" transform="rotate(-90,22,376.5)" x="22" y="376.5" text-anchor="middle" style="font-family: 'Open Sans', verdana, arial, sans-serif; font-size: 14px; fill: rgb(68, 68, 68); opacity: 1; font-weight: normal; white-space: pre;">ratio of positive to tested</text></g></g></svg>