<svg class="main-svg" xmlns="http://www.w3.org/2000/svg" xmlns:xlink="http://www.w3.org/1999/xlink" width="1027" height="768" style="" viewBox="0 0 1027 768"><rect x="0" y="0" width="1027" height="768" style="fill: rgb(255, 255, 255); fill-opacity: 1;"/><defs id="defs-3249b2"><g class="clips"><clipPath id="clip3249b2xyplot" class="plotclip"><rect width="957" height="703"/></clipPath><clipPath class="axesclip" id="clip3249b2x"><rect x="60" y="0" width="957" height="768"/></clipPath><clipPath class="axesclip" id="clip3249b2y"><rect x="0" y="25" width="1027" height="703"/></clipPath><clipPath class="axesclip" id="clip3249b2xy"><rect x="60" y="25" width="957" height="703"/></clipPath></g><g class="gradients"/></defs><g class="bglayer"/><g class="layer-below"><g class="imagelayer"/><g class="shapelayer"/></g><g class="cartesianlayer"><g class="subplot xy"><g class="layer-subplot"><g class="shapelayer"/><g class="imagelayer"/></g><g class="gridlayer"><g class="x"><path class="xgrid crisp" transform="translate(68.65,0)" d="M0,25v703" style="stroke: rgb(238, 238, 238); stroke-opacity: 1; stroke-width: 1px;"/><path class="xgrid crisp" transform="translate(244.48,0)" d="M0,25v703" style="stroke: rgb(238, 238, 238); stroke-opacity: 1; stroke-width: 1px;"/><path class="xgrid crisp" transform="translate(420.32,0)" d="M0,25v703" style="stroke: rgb(238, 238, 238); stroke-opacity: 1; stroke-width: 1px;"/><path class="xgrid crisp" transform="translate(599.03,0)" d="M0,25v703" style="stroke: rgb(238, 238, 238); stroke-opacity: 1; stroke-width: 1px;"/><path class="xgrid crisp" transform="translate(774.87,0)" d="M0,25v703" style="stroke: rgb(238, 238, 238); stroke-opacity: 1; stroke-width: 1px;"/><path class="xgrid crisp" transform="translate(950.7,0)" d="M0,25v703" style="stroke: rgb(238, 238, 238); stroke-opacity: 1; stroke-width: 1px;"/></g><g class="y"><path class="ygrid crisp" transform="translate(0,532.65)" d="M60,0h957" style="stroke: rgb(238, 238, 238); stroke-opacity: 1; stroke-width: 1px;"/><path class="ygrid crisp" transform="translate(0,372.46)" d="M60,0h957" style="stroke: rgb(238, 238, 238); stroke-opacity: 1; stroke-width: 1px;"/><path class="ygrid crisp" transform="translate(0,212.26)" d="M60,0h957" style="stroke: rgb(238, 238, 238); stroke-opacity: 1; stroke-width: 1px;"/><path class="ygrid crisp" transform="translate(0,52.06)" d="M60,0h957" style="stroke: rgb(238, 238, 238); stroke-opacity: 1; stroke-width: 1px;"/></g></g><g class="zerolinelayer"><path class="yzl zl crisp" transform="translate(0,692.85)" d="M60,0h957" style="stroke: rgb(68, 68, 68); stroke-opacity: 1; stroke-width: 1px;"/></g><path class="xlines-below"/><path class="ylines-below"/><g class="overlines-below"/><g class="xaxislayer-below"/><g class="yaxislayer-below"/><g class="overaxes-below"/><g class="plot" transform="translate(60, 25)" clip-path="url('#clip3249b2xyplot')"><g class="scatterlayer mlayer"><g class="trace scatter trace236dad" style="stroke-miterlimit: 2; opacity: 1;"><g class="fills"/><g class="errorbars"/><g class="lines"><path class="js-line" d="M0,622.08L2.88,621.42L11.53,505.63L14.41,614.89L17.3,667.85L20.18,653.8L23.06,602.8L25.94,638.59L31.71,614.7L34.59,667.85L37.47,638.18L40.36,598.9L43.24,599.97L46.12,617.23L49,593.79L51.89,608L54.77,632.36L57.65,638.47L60.53,617.81L63.42,600.66L66.3,620.7L69.18,621.42L72.06,549.58L74.95,600.54L77.83,572.07L80.71,483.2L83.59,497.46L86.48,432.27L89.36,317.67L92.24,404.9L95.12,449.29L98.01,403.44L100.89,299.64L103.77,405.8L106.65,315.31L109.54,403.85L112.42,194.99L115.3,123.47L118.18,290.13L121.07,282.57L123.95,306.88L126.83,480.13L129.71,401.54L132.6,348.91L135.48,404.5L138.36,484.89L141.24,464.79L144.13,35.15L147.01,558.54L149.89,445.78L152.77,478.64L155.66,510.14L158.54,468.98L161.42,501.07L164.3,523.68L167.19,551.37L170.07,559.61L172.95,512.85L175.83,571.63L178.72,554.1L181.6,586.26L184.48,567.44L187.36,586.75L190.25,586.4L193.13,551.47L198.89,583.63L201.78,574.06L204.66,610.19L207.54,614.38L210.42,597.21L213.31,571.12L216.19,598.21L219.07,604.43L221.95,608.32L224.84,597.34L227.72,600.68L230.6,561.46L233.48,432.5L236.37,498.58L239.25,541.9L242.13,542.55L245.02,548.15L247.9,538.38L250.78,509.42L253.66,574.73L256.55,606.03L259.43,598.19L265.19,617.71L268.08,606.46L270.96,577.83L273.84,574.11L276.72,606.1L279.61,613.07L282.49,619.36L285.37,604.76L288.25,599.22L291.14,617.15L294.02,613.3L296.9,627.52L299.78,641.13L302.67,647.27L305.55,636.81L308.43,640.74L311.31,641.19L314.2,640.71L317.08,642.7L319.96,645.92L322.84,646.9L325.73,643.75L331.49,644.3L334.37,625.1L337.26,645.35L340.14,645.84L343.02,656.3L345.9,652.54L348.79,647.93L351.67,637.5L354.55,646.68L357.43,649.53L363.2,646L366.08,649.76L368.96,649.27L371.85,639.33L374.73,644.1L377.61,651.29L380.49,647.16L383.38,654.33L386.26,653.74L389.14,651.78L392.02,650.06L394.91,646.61L397.79,654.1L400.67,654.43L403.55,656.44L406.44,649.41L412.2,647.17L415.08,639.54L417.97,645.81L420.85,655.16L423.73,646.16L426.61,653.06L429.5,651.06L432.38,652.39L435.26,647.33L438.14,658.93L441.03,657.55L443.91,653.55L446.79,655.91L449.67,655.64L452.56,655.6L455.44,652.64L458.32,651.86L461.2,656.22L464.09,656.63L466.97,659.23L469.85,658.74L472.73,651.31L475.62,662.95L478.5,655.46L481.38,659.41L484.27,658.07L487.15,656.69L490.03,656.95L492.91,655.44L495.8,650.49L501.56,658.45L504.44,652.9L507.33,655.77L510.21,652.09L513.09,649.95L515.97,651.84L518.86,655.01L521.74,654.64L524.62,655.57L527.5,653.08L533.27,653.3L536.15,652.61L539.03,650.1L541.92,651.77L544.8,651.26L547.68,648.97L550.56,650.37L553.45,642.19L556.33,639.53L559.21,640.73L562.09,645.77L564.98,646.85L570.74,646.86L573.62,633.9L576.51,638.78L579.39,632.76L582.27,641.13L585.15,631.99L588.04,634.36L590.92,638.71L593.8,624.97L596.68,623.07L599.57,637.56L602.45,625.07L605.33,636.55L608.21,635.62L611.1,630.84L613.98,613.3L616.86,621.6L619.74,611.84L622.63,624.37L625.51,609.35L628.39,622.62L631.27,622.13L634.16,616.26L637.04,626.08L639.92,624.69L642.8,615.19L645.69,600.87L648.57,609.34L651.45,620.74L654.33,596.96L657.22,591.32L660.1,596.12L662.98,605.07L665.86,608.61L668.75,610.18L671.63,616.24L674.51,597.06L677.39,558.47L680.28,590.32L683.16,598.51L686.04,601.72L688.92,596.88L691.81,581.74L694.69,572.69L697.57,557.19L700.45,578.81L703.34,583.84L706.22,597.85L711.98,583.55L714.87,559.02L717.75,534.77L720.63,557.15L723.52,578.42L726.4,589.98L729.28,575.25L732.16,554.62L735.05,527.74L737.93,515.16L740.81,543.38L743.69,540.29L746.58,557.44L749.46,554.88L752.34,573.11L755.22,525L758.11,516.66L760.99,532.08L763.87,575.19L766.75,573.54L769.64,558.83L772.52,561.9L775.4,531.98L778.28,548.35L781.17,545.91L784.05,568.32L789.81,561.88L792.7,566.43L795.58,525.89L798.46,509.97L801.34,543.03L804.23,557.32L807.11,566.01L809.99,567.58L812.87,563.81L815.76,531.65L818.64,530.86L821.52,543.11L824.4,565.06L827.29,573.94L830.17,575.9L833.05,575.51L835.93,558.98L838.82,483.63L841.7,528.53L844.58,533.92L847.46,560.34L850.35,555.49L853.23,560.95L856.11,543.05L858.99,511.99L861.88,531.69L864.76,546.47L867.64,555.31L870.52,529.24L873.41,514.11L876.29,510.83L879.17,428.06L882.05,429L884.94,500.87L887.82,553.82L890.7,492.37L893.58,480.92L896.47,400.04L899.35,382.75L902.23,462.85L905.11,496.43L908,477.4L910.88,516.53L913.76,464.99L916.64,437.37L919.53,460.25L922.41,481.58L925.29,518.12L928.17,542.24L931.06,535.31L933.94,485.67L936.82,462.9L942.59,511.21L945.47,547.82L948.35,548.98L951.23,548.74L954.12,509.64L957,493.44" style="vector-effect: non-scaling-stroke; fill: none; stroke: rgb(31, 119, 180); stroke-opacity: 1; stroke-width: 2px; opacity: 1;"/></g><g class="points"/><g class="text"/></g></g></g><g class="overplot"/><path class="xlines-above crisp" d="M0,0" style="fill: none;"/><path class="ylines-above crisp" d="M0,0" style="fill: none;"/><g class="overlines-above"/><g class="xaxislayer-above"><g class="xtick"><text text-anchor="middle" x="0" y="741" transform="translate(68.65,0)" style="font-family: 'Open Sans', verdana, arial, sans-serif; font-size: 12px; fill: rgb(68, 68, 68); fill-opacity: 1; white-space: pre;">Mar 2020</text></g><g class="xtick"><text text-anchor="middle" x="0" y="741" transform="translate(244.48,0)" style="font-family: 'Open Sans', verdana, arial, sans-serif; font-size: 12px; fill: rgb(68, 68, 68); fill-opacity: 1; white-space: pre;">May 2020</text></g><g class="xtick"><text text-anchor="middle" x="0" y="741" transform="translate(420.32,0)" style="font-family: 'Open Sans', verdana, arial, sans-serif; font-size: 12px; fill: rgb(68, 68, 68); fill-opacity: 1; white-space: pre;">Jul 2020</text></g><g class="xtick"><text text-anchor="middle" x="0" y="741" transform="translate(599.03,0)" style="font-family: 'Open Sans', verdana, arial, sans-serif; font-size: 12px; fill: rgb(68, 68, 68); fill-opacity: 1; white-space: pre;">Sep 2020</text></g><g class="xtick"><text text-anchor="middle" x="0" y="741" transform="translate(774.87,0)" style="font-family: 'Open Sans', verdana, arial, sans-serif; font-size: 12px; fill: rgb(68, 68, 68); fill-opacity: 1; white-space: pre;">Nov 2020</text></g><g class="xtick"><text text-anchor="middle" x="0" y="741" transform="translate(950.7,0)" style="font-family: 'Open Sans', verdana, arial, sans-serif; font-size: 12px; fill: rgb(68, 68, 68); fill-opacity: 1; white-space: pre;">Jan 2021</text></g></g><g class="yaxislayer-above"><g class="ytick"><text text-anchor="end" x="59" y="4.199999999999999" transform="translate(0,692.85)" style="font-family: 'Open Sans', verdana, arial, sans-serif; font-size: 12px; fill: rgb(68, 68, 68); fill-opacity: 1; white-space: pre;">0</text></g><g class="ytick"><text text-anchor="end" x="59" y="4.199999999999999" transform="translate(0,532.65)" style="font-family: 'Open Sans', verdana, arial, sans-serif; font-size: 12px; fill: rgb(68, 68, 68); fill-opacity: 1; white-space: pre;">0.05</text></g><g class="ytick"><text text-anchor="end" x="59" y="4.199999999999999" transform="translate(0,372.46)" style="font-family: 'Open Sans', verdana, arial, sans-serif; font-size: 12px; fill: rgb(68, 68, 68); fill-opacity: 1; white-space: pre;">0.1</text></g><g class="ytick"><text text-anchor="end" x="59" y="4.199999999999999" transform="translate(0,212.26)" style="font-family: 'Open Sans', verdana, arial, sans-serif; font-size: 12px; fill: rgb(68, 68, 68); fill-opacity: 1; white-space: pre;">0.15</text></g><g class="ytick"><text text-anchor="end" x="59" y="4.199999999999999" transform="translate(0,52.06)" style="font-family: 'Open Sans', verdana, arial, sans-serif; font-size: 12px; fill: rgb(68, 68, 68); fill-opacity: 1; white-space: pre;">0.2</text></g></g><g class="overaxes-above"/></g></g><g class="polarlayer"/><g class="ternarylayer"/><g class="geolayer"/><g class="funnelarealayer"/><g class="pielayer"/><g class="treemaplayer"/><g class="sunburstlayer"/><g class="glimages"/><defs id="topdefs-3249b2"><g class="clips"/></defs><g class="layer-above"><g class="imagelayer"/><g class="shapelayer"/></g><g class="infolayer"><g class="g-gtitle"><text class="gtitle" x="513.5" y="12.5" text-anchor="middle" dy="0em" style="font-family: 'Open Sans', verdana, arial, sans-serif; font-size: 17px; fill: rgb(68, 68, 68); opacity: 1; font-weight: normal; white-space: pre;">Positive cases as proportion of tested per day as of Jan 26, 2021</text></g><g class="g-xtitle" transform="translate(0,-15)"><text class="xtitle" x="538.5" y="780" text-anchor="middle" style="font-family: 'Open Sans', verdana, arial, sans-serif; font-size: 14px; fill: rgb(68, 68, 68); opacity: 1; font-weight: normal; white-space: pre;">Date</text></g><g class="g-ytitle"><text class="ytitle" transform="rotate(-90,22,376.5)" x="22" y="376.5" text-anchor="middle" style="font-family: 'Open Sans', verdana, arial, sans-serif; font-size: 14px; fill: rgb(68, 68, 68); opacity: 1; font-weight: normal; white-space: pre;">ratio of positive to tested</text></g></g></svg>