<svg class="main-svg" xmlns="http://www.w3.org/2000/svg" xmlns:xlink="http://www.w3.org/1999/xlink" width="1027" height="768" style="" viewBox="0 0 1027 768"><rect x="0" y="0" width="1027" height="768" style="fill: rgb(255, 255, 255); fill-opacity: 1;"/><defs id="defs-60c8f9"><g class="clips"><clipPath id="clip60c8f9xyplot" class="plotclip"><rect width="838" height="703"/></clipPath><clipPath class="axesclip" id="clip60c8f9x"><rect x="60" y="0" width="838" height="768"/></clipPath><clipPath class="axesclip" id="clip60c8f9y"><rect x="0" y="25" width="1027" height="703"/></clipPath><clipPath class="axesclip" id="clip60c8f9xy"><rect x="60" y="25" width="838" height="703"/></clipPath></g><g class="gradients"/></defs><g class="bglayer"/><g class="layer-below"><g class="imagelayer"/><g class="shapelayer"/></g><g class="cartesianlayer"><g class="subplot xy"><g class="layer-subplot"><g class="shapelayer"/><g class="imagelayer"/></g><g class="gridlayer"><g class="x"><path class="xgrid crisp" transform="translate(66.3,0)" d="M0,25v703" style="stroke: rgb(238, 238, 238); stroke-opacity: 1; stroke-width: 1px;"/><path class="xgrid crisp" transform="translate(194.42,0)" d="M0,25v703" style="stroke: rgb(238, 238, 238); stroke-opacity: 1; stroke-width: 1px;"/><path class="xgrid crisp" transform="translate(322.53,0)" d="M0,25v703" style="stroke: rgb(238, 238, 238); stroke-opacity: 1; stroke-width: 1px;"/><path class="xgrid crisp" transform="translate(452.75,0)" d="M0,25v703" style="stroke: rgb(238, 238, 238); stroke-opacity: 1; stroke-width: 1px;"/><path class="xgrid crisp" transform="translate(580.86,0)" d="M0,25v703" style="stroke: rgb(238, 238, 238); stroke-opacity: 1; stroke-width: 1px;"/><path class="xgrid crisp" transform="translate(708.98,0)" d="M0,25v703" style="stroke: rgb(238, 238, 238); stroke-opacity: 1; stroke-width: 1px;"/><path class="xgrid crisp" transform="translate(832.89,0)" d="M0,25v703" style="stroke: rgb(238, 238, 238); stroke-opacity: 1; stroke-width: 1px;"/></g><g class="y"><path class="ygrid crisp" transform="translate(0,532.65)" d="M60,0h838" style="stroke: rgb(238, 238, 238); stroke-opacity: 1; stroke-width: 1px;"/><path class="ygrid crisp" transform="translate(0,372.46)" d="M60,0h838" style="stroke: rgb(238, 238, 238); stroke-opacity: 1; stroke-width: 1px;"/><path class="ygrid crisp" transform="translate(0,212.26)" d="M60,0h838" style="stroke: rgb(238, 238, 238); stroke-opacity: 1; stroke-width: 1px;"/><path class="ygrid crisp" transform="translate(0,52.06)" d="M60,0h838" style="stroke: rgb(238, 238, 238); stroke-opacity: 1; stroke-width: 1px;"/></g></g><g class="zerolinelayer"><path class="yzl zl crisp" transform="translate(0,692.85)" d="M60,0h838" style="stroke: rgb(68, 68, 68); stroke-opacity: 1; stroke-width: 1px;"/></g><path class="xlines-below"/><path class="ylines-below"/><g class="overlines-below"/><g class="xaxislayer-below"/><g class="yaxislayer-below"/><g class="overaxes-below"/><g class="plot" transform="translate(60, 25)" clip-path="url('#clip60c8f9xyplot')"><g class="scatterlayer mlayer"><g class="trace scatter trace4fd44e" style="stroke-miterlimit: 2; opacity: 1;"><g class="fills"/><g class="errorbars"/><g class="lines"><path class="js-line" d="M0,622.08L2.1,621.42L8.4,505.63L10.5,614.89L12.6,667.85L14.7,653.8L16.8,602.8L18.9,638.59L23.1,614.7L25.2,667.85L27.3,638.18L29.4,598.9L31.5,599.97L33.6,617.23L35.7,593.79L37.8,608L39.9,632.36L42.01,638.47L44.11,617.81L46.21,600.66L48.31,620.7L50.41,621.42L52.51,549.58L54.61,600.54L56.71,572.07L58.81,483.2L60.91,497.46L63.01,432.27L65.11,317.67L67.21,404.9L69.31,449.29L71.41,403.44L73.51,299.64L75.61,405.8L77.71,315.31L79.81,403.85L81.91,194.99L84.01,123.47L86.11,290.13L88.21,282.57L90.31,306.88L92.41,480.13L94.51,401.54L96.61,348.91L98.71,404.5L100.81,484.89L102.91,464.79L105.01,35.15L107.11,558.54L109.21,445.78L111.31,478.64L113.41,510.14L115.51,468.98L119.71,523.68L121.81,551.37L123.91,559.61L126.02,512.85L128.12,571.63L130.22,554.1L132.32,586.26L134.42,567.44L136.52,586.75L138.62,586.4L140.72,551.47L142.82,566L144.92,583.63L147.02,574.06L149.12,610.19L151.22,614.38L153.32,597.21L155.42,571.12L157.52,598.21L159.62,604.43L161.72,608.32L163.82,597.34L165.92,600.68L168.02,561.46L170.12,432.5L172.22,498.58L174.32,541.9L176.42,542.55L178.52,548.15L180.62,538.38L182.72,509.42L184.82,574.73L186.92,606.03L189.02,598.19L193.22,617.71L195.32,606.46L197.42,577.83L199.52,574.11L201.62,606.1L203.72,613.07L205.82,619.36L207.92,604.76L210.03,599.22L212.13,617.15L214.23,613.3L216.33,627.52L218.43,641.13L220.53,647.27L222.63,636.81L224.73,640.74L226.83,641.19L228.93,640.71L231.03,642.7L233.13,645.92L235.23,646.9L237.33,643.75L241.53,644.3L243.63,625.1L245.73,645.35L247.83,645.84L249.93,656.3L252.03,652.54L254.13,647.93L256.23,637.5L258.33,646.68L260.43,649.53L264.63,646L266.73,649.76L268.83,649.27L270.93,639.33L273.03,644.1L275.13,651.29L277.23,647.16L279.33,654.33L281.43,653.74L283.53,651.78L285.63,650.06L287.73,646.61L289.83,654.1L291.93,654.43L294.04,656.44L296.14,649.41L300.34,647.17L302.44,639.54L304.54,645.81L306.64,655.16L308.74,646.16L310.84,653.06L312.94,651.06L315.04,652.39L317.14,647.33L319.24,658.93L321.34,657.55L323.44,653.55L325.54,655.91L327.64,655.64L329.74,655.6L331.84,652.64L333.94,651.86L336.04,656.22L338.14,656.63L340.24,659.23L342.34,658.74L344.44,651.31L346.54,662.95L348.64,655.46L350.74,659.41L352.84,658.07L354.94,656.69L357.04,656.95L359.14,655.44L361.24,650.49L365.44,658.45L367.54,652.9L369.64,655.77L371.74,652.09L373.84,649.95L375.94,651.84L378.05,655.01L380.15,654.64L382.25,655.57L384.35,653.08L388.55,653.3L390.65,652.61L392.75,650.1L394.85,651.77L396.95,651.26L399.05,648.97L401.15,650.37L403.25,642.19L405.35,639.53L407.45,640.73L409.55,645.77L411.65,646.85L415.85,646.86L417.95,633.9L420.05,638.78L422.15,632.76L424.25,641.13L426.35,631.99L428.45,634.36L430.55,638.71L432.65,624.97L434.75,623.07L436.85,637.56L438.95,625.07L441.05,636.55L443.15,635.62L445.25,630.84L447.35,613.3L449.45,621.6L451.55,611.84L453.65,624.37L455.75,609.35L457.85,622.62L459.95,622.13L462.06,616.26L464.16,626.08L466.26,624.69L468.36,615.19L470.46,600.87L472.56,609.34L474.66,620.74L476.76,596.96L478.86,591.32L480.96,596.12L483.06,605.07L485.16,608.61L487.26,610.18L489.36,616.24L491.46,597.06L493.56,558.47L495.66,590.32L497.76,598.51L499.86,601.72L501.96,596.88L504.06,581.74L506.16,572.69L508.26,557.19L510.36,578.81L512.46,583.84L514.56,597.85L518.76,583.55L520.86,559.02L522.96,534.77L525.06,557.15L527.16,578.42L529.26,589.98L531.36,575.25L533.46,554.62L535.56,527.74L537.66,515.16L539.76,543.38L541.86,540.29L543.96,557.44L546.07,554.88L548.17,573.11L550.27,525L552.37,516.66L554.47,532.08L556.57,575.19L558.67,573.54L560.77,558.83L562.87,561.9L564.97,531.98L567.07,548.35L569.17,545.91L571.27,568.32L575.47,561.88L577.57,566.43L579.67,525.89L581.77,509.97L583.87,543.03L585.97,557.32L588.07,566.01L590.17,567.58L592.27,563.81L594.37,531.65L596.47,530.86L598.57,543.11L600.67,565.06L602.77,573.94L604.87,575.9L606.97,575.51L609.07,558.98L611.17,483.63L613.27,528.53L615.37,533.92L617.47,560.34L619.57,555.49L621.67,560.95L623.77,543.05L625.87,511.99L627.97,531.69L630.08,546.47L632.18,555.31L634.28,529.24L636.38,514.11L638.48,510.83L640.58,428.06L642.68,429L644.78,500.87L646.88,553.82L648.98,492.37L651.08,480.92L653.18,400.04L655.28,382.75L657.38,462.85L659.48,496.43L661.58,477.4L663.68,516.53L665.78,464.99L667.88,437.37L669.98,460.25L672.08,481.58L674.18,518.12L676.28,542.24L678.38,535.31L680.48,485.67L682.58,462.9L688.88,547.82L690.98,548.98L693.08,548.74L695.18,509.64L697.28,493.44L699.38,486.36L701.48,570.9L703.58,564.15L705.68,582.6L707.78,556.94L709.88,547.88L711.98,460.05L714.09,584.25L716.19,596.21L720.39,582.53L722.49,596.52L724.59,575.5L726.69,524.65L730.89,602.43L732.99,623.85L737.19,596.97L739.29,603.31L741.39,566.1L743.49,560.6L747.69,608.64L749.79,611.49L751.89,599.06L753.99,595.56L756.09,559.07L758.19,547.61L760.29,606.29L762.39,612.9L764.49,604.92L766.59,603.95L768.69,598.67L770.79,574.24L772.89,567.25L774.99,609.51L777.09,619.33L779.19,606L781.29,613L783.39,578.51L785.49,530.56L787.59,553.71L789.69,589.98L791.79,610.13L795.99,587.36L798.1,550.3L802.3,547.22L804.4,569.5L806.5,582.88L808.6,568.25L810.7,555.34L812.8,551.3L814.9,492.76L817,515.7L819.1,570.98L821.2,540.92L823.3,537.8" style="vector-effect: non-scaling-stroke; fill: none; stroke: rgb(31, 119, 180); stroke-opacity: 1; stroke-width: 2px; opacity: 1;"/></g><g class="points"/><g class="text"/></g><g class="trace scatter trace414d77" style="stroke-miterlimit: 2; opacity: 1;"><g class="fills"/><g class="errorbars"/><g class="lines"><path class="js-line" d="M823.3,537.8L825.4,536.33L827.5,508.62L829.6,486.85L831.7,517.97L835.9,532.9L838,535.4" style="vector-effect: non-scaling-stroke; fill: none; stroke: rgb(255, 127, 14); stroke-opacity: 1; stroke-width: 2px; opacity: 1;"/></g><g class="points"/><g class="text"/></g></g></g><g class="overplot"/><path class="xlines-above crisp" style="fill: none;" d="M0,0"/><path class="ylines-above crisp" style="fill: none;" d="M0,0"/><g class="overlines-above"/><g class="xaxislayer-above"><g class="xtick"><text text-anchor="middle" x="0" y="741" transform="translate(66.3,0)" style="font-family: 'Open Sans', verdana, arial, sans-serif; font-size: 12px; fill: rgb(68, 68, 68); fill-opacity: 1; white-space: pre;">Mar 2020</text></g><g class="xtick"><text text-anchor="middle" x="0" y="741" transform="translate(194.42,0)" style="font-family: 'Open Sans', verdana, arial, sans-serif; font-size: 12px; fill: rgb(68, 68, 68); fill-opacity: 1; white-space: pre;">May 2020</text></g><g class="xtick"><text text-anchor="middle" x="0" y="741" transform="translate(322.53,0)" style="font-family: 'Open Sans', verdana, arial, sans-serif; font-size: 12px; fill: rgb(68, 68, 68); fill-opacity: 1; white-space: pre;">Jul 2020</text></g><g class="xtick"><text text-anchor="middle" x="0" y="741" transform="translate(452.75,0)" style="font-family: 'Open Sans', verdana, arial, sans-serif; font-size: 12px; fill: rgb(68, 68, 68); fill-opacity: 1; white-space: pre;">Sep 2020</text></g><g class="xtick"><text text-anchor="middle" x="0" y="741" transform="translate(580.86,0)" style="font-family: 'Open Sans', verdana, arial, sans-serif; font-size: 12px; fill: rgb(68, 68, 68); fill-opacity: 1; white-space: pre;">Nov 2020</text></g><g class="xtick"><text text-anchor="middle" x="0" y="741" transform="translate(708.98,0)" style="font-family: 'Open Sans', verdana, arial, sans-serif; font-size: 12px; fill: rgb(68, 68, 68); fill-opacity: 1; white-space: pre;">Jan 2021</text></g><g class="xtick"><text text-anchor="middle" x="0" y="741" transform="translate(832.89,0)" style="font-family: 'Open Sans', verdana, arial, sans-serif; font-size: 12px; fill: rgb(68, 68, 68); fill-opacity: 1; white-space: pre;">Mar 2021</text></g></g><g class="yaxislayer-above"><g class="ytick"><text text-anchor="end" x="59" y="4.199999999999999" transform="translate(0,692.85)" style="font-family: 'Open Sans', verdana, arial, sans-serif; font-size: 12px; fill: rgb(68, 68, 68); fill-opacity: 1; white-space: pre;">0</text></g><g class="ytick"><text text-anchor="end" x="59" y="4.199999999999999" transform="translate(0,532.65)" style="font-family: 'Open Sans', verdana, arial, sans-serif; font-size: 12px; fill: rgb(68, 68, 68); fill-opacity: 1; white-space: pre;">0.05</text></g><g class="ytick"><text text-anchor="end" x="59" y="4.199999999999999" transform="translate(0,372.46)" style="font-family: 'Open Sans', verdana, arial, sans-serif; font-size: 12px; fill: rgb(68, 68, 68); fill-opacity: 1; white-space: pre;">0.1</text></g><g class="ytick"><text text-anchor="end" x="59" y="4.199999999999999" transform="translate(0,212.26)" style="font-family: 'Open Sans', verdana, arial, sans-serif; font-size: 12px; fill: rgb(68, 68, 68); fill-opacity: 1; white-space: pre;">0.15</text></g><g class="ytick"><text text-anchor="end" x="59" y="4.199999999999999" transform="translate(0,52.06)" style="font-family: 'Open Sans', verdana, arial, sans-serif; font-size: 12px; fill: rgb(68, 68, 68); fill-opacity: 1; white-space: pre;">0.2</text></g></g><g class="overaxes-above"/></g></g><g class="polarlayer"/><g class="ternarylayer"/><g class="geolayer"/><g class="funnelarealayer"/><g class="pielayer"/><g class="treemaplayer"/><g class="sunburstlayer"/><g class="glimages"/><defs id="topdefs-60c8f9"><g class="clips"/><clipPath id="legend60c8f9"><rect width="102" height="48" x="0" y="0"/></clipPath></defs><g class="layer-above"><g class="imagelayer"/><g class="shapelayer"/></g><g class="infolayer"><g class="legend" pointer-events="all" transform="translate(914.76, 25)"><rect class="bg" shape-rendering="crispEdges" style="stroke: rgb(68, 68, 68); stroke-opacity: 1; fill: rgb(255, 255, 255); fill-opacity: 1; stroke-width: 0px;" width="102" height="48" x="0" y="0"/><g class="scrollbox" transform="translate(0, 0)" clip-path="url('#legend60c8f9')"><g class="groups"><g class="traces" style="opacity: 1;" transform="translate(0, 14.5)"><text class="legendtext" text-anchor="start" x="40" y="4.680000000000001" style="font-family: 'Open Sans', verdana, arial, sans-serif; font-size: 12px; fill: rgb(68, 68, 68); fill-opacity: 1; white-space: pre;">actuals</text><g class="layers" style="opacity: 1;"><g class="legendfill"/><g class="legendlines"><path class="js-line" d="M5,0h30" style="fill: none; stroke: rgb(31, 119, 180); stroke-opacity: 1; stroke-width: 2px;"/></g><g class="legendsymbols"><g class="legendpoints"/></g></g><rect class="legendtoggle" x="0" y="-9.5" width="96.21875" height="19" style="fill: rgb(0, 0, 0); fill-opacity: 0;"/></g><g class="traces" style="opacity: 1;" transform="translate(0, 33.5)"><text class="legendtext" text-anchor="start" x="40" y="4.680000000000001" style="font-family: 'Open Sans', verdana, arial, sans-serif; font-size: 12px; fill: rgb(68, 68, 68); fill-opacity: 1; white-space: pre;">forecasts</text><g class="layers" style="opacity: 1;"><g class="legendfill"/><g class="legendlines"><path class="js-line" d="M5,0h30" style="fill: none; stroke: rgb(255, 127, 14); stroke-opacity: 1; stroke-width: 2px;"/></g><g class="legendsymbols"><g class="legendpoints"/></g></g><rect class="legendtoggle" x="0" y="-9.5" width="96.21875" height="19" style="fill: rgb(0, 0, 0); fill-opacity: 0;"/></g></g></g><rect class="scrollbar" rx="20" ry="3" width="0" height="0" style="fill: rgb(128, 139, 164); fill-opacity: 1;" x="0" y="0"/></g><g class="g-gtitle"><text class="gtitle" x="513.5" y="12.5" text-anchor="middle" dy="0em" style="font-family: 'Open Sans', verdana, arial, sans-serif; font-size: 17px; fill: rgb(68, 68, 68); opacity: 1; font-weight: normal; white-space: pre;">Positive cases as proportion of tested per day as of Mar 26, 2021. Including a 7-day forecast of positivity rate.</text></g><g class="g-xtitle" transform="translate(0,-15)"><text class="xtitle" x="479" y="780" text-anchor="middle" style="font-family: 'Open Sans', verdana, arial, sans-serif; font-size: 14px; fill: rgb(68, 68, 68); opacity: 1; font-weight: normal; white-space: pre;">Date</text></g><g class="g-ytitle"><text class="ytitle" transform="rotate(-90,22,376.5)" x="22" y="376.5" text-anchor="middle" style="font-family: 'Open Sans', verdana, arial, sans-serif; font-size: 14px; fill: rgb(68, 68, 68); opacity: 1; font-weight: normal; white-space: pre;">ratio of positive to tested</text></g></g></svg>