<svg class="main-svg" xmlns="http://www.w3.org/2000/svg" xmlns:xlink="http://www.w3.org/1999/xlink" width="1027" height="768" style="" viewBox="0 0 1027 768"><rect x="0" y="0" width="1027" height="768" style="fill: rgb(255, 255, 255); fill-opacity: 1;"/><defs id="defs-f9aac8"><g class="clips"><clipPath id="clipf9aac8xyplot" class="plotclip"><rect width="957" height="703"/></clipPath><clipPath class="axesclip" id="clipf9aac8x"><rect x="60" y="0" width="957" height="768"/></clipPath><clipPath class="axesclip" id="clipf9aac8y"><rect x="0" y="25" width="1027" height="703"/></clipPath><clipPath class="axesclip" id="clipf9aac8xy"><rect x="60" y="25" width="957" height="703"/></clipPath></g><g class="gradients"/></defs><g class="bglayer"/><g class="layer-below"><g class="imagelayer"/><g class="shapelayer"/></g><g class="cartesianlayer"><g class="subplot xy"><g class="layer-subplot"><g class="shapelayer"/><g class="imagelayer"/></g><g class="gridlayer"><g class="x"><path class="xgrid crisp" transform="translate(71.08,0)" d="M0,25v703" style="stroke: rgb(238, 238, 238); stroke-opacity: 1; stroke-width: 1px;"/><path class="xgrid crisp" transform="translate(185.63,0)" d="M0,25v703" style="stroke: rgb(238, 238, 238); stroke-opacity: 1; stroke-width: 1px;"/><path class="xgrid crisp" transform="translate(296.48,0)" d="M0,25v703" style="stroke: rgb(238, 238, 238); stroke-opacity: 1; stroke-width: 1px;"/><path class="xgrid crisp" transform="translate(411.02,0)" d="M0,25v703" style="stroke: rgb(238, 238, 238); stroke-opacity: 1; stroke-width: 1px;"/><path class="xgrid crisp" transform="translate(521.87,0)" d="M0,25v703" style="stroke: rgb(238, 238, 238); stroke-opacity: 1; stroke-width: 1px;"/><path class="xgrid crisp" transform="translate(636.42,0)" d="M0,25v703" style="stroke: rgb(238, 238, 238); stroke-opacity: 1; stroke-width: 1px;"/><path class="xgrid crisp" transform="translate(750.96,0)" d="M0,25v703" style="stroke: rgb(238, 238, 238); stroke-opacity: 1; stroke-width: 1px;"/><path class="xgrid crisp" transform="translate(861.81,0)" d="M0,25v703" style="stroke: rgb(238, 238, 238); stroke-opacity: 1; stroke-width: 1px;"/><path class="xgrid crisp" transform="translate(976.36,0)" d="M0,25v703" style="stroke: rgb(238, 238, 238); stroke-opacity: 1; stroke-width: 1px;"/></g><g class="y"><path class="ygrid crisp" transform="translate(0,532.65)" d="M60,0h957" style="stroke: rgb(238, 238, 238); stroke-opacity: 1; stroke-width: 1px;"/><path class="ygrid crisp" transform="translate(0,372.46)" d="M60,0h957" style="stroke: rgb(238, 238, 238); stroke-opacity: 1; stroke-width: 1px;"/><path class="ygrid crisp" transform="translate(0,212.26)" d="M60,0h957" style="stroke: rgb(238, 238, 238); stroke-opacity: 1; stroke-width: 1px;"/><path class="ygrid crisp" transform="translate(0,52.06)" d="M60,0h957" style="stroke: rgb(238, 238, 238); stroke-opacity: 1; stroke-width: 1px;"/></g></g><g class="zerolinelayer"><path class="yzl zl crisp" transform="translate(0,692.85)" d="M60,0h957" style="stroke: rgb(68, 68, 68); stroke-opacity: 1; stroke-width: 1px;"/></g><path class="xlines-below"/><path class="ylines-below"/><g class="overlines-below"/><g class="xaxislayer-below"/><g class="yaxislayer-below"/><g class="overaxes-below"/><g class="plot" transform="translate(60, 25)" clip-path="url('#clipf9aac8xyplot')"><g class="scatterlayer mlayer"><g class="trace scatter trace56112e" style="stroke-miterlimit: 2; opacity: 1;"><g class="fills"/><g class="errorbars"/><g class="lines"><path class="js-line" d="M0,622.08L3.69,621.42L14.78,505.63L18.47,614.89L22.17,667.85L25.86,653.8L29.56,602.8L33.25,638.59L40.64,614.7L44.34,667.85L48.03,638.18L51.73,598.9L55.42,599.97L59.12,617.23L62.81,593.79L66.51,608L70.2,632.36L73.9,638.47L77.59,617.81L81.29,600.66L84.98,620.7L88.68,621.42L92.37,549.58L96.07,600.54L99.76,572.07L103.46,483.2L107.15,497.46L110.85,432.27L114.54,317.67L118.24,404.9L121.93,449.29L125.63,403.44L129.32,299.64L133.02,405.8L136.71,315.31L140.41,403.85L144.1,194.99L147.8,123.47L151.49,290.13L155.19,282.57L158.88,306.88L162.58,480.13L166.27,401.54L169.97,348.91L173.66,404.5L177.36,484.89L181.05,464.79L184.75,35.15L188.44,558.54L192.14,445.78L195.83,478.64L199.53,510.14L203.22,468.98L206.92,501.07L210.61,523.68L214.31,551.37L218,559.61L221.7,512.85L225.39,571.63L229.09,554.1L232.78,586.26L236.48,567.44L240.17,586.75L243.87,586.4L247.56,551.47L251.26,566L254.95,583.63L258.65,574.06L262.34,610.19L266.04,614.38L269.73,597.21L273.43,571.12L277.12,598.21L280.82,604.43L284.51,608.32L288.21,597.34L291.9,600.68L295.6,561.46L299.29,432.5L302.99,498.58L306.68,541.9L310.38,542.55L314.07,548.15L317.77,538.38L321.46,509.42L325.16,574.73L328.85,606.03L332.55,598.19L336.24,608.35L339.94,617.71L343.63,606.46L347.33,577.83L351.02,574.11L354.72,606.1L358.41,613.07L362.11,619.36L365.8,604.76L369.5,599.22L373.19,617.15L376.89,613.3L380.58,627.52L384.28,641.13L387.97,647.27L391.67,636.81L395.36,640.74L399.06,641.19L402.75,640.71L406.45,642.7L410.14,645.92L413.84,646.9L417.53,643.75L424.92,644.3L428.62,625.1L432.31,645.35L436.01,645.84L439.7,656.3L443.4,652.54L447.09,647.93L450.79,637.5L454.48,646.68L458.18,649.53L465.57,646L469.26,649.76L472.96,649.27L476.65,639.33L480.35,644.1L484.04,651.29L487.74,647.16L491.43,654.33L495.13,653.74L498.82,651.78L502.52,650.06L506.21,646.61L509.91,654.1L513.6,654.43L517.3,656.44L520.99,649.41L528.38,647.17L532.08,639.54L535.77,645.81L539.47,655.16L543.16,646.16L546.86,653.06L550.55,651.06L554.25,652.39L557.94,647.33L561.64,658.93L565.33,657.55L569.03,653.55L572.72,655.91L576.42,655.64L580.11,655.6L583.81,652.64L587.5,651.86L591.2,656.22L594.89,656.63L598.59,659.23L602.28,658.74L605.98,651.31L609.67,662.95L613.37,655.46L617.06,659.41L620.76,658.07L624.45,656.69L628.15,656.95L631.84,655.44L635.54,650.49L639.23,655.11L642.93,658.45L646.62,652.9L650.32,655.77L654.01,652.09L657.71,649.95L661.4,651.84L665.1,655.01L668.79,654.64L672.49,655.57L676.18,653.08L679.88,653.48L687.27,652.61L690.96,650.1L694.66,651.77L698.35,651.26L702.05,648.97L705.74,650.37L709.44,642.19L713.13,639.53L716.83,640.73L720.52,645.77L724.22,646.85L727.91,646.98L731.61,646.86L735.3,633.9L739,638.78L742.69,632.76L746.39,641.13L750.08,631.99L753.78,634.36L757.47,638.71L761.17,624.97L764.86,623.07L768.56,637.56L772.25,625.07L775.95,636.55L779.64,635.62L783.34,630.84L787.03,613.3L790.73,621.6L794.42,611.84L798.12,624.37L801.81,609.35L805.51,622.62L809.2,622.13L812.9,616.26L816.59,626.08L820.29,624.69L823.98,615.19L827.68,600.87L831.37,609.34L835.07,620.74L838.76,596.96L842.46,591.32L846.15,596.12L849.85,605.07L853.54,608.61L857.24,610.18L860.93,616.24L864.63,597.06L868.32,558.47L872.02,590.32L875.71,598.51L879.41,601.72L883.1,596.88L886.8,581.74L890.49,572.69L894.19,557.19L897.88,578.81L901.58,583.84L905.27,597.85L912.66,583.55L916.36,559.02L920.05,534.77L923.75,557.15L927.44,578.42L931.14,589.98L934.83,575.25L938.53,554.62L942.22,527.74L945.92,515.16L949.61,543.38L953.31,540.29L957,557.44" style="vector-effect: non-scaling-stroke; fill: none; stroke: rgb(31, 119, 180); stroke-opacity: 1; stroke-width: 2px; opacity: 1;"/></g><g class="points"/><g class="text"/></g></g></g><g class="overplot"/><path class="xlines-above crisp" d="M0,0" style="fill: none;"/><path class="ylines-above crisp" d="M0,0" style="fill: none;"/><g class="overlines-above"/><g class="xaxislayer-above"><g class="xtick"><text text-anchor="middle" x="0" y="741" transform="translate(71.08,0)" style="font-family: 'Open Sans', verdana, arial, sans-serif; font-size: 12px; fill: rgb(68, 68, 68); fill-opacity: 1; white-space: pre;">Mar 2020</text></g><g class="xtick"><text text-anchor="middle" x="0" y="741" transform="translate(185.63,0)" style="font-family: 'Open Sans', verdana, arial, sans-serif; font-size: 12px; fill: rgb(68, 68, 68); fill-opacity: 1; white-space: pre;">Apr 2020</text></g><g class="xtick"><text text-anchor="middle" x="0" y="741" transform="translate(296.48,0)" style="font-family: 'Open Sans', verdana, arial, sans-serif; font-size: 12px; fill: rgb(68, 68, 68); fill-opacity: 1; white-space: pre;">May 2020</text></g><g class="xtick"><text text-anchor="middle" x="0" y="741" transform="translate(411.02,0)" style="font-family: 'Open Sans', verdana, arial, sans-serif; font-size: 12px; fill: rgb(68, 68, 68); fill-opacity: 1; white-space: pre;">Jun 2020</text></g><g class="xtick"><text text-anchor="middle" x="0" y="741" transform="translate(521.87,0)" style="font-family: 'Open Sans', verdana, arial, sans-serif; font-size: 12px; fill: rgb(68, 68, 68); fill-opacity: 1; white-space: pre;">Jul 2020</text></g><g class="xtick"><text text-anchor="middle" x="0" y="741" transform="translate(636.42,0)" style="font-family: 'Open Sans', verdana, arial, sans-serif; font-size: 12px; fill: rgb(68, 68, 68); fill-opacity: 1; white-space: pre;">Aug 2020</text></g><g class="xtick"><text text-anchor="middle" x="0" y="741" transform="translate(750.96,0)" style="font-family: 'Open Sans', verdana, arial, sans-serif; font-size: 12px; fill: rgb(68, 68, 68); fill-opacity: 1; white-space: pre;">Sep 2020</text></g><g class="xtick"><text text-anchor="middle" x="0" y="741" transform="translate(861.81,0)" style="font-family: 'Open Sans', verdana, arial, sans-serif; font-size: 12px; fill: rgb(68, 68, 68); fill-opacity: 1; white-space: pre;">Oct 2020</text></g><g class="xtick"><text text-anchor="middle" x="0" y="741" transform="translate(976.36,0)" style="font-family: 'Open Sans', verdana, arial, sans-serif; font-size: 12px; fill: rgb(68, 68, 68); fill-opacity: 1; white-space: pre;">Nov 2020</text></g></g><g class="yaxislayer-above"><g class="ytick"><text text-anchor="end" x="59" y="4.199999999999999" transform="translate(0,692.85)" style="font-family: 'Open Sans', verdana, arial, sans-serif; font-size: 12px; fill: rgb(68, 68, 68); fill-opacity: 1; white-space: pre;">0</text></g><g class="ytick"><text text-anchor="end" x="59" y="4.199999999999999" transform="translate(0,532.65)" style="font-family: 'Open Sans', verdana, arial, sans-serif; font-size: 12px; fill: rgb(68, 68, 68); fill-opacity: 1; white-space: pre;">0.05</text></g><g class="ytick"><text text-anchor="end" x="59" y="4.199999999999999" transform="translate(0,372.46)" style="font-family: 'Open Sans', verdana, arial, sans-serif; font-size: 12px; fill: rgb(68, 68, 68); fill-opacity: 1; white-space: pre;">0.1</text></g><g class="ytick"><text text-anchor="end" x="59" y="4.199999999999999" transform="translate(0,212.26)" style="font-family: 'Open Sans', verdana, arial, sans-serif; font-size: 12px; fill: rgb(68, 68, 68); fill-opacity: 1; white-space: pre;">0.15</text></g><g class="ytick"><text text-anchor="end" x="59" y="4.199999999999999" transform="translate(0,52.06)" style="font-family: 'Open Sans', verdana, arial, sans-serif; font-size: 12px; fill: rgb(68, 68, 68); fill-opacity: 1; white-space: pre;">0.2</text></g></g><g class="overaxes-above"/></g></g><g class="polarlayer"/><g class="ternarylayer"/><g class="geolayer"/><g class="funnelarealayer"/><g class="pielayer"/><g class="treemaplayer"/><g class="sunburstlayer"/><g class="glimages"/><defs id="topdefs-f9aac8"><g class="clips"/></defs><g class="layer-above"><g class="imagelayer"/><g class="shapelayer"/></g><g class="infolayer"><g class="g-gtitle"><text class="gtitle" x="513.5" y="12.5" text-anchor="middle" dy="0em" style="font-family: 'Open Sans', verdana, arial, sans-serif; font-size: 17px; fill: rgb(68, 68, 68); opacity: 1; font-weight: normal; white-space: pre;">Positive cases as proportion of tested per day as of Nov 13, 2020</text></g><g class="g-xtitle" transform="translate(0,-15)"><text class="xtitle" x="538.5" y="780" text-anchor="middle" style="font-family: 'Open Sans', verdana, arial, sans-serif; font-size: 14px; fill: rgb(68, 68, 68); opacity: 1; font-weight: normal; white-space: pre;">Date</text></g><g class="g-ytitle"><text class="ytitle" transform="rotate(-90,22,376.5)" x="22" y="376.5" text-anchor="middle" style="font-family: 'Open Sans', verdana, arial, sans-serif; font-size: 14px; fill: rgb(68, 68, 68); opacity: 1; font-weight: normal; white-space: pre;">ratio of positive to tested</text></g></g></svg>