<svg class="main-svg" xmlns="http://www.w3.org/2000/svg" xmlns:xlink="http://www.w3.org/1999/xlink" width="1027" height="768" style="" viewBox="0 0 1027 768"><rect x="0" y="0" width="1027" height="768" style="fill: rgb(255, 255, 255); fill-opacity: 1;"/><defs id="defs-df0905"><g class="clips"><clipPath id="clipdf0905xyplot" class="plotclip"><rect width="957" height="703"/></clipPath><clipPath class="axesclip" id="clipdf0905x"><rect x="60" y="0" width="957" height="768"/></clipPath><clipPath class="axesclip" id="clipdf0905y"><rect x="0" y="25" width="1027" height="703"/></clipPath><clipPath class="axesclip" id="clipdf0905xy"><rect x="60" y="25" width="957" height="703"/></clipPath></g><g class="gradients"/></defs><g class="bglayer"/><g class="layer-below"><g class="imagelayer"/><g class="shapelayer"/></g><g class="cartesianlayer"><g class="subplot xy"><g class="layer-subplot"><g class="shapelayer"/><g class="imagelayer"/></g><g class="gridlayer"><g class="x"><path class="xgrid crisp" transform="translate(67.48,0)" d="M0,25v703" style="stroke: rgb(238, 238, 238); stroke-opacity: 1; stroke-width: 1px;"/><path class="xgrid crisp" transform="translate(219.5,0)" d="M0,25v703" style="stroke: rgb(238, 238, 238); stroke-opacity: 1; stroke-width: 1px;"/><path class="xgrid crisp" transform="translate(371.52,0)" d="M0,25v703" style="stroke: rgb(238, 238, 238); stroke-opacity: 1; stroke-width: 1px;"/><path class="xgrid crisp" transform="translate(526.04,0)" d="M0,25v703" style="stroke: rgb(238, 238, 238); stroke-opacity: 1; stroke-width: 1px;"/><path class="xgrid crisp" transform="translate(678.06,0)" d="M0,25v703" style="stroke: rgb(238, 238, 238); stroke-opacity: 1; stroke-width: 1px;"/><path class="xgrid crisp" transform="translate(830.09,0)" d="M0,25v703" style="stroke: rgb(238, 238, 238); stroke-opacity: 1; stroke-width: 1px;"/><path class="xgrid crisp" transform="translate(977.13,0)" d="M0,25v703" style="stroke: rgb(238, 238, 238); stroke-opacity: 1; stroke-width: 1px;"/></g><g class="y"><path class="ygrid crisp" transform="translate(0,532.65)" d="M60,0h957" style="stroke: rgb(238, 238, 238); stroke-opacity: 1; stroke-width: 1px;"/><path class="ygrid crisp" transform="translate(0,372.46)" d="M60,0h957" style="stroke: rgb(238, 238, 238); stroke-opacity: 1; stroke-width: 1px;"/><path class="ygrid crisp" transform="translate(0,212.26)" d="M60,0h957" style="stroke: rgb(238, 238, 238); stroke-opacity: 1; stroke-width: 1px;"/><path class="ygrid crisp" transform="translate(0,52.06)" d="M60,0h957" style="stroke: rgb(238, 238, 238); stroke-opacity: 1; stroke-width: 1px;"/></g></g><g class="zerolinelayer"><path class="yzl zl crisp" transform="translate(0,692.85)" d="M60,0h957" style="stroke: rgb(68, 68, 68); stroke-opacity: 1; stroke-width: 1px;"/></g><path class="xlines-below"/><path class="ylines-below"/><g class="overlines-below"/><g class="xaxislayer-below"/><g class="yaxislayer-below"/><g class="overaxes-below"/><g class="plot" transform="translate(60, 25)" clip-path="url('#clipdf0905xyplot')"><g class="scatterlayer mlayer"><g class="trace scatter tracea14310" style="stroke-miterlimit: 2; opacity: 1;"><g class="fills"/><g class="errorbars"/><g class="lines"><path class="js-line" d="M0,622.08L2.49,621.42L9.97,505.63L12.46,614.89L14.95,667.85L17.45,653.8L19.94,602.8L22.43,638.59L27.41,614.7L29.91,667.85L32.4,638.18L34.89,598.9L37.38,599.97L39.88,617.23L42.37,593.79L44.86,608L47.35,632.36L49.84,638.47L52.34,617.81L54.83,600.66L57.32,620.7L59.81,621.42L62.3,549.58L64.8,600.54L67.29,572.07L69.78,483.2L72.27,497.46L74.77,432.27L77.26,317.67L79.75,404.9L82.24,449.29L84.73,403.44L87.23,299.64L89.72,405.8L92.21,315.31L94.7,403.85L97.2,194.99L99.69,123.47L102.18,290.13L104.67,282.57L107.16,306.88L109.66,480.13L112.15,401.54L114.64,348.91L117.13,404.5L119.63,484.89L122.12,464.79L124.61,35.15L127.1,558.54L129.59,445.78L132.09,478.64L134.58,510.14L137.07,468.98L142.05,523.68L144.55,551.37L147.04,559.61L149.53,512.85L152.02,571.63L154.52,554.1L157.01,586.26L159.5,567.44L161.99,586.75L164.48,586.4L166.98,551.47L169.47,566L171.96,583.63L174.45,574.06L176.95,610.19L179.44,614.38L181.93,597.21L184.42,571.12L186.91,598.21L189.41,604.43L191.9,608.32L194.39,597.34L196.88,600.68L199.38,561.46L201.87,432.5L204.36,498.58L206.85,541.9L209.34,542.55L211.84,548.15L214.33,538.38L216.82,509.42L219.31,574.73L221.8,606.03L224.3,598.19L229.28,617.71L231.77,606.46L234.27,577.83L236.76,574.11L239.25,606.1L241.74,613.07L244.23,619.36L246.73,604.76L249.22,599.22L251.71,617.15L254.2,613.3L256.7,627.52L259.19,641.13L261.68,647.27L264.17,636.81L266.66,640.74L269.16,641.19L271.65,640.71L274.14,642.7L276.63,645.92L279.13,646.9L281.62,643.75L286.6,644.3L289.09,625.1L291.59,645.35L294.08,645.84L296.57,656.3L299.06,652.54L301.55,647.93L304.05,637.5L306.54,646.68L309.03,649.53L314.02,646L316.51,649.76L319,649.27L321.49,639.33L323.98,644.1L326.48,651.29L328.97,647.16L331.46,654.33L333.95,653.74L336.45,651.78L338.94,650.06L341.43,646.61L343.92,654.1L346.41,654.43L348.91,656.44L351.4,649.41L356.38,647.17L358.88,639.54L361.37,645.81L363.86,655.16L366.35,646.16L368.84,653.06L371.34,651.06L373.83,652.39L376.32,647.33L378.81,658.93L381.3,657.55L383.8,653.55L386.29,655.91L388.78,655.64L391.27,655.6L393.77,652.64L396.26,651.86L398.75,656.22L401.24,656.63L403.73,659.23L406.23,658.74L408.72,651.31L411.21,662.95L413.7,655.46L416.2,659.41L418.69,658.07L421.18,656.69L423.67,656.95L426.16,655.44L428.66,650.49L433.64,658.45L436.13,652.9L438.63,655.77L441.12,652.09L443.61,649.95L446.1,651.84L448.59,655.01L451.09,654.64L453.58,655.57L456.07,653.08L461.05,653.3L463.55,652.61L466.04,650.1L468.53,651.77L471.02,651.26L473.52,648.97L476.01,650.37L478.5,642.19L480.99,639.53L483.48,640.73L485.98,645.77L488.47,646.85L493.45,646.86L495.95,633.9L498.44,638.78L500.93,632.76L503.42,641.13L505.91,631.99L508.41,634.36L510.9,638.71L513.39,624.97L515.88,623.07L518.38,637.56L520.87,625.07L523.36,636.55L525.85,635.62L528.34,630.84L530.84,613.3L533.33,621.6L535.82,611.84L538.31,624.37L540.8,609.35L543.3,622.62L545.79,622.13L548.28,616.26L550.77,626.08L553.27,624.69L555.76,615.19L558.25,600.87L560.74,609.34L563.23,620.74L565.73,596.96L568.22,591.32L570.71,596.12L573.2,605.07L575.7,608.61L578.19,610.18L580.68,616.24L583.17,597.06L585.66,558.47L588.16,590.32L590.65,598.51L593.14,601.72L595.63,596.88L598.13,581.74L600.62,572.69L603.11,557.19L605.6,578.81L608.09,583.84L610.59,597.85L615.57,583.55L618.06,559.02L620.55,534.77L623.05,557.15L625.54,578.42L628.03,589.98L630.52,575.25L633.02,554.62L635.51,527.74L638,515.16L640.49,543.38L642.98,540.29L645.48,557.44L647.97,554.88L650.46,573.11L652.95,525L655.45,516.66L657.94,532.08L660.43,575.19L662.92,573.54L665.41,558.83L667.91,561.9L670.4,531.98L672.89,548.35L675.38,545.91L677.88,568.32L682.86,561.88L685.35,566.43L687.84,525.89L690.34,509.97L692.83,543.03L695.32,557.32L697.81,566.01L700.3,567.58L702.8,563.81L705.29,531.65L707.78,530.86L710.27,543.11L712.77,565.06L715.26,573.94L717.75,575.9L720.24,575.51L722.73,558.98L725.23,483.63L727.72,528.53L730.21,533.92L732.7,560.34L735.2,555.49L737.69,560.95L740.18,543.05L742.67,511.99L745.16,531.69L747.66,546.47L750.15,555.31L752.64,529.24L755.13,514.11L757.63,510.83L760.12,428.06L762.61,429L765.1,500.87L767.59,553.82L770.09,492.37L772.58,480.92L775.07,400.04L777.56,382.75L780.05,462.85L782.55,496.43L785.04,477.4L787.53,516.53L790.02,464.99L792.52,437.37L795.01,460.25L797.5,481.58L799.99,518.12L802.48,542.24L804.98,535.31L807.47,485.67L809.96,462.9L814.95,511.21L817.44,547.82L819.93,548.98L822.42,548.74L824.91,509.64L827.41,493.44L829.9,486.36L832.39,570.9L834.88,564.15L837.38,582.6L839.87,556.94L842.36,547.88L844.85,460.05L847.34,584.25L849.84,596.21L852.33,590.17L854.82,582.53L857.31,596.52L859.8,575.5L862.3,524.65L867.28,602.43L869.77,623.85L872.27,612.26L874.76,596.97L877.25,603.31L879.74,566.1L882.23,560.6L884.73,587.98L887.22,608.64L889.71,611.49L892.2,599.06L894.7,595.56L897.19,559.07L899.68,547.61L902.17,606.29L904.66,612.9L907.16,604.92L909.65,603.95L912.14,598.67L914.63,574.24L917.13,567.25L919.62,609.51L922.11,619.33L924.6,606L927.09,613L929.59,578.51L932.08,530.56L934.57,553.71L937.06,589.98L939.55,610.13L944.54,587.36L947.03,550.3L949.52,548.27L952.02,547.22L954.51,569.5L957,582.88" style="vector-effect: non-scaling-stroke; fill: none; stroke: rgb(31, 119, 180); stroke-opacity: 1; stroke-width: 2px; opacity: 1;"/></g><g class="points"/><g class="text"/></g></g></g><g class="overplot"/><path class="xlines-above crisp" d="M0,0" style="fill: none;"/><path class="ylines-above crisp" d="M0,0" style="fill: none;"/><g class="overlines-above"/><g class="xaxislayer-above"><g class="xtick"><text text-anchor="middle" x="0" y="741" transform="translate(67.48,0)" style="font-family: 'Open Sans', verdana, arial, sans-serif; font-size: 12px; fill: rgb(68, 68, 68); fill-opacity: 1; white-space: pre;">Mar 2020</text></g><g class="xtick"><text text-anchor="middle" x="0" y="741" transform="translate(219.5,0)" style="font-family: 'Open Sans', verdana, arial, sans-serif; font-size: 12px; fill: rgb(68, 68, 68); fill-opacity: 1; white-space: pre;">May 2020</text></g><g class="xtick"><text text-anchor="middle" x="0" y="741" transform="translate(371.52,0)" style="font-family: 'Open Sans', verdana, arial, sans-serif; font-size: 12px; fill: rgb(68, 68, 68); fill-opacity: 1; white-space: pre;">Jul 2020</text></g><g class="xtick"><text text-anchor="middle" x="0" y="741" transform="translate(526.04,0)" style="font-family: 'Open Sans', verdana, arial, sans-serif; font-size: 12px; fill: rgb(68, 68, 68); fill-opacity: 1; white-space: pre;">Sep 2020</text></g><g class="xtick"><text text-anchor="middle" x="0" y="741" transform="translate(678.06,0)" style="font-family: 'Open Sans', verdana, arial, sans-serif; font-size: 12px; fill: rgb(68, 68, 68); fill-opacity: 1; white-space: pre;">Nov 2020</text></g><g class="xtick"><text text-anchor="middle" x="0" y="741" transform="translate(830.09,0)" style="font-family: 'Open Sans', verdana, arial, sans-serif; font-size: 12px; fill: rgb(68, 68, 68); fill-opacity: 1; white-space: pre;">Jan 2021</text></g><g class="xtick"><text text-anchor="middle" x="0" y="741" transform="translate(977.13,0)" style="font-family: 'Open Sans', verdana, arial, sans-serif; font-size: 12px; fill: rgb(68, 68, 68); fill-opacity: 1; white-space: pre;">Mar 2021</text></g></g><g class="yaxislayer-above"><g class="ytick"><text text-anchor="end" x="59" y="4.199999999999999" transform="translate(0,692.85)" style="font-family: 'Open Sans', verdana, arial, sans-serif; font-size: 12px; fill: rgb(68, 68, 68); fill-opacity: 1; white-space: pre;">0</text></g><g class="ytick"><text text-anchor="end" x="59" y="4.199999999999999" transform="translate(0,532.65)" style="font-family: 'Open Sans', verdana, arial, sans-serif; font-size: 12px; fill: rgb(68, 68, 68); fill-opacity: 1; white-space: pre;">0.05</text></g><g class="ytick"><text text-anchor="end" x="59" y="4.199999999999999" transform="translate(0,372.46)" style="font-family: 'Open Sans', verdana, arial, sans-serif; font-size: 12px; fill: rgb(68, 68, 68); fill-opacity: 1; white-space: pre;">0.1</text></g><g class="ytick"><text text-anchor="end" x="59" y="4.199999999999999" transform="translate(0,212.26)" style="font-family: 'Open Sans', verdana, arial, sans-serif; font-size: 12px; fill: rgb(68, 68, 68); fill-opacity: 1; white-space: pre;">0.15</text></g><g class="ytick"><text text-anchor="end" x="59" y="4.199999999999999" transform="translate(0,52.06)" style="font-family: 'Open Sans', verdana, arial, sans-serif; font-size: 12px; fill: rgb(68, 68, 68); fill-opacity: 1; white-space: pre;">0.2</text></g></g><g class="overaxes-above"/></g></g><g class="polarlayer"/><g class="ternarylayer"/><g class="geolayer"/><g class="funnelarealayer"/><g class="pielayer"/><g class="treemaplayer"/><g class="sunburstlayer"/><g class="glimages"/><defs id="topdefs-df0905"><g class="clips"/></defs><g class="layer-above"><g class="imagelayer"/><g class="shapelayer"/></g><g class="infolayer"><g class="g-gtitle"><text class="gtitle" x="513.5" y="12.5" text-anchor="middle" dy="0em" style="font-family: 'Open Sans', verdana, arial, sans-serif; font-size: 17px; fill: rgb(68, 68, 68); opacity: 1; font-weight: normal; white-space: pre;">Positive cases as proportion of tested per day as of Mar 18, 2021</text></g><g class="g-xtitle" transform="translate(0,-15)"><text class="xtitle" x="538.5" y="780" text-anchor="middle" style="font-family: 'Open Sans', verdana, arial, sans-serif; font-size: 14px; fill: rgb(68, 68, 68); opacity: 1; font-weight: normal; white-space: pre;">Date</text></g><g class="g-ytitle"><text class="ytitle" transform="rotate(-90,22,376.5)" x="22" y="376.5" text-anchor="middle" style="font-family: 'Open Sans', verdana, arial, sans-serif; font-size: 14px; fill: rgb(68, 68, 68); opacity: 1; font-weight: normal; white-space: pre;">ratio of positive to tested</text></g></g></svg>