<svg class="main-svg" xmlns="http://www.w3.org/2000/svg" xmlns:xlink="http://www.w3.org/1999/xlink" width="1027" height="768" style="" viewBox="0 0 1027 768"><rect x="0" y="0" width="1027" height="768" style="fill: rgb(255, 255, 255); fill-opacity: 1;"/><defs id="defs-3a2f06"><g class="clips"><clipPath id="clip3a2f06xyplot" class="plotclip"><rect width="838" height="703"/></clipPath><clipPath class="axesclip" id="clip3a2f06x"><rect x="60" y="0" width="838" height="768"/></clipPath><clipPath class="axesclip" id="clip3a2f06y"><rect x="0" y="25" width="1027" height="703"/></clipPath><clipPath class="axesclip" id="clip3a2f06xy"><rect x="60" y="25" width="838" height="703"/></clipPath></g><g class="gradients"/></defs><g class="bglayer"/><g class="layer-below"><g class="imagelayer"/><g class="shapelayer"/></g><g class="cartesianlayer"><g class="subplot xy"><g class="layer-subplot"><g class="shapelayer"/><g class="imagelayer"/></g><g class="gridlayer"><g class="x"><path class="xgrid crisp" transform="translate(64.78,0)" d="M0,25v703" style="stroke: rgb(238, 238, 238); stroke-opacity: 1; stroke-width: 1px;"/><path class="xgrid crisp" transform="translate(161.95999999999998,0)" d="M0,25v703" style="stroke: rgb(238, 238, 238); stroke-opacity: 1; stroke-width: 1px;"/><path class="xgrid crisp" transform="translate(259.14,0)" d="M0,25v703" style="stroke: rgb(238, 238, 238); stroke-opacity: 1; stroke-width: 1px;"/><path class="xgrid crisp" transform="translate(357.92,0)" d="M0,25v703" style="stroke: rgb(238, 238, 238); stroke-opacity: 1; stroke-width: 1px;"/><path class="xgrid crisp" transform="translate(455.1,0)" d="M0,25v703" style="stroke: rgb(238, 238, 238); stroke-opacity: 1; stroke-width: 1px;"/><path class="xgrid crisp" transform="translate(552.29,0)" d="M0,25v703" style="stroke: rgb(238, 238, 238); stroke-opacity: 1; stroke-width: 1px;"/><path class="xgrid crisp" transform="translate(646.28,0)" d="M0,25v703" style="stroke: rgb(238, 238, 238); stroke-opacity: 1; stroke-width: 1px;"/><path class="xgrid crisp" transform="translate(743.46,0)" d="M0,25v703" style="stroke: rgb(238, 238, 238); stroke-opacity: 1; stroke-width: 1px;"/><path class="xgrid crisp" transform="translate(840.65,0)" d="M0,25v703" style="stroke: rgb(238, 238, 238); stroke-opacity: 1; stroke-width: 1px;"/></g><g class="y"><path class="ygrid crisp" transform="translate(0,618.38)" d="M60,0h838" style="stroke: rgb(238, 238, 238); stroke-opacity: 1; stroke-width: 1px;"/><path class="ygrid crisp" transform="translate(0,543.9)" d="M60,0h838" style="stroke: rgb(238, 238, 238); stroke-opacity: 1; stroke-width: 1px;"/><path class="ygrid crisp" transform="translate(0,469.43)" d="M60,0h838" style="stroke: rgb(238, 238, 238); stroke-opacity: 1; stroke-width: 1px;"/><path class="ygrid crisp" transform="translate(0,394.95)" d="M60,0h838" style="stroke: rgb(238, 238, 238); stroke-opacity: 1; stroke-width: 1px;"/><path class="ygrid crisp" transform="translate(0,320.48)" d="M60,0h838" style="stroke: rgb(238, 238, 238); stroke-opacity: 1; stroke-width: 1px;"/><path class="ygrid crisp" transform="translate(0,246)" d="M60,0h838" style="stroke: rgb(238, 238, 238); stroke-opacity: 1; stroke-width: 1px;"/><path class="ygrid crisp" transform="translate(0,171.53)" d="M60,0h838" style="stroke: rgb(238, 238, 238); stroke-opacity: 1; stroke-width: 1px;"/><path class="ygrid crisp" transform="translate(0,97.05)" d="M60,0h838" style="stroke: rgb(238, 238, 238); stroke-opacity: 1; stroke-width: 1px;"/></g></g><g class="zerolinelayer"><path class="yzl zl crisp" transform="translate(0,692.85)" d="M60,0h838" style="stroke: rgb(68, 68, 68); stroke-opacity: 1; stroke-width: 1px;"/></g><path class="xlines-below"/><path class="ylines-below"/><g class="overlines-below"/><g class="xaxislayer-below"/><g class="yaxislayer-below"/><g class="overaxes-below"/><g class="plot" transform="translate(60, 25)" clip-path="url('#clip3a2f06xyplot')"><g class="scatterlayer mlayer"><g class="trace scatter traceb4bf58" style="stroke-miterlimit: 2; opacity: 1;"><g class="fills"/><g class="errorbars"/><g class="lines"><path class="js-line" d="M0,667.85L1.59,614.65L3.19,613.88L4.78,479.31L6.37,606.3L7.97,667.85L9.56,635.19L11.15,592.24L12.75,633.84L14.34,648.85L15.93,568.99L17.52,656.99L19.12,633.37L20.71,587.72L22.3,588.96L23.9,609.02L25.49,581.78L27.08,598.29L28.68,622.85L30.27,633.7L31.86,608.34L33.46,589.76L35.05,611.12L36.64,608.98L38.24,528.61L39.83,587.74L41.42,550.68L43.02,450.69L44.61,465.31L46.2,392.22L47.79,376.2L49.39,182.87L50.98,362.24L52.57,413.84L54.17,360.54L55.76,239.9L57.35,363.29L58.95,258.12L60.54,361.01L62.13,118.28L63.73,35.15L65.32,228.86L66.91,220.07L68.51,248.32L70.1,449.67L73.29,297.17L74.88,361.77L76.47,455.21L78.06,431.85L79.66,476.98L81.25,448.51L82.84,409.75L84.44,447.94L86.03,484.56L87.62,436.71L92.4,532.47L94,542.04L95.59,487.7L97.18,556.02L98.78,535.64L100.37,573.02L101.96,551.15L103.56,573.59L105.15,573.19L106.74,532.59L109.93,569.97L111.52,558.85L113.11,600.84L114.71,605.71L116.3,585.75L117.89,555.43L119.49,586.92L121.08,594.14L122.67,598.67L124.27,585.91L125.86,589.78L127.45,544.2L129.05,394.32L130.64,471.12L132.23,521.47L133.83,522.22L135.42,528.73L137.01,517.37L138.6,483.71L140.2,559.63L141.79,596L143.38,586.89L146.57,609.58L148.16,596.5L149.76,563.23L151.35,558.9L152.94,596.08L154.54,604.18L156.13,611.49L157.72,594.52L159.32,588.09L160.91,608.93L162.5,604.45L164.1,620.98L165.69,636.79L167.28,643.93L168.87,631.77L170.47,636.34L172.06,636.86L173.65,636.31L175.25,638.62L176.84,642.37L178.43,643.5L180.03,639.84L183.21,640.47L184.81,618.17L186.4,641.7L187.99,642.27L189.59,654.42L191.18,650.06L192.77,644.7L194.37,632.57L195.96,643.24L197.55,646.56L200.74,642.45L202.33,646.82L203.92,646.25L205.52,634.71L207.11,640.25L208.7,648.61L210.3,643.8L211.89,652.13L213.48,651.45L215.08,649.18L216.67,647.18L218.26,643.16L219.86,651.87L221.45,652.25L223.04,654.59L224.63,646.42L227.82,643.81L229.41,634.95L231.01,642.24L232.6,653.1L234.19,642.65L235.79,650.67L237.38,648.34L238.97,649.88L240.57,644L242.16,657.49L243.75,655.88L245.35,651.24L246.94,653.98L248.53,653.66L250.13,653.62L251.72,650.17L253.31,649.26L254.9,654.34L256.5,654.81L258.09,657.83L259.68,657.26L261.28,648.63L262.87,662.16L264.46,653.45L266.06,658.05L267.65,656.48L269.24,654.88L270.84,655.18L272.43,653.43L274.02,647.67L277.21,656.93L278.8,650.47L280.4,653.82L281.99,649.54L283.58,647.04L285.17,649.24L286.77,652.93L288.36,652.5L289.95,653.57L291.55,650.68L294.73,650.94L296.33,650.14L297.92,647.22L299.51,649.16L301.11,648.57L302.7,645.9L304.29,647.53L305.89,638.03L307.48,634.93L309.07,636.33L310.67,642.19L312.26,643.45L315.44,643.46L317.04,628.39L318.63,634.06L320.22,627.07L321.82,636.8L323.41,626.17L325,628.93L326.6,633.98L328.19,618.01L329.78,615.81L331.38,632.65L332.97,618.13L334.56,631.47L336.16,630.39L337.75,624.84L339.34,604.45L340.94,614.09L342.53,602.76L344.12,617.32L345.71,599.86L347.31,615.28L348.9,614.71L350.49,607.89L352.09,619.3L353.68,617.69L355.27,606.64L356.87,590L358.46,599.84L360.05,613.1L361.65,585.46L363.24,578.91L364.83,584.49L366.43,594.89L368.02,599L369.61,600.82L371.21,607.87L372.8,585.58L374.39,540.73L375.98,577.74L377.58,587.26L379.17,590.99L380.76,585.36L385.54,539.24L387.14,564.36L388.73,570.21L390.32,586.49L393.51,569.88L395.1,541.36L396.7,513.18L398.29,539.19L401.48,577.35L403.07,560.22L407.85,490.39L409.44,523.19L411.03,519.59L412.63,539.52L414.22,536.55L415.81,557.74L417.41,501.82L419,492.13L420.59,510.06L422.19,560.16L423.78,558.24L425.37,541.15L426.97,544.71L428.56,509.94L430.15,528.97L431.75,526.13L433.34,552.17L434.93,548.83L436.52,544.69L438.12,549.98L439.71,502.86L441.3,484.35L442.9,522.78L444.49,539.39L446.08,549.49L447.68,551.31L449.27,546.93L450.86,509.55L452.46,508.63L454.05,522.88L455.64,548.38L457.24,558.71L458.83,560.98L460.42,560.53L462.02,541.31L463.61,453.74L465.2,505.92L466.79,512.19L468.39,542.9L469.98,537.26L471.57,543.6L473.17,522.81L474.76,486.7L476.35,509.59L479.54,537.05L481.13,506.75L482.73,489.16L484.32,485.36L485.91,389.16L487.51,390.26L490.69,535.32L492.29,463.9L493.88,450.6L495.47,356.6L497.06,336.49L498.66,429.6L500.25,468.62L501.84,446.5L503.44,491.98L505.03,432.08L506.62,399.98L508.22,426.57L509.81,451.36L511.4,493.83L513,521.87L514.59,513.81L516.18,456.12L517.78,429.65L522.56,528.35L524.15,529.7L525.74,529.41L527.33,483.97L528.93,465.14L530.52,456.92L532.11,555.18L533.71,547.32L535.3,568.77L536.89,538.94L538.49,528.41L540.08,426.34L541.67,570.69L543.27,584.59L546.45,568.69L548.05,584.94L549.64,560.52L551.23,501.42L556.01,616.71L557.6,603.24L559.2,585.47L560.79,592.84L562.38,549.59L563.98,543.2L567.16,599.03L568.76,602.34L570.35,587.9L571.94,583.83L573.54,541.43L575.13,528.1L576.72,596.3L578.32,603.98L579.91,594.71L581.5,593.58L583.1,587.45L584.69,559.06L586.28,550.94L587.87,600.05L589.47,611.46L591.06,595.96L592.65,604.1L594.25,564.02L595.84,508.29L597.43,535.2L600.62,600.77L602.21,588.84L603.81,574.3L605.4,531.23L608.59,527.65L610.18,553.55L611.77,569.1L613.37,552.09L614.96,537.08L616.55,532.39L618.14,464.35L619.74,491.02L621.33,555.27L622.92,520.33L624.52,516.7L626.11,518.12L627.7,486.36L629.3,470.3L630.89,426.7L632.48,502.48L634.08,514.99L635.67,483.32L637.26,478.32L638.86,423.7L640.45,368.63L642.04,363.83L645.23,475.67L646.82,411.54L648.41,436.75L650.01,373.53L651.6,325.93L653.19,343.76L654.79,382.38L656.38,398.85L661.16,373.56L662.75,281.61L664.35,349.65L665.94,365.51L667.53,415.1L669.13,369.39L670.72,375.58L672.31,353.09L673.9,281.41L675.5,310.26L677.09,409.68L678.68,414.69L680.28,395.13L681.87,399.81L683.46,361.08L685.06,282.22L688.24,428.56L689.84,432.25L693.02,444.82L694.62,357.12L696.21,295.68L697.8,393.23L699.4,478.73L700.99,452.19L702.58,468.14L704.17,440.48L705.77,420.78L707.36,338.01L708.95,405.25L710.55,513.95L712.14,471.03L713.73,478.28L715.33,474.64L716.92,466.2L718.51,400.64L720.11,438.33L723.29,555.76L724.89,551.85L726.48,550.56L728.07,523.05L729.67,480.7L731.26,539.39L732.85,581.93L734.44,573.34L736.04,562.34L737.63,568.26L739.22,558.78L740.82,539.04L742.41,568.5L744,617.6L745.6,597.95L747.19,594.02L748.78,590.28L750.38,572.65L751.97,545.35L753.56,603.63L755.16,616.92L756.75,622.61L759.94,615.74L761.53,611.63L763.12,595.14L764.71,602.18L766.31,633.15L767.9,630.5L769.49,631.96L771.09,617.57L772.68,610.16L774.27,608.02L777.46,642.71L779.05,628.58L780.65,638.25L782.24,622.28L783.83,626.08L785.43,618.96L787.02,610.37L788.61,641.07L790.21,637.61L791.8,641.74L793.39,639.72L794.98,636.39L796.58,641.21L798.17,636.76L799.76,648.26L801.36,650.85L802.95,646.8L804.54,637.21L806.14,623.33L807.73,626L809.32,633.04L810.92,643.62L812.51,632.7L814.1,631.66L815.7,634.76L817.29,621.78L818.88,630.71L820.48,632.64L822.07,639.19L823.66,626.06L825.25,627.76L826.85,617.58" style="vector-effect: non-scaling-stroke; fill: none; stroke: rgb(31, 119, 180); stroke-opacity: 1; stroke-width: 2px; opacity: 1;"/></g><g class="points"/><g class="text"/></g><g class="trace scatter tracebf6263" style="stroke-miterlimit: 2; opacity: 1;"><g class="fills"/><g class="errorbars"/><g class="lines"><path class="js-line" d="M826.85,617.58L830.03,615.2L831.63,621.26L834.81,617.74L836.41,609.25L838,603.93" style="vector-effect: non-scaling-stroke; fill: none; stroke: rgb(255, 127, 14); stroke-opacity: 1; stroke-width: 2px; opacity: 1;"/></g><g class="points"/><g class="text"/></g></g></g><g class="overplot"/><path class="xlines-above crisp" style="fill: none;" d="M0,0"/><path class="ylines-above crisp" style="fill: none;" d="M0,0"/><g class="overlines-above"/><g class="xaxislayer-above"><g class="xtick"><text text-anchor="middle" x="0" y="741" transform="translate(64.78,0)" style="font-family: 'Open Sans', verdana, arial, sans-serif; font-size: 12px; fill: rgb(68, 68, 68); fill-opacity: 1; white-space: pre;">Mar 2020</text></g><g class="xtick"><text text-anchor="middle" x="0" y="741" transform="translate(161.95999999999998,0)" style="font-family: 'Open Sans', verdana, arial, sans-serif; font-size: 12px; fill: rgb(68, 68, 68); fill-opacity: 1; white-space: pre;">May 2020</text></g><g class="xtick"><text text-anchor="middle" x="0" y="741" transform="translate(259.14,0)" style="font-family: 'Open Sans', verdana, arial, sans-serif; font-size: 12px; fill: rgb(68, 68, 68); fill-opacity: 1; white-space: pre;">Jul 2020</text></g><g class="xtick"><text text-anchor="middle" x="0" y="741" transform="translate(357.92,0)" style="font-family: 'Open Sans', verdana, arial, sans-serif; font-size: 12px; fill: rgb(68, 68, 68); fill-opacity: 1; white-space: pre;">Sep 2020</text></g><g class="xtick"><text text-anchor="middle" x="0" y="741" transform="translate(455.1,0)" style="font-family: 'Open Sans', verdana, arial, sans-serif; font-size: 12px; fill: rgb(68, 68, 68); fill-opacity: 1; white-space: pre;">Nov 2020</text></g><g class="xtick"><text text-anchor="middle" x="0" y="741" transform="translate(552.29,0)" style="font-family: 'Open Sans', verdana, arial, sans-serif; font-size: 12px; fill: rgb(68, 68, 68); fill-opacity: 1; white-space: pre;">Jan 2021</text></g><g class="xtick"><text text-anchor="middle" x="0" y="741" transform="translate(646.28,0)" style="font-family: 'Open Sans', verdana, arial, sans-serif; font-size: 12px; fill: rgb(68, 68, 68); fill-opacity: 1; white-space: pre;">Mar 2021</text></g><g class="xtick"><text text-anchor="middle" x="0" y="741" transform="translate(743.46,0)" style="font-family: 'Open Sans', verdana, arial, sans-serif; font-size: 12px; fill: rgb(68, 68, 68); fill-opacity: 1; white-space: pre;">May 2021</text></g><g class="xtick"><text text-anchor="middle" x="0" y="741" transform="translate(840.65,0)" style="font-family: 'Open Sans', verdana, arial, sans-serif; font-size: 12px; fill: rgb(68, 68, 68); fill-opacity: 1; white-space: pre;">Jul 2021</text></g></g><g class="yaxislayer-above"><g class="ytick"><text text-anchor="end" x="59" y="4.199999999999999" transform="translate(0,692.85)" style="font-family: 'Open Sans', verdana, arial, sans-serif; font-size: 12px; fill: rgb(68, 68, 68); fill-opacity: 1; white-space: pre;">0</text></g><g class="ytick"><text text-anchor="end" x="59" y="4.199999999999999" transform="translate(0,618.38)" style="font-family: 'Open Sans', verdana, arial, sans-serif; font-size: 12px; fill: rgb(68, 68, 68); fill-opacity: 1; white-space: pre;">0.02</text></g><g class="ytick"><text text-anchor="end" x="59" y="4.199999999999999" transform="translate(0,543.9)" style="font-family: 'Open Sans', verdana, arial, sans-serif; font-size: 12px; fill: rgb(68, 68, 68); fill-opacity: 1; white-space: pre;">0.04</text></g><g class="ytick"><text text-anchor="end" x="59" y="4.199999999999999" transform="translate(0,469.43)" style="font-family: 'Open Sans', verdana, arial, sans-serif; font-size: 12px; fill: rgb(68, 68, 68); fill-opacity: 1; white-space: pre;">0.06</text></g><g class="ytick"><text text-anchor="end" x="59" y="4.199999999999999" transform="translate(0,394.95)" style="font-family: 'Open Sans', verdana, arial, sans-serif; font-size: 12px; fill: rgb(68, 68, 68); fill-opacity: 1; white-space: pre;">0.08</text></g><g class="ytick"><text text-anchor="end" x="59" y="4.199999999999999" transform="translate(0,320.48)" style="font-family: 'Open Sans', verdana, arial, sans-serif; font-size: 12px; fill: rgb(68, 68, 68); fill-opacity: 1; white-space: pre;">0.1</text></g><g class="ytick"><text text-anchor="end" x="59" y="4.199999999999999" transform="translate(0,246)" style="font-family: 'Open Sans', verdana, arial, sans-serif; font-size: 12px; fill: rgb(68, 68, 68); fill-opacity: 1; white-space: pre;">0.12</text></g><g class="ytick"><text text-anchor="end" x="59" y="4.199999999999999" transform="translate(0,171.53)" style="font-family: 'Open Sans', verdana, arial, sans-serif; font-size: 12px; fill: rgb(68, 68, 68); fill-opacity: 1; white-space: pre;">0.14</text></g><g class="ytick"><text text-anchor="end" x="59" y="4.199999999999999" transform="translate(0,97.05)" style="font-family: 'Open Sans', verdana, arial, sans-serif; font-size: 12px; fill: rgb(68, 68, 68); fill-opacity: 1; white-space: pre;">0.16</text></g></g><g class="overaxes-above"/></g></g><g class="polarlayer"/><g class="ternarylayer"/><g class="geolayer"/><g class="funnelarealayer"/><g class="pielayer"/><g class="treemaplayer"/><g class="sunburstlayer"/><g class="glimages"/><defs id="topdefs-3a2f06"><g class="clips"/><clipPath id="legend3a2f06"><rect width="102" height="48" x="0" y="0"/></clipPath></defs><g class="layer-above"><g class="imagelayer"/><g class="shapelayer"/></g><g class="infolayer"><g class="legend" pointer-events="all" transform="translate(914.76, 25)"><rect class="bg" shape-rendering="crispEdges" style="stroke: rgb(68, 68, 68); stroke-opacity: 1; fill: rgb(255, 255, 255); fill-opacity: 1; stroke-width: 0px;" width="102" height="48" x="0" y="0"/><g class="scrollbox" transform="translate(0, 0)" clip-path="url('#legend3a2f06')"><g class="groups"><g class="traces" style="opacity: 1;" transform="translate(0, 14.5)"><text class="legendtext" text-anchor="start" x="40" y="4.680000000000001" style="font-family: 'Open Sans', verdana, arial, sans-serif; font-size: 12px; fill: rgb(68, 68, 68); fill-opacity: 1; white-space: pre;">actuals</text><g class="layers" style="opacity: 1;"><g class="legendfill"/><g class="legendlines"><path class="js-line" d="M5,0h30" style="fill: none; stroke: rgb(31, 119, 180); stroke-opacity: 1; stroke-width: 2px;"/></g><g class="legendsymbols"><g class="legendpoints"/></g></g><rect class="legendtoggle" x="0" y="-9.5" width="96.21875" height="19" style="fill: rgb(0, 0, 0); fill-opacity: 0;"/></g><g class="traces" style="opacity: 1;" transform="translate(0, 33.5)"><text class="legendtext" text-anchor="start" x="40" y="4.680000000000001" style="font-family: 'Open Sans', verdana, arial, sans-serif; font-size: 12px; fill: rgb(68, 68, 68); fill-opacity: 1; white-space: pre;">forecasts</text><g class="layers" style="opacity: 1;"><g class="legendfill"/><g class="legendlines"><path class="js-line" d="M5,0h30" style="fill: none; stroke: rgb(255, 127, 14); stroke-opacity: 1; stroke-width: 2px;"/></g><g class="legendsymbols"><g class="legendpoints"/></g></g><rect class="legendtoggle" x="0" y="-9.5" width="96.21875" height="19" style="fill: rgb(0, 0, 0); fill-opacity: 0;"/></g></g></g><rect class="scrollbar" rx="20" ry="3" width="0" height="0" style="fill: rgb(128, 139, 164); fill-opacity: 1;" x="0" y="0"/></g><g class="g-gtitle"><text class="gtitle" x="513.5" y="12.5" text-anchor="middle" dy="0em" style="font-family: 'Open Sans', verdana, arial, sans-serif; font-size: 17px; fill: rgb(68, 68, 68); opacity: 1; font-weight: normal; white-space: pre;">Positive cases as proportion of tested per day as of Jul 31, 2021. Including a 7-day forecast of positivity rate.</text></g><g class="g-xtitle" transform="translate(0,-15)"><text class="xtitle" x="479" y="780" text-anchor="middle" style="font-family: 'Open Sans', verdana, arial, sans-serif; font-size: 14px; fill: rgb(68, 68, 68); opacity: 1; font-weight: normal; white-space: pre;">Date</text></g><g class="g-ytitle"><text class="ytitle" transform="rotate(-90,22,376.5)" x="22" y="376.5" text-anchor="middle" style="font-family: 'Open Sans', verdana, arial, sans-serif; font-size: 14px; fill: rgb(68, 68, 68); opacity: 1; font-weight: normal; white-space: pre;">ratio of positive to tested</text></g></g></svg>