<svg class="main-svg" xmlns="http://www.w3.org/2000/svg" xmlns:xlink="http://www.w3.org/1999/xlink" width="1027" height="768" style="" viewBox="0 0 1027 768"><rect x="0" y="0" width="1027" height="768" style="fill: rgb(255, 255, 255); fill-opacity: 1;"/><defs id="defs-24392c"><g class="clips"><clipPath id="clip24392cxyplot" class="plotclip"><rect width="948" height="703"/></clipPath><clipPath class="axesclip" id="clip24392cx"><rect x="60" y="0" width="948" height="768"/></clipPath><clipPath class="axesclip" id="clip24392cy"><rect x="0" y="25" width="1027" height="703"/></clipPath><clipPath class="axesclip" id="clip24392cxy"><rect x="60" y="25" width="948" height="703"/></clipPath></g><g class="gradients"/></defs><g class="bglayer"/><g class="layer-below"><g class="imagelayer"/><g class="shapelayer"/></g><g class="cartesianlayer"><g class="subplot xy"><g class="layer-subplot"><g class="shapelayer"/><g class="imagelayer"/></g><g class="gridlayer"><g class="x"><path class="xgrid crisp" transform="translate(70.01,0)" d="M0,25v703" style="stroke: rgb(238, 238, 238); stroke-opacity: 1; stroke-width: 1px;"/><path class="xgrid crisp" transform="translate(173.49,0)" d="M0,25v703" style="stroke: rgb(238, 238, 238); stroke-opacity: 1; stroke-width: 1px;"/><path class="xgrid crisp" transform="translate(273.63,0)" d="M0,25v703" style="stroke: rgb(238, 238, 238); stroke-opacity: 1; stroke-width: 1px;"/><path class="xgrid crisp" transform="translate(377.11,0)" d="M0,25v703" style="stroke: rgb(238, 238, 238); stroke-opacity: 1; stroke-width: 1px;"/><path class="xgrid crisp" transform="translate(477.25,0)" d="M0,25v703" style="stroke: rgb(238, 238, 238); stroke-opacity: 1; stroke-width: 1px;"/><path class="xgrid crisp" transform="translate(580.73,0)" d="M0,25v703" style="stroke: rgb(238, 238, 238); stroke-opacity: 1; stroke-width: 1px;"/><path class="xgrid crisp" transform="translate(684.21,0)" d="M0,25v703" style="stroke: rgb(238, 238, 238); stroke-opacity: 1; stroke-width: 1px;"/><path class="xgrid crisp" transform="translate(784.35,0)" d="M0,25v703" style="stroke: rgb(238, 238, 238); stroke-opacity: 1; stroke-width: 1px;"/><path class="xgrid crisp" transform="translate(887.83,0)" d="M0,25v703" style="stroke: rgb(238, 238, 238); stroke-opacity: 1; stroke-width: 1px;"/><path class="xgrid crisp" transform="translate(987.97,0)" d="M0,25v703" style="stroke: rgb(238, 238, 238); stroke-opacity: 1; stroke-width: 1px;"/></g><g class="y"><path class="ygrid crisp" transform="translate(0,532.65)" d="M60,0h948" style="stroke: rgb(238, 238, 238); stroke-opacity: 1; stroke-width: 1px;"/><path class="ygrid crisp" transform="translate(0,372.46)" d="M60,0h948" style="stroke: rgb(238, 238, 238); stroke-opacity: 1; stroke-width: 1px;"/><path class="ygrid crisp" transform="translate(0,212.26)" d="M60,0h948" style="stroke: rgb(238, 238, 238); stroke-opacity: 1; stroke-width: 1px;"/><path class="ygrid crisp" transform="translate(0,52.06)" d="M60,0h948" style="stroke: rgb(238, 238, 238); stroke-opacity: 1; stroke-width: 1px;"/></g></g><g class="zerolinelayer"><path class="yzl zl crisp" transform="translate(0,692.85)" d="M60,0h948" style="stroke: rgb(68, 68, 68); stroke-opacity: 1; stroke-width: 1px;"/></g><path class="xlines-below"/><path class="ylines-below"/><g class="overlines-below"/><g class="xaxislayer-below"/><g class="yaxislayer-below"/><g class="overaxes-below"/><g class="plot" transform="translate(60, 25)" clip-path="url('#clip24392cxyplot')"><g class="scatterlayer mlayer"><g class="trace scatter tracefd0750" style="stroke-miterlimit: 2; opacity: 1;"><g class="fills"/><g class="errorbars"/><g class="lines"><path class="js-line" d="M0,622.08L3.34,621.42L13.35,505.63L16.69,614.89L20.03,667.85L23.37,653.8L26.7,602.8L30.04,638.59L36.72,614.7L40.06,667.85L43.39,638.18L46.73,598.9L50.07,599.97L53.41,617.23L56.75,593.79L60.08,608L63.42,632.36L66.76,638.47L70.1,617.81L73.44,600.66L76.77,620.7L80.11,621.42L83.45,549.58L86.79,600.54L90.13,572.07L93.46,483.2L96.8,497.46L100.14,432.27L103.48,317.67L106.82,404.9L110.15,449.29L113.49,403.44L116.83,299.64L120.17,405.8L123.51,315.31L126.85,403.85L130.18,194.99L133.52,123.47L136.86,290.13L140.2,282.57L143.54,306.88L146.87,480.13L150.21,401.54L153.55,348.91L156.89,404.5L160.23,484.89L163.56,464.79L166.9,35.15L170.24,558.54L173.58,445.78L176.92,478.64L180.25,510.14L183.59,468.98L186.93,501.07L190.27,523.68L193.61,551.37L196.94,559.61L200.28,512.85L203.62,571.63L206.96,554.1L210.3,586.26L213.63,567.44L216.97,586.75L220.31,586.4L223.65,551.47L230.32,583.63L233.66,574.06L237,610.19L240.34,614.38L243.68,597.21L247.01,571.12L250.35,598.21L253.69,604.43L257.03,608.32L260.37,597.34L263.7,600.68L267.04,561.46L270.38,432.5L273.72,498.58L277.06,541.9L280.39,542.55L283.73,548.15L287.07,538.38L290.41,509.42L293.75,574.73L297.08,606.03L300.42,598.19L307.1,617.71L310.44,606.46L313.77,577.83L317.11,574.11L320.45,606.1L323.79,613.07L327.13,619.36L330.46,604.76L333.8,599.22L337.14,617.15L340.48,613.3L343.82,627.52L347.15,641.13L350.49,647.27L353.83,636.81L357.17,640.74L360.51,641.19L363.85,640.71L367.18,642.7L370.52,645.92L373.86,646.9L377.2,643.75L383.87,644.3L387.21,625.1L390.55,645.35L393.89,645.84L397.23,656.3L400.56,652.54L403.9,647.93L407.24,637.5L410.58,646.68L413.92,649.53L420.59,646L423.93,649.76L427.27,649.27L430.61,639.33L433.94,644.1L437.28,651.29L440.62,647.16L443.96,654.33L447.3,653.74L450.63,651.78L453.97,650.06L457.31,646.61L460.65,654.1L463.99,654.43L467.32,656.44L470.66,649.41L477.34,647.17L480.68,639.54L484.01,645.81L487.35,655.16L490.69,646.16L494.03,653.06L497.37,651.06L500.7,652.39L504.04,647.33L507.38,658.93L510.72,657.55L514.06,653.55L517.39,655.91L520.73,655.64L524.07,655.6L527.41,652.64L530.75,651.86L534.08,656.22L537.42,656.63L540.76,659.23L544.1,658.74L547.44,651.31L550.77,662.95L554.11,655.46L557.45,659.41L560.79,658.07L564.13,656.69L567.46,656.95L570.8,655.44L574.14,650.49L580.82,658.45L584.15,652.9L587.49,655.77L590.83,652.09L594.17,649.95L597.51,651.84L600.85,655.01L604.18,654.64L607.52,655.57L610.86,653.08L617.54,653.3L620.87,652.61L624.21,650.1L627.55,651.77L630.89,651.26L634.23,648.97L637.56,650.37L640.9,642.19L644.24,639.53L647.58,640.73L650.92,645.77L654.25,646.85L660.93,646.86L664.27,633.9L667.61,638.78L670.94,632.76L674.28,641.13L677.62,631.99L680.96,634.36L684.3,638.71L687.63,624.97L690.97,623.07L694.31,637.56L697.65,625.07L700.99,636.55L704.32,635.62L707.66,630.84L711,613.3L714.34,621.6L717.68,611.84L721.01,624.37L724.35,609.35L727.69,622.62L731.03,622.13L734.37,616.26L737.7,626.08L741.04,624.69L744.38,615.19L747.72,600.87L751.06,609.34L754.39,620.74L757.73,596.96L761.07,591.32L764.41,596.12L767.75,605.07L771.08,608.61L774.42,610.18L777.76,616.24L781.1,597.06L784.44,558.47L787.77,590.32L791.11,598.51L794.45,601.72L797.79,596.88L801.13,581.74L804.46,572.69L807.8,557.19L811.14,578.81L814.48,583.84L817.82,597.85L824.49,583.55L827.83,559.02L831.17,534.77L834.51,557.15L837.85,578.42L841.18,589.98L844.52,575.25L847.86,554.62L851.2,527.74L854.54,515.16L857.87,543.38L861.21,540.29L864.55,557.44L867.89,554.88L871.23,573.11L874.56,525L877.9,516.66L881.24,532.08L884.58,575.19L887.92,573.54L891.25,558.83L894.59,561.9L897.93,531.98L901.27,548.35L904.61,545.91L907.94,568.32L914.62,561.88L917.96,566.43L921.3,525.89L924.63,509.97L927.97,543.03L931.31,557.32L934.65,566.01L937.99,567.58L941.32,563.81L944.66,531.65L948,530.86" style="vector-effect: non-scaling-stroke; fill: none; stroke: rgb(31, 119, 180); stroke-opacity: 1; stroke-width: 2px; opacity: 1;"/></g><g class="points"/><g class="text"/></g></g></g><g class="overplot"/><path class="xlines-above crisp" d="M0,0" style="fill: none;"/><path class="ylines-above crisp" d="M0,0" style="fill: none;"/><g class="overlines-above"/><g class="xaxislayer-above"><g class="xtick"><text text-anchor="middle" x="0" y="741" transform="translate(70.01,0)" style="font-family: 'Open Sans', verdana, arial, sans-serif; font-size: 12px; fill: rgb(68, 68, 68); fill-opacity: 1; white-space: pre;">Mar 2020</text></g><g class="xtick"><text text-anchor="middle" x="0" y="741" transform="translate(173.49,0)" style="font-family: 'Open Sans', verdana, arial, sans-serif; font-size: 12px; fill: rgb(68, 68, 68); fill-opacity: 1; white-space: pre;">Apr 2020</text></g><g class="xtick"><text text-anchor="middle" x="0" y="741" transform="translate(273.63,0)" style="font-family: 'Open Sans', verdana, arial, sans-serif; font-size: 12px; fill: rgb(68, 68, 68); fill-opacity: 1; white-space: pre;">May 2020</text></g><g class="xtick"><text text-anchor="middle" x="0" y="741" transform="translate(377.11,0)" style="font-family: 'Open Sans', verdana, arial, sans-serif; font-size: 12px; fill: rgb(68, 68, 68); fill-opacity: 1; white-space: pre;">Jun 2020</text></g><g class="xtick"><text text-anchor="middle" x="0" y="741" transform="translate(477.25,0)" style="font-family: 'Open Sans', verdana, arial, sans-serif; font-size: 12px; fill: rgb(68, 68, 68); fill-opacity: 1; white-space: pre;">Jul 2020</text></g><g class="xtick"><text text-anchor="middle" x="0" y="741" transform="translate(580.73,0)" style="font-family: 'Open Sans', verdana, arial, sans-serif; font-size: 12px; fill: rgb(68, 68, 68); fill-opacity: 1; white-space: pre;">Aug 2020</text></g><g class="xtick"><text text-anchor="middle" x="0" y="741" transform="translate(684.21,0)" style="font-family: 'Open Sans', verdana, arial, sans-serif; font-size: 12px; fill: rgb(68, 68, 68); fill-opacity: 1; white-space: pre;">Sep 2020</text></g><g class="xtick"><text text-anchor="middle" x="0" y="741" transform="translate(784.35,0)" style="font-family: 'Open Sans', verdana, arial, sans-serif; font-size: 12px; fill: rgb(68, 68, 68); fill-opacity: 1; white-space: pre;">Oct 2020</text></g><g class="xtick"><text text-anchor="middle" x="0" y="741" transform="translate(887.83,0)" style="font-family: 'Open Sans', verdana, arial, sans-serif; font-size: 12px; fill: rgb(68, 68, 68); fill-opacity: 1; white-space: pre;">Nov 2020</text></g><g class="xtick"><text text-anchor="middle" x="0" y="741" transform="translate(987.97,0)" style="font-family: 'Open Sans', verdana, arial, sans-serif; font-size: 12px; fill: rgb(68, 68, 68); fill-opacity: 1; white-space: pre;">Dec 2020</text></g></g><g class="yaxislayer-above"><g class="ytick"><text text-anchor="end" x="59" y="4.199999999999999" transform="translate(0,692.85)" style="font-family: 'Open Sans', verdana, arial, sans-serif; font-size: 12px; fill: rgb(68, 68, 68); fill-opacity: 1; white-space: pre;">0</text></g><g class="ytick"><text text-anchor="end" x="59" y="4.199999999999999" transform="translate(0,532.65)" style="font-family: 'Open Sans', verdana, arial, sans-serif; font-size: 12px; fill: rgb(68, 68, 68); fill-opacity: 1; white-space: pre;">0.05</text></g><g class="ytick"><text text-anchor="end" x="59" y="4.199999999999999" transform="translate(0,372.46)" style="font-family: 'Open Sans', verdana, arial, sans-serif; font-size: 12px; fill: rgb(68, 68, 68); fill-opacity: 1; white-space: pre;">0.1</text></g><g class="ytick"><text text-anchor="end" x="59" y="4.199999999999999" transform="translate(0,212.26)" style="font-family: 'Open Sans', verdana, arial, sans-serif; font-size: 12px; fill: rgb(68, 68, 68); fill-opacity: 1; white-space: pre;">0.15</text></g><g class="ytick"><text text-anchor="end" x="59" y="4.199999999999999" transform="translate(0,52.06)" style="font-family: 'Open Sans', verdana, arial, sans-serif; font-size: 12px; fill: rgb(68, 68, 68); fill-opacity: 1; white-space: pre;">0.2</text></g></g><g class="overaxes-above"/></g></g><g class="polarlayer"/><g class="ternarylayer"/><g class="geolayer"/><g class="funnelarealayer"/><g class="pielayer"/><g class="treemaplayer"/><g class="sunburstlayer"/><g class="glimages"/><defs id="topdefs-24392c"><g class="clips"/></defs><g class="layer-above"><g class="imagelayer"/><g class="shapelayer"/></g><g class="infolayer"><g class="g-gtitle"><text class="gtitle" x="513.5" y="12.5" text-anchor="middle" dy="0em" style="font-family: 'Open Sans', verdana, arial, sans-serif; font-size: 17px; fill: rgb(68, 68, 68); opacity: 1; font-weight: normal; white-space: pre;">Positive cases as proportion of tested per day as of Dec 08, 2020</text></g><g class="g-xtitle" transform="translate(0,-15)"><text class="xtitle" x="534" y="780" text-anchor="middle" style="font-family: 'Open Sans', verdana, arial, sans-serif; font-size: 14px; fill: rgb(68, 68, 68); opacity: 1; font-weight: normal; white-space: pre;">Date</text></g><g class="g-ytitle"><text class="ytitle" transform="rotate(-90,22,376.5)" x="22" y="376.5" text-anchor="middle" style="font-family: 'Open Sans', verdana, arial, sans-serif; font-size: 14px; fill: rgb(68, 68, 68); opacity: 1; font-weight: normal; white-space: pre;">ratio of positive to tested</text></g></g></svg>