<svg class="main-svg" xmlns="http://www.w3.org/2000/svg" xmlns:xlink="http://www.w3.org/1999/xlink" width="1027" height="768" style="" viewBox="0 0 1027 768"><rect x="0" y="0" width="1027" height="768" style="fill: rgb(255, 255, 255); fill-opacity: 1;"/><defs id="defs-71ca98"><g class="clips"><clipPath id="clip71ca98xyplot" class="plotclip"><rect width="945" height="703"/></clipPath><clipPath class="axesclip" id="clip71ca98x"><rect x="60" y="0" width="945" height="768"/></clipPath><clipPath class="axesclip" id="clip71ca98y"><rect x="0" y="25" width="1027" height="703"/></clipPath><clipPath class="axesclip" id="clip71ca98xy"><rect x="60" y="25" width="945" height="703"/></clipPath></g><g class="gradients"/></defs><g class="bglayer"/><g class="layer-below"><g class="imagelayer"/><g class="shapelayer"/></g><g class="cartesianlayer"><g class="subplot xy"><g class="layer-subplot"><g class="shapelayer"/><g class="imagelayer"/></g><g class="gridlayer"><g class="x"><path class="xgrid crisp" transform="translate(70.02,0)" d="M0,25v703" style="stroke: rgb(238, 238, 238); stroke-opacity: 1; stroke-width: 1px;"/><path class="xgrid crisp" transform="translate(173.53,0)" d="M0,25v703" style="stroke: rgb(238, 238, 238); stroke-opacity: 1; stroke-width: 1px;"/><path class="xgrid crisp" transform="translate(273.71000000000004,0)" d="M0,25v703" style="stroke: rgb(238, 238, 238); stroke-opacity: 1; stroke-width: 1px;"/><path class="xgrid crisp" transform="translate(377.23,0)" d="M0,25v703" style="stroke: rgb(238, 238, 238); stroke-opacity: 1; stroke-width: 1px;"/><path class="xgrid crisp" transform="translate(477.4,0)" d="M0,25v703" style="stroke: rgb(238, 238, 238); stroke-opacity: 1; stroke-width: 1px;"/><path class="xgrid crisp" transform="translate(580.92,0)" d="M0,25v703" style="stroke: rgb(238, 238, 238); stroke-opacity: 1; stroke-width: 1px;"/><path class="xgrid crisp" transform="translate(684.43,0)" d="M0,25v703" style="stroke: rgb(238, 238, 238); stroke-opacity: 1; stroke-width: 1px;"/><path class="xgrid crisp" transform="translate(784.61,0)" d="M0,25v703" style="stroke: rgb(238, 238, 238); stroke-opacity: 1; stroke-width: 1px;"/><path class="xgrid crisp" transform="translate(888.13,0)" d="M0,25v703" style="stroke: rgb(238, 238, 238); stroke-opacity: 1; stroke-width: 1px;"/><path class="xgrid crisp" transform="translate(988.3,0)" d="M0,25v703" style="stroke: rgb(238, 238, 238); stroke-opacity: 1; stroke-width: 1px;"/></g><g class="y"><path class="ygrid crisp" transform="translate(0,532.65)" d="M60,0h945" style="stroke: rgb(238, 238, 238); stroke-opacity: 1; stroke-width: 1px;"/><path class="ygrid crisp" transform="translate(0,372.46)" d="M60,0h945" style="stroke: rgb(238, 238, 238); stroke-opacity: 1; stroke-width: 1px;"/><path class="ygrid crisp" transform="translate(0,212.26)" d="M60,0h945" style="stroke: rgb(238, 238, 238); stroke-opacity: 1; stroke-width: 1px;"/><path class="ygrid crisp" transform="translate(0,52.06)" d="M60,0h945" style="stroke: rgb(238, 238, 238); stroke-opacity: 1; stroke-width: 1px;"/></g></g><g class="zerolinelayer"><path class="yzl zl crisp" transform="translate(0,692.85)" d="M60,0h945" style="stroke: rgb(68, 68, 68); stroke-opacity: 1; stroke-width: 1px;"/></g><path class="xlines-below"/><path class="ylines-below"/><g class="overlines-below"/><g class="xaxislayer-below"/><g class="yaxislayer-below"/><g class="overaxes-below"/><g class="plot" transform="translate(60, 25)" clip-path="url('#clip71ca98xyplot')"><g class="scatterlayer mlayer"><g class="trace scatter trace975bdd" style="stroke-miterlimit: 2; opacity: 1;"><g class="fills"/><g class="errorbars"/><g class="lines"><path class="js-line" d="M0,622.08L3.34,621.42L13.36,505.63L16.7,614.89L20.04,667.85L23.37,653.8L26.71,602.8L30.05,638.59L36.73,614.7L40.07,667.85L43.41,638.18L46.75,598.9L50.09,599.97L53.43,617.23L56.77,593.79L60.11,608L63.45,632.36L66.78,638.47L70.12,617.81L73.46,600.66L76.8,620.7L80.14,621.42L83.48,549.58L86.82,600.54L90.16,572.07L93.5,483.2L96.84,497.46L100.18,432.27L103.52,317.67L106.86,404.9L110.19,449.29L113.53,403.44L116.87,299.64L120.21,405.8L123.55,315.31L126.89,403.85L130.23,194.99L133.57,123.47L136.91,290.13L140.25,282.57L143.59,306.88L146.93,480.13L150.27,401.54L153.6,348.91L156.94,404.5L160.28,484.89L163.62,464.79L166.96,35.15L170.3,558.54L173.64,445.78L176.98,478.64L180.32,510.14L183.66,468.98L187,501.07L190.34,523.68L193.67,551.37L197.01,559.61L200.35,512.85L203.69,571.63L207.03,554.1L210.37,586.26L213.71,567.44L217.05,586.75L220.39,586.4L223.73,551.47L230.41,583.63L233.75,574.06L237.08,610.19L240.42,614.38L243.76,597.21L247.1,571.12L250.44,598.21L253.78,604.43L257.12,608.32L260.46,597.34L263.8,600.68L267.14,561.46L270.48,432.5L273.82,498.58L277.16,541.9L280.49,542.55L283.83,548.15L287.17,538.38L290.51,509.42L293.85,574.73L297.19,606.03L300.53,598.19L307.21,617.71L310.55,606.46L313.89,577.83L317.23,574.11L320.57,606.1L323.9,613.07L327.24,619.36L330.58,604.76L333.92,599.22L337.26,617.15L340.6,613.3L343.94,627.52L347.28,641.13L350.62,647.27L353.96,636.81L357.3,640.74L360.64,641.19L363.98,640.71L367.31,642.7L370.65,645.92L373.99,646.9L377.33,643.75L384.01,644.3L387.35,625.1L390.69,645.35L394.03,645.84L397.37,656.3L400.71,652.54L404.05,647.93L407.39,637.5L410.72,646.68L414.06,649.53L420.74,646L424.08,649.76L427.42,649.27L430.76,639.33L434.1,644.1L437.44,651.29L440.78,647.16L444.12,654.33L447.46,653.74L450.8,651.78L454.13,650.06L457.47,646.61L460.81,654.1L464.15,654.43L467.49,656.44L470.83,649.41L477.51,647.17L480.85,639.54L484.19,645.81L487.53,655.16L490.87,646.16L494.2,653.06L497.54,651.06L500.88,652.39L504.22,647.33L507.56,658.93L510.9,657.55L514.24,653.55L517.58,655.91L520.92,655.64L524.26,655.6L527.6,652.64L530.94,651.86L534.28,656.22L537.61,656.63L540.95,659.23L544.29,658.74L547.63,651.31L550.97,662.95L554.31,655.46L557.65,659.41L560.99,658.07L564.33,656.69L567.67,656.95L571.01,655.44L574.35,650.49L581.02,658.45L584.36,652.9L587.7,655.77L591.04,652.09L594.38,649.95L597.72,651.84L601.06,655.01L604.4,654.64L607.74,655.57L611.08,653.08L617.76,653.3L621.1,652.61L624.43,650.1L627.77,651.77L631.11,651.26L634.45,648.97L637.79,650.37L641.13,642.19L644.47,639.53L647.81,640.73L651.15,645.77L654.49,646.85L661.17,646.86L664.51,633.9L667.84,638.78L671.18,632.76L674.52,641.13L677.86,631.99L681.2,634.36L684.54,638.71L687.88,624.97L691.22,623.07L694.56,637.56L697.9,625.07L701.24,636.55L704.58,635.62L707.92,630.84L711.25,613.3L714.59,621.6L717.93,611.84L721.27,624.37L724.61,609.35L727.95,622.62L731.29,622.13L734.63,616.26L737.97,626.08L741.31,624.69L744.65,615.19L747.99,600.87L751.33,609.34L754.66,620.74L758,596.96L761.34,591.32L764.68,596.12L768.02,605.07L771.36,608.61L774.7,610.18L778.04,616.24L781.38,597.06L784.72,558.47L788.06,590.32L791.4,598.51L794.73,601.72L798.07,596.88L801.41,581.74L804.75,572.69L808.09,557.19L811.43,578.81L814.77,583.84L818.11,597.85L824.79,583.55L828.13,559.02L831.47,534.77L834.81,557.15L838.14,578.42L841.48,589.98L844.82,575.25L848.16,554.62L851.5,527.74L854.84,515.16L858.18,543.38L861.52,540.29L864.86,557.44L868.2,554.88L871.54,573.11L874.88,525L878.22,516.66L881.55,532.08L884.89,575.19L888.23,573.54L891.57,558.83L894.91,561.9L898.25,531.98L901.59,548.35L904.93,545.91L908.27,568.32L914.95,561.88L918.29,566.43L921.63,525.89L924.96,509.97L928.3,543.03L931.64,557.32L934.98,566.01L938.32,567.58L941.66,563.81L945,531.65" style="vector-effect: non-scaling-stroke; fill: none; stroke: rgb(31, 119, 180); stroke-opacity: 1; stroke-width: 2px; opacity: 1;"/></g><g class="points"/><g class="text"/></g></g></g><g class="overplot"/><path class="xlines-above crisp" d="M0,0" style="fill: none;"/><path class="ylines-above crisp" d="M0,0" style="fill: none;"/><g class="overlines-above"/><g class="xaxislayer-above"><g class="xtick"><text text-anchor="middle" x="0" y="741" transform="translate(70.02,0)" style="font-family: 'Open Sans', verdana, arial, sans-serif; font-size: 12px; fill: rgb(68, 68, 68); fill-opacity: 1; white-space: pre;">Mar 2020</text></g><g class="xtick"><text text-anchor="middle" x="0" y="741" transform="translate(173.53,0)" style="font-family: 'Open Sans', verdana, arial, sans-serif; font-size: 12px; fill: rgb(68, 68, 68); fill-opacity: 1; white-space: pre;">Apr 2020</text></g><g class="xtick"><text text-anchor="middle" x="0" y="741" transform="translate(273.71000000000004,0)" style="font-family: 'Open Sans', verdana, arial, sans-serif; font-size: 12px; fill: rgb(68, 68, 68); fill-opacity: 1; white-space: pre;">May 2020</text></g><g class="xtick"><text text-anchor="middle" x="0" y="741" transform="translate(377.23,0)" style="font-family: 'Open Sans', verdana, arial, sans-serif; font-size: 12px; fill: rgb(68, 68, 68); fill-opacity: 1; white-space: pre;">Jun 2020</text></g><g class="xtick"><text text-anchor="middle" x="0" y="741" transform="translate(477.4,0)" style="font-family: 'Open Sans', verdana, arial, sans-serif; font-size: 12px; fill: rgb(68, 68, 68); fill-opacity: 1; white-space: pre;">Jul 2020</text></g><g class="xtick"><text text-anchor="middle" x="0" y="741" transform="translate(580.92,0)" style="font-family: 'Open Sans', verdana, arial, sans-serif; font-size: 12px; fill: rgb(68, 68, 68); fill-opacity: 1; white-space: pre;">Aug 2020</text></g><g class="xtick"><text text-anchor="middle" x="0" y="741" transform="translate(684.43,0)" style="font-family: 'Open Sans', verdana, arial, sans-serif; font-size: 12px; fill: rgb(68, 68, 68); fill-opacity: 1; white-space: pre;">Sep 2020</text></g><g class="xtick"><text text-anchor="middle" x="0" y="741" transform="translate(784.61,0)" style="font-family: 'Open Sans', verdana, arial, sans-serif; font-size: 12px; fill: rgb(68, 68, 68); fill-opacity: 1; white-space: pre;">Oct 2020</text></g><g class="xtick"><text text-anchor="middle" x="0" y="741" transform="translate(888.13,0)" style="font-family: 'Open Sans', verdana, arial, sans-serif; font-size: 12px; fill: rgb(68, 68, 68); fill-opacity: 1; white-space: pre;">Nov 2020</text></g><g class="xtick"><text text-anchor="middle" x="0" y="741" transform="translate(988.3,0)" style="font-family: 'Open Sans', verdana, arial, sans-serif; font-size: 12px; fill: rgb(68, 68, 68); fill-opacity: 1; white-space: pre;">Dec 2020</text></g></g><g class="yaxislayer-above"><g class="ytick"><text text-anchor="end" x="59" y="4.199999999999999" transform="translate(0,692.85)" style="font-family: 'Open Sans', verdana, arial, sans-serif; font-size: 12px; fill: rgb(68, 68, 68); fill-opacity: 1; white-space: pre;">0</text></g><g class="ytick"><text text-anchor="end" x="59" y="4.199999999999999" transform="translate(0,532.65)" style="font-family: 'Open Sans', verdana, arial, sans-serif; font-size: 12px; fill: rgb(68, 68, 68); fill-opacity: 1; white-space: pre;">0.05</text></g><g class="ytick"><text text-anchor="end" x="59" y="4.199999999999999" transform="translate(0,372.46)" style="font-family: 'Open Sans', verdana, arial, sans-serif; font-size: 12px; fill: rgb(68, 68, 68); fill-opacity: 1; white-space: pre;">0.1</text></g><g class="ytick"><text text-anchor="end" x="59" y="4.199999999999999" transform="translate(0,212.26)" style="font-family: 'Open Sans', verdana, arial, sans-serif; font-size: 12px; fill: rgb(68, 68, 68); fill-opacity: 1; white-space: pre;">0.15</text></g><g class="ytick"><text text-anchor="end" x="59" y="4.199999999999999" transform="translate(0,52.06)" style="font-family: 'Open Sans', verdana, arial, sans-serif; font-size: 12px; fill: rgb(68, 68, 68); fill-opacity: 1; white-space: pre;">0.2</text></g></g><g class="overaxes-above"/></g></g><g class="polarlayer"/><g class="ternarylayer"/><g class="geolayer"/><g class="funnelarealayer"/><g class="pielayer"/><g class="treemaplayer"/><g class="sunburstlayer"/><g class="glimages"/><defs id="topdefs-71ca98"><g class="clips"/></defs><g class="layer-above"><g class="imagelayer"/><g class="shapelayer"/></g><g class="infolayer"><g class="g-gtitle"><text class="gtitle" x="513.5" y="12.5" text-anchor="middle" dy="0em" style="font-family: 'Open Sans', verdana, arial, sans-serif; font-size: 17px; fill: rgb(68, 68, 68); opacity: 1; font-weight: normal; white-space: pre;">Positive cases as proportion of tested per day as of Dec 07, 2020</text></g><g class="g-xtitle" transform="translate(0,-15)"><text class="xtitle" x="532.5" y="780" text-anchor="middle" style="font-family: 'Open Sans', verdana, arial, sans-serif; font-size: 14px; fill: rgb(68, 68, 68); opacity: 1; font-weight: normal; white-space: pre;">Date</text></g><g class="g-ytitle"><text class="ytitle" transform="rotate(-90,22,376.5)" x="22" y="376.5" text-anchor="middle" style="font-family: 'Open Sans', verdana, arial, sans-serif; font-size: 14px; fill: rgb(68, 68, 68); opacity: 1; font-weight: normal; white-space: pre;">ratio of positive to tested</text></g></g></svg>