<svg class="main-svg" xmlns="http://www.w3.org/2000/svg" xmlns:xlink="http://www.w3.org/1999/xlink" width="1027" height="768" style="" viewBox="0 0 1027 768"><rect x="0" y="0" width="1027" height="768" style="fill: rgb(255, 255, 255); fill-opacity: 1;"/><defs id="defs-151c7b"><g class="clips"><clipPath id="clip151c7bxyplot" class="plotclip"><rect width="957" height="703"/></clipPath><clipPath class="axesclip" id="clip151c7bx"><rect x="60" y="0" width="957" height="768"/></clipPath><clipPath class="axesclip" id="clip151c7by"><rect x="0" y="25" width="1027" height="703"/></clipPath><clipPath class="axesclip" id="clip151c7bxy"><rect x="60" y="25" width="957" height="703"/></clipPath></g><g class="gradients"/></defs><g class="bglayer"/><g class="layer-below"><g class="imagelayer"/><g class="shapelayer"/></g><g class="cartesianlayer"><g class="subplot xy"><g class="layer-subplot"><g class="shapelayer"/><g class="imagelayer"/></g><g class="gridlayer"><g class="x"><path class="xgrid crisp" transform="translate(71.03999999999999,0)" d="M0,25v703" style="stroke: rgb(238, 238, 238); stroke-opacity: 1; stroke-width: 1px;"/><path class="xgrid crisp" transform="translate(185.15,0)" d="M0,25v703" style="stroke: rgb(238, 238, 238); stroke-opacity: 1; stroke-width: 1px;"/><path class="xgrid crisp" transform="translate(295.57,0)" d="M0,25v703" style="stroke: rgb(238, 238, 238); stroke-opacity: 1; stroke-width: 1px;"/><path class="xgrid crisp" transform="translate(409.67,0)" d="M0,25v703" style="stroke: rgb(238, 238, 238); stroke-opacity: 1; stroke-width: 1px;"/><path class="xgrid crisp" transform="translate(520.1,0)" d="M0,25v703" style="stroke: rgb(238, 238, 238); stroke-opacity: 1; stroke-width: 1px;"/><path class="xgrid crisp" transform="translate(634.2,0)" d="M0,25v703" style="stroke: rgb(238, 238, 238); stroke-opacity: 1; stroke-width: 1px;"/><path class="xgrid crisp" transform="translate(748.3,0)" d="M0,25v703" style="stroke: rgb(238, 238, 238); stroke-opacity: 1; stroke-width: 1px;"/><path class="xgrid crisp" transform="translate(858.73,0)" d="M0,25v703" style="stroke: rgb(238, 238, 238); stroke-opacity: 1; stroke-width: 1px;"/><path class="xgrid crisp" transform="translate(972.83,0)" d="M0,25v703" style="stroke: rgb(238, 238, 238); stroke-opacity: 1; stroke-width: 1px;"/></g><g class="y"><path class="ygrid crisp" transform="translate(0,532.65)" d="M60,0h957" style="stroke: rgb(238, 238, 238); stroke-opacity: 1; stroke-width: 1px;"/><path class="ygrid crisp" transform="translate(0,372.46)" d="M60,0h957" style="stroke: rgb(238, 238, 238); stroke-opacity: 1; stroke-width: 1px;"/><path class="ygrid crisp" transform="translate(0,212.26)" d="M60,0h957" style="stroke: rgb(238, 238, 238); stroke-opacity: 1; stroke-width: 1px;"/><path class="ygrid crisp" transform="translate(0,52.06)" d="M60,0h957" style="stroke: rgb(238, 238, 238); stroke-opacity: 1; stroke-width: 1px;"/></g></g><g class="zerolinelayer"><path class="yzl zl crisp" transform="translate(0,692.85)" d="M60,0h957" style="stroke: rgb(68, 68, 68); stroke-opacity: 1; stroke-width: 1px;"/></g><path class="xlines-below"/><path class="ylines-below"/><g class="overlines-below"/><g class="xaxislayer-below"/><g class="yaxislayer-below"/><g class="overaxes-below"/><g class="plot" transform="translate(60, 25)" clip-path="url('#clip151c7bxyplot')"><g class="scatterlayer mlayer"><g class="trace scatter tracead2d12" style="stroke-miterlimit: 2; opacity: 1;"><g class="fills"/><g class="errorbars"/><g class="lines"><path class="js-line" d="M0,622.08L3.68,621.42L14.72,505.63L18.4,614.89L22.08,667.85L25.77,653.8L29.45,602.8L33.13,638.59L40.49,614.7L44.17,667.85L47.85,638.18L51.53,598.9L55.21,599.97L58.89,617.23L62.57,593.79L66.25,608L69.93,632.36L73.62,638.47L77.3,617.81L80.98,600.66L84.66,620.7L88.34,621.42L92.02,549.58L95.7,600.54L99.38,572.07L103.06,483.2L106.74,497.46L110.42,432.27L114.1,317.67L117.78,404.9L121.47,449.29L125.15,403.44L128.83,299.64L132.51,405.8L136.19,315.31L139.87,403.85L143.55,194.99L147.23,123.47L150.91,290.13L154.59,282.57L158.27,306.88L161.95,480.13L165.63,401.54L169.32,348.91L173,404.5L176.68,484.89L180.36,464.79L184.04,35.15L187.72,558.54L191.4,445.78L195.08,478.64L198.76,510.14L202.44,468.98L206.12,501.07L209.8,523.68L213.48,551.37L217.17,559.61L220.85,512.85L224.53,571.63L228.21,554.1L231.89,586.26L235.57,567.44L239.25,586.75L242.93,586.4L246.61,551.47L250.29,566L253.97,583.63L257.65,574.06L261.33,610.19L265.02,614.38L268.7,597.21L272.38,571.12L276.06,598.21L279.74,604.43L283.42,608.32L287.1,597.34L290.78,600.68L294.46,561.46L298.14,432.5L301.82,498.58L305.5,541.9L309.18,542.55L312.87,548.15L316.55,538.38L320.23,509.42L323.91,574.73L327.59,606.03L331.27,598.19L334.95,608.35L338.63,617.71L342.31,606.46L345.99,577.83L349.67,574.11L353.35,606.1L357.03,613.07L360.72,619.36L364.4,604.76L368.08,599.22L371.76,617.15L375.44,613.3L379.12,627.52L382.8,641.13L386.48,647.27L390.16,636.81L393.84,640.74L397.52,641.19L401.2,640.71L404.88,642.7L408.57,645.92L412.25,646.9L415.93,643.75L423.29,644.3L426.97,625.1L430.65,645.35L434.33,645.84L438.01,656.3L441.69,652.54L445.37,647.93L449.05,637.5L452.73,646.68L456.42,649.53L463.78,646L467.46,649.76L471.14,649.27L474.82,639.33L478.5,644.1L482.18,651.29L485.86,647.16L489.54,654.33L493.22,653.74L496.9,651.78L500.58,650.06L504.27,646.61L507.95,654.1L511.63,654.43L515.31,656.44L518.99,649.41L526.35,647.17L530.03,639.54L533.71,645.81L537.39,655.16L541.07,646.16L544.75,653.06L548.43,651.06L552.12,652.39L555.8,647.33L559.48,658.93L563.16,657.55L566.84,653.55L570.52,655.91L574.2,655.64L577.88,655.6L581.56,652.64L585.24,651.86L588.92,656.22L592.6,656.63L596.28,659.23L599.97,658.74L603.65,651.31L607.33,662.95L611.01,655.46L614.69,659.41L618.37,658.07L622.05,656.69L625.73,656.95L629.41,655.44L633.09,650.49L636.77,655.11L640.45,658.45L644.13,652.9L647.82,655.77L651.5,652.09L655.18,649.95L658.86,651.84L662.54,655.01L666.22,654.64L669.9,655.57L673.58,653.08L677.26,653.48L684.62,652.61L688.3,650.1L691.98,651.77L695.67,651.26L699.35,648.97L703.03,650.37L706.71,642.19L710.39,639.53L714.07,640.73L717.75,645.77L721.43,646.85L725.11,646.98L728.79,646.86L732.47,633.9L736.15,638.78L739.83,632.76L743.52,641.13L747.2,631.99L750.88,634.36L754.56,638.71L758.24,624.97L761.92,623.07L765.6,637.56L769.28,625.07L772.96,636.55L776.64,635.62L780.32,630.84L784,613.3L787.68,621.6L791.37,611.84L795.05,624.37L798.73,609.35L802.41,622.62L806.09,622.13L809.77,616.26L813.45,626.08L817.13,624.69L820.81,615.19L824.49,600.87L828.17,609.34L831.85,620.74L835.53,596.96L839.22,591.32L842.9,596.12L846.58,605.07L850.26,608.61L853.94,610.18L857.62,616.24L861.3,597.06L864.98,558.47L868.66,590.32L872.34,598.51L876.02,601.72L879.7,596.88L883.38,581.74L887.07,572.69L890.75,557.19L894.43,578.81L898.11,583.84L901.79,597.85L909.15,583.55L912.83,559.02L916.51,534.77L920.19,557.15L923.87,578.42L927.55,589.98L931.23,575.25L934.92,554.62L938.6,527.74L942.28,515.16L945.96,543.38L949.64,540.29L953.32,557.44L957,554.88" style="vector-effect: non-scaling-stroke; fill: none; stroke: rgb(31, 119, 180); stroke-opacity: 1; stroke-width: 2px; opacity: 1;"/></g><g class="points"/><g class="text"/></g></g></g><g class="overplot"/><path class="xlines-above crisp" d="M0,0" style="fill: none;"/><path class="ylines-above crisp" d="M0,0" style="fill: none;"/><g class="overlines-above"/><g class="xaxislayer-above"><g class="xtick"><text text-anchor="middle" x="0" y="741" transform="translate(71.03999999999999,0)" style="font-family: 'Open Sans', verdana, arial, sans-serif; font-size: 12px; fill: rgb(68, 68, 68); fill-opacity: 1; white-space: pre;">Mar 2020</text></g><g class="xtick"><text text-anchor="middle" x="0" y="741" transform="translate(185.15,0)" style="font-family: 'Open Sans', verdana, arial, sans-serif; font-size: 12px; fill: rgb(68, 68, 68); fill-opacity: 1; white-space: pre;">Apr 2020</text></g><g class="xtick"><text text-anchor="middle" x="0" y="741" transform="translate(295.57,0)" style="font-family: 'Open Sans', verdana, arial, sans-serif; font-size: 12px; fill: rgb(68, 68, 68); fill-opacity: 1; white-space: pre;">May 2020</text></g><g class="xtick"><text text-anchor="middle" x="0" y="741" transform="translate(409.67,0)" style="font-family: 'Open Sans', verdana, arial, sans-serif; font-size: 12px; fill: rgb(68, 68, 68); fill-opacity: 1; white-space: pre;">Jun 2020</text></g><g class="xtick"><text text-anchor="middle" x="0" y="741" transform="translate(520.1,0)" style="font-family: 'Open Sans', verdana, arial, sans-serif; font-size: 12px; fill: rgb(68, 68, 68); fill-opacity: 1; white-space: pre;">Jul 2020</text></g><g class="xtick"><text text-anchor="middle" x="0" y="741" transform="translate(634.2,0)" style="font-family: 'Open Sans', verdana, arial, sans-serif; font-size: 12px; fill: rgb(68, 68, 68); fill-opacity: 1; white-space: pre;">Aug 2020</text></g><g class="xtick"><text text-anchor="middle" x="0" y="741" transform="translate(748.3,0)" style="font-family: 'Open Sans', verdana, arial, sans-serif; font-size: 12px; fill: rgb(68, 68, 68); fill-opacity: 1; white-space: pre;">Sep 2020</text></g><g class="xtick"><text text-anchor="middle" x="0" y="741" transform="translate(858.73,0)" style="font-family: 'Open Sans', verdana, arial, sans-serif; font-size: 12px; fill: rgb(68, 68, 68); fill-opacity: 1; white-space: pre;">Oct 2020</text></g><g class="xtick"><text text-anchor="middle" x="0" y="741" transform="translate(972.83,0)" style="font-family: 'Open Sans', verdana, arial, sans-serif; font-size: 12px; fill: rgb(68, 68, 68); fill-opacity: 1; white-space: pre;">Nov 2020</text></g></g><g class="yaxislayer-above"><g class="ytick"><text text-anchor="end" x="59" y="4.199999999999999" transform="translate(0,692.85)" style="font-family: 'Open Sans', verdana, arial, sans-serif; font-size: 12px; fill: rgb(68, 68, 68); fill-opacity: 1; white-space: pre;">0</text></g><g class="ytick"><text text-anchor="end" x="59" y="4.199999999999999" transform="translate(0,532.65)" style="font-family: 'Open Sans', verdana, arial, sans-serif; font-size: 12px; fill: rgb(68, 68, 68); fill-opacity: 1; white-space: pre;">0.05</text></g><g class="ytick"><text text-anchor="end" x="59" y="4.199999999999999" transform="translate(0,372.46)" style="font-family: 'Open Sans', verdana, arial, sans-serif; font-size: 12px; fill: rgb(68, 68, 68); fill-opacity: 1; white-space: pre;">0.1</text></g><g class="ytick"><text text-anchor="end" x="59" y="4.199999999999999" transform="translate(0,212.26)" style="font-family: 'Open Sans', verdana, arial, sans-serif; font-size: 12px; fill: rgb(68, 68, 68); fill-opacity: 1; white-space: pre;">0.15</text></g><g class="ytick"><text text-anchor="end" x="59" y="4.199999999999999" transform="translate(0,52.06)" style="font-family: 'Open Sans', verdana, arial, sans-serif; font-size: 12px; fill: rgb(68, 68, 68); fill-opacity: 1; white-space: pre;">0.2</text></g></g><g class="overaxes-above"/></g></g><g class="polarlayer"/><g class="ternarylayer"/><g class="geolayer"/><g class="funnelarealayer"/><g class="pielayer"/><g class="treemaplayer"/><g class="sunburstlayer"/><g class="glimages"/><defs id="topdefs-151c7b"><g class="clips"/></defs><g class="layer-above"><g class="imagelayer"/><g class="shapelayer"/></g><g class="infolayer"><g class="g-gtitle"><text class="gtitle" x="513.5" y="12.5" text-anchor="middle" dy="0em" style="font-family: 'Open Sans', verdana, arial, sans-serif; font-size: 17px; fill: rgb(68, 68, 68); opacity: 1; font-weight: normal; white-space: pre;">Positive cases as proportion of tested per day as of Nov 14, 2020</text></g><g class="g-xtitle" transform="translate(0,-15)"><text class="xtitle" x="538.5" y="780" text-anchor="middle" style="font-family: 'Open Sans', verdana, arial, sans-serif; font-size: 14px; fill: rgb(68, 68, 68); opacity: 1; font-weight: normal; white-space: pre;">Date</text></g><g class="g-ytitle"><text class="ytitle" transform="rotate(-90,22,376.5)" x="22" y="376.5" text-anchor="middle" style="font-family: 'Open Sans', verdana, arial, sans-serif; font-size: 14px; fill: rgb(68, 68, 68); opacity: 1; font-weight: normal; white-space: pre;">ratio of positive to tested</text></g></g></svg>