<svg class="main-svg" xmlns="http://www.w3.org/2000/svg" xmlns:xlink="http://www.w3.org/1999/xlink" width="1027" height="768" style="" viewBox="0 0 1027 768"><rect x="0" y="0" width="1027" height="768" style="fill: rgb(255, 255, 255); fill-opacity: 1;"/><defs id="defs-b98f3f"><g class="clips"><clipPath id="clipb98f3fxyplot" class="plotclip"><rect width="838" height="703"/></clipPath><clipPath class="axesclip" id="clipb98f3fx"><rect x="60" y="0" width="838" height="768"/></clipPath><clipPath class="axesclip" id="clipb98f3fy"><rect x="0" y="25" width="1027" height="703"/></clipPath><clipPath class="axesclip" id="clipb98f3fxy"><rect x="60" y="25" width="838" height="703"/></clipPath></g><g class="gradients"/></defs><g class="bglayer"/><g class="layer-below"><g class="imagelayer"/><g class="shapelayer"/></g><g class="cartesianlayer"><g class="subplot xy"><g class="layer-subplot"><g class="shapelayer"/><g class="imagelayer"/></g><g class="gridlayer"><g class="x"><path class="xgrid crisp" transform="translate(66.38,0)" d="M0,25v703" style="stroke: rgb(238, 238, 238); stroke-opacity: 1; stroke-width: 1px;"/><path class="xgrid crisp" transform="translate(196.12,0)" d="M0,25v703" style="stroke: rgb(238, 238, 238); stroke-opacity: 1; stroke-width: 1px;"/><path class="xgrid crisp" transform="translate(325.86,0)" d="M0,25v703" style="stroke: rgb(238, 238, 238); stroke-opacity: 1; stroke-width: 1px;"/><path class="xgrid crisp" transform="translate(457.73,0)" d="M0,25v703" style="stroke: rgb(238, 238, 238); stroke-opacity: 1; stroke-width: 1px;"/><path class="xgrid crisp" transform="translate(587.47,0)" d="M0,25v703" style="stroke: rgb(238, 238, 238); stroke-opacity: 1; stroke-width: 1px;"/><path class="xgrid crisp" transform="translate(717.21,0)" d="M0,25v703" style="stroke: rgb(238, 238, 238); stroke-opacity: 1; stroke-width: 1px;"/><path class="xgrid crisp" transform="translate(842.7,0)" d="M0,25v703" style="stroke: rgb(238, 238, 238); stroke-opacity: 1; stroke-width: 1px;"/></g><g class="y"><path class="ygrid crisp" transform="translate(0,532.65)" d="M60,0h838" style="stroke: rgb(238, 238, 238); stroke-opacity: 1; stroke-width: 1px;"/><path class="ygrid crisp" transform="translate(0,372.46)" d="M60,0h838" style="stroke: rgb(238, 238, 238); stroke-opacity: 1; stroke-width: 1px;"/><path class="ygrid crisp" transform="translate(0,212.26)" d="M60,0h838" style="stroke: rgb(238, 238, 238); stroke-opacity: 1; stroke-width: 1px;"/><path class="ygrid crisp" transform="translate(0,52.06)" d="M60,0h838" style="stroke: rgb(238, 238, 238); stroke-opacity: 1; stroke-width: 1px;"/></g></g><g class="zerolinelayer"><path class="yzl zl crisp" transform="translate(0,692.85)" d="M60,0h838" style="stroke: rgb(68, 68, 68); stroke-opacity: 1; stroke-width: 1px;"/></g><path class="xlines-below"/><path class="ylines-below"/><g class="overlines-below"/><g class="xaxislayer-below"/><g class="yaxislayer-below"/><g class="overaxes-below"/><g class="plot" transform="translate(60, 25)" clip-path="url('#clipb98f3fxyplot')"><g class="scatterlayer mlayer"><g class="trace scatter trace292984" style="stroke-miterlimit: 2; opacity: 1;"><g class="fills"/><g class="errorbars"/><g class="lines"><path class="js-line" d="M0,622.08L2.13,621.42L8.51,505.63L10.63,614.89L12.76,667.85L14.89,653.8L17.02,602.8L19.14,638.59L23.4,614.7L25.52,667.85L27.65,638.18L29.78,598.9L31.9,599.97L34.03,617.23L36.16,593.79L38.28,608L40.41,632.36L42.54,638.47L44.66,617.81L46.79,600.66L48.92,620.7L51.05,621.42L53.17,549.58L55.3,600.54L57.43,572.07L59.55,483.2L61.68,497.46L63.81,432.27L65.93,317.67L68.06,404.9L70.19,449.29L72.31,403.44L74.44,299.64L76.57,405.8L78.7,315.31L80.82,403.85L82.95,194.99L85.08,123.47L87.2,290.13L89.33,282.57L91.46,306.88L93.58,480.13L95.71,401.54L97.84,348.91L99.96,404.5L102.09,484.89L104.22,464.79L106.35,35.15L108.47,558.54L110.6,445.78L112.73,478.64L114.85,510.14L116.98,468.98L121.23,523.68L123.36,551.37L125.49,559.61L127.61,512.85L129.74,571.63L131.87,554.1L133.99,586.26L136.12,567.44L138.25,586.75L140.38,586.4L142.5,551.47L144.63,566L146.76,583.63L148.88,574.06L151.01,610.19L153.14,614.38L155.26,597.21L157.39,571.12L159.52,598.21L161.64,604.43L163.77,608.32L165.9,597.34L168.03,600.68L170.15,561.46L172.28,432.5L174.41,498.58L176.53,541.9L178.66,542.55L180.79,548.15L182.91,538.38L185.04,509.42L187.17,574.73L189.29,606.03L191.42,598.19L195.68,617.71L197.8,606.46L199.93,577.83L202.06,574.11L204.18,606.1L206.31,613.07L208.44,619.36L210.56,604.76L212.69,599.22L214.82,617.15L216.94,613.3L219.07,627.52L221.2,641.13L223.32,647.27L225.45,636.81L227.58,640.74L229.71,641.19L231.83,640.71L233.96,642.7L236.09,645.92L238.21,646.9L240.34,643.75L244.59,644.3L246.72,625.1L248.85,645.35L250.97,645.84L253.1,656.3L255.23,652.54L257.36,647.93L259.48,637.5L261.61,646.68L263.74,649.53L267.99,646L270.12,649.76L272.24,649.27L274.37,639.33L276.5,644.1L278.62,651.29L280.75,647.16L282.88,654.33L285.01,653.74L287.13,651.78L289.26,650.06L291.39,646.61L293.51,654.1L295.64,654.43L297.77,656.44L299.89,649.41L304.15,647.17L306.27,639.54L308.4,645.81L310.53,655.16L312.65,646.16L314.78,653.06L316.91,651.06L319.04,652.39L321.16,647.33L323.29,658.93L325.42,657.55L327.54,653.55L329.67,655.91L331.8,655.64L333.92,655.6L336.05,652.64L338.18,651.86L340.3,656.22L342.43,656.63L344.56,659.23L346.69,658.74L348.81,651.31L350.94,662.95L353.07,655.46L355.19,659.41L357.32,658.07L359.45,656.69L361.57,656.95L363.7,655.44L365.83,650.49L370.08,658.45L372.21,652.9L374.34,655.77L376.46,652.09L378.59,649.95L380.72,651.84L382.84,655.01L384.97,654.64L387.1,655.57L389.22,653.08L393.48,653.3L395.6,652.61L397.73,650.1L399.86,651.77L401.98,651.26L404.11,648.97L406.24,650.37L408.37,642.19L410.49,639.53L412.62,640.73L414.75,645.77L416.87,646.85L421.13,646.86L423.25,633.9L425.38,638.78L427.51,632.76L429.63,641.13L431.76,631.99L433.89,634.36L436.02,638.71L438.14,624.97L440.27,623.07L442.4,637.56L444.52,625.07L446.65,636.55L448.78,635.62L450.9,630.84L453.03,613.3L455.16,621.6L457.28,611.84L459.41,624.37L461.54,609.35L463.66,622.62L465.79,622.13L467.92,616.26L470.05,626.08L472.17,624.69L474.3,615.19L476.43,600.87L478.55,609.34L480.68,620.74L482.81,596.96L484.93,591.32L487.06,596.12L489.19,605.07L491.31,608.61L493.44,610.18L495.57,616.24L497.7,597.06L499.82,558.47L501.95,590.32L504.08,598.51L506.2,601.72L508.33,596.88L510.46,581.74L512.58,572.69L514.71,557.19L516.84,578.81L518.96,583.84L521.09,597.85L525.35,583.55L527.47,559.02L529.6,534.77L531.73,557.15L533.85,578.42L535.98,589.98L538.11,575.25L540.23,554.62L542.36,527.74L544.49,515.16L546.61,543.38L548.74,540.29L550.87,557.44L552.99,554.88L555.12,573.11L557.25,525L559.38,516.66L561.5,532.08L563.63,575.19L565.76,573.54L567.88,558.83L570.01,561.9L572.14,531.98L574.26,548.35L576.39,545.91L578.52,568.32L582.77,561.88L584.9,566.43L587.03,525.89L589.15,509.97L591.28,543.03L593.41,557.32L595.53,566.01L597.66,567.58L599.79,563.81L601.91,531.65L604.04,530.86L606.17,543.11L608.29,565.06L610.42,573.94L612.55,575.9L614.68,575.51L616.8,558.98L618.93,483.63L621.06,528.53L623.18,533.92L625.31,560.34L627.44,555.49L629.56,560.95L631.69,543.05L633.82,511.99L635.94,531.69L638.07,546.47L640.2,555.31L642.32,529.24L644.45,514.11L646.58,510.83L648.71,428.06L650.83,429L652.96,500.87L655.09,553.82L657.21,492.37L659.34,480.92L661.47,400.04L663.59,382.75L665.72,462.85L667.85,496.43L669.97,477.4L672.1,516.53L674.23,464.99L676.36,437.37L678.48,460.25L680.61,481.58L682.74,518.12L684.86,542.24L686.99,535.31L689.12,485.67L691.24,462.9L697.62,547.82L699.75,548.98L701.88,548.74L704.01,509.64L706.13,493.44L708.26,486.36L710.39,570.9L712.51,564.15L714.64,582.6L716.77,556.94L718.89,547.88L721.02,460.05L723.15,584.25L725.27,596.21L729.53,582.53L731.65,596.52L733.78,575.5L735.91,524.65L740.16,602.43L742.29,623.85L746.54,596.97L748.67,603.31L750.8,566.1L752.92,560.6L757.18,608.64L759.3,611.49L761.43,599.06L763.56,595.56L765.69,559.07L767.81,547.61L769.94,606.29L772.07,612.9L774.19,604.92L776.32,603.95L778.45,598.67L780.57,574.24L782.7,567.25L784.83,609.51L786.95,619.33L789.08,606L791.21,613L793.34,578.51L795.46,530.56L797.59,553.71L799.72,589.98L801.84,610.13L806.1,587.36L808.22,550.3L812.48,547.22L814.6,569.5L816.73,582.88L818.86,568.25L820.98,555.34L823.11,551.3" style="vector-effect: non-scaling-stroke; fill: none; stroke: rgb(31, 119, 180); stroke-opacity: 1; stroke-width: 2px; opacity: 1;"/></g><g class="points"/><g class="text"/></g><g class="trace scatter trace556d85" style="stroke-miterlimit: 2; opacity: 1;"><g class="fills"/><g class="errorbars"/><g class="lines"><path class="js-line" d="M823.11,551.3L825.24,531.51L827.37,534.79L829.49,561.25L831.62,572.14L833.75,564.65L835.87,553.43L838,534.14" style="vector-effect: non-scaling-stroke; fill: none; stroke: rgb(255, 127, 14); stroke-opacity: 1; stroke-width: 2px; opacity: 1;"/></g><g class="points"/><g class="text"/></g></g></g><g class="overplot"/><path class="xlines-above crisp" style="fill: none;" d="M0,0"/><path class="ylines-above crisp" style="fill: none;" d="M0,0"/><g class="overlines-above"/><g class="xaxislayer-above"><g class="xtick"><text text-anchor="middle" x="0" y="741" transform="translate(66.38,0)" style="font-family: 'Open Sans', verdana, arial, sans-serif; font-size: 12px; fill: rgb(68, 68, 68); fill-opacity: 1; white-space: pre;">Mar 2020</text></g><g class="xtick"><text text-anchor="middle" x="0" y="741" transform="translate(196.12,0)" style="font-family: 'Open Sans', verdana, arial, sans-serif; font-size: 12px; fill: rgb(68, 68, 68); fill-opacity: 1; white-space: pre;">May 2020</text></g><g class="xtick"><text text-anchor="middle" x="0" y="741" transform="translate(325.86,0)" style="font-family: 'Open Sans', verdana, arial, sans-serif; font-size: 12px; fill: rgb(68, 68, 68); fill-opacity: 1; white-space: pre;">Jul 2020</text></g><g class="xtick"><text text-anchor="middle" x="0" y="741" transform="translate(457.73,0)" style="font-family: 'Open Sans', verdana, arial, sans-serif; font-size: 12px; fill: rgb(68, 68, 68); fill-opacity: 1; white-space: pre;">Sep 2020</text></g><g class="xtick"><text text-anchor="middle" x="0" y="741" transform="translate(587.47,0)" style="font-family: 'Open Sans', verdana, arial, sans-serif; font-size: 12px; fill: rgb(68, 68, 68); fill-opacity: 1; white-space: pre;">Nov 2020</text></g><g class="xtick"><text text-anchor="middle" x="0" y="741" transform="translate(717.21,0)" style="font-family: 'Open Sans', verdana, arial, sans-serif; font-size: 12px; fill: rgb(68, 68, 68); fill-opacity: 1; white-space: pre;">Jan 2021</text></g><g class="xtick"><text text-anchor="middle" x="0" y="741" transform="translate(842.7,0)" style="font-family: 'Open Sans', verdana, arial, sans-serif; font-size: 12px; fill: rgb(68, 68, 68); fill-opacity: 1; white-space: pre;">Mar 2021</text></g></g><g class="yaxislayer-above"><g class="ytick"><text text-anchor="end" x="59" y="4.199999999999999" transform="translate(0,692.85)" style="font-family: 'Open Sans', verdana, arial, sans-serif; font-size: 12px; fill: rgb(68, 68, 68); fill-opacity: 1; white-space: pre;">0</text></g><g class="ytick"><text text-anchor="end" x="59" y="4.199999999999999" transform="translate(0,532.65)" style="font-family: 'Open Sans', verdana, arial, sans-serif; font-size: 12px; fill: rgb(68, 68, 68); fill-opacity: 1; white-space: pre;">0.05</text></g><g class="ytick"><text text-anchor="end" x="59" y="4.199999999999999" transform="translate(0,372.46)" style="font-family: 'Open Sans', verdana, arial, sans-serif; font-size: 12px; fill: rgb(68, 68, 68); fill-opacity: 1; white-space: pre;">0.1</text></g><g class="ytick"><text text-anchor="end" x="59" y="4.199999999999999" transform="translate(0,212.26)" style="font-family: 'Open Sans', verdana, arial, sans-serif; font-size: 12px; fill: rgb(68, 68, 68); fill-opacity: 1; white-space: pre;">0.15</text></g><g class="ytick"><text text-anchor="end" x="59" y="4.199999999999999" transform="translate(0,52.06)" style="font-family: 'Open Sans', verdana, arial, sans-serif; font-size: 12px; fill: rgb(68, 68, 68); fill-opacity: 1; white-space: pre;">0.2</text></g></g><g class="overaxes-above"/></g></g><g class="polarlayer"/><g class="ternarylayer"/><g class="geolayer"/><g class="funnelarealayer"/><g class="pielayer"/><g class="treemaplayer"/><g class="sunburstlayer"/><g class="glimages"/><defs id="topdefs-b98f3f"><g class="clips"/><clipPath id="legendb98f3f"><rect width="102" height="48" x="0" y="0"/></clipPath></defs><g class="layer-above"><g class="imagelayer"/><g class="shapelayer"/></g><g class="infolayer"><g class="legend" pointer-events="all" transform="translate(914.76, 25)"><rect class="bg" shape-rendering="crispEdges" style="stroke: rgb(68, 68, 68); stroke-opacity: 1; fill: rgb(255, 255, 255); fill-opacity: 1; stroke-width: 0px;" width="102" height="48" x="0" y="0"/><g class="scrollbox" transform="translate(0, 0)" clip-path="url('#legendb98f3f')"><g class="groups"><g class="traces" style="opacity: 1;" transform="translate(0, 14.5)"><text class="legendtext" text-anchor="start" x="40" y="4.680000000000001" style="font-family: 'Open Sans', verdana, arial, sans-serif; font-size: 12px; fill: rgb(68, 68, 68); fill-opacity: 1; white-space: pre;">actuals</text><g class="layers" style="opacity: 1;"><g class="legendfill"/><g class="legendlines"><path class="js-line" d="M5,0h30" style="fill: none; stroke: rgb(31, 119, 180); stroke-opacity: 1; stroke-width: 2px;"/></g><g class="legendsymbols"><g class="legendpoints"/></g></g><rect class="legendtoggle" x="0" y="-9.5" width="96.21875" height="19" style="fill: rgb(0, 0, 0); fill-opacity: 0;"/></g><g class="traces" style="opacity: 1;" transform="translate(0, 33.5)"><text class="legendtext" text-anchor="start" x="40" y="4.680000000000001" style="font-family: 'Open Sans', verdana, arial, sans-serif; font-size: 12px; fill: rgb(68, 68, 68); fill-opacity: 1; white-space: pre;">forecasts</text><g class="layers" style="opacity: 1;"><g class="legendfill"/><g class="legendlines"><path class="js-line" d="M5,0h30" style="fill: none; stroke: rgb(255, 127, 14); stroke-opacity: 1; stroke-width: 2px;"/></g><g class="legendsymbols"><g class="legendpoints"/></g></g><rect class="legendtoggle" x="0" y="-9.5" width="96.21875" height="19" style="fill: rgb(0, 0, 0); fill-opacity: 0;"/></g></g></g><rect class="scrollbar" rx="20" ry="3" width="0" height="0" style="fill: rgb(128, 139, 164); fill-opacity: 1;" x="0" y="0"/></g><g class="g-gtitle"><text class="gtitle" x="513.5" y="12.5" text-anchor="middle" dy="0em" style="font-family: 'Open Sans', verdana, arial, sans-serif; font-size: 17px; fill: rgb(68, 68, 68); opacity: 1; font-weight: normal; white-space: pre;">Positive cases as proportion of tested per day as of Mar 21, 2021. Including a 7-day forecast of positivity rate.</text></g><g class="g-xtitle" transform="translate(0,-15)"><text class="xtitle" x="479" y="780" text-anchor="middle" style="font-family: 'Open Sans', verdana, arial, sans-serif; font-size: 14px; fill: rgb(68, 68, 68); opacity: 1; font-weight: normal; white-space: pre;">Date</text></g><g class="g-ytitle"><text class="ytitle" transform="rotate(-90,22,376.5)" x="22" y="376.5" text-anchor="middle" style="font-family: 'Open Sans', verdana, arial, sans-serif; font-size: 14px; fill: rgb(68, 68, 68); opacity: 1; font-weight: normal; white-space: pre;">ratio of positive to tested</text></g></g></svg>