<svg class="main-svg" xmlns="http://www.w3.org/2000/svg" xmlns:xlink="http://www.w3.org/1999/xlink" width="1027" height="768" style="" viewBox="0 0 1027 768"><rect x="0" y="0" width="1027" height="768" style="fill: rgb(255, 255, 255); fill-opacity: 1;"/><defs id="defs-314bf0"><g class="clips"><clipPath id="clip314bf0xyplot" class="plotclip"><rect width="838" height="703"/></clipPath><clipPath class="axesclip" id="clip314bf0x"><rect x="60" y="0" width="838" height="768"/></clipPath><clipPath class="axesclip" id="clip314bf0y"><rect x="0" y="25" width="1027" height="703"/></clipPath><clipPath class="axesclip" id="clip314bf0xy"><rect x="60" y="25" width="838" height="703"/></clipPath></g><g class="gradients"/></defs><g class="bglayer"/><g class="layer-below"><g class="imagelayer"/><g class="shapelayer"/></g><g class="cartesianlayer"><g class="subplot xy"><g class="layer-subplot"><g class="shapelayer"/><g class="imagelayer"/></g><g class="gridlayer"><g class="x"><path class="xgrid crisp" transform="translate(66.25,0)" d="M0,25v703" style="stroke: rgb(238, 238, 238); stroke-opacity: 1; stroke-width: 1px;"/><path class="xgrid crisp" transform="translate(193.41,0)" d="M0,25v703" style="stroke: rgb(238, 238, 238); stroke-opacity: 1; stroke-width: 1px;"/><path class="xgrid crisp" transform="translate(320.57,0)" d="M0,25v703" style="stroke: rgb(238, 238, 238); stroke-opacity: 1; stroke-width: 1px;"/><path class="xgrid crisp" transform="translate(449.82,0)" d="M0,25v703" style="stroke: rgb(238, 238, 238); stroke-opacity: 1; stroke-width: 1px;"/><path class="xgrid crisp" transform="translate(576.98,0)" d="M0,25v703" style="stroke: rgb(238, 238, 238); stroke-opacity: 1; stroke-width: 1px;"/><path class="xgrid crisp" transform="translate(704.13,0)" d="M0,25v703" style="stroke: rgb(238, 238, 238); stroke-opacity: 1; stroke-width: 1px;"/><path class="xgrid crisp" transform="translate(827.12,0)" d="M0,25v703" style="stroke: rgb(238, 238, 238); stroke-opacity: 1; stroke-width: 1px;"/></g><g class="y"><path class="ygrid crisp" transform="translate(0,532.65)" d="M60,0h838" style="stroke: rgb(238, 238, 238); stroke-opacity: 1; stroke-width: 1px;"/><path class="ygrid crisp" transform="translate(0,372.46)" d="M60,0h838" style="stroke: rgb(238, 238, 238); stroke-opacity: 1; stroke-width: 1px;"/><path class="ygrid crisp" transform="translate(0,212.26)" d="M60,0h838" style="stroke: rgb(238, 238, 238); stroke-opacity: 1; stroke-width: 1px;"/><path class="ygrid crisp" transform="translate(0,52.06)" d="M60,0h838" style="stroke: rgb(238, 238, 238); stroke-opacity: 1; stroke-width: 1px;"/></g></g><g class="zerolinelayer"><path class="yzl zl crisp" transform="translate(0,692.85)" d="M60,0h838" style="stroke: rgb(68, 68, 68); stroke-opacity: 1; stroke-width: 1px;"/></g><path class="xlines-below"/><path class="ylines-below"/><g class="overlines-below"/><g class="xaxislayer-below"/><g class="yaxislayer-below"/><g class="overaxes-below"/><g class="plot" transform="translate(60, 25)" clip-path="url('#clip314bf0xyplot')"><g class="scatterlayer mlayer"><g class="trace scatter tracefbc5dd" style="stroke-miterlimit: 2; opacity: 1;"><g class="fills"/><g class="errorbars"/><g class="lines"><path class="js-line" d="M0,622.08L2.08,621.42L8.34,505.63L10.42,614.89L12.51,667.85L14.59,653.8L16.68,602.8L18.76,638.59L22.93,614.7L25.01,667.85L27.1,638.18L29.18,598.9L31.27,599.97L33.35,617.23L35.44,593.79L37.52,608L39.61,632.36L41.69,638.47L43.78,617.81L45.86,600.66L47.95,620.7L50.03,621.42L52.11,549.58L54.2,600.54L56.28,572.07L58.37,483.2L60.45,497.46L62.54,432.27L64.62,317.67L66.71,404.9L68.79,449.29L70.88,403.44L72.96,299.64L75.04,405.8L77.13,315.31L79.21,403.85L81.3,194.99L83.38,123.47L85.47,290.13L87.55,282.57L89.64,306.88L91.72,480.13L93.81,401.54L95.89,348.91L97.98,404.5L100.06,484.89L102.14,464.79L104.23,35.15L106.31,558.54L108.4,445.78L110.48,478.64L112.57,510.14L114.65,468.98L118.82,523.68L120.91,551.37L122.99,559.61L125.07,512.85L127.16,571.63L129.24,554.1L131.33,586.26L133.41,567.44L135.5,586.75L137.58,586.4L139.67,551.47L141.75,566L143.84,583.63L145.92,574.06L148,610.19L150.09,614.38L152.17,597.21L154.26,571.12L156.34,598.21L158.43,604.43L160.51,608.32L162.6,597.34L164.68,600.68L166.77,561.46L168.85,432.5L170.94,498.58L173.02,541.9L175.1,542.55L177.19,548.15L179.27,538.38L181.36,509.42L183.44,574.73L185.53,606.03L187.61,598.19L191.78,617.71L193.87,606.46L195.95,577.83L198.03,574.11L200.12,606.1L202.2,613.07L204.29,619.36L206.37,604.76L208.46,599.22L210.54,617.15L212.63,613.3L214.71,627.52L216.8,641.13L218.88,647.27L220.97,636.81L223.05,640.74L225.13,641.19L227.22,640.71L229.3,642.7L231.39,645.92L233.47,646.9L235.56,643.75L239.73,644.3L241.81,625.1L243.9,645.35L245.98,645.84L248.06,656.3L250.15,652.54L252.23,647.93L254.32,637.5L256.4,646.68L258.49,649.53L262.66,646L264.74,649.76L266.83,649.27L268.91,639.33L271,644.1L273.08,651.29L275.16,647.16L277.25,654.33L279.33,653.74L281.42,651.78L283.5,650.06L285.59,646.61L287.67,654.1L289.76,654.43L291.84,656.44L293.93,649.41L298.09,647.17L300.18,639.54L302.26,645.81L304.35,655.16L306.43,646.16L308.52,653.06L310.6,651.06L312.69,652.39L314.77,647.33L316.86,658.93L318.94,657.55L321.02,653.55L323.11,655.91L325.19,655.64L327.28,655.6L329.36,652.64L331.45,651.86L333.53,656.22L335.62,656.63L337.7,659.23L339.79,658.74L341.87,651.31L343.96,662.95L346.04,655.46L348.12,659.41L350.21,658.07L352.29,656.69L354.38,656.95L356.46,655.44L358.55,650.49L362.72,658.45L364.8,652.9L366.89,655.77L368.97,652.09L371.05,649.95L373.14,651.84L375.22,655.01L377.31,654.64L379.39,655.57L381.48,653.08L385.65,653.3L387.73,652.61L389.82,650.1L391.9,651.77L393.99,651.26L396.07,648.97L398.15,650.37L400.24,642.19L402.32,639.53L404.41,640.73L406.49,645.77L408.58,646.85L412.75,646.86L414.83,633.9L416.92,638.78L419,632.76L421.08,641.13L423.17,631.99L425.25,634.36L427.34,638.71L429.42,624.97L431.51,623.07L433.59,637.56L435.68,625.07L437.76,636.55L439.85,635.62L441.93,630.84L444.01,613.3L446.1,621.6L448.18,611.84L450.27,624.37L452.35,609.35L454.44,622.62L456.52,622.13L458.61,616.26L460.69,626.08L462.78,624.69L464.86,615.19L466.95,600.87L469.03,609.34L471.11,620.74L473.2,596.96L475.28,591.32L477.37,596.12L479.45,605.07L481.54,608.61L483.62,610.18L485.71,616.24L487.79,597.06L489.88,558.47L491.96,590.32L494.04,598.51L496.13,601.72L498.21,596.88L500.3,581.74L502.38,572.69L504.47,557.19L506.55,578.81L508.64,583.84L510.72,597.85L514.89,583.55L516.98,559.02L519.06,534.77L521.14,557.15L523.23,578.42L525.31,589.98L527.4,575.25L529.48,554.62L531.57,527.74L533.65,515.16L535.74,543.38L537.82,540.29L539.91,557.44L541.99,554.88L544.07,573.11L546.16,525L548.24,516.66L550.33,532.08L552.41,575.19L554.5,573.54L556.58,558.83L558.67,561.9L560.75,531.98L562.84,548.35L564.92,545.91L567,568.32L571.17,561.88L573.26,566.43L575.34,525.89L577.43,509.97L579.51,543.03L581.6,557.32L583.68,566.01L585.77,567.58L587.85,563.81L589.94,531.65L592.02,530.86L594.1,543.11L596.19,565.06L598.27,573.94L600.36,575.9L602.44,575.51L604.53,558.98L606.61,483.63L608.7,528.53L610.78,533.92L612.87,560.34L614.95,555.49L617.03,560.95L619.12,543.05L621.2,511.99L623.29,531.69L625.37,546.47L627.46,555.31L629.54,529.24L631.63,514.11L633.71,510.83L635.8,428.06L637.88,429L639.97,500.87L642.05,553.82L644.13,492.37L646.22,480.92L648.3,400.04L650.39,382.75L652.47,462.85L654.56,496.43L656.64,477.4L658.73,516.53L660.81,464.99L662.9,437.37L664.98,460.25L667.06,481.58L669.15,518.12L671.23,542.24L673.32,535.31L675.4,485.67L677.49,462.9L683.74,547.82L685.83,548.98L687.91,548.74L690,509.64L692.08,493.44L694.16,486.36L696.25,570.9L698.33,564.15L700.42,582.6L702.5,556.94L704.59,547.88L706.67,460.05L708.76,584.25L710.84,596.21L715.01,582.53L717.09,596.52L719.18,575.5L721.26,524.65L725.43,602.43L727.52,623.85L731.69,596.97L733.77,603.31L735.86,566.1L737.94,560.6L742.11,608.64L744.19,611.49L746.28,599.06L748.36,595.56L750.45,559.07L752.53,547.61L754.62,606.29L756.7,612.9L758.79,604.92L760.87,603.95L762.96,598.67L765.04,574.24L767.12,567.25L769.21,609.51L771.29,619.33L773.38,606L775.46,613L777.55,578.51L779.63,530.56L781.72,553.71L783.8,589.98L785.89,610.13L790.05,587.36L792.14,550.3L796.31,547.22L798.39,569.5L800.48,582.88L802.56,568.25L804.65,555.34L806.73,551.3L808.82,492.76L810.9,515.7L812.99,570.98L815.07,540.92L817.15,537.8L819.24,539.02L821.32,511.69L823.41,497.87" style="vector-effect: non-scaling-stroke; fill: none; stroke: rgb(31, 119, 180); stroke-opacity: 1; stroke-width: 2px; opacity: 1;"/></g><g class="points"/><g class="text"/></g><g class="trace scatter trace61ab97" style="stroke-miterlimit: 2; opacity: 1;"><g class="fills"/><g class="errorbars"/><g class="lines"><path class="js-line" d="M823.41,497.87L825.49,523.26L827.58,530.25L831.75,541.56L833.83,522.35L835.92,503.59L838,505.43" style="vector-effect: non-scaling-stroke; fill: none; stroke: rgb(255, 127, 14); stroke-opacity: 1; stroke-width: 2px; opacity: 1;"/></g><g class="points"/><g class="text"/></g></g></g><g class="overplot"/><path class="xlines-above crisp" style="fill: none;" d="M0,0"/><path class="ylines-above crisp" style="fill: none;" d="M0,0"/><g class="overlines-above"/><g class="xaxislayer-above"><g class="xtick"><text text-anchor="middle" x="0" y="741" transform="translate(66.25,0)" style="font-family: 'Open Sans', verdana, arial, sans-serif; font-size: 12px; fill: rgb(68, 68, 68); fill-opacity: 1; white-space: pre;">Mar 2020</text></g><g class="xtick"><text text-anchor="middle" x="0" y="741" transform="translate(193.41,0)" style="font-family: 'Open Sans', verdana, arial, sans-serif; font-size: 12px; fill: rgb(68, 68, 68); fill-opacity: 1; white-space: pre;">May 2020</text></g><g class="xtick"><text text-anchor="middle" x="0" y="741" transform="translate(320.57,0)" style="font-family: 'Open Sans', verdana, arial, sans-serif; font-size: 12px; fill: rgb(68, 68, 68); fill-opacity: 1; white-space: pre;">Jul 2020</text></g><g class="xtick"><text text-anchor="middle" x="0" y="741" transform="translate(449.82,0)" style="font-family: 'Open Sans', verdana, arial, sans-serif; font-size: 12px; fill: rgb(68, 68, 68); fill-opacity: 1; white-space: pre;">Sep 2020</text></g><g class="xtick"><text text-anchor="middle" x="0" y="741" transform="translate(576.98,0)" style="font-family: 'Open Sans', verdana, arial, sans-serif; font-size: 12px; fill: rgb(68, 68, 68); fill-opacity: 1; white-space: pre;">Nov 2020</text></g><g class="xtick"><text text-anchor="middle" x="0" y="741" transform="translate(704.13,0)" style="font-family: 'Open Sans', verdana, arial, sans-serif; font-size: 12px; fill: rgb(68, 68, 68); fill-opacity: 1; white-space: pre;">Jan 2021</text></g><g class="xtick"><text text-anchor="middle" x="0" y="741" transform="translate(827.12,0)" style="font-family: 'Open Sans', verdana, arial, sans-serif; font-size: 12px; fill: rgb(68, 68, 68); fill-opacity: 1; white-space: pre;">Mar 2021</text></g></g><g class="yaxislayer-above"><g class="ytick"><text text-anchor="end" x="59" y="4.199999999999999" transform="translate(0,692.85)" style="font-family: 'Open Sans', verdana, arial, sans-serif; font-size: 12px; fill: rgb(68, 68, 68); fill-opacity: 1; white-space: pre;">0</text></g><g class="ytick"><text text-anchor="end" x="59" y="4.199999999999999" transform="translate(0,532.65)" style="font-family: 'Open Sans', verdana, arial, sans-serif; font-size: 12px; fill: rgb(68, 68, 68); fill-opacity: 1; white-space: pre;">0.05</text></g><g class="ytick"><text text-anchor="end" x="59" y="4.199999999999999" transform="translate(0,372.46)" style="font-family: 'Open Sans', verdana, arial, sans-serif; font-size: 12px; fill: rgb(68, 68, 68); fill-opacity: 1; white-space: pre;">0.1</text></g><g class="ytick"><text text-anchor="end" x="59" y="4.199999999999999" transform="translate(0,212.26)" style="font-family: 'Open Sans', verdana, arial, sans-serif; font-size: 12px; fill: rgb(68, 68, 68); fill-opacity: 1; white-space: pre;">0.15</text></g><g class="ytick"><text text-anchor="end" x="59" y="4.199999999999999" transform="translate(0,52.06)" style="font-family: 'Open Sans', verdana, arial, sans-serif; font-size: 12px; fill: rgb(68, 68, 68); fill-opacity: 1; white-space: pre;">0.2</text></g></g><g class="overaxes-above"/></g></g><g class="polarlayer"/><g class="ternarylayer"/><g class="geolayer"/><g class="funnelarealayer"/><g class="pielayer"/><g class="treemaplayer"/><g class="sunburstlayer"/><g class="glimages"/><defs id="topdefs-314bf0"><g class="clips"/><clipPath id="legend314bf0"><rect width="102" height="48" x="0" y="0"/></clipPath></defs><g class="layer-above"><g class="imagelayer"/><g class="shapelayer"/></g><g class="infolayer"><g class="legend" pointer-events="all" transform="translate(914.76, 25)"><rect class="bg" shape-rendering="crispEdges" style="stroke: rgb(68, 68, 68); stroke-opacity: 1; fill: rgb(255, 255, 255); fill-opacity: 1; stroke-width: 0px;" width="102" height="48" x="0" y="0"/><g class="scrollbox" transform="translate(0, 0)" clip-path="url('#legend314bf0')"><g class="groups"><g class="traces" style="opacity: 1;" transform="translate(0, 14.5)"><text class="legendtext" text-anchor="start" x="40" y="4.680000000000001" style="font-family: 'Open Sans', verdana, arial, sans-serif; font-size: 12px; fill: rgb(68, 68, 68); fill-opacity: 1; white-space: pre;">actuals</text><g class="layers" style="opacity: 1;"><g class="legendfill"/><g class="legendlines"><path class="js-line" d="M5,0h30" style="fill: none; stroke: rgb(31, 119, 180); stroke-opacity: 1; stroke-width: 2px;"/></g><g class="legendsymbols"><g class="legendpoints"/></g></g><rect class="legendtoggle" x="0" y="-9.5" width="96.21875" height="19" style="fill: rgb(0, 0, 0); fill-opacity: 0;"/></g><g class="traces" style="opacity: 1;" transform="translate(0, 33.5)"><text class="legendtext" text-anchor="start" x="40" y="4.680000000000001" style="font-family: 'Open Sans', verdana, arial, sans-serif; font-size: 12px; fill: rgb(68, 68, 68); fill-opacity: 1; white-space: pre;">forecasts</text><g class="layers" style="opacity: 1;"><g class="legendfill"/><g class="legendlines"><path class="js-line" d="M5,0h30" style="fill: none; stroke: rgb(255, 127, 14); stroke-opacity: 1; stroke-width: 2px;"/></g><g class="legendsymbols"><g class="legendpoints"/></g></g><rect class="legendtoggle" x="0" y="-9.5" width="96.21875" height="19" style="fill: rgb(0, 0, 0); fill-opacity: 0;"/></g></g></g><rect class="scrollbar" rx="20" ry="3" width="0" height="0" style="fill: rgb(128, 139, 164); fill-opacity: 1;" x="0" y="0"/></g><g class="g-gtitle"><text class="gtitle" x="513.5" y="12.5" text-anchor="middle" dy="0em" style="font-family: 'Open Sans', verdana, arial, sans-serif; font-size: 17px; fill: rgb(68, 68, 68); opacity: 1; font-weight: normal; white-space: pre;">Positive cases as proportion of tested per day as of Mar 29, 2021. Including a 7-day forecast of positivity rate.</text></g><g class="g-xtitle" transform="translate(0,-15)"><text class="xtitle" x="479" y="780" text-anchor="middle" style="font-family: 'Open Sans', verdana, arial, sans-serif; font-size: 14px; fill: rgb(68, 68, 68); opacity: 1; font-weight: normal; white-space: pre;">Date</text></g><g class="g-ytitle"><text class="ytitle" transform="rotate(-90,22,376.5)" x="22" y="376.5" text-anchor="middle" style="font-family: 'Open Sans', verdana, arial, sans-serif; font-size: 14px; fill: rgb(68, 68, 68); opacity: 1; font-weight: normal; white-space: pre;">ratio of positive to tested</text></g></g></svg>