<svg class="main-svg" xmlns="http://www.w3.org/2000/svg" xmlns:xlink="http://www.w3.org/1999/xlink" width="1027" height="768" style="" viewBox="0 0 1027 768"><rect x="0" y="0" width="1027" height="768" style="fill: rgb(255, 255, 255); fill-opacity: 1;"/><defs id="defs-9c0efd"><g class="clips"><clipPath id="clip9c0efdxyplot" class="plotclip"><rect width="957" height="703"/></clipPath><clipPath class="axesclip" id="clip9c0efdx"><rect x="60" y="0" width="957" height="768"/></clipPath><clipPath class="axesclip" id="clip9c0efdy"><rect x="0" y="25" width="1027" height="703"/></clipPath><clipPath class="axesclip" id="clip9c0efdxy"><rect x="60" y="25" width="957" height="703"/></clipPath></g><g class="gradients"/></defs><g class="bglayer"/><g class="layer-below"><g class="imagelayer"/><g class="shapelayer"/></g><g class="cartesianlayer"><g class="subplot xy"><g class="layer-subplot"><g class="shapelayer"/><g class="imagelayer"/></g><g class="gridlayer"><g class="x"><path class="xgrid crisp" transform="translate(69.93,0)" d="M0,25v703" style="stroke: rgb(238, 238, 238); stroke-opacity: 1; stroke-width: 1px;"/><path class="xgrid crisp" transform="translate(172.59,0)" d="M0,25v703" style="stroke: rgb(238, 238, 238); stroke-opacity: 1; stroke-width: 1px;"/><path class="xgrid crisp" transform="translate(271.93,0)" d="M0,25v703" style="stroke: rgb(238, 238, 238); stroke-opacity: 1; stroke-width: 1px;"/><path class="xgrid crisp" transform="translate(374.58,0)" d="M0,25v703" style="stroke: rgb(238, 238, 238); stroke-opacity: 1; stroke-width: 1px;"/><path class="xgrid crisp" transform="translate(473.93,0)" d="M0,25v703" style="stroke: rgb(238, 238, 238); stroke-opacity: 1; stroke-width: 1px;"/><path class="xgrid crisp" transform="translate(576.58,0)" d="M0,25v703" style="stroke: rgb(238, 238, 238); stroke-opacity: 1; stroke-width: 1px;"/><path class="xgrid crisp" transform="translate(679.24,0)" d="M0,25v703" style="stroke: rgb(238, 238, 238); stroke-opacity: 1; stroke-width: 1px;"/><path class="xgrid crisp" transform="translate(778.58,0)" d="M0,25v703" style="stroke: rgb(238, 238, 238); stroke-opacity: 1; stroke-width: 1px;"/><path class="xgrid crisp" transform="translate(881.23,0)" d="M0,25v703" style="stroke: rgb(238, 238, 238); stroke-opacity: 1; stroke-width: 1px;"/><path class="xgrid crisp" transform="translate(980.57,0)" d="M0,25v703" style="stroke: rgb(238, 238, 238); stroke-opacity: 1; stroke-width: 1px;"/></g><g class="y"><path class="ygrid crisp" transform="translate(0,532.65)" d="M60,0h957" style="stroke: rgb(238, 238, 238); stroke-opacity: 1; stroke-width: 1px;"/><path class="ygrid crisp" transform="translate(0,372.46)" d="M60,0h957" style="stroke: rgb(238, 238, 238); stroke-opacity: 1; stroke-width: 1px;"/><path class="ygrid crisp" transform="translate(0,212.26)" d="M60,0h957" style="stroke: rgb(238, 238, 238); stroke-opacity: 1; stroke-width: 1px;"/><path class="ygrid crisp" transform="translate(0,52.06)" d="M60,0h957" style="stroke: rgb(238, 238, 238); stroke-opacity: 1; stroke-width: 1px;"/></g></g><g class="zerolinelayer"><path class="yzl zl crisp" transform="translate(0,692.85)" d="M60,0h957" style="stroke: rgb(68, 68, 68); stroke-opacity: 1; stroke-width: 1px;"/></g><path class="xlines-below"/><path class="ylines-below"/><g class="overlines-below"/><g class="xaxislayer-below"/><g class="yaxislayer-below"/><g class="overaxes-below"/><g class="plot" transform="translate(60, 25)" clip-path="url('#clip9c0efdxyplot')"><g class="scatterlayer mlayer"><g class="trace scatter trace3bd9f8" style="stroke-miterlimit: 2; opacity: 1;"><g class="fills"/><g class="errorbars"/><g class="lines"><path class="js-line" d="M0,622.08L3.31,621.42L13.25,505.63L16.56,614.89L19.87,667.85L23.18,653.8L26.49,602.8L29.8,638.59L36.43,614.7L39.74,667.85L43.05,638.18L46.36,598.9L49.67,599.97L52.98,617.23L56.29,593.79L59.61,608L62.92,632.36L66.23,638.47L69.54,617.81L72.85,600.66L76.16,620.7L79.47,621.42L82.79,549.58L86.1,600.54L89.41,572.07L92.72,483.2L96.03,497.46L99.34,432.27L102.65,317.67L105.97,404.9L109.28,449.29L112.59,403.44L115.9,299.64L119.21,405.8L122.52,315.31L125.83,403.85L129.15,194.99L132.46,123.47L135.77,290.13L139.08,282.57L142.39,306.88L145.7,480.13L149.01,401.54L152.33,348.91L155.64,404.5L158.95,484.89L162.26,464.79L165.57,35.15L168.88,558.54L172.19,445.78L175.51,478.64L178.82,510.14L182.13,468.98L185.44,501.07L188.75,523.68L192.06,551.37L195.37,559.61L198.69,512.85L202,571.63L205.31,554.1L208.62,586.26L211.93,567.44L215.24,586.75L218.55,586.4L221.87,551.47L228.49,583.63L231.8,574.06L235.11,610.19L238.42,614.38L241.73,597.21L245.04,571.12L248.36,598.21L251.67,604.43L254.98,608.32L258.29,597.34L261.6,600.68L264.91,561.46L268.22,432.5L271.54,498.58L274.85,541.9L278.16,542.55L281.47,548.15L284.78,538.38L288.09,509.42L291.4,574.73L294.72,606.03L298.03,598.19L304.65,617.71L307.96,606.46L311.27,577.83L314.58,574.11L317.9,606.1L321.21,613.07L324.52,619.36L327.83,604.76L331.14,599.22L334.45,617.15L337.76,613.3L341.08,627.52L344.39,641.13L347.7,647.27L351.01,636.81L354.32,640.74L357.63,641.19L360.94,640.71L364.26,642.7L367.57,645.92L370.88,646.9L374.19,643.75L380.81,644.3L384.12,625.1L387.44,645.35L390.75,645.84L394.06,656.3L397.37,652.54L400.68,647.93L403.99,637.5L407.3,646.68L410.62,649.53L417.24,646L420.55,649.76L423.86,649.27L427.17,639.33L430.48,644.1L433.8,651.29L437.11,647.16L440.42,654.33L443.73,653.74L447.04,651.78L450.35,650.06L453.66,646.61L456.98,654.1L460.29,654.43L463.6,656.44L466.91,649.41L473.53,647.17L476.84,639.54L480.16,645.81L483.47,655.16L486.78,646.16L490.09,653.06L493.4,651.06L496.71,652.39L500.02,647.33L503.34,658.93L506.65,657.55L509.96,653.55L513.27,655.91L516.58,655.64L519.89,655.6L523.2,652.64L526.52,651.86L529.83,656.22L533.14,656.63L536.45,659.23L539.76,658.74L543.07,651.31L546.38,662.95L549.7,655.46L553.01,659.41L556.32,658.07L559.63,656.69L562.94,656.95L566.25,655.44L569.56,650.49L576.19,658.45L579.5,652.9L582.81,655.77L586.12,652.09L589.43,649.95L592.74,651.84L596.06,655.01L599.37,654.64L602.68,655.57L605.99,653.08L612.61,653.3L615.92,652.61L619.24,650.1L622.55,651.77L625.86,651.26L629.17,648.97L632.48,650.37L635.79,642.19L639.1,639.53L642.42,640.73L645.73,645.77L649.04,646.85L655.66,646.86L658.97,633.9L662.28,638.78L665.6,632.76L668.91,641.13L672.22,631.99L675.53,634.36L678.84,638.71L682.15,624.97L685.46,623.07L688.78,637.56L692.09,625.07L695.4,636.55L698.71,635.62L702.02,630.84L705.33,613.3L708.64,621.6L711.96,611.84L715.27,624.37L718.58,609.35L721.89,622.62L725.2,622.13L728.51,616.26L731.82,626.08L735.13,624.69L738.45,615.19L741.76,600.87L745.07,609.34L748.38,620.74L751.69,596.96L755,591.32L758.31,596.12L761.63,605.07L764.94,608.61L768.25,610.18L771.56,616.24L774.87,597.06L778.18,558.47L781.49,590.32L784.81,598.51L788.12,601.72L791.43,596.88L794.74,581.74L798.05,572.69L801.36,557.19L804.67,578.81L807.99,583.84L811.3,597.85L817.92,583.55L821.23,559.02L824.54,534.77L827.85,557.15L831.17,578.42L834.48,589.98L837.79,575.25L841.1,554.62L844.41,527.74L847.72,515.16L851.03,543.38L854.35,540.29L857.66,557.44L860.97,554.88L864.28,573.11L867.59,525L870.9,516.66L874.21,532.08L877.53,575.19L880.84,573.54L884.15,558.83L887.46,561.9L890.77,531.98L894.08,548.35L897.39,545.91L900.71,568.32L907.33,561.88L910.64,566.43L913.95,525.89L917.26,509.97L920.57,543.03L923.89,557.32L927.2,566.01L930.51,567.58L933.82,563.81L937.13,531.65L940.44,530.86L943.75,543.11L947.07,565.06L950.38,573.94L953.69,575.9L957,575.51" style="vector-effect: non-scaling-stroke; fill: none; stroke: rgb(31, 119, 180); stroke-opacity: 1; stroke-width: 2px; opacity: 1;"/></g><g class="points"/><g class="text"/></g></g></g><g class="overplot"/><path class="xlines-above crisp" d="M0,0" style="fill: none;"/><path class="ylines-above crisp" d="M0,0" style="fill: none;"/><g class="overlines-above"/><g class="xaxislayer-above"><g class="xtick"><text text-anchor="middle" x="0" y="741" transform="translate(69.93,0)" style="font-family: 'Open Sans', verdana, arial, sans-serif; font-size: 12px; fill: rgb(68, 68, 68); fill-opacity: 1; white-space: pre;">Mar 2020</text></g><g class="xtick"><text text-anchor="middle" x="0" y="741" transform="translate(172.59,0)" style="font-family: 'Open Sans', verdana, arial, sans-serif; font-size: 12px; fill: rgb(68, 68, 68); fill-opacity: 1; white-space: pre;">Apr 2020</text></g><g class="xtick"><text text-anchor="middle" x="0" y="741" transform="translate(271.93,0)" style="font-family: 'Open Sans', verdana, arial, sans-serif; font-size: 12px; fill: rgb(68, 68, 68); fill-opacity: 1; white-space: pre;">May 2020</text></g><g class="xtick"><text text-anchor="middle" x="0" y="741" transform="translate(374.58,0)" style="font-family: 'Open Sans', verdana, arial, sans-serif; font-size: 12px; fill: rgb(68, 68, 68); fill-opacity: 1; white-space: pre;">Jun 2020</text></g><g class="xtick"><text text-anchor="middle" x="0" y="741" transform="translate(473.93,0)" style="font-family: 'Open Sans', verdana, arial, sans-serif; font-size: 12px; fill: rgb(68, 68, 68); fill-opacity: 1; white-space: pre;">Jul 2020</text></g><g class="xtick"><text text-anchor="middle" x="0" y="741" transform="translate(576.58,0)" style="font-family: 'Open Sans', verdana, arial, sans-serif; font-size: 12px; fill: rgb(68, 68, 68); fill-opacity: 1; white-space: pre;">Aug 2020</text></g><g class="xtick"><text text-anchor="middle" x="0" y="741" transform="translate(679.24,0)" style="font-family: 'Open Sans', verdana, arial, sans-serif; font-size: 12px; fill: rgb(68, 68, 68); fill-opacity: 1; white-space: pre;">Sep 2020</text></g><g class="xtick"><text text-anchor="middle" x="0" y="741" transform="translate(778.58,0)" style="font-family: 'Open Sans', verdana, arial, sans-serif; font-size: 12px; fill: rgb(68, 68, 68); fill-opacity: 1; white-space: pre;">Oct 2020</text></g><g class="xtick"><text text-anchor="middle" x="0" y="741" transform="translate(881.23,0)" style="font-family: 'Open Sans', verdana, arial, sans-serif; font-size: 12px; fill: rgb(68, 68, 68); fill-opacity: 1; white-space: pre;">Nov 2020</text></g><g class="xtick"><text text-anchor="middle" x="0" y="741" transform="translate(980.57,0)" style="font-family: 'Open Sans', verdana, arial, sans-serif; font-size: 12px; fill: rgb(68, 68, 68); fill-opacity: 1; white-space: pre;">Dec 2020</text></g></g><g class="yaxislayer-above"><g class="ytick"><text text-anchor="end" x="59" y="4.199999999999999" transform="translate(0,692.85)" style="font-family: 'Open Sans', verdana, arial, sans-serif; font-size: 12px; fill: rgb(68, 68, 68); fill-opacity: 1; white-space: pre;">0</text></g><g class="ytick"><text text-anchor="end" x="59" y="4.199999999999999" transform="translate(0,532.65)" style="font-family: 'Open Sans', verdana, arial, sans-serif; font-size: 12px; fill: rgb(68, 68, 68); fill-opacity: 1; white-space: pre;">0.05</text></g><g class="ytick"><text text-anchor="end" x="59" y="4.199999999999999" transform="translate(0,372.46)" style="font-family: 'Open Sans', verdana, arial, sans-serif; font-size: 12px; fill: rgb(68, 68, 68); fill-opacity: 1; white-space: pre;">0.1</text></g><g class="ytick"><text text-anchor="end" x="59" y="4.199999999999999" transform="translate(0,212.26)" style="font-family: 'Open Sans', verdana, arial, sans-serif; font-size: 12px; fill: rgb(68, 68, 68); fill-opacity: 1; white-space: pre;">0.15</text></g><g class="ytick"><text text-anchor="end" x="59" y="4.199999999999999" transform="translate(0,52.06)" style="font-family: 'Open Sans', verdana, arial, sans-serif; font-size: 12px; fill: rgb(68, 68, 68); fill-opacity: 1; white-space: pre;">0.2</text></g></g><g class="overaxes-above"/></g></g><g class="polarlayer"/><g class="ternarylayer"/><g class="geolayer"/><g class="funnelarealayer"/><g class="pielayer"/><g class="treemaplayer"/><g class="sunburstlayer"/><g class="glimages"/><defs id="topdefs-9c0efd"><g class="clips"/></defs><g class="layer-above"><g class="imagelayer"/><g class="shapelayer"/></g><g class="infolayer"><g class="g-gtitle"><text class="gtitle" x="513.5" y="12.5" text-anchor="middle" dy="0em" style="font-family: 'Open Sans', verdana, arial, sans-serif; font-size: 17px; fill: rgb(68, 68, 68); opacity: 1; font-weight: normal; white-space: pre;">Positive cases as proportion of tested per day as of Dec 13, 2020</text></g><g class="g-xtitle" transform="translate(0,-15)"><text class="xtitle" x="538.5" y="780" text-anchor="middle" style="font-family: 'Open Sans', verdana, arial, sans-serif; font-size: 14px; fill: rgb(68, 68, 68); opacity: 1; font-weight: normal; white-space: pre;">Date</text></g><g class="g-ytitle"><text class="ytitle" transform="rotate(-90,22,376.5)" x="22" y="376.5" text-anchor="middle" style="font-family: 'Open Sans', verdana, arial, sans-serif; font-size: 14px; fill: rgb(68, 68, 68); opacity: 1; font-weight: normal; white-space: pre;">ratio of positive to tested</text></g></g></svg>