<svg class="main-svg" xmlns="http://www.w3.org/2000/svg" xmlns:xlink="http://www.w3.org/1999/xlink" width="1027" height="768" style="" viewBox="0 0 1027 768"><rect x="0" y="0" width="1027" height="768" style="fill: rgb(255, 255, 255); fill-opacity: 1;"/><defs id="defs-deb8c1"><g class="clips"><clipPath id="clipdeb8c1xyplot" class="plotclip"><rect width="957" height="703"/></clipPath><clipPath class="axesclip" id="clipdeb8c1x"><rect x="60" y="0" width="957" height="768"/></clipPath><clipPath class="axesclip" id="clipdeb8c1y"><rect x="0" y="25" width="1027" height="703"/></clipPath><clipPath class="axesclip" id="clipdeb8c1xy"><rect x="60" y="25" width="957" height="703"/></clipPath></g><g class="gradients"/></defs><g class="bglayer"/><g class="layer-below"><g class="imagelayer"/><g class="shapelayer"/></g><g class="cartesianlayer"><g class="subplot xy"><g class="layer-subplot"><g class="shapelayer"/><g class="imagelayer"/></g><g class="gridlayer"><g class="x"><path class="xgrid crisp" transform="translate(72.82,0)" d="M0,25v703" style="stroke: rgb(238, 238, 238); stroke-opacity: 1; stroke-width: 1px;"/><path class="xgrid crisp" transform="translate(205.26,0)" d="M0,25v703" style="stroke: rgb(238, 238, 238); stroke-opacity: 1; stroke-width: 1px;"/><path class="xgrid crisp" transform="translate(333.43,0)" d="M0,25v703" style="stroke: rgb(238, 238, 238); stroke-opacity: 1; stroke-width: 1px;"/><path class="xgrid crisp" transform="translate(465.87,0)" d="M0,25v703" style="stroke: rgb(238, 238, 238); stroke-opacity: 1; stroke-width: 1px;"/><path class="xgrid crisp" transform="translate(594.04,0)" d="M0,25v703" style="stroke: rgb(238, 238, 238); stroke-opacity: 1; stroke-width: 1px;"/><path class="xgrid crisp" transform="translate(726.48,0)" d="M0,25v703" style="stroke: rgb(238, 238, 238); stroke-opacity: 1; stroke-width: 1px;"/><path class="xgrid crisp" transform="translate(858.92,0)" d="M0,25v703" style="stroke: rgb(238, 238, 238); stroke-opacity: 1; stroke-width: 1px;"/><path class="xgrid crisp" transform="translate(987.09,0)" d="M0,25v703" style="stroke: rgb(238, 238, 238); stroke-opacity: 1; stroke-width: 1px;"/></g><g class="y"><path class="ygrid crisp" transform="translate(0,532.65)" d="M60,0h957" style="stroke: rgb(238, 238, 238); stroke-opacity: 1; stroke-width: 1px;"/><path class="ygrid crisp" transform="translate(0,372.46)" d="M60,0h957" style="stroke: rgb(238, 238, 238); stroke-opacity: 1; stroke-width: 1px;"/><path class="ygrid crisp" transform="translate(0,212.26)" d="M60,0h957" style="stroke: rgb(238, 238, 238); stroke-opacity: 1; stroke-width: 1px;"/><path class="ygrid crisp" transform="translate(0,52.06)" d="M60,0h957" style="stroke: rgb(238, 238, 238); stroke-opacity: 1; stroke-width: 1px;"/></g></g><g class="zerolinelayer"><path class="yzl zl crisp" transform="translate(0,692.85)" d="M60,0h957" style="stroke: rgb(68, 68, 68); stroke-opacity: 1; stroke-width: 1px;"/></g><path class="xlines-below"/><path class="ylines-below"/><g class="overlines-below"/><g class="xaxislayer-below"/><g class="yaxislayer-below"/><g class="overaxes-below"/><g class="plot" transform="translate(60, 25)" clip-path="url('#clipdeb8c1xyplot')"><g class="scatterlayer mlayer"><g class="trace scatter tracece1173" style="stroke-miterlimit: 2; opacity: 1;"><g class="fills"/><g class="errorbars"/><g class="lines"><path class="js-line" d="M0,622.08L4.27,621.42L17.09,505.63L21.36,614.89L25.63,667.85L29.91,653.8L34.18,602.8L38.45,638.59L47,614.7L51.27,667.85L55.54,638.18L59.81,598.9L64.08,599.97L68.36,617.23L72.63,593.79L76.9,608L81.17,632.36L85.45,638.47L89.72,617.81L93.99,600.66L98.26,620.7L102.54,621.42L106.81,549.58L111.08,600.54L115.35,572.07L119.63,483.2L123.9,497.46L128.17,432.27L132.44,317.67L136.71,404.9L140.99,449.29L145.26,403.44L149.53,299.64L153.8,405.8L158.08,315.31L162.35,403.85L166.62,194.99L170.89,123.47L175.17,290.13L179.44,282.57L183.71,306.88L187.98,480.13L192.25,401.54L196.53,348.91L200.8,404.5L205.07,484.89L209.34,464.79L213.62,35.15L217.89,558.54L222.16,445.78L226.43,478.64L230.71,510.14L234.98,468.98L239.25,501.07L243.52,523.68L247.79,551.37L252.07,559.61L256.34,512.85L260.61,571.63L264.88,554.1L269.16,586.26L273.43,567.44L277.7,586.75L281.97,586.4L286.25,551.47L290.52,566L294.79,583.63L299.06,574.06L303.33,610.19L307.61,614.38L311.88,597.21L316.15,571.12L320.42,598.21L324.7,604.43L328.97,608.32L333.24,597.34L337.51,600.68L341.79,561.46L346.06,432.5L350.33,498.58L354.6,541.9L358.88,542.55L363.15,548.15L367.42,538.38L371.69,509.42L375.96,574.73L380.24,606.03L384.51,598.19L388.78,608.35L393.05,617.71L397.33,606.46L401.6,577.83L405.87,574.11L410.14,606.1L414.42,613.07L418.69,619.36L422.96,604.76L427.23,599.22L431.5,617.15L435.78,613.3L440.05,627.52L444.32,641.13L448.59,647.27L452.87,636.81L457.14,640.74L461.41,641.19L465.68,640.71L469.96,642.7L474.23,645.92L478.5,646.9L482.77,643.75L491.32,644.3L495.59,625.1L499.86,645.35L504.13,645.84L508.41,656.3L512.68,652.54L516.95,647.93L521.22,637.5L525.5,646.68L529.77,649.53L538.31,646L542.58,649.76L546.86,649.27L551.13,639.33L555.4,644.1L559.67,651.29L563.95,647.16L568.22,654.33L572.49,653.74L576.76,651.78L581.04,650.06L585.31,646.61L589.58,654.1L593.85,654.43L598.13,656.44L602.4,649.41L610.94,647.17L615.21,639.54L619.49,645.81L623.76,655.16L628.03,646.16L632.3,653.06L636.58,651.06L640.85,652.39L645.12,647.33L649.39,658.93L653.67,657.55L657.94,653.55L662.21,655.91L666.48,655.64L670.75,655.6L675.03,652.64L679.3,651.86L683.57,656.22L687.84,656.63L692.12,659.23L696.39,658.74L700.66,651.31L704.93,662.95L709.21,655.46L713.48,659.41L717.75,658.07L722.02,656.69L726.29,656.95L730.57,655.44L734.84,650.49L739.11,655.11L743.38,658.45L747.66,652.9L751.93,655.77L756.2,652.09L760.47,649.95L764.75,651.84L769.02,655.01L773.29,654.64L777.56,655.57L781.83,653.08L786.11,653.48L794.65,652.61L798.92,650.1L803.2,651.77L807.47,651.26L811.74,648.97L816.01,650.37L820.29,642.19L824.56,639.53L828.83,640.73L833.1,645.77L837.38,646.85L841.65,646.98L845.92,646.86L850.19,633.9L854.46,638.78L858.74,632.76L863.01,641.13L867.28,631.99L871.55,634.36L875.83,638.71L880.1,624.97L884.37,623.07L888.64,637.56L892.92,625.07L897.19,636.55L901.46,635.62L905.73,630.84L910,613.3L914.28,621.6L918.55,611.84L922.82,624.37L927.09,609.35L931.37,622.62L935.64,622.13L939.91,616.26L944.18,626.08L948.46,624.69L952.73,615.19L957,600.87" style="vector-effect: non-scaling-stroke; fill: none; stroke: rgb(31, 119, 180); stroke-opacity: 1; stroke-width: 2px; opacity: 1;"/></g><g class="points"/><g class="text"/></g></g></g><g class="overplot"/><path class="xlines-above crisp" d="M0,0" style="fill: none;"/><path class="ylines-above crisp" d="M0,0" style="fill: none;"/><g class="overlines-above"/><g class="xaxislayer-above"><g class="xtick"><text text-anchor="middle" x="0" y="741" transform="translate(72.82,0)" style="font-family: 'Open Sans', verdana, arial, sans-serif; font-size: 12px; fill: rgb(68, 68, 68); fill-opacity: 1; white-space: pre;">Mar 2020</text></g><g class="xtick"><text text-anchor="middle" x="0" y="741" transform="translate(205.26,0)" style="font-family: 'Open Sans', verdana, arial, sans-serif; font-size: 12px; fill: rgb(68, 68, 68); fill-opacity: 1; white-space: pre;">Apr 2020</text></g><g class="xtick"><text text-anchor="middle" x="0" y="741" transform="translate(333.43,0)" style="font-family: 'Open Sans', verdana, arial, sans-serif; font-size: 12px; fill: rgb(68, 68, 68); fill-opacity: 1; white-space: pre;">May 2020</text></g><g class="xtick"><text text-anchor="middle" x="0" y="741" transform="translate(465.87,0)" style="font-family: 'Open Sans', verdana, arial, sans-serif; font-size: 12px; fill: rgb(68, 68, 68); fill-opacity: 1; white-space: pre;">Jun 2020</text></g><g class="xtick"><text text-anchor="middle" x="0" y="741" transform="translate(594.04,0)" style="font-family: 'Open Sans', verdana, arial, sans-serif; font-size: 12px; fill: rgb(68, 68, 68); fill-opacity: 1; white-space: pre;">Jul 2020</text></g><g class="xtick"><text text-anchor="middle" x="0" y="741" transform="translate(726.48,0)" style="font-family: 'Open Sans', verdana, arial, sans-serif; font-size: 12px; fill: rgb(68, 68, 68); fill-opacity: 1; white-space: pre;">Aug 2020</text></g><g class="xtick"><text text-anchor="middle" x="0" y="741" transform="translate(858.92,0)" style="font-family: 'Open Sans', verdana, arial, sans-serif; font-size: 12px; fill: rgb(68, 68, 68); fill-opacity: 1; white-space: pre;">Sep 2020</text></g><g class="xtick"><text text-anchor="middle" x="0" y="741" transform="translate(987.09,0)" style="font-family: 'Open Sans', verdana, arial, sans-serif; font-size: 12px; fill: rgb(68, 68, 68); fill-opacity: 1; white-space: pre;">Oct 2020</text></g></g><g class="yaxislayer-above"><g class="ytick"><text text-anchor="end" x="59" y="4.199999999999999" transform="translate(0,692.85)" style="font-family: 'Open Sans', verdana, arial, sans-serif; font-size: 12px; fill: rgb(68, 68, 68); fill-opacity: 1; white-space: pre;">0</text></g><g class="ytick"><text text-anchor="end" x="59" y="4.199999999999999" transform="translate(0,532.65)" style="font-family: 'Open Sans', verdana, arial, sans-serif; font-size: 12px; fill: rgb(68, 68, 68); fill-opacity: 1; white-space: pre;">0.05</text></g><g class="ytick"><text text-anchor="end" x="59" y="4.199999999999999" transform="translate(0,372.46)" style="font-family: 'Open Sans', verdana, arial, sans-serif; font-size: 12px; fill: rgb(68, 68, 68); fill-opacity: 1; white-space: pre;">0.1</text></g><g class="ytick"><text text-anchor="end" x="59" y="4.199999999999999" transform="translate(0,212.26)" style="font-family: 'Open Sans', verdana, arial, sans-serif; font-size: 12px; fill: rgb(68, 68, 68); fill-opacity: 1; white-space: pre;">0.15</text></g><g class="ytick"><text text-anchor="end" x="59" y="4.199999999999999" transform="translate(0,52.06)" style="font-family: 'Open Sans', verdana, arial, sans-serif; font-size: 12px; fill: rgb(68, 68, 68); fill-opacity: 1; white-space: pre;">0.2</text></g></g><g class="overaxes-above"/></g></g><g class="polarlayer"/><g class="ternarylayer"/><g class="geolayer"/><g class="funnelarealayer"/><g class="pielayer"/><g class="treemaplayer"/><g class="sunburstlayer"/><g class="glimages"/><defs id="topdefs-deb8c1"><g class="clips"/></defs><g class="layer-above"><g class="imagelayer"/><g class="shapelayer"/></g><g class="infolayer"><g class="g-gtitle"><text class="gtitle" x="513.5" y="12.5" text-anchor="middle" dy="0em" style="font-family: 'Open Sans', verdana, arial, sans-serif; font-size: 17px; fill: rgb(68, 68, 68); opacity: 1; font-weight: normal; white-space: pre;">Positive cases as proportion of tested per day as of Oct 09, 2020</text></g><g class="g-xtitle" transform="translate(0,-15)"><text class="xtitle" x="538.5" y="780" text-anchor="middle" style="font-family: 'Open Sans', verdana, arial, sans-serif; font-size: 14px; fill: rgb(68, 68, 68); opacity: 1; font-weight: normal; white-space: pre;">Date</text></g><g class="g-ytitle"><text class="ytitle" transform="rotate(-90,22,376.5)" x="22" y="376.5" text-anchor="middle" style="font-family: 'Open Sans', verdana, arial, sans-serif; font-size: 14px; fill: rgb(68, 68, 68); opacity: 1; font-weight: normal; white-space: pre;">ratio of positive to tested</text></g></g></svg>