<svg class="main-svg" xmlns="http://www.w3.org/2000/svg" xmlns:xlink="http://www.w3.org/1999/xlink" width="1027" height="768" style="" viewBox="0 0 1027 768"><rect x="0" y="0" width="1027" height="768" style="fill: rgb(255, 255, 255); fill-opacity: 1;"/><defs id="defs-a4bc5f"><g class="clips"><clipPath id="clipa4bc5fxyplot" class="plotclip"><rect width="957" height="703"/></clipPath><clipPath class="axesclip" id="clipa4bc5fx"><rect x="60" y="0" width="957" height="768"/></clipPath><clipPath class="axesclip" id="clipa4bc5fy"><rect x="0" y="25" width="1027" height="703"/></clipPath><clipPath class="axesclip" id="clipa4bc5fxy"><rect x="60" y="25" width="957" height="703"/></clipPath></g><g class="gradients"/></defs><g class="bglayer"/><g class="layer-below"><g class="imagelayer"/><g class="shapelayer"/></g><g class="cartesianlayer"><g class="subplot xy"><g class="layer-subplot"><g class="shapelayer"/><g class="imagelayer"/></g><g class="gridlayer"><g class="x"><path class="xgrid crisp" transform="translate(68.67,0)" d="M0,25v703" style="stroke: rgb(238, 238, 238); stroke-opacity: 1; stroke-width: 1px;"/><path class="xgrid crisp" transform="translate(245.04,0)" d="M0,25v703" style="stroke: rgb(238, 238, 238); stroke-opacity: 1; stroke-width: 1px;"/><path class="xgrid crisp" transform="translate(421.4,0)" d="M0,25v703" style="stroke: rgb(238, 238, 238); stroke-opacity: 1; stroke-width: 1px;"/><path class="xgrid crisp" transform="translate(600.66,0)" d="M0,25v703" style="stroke: rgb(238, 238, 238); stroke-opacity: 1; stroke-width: 1px;"/><path class="xgrid crisp" transform="translate(777.03,0)" d="M0,25v703" style="stroke: rgb(238, 238, 238); stroke-opacity: 1; stroke-width: 1px;"/><path class="xgrid crisp" transform="translate(953.39,0)" d="M0,25v703" style="stroke: rgb(238, 238, 238); stroke-opacity: 1; stroke-width: 1px;"/></g><g class="y"><path class="ygrid crisp" transform="translate(0,532.65)" d="M60,0h957" style="stroke: rgb(238, 238, 238); stroke-opacity: 1; stroke-width: 1px;"/><path class="ygrid crisp" transform="translate(0,372.46)" d="M60,0h957" style="stroke: rgb(238, 238, 238); stroke-opacity: 1; stroke-width: 1px;"/><path class="ygrid crisp" transform="translate(0,212.26)" d="M60,0h957" style="stroke: rgb(238, 238, 238); stroke-opacity: 1; stroke-width: 1px;"/><path class="ygrid crisp" transform="translate(0,52.06)" d="M60,0h957" style="stroke: rgb(238, 238, 238); stroke-opacity: 1; stroke-width: 1px;"/></g></g><g class="zerolinelayer"><path class="yzl zl crisp" transform="translate(0,692.85)" d="M60,0h957" style="stroke: rgb(68, 68, 68); stroke-opacity: 1; stroke-width: 1px;"/></g><path class="xlines-below"/><path class="ylines-below"/><g class="overlines-below"/><g class="xaxislayer-below"/><g class="yaxislayer-below"/><g class="overaxes-below"/><g class="plot" transform="translate(60, 25)" clip-path="url('#clipa4bc5fxyplot')"><g class="scatterlayer mlayer"><g class="trace scatter trace22c861" style="stroke-miterlimit: 2; opacity: 1;"><g class="fills"/><g class="errorbars"/><g class="lines"><path class="js-line" d="M0,622.08L2.89,621.42L11.56,505.63L14.46,614.89L17.35,667.85L20.24,653.8L23.13,602.8L26.02,638.59L31.8,614.7L34.69,667.85L37.59,638.18L40.48,598.9L43.37,599.97L46.26,617.23L49.15,593.79L52.04,608L54.93,632.36L57.82,638.47L60.72,617.81L63.61,600.66L66.5,620.7L69.39,621.42L72.28,549.58L75.17,600.54L78.06,572.07L80.95,483.2L83.85,497.46L86.74,432.27L89.63,317.67L92.52,404.9L95.41,449.29L98.3,403.44L101.19,299.64L104.08,405.8L106.98,315.31L109.87,403.85L112.76,194.99L115.65,123.47L118.54,290.13L121.43,282.57L124.32,306.88L127.21,480.13L130.11,401.54L133,348.91L135.89,404.5L138.78,484.89L141.67,464.79L144.56,35.15L147.45,558.54L150.34,445.78L153.24,478.64L156.13,510.14L159.02,468.98L161.91,501.07L164.8,523.68L167.69,551.37L170.58,559.61L173.47,512.85L176.37,571.63L179.26,554.1L182.15,586.26L185.04,567.44L187.93,586.75L190.82,586.4L193.71,551.47L199.5,583.63L202.39,574.06L205.28,610.19L208.17,614.38L211.06,597.21L213.95,571.12L216.84,598.21L219.73,604.43L222.63,608.32L225.52,597.34L228.41,600.68L231.3,561.46L234.19,432.5L237.08,498.58L239.97,541.9L242.86,542.55L245.76,548.15L248.65,538.38L251.54,509.42L254.43,574.73L257.32,606.03L260.21,598.19L265.99,617.71L268.89,606.46L271.78,577.83L274.67,574.11L277.56,606.1L280.45,613.07L283.34,619.36L286.23,604.76L289.12,599.22L292.02,617.15L294.91,613.3L297.8,627.52L300.69,641.13L303.58,647.27L306.47,636.81L309.36,640.74L312.25,641.19L315.15,640.71L318.04,642.7L320.93,645.92L323.82,646.9L326.71,643.75L332.49,644.3L335.38,625.1L338.27,645.35L341.17,645.84L344.06,656.3L346.95,652.54L349.84,647.93L352.73,637.5L355.62,646.68L358.51,649.53L364.3,646L367.19,649.76L370.08,649.27L372.97,639.33L375.86,644.1L378.75,651.29L381.64,647.16L384.53,654.33L387.43,653.74L390.32,651.78L393.21,650.06L396.1,646.61L398.99,654.1L401.88,654.43L404.77,656.44L407.66,649.41L413.45,647.17L416.34,639.54L419.23,645.81L422.12,655.16L425.01,646.16L427.9,653.06L430.79,651.06L433.69,652.39L436.58,647.33L439.47,658.93L442.36,657.55L445.25,653.55L448.14,655.91L451.03,655.64L453.92,655.6L456.82,652.64L459.71,651.86L462.6,656.22L465.49,656.63L468.38,659.23L471.27,658.74L474.16,651.31L477.05,662.95L479.95,655.46L482.84,659.41L485.73,658.07L488.62,656.69L491.51,656.95L494.4,655.44L497.29,650.49L503.08,658.45L505.97,652.9L508.86,655.77L511.75,652.09L514.64,649.95L517.53,651.84L520.42,655.01L523.31,654.64L526.21,655.57L529.1,653.08L534.88,653.3L537.77,652.61L540.66,650.1L543.55,651.77L546.44,651.26L549.34,648.97L552.23,650.37L555.12,642.19L558.01,639.53L560.9,640.73L563.79,645.77L566.68,646.85L572.47,646.86L575.36,633.9L578.25,638.78L581.14,632.76L584.03,641.13L586.92,631.99L589.81,634.36L592.7,638.71L595.6,624.97L598.49,623.07L601.38,637.56L604.27,625.07L607.16,636.55L610.05,635.62L612.94,630.84L615.83,613.3L618.73,621.6L621.62,611.84L624.51,624.37L627.4,609.35L630.29,622.62L633.18,622.13L636.07,616.26L638.96,626.08L641.85,624.69L644.75,615.19L647.64,600.87L650.53,609.34L653.42,620.74L656.31,596.96L659.2,591.32L662.09,596.12L664.98,605.07L667.88,608.61L670.77,610.18L673.66,616.24L676.55,597.06L679.44,558.47L682.33,590.32L685.22,598.51L688.11,601.72L691.01,596.88L693.9,581.74L696.79,572.69L699.68,557.19L702.57,578.81L705.46,583.84L708.35,597.85L714.14,583.55L717.03,559.02L719.92,534.77L722.81,557.15L725.7,578.42L728.59,589.98L731.48,575.25L734.37,554.62L737.27,527.74L740.16,515.16L743.05,543.38L745.94,540.29L748.83,557.44L751.72,554.88L754.61,573.11L757.5,525L760.4,516.66L763.29,532.08L766.18,575.19L769.07,573.54L771.96,558.83L774.85,561.9L777.74,531.98L780.63,548.35L783.53,545.91L786.42,568.32L792.2,561.88L795.09,566.43L797.98,525.89L800.87,509.97L803.76,543.03L806.66,557.32L809.55,566.01L812.44,567.58L815.33,563.81L818.22,531.65L821.11,530.86L824,543.11L826.89,565.06L829.79,573.94L832.68,575.9L835.57,575.51L838.46,558.98L841.35,483.63L844.24,528.53L847.13,533.92L850.02,560.34L852.92,555.49L855.81,560.95L858.7,543.05L861.59,511.99L864.48,531.69L867.37,546.47L870.26,555.31L873.15,529.24L876.05,514.11L878.94,510.83L881.83,428.06L884.72,429L887.61,500.87L890.5,553.82L893.39,492.37L896.28,480.92L899.18,400.04L902.07,382.75L904.96,462.85L907.85,496.43L910.74,477.4L913.63,516.53L916.52,464.99L919.41,437.37L922.31,460.25L925.2,481.58L928.09,518.12L930.98,542.24L933.87,535.31L936.76,485.67L939.65,462.9L945.44,511.21L948.33,547.82L951.22,548.98L954.11,548.74L957,509.64" style="vector-effect: non-scaling-stroke; fill: none; stroke: rgb(31, 119, 180); stroke-opacity: 1; stroke-width: 2px; opacity: 1;"/></g><g class="points"/><g class="text"/></g></g></g><g class="overplot"/><path class="xlines-above crisp" d="M0,0" style="fill: none;"/><path class="ylines-above crisp" d="M0,0" style="fill: none;"/><g class="overlines-above"/><g class="xaxislayer-above"><g class="xtick"><text text-anchor="middle" x="0" y="741" transform="translate(68.67,0)" style="font-family: 'Open Sans', verdana, arial, sans-serif; font-size: 12px; fill: rgb(68, 68, 68); fill-opacity: 1; white-space: pre;">Mar 2020</text></g><g class="xtick"><text text-anchor="middle" x="0" y="741" transform="translate(245.04,0)" style="font-family: 'Open Sans', verdana, arial, sans-serif; font-size: 12px; fill: rgb(68, 68, 68); fill-opacity: 1; white-space: pre;">May 2020</text></g><g class="xtick"><text text-anchor="middle" x="0" y="741" transform="translate(421.4,0)" style="font-family: 'Open Sans', verdana, arial, sans-serif; font-size: 12px; fill: rgb(68, 68, 68); fill-opacity: 1; white-space: pre;">Jul 2020</text></g><g class="xtick"><text text-anchor="middle" x="0" y="741" transform="translate(600.66,0)" style="font-family: 'Open Sans', verdana, arial, sans-serif; font-size: 12px; fill: rgb(68, 68, 68); fill-opacity: 1; white-space: pre;">Sep 2020</text></g><g class="xtick"><text text-anchor="middle" x="0" y="741" transform="translate(777.03,0)" style="font-family: 'Open Sans', verdana, arial, sans-serif; font-size: 12px; fill: rgb(68, 68, 68); fill-opacity: 1; white-space: pre;">Nov 2020</text></g><g class="xtick"><text text-anchor="middle" x="0" y="741" transform="translate(953.39,0)" style="font-family: 'Open Sans', verdana, arial, sans-serif; font-size: 12px; fill: rgb(68, 68, 68); fill-opacity: 1; white-space: pre;">Jan 2021</text></g></g><g class="yaxislayer-above"><g class="ytick"><text text-anchor="end" x="59" y="4.199999999999999" transform="translate(0,692.85)" style="font-family: 'Open Sans', verdana, arial, sans-serif; font-size: 12px; fill: rgb(68, 68, 68); fill-opacity: 1; white-space: pre;">0</text></g><g class="ytick"><text text-anchor="end" x="59" y="4.199999999999999" transform="translate(0,532.65)" style="font-family: 'Open Sans', verdana, arial, sans-serif; font-size: 12px; fill: rgb(68, 68, 68); fill-opacity: 1; white-space: pre;">0.05</text></g><g class="ytick"><text text-anchor="end" x="59" y="4.199999999999999" transform="translate(0,372.46)" style="font-family: 'Open Sans', verdana, arial, sans-serif; font-size: 12px; fill: rgb(68, 68, 68); fill-opacity: 1; white-space: pre;">0.1</text></g><g class="ytick"><text text-anchor="end" x="59" y="4.199999999999999" transform="translate(0,212.26)" style="font-family: 'Open Sans', verdana, arial, sans-serif; font-size: 12px; fill: rgb(68, 68, 68); fill-opacity: 1; white-space: pre;">0.15</text></g><g class="ytick"><text text-anchor="end" x="59" y="4.199999999999999" transform="translate(0,52.06)" style="font-family: 'Open Sans', verdana, arial, sans-serif; font-size: 12px; fill: rgb(68, 68, 68); fill-opacity: 1; white-space: pre;">0.2</text></g></g><g class="overaxes-above"/></g></g><g class="polarlayer"/><g class="ternarylayer"/><g class="geolayer"/><g class="funnelarealayer"/><g class="pielayer"/><g class="treemaplayer"/><g class="sunburstlayer"/><g class="glimages"/><defs id="topdefs-a4bc5f"><g class="clips"/></defs><g class="layer-above"><g class="imagelayer"/><g class="shapelayer"/></g><g class="infolayer"><g class="g-gtitle"><text class="gtitle" x="513.5" y="12.5" text-anchor="middle" dy="0em" style="font-family: 'Open Sans', verdana, arial, sans-serif; font-size: 17px; fill: rgb(68, 68, 68); opacity: 1; font-weight: normal; white-space: pre;">Positive cases as proportion of tested per day as of Jan 24, 2021</text></g><g class="g-xtitle" transform="translate(0,-15)"><text class="xtitle" x="538.5" y="780" text-anchor="middle" style="font-family: 'Open Sans', verdana, arial, sans-serif; font-size: 14px; fill: rgb(68, 68, 68); opacity: 1; font-weight: normal; white-space: pre;">Date</text></g><g class="g-ytitle"><text class="ytitle" transform="rotate(-90,22,376.5)" x="22" y="376.5" text-anchor="middle" style="font-family: 'Open Sans', verdana, arial, sans-serif; font-size: 14px; fill: rgb(68, 68, 68); opacity: 1; font-weight: normal; white-space: pre;">ratio of positive to tested</text></g></g></svg>