<svg class="main-svg" xmlns="http://www.w3.org/2000/svg" xmlns:xlink="http://www.w3.org/1999/xlink" width="1027" height="768" style="" viewBox="0 0 1027 768"><rect x="0" y="0" width="1027" height="768" style="fill: rgb(255, 255, 255); fill-opacity: 1;"/><defs id="defs-3bbd17"><g class="clips"><clipPath id="clip3bbd17xyplot" class="plotclip"><rect width="957" height="703"/></clipPath><clipPath class="axesclip" id="clip3bbd17x"><rect x="60" y="0" width="957" height="768"/></clipPath><clipPath class="axesclip" id="clip3bbd17y"><rect x="0" y="25" width="1027" height="703"/></clipPath><clipPath class="axesclip" id="clip3bbd17xy"><rect x="60" y="25" width="957" height="703"/></clipPath></g><g class="gradients"/></defs><g class="bglayer"/><g class="layer-below"><g class="imagelayer"/><g class="shapelayer"/></g><g class="cartesianlayer"><g class="subplot xy"><g class="layer-subplot"><g class="shapelayer"/><g class="imagelayer"/></g><g class="gridlayer"><g class="x"><path class="xgrid crisp" transform="translate(68.92,0)" d="M0,25v703" style="stroke: rgb(238, 238, 238); stroke-opacity: 1; stroke-width: 1px;"/><path class="xgrid crisp" transform="translate(250.21,0)" d="M0,25v703" style="stroke: rgb(238, 238, 238); stroke-opacity: 1; stroke-width: 1px;"/><path class="xgrid crisp" transform="translate(431.51,0)" d="M0,25v703" style="stroke: rgb(238, 238, 238); stroke-opacity: 1; stroke-width: 1px;"/><path class="xgrid crisp" transform="translate(615.77,0)" d="M0,25v703" style="stroke: rgb(238, 238, 238); stroke-opacity: 1; stroke-width: 1px;"/><path class="xgrid crisp" transform="translate(797.07,0)" d="M0,25v703" style="stroke: rgb(238, 238, 238); stroke-opacity: 1; stroke-width: 1px;"/><path class="xgrid crisp" transform="translate(978.36,0)" d="M0,25v703" style="stroke: rgb(238, 238, 238); stroke-opacity: 1; stroke-width: 1px;"/></g><g class="y"><path class="ygrid crisp" transform="translate(0,532.65)" d="M60,0h957" style="stroke: rgb(238, 238, 238); stroke-opacity: 1; stroke-width: 1px;"/><path class="ygrid crisp" transform="translate(0,372.46)" d="M60,0h957" style="stroke: rgb(238, 238, 238); stroke-opacity: 1; stroke-width: 1px;"/><path class="ygrid crisp" transform="translate(0,212.26)" d="M60,0h957" style="stroke: rgb(238, 238, 238); stroke-opacity: 1; stroke-width: 1px;"/><path class="ygrid crisp" transform="translate(0,52.06)" d="M60,0h957" style="stroke: rgb(238, 238, 238); stroke-opacity: 1; stroke-width: 1px;"/></g></g><g class="zerolinelayer"><path class="yzl zl crisp" transform="translate(0,692.85)" d="M60,0h957" style="stroke: rgb(68, 68, 68); stroke-opacity: 1; stroke-width: 1px;"/></g><path class="xlines-below"/><path class="ylines-below"/><g class="overlines-below"/><g class="xaxislayer-below"/><g class="yaxislayer-below"/><g class="overaxes-below"/><g class="plot" transform="translate(60, 25)" clip-path="url('#clip3bbd17xyplot')"><g class="scatterlayer mlayer"><g class="trace scatter tracedd6cee" style="stroke-miterlimit: 2; opacity: 1;"><g class="fills"/><g class="errorbars"/><g class="lines"><path class="js-line" d="M0,622.08L2.97,621.42L11.89,505.63L14.86,614.89L17.83,667.85L20.8,653.8L23.78,602.8L26.75,638.59L32.69,614.7L35.66,667.85L38.64,638.18L41.61,598.9L44.58,599.97L47.55,617.23L50.52,593.79L53.5,608L56.47,632.36L59.44,638.47L62.41,617.81L65.39,600.66L68.36,620.7L71.33,621.42L74.3,549.58L77.27,600.54L80.25,572.07L83.22,483.2L86.19,497.46L89.16,432.27L92.13,317.67L95.11,404.9L98.08,449.29L101.05,403.44L104.02,299.64L106.99,405.8L109.97,315.31L112.94,403.85L115.91,194.99L118.88,123.47L121.85,290.13L124.83,282.57L127.8,306.88L130.77,480.13L133.74,401.54L136.71,348.91L139.69,404.5L142.66,484.89L145.63,464.79L148.6,35.15L151.57,558.54L154.55,445.78L157.52,478.64L160.49,510.14L163.46,468.98L166.43,501.07L169.41,523.68L172.38,551.37L175.35,559.61L178.32,512.85L181.3,571.63L184.27,554.1L187.24,586.26L190.21,567.44L193.18,586.75L196.16,586.4L199.13,551.47L205.07,583.63L208.04,574.06L211.02,610.19L213.99,614.38L216.96,597.21L219.93,571.12L222.9,598.21L225.88,604.43L228.85,608.32L231.82,597.34L234.79,600.68L237.76,561.46L240.74,432.5L243.71,498.58L246.68,541.9L249.65,542.55L252.62,548.15L255.6,538.38L258.57,509.42L261.54,574.73L264.51,606.03L267.48,598.19L273.43,617.71L276.4,606.46L279.37,577.83L282.34,574.11L285.32,606.1L288.29,613.07L291.26,619.36L294.23,604.76L297.2,599.22L300.18,617.15L303.15,613.3L306.12,627.52L309.09,641.13L312.07,647.27L315.04,636.81L318.01,640.74L320.98,641.19L323.95,640.71L326.93,642.7L329.9,645.92L332.87,646.9L335.84,643.75L341.79,644.3L344.76,625.1L347.73,645.35L350.7,645.84L353.67,656.3L356.65,652.54L359.62,647.93L362.59,637.5L365.56,646.68L368.53,649.53L374.48,646L377.45,649.76L380.42,649.27L383.39,639.33L386.37,644.1L389.34,651.29L392.31,647.16L395.28,654.33L398.25,653.74L401.23,651.78L404.2,650.06L407.17,646.61L410.14,654.1L413.11,654.43L416.09,656.44L419.06,649.41L425,647.17L427.98,639.54L430.95,645.81L433.92,655.16L436.89,646.16L439.86,653.06L442.84,651.06L445.81,652.39L448.78,647.33L451.75,658.93L454.72,657.55L457.7,653.55L460.67,655.91L463.64,655.64L466.61,655.6L469.58,652.64L472.56,651.86L475.53,656.22L478.5,656.63L481.47,659.23L484.44,658.74L487.42,651.31L490.39,662.95L493.36,655.46L496.33,659.41L499.3,658.07L502.28,656.69L505.25,656.95L508.22,655.44L511.19,650.49L517.14,658.45L520.11,652.9L523.08,655.77L526.05,652.09L529.02,649.95L532,651.84L534.97,655.01L537.94,654.64L540.91,655.57L543.89,653.08L549.83,653.3L552.8,652.61L555.77,650.1L558.75,651.77L561.72,651.26L564.69,648.97L567.66,650.37L570.63,642.19L573.61,639.53L576.58,640.73L579.55,645.77L582.52,646.85L588.47,646.86L591.44,633.9L594.41,638.78L597.38,632.76L600.35,641.13L603.33,631.99L606.3,634.36L609.27,638.71L612.24,624.97L615.21,623.07L618.19,637.56L621.16,625.07L624.13,636.55L627.1,635.62L630.07,630.84L633.05,613.3L636.02,621.6L638.99,611.84L641.96,624.37L644.93,609.35L647.91,622.62L650.88,622.13L653.85,616.26L656.82,626.08L659.8,624.69L662.77,615.19L665.74,600.87L668.71,609.34L671.68,620.74L674.66,596.96L677.63,591.32L680.6,596.12L683.57,605.07L686.54,608.61L689.52,610.18L692.49,616.24L695.46,597.06L698.43,558.47L701.4,590.32L704.38,598.51L707.35,601.72L710.32,596.88L713.29,581.74L716.26,572.69L719.24,557.19L722.21,578.81L725.18,583.84L728.15,597.85L734.1,583.55L737.07,559.02L740.04,534.77L743.01,557.15L745.98,578.42L748.96,589.98L751.93,575.25L754.9,554.62L757.87,527.74L760.84,515.16L763.82,543.38L766.79,540.29L769.76,557.44L772.73,554.88L775.7,573.11L778.68,525L781.65,516.66L784.62,532.08L787.59,575.19L790.57,573.54L793.54,558.83L796.51,561.9L799.48,531.98L802.45,548.35L805.43,545.91L808.4,568.32L814.34,561.88L817.31,566.43L820.29,525.89L823.26,509.97L826.23,543.03L829.2,557.32L832.17,566.01L835.15,567.58L838.12,563.81L841.09,531.65L844.06,530.86L847.03,543.11L850.01,565.06L852.98,573.94L855.95,575.9L858.92,575.51L861.89,558.98L864.87,483.63L867.84,528.53L870.81,533.92L873.78,560.34L876.75,555.49L879.73,560.95L882.7,543.05L885.67,511.99L888.64,531.69L891.61,546.47L894.59,555.31L897.56,529.24L900.53,514.11L903.5,510.83L906.48,428.06L909.45,429L912.42,500.87L915.39,553.82L918.36,492.37L921.34,480.92L924.31,400.04L927.28,382.75L930.25,462.85L933.22,496.43L936.2,477.4L939.17,516.53L942.14,464.99L945.11,437.37L948.08,460.25L951.06,481.58L954.03,518.12L957,542.24" style="vector-effect: non-scaling-stroke; fill: none; stroke: rgb(31, 119, 180); stroke-opacity: 1; stroke-width: 2px; opacity: 1;"/></g><g class="points"/><g class="text"/></g></g></g><g class="overplot"/><path class="xlines-above crisp" d="M0,0" style="fill: none;"/><path class="ylines-above crisp" d="M0,0" style="fill: none;"/><g class="overlines-above"/><g class="xaxislayer-above"><g class="xtick"><text text-anchor="middle" x="0" y="741" transform="translate(68.92,0)" style="font-family: 'Open Sans', verdana, arial, sans-serif; font-size: 12px; fill: rgb(68, 68, 68); fill-opacity: 1; white-space: pre;">Mar 2020</text></g><g class="xtick"><text text-anchor="middle" x="0" y="741" transform="translate(250.21,0)" style="font-family: 'Open Sans', verdana, arial, sans-serif; font-size: 12px; fill: rgb(68, 68, 68); fill-opacity: 1; white-space: pre;">May 2020</text></g><g class="xtick"><text text-anchor="middle" x="0" y="741" transform="translate(431.51,0)" style="font-family: 'Open Sans', verdana, arial, sans-serif; font-size: 12px; fill: rgb(68, 68, 68); fill-opacity: 1; white-space: pre;">Jul 2020</text></g><g class="xtick"><text text-anchor="middle" x="0" y="741" transform="translate(615.77,0)" style="font-family: 'Open Sans', verdana, arial, sans-serif; font-size: 12px; fill: rgb(68, 68, 68); fill-opacity: 1; white-space: pre;">Sep 2020</text></g><g class="xtick"><text text-anchor="middle" x="0" y="741" transform="translate(797.07,0)" style="font-family: 'Open Sans', verdana, arial, sans-serif; font-size: 12px; fill: rgb(68, 68, 68); fill-opacity: 1; white-space: pre;">Nov 2020</text></g><g class="xtick"><text text-anchor="middle" x="0" y="741" transform="translate(978.36,0)" style="font-family: 'Open Sans', verdana, arial, sans-serif; font-size: 12px; fill: rgb(68, 68, 68); fill-opacity: 1; white-space: pre;">Jan 2021</text></g></g><g class="yaxislayer-above"><g class="ytick"><text text-anchor="end" x="59" y="4.199999999999999" transform="translate(0,692.85)" style="font-family: 'Open Sans', verdana, arial, sans-serif; font-size: 12px; fill: rgb(68, 68, 68); fill-opacity: 1; white-space: pre;">0</text></g><g class="ytick"><text text-anchor="end" x="59" y="4.199999999999999" transform="translate(0,532.65)" style="font-family: 'Open Sans', verdana, arial, sans-serif; font-size: 12px; fill: rgb(68, 68, 68); fill-opacity: 1; white-space: pre;">0.05</text></g><g class="ytick"><text text-anchor="end" x="59" y="4.199999999999999" transform="translate(0,372.46)" style="font-family: 'Open Sans', verdana, arial, sans-serif; font-size: 12px; fill: rgb(68, 68, 68); fill-opacity: 1; white-space: pre;">0.1</text></g><g class="ytick"><text text-anchor="end" x="59" y="4.199999999999999" transform="translate(0,212.26)" style="font-family: 'Open Sans', verdana, arial, sans-serif; font-size: 12px; fill: rgb(68, 68, 68); fill-opacity: 1; white-space: pre;">0.15</text></g><g class="ytick"><text text-anchor="end" x="59" y="4.199999999999999" transform="translate(0,52.06)" style="font-family: 'Open Sans', verdana, arial, sans-serif; font-size: 12px; fill: rgb(68, 68, 68); fill-opacity: 1; white-space: pre;">0.2</text></g></g><g class="overaxes-above"/></g></g><g class="polarlayer"/><g class="ternarylayer"/><g class="geolayer"/><g class="funnelarealayer"/><g class="pielayer"/><g class="treemaplayer"/><g class="sunburstlayer"/><g class="glimages"/><defs id="topdefs-3bbd17"><g class="clips"/></defs><g class="layer-above"><g class="imagelayer"/><g class="shapelayer"/></g><g class="infolayer"><g class="g-gtitle"><text class="gtitle" x="513.5" y="12.5" text-anchor="middle" dy="0em" style="font-family: 'Open Sans', verdana, arial, sans-serif; font-size: 17px; fill: rgb(68, 68, 68); opacity: 1; font-weight: normal; white-space: pre;">Positive cases as proportion of tested per day as of Jan 15, 2021</text></g><g class="g-xtitle" transform="translate(0,-15)"><text class="xtitle" x="538.5" y="780" text-anchor="middle" style="font-family: 'Open Sans', verdana, arial, sans-serif; font-size: 14px; fill: rgb(68, 68, 68); opacity: 1; font-weight: normal; white-space: pre;">Date</text></g><g class="g-ytitle"><text class="ytitle" transform="rotate(-90,22,376.5)" x="22" y="376.5" text-anchor="middle" style="font-family: 'Open Sans', verdana, arial, sans-serif; font-size: 14px; fill: rgb(68, 68, 68); opacity: 1; font-weight: normal; white-space: pre;">ratio of positive to tested</text></g></g></svg>