<svg class="main-svg" xmlns="http://www.w3.org/2000/svg" xmlns:xlink="http://www.w3.org/1999/xlink" width="1027" height="768" style="" viewBox="0 0 1027 768"><rect x="0" y="0" width="1027" height="768" style="fill: rgb(255, 255, 255); fill-opacity: 1;"/><defs id="defs-5f61db"><g class="clips"><clipPath id="clip5f61dbxyplot" class="plotclip"><rect width="957" height="703"/></clipPath><clipPath class="axesclip" id="clip5f61dbx"><rect x="60" y="0" width="957" height="768"/></clipPath><clipPath class="axesclip" id="clip5f61dby"><rect x="0" y="25" width="1027" height="703"/></clipPath><clipPath class="axesclip" id="clip5f61dbxy"><rect x="60" y="25" width="957" height="703"/></clipPath></g><g class="gradients"/></defs><g class="bglayer"/><g class="layer-below"><g class="imagelayer"/><g class="shapelayer"/></g><g class="cartesianlayer"><g class="subplot xy"><g class="layer-subplot"><g class="shapelayer"/><g class="imagelayer"/></g><g class="gridlayer"><g class="x"><path class="xgrid crisp" transform="translate(71.67,0)" d="M0,25v703" style="stroke: rgb(238, 238, 238); stroke-opacity: 1; stroke-width: 1px;"/><path class="xgrid crisp" transform="translate(192.27,0)" d="M0,25v703" style="stroke: rgb(238, 238, 238); stroke-opacity: 1; stroke-width: 1px;"/><path class="xgrid crisp" transform="translate(308.98,0)" d="M0,25v703" style="stroke: rgb(238, 238, 238); stroke-opacity: 1; stroke-width: 1px;"/><path class="xgrid crisp" transform="translate(429.57,0)" d="M0,25v703" style="stroke: rgb(238, 238, 238); stroke-opacity: 1; stroke-width: 1px;"/><path class="xgrid crisp" transform="translate(546.28,0)" d="M0,25v703" style="stroke: rgb(238, 238, 238); stroke-opacity: 1; stroke-width: 1px;"/><path class="xgrid crisp" transform="translate(666.88,0)" d="M0,25v703" style="stroke: rgb(238, 238, 238); stroke-opacity: 1; stroke-width: 1px;"/><path class="xgrid crisp" transform="translate(787.48,0)" d="M0,25v703" style="stroke: rgb(238, 238, 238); stroke-opacity: 1; stroke-width: 1px;"/><path class="xgrid crisp" transform="translate(904.18,0)" d="M0,25v703" style="stroke: rgb(238, 238, 238); stroke-opacity: 1; stroke-width: 1px;"/></g><g class="y"><path class="ygrid crisp" transform="translate(0,532.65)" d="M60,0h957" style="stroke: rgb(238, 238, 238); stroke-opacity: 1; stroke-width: 1px;"/><path class="ygrid crisp" transform="translate(0,372.46)" d="M60,0h957" style="stroke: rgb(238, 238, 238); stroke-opacity: 1; stroke-width: 1px;"/><path class="ygrid crisp" transform="translate(0,212.26)" d="M60,0h957" style="stroke: rgb(238, 238, 238); stroke-opacity: 1; stroke-width: 1px;"/><path class="ygrid crisp" transform="translate(0,52.06)" d="M60,0h957" style="stroke: rgb(238, 238, 238); stroke-opacity: 1; stroke-width: 1px;"/></g></g><g class="zerolinelayer"><path class="yzl zl crisp" transform="translate(0,692.85)" d="M60,0h957" style="stroke: rgb(68, 68, 68); stroke-opacity: 1; stroke-width: 1px;"/></g><path class="xlines-below"/><path class="ylines-below"/><g class="overlines-below"/><g class="xaxislayer-below"/><g class="yaxislayer-below"/><g class="overaxes-below"/><g class="plot" transform="translate(60, 25)" clip-path="url('#clip5f61dbxyplot')"><g class="scatterlayer mlayer"><g class="trace scatter trace8cbba9" style="stroke-miterlimit: 2; opacity: 1;"><g class="fills"/><g class="errorbars"/><g class="lines"><path class="js-line" d="M0,622.08L3.89,621.42L15.56,505.63L19.45,614.89L23.34,667.85L27.23,653.8L31.12,602.8L35.01,638.59L42.79,614.7L46.68,667.85L50.57,638.18L54.46,598.9L58.35,599.97L62.24,617.23L66.13,593.79L70.02,608L73.91,632.36L77.8,638.47L81.7,617.81L85.59,600.66L89.48,620.7L93.37,621.42L97.26,549.58L101.15,600.54L105.04,572.07L108.93,483.2L112.82,497.46L116.71,432.27L120.6,317.67L124.49,404.9L128.38,449.29L132.27,403.44L136.16,299.64L140.05,405.8L143.94,315.31L147.83,403.85L151.72,194.99L155.61,123.47L159.5,290.13L163.39,282.57L167.28,306.88L171.17,480.13L175.06,401.54L178.95,348.91L182.84,404.5L186.73,484.89L190.62,464.79L194.51,35.15L198.4,558.54L202.29,445.78L206.18,478.64L210.07,510.14L213.96,468.98L217.85,501.07L221.74,523.68L225.63,551.37L229.52,559.61L233.41,512.85L237.3,571.63L241.2,554.1L245.09,586.26L248.98,567.44L252.87,586.75L256.76,586.4L260.65,551.47L264.54,566L268.43,583.63L272.32,574.06L276.21,610.19L280.1,614.38L283.99,597.21L287.88,571.12L291.77,598.21L295.66,604.43L299.55,608.32L303.44,597.34L307.33,600.68L311.22,561.46L315.11,432.5L319,498.58L322.89,541.9L326.78,542.55L330.67,548.15L334.56,538.38L338.45,509.42L342.34,574.73L346.23,606.03L350.12,598.19L354.01,608.35L357.9,617.71L361.79,606.46L365.68,577.83L369.57,574.11L373.46,606.1L377.35,613.07L381.24,619.36L385.13,604.76L389.02,599.22L392.91,617.15L396.8,613.3L400.7,627.52L404.59,641.13L408.48,647.27L412.37,636.81L416.26,640.74L420.15,641.19L424.04,640.71L427.93,642.7L431.82,645.92L435.71,646.9L439.6,643.75L447.38,644.3L451.27,625.1L455.16,645.35L459.05,645.84L462.94,656.3L466.83,652.54L470.72,647.93L474.61,637.5L478.5,646.68L482.39,649.53L490.17,646L494.06,649.76L497.95,649.27L501.84,639.33L505.73,644.1L509.62,651.29L513.51,647.16L517.4,654.33L521.29,653.74L525.18,651.78L529.07,650.06L532.96,646.61L536.85,654.1L540.74,654.43L544.63,656.44L548.52,649.41L556.3,647.17L560.2,639.54L564.09,645.81L567.98,655.16L571.87,646.16L575.76,653.06L579.65,651.06L583.54,652.39L587.43,647.33L591.32,658.93L595.21,657.55L599.1,653.55L602.99,655.91L606.88,655.64L610.77,655.6L614.66,652.64L618.55,651.86L622.44,656.22L626.33,656.63L630.22,659.23L634.11,658.74L638,651.31L641.89,662.95L645.78,655.46L649.67,659.41L653.56,658.07L657.45,656.69L661.34,656.95L665.23,655.44L669.12,650.49L673.01,655.11L676.9,658.45L680.79,652.9L684.68,655.77L688.57,652.09L692.46,649.95L696.35,651.84L700.24,655.01L704.13,654.64L708.02,655.57L711.91,653.08L715.8,653.48L723.59,652.61L727.48,650.1L731.37,651.77L735.26,651.26L739.15,648.97L743.04,650.37L746.93,642.19L750.82,639.53L754.71,640.73L758.6,645.77L762.49,646.85L766.38,646.98L770.27,646.86L774.16,633.9L778.05,638.78L781.94,632.76L785.83,641.13L789.72,631.99L793.61,634.36L797.5,638.71L801.39,624.97L805.28,623.07L809.17,637.56L813.06,625.07L816.95,636.55L820.84,635.62L824.73,630.84L828.62,613.3L832.51,621.6L836.4,611.84L840.29,624.37L844.18,609.35L848.07,622.62L851.96,622.13L855.85,616.26L859.74,626.08L863.63,624.69L867.52,615.19L871.41,600.87L875.3,609.34L879.2,620.74L883.09,596.96L886.98,591.32L890.87,596.12L894.76,605.07L898.65,608.61L902.54,610.18L906.43,616.24L910.32,597.06L914.21,558.47L918.1,590.32L921.99,598.51L925.88,601.72L929.77,596.88L933.66,581.74L937.55,572.69L941.44,557.19L945.33,578.81L949.22,583.84L953.11,597.85L957,590.27" style="vector-effect: non-scaling-stroke; fill: none; stroke: rgb(31, 119, 180); stroke-opacity: 1; stroke-width: 2px; opacity: 1;"/></g><g class="points"/><g class="text"/></g></g></g><g class="overplot"/><path class="xlines-above crisp" d="M0,0" style="fill: none;"/><path class="ylines-above crisp" d="M0,0" style="fill: none;"/><g class="overlines-above"/><g class="xaxislayer-above"><g class="xtick"><text text-anchor="middle" x="0" y="741" transform="translate(71.67,0)" style="font-family: 'Open Sans', verdana, arial, sans-serif; font-size: 12px; fill: rgb(68, 68, 68); fill-opacity: 1; white-space: pre;">Mar 2020</text></g><g class="xtick"><text text-anchor="middle" x="0" y="741" transform="translate(192.27,0)" style="font-family: 'Open Sans', verdana, arial, sans-serif; font-size: 12px; fill: rgb(68, 68, 68); fill-opacity: 1; white-space: pre;">Apr 2020</text></g><g class="xtick"><text text-anchor="middle" x="0" y="741" transform="translate(308.98,0)" style="font-family: 'Open Sans', verdana, arial, sans-serif; font-size: 12px; fill: rgb(68, 68, 68); fill-opacity: 1; white-space: pre;">May 2020</text></g><g class="xtick"><text text-anchor="middle" x="0" y="741" transform="translate(429.57,0)" style="font-family: 'Open Sans', verdana, arial, sans-serif; font-size: 12px; fill: rgb(68, 68, 68); fill-opacity: 1; white-space: pre;">Jun 2020</text></g><g class="xtick"><text text-anchor="middle" x="0" y="741" transform="translate(546.28,0)" style="font-family: 'Open Sans', verdana, arial, sans-serif; font-size: 12px; fill: rgb(68, 68, 68); fill-opacity: 1; white-space: pre;">Jul 2020</text></g><g class="xtick"><text text-anchor="middle" x="0" y="741" transform="translate(666.88,0)" style="font-family: 'Open Sans', verdana, arial, sans-serif; font-size: 12px; fill: rgb(68, 68, 68); fill-opacity: 1; white-space: pre;">Aug 2020</text></g><g class="xtick"><text text-anchor="middle" x="0" y="741" transform="translate(787.48,0)" style="font-family: 'Open Sans', verdana, arial, sans-serif; font-size: 12px; fill: rgb(68, 68, 68); fill-opacity: 1; white-space: pre;">Sep 2020</text></g><g class="xtick"><text text-anchor="middle" x="0" y="741" transform="translate(904.18,0)" style="font-family: 'Open Sans', verdana, arial, sans-serif; font-size: 12px; fill: rgb(68, 68, 68); fill-opacity: 1; white-space: pre;">Oct 2020</text></g></g><g class="yaxislayer-above"><g class="ytick"><text text-anchor="end" x="59" y="4.199999999999999" transform="translate(0,692.85)" style="font-family: 'Open Sans', verdana, arial, sans-serif; font-size: 12px; fill: rgb(68, 68, 68); fill-opacity: 1; white-space: pre;">0</text></g><g class="ytick"><text text-anchor="end" x="59" y="4.199999999999999" transform="translate(0,532.65)" style="font-family: 'Open Sans', verdana, arial, sans-serif; font-size: 12px; fill: rgb(68, 68, 68); fill-opacity: 1; white-space: pre;">0.05</text></g><g class="ytick"><text text-anchor="end" x="59" y="4.199999999999999" transform="translate(0,372.46)" style="font-family: 'Open Sans', verdana, arial, sans-serif; font-size: 12px; fill: rgb(68, 68, 68); fill-opacity: 1; white-space: pre;">0.1</text></g><g class="ytick"><text text-anchor="end" x="59" y="4.199999999999999" transform="translate(0,212.26)" style="font-family: 'Open Sans', verdana, arial, sans-serif; font-size: 12px; fill: rgb(68, 68, 68); fill-opacity: 1; white-space: pre;">0.15</text></g><g class="ytick"><text text-anchor="end" x="59" y="4.199999999999999" transform="translate(0,52.06)" style="font-family: 'Open Sans', verdana, arial, sans-serif; font-size: 12px; fill: rgb(68, 68, 68); fill-opacity: 1; white-space: pre;">0.2</text></g></g><g class="overaxes-above"/></g></g><g class="polarlayer"/><g class="ternarylayer"/><g class="geolayer"/><g class="funnelarealayer"/><g class="pielayer"/><g class="treemaplayer"/><g class="sunburstlayer"/><g class="glimages"/><defs id="topdefs-5f61db"><g class="clips"/></defs><g class="layer-above"><g class="imagelayer"/><g class="shapelayer"/></g><g class="infolayer"><g class="g-gtitle"><text class="gtitle" x="513.5" y="12.5" text-anchor="middle" dy="0em" style="font-family: 'Open Sans', verdana, arial, sans-serif; font-size: 17px; fill: rgb(68, 68, 68); opacity: 1; font-weight: normal; white-space: pre;">Positive cases as proportion of tested per day as of Oct 31, 2020</text></g><g class="g-xtitle" transform="translate(0,-15)"><text class="xtitle" x="538.5" y="780" text-anchor="middle" style="font-family: 'Open Sans', verdana, arial, sans-serif; font-size: 14px; fill: rgb(68, 68, 68); opacity: 1; font-weight: normal; white-space: pre;">Date</text></g><g class="g-ytitle"><text class="ytitle" transform="rotate(-90,22,376.5)" x="22" y="376.5" text-anchor="middle" style="font-family: 'Open Sans', verdana, arial, sans-serif; font-size: 14px; fill: rgb(68, 68, 68); opacity: 1; font-weight: normal; white-space: pre;">ratio of positive to tested</text></g></g></svg>