<svg class="main-svg" xmlns="http://www.w3.org/2000/svg" xmlns:xlink="http://www.w3.org/1999/xlink" width="1027" height="768" style="" viewBox="0 0 1027 768"><rect x="0" y="0" width="1027" height="768" style="fill: rgb(255, 255, 255); fill-opacity: 1;"/><defs id="defs-7aa000"><g class="clips"><clipPath id="clip7aa000xyplot" class="plotclip"><rect width="838" height="703"/></clipPath><clipPath class="axesclip" id="clip7aa000x"><rect x="60" y="0" width="838" height="768"/></clipPath><clipPath class="axesclip" id="clip7aa000y"><rect x="0" y="25" width="1027" height="703"/></clipPath><clipPath class="axesclip" id="clip7aa000xy"><rect x="60" y="25" width="838" height="703"/></clipPath></g><g class="gradients"/></defs><g class="bglayer"/><g class="layer-below"><g class="imagelayer"/><g class="shapelayer"/></g><g class="cartesianlayer"><g class="subplot xy"><g class="layer-subplot"><g class="shapelayer"/><g class="imagelayer"/></g><g class="gridlayer"><g class="x"><path class="xgrid crisp" transform="translate(64.18,0)" d="M0,25v703" style="stroke: rgb(238, 238, 238); stroke-opacity: 1; stroke-width: 1px;"/><path class="xgrid crisp" transform="translate(149.24,0)" d="M0,25v703" style="stroke: rgb(238, 238, 238); stroke-opacity: 1; stroke-width: 1px;"/><path class="xgrid crisp" transform="translate(234.29,0)" d="M0,25v703" style="stroke: rgb(238, 238, 238); stroke-opacity: 1; stroke-width: 1px;"/><path class="xgrid crisp" transform="translate(320.74,0)" d="M0,25v703" style="stroke: rgb(238, 238, 238); stroke-opacity: 1; stroke-width: 1px;"/><path class="xgrid crisp" transform="translate(405.8,0)" d="M0,25v703" style="stroke: rgb(238, 238, 238); stroke-opacity: 1; stroke-width: 1px;"/><path class="xgrid crisp" transform="translate(490.85,0)" d="M0,25v703" style="stroke: rgb(238, 238, 238); stroke-opacity: 1; stroke-width: 1px;"/><path class="xgrid crisp" transform="translate(573.12,0)" d="M0,25v703" style="stroke: rgb(238, 238, 238); stroke-opacity: 1; stroke-width: 1px;"/><path class="xgrid crisp" transform="translate(658.17,0)" d="M0,25v703" style="stroke: rgb(238, 238, 238); stroke-opacity: 1; stroke-width: 1px;"/><path class="xgrid crisp" transform="translate(743.23,0)" d="M0,25v703" style="stroke: rgb(238, 238, 238); stroke-opacity: 1; stroke-width: 1px;"/><path class="xgrid crisp" transform="translate(829.68,0)" d="M0,25v703" style="stroke: rgb(238, 238, 238); stroke-opacity: 1; stroke-width: 1px;"/></g><g class="y"><path class="ygrid crisp" transform="translate(0,618.38)" d="M60,0h838" style="stroke: rgb(238, 238, 238); stroke-opacity: 1; stroke-width: 1px;"/><path class="ygrid crisp" transform="translate(0,543.9)" d="M60,0h838" style="stroke: rgb(238, 238, 238); stroke-opacity: 1; stroke-width: 1px;"/><path class="ygrid crisp" transform="translate(0,469.43)" d="M60,0h838" style="stroke: rgb(238, 238, 238); stroke-opacity: 1; stroke-width: 1px;"/><path class="ygrid crisp" transform="translate(0,394.95)" d="M60,0h838" style="stroke: rgb(238, 238, 238); stroke-opacity: 1; stroke-width: 1px;"/><path class="ygrid crisp" transform="translate(0,320.48)" d="M60,0h838" style="stroke: rgb(238, 238, 238); stroke-opacity: 1; stroke-width: 1px;"/><path class="ygrid crisp" transform="translate(0,246)" d="M60,0h838" style="stroke: rgb(238, 238, 238); stroke-opacity: 1; stroke-width: 1px;"/><path class="ygrid crisp" transform="translate(0,171.53)" d="M60,0h838" style="stroke: rgb(238, 238, 238); stroke-opacity: 1; stroke-width: 1px;"/><path class="ygrid crisp" transform="translate(0,97.05)" d="M60,0h838" style="stroke: rgb(238, 238, 238); stroke-opacity: 1; stroke-width: 1px;"/></g></g><g class="zerolinelayer"><path class="yzl zl crisp" transform="translate(0,692.85)" d="M60,0h838" style="stroke: rgb(68, 68, 68); stroke-opacity: 1; stroke-width: 1px;"/></g><path class="xlines-below"/><path class="ylines-below"/><g class="overlines-below"/><g class="xaxislayer-below"/><g class="yaxislayer-below"/><g class="overaxes-below"/><g class="plot" transform="translate(60, 25)" clip-path="url('#clip7aa000xyplot')"><g class="scatterlayer mlayer"><g class="trace scatter trace9e77a2" style="stroke-miterlimit: 2; opacity: 1;"><g class="fills"/><g class="errorbars"/><g class="lines"><path class="js-line" d="M0,614.65L1.39,613.88L5.58,479.31L8.37,667.85L2.79,633.21L4.18,479.31L9.76,628.55L11.15,633.84L12.55,648.85L13.94,568.99L15.34,656.99L16.73,633.37L18.13,587.72L19.52,588.96L20.92,609.02L22.31,581.78L23.7,598.29L25.1,622.85L26.49,633.7L29.28,589.76L30.68,611.12L32.07,608.98L33.46,528.61L34.86,587.74L36.25,550.68L37.65,450.69L39.04,465.31L40.44,392.22L41.83,376.2L43.22,182.87L44.62,362.24L46.01,413.84L47.41,360.54L48.8,239.9L50.2,363.29L51.59,258.12L52.99,361.01L54.38,118.28L55.77,35.15L57.17,228.86L58.56,220.07L59.96,248.32L61.35,449.67L64.14,297.17L65.53,361.77L66.93,455.21L68.32,431.85L69.72,476.98L71.11,448.51L72.51,409.75L73.9,447.94L75.29,484.56L76.69,436.71L80.87,532.47L82.27,542.04L83.66,487.7L85.05,556.02L86.45,535.64L87.84,573.02L89.24,551.15L90.63,573.59L92.03,573.19L93.42,532.59L96.21,569.97L97.6,558.85L99,600.84L100.39,605.71L103.18,555.43L104.58,586.92L107.36,598.67L108.76,585.91L110.15,589.78L111.55,544.2L112.94,394.32L114.34,471.12L115.73,521.47L117.12,522.22L118.52,528.73L119.91,517.37L121.31,483.71L122.7,559.63L124.1,596L125.49,586.89L128.28,609.58L129.67,596.5L131.07,563.23L132.46,558.9L133.86,596.08L135.25,604.18L136.65,611.49L138.04,594.52L139.43,588.09L140.83,608.93L142.22,604.45L143.62,620.98L145.01,636.79L146.41,643.93L147.8,631.77L149.19,636.34L150.59,636.86L151.98,636.31L153.38,638.62L154.77,642.37L156.17,643.5L157.56,639.84L160.35,640.47L161.74,618.17L163.14,641.7L164.53,642.27L165.93,654.42L167.32,650.06L168.72,644.7L170.11,632.57L171.5,643.24L172.9,646.56L175.69,642.45L177.08,646.82L178.48,646.25L179.87,634.71L182.66,648.61L184.05,643.8L185.45,652.13L186.84,651.45L189.63,647.18L191.02,643.16L192.42,651.87L193.81,652.25L195.21,654.59L196.6,646.42L199.39,643.81L200.79,634.95L203.57,653.1L204.97,642.65L206.36,650.67L207.76,648.34L209.15,649.88L210.55,644L211.94,657.49L213.33,655.88L214.73,651.24L216.12,653.98L218.91,653.62L220.31,650.17L221.7,649.26L223.09,654.34L224.49,654.81L225.88,657.83L227.28,657.26L228.67,648.63L230.07,662.16L231.46,653.45L232.86,658.05L234.25,656.48L235.64,654.88L237.04,655.18L238.43,653.43L239.83,647.67L242.62,656.93L244.01,650.47L245.4,653.82L246.8,649.54L248.19,647.04L249.59,649.24L250.98,652.93L252.38,652.5L253.77,653.57L255.16,650.68L257.95,650.94L259.35,650.14L260.74,647.22L262.14,649.16L263.53,648.57L264.93,645.9L266.32,647.53L267.71,638.03L269.11,634.93L270.5,636.33L271.9,642.19L273.29,643.45L276.08,643.46L277.47,628.39L278.87,634.06L280.26,627.07L281.66,636.8L283.05,626.17L284.45,628.93L285.84,633.98L287.23,618.01L288.63,615.81L290.02,632.65L291.42,618.13L292.81,631.47L294.21,630.39L295.6,624.84L297,604.45L298.39,614.09L299.78,602.76L301.18,617.32L302.57,599.86L303.97,615.28L305.36,614.71L306.76,607.89L308.15,619.3L309.54,617.69L310.94,606.64L312.33,590L313.73,599.84L315.12,613.1L316.52,585.46L317.91,578.91L319.3,584.49L320.7,594.89L322.09,599L323.49,600.82L324.88,607.87L326.28,585.58L327.67,540.73L329.06,577.74L330.46,587.26L331.85,590.99L333.25,585.36L337.43,539.24L338.83,564.36L340.22,570.21L341.61,586.49L344.4,569.88L345.8,541.36L347.19,513.18L348.59,539.19L351.37,577.35L352.77,560.22L356.95,490.39L358.35,523.19L359.74,519.59L361.13,539.52L362.53,536.55L363.92,557.74L365.32,501.82L366.71,492.13L368.11,510.06L369.5,560.16L370.9,558.24L372.29,541.15L373.68,544.71L375.08,509.94L376.47,528.97L377.87,526.13L379.26,552.17L380.66,548.83L382.05,544.69L383.44,549.98L384.84,502.86L386.23,484.35L387.63,522.78L389.02,539.39L390.42,549.49L391.81,551.31L393.2,546.93L394.6,509.55L395.99,508.63L397.39,522.88L398.78,548.38L400.18,558.71L401.57,560.98L402.97,560.53L404.36,541.31L405.75,453.74L407.15,505.92L408.54,512.19L409.94,542.9L411.33,537.26L412.73,543.6L414.12,522.81L415.51,486.7L416.91,509.59L419.7,537.05L421.09,506.75L422.49,489.16L423.88,485.36L425.27,389.16L426.67,390.26L429.46,535.32L430.85,463.9L432.25,450.6L433.64,356.6L435.03,336.49L436.43,429.6L437.82,468.62L439.22,446.5L440.61,491.98L442.01,432.08L443.4,399.98L444.8,426.57L446.19,451.36L447.58,493.83L448.98,521.87L450.37,513.81L453.16,429.65L454.56,461.56L455.95,485.8L457.34,528.35L458.74,529.7L460.13,529.41L461.53,483.97L462.92,465.14L464.32,456.92L465.71,555.18L467.1,547.32L468.5,568.77L469.89,538.94L471.29,528.41L472.68,426.34L474.08,570.69L475.47,584.59L476.87,577.57L478.26,568.69L479.65,584.94L481.05,560.52L482.44,501.42L486.63,616.71L488.02,603.24L489.41,585.47L490.81,592.84L492.2,549.59L493.6,543.2L496.39,599.03L497.78,602.34L499.17,587.9L500.57,583.83L501.96,541.43L503.36,528.1L504.75,596.3L506.15,603.98L507.54,594.71L508.94,593.58L510.33,587.45L511.72,559.06L513.12,550.94L514.51,600.05L515.91,611.46L517.3,595.96L518.7,604.1L520.09,564.02L521.48,508.29L522.88,535.2L525.67,600.77L527.06,588.84L528.46,574.3L529.85,531.23L532.64,527.65L534.03,553.55L535.43,569.1L536.82,552.09L538.22,537.08L539.61,532.39L541,464.35L542.4,491.02L543.79,555.27L545.19,520.33L546.58,516.7L547.98,518.12L552.16,426.7L553.55,502.48L554.95,514.99L556.34,483.32L557.74,478.32L559.13,423.7L560.53,368.63L561.92,363.83L564.71,475.67L566.1,411.54L567.5,436.75L568.89,373.53L570.29,325.93L571.68,343.76L573.07,382.38L574.47,398.85L578.65,373.56L580.05,281.61L581.44,349.65L582.84,365.51L584.23,415.1L585.62,369.39L587.02,375.58L588.41,353.09L589.81,281.41L591.2,310.26L592.6,409.68L593.99,414.69L595.38,395.13L596.78,399.81L598.17,361.08L599.57,282.22L602.36,428.56L603.75,432.25L606.54,444.82L607.93,357.12L609.33,295.68L610.72,393.23L612.12,478.73L613.51,452.19L614.91,468.14L616.3,440.48L617.69,420.78L619.09,338.01L620.48,405.25L621.88,513.95L623.27,471.03L624.67,478.28L626.06,474.64L627.45,466.2L628.85,400.64L630.24,438.33L633.03,555.76L634.43,551.85L635.82,550.56L637.21,523.05L638.61,480.7L640,539.39L641.4,581.93L642.79,573.34L644.19,562.34L645.58,568.26L646.98,558.78L648.37,539.04L649.76,568.5L651.16,617.6L652.55,597.95L653.95,594.02L655.34,590.28L656.74,572.65L658.13,545.35L659.52,603.63L660.92,616.92L662.31,622.61L665.1,615.74L666.5,611.63L667.89,595.14L669.28,602.18L670.68,633.15L672.07,630.5L673.47,631.96L674.86,617.57L676.26,610.16L677.65,608.02L680.44,642.71L681.83,628.58L683.23,638.25L684.62,622.28L686.02,626.08L687.41,618.96L688.81,610.37L690.2,641.07L691.59,637.61L692.99,641.74L695.78,636.39L697.17,641.21L698.57,636.76L699.96,648.26L701.35,650.85L702.75,646.8L705.54,623.33L706.93,626L709.72,643.62L711.11,632.7L712.51,631.66L713.9,634.76L715.3,621.78L716.69,630.71L718.09,632.64L719.48,639.19L720.88,626.06L722.27,627.76L725.06,610.37L726.45,614.19L727.85,614.82L729.24,637.61L730.64,634.09L732.03,613.86L733.42,600.37L734.82,562.58L736.21,591.28L737.61,595.31L739,619.15L740.4,584.42L741.79,587.33L743.18,576.14L744.58,568.7L745.97,543.76L747.37,593.41L748.76,599.2L751.55,583.32L752.95,569.53L754.34,551.34L755.73,548.07L758.52,574.78L759.92,577.08L761.31,571.11L762.71,558.86L764.1,547.47L765.49,528.62L766.89,568.33L768.28,579.25L769.68,549.83L771.07,563.46L772.47,533.98L773.86,533.09L775.25,555.17L776.65,545.16L778.04,573.39L779.44,567.74L782.23,546.36L783.62,544.28L785.01,551.03L786.41,566.18L787.8,601.38L789.2,574.23L790.59,580.17L791.99,568.32L793.38,578.82L794.78,572.67L796.17,577.4L797.56,623.75L798.96,600.86L800.35,594.4L801.75,596.29L803.14,589.57L804.54,567L805.93,594.89L807.32,617.22L808.72,605.74L810.11,598.61L811.51,579.02L812.9,600.82L814.3,587.45L817.08,622.93L818.48,608.86L819.87,610.37L821.27,589.6L822.66,600.9L824.06,585.8L825.45,588.41L826.85,618.78L828.24,624.01" style="vector-effect: non-scaling-stroke; fill: none; stroke: rgb(31, 119, 180); stroke-opacity: 1; stroke-width: 2px; opacity: 1;"/></g><g class="points"/><g class="text"/></g><g class="trace scatter trace7b61b6" style="stroke-miterlimit: 2; opacity: 1;"><g class="fills"/><g class="errorbars"/><g class="lines"><path class="js-line" d="M828.24,624.01L829.63,602.68L831.03,594.29L832.42,588.49L833.82,587.53L836.61,611.46L838,607.89" style="vector-effect: non-scaling-stroke; fill: none; stroke: rgb(255, 127, 14); stroke-opacity: 1; stroke-width: 2px; opacity: 1;"/></g><g class="points"/><g class="text"/></g></g></g><g class="overplot"/><path class="xlines-above crisp" style="fill: none;" d="M0,0"/><path class="ylines-above crisp" style="fill: none;" d="M0,0"/><g class="overlines-above"/><g class="xaxislayer-above"><g class="xtick"><text text-anchor="middle" x="0" y="741" transform="translate(64.18,0)" style="font-family: 'Open Sans', verdana, arial, sans-serif; font-size: 12px; fill: rgb(68, 68, 68); fill-opacity: 1; white-space: pre;">Mar 2020</text></g><g class="xtick"><text text-anchor="middle" x="0" y="741" transform="translate(149.24,0)" style="font-family: 'Open Sans', verdana, arial, sans-serif; font-size: 12px; fill: rgb(68, 68, 68); fill-opacity: 1; white-space: pre;">May 2020</text></g><g class="xtick"><text text-anchor="middle" x="0" y="741" transform="translate(234.29,0)" style="font-family: 'Open Sans', verdana, arial, sans-serif; font-size: 12px; fill: rgb(68, 68, 68); fill-opacity: 1; white-space: pre;">Jul 2020</text></g><g class="xtick"><text text-anchor="middle" x="0" y="741" transform="translate(320.74,0)" style="font-family: 'Open Sans', verdana, arial, sans-serif; font-size: 12px; fill: rgb(68, 68, 68); fill-opacity: 1; white-space: pre;">Sep 2020</text></g><g class="xtick"><text text-anchor="middle" x="0" y="741" transform="translate(405.8,0)" style="font-family: 'Open Sans', verdana, arial, sans-serif; font-size: 12px; fill: rgb(68, 68, 68); fill-opacity: 1; white-space: pre;">Nov 2020</text></g><g class="xtick"><text text-anchor="middle" x="0" y="741" transform="translate(490.85,0)" style="font-family: 'Open Sans', verdana, arial, sans-serif; font-size: 12px; fill: rgb(68, 68, 68); fill-opacity: 1; white-space: pre;">Jan 2021</text></g><g class="xtick"><text text-anchor="middle" x="0" y="741" transform="translate(573.12,0)" style="font-family: 'Open Sans', verdana, arial, sans-serif; font-size: 12px; fill: rgb(68, 68, 68); fill-opacity: 1; white-space: pre;">Mar 2021</text></g><g class="xtick"><text text-anchor="middle" x="0" y="741" transform="translate(658.17,0)" style="font-family: 'Open Sans', verdana, arial, sans-serif; font-size: 12px; fill: rgb(68, 68, 68); fill-opacity: 1; white-space: pre;">May 2021</text></g><g class="xtick"><text text-anchor="middle" x="0" y="741" transform="translate(743.23,0)" style="font-family: 'Open Sans', verdana, arial, sans-serif; font-size: 12px; fill: rgb(68, 68, 68); fill-opacity: 1; white-space: pre;">Jul 2021</text></g><g class="xtick"><text text-anchor="middle" x="0" y="741" transform="translate(829.68,0)" style="font-family: 'Open Sans', verdana, arial, sans-serif; font-size: 12px; fill: rgb(68, 68, 68); fill-opacity: 1; white-space: pre;">Sep 2021</text></g></g><g class="yaxislayer-above"><g class="ytick"><text text-anchor="end" x="59" y="4.199999999999999" transform="translate(0,692.85)" style="font-family: 'Open Sans', verdana, arial, sans-serif; font-size: 12px; fill: rgb(68, 68, 68); fill-opacity: 1; white-space: pre;">0</text></g><g class="ytick"><text text-anchor="end" x="59" y="4.199999999999999" transform="translate(0,618.38)" style="font-family: 'Open Sans', verdana, arial, sans-serif; font-size: 12px; fill: rgb(68, 68, 68); fill-opacity: 1; white-space: pre;">0.02</text></g><g class="ytick"><text text-anchor="end" x="59" y="4.199999999999999" transform="translate(0,543.9)" style="font-family: 'Open Sans', verdana, arial, sans-serif; font-size: 12px; fill: rgb(68, 68, 68); fill-opacity: 1; white-space: pre;">0.04</text></g><g class="ytick"><text text-anchor="end" x="59" y="4.199999999999999" transform="translate(0,469.43)" style="font-family: 'Open Sans', verdana, arial, sans-serif; font-size: 12px; fill: rgb(68, 68, 68); fill-opacity: 1; white-space: pre;">0.06</text></g><g class="ytick"><text text-anchor="end" x="59" y="4.199999999999999" transform="translate(0,394.95)" style="font-family: 'Open Sans', verdana, arial, sans-serif; font-size: 12px; fill: rgb(68, 68, 68); fill-opacity: 1; white-space: pre;">0.08</text></g><g class="ytick"><text text-anchor="end" x="59" y="4.199999999999999" transform="translate(0,320.48)" style="font-family: 'Open Sans', verdana, arial, sans-serif; font-size: 12px; fill: rgb(68, 68, 68); fill-opacity: 1; white-space: pre;">0.1</text></g><g class="ytick"><text text-anchor="end" x="59" y="4.199999999999999" transform="translate(0,246)" style="font-family: 'Open Sans', verdana, arial, sans-serif; font-size: 12px; fill: rgb(68, 68, 68); fill-opacity: 1; white-space: pre;">0.12</text></g><g class="ytick"><text text-anchor="end" x="59" y="4.199999999999999" transform="translate(0,171.53)" style="font-family: 'Open Sans', verdana, arial, sans-serif; font-size: 12px; fill: rgb(68, 68, 68); fill-opacity: 1; white-space: pre;">0.14</text></g><g class="ytick"><text text-anchor="end" x="59" y="4.199999999999999" transform="translate(0,97.05)" style="font-family: 'Open Sans', verdana, arial, sans-serif; font-size: 12px; fill: rgb(68, 68, 68); fill-opacity: 1; white-space: pre;">0.16</text></g></g><g class="overaxes-above"/></g></g><g class="polarlayer"/><g class="ternarylayer"/><g class="geolayer"/><g class="funnelarealayer"/><g class="pielayer"/><g class="treemaplayer"/><g class="sunburstlayer"/><g class="glimages"/><defs id="topdefs-7aa000"><g class="clips"/><clipPath id="legend7aa000"><rect width="102" height="48" x="0" y="0"/></clipPath></defs><g class="layer-above"><g class="imagelayer"/><g class="shapelayer"/></g><g class="infolayer"><g class="legend" pointer-events="all" transform="translate(914.76, 25)"><rect class="bg" shape-rendering="crispEdges" style="stroke: rgb(68, 68, 68); stroke-opacity: 1; fill: rgb(255, 255, 255); fill-opacity: 1; stroke-width: 0px;" width="102" height="48" x="0" y="0"/><g class="scrollbox" transform="translate(0, 0)" clip-path="url('#legend7aa000')"><g class="groups"><g class="traces" style="opacity: 1;" transform="translate(0, 14.5)"><text class="legendtext" text-anchor="start" x="40" y="4.680000000000001" style="font-family: 'Open Sans', verdana, arial, sans-serif; font-size: 12px; fill: rgb(68, 68, 68); fill-opacity: 1; white-space: pre;">actuals</text><g class="layers" style="opacity: 1;"><g class="legendfill"/><g class="legendlines"><path class="js-line" d="M5,0h30" style="fill: none; stroke: rgb(31, 119, 180); stroke-opacity: 1; stroke-width: 2px;"/></g><g class="legendsymbols"><g class="legendpoints"/></g></g><rect class="legendtoggle" x="0" y="-9.5" width="96.21875" height="19" style="fill: rgb(0, 0, 0); fill-opacity: 0;"/></g><g class="traces" style="opacity: 1;" transform="translate(0, 33.5)"><text class="legendtext" text-anchor="start" x="40" y="4.680000000000001" style="font-family: 'Open Sans', verdana, arial, sans-serif; font-size: 12px; fill: rgb(68, 68, 68); fill-opacity: 1; white-space: pre;">forecasts</text><g class="layers" style="opacity: 1;"><g class="legendfill"/><g class="legendlines"><path class="js-line" d="M5,0h30" style="fill: none; stroke: rgb(255, 127, 14); stroke-opacity: 1; stroke-width: 2px;"/></g><g class="legendsymbols"><g class="legendpoints"/></g></g><rect class="legendtoggle" x="0" y="-9.5" width="96.21875" height="19" style="fill: rgb(0, 0, 0); fill-opacity: 0;"/></g></g></g><rect class="scrollbar" rx="20" ry="3" width="0" height="0" style="fill: rgb(128, 139, 164); fill-opacity: 1;" x="0" y="0"/></g><g class="g-gtitle"><text class="gtitle" x="513.5" y="12.5" text-anchor="middle" dy="0em" style="font-family: 'Open Sans', verdana, arial, sans-serif; font-size: 17px; fill: rgb(68, 68, 68); opacity: 1; font-weight: normal; white-space: pre;">Positive cases as proportion of tested per day as of Oct 14, 2021. Including a 7-day forecast of positivity rate.</text></g><g class="g-xtitle" transform="translate(0,-15)"><text class="xtitle" x="479" y="780" text-anchor="middle" style="font-family: 'Open Sans', verdana, arial, sans-serif; font-size: 14px; fill: rgb(68, 68, 68); opacity: 1; font-weight: normal; white-space: pre;">Date</text></g><g class="g-ytitle"><text class="ytitle" transform="rotate(-90,22,376.5)" x="22" y="376.5" text-anchor="middle" style="font-family: 'Open Sans', verdana, arial, sans-serif; font-size: 14px; fill: rgb(68, 68, 68); opacity: 1; font-weight: normal; white-space: pre;">ratio of positive to tested</text></g></g></svg>