<svg class="main-svg" xmlns="http://www.w3.org/2000/svg" xmlns:xlink="http://www.w3.org/1999/xlink" width="1027" height="768" style="" viewBox="0 0 1027 768"><rect x="0" y="0" width="1027" height="768" style="fill: rgb(255, 255, 255); fill-opacity: 1;"/><defs id="defs-063319"><g class="clips"><clipPath id="clip063319xyplot" class="plotclip"><rect width="942" height="703"/></clipPath><clipPath class="axesclip" id="clip063319x"><rect x="60" y="0" width="942" height="768"/></clipPath><clipPath class="axesclip" id="clip063319y"><rect x="0" y="25" width="1027" height="703"/></clipPath><clipPath class="axesclip" id="clip063319xy"><rect x="60" y="25" width="942" height="703"/></clipPath></g><g class="gradients"/></defs><g class="bglayer"/><g class="layer-below"><g class="imagelayer"/><g class="shapelayer"/></g><g class="cartesianlayer"><g class="subplot xy"><g class="layer-subplot"><g class="shapelayer"/><g class="imagelayer"/></g><g class="gridlayer"><g class="x"><path class="xgrid crisp" transform="translate(72.85,0)" d="M0,25v703" style="stroke: rgb(238, 238, 238); stroke-opacity: 1; stroke-width: 1px;"/><path class="xgrid crisp" transform="translate(205.58,0)" d="M0,25v703" style="stroke: rgb(238, 238, 238); stroke-opacity: 1; stroke-width: 1px;"/><path class="xgrid crisp" transform="translate(334.04,0)" d="M0,25v703" style="stroke: rgb(238, 238, 238); stroke-opacity: 1; stroke-width: 1px;"/><path class="xgrid crisp" transform="translate(466.77,0)" d="M0,25v703" style="stroke: rgb(238, 238, 238); stroke-opacity: 1; stroke-width: 1px;"/><path class="xgrid crisp" transform="translate(595.23,0)" d="M0,25v703" style="stroke: rgb(238, 238, 238); stroke-opacity: 1; stroke-width: 1px;"/><path class="xgrid crisp" transform="translate(727.96,0)" d="M0,25v703" style="stroke: rgb(238, 238, 238); stroke-opacity: 1; stroke-width: 1px;"/><path class="xgrid crisp" transform="translate(860.7,0)" d="M0,25v703" style="stroke: rgb(238, 238, 238); stroke-opacity: 1; stroke-width: 1px;"/><path class="xgrid crisp" transform="translate(989.15,0)" d="M0,25v703" style="stroke: rgb(238, 238, 238); stroke-opacity: 1; stroke-width: 1px;"/></g><g class="y"><path class="ygrid crisp" transform="translate(0,532.65)" d="M60,0h942" style="stroke: rgb(238, 238, 238); stroke-opacity: 1; stroke-width: 1px;"/><path class="ygrid crisp" transform="translate(0,372.46)" d="M60,0h942" style="stroke: rgb(238, 238, 238); stroke-opacity: 1; stroke-width: 1px;"/><path class="ygrid crisp" transform="translate(0,212.26)" d="M60,0h942" style="stroke: rgb(238, 238, 238); stroke-opacity: 1; stroke-width: 1px;"/><path class="ygrid crisp" transform="translate(0,52.06)" d="M60,0h942" style="stroke: rgb(238, 238, 238); stroke-opacity: 1; stroke-width: 1px;"/></g></g><g class="zerolinelayer"><path class="yzl zl crisp" transform="translate(0,692.85)" d="M60,0h942" style="stroke: rgb(68, 68, 68); stroke-opacity: 1; stroke-width: 1px;"/></g><path class="xlines-below"/><path class="ylines-below"/><g class="overlines-below"/><g class="xaxislayer-below"/><g class="yaxislayer-below"/><g class="overaxes-below"/><g class="plot" transform="translate(60, 25)" clip-path="url('#clip063319xyplot')"><g class="scatterlayer mlayer"><g class="trace scatter tracec3f3ef" style="stroke-miterlimit: 2; opacity: 1;"><g class="fills"/><g class="errorbars"/><g class="lines"><path class="js-line" d="M0,622.08L4.28,621.42L17.13,505.63L21.41,614.89L25.69,667.85L29.97,653.8L34.25,602.8L38.54,638.59L47.1,614.7L51.38,667.85L55.66,638.18L59.95,598.9L64.23,599.97L68.51,617.23L72.79,593.79L77.07,608L81.35,632.36L85.64,638.47L89.92,617.81L94.2,600.66L98.48,620.7L102.76,621.42L107.05,549.58L111.33,600.54L115.61,572.07L119.89,483.2L124.17,497.46L128.45,432.27L132.74,317.67L137.02,404.9L141.3,449.29L145.58,403.44L149.86,299.64L154.15,405.8L158.43,315.31L162.71,403.85L166.99,194.99L171.27,123.47L175.55,290.13L179.84,282.57L184.12,306.88L188.4,480.13L192.68,401.54L196.96,348.91L201.25,404.5L205.53,484.89L209.81,464.79L214.09,35.15L218.37,558.54L222.65,445.78L226.94,478.64L231.22,510.14L235.5,468.98L239.78,501.07L244.06,523.68L248.35,551.37L252.63,559.61L256.91,512.85L261.19,571.63L265.47,554.1L269.75,586.26L274.04,567.44L278.32,586.75L282.6,586.4L286.88,551.47L291.16,566L295.45,583.63L299.73,574.06L304.01,610.19L308.29,614.38L312.57,597.21L316.85,571.12L321.14,598.21L325.42,604.43L329.7,608.32L333.98,597.34L338.26,600.68L342.55,561.46L346.83,432.5L351.11,498.58L355.39,541.9L359.67,542.55L363.95,548.15L368.24,538.38L372.52,509.42L376.8,574.73L381.08,606.03L385.36,598.19L389.65,608.35L393.93,617.71L398.21,606.46L402.49,577.83L406.77,574.11L411.05,606.1L415.34,613.07L419.62,619.36L423.9,604.76L428.18,599.22L432.46,617.15L436.75,613.3L441.03,627.52L445.31,641.13L449.59,647.27L453.87,636.81L458.15,640.74L462.44,641.19L466.72,640.71L471,642.7L475.28,645.92L479.56,646.9L483.85,643.75L492.41,644.3L496.69,625.1L500.97,645.35L505.25,645.84L509.54,656.3L513.82,652.54L518.1,647.93L522.38,637.5L526.66,646.68L530.95,649.53L539.51,646L543.79,649.76L548.07,649.27L552.35,639.33L556.64,644.1L560.92,651.29L565.2,647.16L569.48,654.33L573.76,653.74L578.05,651.78L582.33,650.06L586.61,646.61L590.89,654.1L595.17,654.43L599.45,656.44L603.74,649.41L612.3,647.17L616.58,639.54L620.86,645.81L625.15,655.16L629.43,646.16L633.71,653.06L637.99,651.06L642.27,652.39L646.55,647.33L650.84,658.93L655.12,657.55L659.4,653.55L663.68,655.91L667.96,655.64L672.25,655.6L676.53,652.64L680.81,651.86L685.09,656.22L689.37,656.63L693.65,659.23L697.94,658.74L702.22,651.31L706.5,662.95L710.78,655.46L715.06,659.41L719.35,658.07L723.63,656.69L727.91,656.95L732.19,655.44L736.47,650.49L740.75,655.11L745.04,658.45L749.32,652.9L753.6,655.77L757.88,652.09L762.16,649.95L766.45,651.84L770.73,655.01L775.01,654.64L779.29,655.57L783.57,653.08L787.85,653.48L796.42,652.61L800.7,650.1L804.98,651.77L809.26,651.26L813.55,648.97L817.83,650.37L822.11,642.19L826.39,639.53L830.67,640.73L834.95,645.77L839.24,646.85L843.52,646.98L847.8,646.86L852.08,633.9L856.36,638.78L860.65,632.76L864.93,641.13L869.21,631.99L873.49,634.36L877.77,638.71L882.05,624.97L886.34,623.07L890.62,637.56L894.9,625.07L899.18,636.55L903.46,635.62L907.75,630.84L912.03,613.3L916.31,621.6L920.59,611.84L924.87,624.37L929.15,609.35L933.44,622.62L937.72,622.13L942,616.26" style="vector-effect: non-scaling-stroke; fill: none; stroke: rgb(31, 119, 180); stroke-opacity: 1; stroke-width: 2px; opacity: 1;"/></g><g class="points"/><g class="text"/></g></g></g><g class="overplot"/><path class="xlines-above crisp" d="M0,0" style="fill: none;"/><path class="ylines-above crisp" d="M0,0" style="fill: none;"/><g class="overlines-above"/><g class="xaxislayer-above"><g class="xtick"><text text-anchor="middle" x="0" y="741" transform="translate(72.85,0)" style="font-family: 'Open Sans', verdana, arial, sans-serif; font-size: 12px; fill: rgb(68, 68, 68); fill-opacity: 1; white-space: pre;">Mar 2020</text></g><g class="xtick"><text text-anchor="middle" x="0" y="741" transform="translate(205.58,0)" style="font-family: 'Open Sans', verdana, arial, sans-serif; font-size: 12px; fill: rgb(68, 68, 68); fill-opacity: 1; white-space: pre;">Apr 2020</text></g><g class="xtick"><text text-anchor="middle" x="0" y="741" transform="translate(334.04,0)" style="font-family: 'Open Sans', verdana, arial, sans-serif; font-size: 12px; fill: rgb(68, 68, 68); fill-opacity: 1; white-space: pre;">May 2020</text></g><g class="xtick"><text text-anchor="middle" x="0" y="741" transform="translate(466.77,0)" style="font-family: 'Open Sans', verdana, arial, sans-serif; font-size: 12px; fill: rgb(68, 68, 68); fill-opacity: 1; white-space: pre;">Jun 2020</text></g><g class="xtick"><text text-anchor="middle" x="0" y="741" transform="translate(595.23,0)" style="font-family: 'Open Sans', verdana, arial, sans-serif; font-size: 12px; fill: rgb(68, 68, 68); fill-opacity: 1; white-space: pre;">Jul 2020</text></g><g class="xtick"><text text-anchor="middle" x="0" y="741" transform="translate(727.96,0)" style="font-family: 'Open Sans', verdana, arial, sans-serif; font-size: 12px; fill: rgb(68, 68, 68); fill-opacity: 1; white-space: pre;">Aug 2020</text></g><g class="xtick"><text text-anchor="middle" x="0" y="741" transform="translate(860.7,0)" style="font-family: 'Open Sans', verdana, arial, sans-serif; font-size: 12px; fill: rgb(68, 68, 68); fill-opacity: 1; white-space: pre;">Sep 2020</text></g><g class="xtick"><text text-anchor="middle" x="0" y="741" transform="translate(989.15,0)" style="font-family: 'Open Sans', verdana, arial, sans-serif; font-size: 12px; fill: rgb(68, 68, 68); fill-opacity: 1; white-space: pre;">Oct 2020</text></g></g><g class="yaxislayer-above"><g class="ytick"><text text-anchor="end" x="59" y="4.199999999999999" transform="translate(0,692.85)" style="font-family: 'Open Sans', verdana, arial, sans-serif; font-size: 12px; fill: rgb(68, 68, 68); fill-opacity: 1; white-space: pre;">0</text></g><g class="ytick"><text text-anchor="end" x="59" y="4.199999999999999" transform="translate(0,532.65)" style="font-family: 'Open Sans', verdana, arial, sans-serif; font-size: 12px; fill: rgb(68, 68, 68); fill-opacity: 1; white-space: pre;">0.05</text></g><g class="ytick"><text text-anchor="end" x="59" y="4.199999999999999" transform="translate(0,372.46)" style="font-family: 'Open Sans', verdana, arial, sans-serif; font-size: 12px; fill: rgb(68, 68, 68); fill-opacity: 1; white-space: pre;">0.1</text></g><g class="ytick"><text text-anchor="end" x="59" y="4.199999999999999" transform="translate(0,212.26)" style="font-family: 'Open Sans', verdana, arial, sans-serif; font-size: 12px; fill: rgb(68, 68, 68); fill-opacity: 1; white-space: pre;">0.15</text></g><g class="ytick"><text text-anchor="end" x="59" y="4.199999999999999" transform="translate(0,52.06)" style="font-family: 'Open Sans', verdana, arial, sans-serif; font-size: 12px; fill: rgb(68, 68, 68); fill-opacity: 1; white-space: pre;">0.2</text></g></g><g class="overaxes-above"/></g></g><g class="polarlayer"/><g class="ternarylayer"/><g class="geolayer"/><g class="funnelarealayer"/><g class="pielayer"/><g class="treemaplayer"/><g class="sunburstlayer"/><g class="glimages"/><defs id="topdefs-063319"><g class="clips"/></defs><g class="layer-above"><g class="imagelayer"/><g class="shapelayer"/></g><g class="infolayer"><g class="g-gtitle"><text class="gtitle" x="513.5" y="12.5" text-anchor="middle" dy="0em" style="font-family: 'Open Sans', verdana, arial, sans-serif; font-size: 17px; fill: rgb(68, 68, 68); opacity: 1; font-weight: normal; white-space: pre;">Positive cases as proportion of tested per day as of Oct 06, 2020</text></g><g class="g-xtitle" transform="translate(0,-15)"><text class="xtitle" x="531" y="780" text-anchor="middle" style="font-family: 'Open Sans', verdana, arial, sans-serif; font-size: 14px; fill: rgb(68, 68, 68); opacity: 1; font-weight: normal; white-space: pre;">Date</text></g><g class="g-ytitle"><text class="ytitle" transform="rotate(-90,22,376.5)" x="22" y="376.5" text-anchor="middle" style="font-family: 'Open Sans', verdana, arial, sans-serif; font-size: 14px; fill: rgb(68, 68, 68); opacity: 1; font-weight: normal; white-space: pre;">ratio of positive to tested</text></g></g></svg>